%TF.GenerationSoftware,KiCad,Pcbnew,(6.0.7)*%
%TF.CreationDate,2022-09-30T18:15:50+08:00*%
%TF.ProjectId,UINIO-EVB-STM32L051K8,55494e49-4f2d-4455-9642-2d53544d3332,rev?*%
%TF.SameCoordinates,Original*%
%TF.FileFunction,Legend,Top*%
%TF.FilePolarity,Positive*%
%FSLAX46Y46*%
G04 Gerber Fmt 4.6, Leading zero omitted, Abs format (unit mm)*
G04 Created by KiCad (PCBNEW (6.0.7)) date 2022-09-30 18:15:50*
%MOMM*%
%LPD*%
G01*
G04 APERTURE LIST*
G04 Aperture macros list*
%AMRoundRect*
0 Rectangle with rounded corners*
0 $1 Rounding radius*
0 $2 $3 $4 $5 $6 $7 $8 $9 X,Y pos of 4 corners*
0 Add a 4 corners polygon primitive as box body*
4,1,4,$2,$3,$4,$5,$6,$7,$8,$9,$2,$3,0*
0 Add four circle primitives for the rounded corners*
1,1,$1+$1,$2,$3*
1,1,$1+$1,$4,$5*
1,1,$1+$1,$6,$7*
1,1,$1+$1,$8,$9*
0 Add four rect primitives between the rounded corners*
20,1,$1+$1,$2,$3,$4,$5,0*
20,1,$1+$1,$4,$5,$6,$7,0*
20,1,$1+$1,$6,$7,$8,$9,0*
20,1,$1+$1,$8,$9,$2,$3,0*%
%AMRotRect*
0 Rectangle, with rotation*
0 The origin of the aperture is its center*
0 $1 length*
0 $2 width*
0 $3 Rotation angle, in degrees counterclockwise*
0 Add horizontal line*
21,1,$1,$2,0,0,$3*%
G04 Aperture macros list end*
%ADD10C,0.075000*%
%ADD11C,0.100000*%
%ADD12C,0.150000*%
%ADD13C,0.300000*%
%ADD14C,0.120000*%
%ADD15C,0.254000*%
%ADD16RoundRect,0.135000X0.135000X0.185000X-0.135000X0.185000X-0.135000X-0.185000X0.135000X-0.185000X0*%
%ADD17RoundRect,0.140000X-0.170000X0.140000X-0.170000X-0.140000X0.170000X-0.140000X0.170000X0.140000X0*%
%ADD18RoundRect,0.250000X0.625000X-0.375000X0.625000X0.375000X-0.625000X0.375000X-0.625000X-0.375000X0*%
%ADD19RoundRect,0.140000X0.140000X0.170000X-0.140000X0.170000X-0.140000X-0.170000X0.140000X-0.170000X0*%
%ADD20RotRect,0.600000X0.300000X135.000000*%
%ADD21RotRect,0.600000X0.300000X225.000000*%
%ADD22RotRect,0.600000X0.300000X315.000000*%
%ADD23RotRect,0.600000X0.300000X45.000000*%
%ADD24RotRect,3.450000X3.450000X45.000000*%
%ADD25RoundRect,0.135000X-0.185000X0.135000X-0.185000X-0.135000X0.185000X-0.135000X0.185000X0.135000X0*%
%ADD26O,1.700000X1.700000*%
%ADD27R,1.700000X1.700000*%
%ADD28C,0.650000*%
%ADD29O,1.000000X2.100000*%
%ADD30O,1.000000X1.900000*%
%ADD31R,0.600000X1.150000*%
%ADD32R,0.300000X1.150000*%
%ADD33RoundRect,0.140000X0.170000X-0.140000X0.170000X0.140000X-0.170000X0.140000X-0.170000X-0.140000X0*%
%ADD34R,1.500000X1.500000*%
%ADD35RoundRect,0.218750X0.256250X-0.218750X0.256250X0.218750X-0.256250X0.218750X-0.256250X-0.218750X0*%
%ADD36RoundRect,0.140000X-0.140000X-0.170000X0.140000X-0.170000X0.140000X0.170000X-0.140000X0.170000X0*%
%ADD37R,1.400000X1.200000*%
%ADD38R,0.600000X1.000000*%
G04 APERTURE END LIST*
D10*
X146848095Y-124820952D02*
X146981428Y-125220952D01*
X147114761Y-124820952D01*
X147400476Y-125201904D02*
X147362380Y-125220952D01*
X147286190Y-125220952D01*
X147248095Y-125201904D01*
X147229047Y-125163809D01*
X147229047Y-125011428D01*
X147248095Y-124973333D01*
X147286190Y-124954285D01*
X147362380Y-124954285D01*
X147400476Y-124973333D01*
X147419523Y-125011428D01*
X147419523Y-125049523D01*
X147229047Y-125087619D01*
X147590952Y-125220952D02*
X147590952Y-124954285D01*
X147590952Y-125030476D02*
X147610000Y-124992380D01*
X147629047Y-124973333D01*
X147667142Y-124954285D01*
X147705238Y-124954285D01*
X147819523Y-125201904D02*
X147857619Y-125220952D01*
X147933809Y-125220952D01*
X147971904Y-125201904D01*
X147990952Y-125163809D01*
X147990952Y-125144761D01*
X147971904Y-125106666D01*
X147933809Y-125087619D01*
X147876666Y-125087619D01*
X147838571Y-125068571D01*
X147819523Y-125030476D01*
X147819523Y-125011428D01*
X147838571Y-124973333D01*
X147876666Y-124954285D01*
X147933809Y-124954285D01*
X147971904Y-124973333D01*
X148162380Y-125220952D02*
X148162380Y-124954285D01*
X148162380Y-124820952D02*
X148143333Y-124840000D01*
X148162380Y-124859047D01*
X148181428Y-124840000D01*
X148162380Y-124820952D01*
X148162380Y-124859047D01*
X148410000Y-125220952D02*
X148371904Y-125201904D01*
X148352857Y-125182857D01*
X148333809Y-125144761D01*
X148333809Y-125030476D01*
X148352857Y-124992380D01*
X148371904Y-124973333D01*
X148410000Y-124954285D01*
X148467142Y-124954285D01*
X148505238Y-124973333D01*
X148524285Y-124992380D01*
X148543333Y-125030476D01*
X148543333Y-125144761D01*
X148524285Y-125182857D01*
X148505238Y-125201904D01*
X148467142Y-125220952D01*
X148410000Y-125220952D01*
X148714761Y-124954285D02*
X148714761Y-125220952D01*
X148714761Y-124992380D02*
X148733809Y-124973333D01*
X148771904Y-124954285D01*
X148829047Y-124954285D01*
X148867142Y-124973333D01*
X148886190Y-125011428D01*
X148886190Y-125220952D01*
X149590952Y-125220952D02*
X149362380Y-125220952D01*
X149476666Y-125220952D02*
X149476666Y-124820952D01*
X149438571Y-124878095D01*
X149400476Y-124916190D01*
X149362380Y-124935238D01*
X149762380Y-125182857D02*
X149781428Y-125201904D01*
X149762380Y-125220952D01*
X149743333Y-125201904D01*
X149762380Y-125182857D01*
X149762380Y-125220952D01*
X150029047Y-124820952D02*
X150067142Y-124820952D01*
X150105238Y-124840000D01*
X150124285Y-124859047D01*
X150143333Y-124897142D01*
X150162380Y-124973333D01*
X150162380Y-125068571D01*
X150143333Y-125144761D01*
X150124285Y-125182857D01*
X150105238Y-125201904D01*
X150067142Y-125220952D01*
X150029047Y-125220952D01*
X149990952Y-125201904D01*
X149971904Y-125182857D01*
X149952857Y-125144761D01*
X149933809Y-125068571D01*
X149933809Y-124973333D01*
X149952857Y-124897142D01*
X149971904Y-124859047D01*
X149990952Y-124840000D01*
X150029047Y-124820952D01*
X150333809Y-125182857D02*
X150352857Y-125201904D01*
X150333809Y-125220952D01*
X150314761Y-125201904D01*
X150333809Y-125182857D01*
X150333809Y-125220952D01*
X150600476Y-124820952D02*
X150638571Y-124820952D01*
X150676666Y-124840000D01*
X150695714Y-124859047D01*
X150714761Y-124897142D01*
X150733809Y-124973333D01*
X150733809Y-125068571D01*
X150714761Y-125144761D01*
X150695714Y-125182857D01*
X150676666Y-125201904D01*
X150638571Y-125220952D01*
X150600476Y-125220952D01*
X150562380Y-125201904D01*
X150543333Y-125182857D01*
X150524285Y-125144761D01*
X150505238Y-125068571D01*
X150505238Y-124973333D01*
X150524285Y-124897142D01*
X150543333Y-124859047D01*
X150562380Y-124840000D01*
X150600476Y-124820952D01*
D11*
X150782300Y-127867918D02*
X151159424Y-128056480D01*
X150970862Y-127679357D01*
X151347986Y-127867918D02*
X151065143Y-127585076D01*
X151132487Y-127517732D01*
X151186361Y-127490795D01*
X151240236Y-127490795D01*
X151280642Y-127504264D01*
X151347986Y-127544670D01*
X151388392Y-127585076D01*
X151428798Y-127652419D01*
X151442267Y-127692825D01*
X151442267Y-127746700D01*
X151415329Y-127800575D01*
X151347986Y-127867918D01*
X151630829Y-127585076D02*
X151347986Y-127302233D01*
X151415329Y-127234890D01*
X151469204Y-127207952D01*
X151523079Y-127207952D01*
X151563485Y-127221421D01*
X151630829Y-127261827D01*
X151671235Y-127302233D01*
X151711641Y-127369577D01*
X151725109Y-127409983D01*
X151725109Y-127463857D01*
X151698172Y-127517732D01*
X151630829Y-127585076D01*
X151873265Y-127396514D02*
X152088764Y-127181015D01*
X151819390Y-126830829D02*
X151994483Y-126655735D01*
X152007952Y-126857766D01*
X152048358Y-126817360D01*
X152088764Y-126803891D01*
X152115702Y-126803891D01*
X152156108Y-126817360D01*
X152223451Y-126884703D01*
X152236920Y-126925109D01*
X152236920Y-126952047D01*
X152223451Y-126992453D01*
X152142639Y-127073265D01*
X152102233Y-127086734D01*
X152075296Y-127086734D01*
X152371607Y-126790422D02*
X152398544Y-126790422D01*
X152398544Y-126817360D01*
X152371607Y-126817360D01*
X152371607Y-126790422D01*
X152398544Y-126817360D01*
X152223451Y-126426768D02*
X152398544Y-126251674D01*
X152412013Y-126453705D01*
X152452419Y-126413299D01*
X152492825Y-126399830D01*
X152519763Y-126399830D01*
X152560169Y-126413299D01*
X152627512Y-126480642D01*
X152640981Y-126521048D01*
X152640981Y-126547986D01*
X152627512Y-126588392D01*
X152546700Y-126669204D01*
X152506294Y-126682673D01*
X152479357Y-126682673D01*
X152479357Y-126170862D02*
X152856480Y-126359424D01*
X152667918Y-125982300D01*
X156153079Y-127694077D02*
X156112673Y-127707546D01*
X156072267Y-127747952D01*
X156045329Y-127801827D01*
X156045329Y-127855702D01*
X156058798Y-127896108D01*
X156099204Y-127963451D01*
X156139610Y-128003857D01*
X156206954Y-128044264D01*
X156247360Y-128057732D01*
X156301235Y-128057732D01*
X156355109Y-128030795D01*
X156382047Y-128003857D01*
X156408984Y-127949983D01*
X156408984Y-127923045D01*
X156314703Y-127828764D01*
X156260829Y-127882639D01*
X156557140Y-127828764D02*
X156274297Y-127545922D01*
X156718764Y-127667140D01*
X156435922Y-127384297D01*
X156853451Y-127532453D02*
X156570609Y-127249610D01*
X156637952Y-127182267D01*
X156691827Y-127155329D01*
X156745702Y-127155329D01*
X156786108Y-127168798D01*
X156853451Y-127209204D01*
X156893857Y-127249610D01*
X156934264Y-127316954D01*
X156947732Y-127357360D01*
X156947732Y-127411235D01*
X156920795Y-127465109D01*
X156853451Y-127532453D01*
X153631488Y-128074416D02*
X153348645Y-127791573D01*
X153456395Y-127683824D01*
X153496801Y-127670355D01*
X153523739Y-127670355D01*
X153564145Y-127683824D01*
X153604551Y-127724230D01*
X153618019Y-127764636D01*
X153618019Y-127791573D01*
X153604551Y-127831980D01*
X153496801Y-127939729D01*
X153820050Y-127724230D02*
X153954737Y-127589543D01*
X153873925Y-127831980D02*
X153685363Y-127454856D01*
X154062487Y-127643418D01*
X154304923Y-127400981D02*
X154143299Y-127562605D01*
X154224111Y-127481793D02*
X153941268Y-127198951D01*
X153954737Y-127266294D01*
X153954737Y-127320169D01*
X153941268Y-127360575D01*
X154358798Y-126969983D02*
X154547360Y-127158544D01*
X154183705Y-126929577D02*
X154318392Y-127198951D01*
X154493485Y-127023857D01*
X154601235Y-126512047D02*
X154722453Y-127118138D01*
X154964890Y-126714077D02*
X155018764Y-126687140D01*
X155086108Y-126619796D01*
X155099577Y-126579390D01*
X155099577Y-126552453D01*
X155086108Y-126512047D01*
X155059170Y-126485109D01*
X155018764Y-126471641D01*
X154991827Y-126471641D01*
X154951421Y-126485109D01*
X154884077Y-126525516D01*
X154843671Y-126538984D01*
X154816734Y-126538984D01*
X154776328Y-126525516D01*
X154749390Y-126498578D01*
X154735922Y-126458172D01*
X154735922Y-126431235D01*
X154749390Y-126390829D01*
X154816734Y-126323485D01*
X154870609Y-126296548D01*
X154951421Y-126188798D02*
X155301607Y-126404297D01*
X155153451Y-126148392D01*
X155409357Y-126296548D01*
X155193857Y-125946361D01*
X155719137Y-125932893D02*
X155719137Y-125959830D01*
X155692199Y-126013705D01*
X155665262Y-126040642D01*
X155611387Y-126067580D01*
X155557512Y-126067580D01*
X155517106Y-126054111D01*
X155449763Y-126013705D01*
X155409357Y-125973299D01*
X155368951Y-125905955D01*
X155355482Y-125865549D01*
X155355482Y-125811674D01*
X155382419Y-125757800D01*
X155409357Y-125730862D01*
X155463231Y-125703925D01*
X155490169Y-125703925D01*
X156001980Y-125703925D02*
X155867292Y-125838612D01*
X155584450Y-125555769D01*
X156096260Y-125609644D02*
X155813418Y-125326801D01*
X156257885Y-125448019D02*
X155975042Y-125407613D01*
X155975042Y-125165177D02*
X155975042Y-125488426D01*
X158791894Y-128074010D02*
X158509052Y-127791167D01*
X158616801Y-127683418D01*
X158657207Y-127669949D01*
X158684145Y-127669949D01*
X158724551Y-127683418D01*
X158764957Y-127723824D01*
X158778426Y-127764230D01*
X158778426Y-127791167D01*
X158764957Y-127831573D01*
X158657207Y-127939323D01*
X158980456Y-127723824D02*
X159115143Y-127589137D01*
X159034331Y-127831573D02*
X158845769Y-127454450D01*
X159222893Y-127643012D01*
X159465329Y-127400575D02*
X159303705Y-127562199D01*
X159384517Y-127481387D02*
X159101674Y-127198544D01*
X159115143Y-127265888D01*
X159115143Y-127319763D01*
X159101674Y-127360169D01*
X159276768Y-127023451D02*
X159451861Y-126848358D01*
X159465329Y-127050389D01*
X159505735Y-127009983D01*
X159546142Y-126996514D01*
X159573079Y-126996514D01*
X159613485Y-127009983D01*
X159680829Y-127077326D01*
X159694297Y-127117732D01*
X159694297Y-127144670D01*
X159680829Y-127185076D01*
X159600016Y-127265888D01*
X159559610Y-127279357D01*
X159532673Y-127279357D01*
X159761641Y-126511641D02*
X159882859Y-127117732D01*
X160125296Y-126713671D02*
X160179170Y-126686734D01*
X160246514Y-126619390D01*
X160259983Y-126578984D01*
X160259983Y-126552047D01*
X160246514Y-126511641D01*
X160219577Y-126484703D01*
X160179170Y-126471235D01*
X160152233Y-126471235D01*
X160111827Y-126484703D01*
X160044483Y-126525109D01*
X160004077Y-126538578D01*
X159977140Y-126538578D01*
X159936734Y-126525109D01*
X159909796Y-126498172D01*
X159896328Y-126457766D01*
X159896328Y-126430829D01*
X159909796Y-126390422D01*
X159977140Y-126323079D01*
X160031015Y-126296142D01*
X160111827Y-126188392D02*
X160462013Y-126403891D01*
X160313857Y-126147986D01*
X160569763Y-126296142D01*
X160354264Y-125945955D01*
X160744856Y-126121048D02*
X160462013Y-125838206D01*
X160529357Y-125770862D01*
X160583231Y-125743925D01*
X160637106Y-125743925D01*
X160677512Y-125757394D01*
X160744856Y-125797800D01*
X160785262Y-125838206D01*
X160825668Y-125905549D01*
X160839137Y-125945955D01*
X160839137Y-125999830D01*
X160812199Y-126053705D01*
X160744856Y-126121048D01*
X161027699Y-125838206D02*
X160744856Y-125555363D01*
X160933418Y-125366801D02*
X160987292Y-125312926D01*
X161027699Y-125299458D01*
X161081573Y-125299458D01*
X161148917Y-125339864D01*
X161243198Y-125434145D01*
X161283604Y-125501488D01*
X161283604Y-125555363D01*
X161270135Y-125595769D01*
X161216260Y-125649644D01*
X161175854Y-125663113D01*
X161121980Y-125663113D01*
X161054636Y-125622707D01*
X160960355Y-125528426D01*
X160919949Y-125461082D01*
X160919949Y-125407207D01*
X160933418Y-125366801D01*
X166649523Y-114661904D02*
X166649523Y-113861904D01*
X166954285Y-113861904D01*
X167030476Y-113900000D01*
X167068571Y-113938095D01*
X167106666Y-114014285D01*
X167106666Y-114128571D01*
X167068571Y-114204761D01*
X167030476Y-114242857D01*
X166954285Y-114280952D01*
X166649523Y-114280952D01*
X167716190Y-114242857D02*
X167830476Y-114280952D01*
X167868571Y-114319047D01*
X167906666Y-114395238D01*
X167906666Y-114509523D01*
X167868571Y-114585714D01*
X167830476Y-114623809D01*
X167754285Y-114661904D01*
X167449523Y-114661904D01*
X167449523Y-113861904D01*
X167716190Y-113861904D01*
X167792380Y-113900000D01*
X167830476Y-113938095D01*
X167868571Y-114014285D01*
X167868571Y-114090476D01*
X167830476Y-114166666D01*
X167792380Y-114204761D01*
X167716190Y-114242857D01*
X167449523Y-114242857D01*
X168592380Y-113861904D02*
X168440000Y-113861904D01*
X168363809Y-113900000D01*
X168325714Y-113938095D01*
X168249523Y-114052380D01*
X168211428Y-114204761D01*
X168211428Y-114509523D01*
X168249523Y-114585714D01*
X168287619Y-114623809D01*
X168363809Y-114661904D01*
X168516190Y-114661904D01*
X168592380Y-114623809D01*
X168630476Y-114585714D01*
X168668571Y-114509523D01*
X168668571Y-114319047D01*
X168630476Y-114242857D01*
X168592380Y-114204761D01*
X168516190Y-114166666D01*
X168363809Y-114166666D01*
X168287619Y-114204761D01*
X168249523Y-114242857D01*
X168211428Y-114319047D01*
X141306666Y-107041904D02*
X141306666Y-106241904D01*
X141611428Y-106241904D01*
X141687619Y-106280000D01*
X141725714Y-106318095D01*
X141763809Y-106394285D01*
X141763809Y-106508571D01*
X141725714Y-106584761D01*
X141687619Y-106622857D01*
X141611428Y-106660952D01*
X141306666Y-106660952D01*
X142068571Y-106813333D02*
X142449523Y-106813333D01*
X141992380Y-107041904D02*
X142259047Y-106241904D01*
X142525714Y-107041904D01*
X143135238Y-106508571D02*
X143135238Y-107041904D01*
X142944761Y-106203809D02*
X142754285Y-106775238D01*
X143249523Y-106775238D01*
D12*
X144791428Y-127961428D02*
X145277142Y-127961428D01*
X145334285Y-127932857D01*
X145362857Y-127904285D01*
X145391428Y-127847142D01*
X145391428Y-127732857D01*
X145362857Y-127675714D01*
X145334285Y-127647142D01*
X145277142Y-127618571D01*
X144791428Y-127618571D01*
X145391428Y-127332857D02*
X144791428Y-127332857D01*
X145391428Y-127047142D02*
X144791428Y-127047142D01*
X145391428Y-126704285D01*
X144791428Y-126704285D01*
X145391428Y-126418571D02*
X144791428Y-126418571D01*
X144791428Y-126018571D02*
X144791428Y-125904285D01*
X144820000Y-125847142D01*
X144877142Y-125790000D01*
X144991428Y-125761428D01*
X145191428Y-125761428D01*
X145305714Y-125790000D01*
X145362857Y-125847142D01*
X145391428Y-125904285D01*
X145391428Y-126018571D01*
X145362857Y-126075714D01*
X145305714Y-126132857D01*
X145191428Y-126161428D01*
X144991428Y-126161428D01*
X144877142Y-126132857D01*
X144820000Y-126075714D01*
X144791428Y-126018571D01*
X145162857Y-125504285D02*
X145162857Y-125047142D01*
X145077142Y-124761428D02*
X145077142Y-124561428D01*
X145391428Y-124475714D02*
X145391428Y-124761428D01*
X144791428Y-124761428D01*
X144791428Y-124475714D01*
X144791428Y-124304285D02*
X145391428Y-124104285D01*
X144791428Y-123904285D01*
X145077142Y-123504285D02*
X145105714Y-123418571D01*
X145134285Y-123390000D01*
X145191428Y-123361428D01*
X145277142Y-123361428D01*
X145334285Y-123390000D01*
X145362857Y-123418571D01*
X145391428Y-123475714D01*
X145391428Y-123704285D01*
X144791428Y-123704285D01*
X144791428Y-123504285D01*
X144820000Y-123447142D01*
X144848571Y-123418571D01*
X144905714Y-123390000D01*
X144962857Y-123390000D01*
X145020000Y-123418571D01*
X145048571Y-123447142D01*
X145077142Y-123504285D01*
X145077142Y-123704285D01*
X145162857Y-123104285D02*
X145162857Y-122647142D01*
X145362857Y-122390000D02*
X145391428Y-122304285D01*
X145391428Y-122161428D01*
X145362857Y-122104285D01*
X145334285Y-122075714D01*
X145277142Y-122047142D01*
X145220000Y-122047142D01*
X145162857Y-122075714D01*
X145134285Y-122104285D01*
X145105714Y-122161428D01*
X145077142Y-122275714D01*
X145048571Y-122332857D01*
X145020000Y-122361428D01*
X144962857Y-122390000D01*
X144905714Y-122390000D01*
X144848571Y-122361428D01*
X144820000Y-122332857D01*
X144791428Y-122275714D01*
X144791428Y-122132857D01*
X144820000Y-122047142D01*
X144791428Y-121875714D02*
X144791428Y-121532857D01*
X145391428Y-121704285D02*
X144791428Y-121704285D01*
X145391428Y-121332857D02*
X144791428Y-121332857D01*
X145220000Y-121132857D01*
X144791428Y-120932857D01*
X145391428Y-120932857D01*
X144791428Y-120704285D02*
X144791428Y-120332857D01*
X145020000Y-120532857D01*
X145020000Y-120447142D01*
X145048571Y-120390000D01*
X145077142Y-120361428D01*
X145134285Y-120332857D01*
X145277142Y-120332857D01*
X145334285Y-120361428D01*
X145362857Y-120390000D01*
X145391428Y-120447142D01*
X145391428Y-120618571D01*
X145362857Y-120675714D01*
X145334285Y-120704285D01*
X144848571Y-120104285D02*
X144820000Y-120075714D01*
X144791428Y-120018571D01*
X144791428Y-119875714D01*
X144820000Y-119818571D01*
X144848571Y-119790000D01*
X144905714Y-119761428D01*
X144962857Y-119761428D01*
X145048571Y-119790000D01*
X145391428Y-120132857D01*
X145391428Y-119761428D01*
X145391428Y-119218571D02*
X145391428Y-119504285D01*
X144791428Y-119504285D01*
X144791428Y-118904285D02*
X144791428Y-118847142D01*
X144820000Y-118790000D01*
X144848571Y-118761428D01*
X144905714Y-118732857D01*
X145020000Y-118704285D01*
X145162857Y-118704285D01*
X145277142Y-118732857D01*
X145334285Y-118761428D01*
X145362857Y-118790000D01*
X145391428Y-118847142D01*
X145391428Y-118904285D01*
X145362857Y-118961428D01*
X145334285Y-118990000D01*
X145277142Y-119018571D01*
X145162857Y-119047142D01*
X145020000Y-119047142D01*
X144905714Y-119018571D01*
X144848571Y-118990000D01*
X144820000Y-118961428D01*
X144791428Y-118904285D01*
X144791428Y-118161428D02*
X144791428Y-118447142D01*
X145077142Y-118475714D01*
X145048571Y-118447142D01*
X145020000Y-118390000D01*
X145020000Y-118247142D01*
X145048571Y-118190000D01*
X145077142Y-118161428D01*
X145134285Y-118132857D01*
X145277142Y-118132857D01*
X145334285Y-118161428D01*
X145362857Y-118190000D01*
X145391428Y-118247142D01*
X145391428Y-118390000D01*
X145362857Y-118447142D01*
X145334285Y-118475714D01*
X145391428Y-117561428D02*
X145391428Y-117904285D01*
X145391428Y-117732857D02*
X144791428Y-117732857D01*
X144877142Y-117790000D01*
X144934285Y-117847142D01*
X144962857Y-117904285D01*
X145391428Y-117304285D02*
X144791428Y-117304285D01*
X145391428Y-116961428D02*
X145048571Y-117218571D01*
X144791428Y-116961428D02*
X145134285Y-117304285D01*
X145048571Y-116618571D02*
X145020000Y-116675714D01*
X144991428Y-116704285D01*
X144934285Y-116732857D01*
X144905714Y-116732857D01*
X144848571Y-116704285D01*
X144820000Y-116675714D01*
X144791428Y-116618571D01*
X144791428Y-116504285D01*
X144820000Y-116447142D01*
X144848571Y-116418571D01*
X144905714Y-116390000D01*
X144934285Y-116390000D01*
X144991428Y-116418571D01*
X145020000Y-116447142D01*
X145048571Y-116504285D01*
X145048571Y-116618571D01*
X145077142Y-116675714D01*
X145105714Y-116704285D01*
X145162857Y-116732857D01*
X145277142Y-116732857D01*
X145334285Y-116704285D01*
X145362857Y-116675714D01*
X145391428Y-116618571D01*
X145391428Y-116504285D01*
X145362857Y-116447142D01*
X145334285Y-116418571D01*
X145277142Y-116390000D01*
X145162857Y-116390000D01*
X145105714Y-116418571D01*
X145077142Y-116447142D01*
X145048571Y-116504285D01*
D11*
X141306666Y-96881904D02*
X141306666Y-96081904D01*
X141611428Y-96081904D01*
X141687619Y-96120000D01*
X141725714Y-96158095D01*
X141763809Y-96234285D01*
X141763809Y-96348571D01*
X141725714Y-96424761D01*
X141687619Y-96462857D01*
X141611428Y-96500952D01*
X141306666Y-96500952D01*
X142068571Y-96653333D02*
X142449523Y-96653333D01*
X141992380Y-96881904D02*
X142259047Y-96081904D01*
X142525714Y-96881904D01*
X142944761Y-96081904D02*
X143020952Y-96081904D01*
X143097142Y-96120000D01*
X143135238Y-96158095D01*
X143173333Y-96234285D01*
X143211428Y-96386666D01*
X143211428Y-96577142D01*
X143173333Y-96729523D01*
X143135238Y-96805714D01*
X143097142Y-96843809D01*
X143020952Y-96881904D01*
X142944761Y-96881904D01*
X142868571Y-96843809D01*
X142830476Y-96805714D01*
X142792380Y-96729523D01*
X142754285Y-96577142D01*
X142754285Y-96386666D01*
X142792380Y-96234285D01*
X142830476Y-96158095D01*
X142868571Y-96120000D01*
X142944761Y-96081904D01*
X141246666Y-99421904D02*
X141246666Y-98621904D01*
X141551428Y-98621904D01*
X141627619Y-98660000D01*
X141665714Y-98698095D01*
X141703809Y-98774285D01*
X141703809Y-98888571D01*
X141665714Y-98964761D01*
X141627619Y-99002857D01*
X141551428Y-99040952D01*
X141246666Y-99040952D01*
X142008571Y-99193333D02*
X142389523Y-99193333D01*
X141932380Y-99421904D02*
X142199047Y-98621904D01*
X142465714Y-99421904D01*
X143151428Y-99421904D02*
X142694285Y-99421904D01*
X142922857Y-99421904D02*
X142922857Y-98621904D01*
X142846666Y-98736190D01*
X142770476Y-98812380D01*
X142694285Y-98850476D01*
X141306714Y-129901904D02*
X141306714Y-129101904D01*
X141611476Y-129101904D01*
X141687666Y-129140000D01*
X141725761Y-129178095D01*
X141763857Y-129254285D01*
X141763857Y-129368571D01*
X141725761Y-129444761D01*
X141687666Y-129482857D01*
X141611476Y-129520952D01*
X141306714Y-129520952D01*
X142068619Y-129673333D02*
X142449571Y-129673333D01*
X141992428Y-129901904D02*
X142259095Y-129101904D01*
X142525761Y-129901904D01*
X143211476Y-129901904D02*
X142754333Y-129901904D01*
X142982904Y-129901904D02*
X142982904Y-129101904D01*
X142906714Y-129216190D01*
X142830523Y-129292380D01*
X142754333Y-129330476D01*
X143935285Y-129101904D02*
X143554333Y-129101904D01*
X143516238Y-129482857D01*
X143554333Y-129444761D01*
X143630523Y-129406666D01*
X143821000Y-129406666D01*
X143897190Y-129444761D01*
X143935285Y-129482857D01*
X143973380Y-129559047D01*
X143973380Y-129749523D01*
X143935285Y-129825714D01*
X143897190Y-129863809D01*
X143821000Y-129901904D01*
X143630523Y-129901904D01*
X143554333Y-129863809D01*
X143516238Y-129825714D01*
X165994714Y-107041904D02*
X165994714Y-106241904D01*
X166451857Y-107041904D01*
X166451857Y-106241904D01*
X167289952Y-107041904D02*
X167023285Y-106660952D01*
X166832809Y-107041904D02*
X166832809Y-106241904D01*
X167137571Y-106241904D01*
X167213761Y-106280000D01*
X167251857Y-106318095D01*
X167289952Y-106394285D01*
X167289952Y-106508571D01*
X167251857Y-106584761D01*
X167213761Y-106622857D01*
X167137571Y-106660952D01*
X166832809Y-106660952D01*
X167594714Y-107003809D02*
X167709000Y-107041904D01*
X167899476Y-107041904D01*
X167975666Y-107003809D01*
X168013761Y-106965714D01*
X168051857Y-106889523D01*
X168051857Y-106813333D01*
X168013761Y-106737142D01*
X167975666Y-106699047D01*
X167899476Y-106660952D01*
X167747095Y-106622857D01*
X167670904Y-106584761D01*
X167632809Y-106546666D01*
X167594714Y-106470476D01*
X167594714Y-106394285D01*
X167632809Y-106318095D01*
X167670904Y-106280000D01*
X167747095Y-106241904D01*
X167937571Y-106241904D01*
X168051857Y-106280000D01*
X168280428Y-106241904D02*
X168737571Y-106241904D01*
X168509000Y-107041904D02*
X168509000Y-106241904D01*
X141306666Y-104501904D02*
X141306666Y-103701904D01*
X141611428Y-103701904D01*
X141687619Y-103740000D01*
X141725714Y-103778095D01*
X141763809Y-103854285D01*
X141763809Y-103968571D01*
X141725714Y-104044761D01*
X141687619Y-104082857D01*
X141611428Y-104120952D01*
X141306666Y-104120952D01*
X142068571Y-104273333D02*
X142449523Y-104273333D01*
X141992380Y-104501904D02*
X142259047Y-103701904D01*
X142525714Y-104501904D01*
X142716190Y-103701904D02*
X143211428Y-103701904D01*
X142944761Y-104006666D01*
X143059047Y-104006666D01*
X143135238Y-104044761D01*
X143173333Y-104082857D01*
X143211428Y-104159047D01*
X143211428Y-104349523D01*
X143173333Y-104425714D01*
X143135238Y-104463809D01*
X143059047Y-104501904D01*
X142830476Y-104501904D01*
X142754285Y-104463809D01*
X142716190Y-104425714D01*
X167030476Y-103740000D02*
X166954285Y-103701904D01*
X166840000Y-103701904D01*
X166725714Y-103740000D01*
X166649523Y-103816190D01*
X166611428Y-103892380D01*
X166573333Y-104044761D01*
X166573333Y-104159047D01*
X166611428Y-104311428D01*
X166649523Y-104387619D01*
X166725714Y-104463809D01*
X166840000Y-104501904D01*
X166916190Y-104501904D01*
X167030476Y-104463809D01*
X167068571Y-104425714D01*
X167068571Y-104159047D01*
X166916190Y-104159047D01*
X167411428Y-104501904D02*
X167411428Y-103701904D01*
X167868571Y-104501904D01*
X167868571Y-103701904D01*
X168249523Y-104501904D02*
X168249523Y-103701904D01*
X168440000Y-103701904D01*
X168554285Y-103740000D01*
X168630476Y-103816190D01*
X168668571Y-103892380D01*
X168706666Y-104044761D01*
X168706666Y-104159047D01*
X168668571Y-104311428D01*
X168630476Y-104387619D01*
X168554285Y-104463809D01*
X168440000Y-104501904D01*
X168249523Y-104501904D01*
X166649523Y-127361904D02*
X166649523Y-126561904D01*
X166954285Y-126561904D01*
X167030476Y-126600000D01*
X167068571Y-126638095D01*
X167106666Y-126714285D01*
X167106666Y-126828571D01*
X167068571Y-126904761D01*
X167030476Y-126942857D01*
X166954285Y-126980952D01*
X166649523Y-126980952D01*
X167716190Y-126942857D02*
X167830476Y-126980952D01*
X167868571Y-127019047D01*
X167906666Y-127095238D01*
X167906666Y-127209523D01*
X167868571Y-127285714D01*
X167830476Y-127323809D01*
X167754285Y-127361904D01*
X167449523Y-127361904D01*
X167449523Y-126561904D01*
X167716190Y-126561904D01*
X167792380Y-126600000D01*
X167830476Y-126638095D01*
X167868571Y-126714285D01*
X167868571Y-126790476D01*
X167830476Y-126866666D01*
X167792380Y-126904761D01*
X167716190Y-126942857D01*
X167449523Y-126942857D01*
X168668571Y-127361904D02*
X168211428Y-127361904D01*
X168440000Y-127361904D02*
X168440000Y-126561904D01*
X168363809Y-126676190D01*
X168287619Y-126752380D01*
X168211428Y-126790476D01*
X141306666Y-112121904D02*
X141306666Y-111321904D01*
X141611428Y-111321904D01*
X141687619Y-111360000D01*
X141725714Y-111398095D01*
X141763809Y-111474285D01*
X141763809Y-111588571D01*
X141725714Y-111664761D01*
X141687619Y-111702857D01*
X141611428Y-111740952D01*
X141306666Y-111740952D01*
X142068571Y-111893333D02*
X142449523Y-111893333D01*
X141992380Y-112121904D02*
X142259047Y-111321904D01*
X142525714Y-112121904D01*
X143135238Y-111321904D02*
X142982857Y-111321904D01*
X142906666Y-111360000D01*
X142868571Y-111398095D01*
X142792380Y-111512380D01*
X142754285Y-111664761D01*
X142754285Y-111969523D01*
X142792380Y-112045714D01*
X142830476Y-112083809D01*
X142906666Y-112121904D01*
X143059047Y-112121904D01*
X143135238Y-112083809D01*
X143173333Y-112045714D01*
X143211428Y-111969523D01*
X143211428Y-111779047D01*
X143173333Y-111702857D01*
X143135238Y-111664761D01*
X143059047Y-111626666D01*
X142906666Y-111626666D01*
X142830476Y-111664761D01*
X142792380Y-111702857D01*
X142754285Y-111779047D01*
X166649523Y-109581904D02*
X166649523Y-108781904D01*
X166954285Y-108781904D01*
X167030476Y-108820000D01*
X167068571Y-108858095D01*
X167106666Y-108934285D01*
X167106666Y-109048571D01*
X167068571Y-109124761D01*
X167030476Y-109162857D01*
X166954285Y-109200952D01*
X166649523Y-109200952D01*
X167716190Y-109162857D02*
X167830476Y-109200952D01*
X167868571Y-109239047D01*
X167906666Y-109315238D01*
X167906666Y-109429523D01*
X167868571Y-109505714D01*
X167830476Y-109543809D01*
X167754285Y-109581904D01*
X167449523Y-109581904D01*
X167449523Y-108781904D01*
X167716190Y-108781904D01*
X167792380Y-108820000D01*
X167830476Y-108858095D01*
X167868571Y-108934285D01*
X167868571Y-109010476D01*
X167830476Y-109086666D01*
X167792380Y-109124761D01*
X167716190Y-109162857D01*
X167449523Y-109162857D01*
X168363809Y-109124761D02*
X168287619Y-109086666D01*
X168249523Y-109048571D01*
X168211428Y-108972380D01*
X168211428Y-108934285D01*
X168249523Y-108858095D01*
X168287619Y-108820000D01*
X168363809Y-108781904D01*
X168516190Y-108781904D01*
X168592380Y-108820000D01*
X168630476Y-108858095D01*
X168668571Y-108934285D01*
X168668571Y-108972380D01*
X168630476Y-109048571D01*
X168592380Y-109086666D01*
X168516190Y-109124761D01*
X168363809Y-109124761D01*
X168287619Y-109162857D01*
X168249523Y-109200952D01*
X168211428Y-109277142D01*
X168211428Y-109429523D01*
X168249523Y-109505714D01*
X168287619Y-109543809D01*
X168363809Y-109581904D01*
X168516190Y-109581904D01*
X168592380Y-109543809D01*
X168630476Y-109505714D01*
X168668571Y-109429523D01*
X168668571Y-109277142D01*
X168630476Y-109200952D01*
X168592380Y-109162857D01*
X168516190Y-109124761D01*
X166649523Y-124821904D02*
X166649523Y-124021904D01*
X166954285Y-124021904D01*
X167030476Y-124060000D01*
X167068571Y-124098095D01*
X167106666Y-124174285D01*
X167106666Y-124288571D01*
X167068571Y-124364761D01*
X167030476Y-124402857D01*
X166954285Y-124440952D01*
X166649523Y-124440952D01*
X167716190Y-124402857D02*
X167830476Y-124440952D01*
X167868571Y-124479047D01*
X167906666Y-124555238D01*
X167906666Y-124669523D01*
X167868571Y-124745714D01*
X167830476Y-124783809D01*
X167754285Y-124821904D01*
X167449523Y-124821904D01*
X167449523Y-124021904D01*
X167716190Y-124021904D01*
X167792380Y-124060000D01*
X167830476Y-124098095D01*
X167868571Y-124174285D01*
X167868571Y-124250476D01*
X167830476Y-124326666D01*
X167792380Y-124364761D01*
X167716190Y-124402857D01*
X167449523Y-124402857D01*
X168211428Y-124098095D02*
X168249523Y-124060000D01*
X168325714Y-124021904D01*
X168516190Y-124021904D01*
X168592380Y-124060000D01*
X168630476Y-124098095D01*
X168668571Y-124174285D01*
X168668571Y-124250476D01*
X168630476Y-124364761D01*
X168173333Y-124821904D01*
X168668571Y-124821904D01*
X167977619Y-96081904D02*
X167596666Y-96081904D01*
X167558571Y-96462857D01*
X167596666Y-96424761D01*
X167672857Y-96386666D01*
X167863333Y-96386666D01*
X167939523Y-96424761D01*
X167977619Y-96462857D01*
X168015714Y-96539047D01*
X168015714Y-96729523D01*
X167977619Y-96805714D01*
X167939523Y-96843809D01*
X167863333Y-96881904D01*
X167672857Y-96881904D01*
X167596666Y-96843809D01*
X167558571Y-96805714D01*
X168244285Y-96081904D02*
X168510952Y-96881904D01*
X168777619Y-96081904D01*
D12*
X164503809Y-112237142D02*
X164503809Y-111094285D01*
X164503809Y-111618095D02*
X164932380Y-111618095D01*
X164646666Y-111332380D02*
X164694285Y-111237142D01*
X164884761Y-110999047D01*
X164313333Y-111284761D02*
X164599047Y-111046666D01*
X164646666Y-111951428D02*
X164884761Y-112189523D01*
X163837142Y-111094285D02*
X163932380Y-111713333D01*
X163932380Y-112141904D01*
X163932380Y-111760952D02*
X164218095Y-111999047D01*
X164313333Y-111713333D01*
X164027619Y-111380000D02*
X164503809Y-111856190D01*
X164027619Y-110237142D02*
X164027619Y-109522857D01*
X164360952Y-109951428D02*
X164360952Y-109618095D01*
X164360952Y-110237142D02*
X164360952Y-109808571D01*
X164932380Y-109808571D02*
X164932380Y-109522857D01*
X164408571Y-109760952D02*
X164932380Y-109760952D01*
X164789523Y-109522857D02*
X164932380Y-109570476D01*
X164170476Y-109760952D02*
X164313333Y-109570476D01*
X164075238Y-110618095D02*
X164265714Y-110713333D01*
X164122857Y-110380000D02*
X164265714Y-110475238D01*
X164551428Y-110760952D01*
X164027619Y-109903809D02*
X164170476Y-110046666D01*
X164360952Y-110237142D01*
X163789523Y-109951428D02*
X163980000Y-109903809D01*
X163789523Y-110475238D02*
X164170476Y-110665714D01*
X164837142Y-110189523D02*
X164932380Y-110380000D01*
X164456190Y-110094285D02*
X164789523Y-110141904D01*
X164218095Y-110427619D02*
X164265714Y-110760952D01*
X164503809Y-110380000D02*
X164551428Y-110760952D01*
X164741904Y-110380000D02*
X164837142Y-110760952D01*
X163980000Y-109046666D02*
X163980000Y-108141904D01*
X164265714Y-109046666D02*
X164265714Y-108237142D01*
X164408571Y-109046666D02*
X164408571Y-108237142D01*
X164599047Y-108951428D02*
X164599047Y-108284761D01*
X164075238Y-109046666D02*
X164408571Y-109046666D01*
X164075238Y-109046666D02*
X164075238Y-108284761D01*
X164408571Y-108284761D01*
X163789523Y-108903809D02*
X164122857Y-109237142D01*
X164408571Y-108808571D02*
X164551428Y-108951428D01*
X164694285Y-109284761D01*
X164646666Y-108951428D02*
X164789523Y-108618095D01*
X164932380Y-108141904D01*
X164789523Y-108665714D02*
X164932380Y-108046666D01*
X164599047Y-108332380D02*
X164789523Y-108618095D01*
X164837142Y-108856190D01*
X164932380Y-109237142D01*
X164075238Y-107427619D02*
X164075238Y-106618095D01*
X164884761Y-107475238D02*
X164884761Y-106570476D01*
X164027619Y-107570476D02*
X164932380Y-107570476D01*
X163789523Y-106999047D02*
X164075238Y-106999047D01*
X164218095Y-106760952D02*
X164884761Y-106951428D01*
X164218095Y-107237142D02*
X164741904Y-107189523D01*
X163837142Y-107475238D02*
X164122857Y-107618095D01*
X164313333Y-107808571D01*
D11*
X141306666Y-101961904D02*
X141306666Y-101161904D01*
X141611428Y-101161904D01*
X141687619Y-101200000D01*
X141725714Y-101238095D01*
X141763809Y-101314285D01*
X141763809Y-101428571D01*
X141725714Y-101504761D01*
X141687619Y-101542857D01*
X141611428Y-101580952D01*
X141306666Y-101580952D01*
X142068571Y-101733333D02*
X142449523Y-101733333D01*
X141992380Y-101961904D02*
X142259047Y-101161904D01*
X142525714Y-101961904D01*
X142754285Y-101238095D02*
X142792380Y-101200000D01*
X142868571Y-101161904D01*
X143059047Y-101161904D01*
X143135238Y-101200000D01*
X143173333Y-101238095D01*
X143211428Y-101314285D01*
X143211428Y-101390476D01*
X143173333Y-101504761D01*
X142716190Y-101961904D01*
X143211428Y-101961904D01*
X141306666Y-114661904D02*
X141306666Y-113861904D01*
X141611428Y-113861904D01*
X141687619Y-113900000D01*
X141725714Y-113938095D01*
X141763809Y-114014285D01*
X141763809Y-114128571D01*
X141725714Y-114204761D01*
X141687619Y-114242857D01*
X141611428Y-114280952D01*
X141306666Y-114280952D01*
X142068571Y-114433333D02*
X142449523Y-114433333D01*
X141992380Y-114661904D02*
X142259047Y-113861904D01*
X142525714Y-114661904D01*
X142716190Y-113861904D02*
X143249523Y-113861904D01*
X142906666Y-114661904D01*
X166649523Y-112121904D02*
X166649523Y-111321904D01*
X166954285Y-111321904D01*
X167030476Y-111360000D01*
X167068571Y-111398095D01*
X167106666Y-111474285D01*
X167106666Y-111588571D01*
X167068571Y-111664761D01*
X167030476Y-111702857D01*
X166954285Y-111740952D01*
X166649523Y-111740952D01*
X167716190Y-111702857D02*
X167830476Y-111740952D01*
X167868571Y-111779047D01*
X167906666Y-111855238D01*
X167906666Y-111969523D01*
X167868571Y-112045714D01*
X167830476Y-112083809D01*
X167754285Y-112121904D01*
X167449523Y-112121904D01*
X167449523Y-111321904D01*
X167716190Y-111321904D01*
X167792380Y-111360000D01*
X167830476Y-111398095D01*
X167868571Y-111474285D01*
X167868571Y-111550476D01*
X167830476Y-111626666D01*
X167792380Y-111664761D01*
X167716190Y-111702857D01*
X167449523Y-111702857D01*
X168173333Y-111321904D02*
X168706666Y-111321904D01*
X168363809Y-112121904D01*
X166429047Y-101171904D02*
X166924285Y-101171904D01*
X166657619Y-101476666D01*
X166771904Y-101476666D01*
X166848095Y-101514761D01*
X166886190Y-101552857D01*
X166924285Y-101629047D01*
X166924285Y-101819523D01*
X166886190Y-101895714D01*
X166848095Y-101933809D01*
X166771904Y-101971904D01*
X166543333Y-101971904D01*
X166467142Y-101933809D01*
X166429047Y-101895714D01*
X167267142Y-101895714D02*
X167305238Y-101933809D01*
X167267142Y-101971904D01*
X167229047Y-101933809D01*
X167267142Y-101895714D01*
X167267142Y-101971904D01*
X167571904Y-101171904D02*
X168067142Y-101171904D01*
X167800476Y-101476666D01*
X167914761Y-101476666D01*
X167990952Y-101514761D01*
X168029047Y-101552857D01*
X168067142Y-101629047D01*
X168067142Y-101819523D01*
X168029047Y-101895714D01*
X167990952Y-101933809D01*
X167914761Y-101971904D01*
X167686190Y-101971904D01*
X167610000Y-101933809D01*
X167571904Y-101895714D01*
X168295714Y-101171904D02*
X168562380Y-101971904D01*
X168829047Y-101171904D01*
X141306666Y-119741904D02*
X141306666Y-118941904D01*
X141611428Y-118941904D01*
X141687619Y-118980000D01*
X141725714Y-119018095D01*
X141763809Y-119094285D01*
X141763809Y-119208571D01*
X141725714Y-119284761D01*
X141687619Y-119322857D01*
X141611428Y-119360952D01*
X141306666Y-119360952D01*
X142068571Y-119513333D02*
X142449523Y-119513333D01*
X141992380Y-119741904D02*
X142259047Y-118941904D01*
X142525714Y-119741904D01*
X142830476Y-119741904D02*
X142982857Y-119741904D01*
X143059047Y-119703809D01*
X143097142Y-119665714D01*
X143173333Y-119551428D01*
X143211428Y-119399047D01*
X143211428Y-119094285D01*
X143173333Y-119018095D01*
X143135238Y-118980000D01*
X143059047Y-118941904D01*
X142906666Y-118941904D01*
X142830476Y-118980000D01*
X142792380Y-119018095D01*
X142754285Y-119094285D01*
X142754285Y-119284761D01*
X142792380Y-119360952D01*
X142830476Y-119399047D01*
X142906666Y-119437142D01*
X143059047Y-119437142D01*
X143135238Y-119399047D01*
X143173333Y-119360952D01*
X143211428Y-119284761D01*
X166649523Y-129901904D02*
X166649523Y-129101904D01*
X166954285Y-129101904D01*
X167030476Y-129140000D01*
X167068571Y-129178095D01*
X167106666Y-129254285D01*
X167106666Y-129368571D01*
X167068571Y-129444761D01*
X167030476Y-129482857D01*
X166954285Y-129520952D01*
X166649523Y-129520952D01*
X167716190Y-129482857D02*
X167830476Y-129520952D01*
X167868571Y-129559047D01*
X167906666Y-129635238D01*
X167906666Y-129749523D01*
X167868571Y-129825714D01*
X167830476Y-129863809D01*
X167754285Y-129901904D01*
X167449523Y-129901904D01*
X167449523Y-129101904D01*
X167716190Y-129101904D01*
X167792380Y-129140000D01*
X167830476Y-129178095D01*
X167868571Y-129254285D01*
X167868571Y-129330476D01*
X167830476Y-129406666D01*
X167792380Y-129444761D01*
X167716190Y-129482857D01*
X167449523Y-129482857D01*
X168401904Y-129101904D02*
X168478095Y-129101904D01*
X168554285Y-129140000D01*
X168592380Y-129178095D01*
X168630476Y-129254285D01*
X168668571Y-129406666D01*
X168668571Y-129597142D01*
X168630476Y-129749523D01*
X168592380Y-129825714D01*
X168554285Y-129863809D01*
X168478095Y-129901904D01*
X168401904Y-129901904D01*
X168325714Y-129863809D01*
X168287619Y-129825714D01*
X168249523Y-129749523D01*
X168211428Y-129597142D01*
X168211428Y-129406666D01*
X168249523Y-129254285D01*
X168287619Y-129178095D01*
X168325714Y-129140000D01*
X168401904Y-129101904D01*
X141306714Y-124821904D02*
X141306714Y-124021904D01*
X141611476Y-124021904D01*
X141687666Y-124060000D01*
X141725761Y-124098095D01*
X141763857Y-124174285D01*
X141763857Y-124288571D01*
X141725761Y-124364761D01*
X141687666Y-124402857D01*
X141611476Y-124440952D01*
X141306714Y-124440952D01*
X142068619Y-124593333D02*
X142449571Y-124593333D01*
X141992428Y-124821904D02*
X142259095Y-124021904D01*
X142525761Y-124821904D01*
X143211476Y-124821904D02*
X142754333Y-124821904D01*
X142982904Y-124821904D02*
X142982904Y-124021904D01*
X142906714Y-124136190D01*
X142830523Y-124212380D01*
X142754333Y-124250476D01*
X143973380Y-124821904D02*
X143516238Y-124821904D01*
X143744809Y-124821904D02*
X143744809Y-124021904D01*
X143668619Y-124136190D01*
X143592428Y-124212380D01*
X143516238Y-124250476D01*
X141282253Y-109627948D02*
X141282253Y-108827948D01*
X141587015Y-108827948D01*
X141663206Y-108866044D01*
X141701301Y-108904139D01*
X141739396Y-108980329D01*
X141739396Y-109094615D01*
X141701301Y-109170805D01*
X141663206Y-109208901D01*
X141587015Y-109246996D01*
X141282253Y-109246996D01*
X142044158Y-109399377D02*
X142425110Y-109399377D01*
X141967967Y-109627948D02*
X142234634Y-108827948D01*
X142501301Y-109627948D01*
X143148920Y-108827948D02*
X142767967Y-108827948D01*
X142729872Y-109208901D01*
X142767967Y-109170805D01*
X142844158Y-109132710D01*
X143034634Y-109132710D01*
X143110825Y-109170805D01*
X143148920Y-109208901D01*
X143187015Y-109285091D01*
X143187015Y-109475567D01*
X143148920Y-109551758D01*
X143110825Y-109589853D01*
X143034634Y-109627948D01*
X142844158Y-109627948D01*
X142767967Y-109589853D01*
X142729872Y-109551758D01*
X141306714Y-127361904D02*
X141306714Y-126561904D01*
X141611476Y-126561904D01*
X141687666Y-126600000D01*
X141725761Y-126638095D01*
X141763857Y-126714285D01*
X141763857Y-126828571D01*
X141725761Y-126904761D01*
X141687666Y-126942857D01*
X141611476Y-126980952D01*
X141306714Y-126980952D01*
X142068619Y-127133333D02*
X142449571Y-127133333D01*
X141992428Y-127361904D02*
X142259095Y-126561904D01*
X142525761Y-127361904D01*
X143211476Y-127361904D02*
X142754333Y-127361904D01*
X142982904Y-127361904D02*
X142982904Y-126561904D01*
X142906714Y-126676190D01*
X142830523Y-126752380D01*
X142754333Y-126790476D01*
X143516238Y-126638095D02*
X143554333Y-126600000D01*
X143630523Y-126561904D01*
X143821000Y-126561904D01*
X143897190Y-126600000D01*
X143935285Y-126638095D01*
X143973380Y-126714285D01*
X143973380Y-126790476D01*
X143935285Y-126904761D01*
X143478142Y-127361904D01*
X143973380Y-127361904D01*
X166649523Y-122281904D02*
X166649523Y-121481904D01*
X166954285Y-121481904D01*
X167030476Y-121520000D01*
X167068571Y-121558095D01*
X167106666Y-121634285D01*
X167106666Y-121748571D01*
X167068571Y-121824761D01*
X167030476Y-121862857D01*
X166954285Y-121900952D01*
X166649523Y-121900952D01*
X167716190Y-121862857D02*
X167830476Y-121900952D01*
X167868571Y-121939047D01*
X167906666Y-122015238D01*
X167906666Y-122129523D01*
X167868571Y-122205714D01*
X167830476Y-122243809D01*
X167754285Y-122281904D01*
X167449523Y-122281904D01*
X167449523Y-121481904D01*
X167716190Y-121481904D01*
X167792380Y-121520000D01*
X167830476Y-121558095D01*
X167868571Y-121634285D01*
X167868571Y-121710476D01*
X167830476Y-121786666D01*
X167792380Y-121824761D01*
X167716190Y-121862857D01*
X167449523Y-121862857D01*
X168173333Y-121481904D02*
X168668571Y-121481904D01*
X168401904Y-121786666D01*
X168516190Y-121786666D01*
X168592380Y-121824761D01*
X168630476Y-121862857D01*
X168668571Y-121939047D01*
X168668571Y-122129523D01*
X168630476Y-122205714D01*
X168592380Y-122243809D01*
X168516190Y-122281904D01*
X168287619Y-122281904D01*
X168211428Y-122243809D01*
X168173333Y-122205714D01*
X166649523Y-119741904D02*
X166649523Y-118941904D01*
X166954285Y-118941904D01*
X167030476Y-118980000D01*
X167068571Y-119018095D01*
X167106666Y-119094285D01*
X167106666Y-119208571D01*
X167068571Y-119284761D01*
X167030476Y-119322857D01*
X166954285Y-119360952D01*
X166649523Y-119360952D01*
X167716190Y-119322857D02*
X167830476Y-119360952D01*
X167868571Y-119399047D01*
X167906666Y-119475238D01*
X167906666Y-119589523D01*
X167868571Y-119665714D01*
X167830476Y-119703809D01*
X167754285Y-119741904D01*
X167449523Y-119741904D01*
X167449523Y-118941904D01*
X167716190Y-118941904D01*
X167792380Y-118980000D01*
X167830476Y-119018095D01*
X167868571Y-119094285D01*
X167868571Y-119170476D01*
X167830476Y-119246666D01*
X167792380Y-119284761D01*
X167716190Y-119322857D01*
X167449523Y-119322857D01*
X168592380Y-119208571D02*
X168592380Y-119741904D01*
X168401904Y-118903809D02*
X168211428Y-119475238D01*
X168706666Y-119475238D01*
D12*
X145072380Y-112046666D02*
X145072380Y-111713333D01*
X145500952Y-112046666D02*
X145500952Y-110999047D01*
X146024761Y-111903809D02*
X146024761Y-110999047D01*
X145691428Y-111903809D02*
X146072380Y-111903809D01*
X145215238Y-112046666D02*
X145215238Y-110999047D01*
X145500952Y-110999047D01*
X145691428Y-111903809D02*
X145691428Y-110999047D01*
X146072380Y-110999047D01*
X145024761Y-112046666D02*
X145596190Y-112046666D01*
X145977142Y-112141904D01*
X145024761Y-111570476D02*
X145024761Y-111808571D01*
X144929523Y-111094285D02*
X145024761Y-111570476D01*
X145072380Y-110713333D02*
X145072380Y-110189523D01*
X145358095Y-110760952D02*
X145358095Y-110189523D01*
X146072380Y-109856190D02*
X146072380Y-109618095D01*
X145643809Y-109903809D02*
X146024761Y-110094285D01*
X145358095Y-110570476D02*
X145881904Y-110713333D01*
X145262857Y-110094285D02*
X145262857Y-109522857D01*
X145691428Y-109522857D01*
X146072380Y-109618095D01*
X144977142Y-109856190D02*
X145358095Y-109856190D01*
X145834285Y-109951428D01*
X145548571Y-110332380D02*
X145834285Y-110189523D01*
X145881904Y-110760952D01*
X145167619Y-108760952D02*
X145167619Y-108141904D01*
X145405714Y-108903809D02*
X145405714Y-108046666D01*
X145881904Y-108380000D02*
X145881904Y-108094285D01*
X146072380Y-108856190D02*
X146072380Y-108046666D01*
X144929523Y-108475238D02*
X145405714Y-108475238D01*
X145405714Y-108332380D02*
X145881904Y-108332380D01*
X145691428Y-108046666D02*
X145881904Y-108094285D01*
X144977142Y-109237142D02*
X145167619Y-109046666D01*
X145453333Y-109284761D02*
X145453333Y-109094285D01*
X145929523Y-109094285D01*
X146024761Y-109284761D01*
X145691428Y-108665714D02*
X145834285Y-108856190D01*
X144977142Y-108713333D02*
X145262857Y-108856190D01*
X145405714Y-108618095D02*
X145739047Y-108713333D01*
X145929523Y-109094285D02*
X146024761Y-108856190D01*
X146072380Y-108570476D01*
X145215238Y-107808571D02*
X145215238Y-107427619D01*
X145643809Y-107284761D02*
X145643809Y-106713333D01*
X145834285Y-107380000D02*
X145834285Y-106570476D01*
X146072380Y-107760952D02*
X146072380Y-107618095D01*
X144929523Y-107570476D02*
X146072380Y-107570476D01*
X145500952Y-106951428D02*
X146072380Y-106951428D01*
X145024761Y-107237142D02*
X145262857Y-106999047D01*
X145453333Y-106618095D01*
X145024761Y-107332380D02*
X145024761Y-106665714D01*
X145262857Y-106903809D01*
X145453333Y-107332380D01*
X145500952Y-107427619D02*
X145596190Y-107808571D01*
D11*
X141306666Y-117201904D02*
X141306666Y-116401904D01*
X141611428Y-116401904D01*
X141687619Y-116440000D01*
X141725714Y-116478095D01*
X141763809Y-116554285D01*
X141763809Y-116668571D01*
X141725714Y-116744761D01*
X141687619Y-116782857D01*
X141611428Y-116820952D01*
X141306666Y-116820952D01*
X142068571Y-116973333D02*
X142449523Y-116973333D01*
X141992380Y-117201904D02*
X142259047Y-116401904D01*
X142525714Y-117201904D01*
X142906666Y-116744761D02*
X142830476Y-116706666D01*
X142792380Y-116668571D01*
X142754285Y-116592380D01*
X142754285Y-116554285D01*
X142792380Y-116478095D01*
X142830476Y-116440000D01*
X142906666Y-116401904D01*
X143059047Y-116401904D01*
X143135238Y-116440000D01*
X143173333Y-116478095D01*
X143211428Y-116554285D01*
X143211428Y-116592380D01*
X143173333Y-116668571D01*
X143135238Y-116706666D01*
X143059047Y-116744761D01*
X142906666Y-116744761D01*
X142830476Y-116782857D01*
X142792380Y-116820952D01*
X142754285Y-116897142D01*
X142754285Y-117049523D01*
X142792380Y-117125714D01*
X142830476Y-117163809D01*
X142906666Y-117201904D01*
X143059047Y-117201904D01*
X143135238Y-117163809D01*
X143173333Y-117125714D01*
X143211428Y-117049523D01*
X143211428Y-116897142D01*
X143173333Y-116820952D01*
X143135238Y-116782857D01*
X143059047Y-116744761D01*
X166649523Y-117201904D02*
X166649523Y-116401904D01*
X166954285Y-116401904D01*
X167030476Y-116440000D01*
X167068571Y-116478095D01*
X167106666Y-116554285D01*
X167106666Y-116668571D01*
X167068571Y-116744761D01*
X167030476Y-116782857D01*
X166954285Y-116820952D01*
X166649523Y-116820952D01*
X167716190Y-116782857D02*
X167830476Y-116820952D01*
X167868571Y-116859047D01*
X167906666Y-116935238D01*
X167906666Y-117049523D01*
X167868571Y-117125714D01*
X167830476Y-117163809D01*
X167754285Y-117201904D01*
X167449523Y-117201904D01*
X167449523Y-116401904D01*
X167716190Y-116401904D01*
X167792380Y-116440000D01*
X167830476Y-116478095D01*
X167868571Y-116554285D01*
X167868571Y-116630476D01*
X167830476Y-116706666D01*
X167792380Y-116744761D01*
X167716190Y-116782857D01*
X167449523Y-116782857D01*
X168630476Y-116401904D02*
X168249523Y-116401904D01*
X168211428Y-116782857D01*
X168249523Y-116744761D01*
X168325714Y-116706666D01*
X168516190Y-116706666D01*
X168592380Y-116744761D01*
X168630476Y-116782857D01*
X168668571Y-116859047D01*
X168668571Y-117049523D01*
X168630476Y-117125714D01*
X168592380Y-117163809D01*
X168516190Y-117201904D01*
X168325714Y-117201904D01*
X168249523Y-117163809D01*
X168211428Y-117125714D01*
X167110476Y-98640000D02*
X167034285Y-98601904D01*
X166920000Y-98601904D01*
X166805714Y-98640000D01*
X166729523Y-98716190D01*
X166691428Y-98792380D01*
X166653333Y-98944761D01*
X166653333Y-99059047D01*
X166691428Y-99211428D01*
X166729523Y-99287619D01*
X166805714Y-99363809D01*
X166920000Y-99401904D01*
X166996190Y-99401904D01*
X167110476Y-99363809D01*
X167148571Y-99325714D01*
X167148571Y-99059047D01*
X166996190Y-99059047D01*
X167491428Y-99401904D02*
X167491428Y-98601904D01*
X167948571Y-99401904D01*
X167948571Y-98601904D01*
X168329523Y-99401904D02*
X168329523Y-98601904D01*
X168520000Y-98601904D01*
X168634285Y-98640000D01*
X168710476Y-98716190D01*
X168748571Y-98792380D01*
X168786666Y-98944761D01*
X168786666Y-99059047D01*
X168748571Y-99211428D01*
X168710476Y-99287619D01*
X168634285Y-99363809D01*
X168520000Y-99401904D01*
X168329523Y-99401904D01*
X141306714Y-122281904D02*
X141306714Y-121481904D01*
X141611476Y-121481904D01*
X141687666Y-121520000D01*
X141725761Y-121558095D01*
X141763857Y-121634285D01*
X141763857Y-121748571D01*
X141725761Y-121824761D01*
X141687666Y-121862857D01*
X141611476Y-121900952D01*
X141306714Y-121900952D01*
X142068619Y-122053333D02*
X142449571Y-122053333D01*
X141992428Y-122281904D02*
X142259095Y-121481904D01*
X142525761Y-122281904D01*
X143211476Y-122281904D02*
X142754333Y-122281904D01*
X142982904Y-122281904D02*
X142982904Y-121481904D01*
X142906714Y-121596190D01*
X142830523Y-121672380D01*
X142754333Y-121710476D01*
X143706714Y-121481904D02*
X143782904Y-121481904D01*
X143859095Y-121520000D01*
X143897190Y-121558095D01*
X143935285Y-121634285D01*
X143973380Y-121786666D01*
X143973380Y-121977142D01*
X143935285Y-122129523D01*
X143897190Y-122205714D01*
X143859095Y-122243809D01*
X143782904Y-122281904D01*
X143706714Y-122281904D01*
X143630523Y-122243809D01*
X143592428Y-122205714D01*
X143554333Y-122129523D01*
X143516238Y-121977142D01*
X143516238Y-121786666D01*
X143554333Y-121634285D01*
X143592428Y-121558095D01*
X143630523Y-121520000D01*
X143706714Y-121481904D01*
X180461904Y-116763333D02*
X180461904Y-116268095D01*
X180766666Y-116534761D01*
X180766666Y-116420476D01*
X180804761Y-116344285D01*
X180842857Y-116306190D01*
X180919047Y-116268095D01*
X181109523Y-116268095D01*
X181185714Y-116306190D01*
X181223809Y-116344285D01*
X181261904Y-116420476D01*
X181261904Y-116649047D01*
X181223809Y-116725238D01*
X181185714Y-116763333D01*
X180461904Y-115582380D02*
X180461904Y-115734761D01*
X180500000Y-115810952D01*
X180538095Y-115849047D01*
X180652380Y-115925238D01*
X180804761Y-115963333D01*
X181109523Y-115963333D01*
X181185714Y-115925238D01*
X181223809Y-115887142D01*
X181261904Y-115810952D01*
X181261904Y-115658571D01*
X181223809Y-115582380D01*
X181185714Y-115544285D01*
X181109523Y-115506190D01*
X180919047Y-115506190D01*
X180842857Y-115544285D01*
X180804761Y-115582380D01*
X180766666Y-115658571D01*
X180766666Y-115810952D01*
X180804761Y-115887142D01*
X180842857Y-115925238D01*
X180919047Y-115963333D01*
X181185714Y-115163333D02*
X181223809Y-115125238D01*
X181261904Y-115163333D01*
X181223809Y-115201428D01*
X181185714Y-115163333D01*
X181261904Y-115163333D01*
X180461904Y-114401428D02*
X180461904Y-114782380D01*
X180842857Y-114820476D01*
X180804761Y-114782380D01*
X180766666Y-114706190D01*
X180766666Y-114515714D01*
X180804761Y-114439523D01*
X180842857Y-114401428D01*
X180919047Y-114363333D01*
X181109523Y-114363333D01*
X181185714Y-114401428D01*
X181223809Y-114439523D01*
X181261904Y-114515714D01*
X181261904Y-114706190D01*
X181223809Y-114782380D01*
X181185714Y-114820476D01*
X180804761Y-113906190D02*
X180766666Y-113982380D01*
X180728571Y-114020476D01*
X180652380Y-114058571D01*
X180614285Y-114058571D01*
X180538095Y-114020476D01*
X180500000Y-113982380D01*
X180461904Y-113906190D01*
X180461904Y-113753809D01*
X180500000Y-113677619D01*
X180538095Y-113639523D01*
X180614285Y-113601428D01*
X180652380Y-113601428D01*
X180728571Y-113639523D01*
X180766666Y-113677619D01*
X180804761Y-113753809D01*
X180804761Y-113906190D01*
X180842857Y-113982380D01*
X180880952Y-114020476D01*
X180957142Y-114058571D01*
X181109523Y-114058571D01*
X181185714Y-114020476D01*
X181223809Y-113982380D01*
X181261904Y-113906190D01*
X181261904Y-113753809D01*
X181223809Y-113677619D01*
X181185714Y-113639523D01*
X181109523Y-113601428D01*
X180957142Y-113601428D01*
X180880952Y-113639523D01*
X180842857Y-113677619D01*
X180804761Y-113753809D01*
X180461904Y-113106190D02*
X180461904Y-113030000D01*
X180500000Y-112953809D01*
X180538095Y-112915714D01*
X180614285Y-112877619D01*
X180766666Y-112839523D01*
X180957142Y-112839523D01*
X181109523Y-112877619D01*
X181185714Y-112915714D01*
X181223809Y-112953809D01*
X181261904Y-113030000D01*
X181261904Y-113106190D01*
X181223809Y-113182380D01*
X181185714Y-113220476D01*
X181109523Y-113258571D01*
X180957142Y-113296666D01*
X180766666Y-113296666D01*
X180614285Y-113258571D01*
X180538095Y-113220476D01*
X180500000Y-113182380D01*
X180461904Y-113106190D01*
X180461904Y-112344285D02*
X180461904Y-112268095D01*
X180500000Y-112191904D01*
X180538095Y-112153809D01*
X180614285Y-112115714D01*
X180766666Y-112077619D01*
X180957142Y-112077619D01*
X181109523Y-112115714D01*
X181185714Y-112153809D01*
X181223809Y-112191904D01*
X181261904Y-112268095D01*
X181261904Y-112344285D01*
X181223809Y-112420476D01*
X181185714Y-112458571D01*
X181109523Y-112496666D01*
X180957142Y-112534761D01*
X180766666Y-112534761D01*
X180614285Y-112496666D01*
X180538095Y-112458571D01*
X180500000Y-112420476D01*
X180461904Y-112344285D01*
X181261904Y-111125238D02*
X180728571Y-111125238D01*
X180804761Y-111125238D02*
X180766666Y-111087142D01*
X180728571Y-111010952D01*
X180728571Y-110896666D01*
X180766666Y-110820476D01*
X180842857Y-110782380D01*
X181261904Y-110782380D01*
X180842857Y-110782380D02*
X180766666Y-110744285D01*
X180728571Y-110668095D01*
X180728571Y-110553809D01*
X180766666Y-110477619D01*
X180842857Y-110439523D01*
X181261904Y-110439523D01*
X181261904Y-110058571D02*
X180728571Y-110058571D01*
X180804761Y-110058571D02*
X180766666Y-110020476D01*
X180728571Y-109944285D01*
X180728571Y-109830000D01*
X180766666Y-109753809D01*
X180842857Y-109715714D01*
X181261904Y-109715714D01*
X180842857Y-109715714D02*
X180766666Y-109677619D01*
X180728571Y-109601428D01*
X180728571Y-109487142D01*
X180766666Y-109410952D01*
X180842857Y-109372857D01*
X181261904Y-109372857D01*
X172650000Y-131320000D02*
X182386420Y-131320000D01*
X172650000Y-94740000D02*
X182386420Y-94740000D01*
X181800000Y-131320000D02*
X181800000Y-94740000D01*
X181800000Y-131320000D02*
X181800000Y-94740000D01*
X181800000Y-131320000D02*
X182386421Y-130193496D01*
X181800000Y-131320000D02*
X181213579Y-130193496D01*
X181800000Y-94740000D02*
X181213579Y-95866504D01*
X181800000Y-94740000D02*
X182386421Y-95866504D01*
X151206666Y-138561904D02*
X151701904Y-138561904D01*
X151435238Y-138866666D01*
X151549523Y-138866666D01*
X151625714Y-138904761D01*
X151663809Y-138942857D01*
X151701904Y-139019047D01*
X151701904Y-139209523D01*
X151663809Y-139285714D01*
X151625714Y-139323809D01*
X151549523Y-139361904D01*
X151320952Y-139361904D01*
X151244761Y-139323809D01*
X151206666Y-139285714D01*
X152387619Y-138828571D02*
X152387619Y-139361904D01*
X152197142Y-138523809D02*
X152006666Y-139095238D01*
X152501904Y-139095238D01*
X152806666Y-139285714D02*
X152844761Y-139323809D01*
X152806666Y-139361904D01*
X152768571Y-139323809D01*
X152806666Y-139285714D01*
X152806666Y-139361904D01*
X153530476Y-138828571D02*
X153530476Y-139361904D01*
X153340000Y-138523809D02*
X153149523Y-139095238D01*
X153644761Y-139095238D01*
X153911428Y-138638095D02*
X153949523Y-138600000D01*
X154025714Y-138561904D01*
X154216190Y-138561904D01*
X154292380Y-138600000D01*
X154330476Y-138638095D01*
X154368571Y-138714285D01*
X154368571Y-138790476D01*
X154330476Y-138904761D01*
X153873333Y-139361904D01*
X154368571Y-139361904D01*
X154863809Y-138561904D02*
X154940000Y-138561904D01*
X155016190Y-138600000D01*
X155054285Y-138638095D01*
X155092380Y-138714285D01*
X155130476Y-138866666D01*
X155130476Y-139057142D01*
X155092380Y-139209523D01*
X155054285Y-139285714D01*
X155016190Y-139323809D01*
X154940000Y-139361904D01*
X154863809Y-139361904D01*
X154787619Y-139323809D01*
X154749523Y-139285714D01*
X154711428Y-139209523D01*
X154673333Y-139057142D01*
X154673333Y-138866666D01*
X154711428Y-138714285D01*
X154749523Y-138638095D01*
X154787619Y-138600000D01*
X154863809Y-138561904D01*
X155625714Y-138561904D02*
X155701904Y-138561904D01*
X155778095Y-138600000D01*
X155816190Y-138638095D01*
X155854285Y-138714285D01*
X155892380Y-138866666D01*
X155892380Y-139057142D01*
X155854285Y-139209523D01*
X155816190Y-139285714D01*
X155778095Y-139323809D01*
X155701904Y-139361904D01*
X155625714Y-139361904D01*
X155549523Y-139323809D01*
X155511428Y-139285714D01*
X155473333Y-139209523D01*
X155435238Y-139057142D01*
X155435238Y-138866666D01*
X155473333Y-138714285D01*
X155511428Y-138638095D01*
X155549523Y-138600000D01*
X155625714Y-138561904D01*
X156844761Y-139361904D02*
X156844761Y-138828571D01*
X156844761Y-138904761D02*
X156882857Y-138866666D01*
X156959047Y-138828571D01*
X157073333Y-138828571D01*
X157149523Y-138866666D01*
X157187619Y-138942857D01*
X157187619Y-139361904D01*
X157187619Y-138942857D02*
X157225714Y-138866666D01*
X157301904Y-138828571D01*
X157416190Y-138828571D01*
X157492380Y-138866666D01*
X157530476Y-138942857D01*
X157530476Y-139361904D01*
X157911428Y-139361904D02*
X157911428Y-138828571D01*
X157911428Y-138904761D02*
X157949523Y-138866666D01*
X158025714Y-138828571D01*
X158140000Y-138828571D01*
X158216190Y-138866666D01*
X158254285Y-138942857D01*
X158254285Y-139361904D01*
X158254285Y-138942857D02*
X158292380Y-138866666D01*
X158368571Y-138828571D01*
X158482857Y-138828571D01*
X158559047Y-138866666D01*
X158597142Y-138942857D01*
X158597142Y-139361904D01*
X137730000Y-131820000D02*
X137730000Y-140486420D01*
X172150000Y-131820000D02*
X172150000Y-140486420D01*
X137730000Y-139900000D02*
X172150000Y-139900000D01*
X137730000Y-139900000D02*
X172150000Y-139900000D01*
X137730000Y-139900000D02*
X138856504Y-140486421D01*
X137730000Y-139900000D02*
X138856504Y-139313579D01*
X172150000Y-139900000D02*
X171023496Y-139313579D01*
X172150000Y-139900000D02*
X171023496Y-140486421D01*
%TO.C,R3*%
X164476666Y-98301904D02*
X164210000Y-97920952D01*
X164019523Y-98301904D02*
X164019523Y-97501904D01*
X164324285Y-97501904D01*
X164400476Y-97540000D01*
X164438571Y-97578095D01*
X164476666Y-97654285D01*
X164476666Y-97768571D01*
X164438571Y-97844761D01*
X164400476Y-97882857D01*
X164324285Y-97920952D01*
X164019523Y-97920952D01*
X164743333Y-97501904D02*
X165238571Y-97501904D01*
X164971904Y-97806666D01*
X165086190Y-97806666D01*
X165162380Y-97844761D01*
X165200476Y-97882857D01*
X165238571Y-97959047D01*
X165238571Y-98149523D01*
X165200476Y-98225714D01*
X165162380Y-98263809D01*
X165086190Y-98301904D01*
X164857619Y-98301904D01*
X164781428Y-98263809D01*
X164743333Y-98225714D01*
%TO.C,C5*%
X152585714Y-107533333D02*
X152623809Y-107571428D01*
X152661904Y-107685714D01*
X152661904Y-107761904D01*
X152623809Y-107876190D01*
X152547619Y-107952380D01*
X152471428Y-107990476D01*
X152319047Y-108028571D01*
X152204761Y-108028571D01*
X152052380Y-107990476D01*
X151976190Y-107952380D01*
X151900000Y-107876190D01*
X151861904Y-107761904D01*
X151861904Y-107685714D01*
X151900000Y-107571428D01*
X151938095Y-107533333D01*
X151861904Y-106809523D02*
X151861904Y-107190476D01*
X152242857Y-107228571D01*
X152204761Y-107190476D01*
X152166666Y-107114285D01*
X152166666Y-106923809D01*
X152204761Y-106847619D01*
X152242857Y-106809523D01*
X152319047Y-106771428D01*
X152509523Y-106771428D01*
X152585714Y-106809523D01*
X152623809Y-106847619D01*
X152661904Y-106923809D01*
X152661904Y-107114285D01*
X152623809Y-107190476D01*
X152585714Y-107228571D01*
%TO.C,F1*%
X162193333Y-103022857D02*
X161926666Y-103022857D01*
X161926666Y-103441904D02*
X161926666Y-102641904D01*
X162307619Y-102641904D01*
X163031428Y-103441904D02*
X162574285Y-103441904D01*
X162802857Y-103441904D02*
X162802857Y-102641904D01*
X162726666Y-102756190D01*
X162650476Y-102832380D01*
X162574285Y-102870476D01*
%TO.C,C4*%
X153016666Y-124025714D02*
X152978571Y-124063809D01*
X152864285Y-124101904D01*
X152788095Y-124101904D01*
X152673809Y-124063809D01*
X152597619Y-123987619D01*
X152559523Y-123911428D01*
X152521428Y-123759047D01*
X152521428Y-123644761D01*
X152559523Y-123492380D01*
X152597619Y-123416190D01*
X152673809Y-123340000D01*
X152788095Y-123301904D01*
X152864285Y-123301904D01*
X152978571Y-123340000D01*
X153016666Y-123378095D01*
X153702380Y-123568571D02*
X153702380Y-124101904D01*
X153511904Y-123263809D02*
X153321428Y-123835238D01*
X153816666Y-123835238D01*
%TO.C,U3*%
X150975476Y-115821904D02*
X150975476Y-116469523D01*
X151013571Y-116545714D01*
X151051666Y-116583809D01*
X151127857Y-116621904D01*
X151280238Y-116621904D01*
X151356428Y-116583809D01*
X151394523Y-116545714D01*
X151432619Y-116469523D01*
X151432619Y-115821904D01*
X151737380Y-115821904D02*
X152232619Y-115821904D01*
X151965952Y-116126666D01*
X152080238Y-116126666D01*
X152156428Y-116164761D01*
X152194523Y-116202857D01*
X152232619Y-116279047D01*
X152232619Y-116469523D01*
X152194523Y-116545714D01*
X152156428Y-116583809D01*
X152080238Y-116621904D01*
X151851666Y-116621904D01*
X151775476Y-116583809D01*
X151737380Y-116545714D01*
%TO.C,R1*%
X150971904Y-107533333D02*
X150590952Y-107800000D01*
X150971904Y-107990476D02*
X150171904Y-107990476D01*
X150171904Y-107685714D01*
X150210000Y-107609523D01*
X150248095Y-107571428D01*
X150324285Y-107533333D01*
X150438571Y-107533333D01*
X150514761Y-107571428D01*
X150552857Y-107609523D01*
X150590952Y-107685714D01*
X150590952Y-107990476D01*
X150971904Y-106771428D02*
X150971904Y-107228571D01*
X150971904Y-107000000D02*
X150171904Y-107000000D01*
X150286190Y-107076190D01*
X150362380Y-107152380D01*
X150400476Y-107228571D01*
%TO.C,C8*%
X156666666Y-112337714D02*
X156628571Y-112375809D01*
X156514285Y-112413904D01*
X156438095Y-112413904D01*
X156323809Y-112375809D01*
X156247619Y-112299619D01*
X156209523Y-112223428D01*
X156171428Y-112071047D01*
X156171428Y-111956761D01*
X156209523Y-111804380D01*
X156247619Y-111728190D01*
X156323809Y-111652000D01*
X156438095Y-111613904D01*
X156514285Y-111613904D01*
X156628571Y-111652000D01*
X156666666Y-111690095D01*
X157123809Y-111956761D02*
X157047619Y-111918666D01*
X157009523Y-111880571D01*
X156971428Y-111804380D01*
X156971428Y-111766285D01*
X157009523Y-111690095D01*
X157047619Y-111652000D01*
X157123809Y-111613904D01*
X157276190Y-111613904D01*
X157352380Y-111652000D01*
X157390476Y-111690095D01*
X157428571Y-111766285D01*
X157428571Y-111804380D01*
X157390476Y-111880571D01*
X157352380Y-111918666D01*
X157276190Y-111956761D01*
X157123809Y-111956761D01*
X157047619Y-111994857D01*
X157009523Y-112032952D01*
X156971428Y-112109142D01*
X156971428Y-112261523D01*
X157009523Y-112337714D01*
X157047619Y-112375809D01*
X157123809Y-112413904D01*
X157276190Y-112413904D01*
X157352380Y-112375809D01*
X157390476Y-112337714D01*
X157428571Y-112261523D01*
X157428571Y-112109142D01*
X157390476Y-112032952D01*
X157352380Y-111994857D01*
X157276190Y-111956761D01*
%TO.C,C7*%
X161056666Y-121185714D02*
X161018571Y-121223809D01*
X160904285Y-121261904D01*
X160828095Y-121261904D01*
X160713809Y-121223809D01*
X160637619Y-121147619D01*
X160599523Y-121071428D01*
X160561428Y-120919047D01*
X160561428Y-120804761D01*
X160599523Y-120652380D01*
X160637619Y-120576190D01*
X160713809Y-120500000D01*
X160828095Y-120461904D01*
X160904285Y-120461904D01*
X161018571Y-120500000D01*
X161056666Y-120538095D01*
X161323333Y-120461904D02*
X161856666Y-120461904D01*
X161513809Y-121261904D01*
%TO.C,USB1*%
X153554571Y-98143904D02*
X153554571Y-98791523D01*
X153592666Y-98867714D01*
X153630761Y-98905809D01*
X153706952Y-98943904D01*
X153859333Y-98943904D01*
X153935523Y-98905809D01*
X153973619Y-98867714D01*
X154011714Y-98791523D01*
X154011714Y-98143904D01*
X154354571Y-98905809D02*
X154468857Y-98943904D01*
X154659333Y-98943904D01*
X154735523Y-98905809D01*
X154773619Y-98867714D01*
X154811714Y-98791523D01*
X154811714Y-98715333D01*
X154773619Y-98639142D01*
X154735523Y-98601047D01*
X154659333Y-98562952D01*
X154506952Y-98524857D01*
X154430761Y-98486761D01*
X154392666Y-98448666D01*
X154354571Y-98372476D01*
X154354571Y-98296285D01*
X154392666Y-98220095D01*
X154430761Y-98182000D01*
X154506952Y-98143904D01*
X154697428Y-98143904D01*
X154811714Y-98182000D01*
X155421238Y-98524857D02*
X155535523Y-98562952D01*
X155573619Y-98601047D01*
X155611714Y-98677238D01*
X155611714Y-98791523D01*
X155573619Y-98867714D01*
X155535523Y-98905809D01*
X155459333Y-98943904D01*
X155154571Y-98943904D01*
X155154571Y-98143904D01*
X155421238Y-98143904D01*
X155497428Y-98182000D01*
X155535523Y-98220095D01*
X155573619Y-98296285D01*
X155573619Y-98372476D01*
X155535523Y-98448666D01*
X155497428Y-98486761D01*
X155421238Y-98524857D01*
X155154571Y-98524857D01*
X156373619Y-98943904D02*
X155916476Y-98943904D01*
X156145047Y-98943904D02*
X156145047Y-98143904D01*
X156068857Y-98258190D01*
X155992666Y-98334380D01*
X155916476Y-98372476D01*
D13*
%TO.C,*%
D11*
%TO.C,C9*%
X159467514Y-107485333D02*
X159505609Y-107523428D01*
X159543704Y-107637714D01*
X159543704Y-107713904D01*
X159505609Y-107828190D01*
X159429419Y-107904380D01*
X159353228Y-107942476D01*
X159200847Y-107980571D01*
X159086561Y-107980571D01*
X158934180Y-107942476D01*
X158857990Y-107904380D01*
X158781800Y-107828190D01*
X158743704Y-107713904D01*
X158743704Y-107637714D01*
X158781800Y-107523428D01*
X158819895Y-107485333D01*
X159543704Y-107104380D02*
X159543704Y-106952000D01*
X159505609Y-106875809D01*
X159467514Y-106837714D01*
X159353228Y-106761523D01*
X159200847Y-106723428D01*
X158896085Y-106723428D01*
X158819895Y-106761523D01*
X158781800Y-106799619D01*
X158743704Y-106875809D01*
X158743704Y-107028190D01*
X158781800Y-107104380D01*
X158819895Y-107142476D01*
X158896085Y-107180571D01*
X159086561Y-107180571D01*
X159162752Y-107142476D01*
X159200847Y-107104380D01*
X159238942Y-107028190D01*
X159238942Y-106875809D01*
X159200847Y-106799619D01*
X159162752Y-106761523D01*
X159086561Y-106723428D01*
%TO.C,R2*%
X157881904Y-107513333D02*
X157500952Y-107780000D01*
X157881904Y-107970476D02*
X157081904Y-107970476D01*
X157081904Y-107665714D01*
X157120000Y-107589523D01*
X157158095Y-107551428D01*
X157234285Y-107513333D01*
X157348571Y-107513333D01*
X157424761Y-107551428D01*
X157462857Y-107589523D01*
X157500952Y-107665714D01*
X157500952Y-107970476D01*
X157158095Y-107208571D02*
X157120000Y-107170476D01*
X157081904Y-107094285D01*
X157081904Y-106903809D01*
X157120000Y-106827619D01*
X157158095Y-106789523D01*
X157234285Y-106751428D01*
X157310476Y-106751428D01*
X157424761Y-106789523D01*
X157881904Y-107246666D01*
X157881904Y-106751428D01*
%TO.C,D1*%
X164159523Y-103441904D02*
X164159523Y-102641904D01*
X164350000Y-102641904D01*
X164464285Y-102680000D01*
X164540476Y-102756190D01*
X164578571Y-102832380D01*
X164616666Y-102984761D01*
X164616666Y-103099047D01*
X164578571Y-103251428D01*
X164540476Y-103327619D01*
X164464285Y-103403809D01*
X164350000Y-103441904D01*
X164159523Y-103441904D01*
X165378571Y-103441904D02*
X164921428Y-103441904D01*
X165150000Y-103441904D02*
X165150000Y-102641904D01*
X165073809Y-102756190D01*
X164997619Y-102832380D01*
X164921428Y-102870476D01*
%TO.C,C2*%
X145746666Y-102985714D02*
X145708571Y-103023809D01*
X145594285Y-103061904D01*
X145518095Y-103061904D01*
X145403809Y-103023809D01*
X145327619Y-102947619D01*
X145289523Y-102871428D01*
X145251428Y-102719047D01*
X145251428Y-102604761D01*
X145289523Y-102452380D01*
X145327619Y-102376190D01*
X145403809Y-102300000D01*
X145518095Y-102261904D01*
X145594285Y-102261904D01*
X145708571Y-102300000D01*
X145746666Y-102338095D01*
X146051428Y-102338095D02*
X146089523Y-102300000D01*
X146165714Y-102261904D01*
X146356190Y-102261904D01*
X146432380Y-102300000D01*
X146470476Y-102338095D01*
X146508571Y-102414285D01*
X146508571Y-102490476D01*
X146470476Y-102604761D01*
X146013333Y-103061904D01*
X146508571Y-103061904D01*
%TO.C,C6*%
X156666666Y-113605714D02*
X156628571Y-113643809D01*
X156514285Y-113681904D01*
X156438095Y-113681904D01*
X156323809Y-113643809D01*
X156247619Y-113567619D01*
X156209523Y-113491428D01*
X156171428Y-113339047D01*
X156171428Y-113224761D01*
X156209523Y-113072380D01*
X156247619Y-112996190D01*
X156323809Y-112920000D01*
X156438095Y-112881904D01*
X156514285Y-112881904D01*
X156628571Y-112920000D01*
X156666666Y-112958095D01*
X157352380Y-112881904D02*
X157200000Y-112881904D01*
X157123809Y-112920000D01*
X157085714Y-112958095D01*
X157009523Y-113072380D01*
X156971428Y-113224761D01*
X156971428Y-113529523D01*
X157009523Y-113605714D01*
X157047619Y-113643809D01*
X157123809Y-113681904D01*
X157276190Y-113681904D01*
X157352380Y-113643809D01*
X157390476Y-113605714D01*
X157428571Y-113529523D01*
X157428571Y-113339047D01*
X157390476Y-113262857D01*
X157352380Y-113224761D01*
X157276190Y-113186666D01*
X157123809Y-113186666D01*
X157047619Y-113224761D01*
X157009523Y-113262857D01*
X156971428Y-113339047D01*
%TO.C,C11*%
X163625714Y-121695714D02*
X163587619Y-121733809D01*
X163473333Y-121771904D01*
X163397142Y-121771904D01*
X163282857Y-121733809D01*
X163206666Y-121657619D01*
X163168571Y-121581428D01*
X163130476Y-121429047D01*
X163130476Y-121314761D01*
X163168571Y-121162380D01*
X163206666Y-121086190D01*
X163282857Y-121010000D01*
X163397142Y-120971904D01*
X163473333Y-120971904D01*
X163587619Y-121010000D01*
X163625714Y-121048095D01*
X164387619Y-121771904D02*
X163930476Y-121771904D01*
X164159047Y-121771904D02*
X164159047Y-120971904D01*
X164082857Y-121086190D01*
X164006666Y-121162380D01*
X163930476Y-121200476D01*
X165149523Y-121771904D02*
X164692380Y-121771904D01*
X164920952Y-121771904D02*
X164920952Y-120971904D01*
X164844761Y-121086190D01*
X164768571Y-121162380D01*
X164692380Y-121200476D01*
%TO.C,Y1*%
X157549047Y-123390952D02*
X157549047Y-123771904D01*
X157282380Y-122971904D02*
X157549047Y-123390952D01*
X157815714Y-122971904D01*
X158501428Y-123771904D02*
X158044285Y-123771904D01*
X158272857Y-123771904D02*
X158272857Y-122971904D01*
X158196666Y-123086190D01*
X158120476Y-123162380D01*
X158044285Y-123200476D01*
%TO.C,C10*%
X163665714Y-125625714D02*
X163627619Y-125663809D01*
X163513333Y-125701904D01*
X163437142Y-125701904D01*
X163322857Y-125663809D01*
X163246666Y-125587619D01*
X163208571Y-125511428D01*
X163170476Y-125359047D01*
X163170476Y-125244761D01*
X163208571Y-125092380D01*
X163246666Y-125016190D01*
X163322857Y-124940000D01*
X163437142Y-124901904D01*
X163513333Y-124901904D01*
X163627619Y-124940000D01*
X163665714Y-124978095D01*
X164427619Y-125701904D02*
X163970476Y-125701904D01*
X164199047Y-125701904D02*
X164199047Y-124901904D01*
X164122857Y-125016190D01*
X164046666Y-125092380D01*
X163970476Y-125130476D01*
X164922857Y-124901904D02*
X164999047Y-124901904D01*
X165075238Y-124940000D01*
X165113333Y-124978095D01*
X165151428Y-125054285D01*
X165189523Y-125206666D01*
X165189523Y-125397142D01*
X165151428Y-125549523D01*
X165113333Y-125625714D01*
X165075238Y-125663809D01*
X164999047Y-125701904D01*
X164922857Y-125701904D01*
X164846666Y-125663809D01*
X164808571Y-125625714D01*
X164770476Y-125549523D01*
X164732380Y-125397142D01*
X164732380Y-125206666D01*
X164770476Y-125054285D01*
X164808571Y-124978095D01*
X164846666Y-124940000D01*
X164922857Y-124901904D01*
%TO.C,C1*%
X145716666Y-97475714D02*
X145678571Y-97513809D01*
X145564285Y-97551904D01*
X145488095Y-97551904D01*
X145373809Y-97513809D01*
X145297619Y-97437619D01*
X145259523Y-97361428D01*
X145221428Y-97209047D01*
X145221428Y-97094761D01*
X145259523Y-96942380D01*
X145297619Y-96866190D01*
X145373809Y-96790000D01*
X145488095Y-96751904D01*
X145564285Y-96751904D01*
X145678571Y-96790000D01*
X145716666Y-96828095D01*
X146478571Y-97551904D02*
X146021428Y-97551904D01*
X146250000Y-97551904D02*
X146250000Y-96751904D01*
X146173809Y-96866190D01*
X146097619Y-96942380D01*
X146021428Y-96980476D01*
%TO.C,U1*%
X146491476Y-99510904D02*
X146491476Y-100158523D01*
X146529571Y-100234714D01*
X146567666Y-100272809D01*
X146643857Y-100310904D01*
X146796238Y-100310904D01*
X146872428Y-100272809D01*
X146910523Y-100234714D01*
X146948619Y-100158523D01*
X146948619Y-99510904D01*
X147748619Y-100310904D02*
X147291476Y-100310904D01*
X147520047Y-100310904D02*
X147520047Y-99510904D01*
X147443857Y-99625190D01*
X147367666Y-99701380D01*
X147291476Y-99739476D01*
%TO.C,C3*%
X148823333Y-111425714D02*
X148861428Y-111463809D01*
X148975714Y-111501904D01*
X149051904Y-111501904D01*
X149166190Y-111463809D01*
X149242380Y-111387619D01*
X149280476Y-111311428D01*
X149318571Y-111159047D01*
X149318571Y-111044761D01*
X149280476Y-110892380D01*
X149242380Y-110816190D01*
X149166190Y-110740000D01*
X149051904Y-110701904D01*
X148975714Y-110701904D01*
X148861428Y-110740000D01*
X148823333Y-110778095D01*
X148556666Y-110701904D02*
X148061428Y-110701904D01*
X148328095Y-111006666D01*
X148213809Y-111006666D01*
X148137619Y-111044761D01*
X148099523Y-111082857D01*
X148061428Y-111159047D01*
X148061428Y-111349523D01*
X148099523Y-111425714D01*
X148137619Y-111463809D01*
X148213809Y-111501904D01*
X148442380Y-111501904D01*
X148518571Y-111463809D01*
X148556666Y-111425714D01*
D14*
%TO.C,R3*%
X164783641Y-99410000D02*
X164476359Y-99410000D01*
X164783641Y-98650000D02*
X164476359Y-98650000D01*
%TO.C,C5*%
X152660000Y-109192164D02*
X152660000Y-109407836D01*
X151940000Y-109192164D02*
X151940000Y-109407836D01*
%TO.C,F1*%
X161470000Y-101022064D02*
X161470000Y-99817936D01*
X163290000Y-101022064D02*
X163290000Y-99817936D01*
%TO.C,C4*%
X154977836Y-123340000D02*
X154762164Y-123340000D01*
X154977836Y-124060000D02*
X154762164Y-124060000D01*
D15*
%TO.C,U3*%
X151557305Y-118909408D02*
X151287898Y-118640000D01*
X151287898Y-118640000D02*
X151557305Y-118370592D01*
X158472102Y-118640000D02*
X158202695Y-118909408D01*
X155149408Y-121962695D02*
X154880000Y-122232102D01*
X154880000Y-115047898D02*
X155149408Y-115317305D01*
X154610592Y-115317305D02*
X154880000Y-115047898D01*
X158202695Y-118370592D02*
X158472102Y-118640000D01*
X154880000Y-122232102D02*
X154610592Y-121962695D01*
X155007001Y-122411708D02*
G75*
G03*
X155007001Y-122411708I-127001J0D01*
G01*
D14*
%TO.C,R1*%
X150220000Y-109146359D02*
X150220000Y-109453641D01*
X150980000Y-109146359D02*
X150980000Y-109453641D01*
%TO.C,J3*%
X158740000Y-128210000D02*
X160070000Y-128210000D01*
X157470000Y-128210000D02*
X149790000Y-128210000D01*
X157470000Y-128210000D02*
X157470000Y-130870000D01*
X157470000Y-130870000D02*
X149790000Y-130870000D01*
X149790000Y-128210000D02*
X149790000Y-130870000D01*
X160070000Y-128210000D02*
X160070000Y-129540000D01*
%TO.C,C8*%
X154907836Y-112470000D02*
X154692164Y-112470000D01*
X154907836Y-111750000D02*
X154692164Y-111750000D01*
%TO.C,C7*%
X159577836Y-121230000D02*
X159362164Y-121230000D01*
X159577836Y-120510000D02*
X159362164Y-120510000D01*
D15*
%TO.C,USB1*%
X159400000Y-98675000D02*
X159400000Y-100420000D01*
X150600000Y-98675000D02*
X150600000Y-100420000D01*
X159400000Y-94898000D02*
X150600000Y-94898000D01*
X159400000Y-94898000D02*
X159400000Y-96320000D01*
X150600000Y-94898000D02*
X150600000Y-96320000D01*
%TO.C,*%
G36*
X148587294Y-123346036D02*
G01*
X148581858Y-123351472D01*
X148576421Y-123346036D01*
X148581858Y-123340599D01*
X148587294Y-123346036D01*
G37*
G36*
X147996512Y-123920508D02*
G01*
X147997814Y-123933412D01*
X147996512Y-123935005D01*
X147990048Y-123933513D01*
X147989263Y-123927757D01*
X147993242Y-123918807D01*
X147996512Y-123920508D01*
G37*
G36*
X149196198Y-123346036D02*
G01*
X149190762Y-123351472D01*
X149185325Y-123346036D01*
X149190762Y-123340599D01*
X149196198Y-123346036D01*
G37*
G36*
X149120085Y-123378655D02*
G01*
X149114649Y-123384092D01*
X149109212Y-123378655D01*
X149114649Y-123373219D01*
X149120085Y-123378655D01*
G37*
G36*
X149454095Y-122577262D02*
G01*
X149462823Y-122591141D01*
X149465841Y-122612668D01*
X149462108Y-122654578D01*
X149441895Y-122685692D01*
X149403729Y-122707443D01*
X149355709Y-122719702D01*
X149275282Y-122730854D01*
X149178301Y-122739674D01*
X149069849Y-122746017D01*
X148955008Y-122749739D01*
X148838860Y-122750694D01*
X148726489Y-122748738D01*
X148622977Y-122743724D01*
X148592731Y-122741465D01*
X148500957Y-122732956D01*
X148428814Y-122723733D01*
X148374188Y-122713041D01*
X148334963Y-122700122D01*
X148309024Y-122684222D01*
X148294256Y-122664585D01*
X148288543Y-122640454D01*
X148288279Y-122632662D01*
X148291170Y-122606350D01*
X148302477Y-122594713D01*
X148312359Y-122592355D01*
X148332593Y-122595589D01*
X148343193Y-122615840D01*
X148343260Y-122616104D01*
X148352648Y-122634772D01*
X148372201Y-122649197D01*
X148404925Y-122660471D01*
X148453829Y-122669684D01*
X148510415Y-122676714D01*
X148598185Y-122684476D01*
X148692271Y-122689815D01*
X148790002Y-122692840D01*
X148888709Y-122693660D01*
X148985724Y-122692386D01*
X149078376Y-122689125D01*
X149163996Y-122683989D01*
X149239916Y-122677086D01*
X149303465Y-122668526D01*
X149351975Y-122658419D01*
X149382776Y-122646873D01*
X149390688Y-122640613D01*
X149399935Y-122620806D01*
X149404467Y-122601215D01*
X149413003Y-122580053D01*
X149434403Y-122574037D01*
X149435411Y-122574032D01*
X149454095Y-122577262D01*
G37*
G36*
X148015670Y-123964980D02*
G01*
X148019403Y-123972200D01*
X148020942Y-123982033D01*
X148013599Y-123973332D01*
X148012939Y-123972390D01*
X148003850Y-123964113D01*
X147998504Y-123975841D01*
X147998080Y-123977826D01*
X147994255Y-123991237D01*
X147990171Y-123984664D01*
X147987426Y-123975124D01*
X147986400Y-123957390D01*
X147998149Y-123954327D01*
X148015670Y-123964980D01*
G37*
G36*
X149572218Y-121820855D02*
G01*
X149657890Y-121822880D01*
X149724500Y-121825019D01*
X149774733Y-121827488D01*
X149811273Y-121830502D01*
X149836805Y-121834278D01*
X149854015Y-121839032D01*
X149864734Y-121844410D01*
X149886513Y-121865057D01*
X149889843Y-121888991D01*
X149874961Y-121920298D01*
X149869586Y-121928134D01*
X149839155Y-121961421D01*
X149809378Y-121976379D01*
X149789580Y-121974799D01*
X149774046Y-121961385D01*
X149778726Y-121940569D01*
X149790538Y-121925143D01*
X149802634Y-121908575D01*
X149804130Y-121900894D01*
X149791832Y-121897637D01*
X149764042Y-121893318D01*
X149728989Y-121889122D01*
X149658313Y-121881647D01*
X149646102Y-121914077D01*
X149621711Y-121950469D01*
X149583823Y-121975338D01*
X149538540Y-121986585D01*
X149491965Y-121982112D01*
X149471621Y-121974113D01*
X149442597Y-121952084D01*
X149418753Y-121922316D01*
X149417500Y-121920075D01*
X149392495Y-121891663D01*
X149360370Y-121883037D01*
X149323771Y-121894552D01*
X149307827Y-121905381D01*
X149285029Y-121919319D01*
X149268932Y-121917526D01*
X149265338Y-121914923D01*
X149251789Y-121893989D01*
X149258119Y-121868856D01*
X149278811Y-121843470D01*
X149307057Y-121815224D01*
X149572218Y-121820855D01*
G37*
G36*
X148120749Y-121495706D02*
G01*
X148122775Y-121495859D01*
X148212927Y-121507939D01*
X148305221Y-121529332D01*
X148390559Y-121557668D01*
X148434630Y-121577014D01*
X148474807Y-121599180D01*
X148494521Y-121616236D01*
X148494260Y-121628891D01*
X148476288Y-121637397D01*
X148439065Y-121642909D01*
X148393028Y-121641041D01*
X148335252Y-121631340D01*
X148262809Y-121613356D01*
X148197761Y-121594363D01*
X148132842Y-121575781D01*
X148065538Y-121558622D01*
X148003061Y-121544598D01*
X147952623Y-121535420D01*
X147944957Y-121534361D01*
X147902169Y-121528000D01*
X147869015Y-121521408D01*
X147850326Y-121515627D01*
X147847911Y-121513440D01*
X147858026Y-121507913D01*
X147885339Y-121502898D01*
X147925305Y-121498688D01*
X147973375Y-121495573D01*
X148025004Y-121493844D01*
X148075644Y-121493791D01*
X148120749Y-121495706D01*
G37*
G36*
X149008408Y-123344903D02*
G01*
X149005165Y-123349845D01*
X148994136Y-123350614D01*
X148982534Y-123347958D01*
X148987567Y-123344045D01*
X149004561Y-123342748D01*
X149008408Y-123344903D01*
G37*
G36*
X149141832Y-123346036D02*
G01*
X149136395Y-123351472D01*
X149130959Y-123346036D01*
X149136395Y-123340599D01*
X149141832Y-123346036D01*
G37*
G36*
X149779731Y-124029241D02*
G01*
X149781033Y-124042145D01*
X149779731Y-124043738D01*
X149773267Y-124042246D01*
X149772483Y-124036489D01*
X149776461Y-124027539D01*
X149779731Y-124029241D01*
G37*
G36*
X149051901Y-123344903D02*
G01*
X149048658Y-123349845D01*
X149037630Y-123350614D01*
X149026027Y-123347958D01*
X149031060Y-123344045D01*
X149048054Y-123342748D01*
X149051901Y-123344903D01*
G37*
G36*
X148803651Y-122858914D02*
G01*
X148858792Y-122859554D01*
X148884273Y-122860022D01*
X148946407Y-122861393D01*
X148989988Y-122862916D01*
X149018207Y-122865142D01*
X149034253Y-122868620D01*
X149041317Y-122873901D01*
X149042588Y-122881534D01*
X149041936Y-122887206D01*
X149039751Y-122896528D01*
X149034047Y-122903102D01*
X149021456Y-122907469D01*
X148998612Y-122910170D01*
X148962147Y-122911747D01*
X148908694Y-122912741D01*
X148880873Y-122913109D01*
X148823730Y-122913452D01*
X148773875Y-122913031D01*
X148735582Y-122911937D01*
X148713124Y-122910260D01*
X148709619Y-122909484D01*
X148697996Y-122895163D01*
X148696027Y-122884178D01*
X148702475Y-122865616D01*
X148709619Y-122860619D01*
X148724847Y-122859461D01*
X148757597Y-122858888D01*
X148803651Y-122858914D01*
G37*
G36*
X149750736Y-123954940D02*
G01*
X149745299Y-123960376D01*
X149739863Y-123954940D01*
X149745299Y-123949503D01*
X149750736Y-123954940D01*
G37*
G36*
X149119643Y-123348492D02*
G01*
X149120085Y-123351472D01*
X149116375Y-123362063D01*
X149115290Y-123362346D01*
X149106007Y-123354726D01*
X149103775Y-123351472D01*
X149104637Y-123341453D01*
X149108570Y-123340599D01*
X149119643Y-123348492D01*
G37*
G36*
X149225194Y-123257237D02*
G01*
X149226495Y-123270141D01*
X149225194Y-123271735D01*
X149218730Y-123270242D01*
X149217945Y-123264486D01*
X149221923Y-123255536D01*
X149225194Y-123257237D01*
G37*
G36*
X149033099Y-123411275D02*
G01*
X149027662Y-123416712D01*
X149022226Y-123411275D01*
X149027662Y-123405839D01*
X149033099Y-123411275D01*
G37*
G36*
X149000479Y-123411275D02*
G01*
X148995042Y-123416712D01*
X148989606Y-123411275D01*
X148995042Y-123405839D01*
X149000479Y-123411275D01*
G37*
G36*
X149083841Y-123344223D02*
G01*
X149082348Y-123350688D01*
X149076592Y-123351472D01*
X149067642Y-123347494D01*
X149069343Y-123344223D01*
X149082247Y-123342922D01*
X149083841Y-123344223D01*
G37*
G36*
X148619914Y-123367782D02*
G01*
X148614477Y-123373219D01*
X148609041Y-123367782D01*
X148614477Y-123362346D01*
X148619914Y-123367782D01*
G37*
G36*
X148727654Y-123382184D02*
G01*
X148731797Y-123394965D01*
X148732407Y-123412304D01*
X148727629Y-123416712D01*
X148719619Y-123407596D01*
X148717774Y-123394965D01*
X148719528Y-123377266D01*
X148721942Y-123373219D01*
X148727654Y-123382184D01*
G37*
G36*
X149720758Y-121498044D02*
G01*
X149788970Y-121499054D01*
X149841819Y-121501544D01*
X149877175Y-121505363D01*
X149892833Y-121510281D01*
X149892638Y-121517573D01*
X149874653Y-121523668D01*
X149837023Y-121529150D01*
X149830387Y-121529869D01*
X149779764Y-121537479D01*
X149714894Y-121550558D01*
X149642114Y-121567561D01*
X149567762Y-121586942D01*
X149498173Y-121607154D01*
X149452737Y-121621993D01*
X149392755Y-121637117D01*
X149331165Y-121642930D01*
X149277357Y-121638669D01*
X149269593Y-121636871D01*
X149252165Y-121627081D01*
X149255414Y-121612659D01*
X149278894Y-121594145D01*
X149322159Y-121572075D01*
X149323959Y-121571275D01*
X149397399Y-121541719D01*
X149467270Y-121520759D01*
X149539757Y-121507253D01*
X149621048Y-121500060D01*
X149717330Y-121498036D01*
X149720758Y-121498044D01*
G37*
G36*
X149736238Y-123898761D02*
G01*
X149737540Y-123911665D01*
X149736238Y-123913259D01*
X149729774Y-123911766D01*
X149728989Y-123906010D01*
X149732968Y-123897060D01*
X149736238Y-123898761D01*
G37*
G36*
X147956644Y-124041926D02*
G01*
X147951207Y-124047363D01*
X147945770Y-124041926D01*
X147951207Y-124036489D01*
X147956644Y-124041926D01*
G37*
G36*
X148823936Y-122010948D02*
G01*
X148833577Y-122032364D01*
X148839235Y-122071370D01*
X148840996Y-122122886D01*
X148839187Y-122178980D01*
X148834137Y-122231719D01*
X148826173Y-122273169D01*
X148823262Y-122282225D01*
X148813525Y-122311123D01*
X148812478Y-122327596D01*
X148820288Y-122339226D01*
X148824604Y-122343094D01*
X148848576Y-122359265D01*
X148861845Y-122365446D01*
X148876717Y-122379400D01*
X148880289Y-122399998D01*
X148871576Y-122416825D01*
X148866950Y-122419385D01*
X148849235Y-122418095D01*
X148821830Y-122408392D01*
X148812125Y-122403744D01*
X148772740Y-122375549D01*
X148754433Y-122342120D01*
X148757139Y-122303322D01*
X148760874Y-122293279D01*
X148767380Y-122268466D01*
X148773680Y-122227942D01*
X148778975Y-122177734D01*
X148781997Y-122133777D01*
X148785257Y-122079009D01*
X148788788Y-122042371D01*
X148793296Y-122020253D01*
X148799486Y-122009043D01*
X148807090Y-122005294D01*
X148823936Y-122010948D01*
G37*
G36*
X148725022Y-123431210D02*
G01*
X148726324Y-123444114D01*
X148725022Y-123445707D01*
X148718558Y-123444215D01*
X148717774Y-123438459D01*
X148721752Y-123429509D01*
X148725022Y-123431210D01*
G37*
G36*
X148149536Y-123231764D02*
G01*
X148180502Y-123202761D01*
X148220603Y-123174280D01*
X148245158Y-123160531D01*
X148304773Y-123131364D01*
X148193230Y-123069159D01*
X148097608Y-123013455D01*
X148018267Y-122961403D01*
X147950917Y-122909604D01*
X147891269Y-122854657D01*
X147835031Y-122793163D01*
X147815854Y-122770071D01*
X147779509Y-122722326D01*
X147741785Y-122667638D01*
X147706260Y-122611690D01*
X147676513Y-122560167D01*
X147656120Y-122518750D01*
X147653475Y-122512169D01*
X147646648Y-122499558D01*
X147634578Y-122490728D01*
X147612737Y-122484080D01*
X147576595Y-122478016D01*
X147544817Y-122473823D01*
X147445002Y-122452145D01*
X147358751Y-122413672D01*
X147285177Y-122357766D01*
X147223389Y-122283789D01*
X147183518Y-122214582D01*
X147154447Y-122133028D01*
X147141728Y-122043847D01*
X147145063Y-121971009D01*
X147239743Y-121971009D01*
X147240081Y-122013350D01*
X147241177Y-122039519D01*
X147248047Y-122111220D01*
X147262797Y-122168283D01*
X147288081Y-122217183D01*
X147326547Y-122264389D01*
X147338193Y-122276344D01*
X147382493Y-122312721D01*
X147435885Y-122344747D01*
X147491398Y-122369060D01*
X147542061Y-122382294D01*
X147560732Y-122383741D01*
X147605190Y-122383750D01*
X147586012Y-122294045D01*
X147571857Y-122215320D01*
X147559640Y-122123689D01*
X147550272Y-122027967D01*
X147544662Y-121936968D01*
X147543955Y-121904488D01*
X147638457Y-121904488D01*
X147646220Y-122016358D01*
X147664459Y-122182358D01*
X147694899Y-122330740D01*
X147737497Y-122461354D01*
X147792215Y-122574052D01*
X147802048Y-122590342D01*
X147845031Y-122651471D01*
X147900283Y-122718344D01*
X147962252Y-122785040D01*
X148025388Y-122845633D01*
X148084140Y-122894203D01*
X148092560Y-122900318D01*
X148195610Y-122964712D01*
X148311647Y-123022147D01*
X148433820Y-123069880D01*
X148555282Y-123105166D01*
X148647603Y-123122627D01*
X148692886Y-123128992D01*
X148731010Y-123134696D01*
X148756039Y-123138837D01*
X148761267Y-123139905D01*
X148785265Y-123142141D01*
X148825811Y-123142176D01*
X148877855Y-123140329D01*
X148936346Y-123136919D01*
X148996230Y-123132264D01*
X149052459Y-123126684D01*
X149099979Y-123120497D01*
X149118427Y-123117364D01*
X149271893Y-123078223D01*
X149419603Y-123020833D01*
X149558169Y-122946916D01*
X149684200Y-122858192D01*
X149759236Y-122792003D01*
X149847720Y-122697336D01*
X149918666Y-122600125D01*
X149974522Y-122495861D01*
X150017735Y-122380032D01*
X150018636Y-122376488D01*
X150124211Y-122376488D01*
X150134966Y-122382365D01*
X150162506Y-122383750D01*
X150162780Y-122383750D01*
X150198401Y-122379753D01*
X150241597Y-122369529D01*
X150266283Y-122361419D01*
X150331305Y-122327342D01*
X150392638Y-122277330D01*
X150443937Y-122217030D01*
X150462973Y-122186382D01*
X150478218Y-122156464D01*
X150487667Y-122130044D01*
X150492689Y-122100219D01*
X150494648Y-122060083D01*
X150494927Y-122024931D01*
X150494274Y-121973671D01*
X150491315Y-121937168D01*
X150484753Y-121908454D01*
X150473294Y-121880562D01*
X150465026Y-121864179D01*
X150439438Y-121822632D01*
X150407915Y-121781213D01*
X150391705Y-121763417D01*
X150366458Y-121739135D01*
X150349871Y-121728126D01*
X150335524Y-121727997D01*
X150317889Y-121735888D01*
X150290641Y-121753389D01*
X150271862Y-121770376D01*
X150250773Y-121787915D01*
X150223087Y-121802989D01*
X150189830Y-121816891D01*
X150176378Y-121999743D01*
X150167794Y-122099625D01*
X150157559Y-122190415D01*
X150146151Y-122268696D01*
X150134050Y-122331050D01*
X150125392Y-122363491D01*
X150124211Y-122376488D01*
X150018636Y-122376488D01*
X150048569Y-122258707D01*
X150054992Y-122222770D01*
X150061794Y-122175930D01*
X150068524Y-122122578D01*
X150074732Y-122067106D01*
X150079967Y-122013908D01*
X150083777Y-121967376D01*
X150085712Y-121931902D01*
X150085320Y-121911878D01*
X150084447Y-121909213D01*
X150072353Y-121909813D01*
X150051156Y-121917537D01*
X150032111Y-121930061D01*
X150023745Y-121949577D01*
X150021977Y-121975028D01*
X150011604Y-122042827D01*
X149983799Y-122102552D01*
X149940729Y-122149620D01*
X149938722Y-122151173D01*
X149910097Y-122169725D01*
X149876422Y-122184495D01*
X149835100Y-122195855D01*
X149783535Y-122204178D01*
X149719128Y-122209837D01*
X149639284Y-122213203D01*
X149541405Y-122214648D01*
X149495214Y-122214773D01*
X149416080Y-122214636D01*
X149355401Y-122214046D01*
X149309884Y-122212738D01*
X149276238Y-122210448D01*
X149251170Y-122206913D01*
X149231390Y-122201869D01*
X149213606Y-122195053D01*
X149205952Y-122191604D01*
X149135293Y-122148274D01*
X149081599Y-122091431D01*
X149044605Y-122020729D01*
X149027641Y-121958300D01*
X149020483Y-121919816D01*
X149065384Y-121919816D01*
X149075747Y-121977737D01*
X149080728Y-121995232D01*
X149110421Y-122061486D01*
X149155405Y-122112896D01*
X149216154Y-122149810D01*
X149293147Y-122172574D01*
X149332114Y-122178179D01*
X149384116Y-122181440D01*
X149451548Y-122182421D01*
X149528231Y-122181311D01*
X149607990Y-122178298D01*
X149684647Y-122173569D01*
X149752026Y-122167314D01*
X149772483Y-122164770D01*
X149848244Y-122149330D01*
X149905440Y-122124935D01*
X149946075Y-122089683D01*
X149972156Y-122041668D01*
X149985688Y-121978987D01*
X149987344Y-121960819D01*
X149987559Y-121900905D01*
X149977395Y-121857898D01*
X149955519Y-121828932D01*
X149920597Y-121811139D01*
X149917276Y-121810134D01*
X149862609Y-121798400D01*
X149790893Y-121789214D01*
X149706684Y-121782632D01*
X149614538Y-121778707D01*
X149519009Y-121777495D01*
X149424654Y-121779050D01*
X149336026Y-121783428D01*
X149257681Y-121790682D01*
X149194174Y-121800868D01*
X149191662Y-121801413D01*
X149132032Y-121819091D01*
X149092076Y-121843027D01*
X149070343Y-121875758D01*
X149065384Y-121919816D01*
X149020483Y-121919816D01*
X149020304Y-121918853D01*
X148924849Y-121911386D01*
X148870913Y-121908736D01*
X148815437Y-121908548D01*
X148769069Y-121910817D01*
X148762711Y-121911463D01*
X148725023Y-121916868D01*
X148704523Y-121923520D01*
X148696658Y-121933293D01*
X148696027Y-121938941D01*
X148690177Y-121972001D01*
X148674880Y-122015125D01*
X148653518Y-122060816D01*
X148629469Y-122101577D01*
X148613073Y-122122913D01*
X148580788Y-122151571D01*
X148540081Y-122178625D01*
X148519245Y-122189370D01*
X148499545Y-122197791D01*
X148480601Y-122204140D01*
X148459052Y-122208707D01*
X148431534Y-122211786D01*
X148394684Y-122213666D01*
X148345139Y-122214639D01*
X148279535Y-122214998D01*
X148223039Y-122215038D01*
X148114916Y-122214119D01*
X148026009Y-122211169D01*
X147953854Y-122205876D01*
X147895989Y-122197928D01*
X147849950Y-122187011D01*
X147813275Y-122172814D01*
X147791041Y-122160226D01*
X147748487Y-122119914D01*
X147717411Y-122064101D01*
X147700031Y-121996966D01*
X147698785Y-121986591D01*
X147693375Y-121950947D01*
X147689228Y-121941440D01*
X147739195Y-121941440D01*
X147741801Y-122001876D01*
X147751033Y-122050345D01*
X147769050Y-122088409D01*
X147798014Y-122117626D01*
X147840083Y-122139559D01*
X147897417Y-122155768D01*
X147972176Y-122167815D01*
X148065376Y-122177164D01*
X148147612Y-122183077D01*
X148216281Y-122185632D01*
X148279300Y-122184846D01*
X148344585Y-122180741D01*
X148375538Y-122177939D01*
X148459105Y-122164305D01*
X148524972Y-122140521D01*
X148575337Y-122105201D01*
X148612402Y-122056960D01*
X148630676Y-122017296D01*
X148649725Y-121950913D01*
X148651857Y-121897566D01*
X148636755Y-121856241D01*
X148604104Y-121825927D01*
X148565548Y-121809053D01*
X148512634Y-121796962D01*
X148442578Y-121787640D01*
X148359805Y-121781089D01*
X148268741Y-121777309D01*
X148173812Y-121776298D01*
X148079446Y-121778057D01*
X147990067Y-121782587D01*
X147910103Y-121789888D01*
X147843980Y-121799958D01*
X147807036Y-121809046D01*
X147775907Y-121821088D01*
X147755968Y-121836952D01*
X147744814Y-121861335D01*
X147740039Y-121898933D01*
X147739195Y-121941440D01*
X147689228Y-121941440D01*
X147684418Y-121930413D01*
X147668762Y-121918360D01*
X147665664Y-121916884D01*
X147638457Y-121904488D01*
X147543955Y-121904488D01*
X147543459Y-121881690D01*
X147542121Y-121838103D01*
X147538431Y-121808531D01*
X147532870Y-121796666D01*
X147532342Y-121796592D01*
X147518955Y-121789714D01*
X147509501Y-121782502D01*
X147641496Y-121782502D01*
X147642621Y-121815406D01*
X147645497Y-121837222D01*
X147650394Y-121851495D01*
X147657578Y-121861772D01*
X147658004Y-121862247D01*
X147678844Y-121880499D01*
X147692522Y-121879091D01*
X147701757Y-121857731D01*
X147701794Y-121857587D01*
X147720145Y-121823200D01*
X147753860Y-121791986D01*
X147796667Y-121769314D01*
X147809779Y-121765132D01*
X147859362Y-121755231D01*
X147925770Y-121747063D01*
X148004137Y-121740853D01*
X148089594Y-121736824D01*
X148177273Y-121735199D01*
X148262306Y-121736204D01*
X148339824Y-121740061D01*
X148345507Y-121740496D01*
X148440645Y-121749272D01*
X148516392Y-121759429D01*
X148575093Y-121771665D01*
X148619090Y-121786677D01*
X148650730Y-121805163D01*
X148672356Y-121827818D01*
X148679602Y-121839863D01*
X148696022Y-121871615D01*
X148860133Y-121874879D01*
X149024243Y-121878142D01*
X149038624Y-121843679D01*
X149055924Y-121815629D01*
X149077569Y-121796072D01*
X149077888Y-121795898D01*
X149126951Y-121776719D01*
X149194118Y-121760913D01*
X149275980Y-121748663D01*
X149369131Y-121740153D01*
X149470164Y-121735564D01*
X149575669Y-121735081D01*
X149682240Y-121738885D01*
X149786470Y-121747159D01*
X149848147Y-121754576D01*
X149909467Y-121765501D01*
X149953186Y-121779970D01*
X149983402Y-121800105D01*
X150004215Y-121828028D01*
X150009064Y-121837858D01*
X150021170Y-121864121D01*
X150029033Y-121880451D01*
X150030061Y-121882333D01*
X150039875Y-121880077D01*
X150059791Y-121868814D01*
X150060285Y-121868491D01*
X150075940Y-121855661D01*
X150084236Y-121838979D01*
X150087418Y-121811681D01*
X150087808Y-121785583D01*
X150084125Y-121739801D01*
X150073954Y-121681110D01*
X150058613Y-121616895D01*
X150056095Y-121607769D01*
X150025405Y-121510844D01*
X149991845Y-121431598D01*
X149952944Y-121365967D01*
X149906232Y-121309886D01*
X149849238Y-121259291D01*
X149839874Y-121252094D01*
X149797699Y-121217441D01*
X149755464Y-121178243D01*
X149721910Y-121142640D01*
X149720290Y-121140707D01*
X149694618Y-121105930D01*
X149667361Y-121062786D01*
X149641320Y-121016537D01*
X149619296Y-120972447D01*
X149604093Y-120935776D01*
X149598510Y-120911997D01*
X149597558Y-120900030D01*
X149591884Y-120895800D01*
X149577257Y-120899953D01*
X149549450Y-120913135D01*
X149531361Y-120922260D01*
X149424741Y-120970808D01*
X149302689Y-121017083D01*
X149171519Y-121059188D01*
X149037543Y-121095224D01*
X148907073Y-121123295D01*
X148812358Y-121138368D01*
X148747730Y-121144914D01*
X148670928Y-121149745D01*
X148587504Y-121152791D01*
X148503011Y-121153978D01*
X148422999Y-121153235D01*
X148353021Y-121150488D01*
X148298629Y-121145665D01*
X148294667Y-121145124D01*
X148256965Y-121137598D01*
X148230679Y-121124613D01*
X148207935Y-121100949D01*
X148190419Y-121076011D01*
X148182306Y-121067837D01*
X148168879Y-121065014D01*
X148144890Y-121067503D01*
X148105094Y-121075265D01*
X148104596Y-121075369D01*
X148008325Y-121103377D01*
X147923154Y-121145428D01*
X147847139Y-121203176D01*
X147778339Y-121278274D01*
X147714810Y-121372377D01*
X147678865Y-121437774D01*
X147667170Y-121461707D01*
X147658742Y-121483636D01*
X147652911Y-121507939D01*
X147649006Y-121538989D01*
X147646357Y-121581165D01*
X147644296Y-121638840D01*
X147643430Y-121669246D01*
X147641854Y-121734964D01*
X147641496Y-121782502D01*
X147509501Y-121782502D01*
X147495566Y-121771872D01*
X147473065Y-121752199D01*
X147440275Y-121725198D01*
X147416667Y-121713987D01*
X147403635Y-121714557D01*
X147378536Y-121729918D01*
X147347627Y-121759422D01*
X147315219Y-121797964D01*
X147285624Y-121840438D01*
X147263962Y-121879952D01*
X147250640Y-121911615D01*
X147242915Y-121939532D01*
X147239743Y-121971009D01*
X147145063Y-121971009D01*
X147145831Y-121954240D01*
X147162015Y-121885684D01*
X147201422Y-121796623D01*
X147253671Y-121721948D01*
X147300305Y-121677012D01*
X147325549Y-121654447D01*
X147340971Y-121636031D01*
X147343467Y-121628096D01*
X147339478Y-121614248D01*
X147331282Y-121583171D01*
X147319882Y-121538753D01*
X147306278Y-121484878D01*
X147297907Y-121451365D01*
X147282136Y-121388752D01*
X147270165Y-121344228D01*
X147260751Y-121314728D01*
X147252651Y-121297188D01*
X147244623Y-121288543D01*
X147235425Y-121285729D01*
X147230680Y-121285548D01*
X147203415Y-121276747D01*
X147174911Y-121254906D01*
X147152026Y-121226861D01*
X147141621Y-121199452D01*
X147141534Y-121196679D01*
X147144262Y-121172569D01*
X147150916Y-121136407D01*
X147157674Y-121106138D01*
X147165429Y-121059068D01*
X147170781Y-120993522D01*
X147173509Y-120912661D01*
X147173813Y-120877799D01*
X147175179Y-120803451D01*
X147178617Y-120720709D01*
X147183613Y-120639530D01*
X147189651Y-120569870D01*
X147189821Y-120568261D01*
X147196005Y-120505909D01*
X147199096Y-120462094D01*
X147199141Y-120433832D01*
X147196190Y-120418141D01*
X147192324Y-120413011D01*
X147173907Y-120401155D01*
X147150228Y-120386399D01*
X147117877Y-120356304D01*
X147100922Y-120318584D01*
X147100761Y-120279131D01*
X147116924Y-120246029D01*
X147138046Y-120227634D01*
X147169635Y-120207663D01*
X147184640Y-120199939D01*
X147219560Y-120180792D01*
X147256197Y-120155009D01*
X147296841Y-120120496D01*
X147343784Y-120075157D01*
X147399317Y-120016897D01*
X147465731Y-119943620D01*
X147469351Y-119939555D01*
X147539765Y-119862013D01*
X147601237Y-119798292D01*
X147657817Y-119744776D01*
X147713553Y-119697844D01*
X147772493Y-119653877D01*
X147838685Y-119609258D01*
X147839280Y-119608872D01*
X148024283Y-119501349D01*
X148216216Y-119414278D01*
X148416025Y-119347305D01*
X148624659Y-119300073D01*
X148691846Y-119289301D01*
X148789209Y-119278736D01*
X148898209Y-119273016D01*
X149013986Y-119271931D01*
X149131679Y-119275271D01*
X149246426Y-119282824D01*
X149353366Y-119294380D01*
X149447637Y-119309728D01*
X149511524Y-119324838D01*
X149609182Y-119359081D01*
X149705500Y-119404925D01*
X149796569Y-119459700D01*
X149878480Y-119520734D01*
X149947324Y-119585357D01*
X149999190Y-119650898D01*
X150006801Y-119663231D01*
X150032610Y-119692564D01*
X150077594Y-119726411D01*
X150114925Y-119749386D01*
X150175825Y-119790350D01*
X150241199Y-119844037D01*
X150305662Y-119905200D01*
X150363828Y-119968595D01*
X150410313Y-120028976D01*
X150424046Y-120050462D01*
X150468770Y-120140275D01*
X150507112Y-120246874D01*
X150537985Y-120365951D01*
X150560299Y-120493200D01*
X150572969Y-120624314D01*
X150573969Y-120644024D01*
X150575439Y-120760413D01*
X150570434Y-120885606D01*
X150559589Y-121014629D01*
X150543540Y-121142509D01*
X150522923Y-121264274D01*
X150498374Y-121374951D01*
X150470529Y-121469566D01*
X150467228Y-121478956D01*
X150455379Y-121518827D01*
X150447931Y-121556975D01*
X150446626Y-121573586D01*
X150442936Y-121608208D01*
X150434398Y-121637561D01*
X150428667Y-121655747D01*
X150433495Y-121671013D01*
X150451866Y-121690368D01*
X150459925Y-121697548D01*
X150492593Y-121735051D01*
X150525034Y-121787469D01*
X150554023Y-121848175D01*
X150576337Y-121910546D01*
X150587657Y-121959995D01*
X150593532Y-122046493D01*
X150582561Y-122127028D01*
X150553589Y-122206460D01*
X150511540Y-122280453D01*
X150451188Y-122355706D01*
X150379968Y-122412310D01*
X150296670Y-122451100D01*
X150243532Y-122465515D01*
X150199010Y-122473730D01*
X150156848Y-122479487D01*
X150129428Y-122481420D01*
X150112179Y-122482139D01*
X150098700Y-122486254D01*
X150086137Y-122496987D01*
X150071633Y-122517562D01*
X150052336Y-122551202D01*
X150028455Y-122595411D01*
X149998332Y-122648827D01*
X149968456Y-122694711D01*
X149934364Y-122739005D01*
X149891592Y-122787647D01*
X149854169Y-122827392D01*
X149792792Y-122888563D01*
X149733793Y-122940379D01*
X149672015Y-122986553D01*
X149602298Y-123030800D01*
X149519485Y-123076833D01*
X149477271Y-123098763D01*
X149394089Y-123141296D01*
X149433778Y-123155023D01*
X149488554Y-123180192D01*
X149543520Y-123215934D01*
X149590997Y-123256687D01*
X149617990Y-123288517D01*
X149657583Y-123353461D01*
X149696471Y-123432285D01*
X149735255Y-123526563D01*
X149774535Y-123637868D01*
X149814912Y-123767772D01*
X149853800Y-123906010D01*
X149868630Y-123960839D01*
X149881764Y-124009229D01*
X149891995Y-124046744D01*
X149898116Y-124068948D01*
X149898932Y-124071828D01*
X149898904Y-124084355D01*
X149885876Y-124089828D01*
X149862920Y-124090822D01*
X149821412Y-124090788D01*
X149795008Y-124009829D01*
X149781115Y-123971879D01*
X149768494Y-123945642D01*
X149759220Y-123935267D01*
X149757822Y-123935534D01*
X149751700Y-123933778D01*
X149753866Y-123924410D01*
X149755188Y-123902270D01*
X149749009Y-123873135D01*
X149748567Y-123871841D01*
X149736442Y-123837059D01*
X149716135Y-123901177D01*
X149707217Y-123936974D01*
X149701467Y-123975040D01*
X149699099Y-124010201D01*
X149700325Y-124037284D01*
X149705359Y-124051113D01*
X149709961Y-124051114D01*
X149716420Y-124055887D01*
X149718116Y-124068468D01*
X149718116Y-124090856D01*
X148026897Y-124090856D01*
X148031087Y-124007886D01*
X148032462Y-123964870D01*
X148030964Y-123940555D01*
X148026240Y-123932038D01*
X148021979Y-123933134D01*
X148013266Y-123934100D01*
X148015559Y-123919681D01*
X148016859Y-123900256D01*
X148012945Y-123876011D01*
X148005932Y-123854377D01*
X147997940Y-123842789D01*
X147993841Y-123843441D01*
X147988263Y-123857596D01*
X147985148Y-123874851D01*
X147979639Y-123902425D01*
X147974719Y-123916883D01*
X147967623Y-123934789D01*
X147955894Y-123966651D01*
X147941963Y-124005857D01*
X147940759Y-124009306D01*
X147914221Y-124085419D01*
X147854017Y-124088676D01*
X147818547Y-124089331D01*
X147801183Y-124085918D01*
X147798547Y-124077803D01*
X147803375Y-124062822D01*
X147813449Y-124031188D01*
X147827471Y-123986985D01*
X147844143Y-123934300D01*
X147851365Y-123911447D01*
X147894472Y-123781109D01*
X147938891Y-123658296D01*
X147983638Y-123545256D01*
X148027726Y-123444235D01*
X148070170Y-123357481D01*
X148109983Y-123287241D01*
X148135732Y-123250622D01*
X148457334Y-123250622D01*
X148467114Y-123282385D01*
X148475469Y-123298146D01*
X148488851Y-123319426D01*
X148496837Y-123329583D01*
X148497216Y-123329726D01*
X148498980Y-123319938D01*
X148499140Y-123316362D01*
X148511109Y-123316362D01*
X148519576Y-123346490D01*
X148522437Y-123352187D01*
X148536236Y-123370690D01*
X148546152Y-123367997D01*
X148551831Y-123344372D01*
X148552814Y-123329726D01*
X148552244Y-123301418D01*
X148545784Y-123288850D01*
X148532849Y-123286233D01*
X148515798Y-123294602D01*
X148511109Y-123316362D01*
X148499140Y-123316362D01*
X148500100Y-123294915D01*
X148500308Y-123275359D01*
X148499735Y-123259049D01*
X148511181Y-123259049D01*
X148520633Y-123272167D01*
X148538364Y-123275359D01*
X148554196Y-123277007D01*
X148562279Y-123285573D01*
X148565196Y-123306491D01*
X148565548Y-123332547D01*
X148567524Y-123369648D01*
X148574693Y-123391477D01*
X148586567Y-123402861D01*
X148603423Y-123410176D01*
X148611284Y-123401430D01*
X148612489Y-123397322D01*
X148616401Y-123388046D01*
X148618474Y-123399657D01*
X148618653Y-123402738D01*
X148628494Y-123427032D01*
X148640939Y-123438072D01*
X148656512Y-123443145D01*
X148663952Y-123432663D01*
X148666493Y-123419427D01*
X148669659Y-123400687D01*
X148671321Y-123401915D01*
X148672648Y-123423992D01*
X148672651Y-123424070D01*
X148681422Y-123451841D01*
X148700033Y-123465653D01*
X148721803Y-123464526D01*
X148740051Y-123447477D01*
X148745226Y-123434736D01*
X148755475Y-123405761D01*
X148764166Y-123386103D01*
X148764543Y-123384938D01*
X148828451Y-123384938D01*
X148829927Y-123400246D01*
X148844050Y-123405502D01*
X148853690Y-123405839D01*
X148873953Y-123401209D01*
X148880488Y-123392247D01*
X148875226Y-123373230D01*
X148864997Y-123351472D01*
X148850817Y-123325954D01*
X148914955Y-123325954D01*
X148923371Y-123346147D01*
X148928155Y-123355501D01*
X148940808Y-123373036D01*
X148950841Y-123375863D01*
X148950935Y-123375773D01*
X148956095Y-123376761D01*
X148955379Y-123384092D01*
X148955941Y-123400942D01*
X148961144Y-123425739D01*
X148968973Y-123452210D01*
X148977410Y-123474081D01*
X148984440Y-123485082D01*
X148987302Y-123483426D01*
X149000102Y-123473517D01*
X149014977Y-123471038D01*
X149038102Y-123466167D01*
X149064823Y-123454229D01*
X149088651Y-123439137D01*
X149103095Y-123424803D01*
X149104129Y-123417285D01*
X149108770Y-123409145D01*
X149128056Y-123403860D01*
X149146192Y-123399910D01*
X149155507Y-123389486D01*
X149159464Y-123366553D01*
X149160575Y-123347227D01*
X149163270Y-123314977D01*
X149167393Y-123292630D01*
X149169768Y-123287424D01*
X149173821Y-123291898D01*
X149174439Y-123311780D01*
X149174338Y-123313416D01*
X149172885Y-123352075D01*
X149175655Y-123372734D01*
X149183506Y-123378875D01*
X149190097Y-123377406D01*
X149203173Y-123363429D01*
X149213160Y-123337950D01*
X149213383Y-123336972D01*
X149219155Y-123315507D01*
X149223971Y-123313468D01*
X149228709Y-123324217D01*
X149234704Y-123335953D01*
X149241945Y-123332526D01*
X149254091Y-123311758D01*
X149256099Y-123307907D01*
X149269821Y-123276773D01*
X149277950Y-123249598D01*
X149278444Y-123246294D01*
X149278874Y-123232434D01*
X149272527Y-123227638D01*
X149254229Y-123230948D01*
X149231462Y-123237599D01*
X149200850Y-123248132D01*
X149179875Y-123257791D01*
X149175427Y-123261228D01*
X149160367Y-123268513D01*
X149147759Y-123269923D01*
X149127554Y-123279803D01*
X149118941Y-123297106D01*
X149113184Y-123312191D01*
X149110366Y-123306142D01*
X149110296Y-123305048D01*
X149104228Y-123291508D01*
X149084759Y-123290311D01*
X149080314Y-123291047D01*
X149050777Y-123296057D01*
X149013525Y-123301954D01*
X149004201Y-123303368D01*
X148975676Y-123309408D01*
X148958879Y-123316373D01*
X148956986Y-123319069D01*
X148948295Y-123323679D01*
X148935239Y-123322003D01*
X148918625Y-123319259D01*
X148914955Y-123325954D01*
X148850817Y-123325954D01*
X148849892Y-123324289D01*
X148838199Y-123354898D01*
X148828451Y-123384938D01*
X148764543Y-123384938D01*
X148770970Y-123365099D01*
X148763210Y-123352579D01*
X148760764Y-123350932D01*
X148752118Y-123342584D01*
X148758548Y-123340765D01*
X148770594Y-123331841D01*
X148772140Y-123324289D01*
X148762958Y-123311037D01*
X148749125Y-123307979D01*
X148732214Y-123312578D01*
X148731779Y-123329654D01*
X148731801Y-123329741D01*
X148732517Y-123344456D01*
X148727633Y-123345409D01*
X148719365Y-123330657D01*
X148717774Y-123318211D01*
X148709774Y-123300495D01*
X148696027Y-123297106D01*
X148682031Y-123300656D01*
X148675393Y-123315030D01*
X148673422Y-123343317D01*
X148671700Y-123367491D01*
X148668317Y-123375988D01*
X148666355Y-123373219D01*
X148653661Y-123353661D01*
X148648185Y-123348920D01*
X148642985Y-123341940D01*
X148649816Y-123340765D01*
X148660030Y-123331343D01*
X148663407Y-123313416D01*
X148658503Y-123292301D01*
X148640966Y-123286235D01*
X148640427Y-123286233D01*
X148624644Y-123289681D01*
X148620692Y-123304223D01*
X148622233Y-123318852D01*
X148622247Y-123343113D01*
X148614778Y-123351472D01*
X148607090Y-123341743D01*
X148606790Y-123315073D01*
X148606964Y-123313526D01*
X148607385Y-123285961D01*
X148598498Y-123272410D01*
X148591189Y-123269239D01*
X148563334Y-123258292D01*
X148552104Y-123252819D01*
X148525437Y-123243328D01*
X148512500Y-123250613D01*
X148511181Y-123259049D01*
X148499735Y-123259049D01*
X148499163Y-123242750D01*
X148495155Y-123229338D01*
X148661483Y-123229338D01*
X148661682Y-123229479D01*
X148693766Y-123237997D01*
X148738244Y-123247208D01*
X148786393Y-123255574D01*
X148829492Y-123261558D01*
X148855452Y-123263622D01*
X148888842Y-123261936D01*
X148934065Y-123256686D01*
X148981713Y-123248981D01*
X148984806Y-123248395D01*
X149024646Y-123240492D01*
X149055107Y-123233921D01*
X149070842Y-123229851D01*
X149071843Y-123229367D01*
X149062455Y-123228463D01*
X149034563Y-123227672D01*
X148991411Y-123227039D01*
X148936239Y-123226610D01*
X148872292Y-123226432D01*
X148863657Y-123226429D01*
X148799321Y-123226577D01*
X148743821Y-123226989D01*
X148700271Y-123227618D01*
X148671786Y-123228416D01*
X148661483Y-123229338D01*
X148495155Y-123229338D01*
X148494303Y-123226487D01*
X148483591Y-123221225D01*
X148478561Y-123220993D01*
X148461197Y-123228986D01*
X148457334Y-123250622D01*
X148135732Y-123250622D01*
X148146179Y-123235764D01*
X148149536Y-123231764D01*
G37*
G36*
X149228818Y-123291669D02*
G01*
X149223382Y-123297106D01*
X149217945Y-123291669D01*
X149223382Y-123286233D01*
X149228818Y-123291669D01*
G37*
G36*
X148489435Y-123280796D02*
G01*
X148483998Y-123286233D01*
X148478561Y-123280796D01*
X148483998Y-123275359D01*
X148489435Y-123280796D01*
G37*
G36*
X148963293Y-123345713D02*
G01*
X148962423Y-123351472D01*
X148953122Y-123361834D01*
X148951549Y-123362346D01*
X148942905Y-123354762D01*
X148940676Y-123351472D01*
X148943258Y-123342260D01*
X148951549Y-123340599D01*
X148963293Y-123345713D01*
G37*
G36*
X148696027Y-123346036D02*
G01*
X148690590Y-123351472D01*
X148685154Y-123346036D01*
X148690590Y-123340599D01*
X148696027Y-123346036D01*
G37*
G36*
X148594543Y-123278984D02*
G01*
X148593050Y-123285448D01*
X148587294Y-123286233D01*
X148578344Y-123282254D01*
X148580045Y-123278984D01*
X148592949Y-123277682D01*
X148594543Y-123278984D01*
G37*
G36*
X148457265Y-121845953D02*
G01*
X148481637Y-121873428D01*
X148488089Y-121894151D01*
X148477529Y-121912251D01*
X148472806Y-121916463D01*
X148458034Y-121923602D01*
X148441807Y-121916105D01*
X148431330Y-121906921D01*
X148399737Y-121888599D01*
X148372920Y-121883578D01*
X148347501Y-121887884D01*
X148328280Y-121904397D01*
X148316588Y-121922168D01*
X148289691Y-121954146D01*
X148256333Y-121976420D01*
X148256060Y-121976534D01*
X148229673Y-121987029D01*
X148211067Y-121990584D01*
X148190990Y-121987117D01*
X148160194Y-121976551D01*
X148157799Y-121975688D01*
X148130836Y-121966052D01*
X148114690Y-121960431D01*
X148112827Y-121959855D01*
X148107741Y-121950992D01*
X148096849Y-121929065D01*
X148092698Y-121920391D01*
X148079023Y-121895314D01*
X148064905Y-121885610D01*
X148041788Y-121886475D01*
X148034374Y-121887651D01*
X147995323Y-121892328D01*
X147957466Y-121894332D01*
X147920233Y-121894452D01*
X147945471Y-121921316D01*
X147961585Y-121941767D01*
X147962533Y-121956236D01*
X147956908Y-121964809D01*
X147941882Y-121978186D01*
X147926142Y-121978204D01*
X147904886Y-121963509D01*
X147884880Y-121944469D01*
X147856680Y-121908456D01*
X147848254Y-121877419D01*
X147859693Y-121852689D01*
X147877812Y-121840634D01*
X147900474Y-121835113D01*
X147943170Y-121830355D01*
X148006357Y-121826328D01*
X148090490Y-121823002D01*
X148166404Y-121820975D01*
X148425095Y-121815132D01*
X148457265Y-121845953D01*
G37*
G36*
X149062094Y-123409463D02*
G01*
X149060602Y-123415927D01*
X149054846Y-123416712D01*
X149045896Y-123412734D01*
X149047597Y-123409463D01*
X149060501Y-123408162D01*
X149062094Y-123409463D01*
G37*
D14*
%TO.C,C9*%
X159540000Y-109387836D02*
X159540000Y-109172164D01*
X158820000Y-109387836D02*
X158820000Y-109172164D01*
D15*
%TO.C,SW2*%
X160799000Y-106343000D02*
X160112000Y-106343000D01*
X162524000Y-108327000D02*
X162524000Y-110359000D01*
X163412000Y-106343000D02*
X163412000Y-112343000D01*
X160112000Y-112343000D02*
X160845000Y-112343000D01*
X163412000Y-106343000D02*
X162761000Y-106343000D01*
X162715000Y-112343000D02*
X163412000Y-112343000D01*
X160112000Y-112343000D02*
X160112000Y-106343000D01*
X162524000Y-110359000D02*
X161000000Y-110359000D01*
X161000000Y-110359000D02*
X161000000Y-108327000D01*
X161000000Y-108327000D02*
X162524000Y-108327000D01*
D14*
%TO.C,R2*%
X157880000Y-109146359D02*
X157880000Y-109453641D01*
X157120000Y-109146359D02*
X157120000Y-109453641D01*
%TO.C,D1*%
X165375000Y-102485000D02*
X165375000Y-100200000D01*
X163905000Y-102485000D02*
X165375000Y-102485000D01*
X163905000Y-100200000D02*
X163905000Y-102485000D01*
%TO.C,C2*%
X147466164Y-102283000D02*
X147681836Y-102283000D01*
X147466164Y-103003000D02*
X147681836Y-103003000D01*
%TO.C,C6*%
X154907836Y-112960000D02*
X154692164Y-112960000D01*
X154907836Y-113680000D02*
X154692164Y-113680000D01*
%TO.C,C11*%
X164267836Y-122810000D02*
X164052164Y-122810000D01*
X164267836Y-122090000D02*
X164052164Y-122090000D01*
%TO.C,Y1*%
X162600000Y-124980000D02*
X162600000Y-121680000D01*
X162600000Y-121680000D02*
X158600000Y-121680000D01*
%TO.C,C10*%
X164267836Y-124630000D02*
X164052164Y-124630000D01*
X164267836Y-123910000D02*
X164052164Y-123910000D01*
%TO.C,C1*%
X147392164Y-97515000D02*
X147607836Y-97515000D01*
X147392164Y-96795000D02*
X147607836Y-96795000D01*
D15*
%TO.C,SW1*%
X146432000Y-112363000D02*
X147165000Y-112363000D01*
X148844000Y-110379000D02*
X147320000Y-110379000D01*
X148844000Y-108347000D02*
X148844000Y-110379000D01*
X147320000Y-110379000D02*
X147320000Y-108347000D01*
X146432000Y-112363000D02*
X146432000Y-106363000D01*
X149732000Y-106363000D02*
X149732000Y-112363000D01*
X147119000Y-106363000D02*
X146432000Y-106363000D01*
X149732000Y-106363000D02*
X149081000Y-106363000D01*
X149035000Y-112363000D02*
X149732000Y-112363000D01*
X147320000Y-108347000D02*
X148844000Y-108347000D01*
%TO.C,U1*%
X145540000Y-100849000D02*
X145540000Y-99049000D01*
X147490000Y-100849000D02*
X146690000Y-100849000D01*
X148640000Y-100849000D02*
X148640000Y-99049000D01*
X148868000Y-98425000D02*
G75*
G03*
X148868000Y-98425000I-127000J0D01*
G01*
%TD*%
%LPC*%
D16*
%TO.C,R3*%
X165140000Y-99030000D03*
X164120000Y-99030000D03*
%TD*%
D17*
%TO.C,C5*%
X152300000Y-108820000D03*
X152300000Y-109780000D03*
%TD*%
D18*
%TO.C,F1*%
X162380000Y-101820000D03*
X162380000Y-99020000D03*
%TD*%
D19*
%TO.C,C4*%
X155350000Y-123700000D03*
X154390000Y-123700000D03*
%TD*%
D20*
%TO.C,U3*%
X155438614Y-121673488D03*
X155792168Y-121319935D03*
X156145721Y-120966381D03*
X156499275Y-120612828D03*
X156852828Y-120259275D03*
X157206381Y-119905721D03*
X157559935Y-119552168D03*
X157913488Y-119198614D03*
D21*
X157913488Y-118081386D03*
X157559935Y-117727832D03*
X157206381Y-117374279D03*
X156852828Y-117020725D03*
X156499275Y-116667172D03*
X156145721Y-116313619D03*
X155792168Y-115960065D03*
X155438614Y-115606512D03*
D22*
X154321386Y-115606512D03*
X153967832Y-115960065D03*
X153614279Y-116313619D03*
X153260725Y-116667172D03*
X152907172Y-117020725D03*
X152553619Y-117374279D03*
X152200065Y-117727832D03*
X151846512Y-118081386D03*
D23*
X151846512Y-119198614D03*
X152200065Y-119552168D03*
X152553619Y-119905721D03*
X152907172Y-120259275D03*
X153260725Y-120612828D03*
X153614279Y-120966381D03*
X153967832Y-121319935D03*
X154321386Y-121673488D03*
D24*
X154880000Y-118640000D03*
%TD*%
D25*
%TO.C,R1*%
X150600000Y-108790000D03*
X150600000Y-109810000D03*
%TD*%
D26*
%TO.C,J3*%
X151120000Y-129540000D03*
X153660000Y-129540000D03*
X156200000Y-129540000D03*
D27*
X158740000Y-129540000D03*
%TD*%
D19*
%TO.C,C8*%
X155280000Y-112110000D03*
X154320000Y-112110000D03*
%TD*%
%TO.C,C7*%
X159950000Y-120870000D03*
X158990000Y-120870000D03*
%TD*%
D28*
%TO.C,USB1*%
X152110000Y-101198000D03*
X157890000Y-101198000D03*
D29*
X159325000Y-101698000D03*
X150675000Y-101698000D03*
D30*
X159325000Y-97498000D03*
X150675000Y-97498000D03*
D31*
X158200000Y-102460000D03*
X157400000Y-102460000D03*
D32*
X156250000Y-102460000D03*
X155250000Y-102460000D03*
X154750000Y-102460000D03*
X153750000Y-102460000D03*
D31*
X151800000Y-102460000D03*
X152600000Y-102460000D03*
D32*
X153250000Y-102460000D03*
X154250000Y-102460000D03*
X155750000Y-102460000D03*
X156750000Y-102460000D03*
%TD*%
D33*
%TO.C,C9*%
X159180000Y-109760000D03*
X159180000Y-108800000D03*
%TD*%
D34*
%TO.C,SW2*%
X161780000Y-105780000D03*
X161780000Y-113180000D03*
%TD*%
D25*
%TO.C,R2*%
X157500000Y-108790000D03*
X157500000Y-109810000D03*
%TD*%
D35*
%TO.C,D1*%
X164640000Y-101787500D03*
X164640000Y-100212500D03*
%TD*%
D36*
%TO.C,C2*%
X147094000Y-102643000D03*
X148054000Y-102643000D03*
%TD*%
D19*
%TO.C,C6*%
X155280000Y-113320000D03*
X154320000Y-113320000D03*
%TD*%
%TO.C,C11*%
X164640000Y-122450000D03*
X163680000Y-122450000D03*
%TD*%
D37*
%TO.C,Y1*%
X161700000Y-122480000D03*
X159500000Y-122480000D03*
X159500000Y-124180000D03*
X161700000Y-124180000D03*
%TD*%
D19*
%TO.C,C10*%
X164640000Y-124270000D03*
X163680000Y-124270000D03*
%TD*%
D36*
%TO.C,C1*%
X147980000Y-97155000D03*
X147020000Y-97155000D03*
%TD*%
D34*
%TO.C,SW1*%
X148100000Y-105800000D03*
X148100000Y-113200000D03*
%TD*%
D38*
%TO.C,U1*%
X148040000Y-98649000D03*
X147090000Y-98649000D03*
X146140000Y-98649000D03*
X146140000Y-101249000D03*
X148040000Y-101249000D03*
%TD*%
D27*
%TO.C,J2*%
X170400000Y-96500000D03*
D26*
X170400000Y-99040000D03*
X170400000Y-101580000D03*
X170400000Y-104120000D03*
X170400000Y-106660000D03*
X170400000Y-109200000D03*
X170400000Y-111740000D03*
X170400000Y-114280000D03*
X170400000Y-116820000D03*
X170400000Y-119360000D03*
X170400000Y-121900000D03*
X170400000Y-124440000D03*
X170400000Y-126980000D03*
X170400000Y-129520000D03*
%TD*%
D27*
%TO.C,J1*%
X139500000Y-96500000D03*
D26*
X139500000Y-99040000D03*
X139500000Y-101580000D03*
X139500000Y-104120000D03*
X139500000Y-106660000D03*
X139500000Y-109200000D03*
X139500000Y-111740000D03*
X139500000Y-114280000D03*
X139500000Y-116820000D03*
X139500000Y-119360000D03*
X139500000Y-121900000D03*
X139500000Y-124440000D03*
X139500000Y-126980000D03*
X139500000Y-129520000D03*
%TD*%
M02*
