M48
; DRILL file {KiCad (6.0.10)} date Wed Jan 11 23:50:34 2023
; FORMAT={-:-/ absolute / metric / decimal}
; #@! TF.CreationDate,2023-01-11T23:50:34+08:00
; #@! TF.GenerationSoftware,Kicad,Pcbnew,(6.0.10)
; #@! TF.FileFunction,MixedPlating,1,2
FMAT,2
METRIC
; #@! TA.AperFunction,Plated,PTH,ViaDrill
T1C0.200
; #@! TA.AperFunction,Plated,PTH,ViaDrill
T2C0.300
; #@! TA.AperFunction,Plated,PTH,ViaDrill
T3C0.500
; #@! TA.AperFunction,Plated,PTH,ComponentDrill
T4C0.600
; #@! TA.AperFunction,Plated,PTH,ComponentDrill
T5C1.000
; #@! TA.AperFunction,Plated,PTH,ComponentDrill
T6C1.200
%
G90
G05
T1
X142.358Y-103.39
X142.93Y-100.5
X143.34Y-100.04
X143.82Y-99.61
X144.24Y-99.17
X144.69Y-98.74
X145.51Y-95.82
X145.51Y-96.58
X145.52Y-95.07
X146.15Y-102.349
X147.529Y-95.49
X151.43Y-95.49
X153.49Y-97.52
X155.78Y-104.39
X155.8Y-95.09
T2
X131.56Y-93.46
X132.96Y-95.13
X134.25Y-94.39
X135.07Y-99.9
X135.91Y-97.13
X135.92Y-102.5
X137.03Y-92.99
X139.42Y-93.73
X141.46Y-93.74
X141.47Y-95.26
X141.92Y-106.8
X145.37Y-104.19
X151.33Y-94.54
X154.63Y-105.099
X156.91Y-105.08
X163.52Y-101.87
X165.92Y-105.58
X166.89Y-93.37
T3
X139.85Y-103.59
X139.87Y-106.0
X143.7Y-93.6
X144.97Y-105.93
X145.12Y-93.6
X151.04Y-97.42
X161.93Y-99.68
X165.212Y-97.562
X168.26Y-108.03
T5
X130.09Y-95.97
X130.09Y-98.51
X130.09Y-101.05
X130.09Y-103.59
X132.96Y-108.5
X132.97Y-90.94
X135.5Y-108.5
X135.51Y-90.94
X138.04Y-108.5
X138.05Y-90.94
X140.58Y-108.5
X140.59Y-90.94
X143.12Y-108.5
X143.13Y-90.94
X145.66Y-108.5
X145.67Y-90.94
X148.2Y-108.5
X148.21Y-90.94
X150.74Y-108.5
X150.75Y-90.94
X153.28Y-108.5
X153.29Y-90.94
X155.82Y-108.5
X155.83Y-90.94
X158.36Y-108.5
X158.37Y-90.94
X160.9Y-108.5
X160.91Y-90.94
X163.44Y-108.5
X163.45Y-90.94
X165.98Y-108.5
X165.99Y-90.94
T6
X130.53Y-91.81
X130.56Y-107.62
X175.04Y-91.81
X175.04Y-107.63
T4
G00X170.86Y-95.41
M15
G01X171.66Y-95.41
M16
G05
G00X170.86Y-104.05
M15
G01X171.66Y-104.05
M16
G05
G00X174.66Y-95.41
M15
G01X175.46Y-95.41
M16
G05
G00X174.66Y-104.05
M15
G01X175.46Y-104.05
M16
G05
T0
M30
