%TF.GenerationSoftware,KiCad,Pcbnew,(6.0.8)*%
%TF.CreationDate,2022-10-17T00:11:56+08:00*%
%TF.ProjectId,UINIO-MCU-STM32L051K8,55494e49-4f2d-44d4-9355-2d53544d3332,rev?*%
%TF.SameCoordinates,Original*%
%TF.FileFunction,Copper,L1,Top*%
%TF.FilePolarity,Positive*%
%FSLAX46Y46*%
G04 Gerber Fmt 4.6, Leading zero omitted, Abs format (unit mm)*
G04 Created by KiCad (PCBNEW (6.0.8)) date 2022-10-17 00:11:56*
%MOMM*%
%LPD*%
G01*
G04 APERTURE LIST*
G04 Aperture macros list*
%AMRoundRect*
0 Rectangle with rounded corners*
0 $1 Rounding radius*
0 $2 $3 $4 $5 $6 $7 $8 $9 X,Y pos of 4 corners*
0 Add a 4 corners polygon primitive as box body*
4,1,4,$2,$3,$4,$5,$6,$7,$8,$9,$2,$3,0*
0 Add four circle primitives for the rounded corners*
1,1,$1+$1,$2,$3*
1,1,$1+$1,$4,$5*
1,1,$1+$1,$6,$7*
1,1,$1+$1,$8,$9*
0 Add four rect primitives between the rounded corners*
20,1,$1+$1,$2,$3,$4,$5,0*
20,1,$1+$1,$4,$5,$6,$7,0*
20,1,$1+$1,$6,$7,$8,$9,0*
20,1,$1+$1,$8,$9,$2,$3,0*%
%AMRotRect*
0 Rectangle, with rotation*
0 The origin of the aperture is its center*
0 $1 length*
0 $2 width*
0 $3 Rotation angle, in degrees counterclockwise*
0 Add horizontal line*
21,1,$1,$2,0,0,$3*%
G04 Aperture macros list end*
%TA.AperFunction,ComponentPad*%
%ADD10C,1.200000*%
%TD*%
%TA.AperFunction,SMDPad,CuDef*%
%ADD11RoundRect,0.135000X0.135000X0.185000X-0.135000X0.185000X-0.135000X-0.185000X0.135000X-0.185000X0*%
%TD*%
%TA.AperFunction,SMDPad,CuDef*%
%ADD12RoundRect,0.140000X0.140000X0.170000X-0.140000X0.170000X-0.140000X-0.170000X0.140000X-0.170000X0*%
%TD*%
%TA.AperFunction,SMDPad,CuDef*%
%ADD13RoundRect,0.250000X0.375000X0.625000X-0.375000X0.625000X-0.375000X-0.625000X0.375000X-0.625000X0*%
%TD*%
%TA.AperFunction,SMDPad,CuDef*%
%ADD14RoundRect,0.140000X-0.140000X-0.170000X0.140000X-0.170000X0.140000X0.170000X-0.140000X0.170000X0*%
%TD*%
%TA.AperFunction,SMDPad,CuDef*%
%ADD15RotRect,0.600000X0.300000X135.000000*%
%TD*%
%TA.AperFunction,SMDPad,CuDef*%
%ADD16RotRect,0.600000X0.300000X225.000000*%
%TD*%
%TA.AperFunction,SMDPad,CuDef*%
%ADD17RotRect,0.600000X0.300000X315.000000*%
%TD*%
%TA.AperFunction,SMDPad,CuDef*%
%ADD18RotRect,0.600000X0.300000X45.000000*%
%TD*%
%TA.AperFunction,SMDPad,CuDef*%
%ADD19RotRect,3.450000X3.450000X45.000000*%
%TD*%
%TA.AperFunction,SMDPad,CuDef*%
%ADD20RoundRect,0.135000X0.185000X-0.135000X0.185000X0.135000X-0.185000X0.135000X-0.185000X-0.135000X0*%
%TD*%
%TA.AperFunction,ComponentPad*%
%ADD21R,1.700000X1.700000*%
%TD*%
%TA.AperFunction,ComponentPad*%
%ADD22O,1.700000X1.700000*%
%TD*%
%TA.AperFunction,ComponentPad*%
%ADD23O,1.800000X1.000000*%
%TD*%
%TA.AperFunction,SMDPad,CuDef*%
%ADD24R,1.400000X0.700000*%
%TD*%
%TA.AperFunction,SMDPad,CuDef*%
%ADD25R,1.400000X0.800000*%
%TD*%
%TA.AperFunction,SMDPad,CuDef*%
%ADD26R,1.500000X1.500000*%
%TD*%
%TA.AperFunction,SMDPad,CuDef*%
%ADD27RoundRect,0.218750X-0.218750X-0.256250X0.218750X-0.256250X0.218750X0.256250X-0.218750X0.256250X0*%
%TD*%
%TA.AperFunction,SMDPad,CuDef*%
%ADD28RoundRect,0.140000X-0.170000X0.140000X-0.170000X-0.140000X0.170000X-0.140000X0.170000X0.140000X0*%
%TD*%
%TA.AperFunction,SMDPad,CuDef*%
%ADD29RoundRect,0.140000X0.170000X-0.140000X0.170000X0.140000X-0.170000X0.140000X-0.170000X-0.140000X0*%
%TD*%
%TA.AperFunction,SMDPad,CuDef*%
%ADD30R,1.800000X1.000000*%
%TD*%
%TA.AperFunction,SMDPad,CuDef*%
%ADD31R,1.000000X0.600000*%
%TD*%
%TA.AperFunction,ViaPad*%
%ADD32C,0.900000*%
%TD*%
%TA.AperFunction,ViaPad*%
%ADD33C,0.500000*%
%TD*%
%TA.AperFunction,ViaPad*%
%ADD34C,0.700000*%
%TD*%
%TA.AperFunction,Conductor*%
%ADD35C,0.300000*%
%TD*%
%TA.AperFunction,Conductor*%
%ADD36C,0.400000*%
%TD*%
%TA.AperFunction,Conductor*%
%ADD37C,0.200000*%
%TD*%
%TA.AperFunction,Conductor*%
%ADD38C,0.500000*%
%TD*%
G04 APERTURE END LIST*
D10*
%TO.P,Hole1,*%
%TO.N,*%
X130540000Y-91820000D03*
%TD*%
%TO.P,Hole2,*%
%TO.N,*%
X130560000Y-107620000D03*
%TD*%
%TO.P,Hole3,*%
%TO.N,*%
X174970000Y-107580000D03*
%TD*%
%TO.P,Hole4,*%
%TO.N,*%
X174950000Y-91800000D03*
%TD*%
D11*
%TO.P,R3,1*%
%TO.N,/VDD_3.3V*%
X163970000Y-100740000D03*
%TO.P,R3,2*%
%TO.N,/NRST*%
X162950000Y-100740000D03*
%TD*%
D12*
%TO.P,C5,1*%
%TO.N,GND*%
X156750000Y-98620000D03*
%TO.P,C5,2*%
%TO.N,/BOOT0*%
X155790000Y-98620000D03*
%TD*%
D13*
%TO.P,F1,1*%
%TO.N,Net-(F1-Pad1)*%
X171800000Y-106370000D03*
%TO.P,F1,2*%
%TO.N,/VDD_5V*%
X169000000Y-106370000D03*
%TD*%
D14*
%TO.P,C4,1*%
%TO.N,/VDD_3.3V*%
X143277147Y-95098606D03*
%TO.P,C4,2*%
%TO.N,GND*%
X144237147Y-95098606D03*
%TD*%
D15*
%TO.P,U3,1,VDD*%
%TO.N,/VDD_3.3V*%
X144315761Y-102704819D03*
%TO.P,U3,2,PC14-OSC_IN*%
%TO.N,Net-(C10-Pad2)*%
X144669315Y-102351266D03*
%TO.P,U3,3,PC15-OSC_OUT*%
%TO.N,Net-(C11-Pad2)*%
X145022868Y-101997712D03*
%TO.P,U3,4,NRST*%
%TO.N,/NRST*%
X145376422Y-101644159D03*
%TO.P,U3,5,VDDA*%
%TO.N,/VDD_3.3V*%
X145729975Y-101290606D03*
%TO.P,U3,6,PA0*%
%TO.N,/PA0*%
X146083528Y-100937052D03*
%TO.P,U3,7,PA1*%
%TO.N,/PA1*%
X146437082Y-100583499D03*
%TO.P,U3,8,PA2*%
%TO.N,/PA2*%
X146790635Y-100229945D03*
D16*
%TO.P,U3,9,PA3*%
%TO.N,/PA3*%
X146790635Y-99112717D03*
%TO.P,U3,10,PA4*%
%TO.N,/PA4{slash}CS*%
X146437082Y-98759163D03*
%TO.P,U3,11,PA5*%
%TO.N,/PA5{slash}SCLK*%
X146083528Y-98405610D03*
%TO.P,U3,12,PA6*%
%TO.N,/PA6{slash}MISO*%
X145729975Y-98052056D03*
%TO.P,U3,13,PA7*%
%TO.N,/PA7{slash}MOSI*%
X145376422Y-97698503D03*
%TO.P,U3,14,PB0*%
%TO.N,/PB0*%
X145022868Y-97344950D03*
%TO.P,U3,15,PB1*%
%TO.N,/PB1*%
X144669315Y-96991396D03*
%TO.P,U3,16,PB2*%
%TO.N,/PB2*%
X144315761Y-96637843D03*
D17*
%TO.P,U3,17,VDD*%
%TO.N,/VDD_3.3V*%
X143198533Y-96637843D03*
%TO.P,U3,18,PA8*%
%TO.N,/PA8*%
X142844979Y-96991396D03*
%TO.P,U3,19,PA9*%
%TO.N,/PA9*%
X142491426Y-97344950D03*
%TO.P,U3,20,PA10*%
%TO.N,/PA10*%
X142137872Y-97698503D03*
%TO.P,U3,21,PA11*%
%TO.N,/PA11*%
X141784319Y-98052056D03*
%TO.P,U3,22,PA12*%
%TO.N,/PA12*%
X141430766Y-98405610D03*
%TO.P,U3,23,PA13*%
%TO.N,/PA13{slash}SWDIO*%
X141077212Y-98759163D03*
%TO.P,U3,24,PA14*%
%TO.N,/PA14{slash}SWCLK*%
X140723659Y-99112717D03*
D18*
%TO.P,U3,25,PA15*%
%TO.N,/PA15*%
X140723659Y-100229945D03*
%TO.P,U3,26,PB3*%
%TO.N,/PB3*%
X141077212Y-100583499D03*
%TO.P,U3,27,PB4*%
%TO.N,/PB4*%
X141430766Y-100937052D03*
%TO.P,U3,28,PB5*%
%TO.N,/PB5*%
X141784319Y-101290606D03*
%TO.P,U3,29,PB6*%
%TO.N,/PB6*%
X142137872Y-101644159D03*
%TO.P,U3,30,PB7*%
%TO.N,/PB7*%
X142491426Y-101997712D03*
%TO.P,U3,31,BOOT0*%
%TO.N,/BOOT0*%
X142844979Y-102351266D03*
%TO.P,U3,32,PB8*%
%TO.N,/PB8*%
X143198533Y-102704819D03*
D19*
%TO.P,U3,33,PAD*%
%TO.N,GND*%
X143757147Y-99671331D03*
%TD*%
D20*
%TO.P,R1,1*%
%TO.N,Net-(D1-Pad2)*%
X172200000Y-109110000D03*
%TO.P,R1,2*%
%TO.N,/VDD_5V*%
X172200000Y-108090000D03*
%TD*%
D21*
%TO.P,J3,1,Pin_1*%
%TO.N,/PA13{slash}SWDIO*%
X130090000Y-95970000D03*
D22*
%TO.P,J3,2,Pin_2*%
%TO.N,GND*%
X130090000Y-98510000D03*
%TO.P,J3,3,Pin_3*%
%TO.N,/PA14{slash}SWCLK*%
X130090000Y-101050000D03*
%TO.P,J3,4,Pin_4*%
%TO.N,/VDD_3.3V*%
X130090000Y-103590000D03*
%TD*%
D12*
%TO.P,C8,1*%
%TO.N,GND*%
X149640000Y-99010000D03*
%TO.P,C8,2*%
%TO.N,/VDD_3.3V*%
X148680000Y-99010000D03*
%TD*%
D14*
%TO.P,C7,1*%
%TO.N,GND*%
X143287147Y-104358606D03*
%TO.P,C7,2*%
%TO.N,/VDD_3.3V*%
X144247147Y-104358606D03*
%TD*%
D23*
%TO.P,USB1,1,GND*%
%TO.N,GND*%
X170430000Y-104090000D03*
%TO.P,USB1,2,GND*%
X170430000Y-95450000D03*
%TO.P,USB1,3,GND*%
X174230000Y-104090000D03*
%TO.P,USB1,4,GND*%
X174230000Y-95450000D03*
D24*
%TO.P,USB1,A5,CC1*%
%TO.N,unconnected-(USB1-PadA5)*%
X169430000Y-100270000D03*
%TO.P,USB1,A9,VBUS*%
%TO.N,Net-(F1-Pad1)*%
X169430000Y-98250000D03*
D25*
%TO.P,USB1,A12,GND*%
%TO.N,GND*%
X169430000Y-97020000D03*
D24*
%TO.P,USB1,B5,CC2*%
%TO.N,unconnected-(USB1-PadB5)*%
X169430000Y-99270000D03*
%TO.P,USB1,B9,VBUS*%
%TO.N,Net-(F1-Pad1)*%
X169430000Y-101290000D03*
D25*
%TO.P,USB1,B12,GND*%
%TO.N,GND*%
X169430000Y-102520000D03*
%TD*%
D14*
%TO.P,C9,1*%
%TO.N,/NRST*%
X155780000Y-100750000D03*
%TO.P,C9,2*%
%TO.N,GND*%
X156740000Y-100750000D03*
%TD*%
D26*
%TO.P,SW2,1,1*%
%TO.N,GND*%
X163530000Y-103090000D03*
%TO.P,SW2,2,2*%
%TO.N,/NRST*%
X156130000Y-103090000D03*
%TD*%
D11*
%TO.P,R2,1*%
%TO.N,GND*%
X163980000Y-98660000D03*
%TO.P,R2,2*%
%TO.N,/BOOT0*%
X162960000Y-98660000D03*
%TD*%
D27*
%TO.P,D1,1,K*%
%TO.N,GND*%
X169457500Y-108620000D03*
%TO.P,D1,2,A*%
%TO.N,Net-(D1-Pad2)*%
X171032500Y-108620000D03*
%TD*%
D28*
%TO.P,C2,1,1*%
%TO.N,GND*%
X168380000Y-91890000D03*
%TO.P,C2,2,2*%
%TO.N,/VDD_3.3V*%
X168380000Y-92850000D03*
%TD*%
D12*
%TO.P,C6,1*%
%TO.N,GND*%
X149640000Y-100360000D03*
%TO.P,C6,2*%
%TO.N,/VDD_3.3V*%
X148680000Y-100360000D03*
%TD*%
D28*
%TO.P,C11,1*%
%TO.N,GND*%
X151130000Y-101680000D03*
%TO.P,C11,2*%
%TO.N,Net-(C11-Pad2)*%
X151130000Y-102640000D03*
%TD*%
D29*
%TO.P,C10,1*%
%TO.N,GND*%
X151130000Y-104520000D03*
%TO.P,C10,2*%
%TO.N,Net-(C10-Pad2)*%
X151130000Y-103560000D03*
%TD*%
D28*
%TO.P,C1,1,1*%
%TO.N,GND*%
X173330000Y-91890000D03*
%TO.P,C1,2,2*%
%TO.N,/VDD_5V*%
X173330000Y-92850000D03*
%TD*%
D30*
%TO.P,Y1,1,1*%
%TO.N,Net-(C11-Pad2)*%
X149140000Y-101870000D03*
%TO.P,Y1,2,GND*%
%TO.N,Net-(C10-Pad2)*%
X149140000Y-104370000D03*
%TD*%
D26*
%TO.P,SW1,1,1*%
%TO.N,/VDD_3.3V*%
X163550000Y-96330000D03*
%TO.P,SW1,2,2*%
%TO.N,/BOOT0*%
X156150000Y-96330000D03*
%TD*%
D31*
%TO.P,U1,1,Vin*%
%TO.N,/VDD_5V*%
X172158000Y-92836000D03*
%TO.P,U1,2,Vss*%
%TO.N,GND*%
X172158000Y-91886000D03*
%TO.P,U1,3,CE*%
%TO.N,/VDD_5V*%
X172158000Y-90936000D03*
%TO.P,U1,4,NC*%
%TO.N,unconnected-(U1-Pad4)*%
X169558000Y-90936000D03*
%TO.P,U1,5,Vout*%
%TO.N,/VDD_3.3V*%
X169558000Y-92836000D03*
%TD*%
D22*
%TO.P,J2,14,Pin_14*%
%TO.N,/PB0*%
X132960000Y-108500000D03*
%TO.P,J2,13,Pin_13*%
%TO.N,/PB1*%
X135500000Y-108500000D03*
%TO.P,J2,12,Pin_12*%
%TO.N,/PB2*%
X138040000Y-108500000D03*
%TO.P,J2,11,Pin_11*%
%TO.N,/PB3*%
X140580000Y-108500000D03*
%TO.P,J2,10,Pin_10*%
%TO.N,/PB4*%
X143120000Y-108500000D03*
%TO.P,J2,9,Pin_9*%
%TO.N,/PB5*%
X145660000Y-108500000D03*
%TO.P,J2,8,Pin_8*%
%TO.N,/PB6*%
X148200000Y-108500000D03*
%TO.P,J2,7,Pin_7*%
%TO.N,/PB7*%
X150740000Y-108500000D03*
%TO.P,J2,6,Pin_6*%
%TO.N,/PB8*%
X153280000Y-108500000D03*
%TO.P,J2,5,Pin_5*%
%TO.N,/NRST*%
X155820000Y-108500000D03*
%TO.P,J2,4,Pin_4*%
%TO.N,GND*%
X158360000Y-108500000D03*
%TO.P,J2,3,Pin_3*%
%TO.N,/VDD_3.3V*%
X160900000Y-108500000D03*
%TO.P,J2,2,Pin_2*%
%TO.N,GND*%
X163440000Y-108500000D03*
D21*
%TO.P,J2,1,Pin_1*%
%TO.N,/VDD_5V*%
X165980000Y-108500000D03*
%TD*%
D22*
%TO.P,J1,14,Pin_14*%
%TO.N,/PA15*%
X132970000Y-90940000D03*
%TO.P,J1,13,Pin_13*%
%TO.N,/PA12*%
X135510000Y-90940000D03*
%TO.P,J1,12,Pin_12*%
%TO.N,/PA11*%
X138050000Y-90940000D03*
%TO.P,J1,11,Pin_11*%
%TO.N,/PA10*%
X140590000Y-90940000D03*
%TO.P,J1,10,Pin_10*%
%TO.N,/PA9*%
X143130000Y-90940000D03*
%TO.P,J1,9,Pin_9*%
%TO.N,/PA8*%
X145670000Y-90940000D03*
%TO.P,J1,8,Pin_8*%
%TO.N,/PA7{slash}MOSI*%
X148210000Y-90940000D03*
%TO.P,J1,7,Pin_7*%
%TO.N,/PA6{slash}MISO*%
X150750000Y-90940000D03*
%TO.P,J1,6,Pin_6*%
%TO.N,/PA5{slash}SCLK*%
X153290000Y-90940000D03*
%TO.P,J1,5,Pin_5*%
%TO.N,/PA4{slash}CS*%
X155830000Y-90940000D03*
%TO.P,J1,4,Pin_4*%
%TO.N,/PA3*%
X158370000Y-90940000D03*
%TO.P,J1,3,Pin_3*%
%TO.N,/PA2*%
X160910000Y-90940000D03*
%TO.P,J1,2,Pin_2*%
%TO.N,/PA1*%
X163450000Y-90940000D03*
D21*
%TO.P,J1,1,Pin_1*%
%TO.N,/PA0*%
X165990000Y-90940000D03*
%TD*%
D32*
%TO.N,GND*%
X168260000Y-108030000D03*
D33*
X166890000Y-93370000D03*
X131800000Y-106090000D03*
D32*
X145120000Y-93600000D03*
D33*
X137030000Y-92990000D03*
D32*
X139240733Y-104220733D03*
D33*
X138690000Y-97320000D03*
D32*
X161930000Y-99680000D03*
D33*
X141460000Y-93740000D03*
D32*
X151040000Y-97420000D03*
D33*
X165920000Y-105580000D03*
X134250000Y-94390000D03*
X139420000Y-93730000D03*
X135010000Y-97730000D03*
X144240000Y-99170000D03*
X141920000Y-106800000D03*
X143820000Y-99610000D03*
X142930000Y-100500000D03*
X143340000Y-100040000D03*
D32*
X144970000Y-105930000D03*
D33*
X145370000Y-104190000D03*
X144690000Y-98740000D03*
D32*
X139870000Y-106000000D03*
D33*
X141470000Y-95260000D03*
%TO.N,/VDD_3.3V*%
X151330000Y-94540000D03*
D34*
X133800000Y-100160000D03*
X154630000Y-105099500D03*
X136200000Y-97740000D03*
D32*
X165212000Y-97562000D03*
X143780000Y-93600000D03*
D34*
X156910000Y-105080000D03*
X136210000Y-94540000D03*
D33*
%TO.N,/BOOT0*%
X142357647Y-103390000D03*
X155800000Y-95090000D03*
%TO.N,/NRST*%
X146150000Y-102349500D03*
X155780000Y-104390000D03*
%TO.N,/PA4{slash}CS*%
X153490000Y-97520000D03*
X151430000Y-95490000D03*
X147529500Y-95489977D03*
%TO.N,/PA13{slash}SWDIO*%
X139970000Y-97690000D03*
%TO.N,/PA14{slash}SWCLK*%
X138310000Y-98510000D03*
%TO.N,/PB0*%
X145510000Y-96580000D03*
%TO.N,/PB1*%
X145510000Y-95820000D03*
%TO.N,/PB2*%
X145520000Y-95070000D03*
%TD*%
D35*
%TO.N,/VDD_3.3V*%
X133800000Y-100180000D02*
X130390000Y-103590000D01*
X133800000Y-100160000D02*
X133800000Y-100180000D01*
D36*
%TO.N,GND*%
X133508000Y-98510000D02*
X130090000Y-98510000D01*
X139218733Y-104220733D02*
X133508000Y-98510000D01*
X139240733Y-104220733D02*
X139218733Y-104220733D01*
D37*
%TO.N,/PA5{slash}SCLK*%
X146560000Y-95804264D02*
X146560000Y-97929138D01*
X146560000Y-97929138D02*
X146083528Y-98405610D01*
X150334264Y-92030000D02*
X146560000Y-95804264D01*
X152200000Y-92030000D02*
X150334264Y-92030000D01*
X153290000Y-90940000D02*
X152200000Y-92030000D01*
D38*
%TO.N,GND*%
X168850000Y-108620000D02*
X169457500Y-108620000D01*
X168260000Y-108030000D02*
X168850000Y-108620000D01*
%TO.N,/VDD_5V*%
X165980000Y-107890000D02*
X165980000Y-108500000D01*
X167470000Y-106400000D02*
X165980000Y-107890000D01*
X168920000Y-106400000D02*
X167470000Y-106400000D01*
D37*
%TO.N,/PB8*%
X144780000Y-106680000D02*
X151460000Y-106680000D01*
X142807147Y-103096205D02*
X142807147Y-104707147D01*
X143198533Y-102704819D02*
X142807147Y-103096205D01*
%TO.N,/PB7*%
X141850000Y-102639138D02*
X142491426Y-101997712D01*
X141850000Y-104174264D02*
X141850000Y-102639138D01*
X144655736Y-106980000D02*
X141850000Y-104174264D01*
%TO.N,/PB6*%
X144531472Y-107280000D02*
X146980000Y-107280000D01*
X141550000Y-104298528D02*
X144531472Y-107280000D01*
X141550000Y-102232031D02*
X141550000Y-104298528D01*
X142137872Y-101644159D02*
X141550000Y-102232031D01*
%TO.N,/PB3*%
X140580000Y-101080711D02*
X141077212Y-100583499D01*
X140580000Y-108500000D02*
X140580000Y-101080711D01*
%TO.N,/PB7*%
X150740000Y-108500000D02*
X149220000Y-106980000D01*
X149220000Y-106980000D02*
X144655736Y-106980000D01*
%TO.N,/PB8*%
X151460000Y-106680000D02*
X153280000Y-108500000D01*
%TO.N,/PB6*%
X146980000Y-107280000D02*
X148200000Y-108500000D01*
%TO.N,/PB8*%
X142807147Y-104707147D02*
X144780000Y-106680000D01*
%TO.N,/PA15*%
X140213714Y-99720000D02*
X140723659Y-100229945D01*
X135910000Y-99720000D02*
X140213714Y-99720000D01*
X132990000Y-96800000D02*
X135910000Y-99720000D01*
X132990000Y-90960000D02*
X132990000Y-96800000D01*
%TO.N,/PA12*%
X135510000Y-92484844D02*
X141430766Y-98405610D01*
X135510000Y-90940000D02*
X135510000Y-92484844D01*
%TO.N,/PA11*%
X138070000Y-94337737D02*
X141784319Y-98052056D01*
X138070000Y-90960000D02*
X138070000Y-94337737D01*
%TO.N,/PA10*%
X140610000Y-96170631D02*
X140610000Y-90960000D01*
X142137872Y-97698503D02*
X140610000Y-96170631D01*
%TO.N,/PA9*%
X142260000Y-97113524D02*
X142491426Y-97344950D01*
X142260000Y-93020000D02*
X142260000Y-97113524D01*
X143130000Y-92150000D02*
X142260000Y-93020000D01*
X143130000Y-90940000D02*
X143130000Y-92150000D01*
%TO.N,/PA8*%
X142630000Y-96776417D02*
X142844979Y-96991396D01*
X142630000Y-93200000D02*
X142630000Y-96776417D01*
X144890000Y-90940000D02*
X142630000Y-93200000D01*
%TO.N,/PA7{slash}MOSI*%
X145960000Y-97114925D02*
X145376422Y-97698503D01*
X148210000Y-90940000D02*
X148210000Y-93305736D01*
X148210000Y-93305736D02*
X145960000Y-95555736D01*
%TO.N,/PA4{slash}CS*%
X147560023Y-95489977D02*
X150570000Y-92480000D01*
X147529500Y-95489977D02*
X147560023Y-95489977D01*
%TO.N,/PA3*%
X156530000Y-92780000D02*
X158370000Y-90940000D01*
X150980000Y-92780000D02*
X156530000Y-92780000D01*
X147160000Y-98743352D02*
X147160000Y-96600000D01*
%TO.N,/PA7{slash}MOSI*%
X145960000Y-95555736D02*
X145960000Y-97114925D01*
%TO.N,/PA3*%
X146790635Y-99112717D02*
X147160000Y-98743352D01*
%TO.N,/PA2*%
X151004264Y-93180000D02*
X158650000Y-93180000D01*
X147460000Y-96724264D02*
X151004264Y-93180000D01*
X147460000Y-99560580D02*
X147460000Y-96724264D01*
X146790635Y-100229945D02*
X147460000Y-99560580D01*
X158650000Y-93180000D02*
X160890000Y-90940000D01*
%TO.N,/PA1*%
X160870000Y-93500000D02*
X163430000Y-90940000D01*
X147760000Y-96848528D02*
X151108528Y-93500000D01*
X146880000Y-100920000D02*
X147760000Y-100040000D01*
%TO.N,/PA8*%
X145670000Y-90940000D02*
X144890000Y-90940000D01*
%TO.N,/PA1*%
X146773583Y-100920000D02*
X146880000Y-100920000D01*
X146437082Y-100583499D02*
X146773583Y-100920000D01*
%TO.N,/PA3*%
X147160000Y-96600000D02*
X150980000Y-92780000D01*
%TO.N,/PA4{slash}CS*%
X154290000Y-92480000D02*
X155830000Y-90940000D01*
X150570000Y-92480000D02*
X154290000Y-92480000D01*
%TO.N,/PA1*%
X151108528Y-93500000D02*
X160870000Y-93500000D01*
X147760000Y-100040000D02*
X147760000Y-96848528D01*
D35*
%TO.N,GND*%
X161930000Y-99680000D02*
X156830000Y-99680000D01*
X163980000Y-99200000D02*
X163500000Y-99680000D01*
D38*
X170430000Y-103520000D02*
X169430000Y-102520000D01*
D35*
X152410000Y-99680000D02*
X156830000Y-99680000D01*
D38*
X170430000Y-104090000D02*
X170430000Y-103520000D01*
D35*
X151040000Y-97420000D02*
X151850000Y-97420000D01*
X168780000Y-90050000D02*
X168380000Y-90450000D01*
X156750000Y-99700000D02*
X156750000Y-98620000D01*
X151040000Y-97420000D02*
X150280000Y-97420000D01*
D38*
X172950000Y-104110000D02*
X170450000Y-104110000D01*
D35*
X151130000Y-101680000D02*
X152400000Y-100410000D01*
X156830000Y-99680000D02*
X156780000Y-99730000D01*
X172908000Y-90468000D02*
X172490000Y-90050000D01*
X156780000Y-99730000D02*
X156750000Y-99760000D01*
X172490000Y-90050000D02*
X168780000Y-90050000D01*
X149640000Y-98060000D02*
X149640000Y-99010000D01*
X151130000Y-101680000D02*
X151990000Y-101680000D01*
X149640000Y-99010000D02*
X149640000Y-100360000D01*
X144850000Y-105930000D02*
X143287147Y-104367147D01*
X172508000Y-91886000D02*
X172908000Y-91486000D01*
X172908000Y-91486000D02*
X172908000Y-90468000D01*
D38*
X174210000Y-104110000D02*
X172950000Y-104110000D01*
D35*
X152290000Y-104170000D02*
X151950000Y-104510000D01*
X156780000Y-99730000D02*
X156750000Y-99700000D01*
X144237147Y-94332853D02*
X144237147Y-95098606D01*
X152400000Y-100410000D02*
X152400000Y-99690000D01*
D38*
X174230000Y-95450000D02*
X174230000Y-104090000D01*
D35*
X144970000Y-93600000D02*
X144237147Y-94332853D01*
X156750000Y-99760000D02*
X156750000Y-100740000D01*
X145120000Y-93600000D02*
X144970000Y-93600000D01*
X163500000Y-99680000D02*
X161930000Y-99680000D01*
X151950000Y-104510000D02*
X151140000Y-104510000D01*
D38*
X170430000Y-95450000D02*
X174230000Y-95450000D01*
D35*
X152400000Y-97970000D02*
X152400000Y-99690000D01*
X163980000Y-98660000D02*
X163980000Y-99200000D01*
X139240733Y-104220733D02*
X139870000Y-104850000D01*
X139870000Y-104850000D02*
X139870000Y-106000000D01*
X152290000Y-101980000D02*
X152290000Y-104170000D01*
X151850000Y-97420000D02*
X152400000Y-97970000D01*
X151990000Y-101680000D02*
X152290000Y-101980000D01*
D38*
X170430000Y-95450000D02*
X170430000Y-96020000D01*
X170430000Y-96020000D02*
X169430000Y-97020000D01*
D35*
X144970000Y-105930000D02*
X144850000Y-105930000D01*
X168380000Y-90450000D02*
X168380000Y-91890000D01*
X152400000Y-99690000D02*
X152410000Y-99680000D01*
X150280000Y-97420000D02*
X149640000Y-98060000D01*
X166890000Y-93370000D02*
X168370000Y-91890000D01*
D38*
%TO.N,/VDD_5V*%
X171286000Y-92836000D02*
X172158000Y-92836000D01*
X171760000Y-107650000D02*
X170680000Y-107650000D01*
X170940000Y-92850000D02*
X166500000Y-97290000D01*
X171054000Y-92604000D02*
X171286000Y-92836000D01*
X166500000Y-105130000D02*
X167390000Y-106020000D01*
X168550000Y-106020000D02*
X168900000Y-106370000D01*
X172158000Y-90936000D02*
X171254000Y-90936000D01*
X166500000Y-97290000D02*
X166500000Y-105130000D01*
X172158000Y-92836000D02*
X173316000Y-92836000D01*
X172144000Y-92850000D02*
X170940000Y-92850000D01*
X172200000Y-108090000D02*
X171760000Y-107650000D01*
X171254000Y-90936000D02*
X171054000Y-91136000D01*
X169400000Y-106370000D02*
X169000000Y-106370000D01*
X170680000Y-107650000D02*
X169400000Y-106370000D01*
X171054000Y-91136000D02*
X171054000Y-92604000D01*
X167390000Y-106020000D02*
X168550000Y-106020000D01*
%TO.N,/VDD_3.3V*%
X168380000Y-92850000D02*
X168380000Y-93264000D01*
D36*
X165088000Y-100740000D02*
X165212000Y-100864000D01*
D38*
X165212000Y-97562000D02*
X165212000Y-96432000D01*
D35*
X145010000Y-105130000D02*
X144247147Y-104367147D01*
X147320000Y-101740000D02*
X146179369Y-101740000D01*
D38*
X168380000Y-93264000D02*
X167302000Y-94342000D01*
D36*
X163970000Y-100740000D02*
X165088000Y-100740000D01*
D35*
X166990000Y-94540000D02*
X167047000Y-94597000D01*
X169558000Y-92836000D02*
X168394000Y-92836000D01*
D38*
X164675000Y-104865000D02*
X160930000Y-108610000D01*
X165212000Y-96432000D02*
X165110000Y-96330000D01*
D35*
X136210000Y-97730000D02*
X136210000Y-94540000D01*
D38*
X165212000Y-100864000D02*
X165212000Y-104328000D01*
D35*
X143277147Y-95098606D02*
X143277147Y-96559229D01*
D38*
X167302000Y-94342000D02*
X167047000Y-94597000D01*
D35*
X146179369Y-101740000D02*
X145729975Y-101290606D01*
X167174000Y-94470000D02*
X167302000Y-94342000D01*
X154599500Y-105130000D02*
X145010000Y-105130000D01*
X136200000Y-97740000D02*
X136210000Y-97730000D01*
X144315761Y-102704819D02*
X144240000Y-102780580D01*
X144240000Y-102780580D02*
X144240000Y-104214231D01*
X164430000Y-105110000D02*
X164675000Y-104865000D01*
X148610000Y-100450000D02*
X147320000Y-101740000D01*
X154630000Y-105099500D02*
X154599500Y-105130000D01*
X151330000Y-94540000D02*
X151310000Y-94540000D01*
X143277147Y-94102853D02*
X143277147Y-95098606D01*
X143780000Y-93600000D02*
X143277147Y-94102853D01*
D38*
X165110000Y-96330000D02*
X163550000Y-96330000D01*
X165212000Y-104328000D02*
X164675000Y-104865000D01*
D35*
X156910000Y-105080000D02*
X156940000Y-105110000D01*
X148680000Y-99010000D02*
X148680000Y-100360000D01*
X148680000Y-97170000D02*
X148680000Y-99010000D01*
X143277147Y-96559229D02*
X143198533Y-96637843D01*
D38*
X165212000Y-97562000D02*
X165212000Y-100864000D01*
D35*
X151330000Y-94540000D02*
X166990000Y-94540000D01*
D38*
X167047000Y-94597000D02*
X165212000Y-96432000D01*
D35*
X151310000Y-94540000D02*
X148680000Y-97170000D01*
X156940000Y-105110000D02*
X164430000Y-105110000D01*
%TO.N,/BOOT0*%
X155790000Y-95100000D02*
X155790000Y-95970000D01*
X162960000Y-98104000D02*
X162960000Y-98660000D01*
X155800000Y-95090000D02*
X155790000Y-95100000D01*
X156150000Y-96330000D02*
X161186000Y-96330000D01*
X155790000Y-98620000D02*
X155790000Y-96690000D01*
D37*
X142357647Y-103390000D02*
X142357647Y-102838598D01*
D35*
X161186000Y-96330000D02*
X162960000Y-98104000D01*
D37*
X142357647Y-102838598D02*
X142844979Y-102351266D01*
%TO.N,/NRST*%
X146150000Y-102349500D02*
X146081763Y-102349500D01*
D35*
X155780000Y-104390000D02*
X155780000Y-103440000D01*
X162950000Y-100740000D02*
X160600000Y-103090000D01*
X155780000Y-104390000D02*
X155780000Y-108570000D01*
X160600000Y-103090000D02*
X156130000Y-103090000D01*
D37*
X146081763Y-102349500D02*
X145376422Y-101644159D01*
D35*
X155780000Y-100750000D02*
X155780000Y-102740000D01*
%TO.N,Net-(C10-Pad2)*%
X149140000Y-104370000D02*
X150320000Y-104370000D01*
X144669315Y-102351266D02*
X145708049Y-103390000D01*
X150320000Y-104370000D02*
X151130000Y-103560000D01*
X145708049Y-103390000D02*
X148160000Y-103390000D01*
X148160000Y-103390000D02*
X149140000Y-104370000D01*
%TO.N,Net-(C11-Pad2)*%
X145022868Y-101997712D02*
X145935156Y-102910000D01*
X145935156Y-102910000D02*
X148100000Y-102910000D01*
X148100000Y-102910000D02*
X149140000Y-101870000D01*
X149140000Y-101870000D02*
X150360000Y-101870000D01*
X150360000Y-101870000D02*
X151130000Y-102640000D01*
D38*
%TO.N,Net-(D1-Pad2)*%
X172200000Y-109110000D02*
X171522500Y-109110000D01*
X171522500Y-109110000D02*
X171032500Y-108620000D01*
D37*
%TO.N,/PA0*%
X146486476Y-101340000D02*
X146083528Y-100937052D01*
X166010000Y-91080000D02*
X163180000Y-93910000D01*
X148060000Y-96972792D02*
X148060000Y-100164264D01*
X151122792Y-93910000D02*
X148060000Y-96972792D01*
X146884264Y-101340000D02*
X146486476Y-101340000D01*
X148060000Y-100164264D02*
X146884264Y-101340000D01*
X163180000Y-93910000D02*
X151122792Y-93910000D01*
%TO.N,/PA4{slash}CS*%
X147529500Y-95489977D02*
X146860000Y-96159477D01*
X153490000Y-97520000D02*
X153460000Y-97520000D01*
X146860000Y-96159477D02*
X146860000Y-98336245D01*
X153460000Y-97520000D02*
X151430000Y-95490000D01*
X146860000Y-98336245D02*
X146437082Y-98759163D01*
%TO.N,/PA6{slash}MISO*%
X145729975Y-98052056D02*
X146260000Y-97522031D01*
X146260000Y-97522031D02*
X146260000Y-95680000D01*
X146260000Y-95680000D02*
X150770000Y-91170000D01*
%TO.N,/PA13{slash}SWDIO*%
X140008049Y-97690000D02*
X141077212Y-98759163D01*
X139970000Y-97690000D02*
X140008049Y-97690000D01*
%TO.N,/PA14{slash}SWCLK*%
X138310000Y-98510000D02*
X140100000Y-98510000D01*
X140100000Y-98510000D02*
X140702717Y-99112717D01*
%TO.N,/PB0*%
X145510000Y-96580000D02*
X145510000Y-96857818D01*
X145510000Y-96857818D02*
X145022868Y-97344950D01*
%TO.N,/PB1*%
X144960000Y-96130000D02*
X144960000Y-96700711D01*
X145510000Y-95820000D02*
X145270000Y-95820000D01*
X145270000Y-95820000D02*
X144960000Y-96130000D01*
X144960000Y-96700711D02*
X144669315Y-96991396D01*
%TO.N,/PB2*%
X145405736Y-95070000D02*
X144315761Y-96159975D01*
X144315761Y-96159975D02*
X144315761Y-96637843D01*
X145520000Y-95070000D02*
X145405736Y-95070000D01*
%TO.N,/PB4*%
X141430766Y-100937052D02*
X140910000Y-101457818D01*
X140910000Y-101457818D02*
X140910000Y-104507056D01*
X143120000Y-106717056D02*
X143120000Y-108310000D01*
X140910000Y-104507056D02*
X143120000Y-106717056D01*
%TO.N,/PB5*%
X141210000Y-104382792D02*
X141210000Y-101864925D01*
X141210000Y-101864925D02*
X141784319Y-101290606D01*
X145437208Y-108610000D02*
X141210000Y-104382792D01*
D38*
%TO.N,Net-(F1-Pad1)*%
X167850000Y-101400000D02*
X167840000Y-101390000D01*
X171370000Y-106370000D02*
X171800000Y-106370000D01*
X168260000Y-98250000D02*
X169430000Y-98250000D01*
X170110000Y-105110000D02*
X171370000Y-106370000D01*
X167960000Y-101290000D02*
X167850000Y-101400000D01*
X167840000Y-101390000D02*
X167840000Y-98670000D01*
X167840000Y-104740000D02*
X168210000Y-105110000D01*
X168210000Y-105110000D02*
X170110000Y-105110000D01*
X167840000Y-101240000D02*
X167840000Y-104740000D01*
X167840000Y-98670000D02*
X168260000Y-98250000D01*
X169430000Y-101290000D02*
X167960000Y-101290000D01*
%TD*%
%TA.AperFunction,Conductor*%
%TO.N,GND*%
G36*
X176249916Y-91552702D02*
G01*
X176292638Y-91606300D01*
X176337798Y-91713865D01*
X176342663Y-91727644D01*
X176423650Y-92007838D01*
X176423884Y-92008649D01*
X176427123Y-92022908D01*
X176473625Y-92301753D01*
X176475241Y-92311445D01*
X176476805Y-92325980D01*
X176482098Y-92433647D01*
X176489447Y-92583143D01*
X176487921Y-92609822D01*
X176486386Y-92619133D01*
X176487471Y-92628050D01*
X176490577Y-92653577D01*
X176491500Y-92668796D01*
X176491500Y-106584617D01*
X176490233Y-106602439D01*
X176486271Y-106630168D01*
X176487546Y-106639050D01*
X176487546Y-106639056D01*
X176488839Y-106648061D01*
X176489997Y-106671495D01*
X176481223Y-106871175D01*
X176477980Y-106944965D01*
X176476556Y-106959106D01*
X176442382Y-107175216D01*
X176429422Y-107257173D01*
X176426412Y-107271069D01*
X176422815Y-107284080D01*
X176345996Y-107561921D01*
X176341442Y-107575385D01*
X176325547Y-107614875D01*
X176281558Y-107670598D01*
X176214424Y-107693694D01*
X176145459Y-107676828D01*
X176096561Y-107625355D01*
X176083190Y-107579355D01*
X176065137Y-107382880D01*
X176065136Y-107382877D01*
X176064608Y-107377126D01*
X176060471Y-107362457D01*
X176010875Y-107186606D01*
X176010874Y-107186604D01*
X176009307Y-107181047D01*
X176006603Y-107175562D01*
X175921756Y-107003510D01*
X175919201Y-106998329D01*
X175900796Y-106973681D01*
X175800758Y-106839715D01*
X175800758Y-106839714D01*
X175797305Y-106835091D01*
X175676233Y-106723173D01*
X175651943Y-106700719D01*
X175651940Y-106700717D01*
X175647703Y-106696800D01*
X175543684Y-106631169D01*
X175480288Y-106591169D01*
X175480283Y-106591167D01*
X175475404Y-106588088D01*
X175286180Y-106512595D01*
X175086366Y-106472849D01*
X175080592Y-106472773D01*
X175080588Y-106472773D01*
X174977452Y-106471424D01*
X174882655Y-106470183D01*
X174876958Y-106471162D01*
X174876957Y-106471162D01*
X174687567Y-106503705D01*
X174681870Y-106504684D01*
X174490734Y-106575198D01*
X174485773Y-106578150D01*
X174485772Y-106578150D01*
X174328871Y-106671497D01*
X174315649Y-106679363D01*
X174162478Y-106813690D01*
X174158911Y-106818215D01*
X174158906Y-106818220D01*
X174133944Y-106849885D01*
X174036351Y-106973681D01*
X173941492Y-107153978D01*
X173881078Y-107348543D01*
X173857132Y-107550859D01*
X173870457Y-107754151D01*
X173920605Y-107951610D01*
X174005898Y-108136624D01*
X174123479Y-108302997D01*
X174269410Y-108445157D01*
X174274206Y-108448362D01*
X174274209Y-108448364D01*
X174405158Y-108535861D01*
X174438803Y-108558342D01*
X174444106Y-108560620D01*
X174444109Y-108560622D01*
X174615320Y-108634180D01*
X174625987Y-108638763D01*
X174698817Y-108655243D01*
X174819055Y-108682450D01*
X174819060Y-108682451D01*
X174824692Y-108683725D01*
X174830463Y-108683952D01*
X174830465Y-108683952D01*
X174893470Y-108686427D01*
X175028263Y-108691723D01*
X175229883Y-108662490D01*
X175242003Y-108658376D01*
X175275491Y-108647008D01*
X175338944Y-108625469D01*
X175409878Y-108622513D01*
X175471150Y-108658376D01*
X175503307Y-108721673D01*
X175496138Y-108792307D01*
X175464076Y-108838128D01*
X175457649Y-108843955D01*
X175446591Y-108852897D01*
X175201622Y-109029098D01*
X175189628Y-109036737D01*
X174926355Y-109184220D01*
X174913577Y-109190458D01*
X174885920Y-109202077D01*
X174635368Y-109307336D01*
X174621983Y-109312090D01*
X174332354Y-109396881D01*
X174318511Y-109400097D01*
X174021191Y-109451711D01*
X174007081Y-109453347D01*
X173741331Y-109469036D01*
X173714830Y-109467802D01*
X173713863Y-109467654D01*
X173713860Y-109467654D01*
X173704987Y-109466295D01*
X173696091Y-109467481D01*
X173696090Y-109467481D01*
X173689145Y-109468407D01*
X173674231Y-109470395D01*
X173657583Y-109471500D01*
X173152095Y-109471500D01*
X173083974Y-109451498D01*
X173037481Y-109397842D01*
X173026484Y-109335612D01*
X173028306Y-109312467D01*
X173028307Y-109312441D01*
X173028500Y-109309989D01*
X173028499Y-108910012D01*
X173025629Y-108873534D01*
X172980269Y-108717404D01*
X172976233Y-108710579D01*
X172976231Y-108710575D01*
X172948769Y-108664139D01*
X172931309Y-108595323D01*
X172948769Y-108535861D01*
X172976231Y-108489425D01*
X172976233Y-108489421D01*
X172980269Y-108482596D01*
X172990215Y-108448364D01*
X173023835Y-108332641D01*
X173025629Y-108326466D01*
X173026242Y-108318685D01*
X173028307Y-108292444D01*
X173028307Y-108292438D01*
X173028500Y-108289989D01*
X173028499Y-107890012D01*
X173025629Y-107853534D01*
X172980269Y-107697404D01*
X172968101Y-107676828D01*
X172901540Y-107564280D01*
X172897506Y-107557459D01*
X172857715Y-107517668D01*
X172823689Y-107455356D01*
X172828754Y-107384541D01*
X172839550Y-107362457D01*
X172863275Y-107323968D01*
X172863276Y-107323966D01*
X172867115Y-107317738D01*
X172902583Y-107210804D01*
X172920632Y-107156389D01*
X172920632Y-107156387D01*
X172922797Y-107149861D01*
X172923518Y-107142831D01*
X172933172Y-107048598D01*
X172933500Y-107045400D01*
X172933500Y-105694600D01*
X172931272Y-105673128D01*
X172923238Y-105595692D01*
X172923237Y-105595688D01*
X172922526Y-105588834D01*
X172866550Y-105421054D01*
X172773478Y-105270652D01*
X172648303Y-105145695D01*
X172642072Y-105141854D01*
X172503968Y-105056725D01*
X172503966Y-105056724D01*
X172497738Y-105052885D01*
X172407137Y-105022834D01*
X172336389Y-104999368D01*
X172336387Y-104999368D01*
X172329861Y-104997203D01*
X172323025Y-104996503D01*
X172323022Y-104996502D01*
X172279969Y-104992091D01*
X172225400Y-104986500D01*
X171664389Y-104986500D01*
X171596268Y-104966498D01*
X171549775Y-104912842D01*
X171539671Y-104842568D01*
X171567304Y-104780184D01*
X171665787Y-104661138D01*
X171672644Y-104650973D01*
X171760804Y-104487924D01*
X171765556Y-104476619D01*
X171801250Y-104361308D01*
X171801331Y-104355768D01*
X172857425Y-104355768D01*
X172889138Y-104463521D01*
X172893731Y-104474889D01*
X172979607Y-104639154D01*
X172986321Y-104649415D01*
X173102468Y-104793873D01*
X173111046Y-104802632D01*
X173253039Y-104921778D01*
X173263159Y-104928708D01*
X173425585Y-105018002D01*
X173436858Y-105022834D01*
X173613538Y-105078880D01*
X173625532Y-105081430D01*
X173769761Y-105097607D01*
X173776785Y-105098000D01*
X173957885Y-105098000D01*
X173973124Y-105093525D01*
X173974329Y-105092135D01*
X173976000Y-105084452D01*
X173976000Y-105079885D01*
X174484000Y-105079885D01*
X174488475Y-105095124D01*
X174489865Y-105096329D01*
X174497548Y-105098000D01*
X174676657Y-105098000D01*
X174682805Y-105097699D01*
X174820603Y-105084188D01*
X174832638Y-105081805D01*
X175010076Y-105028233D01*
X175021416Y-105023559D01*
X175185077Y-104936540D01*
X175195294Y-104929751D01*
X175338933Y-104812603D01*
X175347637Y-104803959D01*
X175465784Y-104661144D01*
X175472644Y-104650973D01*
X175560804Y-104487924D01*
X175565556Y-104476619D01*
X175601250Y-104361308D01*
X175601456Y-104347205D01*
X175594701Y-104344000D01*
X174502115Y-104344000D01*
X174486876Y-104348475D01*
X174485671Y-104349865D01*
X174484000Y-104357548D01*
X174484000Y-105079885D01*
X173976000Y-105079885D01*
X173976000Y-104362115D01*
X173971525Y-104346876D01*
X173970135Y-104345671D01*
X173962452Y-104344000D01*
X172872076Y-104344000D01*
X172858545Y-104347973D01*
X172857425Y-104355768D01*
X171801331Y-104355768D01*
X171801456Y-104347205D01*
X171794701Y-104344000D01*
X169072076Y-104344000D01*
X169063916Y-104346396D01*
X169028418Y-104351500D01*
X168724500Y-104351500D01*
X168656379Y-104331498D01*
X168609886Y-104277842D01*
X168598500Y-104225500D01*
X168598500Y-103554000D01*
X168618502Y-103485879D01*
X168672158Y-103439386D01*
X168724500Y-103428000D01*
X169030613Y-103428000D01*
X169098734Y-103448002D01*
X169145227Y-103501658D01*
X169155331Y-103571932D01*
X169141449Y-103613928D01*
X169099198Y-103692071D01*
X169094444Y-103703381D01*
X169058750Y-103818692D01*
X169058544Y-103832795D01*
X169065299Y-103836000D01*
X171787924Y-103836000D01*
X171798839Y-103832795D01*
X172858544Y-103832795D01*
X172865299Y-103836000D01*
X173957885Y-103836000D01*
X173973124Y-103831525D01*
X173974329Y-103830135D01*
X173976000Y-103822452D01*
X173976000Y-103817885D01*
X174484000Y-103817885D01*
X174488475Y-103833124D01*
X174489865Y-103834329D01*
X174497548Y-103836000D01*
X175587924Y-103836000D01*
X175601455Y-103832027D01*
X175602575Y-103824232D01*
X175570862Y-103716479D01*
X175566269Y-103705111D01*
X175480393Y-103540846D01*
X175473679Y-103530585D01*
X175357532Y-103386127D01*
X175348954Y-103377368D01*
X175206961Y-103258222D01*
X175196841Y-103251292D01*
X175034415Y-103161998D01*
X175023142Y-103157166D01*
X174846462Y-103101120D01*
X174834468Y-103098570D01*
X174690239Y-103082393D01*
X174683215Y-103082000D01*
X174502115Y-103082000D01*
X174486876Y-103086475D01*
X174485671Y-103087865D01*
X174484000Y-103095548D01*
X174484000Y-103817885D01*
X173976000Y-103817885D01*
X173976000Y-103100115D01*
X173971525Y-103084876D01*
X173970135Y-103083671D01*
X173962452Y-103082000D01*
X173783343Y-103082000D01*
X173777195Y-103082301D01*
X173639397Y-103095812D01*
X173627362Y-103098195D01*
X173449924Y-103151767D01*
X173438584Y-103156441D01*
X173274923Y-103243460D01*
X173264706Y-103250249D01*
X173121067Y-103367397D01*
X173112363Y-103376041D01*
X172994216Y-103518856D01*
X172987356Y-103529027D01*
X172899196Y-103692076D01*
X172894444Y-103703381D01*
X172858750Y-103818692D01*
X172858544Y-103832795D01*
X171798839Y-103832795D01*
X171801455Y-103832027D01*
X171802575Y-103824232D01*
X171770862Y-103716479D01*
X171766269Y-103705111D01*
X171680393Y-103540846D01*
X171673679Y-103530585D01*
X171557532Y-103386127D01*
X171548954Y-103377368D01*
X171406961Y-103258222D01*
X171396841Y-103251292D01*
X171234415Y-103161998D01*
X171223142Y-103157166D01*
X171046462Y-103101120D01*
X171034468Y-103098570D01*
X170890239Y-103082393D01*
X170883215Y-103082000D01*
X170764000Y-103082000D01*
X170695879Y-103061998D01*
X170649386Y-103008342D01*
X170638000Y-102956000D01*
X170638000Y-102792115D01*
X170633525Y-102776876D01*
X170632135Y-102775671D01*
X170624452Y-102774000D01*
X169302000Y-102774000D01*
X169233879Y-102753998D01*
X169187386Y-102700342D01*
X169176000Y-102648000D01*
X169176000Y-102392000D01*
X169196002Y-102323879D01*
X169249658Y-102277386D01*
X169302000Y-102266000D01*
X170619884Y-102266000D01*
X170635123Y-102261525D01*
X170636328Y-102260135D01*
X170637999Y-102252452D01*
X170637999Y-102075331D01*
X170637629Y-102068510D01*
X170632105Y-102017650D01*
X170628478Y-102002393D01*
X170599443Y-101924941D01*
X170594260Y-101854134D01*
X170599443Y-101836483D01*
X170628973Y-101757711D01*
X170628973Y-101757709D01*
X170631745Y-101750316D01*
X170636614Y-101705500D01*
X170638131Y-101691531D01*
X170638500Y-101688134D01*
X170638500Y-100891866D01*
X170631745Y-100829684D01*
X170628971Y-100822284D01*
X170627144Y-100814600D01*
X170628965Y-100814167D01*
X170624515Y-100753430D01*
X170628297Y-100740552D01*
X170628972Y-100737713D01*
X170631745Y-100730316D01*
X170638500Y-100668134D01*
X170638500Y-99871866D01*
X170631745Y-99809684D01*
X170628971Y-99802285D01*
X170628225Y-99799146D01*
X170628225Y-99740854D01*
X170628971Y-99737715D01*
X170631745Y-99730316D01*
X170638500Y-99668134D01*
X170638500Y-98871866D01*
X170631745Y-98809684D01*
X170628971Y-98802284D01*
X170627144Y-98794600D01*
X170628965Y-98794167D01*
X170624515Y-98733430D01*
X170628297Y-98720552D01*
X170628972Y-98717713D01*
X170631745Y-98710316D01*
X170638500Y-98648134D01*
X170638500Y-97851866D01*
X170631745Y-97789684D01*
X170626819Y-97776544D01*
X170599443Y-97703517D01*
X170594260Y-97632710D01*
X170599443Y-97615059D01*
X170628480Y-97537602D01*
X170632105Y-97522357D01*
X170637631Y-97471486D01*
X170638000Y-97464672D01*
X170638000Y-97292115D01*
X170633525Y-97276876D01*
X170632135Y-97275671D01*
X170624452Y-97274000D01*
X168240116Y-97274000D01*
X168224877Y-97278475D01*
X168223672Y-97279865D01*
X168222001Y-97287548D01*
X168222001Y-97376384D01*
X168201999Y-97444505D01*
X168148343Y-97490998D01*
X168120690Y-97499941D01*
X168117659Y-97500547D01*
X168110364Y-97501140D01*
X168103404Y-97503395D01*
X168097468Y-97504581D01*
X168091589Y-97505971D01*
X168084319Y-97506818D01*
X168015670Y-97531736D01*
X168011542Y-97533153D01*
X167949064Y-97553393D01*
X167949062Y-97553394D01*
X167942101Y-97555649D01*
X167935846Y-97559445D01*
X167930372Y-97561951D01*
X167924942Y-97564670D01*
X167918063Y-97567167D01*
X167911943Y-97571180D01*
X167911942Y-97571180D01*
X167857024Y-97607186D01*
X167853320Y-97609523D01*
X167790893Y-97647405D01*
X167782516Y-97654803D01*
X167782492Y-97654776D01*
X167779500Y-97657429D01*
X167776267Y-97660132D01*
X167770148Y-97664144D01*
X167765116Y-97669456D01*
X167716872Y-97720383D01*
X167714494Y-97722825D01*
X167473595Y-97963724D01*
X167411283Y-97997750D01*
X167340468Y-97992685D01*
X167283632Y-97950138D01*
X167258821Y-97883618D01*
X167258500Y-97874629D01*
X167258500Y-97656371D01*
X167278502Y-97588250D01*
X167295405Y-97567276D01*
X168075526Y-96787155D01*
X168137838Y-96753129D01*
X168208653Y-96758194D01*
X168213857Y-96761282D01*
X168235548Y-96766000D01*
X170619884Y-96766000D01*
X170635123Y-96761525D01*
X170636328Y-96760135D01*
X170637999Y-96752452D01*
X170637999Y-96584000D01*
X170658001Y-96515879D01*
X170711657Y-96469386D01*
X170763999Y-96458000D01*
X170876657Y-96458000D01*
X170882805Y-96457699D01*
X171020603Y-96444188D01*
X171032638Y-96441805D01*
X171210076Y-96388233D01*
X171221416Y-96383559D01*
X171385077Y-96296540D01*
X171395294Y-96289751D01*
X171538933Y-96172603D01*
X171547637Y-96163959D01*
X171665784Y-96021144D01*
X171672644Y-96010973D01*
X171760804Y-95847924D01*
X171765556Y-95836619D01*
X171801250Y-95721308D01*
X171801331Y-95715768D01*
X172857425Y-95715768D01*
X172889138Y-95823521D01*
X172893731Y-95834889D01*
X172979607Y-95999154D01*
X172986321Y-96009415D01*
X173102468Y-96153873D01*
X173111046Y-96162632D01*
X173253039Y-96281778D01*
X173263159Y-96288708D01*
X173425585Y-96378002D01*
X173436858Y-96382834D01*
X173613538Y-96438880D01*
X173625532Y-96441430D01*
X173769761Y-96457607D01*
X173776785Y-96458000D01*
X173957885Y-96458000D01*
X173973124Y-96453525D01*
X173974329Y-96452135D01*
X173976000Y-96444452D01*
X173976000Y-96439885D01*
X174484000Y-96439885D01*
X174488475Y-96455124D01*
X174489865Y-96456329D01*
X174497548Y-96458000D01*
X174676657Y-96458000D01*
X174682805Y-96457699D01*
X174820603Y-96444188D01*
X174832638Y-96441805D01*
X175010076Y-96388233D01*
X175021416Y-96383559D01*
X175185077Y-96296540D01*
X175195294Y-96289751D01*
X175338933Y-96172603D01*
X175347637Y-96163959D01*
X175465784Y-96021144D01*
X175472644Y-96010973D01*
X175560804Y-95847924D01*
X175565556Y-95836619D01*
X175601250Y-95721308D01*
X175601456Y-95707205D01*
X175594701Y-95704000D01*
X174502115Y-95704000D01*
X174486876Y-95708475D01*
X174485671Y-95709865D01*
X174484000Y-95717548D01*
X174484000Y-96439885D01*
X173976000Y-96439885D01*
X173976000Y-95722115D01*
X173971525Y-95706876D01*
X173970135Y-95705671D01*
X173962452Y-95704000D01*
X172872076Y-95704000D01*
X172858545Y-95707973D01*
X172857425Y-95715768D01*
X171801331Y-95715768D01*
X171801456Y-95707205D01*
X171794701Y-95704000D01*
X170302000Y-95704000D01*
X170233879Y-95683998D01*
X170187386Y-95630342D01*
X170176000Y-95578000D01*
X170176000Y-95322000D01*
X170196002Y-95253879D01*
X170249658Y-95207386D01*
X170302000Y-95196000D01*
X171787924Y-95196000D01*
X171798839Y-95192795D01*
X172858544Y-95192795D01*
X172865299Y-95196000D01*
X173957885Y-95196000D01*
X173973124Y-95191525D01*
X173974329Y-95190135D01*
X173976000Y-95182452D01*
X173976000Y-95177885D01*
X174484000Y-95177885D01*
X174488475Y-95193124D01*
X174489865Y-95194329D01*
X174497548Y-95196000D01*
X175587924Y-95196000D01*
X175601455Y-95192027D01*
X175602575Y-95184232D01*
X175570862Y-95076479D01*
X175566269Y-95065111D01*
X175480393Y-94900846D01*
X175473679Y-94890585D01*
X175357532Y-94746127D01*
X175348954Y-94737368D01*
X175206961Y-94618222D01*
X175196841Y-94611292D01*
X175034415Y-94521998D01*
X175023142Y-94517166D01*
X174846462Y-94461120D01*
X174834468Y-94458570D01*
X174690239Y-94442393D01*
X174683215Y-94442000D01*
X174502115Y-94442000D01*
X174486876Y-94446475D01*
X174485671Y-94447865D01*
X174484000Y-94455548D01*
X174484000Y-95177885D01*
X173976000Y-95177885D01*
X173976000Y-94460115D01*
X173971525Y-94444876D01*
X173970135Y-94443671D01*
X173962452Y-94442000D01*
X173783343Y-94442000D01*
X173777195Y-94442301D01*
X173639397Y-94455812D01*
X173627362Y-94458195D01*
X173449924Y-94511767D01*
X173438584Y-94516441D01*
X173274923Y-94603460D01*
X173264706Y-94610249D01*
X173121067Y-94727397D01*
X173112363Y-94736041D01*
X172994216Y-94878856D01*
X172987356Y-94889027D01*
X172899196Y-95052076D01*
X172894444Y-95063381D01*
X172858750Y-95178692D01*
X172858544Y-95192795D01*
X171798839Y-95192795D01*
X171801455Y-95192027D01*
X171802575Y-95184232D01*
X171770862Y-95076479D01*
X171766269Y-95065111D01*
X171680393Y-94900846D01*
X171673679Y-94890585D01*
X171557532Y-94746127D01*
X171548954Y-94737368D01*
X171406961Y-94618222D01*
X171396841Y-94611292D01*
X171234415Y-94521998D01*
X171223142Y-94517166D01*
X171046462Y-94461120D01*
X171034468Y-94458570D01*
X170890239Y-94442393D01*
X170883215Y-94442000D01*
X170724871Y-94442000D01*
X170656750Y-94421998D01*
X170610257Y-94368342D01*
X170600153Y-94298068D01*
X170629647Y-94233488D01*
X170635776Y-94226905D01*
X171217276Y-93645405D01*
X171279588Y-93611379D01*
X171306371Y-93608500D01*
X171446832Y-93608500D01*
X171491061Y-93616518D01*
X171540289Y-93634973D01*
X171540291Y-93634973D01*
X171547684Y-93637745D01*
X171555532Y-93638598D01*
X171555534Y-93638598D01*
X171606469Y-93644131D01*
X171609866Y-93644500D01*
X172706134Y-93644500D01*
X172709531Y-93644131D01*
X172760466Y-93638598D01*
X172760468Y-93638598D01*
X172768316Y-93637745D01*
X172775711Y-93634973D01*
X172806624Y-93623384D01*
X172858710Y-93603858D01*
X172929515Y-93598675D01*
X172938083Y-93600841D01*
X172964446Y-93608500D01*
X173051569Y-93633812D01*
X173051574Y-93633813D01*
X173057746Y-93635606D01*
X173064151Y-93636110D01*
X173064156Y-93636111D01*
X173092060Y-93638307D01*
X173092068Y-93638307D01*
X173094516Y-93638500D01*
X173565484Y-93638500D01*
X173567932Y-93638307D01*
X173567940Y-93638307D01*
X173595844Y-93636111D01*
X173595849Y-93636110D01*
X173602254Y-93635606D01*
X173724812Y-93600000D01*
X173751984Y-93592106D01*
X173751986Y-93592105D01*
X173759597Y-93589894D01*
X173900629Y-93506488D01*
X174016488Y-93390629D01*
X174099894Y-93249597D01*
X174103009Y-93238877D01*
X174143811Y-93098431D01*
X174145606Y-93092254D01*
X174147505Y-93068136D01*
X174148307Y-93057940D01*
X174148307Y-93057932D01*
X174148500Y-93055484D01*
X174148500Y-92833461D01*
X174168502Y-92765340D01*
X174222158Y-92718847D01*
X174292432Y-92708743D01*
X174344502Y-92728696D01*
X174399344Y-92765340D01*
X174418803Y-92778342D01*
X174424106Y-92780620D01*
X174424109Y-92780622D01*
X174559666Y-92838862D01*
X174605987Y-92858763D01*
X174662268Y-92871498D01*
X174799055Y-92902450D01*
X174799060Y-92902451D01*
X174804692Y-92903725D01*
X174810463Y-92903952D01*
X174810465Y-92903952D01*
X174873470Y-92906427D01*
X175008263Y-92911723D01*
X175209883Y-92882490D01*
X175215347Y-92880635D01*
X175215352Y-92880634D01*
X175397327Y-92818862D01*
X175397332Y-92818860D01*
X175402799Y-92817004D01*
X175436123Y-92798342D01*
X175477567Y-92775132D01*
X175580551Y-92717458D01*
X175737186Y-92587186D01*
X175867458Y-92430551D01*
X175944173Y-92293567D01*
X175964180Y-92257842D01*
X175964181Y-92257840D01*
X175967004Y-92252799D01*
X175968860Y-92247332D01*
X175968862Y-92247327D01*
X176030634Y-92065352D01*
X176030635Y-92065347D01*
X176032490Y-92059883D01*
X176061723Y-91858263D01*
X176063249Y-91800000D01*
X176050992Y-91666606D01*
X176064677Y-91596941D01*
X176113853Y-91545733D01*
X176182908Y-91529242D01*
X176249916Y-91552702D01*
G37*
%TD.AperFunction*%
%TA.AperFunction,Conductor*%
G36*
X167844980Y-107201867D02*
G01*
X167901816Y-107244414D01*
X167920471Y-107280046D01*
X167923659Y-107289600D01*
X167933450Y-107318946D01*
X168026522Y-107469348D01*
X168151697Y-107594305D01*
X168157927Y-107598145D01*
X168157928Y-107598146D01*
X168275467Y-107670598D01*
X168302262Y-107687115D01*
X168356235Y-107705017D01*
X168463611Y-107740632D01*
X168463613Y-107740632D01*
X168470139Y-107742797D01*
X168476977Y-107743498D01*
X168476979Y-107743498D01*
X168507985Y-107746675D01*
X168550262Y-107751006D01*
X168615988Y-107777847D01*
X168656771Y-107835962D01*
X168659659Y-107906900D01*
X168644679Y-107942466D01*
X168579447Y-108048291D01*
X168573303Y-108061468D01*
X168524421Y-108208843D01*
X168521555Y-108222210D01*
X168512328Y-108312270D01*
X168512000Y-108318685D01*
X168512000Y-108347885D01*
X168516475Y-108363124D01*
X168517865Y-108364329D01*
X168525548Y-108366000D01*
X169585500Y-108366000D01*
X169653621Y-108386002D01*
X169700114Y-108439658D01*
X169711500Y-108492000D01*
X169711500Y-108748000D01*
X169691498Y-108816121D01*
X169637842Y-108862614D01*
X169585500Y-108874000D01*
X168530115Y-108874000D01*
X168514876Y-108878475D01*
X168513671Y-108879865D01*
X168512000Y-108887548D01*
X168512000Y-108921266D01*
X168512337Y-108927782D01*
X168521804Y-109019021D01*
X168524697Y-109032417D01*
X168573830Y-109179687D01*
X168580004Y-109192866D01*
X168633427Y-109279197D01*
X168652265Y-109347649D01*
X168631104Y-109415419D01*
X168576663Y-109460990D01*
X168526283Y-109471500D01*
X167464500Y-109471500D01*
X167396379Y-109451498D01*
X167349886Y-109397842D01*
X167338500Y-109345500D01*
X167338500Y-107656371D01*
X167358502Y-107588250D01*
X167375405Y-107567276D01*
X167711853Y-107230828D01*
X167774165Y-107196802D01*
X167844980Y-107201867D01*
G37*
%TD.AperFunction*%
%TA.AperFunction,Conductor*%
G36*
X162462750Y-105788502D02*
G01*
X162509243Y-105842158D01*
X162519347Y-105912432D01*
X162489853Y-105977012D01*
X162483724Y-105983595D01*
X161326129Y-107141190D01*
X161263817Y-107175216D01*
X161214938Y-107176142D01*
X161033373Y-107143800D01*
X161033367Y-107143799D01*
X161028284Y-107142894D01*
X160954452Y-107141992D01*
X160810081Y-107140228D01*
X160810079Y-107140228D01*
X160804911Y-107140165D01*
X160584091Y-107173955D01*
X160371756Y-107243357D01*
X160335699Y-107262127D01*
X160201500Y-107331987D01*
X160173607Y-107346507D01*
X160169474Y-107349610D01*
X160169471Y-107349612D01*
X160003108Y-107474521D01*
X159994965Y-107480635D01*
X159991393Y-107484373D01*
X159861785Y-107620000D01*
X159840629Y-107642138D01*
X159733204Y-107799618D01*
X159732898Y-107800066D01*
X159677987Y-107845069D01*
X159607462Y-107853240D01*
X159543715Y-107821986D01*
X159523018Y-107797502D01*
X159442426Y-107672926D01*
X159436136Y-107664757D01*
X159292806Y-107507240D01*
X159285273Y-107500215D01*
X159118139Y-107368222D01*
X159109552Y-107362517D01*
X158923117Y-107259599D01*
X158913705Y-107255369D01*
X158712959Y-107184280D01*
X158702988Y-107181646D01*
X158631837Y-107168972D01*
X158618540Y-107170432D01*
X158614000Y-107184989D01*
X158614000Y-108628000D01*
X158593998Y-108696121D01*
X158540342Y-108742614D01*
X158488000Y-108754000D01*
X158232000Y-108754000D01*
X158163879Y-108733998D01*
X158117386Y-108680342D01*
X158106000Y-108628000D01*
X158106000Y-107183102D01*
X158102082Y-107169758D01*
X158087806Y-107167771D01*
X158049324Y-107173660D01*
X158039288Y-107176051D01*
X157836868Y-107242212D01*
X157827359Y-107246209D01*
X157638463Y-107344542D01*
X157629738Y-107350036D01*
X157459433Y-107477905D01*
X157451726Y-107484748D01*
X157304590Y-107638717D01*
X157298109Y-107646722D01*
X157193498Y-107800074D01*
X157138587Y-107845076D01*
X157068062Y-107853247D01*
X157004315Y-107821993D01*
X156983618Y-107797509D01*
X156902822Y-107672617D01*
X156902820Y-107672614D01*
X156900014Y-107668277D01*
X156749670Y-107503051D01*
X156745619Y-107499852D01*
X156745615Y-107499848D01*
X156578414Y-107367800D01*
X156578410Y-107367798D01*
X156574359Y-107364598D01*
X156537260Y-107344118D01*
X156503607Y-107325541D01*
X156453636Y-107275108D01*
X156438500Y-107215232D01*
X156438500Y-106003844D01*
X156458502Y-105935723D01*
X156512158Y-105889230D01*
X156582432Y-105879126D01*
X156615748Y-105888737D01*
X156637213Y-105898294D01*
X156637221Y-105898297D01*
X156643248Y-105900980D01*
X156731508Y-105919740D01*
X156813311Y-105937128D01*
X156813315Y-105937128D01*
X156819768Y-105938500D01*
X157000232Y-105938500D01*
X157006685Y-105937128D01*
X157006689Y-105937128D01*
X157088492Y-105919740D01*
X157176752Y-105900980D01*
X157182785Y-105898294D01*
X157335585Y-105830263D01*
X157335587Y-105830262D01*
X157341615Y-105827578D01*
X157360810Y-105813632D01*
X157389808Y-105792564D01*
X157463869Y-105768500D01*
X162394629Y-105768500D01*
X162462750Y-105788502D01*
G37*
%TD.AperFunction*%
%TA.AperFunction,Conductor*%
G36*
X131863943Y-91739421D02*
G01*
X131874203Y-91749956D01*
X132010105Y-91906844D01*
X132016250Y-91913938D01*
X132188126Y-92056632D01*
X132299070Y-92121462D01*
X132319070Y-92133149D01*
X132367794Y-92184787D01*
X132381500Y-92241937D01*
X132381500Y-96751864D01*
X132380422Y-96768307D01*
X132376250Y-96800000D01*
X132381500Y-96839880D01*
X132381500Y-96839885D01*
X132391918Y-96919020D01*
X132397162Y-96958851D01*
X132458476Y-97106876D01*
X132463503Y-97113427D01*
X132463504Y-97113429D01*
X132531520Y-97202069D01*
X132531526Y-97202075D01*
X132556013Y-97233987D01*
X132562568Y-97239017D01*
X132581379Y-97253452D01*
X132593770Y-97264319D01*
X135445685Y-100116234D01*
X135456552Y-100128625D01*
X135476013Y-100153987D01*
X135482563Y-100159013D01*
X135507921Y-100178471D01*
X135507937Y-100178485D01*
X135557305Y-100216366D01*
X135603124Y-100251524D01*
X135751149Y-100312838D01*
X135910000Y-100333751D01*
X135941699Y-100329578D01*
X135958144Y-100328500D01*
X139781416Y-100328500D01*
X139849537Y-100348502D01*
X139896030Y-100402158D01*
X139906142Y-100436631D01*
X139912381Y-100480197D01*
X139972668Y-100612793D01*
X139977615Y-100618946D01*
X139977617Y-100618949D01*
X140004257Y-100652082D01*
X140011861Y-100661539D01*
X140014278Y-100663956D01*
X140015823Y-100665678D01*
X140046429Y-100729739D01*
X140038449Y-100798042D01*
X139987162Y-100921860D01*
X139986578Y-100926294D01*
X139986085Y-100930042D01*
X139986084Y-100930044D01*
X139974529Y-101017818D01*
X139971500Y-101040826D01*
X139971500Y-101040831D01*
X139966250Y-101080711D01*
X139967328Y-101088899D01*
X139970422Y-101112401D01*
X139971500Y-101128847D01*
X139971500Y-107208678D01*
X139951498Y-107276799D01*
X139903683Y-107320439D01*
X139853607Y-107346507D01*
X139849474Y-107349610D01*
X139849471Y-107349612D01*
X139683108Y-107474521D01*
X139674965Y-107480635D01*
X139671393Y-107484373D01*
X139541785Y-107620000D01*
X139520629Y-107642138D01*
X139413201Y-107799621D01*
X139358293Y-107844621D01*
X139287768Y-107852792D01*
X139224021Y-107821538D01*
X139203324Y-107797054D01*
X139122822Y-107672617D01*
X139122820Y-107672614D01*
X139120014Y-107668277D01*
X138969670Y-107503051D01*
X138965619Y-107499852D01*
X138965615Y-107499848D01*
X138798414Y-107367800D01*
X138798410Y-107367798D01*
X138794359Y-107364598D01*
X138758028Y-107344542D01*
X138735284Y-107331987D01*
X138598789Y-107256638D01*
X138593920Y-107254914D01*
X138593916Y-107254912D01*
X138393087Y-107183795D01*
X138393083Y-107183794D01*
X138388212Y-107182069D01*
X138383119Y-107181162D01*
X138383116Y-107181161D01*
X138173373Y-107143800D01*
X138173367Y-107143799D01*
X138168284Y-107142894D01*
X138094452Y-107141992D01*
X137950081Y-107140228D01*
X137950079Y-107140228D01*
X137944911Y-107140165D01*
X137724091Y-107173955D01*
X137511756Y-107243357D01*
X137475699Y-107262127D01*
X137341500Y-107331987D01*
X137313607Y-107346507D01*
X137309474Y-107349610D01*
X137309471Y-107349612D01*
X137143108Y-107474521D01*
X137134965Y-107480635D01*
X137131393Y-107484373D01*
X137001785Y-107620000D01*
X136980629Y-107642138D01*
X136873201Y-107799621D01*
X136818293Y-107844621D01*
X136747768Y-107852792D01*
X136684021Y-107821538D01*
X136663324Y-107797054D01*
X136582822Y-107672617D01*
X136582820Y-107672614D01*
X136580014Y-107668277D01*
X136429670Y-107503051D01*
X136425619Y-107499852D01*
X136425615Y-107499848D01*
X136258414Y-107367800D01*
X136258410Y-107367798D01*
X136254359Y-107364598D01*
X136218028Y-107344542D01*
X136195284Y-107331987D01*
X136058789Y-107256638D01*
X136053920Y-107254914D01*
X136053916Y-107254912D01*
X135853087Y-107183795D01*
X135853083Y-107183794D01*
X135848212Y-107182069D01*
X135843119Y-107181162D01*
X135843116Y-107181161D01*
X135633373Y-107143800D01*
X135633367Y-107143799D01*
X135628284Y-107142894D01*
X135554452Y-107141992D01*
X135410081Y-107140228D01*
X135410079Y-107140228D01*
X135404911Y-107140165D01*
X135184091Y-107173955D01*
X134971756Y-107243357D01*
X134935699Y-107262127D01*
X134801500Y-107331987D01*
X134773607Y-107346507D01*
X134769474Y-107349610D01*
X134769471Y-107349612D01*
X134603108Y-107474521D01*
X134594965Y-107480635D01*
X134591393Y-107484373D01*
X134461785Y-107620000D01*
X134440629Y-107642138D01*
X134333201Y-107799621D01*
X134278293Y-107844621D01*
X134207768Y-107852792D01*
X134144021Y-107821538D01*
X134123324Y-107797054D01*
X134042822Y-107672617D01*
X134042820Y-107672614D01*
X134040014Y-107668277D01*
X133889670Y-107503051D01*
X133885619Y-107499852D01*
X133885615Y-107499848D01*
X133718414Y-107367800D01*
X133718410Y-107367798D01*
X133714359Y-107364598D01*
X133678028Y-107344542D01*
X133655284Y-107331987D01*
X133518789Y-107256638D01*
X133513920Y-107254914D01*
X133513916Y-107254912D01*
X133313087Y-107183795D01*
X133313083Y-107183794D01*
X133308212Y-107182069D01*
X133303119Y-107181162D01*
X133303116Y-107181161D01*
X133093373Y-107143800D01*
X133093367Y-107143799D01*
X133088284Y-107142894D01*
X133014452Y-107141992D01*
X132870081Y-107140228D01*
X132870079Y-107140228D01*
X132864911Y-107140165D01*
X132644091Y-107173955D01*
X132431756Y-107243357D01*
X132395699Y-107262127D01*
X132261500Y-107331987D01*
X132233607Y-107346507D01*
X132229474Y-107349610D01*
X132229471Y-107349612D01*
X132063108Y-107474521D01*
X132054965Y-107480635D01*
X132051393Y-107484373D01*
X131921785Y-107620000D01*
X131900629Y-107642138D01*
X131897715Y-107646410D01*
X131894463Y-107650426D01*
X131892915Y-107649173D01*
X131844617Y-107688757D01*
X131774092Y-107696930D01*
X131710345Y-107665676D01*
X131673614Y-107604920D01*
X131669967Y-107584280D01*
X131655137Y-107422880D01*
X131655136Y-107422877D01*
X131654608Y-107417126D01*
X131650707Y-107403295D01*
X131600875Y-107226606D01*
X131600874Y-107226604D01*
X131599307Y-107221047D01*
X131596440Y-107215232D01*
X131511756Y-107043510D01*
X131509201Y-107038329D01*
X131490796Y-107013681D01*
X131390758Y-106879715D01*
X131390758Y-106879714D01*
X131387305Y-106875091D01*
X131237703Y-106736800D01*
X131169422Y-106693718D01*
X131070288Y-106631169D01*
X131070283Y-106631167D01*
X131065404Y-106628088D01*
X130876180Y-106552595D01*
X130701663Y-106517881D01*
X130682032Y-106513976D01*
X130682031Y-106513976D01*
X130676366Y-106512849D01*
X130670592Y-106512773D01*
X130670588Y-106512773D01*
X130567452Y-106511424D01*
X130472655Y-106510183D01*
X130466958Y-106511162D01*
X130466957Y-106511162D01*
X130446152Y-106514737D01*
X130271870Y-106544684D01*
X130080734Y-106615198D01*
X130075773Y-106618150D01*
X130075772Y-106618150D01*
X129936987Y-106700719D01*
X129905649Y-106719363D01*
X129752478Y-106853690D01*
X129748911Y-106858215D01*
X129748906Y-106858220D01*
X129670525Y-106957647D01*
X129626351Y-107013681D01*
X129531492Y-107193978D01*
X129471078Y-107388543D01*
X129469332Y-107403295D01*
X129456558Y-107511219D01*
X129428687Y-107576517D01*
X129369939Y-107616380D01*
X129298964Y-107618154D01*
X129238298Y-107581275D01*
X129208790Y-107525310D01*
X129148383Y-107268977D01*
X129145926Y-107255123D01*
X129111189Y-106966322D01*
X129110291Y-106952279D01*
X129108255Y-106696836D01*
X129110822Y-106670509D01*
X129110997Y-106669654D01*
X129112801Y-106660863D01*
X129110764Y-106636109D01*
X129108925Y-106613774D01*
X129108500Y-106603438D01*
X129108500Y-104808379D01*
X129128502Y-104740258D01*
X129182158Y-104693765D01*
X129252432Y-104683661D01*
X129305983Y-104704853D01*
X129308126Y-104706632D01*
X129312594Y-104709243D01*
X129312597Y-104709245D01*
X129365670Y-104740258D01*
X129501000Y-104819338D01*
X129709692Y-104899030D01*
X129714760Y-104900061D01*
X129714763Y-104900062D01*
X129821501Y-104921778D01*
X129928597Y-104943567D01*
X129933772Y-104943757D01*
X129933774Y-104943757D01*
X130146673Y-104951564D01*
X130146677Y-104951564D01*
X130151837Y-104951753D01*
X130156957Y-104951097D01*
X130156959Y-104951097D01*
X130368288Y-104924025D01*
X130368289Y-104924025D01*
X130373416Y-104923368D01*
X130434553Y-104905026D01*
X130582429Y-104860661D01*
X130582434Y-104860659D01*
X130587384Y-104859174D01*
X130787994Y-104760896D01*
X130969860Y-104631173D01*
X131128096Y-104473489D01*
X131158270Y-104431498D01*
X131255435Y-104296277D01*
X131258453Y-104292077D01*
X131262325Y-104284244D01*
X131355136Y-104096453D01*
X131355137Y-104096451D01*
X131357430Y-104091811D01*
X131398205Y-103957604D01*
X131420865Y-103883023D01*
X131420865Y-103883021D01*
X131422370Y-103878069D01*
X131451529Y-103656590D01*
X131452559Y-103614453D01*
X131453074Y-103593365D01*
X131453074Y-103593361D01*
X131453156Y-103590000D01*
X131447917Y-103526280D01*
X131462269Y-103456751D01*
X131484398Y-103426862D01*
X133867048Y-101044211D01*
X133929946Y-101010059D01*
X133999103Y-100995359D01*
X134066752Y-100980980D01*
X134148454Y-100944604D01*
X134225585Y-100910263D01*
X134225587Y-100910262D01*
X134231615Y-100907578D01*
X134242498Y-100899671D01*
X134372269Y-100805387D01*
X134372271Y-100805385D01*
X134377613Y-100801504D01*
X134420899Y-100753430D01*
X134493948Y-100672301D01*
X134493949Y-100672300D01*
X134498367Y-100667393D01*
X134571720Y-100540342D01*
X134585295Y-100516830D01*
X134585296Y-100516829D01*
X134588599Y-100511107D01*
X134644365Y-100339475D01*
X134656017Y-100228621D01*
X134662539Y-100166565D01*
X134663229Y-100160000D01*
X134653677Y-100069118D01*
X134645055Y-99987089D01*
X134645055Y-99987088D01*
X134644365Y-99980525D01*
X134634672Y-99950691D01*
X134591664Y-99818325D01*
X134588599Y-99808893D01*
X134581445Y-99796501D01*
X134549317Y-99740854D01*
X134498367Y-99652607D01*
X134377613Y-99518496D01*
X134357180Y-99503650D01*
X134236957Y-99416303D01*
X134236956Y-99416302D01*
X134231615Y-99412422D01*
X134225587Y-99409738D01*
X134225585Y-99409737D01*
X134072783Y-99341705D01*
X134072781Y-99341705D01*
X134066752Y-99339020D01*
X133978492Y-99320260D01*
X133896689Y-99302872D01*
X133896685Y-99302872D01*
X133890232Y-99301500D01*
X133709768Y-99301500D01*
X133703315Y-99302872D01*
X133703311Y-99302872D01*
X133621508Y-99320260D01*
X133533248Y-99339020D01*
X133527219Y-99341704D01*
X133527217Y-99341705D01*
X133374416Y-99409737D01*
X133374414Y-99409738D01*
X133368386Y-99412422D01*
X133363045Y-99416302D01*
X133363044Y-99416303D01*
X133227731Y-99514613D01*
X133227729Y-99514615D01*
X133222387Y-99518496D01*
X133101633Y-99652607D01*
X133050683Y-99740854D01*
X133018556Y-99796501D01*
X133011401Y-99808893D01*
X133008336Y-99818325D01*
X132965329Y-99950691D01*
X132955635Y-99980525D01*
X132954945Y-99987088D01*
X132954945Y-99987089D01*
X132947076Y-100061956D01*
X132920062Y-100127613D01*
X132910861Y-100137880D01*
X131641126Y-101407615D01*
X131578814Y-101441641D01*
X131507999Y-101436576D01*
X131451163Y-101394029D01*
X131426352Y-101327509D01*
X131427109Y-101302073D01*
X131429020Y-101287558D01*
X131451529Y-101116590D01*
X131451611Y-101113240D01*
X131453074Y-101053365D01*
X131453074Y-101053361D01*
X131453156Y-101050000D01*
X131434852Y-100827361D01*
X131380431Y-100610702D01*
X131291354Y-100405840D01*
X131242018Y-100329578D01*
X131172822Y-100222617D01*
X131172820Y-100222614D01*
X131170014Y-100218277D01*
X131019670Y-100053051D01*
X131015619Y-100049852D01*
X131015615Y-100049848D01*
X130848414Y-99917800D01*
X130848410Y-99917798D01*
X130844359Y-99914598D01*
X130839101Y-99911695D01*
X130802569Y-99891529D01*
X130752598Y-99841097D01*
X130737826Y-99771654D01*
X130762942Y-99705248D01*
X130790294Y-99678641D01*
X130965328Y-99553792D01*
X130973200Y-99547139D01*
X131124052Y-99396812D01*
X131130730Y-99388965D01*
X131255003Y-99216020D01*
X131260313Y-99207183D01*
X131354670Y-99016267D01*
X131358469Y-99006672D01*
X131420377Y-98802910D01*
X131422555Y-98792837D01*
X131423986Y-98781962D01*
X131421775Y-98767778D01*
X131408617Y-98764000D01*
X129962000Y-98764000D01*
X129893879Y-98743998D01*
X129847386Y-98690342D01*
X129836000Y-98638000D01*
X129836000Y-98382000D01*
X129856002Y-98313879D01*
X129909658Y-98267386D01*
X129962000Y-98256000D01*
X131408344Y-98256000D01*
X131421875Y-98252027D01*
X131423180Y-98242947D01*
X131381214Y-98075875D01*
X131377894Y-98066124D01*
X131292972Y-97870814D01*
X131288105Y-97861739D01*
X131172426Y-97682926D01*
X131166136Y-97674757D01*
X131022293Y-97516677D01*
X130991241Y-97452831D01*
X130999635Y-97382333D01*
X131044812Y-97327564D01*
X131071256Y-97313895D01*
X131173218Y-97275671D01*
X131186705Y-97270615D01*
X131303261Y-97183261D01*
X131390615Y-97066705D01*
X131441745Y-96930316D01*
X131448500Y-96868134D01*
X131448500Y-95071866D01*
X131441745Y-95009684D01*
X131390615Y-94873295D01*
X131303261Y-94756739D01*
X131186705Y-94669385D01*
X131050316Y-94618255D01*
X130988134Y-94611500D01*
X129234500Y-94611500D01*
X129166379Y-94591498D01*
X129119886Y-94537842D01*
X129108500Y-94485500D01*
X129108500Y-92667182D01*
X129109347Y-92652601D01*
X129112513Y-92625428D01*
X129112513Y-92625426D01*
X129113552Y-92616508D01*
X129112046Y-92607653D01*
X129110541Y-92598804D01*
X129108778Y-92575325D01*
X129108850Y-92571500D01*
X129113247Y-92335405D01*
X129113468Y-92323545D01*
X129114556Y-92309203D01*
X129151609Y-92031924D01*
X129154325Y-92017799D01*
X129157901Y-92003621D01*
X129187072Y-91887961D01*
X129223126Y-91826801D01*
X129286523Y-91794842D01*
X129357134Y-91802231D01*
X129412541Y-91846622D01*
X129434976Y-91910534D01*
X129436897Y-91939838D01*
X129440457Y-91994151D01*
X129490605Y-92191610D01*
X129575898Y-92376624D01*
X129693479Y-92542997D01*
X129734690Y-92583143D01*
X129828982Y-92674998D01*
X129839410Y-92685157D01*
X129844206Y-92688362D01*
X129844209Y-92688364D01*
X129908279Y-92731174D01*
X130008803Y-92798342D01*
X130014106Y-92800620D01*
X130014109Y-92800622D01*
X130154992Y-92861150D01*
X130195987Y-92878763D01*
X130252277Y-92891500D01*
X130389055Y-92922450D01*
X130389060Y-92922451D01*
X130394692Y-92923725D01*
X130400463Y-92923952D01*
X130400465Y-92923952D01*
X130463470Y-92926427D01*
X130598263Y-92931723D01*
X130799883Y-92902490D01*
X130805347Y-92900635D01*
X130805352Y-92900634D01*
X130987327Y-92838862D01*
X130987332Y-92838860D01*
X130992799Y-92837004D01*
X130999126Y-92833461D01*
X131073659Y-92791720D01*
X131170551Y-92737458D01*
X131327186Y-92607186D01*
X131457458Y-92450551D01*
X131538762Y-92305372D01*
X131554180Y-92277842D01*
X131554181Y-92277840D01*
X131557004Y-92272799D01*
X131558860Y-92267332D01*
X131558862Y-92267327D01*
X131620634Y-92085352D01*
X131620635Y-92085347D01*
X131622490Y-92079883D01*
X131651723Y-91878263D01*
X131653009Y-91829154D01*
X131674788Y-91761581D01*
X131729642Y-91716508D01*
X131800156Y-91708248D01*
X131863943Y-91739421D01*
G37*
%TD.AperFunction*%
%TA.AperFunction,Conductor*%
G36*
X141397012Y-105855071D02*
G01*
X141403595Y-105861200D01*
X142474595Y-106932200D01*
X142508621Y-106994512D01*
X142511500Y-107021295D01*
X142511500Y-107208678D01*
X142491498Y-107276799D01*
X142443683Y-107320439D01*
X142393607Y-107346507D01*
X142389474Y-107349610D01*
X142389471Y-107349612D01*
X142223108Y-107474521D01*
X142214965Y-107480635D01*
X142211393Y-107484373D01*
X142081785Y-107620000D01*
X142060629Y-107642138D01*
X141953201Y-107799621D01*
X141898293Y-107844621D01*
X141827768Y-107852792D01*
X141764021Y-107821538D01*
X141743324Y-107797054D01*
X141662822Y-107672617D01*
X141662820Y-107672614D01*
X141660014Y-107668277D01*
X141509670Y-107503051D01*
X141505619Y-107499852D01*
X141505615Y-107499848D01*
X141338414Y-107367800D01*
X141338410Y-107367798D01*
X141334359Y-107364598D01*
X141253607Y-107320021D01*
X141203636Y-107269588D01*
X141188500Y-107209712D01*
X141188500Y-105950295D01*
X141208502Y-105882174D01*
X141262158Y-105835681D01*
X141332432Y-105825577D01*
X141397012Y-105855071D01*
G37*
%TD.AperFunction*%
%TA.AperFunction,Conductor*%
G36*
X154150879Y-105812563D02*
G01*
X154198385Y-105847078D01*
X154204413Y-105849762D01*
X154204415Y-105849763D01*
X154315749Y-105899332D01*
X154363248Y-105920480D01*
X154434962Y-105935723D01*
X154533311Y-105956628D01*
X154533315Y-105956628D01*
X154539768Y-105958000D01*
X154720232Y-105958000D01*
X154726685Y-105956628D01*
X154726689Y-105956628D01*
X154825038Y-105935723D01*
X154896752Y-105920480D01*
X154944251Y-105899332D01*
X155014618Y-105889898D01*
X155078915Y-105920004D01*
X155116729Y-105980093D01*
X155121500Y-106014439D01*
X155121500Y-107262606D01*
X155101498Y-107330727D01*
X155071153Y-107363366D01*
X155056047Y-107374708D01*
X154929998Y-107469348D01*
X154914965Y-107480635D01*
X154911393Y-107484373D01*
X154781785Y-107620000D01*
X154760629Y-107642138D01*
X154653201Y-107799621D01*
X154598293Y-107844621D01*
X154527768Y-107852792D01*
X154464021Y-107821538D01*
X154443324Y-107797054D01*
X154362822Y-107672617D01*
X154362820Y-107672614D01*
X154360014Y-107668277D01*
X154209670Y-107503051D01*
X154205619Y-107499852D01*
X154205615Y-107499848D01*
X154038414Y-107367800D01*
X154038410Y-107367798D01*
X154034359Y-107364598D01*
X153998028Y-107344542D01*
X153975284Y-107331987D01*
X153838789Y-107256638D01*
X153833920Y-107254914D01*
X153833916Y-107254912D01*
X153633087Y-107183795D01*
X153633083Y-107183794D01*
X153628212Y-107182069D01*
X153623119Y-107181162D01*
X153623116Y-107181161D01*
X153413373Y-107143800D01*
X153413367Y-107143799D01*
X153408284Y-107142894D01*
X153334452Y-107141992D01*
X153190081Y-107140228D01*
X153190079Y-107140228D01*
X153184911Y-107140165D01*
X153058582Y-107159496D01*
X152969200Y-107173173D01*
X152969197Y-107173174D01*
X152964091Y-107173955D01*
X152959176Y-107175562D01*
X152959174Y-107175562D01*
X152924890Y-107186768D01*
X152853927Y-107188921D01*
X152796648Y-107156099D01*
X151924315Y-106283766D01*
X151913448Y-106271375D01*
X151899013Y-106252563D01*
X151893987Y-106246013D01*
X151862075Y-106221526D01*
X151862072Y-106221523D01*
X151766876Y-106148476D01*
X151618851Y-106087162D01*
X151610664Y-106086084D01*
X151610663Y-106086084D01*
X151599458Y-106084609D01*
X151568262Y-106080502D01*
X151499885Y-106071500D01*
X151499882Y-106071500D01*
X151499874Y-106071499D01*
X151468189Y-106067328D01*
X151460000Y-106066250D01*
X151428307Y-106070422D01*
X151411864Y-106071500D01*
X145084239Y-106071500D01*
X145016118Y-106051498D01*
X144995144Y-106034595D01*
X144964144Y-106003595D01*
X144930118Y-105941283D01*
X144935183Y-105870468D01*
X144977730Y-105813632D01*
X145044250Y-105788821D01*
X145053239Y-105788500D01*
X154076819Y-105788500D01*
X154150879Y-105812563D01*
G37*
%TD.AperFunction*%
%TA.AperFunction,Conductor*%
G36*
X165659591Y-105057256D02*
G01*
X165716427Y-105099803D01*
X165741347Y-105167999D01*
X165741500Y-105170630D01*
X165741500Y-105174293D01*
X165741925Y-105177938D01*
X165744789Y-105202507D01*
X165745222Y-105206882D01*
X165751140Y-105279637D01*
X165753396Y-105286601D01*
X165754587Y-105292560D01*
X165755971Y-105298415D01*
X165756818Y-105305681D01*
X165781735Y-105374327D01*
X165783152Y-105378455D01*
X165805649Y-105447899D01*
X165809445Y-105454154D01*
X165811951Y-105459628D01*
X165814670Y-105465058D01*
X165817167Y-105471937D01*
X165821180Y-105478057D01*
X165821180Y-105478058D01*
X165857186Y-105532976D01*
X165859523Y-105536680D01*
X165897405Y-105599107D01*
X165901121Y-105603315D01*
X165901122Y-105603316D01*
X165904803Y-105607484D01*
X165904776Y-105607508D01*
X165907429Y-105610500D01*
X165910132Y-105613733D01*
X165914144Y-105619852D01*
X165919456Y-105624884D01*
X165970383Y-105673128D01*
X165972825Y-105675506D01*
X166458224Y-106160905D01*
X166492250Y-106223217D01*
X166487185Y-106294032D01*
X166458224Y-106339095D01*
X165692724Y-107104595D01*
X165630412Y-107138621D01*
X165603629Y-107141500D01*
X165081866Y-107141500D01*
X165019684Y-107148255D01*
X164883295Y-107199385D01*
X164766739Y-107286739D01*
X164679385Y-107403295D01*
X164676233Y-107411704D01*
X164676232Y-107411705D01*
X164634722Y-107522433D01*
X164592081Y-107579198D01*
X164525519Y-107603898D01*
X164456170Y-107588691D01*
X164423546Y-107563004D01*
X164372799Y-107507234D01*
X164365273Y-107500215D01*
X164198139Y-107368222D01*
X164189552Y-107362517D01*
X164003117Y-107259599D01*
X163993705Y-107255369D01*
X163792959Y-107184280D01*
X163782998Y-107181649D01*
X163722034Y-107170790D01*
X163658476Y-107139152D01*
X163622113Y-107078175D01*
X163624489Y-107007218D01*
X163655034Y-106957647D01*
X165526464Y-105086217D01*
X165588776Y-105052191D01*
X165659591Y-105057256D01*
G37*
%TD.AperFunction*%
%TA.AperFunction,Conductor*%
G36*
X154886240Y-95218502D02*
G01*
X154932733Y-95272158D01*
X154942837Y-95342432D01*
X154936101Y-95368730D01*
X154898255Y-95469684D01*
X154891500Y-95531866D01*
X154891500Y-97128134D01*
X154898255Y-97190316D01*
X154949385Y-97326705D01*
X155036739Y-97443261D01*
X155081067Y-97476483D01*
X155123580Y-97533342D01*
X155131500Y-97577308D01*
X155131500Y-98018303D01*
X155113953Y-98082442D01*
X155054144Y-98183574D01*
X155054142Y-98183578D01*
X155050106Y-98190403D01*
X155047895Y-98198014D01*
X155047894Y-98198016D01*
X155037852Y-98232582D01*
X155004394Y-98347746D01*
X155003890Y-98354151D01*
X155003889Y-98354156D01*
X155001737Y-98381504D01*
X155001500Y-98384516D01*
X155001500Y-98855484D01*
X155001693Y-98857932D01*
X155001693Y-98857940D01*
X155003419Y-98879865D01*
X155004394Y-98892254D01*
X155050106Y-99049597D01*
X155054141Y-99056419D01*
X155054141Y-99056420D01*
X155086715Y-99111500D01*
X155133512Y-99190629D01*
X155249371Y-99306488D01*
X155256192Y-99310522D01*
X155382796Y-99385395D01*
X155390403Y-99389894D01*
X155398014Y-99392105D01*
X155398016Y-99392106D01*
X155414215Y-99396812D01*
X155547746Y-99435606D01*
X155554151Y-99436110D01*
X155554156Y-99436111D01*
X155582060Y-99438307D01*
X155582068Y-99438307D01*
X155584516Y-99438500D01*
X155995484Y-99438500D01*
X155997932Y-99438307D01*
X155997940Y-99438307D01*
X156025844Y-99436111D01*
X156025849Y-99436110D01*
X156032254Y-99435606D01*
X156165785Y-99396812D01*
X156181984Y-99392106D01*
X156181986Y-99392105D01*
X156189597Y-99389894D01*
X156198469Y-99384647D01*
X156206353Y-99379985D01*
X156275170Y-99362526D01*
X156334628Y-99379984D01*
X156343778Y-99385395D01*
X156358216Y-99391643D01*
X156478605Y-99426619D01*
X156492705Y-99426579D01*
X156496000Y-99419309D01*
X156496000Y-99413558D01*
X157004000Y-99413558D01*
X157007973Y-99427089D01*
X157015871Y-99428224D01*
X157141784Y-99391643D01*
X157156220Y-99385396D01*
X157283499Y-99310124D01*
X157295926Y-99300484D01*
X157400484Y-99195926D01*
X157410124Y-99183499D01*
X157485396Y-99056220D01*
X157491643Y-99041784D01*
X157533312Y-98898359D01*
X157534768Y-98890391D01*
X157531948Y-98876969D01*
X157520487Y-98874000D01*
X157022115Y-98874000D01*
X157006876Y-98878475D01*
X157005671Y-98879865D01*
X157004000Y-98887548D01*
X157004000Y-99413558D01*
X156496000Y-99413558D01*
X156496000Y-99141379D01*
X156513546Y-99077240D01*
X156525859Y-99056420D01*
X156525859Y-99056419D01*
X156529894Y-99049597D01*
X156575606Y-98892254D01*
X156576582Y-98879865D01*
X156578307Y-98857940D01*
X156578307Y-98857932D01*
X156578500Y-98855484D01*
X156578500Y-98492000D01*
X156598502Y-98423879D01*
X156652158Y-98377386D01*
X156704500Y-98366000D01*
X157518424Y-98366000D01*
X157533219Y-98361656D01*
X157535063Y-98351225D01*
X157533312Y-98341641D01*
X157491643Y-98198216D01*
X157485396Y-98183780D01*
X157410124Y-98056501D01*
X157400484Y-98044074D01*
X157295926Y-97939516D01*
X157283499Y-97929876D01*
X157156220Y-97854604D01*
X157141784Y-97848357D01*
X157031303Y-97816259D01*
X156971467Y-97778046D01*
X156941790Y-97713549D01*
X156951694Y-97643247D01*
X156998033Y-97589459D01*
X157022227Y-97577280D01*
X157138295Y-97533768D01*
X157138296Y-97533767D01*
X157146705Y-97530615D01*
X157263261Y-97443261D01*
X157350615Y-97326705D01*
X157401745Y-97190316D01*
X157408500Y-97128134D01*
X157408500Y-97114500D01*
X157428502Y-97046379D01*
X157482158Y-96999886D01*
X157534500Y-96988500D01*
X160861050Y-96988500D01*
X160929171Y-97008502D01*
X160950145Y-97025405D01*
X162157322Y-98232582D01*
X162191348Y-98294894D01*
X162189224Y-98356830D01*
X162184371Y-98373534D01*
X162183867Y-98379941D01*
X162183866Y-98379945D01*
X162181693Y-98407556D01*
X162181500Y-98410011D01*
X162181501Y-98909988D01*
X162184371Y-98946466D01*
X162204650Y-99016267D01*
X162216258Y-99056220D01*
X162229731Y-99102596D01*
X162233766Y-99109418D01*
X162233766Y-99109419D01*
X162308460Y-99235720D01*
X162312494Y-99242541D01*
X162427459Y-99357506D01*
X162434280Y-99361540D01*
X162553057Y-99431784D01*
X162567404Y-99440269D01*
X162575015Y-99442480D01*
X162575017Y-99442481D01*
X162660239Y-99467240D01*
X162723534Y-99485629D01*
X162729941Y-99486133D01*
X162729945Y-99486134D01*
X162757556Y-99488307D01*
X162757562Y-99488307D01*
X162760011Y-99488500D01*
X162959878Y-99488500D01*
X163159988Y-99488499D01*
X163196466Y-99485629D01*
X163293270Y-99457505D01*
X163344983Y-99442481D01*
X163344985Y-99442480D01*
X163352596Y-99440269D01*
X163406353Y-99408477D01*
X163475166Y-99391018D01*
X163534630Y-99408478D01*
X163580780Y-99435771D01*
X163595217Y-99442019D01*
X163708605Y-99474961D01*
X163722705Y-99474921D01*
X163726000Y-99467651D01*
X163726000Y-98997542D01*
X163731003Y-98962390D01*
X163733834Y-98952647D01*
X163733835Y-98952640D01*
X163735629Y-98946466D01*
X163736135Y-98940047D01*
X163738307Y-98912444D01*
X163738307Y-98912438D01*
X163738500Y-98909989D01*
X163738499Y-98531999D01*
X163758501Y-98463880D01*
X163812156Y-98417387D01*
X163864499Y-98406000D01*
X164108000Y-98406000D01*
X164176121Y-98426002D01*
X164222614Y-98479658D01*
X164234000Y-98532000D01*
X164234000Y-99461900D01*
X164237973Y-99475431D01*
X164245872Y-99476566D01*
X164292348Y-99463064D01*
X164363344Y-99463267D01*
X164422960Y-99501821D01*
X164452268Y-99566486D01*
X164453500Y-99584061D01*
X164453500Y-99818325D01*
X164433498Y-99886446D01*
X164379842Y-99932939D01*
X164309568Y-99943043D01*
X164292350Y-99939323D01*
X164206466Y-99914371D01*
X164200059Y-99913867D01*
X164200055Y-99913866D01*
X164172444Y-99911693D01*
X164172438Y-99911693D01*
X164169989Y-99911500D01*
X163970122Y-99911500D01*
X163770012Y-99911501D01*
X163733534Y-99914371D01*
X163651459Y-99938216D01*
X163585017Y-99957519D01*
X163585015Y-99957520D01*
X163577404Y-99959731D01*
X163570579Y-99963767D01*
X163570575Y-99963769D01*
X163524139Y-99991231D01*
X163455323Y-100008691D01*
X163395861Y-99991231D01*
X163349425Y-99963769D01*
X163349421Y-99963767D01*
X163342596Y-99959731D01*
X163334985Y-99957520D01*
X163334983Y-99957519D01*
X163218852Y-99923780D01*
X163186466Y-99914371D01*
X163180059Y-99913867D01*
X163180055Y-99913866D01*
X163152444Y-99911693D01*
X163152438Y-99911693D01*
X163149989Y-99911500D01*
X162950122Y-99911500D01*
X162750012Y-99911501D01*
X162713534Y-99914371D01*
X162631459Y-99938216D01*
X162565017Y-99957519D01*
X162565015Y-99957520D01*
X162557404Y-99959731D01*
X162550582Y-99963766D01*
X162550581Y-99963766D01*
X162424280Y-100038460D01*
X162417459Y-100042494D01*
X162302494Y-100157459D01*
X162298460Y-100164280D01*
X162268786Y-100214457D01*
X162219731Y-100297404D01*
X162217520Y-100305015D01*
X162217519Y-100305017D01*
X162207508Y-100339475D01*
X162174371Y-100453534D01*
X162173867Y-100459941D01*
X162173866Y-100459945D01*
X162171961Y-100484156D01*
X162171500Y-100490011D01*
X162171500Y-100535050D01*
X162151498Y-100603171D01*
X162134595Y-100624145D01*
X160364145Y-102394595D01*
X160301833Y-102428621D01*
X160275050Y-102431500D01*
X157514500Y-102431500D01*
X157446379Y-102411498D01*
X157399886Y-102357842D01*
X157388500Y-102305500D01*
X157388500Y-102291866D01*
X157381745Y-102229684D01*
X157330615Y-102093295D01*
X157243261Y-101976739D01*
X157126705Y-101889385D01*
X156990316Y-101838255D01*
X156928134Y-101831500D01*
X156564500Y-101831500D01*
X156496379Y-101811498D01*
X156449886Y-101757842D01*
X156438500Y-101705500D01*
X156438500Y-101654881D01*
X156458502Y-101586760D01*
X156477795Y-101567412D01*
X156486000Y-101549309D01*
X156486000Y-101543558D01*
X156994000Y-101543558D01*
X156997973Y-101557089D01*
X157005871Y-101558224D01*
X157131784Y-101521643D01*
X157146220Y-101515396D01*
X157273499Y-101440124D01*
X157285926Y-101430484D01*
X157390484Y-101325926D01*
X157400124Y-101313499D01*
X157475396Y-101186220D01*
X157481643Y-101171784D01*
X157523312Y-101028359D01*
X157524768Y-101020391D01*
X157521948Y-101006969D01*
X157510487Y-101004000D01*
X157012115Y-101004000D01*
X156996876Y-101008475D01*
X156995671Y-101009865D01*
X156994000Y-101017548D01*
X156994000Y-101543558D01*
X156486000Y-101543558D01*
X156486000Y-101271379D01*
X156503546Y-101207240D01*
X156515859Y-101186420D01*
X156515859Y-101186419D01*
X156519894Y-101179597D01*
X156565606Y-101022254D01*
X156566582Y-101009865D01*
X156568307Y-100987940D01*
X156568307Y-100987932D01*
X156568500Y-100985484D01*
X156568500Y-100514516D01*
X156567043Y-100496000D01*
X156566111Y-100484156D01*
X156566110Y-100484151D01*
X156565617Y-100477885D01*
X156994000Y-100477885D01*
X156998475Y-100493124D01*
X156999865Y-100494329D01*
X157007548Y-100496000D01*
X157508424Y-100496000D01*
X157523219Y-100491656D01*
X157525063Y-100481225D01*
X157523312Y-100471641D01*
X157481643Y-100328216D01*
X157475396Y-100313780D01*
X157400124Y-100186501D01*
X157390484Y-100174074D01*
X157285926Y-100069516D01*
X157273499Y-100059876D01*
X157146220Y-99984604D01*
X157131784Y-99978357D01*
X157011395Y-99943381D01*
X156997295Y-99943421D01*
X156994000Y-99950691D01*
X156994000Y-100477885D01*
X156565617Y-100477885D01*
X156565606Y-100477746D01*
X156536916Y-100378995D01*
X156522106Y-100328016D01*
X156522105Y-100328014D01*
X156519894Y-100320403D01*
X156503546Y-100292760D01*
X156486000Y-100228621D01*
X156486000Y-99956442D01*
X156482027Y-99942911D01*
X156474129Y-99941776D01*
X156348216Y-99978357D01*
X156333778Y-99984605D01*
X156324628Y-99990016D01*
X156255812Y-100007474D01*
X156196353Y-99990015D01*
X156186423Y-99984143D01*
X156186424Y-99984143D01*
X156179597Y-99980106D01*
X156171986Y-99977895D01*
X156171984Y-99977894D01*
X156098144Y-99956442D01*
X156022254Y-99934394D01*
X156015849Y-99933890D01*
X156015844Y-99933889D01*
X155987940Y-99931693D01*
X155987932Y-99931693D01*
X155985484Y-99931500D01*
X155574516Y-99931500D01*
X155572068Y-99931693D01*
X155572060Y-99931693D01*
X155544156Y-99933889D01*
X155544151Y-99933890D01*
X155537746Y-99934394D01*
X155461856Y-99956442D01*
X155388016Y-99977894D01*
X155388014Y-99977895D01*
X155380403Y-99980106D01*
X155373581Y-99984141D01*
X155373580Y-99984141D01*
X155250602Y-100056870D01*
X155239371Y-100063512D01*
X155123512Y-100179371D01*
X155119478Y-100186192D01*
X155053708Y-100297404D01*
X155040106Y-100320403D01*
X155037895Y-100328014D01*
X155037894Y-100328016D01*
X155023084Y-100378995D01*
X154994394Y-100477746D01*
X154993890Y-100484151D01*
X154993889Y-100484156D01*
X154992957Y-100496000D01*
X154991500Y-100514516D01*
X154991500Y-100985484D01*
X154991693Y-100987932D01*
X154991693Y-100987940D01*
X154993419Y-101009865D01*
X154994394Y-101022254D01*
X155040106Y-101179597D01*
X155044141Y-101186420D01*
X155044144Y-101186426D01*
X155103953Y-101287558D01*
X155121500Y-101351697D01*
X155121500Y-101835198D01*
X155101498Y-101903319D01*
X155071065Y-101936024D01*
X155016739Y-101976739D01*
X154929385Y-102093295D01*
X154878255Y-102229684D01*
X154871500Y-102291866D01*
X154871500Y-103888134D01*
X154878255Y-103950316D01*
X154905965Y-104024231D01*
X154929385Y-104086705D01*
X154926000Y-104087974D01*
X154937478Y-104140531D01*
X154912723Y-104207071D01*
X154855922Y-104249665D01*
X154785596Y-104254893D01*
X154740712Y-104245353D01*
X154720232Y-104241000D01*
X154539768Y-104241000D01*
X154533315Y-104242372D01*
X154533311Y-104242372D01*
X154454989Y-104259020D01*
X154363248Y-104278520D01*
X154357219Y-104281204D01*
X154357217Y-104281205D01*
X154204416Y-104349237D01*
X154204414Y-104349238D01*
X154198386Y-104351922D01*
X154093082Y-104428430D01*
X154066922Y-104447436D01*
X153992861Y-104471500D01*
X152074000Y-104471500D01*
X152005879Y-104451498D01*
X151959386Y-104397842D01*
X151948000Y-104345500D01*
X151948000Y-104317031D01*
X151947807Y-104312102D01*
X151945614Y-104284244D01*
X151943312Y-104271641D01*
X151901643Y-104128216D01*
X151895395Y-104113778D01*
X151889984Y-104104628D01*
X151872526Y-104035812D01*
X151889985Y-103976353D01*
X151895857Y-103966423D01*
X151899894Y-103959597D01*
X151902591Y-103950316D01*
X151936287Y-103834329D01*
X151945606Y-103802254D01*
X151948500Y-103765484D01*
X151948500Y-103354516D01*
X151947991Y-103348047D01*
X151946111Y-103324156D01*
X151946110Y-103324151D01*
X151945606Y-103317746D01*
X151899894Y-103160403D01*
X151895862Y-103153585D01*
X151894327Y-103150038D01*
X151885631Y-103079576D01*
X151894327Y-103049962D01*
X151895862Y-103046415D01*
X151899894Y-103039597D01*
X151902106Y-103031986D01*
X151943811Y-102888431D01*
X151945606Y-102882254D01*
X151946434Y-102871745D01*
X151948307Y-102847940D01*
X151948307Y-102847932D01*
X151948500Y-102845484D01*
X151948500Y-102434516D01*
X151948036Y-102428621D01*
X151946111Y-102404156D01*
X151946110Y-102404151D01*
X151945606Y-102397746D01*
X151911206Y-102279338D01*
X151902106Y-102248016D01*
X151902105Y-102248014D01*
X151899894Y-102240403D01*
X151889985Y-102223647D01*
X151872526Y-102154830D01*
X151889984Y-102095372D01*
X151895395Y-102086222D01*
X151901643Y-102071784D01*
X151936619Y-101951395D01*
X151936579Y-101937295D01*
X151929309Y-101934000D01*
X151651379Y-101934000D01*
X151587240Y-101916454D01*
X151566420Y-101904141D01*
X151566419Y-101904141D01*
X151559597Y-101900106D01*
X151551986Y-101897895D01*
X151551984Y-101897894D01*
X151501005Y-101883084D01*
X151402254Y-101854394D01*
X151395849Y-101853890D01*
X151395844Y-101853889D01*
X151367940Y-101851693D01*
X151367932Y-101851693D01*
X151365484Y-101851500D01*
X151324950Y-101851500D01*
X151256829Y-101831498D01*
X151235854Y-101814595D01*
X150912904Y-101491644D01*
X150878879Y-101429332D01*
X150876574Y-101407885D01*
X151384000Y-101407885D01*
X151388475Y-101423124D01*
X151389865Y-101424329D01*
X151397548Y-101426000D01*
X151923558Y-101426000D01*
X151937089Y-101422027D01*
X151938224Y-101414129D01*
X151901643Y-101288216D01*
X151895396Y-101273780D01*
X151820124Y-101146501D01*
X151810484Y-101134074D01*
X151705926Y-101029516D01*
X151693499Y-101019876D01*
X151566220Y-100944604D01*
X151551784Y-100938357D01*
X151408359Y-100896688D01*
X151400391Y-100895232D01*
X151386969Y-100898052D01*
X151384000Y-100909513D01*
X151384000Y-101407885D01*
X150876574Y-101407885D01*
X150876000Y-101402549D01*
X150876000Y-100911576D01*
X150871656Y-100896781D01*
X150861225Y-100894937D01*
X150851641Y-100896688D01*
X150708216Y-100938357D01*
X150693780Y-100944604D01*
X150559680Y-101023910D01*
X150558620Y-101022117D01*
X150502644Y-101044095D01*
X150433021Y-101030195D01*
X150405887Y-101010243D01*
X150403261Y-101006739D01*
X150388075Y-100995358D01*
X150345560Y-100938500D01*
X150340534Y-100867682D01*
X150355187Y-100830393D01*
X150375393Y-100796226D01*
X150381643Y-100781784D01*
X150423312Y-100638359D01*
X150424768Y-100630391D01*
X150421948Y-100616969D01*
X150410487Y-100614000D01*
X149594500Y-100614000D01*
X149526379Y-100593998D01*
X149479886Y-100540342D01*
X149468500Y-100488000D01*
X149468500Y-100124516D01*
X149468307Y-100122060D01*
X149466111Y-100094156D01*
X149466110Y-100094151D01*
X149465617Y-100087885D01*
X149894000Y-100087885D01*
X149898475Y-100103124D01*
X149899865Y-100104329D01*
X149907548Y-100106000D01*
X150408424Y-100106000D01*
X150423219Y-100101656D01*
X150425063Y-100091225D01*
X150423312Y-100081641D01*
X150381643Y-99938216D01*
X150375396Y-99923780D01*
X150300124Y-99796501D01*
X150290484Y-99784074D01*
X150280505Y-99774095D01*
X150246479Y-99711783D01*
X150251544Y-99640968D01*
X150280505Y-99595905D01*
X150290484Y-99585926D01*
X150300124Y-99573499D01*
X150375396Y-99446220D01*
X150381643Y-99431784D01*
X150423312Y-99288359D01*
X150424768Y-99280391D01*
X150421948Y-99266969D01*
X150410487Y-99264000D01*
X149912115Y-99264000D01*
X149896876Y-99268475D01*
X149895671Y-99269865D01*
X149894000Y-99277548D01*
X149894000Y-100087885D01*
X149465617Y-100087885D01*
X149465606Y-100087746D01*
X149433691Y-99977894D01*
X149422106Y-99938016D01*
X149422105Y-99938014D01*
X149419894Y-99930403D01*
X149411476Y-99916168D01*
X149403546Y-99902760D01*
X149386000Y-99838621D01*
X149386000Y-99531379D01*
X149403546Y-99467240D01*
X149415859Y-99446420D01*
X149415859Y-99446419D01*
X149419894Y-99439597D01*
X149423665Y-99426619D01*
X149449114Y-99339020D01*
X149465606Y-99282254D01*
X149466582Y-99269865D01*
X149468307Y-99247940D01*
X149468307Y-99247932D01*
X149468500Y-99245484D01*
X149468500Y-98774516D01*
X149467970Y-98767778D01*
X149466111Y-98744156D01*
X149466110Y-98744151D01*
X149465617Y-98737885D01*
X149894000Y-98737885D01*
X149898475Y-98753124D01*
X149899865Y-98754329D01*
X149907548Y-98756000D01*
X150408424Y-98756000D01*
X150423219Y-98751656D01*
X150425063Y-98741225D01*
X150423312Y-98731641D01*
X150381643Y-98588216D01*
X150375396Y-98573780D01*
X150300124Y-98446501D01*
X150290484Y-98434074D01*
X150185926Y-98329516D01*
X150173499Y-98319876D01*
X150046220Y-98244604D01*
X150031784Y-98238357D01*
X149911395Y-98203381D01*
X149897295Y-98203421D01*
X149894000Y-98210691D01*
X149894000Y-98737885D01*
X149465617Y-98737885D01*
X149465606Y-98737746D01*
X149419894Y-98580403D01*
X149407914Y-98560145D01*
X149403546Y-98552760D01*
X149386000Y-98488621D01*
X149386000Y-98216442D01*
X149381353Y-98200616D01*
X149343604Y-98141878D01*
X149338500Y-98106379D01*
X149338500Y-97494950D01*
X149358502Y-97426829D01*
X149375405Y-97405855D01*
X150734725Y-96046535D01*
X150797037Y-96012509D01*
X150867852Y-96017574D01*
X150914456Y-96048103D01*
X150943455Y-96078132D01*
X150949351Y-96081990D01*
X151072585Y-96162632D01*
X151085846Y-96171310D01*
X151092450Y-96173766D01*
X151092452Y-96173767D01*
X151238731Y-96228168D01*
X151238733Y-96228169D01*
X151245341Y-96230626D01*
X151252326Y-96231558D01*
X151252330Y-96231559D01*
X151272710Y-96234278D01*
X151277770Y-96234953D01*
X151342648Y-96263788D01*
X151350202Y-96270751D01*
X152714957Y-97635506D01*
X152745420Y-97684829D01*
X152762403Y-97735883D01*
X152797094Y-97840167D01*
X152800741Y-97846189D01*
X152800742Y-97846191D01*
X152856911Y-97938936D01*
X152885246Y-97985723D01*
X153003455Y-98108132D01*
X153026384Y-98123136D01*
X153118743Y-98183574D01*
X153145846Y-98201310D01*
X153152450Y-98203766D01*
X153152452Y-98203767D01*
X153186534Y-98216442D01*
X153305341Y-98260626D01*
X153474015Y-98283132D01*
X153481026Y-98282494D01*
X153481030Y-98282494D01*
X153636462Y-98268348D01*
X153643483Y-98267709D01*
X153650185Y-98265531D01*
X153650187Y-98265531D01*
X153798623Y-98217301D01*
X153798626Y-98217300D01*
X153805322Y-98215124D01*
X153951490Y-98127990D01*
X153956584Y-98123139D01*
X153956588Y-98123136D01*
X154050726Y-98033489D01*
X154074721Y-98010639D01*
X154081678Y-98000169D01*
X154128380Y-97929876D01*
X154168891Y-97868902D01*
X154229319Y-97709825D01*
X154253001Y-97541313D01*
X154253299Y-97520000D01*
X154234331Y-97350892D01*
X154178368Y-97190189D01*
X154173539Y-97182460D01*
X154137456Y-97124717D01*
X154088192Y-97045879D01*
X153968286Y-96925132D01*
X153824608Y-96833951D01*
X153664300Y-96776868D01*
X153657305Y-96776034D01*
X153657301Y-96776033D01*
X153618534Y-96771411D01*
X153608980Y-96770272D01*
X153543706Y-96742345D01*
X153534802Y-96734253D01*
X152214144Y-95413595D01*
X152180118Y-95351283D01*
X152185183Y-95280468D01*
X152227730Y-95223632D01*
X152294250Y-95198821D01*
X152303239Y-95198500D01*
X154818119Y-95198500D01*
X154886240Y-95218502D01*
G37*
%TD.AperFunction*%
%TA.AperFunction,Conductor*%
G36*
X145164254Y-103791597D02*
G01*
X145197835Y-103814208D01*
X145248306Y-103861604D01*
X145251148Y-103864359D01*
X145271716Y-103884927D01*
X145275219Y-103887644D01*
X145284244Y-103895352D01*
X145317916Y-103926972D01*
X145324867Y-103930793D01*
X145324868Y-103930794D01*
X145336707Y-103937303D01*
X145353231Y-103948157D01*
X145363320Y-103955982D01*
X145370181Y-103961304D01*
X145377453Y-103964451D01*
X145377455Y-103964452D01*
X145412584Y-103979654D01*
X145423245Y-103984876D01*
X145463712Y-104007124D01*
X145484490Y-104012459D01*
X145503180Y-104018858D01*
X145522873Y-104027380D01*
X145566645Y-104034313D01*
X145568497Y-104034606D01*
X145580120Y-104037013D01*
X145608121Y-104044202D01*
X145624861Y-104048500D01*
X145646308Y-104048500D01*
X145666018Y-104050051D01*
X145687201Y-104053406D01*
X145733190Y-104049059D01*
X145745045Y-104048500D01*
X147605500Y-104048500D01*
X147673621Y-104068502D01*
X147720114Y-104122158D01*
X147731500Y-104174500D01*
X147731500Y-104345500D01*
X147711498Y-104413621D01*
X147657842Y-104460114D01*
X147605500Y-104471500D01*
X145334950Y-104471500D01*
X145266829Y-104451498D01*
X145245855Y-104434595D01*
X145072552Y-104261292D01*
X145038526Y-104198980D01*
X145035647Y-104172197D01*
X145035647Y-104123122D01*
X145034912Y-104113778D01*
X145033258Y-104092762D01*
X145033257Y-104092757D01*
X145032753Y-104086352D01*
X145030413Y-104078297D01*
X144990587Y-103941212D01*
X144990790Y-103870216D01*
X145029344Y-103810600D01*
X145094009Y-103781292D01*
X145164254Y-103791597D01*
G37*
%TD.AperFunction*%
%TA.AperFunction,Conductor*%
G36*
X163524139Y-101488769D02*
G01*
X163570575Y-101516231D01*
X163570579Y-101516233D01*
X163577404Y-101520269D01*
X163585015Y-101522480D01*
X163585017Y-101522481D01*
X163647652Y-101540678D01*
X163733534Y-101565629D01*
X163739941Y-101566133D01*
X163739945Y-101566134D01*
X163767556Y-101568307D01*
X163767562Y-101568307D01*
X163770011Y-101568500D01*
X163969878Y-101568500D01*
X164169988Y-101568499D01*
X164206466Y-101565629D01*
X164292348Y-101540678D01*
X164363343Y-101540881D01*
X164422959Y-101579435D01*
X164452268Y-101644099D01*
X164453500Y-101661675D01*
X164453500Y-101706000D01*
X164433498Y-101774121D01*
X164379842Y-101820614D01*
X164327500Y-101832000D01*
X163802115Y-101832000D01*
X163786876Y-101836475D01*
X163785671Y-101837865D01*
X163784000Y-101845548D01*
X163784000Y-103218000D01*
X163763998Y-103286121D01*
X163710342Y-103332614D01*
X163658000Y-103344000D01*
X162290116Y-103344000D01*
X162274877Y-103348475D01*
X162273672Y-103349865D01*
X162272001Y-103357548D01*
X162272001Y-103884669D01*
X162272371Y-103891490D01*
X162277895Y-103942352D01*
X162281521Y-103957604D01*
X162326676Y-104078054D01*
X162335214Y-104093649D01*
X162411715Y-104195724D01*
X162424275Y-104208284D01*
X162446143Y-104224673D01*
X162488659Y-104281532D01*
X162493685Y-104352351D01*
X162459625Y-104414644D01*
X162397295Y-104448635D01*
X162370579Y-104451500D01*
X157546451Y-104451500D01*
X157478330Y-104431498D01*
X157472390Y-104427436D01*
X157454784Y-104414644D01*
X157368826Y-104352192D01*
X157346957Y-104336303D01*
X157346956Y-104336302D01*
X157341615Y-104332422D01*
X157335585Y-104329737D01*
X157329862Y-104326433D01*
X157331095Y-104324298D01*
X157285500Y-104285529D01*
X157264862Y-104217598D01*
X157284227Y-104149294D01*
X157290031Y-104140856D01*
X157304044Y-104122158D01*
X157330615Y-104086705D01*
X157381745Y-103950316D01*
X157388500Y-103888134D01*
X157388500Y-103874500D01*
X157408502Y-103806379D01*
X157462158Y-103759886D01*
X157514500Y-103748500D01*
X160517944Y-103748500D01*
X160529800Y-103749059D01*
X160529803Y-103749059D01*
X160537537Y-103750788D01*
X160608369Y-103748562D01*
X160612327Y-103748500D01*
X160641432Y-103748500D01*
X160645832Y-103747944D01*
X160657664Y-103747012D01*
X160703831Y-103745562D01*
X160724421Y-103739580D01*
X160743782Y-103735570D01*
X160750770Y-103734688D01*
X160757204Y-103733875D01*
X160757205Y-103733875D01*
X160765064Y-103732882D01*
X160772429Y-103729966D01*
X160772433Y-103729965D01*
X160808021Y-103715874D01*
X160819231Y-103712035D01*
X160863600Y-103699145D01*
X160882065Y-103688225D01*
X160899805Y-103679534D01*
X160919756Y-103671635D01*
X160957129Y-103644482D01*
X160967048Y-103637967D01*
X160999977Y-103618493D01*
X160999981Y-103618490D01*
X161006807Y-103614453D01*
X161021971Y-103599289D01*
X161037005Y-103586448D01*
X161047943Y-103578501D01*
X161054357Y-103573841D01*
X161083803Y-103538247D01*
X161091792Y-103529468D01*
X162056905Y-102564355D01*
X162119217Y-102530329D01*
X162190032Y-102535394D01*
X162246868Y-102577941D01*
X162271679Y-102644461D01*
X162272000Y-102653450D01*
X162272000Y-102817885D01*
X162276475Y-102833124D01*
X162277865Y-102834329D01*
X162285548Y-102836000D01*
X163257885Y-102836000D01*
X163273124Y-102831525D01*
X163274329Y-102830135D01*
X163276000Y-102822452D01*
X163276000Y-101850116D01*
X163271525Y-101834877D01*
X163270135Y-101833672D01*
X163262452Y-101832001D01*
X163093449Y-101832001D01*
X163025328Y-101811999D01*
X162978835Y-101758343D01*
X162968731Y-101688069D01*
X162998225Y-101623489D01*
X163004354Y-101616906D01*
X163015856Y-101605404D01*
X163078168Y-101571378D01*
X163104951Y-101568499D01*
X163149988Y-101568499D01*
X163186466Y-101565629D01*
X163283270Y-101537505D01*
X163334983Y-101522481D01*
X163334985Y-101522480D01*
X163342596Y-101520269D01*
X163349421Y-101516233D01*
X163349425Y-101516231D01*
X163395861Y-101488769D01*
X163464677Y-101471309D01*
X163524139Y-101488769D01*
G37*
%TD.AperFunction*%
%TA.AperFunction,Conductor*%
G36*
X137124410Y-94961062D02*
G01*
X137135616Y-94971009D01*
X139304123Y-97139516D01*
X139338149Y-97201828D01*
X139333084Y-97272643D01*
X139320939Y-97296866D01*
X139290124Y-97344682D01*
X139286304Y-97350610D01*
X139259960Y-97422990D01*
X139231516Y-97501140D01*
X139228103Y-97510516D01*
X139206775Y-97679343D01*
X139214998Y-97763204D01*
X139201739Y-97832952D01*
X139152876Y-97884459D01*
X139089599Y-97901500D01*
X138803411Y-97901500D01*
X138735897Y-97881885D01*
X138650562Y-97827729D01*
X138650558Y-97827727D01*
X138644608Y-97823951D01*
X138484300Y-97766868D01*
X138315329Y-97746720D01*
X138308326Y-97747456D01*
X138308325Y-97747456D01*
X138153101Y-97763770D01*
X138153097Y-97763771D01*
X138146093Y-97764507D01*
X138139422Y-97766778D01*
X137991673Y-97817075D01*
X137991670Y-97817076D01*
X137985003Y-97819346D01*
X137979005Y-97823036D01*
X137979003Y-97823037D01*
X137846065Y-97904821D01*
X137846063Y-97904823D01*
X137840066Y-97908512D01*
X137718486Y-98027573D01*
X137714675Y-98033487D01*
X137714673Y-98033489D01*
X137664403Y-98111492D01*
X137626304Y-98170610D01*
X137568103Y-98330516D01*
X137546775Y-98499343D01*
X137563381Y-98668699D01*
X137617094Y-98830167D01*
X137671639Y-98920231D01*
X137689817Y-98988858D01*
X137668007Y-99056421D01*
X137613131Y-99101468D01*
X137563862Y-99111500D01*
X136214239Y-99111500D01*
X136146118Y-99091498D01*
X136125144Y-99074595D01*
X135825468Y-98774919D01*
X135791442Y-98712607D01*
X135796507Y-98641792D01*
X135839054Y-98584956D01*
X135905574Y-98560145D01*
X135940759Y-98562577D01*
X136060444Y-98588016D01*
X136109768Y-98598500D01*
X136290232Y-98598500D01*
X136296685Y-98597128D01*
X136296689Y-98597128D01*
X136378492Y-98579740D01*
X136466752Y-98560980D01*
X136472783Y-98558295D01*
X136625585Y-98490263D01*
X136625587Y-98490262D01*
X136631615Y-98487578D01*
X136636957Y-98483697D01*
X136772269Y-98385387D01*
X136772271Y-98385385D01*
X136777613Y-98381504D01*
X136864260Y-98285273D01*
X136893948Y-98252301D01*
X136893949Y-98252300D01*
X136898367Y-98247393D01*
X136988599Y-98091107D01*
X137044365Y-97919475D01*
X137049064Y-97874773D01*
X137062539Y-97746565D01*
X137063229Y-97740000D01*
X137044365Y-97560525D01*
X137035472Y-97533153D01*
X136990641Y-97395178D01*
X136988599Y-97388893D01*
X136970320Y-97357232D01*
X136901670Y-97238328D01*
X136901668Y-97238325D01*
X136898367Y-97232607D01*
X136893947Y-97227698D01*
X136892563Y-97225793D01*
X136868500Y-97151733D01*
X136868500Y-95140036D01*
X136888502Y-95071915D01*
X136900858Y-95055733D01*
X136908367Y-95047393D01*
X136937402Y-94997103D01*
X136988786Y-94948110D01*
X137058499Y-94934675D01*
X137124410Y-94961062D01*
G37*
%TD.AperFunction*%
%TA.AperFunction,Conductor*%
G36*
X134322026Y-91615144D02*
G01*
X134349875Y-91646994D01*
X134409987Y-91745088D01*
X134556250Y-91913938D01*
X134728126Y-92056632D01*
X134828313Y-92115176D01*
X134839070Y-92121462D01*
X134887794Y-92173100D01*
X134901500Y-92230250D01*
X134901500Y-92436708D01*
X134900422Y-92453151D01*
X134896250Y-92484844D01*
X134901500Y-92524724D01*
X134901500Y-92524729D01*
X134914093Y-92620386D01*
X134917162Y-92643695D01*
X134978476Y-92791720D01*
X134983503Y-92798271D01*
X134983504Y-92798273D01*
X135051520Y-92886913D01*
X135051526Y-92886919D01*
X135076013Y-92918831D01*
X135082568Y-92923861D01*
X135101379Y-92938296D01*
X135113770Y-92949163D01*
X135777537Y-93612930D01*
X135811563Y-93675242D01*
X135806498Y-93746057D01*
X135762503Y-93803961D01*
X135637731Y-93894613D01*
X135637729Y-93894615D01*
X135632387Y-93898496D01*
X135511633Y-94032607D01*
X135421401Y-94188893D01*
X135365635Y-94360525D01*
X135346771Y-94540000D01*
X135365635Y-94719475D01*
X135367675Y-94725753D01*
X135367675Y-94725754D01*
X135393913Y-94806507D01*
X135421401Y-94891107D01*
X135511633Y-95047393D01*
X135519138Y-95055728D01*
X135549854Y-95119734D01*
X135551500Y-95140036D01*
X135551500Y-97128858D01*
X135531498Y-97196979D01*
X135519141Y-97213162D01*
X135501633Y-97232607D01*
X135498332Y-97238325D01*
X135429681Y-97357232D01*
X135411401Y-97388893D01*
X135409359Y-97395178D01*
X135364529Y-97533153D01*
X135355635Y-97560525D01*
X135336771Y-97740000D01*
X135337461Y-97746565D01*
X135350937Y-97874773D01*
X135355635Y-97919475D01*
X135357675Y-97925753D01*
X135357675Y-97925754D01*
X135379051Y-97991543D01*
X135381078Y-98062511D01*
X135344416Y-98123309D01*
X135280703Y-98154634D01*
X135210170Y-98146540D01*
X135170123Y-98119574D01*
X133635405Y-96584856D01*
X133601379Y-96522544D01*
X133598500Y-96495761D01*
X133598500Y-92223407D01*
X133618502Y-92155286D01*
X133659985Y-92115176D01*
X133663340Y-92113176D01*
X133667994Y-92110896D01*
X133849860Y-91981173D01*
X133867487Y-91963608D01*
X134004435Y-91827137D01*
X134008096Y-91823489D01*
X134024975Y-91800000D01*
X134138453Y-91642077D01*
X134139776Y-91643028D01*
X134186645Y-91599857D01*
X134256580Y-91587625D01*
X134322026Y-91615144D01*
G37*
%TD.AperFunction*%
%TA.AperFunction,Conductor*%
G36*
X141942026Y-91615144D02*
G01*
X141969875Y-91646994D01*
X142029987Y-91745088D01*
X142176250Y-91913938D01*
X142202222Y-91935500D01*
X142249801Y-91975001D01*
X142289436Y-92033903D01*
X142290934Y-92104884D01*
X142258411Y-92161040D01*
X141863766Y-92555685D01*
X141851375Y-92566552D01*
X141826013Y-92586013D01*
X141801526Y-92617925D01*
X141801523Y-92617928D01*
X141728476Y-92713124D01*
X141667162Y-92861149D01*
X141667162Y-92861150D01*
X141665414Y-92874426D01*
X141656344Y-92943319D01*
X141651500Y-92980115D01*
X141651500Y-92980120D01*
X141646250Y-93020000D01*
X141647328Y-93028188D01*
X141650422Y-93051690D01*
X141651500Y-93068136D01*
X141651500Y-96047392D01*
X141631498Y-96115513D01*
X141577842Y-96162006D01*
X141507568Y-96172110D01*
X141442988Y-96142616D01*
X141436405Y-96136487D01*
X141255405Y-95955487D01*
X141221379Y-95893175D01*
X141218500Y-95866392D01*
X141218500Y-92223407D01*
X141238502Y-92155286D01*
X141279985Y-92115176D01*
X141283340Y-92113176D01*
X141287994Y-92110896D01*
X141469860Y-91981173D01*
X141487487Y-91963608D01*
X141624435Y-91827137D01*
X141628096Y-91823489D01*
X141644975Y-91800000D01*
X141758453Y-91642077D01*
X141759776Y-91643028D01*
X141806645Y-91599857D01*
X141876580Y-91587625D01*
X141942026Y-91615144D01*
G37*
%TD.AperFunction*%
%TA.AperFunction,Conductor*%
G36*
X139402026Y-91615144D02*
G01*
X139429875Y-91646994D01*
X139489987Y-91745088D01*
X139636250Y-91913938D01*
X139808126Y-92056632D01*
X139919070Y-92121462D01*
X139939070Y-92133149D01*
X139987794Y-92184787D01*
X140001500Y-92241937D01*
X140001500Y-95104498D01*
X139981498Y-95172619D01*
X139927842Y-95219112D01*
X139857568Y-95229216D01*
X139792988Y-95199722D01*
X139786405Y-95193593D01*
X138715405Y-94122593D01*
X138681379Y-94060281D01*
X138678500Y-94033498D01*
X138678500Y-92223407D01*
X138698502Y-92155286D01*
X138739985Y-92115176D01*
X138743340Y-92113176D01*
X138747994Y-92110896D01*
X138929860Y-91981173D01*
X138947487Y-91963608D01*
X139084435Y-91827137D01*
X139088096Y-91823489D01*
X139104975Y-91800000D01*
X139218453Y-91642077D01*
X139219776Y-91643028D01*
X139266645Y-91599857D01*
X139336580Y-91587625D01*
X139402026Y-91615144D01*
G37*
%TD.AperFunction*%
%TA.AperFunction,Conductor*%
G36*
X147022026Y-91615144D02*
G01*
X147049875Y-91646994D01*
X147109987Y-91745088D01*
X147256250Y-91913938D01*
X147428126Y-92056632D01*
X147528313Y-92115176D01*
X147539070Y-92121462D01*
X147587794Y-92173100D01*
X147601500Y-92230250D01*
X147601500Y-93001497D01*
X147581498Y-93069618D01*
X147564595Y-93090592D01*
X146178260Y-94476927D01*
X146115948Y-94510953D01*
X146045133Y-94505888D01*
X146009876Y-94483136D01*
X146008742Y-94484546D01*
X146003248Y-94480129D01*
X145998286Y-94475132D01*
X145982039Y-94464821D01*
X145914560Y-94421998D01*
X145854608Y-94383951D01*
X145694300Y-94326868D01*
X145525329Y-94306720D01*
X145518326Y-94307456D01*
X145518325Y-94307456D01*
X145363101Y-94323770D01*
X145363097Y-94323771D01*
X145356093Y-94324507D01*
X145349422Y-94326778D01*
X145201673Y-94377075D01*
X145201670Y-94377076D01*
X145195003Y-94379346D01*
X145189005Y-94383036D01*
X145189003Y-94383037D01*
X145056065Y-94464821D01*
X145056063Y-94464823D01*
X145050066Y-94468512D01*
X145045033Y-94473441D01*
X145029715Y-94488441D01*
X144967050Y-94521811D01*
X144896291Y-94516005D01*
X144852463Y-94487512D01*
X144783073Y-94418122D01*
X144770646Y-94408482D01*
X144643366Y-94333210D01*
X144629794Y-94327337D01*
X144575218Y-94281928D01*
X144553855Y-94214221D01*
X144570274Y-94149461D01*
X144636150Y-94033498D01*
X144659870Y-93991744D01*
X144719203Y-93813382D01*
X144742762Y-93626892D01*
X144743138Y-93600000D01*
X144724795Y-93412926D01*
X144710878Y-93366829D01*
X144685114Y-93281498D01*
X144670465Y-93232977D01*
X144582218Y-93067008D01*
X144463415Y-92921340D01*
X144389314Y-92860038D01*
X144323329Y-92805450D01*
X144323324Y-92805447D01*
X144318580Y-92801522D01*
X144313161Y-92798592D01*
X144313158Y-92798590D01*
X144188473Y-92731174D01*
X144138064Y-92681179D01*
X144122686Y-92611868D01*
X144147222Y-92545246D01*
X144159306Y-92531243D01*
X144668017Y-92022532D01*
X144730329Y-91988506D01*
X144801144Y-91993571D01*
X144837596Y-92014682D01*
X144864514Y-92037029D01*
X144888126Y-92056632D01*
X144892589Y-92059240D01*
X144900545Y-92063889D01*
X145081000Y-92169338D01*
X145085825Y-92171180D01*
X145085826Y-92171181D01*
X145139324Y-92191610D01*
X145289692Y-92249030D01*
X145294760Y-92250061D01*
X145294763Y-92250062D01*
X145348285Y-92260951D01*
X145508597Y-92293567D01*
X145513772Y-92293757D01*
X145513774Y-92293757D01*
X145726673Y-92301564D01*
X145726677Y-92301564D01*
X145731837Y-92301753D01*
X145736957Y-92301097D01*
X145736959Y-92301097D01*
X145948288Y-92274025D01*
X145948289Y-92274025D01*
X145953416Y-92273368D01*
X145994804Y-92260951D01*
X146162429Y-92210661D01*
X146162434Y-92210659D01*
X146167384Y-92209174D01*
X146367994Y-92110896D01*
X146549860Y-91981173D01*
X146567487Y-91963608D01*
X146704435Y-91827137D01*
X146708096Y-91823489D01*
X146724975Y-91800000D01*
X146838453Y-91642077D01*
X146839776Y-91643028D01*
X146886645Y-91599857D01*
X146956580Y-91587625D01*
X147022026Y-91615144D01*
G37*
%TD.AperFunction*%
%TA.AperFunction,Conductor*%
G36*
X167496570Y-91897352D02*
G01*
X167546688Y-91947638D01*
X167562000Y-92007838D01*
X167562000Y-92092969D01*
X167562193Y-92097898D01*
X167564386Y-92125756D01*
X167566688Y-92138359D01*
X167608357Y-92281784D01*
X167614605Y-92296222D01*
X167620016Y-92305372D01*
X167637474Y-92374188D01*
X167620015Y-92433647D01*
X167610106Y-92450403D01*
X167607895Y-92458014D01*
X167607894Y-92458016D01*
X167600100Y-92484844D01*
X167564394Y-92607746D01*
X167563890Y-92614151D01*
X167563889Y-92614156D01*
X167562074Y-92637217D01*
X167561500Y-92644516D01*
X167561500Y-92957629D01*
X167541498Y-93025750D01*
X167524595Y-93046724D01*
X166726724Y-93844595D01*
X166664412Y-93878621D01*
X166637629Y-93881500D01*
X164373239Y-93881500D01*
X164305118Y-93861498D01*
X164258625Y-93807842D01*
X164248521Y-93737568D01*
X164278015Y-93672988D01*
X164284144Y-93666405D01*
X165615144Y-92335405D01*
X165677456Y-92301379D01*
X165704239Y-92298500D01*
X166888134Y-92298500D01*
X166950316Y-92291745D01*
X167086705Y-92240615D01*
X167203261Y-92153261D01*
X167290615Y-92036705D01*
X167313747Y-91975001D01*
X167318018Y-91963608D01*
X167360660Y-91906844D01*
X167427221Y-91882144D01*
X167496570Y-91897352D01*
G37*
%TD.AperFunction*%
%TA.AperFunction,Conductor*%
G36*
X136862026Y-91615144D02*
G01*
X136889875Y-91646994D01*
X136949987Y-91745088D01*
X137096250Y-91913938D01*
X137268126Y-92056632D01*
X137379070Y-92121462D01*
X137399070Y-92133149D01*
X137447794Y-92184787D01*
X137461500Y-92241937D01*
X137461500Y-93271605D01*
X137441498Y-93339726D01*
X137387842Y-93386219D01*
X137317568Y-93396323D01*
X137252988Y-93366829D01*
X137246405Y-93360700D01*
X136189691Y-92303986D01*
X136155665Y-92241674D01*
X136160730Y-92170859D01*
X136203277Y-92114023D01*
X136207817Y-92110983D01*
X136207994Y-92110896D01*
X136389860Y-91981173D01*
X136407487Y-91963608D01*
X136544435Y-91827137D01*
X136548096Y-91823489D01*
X136564975Y-91800000D01*
X136678453Y-91642077D01*
X136679776Y-91643028D01*
X136726645Y-91599857D01*
X136796580Y-91587625D01*
X136862026Y-91615144D01*
G37*
%TD.AperFunction*%
%TA.AperFunction,Conductor*%
G36*
X168803959Y-89978502D02*
G01*
X168850452Y-90032158D01*
X168860556Y-90102432D01*
X168831062Y-90167012D01*
X168810155Y-90183864D01*
X168811295Y-90185385D01*
X168694739Y-90272739D01*
X168607385Y-90389295D01*
X168556255Y-90525684D01*
X168549500Y-90587866D01*
X168549500Y-91284134D01*
X168556255Y-91346316D01*
X168607385Y-91482705D01*
X168612771Y-91489892D01*
X168617079Y-91497760D01*
X168614302Y-91499281D01*
X168633675Y-91551143D01*
X168634000Y-91560193D01*
X168634000Y-91617885D01*
X168638475Y-91633124D01*
X168639865Y-91634329D01*
X168647548Y-91636000D01*
X168701784Y-91636000D01*
X168769905Y-91656002D01*
X168777349Y-91661174D01*
X168811295Y-91686615D01*
X168947684Y-91737745D01*
X169009866Y-91744500D01*
X170106134Y-91744500D01*
X170109529Y-91744131D01*
X170109533Y-91744131D01*
X170155893Y-91739095D01*
X170225776Y-91751624D01*
X170277791Y-91799945D01*
X170295500Y-91864358D01*
X170295500Y-91907642D01*
X170275498Y-91975763D01*
X170221842Y-92022256D01*
X170155893Y-92032905D01*
X170109533Y-92027869D01*
X170109529Y-92027869D01*
X170106134Y-92027500D01*
X169009866Y-92027500D01*
X168947684Y-92034255D01*
X168812591Y-92084899D01*
X168741785Y-92090082D01*
X168733217Y-92087916D01*
X168680145Y-92072497D01*
X168658430Y-92066188D01*
X168658427Y-92066187D01*
X168652254Y-92064394D01*
X168645849Y-92063890D01*
X168645844Y-92063889D01*
X168617940Y-92061693D01*
X168617932Y-92061693D01*
X168615484Y-92061500D01*
X168252000Y-92061500D01*
X168183879Y-92041498D01*
X168137386Y-91987842D01*
X168126000Y-91935500D01*
X168126000Y-91121576D01*
X168121656Y-91106781D01*
X168111225Y-91104937D01*
X168101641Y-91106688D01*
X167958216Y-91148357D01*
X167943780Y-91154604D01*
X167816501Y-91229876D01*
X167804074Y-91239516D01*
X167699516Y-91344074D01*
X167689876Y-91356501D01*
X167614604Y-91483780D01*
X167608358Y-91498214D01*
X167595497Y-91542481D01*
X167557284Y-91602316D01*
X167492787Y-91631993D01*
X167422485Y-91622089D01*
X167368697Y-91575750D01*
X167348500Y-91507327D01*
X167348500Y-90084500D01*
X167368502Y-90016379D01*
X167422158Y-89969886D01*
X167474500Y-89958500D01*
X168735838Y-89958500D01*
X168803959Y-89978502D01*
G37*
%TD.AperFunction*%
%TA.AperFunction,Conductor*%
G36*
X173875662Y-89959804D02*
G01*
X174023191Y-89961588D01*
X174037762Y-89962611D01*
X174327881Y-90000013D01*
X174342247Y-90002720D01*
X174530388Y-90049626D01*
X174626078Y-90073483D01*
X174640035Y-90077837D01*
X174913755Y-90181007D01*
X174927105Y-90186946D01*
X175187034Y-90321139D01*
X175199601Y-90328580D01*
X175325155Y-90413137D01*
X175442229Y-90491983D01*
X175453863Y-90500841D01*
X175546776Y-90580511D01*
X175585468Y-90640037D01*
X175585837Y-90711033D01*
X175547763Y-90770957D01*
X175483336Y-90800785D01*
X175418068Y-90793192D01*
X175271549Y-90734737D01*
X175266180Y-90732595D01*
X175066366Y-90692849D01*
X175060592Y-90692773D01*
X175060588Y-90692773D01*
X174957452Y-90691424D01*
X174862655Y-90690183D01*
X174856958Y-90691162D01*
X174856957Y-90691162D01*
X174724187Y-90713976D01*
X174661870Y-90724684D01*
X174470734Y-90795198D01*
X174295649Y-90899363D01*
X174142478Y-91033690D01*
X174138906Y-91038221D01*
X174026055Y-91181371D01*
X173968173Y-91222484D01*
X173897253Y-91225778D01*
X173862966Y-91211819D01*
X173766220Y-91154604D01*
X173751784Y-91148357D01*
X173608359Y-91106688D01*
X173600391Y-91105232D01*
X173586969Y-91108052D01*
X173584000Y-91119513D01*
X173584000Y-91935500D01*
X173563998Y-92003621D01*
X173510342Y-92050114D01*
X173458000Y-92061500D01*
X173094516Y-92061500D01*
X173092068Y-92061693D01*
X173092060Y-92061693D01*
X173064159Y-92063889D01*
X173064156Y-92063889D01*
X173057746Y-92064394D01*
X173029854Y-92072497D01*
X172994703Y-92077500D01*
X172906513Y-92077500D01*
X172862284Y-92069482D01*
X172775711Y-92037027D01*
X172775709Y-92037027D01*
X172768316Y-92034255D01*
X172760468Y-92033402D01*
X172760466Y-92033402D01*
X172709531Y-92027869D01*
X172706134Y-92027500D01*
X172030000Y-92027500D01*
X171961879Y-92007498D01*
X171915386Y-91953842D01*
X171904000Y-91901500D01*
X171904000Y-91870500D01*
X171924002Y-91802379D01*
X171977658Y-91755886D01*
X172030000Y-91744500D01*
X172706134Y-91744500D01*
X172768316Y-91737745D01*
X172904705Y-91686615D01*
X172943988Y-91657174D01*
X173010494Y-91632326D01*
X173019553Y-91632000D01*
X173057885Y-91632000D01*
X173073124Y-91627525D01*
X173074329Y-91626135D01*
X173076000Y-91618452D01*
X173076000Y-91568198D01*
X173096002Y-91500077D01*
X173101176Y-91492631D01*
X173103228Y-91489893D01*
X173103228Y-91489892D01*
X173108615Y-91482705D01*
X173159745Y-91346316D01*
X173166500Y-91284134D01*
X173166500Y-90587866D01*
X173159745Y-90525684D01*
X173108615Y-90389295D01*
X173021261Y-90272739D01*
X172904705Y-90185385D01*
X172907003Y-90182319D01*
X172869563Y-90144864D01*
X172854485Y-90075487D01*
X172879309Y-90008971D01*
X172936153Y-89966436D01*
X172980162Y-89958500D01*
X173665172Y-89958500D01*
X173678815Y-89959241D01*
X173717338Y-89963437D01*
X173734843Y-89960324D01*
X173758423Y-89958387D01*
X173875662Y-89959804D01*
G37*
%TD.AperFunction*%
%TD*%
M02*
