M48
; DRILL file {KiCad (6.0.11)} date Wed Feb  1 23:08:31 2023
; FORMAT={-:-/ absolute / metric / decimal}
; #@! TF.CreationDate,2023-02-01T23:08:31+08:00
; #@! TF.GenerationSoftware,Kicad,Pcbnew,(6.0.11)
; #@! TF.FileFunction,MixedPlating,1,2
FMAT,2
METRIC
; #@! TA.AperFunction,Plated,PTH,ViaDrill
T1C0.200
; #@! TA.AperFunction,Plated,PTH,ViaDrill
T2C0.300
; #@! TA.AperFunction,Plated,PTH,ViaDrill
T3C0.500
; #@! TA.AperFunction,Plated,PTH,ComponentDrill
T4C0.600
; #@! TA.AperFunction,Plated,PTH,ComponentDrill
T5C1.000
; #@! TA.AperFunction,Plated,PTH,ComponentDrill
T6C1.200
%
G90
G05
T1
X-24.5Y-14.89
X-24.48Y-5.59
X-22.19Y-12.46
X-20.13Y-14.49
X-16.229Y-14.49
X-16.106Y-7.63
X-14.85Y-7.63
X-14.22Y-14.91
X-14.21Y-13.4
X-14.21Y-14.16
X-13.39Y-11.24
X-12.94Y-10.81
X-12.52Y-10.37
X-12.04Y-9.94
X-11.63Y-9.48
X-11.058Y-6.59
T2
X-41.96Y-0.88
X-36.497Y-16.133
X-35.59Y-16.61
X-33.69Y-3.55
X-32.22Y-8.11
X-25.61Y-4.9
X-23.33Y-4.88
X-20.03Y-15.44
X-14.07Y-5.79
X-10.51Y-3.43
X-10.17Y-14.72
X-10.16Y-16.24
X-8.12Y-16.25
X-5.73Y-16.99
X-4.62Y-7.48
X-4.6Y-14.85
X-3.77Y-10.08
X-2.74Y-16.51
X-1.66Y-14.85
X-0.26Y-16.52
T3
X-36.52Y-1.36
X-33.912Y-12.418
X-30.63Y-10.3
X-19.74Y-12.56
X-13.82Y-16.38
X-13.67Y-4.05
X-12.4Y-16.38
X-8.57Y-3.98
X-8.55Y-6.39
T5
X-34.69Y-19.04
X-34.68Y-1.48
X-32.15Y-19.04
X-32.14Y-1.48
X-29.61Y-19.04
X-29.6Y-1.48
X-27.07Y-19.04
X-27.06Y-1.48
X-24.53Y-19.04
X-24.52Y-1.48
X-21.99Y-19.04
X-21.98Y-1.48
X-19.45Y-19.04
X-19.44Y-1.48
X-16.91Y-19.04
X-16.9Y-1.48
X-14.37Y-19.04
X-14.36Y-1.48
X-11.83Y-19.04
X-11.82Y-1.48
X-9.29Y-19.04
X-9.28Y-1.48
X-6.75Y-19.04
X-6.74Y-1.48
X-4.21Y-19.04
X-4.2Y-1.48
X-1.67Y-19.04
X-1.66Y-1.48
X1.21Y-6.39
X1.21Y-8.93
X1.21Y-11.47
X1.21Y-14.01
T6
X-43.74Y-2.35
X-43.74Y-18.17
X0.74Y-2.36
X0.77Y-18.17
T4
G00X-43.36Y-5.93
M15
G01X-44.16Y-5.93
M16
G05
G00X-43.36Y-14.57
M15
G01X-44.16Y-14.57
M16
G05
G00X-39.56Y-5.93
M15
G01X-40.36Y-5.93
M16
G05
G00X-39.56Y-14.57
M15
G01X-40.36Y-14.57
M16
G05
T0
M30
