%TF.GenerationSoftware,KiCad,Pcbnew,(6.0.7)*%
%TF.CreationDate,2022-10-08T18:54:48+08:00*%
%TF.ProjectId,UINIO-MCU-STM32L051K8,55494e49-4f2d-44d4-9355-2d53544d3332,rev?*%
%TF.SameCoordinates,Original*%
%TF.FileFunction,Copper,L2,Bot*%
%TF.FilePolarity,Positive*%
%FSLAX46Y46*%
G04 Gerber Fmt 4.6, Leading zero omitted, Abs format (unit mm)*
G04 Created by KiCad (PCBNEW (6.0.7)) date 2022-10-08 18:54:48*
%MOMM*%
%LPD*%
G01*
G04 APERTURE LIST*
G04 Aperture macros list*
%AMRoundRect*
0 Rectangle with rounded corners*
0 $1 Rounding radius*
0 $2 $3 $4 $5 $6 $7 $8 $9 X,Y pos of 4 corners*
0 Add a 4 corners polygon primitive as box body*
4,1,4,$2,$3,$4,$5,$6,$7,$8,$9,$2,$3,0*
0 Add four circle primitives for the rounded corners*
1,1,$1+$1,$2,$3*
1,1,$1+$1,$4,$5*
1,1,$1+$1,$6,$7*
1,1,$1+$1,$8,$9*
0 Add four rect primitives between the rounded corners*
20,1,$1+$1,$2,$3,$4,$5,0*
20,1,$1+$1,$4,$5,$6,$7,0*
20,1,$1+$1,$6,$7,$8,$9,0*
20,1,$1+$1,$8,$9,$2,$3,0*%
G04 Aperture macros list end*
%TA.AperFunction,ComponentPad*%
%ADD10R,1.700000X1.700000*%
%TD*%
%TA.AperFunction,ComponentPad*%
%ADD11O,1.700000X1.700000*%
%TD*%
%TA.AperFunction,ComponentPad*%
%ADD12O,1.000000X1.800000*%
%TD*%
%TA.AperFunction,SMDPad,CuDef*%
%ADD13O,2.250000X0.630000*%
%TD*%
%TA.AperFunction,SMDPad,CuDef*%
%ADD14RoundRect,0.140000X0.140000X0.170000X-0.140000X0.170000X-0.140000X-0.170000X0.140000X-0.170000X0*%
%TD*%
%TA.AperFunction,ViaPad*%
%ADD15C,1.500000*%
%TD*%
%TA.AperFunction,ViaPad*%
%ADD16C,0.900000*%
%TD*%
%TA.AperFunction,ViaPad*%
%ADD17C,0.500000*%
%TD*%
%TA.AperFunction,ViaPad*%
%ADD18C,0.700000*%
%TD*%
%TA.AperFunction,Conductor*%
%ADD19C,0.300000*%
%TD*%
%TA.AperFunction,Conductor*%
%ADD20C,0.500000*%
%TD*%
%TA.AperFunction,Conductor*%
%ADD21C,0.400000*%
%TD*%
%TA.AperFunction,Conductor*%
%ADD22C,0.200000*%
%TD*%
G04 APERTURE END LIST*
D10*
%TO.P,J3,1,Pin_1*%
%TO.N,/PA13{slash}SWDIO*%
X160460000Y-129310000D03*
D11*
%TO.P,J3,2,Pin_2*%
%TO.N,GND*%
X157920000Y-129310000D03*
%TO.P,J3,3,Pin_3*%
%TO.N,/PA14{slash}SWCLK*%
X155380000Y-129310000D03*
%TO.P,J3,4,Pin_4*%
%TO.N,/VDD_3.3V*%
X152840000Y-129310000D03*
%TD*%
D12*
%TO.P,USB1,1,GND*%
%TO.N,GND*%
X160960000Y-89270000D03*
%TO.P,USB1,2,GND*%
X152320000Y-89270000D03*
%TO.P,USB1,3,GND*%
X160960000Y-85470000D03*
%TO.P,USB1,4,GND*%
X152320000Y-85470000D03*
%TD*%
D10*
%TO.P,J2,1,Pin_1*%
%TO.N,/VDD_5V*%
X165480000Y-93720000D03*
D11*
%TO.P,J2,2,Pin_2*%
%TO.N,GND*%
X165480000Y-96260000D03*
%TO.P,J2,3,Pin_3*%
%TO.N,/VDD_3.3V*%
X165480000Y-98800000D03*
%TO.P,J2,4,Pin_4*%
%TO.N,GND*%
X165480000Y-101340000D03*
%TO.P,J2,5,Pin_5*%
%TO.N,/NRST*%
X165480000Y-103880000D03*
%TO.P,J2,6,Pin_6*%
%TO.N,/PB8*%
X165480000Y-106420000D03*
%TO.P,J2,7,Pin_7*%
%TO.N,/PB7*%
X165480000Y-108960000D03*
%TO.P,J2,8,Pin_8*%
%TO.N,/PB6*%
X165480000Y-111500000D03*
%TO.P,J2,9,Pin_9*%
%TO.N,/PB5*%
X165480000Y-114040000D03*
%TO.P,J2,10,Pin_10*%
%TO.N,/PB4*%
X165480000Y-116580000D03*
%TO.P,J2,11,Pin_11*%
%TO.N,/PB3*%
X165480000Y-119120000D03*
%TO.P,J2,12,Pin_12*%
%TO.N,/PB2*%
X165480000Y-121660000D03*
%TO.P,J2,13,Pin_13*%
%TO.N,/PB1*%
X165480000Y-124200000D03*
%TO.P,J2,14,Pin_14*%
%TO.N,/PB0*%
X165480000Y-126740000D03*
%TD*%
D13*
%TO.P,U2,1,CS#*%
%TO.N,/PA4{slash}CS*%
X160080000Y-97445000D03*
%TO.P,U2,2,DO(IO1)*%
%TO.N,/PA6{slash}MISO*%
X160080000Y-98715000D03*
%TO.P,U2,3,WP#(IO2)*%
%TO.N,GND*%
X160080000Y-99985000D03*
%TO.P,U2,4,GND*%
X160080000Y-101255000D03*
%TO.P,U2,5,DI(IO0)*%
%TO.N,/PA7{slash}MOSI*%
X153020000Y-101255000D03*
%TO.P,U2,6,CLK*%
%TO.N,/PA5{slash}SCLK*%
X153020000Y-99985000D03*
%TO.P,U2,7,HOLD#/RESET#/(IO3)*%
%TO.N,GND*%
X153020000Y-98715000D03*
%TO.P,U2,8,VCC*%
%TO.N,/VDD_3.3V*%
X153020000Y-97445000D03*
%TD*%
D14*
%TO.P,C3,1*%
%TO.N,GND*%
X157000000Y-95770000D03*
%TO.P,C3,2*%
%TO.N,/VDD_3.3V*%
X156040000Y-95770000D03*
%TD*%
D10*
%TO.P,J1,1,Pin_1*%
%TO.N,/PA0*%
X147770000Y-93690000D03*
D11*
%TO.P,J1,2,Pin_2*%
%TO.N,/PA1*%
X147770000Y-96230000D03*
%TO.P,J1,3,Pin_3*%
%TO.N,/PA2*%
X147770000Y-98770000D03*
%TO.P,J1,4,Pin_4*%
%TO.N,/PA3*%
X147770000Y-101310000D03*
%TO.P,J1,5,Pin_5*%
%TO.N,/PA4{slash}CS*%
X147770000Y-103850000D03*
%TO.P,J1,6,Pin_6*%
%TO.N,/PA5{slash}SCLK*%
X147770000Y-106390000D03*
%TO.P,J1,7,Pin_7*%
%TO.N,/PA6{slash}MISO*%
X147770000Y-108930000D03*
%TO.P,J1,8,Pin_8*%
%TO.N,/PA7{slash}MOSI*%
X147770000Y-111470000D03*
%TO.P,J1,9,Pin_9*%
%TO.N,/PA8*%
X147770000Y-114010000D03*
%TO.P,J1,10,Pin_10*%
%TO.N,/PA9*%
X147770000Y-116550000D03*
%TO.P,J1,11,Pin_11*%
%TO.N,/PA10*%
X147770000Y-119090000D03*
%TO.P,J1,12,Pin_12*%
%TO.N,/PA11*%
X147770000Y-121630000D03*
%TO.P,J1,13,Pin_13*%
%TO.N,/PA12*%
X147770000Y-124170000D03*
%TO.P,J1,14,Pin_14*%
%TO.N,/PA15*%
X147770000Y-126710000D03*
%TD*%
D15*
%TO.N,GND*%
X164230000Y-84540000D03*
D16*
X150450000Y-114970000D03*
D15*
X149100000Y-84500000D03*
D16*
X156550000Y-97770000D03*
X154430000Y-108850000D03*
D15*
X148870000Y-129480000D03*
D17*
X156040000Y-115460000D03*
X156480000Y-115880000D03*
X157370000Y-116770000D03*
X156910000Y-116360000D03*
D16*
X162340000Y-115060000D03*
D17*
X155610000Y-115010000D03*
D15*
X164410000Y-129510000D03*
D16*
%TO.N,/VDD_3.3V*%
X154432000Y-94488000D03*
X150590000Y-116420500D03*
D18*
X151329500Y-108285048D03*
D17*
%TO.N,/BOOT0*%
X160260000Y-117342353D03*
X151960000Y-103900000D03*
%TO.N,/NRST*%
X159219500Y-113550000D03*
X161420000Y-103920000D03*
D18*
%TO.N,Net-(C11-Pad2)*%
X159700000Y-112650000D03*
X156590000Y-108540000D03*
D17*
%TO.N,/PA4{slash}CS*%
X154270000Y-106360000D03*
X152360000Y-108270000D03*
X152359977Y-112170500D03*
%TO.N,/PA13{slash}SWDIO*%
X154560000Y-119730000D03*
%TO.N,/PA14{slash}SWCLK*%
X155380000Y-122530000D03*
%TO.N,/PB0*%
X153450000Y-114190000D03*
%TO.N,/PB1*%
X152690000Y-114190000D03*
%TO.N,/PB2*%
X151940000Y-114180000D03*
%TD*%
D19*
%TO.N,GND*%
X162680000Y-100200000D02*
X162680000Y-97260000D01*
X162340000Y-101540000D02*
X163260000Y-100620000D01*
X154430000Y-108850000D02*
X153265048Y-107685048D01*
D20*
X157000000Y-95230000D02*
X152320000Y-90550000D01*
X152320000Y-90550000D02*
X152320000Y-89270000D01*
D19*
X160080000Y-101255000D02*
X161625000Y-101255000D01*
X151080971Y-107685048D02*
X150450000Y-108316019D01*
X163300000Y-100250000D02*
X163300000Y-100620000D01*
X163300000Y-96640000D02*
X165100000Y-96640000D01*
D20*
X164090000Y-96260000D02*
X164820000Y-96260000D01*
D21*
X155625000Y-98715000D02*
X157000000Y-97340000D01*
D19*
X165130000Y-96260000D02*
X163300000Y-98090000D01*
X161455000Y-99985000D02*
X162080000Y-99360000D01*
X163260000Y-100620000D02*
X163300000Y-100620000D01*
D20*
X157000000Y-95770000D02*
X157000000Y-95230000D01*
D19*
X160080000Y-99985000D02*
X161455000Y-99985000D01*
X163300000Y-98090000D02*
X163300000Y-100250000D01*
X162080000Y-99360000D02*
X162080000Y-96880000D01*
D20*
X160980000Y-93150000D02*
X164090000Y-96260000D01*
D19*
X162080000Y-96880000D02*
X162590000Y-96370000D01*
X164020000Y-101340000D02*
X165480000Y-101340000D01*
D20*
X160980000Y-89290000D02*
X160980000Y-93150000D01*
D21*
X153020000Y-98715000D02*
X155625000Y-98715000D01*
D19*
X163300000Y-100620000D02*
X164020000Y-101340000D01*
D20*
X164230000Y-84540000D02*
X164230000Y-95010000D01*
D19*
X161625000Y-101255000D02*
X162680000Y-100200000D01*
X162680000Y-97260000D02*
X163300000Y-96640000D01*
X150450000Y-108316019D02*
X150450000Y-114970000D01*
X162340000Y-115060000D02*
X162340000Y-101540000D01*
X153265048Y-107685048D02*
X151080971Y-107685048D01*
D21*
X157000000Y-97340000D02*
X157000000Y-95770000D01*
D19*
X162590000Y-96370000D02*
X165370000Y-96370000D01*
D20*
X164230000Y-95010000D02*
X165480000Y-96260000D01*
X164820000Y-96260000D02*
X165480000Y-96260000D01*
D19*
%TO.N,/VDD_3.3V*%
X151300500Y-116420500D02*
X151320000Y-116440000D01*
X154432000Y-95250000D02*
X154432000Y-94488000D01*
X151340000Y-113212893D02*
X151320000Y-113232893D01*
X156040000Y-95770000D02*
X156040000Y-97070000D01*
X151340000Y-108295548D02*
X151340000Y-113212893D01*
X155665000Y-97445000D02*
X153020000Y-97445000D01*
X150590000Y-116420500D02*
X151300500Y-116420500D01*
X156040000Y-97070000D02*
X155665000Y-97445000D01*
X151320000Y-127790000D02*
X152840000Y-129310000D01*
X151329500Y-108285048D02*
X151340000Y-108295548D01*
X151320000Y-113232893D02*
X151320000Y-116440000D01*
X154952000Y-95770000D02*
X154432000Y-95250000D01*
X156040000Y-95770000D02*
X154952000Y-95770000D01*
X151320000Y-116440000D02*
X151320000Y-127790000D01*
D22*
%TO.N,/BOOT0*%
X151960000Y-105380000D02*
X156240000Y-109660000D01*
X156240000Y-109674974D02*
X158770000Y-112204974D01*
X156240000Y-109660000D02*
X156240000Y-109674974D01*
X158770000Y-115852353D02*
X160260000Y-117342353D01*
X151960000Y-103900000D02*
X151960000Y-105380000D01*
X158770000Y-112204974D02*
X158770000Y-115852353D01*
%TO.N,/NRST*%
X161420000Y-112390000D02*
X161420000Y-103920000D01*
X159219500Y-113550000D02*
X160260000Y-113550000D01*
X160260000Y-113550000D02*
X161420000Y-112390000D01*
D19*
%TO.N,Net-(C11-Pad2)*%
X159700000Y-112650000D02*
X159700000Y-112640000D01*
X156590000Y-109530000D02*
X156590000Y-108540000D01*
X159700000Y-112640000D02*
X156590000Y-109530000D01*
D22*
%TO.N,/PA4{slash}CS*%
X161405000Y-99025000D02*
X161405000Y-98425000D01*
X154270000Y-106360000D02*
X154270000Y-103660000D01*
X160960000Y-99470000D02*
X161405000Y-99025000D01*
X161405000Y-98425000D02*
X160425000Y-97445000D01*
X158460000Y-99470000D02*
X160960000Y-99470000D01*
X154270000Y-103660000D02*
X158460000Y-99470000D01*
X152360000Y-112170477D02*
X152359977Y-112170500D01*
X152360000Y-108270000D02*
X152360000Y-112170477D01*
D19*
%TO.N,/PA5{slash}SCLK*%
X148870000Y-105290000D02*
X147770000Y-106390000D01*
X153020000Y-99985000D02*
X150775000Y-99985000D01*
X150775000Y-99985000D02*
X148870000Y-101890000D01*
X148870000Y-101890000D02*
X148870000Y-105290000D01*
%TO.N,/PA6{slash}MISO*%
X149830000Y-100030000D02*
X147140000Y-100030000D01*
X156885000Y-98715000D02*
X156250000Y-99350000D01*
X146500000Y-100670000D02*
X146500000Y-107660000D01*
X160080000Y-98715000D02*
X156885000Y-98715000D01*
X147140000Y-100030000D02*
X146500000Y-100670000D01*
X146500000Y-107660000D02*
X147770000Y-108930000D01*
X150510000Y-99350000D02*
X149830000Y-100030000D01*
X156250000Y-99350000D02*
X150510000Y-99350000D01*
%TO.N,/PA7{slash}MOSI*%
X149560000Y-109680000D02*
X147770000Y-111470000D01*
X150445000Y-101255000D02*
X149560000Y-102140000D01*
X149560000Y-102140000D02*
X149560000Y-109680000D01*
X153020000Y-101255000D02*
X150445000Y-101255000D01*
D22*
%TO.N,/PA13{slash}SWDIO*%
X160460000Y-125640000D02*
X160460000Y-129310000D01*
X154560000Y-119740000D02*
X160460000Y-125640000D01*
X154560000Y-119730000D02*
X154560000Y-119740000D01*
%TO.N,/PA14{slash}SWCLK*%
X155380000Y-122470000D02*
X155380000Y-129310000D01*
%TO.N,/PB0*%
X153450000Y-114390000D02*
X165480000Y-126420000D01*
X153450000Y-114190000D02*
X153450000Y-114390000D01*
%TO.N,/PB1*%
X153030000Y-113200000D02*
X154480000Y-113200000D01*
X154480000Y-113200000D02*
X165480000Y-124200000D01*
X152690000Y-114190000D02*
X152690000Y-113540000D01*
X152690000Y-113540000D02*
X153030000Y-113200000D01*
%TO.N,/PB2*%
X152819292Y-112810000D02*
X154810000Y-112810000D01*
X151940000Y-114180000D02*
X151940000Y-113689292D01*
X163660000Y-121660000D02*
X165480000Y-121660000D01*
X154810000Y-112810000D02*
X163660000Y-121660000D01*
X151940000Y-113689292D02*
X152819292Y-112810000D01*
%TD*%
%TA.AperFunction,Conductor*%
%TO.N,GND*%
G36*
X152348350Y-114872241D02*
G01*
X152505341Y-114930626D01*
X152674015Y-114953132D01*
X152681026Y-114952494D01*
X152681030Y-114952494D01*
X152836462Y-114938348D01*
X152843483Y-114937709D01*
X152850185Y-114935531D01*
X152850187Y-114935531D01*
X152945425Y-114904586D01*
X152991706Y-114889548D01*
X153062673Y-114887520D01*
X153119737Y-114920286D01*
X164223402Y-126023951D01*
X164257428Y-126086263D01*
X164252363Y-126157078D01*
X164248595Y-126166096D01*
X164232425Y-126200932D01*
X164200688Y-126269305D01*
X164140989Y-126484570D01*
X164117251Y-126706695D01*
X164117548Y-126711848D01*
X164117548Y-126711851D01*
X164121088Y-126773240D01*
X164130110Y-126929715D01*
X164131247Y-126934761D01*
X164131248Y-126934767D01*
X164144358Y-126992939D01*
X164179222Y-127147639D01*
X164263266Y-127354616D01*
X164379987Y-127545088D01*
X164526250Y-127713938D01*
X164698126Y-127856632D01*
X164891000Y-127969338D01*
X164895825Y-127971180D01*
X164895826Y-127971181D01*
X164955046Y-127993795D01*
X165099692Y-128049030D01*
X165104760Y-128050061D01*
X165104763Y-128050062D01*
X165198520Y-128069137D01*
X165318597Y-128093567D01*
X165323772Y-128093757D01*
X165323774Y-128093757D01*
X165536673Y-128101564D01*
X165536677Y-128101564D01*
X165541837Y-128101753D01*
X165546957Y-128101097D01*
X165546959Y-128101097D01*
X165758288Y-128074025D01*
X165758289Y-128074025D01*
X165763416Y-128073368D01*
X165795451Y-128063757D01*
X165972429Y-128010661D01*
X165972434Y-128010659D01*
X165977384Y-128009174D01*
X166177994Y-127910896D01*
X166359860Y-127781173D01*
X166476560Y-127664880D01*
X166538932Y-127630964D01*
X166609739Y-127636152D01*
X166666500Y-127678798D01*
X166691194Y-127745362D01*
X166691500Y-127754131D01*
X166691500Y-128328731D01*
X166690940Y-128339748D01*
X166688925Y-128347841D01*
X166689289Y-128356809D01*
X166689288Y-128356815D01*
X166689630Y-128365236D01*
X166688328Y-128389109D01*
X166674242Y-128482617D01*
X166650566Y-128639776D01*
X166647421Y-128654563D01*
X166621418Y-128748671D01*
X166572617Y-128925281D01*
X166567723Y-128939586D01*
X166461025Y-129199406D01*
X166454455Y-129213018D01*
X166415976Y-129281851D01*
X166317408Y-129458177D01*
X166309252Y-129470908D01*
X166249704Y-129552614D01*
X166143824Y-129697892D01*
X166134207Y-129709547D01*
X165942777Y-129915083D01*
X165931827Y-129925509D01*
X165717167Y-130106627D01*
X165705047Y-130115666D01*
X165470241Y-130269766D01*
X165457126Y-130277289D01*
X165205537Y-130402162D01*
X165191617Y-130408058D01*
X164926882Y-130501896D01*
X164912365Y-130506079D01*
X164638296Y-130567530D01*
X164623384Y-130569945D01*
X164343928Y-130598126D01*
X164328826Y-130598738D01*
X164082543Y-130593917D01*
X164055996Y-130590531D01*
X164055831Y-130590516D01*
X164047105Y-130588435D01*
X164038144Y-130588887D01*
X164038142Y-130588887D01*
X163989539Y-130591340D01*
X163983189Y-130591500D01*
X161870623Y-130591500D01*
X161802502Y-130571498D01*
X161756009Y-130517842D01*
X161745905Y-130447568D01*
X161758662Y-130409311D01*
X161760615Y-130406705D01*
X161811745Y-130270316D01*
X161818500Y-130208134D01*
X161818500Y-128411866D01*
X161811745Y-128349684D01*
X161760615Y-128213295D01*
X161673261Y-128096739D01*
X161556705Y-128009385D01*
X161420316Y-127958255D01*
X161358134Y-127951500D01*
X161194500Y-127951500D01*
X161126379Y-127931498D01*
X161079886Y-127877842D01*
X161068500Y-127825500D01*
X161068500Y-125688136D01*
X161069578Y-125671690D01*
X161072672Y-125648188D01*
X161073750Y-125640000D01*
X161068500Y-125600120D01*
X161068500Y-125600115D01*
X161062759Y-125556507D01*
X161053916Y-125489336D01*
X161053915Y-125489334D01*
X161052838Y-125481150D01*
X161051960Y-125479030D01*
X160991524Y-125333124D01*
X160918477Y-125237928D01*
X160918474Y-125237925D01*
X160893987Y-125206013D01*
X160887432Y-125200983D01*
X160868621Y-125186548D01*
X160856230Y-125175681D01*
X155343478Y-119662929D01*
X155309452Y-119600617D01*
X155307358Y-119587879D01*
X155305116Y-119567889D01*
X155305116Y-119567887D01*
X155304331Y-119560892D01*
X155248368Y-119400189D01*
X155242383Y-119390610D01*
X155220420Y-119355464D01*
X155158192Y-119255879D01*
X155038286Y-119135132D01*
X155022039Y-119124821D01*
X154967169Y-119090000D01*
X154894608Y-119043951D01*
X154734300Y-118986868D01*
X154565329Y-118966720D01*
X154558326Y-118967456D01*
X154558325Y-118967456D01*
X154403101Y-118983770D01*
X154403097Y-118983771D01*
X154396093Y-118984507D01*
X154389422Y-118986778D01*
X154241673Y-119037075D01*
X154241670Y-119037076D01*
X154235003Y-119039346D01*
X154229005Y-119043036D01*
X154229003Y-119043037D01*
X154096065Y-119124821D01*
X154096063Y-119124823D01*
X154090066Y-119128512D01*
X153968486Y-119247573D01*
X153964675Y-119253487D01*
X153964673Y-119253489D01*
X153880121Y-119384687D01*
X153876304Y-119390610D01*
X153873894Y-119397232D01*
X153824688Y-119532425D01*
X153818103Y-119550516D01*
X153796775Y-119719343D01*
X153813381Y-119888699D01*
X153867094Y-120050167D01*
X153870741Y-120056189D01*
X153870742Y-120056191D01*
X153934322Y-120161173D01*
X153955246Y-120195723D01*
X154073455Y-120318132D01*
X154079351Y-120321990D01*
X154203693Y-120403357D01*
X154215846Y-120411310D01*
X154222450Y-120413766D01*
X154222452Y-120413767D01*
X154368731Y-120468168D01*
X154368733Y-120468169D01*
X154375341Y-120470626D01*
X154390411Y-120472637D01*
X154396235Y-120473414D01*
X154461111Y-120502251D01*
X154468663Y-120509212D01*
X155515024Y-121555573D01*
X155549050Y-121617885D01*
X155543985Y-121688700D01*
X155501438Y-121745536D01*
X155434918Y-121770347D01*
X155411012Y-121769782D01*
X155392324Y-121767554D01*
X155392323Y-121767554D01*
X155385329Y-121766720D01*
X155378326Y-121767456D01*
X155378325Y-121767456D01*
X155223101Y-121783770D01*
X155223097Y-121783771D01*
X155216093Y-121784507D01*
X155209422Y-121786778D01*
X155061673Y-121837075D01*
X155061670Y-121837076D01*
X155055003Y-121839346D01*
X155049005Y-121843036D01*
X155049003Y-121843037D01*
X154916065Y-121924821D01*
X154916063Y-121924823D01*
X154910066Y-121928512D01*
X154788486Y-122047573D01*
X154784675Y-122053487D01*
X154784673Y-122053489D01*
X154731206Y-122136453D01*
X154696304Y-122190610D01*
X154665597Y-122274977D01*
X154643286Y-122336277D01*
X154638103Y-122350516D01*
X154616775Y-122519343D01*
X154633381Y-122688699D01*
X154635605Y-122695384D01*
X154635605Y-122695385D01*
X154638528Y-122704171D01*
X154687094Y-122850167D01*
X154690741Y-122856189D01*
X154690742Y-122856191D01*
X154753276Y-122959447D01*
X154771500Y-123024718D01*
X154771500Y-128018678D01*
X154751498Y-128086799D01*
X154703683Y-128130439D01*
X154653607Y-128156507D01*
X154649474Y-128159610D01*
X154649471Y-128159612D01*
X154479100Y-128287530D01*
X154474965Y-128290635D01*
X154320629Y-128452138D01*
X154213201Y-128609621D01*
X154158293Y-128654621D01*
X154087768Y-128662792D01*
X154024021Y-128631538D01*
X154003324Y-128607054D01*
X153922822Y-128482617D01*
X153922820Y-128482614D01*
X153920014Y-128478277D01*
X153769670Y-128313051D01*
X153765619Y-128309852D01*
X153765615Y-128309848D01*
X153598414Y-128177800D01*
X153598410Y-128177798D01*
X153594359Y-128174598D01*
X153558028Y-128154542D01*
X153514370Y-128130442D01*
X153398789Y-128066638D01*
X153393920Y-128064914D01*
X153393916Y-128064912D01*
X153193087Y-127993795D01*
X153193083Y-127993794D01*
X153188212Y-127992069D01*
X153183119Y-127991162D01*
X153183116Y-127991161D01*
X152973373Y-127953800D01*
X152973367Y-127953799D01*
X152968284Y-127952894D01*
X152894452Y-127951992D01*
X152750081Y-127950228D01*
X152750079Y-127950228D01*
X152744911Y-127950165D01*
X152524091Y-127983955D01*
X152523928Y-127982891D01*
X152458329Y-127979488D01*
X152410948Y-127949688D01*
X152015405Y-127554145D01*
X151981379Y-127491833D01*
X151978500Y-127465050D01*
X151978500Y-116522056D01*
X151979059Y-116510200D01*
X151979059Y-116510197D01*
X151980788Y-116502463D01*
X151978562Y-116431631D01*
X151978500Y-116427673D01*
X151978500Y-115053227D01*
X151998502Y-114985106D01*
X152052158Y-114938613D01*
X152079871Y-114931238D01*
X152079568Y-114929763D01*
X152086462Y-114928348D01*
X152093483Y-114927709D01*
X152255019Y-114875222D01*
X152255022Y-114875222D01*
X152255322Y-114875124D01*
X152255339Y-114875177D01*
X152322684Y-114865668D01*
X152348350Y-114872241D01*
G37*
%TD.AperFunction*%
%TA.AperFunction,Conductor*%
G36*
X157459882Y-99393502D02*
G01*
X157506375Y-99447158D01*
X157516479Y-99517432D01*
X157486985Y-99582012D01*
X157480856Y-99588595D01*
X153873766Y-103195685D01*
X153861375Y-103206552D01*
X153836013Y-103226013D01*
X153811526Y-103257925D01*
X153811523Y-103257928D01*
X153811517Y-103257936D01*
X153778199Y-103301357D01*
X153738476Y-103353124D01*
X153677162Y-103501149D01*
X153676084Y-103509336D01*
X153676084Y-103509337D01*
X153674609Y-103520542D01*
X153665829Y-103587232D01*
X153661500Y-103620115D01*
X153661500Y-103620120D01*
X153656250Y-103660000D01*
X153657328Y-103668188D01*
X153660422Y-103691690D01*
X153661500Y-103708136D01*
X153661500Y-105866846D01*
X153641410Y-105935103D01*
X153621848Y-105965456D01*
X153568133Y-106011880D01*
X153497846Y-106021893D01*
X153433303Y-105992317D01*
X153426843Y-105986294D01*
X152605405Y-105164856D01*
X152571379Y-105102544D01*
X152568500Y-105075761D01*
X152568500Y-104392890D01*
X152589552Y-104323163D01*
X152634990Y-104254773D01*
X152638891Y-104248902D01*
X152699319Y-104089825D01*
X152723001Y-103921313D01*
X152723131Y-103912049D01*
X152723244Y-103903961D01*
X152723244Y-103903955D01*
X152723299Y-103900000D01*
X152704331Y-103730892D01*
X152696407Y-103708136D01*
X152669094Y-103629707D01*
X152648368Y-103570189D01*
X152642383Y-103560610D01*
X152574423Y-103451854D01*
X152558192Y-103425879D01*
X152541734Y-103409305D01*
X152451573Y-103318512D01*
X152438286Y-103305132D01*
X152422039Y-103294821D01*
X152363917Y-103257936D01*
X152294608Y-103213951D01*
X152134300Y-103156868D01*
X151965329Y-103136720D01*
X151958326Y-103137456D01*
X151958325Y-103137456D01*
X151803101Y-103153770D01*
X151803097Y-103153771D01*
X151796093Y-103154507D01*
X151789422Y-103156778D01*
X151641673Y-103207075D01*
X151641670Y-103207076D01*
X151635003Y-103209346D01*
X151629005Y-103213036D01*
X151629003Y-103213037D01*
X151496065Y-103294821D01*
X151496063Y-103294823D01*
X151490066Y-103298512D01*
X151368486Y-103417573D01*
X151364675Y-103423487D01*
X151364673Y-103423489D01*
X151280121Y-103554687D01*
X151276304Y-103560610D01*
X151218103Y-103720516D01*
X151196775Y-103889343D01*
X151213381Y-104058699D01*
X151215605Y-104065384D01*
X151215605Y-104065385D01*
X151218726Y-104074767D01*
X151267094Y-104220167D01*
X151270741Y-104226189D01*
X151270742Y-104226191D01*
X151333276Y-104329447D01*
X151351500Y-104394718D01*
X151351500Y-105331864D01*
X151350422Y-105348307D01*
X151346250Y-105380000D01*
X151351500Y-105419880D01*
X151351500Y-105419885D01*
X151358779Y-105475176D01*
X151367162Y-105538851D01*
X151428476Y-105686876D01*
X151433503Y-105693427D01*
X151433504Y-105693429D01*
X151501520Y-105782069D01*
X151501526Y-105782075D01*
X151526013Y-105813987D01*
X151532568Y-105819017D01*
X151551379Y-105833452D01*
X151563770Y-105844319D01*
X155726298Y-110006847D01*
X155737165Y-110019238D01*
X155781520Y-110077043D01*
X155781526Y-110077049D01*
X155806013Y-110108961D01*
X155812568Y-110113991D01*
X155831379Y-110128426D01*
X155843770Y-110139293D01*
X158124595Y-112420118D01*
X158158621Y-112482430D01*
X158161500Y-112509213D01*
X158161500Y-114996761D01*
X158141498Y-115064882D01*
X158087842Y-115111375D01*
X158017568Y-115121479D01*
X157952988Y-115091985D01*
X157946405Y-115085856D01*
X155274315Y-112413766D01*
X155263448Y-112401375D01*
X155249013Y-112382563D01*
X155243987Y-112376013D01*
X155212075Y-112351526D01*
X155212072Y-112351523D01*
X155160499Y-112311949D01*
X155123429Y-112283504D01*
X155123427Y-112283503D01*
X155116876Y-112278476D01*
X154968851Y-112217162D01*
X154960664Y-112216084D01*
X154960663Y-112216084D01*
X154949458Y-112214609D01*
X154918262Y-112210502D01*
X154849885Y-112201500D01*
X154849882Y-112201500D01*
X154849874Y-112201499D01*
X154818189Y-112197328D01*
X154810000Y-112196250D01*
X154778307Y-112200422D01*
X154761864Y-112201500D01*
X153239411Y-112201500D01*
X153171290Y-112181498D01*
X153124797Y-112127842D01*
X153114196Y-112089545D01*
X153105093Y-112008391D01*
X153104308Y-112001392D01*
X153048345Y-111840689D01*
X152987645Y-111743550D01*
X152968500Y-111676782D01*
X152968500Y-108762890D01*
X152989552Y-108693163D01*
X153034990Y-108624773D01*
X153038891Y-108618902D01*
X153099319Y-108459825D01*
X153123001Y-108291313D01*
X153123299Y-108270000D01*
X153104331Y-108100892D01*
X153048368Y-107940189D01*
X152958192Y-107795879D01*
X152929186Y-107766669D01*
X152866314Y-107703357D01*
X152838286Y-107675132D01*
X152817274Y-107661797D01*
X152731222Y-107607187D01*
X152694608Y-107583951D01*
X152534300Y-107526868D01*
X152365329Y-107506720D01*
X152358326Y-107507456D01*
X152358325Y-107507456D01*
X152203101Y-107523770D01*
X152203097Y-107523771D01*
X152196093Y-107524507D01*
X152189422Y-107526778D01*
X152041673Y-107577075D01*
X152041670Y-107577076D01*
X152035003Y-107579346D01*
X152029004Y-107583036D01*
X152029001Y-107583038D01*
X151989749Y-107607187D01*
X151921248Y-107625846D01*
X151849666Y-107601806D01*
X151761115Y-107537470D01*
X151755087Y-107534786D01*
X151755085Y-107534785D01*
X151602283Y-107466753D01*
X151602281Y-107466753D01*
X151596252Y-107464068D01*
X151507992Y-107445308D01*
X151426189Y-107427920D01*
X151426185Y-107427920D01*
X151419732Y-107426548D01*
X151239268Y-107426548D01*
X151232815Y-107427920D01*
X151232811Y-107427920D01*
X151151008Y-107445308D01*
X151062748Y-107464068D01*
X151056719Y-107466752D01*
X151056717Y-107466753D01*
X150903916Y-107534785D01*
X150903914Y-107534786D01*
X150897886Y-107537470D01*
X150892545Y-107541350D01*
X150892544Y-107541351D01*
X150757231Y-107639661D01*
X150757229Y-107639663D01*
X150751887Y-107643544D01*
X150747466Y-107648454D01*
X150747465Y-107648455D01*
X150636408Y-107771797D01*
X150631133Y-107777655D01*
X150540901Y-107933941D01*
X150536708Y-107946846D01*
X150487506Y-108098277D01*
X150485135Y-108105573D01*
X150484445Y-108112136D01*
X150484445Y-108112137D01*
X150469810Y-108251377D01*
X150456796Y-108283010D01*
X150465396Y-108296392D01*
X150469810Y-108318719D01*
X150483908Y-108452845D01*
X150485135Y-108464523D01*
X150487175Y-108470801D01*
X150487175Y-108470802D01*
X150493187Y-108489305D01*
X150540901Y-108636155D01*
X150544204Y-108641877D01*
X150544205Y-108641878D01*
X150583366Y-108709707D01*
X150631133Y-108792441D01*
X150635553Y-108797350D01*
X150635556Y-108797354D01*
X150649135Y-108812435D01*
X150679853Y-108876442D01*
X150681500Y-108896746D01*
X150681500Y-113044871D01*
X150679949Y-113064581D01*
X150675394Y-113093341D01*
X150672986Y-113104966D01*
X150663472Y-113142020D01*
X150663471Y-113142029D01*
X150661500Y-113149705D01*
X150661500Y-113171152D01*
X150659949Y-113190862D01*
X150656594Y-113212045D01*
X150657340Y-113219936D01*
X150660941Y-113258031D01*
X150661500Y-113269889D01*
X150661500Y-115336437D01*
X150641498Y-115404558D01*
X150587842Y-115451051D01*
X150546922Y-115461918D01*
X150478789Y-115468118D01*
X150415665Y-115473863D01*
X150415662Y-115473864D01*
X150409526Y-115474422D01*
X150403620Y-115476160D01*
X150403616Y-115476161D01*
X150270278Y-115515405D01*
X150229202Y-115527494D01*
X150186443Y-115549848D01*
X150089929Y-115600304D01*
X150062621Y-115614580D01*
X149916128Y-115732364D01*
X149795302Y-115876359D01*
X149792338Y-115881751D01*
X149792335Y-115881755D01*
X149762602Y-115935840D01*
X149704746Y-116041080D01*
X149647909Y-116220252D01*
X149626956Y-116407052D01*
X149627472Y-116413196D01*
X149638960Y-116550000D01*
X149642685Y-116594365D01*
X149694497Y-116775055D01*
X149697312Y-116780532D01*
X149697313Y-116780535D01*
X149739814Y-116863233D01*
X149780418Y-116942240D01*
X149784241Y-116947064D01*
X149784244Y-116947068D01*
X149869292Y-117054370D01*
X149897177Y-117089552D01*
X149901871Y-117093547D01*
X150021051Y-117194977D01*
X150040324Y-117211380D01*
X150204409Y-117303084D01*
X150383180Y-117361170D01*
X150550420Y-117381112D01*
X150615692Y-117409039D01*
X150655505Y-117467823D01*
X150661500Y-117506226D01*
X150661500Y-127707944D01*
X150660941Y-127719800D01*
X150659212Y-127727537D01*
X150659461Y-127735459D01*
X150661438Y-127798369D01*
X150661500Y-127802327D01*
X150661500Y-127831432D01*
X150662056Y-127835832D01*
X150662988Y-127847664D01*
X150664438Y-127893831D01*
X150670058Y-127913173D01*
X150670419Y-127914416D01*
X150674430Y-127933782D01*
X150677118Y-127955064D01*
X150680034Y-127962429D01*
X150680035Y-127962433D01*
X150694126Y-127998021D01*
X150697965Y-128009231D01*
X150710855Y-128053600D01*
X150721775Y-128072065D01*
X150730466Y-128089805D01*
X150738365Y-128109756D01*
X150765516Y-128147126D01*
X150772033Y-128157048D01*
X150791507Y-128189977D01*
X150791510Y-128189981D01*
X150795547Y-128196807D01*
X150810711Y-128211971D01*
X150823551Y-128227004D01*
X150836159Y-128244357D01*
X150871752Y-128273802D01*
X150880532Y-128281792D01*
X151482101Y-128883361D01*
X151516127Y-128945673D01*
X151514424Y-129006125D01*
X151500989Y-129054570D01*
X151477251Y-129276695D01*
X151477548Y-129281848D01*
X151477548Y-129281851D01*
X151486109Y-129430325D01*
X151490110Y-129499715D01*
X151491247Y-129504761D01*
X151491248Y-129504767D01*
X151502031Y-129552614D01*
X151539222Y-129717639D01*
X151571723Y-129797680D01*
X151605489Y-129880835D01*
X151623266Y-129924616D01*
X151674942Y-130008944D01*
X151737291Y-130110688D01*
X151739987Y-130115088D01*
X151886250Y-130283938D01*
X151962383Y-130347145D01*
X151988173Y-130368556D01*
X152027808Y-130427458D01*
X152029306Y-130498439D01*
X151992191Y-130558962D01*
X151928247Y-130589811D01*
X151907688Y-130591500D01*
X149039862Y-130591500D01*
X149024219Y-130590525D01*
X148990866Y-130586352D01*
X148982007Y-130587782D01*
X148982005Y-130587782D01*
X148973427Y-130589167D01*
X148949734Y-130590725D01*
X148917878Y-130589811D01*
X148709352Y-130583828D01*
X148694631Y-130582539D01*
X148429370Y-130543523D01*
X148414900Y-130540519D01*
X148156034Y-130470714D01*
X148142015Y-130466036D01*
X147893096Y-130366398D01*
X147879728Y-130360114D01*
X147644192Y-130232018D01*
X147631658Y-130224216D01*
X147412734Y-130069418D01*
X147401189Y-130060193D01*
X147201904Y-129880835D01*
X147191518Y-129870321D01*
X147014609Y-129668868D01*
X147005525Y-129657211D01*
X146853413Y-129436418D01*
X146845757Y-129423777D01*
X146730955Y-129206407D01*
X146720542Y-129186691D01*
X146714427Y-129173257D01*
X146624184Y-128939586D01*
X146617835Y-128923146D01*
X146613328Y-128909071D01*
X146546685Y-128649368D01*
X146543858Y-128634863D01*
X146519830Y-128456403D01*
X146512719Y-128403590D01*
X146511988Y-128376792D01*
X146512712Y-128367687D01*
X146510883Y-128358897D01*
X146510675Y-128355601D01*
X146508500Y-128334476D01*
X146508500Y-127666563D01*
X146528502Y-127598442D01*
X146582158Y-127551949D01*
X146652432Y-127541845D01*
X146717012Y-127571339D01*
X146729737Y-127584065D01*
X146816250Y-127683938D01*
X146988126Y-127826632D01*
X147181000Y-127939338D01*
X147185825Y-127941180D01*
X147185826Y-127941181D01*
X147237803Y-127961029D01*
X147389692Y-128019030D01*
X147394760Y-128020061D01*
X147394763Y-128020062D01*
X147502017Y-128041883D01*
X147608597Y-128063567D01*
X147613772Y-128063757D01*
X147613774Y-128063757D01*
X147826673Y-128071564D01*
X147826677Y-128071564D01*
X147831837Y-128071753D01*
X147836957Y-128071097D01*
X147836959Y-128071097D01*
X148048288Y-128044025D01*
X148048289Y-128044025D01*
X148053416Y-128043368D01*
X148058366Y-128041883D01*
X148262429Y-127980661D01*
X148262434Y-127980659D01*
X148267384Y-127979174D01*
X148467994Y-127880896D01*
X148649860Y-127751173D01*
X148655692Y-127745362D01*
X148777991Y-127623489D01*
X148808096Y-127593489D01*
X148836368Y-127554145D01*
X148935435Y-127416277D01*
X148938453Y-127412077D01*
X148966674Y-127354977D01*
X149035136Y-127216453D01*
X149035137Y-127216451D01*
X149037430Y-127211811D01*
X149102370Y-126998069D01*
X149131529Y-126776590D01*
X149133156Y-126710000D01*
X149114852Y-126487361D01*
X149060431Y-126270702D01*
X148971354Y-126065840D01*
X148850014Y-125878277D01*
X148699670Y-125713051D01*
X148695619Y-125709852D01*
X148695615Y-125709848D01*
X148528414Y-125577800D01*
X148528410Y-125577798D01*
X148524359Y-125574598D01*
X148483053Y-125551796D01*
X148433084Y-125501364D01*
X148418312Y-125431921D01*
X148443428Y-125365516D01*
X148470780Y-125338909D01*
X148514603Y-125307650D01*
X148649860Y-125211173D01*
X148655692Y-125205362D01*
X148777991Y-125083489D01*
X148808096Y-125053489D01*
X148938453Y-124872077D01*
X148966674Y-124814977D01*
X149035136Y-124676453D01*
X149035137Y-124676451D01*
X149037430Y-124671811D01*
X149102370Y-124458069D01*
X149131529Y-124236590D01*
X149133156Y-124170000D01*
X149114852Y-123947361D01*
X149060431Y-123730702D01*
X148971354Y-123525840D01*
X148850014Y-123338277D01*
X148699670Y-123173051D01*
X148695619Y-123169852D01*
X148695615Y-123169848D01*
X148528414Y-123037800D01*
X148528410Y-123037798D01*
X148524359Y-123034598D01*
X148483053Y-123011796D01*
X148433084Y-122961364D01*
X148418312Y-122891921D01*
X148443428Y-122825516D01*
X148470780Y-122798909D01*
X148514603Y-122767650D01*
X148649860Y-122671173D01*
X148655692Y-122665362D01*
X148766216Y-122555223D01*
X148808096Y-122513489D01*
X148938453Y-122332077D01*
X148966674Y-122274977D01*
X149035136Y-122136453D01*
X149035137Y-122136451D01*
X149037430Y-122131811D01*
X149102370Y-121918069D01*
X149131529Y-121696590D01*
X149133156Y-121630000D01*
X149114852Y-121407361D01*
X149060431Y-121190702D01*
X148971354Y-120985840D01*
X148850014Y-120798277D01*
X148699670Y-120633051D01*
X148695619Y-120629852D01*
X148695615Y-120629848D01*
X148528414Y-120497800D01*
X148528410Y-120497798D01*
X148524359Y-120494598D01*
X148483053Y-120471796D01*
X148433084Y-120421364D01*
X148418312Y-120351921D01*
X148443428Y-120285516D01*
X148470780Y-120258909D01*
X148514603Y-120227650D01*
X148649860Y-120131173D01*
X148655692Y-120125362D01*
X148777991Y-120003489D01*
X148808096Y-119973489D01*
X148842876Y-119925088D01*
X148935435Y-119796277D01*
X148938453Y-119792077D01*
X148966674Y-119734977D01*
X149035136Y-119596453D01*
X149035137Y-119596451D01*
X149037430Y-119591811D01*
X149093627Y-119406846D01*
X149100865Y-119383023D01*
X149100865Y-119383021D01*
X149102370Y-119378069D01*
X149131529Y-119156590D01*
X149133156Y-119090000D01*
X149114852Y-118867361D01*
X149060431Y-118650702D01*
X148971354Y-118445840D01*
X148850014Y-118258277D01*
X148699670Y-118093051D01*
X148695619Y-118089852D01*
X148695615Y-118089848D01*
X148528414Y-117957800D01*
X148528410Y-117957798D01*
X148524359Y-117954598D01*
X148483053Y-117931796D01*
X148433084Y-117881364D01*
X148418312Y-117811921D01*
X148443428Y-117745516D01*
X148470780Y-117718909D01*
X148518785Y-117684667D01*
X148649860Y-117591173D01*
X148655692Y-117585362D01*
X148777991Y-117463489D01*
X148808096Y-117433489D01*
X148842876Y-117385088D01*
X148935435Y-117256277D01*
X148938453Y-117252077D01*
X148957081Y-117214387D01*
X149035136Y-117056453D01*
X149035137Y-117056451D01*
X149037430Y-117051811D01*
X149072384Y-116936763D01*
X149100865Y-116843023D01*
X149100865Y-116843021D01*
X149102370Y-116838069D01*
X149131529Y-116616590D01*
X149131927Y-116600289D01*
X149133074Y-116553365D01*
X149133074Y-116553361D01*
X149133156Y-116550000D01*
X149114852Y-116327361D01*
X149060431Y-116110702D01*
X148971354Y-115905840D01*
X148862181Y-115737084D01*
X148852822Y-115722617D01*
X148852820Y-115722614D01*
X148850014Y-115718277D01*
X148699670Y-115553051D01*
X148695619Y-115549852D01*
X148695615Y-115549848D01*
X148528414Y-115417800D01*
X148528410Y-115417798D01*
X148524359Y-115414598D01*
X148483053Y-115391796D01*
X148433084Y-115341364D01*
X148418312Y-115271921D01*
X148443428Y-115205516D01*
X148470780Y-115178909D01*
X148514603Y-115147650D01*
X148649860Y-115051173D01*
X148655692Y-115045362D01*
X148763080Y-114938348D01*
X148808096Y-114893489D01*
X148819728Y-114877302D01*
X148935435Y-114716277D01*
X148938453Y-114712077D01*
X148966674Y-114654977D01*
X149035136Y-114516453D01*
X149035137Y-114516451D01*
X149037430Y-114511811D01*
X149102370Y-114298069D01*
X149131529Y-114076590D01*
X149131611Y-114073240D01*
X149133074Y-114013365D01*
X149133074Y-114013361D01*
X149133156Y-114010000D01*
X149114852Y-113787361D01*
X149060431Y-113570702D01*
X148971354Y-113365840D01*
X148931906Y-113304862D01*
X148852822Y-113182617D01*
X148852820Y-113182614D01*
X148850014Y-113178277D01*
X148699670Y-113013051D01*
X148695619Y-113009852D01*
X148695615Y-113009848D01*
X148528414Y-112877800D01*
X148528410Y-112877798D01*
X148524359Y-112874598D01*
X148483053Y-112851796D01*
X148433084Y-112801364D01*
X148418312Y-112731921D01*
X148443428Y-112665516D01*
X148470780Y-112638909D01*
X148514603Y-112607650D01*
X148649860Y-112511173D01*
X148655692Y-112505362D01*
X148760042Y-112401375D01*
X148808096Y-112353489D01*
X148832530Y-112319486D01*
X148935435Y-112176277D01*
X148938453Y-112172077D01*
X148947446Y-112153882D01*
X149035136Y-111976453D01*
X149035137Y-111976451D01*
X149037430Y-111971811D01*
X149069900Y-111864940D01*
X149100865Y-111763023D01*
X149100865Y-111763021D01*
X149102370Y-111758069D01*
X149131529Y-111536590D01*
X149133156Y-111470000D01*
X149114852Y-111247361D01*
X149093919Y-111164023D01*
X149096723Y-111093082D01*
X149127027Y-111044233D01*
X149967604Y-110203655D01*
X149976385Y-110195665D01*
X149976387Y-110195664D01*
X149983080Y-110191416D01*
X150031621Y-110139725D01*
X150034375Y-110136884D01*
X150054926Y-110116333D01*
X150057638Y-110112837D01*
X150065349Y-110103808D01*
X150091544Y-110075913D01*
X150096972Y-110070133D01*
X150107301Y-110051345D01*
X150118158Y-110034816D01*
X150126447Y-110024131D01*
X150126448Y-110024129D01*
X150131304Y-110017869D01*
X150149657Y-109975456D01*
X150154868Y-109964819D01*
X150177124Y-109924337D01*
X150182457Y-109903566D01*
X150188859Y-109884864D01*
X150197379Y-109865177D01*
X150204605Y-109819552D01*
X150207013Y-109807926D01*
X150216529Y-109770865D01*
X150216529Y-109770864D01*
X150218500Y-109763188D01*
X150218500Y-109741742D01*
X150220051Y-109722031D01*
X150222166Y-109708677D01*
X150223406Y-109700849D01*
X150219059Y-109654860D01*
X150218500Y-109643005D01*
X150218500Y-108331890D01*
X150232429Y-108284452D01*
X150220556Y-108260872D01*
X150218500Y-108238206D01*
X150218500Y-102464950D01*
X150238502Y-102396829D01*
X150255405Y-102375855D01*
X150680855Y-101950405D01*
X150743167Y-101916379D01*
X150769950Y-101913500D01*
X151674431Y-101913500D01*
X151742686Y-101933589D01*
X151835598Y-101993467D01*
X151835607Y-101993471D01*
X151841526Y-101997286D01*
X151848146Y-101999695D01*
X151848147Y-101999696D01*
X152007173Y-102057577D01*
X152015135Y-102060475D01*
X152022123Y-102061358D01*
X152022124Y-102061358D01*
X152038376Y-102063411D01*
X152157820Y-102078500D01*
X153876457Y-102078500D01*
X154013600Y-102063117D01*
X154022882Y-102059885D01*
X154090819Y-102036227D01*
X154188074Y-102002359D01*
X154194772Y-101998174D01*
X154338778Y-101908188D01*
X154344752Y-101904455D01*
X154357513Y-101891783D01*
X154470848Y-101779237D01*
X154470851Y-101779233D01*
X154475846Y-101774273D01*
X154574841Y-101618283D01*
X154604098Y-101536121D01*
X154634454Y-101450872D01*
X154634455Y-101450867D01*
X154636816Y-101444237D01*
X154637649Y-101437251D01*
X154637650Y-101437247D01*
X154657857Y-101267778D01*
X154658691Y-101260785D01*
X154639379Y-101077046D01*
X154612474Y-100998013D01*
X154582109Y-100908816D01*
X154582108Y-100908813D01*
X154579840Y-100902152D01*
X154562810Y-100874470D01*
X154486726Y-100750797D01*
X154486723Y-100750794D01*
X154483033Y-100744795D01*
X154447621Y-100708633D01*
X154414251Y-100645968D01*
X154420057Y-100575209D01*
X154448862Y-100531070D01*
X154470844Y-100509241D01*
X154470847Y-100509237D01*
X154475846Y-100504273D01*
X154574841Y-100348283D01*
X154608931Y-100252548D01*
X154634454Y-100180872D01*
X154634455Y-100180867D01*
X154636816Y-100174237D01*
X154643333Y-100119581D01*
X154671260Y-100054308D01*
X154730043Y-100014495D01*
X154768447Y-100008500D01*
X156167944Y-100008500D01*
X156179800Y-100009059D01*
X156179803Y-100009059D01*
X156187537Y-100010788D01*
X156258369Y-100008562D01*
X156262327Y-100008500D01*
X156291432Y-100008500D01*
X156295832Y-100007944D01*
X156307664Y-100007012D01*
X156353831Y-100005562D01*
X156374421Y-99999580D01*
X156393782Y-99995570D01*
X156400770Y-99994688D01*
X156407204Y-99993875D01*
X156407205Y-99993875D01*
X156415064Y-99992882D01*
X156422429Y-99989966D01*
X156422433Y-99989965D01*
X156458021Y-99975874D01*
X156469231Y-99972035D01*
X156513600Y-99959145D01*
X156532065Y-99948225D01*
X156549805Y-99939534D01*
X156569756Y-99931635D01*
X156607129Y-99904482D01*
X156617048Y-99897967D01*
X156649977Y-99878493D01*
X156649981Y-99878490D01*
X156656807Y-99874453D01*
X156671971Y-99859289D01*
X156687005Y-99846448D01*
X156697943Y-99838501D01*
X156704357Y-99833841D01*
X156733803Y-99798247D01*
X156741792Y-99789468D01*
X157120855Y-99410405D01*
X157183167Y-99376379D01*
X157209950Y-99373500D01*
X157391761Y-99373500D01*
X157459882Y-99393502D01*
G37*
%TD.AperFunction*%
%TA.AperFunction,Conductor*%
G36*
X156336272Y-122379799D02*
G01*
X156353983Y-122394532D01*
X159814595Y-125855144D01*
X159848621Y-125917456D01*
X159851500Y-125944239D01*
X159851500Y-127825500D01*
X159831498Y-127893621D01*
X159777842Y-127940114D01*
X159725500Y-127951500D01*
X159561866Y-127951500D01*
X159499684Y-127958255D01*
X159363295Y-128009385D01*
X159246739Y-128096739D01*
X159159385Y-128213295D01*
X159156233Y-128221703D01*
X159156232Y-128221705D01*
X159114722Y-128332433D01*
X159072081Y-128389198D01*
X159005519Y-128413898D01*
X158936170Y-128398691D01*
X158903546Y-128373004D01*
X158852799Y-128317234D01*
X158845273Y-128310215D01*
X158678139Y-128178222D01*
X158669552Y-128172517D01*
X158483117Y-128069599D01*
X158473705Y-128065369D01*
X158272959Y-127994280D01*
X158262988Y-127991646D01*
X158191837Y-127978972D01*
X158178540Y-127980432D01*
X158174000Y-127994989D01*
X158174000Y-129438000D01*
X158153998Y-129506121D01*
X158100342Y-129552614D01*
X158048000Y-129564000D01*
X157792000Y-129564000D01*
X157723879Y-129543998D01*
X157677386Y-129490342D01*
X157666000Y-129438000D01*
X157666000Y-127993102D01*
X157662082Y-127979758D01*
X157647806Y-127977771D01*
X157609324Y-127983660D01*
X157599288Y-127986051D01*
X157396868Y-128052212D01*
X157387359Y-128056209D01*
X157198463Y-128154542D01*
X157189738Y-128160036D01*
X157019433Y-128287905D01*
X157011726Y-128294748D01*
X156864590Y-128448717D01*
X156858109Y-128456722D01*
X156753498Y-128610074D01*
X156698587Y-128655076D01*
X156628062Y-128663247D01*
X156564315Y-128631993D01*
X156543618Y-128607509D01*
X156462822Y-128482617D01*
X156462820Y-128482614D01*
X156460014Y-128478277D01*
X156309670Y-128313051D01*
X156305619Y-128309852D01*
X156305615Y-128309848D01*
X156138414Y-128177800D01*
X156138410Y-128177798D01*
X156134359Y-128174598D01*
X156053607Y-128130021D01*
X156003636Y-128079588D01*
X155988500Y-128019712D01*
X155988500Y-123022890D01*
X156009552Y-122953163D01*
X156058891Y-122878902D01*
X156119319Y-122719825D01*
X156143001Y-122551313D01*
X156143299Y-122530000D01*
X156139673Y-122497671D01*
X156151958Y-122427746D01*
X156200097Y-122375562D01*
X156268806Y-122357688D01*
X156336272Y-122379799D01*
G37*
%TD.AperFunction*%
%TA.AperFunction,Conductor*%
G36*
X154399955Y-113983482D02*
G01*
X154417666Y-113998215D01*
X164137454Y-123718003D01*
X164171480Y-123780315D01*
X164169776Y-123840769D01*
X164140989Y-123944570D01*
X164140882Y-123944540D01*
X164109333Y-124006020D01*
X164047915Y-124041634D01*
X163976992Y-124038388D01*
X163928885Y-124008336D01*
X154247425Y-114326876D01*
X154213399Y-114264564D01*
X154211745Y-114220251D01*
X154212452Y-114215221D01*
X154212452Y-114215218D01*
X154213001Y-114211313D01*
X154213299Y-114190000D01*
X154203356Y-114101355D01*
X154215640Y-114031429D01*
X154263779Y-113979245D01*
X154332489Y-113961371D01*
X154399955Y-113983482D01*
G37*
%TD.AperFunction*%
%TA.AperFunction,Conductor*%
G36*
X163978160Y-83209289D02*
G01*
X164015563Y-83213494D01*
X164033424Y-83210381D01*
X164056775Y-83208523D01*
X164192387Y-83210382D01*
X164303194Y-83211901D01*
X164317319Y-83212890D01*
X164589661Y-83247427D01*
X164603586Y-83249995D01*
X164870327Y-83314871D01*
X164883876Y-83318985D01*
X165141661Y-83413382D01*
X165154663Y-83418991D01*
X165400216Y-83541710D01*
X165412506Y-83548741D01*
X165642753Y-83698246D01*
X165654177Y-83706613D01*
X165866184Y-83880999D01*
X165876597Y-83890594D01*
X165926932Y-83942501D01*
X166067713Y-84087681D01*
X166076972Y-84098371D01*
X166160870Y-84207014D01*
X166244761Y-84315650D01*
X166252772Y-84327325D01*
X166395121Y-84562054D01*
X166401772Y-84574555D01*
X166516888Y-84823783D01*
X166522093Y-84836951D01*
X166527595Y-84853538D01*
X166599275Y-85069647D01*
X166608514Y-85097503D01*
X166612209Y-85111169D01*
X166666206Y-85367240D01*
X166668852Y-85379790D01*
X166670990Y-85393787D01*
X166697134Y-85667051D01*
X166697689Y-85681200D01*
X166693612Y-85920216D01*
X166690377Y-85946511D01*
X166688147Y-85956134D01*
X166688656Y-85965097D01*
X166688656Y-85965100D01*
X166691297Y-86011579D01*
X166691500Y-86018726D01*
X166691500Y-92280621D01*
X166671498Y-92348742D01*
X166617842Y-92395235D01*
X166547568Y-92405339D01*
X166521271Y-92398603D01*
X166447718Y-92371029D01*
X166447712Y-92371027D01*
X166440316Y-92368255D01*
X166378134Y-92361500D01*
X164581866Y-92361500D01*
X164519684Y-92368255D01*
X164383295Y-92419385D01*
X164266739Y-92506739D01*
X164179385Y-92623295D01*
X164128255Y-92759684D01*
X164121500Y-92821866D01*
X164121500Y-94618134D01*
X164128255Y-94680316D01*
X164179385Y-94816705D01*
X164266739Y-94933261D01*
X164383295Y-95020615D01*
X164391704Y-95023767D01*
X164391705Y-95023768D01*
X164500960Y-95064726D01*
X164557725Y-95107367D01*
X164582425Y-95173929D01*
X164567218Y-95243278D01*
X164547825Y-95269759D01*
X164424590Y-95398717D01*
X164418104Y-95406727D01*
X164298098Y-95582649D01*
X164293000Y-95591623D01*
X164203338Y-95784783D01*
X164199775Y-95794470D01*
X164144389Y-95994183D01*
X164145912Y-96002607D01*
X164158292Y-96006000D01*
X165608000Y-96006000D01*
X165676121Y-96026002D01*
X165722614Y-96079658D01*
X165734000Y-96132000D01*
X165734000Y-96388000D01*
X165713998Y-96456121D01*
X165660342Y-96502614D01*
X165608000Y-96514000D01*
X164163225Y-96514000D01*
X164149694Y-96517973D01*
X164148257Y-96527966D01*
X164178565Y-96662446D01*
X164181645Y-96672275D01*
X164261770Y-96869603D01*
X164266413Y-96878794D01*
X164377694Y-97060388D01*
X164383777Y-97068699D01*
X164523213Y-97229667D01*
X164530580Y-97236883D01*
X164694434Y-97372916D01*
X164702881Y-97378831D01*
X164771969Y-97419203D01*
X164820693Y-97470842D01*
X164833764Y-97540625D01*
X164807033Y-97606396D01*
X164766584Y-97639752D01*
X164753607Y-97646507D01*
X164749474Y-97649610D01*
X164749471Y-97649612D01*
X164579100Y-97777530D01*
X164574965Y-97780635D01*
X164547451Y-97809427D01*
X164424319Y-97938277D01*
X164420629Y-97942138D01*
X164417715Y-97946410D01*
X164417714Y-97946411D01*
X164342239Y-98057053D01*
X164294743Y-98126680D01*
X164279598Y-98159307D01*
X164228913Y-98268500D01*
X164200688Y-98329305D01*
X164140989Y-98544570D01*
X164117251Y-98766695D01*
X164117548Y-98771848D01*
X164117548Y-98771851D01*
X164121923Y-98847723D01*
X164130110Y-98989715D01*
X164131247Y-98994761D01*
X164131248Y-98994767D01*
X164155304Y-99101508D01*
X164179222Y-99207639D01*
X164232330Y-99338429D01*
X164254693Y-99393502D01*
X164263266Y-99414616D01*
X164302382Y-99478448D01*
X164368490Y-99586326D01*
X164379987Y-99605088D01*
X164526250Y-99773938D01*
X164698126Y-99916632D01*
X164752196Y-99948228D01*
X164771955Y-99959774D01*
X164820679Y-100011412D01*
X164833750Y-100081195D01*
X164807019Y-100146967D01*
X164766562Y-100180327D01*
X164758457Y-100184546D01*
X164749738Y-100190036D01*
X164579433Y-100317905D01*
X164571726Y-100324748D01*
X164424590Y-100478717D01*
X164418104Y-100486727D01*
X164298098Y-100662649D01*
X164293000Y-100671623D01*
X164203338Y-100864783D01*
X164199775Y-100874470D01*
X164144389Y-101074183D01*
X164145912Y-101082607D01*
X164158292Y-101086000D01*
X165608000Y-101086000D01*
X165676121Y-101106002D01*
X165722614Y-101159658D01*
X165734000Y-101212000D01*
X165734000Y-101468000D01*
X165713998Y-101536121D01*
X165660342Y-101582614D01*
X165608000Y-101594000D01*
X164163225Y-101594000D01*
X164149694Y-101597973D01*
X164148257Y-101607966D01*
X164178565Y-101742446D01*
X164181645Y-101752275D01*
X164261770Y-101949603D01*
X164266413Y-101958794D01*
X164377694Y-102140388D01*
X164383777Y-102148699D01*
X164523213Y-102309667D01*
X164530580Y-102316883D01*
X164694434Y-102452916D01*
X164702881Y-102458831D01*
X164771969Y-102499203D01*
X164820693Y-102550842D01*
X164833764Y-102620625D01*
X164807033Y-102686396D01*
X164766584Y-102719752D01*
X164753607Y-102726507D01*
X164749474Y-102729610D01*
X164749471Y-102729612D01*
X164725247Y-102747800D01*
X164574965Y-102860635D01*
X164509346Y-102929301D01*
X164459272Y-102981701D01*
X164420629Y-103022138D01*
X164294743Y-103206680D01*
X164252116Y-103298512D01*
X164223225Y-103360754D01*
X164200688Y-103409305D01*
X164140989Y-103624570D01*
X164117251Y-103846695D01*
X164117548Y-103851848D01*
X164117548Y-103851851D01*
X164122932Y-103945223D01*
X164130110Y-104069715D01*
X164131247Y-104074761D01*
X164131248Y-104074767D01*
X164133069Y-104082845D01*
X164179222Y-104287639D01*
X164263266Y-104494616D01*
X164379987Y-104685088D01*
X164526250Y-104853938D01*
X164698126Y-104996632D01*
X164768595Y-105037811D01*
X164771445Y-105039476D01*
X164820169Y-105091114D01*
X164833240Y-105160897D01*
X164806509Y-105226669D01*
X164766055Y-105260027D01*
X164753607Y-105266507D01*
X164749474Y-105269610D01*
X164749471Y-105269612D01*
X164579100Y-105397530D01*
X164574965Y-105400635D01*
X164509346Y-105469301D01*
X164442883Y-105538851D01*
X164420629Y-105562138D01*
X164294743Y-105746680D01*
X164200688Y-105949305D01*
X164140989Y-106164570D01*
X164117251Y-106386695D01*
X164130110Y-106609715D01*
X164131247Y-106614761D01*
X164131248Y-106614767D01*
X164150978Y-106702314D01*
X164179222Y-106827639D01*
X164263266Y-107034616D01*
X164265965Y-107039020D01*
X164366485Y-107203054D01*
X164379987Y-107225088D01*
X164526250Y-107393938D01*
X164698126Y-107536632D01*
X164706202Y-107541351D01*
X164771445Y-107579476D01*
X164820169Y-107631114D01*
X164833240Y-107700897D01*
X164806509Y-107766669D01*
X164766055Y-107800027D01*
X164753607Y-107806507D01*
X164749474Y-107809610D01*
X164749471Y-107809612D01*
X164583518Y-107934213D01*
X164574965Y-107940635D01*
X164509346Y-108009301D01*
X164424319Y-108098277D01*
X164420629Y-108102138D01*
X164417715Y-108106410D01*
X164417714Y-108106411D01*
X164413808Y-108112137D01*
X164294743Y-108286680D01*
X164257419Y-108367089D01*
X164209277Y-108470802D01*
X164200688Y-108489305D01*
X164140989Y-108704570D01*
X164117251Y-108926695D01*
X164117548Y-108931848D01*
X164117548Y-108931851D01*
X164124210Y-109047393D01*
X164130110Y-109149715D01*
X164131247Y-109154761D01*
X164131248Y-109154767D01*
X164142580Y-109205050D01*
X164179222Y-109367639D01*
X164263266Y-109574616D01*
X164265965Y-109579020D01*
X164365681Y-109741742D01*
X164379987Y-109765088D01*
X164526250Y-109933938D01*
X164698126Y-110076632D01*
X164752044Y-110108139D01*
X164771445Y-110119476D01*
X164820169Y-110171114D01*
X164833240Y-110240897D01*
X164806509Y-110306669D01*
X164766055Y-110340027D01*
X164753607Y-110346507D01*
X164749474Y-110349610D01*
X164749471Y-110349612D01*
X164579100Y-110477530D01*
X164574965Y-110480635D01*
X164547451Y-110509427D01*
X164433709Y-110628451D01*
X164420629Y-110642138D01*
X164294743Y-110826680D01*
X164270376Y-110879174D01*
X164232426Y-110960932D01*
X164200688Y-111029305D01*
X164140989Y-111244570D01*
X164117251Y-111466695D01*
X164117548Y-111471848D01*
X164117548Y-111471851D01*
X164121088Y-111533240D01*
X164130110Y-111689715D01*
X164131247Y-111694761D01*
X164131248Y-111694767D01*
X164142243Y-111743553D01*
X164179222Y-111907639D01*
X164263266Y-112114616D01*
X164265965Y-112119020D01*
X164376191Y-112298893D01*
X164379987Y-112305088D01*
X164526250Y-112473938D01*
X164698126Y-112616632D01*
X164720106Y-112629476D01*
X164771445Y-112659476D01*
X164820169Y-112711114D01*
X164833240Y-112780897D01*
X164806509Y-112846669D01*
X164766055Y-112880027D01*
X164753607Y-112886507D01*
X164749474Y-112889610D01*
X164749471Y-112889612D01*
X164579100Y-113017530D01*
X164574965Y-113020635D01*
X164547451Y-113049427D01*
X164424319Y-113178277D01*
X164420629Y-113182138D01*
X164294743Y-113366680D01*
X164270376Y-113419174D01*
X164232426Y-113500932D01*
X164200688Y-113569305D01*
X164140989Y-113784570D01*
X164117251Y-114006695D01*
X164117548Y-114011848D01*
X164117548Y-114011851D01*
X164127028Y-114176271D01*
X164130110Y-114229715D01*
X164131247Y-114234761D01*
X164131248Y-114234767D01*
X164138654Y-114267627D01*
X164179222Y-114447639D01*
X164263266Y-114654616D01*
X164379987Y-114845088D01*
X164526250Y-115013938D01*
X164698126Y-115156632D01*
X164720106Y-115169476D01*
X164771445Y-115199476D01*
X164820169Y-115251114D01*
X164833240Y-115320897D01*
X164806509Y-115386669D01*
X164766055Y-115420027D01*
X164753607Y-115426507D01*
X164749474Y-115429610D01*
X164749471Y-115429612D01*
X164579100Y-115557530D01*
X164574965Y-115560635D01*
X164547451Y-115589427D01*
X164424319Y-115718277D01*
X164420629Y-115722138D01*
X164417715Y-115726410D01*
X164417714Y-115726411D01*
X164402798Y-115748277D01*
X164294743Y-115906680D01*
X164270376Y-115959174D01*
X164229633Y-116046949D01*
X164200688Y-116109305D01*
X164140989Y-116324570D01*
X164117251Y-116546695D01*
X164117548Y-116551848D01*
X164117548Y-116551851D01*
X164123571Y-116656304D01*
X164130110Y-116769715D01*
X164131247Y-116774761D01*
X164131248Y-116774767D01*
X164131313Y-116775055D01*
X164179222Y-116987639D01*
X164263266Y-117194616D01*
X164265965Y-117199020D01*
X164369256Y-117367576D01*
X164379987Y-117385088D01*
X164526250Y-117553938D01*
X164698126Y-117696632D01*
X164720106Y-117709476D01*
X164771445Y-117739476D01*
X164820169Y-117791114D01*
X164833240Y-117860897D01*
X164806509Y-117926669D01*
X164766055Y-117960027D01*
X164753607Y-117966507D01*
X164749474Y-117969610D01*
X164749471Y-117969612D01*
X164579100Y-118097530D01*
X164574965Y-118100635D01*
X164547451Y-118129427D01*
X164424319Y-118258277D01*
X164420629Y-118262138D01*
X164294743Y-118446680D01*
X164270376Y-118499174D01*
X164232426Y-118580932D01*
X164200688Y-118649305D01*
X164140989Y-118864570D01*
X164117251Y-119086695D01*
X164117548Y-119091848D01*
X164117548Y-119091851D01*
X164119449Y-119124821D01*
X164130110Y-119309715D01*
X164131247Y-119314761D01*
X164131248Y-119314767D01*
X164144358Y-119372939D01*
X164179222Y-119527639D01*
X164234157Y-119662929D01*
X164259912Y-119726355D01*
X164263266Y-119734616D01*
X164379987Y-119925088D01*
X164526250Y-120093938D01*
X164698126Y-120236632D01*
X164720106Y-120249476D01*
X164771445Y-120279476D01*
X164820169Y-120331114D01*
X164833240Y-120400897D01*
X164806509Y-120466669D01*
X164766055Y-120500027D01*
X164753607Y-120506507D01*
X164749474Y-120509610D01*
X164749471Y-120509612D01*
X164579100Y-120637530D01*
X164574965Y-120640635D01*
X164547451Y-120669427D01*
X164424319Y-120798277D01*
X164420629Y-120802138D01*
X164294743Y-120986680D01*
X164293945Y-120988400D01*
X164243589Y-121037088D01*
X164185074Y-121051500D01*
X163964239Y-121051500D01*
X163896118Y-121031498D01*
X163875144Y-121014595D01*
X160856828Y-117996279D01*
X160822802Y-117933967D01*
X160827867Y-117863152D01*
X160845238Y-117833335D01*
X160844721Y-117832992D01*
X160892477Y-117761114D01*
X160938891Y-117691255D01*
X160999319Y-117532178D01*
X161023001Y-117363666D01*
X161023299Y-117342353D01*
X161004331Y-117173245D01*
X160948368Y-117012542D01*
X160935798Y-116992425D01*
X160901015Y-116936763D01*
X160858192Y-116868232D01*
X160738286Y-116747485D01*
X160594608Y-116656304D01*
X160566416Y-116646265D01*
X160440935Y-116601583D01*
X160440930Y-116601582D01*
X160434300Y-116599221D01*
X160427312Y-116598388D01*
X160427309Y-116598387D01*
X160413040Y-116596686D01*
X160347767Y-116568759D01*
X160338863Y-116560667D01*
X159415405Y-115637209D01*
X159381379Y-115574897D01*
X159378500Y-115548114D01*
X159378500Y-114387460D01*
X159398502Y-114319339D01*
X159452158Y-114272846D01*
X159465560Y-114267628D01*
X159490632Y-114259482D01*
X159528123Y-114247301D01*
X159528126Y-114247300D01*
X159534822Y-114245124D01*
X159650323Y-114176271D01*
X159714841Y-114158500D01*
X160211864Y-114158500D01*
X160228307Y-114159578D01*
X160260000Y-114163750D01*
X160268189Y-114162672D01*
X160299874Y-114158501D01*
X160299884Y-114158500D01*
X160299885Y-114158500D01*
X160399457Y-114145391D01*
X160410664Y-114143916D01*
X160410666Y-114143915D01*
X160418851Y-114142838D01*
X160566876Y-114081524D01*
X160662072Y-114008477D01*
X160662075Y-114008474D01*
X160693987Y-113983987D01*
X160699017Y-113977432D01*
X160713452Y-113958621D01*
X160724319Y-113946230D01*
X161816234Y-112854315D01*
X161828625Y-112843448D01*
X161847437Y-112829013D01*
X161853987Y-112823987D01*
X161878474Y-112792075D01*
X161878478Y-112792071D01*
X161951524Y-112696876D01*
X162012838Y-112548851D01*
X162021899Y-112480025D01*
X162028500Y-112429885D01*
X162028500Y-112429880D01*
X162033750Y-112390000D01*
X162029578Y-112358307D01*
X162028500Y-112341862D01*
X162028500Y-104412890D01*
X162049552Y-104343163D01*
X162086442Y-104287639D01*
X162098891Y-104268902D01*
X162159319Y-104109825D01*
X162183001Y-103941313D01*
X162183299Y-103920000D01*
X162164331Y-103750892D01*
X162108368Y-103590189D01*
X162102383Y-103580610D01*
X162047962Y-103493521D01*
X162018192Y-103445879D01*
X161985193Y-103412648D01*
X161903248Y-103330129D01*
X161898286Y-103325132D01*
X161882039Y-103314821D01*
X161792402Y-103257936D01*
X161754608Y-103233951D01*
X161594300Y-103176868D01*
X161425329Y-103156720D01*
X161418326Y-103157456D01*
X161418325Y-103157456D01*
X161263101Y-103173770D01*
X161263097Y-103173771D01*
X161256093Y-103174507D01*
X161249422Y-103176778D01*
X161101673Y-103227075D01*
X161101670Y-103227076D01*
X161095003Y-103229346D01*
X161089005Y-103233036D01*
X161089003Y-103233037D01*
X160956065Y-103314821D01*
X160956063Y-103314823D01*
X160950066Y-103318512D01*
X160828486Y-103437573D01*
X160824675Y-103443487D01*
X160824673Y-103443489D01*
X160743020Y-103570189D01*
X160736304Y-103580610D01*
X160733894Y-103587232D01*
X160687792Y-103713897D01*
X160678103Y-103740516D01*
X160656775Y-103909343D01*
X160673381Y-104078699D01*
X160727094Y-104240167D01*
X160730741Y-104246189D01*
X160730742Y-104246191D01*
X160793276Y-104349447D01*
X160811500Y-104414718D01*
X160811500Y-112085761D01*
X160791498Y-112153882D01*
X160774595Y-112174856D01*
X160663991Y-112285460D01*
X160601679Y-112319486D01*
X160530864Y-112314421D01*
X160474028Y-112271874D01*
X160465777Y-112259365D01*
X160431747Y-112200422D01*
X160398367Y-112142607D01*
X160277613Y-112008496D01*
X160267836Y-112001392D01*
X160136957Y-111906303D01*
X160136956Y-111906302D01*
X160131615Y-111902422D01*
X160125587Y-111899738D01*
X160125585Y-111899737D01*
X159972783Y-111831705D01*
X159972781Y-111831705D01*
X159966752Y-111829020D01*
X159850880Y-111804391D01*
X159817247Y-111797242D01*
X159754349Y-111763090D01*
X157285405Y-109294145D01*
X157251379Y-109231833D01*
X157248500Y-109205050D01*
X157248500Y-109140036D01*
X157268502Y-109071915D01*
X157280858Y-109055733D01*
X157288367Y-109047393D01*
X157378599Y-108891107D01*
X157434365Y-108719475D01*
X157443123Y-108636155D01*
X157452539Y-108546565D01*
X157453229Y-108540000D01*
X157434365Y-108360525D01*
X157410595Y-108287366D01*
X157394622Y-108238206D01*
X157378599Y-108188893D01*
X157288367Y-108032607D01*
X157211284Y-107946997D01*
X157172035Y-107903407D01*
X157172034Y-107903406D01*
X157167613Y-107898496D01*
X157076617Y-107832383D01*
X157026957Y-107796303D01*
X157026956Y-107796302D01*
X157021615Y-107792422D01*
X157015587Y-107789738D01*
X157015585Y-107789737D01*
X156862783Y-107721705D01*
X156862781Y-107721705D01*
X156856752Y-107719020D01*
X156768492Y-107700260D01*
X156686689Y-107682872D01*
X156686685Y-107682872D01*
X156680232Y-107681500D01*
X156499768Y-107681500D01*
X156493315Y-107682872D01*
X156493311Y-107682872D01*
X156411508Y-107700260D01*
X156323248Y-107719020D01*
X156317219Y-107721704D01*
X156317217Y-107721705D01*
X156164416Y-107789737D01*
X156164414Y-107789738D01*
X156158386Y-107792422D01*
X156153045Y-107796302D01*
X156153044Y-107796303D01*
X156017731Y-107894613D01*
X156017729Y-107894615D01*
X156012387Y-107898496D01*
X156007966Y-107903406D01*
X156007965Y-107903407D01*
X155968717Y-107946997D01*
X155891633Y-108032607D01*
X155853647Y-108098401D01*
X155820562Y-108155705D01*
X155769179Y-108204698D01*
X155699465Y-108218133D01*
X155633554Y-108191746D01*
X155622348Y-108181799D01*
X154643603Y-107203054D01*
X154609577Y-107140742D01*
X154614642Y-107069927D01*
X154657189Y-107013091D01*
X154668181Y-107005730D01*
X154725441Y-106971597D01*
X154725447Y-106971592D01*
X154731490Y-106967990D01*
X154736584Y-106963139D01*
X154736588Y-106963136D01*
X154803833Y-106899099D01*
X154854721Y-106850639D01*
X154866823Y-106832425D01*
X154944990Y-106714773D01*
X154948891Y-106708902D01*
X155009319Y-106549825D01*
X155033001Y-106381313D01*
X155033299Y-106360000D01*
X155014331Y-106190892D01*
X154958368Y-106030189D01*
X154897645Y-105933013D01*
X154878500Y-105866245D01*
X154878500Y-103964239D01*
X154898502Y-103896118D01*
X154915405Y-103875144D01*
X157270902Y-101519647D01*
X158490662Y-101519647D01*
X158518345Y-101600967D01*
X158524306Y-101613633D01*
X158613672Y-101758897D01*
X158622292Y-101769929D01*
X158741620Y-101891783D01*
X158752470Y-101900631D01*
X158895824Y-101993017D01*
X158908373Y-101999247D01*
X159068634Y-102057577D01*
X159082242Y-102060869D01*
X159213919Y-102077503D01*
X159221810Y-102078000D01*
X159807885Y-102078000D01*
X159823124Y-102073525D01*
X159824329Y-102072135D01*
X159826000Y-102064452D01*
X159826000Y-102059885D01*
X160334000Y-102059885D01*
X160338475Y-102075124D01*
X160339865Y-102076329D01*
X160347548Y-102078000D01*
X160932905Y-102078000D01*
X160939929Y-102077607D01*
X161066490Y-102063411D01*
X161080137Y-102060311D01*
X161241210Y-102004220D01*
X161253828Y-101998174D01*
X161398466Y-101907794D01*
X161409438Y-101899097D01*
X161530456Y-101778921D01*
X161539227Y-101768012D01*
X161630613Y-101624010D01*
X161636752Y-101611424D01*
X161667147Y-101526066D01*
X161667943Y-101511987D01*
X161662273Y-101509000D01*
X160352115Y-101509000D01*
X160336876Y-101513475D01*
X160335671Y-101514865D01*
X160334000Y-101522548D01*
X160334000Y-102059885D01*
X159826000Y-102059885D01*
X159826000Y-101527115D01*
X159821525Y-101511876D01*
X159820135Y-101510671D01*
X159812452Y-101509000D01*
X158505152Y-101509000D01*
X158491621Y-101512973D01*
X158490662Y-101519647D01*
X157270902Y-101519647D01*
X158382015Y-100408534D01*
X158444327Y-100374508D01*
X158515142Y-100379573D01*
X158571978Y-100422120D01*
X158578428Y-100431608D01*
X158613670Y-100488894D01*
X158622288Y-100499924D01*
X158653083Y-100531371D01*
X158686453Y-100594036D01*
X158680647Y-100664795D01*
X158651843Y-100708935D01*
X158629544Y-100731079D01*
X158620773Y-100741988D01*
X158529387Y-100885990D01*
X158523248Y-100898576D01*
X158492853Y-100983934D01*
X158492057Y-100998013D01*
X158497727Y-101001000D01*
X159807885Y-101001000D01*
X159823124Y-100996525D01*
X159824329Y-100995135D01*
X159826000Y-100987452D01*
X159826000Y-100204500D01*
X159846002Y-100136379D01*
X159899658Y-100089886D01*
X159952000Y-100078500D01*
X160215505Y-100078500D01*
X160283626Y-100098502D01*
X160330119Y-100152158D01*
X160340223Y-100222432D01*
X160338626Y-100231283D01*
X160334000Y-100252548D01*
X160334000Y-100982885D01*
X160338475Y-100998124D01*
X160339865Y-100999329D01*
X160347548Y-101001000D01*
X161654848Y-101001000D01*
X161668379Y-100997027D01*
X161669338Y-100990353D01*
X161641655Y-100909033D01*
X161635694Y-100896367D01*
X161546328Y-100751103D01*
X161537712Y-100740076D01*
X161506917Y-100708629D01*
X161473547Y-100645964D01*
X161479353Y-100575205D01*
X161508157Y-100531065D01*
X161530456Y-100508921D01*
X161539227Y-100498012D01*
X161630613Y-100354010D01*
X161636752Y-100341424D01*
X161667147Y-100256066D01*
X161667943Y-100241987D01*
X161662273Y-100239000D01*
X161323638Y-100239000D01*
X161255517Y-100218998D01*
X161209024Y-100165342D01*
X161198920Y-100095068D01*
X161228414Y-100030488D01*
X161260085Y-100004337D01*
X161266876Y-100001524D01*
X161274636Y-99995570D01*
X161362072Y-99928477D01*
X161362075Y-99928474D01*
X161387434Y-99909015D01*
X161393987Y-99903987D01*
X161399017Y-99897432D01*
X161413452Y-99878621D01*
X161424319Y-99866230D01*
X161522644Y-99767905D01*
X161584956Y-99733879D01*
X161611739Y-99731000D01*
X161654848Y-99731000D01*
X161668379Y-99727027D01*
X161669402Y-99719908D01*
X161666417Y-99649698D01*
X161699617Y-99590932D01*
X161801234Y-99489315D01*
X161813625Y-99478448D01*
X161832437Y-99464013D01*
X161838987Y-99458987D01*
X161863474Y-99427075D01*
X161863480Y-99427069D01*
X161931496Y-99338429D01*
X161931497Y-99338427D01*
X161936524Y-99331876D01*
X161997838Y-99183851D01*
X162002119Y-99151333D01*
X162013500Y-99064885D01*
X162013500Y-99064880D01*
X162018750Y-99025000D01*
X162014578Y-98993307D01*
X162013500Y-98976864D01*
X162013500Y-98473136D01*
X162014578Y-98456690D01*
X162017672Y-98433188D01*
X162018750Y-98425000D01*
X162013500Y-98385122D01*
X162013500Y-98385115D01*
X162006336Y-98330702D01*
X161998916Y-98274338D01*
X161997838Y-98266150D01*
X161936524Y-98118125D01*
X161901741Y-98072795D01*
X161863477Y-98022928D01*
X161863474Y-98022925D01*
X161838987Y-97991013D01*
X161832432Y-97985983D01*
X161813621Y-97971548D01*
X161801230Y-97960681D01*
X161694839Y-97854290D01*
X161660813Y-97791978D01*
X161665235Y-97722929D01*
X161694453Y-97640875D01*
X161694454Y-97640869D01*
X161696816Y-97634237D01*
X161697649Y-97627251D01*
X161697650Y-97627247D01*
X161717857Y-97457778D01*
X161718691Y-97450785D01*
X161717699Y-97441342D01*
X161711128Y-97378831D01*
X161699379Y-97267046D01*
X161695338Y-97255176D01*
X161642109Y-97098816D01*
X161642108Y-97098813D01*
X161639840Y-97092152D01*
X161634183Y-97082957D01*
X161546726Y-96940797D01*
X161546723Y-96940794D01*
X161543033Y-96934795D01*
X161413770Y-96802795D01*
X161258474Y-96702714D01*
X161251853Y-96700304D01*
X161091484Y-96641934D01*
X161091483Y-96641934D01*
X161084865Y-96639525D01*
X161077877Y-96638642D01*
X161077876Y-96638642D01*
X161043572Y-96634309D01*
X160942180Y-96621500D01*
X159223543Y-96621500D01*
X159086400Y-96636883D01*
X158911926Y-96697641D01*
X158905952Y-96701374D01*
X158905950Y-96701375D01*
X158849814Y-96736453D01*
X158755248Y-96795545D01*
X158750250Y-96800508D01*
X158750249Y-96800509D01*
X158629152Y-96920763D01*
X158629149Y-96920767D01*
X158624154Y-96925727D01*
X158620380Y-96931674D01*
X158533421Y-97068699D01*
X158525159Y-97081717D01*
X158522794Y-97088359D01*
X158465546Y-97249128D01*
X158465545Y-97249133D01*
X158463184Y-97255763D01*
X158462351Y-97262749D01*
X158462350Y-97262753D01*
X158448509Y-97378831D01*
X158441309Y-97439215D01*
X158442045Y-97446218D01*
X158442045Y-97446219D01*
X158444115Y-97465913D01*
X158460621Y-97622954D01*
X158462890Y-97629620D01*
X158462891Y-97629623D01*
X158516497Y-97787087D01*
X158520160Y-97797848D01*
X158561153Y-97864480D01*
X158579810Y-97932979D01*
X158558471Y-98000693D01*
X158503911Y-98046121D01*
X158453834Y-98056500D01*
X156967060Y-98056500D01*
X156955203Y-98055941D01*
X156947463Y-98054211D01*
X156939538Y-98054460D01*
X156939537Y-98054460D01*
X156876599Y-98056438D01*
X156872641Y-98056500D01*
X156843568Y-98056500D01*
X156839634Y-98056997D01*
X156839632Y-98056997D01*
X156839189Y-98057053D01*
X156827354Y-98057985D01*
X156794564Y-98059016D01*
X156789089Y-98059188D01*
X156789088Y-98059188D01*
X156781169Y-98059437D01*
X156761444Y-98065168D01*
X156760571Y-98065421D01*
X156741218Y-98069429D01*
X156737743Y-98069868D01*
X156719936Y-98072118D01*
X156712568Y-98075035D01*
X156712565Y-98075036D01*
X156676982Y-98089125D01*
X156665747Y-98092971D01*
X156629016Y-98103642D01*
X156629013Y-98103643D01*
X156621400Y-98105855D01*
X156602935Y-98116775D01*
X156585195Y-98125466D01*
X156565244Y-98133365D01*
X156534310Y-98155840D01*
X156527874Y-98160516D01*
X156517952Y-98167033D01*
X156485023Y-98186507D01*
X156485019Y-98186510D01*
X156478193Y-98190547D01*
X156463029Y-98205711D01*
X156447996Y-98218551D01*
X156430643Y-98231159D01*
X156412478Y-98253117D01*
X156401198Y-98266752D01*
X156393208Y-98275532D01*
X156014145Y-98654595D01*
X155951833Y-98688621D01*
X155925050Y-98691500D01*
X154768561Y-98691500D01*
X154700440Y-98671498D01*
X154653947Y-98617842D01*
X154643251Y-98578669D01*
X154639624Y-98544160D01*
X154636618Y-98530486D01*
X154581655Y-98369033D01*
X154575693Y-98356365D01*
X154538263Y-98295523D01*
X154519604Y-98227022D01*
X154540943Y-98159307D01*
X154595502Y-98113879D01*
X154645580Y-98103500D01*
X155582944Y-98103500D01*
X155594800Y-98104059D01*
X155594803Y-98104059D01*
X155602537Y-98105788D01*
X155673369Y-98103562D01*
X155677327Y-98103500D01*
X155706432Y-98103500D01*
X155710832Y-98102944D01*
X155722664Y-98102012D01*
X155768831Y-98100562D01*
X155789421Y-98094580D01*
X155808782Y-98090570D01*
X155815770Y-98089688D01*
X155822204Y-98088875D01*
X155822205Y-98088875D01*
X155830064Y-98087882D01*
X155837429Y-98084966D01*
X155837433Y-98084965D01*
X155873021Y-98070874D01*
X155884231Y-98067035D01*
X155928600Y-98054145D01*
X155947065Y-98043225D01*
X155964805Y-98034534D01*
X155984756Y-98026635D01*
X156022129Y-97999482D01*
X156032048Y-97992967D01*
X156064977Y-97973493D01*
X156064981Y-97973490D01*
X156071807Y-97969453D01*
X156086971Y-97954289D01*
X156102005Y-97941448D01*
X156106199Y-97938401D01*
X156119357Y-97928841D01*
X156148803Y-97893247D01*
X156156792Y-97884468D01*
X156447605Y-97593655D01*
X156456385Y-97585665D01*
X156456387Y-97585663D01*
X156463080Y-97581416D01*
X156511605Y-97529742D01*
X156514359Y-97526901D01*
X156534927Y-97506333D01*
X156537647Y-97502826D01*
X156545353Y-97493804D01*
X156563992Y-97473955D01*
X156576972Y-97460133D01*
X156582111Y-97450785D01*
X156587303Y-97441342D01*
X156598157Y-97424818D01*
X156606445Y-97414132D01*
X156611304Y-97407868D01*
X156619263Y-97389476D01*
X156629654Y-97365465D01*
X156634876Y-97354805D01*
X156653305Y-97321284D01*
X156653306Y-97321282D01*
X156657124Y-97314337D01*
X156662459Y-97293559D01*
X156668858Y-97274869D01*
X156677380Y-97255176D01*
X156684606Y-97209552D01*
X156687013Y-97197929D01*
X156696528Y-97160868D01*
X156698500Y-97153188D01*
X156698500Y-97131741D01*
X156700051Y-97112031D01*
X156702166Y-97098677D01*
X156703406Y-97090848D01*
X156699059Y-97044859D01*
X156698500Y-97033004D01*
X156698500Y-96674881D01*
X156718502Y-96606760D01*
X156737795Y-96587412D01*
X156746000Y-96569309D01*
X156746000Y-96563558D01*
X157254000Y-96563558D01*
X157257973Y-96577089D01*
X157265871Y-96578224D01*
X157391784Y-96541643D01*
X157406220Y-96535396D01*
X157533499Y-96460124D01*
X157545926Y-96450484D01*
X157650484Y-96345926D01*
X157660124Y-96333499D01*
X157735396Y-96206220D01*
X157741643Y-96191784D01*
X157783312Y-96048359D01*
X157784768Y-96040391D01*
X157781948Y-96026969D01*
X157770487Y-96024000D01*
X157272115Y-96024000D01*
X157256876Y-96028475D01*
X157255671Y-96029865D01*
X157254000Y-96037548D01*
X157254000Y-96563558D01*
X156746000Y-96563558D01*
X156746000Y-96291379D01*
X156763546Y-96227240D01*
X156775859Y-96206420D01*
X156775859Y-96206419D01*
X156779894Y-96199597D01*
X156783733Y-96186385D01*
X156823811Y-96048431D01*
X156825606Y-96042254D01*
X156826582Y-96029865D01*
X156828307Y-96007940D01*
X156828307Y-96007932D01*
X156828500Y-96005484D01*
X156828500Y-95534516D01*
X156828307Y-95532058D01*
X156826111Y-95504156D01*
X156826110Y-95504151D01*
X156825617Y-95497885D01*
X157254000Y-95497885D01*
X157258475Y-95513124D01*
X157259865Y-95514329D01*
X157267548Y-95516000D01*
X157768424Y-95516000D01*
X157783219Y-95511656D01*
X157785063Y-95501225D01*
X157783312Y-95491641D01*
X157741643Y-95348216D01*
X157735396Y-95333780D01*
X157660124Y-95206501D01*
X157650484Y-95194074D01*
X157545926Y-95089516D01*
X157533499Y-95079876D01*
X157406220Y-95004604D01*
X157391784Y-94998357D01*
X157271395Y-94963381D01*
X157257295Y-94963421D01*
X157254000Y-94970691D01*
X157254000Y-95497885D01*
X156825617Y-95497885D01*
X156825606Y-95497746D01*
X156795596Y-95394450D01*
X156782106Y-95348016D01*
X156782105Y-95348014D01*
X156779894Y-95340403D01*
X156763546Y-95312760D01*
X156746000Y-95248621D01*
X156746000Y-94976442D01*
X156742027Y-94962911D01*
X156734129Y-94961776D01*
X156608216Y-94998357D01*
X156593778Y-95004605D01*
X156584628Y-95010016D01*
X156515812Y-95027474D01*
X156456353Y-95010015D01*
X156446423Y-95004143D01*
X156446424Y-95004143D01*
X156439597Y-95000106D01*
X156431986Y-94997895D01*
X156431984Y-94997894D01*
X156358144Y-94976442D01*
X156282254Y-94954394D01*
X156275849Y-94953890D01*
X156275844Y-94953889D01*
X156247940Y-94951693D01*
X156247932Y-94951693D01*
X156245484Y-94951500D01*
X155834516Y-94951500D01*
X155832068Y-94951693D01*
X155832060Y-94951693D01*
X155804156Y-94953889D01*
X155804151Y-94953890D01*
X155797746Y-94954394D01*
X155721856Y-94976442D01*
X155648016Y-94997894D01*
X155648014Y-94997895D01*
X155640403Y-95000106D01*
X155633581Y-95004141D01*
X155633580Y-95004141D01*
X155567562Y-95043184D01*
X155499371Y-95083512D01*
X155497067Y-95085816D01*
X155432915Y-95111006D01*
X155421771Y-95111500D01*
X155396704Y-95111500D01*
X155328583Y-95091498D01*
X155282090Y-95037842D01*
X155271986Y-94967568D01*
X155287147Y-94923264D01*
X155295454Y-94908642D01*
X155311870Y-94879744D01*
X155371203Y-94701382D01*
X155394762Y-94514892D01*
X155395138Y-94488000D01*
X155376795Y-94300926D01*
X155322465Y-94120977D01*
X155234218Y-93955008D01*
X155115415Y-93809340D01*
X155061603Y-93764823D01*
X154975329Y-93693450D01*
X154975324Y-93693447D01*
X154970580Y-93689522D01*
X154965161Y-93686592D01*
X154965158Y-93686590D01*
X154895671Y-93649019D01*
X154805231Y-93600119D01*
X154625666Y-93544534D01*
X154619541Y-93543890D01*
X154619540Y-93543890D01*
X154444852Y-93525529D01*
X154444851Y-93525529D01*
X154438724Y-93524885D01*
X154361673Y-93531897D01*
X154257665Y-93541363D01*
X154257662Y-93541364D01*
X154251526Y-93541922D01*
X154245620Y-93543660D01*
X154245616Y-93543661D01*
X154112278Y-93582905D01*
X154071202Y-93594994D01*
X153904621Y-93682080D01*
X153758128Y-93799864D01*
X153754170Y-93804582D01*
X153754167Y-93804584D01*
X153666797Y-93908708D01*
X153637302Y-93943859D01*
X153634338Y-93949251D01*
X153634335Y-93949255D01*
X153628176Y-93960459D01*
X153546746Y-94108580D01*
X153489909Y-94287752D01*
X153468956Y-94474552D01*
X153469472Y-94480696D01*
X153483056Y-94642460D01*
X153484685Y-94661865D01*
X153510591Y-94752210D01*
X153529085Y-94816705D01*
X153536497Y-94842555D01*
X153539312Y-94848032D01*
X153539313Y-94848035D01*
X153619603Y-95004263D01*
X153622418Y-95009740D01*
X153626241Y-95014564D01*
X153626244Y-95014568D01*
X153680889Y-95083512D01*
X153738251Y-95155883D01*
X153738251Y-95155884D01*
X153739177Y-95157052D01*
X153738955Y-95157228D01*
X153770430Y-95217349D01*
X153772798Y-95238014D01*
X153773438Y-95258367D01*
X153773500Y-95262327D01*
X153773500Y-95291432D01*
X153774056Y-95295832D01*
X153774988Y-95307664D01*
X153776438Y-95353831D01*
X153778650Y-95361444D01*
X153778650Y-95361445D01*
X153782419Y-95374416D01*
X153786430Y-95393782D01*
X153789118Y-95415064D01*
X153792034Y-95422429D01*
X153792035Y-95422433D01*
X153806126Y-95458021D01*
X153809965Y-95469231D01*
X153822855Y-95513600D01*
X153833775Y-95532065D01*
X153842466Y-95549805D01*
X153850365Y-95569756D01*
X153877516Y-95607126D01*
X153884033Y-95617048D01*
X153903507Y-95649977D01*
X153903510Y-95649981D01*
X153907547Y-95656807D01*
X153922711Y-95671971D01*
X153935551Y-95687004D01*
X153948159Y-95704357D01*
X153968195Y-95720932D01*
X153983752Y-95733802D01*
X153992532Y-95741792D01*
X154428345Y-96177605D01*
X154436335Y-96186385D01*
X154440584Y-96193080D01*
X154446362Y-96198506D01*
X154446363Y-96198507D01*
X154492257Y-96241604D01*
X154495099Y-96244359D01*
X154515667Y-96264927D01*
X154519170Y-96267644D01*
X154528195Y-96275352D01*
X154561867Y-96306972D01*
X154568818Y-96310793D01*
X154568819Y-96310794D01*
X154580658Y-96317303D01*
X154597182Y-96328157D01*
X154604070Y-96333499D01*
X154614132Y-96341304D01*
X154621404Y-96344451D01*
X154621406Y-96344452D01*
X154656535Y-96359654D01*
X154667196Y-96364876D01*
X154707663Y-96387124D01*
X154728441Y-96392459D01*
X154747131Y-96398858D01*
X154766824Y-96407380D01*
X154810596Y-96414313D01*
X154812448Y-96414606D01*
X154824071Y-96417013D01*
X154852072Y-96424202D01*
X154868812Y-96428500D01*
X154890259Y-96428500D01*
X154909969Y-96430051D01*
X154931152Y-96433406D01*
X154977141Y-96429059D01*
X154988996Y-96428500D01*
X155255500Y-96428500D01*
X155323621Y-96448502D01*
X155370114Y-96502158D01*
X155381500Y-96554500D01*
X155381500Y-96660500D01*
X155361498Y-96728621D01*
X155307842Y-96775114D01*
X155255500Y-96786500D01*
X154365569Y-96786500D01*
X154297314Y-96766411D01*
X154204402Y-96706533D01*
X154204393Y-96706529D01*
X154198474Y-96702714D01*
X154191853Y-96700304D01*
X154031484Y-96641934D01*
X154031483Y-96641934D01*
X154024865Y-96639525D01*
X154017877Y-96638642D01*
X154017876Y-96638642D01*
X153983572Y-96634309D01*
X153882180Y-96621500D01*
X152163543Y-96621500D01*
X152026400Y-96636883D01*
X151851926Y-96697641D01*
X151845952Y-96701374D01*
X151845950Y-96701375D01*
X151789814Y-96736453D01*
X151695248Y-96795545D01*
X151690250Y-96800508D01*
X151690249Y-96800509D01*
X151569152Y-96920763D01*
X151569149Y-96920767D01*
X151564154Y-96925727D01*
X151560380Y-96931674D01*
X151473421Y-97068699D01*
X151465159Y-97081717D01*
X151462794Y-97088359D01*
X151405546Y-97249128D01*
X151405545Y-97249133D01*
X151403184Y-97255763D01*
X151402351Y-97262749D01*
X151402350Y-97262753D01*
X151388509Y-97378831D01*
X151381309Y-97439215D01*
X151382045Y-97446218D01*
X151382045Y-97446219D01*
X151384115Y-97465913D01*
X151400621Y-97622954D01*
X151402890Y-97629620D01*
X151402891Y-97629623D01*
X151456497Y-97787087D01*
X151460160Y-97797848D01*
X151463850Y-97803846D01*
X151463851Y-97803848D01*
X151553274Y-97949203D01*
X151553277Y-97949206D01*
X151556967Y-97955205D01*
X151592730Y-97991726D01*
X151626099Y-98054389D01*
X151620293Y-98125147D01*
X151591488Y-98169288D01*
X151569544Y-98191079D01*
X151560773Y-98201988D01*
X151469383Y-98345995D01*
X151463250Y-98358571D01*
X151406036Y-98519244D01*
X151402841Y-98532868D01*
X151397170Y-98580420D01*
X151369242Y-98645693D01*
X151310459Y-98685505D01*
X151272056Y-98691500D01*
X150592056Y-98691500D01*
X150580200Y-98690941D01*
X150580197Y-98690941D01*
X150572463Y-98689212D01*
X150517446Y-98690941D01*
X150501631Y-98691438D01*
X150497673Y-98691500D01*
X150468568Y-98691500D01*
X150464168Y-98692056D01*
X150452336Y-98692988D01*
X150406169Y-98694438D01*
X150385579Y-98700420D01*
X150366218Y-98704430D01*
X150359230Y-98705312D01*
X150352796Y-98706125D01*
X150352795Y-98706125D01*
X150344936Y-98707118D01*
X150337571Y-98710034D01*
X150337567Y-98710035D01*
X150301979Y-98724126D01*
X150290769Y-98727965D01*
X150246400Y-98740855D01*
X150227943Y-98751771D01*
X150210193Y-98760466D01*
X150190244Y-98768365D01*
X150183833Y-98773023D01*
X150183831Y-98773024D01*
X150152864Y-98795523D01*
X150142946Y-98802038D01*
X150103193Y-98825548D01*
X150088032Y-98840709D01*
X150073000Y-98853548D01*
X150055643Y-98866159D01*
X150027917Y-98899675D01*
X150026198Y-98901752D01*
X150018208Y-98910533D01*
X149594144Y-99334596D01*
X149531832Y-99368621D01*
X149505049Y-99371500D01*
X149177111Y-99371500D01*
X149108990Y-99351498D01*
X149062497Y-99297842D01*
X149052393Y-99227568D01*
X149056552Y-99208872D01*
X149061837Y-99191480D01*
X149102370Y-99058069D01*
X149131529Y-98836590D01*
X149131799Y-98825548D01*
X149133074Y-98773365D01*
X149133074Y-98773361D01*
X149133156Y-98770000D01*
X149114852Y-98547361D01*
X149060431Y-98330702D01*
X148971354Y-98125840D01*
X148904773Y-98022921D01*
X148852822Y-97942617D01*
X148852820Y-97942614D01*
X148850014Y-97938277D01*
X148699670Y-97773051D01*
X148695619Y-97769852D01*
X148695615Y-97769848D01*
X148528414Y-97637800D01*
X148528410Y-97637798D01*
X148524359Y-97634598D01*
X148483053Y-97611796D01*
X148433084Y-97561364D01*
X148418312Y-97491921D01*
X148443428Y-97425516D01*
X148470780Y-97398909D01*
X148525303Y-97360018D01*
X148649860Y-97271173D01*
X148654002Y-97267046D01*
X148799732Y-97121824D01*
X148808096Y-97113489D01*
X148818740Y-97098677D01*
X148935435Y-96936277D01*
X148938453Y-96932077D01*
X148941592Y-96925727D01*
X149035136Y-96736453D01*
X149035137Y-96736451D01*
X149037430Y-96731811D01*
X149081302Y-96587412D01*
X149100865Y-96523023D01*
X149100865Y-96523021D01*
X149102370Y-96518069D01*
X149131529Y-96296590D01*
X149132840Y-96242945D01*
X149133074Y-96233365D01*
X149133074Y-96233361D01*
X149133156Y-96230000D01*
X149114852Y-96007361D01*
X149060431Y-95790702D01*
X148971354Y-95585840D01*
X148850014Y-95398277D01*
X148836973Y-95383945D01*
X148702798Y-95236488D01*
X148671746Y-95172642D01*
X148680141Y-95102143D01*
X148725317Y-95047375D01*
X148751761Y-95033706D01*
X148858297Y-94993767D01*
X148866705Y-94990615D01*
X148983261Y-94903261D01*
X149070615Y-94786705D01*
X149121745Y-94650316D01*
X149128500Y-94588134D01*
X149128500Y-92791866D01*
X149121745Y-92729684D01*
X149070615Y-92593295D01*
X148983261Y-92476739D01*
X148866705Y-92389385D01*
X148730316Y-92338255D01*
X148668134Y-92331500D01*
X146871866Y-92331500D01*
X146809684Y-92338255D01*
X146678728Y-92387348D01*
X146607923Y-92392531D01*
X146545554Y-92358610D01*
X146511424Y-92296355D01*
X146508500Y-92269366D01*
X146508500Y-89716657D01*
X151312000Y-89716657D01*
X151312301Y-89722805D01*
X151325812Y-89860603D01*
X151328195Y-89872638D01*
X151381767Y-90050076D01*
X151386441Y-90061416D01*
X151473460Y-90225077D01*
X151480249Y-90235294D01*
X151597397Y-90378933D01*
X151606041Y-90387637D01*
X151748856Y-90505784D01*
X151759027Y-90512644D01*
X151922076Y-90600804D01*
X151933381Y-90605556D01*
X152048692Y-90641250D01*
X152062795Y-90641456D01*
X152066000Y-90634701D01*
X152066000Y-90627924D01*
X152574000Y-90627924D01*
X152577973Y-90641455D01*
X152585768Y-90642575D01*
X152693521Y-90610862D01*
X152704889Y-90606269D01*
X152869154Y-90520393D01*
X152879415Y-90513679D01*
X153023873Y-90397532D01*
X153032632Y-90388954D01*
X153151778Y-90246961D01*
X153158708Y-90236841D01*
X153248002Y-90074415D01*
X153252834Y-90063142D01*
X153308880Y-89886462D01*
X153311430Y-89874468D01*
X153327607Y-89730239D01*
X153328000Y-89723215D01*
X153328000Y-89716657D01*
X159952000Y-89716657D01*
X159952301Y-89722805D01*
X159965812Y-89860603D01*
X159968195Y-89872638D01*
X160021767Y-90050076D01*
X160026441Y-90061416D01*
X160113460Y-90225077D01*
X160120249Y-90235294D01*
X160237397Y-90378933D01*
X160246041Y-90387637D01*
X160388856Y-90505784D01*
X160399027Y-90512644D01*
X160562076Y-90600804D01*
X160573381Y-90605556D01*
X160688692Y-90641250D01*
X160702795Y-90641456D01*
X160706000Y-90634701D01*
X160706000Y-90627924D01*
X161214000Y-90627924D01*
X161217973Y-90641455D01*
X161225768Y-90642575D01*
X161333521Y-90610862D01*
X161344889Y-90606269D01*
X161509154Y-90520393D01*
X161519415Y-90513679D01*
X161663873Y-90397532D01*
X161672632Y-90388954D01*
X161791778Y-90246961D01*
X161798708Y-90236841D01*
X161888002Y-90074415D01*
X161892834Y-90063142D01*
X161948880Y-89886462D01*
X161951430Y-89874468D01*
X161967607Y-89730239D01*
X161968000Y-89723215D01*
X161968000Y-89542115D01*
X161963525Y-89526876D01*
X161962135Y-89525671D01*
X161954452Y-89524000D01*
X161232115Y-89524000D01*
X161216876Y-89528475D01*
X161215671Y-89529865D01*
X161214000Y-89537548D01*
X161214000Y-90627924D01*
X160706000Y-90627924D01*
X160706000Y-89542115D01*
X160701525Y-89526876D01*
X160700135Y-89525671D01*
X160692452Y-89524000D01*
X159970115Y-89524000D01*
X159954876Y-89528475D01*
X159953671Y-89529865D01*
X159952000Y-89537548D01*
X159952000Y-89716657D01*
X153328000Y-89716657D01*
X153328000Y-89542115D01*
X153323525Y-89526876D01*
X153322135Y-89525671D01*
X153314452Y-89524000D01*
X152592115Y-89524000D01*
X152576876Y-89528475D01*
X152575671Y-89529865D01*
X152574000Y-89537548D01*
X152574000Y-90627924D01*
X152066000Y-90627924D01*
X152066000Y-89542115D01*
X152061525Y-89526876D01*
X152060135Y-89525671D01*
X152052452Y-89524000D01*
X151330115Y-89524000D01*
X151314876Y-89528475D01*
X151313671Y-89529865D01*
X151312000Y-89537548D01*
X151312000Y-89716657D01*
X146508500Y-89716657D01*
X146508500Y-88997885D01*
X151312000Y-88997885D01*
X151316475Y-89013124D01*
X151317865Y-89014329D01*
X151325548Y-89016000D01*
X152047885Y-89016000D01*
X152063124Y-89011525D01*
X152064329Y-89010135D01*
X152066000Y-89002452D01*
X152066000Y-88997885D01*
X152574000Y-88997885D01*
X152578475Y-89013124D01*
X152579865Y-89014329D01*
X152587548Y-89016000D01*
X153309885Y-89016000D01*
X153325124Y-89011525D01*
X153326329Y-89010135D01*
X153328000Y-89002452D01*
X153328000Y-88997885D01*
X159952000Y-88997885D01*
X159956475Y-89013124D01*
X159957865Y-89014329D01*
X159965548Y-89016000D01*
X160687885Y-89016000D01*
X160703124Y-89011525D01*
X160704329Y-89010135D01*
X160706000Y-89002452D01*
X160706000Y-88997885D01*
X161214000Y-88997885D01*
X161218475Y-89013124D01*
X161219865Y-89014329D01*
X161227548Y-89016000D01*
X161949885Y-89016000D01*
X161965124Y-89011525D01*
X161966329Y-89010135D01*
X161968000Y-89002452D01*
X161968000Y-88823343D01*
X161967699Y-88817195D01*
X161954188Y-88679397D01*
X161951805Y-88667362D01*
X161898233Y-88489924D01*
X161893559Y-88478584D01*
X161806540Y-88314923D01*
X161799751Y-88304706D01*
X161682603Y-88161067D01*
X161673959Y-88152363D01*
X161531144Y-88034216D01*
X161520973Y-88027356D01*
X161357924Y-87939196D01*
X161346619Y-87934444D01*
X161231308Y-87898750D01*
X161217205Y-87898544D01*
X161214000Y-87905299D01*
X161214000Y-88997885D01*
X160706000Y-88997885D01*
X160706000Y-87912076D01*
X160702027Y-87898545D01*
X160694232Y-87897425D01*
X160586479Y-87929138D01*
X160575111Y-87933731D01*
X160410846Y-88019607D01*
X160400585Y-88026321D01*
X160256127Y-88142468D01*
X160247368Y-88151046D01*
X160128222Y-88293039D01*
X160121292Y-88303159D01*
X160031998Y-88465585D01*
X160027166Y-88476858D01*
X159971120Y-88653538D01*
X159968570Y-88665532D01*
X159952393Y-88809761D01*
X159952000Y-88816785D01*
X159952000Y-88997885D01*
X153328000Y-88997885D01*
X153328000Y-88823343D01*
X153327699Y-88817195D01*
X153314188Y-88679397D01*
X153311805Y-88667362D01*
X153258233Y-88489924D01*
X153253559Y-88478584D01*
X153166540Y-88314923D01*
X153159751Y-88304706D01*
X153042603Y-88161067D01*
X153033959Y-88152363D01*
X152891144Y-88034216D01*
X152880973Y-88027356D01*
X152717924Y-87939196D01*
X152706619Y-87934444D01*
X152591308Y-87898750D01*
X152577205Y-87898544D01*
X152574000Y-87905299D01*
X152574000Y-88997885D01*
X152066000Y-88997885D01*
X152066000Y-87912076D01*
X152062027Y-87898545D01*
X152054232Y-87897425D01*
X151946479Y-87929138D01*
X151935111Y-87933731D01*
X151770846Y-88019607D01*
X151760585Y-88026321D01*
X151616127Y-88142468D01*
X151607368Y-88151046D01*
X151488222Y-88293039D01*
X151481292Y-88303159D01*
X151391998Y-88465585D01*
X151387166Y-88476858D01*
X151331120Y-88653538D01*
X151328570Y-88665532D01*
X151312393Y-88809761D01*
X151312000Y-88816785D01*
X151312000Y-88997885D01*
X146508500Y-88997885D01*
X146508500Y-86024930D01*
X146508872Y-86015252D01*
X146511942Y-85975396D01*
X146512632Y-85966445D01*
X146508975Y-85949083D01*
X146506293Y-85925548D01*
X146506121Y-85916657D01*
X151312000Y-85916657D01*
X151312301Y-85922805D01*
X151325812Y-86060603D01*
X151328195Y-86072638D01*
X151381767Y-86250076D01*
X151386441Y-86261416D01*
X151473460Y-86425077D01*
X151480249Y-86435294D01*
X151597397Y-86578933D01*
X151606041Y-86587637D01*
X151748856Y-86705784D01*
X151759027Y-86712644D01*
X151922076Y-86800804D01*
X151933381Y-86805556D01*
X152048692Y-86841250D01*
X152062795Y-86841456D01*
X152066000Y-86834701D01*
X152066000Y-86827924D01*
X152574000Y-86827924D01*
X152577973Y-86841455D01*
X152585768Y-86842575D01*
X152693521Y-86810862D01*
X152704889Y-86806269D01*
X152869154Y-86720393D01*
X152879415Y-86713679D01*
X153023873Y-86597532D01*
X153032632Y-86588954D01*
X153151778Y-86446961D01*
X153158708Y-86436841D01*
X153248002Y-86274415D01*
X153252834Y-86263142D01*
X153308880Y-86086462D01*
X153311430Y-86074468D01*
X153327607Y-85930239D01*
X153328000Y-85923215D01*
X153328000Y-85916657D01*
X159952000Y-85916657D01*
X159952301Y-85922805D01*
X159965812Y-86060603D01*
X159968195Y-86072638D01*
X160021767Y-86250076D01*
X160026441Y-86261416D01*
X160113460Y-86425077D01*
X160120249Y-86435294D01*
X160237397Y-86578933D01*
X160246041Y-86587637D01*
X160388856Y-86705784D01*
X160399027Y-86712644D01*
X160562076Y-86800804D01*
X160573381Y-86805556D01*
X160688692Y-86841250D01*
X160702795Y-86841456D01*
X160706000Y-86834701D01*
X160706000Y-86827924D01*
X161214000Y-86827924D01*
X161217973Y-86841455D01*
X161225768Y-86842575D01*
X161333521Y-86810862D01*
X161344889Y-86806269D01*
X161509154Y-86720393D01*
X161519415Y-86713679D01*
X161663873Y-86597532D01*
X161672632Y-86588954D01*
X161791778Y-86446961D01*
X161798708Y-86436841D01*
X161888002Y-86274415D01*
X161892834Y-86263142D01*
X161948880Y-86086462D01*
X161951430Y-86074468D01*
X161967607Y-85930239D01*
X161968000Y-85923215D01*
X161968000Y-85742115D01*
X161963525Y-85726876D01*
X161962135Y-85725671D01*
X161954452Y-85724000D01*
X161232115Y-85724000D01*
X161216876Y-85728475D01*
X161215671Y-85729865D01*
X161214000Y-85737548D01*
X161214000Y-86827924D01*
X160706000Y-86827924D01*
X160706000Y-85742115D01*
X160701525Y-85726876D01*
X160700135Y-85725671D01*
X160692452Y-85724000D01*
X159970115Y-85724000D01*
X159954876Y-85728475D01*
X159953671Y-85729865D01*
X159952000Y-85737548D01*
X159952000Y-85916657D01*
X153328000Y-85916657D01*
X153328000Y-85742115D01*
X153323525Y-85726876D01*
X153322135Y-85725671D01*
X153314452Y-85724000D01*
X152592115Y-85724000D01*
X152576876Y-85728475D01*
X152575671Y-85729865D01*
X152574000Y-85737548D01*
X152574000Y-86827924D01*
X152066000Y-86827924D01*
X152066000Y-85742115D01*
X152061525Y-85726876D01*
X152060135Y-85725671D01*
X152052452Y-85724000D01*
X151330115Y-85724000D01*
X151314876Y-85728475D01*
X151313671Y-85729865D01*
X151312000Y-85737548D01*
X151312000Y-85916657D01*
X146506121Y-85916657D01*
X146501362Y-85670590D01*
X146501932Y-85655933D01*
X146529353Y-85374554D01*
X146531623Y-85360062D01*
X146563847Y-85211525D01*
X146566806Y-85197885D01*
X151312000Y-85197885D01*
X151316475Y-85213124D01*
X151317865Y-85214329D01*
X151325548Y-85216000D01*
X152047885Y-85216000D01*
X152063124Y-85211525D01*
X152064329Y-85210135D01*
X152066000Y-85202452D01*
X152066000Y-85197885D01*
X152574000Y-85197885D01*
X152578475Y-85213124D01*
X152579865Y-85214329D01*
X152587548Y-85216000D01*
X153309885Y-85216000D01*
X153325124Y-85211525D01*
X153326329Y-85210135D01*
X153328000Y-85202452D01*
X153328000Y-85197885D01*
X159952000Y-85197885D01*
X159956475Y-85213124D01*
X159957865Y-85214329D01*
X159965548Y-85216000D01*
X160687885Y-85216000D01*
X160703124Y-85211525D01*
X160704329Y-85210135D01*
X160706000Y-85202452D01*
X160706000Y-85197885D01*
X161214000Y-85197885D01*
X161218475Y-85213124D01*
X161219865Y-85214329D01*
X161227548Y-85216000D01*
X161949885Y-85216000D01*
X161965124Y-85211525D01*
X161966329Y-85210135D01*
X161968000Y-85202452D01*
X161968000Y-85023343D01*
X161967699Y-85017195D01*
X161954188Y-84879397D01*
X161951805Y-84867362D01*
X161898233Y-84689924D01*
X161893559Y-84678584D01*
X161806540Y-84514923D01*
X161799751Y-84504706D01*
X161682603Y-84361067D01*
X161673959Y-84352363D01*
X161531144Y-84234216D01*
X161520973Y-84227356D01*
X161357924Y-84139196D01*
X161346619Y-84134444D01*
X161231308Y-84098750D01*
X161217205Y-84098544D01*
X161214000Y-84105299D01*
X161214000Y-85197885D01*
X160706000Y-85197885D01*
X160706000Y-84112076D01*
X160702027Y-84098545D01*
X160694232Y-84097425D01*
X160586479Y-84129138D01*
X160575111Y-84133731D01*
X160410846Y-84219607D01*
X160400585Y-84226321D01*
X160256127Y-84342468D01*
X160247368Y-84351046D01*
X160128222Y-84493039D01*
X160121292Y-84503159D01*
X160031998Y-84665585D01*
X160027166Y-84676858D01*
X159971120Y-84853538D01*
X159968570Y-84865532D01*
X159952393Y-85009761D01*
X159952000Y-85016785D01*
X159952000Y-85197885D01*
X153328000Y-85197885D01*
X153328000Y-85023343D01*
X153327699Y-85017195D01*
X153314188Y-84879397D01*
X153311805Y-84867362D01*
X153258233Y-84689924D01*
X153253559Y-84678584D01*
X153166540Y-84514923D01*
X153159751Y-84504706D01*
X153042603Y-84361067D01*
X153033959Y-84352363D01*
X152891144Y-84234216D01*
X152880973Y-84227356D01*
X152717924Y-84139196D01*
X152706619Y-84134444D01*
X152591308Y-84098750D01*
X152577205Y-84098544D01*
X152574000Y-84105299D01*
X152574000Y-85197885D01*
X152066000Y-85197885D01*
X152066000Y-84112076D01*
X152062027Y-84098545D01*
X152054232Y-84097425D01*
X151946479Y-84129138D01*
X151935111Y-84133731D01*
X151770846Y-84219607D01*
X151760585Y-84226321D01*
X151616127Y-84342468D01*
X151607368Y-84351046D01*
X151488222Y-84493039D01*
X151481292Y-84503159D01*
X151391998Y-84665585D01*
X151387166Y-84676858D01*
X151331120Y-84853538D01*
X151328570Y-84865532D01*
X151312393Y-85009761D01*
X151312000Y-85016785D01*
X151312000Y-85197885D01*
X146566806Y-85197885D01*
X146591561Y-85083774D01*
X146595499Y-85069647D01*
X146687142Y-84802197D01*
X146692697Y-84788621D01*
X146814798Y-84533642D01*
X146821893Y-84520803D01*
X146972800Y-84281743D01*
X146981339Y-84269815D01*
X147159012Y-84049908D01*
X147168879Y-84039054D01*
X147370905Y-83841288D01*
X147381966Y-83831655D01*
X147605606Y-83658708D01*
X147617713Y-83650425D01*
X147859934Y-83504645D01*
X147872921Y-83497825D01*
X148130451Y-83381181D01*
X148144143Y-83375917D01*
X148413479Y-83289995D01*
X148427689Y-83286358D01*
X148614422Y-83249995D01*
X148705190Y-83232320D01*
X148719721Y-83230360D01*
X148966569Y-83211603D01*
X148993303Y-83212419D01*
X149002764Y-83213722D01*
X149011640Y-83212402D01*
X149011646Y-83212402D01*
X149028667Y-83209871D01*
X149047200Y-83208500D01*
X163964083Y-83208500D01*
X163978160Y-83209289D01*
G37*
%TD.AperFunction*%
%TD*%
M02*
