%TF.GenerationSoftware,KiCad,Pcbnew,(6.0.8)*%
%TF.CreationDate,2022-10-17T00:22:00+08:00*%
%TF.ProjectId,UINIO-MCU-STM32L051K8,55494e49-4f2d-44d4-9355-2d53544d3332,rev?*%
%TF.SameCoordinates,Original*%
%TF.FileFunction,Legend,Top*%
%TF.FilePolarity,Positive*%
%FSLAX46Y46*%
G04 Gerber Fmt 4.6, Leading zero omitted, Abs format (unit mm)*
G04 Created by KiCad (PCBNEW (6.0.8)) date 2022-10-17 00:22:00*
%MOMM*%
%LPD*%
G01*
G04 APERTURE LIST*
G04 Aperture macros list*
%AMRoundRect*
0 Rectangle with rounded corners*
0 $1 Rounding radius*
0 $2 $3 $4 $5 $6 $7 $8 $9 X,Y pos of 4 corners*
0 Add a 4 corners polygon primitive as box body*
4,1,4,$2,$3,$4,$5,$6,$7,$8,$9,$2,$3,0*
0 Add four circle primitives for the rounded corners*
1,1,$1+$1,$2,$3*
1,1,$1+$1,$4,$5*
1,1,$1+$1,$6,$7*
1,1,$1+$1,$8,$9*
0 Add four rect primitives between the rounded corners*
20,1,$1+$1,$2,$3,$4,$5,0*
20,1,$1+$1,$4,$5,$6,$7,0*
20,1,$1+$1,$6,$7,$8,$9,0*
20,1,$1+$1,$8,$9,$2,$3,0*%
%AMRotRect*
0 Rectangle, with rotation*
0 The origin of the aperture is its center*
0 $1 length*
0 $2 width*
0 $3 Rotation angle, in degrees counterclockwise*
0 Add horizontal line*
21,1,$1,$2,0,0,$3*%
G04 Aperture macros list end*
%ADD10C,0.100000*%
%ADD11C,0.300000*%
%ADD12C,0.120000*%
%ADD13C,0.254000*%
%ADD14C,0.150000*%
%ADD15C,1.200000*%
%ADD16RoundRect,0.135000X0.135000X0.185000X-0.135000X0.185000X-0.135000X-0.185000X0.135000X-0.185000X0*%
%ADD17RoundRect,0.140000X0.140000X0.170000X-0.140000X0.170000X-0.140000X-0.170000X0.140000X-0.170000X0*%
%ADD18RoundRect,0.250000X0.375000X0.625000X-0.375000X0.625000X-0.375000X-0.625000X0.375000X-0.625000X0*%
%ADD19RoundRect,0.140000X-0.140000X-0.170000X0.140000X-0.170000X0.140000X0.170000X-0.140000X0.170000X0*%
%ADD20RotRect,0.600000X0.300000X135.000000*%
%ADD21RotRect,0.600000X0.300000X225.000000*%
%ADD22RotRect,0.600000X0.300000X315.000000*%
%ADD23RotRect,0.600000X0.300000X45.000000*%
%ADD24RotRect,3.450000X3.450000X45.000000*%
%ADD25RoundRect,0.135000X0.185000X-0.135000X0.185000X0.135000X-0.185000X0.135000X-0.185000X-0.135000X0*%
%ADD26R,1.700000X1.700000*%
%ADD27O,1.700000X1.700000*%
%ADD28O,1.800000X1.000000*%
%ADD29R,1.400000X0.700000*%
%ADD30R,1.400000X0.800000*%
%ADD31R,1.500000X1.500000*%
%ADD32RoundRect,0.218750X-0.218750X-0.256250X0.218750X-0.256250X0.218750X0.256250X-0.218750X0.256250X0*%
%ADD33RoundRect,0.140000X-0.170000X0.140000X-0.170000X-0.140000X0.170000X-0.140000X0.170000X0.140000X0*%
%ADD34RoundRect,0.140000X0.170000X-0.140000X0.170000X0.140000X-0.170000X0.140000X-0.170000X-0.140000X0*%
%ADD35R,1.800000X1.000000*%
%ADD36R,1.000000X0.600000*%
G04 APERTURE END LIST*
D10*
X147853333Y-105273333D02*
X148553333Y-105273333D01*
X148553333Y-105540000D01*
X148520000Y-105606666D01*
X148486666Y-105640000D01*
X148420000Y-105673333D01*
X148320000Y-105673333D01*
X148253333Y-105640000D01*
X148220000Y-105606666D01*
X148186666Y-105540000D01*
X148186666Y-105273333D01*
X148220000Y-106206666D02*
X148186666Y-106306666D01*
X148153333Y-106340000D01*
X148086666Y-106373333D01*
X147986666Y-106373333D01*
X147920000Y-106340000D01*
X147886666Y-106306666D01*
X147853333Y-106240000D01*
X147853333Y-105973333D01*
X148553333Y-105973333D01*
X148553333Y-106206666D01*
X148520000Y-106273333D01*
X148486666Y-106306666D01*
X148420000Y-106340000D01*
X148353333Y-106340000D01*
X148286666Y-106306666D01*
X148253333Y-106273333D01*
X148220000Y-106206666D01*
X148220000Y-105973333D01*
X148553333Y-106973333D02*
X148553333Y-106840000D01*
X148520000Y-106773333D01*
X148486666Y-106740000D01*
X148386666Y-106673333D01*
X148253333Y-106640000D01*
X147986666Y-106640000D01*
X147920000Y-106673333D01*
X147886666Y-106706666D01*
X147853333Y-106773333D01*
X147853333Y-106906666D01*
X147886666Y-106973333D01*
X147920000Y-107006666D01*
X147986666Y-107040000D01*
X148153333Y-107040000D01*
X148220000Y-107006666D01*
X148253333Y-106973333D01*
X148286666Y-106906666D01*
X148286666Y-106773333D01*
X148253333Y-106706666D01*
X148220000Y-106673333D01*
X148153333Y-106640000D01*
X131626666Y-103326666D02*
X132060000Y-103326666D01*
X131826666Y-103593333D01*
X131926666Y-103593333D01*
X131993333Y-103626666D01*
X132026666Y-103660000D01*
X132060000Y-103726666D01*
X132060000Y-103893333D01*
X132026666Y-103960000D01*
X131993333Y-103993333D01*
X131926666Y-104026666D01*
X131726666Y-104026666D01*
X131660000Y-103993333D01*
X131626666Y-103960000D01*
X132360000Y-103960000D02*
X132393333Y-103993333D01*
X132360000Y-104026666D01*
X132326666Y-103993333D01*
X132360000Y-103960000D01*
X132360000Y-104026666D01*
X132626666Y-103326666D02*
X133060000Y-103326666D01*
X132826666Y-103593333D01*
X132926666Y-103593333D01*
X132993333Y-103626666D01*
X133026666Y-103660000D01*
X133060000Y-103726666D01*
X133060000Y-103893333D01*
X133026666Y-103960000D01*
X132993333Y-103993333D01*
X132926666Y-104026666D01*
X132726666Y-104026666D01*
X132660000Y-103993333D01*
X132626666Y-103960000D01*
X133260000Y-103326666D02*
X133493333Y-104026666D01*
X133726666Y-103326666D01*
X155543333Y-92403333D02*
X156243333Y-92403333D01*
X156243333Y-92670000D01*
X156210000Y-92736666D01*
X156176666Y-92770000D01*
X156110000Y-92803333D01*
X156010000Y-92803333D01*
X155943333Y-92770000D01*
X155910000Y-92736666D01*
X155876666Y-92670000D01*
X155876666Y-92403333D01*
X155743333Y-93070000D02*
X155743333Y-93403333D01*
X155543333Y-93003333D02*
X156243333Y-93236666D01*
X155543333Y-93470000D01*
X156010000Y-94003333D02*
X155543333Y-94003333D01*
X156276666Y-93836666D02*
X155776666Y-93670000D01*
X155776666Y-94103333D01*
X132016666Y-98330000D02*
X131950000Y-98296666D01*
X131850000Y-98296666D01*
X131750000Y-98330000D01*
X131683333Y-98396666D01*
X131650000Y-98463333D01*
X131616666Y-98596666D01*
X131616666Y-98696666D01*
X131650000Y-98830000D01*
X131683333Y-98896666D01*
X131750000Y-98963333D01*
X131850000Y-98996666D01*
X131916666Y-98996666D01*
X132016666Y-98963333D01*
X132050000Y-98930000D01*
X132050000Y-98696666D01*
X131916666Y-98696666D01*
X132350000Y-98996666D02*
X132350000Y-98296666D01*
X132750000Y-98996666D01*
X132750000Y-98296666D01*
X133083333Y-98996666D02*
X133083333Y-98296666D01*
X133250000Y-98296666D01*
X133350000Y-98330000D01*
X133416666Y-98396666D01*
X133450000Y-98463333D01*
X133483333Y-98596666D01*
X133483333Y-98696666D01*
X133450000Y-98830000D01*
X133416666Y-98896666D01*
X133350000Y-98963333D01*
X133250000Y-98996666D01*
X133083333Y-98996666D01*
X165663333Y-92403333D02*
X166363333Y-92403333D01*
X166363333Y-92670000D01*
X166330000Y-92736666D01*
X166296666Y-92770000D01*
X166230000Y-92803333D01*
X166130000Y-92803333D01*
X166063333Y-92770000D01*
X166030000Y-92736666D01*
X165996666Y-92670000D01*
X165996666Y-92403333D01*
X165863333Y-93070000D02*
X165863333Y-93403333D01*
X165663333Y-93003333D02*
X166363333Y-93236666D01*
X165663333Y-93470000D01*
X166363333Y-93836666D02*
X166363333Y-93903333D01*
X166330000Y-93970000D01*
X166296666Y-94003333D01*
X166230000Y-94036666D01*
X166096666Y-94070000D01*
X165930000Y-94070000D01*
X165796666Y-94036666D01*
X165730000Y-94003333D01*
X165696666Y-93970000D01*
X165663333Y-93903333D01*
X165663333Y-93836666D01*
X165696666Y-93770000D01*
X165730000Y-93736666D01*
X165796666Y-93703333D01*
X165930000Y-93670000D01*
X166096666Y-93670000D01*
X166230000Y-93703333D01*
X166296666Y-93736666D01*
X166330000Y-93770000D01*
X166363333Y-93836666D01*
X163133333Y-92403333D02*
X163833333Y-92403333D01*
X163833333Y-92670000D01*
X163800000Y-92736666D01*
X163766666Y-92770000D01*
X163700000Y-92803333D01*
X163600000Y-92803333D01*
X163533333Y-92770000D01*
X163500000Y-92736666D01*
X163466666Y-92670000D01*
X163466666Y-92403333D01*
X163333333Y-93070000D02*
X163333333Y-93403333D01*
X163133333Y-93003333D02*
X163833333Y-93236666D01*
X163133333Y-93470000D01*
X163133333Y-94070000D02*
X163133333Y-93670000D01*
X163133333Y-93870000D02*
X163833333Y-93870000D01*
X163733333Y-93803333D01*
X163666666Y-93736666D01*
X163633333Y-93670000D01*
X132623333Y-92391000D02*
X133323333Y-92391000D01*
X133323333Y-92657666D01*
X133290000Y-92724333D01*
X133256666Y-92757666D01*
X133190000Y-92791000D01*
X133090000Y-92791000D01*
X133023333Y-92757666D01*
X132990000Y-92724333D01*
X132956666Y-92657666D01*
X132956666Y-92391000D01*
X132823333Y-93057666D02*
X132823333Y-93391000D01*
X132623333Y-92991000D02*
X133323333Y-93224333D01*
X132623333Y-93457666D01*
X132623333Y-94057666D02*
X132623333Y-93657666D01*
X132623333Y-93857666D02*
X133323333Y-93857666D01*
X133223333Y-93791000D01*
X133156666Y-93724333D01*
X133123333Y-93657666D01*
X133323333Y-94691000D02*
X133323333Y-94357666D01*
X132990000Y-94324333D01*
X133023333Y-94357666D01*
X133056666Y-94424333D01*
X133056666Y-94591000D01*
X133023333Y-94657666D01*
X132990000Y-94691000D01*
X132923333Y-94724333D01*
X132756666Y-94724333D01*
X132690000Y-94691000D01*
X132656666Y-94657666D01*
X132623333Y-94591000D01*
X132623333Y-94424333D01*
X132656666Y-94357666D01*
X132690000Y-94324333D01*
X155453333Y-104636000D02*
X156153333Y-104636000D01*
X155453333Y-105036000D01*
X156153333Y-105036000D01*
X155453333Y-105769333D02*
X155786666Y-105536000D01*
X155453333Y-105369333D02*
X156153333Y-105369333D01*
X156153333Y-105636000D01*
X156120000Y-105702666D01*
X156086666Y-105736000D01*
X156020000Y-105769333D01*
X155920000Y-105769333D01*
X155853333Y-105736000D01*
X155820000Y-105702666D01*
X155786666Y-105636000D01*
X155786666Y-105369333D01*
X155486666Y-106036000D02*
X155453333Y-106136000D01*
X155453333Y-106302666D01*
X155486666Y-106369333D01*
X155520000Y-106402666D01*
X155586666Y-106436000D01*
X155653333Y-106436000D01*
X155720000Y-106402666D01*
X155753333Y-106369333D01*
X155786666Y-106302666D01*
X155820000Y-106169333D01*
X155853333Y-106102666D01*
X155886666Y-106069333D01*
X155953333Y-106036000D01*
X156020000Y-106036000D01*
X156086666Y-106069333D01*
X156120000Y-106102666D01*
X156153333Y-106169333D01*
X156153333Y-106336000D01*
X156120000Y-106436000D01*
X156153333Y-106636000D02*
X156153333Y-107036000D01*
X155453333Y-106836000D02*
X156153333Y-106836000D01*
X158033333Y-92403333D02*
X158733333Y-92403333D01*
X158733333Y-92670000D01*
X158700000Y-92736666D01*
X158666666Y-92770000D01*
X158600000Y-92803333D01*
X158500000Y-92803333D01*
X158433333Y-92770000D01*
X158400000Y-92736666D01*
X158366666Y-92670000D01*
X158366666Y-92403333D01*
X158233333Y-93070000D02*
X158233333Y-93403333D01*
X158033333Y-93003333D02*
X158733333Y-93236666D01*
X158033333Y-93470000D01*
X158733333Y-93636666D02*
X158733333Y-94070000D01*
X158466666Y-93836666D01*
X158466666Y-93936666D01*
X158433333Y-94003333D01*
X158400000Y-94036666D01*
X158333333Y-94070000D01*
X158166666Y-94070000D01*
X158100000Y-94036666D01*
X158066666Y-94003333D01*
X158033333Y-93936666D01*
X158033333Y-93736666D01*
X158066666Y-93670000D01*
X158100000Y-93636666D01*
X158750000Y-105576666D02*
X158783333Y-105510000D01*
X158783333Y-105410000D01*
X158750000Y-105310000D01*
X158683333Y-105243333D01*
X158616666Y-105210000D01*
X158483333Y-105176666D01*
X158383333Y-105176666D01*
X158250000Y-105210000D01*
X158183333Y-105243333D01*
X158116666Y-105310000D01*
X158083333Y-105410000D01*
X158083333Y-105476666D01*
X158116666Y-105576666D01*
X158150000Y-105610000D01*
X158383333Y-105610000D01*
X158383333Y-105476666D01*
X158083333Y-105910000D02*
X158783333Y-105910000D01*
X158083333Y-106310000D01*
X158783333Y-106310000D01*
X158083333Y-106643333D02*
X158783333Y-106643333D01*
X158783333Y-106810000D01*
X158750000Y-106910000D01*
X158683333Y-106976666D01*
X158616666Y-107010000D01*
X158483333Y-107043333D01*
X158383333Y-107043333D01*
X158250000Y-107010000D01*
X158183333Y-106976666D01*
X158116666Y-106910000D01*
X158083333Y-106810000D01*
X158083333Y-106643333D01*
X131606666Y-96833333D02*
X131706666Y-96866666D01*
X131873333Y-96866666D01*
X131940000Y-96833333D01*
X131973333Y-96800000D01*
X132006666Y-96733333D01*
X132006666Y-96666666D01*
X131973333Y-96600000D01*
X131940000Y-96566666D01*
X131873333Y-96533333D01*
X131740000Y-96500000D01*
X131673333Y-96466666D01*
X131640000Y-96433333D01*
X131606666Y-96366666D01*
X131606666Y-96300000D01*
X131640000Y-96233333D01*
X131673333Y-96200000D01*
X131740000Y-96166666D01*
X131906666Y-96166666D01*
X132006666Y-96200000D01*
X132240000Y-96166666D02*
X132406666Y-96866666D01*
X132540000Y-96366666D01*
X132673333Y-96866666D01*
X132840000Y-96166666D01*
X133106666Y-96866666D02*
X133106666Y-96166666D01*
X133273333Y-96166666D01*
X133373333Y-96200000D01*
X133440000Y-96266666D01*
X133473333Y-96333333D01*
X133506666Y-96466666D01*
X133506666Y-96566666D01*
X133473333Y-96700000D01*
X133440000Y-96766666D01*
X133373333Y-96833333D01*
X133273333Y-96866666D01*
X133106666Y-96866666D01*
X133806666Y-96866666D02*
X133806666Y-96166666D01*
X134273333Y-96166666D02*
X134406666Y-96166666D01*
X134473333Y-96200000D01*
X134540000Y-96266666D01*
X134573333Y-96400000D01*
X134573333Y-96633333D01*
X134540000Y-96766666D01*
X134473333Y-96833333D01*
X134406666Y-96866666D01*
X134273333Y-96866666D01*
X134206666Y-96833333D01*
X134140000Y-96766666D01*
X134106666Y-96633333D01*
X134106666Y-96400000D01*
X134140000Y-96266666D01*
X134206666Y-96200000D01*
X134273333Y-96166666D01*
X135173333Y-105273333D02*
X135873333Y-105273333D01*
X135873333Y-105540000D01*
X135840000Y-105606666D01*
X135806666Y-105640000D01*
X135740000Y-105673333D01*
X135640000Y-105673333D01*
X135573333Y-105640000D01*
X135540000Y-105606666D01*
X135506666Y-105540000D01*
X135506666Y-105273333D01*
X135540000Y-106206666D02*
X135506666Y-106306666D01*
X135473333Y-106340000D01*
X135406666Y-106373333D01*
X135306666Y-106373333D01*
X135240000Y-106340000D01*
X135206666Y-106306666D01*
X135173333Y-106240000D01*
X135173333Y-105973333D01*
X135873333Y-105973333D01*
X135873333Y-106206666D01*
X135840000Y-106273333D01*
X135806666Y-106306666D01*
X135740000Y-106340000D01*
X135673333Y-106340000D01*
X135606666Y-106306666D01*
X135573333Y-106273333D01*
X135540000Y-106206666D01*
X135540000Y-105973333D01*
X135173333Y-107040000D02*
X135173333Y-106640000D01*
X135173333Y-106840000D02*
X135873333Y-106840000D01*
X135773333Y-106773333D01*
X135706666Y-106706666D01*
X135673333Y-106640000D01*
X150393333Y-92403333D02*
X151093333Y-92403333D01*
X151093333Y-92670000D01*
X151060000Y-92736666D01*
X151026666Y-92770000D01*
X150960000Y-92803333D01*
X150860000Y-92803333D01*
X150793333Y-92770000D01*
X150760000Y-92736666D01*
X150726666Y-92670000D01*
X150726666Y-92403333D01*
X150593333Y-93070000D02*
X150593333Y-93403333D01*
X150393333Y-93003333D02*
X151093333Y-93236666D01*
X150393333Y-93470000D01*
X151093333Y-94003333D02*
X151093333Y-93870000D01*
X151060000Y-93803333D01*
X151026666Y-93770000D01*
X150926666Y-93703333D01*
X150793333Y-93670000D01*
X150526666Y-93670000D01*
X150460000Y-93703333D01*
X150426666Y-93736666D01*
X150393333Y-93803333D01*
X150393333Y-93936666D01*
X150426666Y-94003333D01*
X150460000Y-94036666D01*
X150526666Y-94070000D01*
X150693333Y-94070000D01*
X150760000Y-94036666D01*
X150793333Y-94003333D01*
X150826666Y-93936666D01*
X150826666Y-93803333D01*
X150793333Y-93736666D01*
X150760000Y-93703333D01*
X150693333Y-93670000D01*
X152913333Y-105272333D02*
X153613333Y-105272333D01*
X153613333Y-105539000D01*
X153580000Y-105605666D01*
X153546666Y-105639000D01*
X153480000Y-105672333D01*
X153380000Y-105672333D01*
X153313333Y-105639000D01*
X153280000Y-105605666D01*
X153246666Y-105539000D01*
X153246666Y-105272333D01*
X153280000Y-106205666D02*
X153246666Y-106305666D01*
X153213333Y-106339000D01*
X153146666Y-106372333D01*
X153046666Y-106372333D01*
X152980000Y-106339000D01*
X152946666Y-106305666D01*
X152913333Y-106239000D01*
X152913333Y-105972333D01*
X153613333Y-105972333D01*
X153613333Y-106205666D01*
X153580000Y-106272333D01*
X153546666Y-106305666D01*
X153480000Y-106339000D01*
X153413333Y-106339000D01*
X153346666Y-106305666D01*
X153313333Y-106272333D01*
X153280000Y-106205666D01*
X153280000Y-105972333D01*
X153313333Y-106772333D02*
X153346666Y-106705666D01*
X153380000Y-106672333D01*
X153446666Y-106639000D01*
X153480000Y-106639000D01*
X153546666Y-106672333D01*
X153580000Y-106705666D01*
X153613333Y-106772333D01*
X153613333Y-106905666D01*
X153580000Y-106972333D01*
X153546666Y-107005666D01*
X153480000Y-107039000D01*
X153446666Y-107039000D01*
X153380000Y-107005666D01*
X153346666Y-106972333D01*
X153313333Y-106905666D01*
X153313333Y-106772333D01*
X153280000Y-106705666D01*
X153246666Y-106672333D01*
X153180000Y-106639000D01*
X153046666Y-106639000D01*
X152980000Y-106672333D01*
X152946666Y-106705666D01*
X152913333Y-106772333D01*
X152913333Y-106905666D01*
X152946666Y-106972333D01*
X152980000Y-107005666D01*
X153046666Y-107039000D01*
X153180000Y-107039000D01*
X153246666Y-107005666D01*
X153280000Y-106972333D01*
X153313333Y-106905666D01*
X137753333Y-105273333D02*
X138453333Y-105273333D01*
X138453333Y-105540000D01*
X138420000Y-105606666D01*
X138386666Y-105640000D01*
X138320000Y-105673333D01*
X138220000Y-105673333D01*
X138153333Y-105640000D01*
X138120000Y-105606666D01*
X138086666Y-105540000D01*
X138086666Y-105273333D01*
X138120000Y-106206666D02*
X138086666Y-106306666D01*
X138053333Y-106340000D01*
X137986666Y-106373333D01*
X137886666Y-106373333D01*
X137820000Y-106340000D01*
X137786666Y-106306666D01*
X137753333Y-106240000D01*
X137753333Y-105973333D01*
X138453333Y-105973333D01*
X138453333Y-106206666D01*
X138420000Y-106273333D01*
X138386666Y-106306666D01*
X138320000Y-106340000D01*
X138253333Y-106340000D01*
X138186666Y-106306666D01*
X138153333Y-106273333D01*
X138120000Y-106206666D01*
X138120000Y-105973333D01*
X138386666Y-106640000D02*
X138420000Y-106673333D01*
X138453333Y-106740000D01*
X138453333Y-106906666D01*
X138420000Y-106973333D01*
X138386666Y-107006666D01*
X138320000Y-107040000D01*
X138253333Y-107040000D01*
X138153333Y-107006666D01*
X137753333Y-106606666D01*
X137753333Y-107040000D01*
X166338333Y-106280666D02*
X166338333Y-105947333D01*
X166005000Y-105914000D01*
X166038333Y-105947333D01*
X166071666Y-106014000D01*
X166071666Y-106180666D01*
X166038333Y-106247333D01*
X166005000Y-106280666D01*
X165938333Y-106314000D01*
X165771666Y-106314000D01*
X165705000Y-106280666D01*
X165671666Y-106247333D01*
X165638333Y-106180666D01*
X165638333Y-106014000D01*
X165671666Y-105947333D01*
X165705000Y-105914000D01*
X166338333Y-106514000D02*
X165638333Y-106747333D01*
X166338333Y-106980666D01*
X164337142Y-103177857D02*
X165194285Y-103177857D01*
X164801428Y-103177857D02*
X164801428Y-103499285D01*
X165015714Y-103285000D02*
X165087142Y-103320714D01*
X165265714Y-103463571D01*
X165051428Y-103035000D02*
X165230000Y-103249285D01*
X164551428Y-103285000D02*
X164372857Y-103463571D01*
X165194285Y-102677857D02*
X164730000Y-102749285D01*
X164408571Y-102749285D01*
X164694285Y-102749285D02*
X164515714Y-102963571D01*
X164730000Y-103035000D01*
X164980000Y-102820714D02*
X164622857Y-103177857D01*
X165837142Y-102820714D02*
X166372857Y-102820714D01*
X166051428Y-103070714D02*
X166301428Y-103070714D01*
X165837142Y-103070714D02*
X166158571Y-103070714D01*
X166158571Y-103499285D02*
X166372857Y-103499285D01*
X166194285Y-103106428D02*
X166194285Y-103499285D01*
X166372857Y-103392142D02*
X166337142Y-103499285D01*
X166194285Y-102927857D02*
X166337142Y-103035000D01*
X165551428Y-102856428D02*
X165480000Y-102999285D01*
X165730000Y-102892142D02*
X165658571Y-102999285D01*
X165444285Y-103213571D01*
X166087142Y-102820714D02*
X165980000Y-102927857D01*
X165837142Y-103070714D01*
X166051428Y-102642142D02*
X166087142Y-102785000D01*
X165658571Y-102642142D02*
X165515714Y-102927857D01*
X165872857Y-103427857D02*
X165730000Y-103499285D01*
X165944285Y-103142142D02*
X165908571Y-103392142D01*
X165694285Y-102963571D02*
X165444285Y-102999285D01*
X165730000Y-103177857D02*
X165444285Y-103213571D01*
X165730000Y-103356428D02*
X165444285Y-103427857D01*
X166730000Y-102785000D02*
X167408571Y-102785000D01*
X166730000Y-102999285D02*
X167337142Y-102999285D01*
X166730000Y-103106428D02*
X167337142Y-103106428D01*
X166801428Y-103249285D02*
X167301428Y-103249285D01*
X166730000Y-102856428D02*
X166730000Y-103106428D01*
X166730000Y-102856428D02*
X167301428Y-102856428D01*
X167301428Y-103106428D01*
X166837142Y-102642142D02*
X166587142Y-102892142D01*
X166908571Y-103106428D02*
X166801428Y-103213571D01*
X166551428Y-103320714D01*
X166801428Y-103285000D02*
X167051428Y-103392142D01*
X167408571Y-103499285D01*
X167015714Y-103392142D02*
X167480000Y-103499285D01*
X167265714Y-103249285D02*
X167051428Y-103392142D01*
X166872857Y-103427857D01*
X166587142Y-103499285D01*
X167944285Y-102856428D02*
X168551428Y-102856428D01*
X167908571Y-103463571D02*
X168587142Y-103463571D01*
X167837142Y-102820714D02*
X167837142Y-103499285D01*
X168265714Y-102642142D02*
X168265714Y-102856428D01*
X168444285Y-102963571D02*
X168301428Y-103463571D01*
X168087142Y-102963571D02*
X168122857Y-103356428D01*
X167908571Y-102677857D02*
X167801428Y-102892142D01*
X167658571Y-103035000D01*
X160593333Y-92403333D02*
X161293333Y-92403333D01*
X161293333Y-92670000D01*
X161260000Y-92736666D01*
X161226666Y-92770000D01*
X161160000Y-92803333D01*
X161060000Y-92803333D01*
X160993333Y-92770000D01*
X160960000Y-92736666D01*
X160926666Y-92670000D01*
X160926666Y-92403333D01*
X160793333Y-93070000D02*
X160793333Y-93403333D01*
X160593333Y-93003333D02*
X161293333Y-93236666D01*
X160593333Y-93470000D01*
X161226666Y-93670000D02*
X161260000Y-93703333D01*
X161293333Y-93770000D01*
X161293333Y-93936666D01*
X161260000Y-94003333D01*
X161226666Y-94036666D01*
X161160000Y-94070000D01*
X161093333Y-94070000D01*
X160993333Y-94036666D01*
X160593333Y-93636666D01*
X160593333Y-94070000D01*
X147853333Y-92403333D02*
X148553333Y-92403333D01*
X148553333Y-92670000D01*
X148520000Y-92736666D01*
X148486666Y-92770000D01*
X148420000Y-92803333D01*
X148320000Y-92803333D01*
X148253333Y-92770000D01*
X148220000Y-92736666D01*
X148186666Y-92670000D01*
X148186666Y-92403333D01*
X148053333Y-93070000D02*
X148053333Y-93403333D01*
X147853333Y-93003333D02*
X148553333Y-93236666D01*
X147853333Y-93470000D01*
X148553333Y-93636666D02*
X148553333Y-94103333D01*
X147853333Y-93803333D01*
X150383333Y-105233333D02*
X151083333Y-105233333D01*
X151083333Y-105500000D01*
X151050000Y-105566666D01*
X151016666Y-105600000D01*
X150950000Y-105633333D01*
X150850000Y-105633333D01*
X150783333Y-105600000D01*
X150750000Y-105566666D01*
X150716666Y-105500000D01*
X150716666Y-105233333D01*
X150750000Y-106166666D02*
X150716666Y-106266666D01*
X150683333Y-106300000D01*
X150616666Y-106333333D01*
X150516666Y-106333333D01*
X150450000Y-106300000D01*
X150416666Y-106266666D01*
X150383333Y-106200000D01*
X150383333Y-105933333D01*
X151083333Y-105933333D01*
X151083333Y-106166666D01*
X151050000Y-106233333D01*
X151016666Y-106266666D01*
X150950000Y-106300000D01*
X150883333Y-106300000D01*
X150816666Y-106266666D01*
X150783333Y-106233333D01*
X150750000Y-106166666D01*
X150750000Y-105933333D01*
X151083333Y-106566666D02*
X151083333Y-107033333D01*
X150383333Y-106733333D01*
X161258333Y-104951666D02*
X161258333Y-105385000D01*
X160991666Y-105151666D01*
X160991666Y-105251666D01*
X160958333Y-105318333D01*
X160925000Y-105351666D01*
X160858333Y-105385000D01*
X160691666Y-105385000D01*
X160625000Y-105351666D01*
X160591666Y-105318333D01*
X160558333Y-105251666D01*
X160558333Y-105051666D01*
X160591666Y-104985000D01*
X160625000Y-104951666D01*
X160625000Y-105685000D02*
X160591666Y-105718333D01*
X160558333Y-105685000D01*
X160591666Y-105651666D01*
X160625000Y-105685000D01*
X160558333Y-105685000D01*
X161258333Y-105951666D02*
X161258333Y-106385000D01*
X160991666Y-106151666D01*
X160991666Y-106251666D01*
X160958333Y-106318333D01*
X160925000Y-106351666D01*
X160858333Y-106385000D01*
X160691666Y-106385000D01*
X160625000Y-106351666D01*
X160591666Y-106318333D01*
X160558333Y-106251666D01*
X160558333Y-106051666D01*
X160591666Y-105985000D01*
X160625000Y-105951666D01*
X161258333Y-106585000D02*
X160558333Y-106818333D01*
X161258333Y-107051666D01*
X142763333Y-92403333D02*
X143463333Y-92403333D01*
X143463333Y-92670000D01*
X143430000Y-92736666D01*
X143396666Y-92770000D01*
X143330000Y-92803333D01*
X143230000Y-92803333D01*
X143163333Y-92770000D01*
X143130000Y-92736666D01*
X143096666Y-92670000D01*
X143096666Y-92403333D01*
X142963333Y-93070000D02*
X142963333Y-93403333D01*
X142763333Y-93003333D02*
X143463333Y-93236666D01*
X142763333Y-93470000D01*
X142763333Y-93736666D02*
X142763333Y-93870000D01*
X142796666Y-93936666D01*
X142830000Y-93970000D01*
X142930000Y-94036666D01*
X143063333Y-94070000D01*
X143330000Y-94070000D01*
X143396666Y-94036666D01*
X143430000Y-94003333D01*
X143463333Y-93936666D01*
X143463333Y-93803333D01*
X143430000Y-93736666D01*
X143396666Y-93703333D01*
X143330000Y-93670000D01*
X143163333Y-93670000D01*
X143096666Y-93703333D01*
X143063333Y-93736666D01*
X143030000Y-93803333D01*
X143030000Y-93936666D01*
X143063333Y-94003333D01*
X143096666Y-94036666D01*
X143163333Y-94070000D01*
X132593333Y-105263333D02*
X133293333Y-105263333D01*
X133293333Y-105530000D01*
X133260000Y-105596666D01*
X133226666Y-105630000D01*
X133160000Y-105663333D01*
X133060000Y-105663333D01*
X132993333Y-105630000D01*
X132960000Y-105596666D01*
X132926666Y-105530000D01*
X132926666Y-105263333D01*
X132960000Y-106196666D02*
X132926666Y-106296666D01*
X132893333Y-106330000D01*
X132826666Y-106363333D01*
X132726666Y-106363333D01*
X132660000Y-106330000D01*
X132626666Y-106296666D01*
X132593333Y-106230000D01*
X132593333Y-105963333D01*
X133293333Y-105963333D01*
X133293333Y-106196666D01*
X133260000Y-106263333D01*
X133226666Y-106296666D01*
X133160000Y-106330000D01*
X133093333Y-106330000D01*
X133026666Y-106296666D01*
X132993333Y-106263333D01*
X132960000Y-106196666D01*
X132960000Y-105963333D01*
X133293333Y-106796666D02*
X133293333Y-106863333D01*
X133260000Y-106930000D01*
X133226666Y-106963333D01*
X133160000Y-106996666D01*
X133026666Y-107030000D01*
X132860000Y-107030000D01*
X132726666Y-106996666D01*
X132660000Y-106963333D01*
X132626666Y-106930000D01*
X132593333Y-106863333D01*
X132593333Y-106796666D01*
X132626666Y-106730000D01*
X132660000Y-106696666D01*
X132726666Y-106663333D01*
X132860000Y-106630000D01*
X133026666Y-106630000D01*
X133160000Y-106663333D01*
X133226666Y-106696666D01*
X133260000Y-106730000D01*
X133293333Y-106796666D01*
X137723333Y-92400000D02*
X138423333Y-92400000D01*
X138423333Y-92666666D01*
X138390000Y-92733333D01*
X138356666Y-92766666D01*
X138290000Y-92800000D01*
X138190000Y-92800000D01*
X138123333Y-92766666D01*
X138090000Y-92733333D01*
X138056666Y-92666666D01*
X138056666Y-92400000D01*
X137923333Y-93066666D02*
X137923333Y-93400000D01*
X137723333Y-93000000D02*
X138423333Y-93233333D01*
X137723333Y-93466666D01*
X137723333Y-94066666D02*
X137723333Y-93666666D01*
X137723333Y-93866666D02*
X138423333Y-93866666D01*
X138323333Y-93800000D01*
X138256666Y-93733333D01*
X138223333Y-93666666D01*
X137723333Y-94733333D02*
X137723333Y-94333333D01*
X137723333Y-94533333D02*
X138423333Y-94533333D01*
X138323333Y-94466666D01*
X138256666Y-94400000D01*
X138223333Y-94333333D01*
X152967289Y-92418920D02*
X153667289Y-92418920D01*
X153667289Y-92685587D01*
X153633956Y-92752253D01*
X153600622Y-92785587D01*
X153533956Y-92818920D01*
X153433956Y-92818920D01*
X153367289Y-92785587D01*
X153333956Y-92752253D01*
X153300622Y-92685587D01*
X153300622Y-92418920D01*
X153167289Y-93085587D02*
X153167289Y-93418920D01*
X152967289Y-93018920D02*
X153667289Y-93252253D01*
X152967289Y-93485587D01*
X153667289Y-94052253D02*
X153667289Y-93718920D01*
X153333956Y-93685587D01*
X153367289Y-93718920D01*
X153400622Y-93785587D01*
X153400622Y-93952253D01*
X153367289Y-94018920D01*
X153333956Y-94052253D01*
X153267289Y-94085587D01*
X153100622Y-94085587D01*
X153033956Y-94052253D01*
X153000622Y-94018920D01*
X152967289Y-93952253D01*
X152967289Y-93785587D01*
X153000622Y-93718920D01*
X153033956Y-93685587D01*
X135153333Y-92400000D02*
X135853333Y-92400000D01*
X135853333Y-92666666D01*
X135820000Y-92733333D01*
X135786666Y-92766666D01*
X135720000Y-92800000D01*
X135620000Y-92800000D01*
X135553333Y-92766666D01*
X135520000Y-92733333D01*
X135486666Y-92666666D01*
X135486666Y-92400000D01*
X135353333Y-93066666D02*
X135353333Y-93400000D01*
X135153333Y-93000000D02*
X135853333Y-93233333D01*
X135153333Y-93466666D01*
X135153333Y-94066666D02*
X135153333Y-93666666D01*
X135153333Y-93866666D02*
X135853333Y-93866666D01*
X135753333Y-93800000D01*
X135686666Y-93733333D01*
X135653333Y-93666666D01*
X135786666Y-94333333D02*
X135820000Y-94366666D01*
X135853333Y-94433333D01*
X135853333Y-94600000D01*
X135820000Y-94666666D01*
X135786666Y-94700000D01*
X135720000Y-94733333D01*
X135653333Y-94733333D01*
X135553333Y-94700000D01*
X135153333Y-94300000D01*
X135153333Y-94733333D01*
X131604285Y-95921428D02*
X131604285Y-95321428D01*
X131832857Y-95321428D01*
X131890000Y-95350000D01*
X131918571Y-95378571D01*
X131947142Y-95435714D01*
X131947142Y-95521428D01*
X131918571Y-95578571D01*
X131890000Y-95607142D01*
X131832857Y-95635714D01*
X131604285Y-95635714D01*
X132175714Y-95750000D02*
X132461428Y-95750000D01*
X132118571Y-95921428D02*
X132318571Y-95321428D01*
X132518571Y-95921428D01*
X133032857Y-95921428D02*
X132690000Y-95921428D01*
X132861428Y-95921428D02*
X132861428Y-95321428D01*
X132804285Y-95407142D01*
X132747142Y-95464285D01*
X132690000Y-95492857D01*
X133232857Y-95321428D02*
X133604285Y-95321428D01*
X133404285Y-95550000D01*
X133490000Y-95550000D01*
X133547142Y-95578571D01*
X133575714Y-95607142D01*
X133604285Y-95664285D01*
X133604285Y-95807142D01*
X133575714Y-95864285D01*
X133547142Y-95892857D01*
X133490000Y-95921428D01*
X133318571Y-95921428D01*
X133261428Y-95892857D01*
X133232857Y-95864285D01*
X131616666Y-101913333D02*
X131716666Y-101946666D01*
X131883333Y-101946666D01*
X131950000Y-101913333D01*
X131983333Y-101880000D01*
X132016666Y-101813333D01*
X132016666Y-101746666D01*
X131983333Y-101680000D01*
X131950000Y-101646666D01*
X131883333Y-101613333D01*
X131750000Y-101580000D01*
X131683333Y-101546666D01*
X131650000Y-101513333D01*
X131616666Y-101446666D01*
X131616666Y-101380000D01*
X131650000Y-101313333D01*
X131683333Y-101280000D01*
X131750000Y-101246666D01*
X131916666Y-101246666D01*
X132016666Y-101280000D01*
X132250000Y-101246666D02*
X132416666Y-101946666D01*
X132550000Y-101446666D01*
X132683333Y-101946666D01*
X132850000Y-101246666D01*
X133516666Y-101880000D02*
X133483333Y-101913333D01*
X133383333Y-101946666D01*
X133316666Y-101946666D01*
X133216666Y-101913333D01*
X133150000Y-101846666D01*
X133116666Y-101780000D01*
X133083333Y-101646666D01*
X133083333Y-101546666D01*
X133116666Y-101413333D01*
X133150000Y-101346666D01*
X133216666Y-101280000D01*
X133316666Y-101246666D01*
X133383333Y-101246666D01*
X133483333Y-101280000D01*
X133516666Y-101313333D01*
X134150000Y-101946666D02*
X133816666Y-101946666D01*
X133816666Y-101246666D01*
X134383333Y-101946666D02*
X134383333Y-101246666D01*
X134783333Y-101946666D02*
X134483333Y-101546666D01*
X134783333Y-101246666D02*
X134383333Y-101646666D01*
X140243333Y-105273333D02*
X140943333Y-105273333D01*
X140943333Y-105540000D01*
X140910000Y-105606666D01*
X140876666Y-105640000D01*
X140810000Y-105673333D01*
X140710000Y-105673333D01*
X140643333Y-105640000D01*
X140610000Y-105606666D01*
X140576666Y-105540000D01*
X140576666Y-105273333D01*
X140610000Y-106206666D02*
X140576666Y-106306666D01*
X140543333Y-106340000D01*
X140476666Y-106373333D01*
X140376666Y-106373333D01*
X140310000Y-106340000D01*
X140276666Y-106306666D01*
X140243333Y-106240000D01*
X140243333Y-105973333D01*
X140943333Y-105973333D01*
X140943333Y-106206666D01*
X140910000Y-106273333D01*
X140876666Y-106306666D01*
X140810000Y-106340000D01*
X140743333Y-106340000D01*
X140676666Y-106306666D01*
X140643333Y-106273333D01*
X140610000Y-106206666D01*
X140610000Y-105973333D01*
X140943333Y-106606666D02*
X140943333Y-107040000D01*
X140676666Y-106806666D01*
X140676666Y-106906666D01*
X140643333Y-106973333D01*
X140610000Y-107006666D01*
X140543333Y-107040000D01*
X140376666Y-107040000D01*
X140310000Y-107006666D01*
X140276666Y-106973333D01*
X140243333Y-106906666D01*
X140243333Y-106706666D01*
X140276666Y-106640000D01*
X140310000Y-106606666D01*
X142733333Y-105253333D02*
X143433333Y-105253333D01*
X143433333Y-105520000D01*
X143400000Y-105586666D01*
X143366666Y-105620000D01*
X143300000Y-105653333D01*
X143200000Y-105653333D01*
X143133333Y-105620000D01*
X143100000Y-105586666D01*
X143066666Y-105520000D01*
X143066666Y-105253333D01*
X143100000Y-106186666D02*
X143066666Y-106286666D01*
X143033333Y-106320000D01*
X142966666Y-106353333D01*
X142866666Y-106353333D01*
X142800000Y-106320000D01*
X142766666Y-106286666D01*
X142733333Y-106220000D01*
X142733333Y-105953333D01*
X143433333Y-105953333D01*
X143433333Y-106186666D01*
X143400000Y-106253333D01*
X143366666Y-106286666D01*
X143300000Y-106320000D01*
X143233333Y-106320000D01*
X143166666Y-106286666D01*
X143133333Y-106253333D01*
X143100000Y-106186666D01*
X143100000Y-105953333D01*
X143200000Y-106953333D02*
X142733333Y-106953333D01*
X143466666Y-106786666D02*
X142966666Y-106620000D01*
X142966666Y-107053333D01*
X164430000Y-95999285D02*
X164680000Y-95999285D01*
X164430000Y-96320714D02*
X165215714Y-96320714D01*
X164537142Y-96713571D02*
X165215714Y-96713571D01*
X164537142Y-96463571D02*
X164537142Y-96749285D01*
X164430000Y-96106428D02*
X165215714Y-96106428D01*
X165215714Y-96320714D01*
X164537142Y-96463571D02*
X165215714Y-96463571D01*
X165215714Y-96749285D01*
X164430000Y-95963571D02*
X164430000Y-96392142D01*
X164358571Y-96677857D01*
X164787142Y-95963571D02*
X164608571Y-95963571D01*
X165144285Y-95892142D02*
X164787142Y-95963571D01*
X165430000Y-95999285D02*
X165822857Y-95999285D01*
X165394285Y-96213571D02*
X165822857Y-96213571D01*
X166072857Y-96749285D02*
X166251428Y-96749285D01*
X166037142Y-96427857D02*
X165894285Y-96713571D01*
X165537142Y-96213571D02*
X165430000Y-96606428D01*
X165894285Y-96142142D02*
X166322857Y-96142142D01*
X166322857Y-96463571D01*
X166251428Y-96749285D01*
X166072857Y-95927857D02*
X166072857Y-96213571D01*
X166001428Y-96570714D01*
X165715714Y-96356428D02*
X165822857Y-96570714D01*
X165394285Y-96606428D01*
X166894285Y-96070714D02*
X167358571Y-96070714D01*
X166787142Y-96249285D02*
X167430000Y-96249285D01*
X167180000Y-96606428D02*
X167394285Y-96606428D01*
X166822857Y-96749285D02*
X167430000Y-96749285D01*
X167108571Y-95892142D02*
X167108571Y-96249285D01*
X167215714Y-96249285D02*
X167215714Y-96606428D01*
X167430000Y-96463571D02*
X167394285Y-96606428D01*
X166537142Y-95927857D02*
X166680000Y-96070714D01*
X166501428Y-96285000D02*
X166644285Y-96285000D01*
X166644285Y-96642142D01*
X166501428Y-96713571D01*
X166965714Y-96463571D02*
X166822857Y-96570714D01*
X166930000Y-95927857D02*
X166822857Y-96142142D01*
X167001428Y-96249285D02*
X166930000Y-96499285D01*
X166644285Y-96642142D02*
X166822857Y-96713571D01*
X167037142Y-96749285D01*
X167608571Y-96106428D02*
X167894285Y-96106428D01*
X168001428Y-96427857D02*
X168430000Y-96427857D01*
X167930000Y-96570714D02*
X168537142Y-96570714D01*
X167644285Y-96749285D02*
X167751428Y-96749285D01*
X167787142Y-95892142D02*
X167787142Y-96749285D01*
X168251428Y-96320714D02*
X168251428Y-96749285D01*
X168037142Y-95963571D02*
X168215714Y-96142142D01*
X168501428Y-96285000D01*
X167965714Y-95963571D02*
X168465714Y-95963571D01*
X168287142Y-96142142D01*
X167965714Y-96285000D01*
X167894285Y-96320714D02*
X167608571Y-96392142D01*
X145353333Y-92403333D02*
X146053333Y-92403333D01*
X146053333Y-92670000D01*
X146020000Y-92736666D01*
X145986666Y-92770000D01*
X145920000Y-92803333D01*
X145820000Y-92803333D01*
X145753333Y-92770000D01*
X145720000Y-92736666D01*
X145686666Y-92670000D01*
X145686666Y-92403333D01*
X145553333Y-93070000D02*
X145553333Y-93403333D01*
X145353333Y-93003333D02*
X146053333Y-93236666D01*
X145353333Y-93470000D01*
X145753333Y-93803333D02*
X145786666Y-93736666D01*
X145820000Y-93703333D01*
X145886666Y-93670000D01*
X145920000Y-93670000D01*
X145986666Y-93703333D01*
X146020000Y-93736666D01*
X146053333Y-93803333D01*
X146053333Y-93936666D01*
X146020000Y-94003333D01*
X145986666Y-94036666D01*
X145920000Y-94070000D01*
X145886666Y-94070000D01*
X145820000Y-94036666D01*
X145786666Y-94003333D01*
X145753333Y-93936666D01*
X145753333Y-93803333D01*
X145720000Y-93736666D01*
X145686666Y-93703333D01*
X145620000Y-93670000D01*
X145486666Y-93670000D01*
X145420000Y-93703333D01*
X145386666Y-93736666D01*
X145353333Y-93803333D01*
X145353333Y-93936666D01*
X145386666Y-94003333D01*
X145420000Y-94036666D01*
X145486666Y-94070000D01*
X145620000Y-94070000D01*
X145686666Y-94036666D01*
X145720000Y-94003333D01*
X145753333Y-93936666D01*
X145323333Y-105273333D02*
X146023333Y-105273333D01*
X146023333Y-105540000D01*
X145990000Y-105606666D01*
X145956666Y-105640000D01*
X145890000Y-105673333D01*
X145790000Y-105673333D01*
X145723333Y-105640000D01*
X145690000Y-105606666D01*
X145656666Y-105540000D01*
X145656666Y-105273333D01*
X145690000Y-106206666D02*
X145656666Y-106306666D01*
X145623333Y-106340000D01*
X145556666Y-106373333D01*
X145456666Y-106373333D01*
X145390000Y-106340000D01*
X145356666Y-106306666D01*
X145323333Y-106240000D01*
X145323333Y-105973333D01*
X146023333Y-105973333D01*
X146023333Y-106206666D01*
X145990000Y-106273333D01*
X145956666Y-106306666D01*
X145890000Y-106340000D01*
X145823333Y-106340000D01*
X145756666Y-106306666D01*
X145723333Y-106273333D01*
X145690000Y-106206666D01*
X145690000Y-105973333D01*
X146023333Y-107006666D02*
X146023333Y-106673333D01*
X145690000Y-106640000D01*
X145723333Y-106673333D01*
X145756666Y-106740000D01*
X145756666Y-106906666D01*
X145723333Y-106973333D01*
X145690000Y-107006666D01*
X145623333Y-107040000D01*
X145456666Y-107040000D01*
X145390000Y-107006666D01*
X145356666Y-106973333D01*
X145323333Y-106906666D01*
X145323333Y-106740000D01*
X145356666Y-106673333D01*
X145390000Y-106640000D01*
X131614285Y-100981428D02*
X131614285Y-100381428D01*
X131842857Y-100381428D01*
X131900000Y-100410000D01*
X131928571Y-100438571D01*
X131957142Y-100495714D01*
X131957142Y-100581428D01*
X131928571Y-100638571D01*
X131900000Y-100667142D01*
X131842857Y-100695714D01*
X131614285Y-100695714D01*
X132185714Y-100810000D02*
X132471428Y-100810000D01*
X132128571Y-100981428D02*
X132328571Y-100381428D01*
X132528571Y-100981428D01*
X133042857Y-100981428D02*
X132700000Y-100981428D01*
X132871428Y-100981428D02*
X132871428Y-100381428D01*
X132814285Y-100467142D01*
X132757142Y-100524285D01*
X132700000Y-100552857D01*
X133557142Y-100581428D02*
X133557142Y-100981428D01*
X133414285Y-100352857D02*
X133271428Y-100781428D01*
X133642857Y-100781428D01*
X163750000Y-105571666D02*
X163783333Y-105505000D01*
X163783333Y-105405000D01*
X163750000Y-105305000D01*
X163683333Y-105238333D01*
X163616666Y-105205000D01*
X163483333Y-105171666D01*
X163383333Y-105171666D01*
X163250000Y-105205000D01*
X163183333Y-105238333D01*
X163116666Y-105305000D01*
X163083333Y-105405000D01*
X163083333Y-105471666D01*
X163116666Y-105571666D01*
X163150000Y-105605000D01*
X163383333Y-105605000D01*
X163383333Y-105471666D01*
X163083333Y-105905000D02*
X163783333Y-105905000D01*
X163083333Y-106305000D01*
X163783333Y-106305000D01*
X163083333Y-106638333D02*
X163783333Y-106638333D01*
X163783333Y-106805000D01*
X163750000Y-106905000D01*
X163683333Y-106971666D01*
X163616666Y-107005000D01*
X163483333Y-107038333D01*
X163383333Y-107038333D01*
X163250000Y-107005000D01*
X163183333Y-106971666D01*
X163116666Y-106905000D01*
X163083333Y-106805000D01*
X163083333Y-106638333D01*
X140203333Y-92400000D02*
X140903333Y-92400000D01*
X140903333Y-92666666D01*
X140870000Y-92733333D01*
X140836666Y-92766666D01*
X140770000Y-92800000D01*
X140670000Y-92800000D01*
X140603333Y-92766666D01*
X140570000Y-92733333D01*
X140536666Y-92666666D01*
X140536666Y-92400000D01*
X140403333Y-93066666D02*
X140403333Y-93400000D01*
X140203333Y-93000000D02*
X140903333Y-93233333D01*
X140203333Y-93466666D01*
X140203333Y-94066666D02*
X140203333Y-93666666D01*
X140203333Y-93866666D02*
X140903333Y-93866666D01*
X140803333Y-93800000D01*
X140736666Y-93733333D01*
X140703333Y-93666666D01*
X140903333Y-94500000D02*
X140903333Y-94566666D01*
X140870000Y-94633333D01*
X140836666Y-94666666D01*
X140770000Y-94700000D01*
X140636666Y-94733333D01*
X140470000Y-94733333D01*
X140336666Y-94700000D01*
X140270000Y-94666666D01*
X140236666Y-94633333D01*
X140203333Y-94566666D01*
X140203333Y-94500000D01*
X140236666Y-94433333D01*
X140270000Y-94400000D01*
X140336666Y-94366666D01*
X140470000Y-94333333D01*
X140636666Y-94333333D01*
X140770000Y-94366666D01*
X140836666Y-94400000D01*
X140870000Y-94433333D01*
X140903333Y-94500000D01*
%TO.C,R3*%
X161850000Y-101051428D02*
X161650000Y-100765714D01*
X161507142Y-101051428D02*
X161507142Y-100451428D01*
X161735714Y-100451428D01*
X161792857Y-100480000D01*
X161821428Y-100508571D01*
X161850000Y-100565714D01*
X161850000Y-100651428D01*
X161821428Y-100708571D01*
X161792857Y-100737142D01*
X161735714Y-100765714D01*
X161507142Y-100765714D01*
X162050000Y-100451428D02*
X162421428Y-100451428D01*
X162221428Y-100680000D01*
X162307142Y-100680000D01*
X162364285Y-100708571D01*
X162392857Y-100737142D01*
X162421428Y-100794285D01*
X162421428Y-100937142D01*
X162392857Y-100994285D01*
X162364285Y-101022857D01*
X162307142Y-101051428D01*
X162135714Y-101051428D01*
X162078571Y-101022857D01*
X162050000Y-100994285D01*
%TO.C,C5*%
X157660000Y-98854285D02*
X157631428Y-98882857D01*
X157545714Y-98911428D01*
X157488571Y-98911428D01*
X157402857Y-98882857D01*
X157345714Y-98825714D01*
X157317142Y-98768571D01*
X157288571Y-98654285D01*
X157288571Y-98568571D01*
X157317142Y-98454285D01*
X157345714Y-98397142D01*
X157402857Y-98340000D01*
X157488571Y-98311428D01*
X157545714Y-98311428D01*
X157631428Y-98340000D01*
X157660000Y-98368571D01*
X158202857Y-98311428D02*
X157917142Y-98311428D01*
X157888571Y-98597142D01*
X157917142Y-98568571D01*
X157974285Y-98540000D01*
X158117142Y-98540000D01*
X158174285Y-98568571D01*
X158202857Y-98597142D01*
X158231428Y-98654285D01*
X158231428Y-98797142D01*
X158202857Y-98854285D01*
X158174285Y-98882857D01*
X158117142Y-98911428D01*
X157974285Y-98911428D01*
X157917142Y-98882857D01*
X157888571Y-98854285D01*
%TO.C,F1*%
X173067142Y-106590000D02*
X173067142Y-106790000D01*
X173381428Y-106790000D02*
X172781428Y-106790000D01*
X172781428Y-106504285D01*
X173381428Y-105961428D02*
X173381428Y-106304285D01*
X173381428Y-106132857D02*
X172781428Y-106132857D01*
X172867142Y-106190000D01*
X172924285Y-106247142D01*
X172952857Y-106304285D01*
%TO.C,C4*%
X142127147Y-95332891D02*
X142098575Y-95361463D01*
X142012861Y-95390034D01*
X141955718Y-95390034D01*
X141870004Y-95361463D01*
X141812861Y-95304320D01*
X141784289Y-95247177D01*
X141755718Y-95132891D01*
X141755718Y-95047177D01*
X141784289Y-94932891D01*
X141812861Y-94875748D01*
X141870004Y-94818606D01*
X141955718Y-94790034D01*
X142012861Y-94790034D01*
X142098575Y-94818606D01*
X142127147Y-94847177D01*
X142641432Y-94990034D02*
X142641432Y-95390034D01*
X142498575Y-94761463D02*
X142355718Y-95190034D01*
X142727147Y-95190034D01*
%TO.C,U3*%
X146227857Y-96901428D02*
X146227857Y-97387142D01*
X146256428Y-97444285D01*
X146285000Y-97472857D01*
X146342142Y-97501428D01*
X146456428Y-97501428D01*
X146513571Y-97472857D01*
X146542142Y-97444285D01*
X146570714Y-97387142D01*
X146570714Y-96901428D01*
X146799285Y-96901428D02*
X147170714Y-96901428D01*
X146970714Y-97130000D01*
X147056428Y-97130000D01*
X147113571Y-97158571D01*
X147142142Y-97187142D01*
X147170714Y-97244285D01*
X147170714Y-97387142D01*
X147142142Y-97444285D01*
X147113571Y-97472857D01*
X147056428Y-97501428D01*
X146885000Y-97501428D01*
X146827857Y-97472857D01*
X146799285Y-97444285D01*
%TO.C,R1*%
X173381428Y-108710000D02*
X173095714Y-108910000D01*
X173381428Y-109052857D02*
X172781428Y-109052857D01*
X172781428Y-108824285D01*
X172810000Y-108767142D01*
X172838571Y-108738571D01*
X172895714Y-108710000D01*
X172981428Y-108710000D01*
X173038571Y-108738571D01*
X173067142Y-108767142D01*
X173095714Y-108824285D01*
X173095714Y-109052857D01*
X173381428Y-108138571D02*
X173381428Y-108481428D01*
X173381428Y-108310000D02*
X172781428Y-108310000D01*
X172867142Y-108367142D01*
X172924285Y-108424285D01*
X172952857Y-108481428D01*
%TO.C,C8*%
X150680000Y-99254285D02*
X150651428Y-99282857D01*
X150565714Y-99311428D01*
X150508571Y-99311428D01*
X150422857Y-99282857D01*
X150365714Y-99225714D01*
X150337142Y-99168571D01*
X150308571Y-99054285D01*
X150308571Y-98968571D01*
X150337142Y-98854285D01*
X150365714Y-98797142D01*
X150422857Y-98740000D01*
X150508571Y-98711428D01*
X150565714Y-98711428D01*
X150651428Y-98740000D01*
X150680000Y-98768571D01*
X151022857Y-98968571D02*
X150965714Y-98940000D01*
X150937142Y-98911428D01*
X150908571Y-98854285D01*
X150908571Y-98825714D01*
X150937142Y-98768571D01*
X150965714Y-98740000D01*
X151022857Y-98711428D01*
X151137142Y-98711428D01*
X151194285Y-98740000D01*
X151222857Y-98768571D01*
X151251428Y-98825714D01*
X151251428Y-98854285D01*
X151222857Y-98911428D01*
X151194285Y-98940000D01*
X151137142Y-98968571D01*
X151022857Y-98968571D01*
X150965714Y-98997142D01*
X150937142Y-99025714D01*
X150908571Y-99082857D01*
X150908571Y-99197142D01*
X150937142Y-99254285D01*
X150965714Y-99282857D01*
X151022857Y-99311428D01*
X151137142Y-99311428D01*
X151194285Y-99282857D01*
X151222857Y-99254285D01*
X151251428Y-99197142D01*
X151251428Y-99082857D01*
X151222857Y-99025714D01*
X151194285Y-98997142D01*
X151137142Y-98968571D01*
%TO.C,C7*%
X142137147Y-104632891D02*
X142108575Y-104661463D01*
X142022861Y-104690034D01*
X141965718Y-104690034D01*
X141880004Y-104661463D01*
X141822861Y-104604320D01*
X141794289Y-104547177D01*
X141765718Y-104432891D01*
X141765718Y-104347177D01*
X141794289Y-104232891D01*
X141822861Y-104175748D01*
X141880004Y-104118606D01*
X141965718Y-104090034D01*
X142022861Y-104090034D01*
X142108575Y-104118606D01*
X142137147Y-104147177D01*
X142337147Y-104090034D02*
X142737147Y-104090034D01*
X142480004Y-104690034D01*
%TO.C,USB1*%
X172781428Y-100662142D02*
X173267142Y-100662142D01*
X173324285Y-100633571D01*
X173352857Y-100605000D01*
X173381428Y-100547857D01*
X173381428Y-100433571D01*
X173352857Y-100376428D01*
X173324285Y-100347857D01*
X173267142Y-100319285D01*
X172781428Y-100319285D01*
X173352857Y-100062142D02*
X173381428Y-99976428D01*
X173381428Y-99833571D01*
X173352857Y-99776428D01*
X173324285Y-99747857D01*
X173267142Y-99719285D01*
X173210000Y-99719285D01*
X173152857Y-99747857D01*
X173124285Y-99776428D01*
X173095714Y-99833571D01*
X173067142Y-99947857D01*
X173038571Y-100005000D01*
X173010000Y-100033571D01*
X172952857Y-100062142D01*
X172895714Y-100062142D01*
X172838571Y-100033571D01*
X172810000Y-100005000D01*
X172781428Y-99947857D01*
X172781428Y-99805000D01*
X172810000Y-99719285D01*
X173067142Y-99262142D02*
X173095714Y-99176428D01*
X173124285Y-99147857D01*
X173181428Y-99119285D01*
X173267142Y-99119285D01*
X173324285Y-99147857D01*
X173352857Y-99176428D01*
X173381428Y-99233571D01*
X173381428Y-99462142D01*
X172781428Y-99462142D01*
X172781428Y-99262142D01*
X172810000Y-99205000D01*
X172838571Y-99176428D01*
X172895714Y-99147857D01*
X172952857Y-99147857D01*
X173010000Y-99176428D01*
X173038571Y-99205000D01*
X173067142Y-99262142D01*
X173067142Y-99462142D01*
X173381428Y-98547857D02*
X173381428Y-98890714D01*
X173381428Y-98719285D02*
X172781428Y-98719285D01*
X172867142Y-98776428D01*
X172924285Y-98833571D01*
X172952857Y-98890714D01*
%TO.C,C9*%
X157650000Y-100994285D02*
X157621428Y-101022857D01*
X157535714Y-101051428D01*
X157478571Y-101051428D01*
X157392857Y-101022857D01*
X157335714Y-100965714D01*
X157307142Y-100908571D01*
X157278571Y-100794285D01*
X157278571Y-100708571D01*
X157307142Y-100594285D01*
X157335714Y-100537142D01*
X157392857Y-100480000D01*
X157478571Y-100451428D01*
X157535714Y-100451428D01*
X157621428Y-100480000D01*
X157650000Y-100508571D01*
X157935714Y-101051428D02*
X158050000Y-101051428D01*
X158107142Y-101022857D01*
X158135714Y-100994285D01*
X158192857Y-100908571D01*
X158221428Y-100794285D01*
X158221428Y-100565714D01*
X158192857Y-100508571D01*
X158164285Y-100480000D01*
X158107142Y-100451428D01*
X157992857Y-100451428D01*
X157935714Y-100480000D01*
X157907142Y-100508571D01*
X157878571Y-100565714D01*
X157878571Y-100708571D01*
X157907142Y-100765714D01*
X157935714Y-100794285D01*
X157992857Y-100822857D01*
X158107142Y-100822857D01*
X158164285Y-100794285D01*
X158192857Y-100765714D01*
X158221428Y-100708571D01*
%TO.C,R2*%
X161850000Y-98971428D02*
X161650000Y-98685714D01*
X161507142Y-98971428D02*
X161507142Y-98371428D01*
X161735714Y-98371428D01*
X161792857Y-98400000D01*
X161821428Y-98428571D01*
X161850000Y-98485714D01*
X161850000Y-98571428D01*
X161821428Y-98628571D01*
X161792857Y-98657142D01*
X161735714Y-98685714D01*
X161507142Y-98685714D01*
X162078571Y-98428571D02*
X162107142Y-98400000D01*
X162164285Y-98371428D01*
X162307142Y-98371428D01*
X162364285Y-98400000D01*
X162392857Y-98428571D01*
X162421428Y-98485714D01*
X162421428Y-98542857D01*
X162392857Y-98628571D01*
X162050000Y-98971428D01*
X162421428Y-98971428D01*
%TO.C,D1*%
X168571428Y-109102857D02*
X167971428Y-109102857D01*
X167971428Y-108960000D01*
X168000000Y-108874285D01*
X168057142Y-108817142D01*
X168114285Y-108788571D01*
X168228571Y-108760000D01*
X168314285Y-108760000D01*
X168428571Y-108788571D01*
X168485714Y-108817142D01*
X168542857Y-108874285D01*
X168571428Y-108960000D01*
X168571428Y-109102857D01*
X168571428Y-108188571D02*
X168571428Y-108531428D01*
X168571428Y-108360000D02*
X167971428Y-108360000D01*
X168057142Y-108417142D01*
X168114285Y-108474285D01*
X168142857Y-108531428D01*
%TO.C,C2*%
X168554285Y-90940000D02*
X168582857Y-90968571D01*
X168611428Y-91054285D01*
X168611428Y-91111428D01*
X168582857Y-91197142D01*
X168525714Y-91254285D01*
X168468571Y-91282857D01*
X168354285Y-91311428D01*
X168268571Y-91311428D01*
X168154285Y-91282857D01*
X168097142Y-91254285D01*
X168040000Y-91197142D01*
X168011428Y-91111428D01*
X168011428Y-91054285D01*
X168040000Y-90968571D01*
X168068571Y-90940000D01*
X168068571Y-90711428D02*
X168040000Y-90682857D01*
X168011428Y-90625714D01*
X168011428Y-90482857D01*
X168040000Y-90425714D01*
X168068571Y-90397142D01*
X168125714Y-90368571D01*
X168182857Y-90368571D01*
X168268571Y-90397142D01*
X168611428Y-90740000D01*
X168611428Y-90368571D01*
%TO.C,C6*%
X150670000Y-100584285D02*
X150641428Y-100612857D01*
X150555714Y-100641428D01*
X150498571Y-100641428D01*
X150412857Y-100612857D01*
X150355714Y-100555714D01*
X150327142Y-100498571D01*
X150298571Y-100384285D01*
X150298571Y-100298571D01*
X150327142Y-100184285D01*
X150355714Y-100127142D01*
X150412857Y-100070000D01*
X150498571Y-100041428D01*
X150555714Y-100041428D01*
X150641428Y-100070000D01*
X150670000Y-100098571D01*
X151184285Y-100041428D02*
X151070000Y-100041428D01*
X151012857Y-100070000D01*
X150984285Y-100098571D01*
X150927142Y-100184285D01*
X150898571Y-100298571D01*
X150898571Y-100527142D01*
X150927142Y-100584285D01*
X150955714Y-100612857D01*
X151012857Y-100641428D01*
X151127142Y-100641428D01*
X151184285Y-100612857D01*
X151212857Y-100584285D01*
X151241428Y-100527142D01*
X151241428Y-100384285D01*
X151212857Y-100327142D01*
X151184285Y-100298571D01*
X151127142Y-100270000D01*
X151012857Y-100270000D01*
X150955714Y-100298571D01*
X150927142Y-100327142D01*
X150898571Y-100384285D01*
%TO.C,C11*%
X152224285Y-102454285D02*
X152195714Y-102482857D01*
X152110000Y-102511428D01*
X152052857Y-102511428D01*
X151967142Y-102482857D01*
X151910000Y-102425714D01*
X151881428Y-102368571D01*
X151852857Y-102254285D01*
X151852857Y-102168571D01*
X151881428Y-102054285D01*
X151910000Y-101997142D01*
X151967142Y-101940000D01*
X152052857Y-101911428D01*
X152110000Y-101911428D01*
X152195714Y-101940000D01*
X152224285Y-101968571D01*
X152795714Y-102511428D02*
X152452857Y-102511428D01*
X152624285Y-102511428D02*
X152624285Y-101911428D01*
X152567142Y-101997142D01*
X152510000Y-102054285D01*
X152452857Y-102082857D01*
X153367142Y-102511428D02*
X153024285Y-102511428D01*
X153195714Y-102511428D02*
X153195714Y-101911428D01*
X153138571Y-101997142D01*
X153081428Y-102054285D01*
X153024285Y-102082857D01*
D11*
%TO.C,*%
D10*
%TO.C,C10*%
X152224285Y-104254285D02*
X152195714Y-104282857D01*
X152110000Y-104311428D01*
X152052857Y-104311428D01*
X151967142Y-104282857D01*
X151910000Y-104225714D01*
X151881428Y-104168571D01*
X151852857Y-104054285D01*
X151852857Y-103968571D01*
X151881428Y-103854285D01*
X151910000Y-103797142D01*
X151967142Y-103740000D01*
X152052857Y-103711428D01*
X152110000Y-103711428D01*
X152195714Y-103740000D01*
X152224285Y-103768571D01*
X152795714Y-104311428D02*
X152452857Y-104311428D01*
X152624285Y-104311428D02*
X152624285Y-103711428D01*
X152567142Y-103797142D01*
X152510000Y-103854285D01*
X152452857Y-103882857D01*
X153167142Y-103711428D02*
X153224285Y-103711428D01*
X153281428Y-103740000D01*
X153310000Y-103768571D01*
X153338571Y-103825714D01*
X153367142Y-103940000D01*
X153367142Y-104082857D01*
X153338571Y-104197142D01*
X153310000Y-104254285D01*
X153281428Y-104282857D01*
X153224285Y-104311428D01*
X153167142Y-104311428D01*
X153110000Y-104282857D01*
X153081428Y-104254285D01*
X153052857Y-104197142D01*
X153024285Y-104082857D01*
X153024285Y-103940000D01*
X153052857Y-103825714D01*
X153081428Y-103768571D01*
X153110000Y-103740000D01*
X153167142Y-103711428D01*
%TO.C,C1*%
X173524285Y-90960000D02*
X173552857Y-90988571D01*
X173581428Y-91074285D01*
X173581428Y-91131428D01*
X173552857Y-91217142D01*
X173495714Y-91274285D01*
X173438571Y-91302857D01*
X173324285Y-91331428D01*
X173238571Y-91331428D01*
X173124285Y-91302857D01*
X173067142Y-91274285D01*
X173010000Y-91217142D01*
X172981428Y-91131428D01*
X172981428Y-91074285D01*
X173010000Y-90988571D01*
X173038571Y-90960000D01*
X173581428Y-90388571D02*
X173581428Y-90731428D01*
X173581428Y-90560000D02*
X172981428Y-90560000D01*
X173067142Y-90617142D01*
X173124285Y-90674285D01*
X173152857Y-90731428D01*
%TO.C,Y1*%
X147166428Y-103175714D02*
X147166428Y-103461428D01*
X146966428Y-102861428D02*
X147166428Y-103175714D01*
X147366428Y-102861428D01*
X147880714Y-103461428D02*
X147537857Y-103461428D01*
X147709285Y-103461428D02*
X147709285Y-102861428D01*
X147652142Y-102947142D01*
X147595000Y-103004285D01*
X147537857Y-103032857D01*
%TO.C,U1*%
X170529428Y-92554142D02*
X171015142Y-92554142D01*
X171072285Y-92525571D01*
X171100857Y-92497000D01*
X171129428Y-92439857D01*
X171129428Y-92325571D01*
X171100857Y-92268428D01*
X171072285Y-92239857D01*
X171015142Y-92211285D01*
X170529428Y-92211285D01*
X171129428Y-91611285D02*
X171129428Y-91954142D01*
X171129428Y-91782714D02*
X170529428Y-91782714D01*
X170615142Y-91839857D01*
X170672285Y-91897000D01*
X170700857Y-91954142D01*
%TO.C,Hole1*%
X131440000Y-91820000D02*
G75*
G03*
X131440000Y-91820000I-900000J0D01*
G01*
%TO.C,Hole2*%
X131460000Y-107620000D02*
G75*
G03*
X131460000Y-107620000I-900000J0D01*
G01*
%TO.C,Hole3*%
X175870000Y-107580000D02*
G75*
G03*
X175870000Y-107580000I-900000J0D01*
G01*
%TO.C,Hole4*%
X175850000Y-91800000D02*
G75*
G03*
X175850000Y-91800000I-900000J0D01*
G01*
D12*
%TO.C,R3*%
X163613641Y-100360000D02*
X163306359Y-100360000D01*
X163613641Y-101120000D02*
X163306359Y-101120000D01*
%TO.C,C5*%
X156377836Y-98260000D02*
X156162164Y-98260000D01*
X156377836Y-98980000D02*
X156162164Y-98980000D01*
%TO.C,F1*%
X171002064Y-105460000D02*
X169797936Y-105460000D01*
X171002064Y-107280000D02*
X169797936Y-107280000D01*
%TO.C,C4*%
X143649311Y-95458606D02*
X143864983Y-95458606D01*
X143649311Y-94738606D02*
X143864983Y-94738606D01*
D13*
%TO.C,U3*%
X140165045Y-99671331D02*
X140434452Y-99401923D01*
X147079842Y-99401923D02*
X147349249Y-99671331D01*
X147349249Y-99671331D02*
X147079842Y-99940739D01*
X140434452Y-99940739D02*
X140165045Y-99671331D01*
X143757147Y-96079229D02*
X144026555Y-96348636D01*
X143487739Y-96348636D02*
X143757147Y-96079229D01*
X143757147Y-103263433D02*
X143487739Y-102994026D01*
X144026555Y-102994026D02*
X143757147Y-103263433D01*
X143884148Y-103443039D02*
G75*
G03*
X143884148Y-103443039I-127001J0D01*
G01*
D12*
%TO.C,R1*%
X171820000Y-108753641D02*
X171820000Y-108446359D01*
X172580000Y-108753641D02*
X172580000Y-108446359D01*
%TO.C,J3*%
X128760000Y-94640000D02*
X130090000Y-94640000D01*
X128760000Y-104920000D02*
X131420000Y-104920000D01*
X128760000Y-95970000D02*
X128760000Y-94640000D01*
X131420000Y-97240000D02*
X131420000Y-104920000D01*
X128760000Y-97240000D02*
X128760000Y-104920000D01*
X128760000Y-97240000D02*
X131420000Y-97240000D01*
%TO.C,C8*%
X149267836Y-98650000D02*
X149052164Y-98650000D01*
X149267836Y-99370000D02*
X149052164Y-99370000D01*
%TO.C,C7*%
X143659311Y-103998606D02*
X143874983Y-103998606D01*
X143659311Y-104718606D02*
X143874983Y-104718606D01*
D13*
%TO.C,USB1*%
X176840000Y-104240000D02*
X175346000Y-104240000D01*
X171545000Y-95300000D02*
X173114000Y-95300000D01*
X170040000Y-103359000D02*
X170040000Y-103151000D01*
X170040000Y-97669000D02*
X170040000Y-97651000D01*
X173114000Y-104240000D02*
X171545000Y-104240000D01*
X170040000Y-96389000D02*
X170040000Y-96181000D01*
X176840000Y-95300000D02*
X176840000Y-104240000D01*
X175346000Y-95300000D02*
X176840000Y-95300000D01*
X170040000Y-101889000D02*
X170040000Y-101871000D01*
X169500000Y-103460000D02*
G75*
G03*
X169500000Y-103460000I-250000J0D01*
G01*
D12*
%TO.C,C9*%
X156152164Y-101110000D02*
X156367836Y-101110000D01*
X156152164Y-100390000D02*
X156367836Y-100390000D01*
D13*
%TO.C,SW2*%
X156967000Y-101422000D02*
X162967000Y-101422000D01*
X162967000Y-102109000D02*
X162967000Y-101422000D01*
X158951000Y-102310000D02*
X160983000Y-102310000D01*
X160983000Y-102310000D02*
X160983000Y-103834000D01*
X158951000Y-103834000D02*
X158951000Y-102310000D01*
X160983000Y-103834000D02*
X158951000Y-103834000D01*
X162967000Y-104722000D02*
X162967000Y-104071000D01*
X156967000Y-101422000D02*
X156967000Y-102155000D01*
X162967000Y-104722000D02*
X156967000Y-104722000D01*
X156967000Y-104025000D02*
X156967000Y-104722000D01*
D12*
%TO.C,R2*%
X163623641Y-99040000D02*
X163316359Y-99040000D01*
X163623641Y-98280000D02*
X163316359Y-98280000D01*
%TO.C,D1*%
X171045000Y-107885000D02*
X168760000Y-107885000D01*
X168760000Y-107885000D02*
X168760000Y-109355000D01*
X168760000Y-109355000D02*
X171045000Y-109355000D01*
%TO.C,C2*%
X168020000Y-92262164D02*
X168020000Y-92477836D01*
X168740000Y-92262164D02*
X168740000Y-92477836D01*
%TO.C,C6*%
X149267836Y-100720000D02*
X149052164Y-100720000D01*
X149267836Y-100000000D02*
X149052164Y-100000000D01*
%TO.C,C11*%
X150770000Y-102052164D02*
X150770000Y-102267836D01*
X151490000Y-102052164D02*
X151490000Y-102267836D01*
%TO.C,*%
G36*
X136836634Y-96629085D02*
G01*
X136834123Y-96631596D01*
X136831611Y-96629085D01*
X136834123Y-96626573D01*
X136836634Y-96629085D01*
G37*
G36*
X137788048Y-100841707D02*
G01*
X137795373Y-100850635D01*
X137807288Y-100865241D01*
X137822062Y-100883397D01*
X137835898Y-100900434D01*
X137864622Y-100933760D01*
X137899441Y-100970837D01*
X137938235Y-101009634D01*
X137978883Y-101048121D01*
X138019263Y-101084270D01*
X138057256Y-101116049D01*
X138077965Y-101132131D01*
X138103110Y-101150426D01*
X138130876Y-101169730D01*
X138159582Y-101188962D01*
X138187543Y-101207043D01*
X138213078Y-101222892D01*
X138234502Y-101235428D01*
X138250133Y-101243572D01*
X138254303Y-101245327D01*
X138256536Y-101245664D01*
X138258356Y-101244257D01*
X138259806Y-101240197D01*
X138260926Y-101232573D01*
X138261760Y-101220474D01*
X138262348Y-101202990D01*
X138262734Y-101179210D01*
X138262958Y-101148223D01*
X138263064Y-101109120D01*
X138263092Y-101060990D01*
X138263092Y-100860744D01*
X138333411Y-100860744D01*
X138333411Y-101287677D01*
X138574502Y-101287677D01*
X138574502Y-101363018D01*
X138333411Y-101363018D01*
X138333411Y-101794973D01*
X138263092Y-101794973D01*
X138263092Y-101599086D01*
X138262981Y-101553770D01*
X138262662Y-101512630D01*
X138262157Y-101476630D01*
X138261489Y-101446730D01*
X138260678Y-101423892D01*
X138259748Y-101409079D01*
X138258720Y-101403251D01*
X138258611Y-101403200D01*
X138251444Y-101405739D01*
X138237476Y-101412718D01*
X138218378Y-101423173D01*
X138195820Y-101436144D01*
X138171472Y-101450667D01*
X138147005Y-101465783D01*
X138124087Y-101480528D01*
X138122456Y-101481606D01*
X138044510Y-101538167D01*
X137972692Y-101600280D01*
X137908007Y-101666933D01*
X137851460Y-101737112D01*
X137815354Y-101790869D01*
X137797774Y-101819412D01*
X137762007Y-101790869D01*
X137746212Y-101777844D01*
X137733914Y-101766907D01*
X137726907Y-101759692D01*
X137725950Y-101758025D01*
X137728951Y-101751281D01*
X137737611Y-101738618D01*
X137750743Y-101721467D01*
X137767163Y-101701262D01*
X137785684Y-101679435D01*
X137805121Y-101657418D01*
X137824288Y-101636646D01*
X137838522Y-101621994D01*
X137913989Y-101553227D01*
X137997697Y-101489377D01*
X138088817Y-101431047D01*
X138146258Y-101399180D01*
X138210354Y-101365529D01*
X137905222Y-101364234D01*
X137600091Y-101362940D01*
X137600091Y-101287754D01*
X137905222Y-101286460D01*
X138210354Y-101285165D01*
X138162638Y-101260649D01*
X138093836Y-101222473D01*
X138024979Y-101178976D01*
X137959808Y-101132618D01*
X137919643Y-101100829D01*
X137899336Y-101083249D01*
X137876178Y-101062017D01*
X137851206Y-101038208D01*
X137825459Y-101012895D01*
X137799975Y-100987155D01*
X137775792Y-100962060D01*
X137753949Y-100938686D01*
X137735484Y-100918106D01*
X137721436Y-100901396D01*
X137712841Y-100889630D01*
X137710591Y-100884501D01*
X137714269Y-100880362D01*
X137724075Y-100871703D01*
X137738172Y-100860120D01*
X137744099Y-100855418D01*
X137777608Y-100829085D01*
X137788048Y-100841707D01*
G37*
G36*
X136555361Y-97116290D02*
G01*
X136552849Y-97118802D01*
X136550338Y-97116290D01*
X136552849Y-97113779D01*
X136555361Y-97116290D01*
G37*
G36*
X138132501Y-99278580D02*
G01*
X138235972Y-99278580D01*
X138338686Y-99419211D01*
X138362825Y-99452118D01*
X138385160Y-99482290D01*
X138404990Y-99508803D01*
X138421614Y-99530730D01*
X138434331Y-99547145D01*
X138442438Y-99557121D01*
X138445167Y-99559848D01*
X138445826Y-99554967D01*
X138446448Y-99540889D01*
X138447024Y-99518459D01*
X138447543Y-99488525D01*
X138447994Y-99451935D01*
X138448369Y-99409535D01*
X138448657Y-99362172D01*
X138448848Y-99310695D01*
X138448931Y-99255949D01*
X138448934Y-99243421D01*
X138448934Y-98926988D01*
X138519252Y-98926988D01*
X138519252Y-99690445D01*
X138441290Y-99690445D01*
X138201728Y-99363967D01*
X138132501Y-99363967D01*
X138132501Y-99795923D01*
X138062183Y-99795923D01*
X138062183Y-99364656D01*
X137885131Y-99362821D01*
X137833678Y-99362183D01*
X137791464Y-99361413D01*
X137757682Y-99360476D01*
X137731526Y-99359336D01*
X137712189Y-99357957D01*
X137698864Y-99356304D01*
X137690746Y-99354341D01*
X137690500Y-99354249D01*
X137660911Y-99338257D01*
X137638761Y-99315653D01*
X137629486Y-99300063D01*
X137625441Y-99291248D01*
X137622398Y-99282415D01*
X137620181Y-99271939D01*
X137618615Y-99258199D01*
X137617527Y-99239569D01*
X137616741Y-99214426D01*
X137616083Y-99181145D01*
X137615968Y-99174358D01*
X137615534Y-99143603D01*
X137615305Y-99116549D01*
X137615281Y-99094696D01*
X137615464Y-99079546D01*
X137615851Y-99072597D01*
X137615968Y-99072317D01*
X137621365Y-99071512D01*
X137634356Y-99069640D01*
X137652590Y-99067038D01*
X137661793Y-99065731D01*
X137682796Y-99062914D01*
X137695608Y-99061784D01*
X137701948Y-99062408D01*
X137703540Y-99064853D01*
X137702895Y-99067318D01*
X137701670Y-99074873D01*
X137700283Y-99090527D01*
X137698871Y-99112338D01*
X137697566Y-99138362D01*
X137696968Y-99153102D01*
X137695970Y-99183875D01*
X137695693Y-99206408D01*
X137696241Y-99222487D01*
X137697716Y-99233900D01*
X137700223Y-99242432D01*
X137702410Y-99247193D01*
X137706940Y-99255386D01*
X137711890Y-99262014D01*
X137718309Y-99267242D01*
X137727249Y-99271236D01*
X137739758Y-99274162D01*
X137756888Y-99276187D01*
X137779688Y-99277475D01*
X137809209Y-99278193D01*
X137846500Y-99278505D01*
X137892612Y-99278579D01*
X137901206Y-99278580D01*
X138062183Y-99278580D01*
X138062183Y-98821511D01*
X138132501Y-98821511D01*
X138132501Y-99278580D01*
G37*
G36*
X136861748Y-96875199D02*
G01*
X136859236Y-96877710D01*
X136856725Y-96875199D01*
X136859236Y-96872687D01*
X136861748Y-96875199D01*
G37*
G36*
X137057635Y-99243421D02*
G01*
X136997698Y-99243421D01*
X137020216Y-99275633D01*
X137048641Y-99323372D01*
X137067113Y-99370988D01*
X137075605Y-99418381D01*
X137074092Y-99465454D01*
X137072925Y-99472917D01*
X137062094Y-99515163D01*
X137045330Y-99549781D01*
X137022106Y-99577613D01*
X136994232Y-99598152D01*
X136982643Y-99604736D01*
X136971649Y-99610229D01*
X136960228Y-99614740D01*
X136947356Y-99618378D01*
X136932010Y-99621254D01*
X136913168Y-99623477D01*
X136889806Y-99625155D01*
X136860902Y-99626399D01*
X136825432Y-99627319D01*
X136782373Y-99628022D01*
X136730703Y-99628620D01*
X136707299Y-99628855D01*
X136495088Y-99630937D01*
X136495088Y-99450205D01*
X136679673Y-99448524D01*
X136864259Y-99446842D01*
X136889373Y-99434285D01*
X136908616Y-99422447D01*
X136921353Y-99408392D01*
X136928547Y-99390082D01*
X136931160Y-99365481D01*
X136930911Y-99346387D01*
X136928672Y-99319470D01*
X136923748Y-99297379D01*
X136915001Y-99275017D01*
X136914908Y-99274813D01*
X136900558Y-99243421D01*
X136495088Y-99243421D01*
X136495088Y-99062602D01*
X137057635Y-99062602D01*
X137057635Y-99243421D01*
G37*
G36*
X136630702Y-99896377D02*
G01*
X137107862Y-99896377D01*
X137107862Y-99775832D01*
X137243476Y-99775832D01*
X137243476Y-100207787D01*
X137107862Y-100207787D01*
X137107862Y-100087242D01*
X136630702Y-100087242D01*
X136630702Y-100207787D01*
X136495088Y-100207787D01*
X136495088Y-99775832D01*
X136630702Y-99775832D01*
X136630702Y-99896377D01*
G37*
G36*
X137315787Y-96659826D02*
G01*
X137320427Y-96661551D01*
X137331889Y-96664556D01*
X137350608Y-96667466D01*
X137373801Y-96669912D01*
X137394106Y-96671308D01*
X137419406Y-96672814D01*
X137436330Y-96674445D01*
X137446547Y-96676528D01*
X137451725Y-96679387D01*
X137453457Y-96682900D01*
X137450845Y-96690682D01*
X137440952Y-96695135D01*
X137422934Y-96697748D01*
X137399137Y-96698562D01*
X137373225Y-96697726D01*
X137348863Y-96695394D01*
X137329716Y-96691715D01*
X137325533Y-96690370D01*
X137312184Y-96685872D01*
X137304575Y-96685388D01*
X137299202Y-96688996D01*
X137297416Y-96690990D01*
X137289946Y-96702063D01*
X137287091Y-96708193D01*
X137280644Y-96715063D01*
X137271130Y-96716713D01*
X137263357Y-96712688D01*
X137262174Y-96710551D01*
X137262770Y-96702368D01*
X137267252Y-96689708D01*
X137269399Y-96685226D01*
X137282423Y-96667032D01*
X137297865Y-96658575D01*
X137315787Y-96659826D01*
G37*
G36*
X137634828Y-96889995D02*
G01*
X137643381Y-96900842D01*
X137653575Y-96920828D01*
X137653945Y-96921659D01*
X137667598Y-96955584D01*
X137677280Y-96987859D01*
X137683519Y-97021343D01*
X137686842Y-97058895D01*
X137687776Y-97103370D01*
X137687773Y-97104954D01*
X137687306Y-97136463D01*
X137686156Y-97160876D01*
X137684392Y-97177208D01*
X137682120Y-97184441D01*
X137678752Y-97184351D01*
X137675936Y-97176043D01*
X137673404Y-97158660D01*
X137673072Y-97155595D01*
X137669556Y-97132211D01*
X137663515Y-97102245D01*
X137655661Y-97068626D01*
X137646708Y-97034280D01*
X137637371Y-97002134D01*
X137630517Y-96981146D01*
X137623530Y-96953438D01*
X137620845Y-96924988D01*
X137622813Y-96900132D01*
X137623644Y-96896545D01*
X137628166Y-96888495D01*
X137634828Y-96889995D01*
G37*
G36*
X137516482Y-96891245D02*
G01*
X137528209Y-96900804D01*
X137541257Y-96913852D01*
X137538655Y-97036338D01*
X137537720Y-97075913D01*
X137536732Y-97106682D01*
X137535592Y-97129887D01*
X137534199Y-97146766D01*
X137532455Y-97158560D01*
X137530259Y-97166510D01*
X137527775Y-97171461D01*
X137518237Y-97181522D01*
X137507181Y-97183060D01*
X137492719Y-97176186D01*
X137489100Y-97173703D01*
X137473723Y-97159645D01*
X137466814Y-97145891D01*
X137467543Y-97136745D01*
X137473740Y-97129569D01*
X137483355Y-97131731D01*
X137490481Y-97137188D01*
X137498134Y-97142775D01*
X137501683Y-97143466D01*
X137503187Y-97137785D01*
X137505182Y-97124948D01*
X137507121Y-97108756D01*
X137510573Y-97076108D01*
X137495593Y-97070468D01*
X137478783Y-97059201D01*
X137467295Y-97041699D01*
X137462099Y-97020781D01*
X137464166Y-96999267D01*
X137467861Y-96989869D01*
X137478036Y-96976462D01*
X137491787Y-96965447D01*
X137492822Y-96964869D01*
X137505947Y-96953318D01*
X137509931Y-96938479D01*
X137504612Y-96921572D01*
X137499610Y-96914207D01*
X137493172Y-96903676D01*
X137494000Y-96896240D01*
X137495202Y-96894580D01*
X137504872Y-96888321D01*
X137516482Y-96891245D01*
G37*
G36*
X136958702Y-100333998D02*
G01*
X136967802Y-100335635D01*
X137025754Y-100351727D01*
X137078793Y-100375377D01*
X137126006Y-100405983D01*
X137166481Y-100442939D01*
X137199304Y-100485642D01*
X137202617Y-100491010D01*
X137225423Y-100537583D01*
X137242132Y-100590310D01*
X137252566Y-100647227D01*
X137256545Y-100706371D01*
X137253891Y-100765778D01*
X137244425Y-100823485D01*
X137235819Y-100855159D01*
X137213844Y-100908902D01*
X137183969Y-100956630D01*
X137146604Y-100997974D01*
X137102158Y-101032562D01*
X137051041Y-101060026D01*
X136993663Y-101079995D01*
X136984227Y-101082398D01*
X136944176Y-101089467D01*
X136898407Y-101093202D01*
X136850531Y-101093598D01*
X136804161Y-101090651D01*
X136762911Y-101084358D01*
X136755442Y-101082660D01*
X136696230Y-101063729D01*
X136643829Y-101037457D01*
X136598417Y-101004050D01*
X136560173Y-100963712D01*
X136529273Y-100916648D01*
X136505898Y-100863062D01*
X136490224Y-100803160D01*
X136485564Y-100772846D01*
X136482012Y-100737371D01*
X136481135Y-100711992D01*
X136620847Y-100711992D01*
X136624650Y-100749969D01*
X136631437Y-100773659D01*
X136648866Y-100806370D01*
X136674645Y-100835345D01*
X136707476Y-100859641D01*
X136746061Y-100878315D01*
X136789101Y-100890426D01*
X136793404Y-100891206D01*
X136821503Y-100894395D01*
X136854616Y-100895551D01*
X136889878Y-100894823D01*
X136924428Y-100892358D01*
X136955401Y-100888304D01*
X136979935Y-100882809D01*
X136984404Y-100881344D01*
X137027827Y-100861905D01*
X137062633Y-100837534D01*
X137089080Y-100808003D01*
X137107426Y-100773082D01*
X137107671Y-100772438D01*
X137113797Y-100753653D01*
X137116808Y-100736098D01*
X137117286Y-100715304D01*
X137116769Y-100702527D01*
X137110255Y-100659817D01*
X137095546Y-100622876D01*
X137072706Y-100591753D01*
X137041799Y-100566498D01*
X137002890Y-100547160D01*
X136956042Y-100533791D01*
X136901319Y-100526439D01*
X136889275Y-100525687D01*
X136833191Y-100526138D01*
X136782010Y-100533307D01*
X136736509Y-100546924D01*
X136697468Y-100566721D01*
X136665664Y-100592429D01*
X136652910Y-100607166D01*
X136635319Y-100637939D01*
X136624518Y-100673765D01*
X136620847Y-100711992D01*
X136481135Y-100711992D01*
X136480934Y-100706187D01*
X136482346Y-100674542D01*
X136486006Y-100639743D01*
X136498116Y-100580599D01*
X136518833Y-100525995D01*
X136547590Y-100476601D01*
X136583821Y-100433089D01*
X136626963Y-100396127D01*
X136676448Y-100366386D01*
X136731712Y-100344536D01*
X136736261Y-100343179D01*
X136766112Y-100336673D01*
X136802852Y-100332027D01*
X136843481Y-100329339D01*
X136884999Y-100328707D01*
X136889275Y-100328872D01*
X136924406Y-100330227D01*
X136958702Y-100333998D01*
G37*
G36*
X136796452Y-101565561D02*
G01*
X136853208Y-101573063D01*
X136903646Y-101588366D01*
X136947814Y-101611500D01*
X136985759Y-101642495D01*
X137017530Y-101681380D01*
X137037488Y-101716051D01*
X137053463Y-101752859D01*
X137064480Y-101789528D01*
X137071120Y-101828897D01*
X137073963Y-101873808D01*
X137074163Y-101895428D01*
X137072788Y-101936726D01*
X137068482Y-101973226D01*
X137060497Y-102008891D01*
X137048085Y-102047685D01*
X137042671Y-102062434D01*
X137031799Y-102091315D01*
X136876816Y-102091315D01*
X136876816Y-102077025D01*
X136880287Y-102063061D01*
X136886804Y-102053696D01*
X136907102Y-102029858D01*
X136924401Y-101999015D01*
X136937551Y-101964036D01*
X136945404Y-101927790D01*
X136947134Y-101903071D01*
X136943891Y-101863511D01*
X136933761Y-101830774D01*
X136916149Y-101803845D01*
X136890457Y-101781713D01*
X136867953Y-101768831D01*
X136853162Y-101761792D01*
X136840993Y-101757097D01*
X136828758Y-101754271D01*
X136813771Y-101752843D01*
X136793344Y-101752337D01*
X136773955Y-101752280D01*
X136737838Y-101753376D01*
X136709306Y-101757147D01*
X136686090Y-101764321D01*
X136665922Y-101775625D01*
X136646531Y-101791786D01*
X136644482Y-101793761D01*
X136624974Y-101819470D01*
X136612036Y-101850991D01*
X136605641Y-101886558D01*
X136605762Y-101924407D01*
X136612371Y-101962772D01*
X136625443Y-101999890D01*
X136644949Y-102033996D01*
X136648228Y-102038477D01*
X136659330Y-102054669D01*
X136667407Y-102069257D01*
X136670855Y-102079305D01*
X136670884Y-102079915D01*
X136670610Y-102084287D01*
X136668793Y-102087368D01*
X136663937Y-102089384D01*
X136654546Y-102090561D01*
X136639124Y-102091125D01*
X136616175Y-102091301D01*
X136595364Y-102091315D01*
X136519844Y-102091315D01*
X136509979Y-102068300D01*
X136495398Y-102025831D01*
X136484786Y-101977270D01*
X136478559Y-101925921D01*
X136477134Y-101875087D01*
X136480282Y-101832644D01*
X136492305Y-101773447D01*
X136511494Y-101721083D01*
X136537544Y-101675813D01*
X136570148Y-101637895D01*
X136608997Y-101607589D01*
X136653785Y-101585154D01*
X136704205Y-101570850D01*
X136759950Y-101564937D01*
X136796452Y-101565561D01*
G37*
G36*
X138283895Y-103088574D02*
G01*
X138313878Y-103117592D01*
X138340857Y-103141618D01*
X138354145Y-103152309D01*
X138387437Y-103177701D01*
X138372288Y-103211997D01*
X138357140Y-103246293D01*
X138337811Y-103230984D01*
X138325918Y-103221109D01*
X138317564Y-103213337D01*
X138315605Y-103211019D01*
X138312754Y-103207473D01*
X138310369Y-103207330D01*
X138308410Y-103211306D01*
X138306837Y-103220112D01*
X138305610Y-103234464D01*
X138304689Y-103255075D01*
X138304036Y-103282658D01*
X138303610Y-103317927D01*
X138303371Y-103361597D01*
X138303279Y-103414381D01*
X138303274Y-103432387D01*
X138303274Y-103658410D01*
X138273152Y-103658410D01*
X138255328Y-103657824D01*
X138243188Y-103655004D01*
X138232391Y-103648364D01*
X138222514Y-103639874D01*
X138201123Y-103618255D01*
X138176996Y-103590047D01*
X138151957Y-103557611D01*
X138127831Y-103523309D01*
X138107143Y-103490675D01*
X138094725Y-103469857D01*
X138085711Y-103456181D01*
X138079154Y-103450079D01*
X138074110Y-103451982D01*
X138069634Y-103462319D01*
X138064781Y-103481522D01*
X138058605Y-103510021D01*
X138057944Y-103513094D01*
X138040159Y-103616133D01*
X138030019Y-103724833D01*
X138028515Y-103757015D01*
X138025524Y-103838041D01*
X137994882Y-103818764D01*
X137975703Y-103806828D01*
X137962631Y-103797906D01*
X137954702Y-103789763D01*
X137950953Y-103780164D01*
X137950418Y-103766872D01*
X137952134Y-103747654D01*
X137954600Y-103725376D01*
X137968944Y-103618664D01*
X137988402Y-103519940D01*
X138013126Y-103428459D01*
X138020025Y-103407005D01*
X138038061Y-103352711D01*
X138037371Y-103350673D01*
X138112410Y-103350673D01*
X138114547Y-103357867D01*
X138120267Y-103371580D01*
X138128537Y-103389411D01*
X138133042Y-103398595D01*
X138149525Y-103429451D01*
X138168110Y-103460682D01*
X138187313Y-103490048D01*
X138205653Y-103515306D01*
X138221646Y-103534218D01*
X138225003Y-103537594D01*
X138243002Y-103554903D01*
X138243002Y-103365388D01*
X138243053Y-103314286D01*
X138243050Y-103272576D01*
X138242755Y-103239604D01*
X138241930Y-103214720D01*
X138240338Y-103197271D01*
X138237741Y-103186605D01*
X138233902Y-103182069D01*
X138228583Y-103183012D01*
X138221546Y-103188780D01*
X138212555Y-103198723D01*
X138201372Y-103212187D01*
X138191535Y-103224048D01*
X138177176Y-103242313D01*
X138161876Y-103263678D01*
X138146810Y-103286260D01*
X138133156Y-103308177D01*
X138122091Y-103327545D01*
X138114790Y-103342481D01*
X138112410Y-103350673D01*
X138037371Y-103350673D01*
X138017951Y-103293350D01*
X137981127Y-103169904D01*
X137952391Y-103040982D01*
X137939317Y-102962761D01*
X137935831Y-102939364D01*
X137932706Y-102918896D01*
X137930330Y-102903865D01*
X137929232Y-102897465D01*
X137930147Y-102890979D01*
X137936389Y-102883716D01*
X137949393Y-102874307D01*
X137961103Y-102867021D01*
X137994924Y-102846622D01*
X138003754Y-102917248D01*
X138011315Y-102971320D01*
X138020571Y-103027077D01*
X138031077Y-103082382D01*
X138042389Y-103135097D01*
X138054062Y-103183084D01*
X138065653Y-103224208D01*
X138071006Y-103240731D01*
X138080183Y-103267564D01*
X138104600Y-103230686D01*
X138118974Y-103210858D01*
X138137688Y-103187650D01*
X138157812Y-103164611D01*
X138169141Y-103152553D01*
X138209265Y-103111299D01*
X138181242Y-103081031D01*
X138166886Y-103064961D01*
X138150748Y-103045994D01*
X138134106Y-103025749D01*
X138118240Y-103005844D01*
X138104431Y-102987898D01*
X138093956Y-102973528D01*
X138088096Y-102964352D01*
X138087297Y-102962211D01*
X138090576Y-102956773D01*
X138099151Y-102946579D01*
X138110510Y-102934515D01*
X138133723Y-102910947D01*
X138171666Y-102961968D01*
X138194792Y-102991261D01*
X138222464Y-103023439D01*
X138233902Y-103035919D01*
X138252794Y-103056533D01*
X138283895Y-103088574D01*
G37*
G36*
X136826589Y-96593925D02*
G01*
X136824077Y-96596437D01*
X136821566Y-96593925D01*
X136824077Y-96591414D01*
X136826589Y-96593925D01*
G37*
G36*
X136821566Y-96824971D02*
G01*
X136819055Y-96827483D01*
X136816543Y-96824971D01*
X136819055Y-96822460D01*
X136821566Y-96824971D01*
G37*
G36*
X136804823Y-96793998D02*
G01*
X136805425Y-96799959D01*
X136804823Y-96800695D01*
X136801837Y-96800005D01*
X136801475Y-96797346D01*
X136803313Y-96793212D01*
X136804823Y-96793998D01*
G37*
G36*
X136690975Y-101423291D02*
G01*
X136495088Y-101423291D01*
X136495088Y-101242472D01*
X136690975Y-101242472D01*
X136690975Y-101423291D01*
G37*
G36*
X136835042Y-96786359D02*
G01*
X136835641Y-96794209D01*
X136834646Y-96795986D01*
X136832363Y-96794488D01*
X136832008Y-96789394D01*
X136833235Y-96784034D01*
X136835042Y-96786359D01*
G37*
G36*
X136553132Y-96309222D02*
G01*
X136548211Y-96317316D01*
X136544876Y-96319040D01*
X136540334Y-96319751D01*
X136544353Y-96316359D01*
X136544789Y-96316054D01*
X136548612Y-96311856D01*
X136543194Y-96309386D01*
X136542277Y-96309190D01*
X136536083Y-96307423D01*
X136539119Y-96305537D01*
X136543526Y-96304269D01*
X136551717Y-96303795D01*
X136553132Y-96309222D01*
G37*
G36*
X136819697Y-96642452D02*
G01*
X136821566Y-96643567D01*
X136817424Y-96646205D01*
X136811520Y-96648119D01*
X136803511Y-96648401D01*
X136801475Y-96646194D01*
X136805686Y-96642494D01*
X136811520Y-96641641D01*
X136819697Y-96642452D01*
G37*
G36*
X137243476Y-98068100D02*
G01*
X137000796Y-98068100D01*
X136937861Y-98068223D01*
X136882122Y-98068585D01*
X136834056Y-98069177D01*
X136794142Y-98069989D01*
X136762859Y-98071012D01*
X136740685Y-98072236D01*
X136728471Y-98073580D01*
X136692398Y-98083339D01*
X136664492Y-98098210D01*
X136644089Y-98118973D01*
X136630525Y-98146411D01*
X136623138Y-98181305D01*
X136621666Y-98199352D01*
X136622443Y-98240120D01*
X136629496Y-98273498D01*
X136643162Y-98300198D01*
X136663777Y-98320931D01*
X136685062Y-98333495D01*
X136713577Y-98346862D01*
X136978527Y-98348326D01*
X137243476Y-98349790D01*
X137243476Y-98540237D01*
X136980586Y-98540237D01*
X136921997Y-98540218D01*
X136872526Y-98540138D01*
X136831244Y-98539968D01*
X136797224Y-98539677D01*
X136769536Y-98539234D01*
X136747253Y-98538610D01*
X136729446Y-98537772D01*
X136715189Y-98536692D01*
X136703552Y-98535337D01*
X136693607Y-98533678D01*
X136684426Y-98531685D01*
X136678847Y-98530302D01*
X136639234Y-98517632D01*
X136606490Y-98501025D01*
X136577696Y-98478805D01*
X136562362Y-98463450D01*
X136539565Y-98435960D01*
X136522165Y-98407612D01*
X136508208Y-98374871D01*
X136500709Y-98351758D01*
X136486574Y-98286949D01*
X136481360Y-98217539D01*
X136485067Y-98143550D01*
X136485636Y-98138418D01*
X136496187Y-98080731D01*
X136513731Y-98029747D01*
X136538043Y-97985735D01*
X136568900Y-97948962D01*
X136606076Y-97919696D01*
X136649347Y-97898202D01*
X136698488Y-97884750D01*
X136698914Y-97884674D01*
X136711021Y-97882942D01*
X136726814Y-97881489D01*
X136747117Y-97880295D01*
X136772752Y-97879338D01*
X136804542Y-97878598D01*
X136843310Y-97878055D01*
X136889879Y-97877688D01*
X136945071Y-97877478D01*
X136991083Y-97877411D01*
X137243476Y-97877236D01*
X137243476Y-98068100D01*
G37*
G36*
X136866771Y-96533652D02*
G01*
X136864259Y-96536164D01*
X136861748Y-96533652D01*
X136864259Y-96531141D01*
X136866771Y-96533652D01*
G37*
G36*
X136836634Y-96860131D02*
G01*
X136834123Y-96862642D01*
X136831611Y-96860131D01*
X136834123Y-96857619D01*
X136836634Y-96860131D01*
G37*
G36*
X136795564Y-96643479D02*
G01*
X136794778Y-96644990D01*
X136788817Y-96645591D01*
X136788081Y-96644990D01*
X136788770Y-96642004D01*
X136791429Y-96641641D01*
X136795564Y-96643479D01*
G37*
G36*
X138298252Y-101945656D02*
G01*
X138574502Y-101945656D01*
X138574502Y-102015974D01*
X138298252Y-102015974D01*
X138298252Y-102111406D01*
X138227933Y-102111406D01*
X138227933Y-102015974D01*
X137605113Y-102015974D01*
X137605113Y-101945656D01*
X138227933Y-101945656D01*
X138227933Y-101845201D01*
X138298252Y-101845201D01*
X138298252Y-101945656D01*
G37*
G36*
X136835867Y-96745800D02*
G01*
X136836634Y-96749630D01*
X136834272Y-96755055D01*
X136831611Y-96754653D01*
X136826825Y-96750357D01*
X136826589Y-96749630D01*
X136830092Y-96745637D01*
X136831611Y-96744608D01*
X136835867Y-96745800D01*
G37*
G36*
X137278635Y-98896852D02*
G01*
X137143021Y-98896852D01*
X137143021Y-98705988D01*
X137278635Y-98705988D01*
X137278635Y-98896852D01*
G37*
G36*
X136519313Y-97130685D02*
G01*
X136518527Y-97132196D01*
X136512566Y-97132797D01*
X136511830Y-97132196D01*
X136512520Y-97129210D01*
X136515179Y-97128847D01*
X136519313Y-97130685D01*
G37*
G36*
X136886909Y-96379153D02*
G01*
X136900306Y-96393457D01*
X136913463Y-96411981D01*
X136919814Y-96423324D01*
X136933287Y-96450863D01*
X136962022Y-96399337D01*
X136987753Y-96355166D01*
X137011798Y-96318515D01*
X137035725Y-96287404D01*
X137061107Y-96259851D01*
X137089513Y-96233873D01*
X137100180Y-96225014D01*
X137122235Y-96208225D01*
X137147498Y-96190799D01*
X137173342Y-96174389D01*
X137197142Y-96160648D01*
X137216274Y-96151228D01*
X137219314Y-96150006D01*
X137225139Y-96146852D01*
X137229218Y-96141277D01*
X137232289Y-96131187D01*
X137232874Y-96127701D01*
X137278635Y-96127701D01*
X137320073Y-96118842D01*
X137356438Y-96112303D01*
X137398766Y-96106660D01*
X137442984Y-96102333D01*
X137485019Y-96099741D01*
X137500023Y-96099414D01*
X137510554Y-96099185D01*
X137530688Y-96098568D01*
X137544348Y-96096863D01*
X137549829Y-96094294D01*
X137549863Y-96094050D01*
X137553041Y-96087866D01*
X137556372Y-96083499D01*
X137561282Y-96077062D01*
X137570370Y-96066668D01*
X137582843Y-96051521D01*
X137588021Y-96040616D01*
X137587758Y-96034596D01*
X137580662Y-96023002D01*
X137567033Y-96008724D01*
X137549230Y-95993754D01*
X137529610Y-95980083D01*
X137511356Y-95970076D01*
X137496730Y-95963923D01*
X137483834Y-95960354D01*
X137469294Y-95958889D01*
X137449736Y-95959045D01*
X137437647Y-95959551D01*
X137404526Y-95962725D01*
X137378166Y-95969538D01*
X137355578Y-95981218D01*
X137333772Y-95998987D01*
X137328250Y-96004366D01*
X137311446Y-96024830D01*
X137296652Y-96049493D01*
X137285421Y-96075137D01*
X137279308Y-96098540D01*
X137278639Y-96107165D01*
X137278635Y-96127701D01*
X137232874Y-96127701D01*
X137235090Y-96114492D01*
X137237027Y-96099813D01*
X137247041Y-96053705D01*
X137264813Y-96013863D01*
X137290638Y-95979876D01*
X137324811Y-95951334D01*
X137356779Y-95932917D01*
X137394452Y-95919488D01*
X137435648Y-95913612D01*
X137469294Y-95915153D01*
X137477040Y-95915508D01*
X137508709Y-95922984D01*
X137549849Y-95941187D01*
X137584344Y-95965323D01*
X137605101Y-95986865D01*
X137615525Y-95998526D01*
X137624032Y-96005649D01*
X137627697Y-96006802D01*
X137634094Y-96004960D01*
X137648450Y-96001174D01*
X137668968Y-95995908D01*
X137693855Y-95989624D01*
X137709335Y-95985757D01*
X137738259Y-95978472D01*
X137758826Y-95972942D01*
X137772453Y-95968593D01*
X137780555Y-95964851D01*
X137784548Y-95961143D01*
X137785848Y-95956894D01*
X137785932Y-95954702D01*
X137789997Y-95942108D01*
X137800087Y-95928941D01*
X137813041Y-95918369D01*
X137825703Y-95913563D01*
X137826983Y-95913523D01*
X137838121Y-95914783D01*
X137854825Y-95917857D01*
X137868807Y-95920979D01*
X137890551Y-95924560D01*
X137920829Y-95927033D01*
X137958181Y-95928293D01*
X137974285Y-95928434D01*
X138008629Y-95929065D01*
X138046850Y-95930653D01*
X138084349Y-95932960D01*
X138116528Y-95935749D01*
X138117271Y-95935828D01*
X138146074Y-95938685D01*
X138166313Y-95940113D01*
X138179369Y-95940134D01*
X138186617Y-95938770D01*
X138188986Y-95936984D01*
X138194463Y-95928477D01*
X138201280Y-95917539D01*
X138215182Y-95902595D01*
X138232606Y-95894763D01*
X138250830Y-95894688D01*
X138266121Y-95902154D01*
X138274618Y-95911911D01*
X138283844Y-95926504D01*
X138287412Y-95933435D01*
X138296256Y-95949566D01*
X138308166Y-95966489D01*
X138324109Y-95985264D01*
X138345053Y-96006949D01*
X138371965Y-96032601D01*
X138405814Y-96063280D01*
X138407692Y-96064953D01*
X138443511Y-96097479D01*
X138472946Y-96125875D01*
X138497667Y-96152012D01*
X138519347Y-96177758D01*
X138539656Y-96204984D01*
X138560267Y-96235560D01*
X138560446Y-96235835D01*
X138610114Y-96321295D01*
X138650335Y-96409955D01*
X138681272Y-96502254D01*
X138703090Y-96598628D01*
X138708066Y-96629665D01*
X138712947Y-96674640D01*
X138715589Y-96724991D01*
X138716090Y-96778472D01*
X138714547Y-96832838D01*
X138711058Y-96885844D01*
X138705720Y-96935243D01*
X138698630Y-96978790D01*
X138691650Y-97008301D01*
X138675833Y-97053413D01*
X138654656Y-97097906D01*
X138629353Y-97139974D01*
X138601159Y-97177811D01*
X138571308Y-97209612D01*
X138541032Y-97233571D01*
X138535335Y-97237087D01*
X138521785Y-97249009D01*
X138506150Y-97269789D01*
X138495538Y-97287033D01*
X138476615Y-97315165D01*
X138451815Y-97345363D01*
X138423562Y-97375141D01*
X138394277Y-97402010D01*
X138366385Y-97423483D01*
X138356460Y-97429826D01*
X138314972Y-97450486D01*
X138265731Y-97468198D01*
X138210725Y-97482459D01*
X138151944Y-97492767D01*
X138091378Y-97498619D01*
X138082274Y-97499081D01*
X138028510Y-97499760D01*
X137970679Y-97497448D01*
X137911079Y-97492438D01*
X137852006Y-97485025D01*
X137795759Y-97475501D01*
X137744634Y-97464161D01*
X137700928Y-97451298D01*
X137696590Y-97449774D01*
X137678172Y-97444300D01*
X137660551Y-97440860D01*
X137652877Y-97440257D01*
X137636884Y-97438553D01*
X137623325Y-97434609D01*
X137614924Y-97431961D01*
X137607873Y-97434191D01*
X137598932Y-97442677D01*
X137595615Y-97446400D01*
X137578291Y-97461491D01*
X137554078Y-97476476D01*
X137526035Y-97489867D01*
X137497224Y-97500175D01*
X137474382Y-97505404D01*
X137434426Y-97508118D01*
X137397224Y-97503050D01*
X137360532Y-97489667D01*
X137326351Y-97470243D01*
X137291590Y-97442364D01*
X137265442Y-97409465D01*
X137247524Y-97370987D01*
X137240865Y-97346441D01*
X137237070Y-97325875D01*
X137234785Y-97309139D01*
X137278635Y-97309139D01*
X137280481Y-97325593D01*
X137285204Y-97345547D01*
X137288951Y-97356951D01*
X137304692Y-97386986D01*
X137327794Y-97415318D01*
X137355649Y-97439015D01*
X137369806Y-97447808D01*
X137383626Y-97454850D01*
X137395830Y-97459215D01*
X137409608Y-97461535D01*
X137428148Y-97462440D01*
X137444386Y-97462569D01*
X137468064Y-97462267D01*
X137484927Y-97460900D01*
X137498191Y-97457869D01*
X137511075Y-97452576D01*
X137518643Y-97448757D01*
X137537835Y-97436937D01*
X137556968Y-97422375D01*
X137565188Y-97414887D01*
X137576405Y-97403225D01*
X137581490Y-97395563D01*
X137581550Y-97388935D01*
X137577905Y-97380789D01*
X137569820Y-97368202D01*
X137561973Y-97359527D01*
X137553872Y-97349786D01*
X137546908Y-97336997D01*
X137540486Y-97321634D01*
X137456021Y-97315420D01*
X137409882Y-97311455D01*
X137367943Y-97306727D01*
X137331782Y-97301457D01*
X137302979Y-97295868D01*
X137287994Y-97291868D01*
X137281990Y-97291323D01*
X137279275Y-97296291D01*
X137278635Y-97309012D01*
X137278635Y-97309139D01*
X137234785Y-97309139D01*
X137234411Y-97306399D01*
X137233518Y-97293732D01*
X137233186Y-97285765D01*
X137231285Y-97279538D01*
X137226327Y-97273735D01*
X137216823Y-97267035D01*
X137201284Y-97258121D01*
X137180862Y-97247090D01*
X137156187Y-97233175D01*
X137134992Y-97219374D01*
X137114531Y-97203626D01*
X137092061Y-97183868D01*
X137073702Y-97166581D01*
X137045445Y-97138229D01*
X137021509Y-97110975D01*
X137000180Y-97082438D01*
X136979741Y-97050233D01*
X136958476Y-97011979D01*
X136948346Y-96992479D01*
X136928699Y-96954054D01*
X136922358Y-96972388D01*
X136910732Y-96997691D01*
X136894221Y-97023082D01*
X136875396Y-97045013D01*
X136860693Y-97057482D01*
X136830693Y-97075771D01*
X136794281Y-97093735D01*
X136750731Y-97111650D01*
X136699316Y-97129795D01*
X136639308Y-97148447D01*
X136575452Y-97166410D01*
X136550124Y-97173261D01*
X136527771Y-97179328D01*
X136510442Y-97184054D01*
X136500185Y-97186882D01*
X136498855Y-97187258D01*
X136493068Y-97187246D01*
X136490540Y-97181228D01*
X136490081Y-97170623D01*
X136490096Y-97151450D01*
X136527494Y-97139253D01*
X136545024Y-97132835D01*
X136557144Y-97127005D01*
X136561937Y-97122721D01*
X136561814Y-97122075D01*
X136562625Y-97119247D01*
X136566952Y-97120248D01*
X136577179Y-97120858D01*
X136590638Y-97118004D01*
X136591235Y-97117800D01*
X136607302Y-97112199D01*
X136577684Y-97102818D01*
X136561148Y-97098699D01*
X136543564Y-97096043D01*
X136527322Y-97094949D01*
X136514812Y-97095515D01*
X136508424Y-97097840D01*
X136508423Y-97099966D01*
X136506218Y-97102950D01*
X136500407Y-97103734D01*
X136490065Y-97103734D01*
X136490065Y-96764824D01*
X136769893Y-96764824D01*
X136770657Y-96766146D01*
X136775235Y-96772058D01*
X136776380Y-96778930D01*
X136778630Y-96789612D01*
X136784145Y-96801955D01*
X136791116Y-96812962D01*
X136797737Y-96819635D01*
X136801210Y-96820112D01*
X136804970Y-96822256D01*
X136807412Y-96831165D01*
X136809236Y-96839542D01*
X136814052Y-96843845D01*
X136824645Y-96845673D01*
X136833573Y-96846186D01*
X136848470Y-96847431D01*
X136858793Y-96849336D01*
X136861198Y-96850433D01*
X136859131Y-96852305D01*
X136849947Y-96852591D01*
X136849191Y-96852544D01*
X136831333Y-96851873D01*
X136821790Y-96853152D01*
X136818953Y-96856779D01*
X136819632Y-96859824D01*
X136826088Y-96865864D01*
X136837858Y-96870477D01*
X136838309Y-96870580D01*
X136848225Y-96873246D01*
X136849167Y-96875471D01*
X136844201Y-96877660D01*
X136838780Y-96880429D01*
X136840363Y-96883774D01*
X136849957Y-96889385D01*
X136851736Y-96890312D01*
X136866118Y-96896651D01*
X136878671Y-96900406D01*
X136880197Y-96900634D01*
X136886599Y-96900832D01*
X136888815Y-96897901D01*
X136887285Y-96889448D01*
X136884213Y-96878932D01*
X136879348Y-96864791D01*
X136874886Y-96855102D01*
X136873298Y-96853047D01*
X136869933Y-96846090D01*
X136869282Y-96840266D01*
X136864718Y-96830933D01*
X136856725Y-96826954D01*
X136849757Y-96824295D01*
X136852551Y-96822993D01*
X136853056Y-96822961D01*
X136859311Y-96820158D01*
X136859864Y-96811164D01*
X136859524Y-96809111D01*
X136857209Y-96795467D01*
X136854486Y-96778259D01*
X136853832Y-96773952D01*
X136851042Y-96760775D01*
X136847825Y-96753016D01*
X136846580Y-96752142D01*
X136844450Y-96748127D01*
X136845224Y-96742096D01*
X136846492Y-96734422D01*
X136843399Y-96732726D01*
X136834071Y-96736614D01*
X136829750Y-96738824D01*
X136821650Y-96744669D01*
X136820344Y-96749303D01*
X136820386Y-96749347D01*
X136819930Y-96751730D01*
X136816543Y-96751399D01*
X136808760Y-96751659D01*
X136797305Y-96754063D01*
X136785077Y-96757679D01*
X136774974Y-96761576D01*
X136769893Y-96764824D01*
X136490065Y-96764824D01*
X136490065Y-96704426D01*
X136806498Y-96704426D01*
X136808636Y-96713786D01*
X136812776Y-96716804D01*
X136821561Y-96714374D01*
X136831611Y-96709649D01*
X136839546Y-96705239D01*
X136872193Y-96705239D01*
X136872971Y-96720664D01*
X136875396Y-96741554D01*
X136878956Y-96763564D01*
X136879226Y-96764993D01*
X136882877Y-96783396D01*
X136885912Y-96797467D01*
X136887792Y-96804735D01*
X136888016Y-96805198D01*
X136888434Y-96800861D01*
X136888799Y-96787977D01*
X136889091Y-96768044D01*
X136889289Y-96742558D01*
X136889372Y-96713019D01*
X136889373Y-96709030D01*
X136889333Y-96691548D01*
X136928293Y-96691548D01*
X136929146Y-96715589D01*
X136930721Y-96742607D01*
X136932871Y-96770270D01*
X136935449Y-96796244D01*
X136938307Y-96818195D01*
X136939754Y-96826717D01*
X136957835Y-96897608D01*
X136984345Y-96965840D01*
X137018490Y-97029848D01*
X137059474Y-97088066D01*
X137090049Y-97122728D01*
X137133779Y-97163602D01*
X137178684Y-97196374D01*
X137226847Y-97222176D01*
X137280353Y-97242138D01*
X137281990Y-97242554D01*
X137336397Y-97256381D01*
X137352997Y-97259348D01*
X137374634Y-97262490D01*
X137399280Y-97265599D01*
X137424904Y-97268467D01*
X137449478Y-97270885D01*
X137470973Y-97272645D01*
X137487359Y-97273538D01*
X137496609Y-97273358D01*
X137497840Y-97272954D01*
X137497563Y-97267368D01*
X137493995Y-97257576D01*
X137488210Y-97248778D01*
X137486003Y-97247832D01*
X137510257Y-97247832D01*
X137511299Y-97252365D01*
X137516502Y-97261565D01*
X137516651Y-97261793D01*
X137522578Y-97269025D01*
X137530283Y-97272857D01*
X137542893Y-97274327D01*
X137554949Y-97274507D01*
X137576097Y-97272805D01*
X137603209Y-97268107D01*
X137632872Y-97261021D01*
X137637087Y-97259858D01*
X137681860Y-97245681D01*
X137718466Y-97230178D01*
X137748784Y-97212209D01*
X137774689Y-97190631D01*
X137798061Y-97164303D01*
X137801385Y-97159978D01*
X137817393Y-97140495D01*
X137835500Y-97120986D01*
X137851946Y-97105486D01*
X137852839Y-97104738D01*
X137868904Y-97092879D01*
X137888833Y-97080288D01*
X137910197Y-97068259D01*
X137930564Y-97058085D01*
X137947503Y-97051062D01*
X137958488Y-97048483D01*
X137964016Y-97048044D01*
X137965970Y-97045422D01*
X137964051Y-97038666D01*
X137957962Y-97025821D01*
X137953747Y-97017465D01*
X137931321Y-96968213D01*
X137909945Y-96911834D01*
X137890495Y-96851242D01*
X137873849Y-96789354D01*
X137860882Y-96729085D01*
X137853919Y-96685333D01*
X137850896Y-96655479D01*
X137848664Y-96620002D01*
X137847257Y-96581466D01*
X137846708Y-96542435D01*
X137847052Y-96505475D01*
X137848321Y-96473150D01*
X137850549Y-96448024D01*
X137850799Y-96446194D01*
X137854275Y-96428778D01*
X137860273Y-96416636D01*
X137871205Y-96406130D01*
X137882724Y-96398038D01*
X137886500Y-96394291D01*
X137887804Y-96388088D01*
X137886655Y-96377007D01*
X137883069Y-96358624D01*
X137883021Y-96358394D01*
X137870083Y-96313923D01*
X137850658Y-96274580D01*
X137823983Y-96239466D01*
X137789292Y-96207685D01*
X137745823Y-96178339D01*
X137715614Y-96161734D01*
X137704558Y-96156332D01*
X137694428Y-96152439D01*
X137683202Y-96149745D01*
X137668859Y-96147941D01*
X137649377Y-96146718D01*
X137622734Y-96145765D01*
X137608689Y-96145365D01*
X137578331Y-96144638D01*
X137556372Y-96144472D01*
X137541173Y-96144992D01*
X137531095Y-96146321D01*
X137524502Y-96148582D01*
X137519754Y-96151901D01*
X137519535Y-96152098D01*
X137511104Y-96161724D01*
X137511754Y-96168043D01*
X137521621Y-96172309D01*
X137521688Y-96172326D01*
X137537572Y-96180803D01*
X137551991Y-96196377D01*
X137562464Y-96216151D01*
X137564396Y-96222208D01*
X137568969Y-96245112D01*
X137572742Y-96275788D01*
X137575611Y-96311989D01*
X137577472Y-96351464D01*
X137578223Y-96391966D01*
X137577759Y-96431245D01*
X137575977Y-96467054D01*
X137575776Y-96469679D01*
X137571722Y-96513626D01*
X137567030Y-96548616D01*
X137561378Y-96575732D01*
X137554443Y-96596056D01*
X137545904Y-96610672D01*
X137535439Y-96620661D01*
X137529875Y-96624009D01*
X137515208Y-96631594D01*
X137513700Y-96707402D01*
X137512193Y-96783210D01*
X137528112Y-96789853D01*
X137541069Y-96797845D01*
X137550104Y-96807843D01*
X137550184Y-96807991D01*
X137559043Y-96830654D01*
X137566345Y-96861681D01*
X137572003Y-96899496D01*
X137575935Y-96942526D01*
X137578054Y-96989196D01*
X137578277Y-97037932D01*
X137576520Y-97087161D01*
X137572698Y-97135308D01*
X137569272Y-97163799D01*
X137564226Y-97192125D01*
X137557542Y-97212320D01*
X137548241Y-97226278D01*
X137535342Y-97235892D01*
X137530801Y-97238132D01*
X137518670Y-97243725D01*
X137511126Y-97247357D01*
X137510257Y-97247832D01*
X137486003Y-97247832D01*
X137479194Y-97244914D01*
X137467438Y-97244097D01*
X137436119Y-97239305D01*
X137408530Y-97226462D01*
X137386788Y-97206566D01*
X137386071Y-97205639D01*
X137377501Y-97192416D01*
X137370678Y-97176861D01*
X137365430Y-97157773D01*
X137361585Y-97133953D01*
X137358972Y-97104201D01*
X137357417Y-97067318D01*
X137356749Y-97022105D01*
X137356692Y-97000767D01*
X137356726Y-96980596D01*
X137371636Y-96980596D01*
X137372149Y-97016019D01*
X137373540Y-97052862D01*
X137375725Y-97088273D01*
X137378614Y-97119398D01*
X137379789Y-97128847D01*
X137386922Y-97163844D01*
X137398190Y-97190265D01*
X137414475Y-97209036D01*
X137436655Y-97221083D01*
X137465609Y-97227334D01*
X137474001Y-97228099D01*
X137501678Y-97228198D01*
X137521544Y-97223503D01*
X137534924Y-97213398D01*
X137543144Y-97197267D01*
X137543608Y-97195732D01*
X137549028Y-97170479D01*
X137553271Y-97137352D01*
X137556312Y-97098453D01*
X137558125Y-97055887D01*
X137558685Y-97011759D01*
X137557967Y-96968173D01*
X137555944Y-96927233D01*
X137552593Y-96891043D01*
X137547888Y-96861707D01*
X137547636Y-96860547D01*
X137539471Y-96833001D01*
X137528413Y-96814544D01*
X137513294Y-96804505D01*
X137492942Y-96802214D01*
X137466186Y-96807001D01*
X137458105Y-96809302D01*
X137427500Y-96823019D01*
X137403752Y-96843798D01*
X137386700Y-96871860D01*
X137376184Y-96907426D01*
X137373596Y-96925426D01*
X137372089Y-96949448D01*
X137371636Y-96980596D01*
X137356726Y-96980596D01*
X137356754Y-96964213D01*
X137357027Y-96936183D01*
X137357632Y-96915157D01*
X137358689Y-96899615D01*
X137360322Y-96888035D01*
X137362652Y-96878898D01*
X137365801Y-96870683D01*
X137367394Y-96867148D01*
X137387410Y-96834508D01*
X137413667Y-96809705D01*
X137446327Y-96792616D01*
X137475165Y-96784779D01*
X137492942Y-96781473D01*
X137493387Y-96781390D01*
X137496836Y-96737297D01*
X137498060Y-96712381D01*
X137498147Y-96686755D01*
X137497099Y-96665336D01*
X137496801Y-96662399D01*
X137494304Y-96644990D01*
X137491231Y-96635520D01*
X137486717Y-96631887D01*
X137484107Y-96631596D01*
X137468836Y-96628894D01*
X137448916Y-96621828D01*
X137427809Y-96611959D01*
X137408980Y-96600850D01*
X137399124Y-96593277D01*
X137385887Y-96578363D01*
X137373390Y-96559559D01*
X137368426Y-96549934D01*
X137364536Y-96540834D01*
X137361603Y-96532083D01*
X137359493Y-96522129D01*
X137358071Y-96509418D01*
X137357203Y-96492395D01*
X137356753Y-96469509D01*
X137356588Y-96439204D01*
X137356569Y-96413107D01*
X137356596Y-96409985D01*
X137370153Y-96409985D01*
X137370516Y-96439096D01*
X137372412Y-96469253D01*
X137373706Y-96483551D01*
X137380004Y-96522154D01*
X137390991Y-96552580D01*
X137407306Y-96575845D01*
X137429591Y-96592967D01*
X137447913Y-96601408D01*
X137478577Y-96610207D01*
X137503220Y-96611192D01*
X137522309Y-96604216D01*
X137536312Y-96589133D01*
X137544107Y-96571323D01*
X137549693Y-96546881D01*
X137553998Y-96514519D01*
X137557025Y-96476283D01*
X137558771Y-96434218D01*
X137559238Y-96390367D01*
X137558425Y-96346776D01*
X137556333Y-96305489D01*
X137552960Y-96268551D01*
X137548308Y-96238006D01*
X137544111Y-96220941D01*
X137538548Y-96206561D01*
X137531219Y-96197351D01*
X137519956Y-96192198D01*
X137502589Y-96189993D01*
X137482953Y-96189602D01*
X137455036Y-96190806D01*
X137432646Y-96195071D01*
X137415063Y-96203394D01*
X137401567Y-96216773D01*
X137391435Y-96236206D01*
X137383948Y-96262691D01*
X137378383Y-96297224D01*
X137374064Y-96340277D01*
X137371333Y-96378264D01*
X137370153Y-96409985D01*
X137356596Y-96409985D01*
X137356993Y-96363161D01*
X137358356Y-96322092D01*
X137360801Y-96288761D01*
X137364473Y-96262031D01*
X137369515Y-96240764D01*
X137376074Y-96223823D01*
X137381888Y-96213552D01*
X137400510Y-96193895D01*
X137426292Y-96179540D01*
X137457304Y-96171512D01*
X137462096Y-96170936D01*
X137478562Y-96168437D01*
X137482953Y-96166521D01*
X137488047Y-96164299D01*
X137493615Y-96157067D01*
X137494296Y-96155636D01*
X137500023Y-96143069D01*
X137448346Y-96146654D01*
X137371665Y-96155080D01*
X137303122Y-96169141D01*
X137242787Y-96188818D01*
X137190728Y-96214094D01*
X137183203Y-96218637D01*
X137154966Y-96238492D01*
X137124075Y-96264015D01*
X137093266Y-96292640D01*
X137065275Y-96321805D01*
X137042840Y-96348944D01*
X137040015Y-96352834D01*
X137010269Y-96400436D01*
X136983738Y-96454038D01*
X136961689Y-96510474D01*
X136945389Y-96566581D01*
X136937323Y-96609227D01*
X136934382Y-96630145D01*
X136931748Y-96647756D01*
X136929835Y-96659317D01*
X136929342Y-96661732D01*
X136928309Y-96672818D01*
X136928293Y-96691548D01*
X136889333Y-96691548D01*
X136889305Y-96679311D01*
X136889114Y-96653673D01*
X136888824Y-96633556D01*
X136888455Y-96620398D01*
X136888029Y-96615639D01*
X136887964Y-96615731D01*
X136884029Y-96630552D01*
X136879775Y-96651097D01*
X136875910Y-96673339D01*
X136873146Y-96693248D01*
X136872193Y-96705239D01*
X136839546Y-96705239D01*
X136843399Y-96703098D01*
X136844168Y-96702671D01*
X136830029Y-96697270D01*
X136816152Y-96692767D01*
X136809081Y-96693449D01*
X136806653Y-96699973D01*
X136806498Y-96704426D01*
X136490065Y-96704426D01*
X136490065Y-96630340D01*
X136780168Y-96630340D01*
X136780254Y-96644295D01*
X136788442Y-96652614D01*
X136793149Y-96654323D01*
X136806533Y-96659057D01*
X136815614Y-96663072D01*
X136816152Y-96663246D01*
X136825317Y-96666214D01*
X136831100Y-96662630D01*
X136831861Y-96661500D01*
X136835717Y-96657506D01*
X136836557Y-96660477D01*
X136840680Y-96666041D01*
X136844168Y-96666755D01*
X136850290Y-96662514D01*
X136851702Y-96656124D01*
X136849578Y-96648312D01*
X136841690Y-96648111D01*
X136841650Y-96648121D01*
X136834852Y-96648452D01*
X136834412Y-96646196D01*
X136841226Y-96642377D01*
X136846976Y-96641641D01*
X136855159Y-96637946D01*
X136856725Y-96631596D01*
X136855827Y-96626440D01*
X136851740Y-96623424D01*
X136842371Y-96621987D01*
X136825631Y-96621564D01*
X136819423Y-96621550D01*
X136799824Y-96621904D01*
X136788139Y-96623281D01*
X136782248Y-96626155D01*
X136780168Y-96630340D01*
X136490065Y-96630340D01*
X136490065Y-96610903D01*
X136790111Y-96610903D01*
X136794180Y-96613887D01*
X136806168Y-96615487D01*
X136807572Y-96615598D01*
X136819423Y-96615199D01*
X136823686Y-96615055D01*
X136832212Y-96610699D01*
X136832292Y-96610575D01*
X136835808Y-96606772D01*
X136836557Y-96610249D01*
X136840910Y-96614967D01*
X136849191Y-96616528D01*
X136858945Y-96614262D01*
X136861747Y-96606161D01*
X136861748Y-96605912D01*
X136860155Y-96598622D01*
X136853438Y-96596796D01*
X136846680Y-96597508D01*
X136835473Y-96597514D01*
X136831611Y-96594064D01*
X136836106Y-96590513D01*
X136848425Y-96590374D01*
X136849140Y-96590455D01*
X136861873Y-96590649D01*
X136868133Y-96586544D01*
X136869598Y-96583168D01*
X136874655Y-96570300D01*
X136877183Y-96565113D01*
X136881567Y-96552795D01*
X136878202Y-96546819D01*
X136874305Y-96546209D01*
X136868245Y-96550576D01*
X136866771Y-96558766D01*
X136866009Y-96566079D01*
X136862052Y-96569813D01*
X136852390Y-96571161D01*
X136840354Y-96571323D01*
X136823215Y-96572236D01*
X136813132Y-96575548D01*
X136807873Y-96581032D01*
X136804494Y-96588819D01*
X136808534Y-96592450D01*
X136810432Y-96593007D01*
X136814767Y-96594814D01*
X136809466Y-96595769D01*
X136808003Y-96595854D01*
X136796918Y-96600030D01*
X136791995Y-96605226D01*
X136790111Y-96610903D01*
X136490065Y-96610903D01*
X136490065Y-96557783D01*
X136822734Y-96557783D01*
X136823978Y-96562364D01*
X136834891Y-96564987D01*
X136841657Y-96565441D01*
X136854733Y-96565177D01*
X136860539Y-96562194D01*
X136861748Y-96556219D01*
X136857882Y-96548342D01*
X136847830Y-96546176D01*
X136833913Y-96550087D01*
X136831281Y-96551409D01*
X136822734Y-96557783D01*
X136490065Y-96557783D01*
X136490065Y-96539758D01*
X136841657Y-96539758D01*
X136846178Y-96540573D01*
X136847830Y-96540647D01*
X136857737Y-96541090D01*
X136866771Y-96541187D01*
X136874305Y-96540922D01*
X136881834Y-96540658D01*
X136888029Y-96538807D01*
X136889347Y-96538413D01*
X136891777Y-96533465D01*
X136891884Y-96531141D01*
X136888192Y-96523120D01*
X136878198Y-96521336D01*
X136863525Y-96525853D01*
X136856244Y-96529713D01*
X136846415Y-96535894D01*
X136841723Y-96539583D01*
X136841657Y-96539758D01*
X136490065Y-96539758D01*
X136490065Y-96322502D01*
X136528392Y-96324438D01*
X136548262Y-96325073D01*
X136559494Y-96324381D01*
X136563428Y-96322198D01*
X136562922Y-96320230D01*
X136562476Y-96316205D01*
X136569136Y-96317264D01*
X136578109Y-96317865D01*
X136589309Y-96316057D01*
X136599302Y-96312818D01*
X136604656Y-96309126D01*
X136604354Y-96307232D01*
X136597816Y-96304656D01*
X136589845Y-96303216D01*
X136577108Y-96300672D01*
X136570429Y-96298399D01*
X136562157Y-96295121D01*
X136547439Y-96289703D01*
X136529329Y-96283268D01*
X136527736Y-96282712D01*
X136492576Y-96270453D01*
X136491072Y-96242643D01*
X136490769Y-96226258D01*
X136492346Y-96218237D01*
X136496095Y-96217020D01*
X136503015Y-96219250D01*
X136517628Y-96223903D01*
X136538046Y-96230380D01*
X136562383Y-96238082D01*
X136572940Y-96241418D01*
X136633148Y-96261330D01*
X136689879Y-96281849D01*
X136742096Y-96302519D01*
X136788761Y-96322885D01*
X136828836Y-96342491D01*
X136861282Y-96360882D01*
X136878198Y-96372776D01*
X136885061Y-96377602D01*
X136886909Y-96379153D01*
G37*
G36*
X138511133Y-101471706D02*
G01*
X138521536Y-101480083D01*
X138533273Y-101490681D01*
X138556754Y-101512867D01*
X138533252Y-101547187D01*
X138519914Y-101566017D01*
X138504275Y-101587085D01*
X138487529Y-101608897D01*
X138470874Y-101629963D01*
X138455507Y-101648789D01*
X138442622Y-101663884D01*
X138433416Y-101673754D01*
X138429237Y-101676939D01*
X138423626Y-101673723D01*
X138413486Y-101665518D01*
X138401138Y-101654489D01*
X138388903Y-101642802D01*
X138379104Y-101632622D01*
X138374062Y-101626113D01*
X138373818Y-101625255D01*
X138377061Y-101619982D01*
X138385339Y-101609610D01*
X138396691Y-101596575D01*
X138408868Y-101582585D01*
X138425085Y-101563278D01*
X138443187Y-101541248D01*
X138460312Y-101519978D01*
X138475871Y-101500815D01*
X138489388Y-101484887D01*
X138499569Y-101473668D01*
X138505120Y-101468632D01*
X138505539Y-101468495D01*
X138511133Y-101471706D01*
G37*
G36*
X136515179Y-96287538D02*
G01*
X136512667Y-96290050D01*
X136510156Y-96287538D01*
X136512667Y-96285027D01*
X136515179Y-96287538D01*
G37*
G36*
X137805031Y-102224119D02*
G01*
X137816568Y-102235341D01*
X137824226Y-102244323D01*
X137826114Y-102248039D01*
X137823413Y-102253578D01*
X137816116Y-102265516D01*
X137805429Y-102282053D01*
X137792562Y-102301389D01*
X137778720Y-102321725D01*
X137765113Y-102341260D01*
X137752948Y-102358194D01*
X137745915Y-102367566D01*
X137736215Y-102380123D01*
X137713358Y-102357730D01*
X137701587Y-102345769D01*
X137693426Y-102336653D01*
X137690753Y-102332617D01*
X137693693Y-102327770D01*
X137701512Y-102316579D01*
X137713024Y-102300706D01*
X137727041Y-102281812D01*
X137727168Y-102281643D01*
X137742419Y-102261259D01*
X137756421Y-102242484D01*
X137767522Y-102227537D01*
X137773639Y-102219231D01*
X137783948Y-102205072D01*
X137805031Y-102224119D01*
G37*
G36*
X136806498Y-96784789D02*
G01*
X136803986Y-96787301D01*
X136801475Y-96784789D01*
X136803986Y-96782278D01*
X136806498Y-96784789D01*
G37*
G36*
X137057635Y-98891829D02*
G01*
X136495088Y-98891829D01*
X136495088Y-98711011D01*
X137057635Y-98711011D01*
X137057635Y-98891829D01*
G37*
G36*
X137056045Y-96634575D02*
G01*
X137058353Y-96637874D01*
X137058888Y-96644909D01*
X137059153Y-96660037D01*
X137059141Y-96681311D01*
X137058845Y-96706783D01*
X137058629Y-96718553D01*
X137057996Y-96747255D01*
X137057292Y-96767387D01*
X137056264Y-96780422D01*
X137054657Y-96787834D01*
X137052218Y-96791097D01*
X137048692Y-96791684D01*
X137046072Y-96791383D01*
X137041765Y-96790374D01*
X137038729Y-96787739D01*
X137036711Y-96781923D01*
X137035464Y-96771370D01*
X137034735Y-96754526D01*
X137034276Y-96729834D01*
X137034106Y-96716982D01*
X137033948Y-96690586D01*
X137034142Y-96667557D01*
X137034648Y-96649868D01*
X137035422Y-96639493D01*
X137035781Y-96637874D01*
X137042396Y-96632506D01*
X137047470Y-96631596D01*
X137056045Y-96634575D01*
G37*
G36*
X136836240Y-96820347D02*
G01*
X136836634Y-96822164D01*
X136832988Y-96827278D01*
X136831611Y-96827483D01*
X136826719Y-96825769D01*
X136826589Y-96825268D01*
X136830108Y-96820980D01*
X136831611Y-96819949D01*
X136836240Y-96820347D01*
G37*
G36*
X136836634Y-96578857D02*
G01*
X136834123Y-96581368D01*
X136831611Y-96578857D01*
X136834123Y-96576346D01*
X136836634Y-96578857D01*
G37*
G36*
X137921546Y-103668456D02*
G01*
X137605113Y-103668456D01*
X137605113Y-103598715D01*
X137609382Y-103598406D01*
X137710591Y-103598406D01*
X137784676Y-103597016D01*
X137858762Y-103595626D01*
X137860064Y-103345745D01*
X137861367Y-103095863D01*
X137710591Y-103095863D01*
X137710591Y-103598406D01*
X137609382Y-103598406D01*
X137626460Y-103597170D01*
X137647807Y-103595626D01*
X137649109Y-103345745D01*
X137650412Y-103095863D01*
X137605113Y-103095863D01*
X137605113Y-103025545D01*
X137921546Y-103025545D01*
X137921546Y-103668456D01*
G37*
G36*
X138443911Y-98218782D02*
G01*
X138569480Y-98218782D01*
X138569480Y-98299146D01*
X138443911Y-98299146D01*
X138443911Y-98665806D01*
X137896558Y-98665806D01*
X137895976Y-98585442D01*
X137966751Y-98585442D01*
X138132501Y-98585442D01*
X138132501Y-98299146D01*
X137966751Y-98299146D01*
X137966751Y-98585442D01*
X137895976Y-98585442D01*
X137895239Y-98483732D01*
X137893921Y-98301657D01*
X137828625Y-98300333D01*
X137800119Y-98299989D01*
X137779571Y-98300425D01*
X137764909Y-98301832D01*
X137754063Y-98304397D01*
X137745820Y-98307867D01*
X137737541Y-98312361D01*
X137730941Y-98317301D01*
X137725828Y-98323806D01*
X137722012Y-98332997D01*
X137719303Y-98345994D01*
X137717510Y-98363918D01*
X137716443Y-98387890D01*
X137715910Y-98419030D01*
X137715722Y-98458457D01*
X137715696Y-98484987D01*
X137715735Y-98527476D01*
X137715942Y-98561134D01*
X137716382Y-98587176D01*
X137717121Y-98606817D01*
X137718224Y-98621271D01*
X137719759Y-98631753D01*
X137721789Y-98639476D01*
X137724382Y-98645656D01*
X137724411Y-98645715D01*
X137734619Y-98659828D01*
X137750418Y-98671285D01*
X137772958Y-98680580D01*
X137803391Y-98688208D01*
X137836160Y-98693727D01*
X137858995Y-98697106D01*
X137877856Y-98700090D01*
X137890713Y-98702344D01*
X137895518Y-98703505D01*
X137894704Y-98708578D01*
X137891129Y-98720742D01*
X137885497Y-98737661D01*
X137883588Y-98743100D01*
X137876489Y-98762151D01*
X137871135Y-98773347D01*
X137866340Y-98778442D01*
X137860918Y-98779189D01*
X137859388Y-98778915D01*
X137849715Y-98777013D01*
X137833150Y-98773920D01*
X137812695Y-98770193D01*
X137804779Y-98768772D01*
X137765034Y-98760829D01*
X137733879Y-98752559D01*
X137709863Y-98743427D01*
X137691532Y-98732896D01*
X137679366Y-98722474D01*
X137669919Y-98712534D01*
X137662269Y-98703308D01*
X137656220Y-98693636D01*
X137651572Y-98682353D01*
X137648130Y-98668298D01*
X137645696Y-98650308D01*
X137644071Y-98627221D01*
X137643058Y-98597875D01*
X137642461Y-98561107D01*
X137642080Y-98515754D01*
X137641994Y-98502567D01*
X137641874Y-98462313D01*
X137642028Y-98424398D01*
X137642427Y-98390228D01*
X137643047Y-98361211D01*
X137643860Y-98338755D01*
X137644842Y-98324266D01*
X137645361Y-98320579D01*
X137652446Y-98298903D01*
X138202820Y-98298903D01*
X138202820Y-98585442D01*
X138373749Y-98585442D01*
X138372415Y-98443550D01*
X138371081Y-98301657D01*
X138286951Y-98300280D01*
X138202820Y-98298903D01*
X137652446Y-98298903D01*
X137656649Y-98286042D01*
X137674551Y-98258602D01*
X137698695Y-98238715D01*
X137719575Y-98229381D01*
X137731070Y-98227085D01*
X137750339Y-98224773D01*
X137775113Y-98222655D01*
X137803124Y-98220941D01*
X137817324Y-98220314D01*
X137857295Y-98218782D01*
X137966751Y-98218782D01*
X138132501Y-98218782D01*
X138202820Y-98218782D01*
X138373593Y-98218782D01*
X138373593Y-97937508D01*
X138202820Y-97937508D01*
X138202820Y-98218782D01*
X138132501Y-98218782D01*
X138132501Y-97937508D01*
X137966751Y-97937508D01*
X137966751Y-98218782D01*
X137857295Y-98218782D01*
X137896432Y-98217282D01*
X137896432Y-97937508D01*
X137826114Y-97937508D01*
X137826114Y-97857145D01*
X138443911Y-97857145D01*
X138443911Y-98218782D01*
G37*
G36*
X137683214Y-96244495D02*
G01*
X137685530Y-96257112D01*
X137687475Y-96275573D01*
X137688914Y-96297778D01*
X137689713Y-96321627D01*
X137689737Y-96345020D01*
X137688853Y-96365855D01*
X137688782Y-96366791D01*
X137683202Y-96408435D01*
X137673320Y-96451069D01*
X137660230Y-96490490D01*
X137651294Y-96510847D01*
X137641055Y-96529407D01*
X137633176Y-96538513D01*
X137627330Y-96538393D01*
X137623401Y-96530091D01*
X137620855Y-96512897D01*
X137621718Y-96491631D01*
X137626199Y-96464941D01*
X137634506Y-96431478D01*
X137643280Y-96401430D01*
X137651863Y-96371442D01*
X137659790Y-96340352D01*
X137666268Y-96311491D01*
X137670508Y-96288192D01*
X137670997Y-96284651D01*
X137673935Y-96264886D01*
X137676980Y-96249571D01*
X137679651Y-96240938D01*
X137680661Y-96239822D01*
X137683214Y-96244495D01*
G37*
G36*
X136806498Y-96769721D02*
G01*
X136803986Y-96772233D01*
X136801475Y-96769721D01*
X136803986Y-96767210D01*
X136806498Y-96769721D01*
G37*
G36*
X136835042Y-96766268D02*
G01*
X136835641Y-96774118D01*
X136834646Y-96775895D01*
X136832363Y-96774397D01*
X136832008Y-96769303D01*
X136833235Y-96763943D01*
X136835042Y-96766268D01*
G37*
G36*
X138333411Y-102412770D02*
G01*
X138398706Y-102412770D01*
X138398706Y-102111406D01*
X138458979Y-102111406D01*
X138458979Y-102412770D01*
X138574502Y-102412770D01*
X138574502Y-102483089D01*
X138458979Y-102483089D01*
X138458979Y-102799522D01*
X138398706Y-102799522D01*
X138398706Y-102483089D01*
X138333411Y-102483089D01*
X138333411Y-102739249D01*
X137961728Y-102739249D01*
X137961728Y-102668930D01*
X138022228Y-102668930D01*
X138019490Y-102485600D01*
X137988097Y-102484105D01*
X137957125Y-102482630D01*
X138077251Y-102482630D01*
X138077251Y-102668930D01*
X138147796Y-102668930D01*
X138202820Y-102668930D01*
X138273138Y-102668930D01*
X138273138Y-102483089D01*
X138202820Y-102483089D01*
X138202820Y-102668930D01*
X138147796Y-102668930D01*
X138145058Y-102485600D01*
X138111155Y-102484115D01*
X138077251Y-102482630D01*
X137957125Y-102482630D01*
X137956705Y-102482610D01*
X137956705Y-102412770D01*
X138022001Y-102412770D01*
X138077251Y-102412770D01*
X138147569Y-102412770D01*
X138202820Y-102412770D01*
X138273138Y-102412770D01*
X138273138Y-102231952D01*
X138202820Y-102231952D01*
X138202820Y-102412770D01*
X138147569Y-102412770D01*
X138147569Y-102231952D01*
X138077251Y-102231952D01*
X138077251Y-102412770D01*
X138022001Y-102412770D01*
X138022001Y-102231952D01*
X137941637Y-102231952D01*
X137941637Y-102161633D01*
X138333411Y-102161633D01*
X138333411Y-102412770D01*
G37*
G36*
X137175809Y-96444579D02*
G01*
X137181184Y-96449802D01*
X137182274Y-96454367D01*
X137180779Y-96463713D01*
X137171425Y-96468610D01*
X137171303Y-96468641D01*
X137162680Y-96472978D01*
X137156016Y-96482009D01*
X137150809Y-96497126D01*
X137146553Y-96519717D01*
X137143305Y-96545855D01*
X137139719Y-96586400D01*
X137137253Y-96629861D01*
X137135856Y-96675006D01*
X137135477Y-96720602D01*
X137136066Y-96765417D01*
X137137572Y-96808216D01*
X137139944Y-96847767D01*
X137143133Y-96882837D01*
X137147087Y-96912192D01*
X137151756Y-96934601D01*
X137157090Y-96948829D01*
X137159982Y-96952483D01*
X137169131Y-96956755D01*
X137178180Y-96958848D01*
X137187956Y-96962791D01*
X137190735Y-96972677D01*
X137190737Y-96973142D01*
X137189246Y-96981773D01*
X137182834Y-96985805D01*
X137172890Y-96987199D01*
X137153531Y-96985475D01*
X137139158Y-96976138D01*
X137129110Y-96958508D01*
X137123448Y-96936326D01*
X137118296Y-96899173D01*
X137114222Y-96854375D01*
X137111292Y-96804277D01*
X137109572Y-96751228D01*
X137109131Y-96697575D01*
X137110035Y-96645667D01*
X137112351Y-96597852D01*
X137113394Y-96583880D01*
X137117325Y-96541486D01*
X137121585Y-96508161D01*
X137126525Y-96482927D01*
X137132492Y-96464808D01*
X137139837Y-96452826D01*
X137148908Y-96446004D01*
X137160055Y-96443365D01*
X137163654Y-96443243D01*
X137175809Y-96444579D01*
G37*
G36*
X137523950Y-96245265D02*
G01*
X137529519Y-96253635D01*
X137532069Y-96264103D01*
X137534267Y-96283826D01*
X137536127Y-96313014D01*
X137537664Y-96351878D01*
X137538600Y-96386945D01*
X137541299Y-96506443D01*
X137527062Y-96521303D01*
X137514370Y-96532562D01*
X137504797Y-96535542D01*
X137496437Y-96530664D01*
X137494491Y-96528482D01*
X137491193Y-96521659D01*
X137494656Y-96514163D01*
X137498899Y-96509323D01*
X137507362Y-96494729D01*
X137509681Y-96482342D01*
X137507692Y-96470600D01*
X137500065Y-96461721D01*
X137491856Y-96456320D01*
X137477084Y-96443895D01*
X137466795Y-96428486D01*
X137466742Y-96428360D01*
X137461894Y-96416171D01*
X137460252Y-96407576D01*
X137461853Y-96398302D01*
X137466734Y-96384076D01*
X137467133Y-96382970D01*
X137471584Y-96370515D01*
X137474181Y-96363057D01*
X137474447Y-96362196D01*
X137478541Y-96359847D01*
X137488670Y-96354815D01*
X137492676Y-96352898D01*
X137504260Y-96346581D01*
X137508743Y-96340059D01*
X137508343Y-96329381D01*
X137507800Y-96325956D01*
X137505639Y-96307917D01*
X137504714Y-96290430D01*
X137504659Y-96273230D01*
X137492249Y-96284888D01*
X137482802Y-96292332D01*
X137476118Y-96292770D01*
X137472158Y-96290172D01*
X137465979Y-96283231D01*
X137465970Y-96275960D01*
X137472759Y-96266141D01*
X137481554Y-96256899D01*
X137498190Y-96243873D01*
X137512527Y-96239981D01*
X137523950Y-96245265D01*
G37*
G36*
X137901455Y-102593589D02*
G01*
X137961728Y-102593589D01*
X137961728Y-102663908D01*
X137901455Y-102663908D01*
X137901455Y-102824635D01*
X137841182Y-102824635D01*
X137841182Y-102664809D01*
X137764585Y-102663103D01*
X137728301Y-102661857D01*
X137700468Y-102659549D01*
X137679501Y-102655583D01*
X137663816Y-102649361D01*
X137651829Y-102640286D01*
X137641957Y-102627760D01*
X137634002Y-102613874D01*
X137629053Y-102604074D01*
X137625453Y-102595278D01*
X137622989Y-102585690D01*
X137621444Y-102573511D01*
X137620604Y-102556943D01*
X137620255Y-102534190D01*
X137620182Y-102503452D01*
X137620182Y-102408888D01*
X137644040Y-102405446D01*
X137660551Y-102402872D01*
X137674234Y-102400413D01*
X137677943Y-102399619D01*
X137681635Y-102399113D01*
X137684251Y-102400549D01*
X137685935Y-102405309D01*
X137686828Y-102414773D01*
X137687075Y-102430323D01*
X137686819Y-102453340D01*
X137686302Y-102480298D01*
X137684615Y-102563363D01*
X137714841Y-102593589D01*
X137841182Y-102593589D01*
X137841182Y-102086292D01*
X137901455Y-102086292D01*
X137901455Y-102593589D01*
G37*
G36*
X136579586Y-97110594D02*
G01*
X136578800Y-97112105D01*
X136572839Y-97112706D01*
X136572103Y-97112105D01*
X136572793Y-97109119D01*
X136575452Y-97108756D01*
X136579586Y-97110594D01*
G37*
G36*
X136836634Y-96835017D02*
G01*
X136834123Y-96837528D01*
X136831611Y-96835017D01*
X136834123Y-96832506D01*
X136836634Y-96835017D01*
G37*
G36*
X137057635Y-103100886D02*
G01*
X136996902Y-103100886D01*
X137014946Y-103124517D01*
X137033384Y-103152191D01*
X137050238Y-103183911D01*
X137063818Y-103216070D01*
X137072435Y-103245065D01*
X137073182Y-103248848D01*
X137076318Y-103290154D01*
X137071153Y-103330384D01*
X137058340Y-103367867D01*
X137038531Y-103400934D01*
X137012380Y-103427915D01*
X136999555Y-103437098D01*
X136978549Y-103450420D01*
X137003197Y-103482841D01*
X137024527Y-103514014D01*
X137043699Y-103547906D01*
X137059340Y-103581697D01*
X137070074Y-103612570D01*
X137073270Y-103626585D01*
X137076184Y-103667984D01*
X137070845Y-103707667D01*
X137057895Y-103744169D01*
X137037974Y-103776024D01*
X137011723Y-103801768D01*
X136990950Y-103814847D01*
X136978961Y-103820792D01*
X136967627Y-103825745D01*
X136955906Y-103829809D01*
X136942757Y-103833089D01*
X136927138Y-103835686D01*
X136908007Y-103837704D01*
X136884323Y-103839245D01*
X136855045Y-103840413D01*
X136819130Y-103841310D01*
X136775537Y-103842040D01*
X136723225Y-103842706D01*
X136707299Y-103842890D01*
X136495088Y-103845313D01*
X136495088Y-103664179D01*
X136684696Y-103662550D01*
X136733624Y-103662103D01*
X136773554Y-103661646D01*
X136805535Y-103661120D01*
X136830616Y-103660468D01*
X136849843Y-103659632D01*
X136864267Y-103658552D01*
X136874934Y-103657170D01*
X136882893Y-103655429D01*
X136889193Y-103653269D01*
X136894396Y-103650876D01*
X136912342Y-103638706D01*
X136923966Y-103622447D01*
X136929996Y-103600450D01*
X136931162Y-103571067D01*
X136931053Y-103568001D01*
X136928767Y-103541977D01*
X136923531Y-103520687D01*
X136915361Y-103501450D01*
X136901191Y-103472569D01*
X136495088Y-103472569D01*
X136495088Y-103292402D01*
X136684696Y-103290821D01*
X136733529Y-103290390D01*
X136773366Y-103289953D01*
X136805254Y-103289450D01*
X136830242Y-103288821D01*
X136849379Y-103288007D01*
X136863713Y-103286947D01*
X136874294Y-103285582D01*
X136882168Y-103283851D01*
X136888386Y-103281696D01*
X136893995Y-103279055D01*
X136894396Y-103278849D01*
X136913898Y-103263453D01*
X136926694Y-103241703D01*
X136932586Y-103214893D01*
X136931376Y-103184322D01*
X136922868Y-103151283D01*
X136916254Y-103135190D01*
X136900443Y-103100886D01*
X136495088Y-103100886D01*
X136495088Y-102920067D01*
X137057635Y-102920067D01*
X137057635Y-103100886D01*
G37*
G36*
X138047386Y-99827460D02*
G01*
X138053158Y-99829851D01*
X138054350Y-99831831D01*
X138056543Y-99838995D01*
X138060920Y-99853779D01*
X138066884Y-99874149D01*
X138073837Y-99898072D01*
X138075164Y-99902656D01*
X138093691Y-99966696D01*
X138308297Y-99966696D01*
X138308297Y-99836104D01*
X138373593Y-99836104D01*
X138373593Y-99966696D01*
X138569480Y-99966696D01*
X138569480Y-100042037D01*
X138373593Y-100042037D01*
X138373593Y-100157560D01*
X138308297Y-100157560D01*
X138308297Y-100042037D01*
X138212865Y-100042037D01*
X138183148Y-100042146D01*
X138157205Y-100042450D01*
X138136580Y-100042913D01*
X138122816Y-100043500D01*
X138117454Y-100044175D01*
X138117433Y-100044221D01*
X138119020Y-100050049D01*
X138121990Y-100058391D01*
X138125562Y-100068697D01*
X138131020Y-100085473D01*
X138137347Y-100105574D01*
X138139163Y-100111457D01*
X138151778Y-100152537D01*
X138077571Y-100152537D01*
X138060534Y-100098543D01*
X138043497Y-100044548D01*
X137863231Y-100042037D01*
X137813845Y-100041324D01*
X137773446Y-100040599D01*
X137740980Y-100039713D01*
X137715389Y-100038520D01*
X137695617Y-100036872D01*
X137680608Y-100034621D01*
X137669306Y-100031619D01*
X137660654Y-100027720D01*
X137653596Y-100022776D01*
X137647075Y-100016639D01*
X137641863Y-100011122D01*
X137633047Y-99999899D01*
X137626907Y-99987024D01*
X137623008Y-99970505D01*
X137620917Y-99948351D01*
X137620199Y-99918570D01*
X137620182Y-99911656D01*
X137620486Y-99884457D01*
X137621494Y-99865988D01*
X137623343Y-99854950D01*
X137626175Y-99850041D01*
X137626841Y-99849692D01*
X137635074Y-99847852D01*
X137649913Y-99845597D01*
X137665963Y-99843660D01*
X137698427Y-99840184D01*
X137696379Y-99891180D01*
X137695601Y-99914561D01*
X137695747Y-99930208D01*
X137697160Y-99940417D01*
X137700185Y-99947484D01*
X137705163Y-99953703D01*
X137705848Y-99954436D01*
X137717365Y-99966696D01*
X137867709Y-99966696D01*
X137912146Y-99966612D01*
X137947395Y-99966335D01*
X137974311Y-99965831D01*
X137993751Y-99965061D01*
X138006572Y-99963990D01*
X138013628Y-99962582D01*
X138015776Y-99960799D01*
X138015701Y-99960417D01*
X138009925Y-99944185D01*
X138003166Y-99923946D01*
X137996064Y-99901790D01*
X137989259Y-99879804D01*
X137983393Y-99860076D01*
X137979105Y-99844694D01*
X137977037Y-99835747D01*
X137977023Y-99834348D01*
X137982789Y-99832846D01*
X137995867Y-99830877D01*
X138013558Y-99828840D01*
X138015686Y-99828627D01*
X138035531Y-99827105D01*
X138047386Y-99827460D01*
G37*
G36*
X138458979Y-103121154D02*
G01*
X138458889Y-103174135D01*
X138458768Y-103217802D01*
X138458837Y-103252880D01*
X138459320Y-103280099D01*
X138460440Y-103300184D01*
X138462419Y-103313864D01*
X138465479Y-103321864D01*
X138469844Y-103324914D01*
X138475736Y-103323740D01*
X138483377Y-103319069D01*
X138492991Y-103311628D01*
X138504801Y-103302146D01*
X138512554Y-103296140D01*
X138528976Y-103283742D01*
X138540075Y-103276976D01*
X138548146Y-103276422D01*
X138555483Y-103282654D01*
X138564382Y-103296251D01*
X138573336Y-103311418D01*
X138586478Y-103333596D01*
X138565746Y-103351994D01*
X138549553Y-103365898D01*
X138532216Y-103380032D01*
X138515525Y-103393036D01*
X138501268Y-103403548D01*
X138491231Y-103410208D01*
X138487251Y-103411750D01*
X138483748Y-103406758D01*
X138476673Y-103396305D01*
X138472311Y-103389783D01*
X138458979Y-103369782D01*
X138458979Y-103789001D01*
X138273138Y-103789001D01*
X138273138Y-103718683D01*
X138393684Y-103718683D01*
X138393684Y-102980340D01*
X138273138Y-102980340D01*
X138273138Y-102910022D01*
X138458979Y-102910022D01*
X138458979Y-103121154D01*
G37*
G36*
X136875928Y-96874525D02*
G01*
X136875142Y-96876036D01*
X136869181Y-96876637D01*
X136868445Y-96876036D01*
X136869134Y-96873050D01*
X136871793Y-96872687D01*
X136875928Y-96874525D01*
G37*
G36*
X136569540Y-96306955D02*
G01*
X136568755Y-96308466D01*
X136562794Y-96309067D01*
X136562058Y-96308466D01*
X136562747Y-96305480D01*
X136565406Y-96305118D01*
X136569540Y-96306955D01*
G37*
G36*
X136865096Y-96578020D02*
G01*
X136865697Y-96583981D01*
X136865096Y-96584717D01*
X136862110Y-96584027D01*
X136861748Y-96581368D01*
X136863586Y-96577234D01*
X136865096Y-96578020D01*
G37*
G36*
X138548133Y-102572972D02*
G01*
X138560483Y-102581574D01*
X138568190Y-102589059D01*
X138569480Y-102591864D01*
X138567499Y-102598612D01*
X138562236Y-102612129D01*
X138554712Y-102630106D01*
X138545947Y-102650234D01*
X138536960Y-102670204D01*
X138528772Y-102687707D01*
X138522404Y-102700435D01*
X138519116Y-102705850D01*
X138512995Y-102705990D01*
X138502032Y-102701702D01*
X138489287Y-102694758D01*
X138477821Y-102686931D01*
X138470696Y-102679995D01*
X138469731Y-102677243D01*
X138472165Y-102670740D01*
X138478289Y-102657241D01*
X138487192Y-102638682D01*
X138497967Y-102616998D01*
X138498612Y-102615722D01*
X138526786Y-102560002D01*
X138548133Y-102572972D01*
G37*
G36*
X138192774Y-100187696D02*
G01*
X138192774Y-100443856D01*
X138343456Y-100443856D01*
X138343456Y-100187696D01*
X138413775Y-100187696D01*
X138413775Y-100443856D01*
X138574502Y-100443856D01*
X138574502Y-100519197D01*
X138413775Y-100519197D01*
X138413775Y-100785402D01*
X138343456Y-100785402D01*
X138343456Y-100519197D01*
X138192774Y-100519197D01*
X138192774Y-100730152D01*
X138163269Y-100730152D01*
X138135803Y-100726848D01*
X138102461Y-100717444D01*
X138064702Y-100702700D01*
X138023986Y-100683379D01*
X137981774Y-100660241D01*
X137939525Y-100634048D01*
X137898699Y-100605562D01*
X137860756Y-100575544D01*
X137851526Y-100567568D01*
X137832874Y-100551739D01*
X137820023Y-100542442D01*
X137811828Y-100538952D01*
X137807768Y-100539925D01*
X137800378Y-100548413D01*
X137789581Y-100563770D01*
X137776615Y-100583962D01*
X137762721Y-100606953D01*
X137749140Y-100630707D01*
X137737113Y-100653189D01*
X137730336Y-100666966D01*
X137719752Y-100691057D01*
X137708200Y-100719658D01*
X137697707Y-100747689D01*
X137694868Y-100755815D01*
X137678385Y-100804080D01*
X137642321Y-100773983D01*
X137606256Y-100743887D01*
X137618083Y-100717144D01*
X137652686Y-100644469D01*
X137689107Y-100579298D01*
X137728782Y-100519099D01*
X137736423Y-100508537D01*
X137747667Y-100492970D01*
X137756171Y-100480743D01*
X137759205Y-100475976D01*
X137859868Y-100475976D01*
X137894519Y-100509019D01*
X137915048Y-100527208D01*
X137939877Y-100547186D01*
X137964708Y-100565547D01*
X137973121Y-100571306D01*
X137998310Y-100586822D01*
X138027681Y-100602971D01*
X138058281Y-100618288D01*
X138087152Y-100631313D01*
X138111340Y-100640582D01*
X138116177Y-100642102D01*
X138127478Y-100645443D01*
X138127478Y-100328814D01*
X138106132Y-100335558D01*
X138048952Y-100356210D01*
X137996474Y-100380996D01*
X137945692Y-100411532D01*
X137893603Y-100449432D01*
X137891963Y-100450720D01*
X137859868Y-100475976D01*
X137759205Y-100475976D01*
X137760529Y-100473895D01*
X137760818Y-100473179D01*
X137758204Y-100468452D01*
X137751037Y-100456961D01*
X137740337Y-100440303D01*
X137727118Y-100420073D01*
X137723411Y-100414450D01*
X137689530Y-100359657D01*
X137656470Y-100299704D01*
X137626771Y-100239330D01*
X137613452Y-100209233D01*
X137596896Y-100170117D01*
X137629231Y-100146023D01*
X137644395Y-100135016D01*
X137656128Y-100127049D01*
X137662440Y-100123455D01*
X137662973Y-100123421D01*
X137665194Y-100128449D01*
X137670111Y-100140892D01*
X137676940Y-100158741D01*
X137683098Y-100175139D01*
X137701939Y-100221435D01*
X137724690Y-100270548D01*
X137749504Y-100318775D01*
X137774534Y-100362412D01*
X137784122Y-100377644D01*
X137811263Y-100419422D01*
X137824967Y-100408855D01*
X137859336Y-100383336D01*
X137894061Y-100359318D01*
X137926198Y-100338789D01*
X137944148Y-100328344D01*
X137969246Y-100315670D01*
X138000505Y-100301620D01*
X138034441Y-100287615D01*
X138067568Y-100275076D01*
X138096400Y-100265424D01*
X138103620Y-100263323D01*
X138127478Y-100256709D01*
X138127478Y-100187696D01*
X138192774Y-100187696D01*
G37*
G36*
X136887440Y-102188605D02*
G01*
X136934753Y-102208858D01*
X136976020Y-102236672D01*
X137010818Y-102271735D01*
X137038725Y-102313737D01*
X137059318Y-102362365D01*
X137065921Y-102385650D01*
X137070934Y-102414962D01*
X137073727Y-102450575D01*
X137074303Y-102488996D01*
X137072665Y-102526730D01*
X137068815Y-102560282D01*
X137065757Y-102575685D01*
X137048727Y-102626771D01*
X137023996Y-102671480D01*
X136991872Y-102709502D01*
X136952663Y-102740525D01*
X136906675Y-102764239D01*
X136866408Y-102777433D01*
X136838498Y-102782418D01*
X136804418Y-102785217D01*
X136767684Y-102785828D01*
X136731812Y-102784249D01*
X136700318Y-102780479D01*
X136686315Y-102777516D01*
X136635517Y-102759635D01*
X136591016Y-102734237D01*
X136553289Y-102701801D01*
X136522812Y-102662805D01*
X136500063Y-102617730D01*
X136487883Y-102578196D01*
X136482964Y-102550293D01*
X136479468Y-102517085D01*
X136478087Y-102491473D01*
X136600350Y-102491473D01*
X136606342Y-102521765D01*
X136610072Y-102531160D01*
X136625584Y-102554370D01*
X136648700Y-102574621D01*
X136677026Y-102589915D01*
X136683281Y-102592264D01*
X136697506Y-102596238D01*
X136714501Y-102598844D01*
X136736457Y-102600282D01*
X136765564Y-102600751D01*
X136776361Y-102600730D01*
X136805694Y-102600354D01*
X136827425Y-102599361D01*
X136843991Y-102597458D01*
X136857831Y-102594350D01*
X136871382Y-102589746D01*
X136873127Y-102589069D01*
X136905345Y-102573043D01*
X136928609Y-102553221D01*
X136943594Y-102528661D01*
X136950980Y-102498420D01*
X136952047Y-102479160D01*
X136950049Y-102450310D01*
X136942983Y-102427670D01*
X136929585Y-102408152D01*
X136918449Y-102397077D01*
X136900495Y-102383084D01*
X136880966Y-102372890D01*
X136857979Y-102366006D01*
X136829647Y-102361939D01*
X136794086Y-102360198D01*
X136776361Y-102360043D01*
X136741163Y-102360549D01*
X136713780Y-102362377D01*
X136692021Y-102365970D01*
X136673692Y-102371771D01*
X136656603Y-102380223D01*
X136646816Y-102386241D01*
X136625810Y-102405524D01*
X136610672Y-102431035D01*
X136601989Y-102460457D01*
X136600350Y-102491473D01*
X136478087Y-102491473D01*
X136477593Y-102482320D01*
X136477538Y-102449744D01*
X136479504Y-102423105D01*
X136479597Y-102422437D01*
X136491806Y-102367000D01*
X136511750Y-102317799D01*
X136539037Y-102275164D01*
X136573276Y-102239426D01*
X136614074Y-102210915D01*
X136661040Y-102189962D01*
X136713782Y-102176898D01*
X136771910Y-102172052D01*
X136776361Y-102172029D01*
X136834502Y-102176225D01*
X136887440Y-102188605D01*
G37*
G36*
X136834960Y-96804043D02*
G01*
X136835561Y-96810004D01*
X136834960Y-96810740D01*
X136831974Y-96810051D01*
X136831611Y-96807392D01*
X136833449Y-96803258D01*
X136834960Y-96804043D01*
G37*
%TO.C,C10*%
X151490000Y-104147836D02*
X151490000Y-103932164D01*
X150770000Y-104147836D02*
X150770000Y-103932164D01*
%TO.C,C1*%
X173690000Y-92262164D02*
X173690000Y-92477836D01*
X172970000Y-92262164D02*
X172970000Y-92477836D01*
D14*
%TO.C,Y1*%
X149902000Y-102612000D02*
X149902000Y-103691000D01*
X148378000Y-102612000D02*
X148378000Y-103691000D01*
D13*
%TO.C,SW1*%
X158971000Y-95550000D02*
X161003000Y-95550000D01*
X161003000Y-95550000D02*
X161003000Y-97074000D01*
X156987000Y-94662000D02*
X162987000Y-94662000D01*
X162987000Y-95349000D02*
X162987000Y-94662000D01*
X158971000Y-97074000D02*
X158971000Y-95550000D01*
X156987000Y-97265000D02*
X156987000Y-97962000D01*
X161003000Y-97074000D02*
X158971000Y-97074000D01*
X162987000Y-97962000D02*
X156987000Y-97962000D01*
X156987000Y-94662000D02*
X156987000Y-95395000D01*
X162987000Y-97962000D02*
X162987000Y-97311000D01*
%TO.C,U1*%
X169958000Y-90336000D02*
X171758000Y-90336000D01*
X169958000Y-93436000D02*
X171758000Y-93436000D01*
X169958000Y-92286000D02*
X169958000Y-91486000D01*
X172509000Y-93537000D02*
G75*
G03*
X172509000Y-93537000I-127000J0D01*
G01*
%TD*%
%LPC*%
D15*
%TO.C,Hole1*%
X130540000Y-91820000D03*
%TD*%
%TO.C,Hole2*%
X130560000Y-107620000D03*
%TD*%
%TO.C,Hole3*%
X174970000Y-107580000D03*
%TD*%
%TO.C,Hole4*%
X174950000Y-91800000D03*
%TD*%
D16*
%TO.C,R3*%
X163970000Y-100740000D03*
X162950000Y-100740000D03*
%TD*%
D17*
%TO.C,C5*%
X156750000Y-98620000D03*
X155790000Y-98620000D03*
%TD*%
D18*
%TO.C,F1*%
X171800000Y-106370000D03*
X169000000Y-106370000D03*
%TD*%
D19*
%TO.C,C4*%
X143277147Y-95098606D03*
X144237147Y-95098606D03*
%TD*%
D20*
%TO.C,U3*%
X144315761Y-102704819D03*
X144669315Y-102351266D03*
X145022868Y-101997712D03*
X145376422Y-101644159D03*
X145729975Y-101290606D03*
X146083528Y-100937052D03*
X146437082Y-100583499D03*
X146790635Y-100229945D03*
D21*
X146790635Y-99112717D03*
X146437082Y-98759163D03*
X146083528Y-98405610D03*
X145729975Y-98052056D03*
X145376422Y-97698503D03*
X145022868Y-97344950D03*
X144669315Y-96991396D03*
X144315761Y-96637843D03*
D22*
X143198533Y-96637843D03*
X142844979Y-96991396D03*
X142491426Y-97344950D03*
X142137872Y-97698503D03*
X141784319Y-98052056D03*
X141430766Y-98405610D03*
X141077212Y-98759163D03*
X140723659Y-99112717D03*
D23*
X140723659Y-100229945D03*
X141077212Y-100583499D03*
X141430766Y-100937052D03*
X141784319Y-101290606D03*
X142137872Y-101644159D03*
X142491426Y-101997712D03*
X142844979Y-102351266D03*
X143198533Y-102704819D03*
D24*
X143757147Y-99671331D03*
%TD*%
D25*
%TO.C,R1*%
X172200000Y-109110000D03*
X172200000Y-108090000D03*
%TD*%
D26*
%TO.C,J3*%
X130090000Y-95970000D03*
D27*
X130090000Y-98510000D03*
X130090000Y-101050000D03*
X130090000Y-103590000D03*
%TD*%
D17*
%TO.C,C8*%
X149640000Y-99010000D03*
X148680000Y-99010000D03*
%TD*%
D19*
%TO.C,C7*%
X143287147Y-104358606D03*
X144247147Y-104358606D03*
%TD*%
D28*
%TO.C,USB1*%
X170430000Y-104090000D03*
X170430000Y-95450000D03*
X174230000Y-104090000D03*
X174230000Y-95450000D03*
D29*
X169430000Y-100270000D03*
X169430000Y-98250000D03*
D30*
X169430000Y-97020000D03*
D29*
X169430000Y-99270000D03*
X169430000Y-101290000D03*
D30*
X169430000Y-102520000D03*
%TD*%
D19*
%TO.C,C9*%
X155780000Y-100750000D03*
X156740000Y-100750000D03*
%TD*%
D31*
%TO.C,SW2*%
X163530000Y-103090000D03*
X156130000Y-103090000D03*
%TD*%
D16*
%TO.C,R2*%
X163980000Y-98660000D03*
X162960000Y-98660000D03*
%TD*%
D32*
%TO.C,D1*%
X169457500Y-108620000D03*
X171032500Y-108620000D03*
%TD*%
D33*
%TO.C,C2*%
X168380000Y-91890000D03*
X168380000Y-92850000D03*
%TD*%
D17*
%TO.C,C6*%
X149640000Y-100360000D03*
X148680000Y-100360000D03*
%TD*%
D33*
%TO.C,C11*%
X151130000Y-101680000D03*
X151130000Y-102640000D03*
%TD*%
D34*
%TO.C,C10*%
X151130000Y-104520000D03*
X151130000Y-103560000D03*
%TD*%
D33*
%TO.C,C1*%
X173330000Y-91890000D03*
X173330000Y-92850000D03*
%TD*%
D35*
%TO.C,Y1*%
X149140000Y-101870000D03*
X149140000Y-104370000D03*
%TD*%
D31*
%TO.C,SW1*%
X163550000Y-96330000D03*
X156150000Y-96330000D03*
%TD*%
D36*
%TO.C,U1*%
X172158000Y-92836000D03*
X172158000Y-91886000D03*
X172158000Y-90936000D03*
X169558000Y-90936000D03*
X169558000Y-92836000D03*
%TD*%
D27*
%TO.C,J2*%
X132960000Y-108500000D03*
X135500000Y-108500000D03*
X138040000Y-108500000D03*
X140580000Y-108500000D03*
X143120000Y-108500000D03*
X145660000Y-108500000D03*
X148200000Y-108500000D03*
X150740000Y-108500000D03*
X153280000Y-108500000D03*
X155820000Y-108500000D03*
X158360000Y-108500000D03*
X160900000Y-108500000D03*
X163440000Y-108500000D03*
D26*
X165980000Y-108500000D03*
%TD*%
D27*
%TO.C,J1*%
X132970000Y-90940000D03*
X135510000Y-90940000D03*
X138050000Y-90940000D03*
X140590000Y-90940000D03*
X143130000Y-90940000D03*
X145670000Y-90940000D03*
X148210000Y-90940000D03*
X150750000Y-90940000D03*
X153290000Y-90940000D03*
X155830000Y-90940000D03*
X158370000Y-90940000D03*
X160910000Y-90940000D03*
X163450000Y-90940000D03*
D26*
X165990000Y-90940000D03*
%TD*%
M02*
