%TF.GenerationSoftware,KiCad,Pcbnew,(6.0.7)*%
%TF.CreationDate,2022-09-30T17:02:33+08:00*%
%TF.ProjectId,UINIO-EVB-STM32L051K8,55494e49-4f2d-4455-9642-2d53544d3332,rev?*%
%TF.SameCoordinates,Original*%
%TF.FileFunction,Legend,Bot*%
%TF.FilePolarity,Positive*%
%FSLAX46Y46*%
G04 Gerber Fmt 4.6, Leading zero omitted, Abs format (unit mm)*
G04 Created by KiCad (PCBNEW (6.0.7)) date 2022-09-30 17:02:33*
%MOMM*%
%LPD*%
G01*
G04 APERTURE LIST*
G04 Aperture macros list*
%AMRoundRect*
0 Rectangle with rounded corners*
0 $1 Rounding radius*
0 $2 $3 $4 $5 $6 $7 $8 $9 X,Y pos of 4 corners*
0 Add a 4 corners polygon primitive as box body*
4,1,4,$2,$3,$4,$5,$6,$7,$8,$9,$2,$3,0*
0 Add four circle primitives for the rounded corners*
1,1,$1+$1,$2,$3*
1,1,$1+$1,$4,$5*
1,1,$1+$1,$6,$7*
1,1,$1+$1,$8,$9*
0 Add four rect primitives between the rounded corners*
20,1,$1+$1,$2,$3,$4,$5,0*
20,1,$1+$1,$4,$5,$6,$7,0*
20,1,$1+$1,$6,$7,$8,$9,0*
20,1,$1+$1,$8,$9,$2,$3,0*%
G04 Aperture macros list end*
%ADD10C,0.100000*%
%ADD11C,0.200000*%
%ADD12C,0.400000*%
%ADD13C,0.150000*%
%ADD14C,0.300000*%
%ADD15C,0.120000*%
%ADD16C,0.152000*%
%ADD17R,1.700000X1.700000*%
%ADD18O,1.700000X1.700000*%
%ADD19C,0.650000*%
%ADD20O,1.000000X2.100000*%
%ADD21O,1.000000X1.900000*%
%ADD22O,2.250000X0.630000*%
%ADD23RoundRect,0.140000X-0.140000X-0.170000X0.140000X-0.170000X0.140000X0.170000X-0.140000X0.170000X0*%
G04 APERTURE END LIST*
D10*
X168630476Y-112131904D02*
X168630476Y-111331904D01*
X168325714Y-111331904D01*
X168249523Y-111370000D01*
X168211428Y-111408095D01*
X168173333Y-111484285D01*
X168173333Y-111598571D01*
X168211428Y-111674761D01*
X168249523Y-111712857D01*
X168325714Y-111750952D01*
X168630476Y-111750952D01*
X167563809Y-111712857D02*
X167449523Y-111750952D01*
X167411428Y-111789047D01*
X167373333Y-111865238D01*
X167373333Y-111979523D01*
X167411428Y-112055714D01*
X167449523Y-112093809D01*
X167525714Y-112131904D01*
X167830476Y-112131904D01*
X167830476Y-111331904D01*
X167563809Y-111331904D01*
X167487619Y-111370000D01*
X167449523Y-111408095D01*
X167411428Y-111484285D01*
X167411428Y-111560476D01*
X167449523Y-111636666D01*
X167487619Y-111674761D01*
X167563809Y-111712857D01*
X167830476Y-111712857D01*
X167106666Y-111331904D02*
X166573333Y-111331904D01*
X166916190Y-112131904D01*
X168630476Y-119751904D02*
X168630476Y-118951904D01*
X168325714Y-118951904D01*
X168249523Y-118990000D01*
X168211428Y-119028095D01*
X168173333Y-119104285D01*
X168173333Y-119218571D01*
X168211428Y-119294761D01*
X168249523Y-119332857D01*
X168325714Y-119370952D01*
X168630476Y-119370952D01*
X167563809Y-119332857D02*
X167449523Y-119370952D01*
X167411428Y-119409047D01*
X167373333Y-119485238D01*
X167373333Y-119599523D01*
X167411428Y-119675714D01*
X167449523Y-119713809D01*
X167525714Y-119751904D01*
X167830476Y-119751904D01*
X167830476Y-118951904D01*
X167563809Y-118951904D01*
X167487619Y-118990000D01*
X167449523Y-119028095D01*
X167411428Y-119104285D01*
X167411428Y-119180476D01*
X167449523Y-119256666D01*
X167487619Y-119294761D01*
X167563809Y-119332857D01*
X167830476Y-119332857D01*
X166687619Y-119218571D02*
X166687619Y-119751904D01*
X166878095Y-118913809D02*
X167068571Y-119485238D01*
X166573333Y-119485238D01*
X168630476Y-129911904D02*
X168630476Y-129111904D01*
X168325714Y-129111904D01*
X168249523Y-129150000D01*
X168211428Y-129188095D01*
X168173333Y-129264285D01*
X168173333Y-129378571D01*
X168211428Y-129454761D01*
X168249523Y-129492857D01*
X168325714Y-129530952D01*
X168630476Y-129530952D01*
X167563809Y-129492857D02*
X167449523Y-129530952D01*
X167411428Y-129569047D01*
X167373333Y-129645238D01*
X167373333Y-129759523D01*
X167411428Y-129835714D01*
X167449523Y-129873809D01*
X167525714Y-129911904D01*
X167830476Y-129911904D01*
X167830476Y-129111904D01*
X167563809Y-129111904D01*
X167487619Y-129150000D01*
X167449523Y-129188095D01*
X167411428Y-129264285D01*
X167411428Y-129340476D01*
X167449523Y-129416666D01*
X167487619Y-129454761D01*
X167563809Y-129492857D01*
X167830476Y-129492857D01*
X166878095Y-129111904D02*
X166801904Y-129111904D01*
X166725714Y-129150000D01*
X166687619Y-129188095D01*
X166649523Y-129264285D01*
X166611428Y-129416666D01*
X166611428Y-129607142D01*
X166649523Y-129759523D01*
X166687619Y-129835714D01*
X166725714Y-129873809D01*
X166801904Y-129911904D01*
X166878095Y-129911904D01*
X166954285Y-129873809D01*
X166992380Y-129835714D01*
X167030476Y-129759523D01*
X167068571Y-129607142D01*
X167068571Y-129416666D01*
X167030476Y-129264285D01*
X166992380Y-129188095D01*
X166954285Y-129150000D01*
X166878095Y-129111904D01*
X143974285Y-124831904D02*
X143974285Y-124031904D01*
X143669523Y-124031904D01*
X143593333Y-124070000D01*
X143555238Y-124108095D01*
X143517142Y-124184285D01*
X143517142Y-124298571D01*
X143555238Y-124374761D01*
X143593333Y-124412857D01*
X143669523Y-124450952D01*
X143974285Y-124450952D01*
X143212380Y-124603333D02*
X142831428Y-124603333D01*
X143288571Y-124831904D02*
X143021904Y-124031904D01*
X142755238Y-124831904D01*
X142069523Y-124831904D02*
X142526666Y-124831904D01*
X142298095Y-124831904D02*
X142298095Y-124031904D01*
X142374285Y-124146190D01*
X142450476Y-124222380D01*
X142526666Y-124260476D01*
X141307619Y-124831904D02*
X141764761Y-124831904D01*
X141536190Y-124831904D02*
X141536190Y-124031904D01*
X141612380Y-124146190D01*
X141688571Y-124222380D01*
X141764761Y-124260476D01*
X168630476Y-122291904D02*
X168630476Y-121491904D01*
X168325714Y-121491904D01*
X168249523Y-121530000D01*
X168211428Y-121568095D01*
X168173333Y-121644285D01*
X168173333Y-121758571D01*
X168211428Y-121834761D01*
X168249523Y-121872857D01*
X168325714Y-121910952D01*
X168630476Y-121910952D01*
X167563809Y-121872857D02*
X167449523Y-121910952D01*
X167411428Y-121949047D01*
X167373333Y-122025238D01*
X167373333Y-122139523D01*
X167411428Y-122215714D01*
X167449523Y-122253809D01*
X167525714Y-122291904D01*
X167830476Y-122291904D01*
X167830476Y-121491904D01*
X167563809Y-121491904D01*
X167487619Y-121530000D01*
X167449523Y-121568095D01*
X167411428Y-121644285D01*
X167411428Y-121720476D01*
X167449523Y-121796666D01*
X167487619Y-121834761D01*
X167563809Y-121872857D01*
X167830476Y-121872857D01*
X167106666Y-121491904D02*
X166611428Y-121491904D01*
X166878095Y-121796666D01*
X166763809Y-121796666D01*
X166687619Y-121834761D01*
X166649523Y-121872857D01*
X166611428Y-121949047D01*
X166611428Y-122139523D01*
X166649523Y-122215714D01*
X166687619Y-122253809D01*
X166763809Y-122291904D01*
X166992380Y-122291904D01*
X167068571Y-122253809D01*
X167106666Y-122215714D01*
X168634285Y-107051904D02*
X168634285Y-106251904D01*
X168177142Y-107051904D01*
X168177142Y-106251904D01*
X167339047Y-107051904D02*
X167605714Y-106670952D01*
X167796190Y-107051904D02*
X167796190Y-106251904D01*
X167491428Y-106251904D01*
X167415238Y-106290000D01*
X167377142Y-106328095D01*
X167339047Y-106404285D01*
X167339047Y-106518571D01*
X167377142Y-106594761D01*
X167415238Y-106632857D01*
X167491428Y-106670952D01*
X167796190Y-106670952D01*
X167034285Y-107013809D02*
X166920000Y-107051904D01*
X166729523Y-107051904D01*
X166653333Y-107013809D01*
X166615238Y-106975714D01*
X166577142Y-106899523D01*
X166577142Y-106823333D01*
X166615238Y-106747142D01*
X166653333Y-106709047D01*
X166729523Y-106670952D01*
X166881904Y-106632857D01*
X166958095Y-106594761D01*
X166996190Y-106556666D01*
X167034285Y-106480476D01*
X167034285Y-106404285D01*
X166996190Y-106328095D01*
X166958095Y-106290000D01*
X166881904Y-106251904D01*
X166691428Y-106251904D01*
X166577142Y-106290000D01*
X166348571Y-106251904D02*
X165891428Y-106251904D01*
X166120000Y-107051904D02*
X166120000Y-106251904D01*
X168630476Y-114671904D02*
X168630476Y-113871904D01*
X168325714Y-113871904D01*
X168249523Y-113910000D01*
X168211428Y-113948095D01*
X168173333Y-114024285D01*
X168173333Y-114138571D01*
X168211428Y-114214761D01*
X168249523Y-114252857D01*
X168325714Y-114290952D01*
X168630476Y-114290952D01*
X167563809Y-114252857D02*
X167449523Y-114290952D01*
X167411428Y-114329047D01*
X167373333Y-114405238D01*
X167373333Y-114519523D01*
X167411428Y-114595714D01*
X167449523Y-114633809D01*
X167525714Y-114671904D01*
X167830476Y-114671904D01*
X167830476Y-113871904D01*
X167563809Y-113871904D01*
X167487619Y-113910000D01*
X167449523Y-113948095D01*
X167411428Y-114024285D01*
X167411428Y-114100476D01*
X167449523Y-114176666D01*
X167487619Y-114214761D01*
X167563809Y-114252857D01*
X167830476Y-114252857D01*
X166687619Y-113871904D02*
X166840000Y-113871904D01*
X166916190Y-113910000D01*
X166954285Y-113948095D01*
X167030476Y-114062380D01*
X167068571Y-114214761D01*
X167068571Y-114519523D01*
X167030476Y-114595714D01*
X166992380Y-114633809D01*
X166916190Y-114671904D01*
X166763809Y-114671904D01*
X166687619Y-114633809D01*
X166649523Y-114595714D01*
X166611428Y-114519523D01*
X166611428Y-114329047D01*
X166649523Y-114252857D01*
X166687619Y-114214761D01*
X166763809Y-114176666D01*
X166916190Y-114176666D01*
X166992380Y-114214761D01*
X167030476Y-114252857D01*
X167068571Y-114329047D01*
X143994285Y-127371904D02*
X143994285Y-126571904D01*
X143689523Y-126571904D01*
X143613333Y-126610000D01*
X143575238Y-126648095D01*
X143537142Y-126724285D01*
X143537142Y-126838571D01*
X143575238Y-126914761D01*
X143613333Y-126952857D01*
X143689523Y-126990952D01*
X143994285Y-126990952D01*
X143232380Y-127143333D02*
X142851428Y-127143333D01*
X143308571Y-127371904D02*
X143041904Y-126571904D01*
X142775238Y-127371904D01*
X142089523Y-127371904D02*
X142546666Y-127371904D01*
X142318095Y-127371904D02*
X142318095Y-126571904D01*
X142394285Y-126686190D01*
X142470476Y-126762380D01*
X142546666Y-126800476D01*
X141784761Y-126648095D02*
X141746666Y-126610000D01*
X141670476Y-126571904D01*
X141480000Y-126571904D01*
X141403809Y-126610000D01*
X141365714Y-126648095D01*
X141327619Y-126724285D01*
X141327619Y-126800476D01*
X141365714Y-126914761D01*
X141822857Y-127371904D01*
X141327619Y-127371904D01*
X143984285Y-129901904D02*
X143984285Y-129101904D01*
X143679523Y-129101904D01*
X143603333Y-129140000D01*
X143565238Y-129178095D01*
X143527142Y-129254285D01*
X143527142Y-129368571D01*
X143565238Y-129444761D01*
X143603333Y-129482857D01*
X143679523Y-129520952D01*
X143984285Y-129520952D01*
X143222380Y-129673333D02*
X142841428Y-129673333D01*
X143298571Y-129901904D02*
X143031904Y-129101904D01*
X142765238Y-129901904D01*
X142079523Y-129901904D02*
X142536666Y-129901904D01*
X142308095Y-129901904D02*
X142308095Y-129101904D01*
X142384285Y-129216190D01*
X142460476Y-129292380D01*
X142536666Y-129330476D01*
X141355714Y-129101904D02*
X141736666Y-129101904D01*
X141774761Y-129482857D01*
X141736666Y-129444761D01*
X141660476Y-129406666D01*
X141470000Y-129406666D01*
X141393809Y-129444761D01*
X141355714Y-129482857D01*
X141317619Y-129559047D01*
X141317619Y-129749523D01*
X141355714Y-129825714D01*
X141393809Y-129863809D01*
X141470000Y-129901904D01*
X141660476Y-129901904D01*
X141736666Y-129863809D01*
X141774761Y-129825714D01*
X168630476Y-109591904D02*
X168630476Y-108791904D01*
X168325714Y-108791904D01*
X168249523Y-108830000D01*
X168211428Y-108868095D01*
X168173333Y-108944285D01*
X168173333Y-109058571D01*
X168211428Y-109134761D01*
X168249523Y-109172857D01*
X168325714Y-109210952D01*
X168630476Y-109210952D01*
X167563809Y-109172857D02*
X167449523Y-109210952D01*
X167411428Y-109249047D01*
X167373333Y-109325238D01*
X167373333Y-109439523D01*
X167411428Y-109515714D01*
X167449523Y-109553809D01*
X167525714Y-109591904D01*
X167830476Y-109591904D01*
X167830476Y-108791904D01*
X167563809Y-108791904D01*
X167487619Y-108830000D01*
X167449523Y-108868095D01*
X167411428Y-108944285D01*
X167411428Y-109020476D01*
X167449523Y-109096666D01*
X167487619Y-109134761D01*
X167563809Y-109172857D01*
X167830476Y-109172857D01*
X166916190Y-109134761D02*
X166992380Y-109096666D01*
X167030476Y-109058571D01*
X167068571Y-108982380D01*
X167068571Y-108944285D01*
X167030476Y-108868095D01*
X166992380Y-108830000D01*
X166916190Y-108791904D01*
X166763809Y-108791904D01*
X166687619Y-108830000D01*
X166649523Y-108868095D01*
X166611428Y-108944285D01*
X166611428Y-108982380D01*
X166649523Y-109058571D01*
X166687619Y-109096666D01*
X166763809Y-109134761D01*
X166916190Y-109134761D01*
X166992380Y-109172857D01*
X167030476Y-109210952D01*
X167068571Y-109287142D01*
X167068571Y-109439523D01*
X167030476Y-109515714D01*
X166992380Y-109553809D01*
X166916190Y-109591904D01*
X166763809Y-109591904D01*
X166687619Y-109553809D01*
X166649523Y-109515714D01*
X166611428Y-109439523D01*
X166611428Y-109287142D01*
X166649523Y-109210952D01*
X166687619Y-109172857D01*
X166763809Y-109134761D01*
X143974285Y-122291904D02*
X143974285Y-121491904D01*
X143669523Y-121491904D01*
X143593333Y-121530000D01*
X143555238Y-121568095D01*
X143517142Y-121644285D01*
X143517142Y-121758571D01*
X143555238Y-121834761D01*
X143593333Y-121872857D01*
X143669523Y-121910952D01*
X143974285Y-121910952D01*
X143212380Y-122063333D02*
X142831428Y-122063333D01*
X143288571Y-122291904D02*
X143021904Y-121491904D01*
X142755238Y-122291904D01*
X142069523Y-122291904D02*
X142526666Y-122291904D01*
X142298095Y-122291904D02*
X142298095Y-121491904D01*
X142374285Y-121606190D01*
X142450476Y-121682380D01*
X142526666Y-121720476D01*
X141574285Y-121491904D02*
X141498095Y-121491904D01*
X141421904Y-121530000D01*
X141383809Y-121568095D01*
X141345714Y-121644285D01*
X141307619Y-121796666D01*
X141307619Y-121987142D01*
X141345714Y-122139523D01*
X141383809Y-122215714D01*
X141421904Y-122253809D01*
X141498095Y-122291904D01*
X141574285Y-122291904D01*
X141650476Y-122253809D01*
X141688571Y-122215714D01*
X141726666Y-122139523D01*
X141764761Y-121987142D01*
X141764761Y-121796666D01*
X141726666Y-121644285D01*
X141688571Y-121568095D01*
X141650476Y-121530000D01*
X141574285Y-121491904D01*
X143203333Y-104511904D02*
X143203333Y-103711904D01*
X142898571Y-103711904D01*
X142822380Y-103750000D01*
X142784285Y-103788095D01*
X142746190Y-103864285D01*
X142746190Y-103978571D01*
X142784285Y-104054761D01*
X142822380Y-104092857D01*
X142898571Y-104130952D01*
X143203333Y-104130952D01*
X142441428Y-104283333D02*
X142060476Y-104283333D01*
X142517619Y-104511904D02*
X142250952Y-103711904D01*
X141984285Y-104511904D01*
X141793809Y-103711904D02*
X141298571Y-103711904D01*
X141565238Y-104016666D01*
X141450952Y-104016666D01*
X141374761Y-104054761D01*
X141336666Y-104092857D01*
X141298571Y-104169047D01*
X141298571Y-104359523D01*
X141336666Y-104435714D01*
X141374761Y-104473809D01*
X141450952Y-104511904D01*
X141679523Y-104511904D01*
X141755714Y-104473809D01*
X141793809Y-104435714D01*
X143203333Y-112131904D02*
X143203333Y-111331904D01*
X142898571Y-111331904D01*
X142822380Y-111370000D01*
X142784285Y-111408095D01*
X142746190Y-111484285D01*
X142746190Y-111598571D01*
X142784285Y-111674761D01*
X142822380Y-111712857D01*
X142898571Y-111750952D01*
X143203333Y-111750952D01*
X142441428Y-111903333D02*
X142060476Y-111903333D01*
X142517619Y-112131904D02*
X142250952Y-111331904D01*
X141984285Y-112131904D01*
X141374761Y-111331904D02*
X141527142Y-111331904D01*
X141603333Y-111370000D01*
X141641428Y-111408095D01*
X141717619Y-111522380D01*
X141755714Y-111674761D01*
X141755714Y-111979523D01*
X141717619Y-112055714D01*
X141679523Y-112093809D01*
X141603333Y-112131904D01*
X141450952Y-112131904D01*
X141374761Y-112093809D01*
X141336666Y-112055714D01*
X141298571Y-111979523D01*
X141298571Y-111789047D01*
X141336666Y-111712857D01*
X141374761Y-111674761D01*
X141450952Y-111636666D01*
X141603333Y-111636666D01*
X141679523Y-111674761D01*
X141717619Y-111712857D01*
X141755714Y-111789047D01*
D11*
X159662000Y-120146000D02*
X158019142Y-120146000D01*
X159662000Y-120574571D02*
X158019142Y-120574571D01*
X158804857Y-121074571D02*
X157876285Y-121074571D01*
X159662000Y-119646000D02*
X159662000Y-120717428D01*
X158804857Y-119360285D02*
X158804857Y-121074571D01*
X159662000Y-119646000D02*
X158019142Y-119646000D01*
X158019142Y-120574571D01*
X157804857Y-120717428D02*
X157876285Y-121074571D01*
X157447714Y-120288857D02*
X155590571Y-120288857D01*
X156947714Y-121074571D02*
X156519142Y-121074571D01*
X156519142Y-119931714D02*
X156519142Y-121074571D01*
X157233428Y-119574571D02*
X155804857Y-119574571D01*
X156019142Y-119717428D01*
X156519142Y-119931714D01*
X154519142Y-119717428D02*
X153447714Y-119717428D01*
X155233428Y-119788857D02*
X154662000Y-119788857D01*
X155162000Y-121074571D02*
X154947714Y-121074571D01*
X154876285Y-119360285D02*
X154876285Y-121074571D01*
X154019142Y-119360285D02*
X154019142Y-120146000D01*
X154376285Y-120146000D02*
X154233428Y-120503142D01*
X153876285Y-120860285D01*
X153376285Y-121074571D01*
X154519142Y-120146000D02*
X153519142Y-120146000D01*
X153662000Y-120431714D01*
X154019142Y-120788857D01*
X154662000Y-121074571D01*
X154590571Y-120288857D02*
X155233428Y-120431714D01*
X152947714Y-119860285D02*
X151233428Y-119860285D01*
X152090571Y-119360285D02*
X152090571Y-121074571D01*
X152019142Y-120003142D02*
X151304857Y-120788857D01*
X152162000Y-119860285D02*
X151804857Y-120217428D01*
X152733428Y-120646000D02*
X153019142Y-120788857D01*
X152090571Y-119788857D02*
X152233428Y-120146000D01*
X152804857Y-120717428D01*
X151804857Y-119431714D02*
X151519142Y-119574571D01*
X150233428Y-119646000D02*
X148947714Y-119646000D01*
X150804857Y-119931714D02*
X150233428Y-119931714D01*
X150090571Y-120074571D02*
X149090571Y-120074571D01*
X150090571Y-120360285D02*
X149090571Y-120360285D01*
X150233428Y-120574571D02*
X148947714Y-120574571D01*
X149590571Y-121074571D02*
X149304857Y-121074571D01*
X150519142Y-119360285D02*
X150519142Y-121074571D01*
X150090571Y-119860285D02*
X150090571Y-120360285D01*
X149590571Y-119360285D02*
X149590571Y-120360285D01*
X149304857Y-120360285D02*
X149304857Y-121074571D01*
X150090571Y-119860285D02*
X149090571Y-119860285D01*
X149090571Y-120360285D01*
X149947714Y-120717428D02*
X149733428Y-120931714D01*
X149376285Y-119431714D02*
X149090571Y-119503142D01*
X148162000Y-121003142D02*
X147090571Y-121003142D01*
X148519142Y-119574571D02*
X148519142Y-119788857D01*
X148162000Y-120503142D02*
X148162000Y-121074571D01*
X147662000Y-119360285D02*
X147662000Y-119574571D01*
X148376285Y-120574571D02*
X147090571Y-120574571D01*
X147090571Y-121074571D01*
X148519142Y-119574571D02*
X146804857Y-119574571D01*
X146804857Y-119788857D01*
X147947714Y-119717428D02*
X148233428Y-120003142D01*
X148519142Y-120146000D01*
X148019142Y-119860285D02*
X147804857Y-120146000D01*
X147447714Y-120360285D01*
X146733428Y-120574571D01*
X148019142Y-119860285D02*
X147162000Y-119860285D01*
X147447714Y-120146000D01*
X147947714Y-120431714D01*
X148590571Y-120574571D01*
D10*
X168630476Y-124831904D02*
X168630476Y-124031904D01*
X168325714Y-124031904D01*
X168249523Y-124070000D01*
X168211428Y-124108095D01*
X168173333Y-124184285D01*
X168173333Y-124298571D01*
X168211428Y-124374761D01*
X168249523Y-124412857D01*
X168325714Y-124450952D01*
X168630476Y-124450952D01*
X167563809Y-124412857D02*
X167449523Y-124450952D01*
X167411428Y-124489047D01*
X167373333Y-124565238D01*
X167373333Y-124679523D01*
X167411428Y-124755714D01*
X167449523Y-124793809D01*
X167525714Y-124831904D01*
X167830476Y-124831904D01*
X167830476Y-124031904D01*
X167563809Y-124031904D01*
X167487619Y-124070000D01*
X167449523Y-124108095D01*
X167411428Y-124184285D01*
X167411428Y-124260476D01*
X167449523Y-124336666D01*
X167487619Y-124374761D01*
X167563809Y-124412857D01*
X167830476Y-124412857D01*
X167068571Y-124108095D02*
X167030476Y-124070000D01*
X166954285Y-124031904D01*
X166763809Y-124031904D01*
X166687619Y-124070000D01*
X166649523Y-124108095D01*
X166611428Y-124184285D01*
X166611428Y-124260476D01*
X166649523Y-124374761D01*
X167106666Y-124831904D01*
X166611428Y-124831904D01*
X143227746Y-109637948D02*
X143227746Y-108837948D01*
X142922984Y-108837948D01*
X142846793Y-108876044D01*
X142808698Y-108914139D01*
X142770603Y-108990329D01*
X142770603Y-109104615D01*
X142808698Y-109180805D01*
X142846793Y-109218901D01*
X142922984Y-109256996D01*
X143227746Y-109256996D01*
X142465841Y-109409377D02*
X142084889Y-109409377D01*
X142542032Y-109637948D02*
X142275365Y-108837948D01*
X142008698Y-109637948D01*
X141361079Y-108837948D02*
X141742032Y-108837948D01*
X141780127Y-109218901D01*
X141742032Y-109180805D01*
X141665841Y-109142710D01*
X141475365Y-109142710D01*
X141399174Y-109180805D01*
X141361079Y-109218901D01*
X141322984Y-109295091D01*
X141322984Y-109485567D01*
X141361079Y-109561758D01*
X141399174Y-109599853D01*
X141475365Y-109637948D01*
X141665841Y-109637948D01*
X141742032Y-109599853D01*
X141780127Y-109561758D01*
X143203333Y-119751904D02*
X143203333Y-118951904D01*
X142898571Y-118951904D01*
X142822380Y-118990000D01*
X142784285Y-119028095D01*
X142746190Y-119104285D01*
X142746190Y-119218571D01*
X142784285Y-119294761D01*
X142822380Y-119332857D01*
X142898571Y-119370952D01*
X143203333Y-119370952D01*
X142441428Y-119523333D02*
X142060476Y-119523333D01*
X142517619Y-119751904D02*
X142250952Y-118951904D01*
X141984285Y-119751904D01*
X141679523Y-119751904D02*
X141527142Y-119751904D01*
X141450952Y-119713809D01*
X141412857Y-119675714D01*
X141336666Y-119561428D01*
X141298571Y-119409047D01*
X141298571Y-119104285D01*
X141336666Y-119028095D01*
X141374761Y-118990000D01*
X141450952Y-118951904D01*
X141603333Y-118951904D01*
X141679523Y-118990000D01*
X141717619Y-119028095D01*
X141755714Y-119104285D01*
X141755714Y-119294761D01*
X141717619Y-119370952D01*
X141679523Y-119409047D01*
X141603333Y-119447142D01*
X141450952Y-119447142D01*
X141374761Y-119409047D01*
X141336666Y-119370952D01*
X141298571Y-119294761D01*
X143203333Y-114671904D02*
X143203333Y-113871904D01*
X142898571Y-113871904D01*
X142822380Y-113910000D01*
X142784285Y-113948095D01*
X142746190Y-114024285D01*
X142746190Y-114138571D01*
X142784285Y-114214761D01*
X142822380Y-114252857D01*
X142898571Y-114290952D01*
X143203333Y-114290952D01*
X142441428Y-114443333D02*
X142060476Y-114443333D01*
X142517619Y-114671904D02*
X142250952Y-113871904D01*
X141984285Y-114671904D01*
X141793809Y-113871904D02*
X141260476Y-113871904D01*
X141603333Y-114671904D01*
D12*
X159504857Y-121950285D02*
X159504857Y-123407428D01*
X159419142Y-123578857D01*
X159333428Y-123664571D01*
X159162000Y-123750285D01*
X158819142Y-123750285D01*
X158647714Y-123664571D01*
X158562000Y-123578857D01*
X158476285Y-123407428D01*
X158476285Y-121950285D01*
X157619142Y-123750285D02*
X157619142Y-122550285D01*
X157619142Y-121950285D02*
X157704857Y-122036000D01*
X157619142Y-122121714D01*
X157533428Y-122036000D01*
X157619142Y-121950285D01*
X157619142Y-122121714D01*
X156762000Y-122550285D02*
X156762000Y-123750285D01*
X156762000Y-122721714D02*
X156676285Y-122636000D01*
X156504857Y-122550285D01*
X156247714Y-122550285D01*
X156076285Y-122636000D01*
X155990571Y-122807428D01*
X155990571Y-123750285D01*
X155133428Y-123750285D02*
X155133428Y-121950285D01*
X153933428Y-121950285D02*
X153590571Y-121950285D01*
X153419142Y-122036000D01*
X153247714Y-122207428D01*
X153162000Y-122550285D01*
X153162000Y-123150285D01*
X153247714Y-123493142D01*
X153419142Y-123664571D01*
X153590571Y-123750285D01*
X153933428Y-123750285D01*
X154104857Y-123664571D01*
X154276285Y-123493142D01*
X154362000Y-123150285D01*
X154362000Y-122550285D01*
X154276285Y-122207428D01*
X154104857Y-122036000D01*
X153933428Y-121950285D01*
X152390571Y-123578857D02*
X152304857Y-123664571D01*
X152390571Y-123750285D01*
X152476285Y-123664571D01*
X152390571Y-123578857D01*
X152390571Y-123750285D01*
X150762000Y-123664571D02*
X150933428Y-123750285D01*
X151276285Y-123750285D01*
X151447714Y-123664571D01*
X151533428Y-123578857D01*
X151619142Y-123407428D01*
X151619142Y-122893142D01*
X151533428Y-122721714D01*
X151447714Y-122636000D01*
X151276285Y-122550285D01*
X150933428Y-122550285D01*
X150762000Y-122636000D01*
X149733428Y-123750285D02*
X149904857Y-123664571D01*
X149990571Y-123578857D01*
X150076285Y-123407428D01*
X150076285Y-122893142D01*
X149990571Y-122721714D01*
X149904857Y-122636000D01*
X149733428Y-122550285D01*
X149476285Y-122550285D01*
X149304857Y-122636000D01*
X149219142Y-122721714D01*
X149133428Y-122893142D01*
X149133428Y-123407428D01*
X149219142Y-123578857D01*
X149304857Y-123664571D01*
X149476285Y-123750285D01*
X149733428Y-123750285D01*
X148362000Y-123750285D02*
X148362000Y-122550285D01*
X148362000Y-122721714D02*
X148276285Y-122636000D01*
X148104857Y-122550285D01*
X147847714Y-122550285D01*
X147676285Y-122636000D01*
X147590571Y-122807428D01*
X147590571Y-123750285D01*
X147590571Y-122807428D02*
X147504857Y-122636000D01*
X147333428Y-122550285D01*
X147076285Y-122550285D01*
X146904857Y-122636000D01*
X146819142Y-122807428D01*
X146819142Y-123750285D01*
D10*
X143203333Y-101971904D02*
X143203333Y-101171904D01*
X142898571Y-101171904D01*
X142822380Y-101210000D01*
X142784285Y-101248095D01*
X142746190Y-101324285D01*
X142746190Y-101438571D01*
X142784285Y-101514761D01*
X142822380Y-101552857D01*
X142898571Y-101590952D01*
X143203333Y-101590952D01*
X142441428Y-101743333D02*
X142060476Y-101743333D01*
X142517619Y-101971904D02*
X142250952Y-101171904D01*
X141984285Y-101971904D01*
X141755714Y-101248095D02*
X141717619Y-101210000D01*
X141641428Y-101171904D01*
X141450952Y-101171904D01*
X141374761Y-101210000D01*
X141336666Y-101248095D01*
X141298571Y-101324285D01*
X141298571Y-101400476D01*
X141336666Y-101514761D01*
X141793809Y-101971904D01*
X141298571Y-101971904D01*
X143203333Y-117211904D02*
X143203333Y-116411904D01*
X142898571Y-116411904D01*
X142822380Y-116450000D01*
X142784285Y-116488095D01*
X142746190Y-116564285D01*
X142746190Y-116678571D01*
X142784285Y-116754761D01*
X142822380Y-116792857D01*
X142898571Y-116830952D01*
X143203333Y-116830952D01*
X142441428Y-116983333D02*
X142060476Y-116983333D01*
X142517619Y-117211904D02*
X142250952Y-116411904D01*
X141984285Y-117211904D01*
X141603333Y-116754761D02*
X141679523Y-116716666D01*
X141717619Y-116678571D01*
X141755714Y-116602380D01*
X141755714Y-116564285D01*
X141717619Y-116488095D01*
X141679523Y-116450000D01*
X141603333Y-116411904D01*
X141450952Y-116411904D01*
X141374761Y-116450000D01*
X141336666Y-116488095D01*
X141298571Y-116564285D01*
X141298571Y-116602380D01*
X141336666Y-116678571D01*
X141374761Y-116716666D01*
X141450952Y-116754761D01*
X141603333Y-116754761D01*
X141679523Y-116792857D01*
X141717619Y-116830952D01*
X141755714Y-116907142D01*
X141755714Y-117059523D01*
X141717619Y-117135714D01*
X141679523Y-117173809D01*
X141603333Y-117211904D01*
X141450952Y-117211904D01*
X141374761Y-117173809D01*
X141336666Y-117135714D01*
X141298571Y-117059523D01*
X141298571Y-116907142D01*
X141336666Y-116830952D01*
X141374761Y-116792857D01*
X141450952Y-116754761D01*
X168630476Y-117211904D02*
X168630476Y-116411904D01*
X168325714Y-116411904D01*
X168249523Y-116450000D01*
X168211428Y-116488095D01*
X168173333Y-116564285D01*
X168173333Y-116678571D01*
X168211428Y-116754761D01*
X168249523Y-116792857D01*
X168325714Y-116830952D01*
X168630476Y-116830952D01*
X167563809Y-116792857D02*
X167449523Y-116830952D01*
X167411428Y-116869047D01*
X167373333Y-116945238D01*
X167373333Y-117059523D01*
X167411428Y-117135714D01*
X167449523Y-117173809D01*
X167525714Y-117211904D01*
X167830476Y-117211904D01*
X167830476Y-116411904D01*
X167563809Y-116411904D01*
X167487619Y-116450000D01*
X167449523Y-116488095D01*
X167411428Y-116564285D01*
X167411428Y-116640476D01*
X167449523Y-116716666D01*
X167487619Y-116754761D01*
X167563809Y-116792857D01*
X167830476Y-116792857D01*
X166649523Y-116411904D02*
X167030476Y-116411904D01*
X167068571Y-116792857D01*
X167030476Y-116754761D01*
X166954285Y-116716666D01*
X166763809Y-116716666D01*
X166687619Y-116754761D01*
X166649523Y-116792857D01*
X166611428Y-116869047D01*
X166611428Y-117059523D01*
X166649523Y-117135714D01*
X166687619Y-117173809D01*
X166763809Y-117211904D01*
X166954285Y-117211904D01*
X167030476Y-117173809D01*
X167068571Y-117135714D01*
D13*
X160235238Y-115131904D02*
X160044761Y-115931904D01*
X159892380Y-115360476D01*
X159740000Y-115931904D01*
X159549523Y-115131904D01*
X159282857Y-115208095D02*
X159244761Y-115170000D01*
X159168571Y-115131904D01*
X158978095Y-115131904D01*
X158901904Y-115170000D01*
X158863809Y-115208095D01*
X158825714Y-115284285D01*
X158825714Y-115360476D01*
X158863809Y-115474761D01*
X159320952Y-115931904D01*
X158825714Y-115931904D01*
X158101904Y-115131904D02*
X158482857Y-115131904D01*
X158520952Y-115512857D01*
X158482857Y-115474761D01*
X158406666Y-115436666D01*
X158216190Y-115436666D01*
X158140000Y-115474761D01*
X158101904Y-115512857D01*
X158063809Y-115589047D01*
X158063809Y-115779523D01*
X158101904Y-115855714D01*
X158140000Y-115893809D01*
X158216190Y-115931904D01*
X158406666Y-115931904D01*
X158482857Y-115893809D01*
X158520952Y-115855714D01*
X157187619Y-116008095D02*
X157263809Y-115970000D01*
X157340000Y-115893809D01*
X157454285Y-115779523D01*
X157530476Y-115741428D01*
X157606666Y-115741428D01*
X157568571Y-115931904D02*
X157644761Y-115893809D01*
X157720952Y-115817619D01*
X157759047Y-115665238D01*
X157759047Y-115398571D01*
X157720952Y-115246190D01*
X157644761Y-115170000D01*
X157568571Y-115131904D01*
X157416190Y-115131904D01*
X157340000Y-115170000D01*
X157263809Y-115246190D01*
X157225714Y-115398571D01*
X157225714Y-115665238D01*
X157263809Y-115817619D01*
X157340000Y-115893809D01*
X157416190Y-115931904D01*
X157568571Y-115931904D01*
X156882857Y-115627142D02*
X156273333Y-115627142D01*
X155968571Y-115131904D02*
X155435238Y-115931904D01*
X155435238Y-115131904D02*
X155968571Y-115931904D01*
X155206666Y-115131904D02*
X154673333Y-115931904D01*
X154673333Y-115131904D02*
X155206666Y-115931904D01*
X154368571Y-115627142D02*
X153759047Y-115627142D01*
X153149523Y-115131904D02*
X153149523Y-115703333D01*
X153187619Y-115817619D01*
X153263809Y-115893809D01*
X153378095Y-115931904D01*
X153454285Y-115931904D01*
X152882857Y-115131904D02*
X152616190Y-115931904D01*
X152349523Y-115131904D01*
X152120952Y-115893809D02*
X152006666Y-115931904D01*
X151816190Y-115931904D01*
X151740000Y-115893809D01*
X151701904Y-115855714D01*
X151663809Y-115779523D01*
X151663809Y-115703333D01*
X151701904Y-115627142D01*
X151740000Y-115589047D01*
X151816190Y-115550952D01*
X151968571Y-115512857D01*
X152044761Y-115474761D01*
X152082857Y-115436666D01*
X152120952Y-115360476D01*
X152120952Y-115284285D01*
X152082857Y-115208095D01*
X152044761Y-115170000D01*
X151968571Y-115131904D01*
X151778095Y-115131904D01*
X151663809Y-115170000D01*
X151359047Y-115893809D02*
X151244761Y-115931904D01*
X151054285Y-115931904D01*
X150978095Y-115893809D01*
X150940000Y-115855714D01*
X150901904Y-115779523D01*
X150901904Y-115703333D01*
X150940000Y-115627142D01*
X150978095Y-115589047D01*
X151054285Y-115550952D01*
X151206666Y-115512857D01*
X151282857Y-115474761D01*
X151320952Y-115436666D01*
X151359047Y-115360476D01*
X151359047Y-115284285D01*
X151320952Y-115208095D01*
X151282857Y-115170000D01*
X151206666Y-115131904D01*
X151016190Y-115131904D01*
X150901904Y-115170000D01*
X150559047Y-115931904D02*
X150559047Y-115131904D01*
X149644761Y-116008095D02*
X149720952Y-115970000D01*
X149797142Y-115893809D01*
X149911428Y-115779523D01*
X149987619Y-115741428D01*
X150063809Y-115741428D01*
X150025714Y-115931904D02*
X150101904Y-115893809D01*
X150178095Y-115817619D01*
X150216190Y-115665238D01*
X150216190Y-115398571D01*
X150178095Y-115246190D01*
X150101904Y-115170000D01*
X150025714Y-115131904D01*
X149873333Y-115131904D01*
X149797142Y-115170000D01*
X149720952Y-115246190D01*
X149682857Y-115398571D01*
X149682857Y-115665238D01*
X149720952Y-115817619D01*
X149797142Y-115893809D01*
X149873333Y-115931904D01*
X150025714Y-115931904D01*
D10*
X143263333Y-99431904D02*
X143263333Y-98631904D01*
X142958571Y-98631904D01*
X142882380Y-98670000D01*
X142844285Y-98708095D01*
X142806190Y-98784285D01*
X142806190Y-98898571D01*
X142844285Y-98974761D01*
X142882380Y-99012857D01*
X142958571Y-99050952D01*
X143263333Y-99050952D01*
X142501428Y-99203333D02*
X142120476Y-99203333D01*
X142577619Y-99431904D02*
X142310952Y-98631904D01*
X142044285Y-99431904D01*
X141358571Y-99431904D02*
X141815714Y-99431904D01*
X141587142Y-99431904D02*
X141587142Y-98631904D01*
X141663333Y-98746190D01*
X141739523Y-98822380D01*
X141815714Y-98860476D01*
X143203333Y-107051904D02*
X143203333Y-106251904D01*
X142898571Y-106251904D01*
X142822380Y-106290000D01*
X142784285Y-106328095D01*
X142746190Y-106404285D01*
X142746190Y-106518571D01*
X142784285Y-106594761D01*
X142822380Y-106632857D01*
X142898571Y-106670952D01*
X143203333Y-106670952D01*
X142441428Y-106823333D02*
X142060476Y-106823333D01*
X142517619Y-107051904D02*
X142250952Y-106251904D01*
X141984285Y-107051904D01*
X141374761Y-106518571D02*
X141374761Y-107051904D01*
X141565238Y-106213809D02*
X141755714Y-106785238D01*
X141260476Y-106785238D01*
X168222380Y-96111904D02*
X168603333Y-96111904D01*
X168641428Y-96492857D01*
X168603333Y-96454761D01*
X168527142Y-96416666D01*
X168336666Y-96416666D01*
X168260476Y-96454761D01*
X168222380Y-96492857D01*
X168184285Y-96569047D01*
X168184285Y-96759523D01*
X168222380Y-96835714D01*
X168260476Y-96873809D01*
X168336666Y-96911904D01*
X168527142Y-96911904D01*
X168603333Y-96873809D01*
X168641428Y-96835714D01*
X167955714Y-96111904D02*
X167689047Y-96911904D01*
X167422380Y-96111904D01*
X143203333Y-96891904D02*
X143203333Y-96091904D01*
X142898571Y-96091904D01*
X142822380Y-96130000D01*
X142784285Y-96168095D01*
X142746190Y-96244285D01*
X142746190Y-96358571D01*
X142784285Y-96434761D01*
X142822380Y-96472857D01*
X142898571Y-96510952D01*
X143203333Y-96510952D01*
X142441428Y-96663333D02*
X142060476Y-96663333D01*
X142517619Y-96891904D02*
X142250952Y-96091904D01*
X141984285Y-96891904D01*
X141565238Y-96091904D02*
X141489047Y-96091904D01*
X141412857Y-96130000D01*
X141374761Y-96168095D01*
X141336666Y-96244285D01*
X141298571Y-96396666D01*
X141298571Y-96587142D01*
X141336666Y-96739523D01*
X141374761Y-96815714D01*
X141412857Y-96853809D01*
X141489047Y-96891904D01*
X141565238Y-96891904D01*
X141641428Y-96853809D01*
X141679523Y-96815714D01*
X141717619Y-96739523D01*
X141755714Y-96587142D01*
X141755714Y-96396666D01*
X141717619Y-96244285D01*
X141679523Y-96168095D01*
X141641428Y-96130000D01*
X141565238Y-96091904D01*
X168630476Y-127371904D02*
X168630476Y-126571904D01*
X168325714Y-126571904D01*
X168249523Y-126610000D01*
X168211428Y-126648095D01*
X168173333Y-126724285D01*
X168173333Y-126838571D01*
X168211428Y-126914761D01*
X168249523Y-126952857D01*
X168325714Y-126990952D01*
X168630476Y-126990952D01*
X167563809Y-126952857D02*
X167449523Y-126990952D01*
X167411428Y-127029047D01*
X167373333Y-127105238D01*
X167373333Y-127219523D01*
X167411428Y-127295714D01*
X167449523Y-127333809D01*
X167525714Y-127371904D01*
X167830476Y-127371904D01*
X167830476Y-126571904D01*
X167563809Y-126571904D01*
X167487619Y-126610000D01*
X167449523Y-126648095D01*
X167411428Y-126724285D01*
X167411428Y-126800476D01*
X167449523Y-126876666D01*
X167487619Y-126914761D01*
X167563809Y-126952857D01*
X167830476Y-126952857D01*
X166611428Y-127371904D02*
X167068571Y-127371904D01*
X166840000Y-127371904D02*
X166840000Y-126571904D01*
X166916190Y-126686190D01*
X166992380Y-126762380D01*
X167068571Y-126800476D01*
X168590952Y-101161904D02*
X168095714Y-101161904D01*
X168362380Y-101466666D01*
X168248095Y-101466666D01*
X168171904Y-101504761D01*
X168133809Y-101542857D01*
X168095714Y-101619047D01*
X168095714Y-101809523D01*
X168133809Y-101885714D01*
X168171904Y-101923809D01*
X168248095Y-101961904D01*
X168476666Y-101961904D01*
X168552857Y-101923809D01*
X168590952Y-101885714D01*
X167752857Y-101885714D02*
X167714761Y-101923809D01*
X167752857Y-101961904D01*
X167790952Y-101923809D01*
X167752857Y-101885714D01*
X167752857Y-101961904D01*
X167448095Y-101161904D02*
X166952857Y-101161904D01*
X167219523Y-101466666D01*
X167105238Y-101466666D01*
X167029047Y-101504761D01*
X166990952Y-101542857D01*
X166952857Y-101619047D01*
X166952857Y-101809523D01*
X166990952Y-101885714D01*
X167029047Y-101923809D01*
X167105238Y-101961904D01*
X167333809Y-101961904D01*
X167410000Y-101923809D01*
X167448095Y-101885714D01*
X166724285Y-101161904D02*
X166457619Y-101961904D01*
X166190952Y-101161904D01*
X168209523Y-98660000D02*
X168285714Y-98621904D01*
X168400000Y-98621904D01*
X168514285Y-98660000D01*
X168590476Y-98736190D01*
X168628571Y-98812380D01*
X168666666Y-98964761D01*
X168666666Y-99079047D01*
X168628571Y-99231428D01*
X168590476Y-99307619D01*
X168514285Y-99383809D01*
X168400000Y-99421904D01*
X168323809Y-99421904D01*
X168209523Y-99383809D01*
X168171428Y-99345714D01*
X168171428Y-99079047D01*
X168323809Y-99079047D01*
X167828571Y-99421904D02*
X167828571Y-98621904D01*
X167371428Y-99421904D01*
X167371428Y-98621904D01*
X166990476Y-99421904D02*
X166990476Y-98621904D01*
X166800000Y-98621904D01*
X166685714Y-98660000D01*
X166609523Y-98736190D01*
X166571428Y-98812380D01*
X166533333Y-98964761D01*
X166533333Y-99079047D01*
X166571428Y-99231428D01*
X166609523Y-99307619D01*
X166685714Y-99383809D01*
X166800000Y-99421904D01*
X166990476Y-99421904D01*
X168249523Y-103750000D02*
X168325714Y-103711904D01*
X168440000Y-103711904D01*
X168554285Y-103750000D01*
X168630476Y-103826190D01*
X168668571Y-103902380D01*
X168706666Y-104054761D01*
X168706666Y-104169047D01*
X168668571Y-104321428D01*
X168630476Y-104397619D01*
X168554285Y-104473809D01*
X168440000Y-104511904D01*
X168363809Y-104511904D01*
X168249523Y-104473809D01*
X168211428Y-104435714D01*
X168211428Y-104169047D01*
X168363809Y-104169047D01*
X167868571Y-104511904D02*
X167868571Y-103711904D01*
X167411428Y-104511904D01*
X167411428Y-103711904D01*
X167030476Y-104511904D02*
X167030476Y-103711904D01*
X166840000Y-103711904D01*
X166725714Y-103750000D01*
X166649523Y-103826190D01*
X166611428Y-103902380D01*
X166573333Y-104054761D01*
X166573333Y-104169047D01*
X166611428Y-104321428D01*
X166649523Y-104397619D01*
X166725714Y-104473809D01*
X166840000Y-104511904D01*
X167030476Y-104511904D01*
%TO.C,U2*%
X155484523Y-108131904D02*
X155484523Y-108779523D01*
X155446428Y-108855714D01*
X155408333Y-108893809D01*
X155332142Y-108931904D01*
X155179761Y-108931904D01*
X155103571Y-108893809D01*
X155065476Y-108855714D01*
X155027380Y-108779523D01*
X155027380Y-108131904D01*
X154684523Y-108208095D02*
X154646428Y-108170000D01*
X154570238Y-108131904D01*
X154379761Y-108131904D01*
X154303571Y-108170000D01*
X154265476Y-108208095D01*
X154227380Y-108284285D01*
X154227380Y-108360476D01*
X154265476Y-108474761D01*
X154722619Y-108931904D01*
X154227380Y-108931904D01*
D14*
%TO.C,*%
D15*
%TO.C,J2*%
X171730000Y-97770000D02*
X169070000Y-97770000D01*
X171730000Y-97770000D02*
X171730000Y-130850000D01*
X171730000Y-95170000D02*
X170400000Y-95170000D01*
X169070000Y-97770000D02*
X169070000Y-130850000D01*
X171730000Y-130850000D02*
X169070000Y-130850000D01*
X171730000Y-96500000D02*
X171730000Y-95170000D01*
D16*
%TO.C,U2*%
X152744000Y-109319500D02*
X152744000Y-114597500D01*
X157096000Y-114597500D02*
X157096000Y-109319500D01*
X157096000Y-109319500D02*
X152744000Y-109319500D01*
X152744000Y-114597500D02*
X157096000Y-114597500D01*
D14*
X158600000Y-109286500D02*
G75*
G03*
X158600000Y-109286500I-150000J0D01*
G01*
X156494000Y-110053500D02*
G75*
G03*
X156494000Y-110053500I-150000J0D01*
G01*
D15*
%TO.C,C3*%
X148502164Y-109690000D02*
X148717836Y-109690000D01*
X148502164Y-110410000D02*
X148717836Y-110410000D01*
%TO.C,*%
G36*
X162128403Y-123231463D02*
G01*
X162130104Y-123234734D01*
X162121154Y-123238712D01*
X162115398Y-123237927D01*
X162113906Y-123231463D01*
X162115499Y-123230162D01*
X162128403Y-123231463D01*
G37*
G36*
X163009596Y-121642975D02*
G01*
X163085510Y-121645002D01*
X163169643Y-121648328D01*
X163232830Y-121652355D01*
X163275526Y-121657113D01*
X163298188Y-121662634D01*
X163316307Y-121674689D01*
X163327746Y-121699419D01*
X163319320Y-121730456D01*
X163291120Y-121766469D01*
X163271114Y-121785509D01*
X163249858Y-121800204D01*
X163234118Y-121800186D01*
X163219092Y-121786809D01*
X163213467Y-121778236D01*
X163214415Y-121763767D01*
X163230529Y-121743316D01*
X163255767Y-121716452D01*
X163218534Y-121716332D01*
X163180677Y-121714328D01*
X163141626Y-121709651D01*
X163134212Y-121708475D01*
X163111095Y-121707610D01*
X163096977Y-121717314D01*
X163083302Y-121742391D01*
X163079151Y-121751065D01*
X163068259Y-121772992D01*
X163063173Y-121781855D01*
X163061310Y-121782431D01*
X163045164Y-121788052D01*
X163018201Y-121797688D01*
X163015806Y-121798551D01*
X162985010Y-121809117D01*
X162964933Y-121812584D01*
X162946327Y-121809029D01*
X162919940Y-121798534D01*
X162919667Y-121798420D01*
X162886309Y-121776146D01*
X162859412Y-121744168D01*
X162847720Y-121726397D01*
X162828499Y-121709884D01*
X162803080Y-121705578D01*
X162776263Y-121710599D01*
X162744670Y-121728921D01*
X162734193Y-121738105D01*
X162717966Y-121745602D01*
X162703194Y-121738463D01*
X162698471Y-121734251D01*
X162687911Y-121716151D01*
X162694363Y-121695428D01*
X162718735Y-121667953D01*
X162750905Y-121637132D01*
X163009596Y-121642975D01*
G37*
G36*
X162595955Y-123100984D02*
G01*
X162597656Y-123104254D01*
X162588706Y-123108233D01*
X162582950Y-123107448D01*
X162581457Y-123100984D01*
X162583051Y-123099682D01*
X162595955Y-123100984D01*
G37*
G36*
X162490846Y-123168036D02*
G01*
X162485410Y-123173472D01*
X162479973Y-123168036D01*
X162485410Y-123162599D01*
X162490846Y-123168036D01*
G37*
G36*
X162232742Y-123164260D02*
G01*
X162235324Y-123173472D01*
X162233095Y-123176762D01*
X162224451Y-123184346D01*
X162222878Y-123183834D01*
X162213577Y-123173472D01*
X162212707Y-123167713D01*
X162224451Y-123162599D01*
X162232742Y-123164260D01*
G37*
G36*
X162697439Y-123102796D02*
G01*
X162692002Y-123108233D01*
X162686565Y-123102796D01*
X162692002Y-123097359D01*
X162697439Y-123102796D01*
G37*
G36*
X161958055Y-123113669D02*
G01*
X161952618Y-123119106D01*
X161947182Y-123113669D01*
X161952618Y-123108233D01*
X161958055Y-123113669D01*
G37*
G36*
X163105830Y-123179481D02*
G01*
X163148274Y-123266235D01*
X163192362Y-123367256D01*
X163237109Y-123480296D01*
X163281528Y-123603109D01*
X163324635Y-123733447D01*
X163331857Y-123756300D01*
X163348529Y-123808985D01*
X163362551Y-123853188D01*
X163372625Y-123884822D01*
X163377453Y-123899803D01*
X163374817Y-123907918D01*
X163357453Y-123911331D01*
X163321983Y-123910676D01*
X163261779Y-123907419D01*
X163235241Y-123831306D01*
X163234037Y-123827857D01*
X163220106Y-123788651D01*
X163208377Y-123756789D01*
X163201281Y-123738883D01*
X163196361Y-123724425D01*
X163190852Y-123696851D01*
X163187737Y-123679596D01*
X163182159Y-123665441D01*
X163178060Y-123664789D01*
X163170068Y-123676377D01*
X163163055Y-123698011D01*
X163159141Y-123722256D01*
X163160441Y-123741681D01*
X163162734Y-123756100D01*
X163154021Y-123755134D01*
X163149760Y-123754038D01*
X163145036Y-123762555D01*
X163143538Y-123786870D01*
X163144913Y-123829886D01*
X163149103Y-123912856D01*
X161457884Y-123912856D01*
X161457884Y-123890468D01*
X161459580Y-123877887D01*
X161466039Y-123873114D01*
X161470641Y-123873113D01*
X161475675Y-123859284D01*
X161476901Y-123832201D01*
X161474533Y-123797040D01*
X161468783Y-123758974D01*
X161459865Y-123723177D01*
X161439558Y-123659059D01*
X161427433Y-123693841D01*
X161426991Y-123695135D01*
X161420812Y-123724270D01*
X161422134Y-123746410D01*
X161424300Y-123755778D01*
X161418178Y-123757534D01*
X161416780Y-123757267D01*
X161407506Y-123767642D01*
X161394885Y-123793879D01*
X161380992Y-123831829D01*
X161354588Y-123912788D01*
X161313080Y-123912822D01*
X161290124Y-123911828D01*
X161277096Y-123906355D01*
X161277068Y-123893828D01*
X161277884Y-123890948D01*
X161284005Y-123868744D01*
X161294236Y-123831229D01*
X161307370Y-123782839D01*
X161322200Y-123728010D01*
X161361088Y-123589772D01*
X161401465Y-123459868D01*
X161440745Y-123348563D01*
X161479529Y-123254285D01*
X161518417Y-123175461D01*
X161558010Y-123110517D01*
X161585003Y-123078687D01*
X161613258Y-123054434D01*
X161897126Y-123054434D01*
X161897556Y-123068294D01*
X161898050Y-123071598D01*
X161906179Y-123098773D01*
X161919901Y-123129907D01*
X161921909Y-123133758D01*
X161934055Y-123154526D01*
X161941296Y-123157953D01*
X161947291Y-123146217D01*
X161952029Y-123135468D01*
X161956845Y-123137507D01*
X161962617Y-123158972D01*
X161962840Y-123159950D01*
X161972827Y-123185429D01*
X161985903Y-123199406D01*
X161992494Y-123200875D01*
X162000345Y-123194734D01*
X162003115Y-123174075D01*
X162001662Y-123135416D01*
X162001561Y-123133780D01*
X162002179Y-123113898D01*
X162006232Y-123109424D01*
X162008607Y-123114630D01*
X162012730Y-123136977D01*
X162015425Y-123169227D01*
X162016536Y-123188553D01*
X162020493Y-123211486D01*
X162029808Y-123221910D01*
X162047944Y-123225860D01*
X162067230Y-123231145D01*
X162071871Y-123239285D01*
X162072905Y-123246803D01*
X162087349Y-123261137D01*
X162111177Y-123276229D01*
X162137898Y-123288167D01*
X162161023Y-123293038D01*
X162175898Y-123295517D01*
X162188698Y-123305426D01*
X162191560Y-123307082D01*
X162198590Y-123296081D01*
X162207027Y-123274210D01*
X162214856Y-123247739D01*
X162220059Y-123222942D01*
X162220349Y-123214247D01*
X162295512Y-123214247D01*
X162302047Y-123223209D01*
X162322310Y-123227839D01*
X162331950Y-123227502D01*
X162346073Y-123222246D01*
X162347549Y-123206938D01*
X162337801Y-123176898D01*
X162326108Y-123146289D01*
X162403860Y-123146289D01*
X162405406Y-123153841D01*
X162417452Y-123162765D01*
X162423882Y-123164584D01*
X162415236Y-123172932D01*
X162412790Y-123174579D01*
X162405030Y-123187099D01*
X162411457Y-123206938D01*
X162411834Y-123208103D01*
X162420525Y-123227761D01*
X162430774Y-123256736D01*
X162435949Y-123269477D01*
X162454197Y-123286526D01*
X162475967Y-123287653D01*
X162494578Y-123273841D01*
X162503349Y-123246070D01*
X162503352Y-123245992D01*
X162504679Y-123223915D01*
X162506341Y-123222687D01*
X162509507Y-123241427D01*
X162512048Y-123254663D01*
X162519488Y-123265145D01*
X162535061Y-123260072D01*
X162547506Y-123249032D01*
X162557347Y-123224738D01*
X162557526Y-123221657D01*
X162559599Y-123210046D01*
X162563511Y-123219322D01*
X162564716Y-123223430D01*
X162572577Y-123232176D01*
X162589433Y-123224861D01*
X162601307Y-123213477D01*
X162608476Y-123191648D01*
X162610452Y-123154547D01*
X162610490Y-123151726D01*
X162623186Y-123151726D01*
X162624169Y-123166372D01*
X162629848Y-123189997D01*
X162639764Y-123192690D01*
X162653563Y-123174187D01*
X162656424Y-123168490D01*
X162664891Y-123138362D01*
X162660202Y-123116602D01*
X162643151Y-123108233D01*
X162630216Y-123110850D01*
X162623756Y-123123418D01*
X162623186Y-123151726D01*
X162610490Y-123151726D01*
X162610804Y-123128491D01*
X162613721Y-123107573D01*
X162621804Y-123099007D01*
X162637636Y-123097359D01*
X162675692Y-123097359D01*
X162675900Y-123116915D01*
X162676860Y-123138362D01*
X162677020Y-123141938D01*
X162678784Y-123151726D01*
X162679163Y-123151583D01*
X162687149Y-123141426D01*
X162700531Y-123120146D01*
X162708886Y-123104385D01*
X162718666Y-123072622D01*
X162714803Y-123050986D01*
X162697439Y-123042993D01*
X162692409Y-123043225D01*
X162681697Y-123048487D01*
X162680845Y-123051338D01*
X162676837Y-123064750D01*
X162676265Y-123081049D01*
X162675692Y-123097359D01*
X162637636Y-123097359D01*
X162655367Y-123094167D01*
X162664819Y-123081049D01*
X162663500Y-123072613D01*
X162650563Y-123065328D01*
X162623896Y-123074819D01*
X162612666Y-123080292D01*
X162584811Y-123091239D01*
X162577502Y-123094410D01*
X162568615Y-123107961D01*
X162569036Y-123135526D01*
X162569210Y-123137073D01*
X162568910Y-123163743D01*
X162561222Y-123173472D01*
X162553753Y-123165113D01*
X162553767Y-123140852D01*
X162555308Y-123126223D01*
X162551356Y-123111681D01*
X162535573Y-123108233D01*
X162535034Y-123108235D01*
X162517497Y-123114301D01*
X162512593Y-123135416D01*
X162515970Y-123153343D01*
X162526184Y-123162765D01*
X162533015Y-123163940D01*
X162527815Y-123170920D01*
X162522339Y-123175661D01*
X162509645Y-123195219D01*
X162507683Y-123197988D01*
X162504300Y-123189491D01*
X162502578Y-123165317D01*
X162500607Y-123137030D01*
X162493969Y-123122656D01*
X162479973Y-123119106D01*
X162466226Y-123122495D01*
X162458226Y-123140211D01*
X162456635Y-123152657D01*
X162448367Y-123167409D01*
X162443483Y-123166456D01*
X162444199Y-123151741D01*
X162444221Y-123151654D01*
X162443786Y-123134578D01*
X162426875Y-123129979D01*
X162413042Y-123133037D01*
X162403860Y-123146289D01*
X162326108Y-123146289D01*
X162325183Y-123147954D01*
X162311003Y-123173472D01*
X162300774Y-123195230D01*
X162295512Y-123214247D01*
X162220349Y-123214247D01*
X162220621Y-123206092D01*
X162219905Y-123198761D01*
X162225065Y-123197773D01*
X162225159Y-123197863D01*
X162235192Y-123195036D01*
X162247845Y-123177501D01*
X162252629Y-123168147D01*
X162261045Y-123147954D01*
X162257375Y-123141259D01*
X162240761Y-123144003D01*
X162227705Y-123145679D01*
X162219014Y-123141069D01*
X162217121Y-123138373D01*
X162200324Y-123131408D01*
X162171799Y-123125368D01*
X162162475Y-123123954D01*
X162125223Y-123118057D01*
X162095686Y-123113047D01*
X162091241Y-123112311D01*
X162071772Y-123113508D01*
X162065704Y-123127048D01*
X162065634Y-123128142D01*
X162062816Y-123134191D01*
X162057059Y-123119106D01*
X162048446Y-123101803D01*
X162028241Y-123091923D01*
X162015633Y-123090513D01*
X162000573Y-123083228D01*
X161996125Y-123079791D01*
X161975150Y-123070132D01*
X161944538Y-123059599D01*
X161921771Y-123052948D01*
X161913031Y-123051367D01*
X162104157Y-123051367D01*
X162105158Y-123051851D01*
X162120893Y-123055921D01*
X162151354Y-123062492D01*
X162191194Y-123070395D01*
X162194287Y-123070981D01*
X162241935Y-123078686D01*
X162287158Y-123083936D01*
X162320548Y-123085622D01*
X162346508Y-123083558D01*
X162389607Y-123077574D01*
X162437756Y-123069208D01*
X162482234Y-123059997D01*
X162514318Y-123051479D01*
X162514517Y-123051338D01*
X162504214Y-123050416D01*
X162475729Y-123049618D01*
X162432179Y-123048989D01*
X162376679Y-123048577D01*
X162312343Y-123048429D01*
X162303708Y-123048432D01*
X162239761Y-123048610D01*
X162184589Y-123049039D01*
X162141437Y-123049672D01*
X162113545Y-123050463D01*
X162104157Y-123051367D01*
X161913031Y-123051367D01*
X161903473Y-123049638D01*
X161897126Y-123054434D01*
X161613258Y-123054434D01*
X161632480Y-123037934D01*
X161687446Y-123002192D01*
X161742222Y-122977023D01*
X161781911Y-122963296D01*
X161698729Y-122920763D01*
X161656515Y-122898833D01*
X161573702Y-122852800D01*
X161503985Y-122808553D01*
X161442207Y-122762379D01*
X161383208Y-122710563D01*
X161321831Y-122649392D01*
X161284408Y-122609647D01*
X161241636Y-122561005D01*
X161207544Y-122516711D01*
X161177668Y-122470827D01*
X161147545Y-122417411D01*
X161123664Y-122373202D01*
X161104367Y-122339562D01*
X161089863Y-122318987D01*
X161077300Y-122308254D01*
X161063821Y-122304139D01*
X161046572Y-122303420D01*
X161019152Y-122301487D01*
X160976990Y-122295730D01*
X160932468Y-122287515D01*
X160879330Y-122273100D01*
X160796032Y-122234310D01*
X160724812Y-122177706D01*
X160664460Y-122102453D01*
X160622411Y-122028460D01*
X160593439Y-121949028D01*
X160582468Y-121868493D01*
X160583933Y-121846931D01*
X160681073Y-121846931D01*
X160681352Y-121882083D01*
X160683311Y-121922219D01*
X160688333Y-121952044D01*
X160697782Y-121978464D01*
X160713027Y-122008382D01*
X160732063Y-122039030D01*
X160783362Y-122099330D01*
X160844695Y-122149342D01*
X160909717Y-122183419D01*
X160934403Y-122191529D01*
X160977599Y-122201753D01*
X161013220Y-122205750D01*
X161013494Y-122205750D01*
X161041034Y-122204365D01*
X161051789Y-122198488D01*
X161050608Y-122185491D01*
X161041950Y-122153050D01*
X161029849Y-122090696D01*
X161018441Y-122012415D01*
X161008206Y-121921625D01*
X160999622Y-121821743D01*
X160994631Y-121753902D01*
X161090288Y-121753902D01*
X161092223Y-121789376D01*
X161096033Y-121835908D01*
X161101268Y-121889106D01*
X161107476Y-121944578D01*
X161114206Y-121997930D01*
X161121008Y-122044770D01*
X161127431Y-122080707D01*
X161157364Y-122198488D01*
X161158265Y-122202032D01*
X161201478Y-122317861D01*
X161257334Y-122422125D01*
X161328280Y-122519336D01*
X161416764Y-122614003D01*
X161491800Y-122680192D01*
X161617831Y-122768916D01*
X161756397Y-122842833D01*
X161904107Y-122900223D01*
X162057573Y-122939364D01*
X162076021Y-122942497D01*
X162123541Y-122948684D01*
X162179770Y-122954264D01*
X162239654Y-122958919D01*
X162298145Y-122962329D01*
X162350189Y-122964176D01*
X162390735Y-122964141D01*
X162414733Y-122961905D01*
X162419961Y-122960837D01*
X162444990Y-122956696D01*
X162483114Y-122950992D01*
X162528397Y-122944627D01*
X162620718Y-122927166D01*
X162742180Y-122891880D01*
X162864353Y-122844147D01*
X162980390Y-122786712D01*
X163083440Y-122722318D01*
X163091860Y-122716203D01*
X163150612Y-122667633D01*
X163213748Y-122607040D01*
X163275717Y-122540344D01*
X163330969Y-122473471D01*
X163373952Y-122412342D01*
X163383785Y-122396052D01*
X163438503Y-122283354D01*
X163463813Y-122205750D01*
X163570810Y-122205750D01*
X163615268Y-122205741D01*
X163633939Y-122204294D01*
X163684602Y-122191060D01*
X163740115Y-122166747D01*
X163793507Y-122134721D01*
X163837807Y-122098344D01*
X163849453Y-122086389D01*
X163887919Y-122039183D01*
X163913203Y-121990283D01*
X163927953Y-121933220D01*
X163934823Y-121861519D01*
X163935919Y-121835350D01*
X163936257Y-121793009D01*
X163933085Y-121761532D01*
X163925360Y-121733615D01*
X163912038Y-121701952D01*
X163890376Y-121662438D01*
X163860781Y-121619964D01*
X163828373Y-121581422D01*
X163797464Y-121551918D01*
X163772365Y-121536557D01*
X163759333Y-121535987D01*
X163735725Y-121547198D01*
X163702935Y-121574199D01*
X163680434Y-121593872D01*
X163666499Y-121604502D01*
X163657045Y-121611714D01*
X163643658Y-121618592D01*
X163643130Y-121618666D01*
X163637569Y-121630531D01*
X163633879Y-121660103D01*
X163632541Y-121703690D01*
X163632045Y-121726488D01*
X163631338Y-121758968D01*
X163625728Y-121849967D01*
X163616360Y-121945689D01*
X163604143Y-122037320D01*
X163589988Y-122116045D01*
X163570810Y-122205750D01*
X163463813Y-122205750D01*
X163481101Y-122152740D01*
X163511541Y-122004358D01*
X163529780Y-121838358D01*
X163537543Y-121726488D01*
X163510336Y-121738884D01*
X163507238Y-121740360D01*
X163491582Y-121752413D01*
X163486772Y-121763440D01*
X163482625Y-121772947D01*
X163477215Y-121808591D01*
X163475969Y-121818966D01*
X163458589Y-121886101D01*
X163427513Y-121941914D01*
X163384959Y-121982226D01*
X163362725Y-121994814D01*
X163326050Y-122009011D01*
X163280011Y-122019928D01*
X163222146Y-122027876D01*
X163149991Y-122033169D01*
X163061084Y-122036119D01*
X162952961Y-122037038D01*
X162896465Y-122036998D01*
X162830861Y-122036639D01*
X162781316Y-122035666D01*
X162744466Y-122033786D01*
X162716948Y-122030707D01*
X162695399Y-122026140D01*
X162676455Y-122019791D01*
X162656755Y-122011370D01*
X162635919Y-122000625D01*
X162595212Y-121973571D01*
X162562927Y-121944913D01*
X162546531Y-121923577D01*
X162522482Y-121882816D01*
X162501120Y-121837125D01*
X162485823Y-121794001D01*
X162479973Y-121760941D01*
X162479342Y-121755293D01*
X162471477Y-121745520D01*
X162450977Y-121738868D01*
X162413289Y-121733463D01*
X162406931Y-121732817D01*
X162360563Y-121730548D01*
X162305087Y-121730736D01*
X162251151Y-121733386D01*
X162155696Y-121740853D01*
X162155517Y-121741816D01*
X162148359Y-121780300D01*
X162131395Y-121842729D01*
X162094401Y-121913431D01*
X162040707Y-121970274D01*
X161970048Y-122013604D01*
X161962394Y-122017053D01*
X161944610Y-122023869D01*
X161924830Y-122028913D01*
X161899762Y-122032448D01*
X161866116Y-122034738D01*
X161820599Y-122036046D01*
X161759920Y-122036636D01*
X161680786Y-122036773D01*
X161634595Y-122036648D01*
X161536716Y-122035203D01*
X161456872Y-122031837D01*
X161392465Y-122026178D01*
X161340900Y-122017855D01*
X161299578Y-122006495D01*
X161265903Y-121991725D01*
X161237278Y-121973173D01*
X161235271Y-121971620D01*
X161192201Y-121924552D01*
X161164396Y-121864827D01*
X161154023Y-121797028D01*
X161152255Y-121771577D01*
X161143889Y-121752061D01*
X161124844Y-121739537D01*
X161103647Y-121731813D01*
X161091553Y-121731213D01*
X161090680Y-121733878D01*
X161090288Y-121753902D01*
X160994631Y-121753902D01*
X160992351Y-121722905D01*
X161188441Y-121722905D01*
X161188656Y-121782819D01*
X161190312Y-121800987D01*
X161203844Y-121863668D01*
X161229925Y-121911683D01*
X161270560Y-121946935D01*
X161327756Y-121971330D01*
X161403517Y-121986770D01*
X161423974Y-121989314D01*
X161491353Y-121995569D01*
X161568010Y-122000298D01*
X161647769Y-122003311D01*
X161724452Y-122004421D01*
X161791884Y-122003440D01*
X161843886Y-122000179D01*
X161882853Y-121994574D01*
X161959846Y-121971810D01*
X162020595Y-121934896D01*
X162065579Y-121883486D01*
X162095272Y-121817232D01*
X162100253Y-121799737D01*
X162110616Y-121741816D01*
X162108112Y-121719566D01*
X162524143Y-121719566D01*
X162526275Y-121772913D01*
X162545324Y-121839296D01*
X162563598Y-121878960D01*
X162600663Y-121927201D01*
X162651028Y-121962521D01*
X162716895Y-121986305D01*
X162800462Y-121999939D01*
X162831415Y-122002741D01*
X162896700Y-122006846D01*
X162959719Y-122007632D01*
X163028388Y-122005077D01*
X163110624Y-121999164D01*
X163203824Y-121989815D01*
X163278583Y-121977768D01*
X163335917Y-121961559D01*
X163377986Y-121939626D01*
X163406950Y-121910409D01*
X163424967Y-121872345D01*
X163434199Y-121823876D01*
X163436805Y-121763440D01*
X163435961Y-121720933D01*
X163431186Y-121683335D01*
X163420032Y-121658952D01*
X163400093Y-121643088D01*
X163368964Y-121631046D01*
X163332020Y-121621958D01*
X163265897Y-121611888D01*
X163185933Y-121604587D01*
X163096554Y-121600057D01*
X163002188Y-121598298D01*
X162907259Y-121599309D01*
X162816195Y-121603089D01*
X162733422Y-121609640D01*
X162663366Y-121618962D01*
X162610452Y-121631053D01*
X162571896Y-121647927D01*
X162539245Y-121678241D01*
X162524143Y-121719566D01*
X162108112Y-121719566D01*
X162105657Y-121697758D01*
X162083924Y-121665027D01*
X162043968Y-121641091D01*
X161984338Y-121623413D01*
X161981826Y-121622868D01*
X161918319Y-121612682D01*
X161839974Y-121605428D01*
X161751346Y-121601050D01*
X161656991Y-121599495D01*
X161561462Y-121600707D01*
X161469316Y-121604632D01*
X161385107Y-121611214D01*
X161313391Y-121620400D01*
X161258724Y-121632134D01*
X161255403Y-121633139D01*
X161220481Y-121650932D01*
X161198605Y-121679898D01*
X161188441Y-121722905D01*
X160992351Y-121722905D01*
X160986170Y-121638891D01*
X160952913Y-121624989D01*
X160925227Y-121609915D01*
X160922423Y-121607583D01*
X161088192Y-121607583D01*
X161088582Y-121633681D01*
X161091764Y-121660979D01*
X161100060Y-121677661D01*
X161115715Y-121690491D01*
X161116209Y-121690814D01*
X161136125Y-121702077D01*
X161145939Y-121704333D01*
X161146967Y-121702451D01*
X161154830Y-121686121D01*
X161166936Y-121659858D01*
X161171785Y-121650028D01*
X161192598Y-121622105D01*
X161222814Y-121601970D01*
X161266533Y-121587501D01*
X161327853Y-121576576D01*
X161389530Y-121569159D01*
X161493760Y-121560885D01*
X161600331Y-121557081D01*
X161705836Y-121557564D01*
X161806869Y-121562153D01*
X161900020Y-121570663D01*
X161981882Y-121582913D01*
X162049049Y-121598719D01*
X162098112Y-121617898D01*
X162098431Y-121618072D01*
X162120076Y-121637629D01*
X162137376Y-121665679D01*
X162151757Y-121700142D01*
X162315867Y-121696879D01*
X162479978Y-121693615D01*
X162496398Y-121661863D01*
X162503644Y-121649818D01*
X162525270Y-121627163D01*
X162556910Y-121608677D01*
X162600907Y-121593665D01*
X162659608Y-121581429D01*
X162735355Y-121571272D01*
X162830493Y-121562496D01*
X162836176Y-121562061D01*
X162913694Y-121558204D01*
X162998727Y-121557199D01*
X163086406Y-121558824D01*
X163171863Y-121562853D01*
X163250230Y-121569063D01*
X163316638Y-121577231D01*
X163366221Y-121587132D01*
X163379333Y-121591314D01*
X163422140Y-121613986D01*
X163455855Y-121645200D01*
X163474206Y-121679587D01*
X163474243Y-121679731D01*
X163483478Y-121701091D01*
X163497156Y-121702499D01*
X163517996Y-121684247D01*
X163518422Y-121683772D01*
X163525606Y-121673495D01*
X163530503Y-121659222D01*
X163533379Y-121637406D01*
X163534504Y-121604502D01*
X163534146Y-121556964D01*
X163532570Y-121491246D01*
X163531704Y-121460840D01*
X163529643Y-121403165D01*
X163526994Y-121360989D01*
X163523089Y-121329939D01*
X163517258Y-121305636D01*
X163508830Y-121283707D01*
X163497135Y-121259774D01*
X163461190Y-121194377D01*
X163397661Y-121100274D01*
X163328861Y-121025176D01*
X163252846Y-120967428D01*
X163167675Y-120925377D01*
X163071404Y-120897369D01*
X163070906Y-120897265D01*
X163031110Y-120889503D01*
X163007121Y-120887014D01*
X162993694Y-120889837D01*
X162985581Y-120898011D01*
X162968065Y-120922949D01*
X162945321Y-120946613D01*
X162919035Y-120959598D01*
X162881333Y-120967124D01*
X162877371Y-120967665D01*
X162822979Y-120972488D01*
X162753001Y-120975235D01*
X162672989Y-120975978D01*
X162588496Y-120974791D01*
X162505072Y-120971745D01*
X162428270Y-120966914D01*
X162363642Y-120960368D01*
X162268927Y-120945295D01*
X162138457Y-120917224D01*
X162004481Y-120881188D01*
X161873311Y-120839083D01*
X161751259Y-120792808D01*
X161644639Y-120744260D01*
X161626550Y-120735135D01*
X161598743Y-120721953D01*
X161584116Y-120717800D01*
X161578442Y-120722030D01*
X161577490Y-120733997D01*
X161571907Y-120757776D01*
X161556704Y-120794447D01*
X161534680Y-120838537D01*
X161508639Y-120884786D01*
X161481382Y-120927930D01*
X161455710Y-120962707D01*
X161454090Y-120964640D01*
X161420536Y-121000243D01*
X161378301Y-121039441D01*
X161336126Y-121074094D01*
X161326762Y-121081291D01*
X161269768Y-121131886D01*
X161223056Y-121187967D01*
X161184155Y-121253598D01*
X161150595Y-121332844D01*
X161119905Y-121429769D01*
X161117387Y-121438895D01*
X161102046Y-121503110D01*
X161091875Y-121561801D01*
X161088192Y-121607583D01*
X160922423Y-121607583D01*
X160904138Y-121592376D01*
X160885359Y-121575389D01*
X160858111Y-121557888D01*
X160840476Y-121549997D01*
X160826129Y-121550126D01*
X160809542Y-121561135D01*
X160784295Y-121585417D01*
X160768085Y-121603213D01*
X160736562Y-121644632D01*
X160710974Y-121686179D01*
X160702706Y-121702562D01*
X160691247Y-121730454D01*
X160684685Y-121759168D01*
X160681726Y-121795671D01*
X160681073Y-121846931D01*
X160583933Y-121846931D01*
X160588343Y-121781995D01*
X160599663Y-121732546D01*
X160621977Y-121670175D01*
X160650966Y-121609469D01*
X160683407Y-121557051D01*
X160716075Y-121519548D01*
X160724134Y-121512368D01*
X160742505Y-121493013D01*
X160747333Y-121477747D01*
X160741602Y-121459561D01*
X160733064Y-121430208D01*
X160729374Y-121395586D01*
X160728069Y-121378975D01*
X160720621Y-121340827D01*
X160708772Y-121300956D01*
X160705471Y-121291566D01*
X160677626Y-121196951D01*
X160653077Y-121086274D01*
X160632460Y-120964509D01*
X160616411Y-120836629D01*
X160605566Y-120707606D01*
X160600561Y-120582413D01*
X160602031Y-120466024D01*
X160603031Y-120446314D01*
X160615701Y-120315200D01*
X160638015Y-120187951D01*
X160668888Y-120068874D01*
X160707230Y-119962275D01*
X160751954Y-119872462D01*
X160765687Y-119850976D01*
X160812172Y-119790595D01*
X160870338Y-119727200D01*
X160934801Y-119666037D01*
X161000175Y-119612350D01*
X161061075Y-119571386D01*
X161098406Y-119548411D01*
X161143390Y-119514564D01*
X161169199Y-119485231D01*
X161176810Y-119472898D01*
X161228676Y-119407357D01*
X161297520Y-119342734D01*
X161379431Y-119281700D01*
X161470500Y-119226925D01*
X161566818Y-119181081D01*
X161664476Y-119146838D01*
X161728363Y-119131728D01*
X161822634Y-119116380D01*
X161929574Y-119104824D01*
X162044321Y-119097271D01*
X162162014Y-119093931D01*
X162277791Y-119095016D01*
X162386791Y-119100736D01*
X162484154Y-119111301D01*
X162551341Y-119122073D01*
X162759975Y-119169305D01*
X162959784Y-119236278D01*
X163151717Y-119323349D01*
X163336720Y-119430872D01*
X163337315Y-119431258D01*
X163403507Y-119475877D01*
X163462447Y-119519844D01*
X163518183Y-119566776D01*
X163574763Y-119620292D01*
X163636235Y-119684013D01*
X163706649Y-119761555D01*
X163710269Y-119765620D01*
X163776683Y-119838897D01*
X163832216Y-119897157D01*
X163879159Y-119942496D01*
X163919803Y-119977009D01*
X163956440Y-120002792D01*
X163991360Y-120021939D01*
X164006365Y-120029663D01*
X164037954Y-120049634D01*
X164059076Y-120068029D01*
X164075239Y-120101131D01*
X164075078Y-120140584D01*
X164058123Y-120178304D01*
X164025772Y-120208399D01*
X164002093Y-120223155D01*
X163983676Y-120235011D01*
X163979810Y-120240141D01*
X163976859Y-120255832D01*
X163976904Y-120284094D01*
X163979995Y-120327909D01*
X163986179Y-120390261D01*
X163986349Y-120391870D01*
X163992387Y-120461530D01*
X163997383Y-120542709D01*
X164000821Y-120625451D01*
X164002187Y-120699799D01*
X164002491Y-120734661D01*
X164005219Y-120815522D01*
X164010571Y-120881068D01*
X164018326Y-120928138D01*
X164025084Y-120958407D01*
X164031738Y-120994569D01*
X164034466Y-121018679D01*
X164034379Y-121021452D01*
X164023974Y-121048861D01*
X164001089Y-121076906D01*
X163972585Y-121098747D01*
X163945320Y-121107548D01*
X163940575Y-121107729D01*
X163931377Y-121110543D01*
X163923349Y-121119188D01*
X163915249Y-121136728D01*
X163905835Y-121166228D01*
X163893864Y-121210752D01*
X163878093Y-121273365D01*
X163869722Y-121306878D01*
X163856118Y-121360753D01*
X163844718Y-121405171D01*
X163836522Y-121436248D01*
X163832533Y-121450096D01*
X163835029Y-121458031D01*
X163850451Y-121476447D01*
X163875695Y-121499012D01*
X163922329Y-121543948D01*
X163974578Y-121618623D01*
X164013985Y-121707684D01*
X164030169Y-121776240D01*
X164030937Y-121793009D01*
X164034272Y-121865847D01*
X164021553Y-121955028D01*
X163992482Y-122036582D01*
X163952611Y-122105789D01*
X163890823Y-122179766D01*
X163817249Y-122235672D01*
X163730998Y-122274145D01*
X163631183Y-122295823D01*
X163599405Y-122300016D01*
X163563263Y-122306080D01*
X163541422Y-122312728D01*
X163529352Y-122321558D01*
X163522525Y-122334169D01*
X163519880Y-122340750D01*
X163499487Y-122382167D01*
X163469740Y-122433690D01*
X163434215Y-122489638D01*
X163396491Y-122544326D01*
X163360146Y-122592071D01*
X163340969Y-122615163D01*
X163284731Y-122676657D01*
X163225083Y-122731604D01*
X163157733Y-122783403D01*
X163078392Y-122835455D01*
X162982770Y-122891159D01*
X162871227Y-122953364D01*
X162930842Y-122982531D01*
X162955397Y-122996280D01*
X162995498Y-123024761D01*
X163026464Y-123053764D01*
X163029821Y-123057764D01*
X163040268Y-123072622D01*
X163066017Y-123109241D01*
X163105830Y-123179481D01*
G37*
G36*
X162458226Y-123260459D02*
G01*
X162457442Y-123266215D01*
X162450978Y-123267707D01*
X162449676Y-123266114D01*
X162450978Y-123253210D01*
X162454248Y-123251509D01*
X162458226Y-123260459D01*
G37*
G36*
X162376514Y-121831043D02*
G01*
X162382704Y-121842253D01*
X162387212Y-121864371D01*
X162390743Y-121901009D01*
X162394003Y-121955777D01*
X162397025Y-121999734D01*
X162402320Y-122049942D01*
X162408620Y-122090466D01*
X162415126Y-122115279D01*
X162418861Y-122125322D01*
X162421567Y-122164120D01*
X162403260Y-122197549D01*
X162363875Y-122225744D01*
X162354170Y-122230392D01*
X162326765Y-122240095D01*
X162309050Y-122241385D01*
X162304424Y-122238825D01*
X162295711Y-122221998D01*
X162299283Y-122201400D01*
X162314155Y-122187446D01*
X162327424Y-122181265D01*
X162351396Y-122165094D01*
X162355712Y-122161226D01*
X162363522Y-122149596D01*
X162362475Y-122133123D01*
X162352738Y-122104225D01*
X162349827Y-122095169D01*
X162341863Y-122053719D01*
X162336813Y-122000980D01*
X162335004Y-121944886D01*
X162336765Y-121893370D01*
X162342423Y-121854364D01*
X162352064Y-121832948D01*
X162368910Y-121827294D01*
X162376514Y-121831043D01*
G37*
G36*
X163230230Y-123863926D02*
G01*
X163224793Y-123869363D01*
X163219356Y-123863926D01*
X163224793Y-123858489D01*
X163230230Y-123863926D01*
G37*
G36*
X161447011Y-123728010D02*
G01*
X161446226Y-123733766D01*
X161439762Y-123735259D01*
X161438460Y-123733665D01*
X161439762Y-123720761D01*
X161443032Y-123719060D01*
X161447011Y-123728010D01*
G37*
G36*
X161554952Y-121322060D02*
G01*
X161636243Y-121329253D01*
X161708730Y-121342759D01*
X161778601Y-121363719D01*
X161852041Y-121393275D01*
X161853841Y-121394075D01*
X161897106Y-121416145D01*
X161920586Y-121434659D01*
X161923835Y-121449081D01*
X161906407Y-121458871D01*
X161898643Y-121460669D01*
X161844835Y-121464930D01*
X161783245Y-121459117D01*
X161723263Y-121443993D01*
X161677827Y-121429154D01*
X161608238Y-121408942D01*
X161533886Y-121389561D01*
X161461106Y-121372558D01*
X161396236Y-121359479D01*
X161345613Y-121351869D01*
X161338977Y-121351150D01*
X161301347Y-121345668D01*
X161283362Y-121339573D01*
X161283167Y-121332281D01*
X161298825Y-121327363D01*
X161334181Y-121323544D01*
X161387030Y-121321054D01*
X161455242Y-121320044D01*
X161458670Y-121320036D01*
X161554952Y-121322060D01*
G37*
G36*
X162456472Y-123199266D02*
G01*
X162458226Y-123216965D01*
X162456381Y-123229596D01*
X162448371Y-123238712D01*
X162443593Y-123234304D01*
X162444203Y-123216965D01*
X162448346Y-123204184D01*
X162454058Y-123195219D01*
X162456472Y-123199266D01*
G37*
G36*
X162566959Y-123189782D02*
G01*
X162561523Y-123195219D01*
X162556086Y-123189782D01*
X162561523Y-123184346D01*
X162566959Y-123189782D01*
G37*
G36*
X162106657Y-123166223D02*
G01*
X162108358Y-123169494D01*
X162099408Y-123173472D01*
X162093652Y-123172688D01*
X162092159Y-123166223D01*
X162093753Y-123164922D01*
X162106657Y-123166223D01*
G37*
G36*
X162186394Y-123233275D02*
G01*
X162180958Y-123238712D01*
X162175521Y-123233275D01*
X162180958Y-123227839D01*
X162186394Y-123233275D01*
G37*
G36*
X162153774Y-123233275D02*
G01*
X162148338Y-123238712D01*
X162142901Y-123233275D01*
X162148338Y-123227839D01*
X162153774Y-123233275D01*
G37*
G36*
X161958055Y-123086486D02*
G01*
X161957270Y-123092242D01*
X161950806Y-123093735D01*
X161949505Y-123092141D01*
X161950806Y-123079237D01*
X161954077Y-123077536D01*
X161958055Y-123086486D01*
G37*
G36*
X162071363Y-123163453D02*
G01*
X162072225Y-123173472D01*
X162069993Y-123176726D01*
X162060710Y-123184346D01*
X162059625Y-123184063D01*
X162055915Y-123173472D01*
X162056357Y-123170492D01*
X162067430Y-123162599D01*
X162071363Y-123163453D01*
G37*
G36*
X161436137Y-123776940D02*
G01*
X161430701Y-123782376D01*
X161425264Y-123776940D01*
X161430701Y-123771503D01*
X161436137Y-123776940D01*
G37*
G36*
X162451153Y-122681461D02*
G01*
X162466381Y-122682619D01*
X162473525Y-122687616D01*
X162479973Y-122706178D01*
X162478004Y-122717163D01*
X162466381Y-122731484D01*
X162462876Y-122732260D01*
X162440418Y-122733937D01*
X162402125Y-122735031D01*
X162352270Y-122735452D01*
X162295127Y-122735109D01*
X162267306Y-122734741D01*
X162213853Y-122733747D01*
X162177388Y-122732170D01*
X162154544Y-122729469D01*
X162141953Y-122725102D01*
X162136249Y-122718528D01*
X162134064Y-122709206D01*
X162133412Y-122703534D01*
X162134683Y-122695901D01*
X162141747Y-122690620D01*
X162157793Y-122687142D01*
X162186012Y-122684916D01*
X162229593Y-122683393D01*
X162291727Y-122682022D01*
X162317208Y-122681554D01*
X162372349Y-122680914D01*
X162418403Y-122680888D01*
X162451153Y-122681461D01*
G37*
G36*
X162144940Y-123166045D02*
G01*
X162149973Y-123169958D01*
X162138370Y-123172614D01*
X162127342Y-123171845D01*
X162124099Y-123166903D01*
X162127946Y-123164748D01*
X162144940Y-123166045D01*
G37*
G36*
X161403517Y-123858489D02*
G01*
X161402733Y-123864246D01*
X161396269Y-123865738D01*
X161394967Y-123864145D01*
X161396269Y-123851241D01*
X161399539Y-123849539D01*
X161403517Y-123858489D01*
G37*
G36*
X162045041Y-123168036D02*
G01*
X162039605Y-123173472D01*
X162034168Y-123168036D01*
X162039605Y-123162599D01*
X162045041Y-123168036D01*
G37*
G36*
X162188433Y-123166045D02*
G01*
X162193466Y-123169958D01*
X162181864Y-123172614D01*
X162170835Y-123171845D01*
X162167592Y-123166903D01*
X162171439Y-123164748D01*
X162188433Y-123166045D01*
G37*
G36*
X163150996Y-121315844D02*
G01*
X163202625Y-121317573D01*
X163250695Y-121320688D01*
X163290661Y-121324898D01*
X163317974Y-121329913D01*
X163328089Y-121335440D01*
X163325674Y-121337627D01*
X163306985Y-121343408D01*
X163273831Y-121350000D01*
X163231043Y-121356361D01*
X163223377Y-121357420D01*
X163172939Y-121366598D01*
X163110462Y-121380622D01*
X163043158Y-121397781D01*
X162978239Y-121416363D01*
X162913191Y-121435356D01*
X162840748Y-121453340D01*
X162782972Y-121463041D01*
X162736935Y-121464909D01*
X162699712Y-121459397D01*
X162681740Y-121450891D01*
X162681479Y-121438236D01*
X162701193Y-121421180D01*
X162741370Y-121399014D01*
X162785441Y-121379668D01*
X162870779Y-121351332D01*
X162963073Y-121329939D01*
X163053225Y-121317859D01*
X163055251Y-121317706D01*
X163100356Y-121315791D01*
X163150996Y-121315844D01*
G37*
G36*
X161897189Y-121665470D02*
G01*
X161917881Y-121690856D01*
X161924211Y-121715989D01*
X161910662Y-121736923D01*
X161907068Y-121739526D01*
X161890971Y-121741319D01*
X161868173Y-121727381D01*
X161852229Y-121716552D01*
X161815630Y-121705037D01*
X161783505Y-121713663D01*
X161758500Y-121742075D01*
X161757247Y-121744316D01*
X161733403Y-121774084D01*
X161704379Y-121796113D01*
X161684035Y-121804112D01*
X161637460Y-121808585D01*
X161592177Y-121797338D01*
X161554289Y-121772469D01*
X161529898Y-121736077D01*
X161517687Y-121703647D01*
X161447011Y-121711122D01*
X161411958Y-121715318D01*
X161384168Y-121719637D01*
X161371870Y-121722894D01*
X161373366Y-121730575D01*
X161385462Y-121747143D01*
X161397274Y-121762569D01*
X161401954Y-121783385D01*
X161386420Y-121796799D01*
X161366622Y-121798379D01*
X161336845Y-121783421D01*
X161306414Y-121750134D01*
X161301039Y-121742298D01*
X161286157Y-121710991D01*
X161289487Y-121687057D01*
X161311266Y-121666410D01*
X161321985Y-121661032D01*
X161339195Y-121656278D01*
X161364727Y-121652502D01*
X161401267Y-121649488D01*
X161451500Y-121647019D01*
X161518110Y-121644880D01*
X161603782Y-121642855D01*
X161868943Y-121637224D01*
X161897189Y-121665470D01*
G37*
G36*
X163189600Y-123779390D02*
G01*
X163188574Y-123797124D01*
X163185829Y-123806664D01*
X163181745Y-123813237D01*
X163177920Y-123799826D01*
X163177496Y-123797841D01*
X163172150Y-123786113D01*
X163163061Y-123794390D01*
X163162401Y-123795332D01*
X163155058Y-123804033D01*
X163156597Y-123794200D01*
X163160330Y-123786980D01*
X163177851Y-123776327D01*
X163189600Y-123779390D01*
G37*
G36*
X161741597Y-122396037D02*
G01*
X161762997Y-122402053D01*
X161771533Y-122423215D01*
X161776065Y-122442806D01*
X161785312Y-122462613D01*
X161793224Y-122468873D01*
X161824025Y-122480419D01*
X161872535Y-122490526D01*
X161936084Y-122499086D01*
X162012004Y-122505989D01*
X162097624Y-122511125D01*
X162190276Y-122514386D01*
X162287291Y-122515660D01*
X162385998Y-122514840D01*
X162483729Y-122511815D01*
X162577815Y-122506476D01*
X162665585Y-122498714D01*
X162722171Y-122491684D01*
X162771075Y-122482471D01*
X162803799Y-122471197D01*
X162823352Y-122456772D01*
X162832740Y-122438104D01*
X162832807Y-122437840D01*
X162843407Y-122417589D01*
X162863641Y-122414355D01*
X162873523Y-122416713D01*
X162884830Y-122428350D01*
X162887721Y-122454662D01*
X162887457Y-122462454D01*
X162881744Y-122486585D01*
X162866976Y-122506222D01*
X162841037Y-122522122D01*
X162801812Y-122535041D01*
X162747186Y-122545733D01*
X162675043Y-122554956D01*
X162583269Y-122563465D01*
X162553023Y-122565724D01*
X162449511Y-122570738D01*
X162337140Y-122572694D01*
X162220992Y-122571739D01*
X162106151Y-122568017D01*
X161997699Y-122561674D01*
X161900718Y-122552854D01*
X161820291Y-122541702D01*
X161772271Y-122529443D01*
X161734105Y-122507692D01*
X161713892Y-122476578D01*
X161710159Y-122434668D01*
X161713177Y-122413141D01*
X161721905Y-122399262D01*
X161740589Y-122396032D01*
X161741597Y-122396037D01*
G37*
G36*
X162066788Y-123200655D02*
G01*
X162061351Y-123206092D01*
X162055915Y-123200655D01*
X162061351Y-123195219D01*
X162066788Y-123200655D01*
G37*
G36*
X161990675Y-123168036D02*
G01*
X161985238Y-123173472D01*
X161979802Y-123168036D01*
X161985238Y-123162599D01*
X161990675Y-123168036D01*
G37*
G36*
X163186737Y-123749757D02*
G01*
X163185952Y-123755513D01*
X163179488Y-123757005D01*
X163178186Y-123755412D01*
X163179488Y-123742508D01*
X163182758Y-123740807D01*
X163186737Y-123749757D01*
G37*
G36*
X162599579Y-123168036D02*
G01*
X162594142Y-123173472D01*
X162588706Y-123168036D01*
X162594142Y-123162599D01*
X162599579Y-123168036D01*
G37*
%TO.C,J1*%
X140830000Y-97770000D02*
X140830000Y-130850000D01*
X140830000Y-97770000D02*
X138170000Y-97770000D01*
X140830000Y-130850000D02*
X138170000Y-130850000D01*
X140830000Y-95170000D02*
X139500000Y-95170000D01*
X138170000Y-97770000D02*
X138170000Y-130850000D01*
X140830000Y-96500000D02*
X140830000Y-95170000D01*
%TD*%
%LPC*%
D17*
%TO.C,J3*%
X158740000Y-129540000D03*
D18*
X156200000Y-129540000D03*
X153660000Y-129540000D03*
X151120000Y-129540000D03*
%TD*%
D19*
%TO.C,USB1*%
X152110000Y-101198000D03*
X157890000Y-101198000D03*
D20*
X159325000Y-101698000D03*
X150675000Y-101698000D03*
D21*
X159325000Y-97498000D03*
X150675000Y-97498000D03*
%TD*%
D17*
%TO.C,J2*%
X170400000Y-96500000D03*
D18*
X170400000Y-99040000D03*
X170400000Y-101580000D03*
X170400000Y-104120000D03*
X170400000Y-106660000D03*
X170400000Y-109200000D03*
X170400000Y-111740000D03*
X170400000Y-114280000D03*
X170400000Y-116820000D03*
X170400000Y-119360000D03*
X170400000Y-121900000D03*
X170400000Y-124440000D03*
X170400000Y-126980000D03*
X170400000Y-129520000D03*
%TD*%
D22*
%TO.C,U2*%
X158450000Y-110053500D03*
X158450000Y-111323500D03*
X158450000Y-112593500D03*
X158450000Y-113863500D03*
X151390000Y-113863500D03*
X151390000Y-112593500D03*
X151390000Y-111323500D03*
X151390000Y-110053500D03*
%TD*%
D23*
%TO.C,C3*%
X148130000Y-110050000D03*
X149090000Y-110050000D03*
%TD*%
D17*
%TO.C,J1*%
X139500000Y-96500000D03*
D18*
X139500000Y-99040000D03*
X139500000Y-101580000D03*
X139500000Y-104120000D03*
X139500000Y-106660000D03*
X139500000Y-109200000D03*
X139500000Y-111740000D03*
X139500000Y-114280000D03*
X139500000Y-116820000D03*
X139500000Y-119360000D03*
X139500000Y-121900000D03*
X139500000Y-124440000D03*
X139500000Y-126980000D03*
X139500000Y-129520000D03*
%TD*%
M02*
