%TF.GenerationSoftware,KiCad,Pcbnew,7.0.5*%
%TF.CreationDate,2023-07-04T16:10:45+08:00*%
%TF.ProjectId,UINIO-MCU-STM32L051K8,55494e49-4f2d-44d4-9355-2d53544d3332,Version 3.3.0*%
%TF.SameCoordinates,PXa305660PY5939cc0*%
%TF.FileFunction,Copper,L1,Top*%
%TF.FilePolarity,Positive*%
%FSLAX46Y46*%
G04 Gerber Fmt 4.6, Leading zero omitted, Abs format (unit mm)*
G04 Created by KiCad (PCBNEW 7.0.5) date 2023-07-04 16:10:45*
%MOMM*%
%LPD*%
G01*
G04 APERTURE LIST*
G04 Aperture macros list*
%AMRoundRect*
0 Rectangle with rounded corners*
0 $1 Rounding radius*
0 $2 $3 $4 $5 $6 $7 $8 $9 X,Y pos of 4 corners*
0 Add a 4 corners polygon primitive as box body*
4,1,4,$2,$3,$4,$5,$6,$7,$8,$9,$2,$3,0*
0 Add four circle primitives for the rounded corners*
1,1,$1+$1,$2,$3*
1,1,$1+$1,$4,$5*
1,1,$1+$1,$6,$7*
1,1,$1+$1,$8,$9*
0 Add four rect primitives between the rounded corners*
20,1,$1+$1,$2,$3,$4,$5,0*
20,1,$1+$1,$4,$5,$6,$7,0*
20,1,$1+$1,$6,$7,$8,$9,0*
20,1,$1+$1,$8,$9,$2,$3,0*%
%AMRotRect*
0 Rectangle, with rotation*
0 The origin of the aperture is its center*
0 $1 length*
0 $2 width*
0 $3 Rotation angle, in degrees counterclockwise*
0 Add horizontal line*
21,1,$1,$2,0,0,$3*%
G04 Aperture macros list end*
%TA.AperFunction,SMDPad,CuDef*%
%ADD10RoundRect,0.135000X-0.135000X-0.185000X0.135000X-0.185000X0.135000X0.185000X-0.135000X0.185000X0*%
%TD*%
%TA.AperFunction,SMDPad,CuDef*%
%ADD11RoundRect,0.140000X-0.140000X-0.170000X0.140000X-0.170000X0.140000X0.170000X-0.140000X0.170000X0*%
%TD*%
%TA.AperFunction,SMDPad,CuDef*%
%ADD12RoundRect,0.250000X-0.375000X-0.625000X0.375000X-0.625000X0.375000X0.625000X-0.375000X0.625000X0*%
%TD*%
%TA.AperFunction,ComponentPad*%
%ADD13C,1.200000*%
%TD*%
%TA.AperFunction,SMDPad,CuDef*%
%ADD14RoundRect,0.140000X0.140000X0.170000X-0.140000X0.170000X-0.140000X-0.170000X0.140000X-0.170000X0*%
%TD*%
%TA.AperFunction,SMDPad,CuDef*%
%ADD15RotRect,0.600000X0.300000X315.000000*%
%TD*%
%TA.AperFunction,SMDPad,CuDef*%
%ADD16RotRect,0.600000X0.300000X45.000000*%
%TD*%
%TA.AperFunction,SMDPad,CuDef*%
%ADD17RotRect,0.600000X0.300000X135.000000*%
%TD*%
%TA.AperFunction,SMDPad,CuDef*%
%ADD18RotRect,0.600000X0.300000X225.000000*%
%TD*%
%TA.AperFunction,SMDPad,CuDef*%
%ADD19RotRect,3.450000X3.450000X225.000000*%
%TD*%
%TA.AperFunction,SMDPad,CuDef*%
%ADD20RoundRect,0.135000X0.185000X-0.135000X0.185000X0.135000X-0.185000X0.135000X-0.185000X-0.135000X0*%
%TD*%
%TA.AperFunction,ComponentPad*%
%ADD21R,1.700000X1.700000*%
%TD*%
%TA.AperFunction,ComponentPad*%
%ADD22O,1.700000X1.700000*%
%TD*%
%TA.AperFunction,ComponentPad*%
%ADD23O,1.800000X1.000000*%
%TD*%
%TA.AperFunction,SMDPad,CuDef*%
%ADD24R,1.400000X0.700000*%
%TD*%
%TA.AperFunction,SMDPad,CuDef*%
%ADD25R,1.400000X0.800000*%
%TD*%
%TA.AperFunction,SMDPad,CuDef*%
%ADD26R,1.200000X0.650000*%
%TD*%
%TA.AperFunction,SMDPad,CuDef*%
%ADD27RoundRect,0.218750X0.218750X0.256250X-0.218750X0.256250X-0.218750X-0.256250X0.218750X-0.256250X0*%
%TD*%
%TA.AperFunction,SMDPad,CuDef*%
%ADD28RoundRect,0.140000X0.170000X-0.140000X0.170000X0.140000X-0.170000X0.140000X-0.170000X-0.140000X0*%
%TD*%
%TA.AperFunction,SMDPad,CuDef*%
%ADD29RoundRect,0.140000X-0.170000X0.140000X-0.170000X-0.140000X0.170000X-0.140000X0.170000X0.140000X0*%
%TD*%
%TA.AperFunction,SMDPad,CuDef*%
%ADD30R,1.800000X1.000000*%
%TD*%
%TA.AperFunction,SMDPad,CuDef*%
%ADD31R,1.000000X0.600000*%
%TD*%
%TA.AperFunction,ViaPad*%
%ADD32C,0.500000*%
%TD*%
%TA.AperFunction,ViaPad*%
%ADD33C,0.700000*%
%TD*%
%TA.AperFunction,ViaPad*%
%ADD34C,0.900000*%
%TD*%
%TA.AperFunction,Conductor*%
%ADD35C,0.300000*%
%TD*%
%TA.AperFunction,Conductor*%
%ADD36C,0.200000*%
%TD*%
%TA.AperFunction,Conductor*%
%ADD37C,0.500000*%
%TD*%
%TA.AperFunction,Conductor*%
%ADD38C,0.150000*%
%TD*%
G04 APERTURE END LIST*
D10*
%TO.P,R3,1*%
%TO.N,/VDD_3.3V*%
X-32330000Y-9180000D03*
%TO.P,R3,2*%
%TO.N,/NRST*%
X-31310000Y-9180000D03*
%TD*%
D11*
%TO.P,C5,1*%
%TO.N,GND*%
X-25110000Y-11300000D03*
%TO.P,C5,2*%
%TO.N,/BOOT0*%
X-24150000Y-11300000D03*
%TD*%
D12*
%TO.P,F1,1*%
%TO.N,Net-(F1-Pad1)*%
X-40160000Y-3550000D03*
%TO.P,F1,2*%
%TO.N,/VDD_5V*%
X-37360000Y-3550000D03*
%TD*%
D13*
%TO.P,Hole3,*%
%TO.N,*%
X-43420000Y-2300000D03*
%TD*%
D14*
%TO.P,C4,1*%
%TO.N,/VDD_3.3V*%
X-11640000Y-14770000D03*
%TO.P,C4,2*%
%TO.N,GND*%
X-12600000Y-14770000D03*
%TD*%
D15*
%TO.P,U3,1,VDD*%
%TO.N,/VDD_3.3V*%
X-12675761Y-7173788D03*
%TO.P,U3,2,PC14-OSC_IN*%
%TO.N,Net-(U3-PC14-OSC_IN)*%
X-13029315Y-7527341D03*
%TO.P,U3,3,PC15-OSC_OUT*%
%TO.N,Net-(U3-PC15-OSC_OUT)*%
X-13382868Y-7880895D03*
%TO.P,U3,4,NRST*%
%TO.N,/NRST*%
X-13736422Y-8234448D03*
%TO.P,U3,5,VDDA*%
%TO.N,/VDD_3.3V*%
X-14089975Y-8588001D03*
%TO.P,U3,6,PA0*%
%TO.N,/PA0*%
X-14443528Y-8941555D03*
%TO.P,U3,7,PA1*%
%TO.N,/PA1*%
X-14797082Y-9295108D03*
%TO.P,U3,8,PA2*%
%TO.N,/PA2*%
X-15150635Y-9648662D03*
D16*
%TO.P,U3,9,PA3*%
%TO.N,/PA3*%
X-15150635Y-10765890D03*
%TO.P,U3,10,PA4*%
%TO.N,/PA4{slash}CS*%
X-14797082Y-11119444D03*
%TO.P,U3,11,PA5*%
%TO.N,/PA5{slash}SCLK*%
X-14443528Y-11472997D03*
%TO.P,U3,12,PA6*%
%TO.N,/PA6{slash}MISO*%
X-14089975Y-11826551D03*
%TO.P,U3,13,PA7*%
%TO.N,/PA7{slash}MOSI*%
X-13736422Y-12180104D03*
%TO.P,U3,14,PB0*%
%TO.N,/PB0*%
X-13382868Y-12533657D03*
%TO.P,U3,15,PB1*%
%TO.N,/PB1*%
X-13029315Y-12887211D03*
%TO.P,U3,16,PB2*%
%TO.N,/PB2*%
X-12675761Y-13240764D03*
D17*
%TO.P,U3,17,VDD*%
%TO.N,/VDD_3.3V*%
X-11558533Y-13240764D03*
%TO.P,U3,18,PA8*%
%TO.N,/PA8*%
X-11204979Y-12887211D03*
%TO.P,U3,19,PA9*%
%TO.N,/PA9*%
X-10851426Y-12533657D03*
%TO.P,U3,20,PA10*%
%TO.N,/PA10*%
X-10497872Y-12180104D03*
%TO.P,U3,21,PA11*%
%TO.N,/PA11*%
X-10144319Y-11826551D03*
%TO.P,U3,22,PA12*%
%TO.N,/PA12*%
X-9790766Y-11472997D03*
%TO.P,U3,23,PA13*%
%TO.N,/PA13{slash}SWDIO*%
X-9437212Y-11119444D03*
%TO.P,U3,24,PA14*%
%TO.N,/PA14{slash}SWCLK*%
X-9083659Y-10765890D03*
D18*
%TO.P,U3,25,PA15*%
%TO.N,/PA15*%
X-9083659Y-9648662D03*
%TO.P,U3,26,PB3*%
%TO.N,/PB3*%
X-9437212Y-9295108D03*
%TO.P,U3,27,PB4*%
%TO.N,/PB4*%
X-9790766Y-8941555D03*
%TO.P,U3,28,PB5*%
%TO.N,/PB5*%
X-10144319Y-8588001D03*
%TO.P,U3,29,PB6*%
%TO.N,/PB6*%
X-10497872Y-8234448D03*
%TO.P,U3,30,PB7*%
%TO.N,/PB7*%
X-10851426Y-7880895D03*
%TO.P,U3,31,BOOT0*%
%TO.N,/BOOT0*%
X-11204979Y-7527341D03*
%TO.P,U3,32,PB8*%
%TO.N,/PB8*%
X-11558533Y-7173788D03*
D19*
%TO.P,U3,33,PAD*%
%TO.N,GND*%
X-12117147Y-10207276D03*
%TD*%
D20*
%TO.P,R1,1*%
%TO.N,Net-(D1-A)*%
X-40560000Y-1830000D03*
%TO.P,R1,2*%
%TO.N,/VDD_3.3V*%
X-40560000Y-810000D03*
%TD*%
D13*
%TO.P,Hole1,*%
%TO.N,*%
X1090000Y-17980000D03*
%TD*%
D21*
%TO.P,J3,1,Pin_1*%
%TO.N,/VDD_3.3V*%
X1550000Y-13950000D03*
D22*
%TO.P,J3,2,Pin_2*%
%TO.N,/PA13{slash}SWDIO*%
X1550000Y-11410000D03*
%TO.P,J3,3,Pin_3*%
%TO.N,/PA14{slash}SWCLK*%
X1550000Y-8870000D03*
%TO.P,J3,4,Pin_4*%
%TO.N,GND*%
X1550000Y-6330000D03*
%TD*%
D11*
%TO.P,C8,1*%
%TO.N,GND*%
X-18000000Y-10910000D03*
%TO.P,C8,2*%
%TO.N,/VDD_3.3V*%
X-17040000Y-10910000D03*
%TD*%
D14*
%TO.P,C7,1*%
%TO.N,GND*%
X-11650000Y-5530000D03*
%TO.P,C7,2*%
%TO.N,/VDD_3.3V*%
X-12610000Y-5530000D03*
%TD*%
D23*
%TO.P,USB1,1,GND*%
%TO.N,GND*%
X-39620000Y-5830000D03*
%TO.P,USB1,2,GND*%
X-39620000Y-14470000D03*
%TO.P,USB1,3,GND*%
X-43420000Y-5830000D03*
%TO.P,USB1,4,GND*%
X-43420000Y-14470000D03*
D24*
%TO.P,USB1,A5,CC1*%
%TO.N,unconnected-(USB1-CC1-PadA5)*%
X-38620000Y-9650000D03*
%TO.P,USB1,A9,VBUS*%
%TO.N,Net-(F1-Pad1)*%
X-38620000Y-11670000D03*
D25*
%TO.P,USB1,A12,GND*%
%TO.N,GND*%
X-38620000Y-12900000D03*
D24*
%TO.P,USB1,B5,CC2*%
%TO.N,unconnected-(USB1-CC2-PadB5)*%
X-38620000Y-10650000D03*
%TO.P,USB1,B9,VBUS*%
%TO.N,Net-(F1-Pad1)*%
X-38620000Y-8630000D03*
D25*
%TO.P,USB1,B12,GND*%
%TO.N,GND*%
X-38620000Y-7400000D03*
%TD*%
D14*
%TO.P,C9,1*%
%TO.N,/NRST*%
X-24140000Y-9170000D03*
%TO.P,C9,2*%
%TO.N,GND*%
X-25100000Y-9170000D03*
%TD*%
D13*
%TO.P,Hole2,*%
%TO.N,*%
X1090000Y-2300000D03*
%TD*%
D26*
%TO.P,SW2,1,1*%
%TO.N,GND*%
X-30340000Y-5755000D03*
%TO.P,SW2,2,2*%
X-26040000Y-5755000D03*
%TO.P,SW2,3,3*%
%TO.N,/NRST*%
X-30340000Y-7905000D03*
%TO.P,SW2,4,4*%
X-26040000Y-7905000D03*
%TD*%
D10*
%TO.P,R2,1*%
%TO.N,GND*%
X-32340000Y-11260000D03*
%TO.P,R2,2*%
%TO.N,/BOOT0*%
X-31320000Y-11260000D03*
%TD*%
D27*
%TO.P,D1,1,K*%
%TO.N,GND*%
X-37817500Y-1300000D03*
%TO.P,D1,2,A*%
%TO.N,Net-(D1-A)*%
X-39392500Y-1300000D03*
%TD*%
D28*
%TO.P,C2,1,1*%
%TO.N,GND*%
X-36660000Y-18040000D03*
%TO.P,C2,2,2*%
%TO.N,/VDD_3.3V*%
X-36660000Y-17080000D03*
%TD*%
D11*
%TO.P,C6,1*%
%TO.N,GND*%
X-18000000Y-9560000D03*
%TO.P,C6,2*%
%TO.N,/VDD_3.3V*%
X-17040000Y-9560000D03*
%TD*%
D28*
%TO.P,C11,1*%
%TO.N,GND*%
X-19490000Y-8240000D03*
%TO.P,C11,2*%
%TO.N,Net-(U3-PC15-OSC_OUT)*%
X-19490000Y-7280000D03*
%TD*%
D29*
%TO.P,C10,1*%
%TO.N,GND*%
X-19490000Y-5400000D03*
%TO.P,C10,2*%
%TO.N,Net-(U3-PC14-OSC_IN)*%
X-19490000Y-6360000D03*
%TD*%
D28*
%TO.P,C1,1,1*%
%TO.N,GND*%
X-41450000Y-18040000D03*
%TO.P,C1,2,2*%
%TO.N,/VDD_5V*%
X-41450000Y-17080000D03*
%TD*%
D13*
%TO.P,Hole4,*%
%TO.N,*%
X-43420000Y-17980000D03*
%TD*%
D30*
%TO.P,Y1,1,1*%
%TO.N,Net-(U3-PC15-OSC_OUT)*%
X-17500000Y-8050000D03*
%TO.P,Y1,2,GND*%
%TO.N,Net-(U3-PC14-OSC_IN)*%
X-17500000Y-5550000D03*
%TD*%
D26*
%TO.P,SW1,1,1*%
%TO.N,/VDD_3.3V*%
X-30340000Y-12515000D03*
%TO.P,SW1,2,2*%
X-26040000Y-12515000D03*
%TO.P,SW1,3,3*%
%TO.N,/BOOT0*%
X-30340000Y-14665000D03*
%TO.P,SW1,4,4*%
X-26040000Y-14665000D03*
%TD*%
D31*
%TO.P,U1,1,Vin*%
%TO.N,/VDD_5V*%
X-40360000Y-17090000D03*
%TO.P,U1,2,Vss*%
%TO.N,GND*%
X-40360000Y-18040000D03*
%TO.P,U1,3,CE*%
%TO.N,/VDD_5V*%
X-40360000Y-18990000D03*
%TO.P,U1,4,NC*%
%TO.N,unconnected-(U1-NC-Pad4)*%
X-37760000Y-18990000D03*
%TO.P,U1,5,Vout*%
%TO.N,/VDD_3.3V*%
X-37760000Y-17090000D03*
%TD*%
D22*
%TO.P,J2,14,Pin_14*%
%TO.N,/PB0*%
X-1330000Y-1340000D03*
%TO.P,J2,13,Pin_13*%
%TO.N,/PB1*%
X-3870000Y-1340000D03*
%TO.P,J2,12,Pin_12*%
%TO.N,/PB2*%
X-6410000Y-1340000D03*
%TO.P,J2,11,Pin_11*%
%TO.N,/PB3*%
X-8950000Y-1340000D03*
%TO.P,J2,10,Pin_10*%
%TO.N,/PB4*%
X-11490000Y-1340000D03*
%TO.P,J2,9,Pin_9*%
%TO.N,/PB5*%
X-14030000Y-1340000D03*
%TO.P,J2,8,Pin_8*%
%TO.N,/PB6*%
X-16570000Y-1340000D03*
%TO.P,J2,7,Pin_7*%
%TO.N,/PB7*%
X-19110000Y-1340000D03*
%TO.P,J2,6,Pin_6*%
%TO.N,/PB8*%
X-21650000Y-1340000D03*
%TO.P,J2,5,Pin_5*%
%TO.N,/NRST*%
X-24190000Y-1340000D03*
%TO.P,J2,4,Pin_4*%
%TO.N,GND*%
X-26730000Y-1340000D03*
%TO.P,J2,3,Pin_3*%
%TO.N,/VDD_3.3V*%
X-29270000Y-1340000D03*
%TO.P,J2,2,Pin_2*%
%TO.N,GND*%
X-31810000Y-1340000D03*
D21*
%TO.P,J2,1,Pin_1*%
%TO.N,/VDD_5V*%
X-34350000Y-1340000D03*
%TD*%
%TO.P,J1,1,Pin_1*%
%TO.N,/PA0*%
X-34350000Y-18960000D03*
D22*
%TO.P,J1,2,Pin_2*%
%TO.N,/PA1*%
X-31810000Y-18960000D03*
%TO.P,J1,3,Pin_3*%
%TO.N,/PA2*%
X-29270000Y-18960000D03*
%TO.P,J1,4,Pin_4*%
%TO.N,/PA3*%
X-26730000Y-18960000D03*
%TO.P,J1,5,Pin_5*%
%TO.N,/PA4{slash}CS*%
X-24190000Y-18960000D03*
%TO.P,J1,6,Pin_6*%
%TO.N,/PA5{slash}SCLK*%
X-21650000Y-18960000D03*
%TO.P,J1,7,Pin_7*%
%TO.N,/PA6{slash}MISO*%
X-19110000Y-18960000D03*
%TO.P,J1,8,Pin_8*%
%TO.N,/PA7{slash}MOSI*%
X-16570000Y-18960000D03*
%TO.P,J1,9,Pin_9*%
%TO.N,/PA8*%
X-14030000Y-18960000D03*
%TO.P,J1,10,Pin_10*%
%TO.N,/PA9*%
X-11490000Y-18960000D03*
%TO.P,J1,11,Pin_11*%
%TO.N,/PA10*%
X-8950000Y-18960000D03*
%TO.P,J1,12,Pin_12*%
%TO.N,/PA11*%
X-6410000Y-18960000D03*
%TO.P,J1,13,Pin_13*%
%TO.N,/PA12*%
X-3870000Y-18960000D03*
%TO.P,J1,14,Pin_14*%
%TO.N,/PA15*%
X-1330000Y-18960000D03*
%TD*%
D32*
%TO.N,GND*%
X-28910000Y-16920000D03*
X-30970000Y-16920000D03*
D33*
X-35250000Y-17090000D03*
X-14910000Y-16080000D03*
D32*
X-5590000Y-16460000D03*
X-32500000Y-13740000D03*
X-3430000Y-10020000D03*
X80000Y-16460000D03*
D34*
X-8190000Y-6310000D03*
X-30290000Y-10240000D03*
D32*
X-15765837Y-7570500D03*
X-9820000Y-16460000D03*
D33*
X-18000000Y-12090000D03*
D32*
X-33350000Y-3490000D03*
X-2400000Y-16460000D03*
X-7780000Y-16460000D03*
X-27990000Y-11320000D03*
D33*
X-31880000Y-8050000D03*
D34*
X-36180000Y-1300000D03*
D32*
X-12600000Y-10750000D03*
X-10170000Y-3370000D03*
X-12180000Y-10310000D03*
X-11290000Y-9420000D03*
X-11700000Y-9880000D03*
D34*
X-13330000Y-3990000D03*
D32*
X-13730000Y-5730000D03*
X-13050000Y-11180000D03*
D34*
X-8186398Y-3983602D03*
D32*
X-9830000Y-14660000D03*
D33*
%TO.N,/VDD_3.3V*%
X-36157000Y-16073000D03*
D32*
X-19690000Y-15380000D03*
D33*
X-22990000Y-4820500D03*
D34*
X-33572000Y-12510000D03*
D33*
X-12320000Y-16070000D03*
X-25270000Y-4840000D03*
X-41620000Y-820000D03*
D32*
%TO.N,/BOOT0*%
X-10717147Y-6640000D03*
X-31320000Y-11930000D03*
X-31320000Y-14670000D03*
X-24150000Y-14660000D03*
%TO.N,/NRST*%
X-14940000Y-7570500D03*
X-24140000Y-5530000D03*
%TO.N,/PA4{slash}CS*%
X-21710000Y-12400000D03*
X-19680000Y-14430000D03*
X-15889500Y-14430023D03*
%TO.N,/PA6{slash}MISO*%
X-21020500Y-17600000D03*
X-22930000Y-17600000D03*
%TO.N,/PA15*%
X-4260000Y-14790000D03*
X-1320000Y-14790000D03*
X-4280000Y-7420000D03*
%TO.N,/PB0*%
X-13870000Y-13340000D03*
%TO.N,/PB1*%
X-13870000Y-14100000D03*
%TO.N,/PB2*%
X-13880000Y-14850000D03*
%TD*%
D35*
%TO.N,GND*%
X-35250000Y-17090000D02*
X-36190000Y-18030000D01*
X-36190000Y-18030000D02*
X-36730000Y-18030000D01*
D36*
%TO.N,/PA6{slash}MISO*%
X-21020500Y-17600000D02*
X-22930000Y-17600000D01*
D37*
%TO.N,Net-(F1-Pad1)*%
X-36990000Y-6220000D02*
X-39660000Y-3550000D01*
X-39660000Y-3550000D02*
X-40160000Y-3550000D01*
X-37580000Y-11710000D02*
X-36990000Y-11120000D01*
X-38620000Y-11710000D02*
X-37580000Y-11710000D01*
X-36990000Y-11120000D02*
X-36990000Y-6220000D01*
%TO.N,/VDD_5V*%
X-38730000Y-15920000D02*
X-35980000Y-13170000D01*
X-39900000Y-15920000D02*
X-38730000Y-15920000D01*
X-40360000Y-16380000D02*
X-39900000Y-15920000D01*
X-35980000Y-3550000D02*
X-37260000Y-3550000D01*
X-40360000Y-17090000D02*
X-40360000Y-16380000D01*
X-35980000Y-13170000D02*
X-35980000Y-3550000D01*
X-34350000Y-2720000D02*
X-34350000Y-1340000D01*
X-35150000Y-3520000D02*
X-34350000Y-2720000D01*
X-37280000Y-3520000D02*
X-35150000Y-3520000D01*
D35*
%TO.N,/VDD_3.3V*%
X-33572000Y-5582000D02*
X-32580000Y-4590000D01*
X-33572000Y-9056000D02*
X-33572000Y-5582000D01*
X-32790000Y-4800000D02*
X-29330000Y-1340000D01*
X-25300000Y-4810000D02*
X-32790000Y-4810000D01*
X-32790000Y-4810000D02*
X-32790000Y-4800000D01*
D36*
%TO.N,/NRST*%
X-24140000Y-5530000D02*
X-24140000Y-1390000D01*
%TO.N,/PB8*%
X-13140000Y-3240000D02*
X-11167147Y-5212853D01*
X-19750000Y-3240000D02*
X-13140000Y-3240000D01*
X-11167147Y-5212853D02*
X-11167147Y-6782402D01*
X-21650000Y-1340000D02*
X-19750000Y-3240000D01*
X-11167147Y-6782402D02*
X-11558533Y-7173788D01*
%TO.N,/PB7*%
X-10267647Y-5688089D02*
X-10267647Y-7297116D01*
X-13015736Y-2940000D02*
X-10267647Y-5688089D01*
X-19110000Y-1340000D02*
X-17510000Y-2940000D01*
X-17510000Y-2940000D02*
X-13015736Y-2940000D01*
X-10267647Y-7297116D02*
X-10851426Y-7880895D01*
%TO.N,/PB6*%
X-9910000Y-5621472D02*
X-9910000Y-7646576D01*
X-9910000Y-7646576D02*
X-10497872Y-8234448D01*
X-12891472Y-2640000D02*
X-9910000Y-5621472D01*
X-15270000Y-2640000D02*
X-12891472Y-2640000D01*
X-16570000Y-1340000D02*
X-15270000Y-2640000D01*
%TO.N,/PB5*%
X-9570000Y-5537208D02*
X-13767208Y-1340000D01*
%TO.N,/PB4*%
X-9270000Y-5412944D02*
X-9270000Y-8420789D01*
X-11490000Y-3192944D02*
X-9270000Y-5412944D01*
X-11490000Y-1340000D02*
X-11490000Y-3192944D01*
X-9270000Y-8420789D02*
X-9790766Y-8941555D01*
%TO.N,/PB3*%
X-8950000Y-8807896D02*
X-9437212Y-9295108D01*
X-8950000Y-1340000D02*
X-8950000Y-8807896D01*
%TO.N,/PA11*%
X-6410000Y-15560870D02*
X-6410000Y-18960000D01*
X-10144319Y-11826551D02*
X-6410000Y-15560870D01*
%TO.N,/PA12*%
X-3870000Y-17393763D02*
X-3870000Y-18960000D01*
%TO.N,/PA6{slash}MISO*%
X-14620000Y-14240000D02*
X-19110000Y-18730000D01*
%TO.N,/PA10*%
X-8970000Y-19020000D02*
X-8970000Y-13707976D01*
X-8970000Y-13707976D02*
X-10497872Y-12180104D01*
%TO.N,/PA9*%
X-10440000Y-12945083D02*
X-10851426Y-12533657D01*
X-10440000Y-17910000D02*
X-10440000Y-12945083D01*
X-11490000Y-18960000D02*
X-10440000Y-17910000D01*
%TO.N,/PA8*%
X-10990000Y-15920000D02*
X-10990000Y-13102190D01*
X-14030000Y-18960000D02*
X-10990000Y-15920000D01*
X-10990000Y-13102190D02*
X-11204979Y-12887211D01*
%TO.N,/PA7{slash}MOSI*%
X-16570000Y-16614264D02*
X-16570000Y-18960000D01*
X-14320000Y-12763682D02*
X-14320000Y-14364264D01*
X-13736422Y-12180104D02*
X-14320000Y-12763682D01*
X-14320000Y-14364264D02*
X-16570000Y-16614264D01*
%TO.N,/PA4{slash}CS*%
X-24190000Y-17760000D02*
X-24190000Y-18960000D01*
%TO.N,/PA3*%
X-15520000Y-13320000D02*
X-19050000Y-16850000D01*
X-19050000Y-16850000D02*
X-24620000Y-16850000D01*
X-24620000Y-16850000D02*
X-26730000Y-18960000D01*
X-15150635Y-10765890D02*
X-15520000Y-11135255D01*
X-15520000Y-11135255D02*
X-15520000Y-13320000D01*
%TO.N,/PA2*%
X-26860000Y-16550000D02*
X-29270000Y-18960000D01*
X-19174264Y-16550000D02*
X-26860000Y-16550000D01*
X-15820000Y-10318027D02*
X-15820000Y-13195736D01*
X-15820000Y-13195736D02*
X-19174264Y-16550000D01*
X-15150635Y-9648662D02*
X-15820000Y-10318027D01*
%TO.N,/PA1*%
X-19298528Y-16250000D02*
X-29100000Y-16250000D01*
X-16120000Y-13071472D02*
X-19298528Y-16250000D01*
X-15240000Y-9000000D02*
X-16120000Y-9880000D01*
X-15092190Y-9000000D02*
X-15240000Y-9000000D01*
X-14797082Y-9295108D02*
X-15092190Y-9000000D01*
X-16120000Y-9880000D02*
X-16120000Y-13071472D01*
X-29100000Y-16250000D02*
X-31810000Y-18960000D01*
%TO.N,/PA0*%
X-14805083Y-8580000D02*
X-14443528Y-8941555D01*
X-15244264Y-8580000D02*
X-14805083Y-8580000D01*
X-16420000Y-9755736D02*
X-15244264Y-8580000D01*
X-16420000Y-12947208D02*
X-16420000Y-9755736D01*
X-19422792Y-15950000D02*
X-16420000Y-12947208D01*
X-31340000Y-15950000D02*
X-19422792Y-15950000D01*
X-34350000Y-18960000D02*
X-31340000Y-15950000D01*
%TO.N,/PA5{slash}SCLK*%
X-20315000Y-17710000D02*
X-21565000Y-18960000D01*
D35*
%TO.N,GND*%
X-30290000Y-10240000D02*
X-25190000Y-10240000D01*
D36*
X-18870000Y-8860000D02*
X-19490000Y-8240000D01*
D35*
X-41440000Y-19380000D02*
X-41440000Y-18050000D01*
X-32340000Y-10720000D02*
X-31860000Y-10240000D01*
X-19490000Y-10230000D02*
X-20760000Y-10230000D01*
D37*
X-38620000Y-6840000D02*
X-38620000Y-7440000D01*
D35*
X-20770000Y-10240000D02*
X-25190000Y-10240000D01*
X-13250000Y-16080000D02*
X-12600000Y-15430000D01*
D37*
X-43420000Y-14510000D02*
X-43420000Y-5870000D01*
D36*
X-15765837Y-8045837D02*
X-16580000Y-8860000D01*
D37*
X-39590000Y-5870000D02*
X-38620000Y-6840000D01*
D36*
X-15765837Y-7570500D02*
X-15765837Y-8045837D01*
D35*
X-14910000Y-16080000D02*
X-13250000Y-16080000D01*
D37*
X-38620000Y-13460000D02*
X-39620000Y-14460000D01*
D35*
X-25110000Y-10220000D02*
X-25110000Y-11300000D01*
D37*
X-41310000Y-5810000D02*
X-38810000Y-5810000D01*
D35*
X-18000000Y-10910000D02*
X-18680000Y-10230000D01*
X-13330000Y-3990000D02*
X-13181459Y-3990000D01*
D37*
X-31890000Y-8040000D02*
X-31890000Y-6230000D01*
D35*
X-25190000Y-10240000D02*
X-25140000Y-10190000D01*
D37*
X-36180000Y-1300000D02*
X-37817500Y-1300000D01*
D35*
X-25140000Y-10190000D02*
X-25110000Y-10160000D01*
D37*
X-39620000Y-14510000D02*
X-43420000Y-14510000D01*
X-30340000Y-5755000D02*
X-26040000Y-5755000D01*
D35*
X-41450000Y-18040000D02*
X-40360000Y-18040000D01*
D37*
X-31880000Y-8050000D02*
X-31890000Y-8040000D01*
D35*
X-36660000Y-18040000D02*
X-36660000Y-19390000D01*
X-19490000Y-8240000D02*
X-20350000Y-8240000D01*
X-18000000Y-10910000D02*
X-18000000Y-9560000D01*
X-40950000Y-19870000D02*
X-41440000Y-19380000D01*
X-8190000Y-3987204D02*
X-8186398Y-3983602D01*
X-8170000Y-6330000D02*
X1550000Y-6330000D01*
X-18680000Y-10230000D02*
X-20760000Y-10230000D01*
D37*
X-42570000Y-5810000D02*
X-41310000Y-5810000D01*
D35*
X-20650000Y-5750000D02*
X-20310000Y-5410000D01*
X-36660000Y-19390000D02*
X-37140000Y-19870000D01*
X-25140000Y-10190000D02*
X-25110000Y-10220000D01*
D37*
X-31415000Y-5755000D02*
X-30340000Y-5755000D01*
D35*
X-19490000Y-8240000D02*
X-19490000Y-10230000D01*
D37*
X-31890000Y-6230000D02*
X-31415000Y-5755000D01*
D35*
X-25110000Y-10160000D02*
X-25110000Y-9180000D01*
X-8190000Y-6310000D02*
X-8190000Y-3987204D01*
D36*
X-16580000Y-8860000D02*
X-18870000Y-8860000D01*
D35*
X-31860000Y-10240000D02*
X-30290000Y-10240000D01*
X-20310000Y-5410000D02*
X-19500000Y-5410000D01*
X-18000000Y-12090000D02*
X-18000000Y-10910000D01*
D37*
X-38620000Y-12940000D02*
X-38620000Y-13460000D01*
D35*
X-32340000Y-11260000D02*
X-32340000Y-10720000D01*
X-13181459Y-3990000D02*
X-11650000Y-5521459D01*
X-8190000Y-6310000D02*
X-8170000Y-6330000D01*
X-20650000Y-7940000D02*
X-20650000Y-5750000D01*
X-20350000Y-8240000D02*
X-20650000Y-7940000D01*
X-12600000Y-15430000D02*
X-12600000Y-14770000D01*
X-37140000Y-19870000D02*
X-40950000Y-19870000D01*
X-20760000Y-10230000D02*
X-20770000Y-10240000D01*
D37*
%TO.N,/VDD_5V*%
X-40366000Y-17084000D02*
X-41676000Y-17084000D01*
X-40360000Y-18990000D02*
X-39358000Y-18990000D01*
X-39040000Y-17460000D02*
X-39410000Y-17090000D01*
X-39358000Y-18990000D02*
X-39040000Y-18672000D01*
X-39040000Y-18672000D02*
X-39040000Y-17460000D01*
X-39410000Y-17090000D02*
X-40360000Y-17090000D01*
D35*
%TO.N,/VDD_3.3V*%
X-15395026Y-8180000D02*
X-14497976Y-8180000D01*
D36*
X-33448000Y-9180000D02*
X-33572000Y-9056000D01*
D35*
X-37754000Y-17084000D02*
X-36754000Y-17084000D01*
X-12320000Y-16070000D02*
X-11640000Y-15390000D01*
D36*
X-32330000Y-9180000D02*
X-33448000Y-9180000D01*
D38*
X-33572000Y-12510000D02*
X-33567000Y-12515000D01*
X-35350000Y-15380000D02*
X-35407000Y-15323000D01*
D35*
X-36660000Y-17080000D02*
X-36660000Y-16576000D01*
X-11640000Y-15390000D02*
X-11640000Y-14770000D01*
X-17040000Y-9560000D02*
X-16775026Y-9560000D01*
X-35662000Y-15578000D02*
X-35407000Y-15323000D01*
X-12610000Y-7108027D02*
X-12675761Y-7173788D01*
D38*
X-35534000Y-15450000D02*
X-35662000Y-15578000D01*
D35*
X-12610000Y-5530000D02*
X-12610000Y-7108027D01*
X-22959500Y-4790000D02*
X-13341459Y-4790000D01*
X-40560000Y-810000D02*
X-41610000Y-810000D01*
X-12675761Y-7215181D02*
X-12600000Y-7139420D01*
X-41610000Y-810000D02*
X-41620000Y-820000D01*
X-33572000Y-12510000D02*
X-33572000Y-9056000D01*
X-33567000Y-12515000D02*
X-30340000Y-12515000D01*
X-14497976Y-8180000D02*
X-14089975Y-8588001D01*
X-33572000Y-12510000D02*
X-33572000Y-13488000D01*
D38*
X-19690000Y-15380000D02*
X-19670000Y-15380000D01*
D35*
X-36660000Y-16576000D02*
X-35662000Y-15578000D01*
X-13341459Y-4790000D02*
X-12610000Y-5521459D01*
X-26040000Y-12515000D02*
X-30340000Y-12515000D01*
D38*
X-25270000Y-4840000D02*
X-25300000Y-4810000D01*
D35*
X-11640000Y-14770000D02*
X-11640000Y-13322231D01*
X-17040000Y-10910000D02*
X-17040000Y-9560000D01*
X-17040000Y-12750000D02*
X-17040000Y-10910000D01*
X-16775026Y-9560000D02*
X-15395026Y-8180000D01*
X-19690000Y-15380000D02*
X-35350000Y-15380000D01*
X-19670000Y-15380000D02*
X-17040000Y-12750000D01*
D38*
X-22990000Y-4820500D02*
X-22959500Y-4790000D01*
D35*
X-33572000Y-13488000D02*
X-35407000Y-15323000D01*
X-11640000Y-13322231D02*
X-11558533Y-13240764D01*
%TO.N,/BOOT0*%
X-24150000Y-14660000D02*
X-24150000Y-11300000D01*
D36*
X-10717147Y-7039509D02*
X-11204979Y-7527341D01*
X-31320000Y-11930000D02*
X-31320000Y-11260000D01*
X-31315000Y-14665000D02*
X-31320000Y-14670000D01*
X-24150000Y-14660000D02*
X-24155000Y-14665000D01*
X-10717147Y-6640000D02*
X-10717147Y-7039509D01*
X-30340000Y-14665000D02*
X-31315000Y-14665000D01*
X-26040000Y-14665000D02*
X-30340000Y-14665000D01*
X-24155000Y-14665000D02*
X-26040000Y-14665000D01*
D35*
%TO.N,/NRST*%
X-30340000Y-7905000D02*
X-30340000Y-8210000D01*
X-26040000Y-7905000D02*
X-30340000Y-7905000D01*
D36*
X-24140000Y-9170000D02*
X-24140000Y-7860000D01*
X-24185000Y-7905000D02*
X-26040000Y-7905000D01*
D35*
X-30340000Y-8210000D02*
X-31310000Y-9180000D01*
D36*
X-14399500Y-7570500D02*
X-13736422Y-8233578D01*
X-14940000Y-7570500D02*
X-14399500Y-7570500D01*
X-24140000Y-7860000D02*
X-24140000Y-5530000D01*
D35*
%TO.N,Net-(U3-PC14-OSC_IN)*%
X-17500000Y-5550000D02*
X-18680000Y-5550000D01*
X-18680000Y-5550000D02*
X-19490000Y-6360000D01*
X-14026656Y-6530000D02*
X-13029315Y-7527341D01*
X-16520000Y-6530000D02*
X-14026656Y-6530000D01*
X-17500000Y-5550000D02*
X-16520000Y-6530000D01*
%TO.N,Net-(U3-PC15-OSC_OUT)*%
X-17500000Y-8050000D02*
X-16460000Y-7010000D01*
X-16460000Y-7010000D02*
X-14253763Y-7010000D01*
X-17500000Y-8050000D02*
X-18720000Y-8050000D01*
X-14253763Y-7010000D02*
X-13382868Y-7880895D01*
X-18720000Y-8050000D02*
X-19490000Y-7280000D01*
D36*
%TO.N,/PA4{slash}CS*%
X-15889500Y-14430023D02*
X-15220000Y-13760523D01*
X-15920023Y-14430023D02*
X-18640000Y-17150000D01*
X-15889500Y-14430023D02*
X-15920023Y-14430023D01*
X-15220000Y-13760523D02*
X-15220000Y-11542362D01*
X-21710000Y-12400000D02*
X-19680000Y-14430000D01*
X-23580000Y-17150000D02*
X-24190000Y-17760000D01*
X-15220000Y-11542362D02*
X-14797082Y-11119444D01*
X-18640000Y-17150000D02*
X-23580000Y-17150000D01*
%TO.N,/PA5{slash}SCLK*%
X-20315000Y-17710000D02*
X-18514264Y-17710000D01*
X-18514264Y-17710000D02*
X-14920000Y-14115736D01*
X-14920000Y-11949469D02*
X-14443528Y-11472997D01*
X-14920000Y-14115736D02*
X-14920000Y-11949469D01*
%TO.N,/PA6{slash}MISO*%
X-14620000Y-14240000D02*
X-14620000Y-12356576D01*
X-14620000Y-12356576D02*
X-14089975Y-11826551D01*
%TO.N,/PA15*%
X-4280000Y-7420000D02*
X-6854997Y-7420000D01*
X-6854997Y-7420000D02*
X-9083659Y-9648662D01*
X-4260000Y-14790000D02*
X-1320000Y-14790000D01*
%TO.N,/PA13{slash}SWDIO*%
X1550000Y-11410000D02*
X-9146656Y-11410000D01*
X-9146656Y-11410000D02*
X-9437212Y-11119444D01*
%TO.N,/PA14{slash}SWCLK*%
X-7187769Y-8870000D02*
X-9083659Y-10765890D01*
X1550000Y-8870000D02*
X-7187769Y-8870000D01*
%TO.N,/PB0*%
X-13870000Y-13340000D02*
X-13870000Y-13020789D01*
X-13870000Y-13020789D02*
X-13382868Y-12533657D01*
%TO.N,/PB1*%
X-13870000Y-14100000D02*
X-13860000Y-14100000D01*
X-13420000Y-13660000D02*
X-13420000Y-13277896D01*
X-13860000Y-14100000D02*
X-13420000Y-13660000D01*
X-13420000Y-13277896D02*
X-13029315Y-12887211D01*
%TO.N,/PB2*%
X-12960000Y-13930000D02*
X-12960000Y-13525003D01*
X-12960000Y-13525003D02*
X-12675761Y-13240764D01*
X-13880000Y-14850000D02*
X-12960000Y-13930000D01*
%TO.N,/PB5*%
X-9570000Y-8013682D02*
X-10144319Y-8588001D01*
X-9570000Y-5537208D02*
X-9570000Y-8013682D01*
D35*
%TO.N,Net-(D1-A)*%
X-39922500Y-1830000D02*
X-40560000Y-1830000D01*
X-39392500Y-1300000D02*
X-39922500Y-1830000D01*
D37*
%TO.N,Net-(F1-Pad1)*%
X-37010000Y-8640000D02*
X-36990000Y-8620000D01*
X-38590000Y-8640000D02*
X-37010000Y-8640000D01*
D36*
%TO.N,/PA12*%
X-9790766Y-11472997D02*
X-3870000Y-17393763D01*
%TD*%
%TA.AperFunction,Conductor*%
%TO.N,GND*%
G36*
X-42440597Y-274207D02*
G01*
X-42391953Y-324362D01*
X-42378148Y-392854D01*
X-42394294Y-444115D01*
X-42408599Y-468893D01*
X-42464365Y-640523D01*
X-42483229Y-820000D01*
X-42464365Y-999476D01*
X-42416445Y-1146961D01*
X-42408599Y-1171107D01*
X-42318367Y-1327393D01*
X-42286827Y-1362422D01*
X-42197619Y-1461499D01*
X-42197616Y-1461501D01*
X-42197613Y-1461504D01*
X-42075791Y-1550013D01*
X-42051615Y-1567578D01*
X-41886758Y-1640978D01*
X-41886752Y-1640980D01*
X-41710232Y-1678500D01*
X-41710231Y-1678500D01*
X-41529770Y-1678500D01*
X-41529768Y-1678500D01*
X-41529767Y-1678499D01*
X-41525474Y-1678048D01*
X-41456743Y-1690610D01*
X-41405715Y-1738336D01*
X-41388500Y-1801366D01*
X-41388500Y-2029976D01*
X-41388499Y-2029999D01*
X-41385629Y-2066466D01*
X-41385629Y-2066467D01*
X-41340271Y-2222591D01*
X-41340270Y-2222594D01*
X-41340269Y-2222596D01*
X-41323657Y-2250686D01*
X-41257508Y-2362538D01*
X-41257502Y-2362546D01*
X-41216587Y-2403460D01*
X-41183101Y-2464783D01*
X-41188085Y-2534474D01*
X-41198727Y-2556237D01*
X-41227117Y-2602265D01*
X-41227119Y-2602269D01*
X-41282887Y-2770570D01*
X-41282887Y-2770571D01*
X-41293500Y-2874447D01*
X-41293500Y-4225537D01*
X-41293499Y-4225553D01*
X-41282887Y-4329427D01*
X-41258764Y-4402225D01*
X-41227115Y-4497738D01*
X-41134030Y-4648652D01*
X-41008652Y-4774030D01*
X-40857738Y-4867115D01*
X-40759853Y-4899550D01*
X-40702408Y-4939322D01*
X-40675584Y-5003838D01*
X-40687899Y-5072614D01*
X-40718084Y-5111340D01*
X-40748528Y-5137476D01*
X-40748532Y-5137479D01*
X-40873019Y-5298304D01*
X-40962589Y-5480906D01*
X-40988246Y-5580000D01*
X-40186111Y-5580000D01*
X-40225610Y-5604457D01*
X-40293201Y-5693962D01*
X-40323895Y-5801840D01*
X-40313546Y-5913521D01*
X-40263552Y-6013922D01*
X-40191069Y-6080000D01*
X-40993366Y-6080000D01*
X-40993069Y-6081946D01*
X-40993067Y-6081952D01*
X-40922438Y-6272657D01*
X-40922435Y-6272664D01*
X-40814851Y-6445267D01*
X-40674736Y-6592668D01*
X-40674734Y-6592669D01*
X-40507805Y-6708856D01*
X-40320908Y-6789059D01*
X-40121690Y-6830000D01*
X-39944000Y-6830000D01*
X-39876961Y-6849685D01*
X-39831206Y-6902489D01*
X-39820000Y-6954000D01*
X-39820000Y-7150000D01*
X-38494000Y-7150000D01*
X-38426961Y-7169685D01*
X-38381206Y-7222489D01*
X-38370000Y-7274000D01*
X-38370000Y-7526000D01*
X-38389685Y-7593039D01*
X-38442489Y-7638794D01*
X-38494000Y-7650000D01*
X-39820000Y-7650000D01*
X-39820000Y-7847844D01*
X-39813599Y-7907372D01*
X-39813597Y-7907380D01*
X-39784831Y-7984506D01*
X-39779847Y-8054198D01*
X-39784831Y-8071172D01*
X-39821989Y-8170796D01*
X-39821989Y-8170797D01*
X-39828500Y-8231345D01*
X-39828500Y-9028654D01*
X-39821990Y-9089199D01*
X-39821990Y-9089200D01*
X-39819203Y-9096671D01*
X-39814222Y-9166363D01*
X-39819203Y-9183327D01*
X-39821988Y-9190793D01*
X-39821990Y-9190802D01*
X-39828500Y-9251345D01*
X-39828500Y-10048654D01*
X-39821990Y-10109197D01*
X-39820204Y-10116755D01*
X-39822178Y-10117221D01*
X-39817954Y-10176374D01*
X-39821161Y-10187291D01*
X-39821990Y-10190802D01*
X-39828500Y-10251345D01*
X-39828500Y-11048654D01*
X-39821990Y-11109197D01*
X-39821988Y-11109207D01*
X-39819204Y-11116670D01*
X-39814222Y-11186362D01*
X-39819204Y-11203330D01*
X-39821988Y-11210792D01*
X-39821990Y-11210802D01*
X-39828500Y-11271345D01*
X-39828500Y-12068654D01*
X-39821990Y-12129201D01*
X-39784831Y-12228826D01*
X-39779847Y-12298518D01*
X-39784831Y-12315492D01*
X-39813597Y-12392616D01*
X-39813599Y-12392627D01*
X-39820000Y-12452155D01*
X-39820000Y-12650000D01*
X-37420000Y-12650000D01*
X-37420000Y-12545769D01*
X-37400315Y-12478730D01*
X-37347511Y-12432975D01*
X-37338429Y-12429254D01*
X-37337238Y-12428820D01*
X-37331686Y-12426799D01*
X-37330172Y-12426272D01*
X-37257262Y-12402114D01*
X-37257256Y-12402110D01*
X-37250716Y-12399061D01*
X-37250695Y-12399106D01*
X-37243698Y-12395719D01*
X-37243720Y-12395675D01*
X-37237272Y-12392436D01*
X-37237268Y-12392435D01*
X-37173139Y-12350254D01*
X-37171674Y-12349320D01*
X-37106349Y-12309030D01*
X-37106344Y-12309024D01*
X-37100681Y-12304548D01*
X-37100650Y-12304587D01*
X-37094626Y-12299680D01*
X-37094658Y-12299642D01*
X-37089136Y-12295006D01*
X-37089126Y-12295001D01*
X-37036423Y-12239137D01*
X-37035230Y-12237908D01*
X-36950179Y-12152858D01*
X-36888857Y-12119376D01*
X-36819166Y-12124360D01*
X-36763232Y-12166232D01*
X-36738816Y-12231697D01*
X-36738500Y-12240542D01*
X-36738501Y-12804456D01*
X-36758186Y-12871496D01*
X-36774820Y-12892137D01*
X-37208319Y-13325637D01*
X-37269642Y-13359122D01*
X-37339333Y-13354138D01*
X-37395267Y-13312267D01*
X-37419684Y-13246802D01*
X-37420000Y-13237956D01*
X-37420000Y-13150000D01*
X-39820000Y-13150000D01*
X-39820000Y-13346000D01*
X-39839685Y-13413039D01*
X-39892489Y-13458794D01*
X-39944000Y-13470000D01*
X-40070713Y-13470000D01*
X-40222339Y-13485418D01*
X-40416382Y-13546299D01*
X-40416392Y-13546304D01*
X-40594216Y-13645005D01*
X-40594217Y-13645005D01*
X-40748531Y-13777478D01*
X-40748532Y-13777479D01*
X-40873019Y-13938304D01*
X-40962589Y-14120906D01*
X-40988246Y-14220000D01*
X-40186111Y-14220000D01*
X-40225610Y-14244457D01*
X-40293201Y-14333962D01*
X-40323895Y-14441840D01*
X-40313546Y-14553521D01*
X-40263552Y-14653922D01*
X-40191069Y-14720000D01*
X-40993366Y-14720000D01*
X-40993069Y-14721946D01*
X-40993067Y-14721952D01*
X-40922438Y-14912657D01*
X-40922435Y-14912664D01*
X-40814851Y-15085267D01*
X-40674736Y-15232668D01*
X-40674734Y-15232669D01*
X-40566786Y-15307803D01*
X-40523008Y-15362257D01*
X-40515619Y-15431735D01*
X-40546965Y-15494178D01*
X-40549942Y-15497259D01*
X-40850878Y-15798195D01*
X-40864505Y-15809973D01*
X-40884059Y-15824531D01*
X-40918023Y-15865006D01*
X-40921670Y-15868987D01*
X-40927579Y-15874898D01*
X-40947575Y-15900185D01*
X-40948712Y-15901579D01*
X-40998033Y-15960360D01*
X-41001999Y-15966391D01*
X-41002037Y-15966366D01*
X-41006218Y-15972928D01*
X-41006179Y-15972952D01*
X-41009965Y-15979088D01*
X-41018307Y-15996978D01*
X-41042413Y-16048670D01*
X-41043184Y-16050263D01*
X-41077609Y-16118810D01*
X-41080077Y-16125593D01*
X-41080122Y-16125576D01*
X-41082678Y-16132932D01*
X-41082634Y-16132947D01*
X-41084904Y-16139793D01*
X-41095537Y-16191289D01*
X-41128373Y-16252962D01*
X-41189339Y-16287093D01*
X-41224112Y-16289636D01*
X-41224113Y-16289862D01*
X-41224134Y-16289861D01*
X-41224137Y-16289948D01*
X-41226432Y-16289851D01*
X-41300987Y-16289520D01*
X-41303012Y-16289512D01*
X-41303013Y-16289512D01*
X-41303018Y-16289512D01*
X-41306474Y-16289755D01*
X-41306481Y-16289755D01*
X-41306482Y-16289756D01*
X-41306484Y-16289756D01*
X-41310438Y-16290291D01*
X-41310504Y-16289806D01*
X-41327503Y-16291500D01*
X-41685490Y-16291500D01*
X-41722253Y-16294393D01*
X-41722259Y-16294394D01*
X-41879593Y-16340104D01*
X-41879603Y-16340108D01*
X-41917266Y-16362382D01*
X-41937974Y-16372171D01*
X-42018731Y-16401564D01*
X-42166875Y-16498999D01*
X-42288552Y-16627969D01*
X-42288556Y-16627974D01*
X-42377208Y-16781525D01*
X-42428062Y-16951389D01*
X-42428063Y-16951395D01*
X-42436882Y-17102817D01*
X-42460431Y-17168599D01*
X-42515806Y-17211206D01*
X-42585426Y-17217111D01*
X-42644207Y-17187247D01*
X-42654148Y-17178185D01*
X-42663544Y-17169619D01*
X-42664480Y-17168747D01*
X-42731654Y-17104697D01*
X-42731657Y-17104694D01*
X-42733399Y-17103575D01*
X-42744520Y-17095029D01*
X-42744544Y-17095062D01*
X-42749123Y-17091604D01*
X-42828558Y-17042420D01*
X-42909742Y-16990246D01*
X-42915001Y-16987535D01*
X-42914968Y-16987470D01*
X-42918488Y-16985692D01*
X-42918649Y-16986016D01*
X-42923778Y-16983462D01*
X-42923782Y-16983460D01*
X-43013768Y-16948600D01*
X-43106278Y-16911564D01*
X-43106286Y-16911562D01*
X-43106530Y-16911515D01*
X-43111743Y-16910273D01*
X-43115342Y-16909249D01*
X-43213323Y-16890933D01*
X-43314150Y-16871500D01*
X-43314151Y-16871500D01*
X-43317282Y-16871500D01*
X-43522718Y-16871500D01*
X-43522724Y-16871500D01*
X-43572115Y-16880732D01*
X-43577614Y-16881507D01*
X-43630735Y-16886580D01*
X-43630739Y-16886580D01*
X-43630739Y-16886581D01*
X-43645561Y-16890933D01*
X-43675652Y-16899768D01*
X-43681729Y-16901224D01*
X-43724649Y-16909247D01*
X-43724662Y-16909250D01*
X-43774562Y-16928582D01*
X-43779491Y-16930257D01*
X-43833860Y-16946222D01*
X-43872541Y-16966162D01*
X-43878555Y-16968868D01*
X-43916219Y-16983460D01*
X-43916220Y-16983460D01*
X-43964526Y-17013370D01*
X-43968755Y-17015764D01*
X-44022023Y-17043226D01*
X-44053646Y-17068094D01*
X-44059335Y-17072073D01*
X-44090884Y-17091609D01*
X-44135292Y-17132091D01*
X-44138734Y-17135006D01*
X-44188435Y-17174093D01*
X-44212623Y-17202006D01*
X-44217710Y-17207224D01*
X-44242699Y-17230006D01*
X-44280889Y-17280576D01*
X-44283509Y-17283813D01*
X-44327064Y-17334079D01*
X-44343896Y-17363233D01*
X-44348116Y-17369601D01*
X-44366504Y-17393951D01*
X-44366509Y-17393960D01*
X-44396219Y-17453622D01*
X-44398024Y-17456985D01*
X-44432912Y-17517415D01*
X-44442842Y-17546103D01*
X-44445933Y-17553463D01*
X-44458072Y-17577842D01*
X-44458077Y-17577856D01*
X-44477218Y-17645128D01*
X-44478261Y-17648437D01*
X-44502154Y-17717475D01*
X-44506006Y-17744258D01*
X-44507742Y-17752404D01*
X-44514294Y-17775437D01*
X-44521051Y-17848351D01*
X-44521418Y-17851453D01*
X-44532281Y-17927010D01*
X-44532281Y-17927015D01*
X-44531151Y-17950769D01*
X-44531345Y-17959445D01*
X-44533249Y-17980003D01*
X-44526193Y-18056158D01*
X-44525999Y-18058927D01*
X-44522209Y-18138470D01*
X-44522208Y-18138475D01*
X-44518445Y-18153986D01*
X-44515479Y-18171774D01*
X-44514294Y-18184559D01*
X-44492459Y-18261305D01*
X-44491848Y-18263621D01*
X-44472299Y-18344201D01*
X-44472298Y-18344206D01*
X-44467109Y-18355568D01*
X-44460641Y-18373134D01*
X-44458078Y-18382141D01*
X-44458072Y-18382158D01*
X-44421060Y-18456487D01*
X-44420162Y-18458367D01*
X-44384359Y-18536765D01*
X-44384353Y-18536776D01*
X-44379121Y-18544123D01*
X-44369132Y-18560771D01*
X-44366503Y-18566050D01*
X-44324582Y-18621562D01*
X-44314488Y-18634929D01*
X-44313474Y-18636310D01*
X-44261559Y-18709215D01*
X-44261557Y-18709217D01*
X-44261556Y-18709218D01*
X-44261555Y-18709219D01*
X-44257541Y-18713047D01*
X-44244163Y-18728057D01*
X-44242708Y-18729983D01*
X-44242705Y-18729987D01*
X-44242702Y-18729989D01*
X-44242701Y-18729991D01*
X-44176464Y-18790374D01*
X-44175470Y-18791301D01*
X-44137079Y-18827906D01*
X-44108346Y-18855303D01*
X-44106602Y-18856424D01*
X-44095481Y-18864970D01*
X-44095456Y-18864938D01*
X-44090881Y-18868393D01*
X-44011429Y-18917588D01*
X-43930253Y-18969757D01*
X-43925000Y-18972465D01*
X-43925034Y-18972529D01*
X-43921512Y-18974308D01*
X-43921350Y-18973984D01*
X-43916227Y-18976534D01*
X-43916218Y-18976540D01*
X-43826218Y-19011405D01*
X-43733721Y-19048436D01*
X-43733483Y-19048482D01*
X-43728248Y-19049729D01*
X-43724663Y-19050748D01*
X-43724655Y-19050751D01*
X-43626771Y-19069048D01*
X-43525849Y-19088500D01*
X-43525844Y-19088500D01*
X-43317284Y-19088500D01*
X-43317282Y-19088500D01*
X-43267868Y-19079262D01*
X-43262425Y-19078494D01*
X-43209261Y-19073419D01*
X-43164332Y-19060225D01*
X-43158280Y-19058776D01*
X-43115345Y-19050751D01*
X-43065440Y-19031417D01*
X-43060513Y-19029743D01*
X-43016383Y-19016785D01*
X-43006138Y-19013777D01*
X-43001556Y-19011415D01*
X-42967458Y-18993835D01*
X-42961450Y-18991131D01*
X-42923782Y-18976540D01*
X-42875474Y-18946627D01*
X-42871252Y-18944236D01*
X-42817974Y-18916771D01*
X-42786344Y-18891896D01*
X-42780664Y-18887923D01*
X-42749118Y-18868392D01*
X-42704690Y-18827889D01*
X-42701279Y-18825000D01*
X-42651568Y-18785908D01*
X-42627373Y-18757984D01*
X-42622292Y-18752774D01*
X-42597299Y-18729991D01*
X-42559107Y-18679414D01*
X-42556486Y-18676177D01*
X-42547285Y-18665559D01*
X-42512935Y-18625918D01*
X-42496103Y-18596761D01*
X-42491889Y-18590403D01*
X-42473497Y-18566050D01*
X-42443779Y-18506366D01*
X-42441978Y-18503014D01*
X-42424876Y-18473393D01*
X-42414966Y-18456227D01*
X-42364399Y-18408012D01*
X-42295792Y-18394789D01*
X-42230927Y-18420757D01*
X-42200847Y-18455107D01*
X-42129722Y-18575374D01*
X-42129715Y-18575383D01*
X-42015384Y-18689714D01*
X-42015375Y-18689721D01*
X-41876196Y-18772031D01*
X-41720911Y-18817145D01*
X-41700000Y-18818789D01*
X-41700000Y-17992500D01*
X-41680315Y-17925461D01*
X-41627511Y-17879706D01*
X-41576000Y-17868500D01*
X-41287908Y-17868500D01*
X-41282891Y-17868703D01*
X-41278955Y-17869022D01*
X-41241239Y-17872083D01*
X-41124486Y-17864855D01*
X-41095557Y-17866456D01*
X-40998219Y-17883411D01*
X-40976169Y-17889389D01*
X-40969201Y-17891989D01*
X-40908655Y-17898499D01*
X-40908638Y-17898500D01*
X-40234000Y-17898500D01*
X-40166961Y-17918185D01*
X-40121206Y-17970989D01*
X-40110000Y-18022500D01*
X-40110000Y-18057500D01*
X-40129685Y-18124539D01*
X-40182489Y-18170294D01*
X-40234000Y-18181500D01*
X-40908655Y-18181500D01*
X-40969203Y-18188011D01*
X-40969205Y-18188011D01*
X-41106205Y-18239111D01*
X-41141144Y-18265267D01*
X-41195566Y-18285565D01*
X-41214802Y-18304801D01*
X-41219685Y-18321433D01*
X-41224733Y-18328704D01*
X-41310888Y-18443793D01*
X-41310889Y-18443793D01*
X-41361989Y-18580795D01*
X-41361989Y-18580797D01*
X-41368500Y-18641345D01*
X-41368500Y-19338654D01*
X-41361989Y-19399202D01*
X-41361989Y-19399204D01*
X-41329522Y-19486248D01*
X-41310889Y-19536204D01*
X-41223261Y-19653261D01*
X-41106204Y-19740889D01*
X-40969201Y-19791989D01*
X-40941950Y-19794918D01*
X-40908655Y-19798499D01*
X-40908638Y-19798500D01*
X-39928169Y-19798500D01*
X-39924095Y-19798634D01*
X-39917471Y-19799069D01*
X-39917460Y-19799071D01*
X-39892563Y-19798514D01*
X-39891222Y-19798500D01*
X-39811362Y-19798500D01*
X-39811351Y-19798499D01*
X-39792831Y-19796508D01*
X-39787586Y-19796168D01*
X-39771339Y-19795805D01*
X-39497630Y-19750187D01*
X-39477244Y-19748500D01*
X-39422294Y-19748500D01*
X-39404324Y-19749809D01*
X-39401826Y-19750174D01*
X-39380211Y-19753341D01*
X-39327574Y-19748735D01*
X-39322172Y-19748500D01*
X-39313825Y-19748500D01*
X-39313820Y-19748500D01*
X-39281729Y-19744748D01*
X-39280098Y-19744581D01*
X-39220586Y-19739375D01*
X-39203581Y-19737888D01*
X-39203578Y-19737887D01*
X-39203574Y-19737887D01*
X-39203571Y-19737885D01*
X-39196507Y-19736427D01*
X-39196498Y-19736474D01*
X-39188903Y-19734790D01*
X-39188913Y-19734744D01*
X-39181894Y-19733079D01*
X-39181887Y-19733079D01*
X-39109717Y-19706810D01*
X-39108147Y-19706264D01*
X-39035262Y-19682114D01*
X-39035256Y-19682110D01*
X-39028716Y-19679061D01*
X-39028695Y-19679106D01*
X-39021698Y-19675719D01*
X-39021720Y-19675675D01*
X-39015272Y-19672436D01*
X-39015268Y-19672435D01*
X-38951139Y-19630254D01*
X-38949674Y-19629320D01*
X-38884349Y-19589030D01*
X-38884344Y-19589024D01*
X-38878681Y-19584548D01*
X-38878650Y-19584587D01*
X-38872626Y-19579680D01*
X-38872658Y-19579642D01*
X-38867138Y-19575008D01*
X-38867126Y-19575001D01*
X-38864961Y-19572705D01*
X-38863083Y-19571607D01*
X-38861589Y-19570355D01*
X-38861376Y-19570609D01*
X-38804640Y-19537448D01*
X-38734833Y-19540400D01*
X-38677703Y-19580623D01*
X-38675514Y-19583460D01*
X-38623261Y-19653261D01*
X-38506204Y-19740889D01*
X-38369201Y-19791989D01*
X-38341950Y-19794918D01*
X-38308655Y-19798499D01*
X-38308638Y-19798500D01*
X-37211362Y-19798500D01*
X-37211346Y-19798499D01*
X-37184308Y-19795591D01*
X-37150799Y-19791989D01*
X-37013796Y-19740889D01*
X-36896739Y-19653261D01*
X-36809111Y-19536204D01*
X-36758011Y-19399201D01*
X-36754409Y-19365692D01*
X-36751501Y-19338654D01*
X-36751500Y-19338637D01*
X-36751500Y-18641362D01*
X-36751501Y-18641345D01*
X-36756294Y-18596771D01*
X-36758011Y-18580799D01*
X-36762379Y-18569089D01*
X-36789840Y-18495463D01*
X-36809111Y-18443796D01*
X-36885268Y-18342063D01*
X-36901525Y-18298475D01*
X-36912268Y-18287732D01*
X-36971584Y-18270315D01*
X-36978856Y-18265267D01*
X-37013796Y-18239111D01*
X-37150797Y-18188011D01*
X-37211346Y-18181500D01*
X-37211362Y-18181500D01*
X-38157500Y-18181500D01*
X-38224539Y-18161815D01*
X-38270294Y-18109011D01*
X-38281500Y-18057500D01*
X-38281500Y-18022500D01*
X-38261815Y-17955461D01*
X-38209011Y-17909706D01*
X-38157500Y-17898500D01*
X-37211362Y-17898500D01*
X-37211346Y-17898499D01*
X-37173440Y-17894423D01*
X-37150799Y-17891989D01*
X-37053829Y-17855819D01*
X-36984140Y-17850834D01*
X-36975918Y-17852920D01*
X-36932254Y-17865606D01*
X-36895484Y-17868500D01*
X-36895478Y-17868500D01*
X-36534000Y-17868500D01*
X-36466961Y-17888185D01*
X-36421206Y-17940989D01*
X-36410000Y-17992500D01*
X-36410000Y-18818789D01*
X-36389090Y-18817145D01*
X-36233805Y-18772031D01*
X-36094626Y-18689721D01*
X-36094617Y-18689714D01*
X-35980286Y-18575383D01*
X-35980279Y-18575374D01*
X-35939232Y-18505968D01*
X-35888163Y-18458285D01*
X-35819421Y-18445781D01*
X-35754832Y-18472426D01*
X-35714902Y-18529762D01*
X-35708500Y-18569089D01*
X-35708500Y-19858651D01*
X-35702468Y-19914743D01*
X-35714872Y-19983503D01*
X-35762482Y-20034641D01*
X-35825757Y-20052000D01*
X-42323258Y-20052000D01*
X-42326735Y-20051902D01*
X-42629368Y-20034907D01*
X-42636282Y-20034128D01*
X-42933384Y-19983647D01*
X-42940168Y-19982099D01*
X-43229757Y-19898670D01*
X-43236324Y-19896372D01*
X-43471231Y-19799071D01*
X-43514747Y-19781046D01*
X-43521012Y-19778029D01*
X-43784772Y-19632253D01*
X-43790664Y-19628551D01*
X-44036442Y-19454162D01*
X-44041883Y-19449824D01*
X-44266592Y-19249011D01*
X-44271512Y-19244091D01*
X-44472325Y-19019382D01*
X-44476663Y-19013941D01*
X-44651052Y-18768163D01*
X-44654754Y-18762271D01*
X-44716839Y-18649938D01*
X-44800534Y-18498502D01*
X-44803544Y-18492254D01*
X-44918874Y-18213820D01*
X-44921171Y-18207256D01*
X-45004600Y-17917667D01*
X-45006148Y-17910883D01*
X-45021792Y-17818809D01*
X-45056631Y-17613769D01*
X-45057407Y-17606876D01*
X-45068573Y-17408044D01*
X-45074402Y-17304235D01*
X-45074500Y-17300758D01*
X-45074500Y-14720000D01*
X-44793366Y-14720000D01*
X-44793069Y-14721946D01*
X-44793067Y-14721952D01*
X-44722438Y-14912657D01*
X-44722435Y-14912664D01*
X-44614851Y-15085267D01*
X-44474736Y-15232668D01*
X-44474734Y-15232669D01*
X-44307805Y-15348856D01*
X-44120908Y-15429059D01*
X-43921690Y-15470000D01*
X-43670000Y-15470000D01*
X-43670000Y-14770000D01*
X-43170000Y-14770000D01*
X-43170000Y-15470000D01*
X-42969287Y-15470000D01*
X-42817662Y-15454581D01*
X-42623619Y-15393700D01*
X-42623609Y-15393695D01*
X-42445785Y-15294994D01*
X-42445784Y-15294994D01*
X-42291470Y-15162521D01*
X-42291469Y-15162520D01*
X-42166982Y-15001695D01*
X-42077412Y-14819093D01*
X-42051754Y-14720000D01*
X-42853889Y-14720000D01*
X-42814390Y-14695543D01*
X-42746799Y-14606038D01*
X-42716105Y-14498160D01*
X-42726454Y-14386479D01*
X-42776448Y-14286078D01*
X-42848931Y-14220000D01*
X-42046634Y-14220000D01*
X-42046932Y-14218053D01*
X-42046934Y-14218047D01*
X-42117563Y-14027342D01*
X-42117566Y-14027335D01*
X-42225150Y-13854732D01*
X-42365265Y-13707331D01*
X-42365267Y-13707330D01*
X-42532196Y-13591143D01*
X-42719093Y-13510940D01*
X-42918310Y-13470000D01*
X-43170000Y-13470000D01*
X-43170000Y-14170000D01*
X-43670000Y-14170000D01*
X-43670000Y-13470000D01*
X-43870713Y-13470000D01*
X-44022339Y-13485418D01*
X-44216382Y-13546299D01*
X-44216392Y-13546304D01*
X-44394216Y-13645005D01*
X-44394217Y-13645005D01*
X-44548531Y-13777478D01*
X-44548532Y-13777479D01*
X-44673019Y-13938304D01*
X-44762589Y-14120906D01*
X-44788246Y-14220000D01*
X-43986111Y-14220000D01*
X-44025610Y-14244457D01*
X-44093201Y-14333962D01*
X-44123895Y-14441840D01*
X-44113546Y-14553521D01*
X-44063552Y-14653922D01*
X-43991069Y-14720000D01*
X-44793366Y-14720000D01*
X-45074500Y-14720000D01*
X-45074500Y-6080000D01*
X-44793366Y-6080000D01*
X-44793069Y-6081946D01*
X-44793067Y-6081952D01*
X-44722438Y-6272657D01*
X-44722435Y-6272664D01*
X-44614851Y-6445267D01*
X-44474736Y-6592668D01*
X-44474734Y-6592669D01*
X-44307805Y-6708856D01*
X-44120908Y-6789059D01*
X-43921690Y-6830000D01*
X-43670000Y-6830000D01*
X-43670000Y-6130000D01*
X-43170000Y-6130000D01*
X-43170000Y-6830000D01*
X-42969287Y-6830000D01*
X-42817662Y-6814581D01*
X-42623619Y-6753700D01*
X-42623609Y-6753695D01*
X-42445785Y-6654994D01*
X-42445784Y-6654994D01*
X-42291470Y-6522521D01*
X-42291469Y-6522520D01*
X-42166982Y-6361695D01*
X-42077412Y-6179093D01*
X-42051754Y-6080000D01*
X-42853889Y-6080000D01*
X-42814390Y-6055543D01*
X-42746799Y-5966038D01*
X-42716105Y-5858160D01*
X-42726454Y-5746479D01*
X-42776448Y-5646078D01*
X-42848931Y-5580000D01*
X-42046634Y-5580000D01*
X-42046932Y-5578053D01*
X-42046934Y-5578047D01*
X-42117563Y-5387342D01*
X-42117566Y-5387335D01*
X-42225150Y-5214732D01*
X-42365265Y-5067331D01*
X-42365267Y-5067330D01*
X-42532196Y-4951143D01*
X-42719093Y-4870940D01*
X-42918310Y-4830000D01*
X-43170000Y-4830000D01*
X-43170000Y-5530000D01*
X-43670000Y-5530000D01*
X-43670000Y-4830000D01*
X-43870713Y-4830000D01*
X-44022339Y-4845418D01*
X-44216382Y-4906299D01*
X-44216392Y-4906304D01*
X-44394216Y-5005005D01*
X-44394217Y-5005005D01*
X-44548531Y-5137478D01*
X-44548532Y-5137479D01*
X-44673019Y-5298304D01*
X-44762589Y-5480906D01*
X-44788246Y-5580000D01*
X-43986111Y-5580000D01*
X-44025610Y-5604457D01*
X-44093201Y-5693962D01*
X-44123895Y-5801840D01*
X-44113546Y-5913521D01*
X-44063552Y-6013922D01*
X-43991069Y-6080000D01*
X-44793366Y-6080000D01*
X-45074500Y-6080000D01*
X-45074500Y-2999240D01*
X-45074402Y-2995763D01*
X-45066597Y-2856765D01*
X-45057407Y-2693121D01*
X-45056631Y-2686232D01*
X-45006148Y-2389115D01*
X-45004600Y-2382332D01*
X-44993242Y-2342907D01*
X-44980882Y-2300003D01*
X-44533249Y-2300003D01*
X-44526193Y-2376158D01*
X-44525999Y-2378927D01*
X-44522209Y-2458470D01*
X-44522208Y-2458475D01*
X-44518445Y-2473986D01*
X-44515479Y-2491774D01*
X-44514294Y-2504559D01*
X-44492459Y-2581305D01*
X-44491848Y-2583621D01*
X-44472299Y-2664201D01*
X-44472298Y-2664206D01*
X-44467109Y-2675568D01*
X-44460641Y-2693134D01*
X-44458078Y-2702141D01*
X-44458072Y-2702158D01*
X-44421060Y-2776487D01*
X-44420162Y-2778367D01*
X-44384359Y-2856765D01*
X-44384353Y-2856776D01*
X-44379121Y-2864123D01*
X-44369132Y-2880771D01*
X-44366503Y-2886050D01*
X-44327625Y-2937533D01*
X-44314488Y-2954929D01*
X-44313474Y-2956310D01*
X-44261559Y-3029215D01*
X-44261557Y-3029217D01*
X-44261556Y-3029218D01*
X-44261555Y-3029219D01*
X-44257541Y-3033047D01*
X-44244163Y-3048057D01*
X-44242708Y-3049983D01*
X-44242705Y-3049987D01*
X-44242702Y-3049989D01*
X-44242701Y-3049991D01*
X-44176464Y-3110374D01*
X-44175470Y-3111301D01*
X-44137079Y-3147906D01*
X-44108346Y-3175303D01*
X-44106602Y-3176424D01*
X-44095481Y-3184970D01*
X-44095456Y-3184938D01*
X-44090881Y-3188393D01*
X-44011429Y-3237588D01*
X-43930253Y-3289757D01*
X-43925000Y-3292465D01*
X-43925034Y-3292529D01*
X-43921512Y-3294308D01*
X-43921350Y-3293984D01*
X-43916227Y-3296534D01*
X-43916218Y-3296540D01*
X-43826218Y-3331405D01*
X-43748453Y-3362538D01*
X-43733721Y-3368436D01*
X-43733483Y-3368482D01*
X-43728248Y-3369729D01*
X-43724663Y-3370748D01*
X-43724655Y-3370751D01*
X-43626771Y-3389048D01*
X-43525849Y-3408500D01*
X-43525844Y-3408500D01*
X-43317284Y-3408500D01*
X-43317282Y-3408500D01*
X-43267868Y-3399262D01*
X-43262425Y-3398494D01*
X-43209261Y-3393419D01*
X-43164332Y-3380225D01*
X-43158280Y-3378776D01*
X-43115345Y-3370751D01*
X-43065440Y-3351417D01*
X-43060513Y-3349743D01*
X-43022397Y-3338550D01*
X-43006138Y-3333777D01*
X-43001556Y-3331415D01*
X-42967458Y-3313835D01*
X-42961450Y-3311131D01*
X-42923782Y-3296540D01*
X-42875474Y-3266627D01*
X-42871252Y-3264236D01*
X-42817974Y-3236771D01*
X-42786344Y-3211896D01*
X-42780664Y-3207923D01*
X-42749118Y-3188392D01*
X-42704690Y-3147889D01*
X-42701279Y-3145000D01*
X-42651568Y-3105908D01*
X-42627373Y-3077984D01*
X-42622292Y-3072774D01*
X-42597299Y-3049991D01*
X-42559107Y-2999414D01*
X-42556486Y-2996177D01*
X-42548064Y-2986458D01*
X-42512935Y-2945918D01*
X-42496103Y-2916761D01*
X-42491889Y-2910403D01*
X-42473497Y-2886050D01*
X-42443779Y-2826366D01*
X-42441978Y-2823014D01*
X-42416201Y-2778367D01*
X-42407087Y-2762582D01*
X-42397154Y-2733881D01*
X-42394075Y-2726547D01*
X-42381926Y-2702152D01*
X-42362776Y-2634842D01*
X-42361752Y-2631593D01*
X-42337847Y-2562527D01*
X-42333994Y-2535722D01*
X-42332262Y-2527597D01*
X-42325706Y-2504559D01*
X-42318949Y-2431636D01*
X-42318584Y-2428550D01*
X-42314977Y-2403460D01*
X-42307719Y-2352984D01*
X-42308851Y-2329236D01*
X-42308658Y-2320564D01*
X-42306751Y-2300000D01*
X-42313809Y-2223839D01*
X-42314004Y-2221067D01*
X-42314480Y-2211082D01*
X-42317792Y-2141526D01*
X-42321559Y-2126002D01*
X-42324522Y-2108229D01*
X-42325706Y-2095441D01*
X-42347551Y-2018666D01*
X-42348157Y-2016364D01*
X-42348848Y-2013515D01*
X-42367702Y-1935796D01*
X-42372893Y-1924430D01*
X-42379364Y-1906853D01*
X-42379723Y-1905590D01*
X-42381926Y-1897848D01*
X-42418957Y-1823482D01*
X-42419851Y-1821607D01*
X-42429095Y-1801366D01*
X-42455644Y-1743229D01*
X-42460879Y-1735877D01*
X-42470871Y-1719224D01*
X-42473497Y-1713950D01*
X-42491123Y-1690610D01*
X-42525513Y-1645070D01*
X-42526540Y-1643670D01*
X-42578442Y-1570784D01*
X-42578446Y-1570780D01*
X-42582454Y-1566958D01*
X-42595847Y-1551931D01*
X-42597292Y-1550018D01*
X-42597296Y-1550013D01*
X-42597299Y-1550009D01*
X-42663582Y-1489585D01*
X-42664532Y-1488698D01*
X-42676265Y-1477511D01*
X-42731654Y-1424697D01*
X-42731657Y-1424694D01*
X-42733399Y-1423575D01*
X-42744520Y-1415029D01*
X-42744544Y-1415062D01*
X-42749123Y-1411604D01*
X-42828558Y-1362420D01*
X-42909742Y-1310246D01*
X-42915001Y-1307535D01*
X-42914968Y-1307470D01*
X-42918488Y-1305692D01*
X-42918649Y-1306016D01*
X-42923778Y-1303462D01*
X-42923782Y-1303460D01*
X-43013768Y-1268600D01*
X-43106278Y-1231564D01*
X-43106286Y-1231562D01*
X-43106530Y-1231515D01*
X-43111743Y-1230273D01*
X-43115342Y-1229249D01*
X-43213323Y-1210933D01*
X-43314150Y-1191500D01*
X-43314151Y-1191500D01*
X-43317282Y-1191500D01*
X-43522718Y-1191500D01*
X-43522724Y-1191500D01*
X-43572115Y-1200732D01*
X-43577614Y-1201507D01*
X-43630735Y-1206580D01*
X-43630739Y-1206580D01*
X-43630739Y-1206581D01*
X-43645561Y-1210933D01*
X-43675652Y-1219768D01*
X-43681729Y-1221224D01*
X-43724649Y-1229247D01*
X-43724662Y-1229250D01*
X-43774562Y-1248582D01*
X-43779491Y-1250257D01*
X-43833860Y-1266222D01*
X-43872541Y-1286162D01*
X-43878555Y-1288868D01*
X-43916219Y-1303460D01*
X-43916220Y-1303460D01*
X-43964526Y-1333370D01*
X-43968755Y-1335764D01*
X-44022023Y-1363226D01*
X-44053646Y-1388094D01*
X-44059335Y-1392073D01*
X-44090884Y-1411609D01*
X-44135292Y-1452091D01*
X-44138734Y-1455006D01*
X-44188435Y-1494093D01*
X-44212623Y-1522006D01*
X-44217710Y-1527224D01*
X-44242699Y-1550006D01*
X-44280889Y-1600576D01*
X-44283509Y-1603813D01*
X-44327064Y-1654079D01*
X-44343896Y-1683233D01*
X-44348116Y-1689601D01*
X-44366504Y-1713951D01*
X-44366509Y-1713960D01*
X-44396219Y-1773622D01*
X-44398024Y-1776985D01*
X-44432912Y-1837415D01*
X-44442842Y-1866103D01*
X-44445933Y-1873463D01*
X-44458072Y-1897842D01*
X-44458077Y-1897856D01*
X-44477218Y-1965128D01*
X-44478261Y-1968437D01*
X-44502154Y-2037475D01*
X-44506006Y-2064258D01*
X-44507742Y-2072404D01*
X-44514294Y-2095437D01*
X-44521051Y-2168351D01*
X-44521418Y-2171453D01*
X-44532281Y-2247010D01*
X-44532281Y-2247015D01*
X-44531151Y-2270769D01*
X-44531345Y-2279445D01*
X-44533174Y-2299198D01*
X-44533249Y-2300003D01*
X-44980882Y-2300003D01*
X-44921170Y-2092737D01*
X-44918877Y-2086185D01*
X-44803541Y-1807738D01*
X-44800538Y-1801503D01*
X-44654752Y-1537723D01*
X-44651056Y-1531842D01*
X-44490594Y-1305692D01*
X-44476663Y-1286058D01*
X-44472331Y-1280624D01*
X-44271510Y-1055905D01*
X-44266592Y-1050988D01*
X-44265486Y-1050000D01*
X-44041876Y-850169D01*
X-44036442Y-845837D01*
X-43963757Y-794263D01*
X-43790658Y-671444D01*
X-43784777Y-667748D01*
X-43520997Y-521962D01*
X-43514762Y-518959D01*
X-43236315Y-403623D01*
X-43229763Y-401330D01*
X-42940164Y-317899D01*
X-42933384Y-316352D01*
X-42911343Y-312607D01*
X-42636268Y-265869D01*
X-42629379Y-265093D01*
X-42508634Y-258312D01*
X-42440597Y-274207D01*
G37*
%TD.AperFunction*%
%TA.AperFunction,Conductor*%
G36*
X-254802Y-12031523D02*
G01*
X501610Y-12408594D01*
X552823Y-12456117D01*
X570214Y-12523788D01*
X548259Y-12590119D01*
X493928Y-12634049D01*
X489622Y-12635748D01*
X453795Y-12649111D01*
X336739Y-12736739D01*
X249111Y-12853795D01*
X198011Y-12990795D01*
X198011Y-12990797D01*
X191500Y-13051345D01*
X191500Y-14848654D01*
X198011Y-14909202D01*
X198011Y-14909204D01*
X233923Y-15005484D01*
X249111Y-15046204D01*
X336739Y-15163261D01*
X453796Y-15250889D01*
X590799Y-15301989D01*
X618050Y-15304918D01*
X651345Y-15308499D01*
X651362Y-15308500D01*
X2448638Y-15308500D01*
X2448654Y-15308499D01*
X2509201Y-15301989D01*
X2509200Y-15301988D01*
X2577166Y-15276638D01*
X2646856Y-15271653D01*
X2708180Y-15305137D01*
X2741666Y-15366460D01*
X2744500Y-15392820D01*
X2744500Y-17300758D01*
X2744402Y-17304235D01*
X2727407Y-17606867D01*
X2726628Y-17613781D01*
X2676147Y-17910883D01*
X2674599Y-17917667D01*
X2591170Y-18207256D01*
X2588872Y-18213823D01*
X2473548Y-18492242D01*
X2470529Y-18498511D01*
X2324753Y-18762271D01*
X2321051Y-18768163D01*
X2146662Y-19013941D01*
X2142324Y-19019382D01*
X1941511Y-19244091D01*
X1936591Y-19249011D01*
X1711882Y-19449824D01*
X1706441Y-19454162D01*
X1460663Y-19628551D01*
X1454771Y-19632253D01*
X1191011Y-19778029D01*
X1184742Y-19781048D01*
X906323Y-19896372D01*
X899756Y-19898670D01*
X610167Y-19982099D01*
X603383Y-19983647D01*
X306281Y-20034128D01*
X299367Y-20034907D01*
X-3265Y-20051902D01*
X-6742Y-20052000D01*
X-206084Y-20052000D01*
X-273123Y-20032315D01*
X-318878Y-19979511D01*
X-328822Y-19910353D01*
X-299797Y-19846797D01*
X-297314Y-19844017D01*
X-286325Y-19832080D01*
X-254278Y-19797268D01*
X-131140Y-19608791D01*
X-40704Y-19402616D01*
X14564Y-19184368D01*
X23273Y-19079267D01*
X33156Y-18960005D01*
X33156Y-18959994D01*
X18568Y-18783954D01*
X32648Y-18715518D01*
X81493Y-18665559D01*
X149595Y-18649938D01*
X215330Y-18673615D01*
X243147Y-18701781D01*
X248441Y-18709215D01*
X248442Y-18709216D01*
X248443Y-18709217D01*
X248445Y-18709219D01*
X252459Y-18713047D01*
X265837Y-18728057D01*
X267292Y-18729983D01*
X267295Y-18729987D01*
X267298Y-18729989D01*
X267299Y-18729991D01*
X333536Y-18790374D01*
X334530Y-18791301D01*
X372921Y-18827906D01*
X401654Y-18855303D01*
X403398Y-18856424D01*
X414519Y-18864970D01*
X414544Y-18864938D01*
X419119Y-18868393D01*
X498571Y-18917588D01*
X579747Y-18969757D01*
X585000Y-18972465D01*
X584966Y-18972529D01*
X588488Y-18974308D01*
X588650Y-18973984D01*
X593773Y-18976534D01*
X593782Y-18976540D01*
X683782Y-19011405D01*
X776279Y-19048436D01*
X776517Y-19048482D01*
X781752Y-19049729D01*
X785337Y-19050748D01*
X785345Y-19050751D01*
X883229Y-19069048D01*
X984151Y-19088500D01*
X984156Y-19088500D01*
X1192716Y-19088500D01*
X1192718Y-19088500D01*
X1242132Y-19079262D01*
X1247575Y-19078494D01*
X1300739Y-19073419D01*
X1345668Y-19060225D01*
X1351720Y-19058776D01*
X1394655Y-19050751D01*
X1444560Y-19031417D01*
X1449487Y-19029743D01*
X1493617Y-19016785D01*
X1503862Y-19013777D01*
X1508444Y-19011415D01*
X1542542Y-18993835D01*
X1548550Y-18991131D01*
X1586218Y-18976540D01*
X1634526Y-18946627D01*
X1638748Y-18944236D01*
X1692026Y-18916771D01*
X1723656Y-18891896D01*
X1729336Y-18887923D01*
X1760882Y-18868392D01*
X1805310Y-18827889D01*
X1808721Y-18825000D01*
X1858432Y-18785908D01*
X1882627Y-18757984D01*
X1887708Y-18752774D01*
X1912701Y-18729991D01*
X1950893Y-18679414D01*
X1953514Y-18676177D01*
X1962715Y-18665559D01*
X1997065Y-18625918D01*
X2013897Y-18596761D01*
X2018111Y-18590403D01*
X2036503Y-18566050D01*
X2066221Y-18506366D01*
X2068022Y-18503014D01*
X2074241Y-18492242D01*
X2102913Y-18442582D01*
X2112846Y-18413881D01*
X2115925Y-18406547D01*
X2128074Y-18382152D01*
X2147224Y-18314842D01*
X2148248Y-18311593D01*
X2172153Y-18242527D01*
X2176006Y-18215722D01*
X2177738Y-18207597D01*
X2184294Y-18184559D01*
X2191051Y-18111636D01*
X2191416Y-18108550D01*
X2198551Y-18058927D01*
X2202281Y-18032984D01*
X2201149Y-18009236D01*
X2201342Y-18000564D01*
X2203249Y-17980000D01*
X2196191Y-17903839D01*
X2195996Y-17901067D01*
X2195382Y-17888185D01*
X2192208Y-17821526D01*
X2188441Y-17806002D01*
X2185478Y-17788229D01*
X2184294Y-17775441D01*
X2162449Y-17698666D01*
X2161843Y-17696364D01*
X2159142Y-17685231D01*
X2142298Y-17615796D01*
X2137107Y-17604430D01*
X2130636Y-17586853D01*
X2128076Y-17577856D01*
X2128074Y-17577848D01*
X2091043Y-17503482D01*
X2090149Y-17501607D01*
X2054355Y-17423227D01*
X2049121Y-17415877D01*
X2039129Y-17399224D01*
X2036503Y-17393950D01*
X2018115Y-17369601D01*
X1984487Y-17325070D01*
X1983460Y-17323670D01*
X1948484Y-17274553D01*
X1931559Y-17250785D01*
X1931554Y-17250780D01*
X1927546Y-17246958D01*
X1914153Y-17231931D01*
X1912708Y-17230018D01*
X1912704Y-17230013D01*
X1912701Y-17230009D01*
X1846418Y-17169585D01*
X1845468Y-17168698D01*
X1837691Y-17161283D01*
X1778346Y-17104697D01*
X1778343Y-17104694D01*
X1776601Y-17103575D01*
X1765480Y-17095029D01*
X1765456Y-17095062D01*
X1760877Y-17091604D01*
X1681442Y-17042420D01*
X1600258Y-16990246D01*
X1594999Y-16987535D01*
X1595032Y-16987470D01*
X1591512Y-16985692D01*
X1591351Y-16986016D01*
X1586222Y-16983462D01*
X1586218Y-16983460D01*
X1496232Y-16948600D01*
X1403722Y-16911564D01*
X1403714Y-16911562D01*
X1403470Y-16911515D01*
X1398257Y-16910273D01*
X1394658Y-16909249D01*
X1296677Y-16890933D01*
X1195850Y-16871500D01*
X1195849Y-16871500D01*
X1192718Y-16871500D01*
X987282Y-16871500D01*
X987276Y-16871500D01*
X937885Y-16880732D01*
X932386Y-16881507D01*
X879265Y-16886580D01*
X879261Y-16886580D01*
X879261Y-16886581D01*
X864439Y-16890933D01*
X834348Y-16899768D01*
X828271Y-16901224D01*
X785351Y-16909247D01*
X785338Y-16909250D01*
X735438Y-16928582D01*
X730509Y-16930257D01*
X676140Y-16946222D01*
X637459Y-16966162D01*
X631445Y-16968868D01*
X593781Y-16983460D01*
X593780Y-16983460D01*
X545474Y-17013370D01*
X541245Y-17015764D01*
X487977Y-17043226D01*
X456354Y-17068094D01*
X450665Y-17072073D01*
X419116Y-17091609D01*
X374708Y-17132091D01*
X371266Y-17135006D01*
X321565Y-17174093D01*
X297377Y-17202006D01*
X292290Y-17207224D01*
X267301Y-17230006D01*
X229111Y-17280576D01*
X226491Y-17283813D01*
X182936Y-17334079D01*
X166104Y-17363233D01*
X161884Y-17369601D01*
X143496Y-17393951D01*
X143491Y-17393960D01*
X113781Y-17453622D01*
X111976Y-17456985D01*
X77088Y-17517415D01*
X67158Y-17546103D01*
X64067Y-17553463D01*
X51928Y-17577842D01*
X51923Y-17577856D01*
X32782Y-17645128D01*
X31739Y-17648437D01*
X7846Y-17717475D01*
X3994Y-17744258D01*
X2258Y-17752404D01*
X-4294Y-17775437D01*
X-11051Y-17848351D01*
X-11418Y-17851453D01*
X-22281Y-17927010D01*
X-22281Y-17927015D01*
X-21151Y-17950769D01*
X-21345Y-17959445D01*
X-23249Y-17980003D01*
X-16193Y-18056158D01*
X-15999Y-18058927D01*
X-15674Y-18065749D01*
X-32145Y-18133649D01*
X-82711Y-18181866D01*
X-151318Y-18195090D01*
X-216183Y-18169123D01*
X-243340Y-18139474D01*
X-254278Y-18122732D01*
X-254281Y-18122729D01*
X-254285Y-18122723D01*
X-406757Y-17957097D01*
X-406762Y-17957092D01*
X-544475Y-17849905D01*
X-584424Y-17818811D01*
X-584425Y-17818810D01*
X-584428Y-17818808D01*
X-782420Y-17711661D01*
X-782423Y-17711659D01*
X-782426Y-17711658D01*
X-782429Y-17711657D01*
X-782431Y-17711656D01*
X-995363Y-17638556D01*
X-1217431Y-17601500D01*
X-1442569Y-17601500D01*
X-1664638Y-17638556D01*
X-1877570Y-17711656D01*
X-1877581Y-17711661D01*
X-2075573Y-17818808D01*
X-2075578Y-17818812D01*
X-2253239Y-17957092D01*
X-2253244Y-17957097D01*
X-2405716Y-18122723D01*
X-2405724Y-18122734D01*
X-2496192Y-18261205D01*
X-2549338Y-18306562D01*
X-2618570Y-18315985D01*
X-2681905Y-18286482D01*
X-2703808Y-18261205D01*
X-2723395Y-18231226D01*
X-2731164Y-18219335D01*
X-2732986Y-18216364D01*
X-2904561Y-17918185D01*
X-3258809Y-17302541D01*
X-3274269Y-17256890D01*
X-3277162Y-17234912D01*
X-3293769Y-17194818D01*
X-3338474Y-17086891D01*
X-3338477Y-17086886D01*
X-3412765Y-16990071D01*
X-3412785Y-16990047D01*
X-3423832Y-16975651D01*
X-3436013Y-16959776D01*
X-3436015Y-16959774D01*
X-3436016Y-16959773D01*
X-3453677Y-16946222D01*
X-3464707Y-16937758D01*
X-3470797Y-16932417D01*
X-4721302Y-15681913D01*
X-4754786Y-15620590D01*
X-4749802Y-15550898D01*
X-4707930Y-15494965D01*
X-4642466Y-15470548D01*
X-4592665Y-15477191D01*
X-4429858Y-15534160D01*
X-4429852Y-15534161D01*
X-4429850Y-15534162D01*
X-4429849Y-15534162D01*
X-4429845Y-15534163D01*
X-4260004Y-15553299D01*
X-4260000Y-15553299D01*
X-4259996Y-15553299D01*
X-4090157Y-15534163D01*
X-4090157Y-15534162D01*
X-4090150Y-15534162D01*
X-4033698Y-15514407D01*
X-4013791Y-15509250D01*
X-3995851Y-15506163D01*
X-3682102Y-15404534D01*
X-3643890Y-15398500D01*
X-1936111Y-15398500D01*
X-1897900Y-15404534D01*
X-1584151Y-15506163D01*
X-1551806Y-15515480D01*
X-1551789Y-15515481D01*
X-1546460Y-15516522D01*
X-1546537Y-15516913D01*
X-1525936Y-15521534D01*
X-1489850Y-15534162D01*
X-1489846Y-15534162D01*
X-1489844Y-15534163D01*
X-1320004Y-15553299D01*
X-1320000Y-15553299D01*
X-1319996Y-15553299D01*
X-1150156Y-15534163D01*
X-1150153Y-15534162D01*
X-1150150Y-15534162D01*
X-988817Y-15477709D01*
X-844091Y-15386771D01*
X-723229Y-15265909D01*
X-632291Y-15121183D01*
X-575838Y-14959850D01*
X-575837Y-14959844D01*
X-556701Y-14790003D01*
X-556701Y-14789996D01*
X-575837Y-14620155D01*
X-575838Y-14620150D01*
X-580776Y-14606038D01*
X-632291Y-14458817D01*
X-723229Y-14314091D01*
X-844091Y-14193229D01*
X-844092Y-14193228D01*
X-988817Y-14102291D01*
X-1150151Y-14045837D01*
X-1150156Y-14045836D01*
X-1319996Y-14026701D01*
X-1320004Y-14026701D01*
X-1489849Y-14045837D01*
X-1489850Y-14045837D01*
X-1546291Y-14065586D01*
X-1566200Y-14070745D01*
X-1584143Y-14073834D01*
X-1584150Y-14073836D01*
X-1897902Y-14175466D01*
X-1936113Y-14181500D01*
X-3643888Y-14181500D01*
X-3682099Y-14175466D01*
X-3725859Y-14161291D01*
X-3995851Y-14073836D01*
X-4006581Y-14070745D01*
X-4028192Y-14064519D01*
X-4033535Y-14063477D01*
X-4033460Y-14063090D01*
X-4054067Y-14058463D01*
X-4074485Y-14051319D01*
X-4090150Y-14045838D01*
X-4090152Y-14045837D01*
X-4090157Y-14045836D01*
X-4259996Y-14026701D01*
X-4260004Y-14026701D01*
X-4429845Y-14045836D01*
X-4429850Y-14045837D01*
X-4591184Y-14102291D01*
X-4735909Y-14193228D01*
X-4856772Y-14314091D01*
X-4947709Y-14458816D01*
X-5004163Y-14620150D01*
X-5004164Y-14620155D01*
X-5023299Y-14789996D01*
X-5023299Y-14790003D01*
X-5004164Y-14959844D01*
X-5004163Y-14959849D01*
X-4947191Y-15122664D01*
X-4943630Y-15192443D01*
X-4978359Y-15253071D01*
X-5040352Y-15285298D01*
X-5109928Y-15278893D01*
X-5151914Y-15251300D01*
X-8173033Y-12230181D01*
X-8206518Y-12168858D01*
X-8201534Y-12099166D01*
X-8159662Y-12043233D01*
X-8094198Y-12018816D01*
X-8085352Y-12018500D01*
X-310119Y-12018500D01*
X-254802Y-12031523D01*
G37*
%TD.AperFunction*%
%TA.AperFunction,Conductor*%
G36*
X-13227877Y-15373068D02*
G01*
X-13183527Y-15401570D01*
X-13135384Y-15449714D01*
X-13135372Y-15449723D01*
X-13105186Y-15467575D01*
X-13057502Y-15518643D01*
X-13044998Y-15587385D01*
X-13060918Y-15636306D01*
X-13108600Y-15718895D01*
X-13164365Y-15890523D01*
X-13178817Y-16028027D01*
X-13183229Y-16070000D01*
X-13177388Y-16125576D01*
X-13164365Y-16249476D01*
X-13125778Y-16368237D01*
X-13108599Y-16421107D01*
X-13018367Y-16577393D01*
X-12897613Y-16711504D01*
X-12867051Y-16733708D01*
X-12824387Y-16789036D01*
X-12818408Y-16858650D01*
X-12851013Y-16920445D01*
X-12852257Y-16921706D01*
X-13144970Y-17214419D01*
X-13193297Y-17244328D01*
X-14510767Y-17685243D01*
X-14519329Y-17688279D01*
X-14524381Y-17690173D01*
X-14549969Y-17701866D01*
X-14555605Y-17704115D01*
X-14577568Y-17711655D01*
X-14577577Y-17711659D01*
X-14775573Y-17818809D01*
X-14775578Y-17818812D01*
X-14953239Y-17957092D01*
X-14953244Y-17957097D01*
X-15105716Y-18122723D01*
X-15105724Y-18122734D01*
X-15191875Y-18254598D01*
X-15245021Y-18299955D01*
X-15314253Y-18309378D01*
X-15377588Y-18279876D01*
X-15406656Y-18242101D01*
X-15948477Y-17155197D01*
X-15961500Y-17099880D01*
X-15961500Y-16917674D01*
X-15941815Y-16850635D01*
X-15925181Y-16829993D01*
X-14536615Y-15441427D01*
X-14475292Y-15407942D01*
X-14405600Y-15412926D01*
X-14361253Y-15441426D01*
X-14355909Y-15446771D01*
X-14211183Y-15537709D01*
X-14049851Y-15594162D01*
X-14049850Y-15594162D01*
X-14049845Y-15594163D01*
X-13880004Y-15613299D01*
X-13880000Y-15613299D01*
X-13879996Y-15613299D01*
X-13710156Y-15594163D01*
X-13710153Y-15594162D01*
X-13710150Y-15594162D01*
X-13548817Y-15537709D01*
X-13404091Y-15446771D01*
X-13358889Y-15401568D01*
X-13297568Y-15368084D01*
X-13227877Y-15373068D01*
G37*
%TD.AperFunction*%
%TA.AperFunction,Conductor*%
G36*
X-8156297Y-14675567D02*
G01*
X-8149822Y-14681596D01*
X-7054818Y-15776601D01*
X-7021334Y-15837922D01*
X-7018500Y-15864280D01*
X-7018500Y-17099879D01*
X-7031525Y-17155200D01*
X-7570357Y-18236103D01*
X-7617883Y-18287319D01*
X-7685553Y-18304710D01*
X-7751884Y-18282755D01*
X-7791591Y-18237516D01*
X-8194055Y-17455329D01*
X-8347760Y-17156604D01*
X-8361500Y-17099871D01*
X-8361500Y-14769280D01*
X-8341815Y-14702241D01*
X-8289011Y-14656486D01*
X-8219853Y-14646542D01*
X-8156297Y-14675567D01*
G37*
%TD.AperFunction*%
%TA.AperFunction,Conductor*%
G36*
X-5596298Y-16528461D02*
G01*
X-5589820Y-16534493D01*
X-4718284Y-17406028D01*
X-4684799Y-17467351D01*
X-4689783Y-17537042D01*
X-4694622Y-17548288D01*
X-5029389Y-18231226D01*
X-5076572Y-18282758D01*
X-5144125Y-18300601D01*
X-5210601Y-18279089D01*
X-5251707Y-18231968D01*
X-5788475Y-17155201D01*
X-5801500Y-17099880D01*
X-5801500Y-16861334D01*
X-5801500Y-16622170D01*
X-5781817Y-16555135D01*
X-5729013Y-16509380D01*
X-5659854Y-16499436D01*
X-5596298Y-16528461D01*
G37*
%TD.AperFunction*%
%TA.AperFunction,Conductor*%
G36*
X-32521372Y-16058185D02*
G01*
X-32475617Y-16110989D01*
X-32465673Y-16180147D01*
X-32494698Y-16243703D01*
X-32500730Y-16250181D01*
X-33226202Y-16975651D01*
X-33269054Y-17003583D01*
X-34438353Y-17456985D01*
X-34750052Y-17577848D01*
X-34789420Y-17593113D01*
X-34834249Y-17601500D01*
X-35248655Y-17601500D01*
X-35309203Y-17608011D01*
X-35309205Y-17608011D01*
X-35446205Y-17659111D01*
X-35563264Y-17746741D01*
X-35633861Y-17841047D01*
X-35689795Y-17882918D01*
X-35759486Y-17887902D01*
X-35820809Y-17854416D01*
X-35852204Y-17801330D01*
X-35897968Y-17643805D01*
X-35905262Y-17631473D01*
X-35922447Y-17563749D01*
X-35905264Y-17505227D01*
X-35890106Y-17479597D01*
X-35844394Y-17322254D01*
X-35841500Y-17285484D01*
X-35841500Y-16952801D01*
X-35821815Y-16885763D01*
X-35769011Y-16840008D01*
X-35767934Y-16839522D01*
X-35725389Y-16820580D01*
X-35725389Y-16820579D01*
X-35725385Y-16820578D01*
X-35579387Y-16714504D01*
X-35576685Y-16711504D01*
X-35553225Y-16685447D01*
X-35458633Y-16580393D01*
X-35368401Y-16424107D01*
X-35312635Y-16252475D01*
X-35306352Y-16192691D01*
X-35279768Y-16128077D01*
X-35270710Y-16117969D01*
X-35227556Y-16074817D01*
X-35166232Y-16041333D01*
X-35139877Y-16038500D01*
X-32588411Y-16038500D01*
X-32521372Y-16058185D01*
G37*
%TD.AperFunction*%
%TA.AperFunction,Conductor*%
G36*
X-30501372Y-16578185D02*
G01*
X-30455617Y-16630989D01*
X-30445673Y-16700147D01*
X-30474698Y-16763703D01*
X-30480730Y-16770181D01*
X-30924970Y-17214419D01*
X-30973298Y-17244328D01*
X-31676973Y-17479825D01*
X-31746794Y-17482434D01*
X-31806941Y-17446881D01*
X-31838319Y-17384453D01*
X-31830965Y-17314972D01*
X-31804010Y-17274558D01*
X-31124271Y-16594819D01*
X-31062947Y-16561334D01*
X-31036589Y-16558500D01*
X-30568411Y-16558500D01*
X-30501372Y-16578185D01*
G37*
%TD.AperFunction*%
%TA.AperFunction,Conductor*%
G36*
X-28261373Y-16878185D02*
G01*
X-28215618Y-16930989D01*
X-28205674Y-17000147D01*
X-28234699Y-17063703D01*
X-28240724Y-17070173D01*
X-28325750Y-17155200D01*
X-28384970Y-17214420D01*
X-28433298Y-17244328D01*
X-29136973Y-17479825D01*
X-29206794Y-17482434D01*
X-29266941Y-17446881D01*
X-29298319Y-17384453D01*
X-29290965Y-17314972D01*
X-29264010Y-17274558D01*
X-28884271Y-16894819D01*
X-28822947Y-16861334D01*
X-28796589Y-16858500D01*
X-28328412Y-16858500D01*
X-28261373Y-16878185D01*
G37*
%TD.AperFunction*%
%TA.AperFunction,Conductor*%
G36*
X-9626297Y-13912674D02*
G01*
X-9619819Y-13918706D01*
X-9614819Y-13923706D01*
X-9581334Y-13985029D01*
X-9578500Y-14011387D01*
X-9578500Y-17107140D01*
X-9590945Y-17161283D01*
X-9595945Y-17171585D01*
X-9642925Y-17223301D01*
X-9710408Y-17241408D01*
X-9776967Y-17220157D01*
X-9821471Y-17166294D01*
X-9831500Y-17117442D01*
X-9831500Y-14006387D01*
X-9811815Y-13939348D01*
X-9759011Y-13893593D01*
X-9689853Y-13883649D01*
X-9626297Y-13912674D01*
G37*
%TD.AperFunction*%
%TA.AperFunction,Conductor*%
G36*
X-31560000Y-2587376D02*
G01*
X-31579685Y-2654415D01*
X-31596319Y-2675057D01*
X-33004248Y-4082987D01*
X-33004249Y-4082988D01*
X-33194546Y-4273284D01*
X-33207215Y-4283435D01*
X-33207069Y-4283611D01*
X-33213081Y-4288584D01*
X-33262288Y-4340983D01*
X-33263643Y-4342381D01*
X-33976547Y-5055285D01*
X-33989215Y-5065435D01*
X-33989069Y-5065611D01*
X-33995080Y-5070583D01*
X-34044287Y-5122983D01*
X-34045641Y-5124380D01*
X-34066928Y-5145667D01*
X-34071508Y-5151569D01*
X-34075292Y-5155998D01*
X-34108971Y-5191865D01*
X-34108976Y-5191872D01*
X-34119382Y-5210800D01*
X-34130058Y-5227054D01*
X-34143305Y-5244133D01*
X-34162850Y-5289297D01*
X-34165420Y-5294543D01*
X-34189124Y-5337661D01*
X-34194498Y-5358589D01*
X-34200797Y-5376987D01*
X-34209381Y-5396825D01*
X-34217077Y-5445420D01*
X-34218262Y-5451143D01*
X-34230500Y-5498809D01*
X-34230500Y-5520413D01*
X-34232026Y-5539808D01*
X-34235406Y-5561152D01*
X-34231294Y-5604649D01*
X-34230775Y-5610143D01*
X-34230500Y-5615981D01*
X-34230500Y-11483556D01*
X-34238022Y-11526087D01*
X-34466264Y-12151167D01*
X-34479431Y-12192595D01*
X-34479551Y-12193572D01*
X-34483957Y-12214384D01*
X-34516633Y-12322102D01*
X-34533778Y-12496193D01*
X-34535138Y-12510000D01*
X-34534658Y-12514872D01*
X-34516632Y-12697901D01*
X-34470402Y-12850298D01*
X-34469059Y-12855536D01*
X-34466263Y-12868830D01*
X-34466260Y-12868842D01*
X-34386892Y-13086204D01*
X-34338953Y-13217496D01*
X-34337674Y-13220997D01*
X-34333171Y-13290722D01*
X-34366471Y-13351209D01*
X-35901927Y-14886667D01*
X-35901933Y-14886671D01*
X-36086248Y-15070986D01*
X-36086250Y-15070989D01*
X-36199072Y-15183811D01*
X-36260395Y-15217296D01*
X-36260972Y-15217420D01*
X-36423752Y-15252019D01*
X-36423758Y-15252021D01*
X-36588614Y-15325421D01*
X-36588619Y-15325424D01*
X-36734612Y-15431494D01*
X-36734619Y-15431500D01*
X-36855368Y-15565608D01*
X-36945600Y-15721894D01*
X-37001366Y-15893527D01*
X-37007650Y-15953310D01*
X-37034235Y-16017924D01*
X-37043289Y-16028027D01*
X-37064547Y-16049285D01*
X-37077215Y-16059435D01*
X-37077069Y-16059611D01*
X-37083080Y-16064583D01*
X-37132287Y-16116983D01*
X-37133641Y-16118380D01*
X-37154928Y-16139667D01*
X-37159508Y-16145569D01*
X-37163292Y-16149998D01*
X-37196971Y-16185865D01*
X-37196976Y-16185872D01*
X-37207382Y-16204800D01*
X-37218058Y-16221054D01*
X-37227708Y-16233496D01*
X-37284349Y-16274405D01*
X-37325691Y-16281500D01*
X-37719457Y-16281500D01*
X-37786496Y-16261815D01*
X-37832251Y-16209011D01*
X-37842195Y-16139853D01*
X-37813170Y-16076297D01*
X-37807138Y-16069819D01*
X-37231497Y-15494178D01*
X-35489120Y-13751799D01*
X-35475494Y-13740023D01*
X-35455942Y-13725469D01*
X-35455940Y-13725467D01*
X-35421985Y-13685000D01*
X-35418325Y-13681005D01*
X-35412420Y-13675101D01*
X-35392404Y-13649785D01*
X-35391314Y-13648446D01*
X-35341968Y-13589640D01*
X-35341965Y-13589633D01*
X-35337997Y-13583603D01*
X-35337956Y-13583630D01*
X-35333781Y-13577076D01*
X-35333823Y-13577050D01*
X-35330037Y-13570910D01*
X-35330033Y-13570906D01*
X-35297599Y-13501347D01*
X-35296826Y-13499751D01*
X-35262391Y-13431188D01*
X-35262389Y-13431179D01*
X-35259920Y-13424399D01*
X-35259874Y-13424416D01*
X-35257322Y-13417075D01*
X-35257369Y-13417060D01*
X-35255099Y-13410210D01*
X-35255098Y-13410207D01*
X-35239572Y-13335008D01*
X-35239206Y-13333355D01*
X-35221500Y-13258656D01*
X-35221500Y-13258652D01*
X-35221499Y-13258648D01*
X-35220661Y-13251483D01*
X-35220614Y-13251488D01*
X-35219824Y-13243757D01*
X-35219871Y-13243753D01*
X-35219242Y-13236562D01*
X-35221474Y-13159840D01*
X-35221500Y-13158037D01*
X-35221500Y-4402225D01*
X-35201815Y-4335186D01*
X-35149011Y-4289431D01*
X-35109330Y-4279583D01*
X-35109407Y-4278919D01*
X-35105824Y-4278500D01*
X-35105820Y-4278500D01*
X-35073729Y-4274748D01*
X-35072098Y-4274581D01*
X-35012586Y-4269375D01*
X-34995581Y-4267888D01*
X-34995578Y-4267887D01*
X-34995574Y-4267887D01*
X-34995571Y-4267885D01*
X-34988507Y-4266427D01*
X-34988498Y-4266474D01*
X-34980903Y-4264790D01*
X-34980913Y-4264744D01*
X-34973894Y-4263079D01*
X-34973887Y-4263079D01*
X-34901717Y-4236810D01*
X-34900147Y-4236264D01*
X-34827262Y-4212114D01*
X-34827256Y-4212110D01*
X-34820716Y-4209061D01*
X-34820695Y-4209106D01*
X-34813698Y-4205719D01*
X-34813720Y-4205675D01*
X-34807272Y-4202436D01*
X-34807268Y-4202435D01*
X-34743139Y-4160254D01*
X-34741674Y-4159320D01*
X-34676349Y-4119030D01*
X-34676344Y-4119024D01*
X-34670681Y-4114548D01*
X-34670650Y-4114587D01*
X-34664626Y-4109680D01*
X-34664658Y-4109642D01*
X-34659136Y-4105006D01*
X-34659126Y-4105001D01*
X-34606423Y-4049137D01*
X-34605229Y-4047909D01*
X-34027404Y-3470083D01*
X-34024782Y-3467611D01*
X-33999074Y-3444773D01*
X-33984273Y-3427256D01*
X-33980785Y-3423464D01*
X-33859120Y-3301799D01*
X-33845494Y-3290023D01*
X-33825942Y-3275469D01*
X-33825940Y-3275467D01*
X-33791985Y-3235000D01*
X-33788325Y-3231005D01*
X-33782419Y-3225100D01*
X-33762406Y-3199787D01*
X-33761314Y-3198446D01*
X-33711968Y-3139640D01*
X-33711967Y-3139637D01*
X-33707996Y-3133601D01*
X-33707955Y-3133628D01*
X-33703781Y-3127076D01*
X-33703824Y-3127050D01*
X-33700039Y-3120912D01*
X-33700033Y-3120905D01*
X-33675809Y-3068955D01*
X-33658146Y-3041333D01*
X-33371055Y-2701604D01*
X-33319679Y-2665462D01*
X-33253801Y-2640891D01*
X-33253801Y-2640890D01*
X-33253796Y-2640889D01*
X-33136739Y-2553261D01*
X-33049111Y-2436204D01*
X-33000777Y-2306615D01*
X-32958907Y-2250686D01*
X-32893443Y-2226269D01*
X-32825170Y-2241121D01*
X-32796916Y-2262272D01*
X-32681083Y-2378105D01*
X-32487579Y-2513600D01*
X-32273493Y-2613429D01*
X-32273484Y-2613433D01*
X-32060000Y-2670634D01*
X-32060000Y-1775501D01*
X-31952315Y-1824680D01*
X-31845763Y-1840000D01*
X-31774237Y-1840000D01*
X-31667685Y-1824680D01*
X-31560000Y-1775501D01*
X-31560000Y-2587376D01*
G37*
%TD.AperFunction*%
%TA.AperFunction,Conductor*%
G36*
X-24844818Y-13129815D02*
G01*
X-24811334Y-13191138D01*
X-24808500Y-13217496D01*
X-24808500Y-13915979D01*
X-24828185Y-13983018D01*
X-24880989Y-14028773D01*
X-24950147Y-14038717D01*
X-25003082Y-14017931D01*
X-25141812Y-13921887D01*
X-25141813Y-13921886D01*
X-25174423Y-13902931D01*
X-25175390Y-13902369D01*
X-25181389Y-13898399D01*
X-25187809Y-13893593D01*
X-25193796Y-13889111D01*
X-25193799Y-13889110D01*
X-25193800Y-13889109D01*
X-25200377Y-13886656D01*
X-25207721Y-13883359D01*
X-25211847Y-13881174D01*
X-25215171Y-13879579D01*
X-25215173Y-13879578D01*
X-25247116Y-13869165D01*
X-25249559Y-13868312D01*
X-25317592Y-13842937D01*
X-25330799Y-13838011D01*
X-25330800Y-13838010D01*
X-25330801Y-13838010D01*
X-25391346Y-13831500D01*
X-25391362Y-13831500D01*
X-26580086Y-13831500D01*
X-26591232Y-13830352D01*
X-26591251Y-13830637D01*
X-26599773Y-13830059D01*
X-26618166Y-13831348D01*
X-26622500Y-13831500D01*
X-26688655Y-13831500D01*
X-26749198Y-13838010D01*
X-26749207Y-13838012D01*
X-26774074Y-13847287D01*
X-26779421Y-13849009D01*
X-26807408Y-13856646D01*
X-26828901Y-13867367D01*
X-26834910Y-13869977D01*
X-26886200Y-13889108D01*
X-26886206Y-13889111D01*
X-26904668Y-13902931D01*
X-26923611Y-13914615D01*
X-26938193Y-13921890D01*
X-27100781Y-14034452D01*
X-27167105Y-14056427D01*
X-27171363Y-14056500D01*
X-29208637Y-14056500D01*
X-29275676Y-14036815D01*
X-29279219Y-14034452D01*
X-29441813Y-13921886D01*
X-29474423Y-13902931D01*
X-29475390Y-13902369D01*
X-29481389Y-13898399D01*
X-29487809Y-13893593D01*
X-29493796Y-13889111D01*
X-29493799Y-13889110D01*
X-29493800Y-13889109D01*
X-29500377Y-13886656D01*
X-29507721Y-13883359D01*
X-29511847Y-13881174D01*
X-29515171Y-13879579D01*
X-29515173Y-13879578D01*
X-29547116Y-13869165D01*
X-29549559Y-13868312D01*
X-29617592Y-13842937D01*
X-29630799Y-13838011D01*
X-29630800Y-13838010D01*
X-29630801Y-13838010D01*
X-29691346Y-13831500D01*
X-29691362Y-13831500D01*
X-30880086Y-13831500D01*
X-30891232Y-13830352D01*
X-30891251Y-13830637D01*
X-30899773Y-13830059D01*
X-30918166Y-13831348D01*
X-30922500Y-13831500D01*
X-30988655Y-13831500D01*
X-31049198Y-13838010D01*
X-31049207Y-13838012D01*
X-31074074Y-13847287D01*
X-31079421Y-13849009D01*
X-31107408Y-13856646D01*
X-31128901Y-13867367D01*
X-31134910Y-13869977D01*
X-31186200Y-13889108D01*
X-31193985Y-13893360D01*
X-31194837Y-13891800D01*
X-31250267Y-13912464D01*
X-31272973Y-13911999D01*
X-31294020Y-13909628D01*
X-31320000Y-13906701D01*
X-31320002Y-13906701D01*
X-31320003Y-13906701D01*
X-31320004Y-13906701D01*
X-31489845Y-13925836D01*
X-31489850Y-13925837D01*
X-31651184Y-13982291D01*
X-31795909Y-14073228D01*
X-31916772Y-14194091D01*
X-32007709Y-14338816D01*
X-32064163Y-14500150D01*
X-32064164Y-14500155D01*
X-32076695Y-14611383D01*
X-32103761Y-14675797D01*
X-32161356Y-14715352D01*
X-32199915Y-14721500D01*
X-33574878Y-14721500D01*
X-33641917Y-14701815D01*
X-33687672Y-14649011D01*
X-33697616Y-14579853D01*
X-33668591Y-14516297D01*
X-33662559Y-14509819D01*
X-33539219Y-14386479D01*
X-33167457Y-14014715D01*
X-33154786Y-14004566D01*
X-33154932Y-14004389D01*
X-33148926Y-13999419D01*
X-33148920Y-13999416D01*
X-33099661Y-13946959D01*
X-33098389Y-13945647D01*
X-33077073Y-13924333D01*
X-33072505Y-13918442D01*
X-33068718Y-13914008D01*
X-33035028Y-13878133D01*
X-33024620Y-13859200D01*
X-33013941Y-13842942D01*
X-33000696Y-13825868D01*
X-32981148Y-13780691D01*
X-32978591Y-13775472D01*
X-32954876Y-13732337D01*
X-32949505Y-13711413D01*
X-32943204Y-13693009D01*
X-32934620Y-13673176D01*
X-32929267Y-13639372D01*
X-32926922Y-13624569D01*
X-32925737Y-13618844D01*
X-32913500Y-13571188D01*
X-32913500Y-13549580D01*
X-32911975Y-13530193D01*
X-32908594Y-13508848D01*
X-32908595Y-13508844D01*
X-32908299Y-13506979D01*
X-32902305Y-13483849D01*
X-32841958Y-13318580D01*
X-32800476Y-13262362D01*
X-32767358Y-13244399D01*
X-32590037Y-13180784D01*
X-32548163Y-13173500D01*
X-31435009Y-13173500D01*
X-31376226Y-13188319D01*
X-31195508Y-13285629D01*
X-31193551Y-13286879D01*
X-31184083Y-13292048D01*
X-31180953Y-13293466D01*
X-31177460Y-13295347D01*
X-31177454Y-13295349D01*
X-31177450Y-13295352D01*
X-31165610Y-13300967D01*
X-31153759Y-13306588D01*
X-31139432Y-13312507D01*
X-31119540Y-13318382D01*
X-31087766Y-13327767D01*
X-31083657Y-13329137D01*
X-31049201Y-13341989D01*
X-31032221Y-13343814D01*
X-30988655Y-13348499D01*
X-30988638Y-13348500D01*
X-30896649Y-13348500D01*
X-30894184Y-13348549D01*
X-30894058Y-13348554D01*
X-30890539Y-13348694D01*
X-30890539Y-13348693D01*
X-30890538Y-13348694D01*
X-30885383Y-13348531D01*
X-30883423Y-13348500D01*
X-29699526Y-13348500D01*
X-29696950Y-13348554D01*
X-29691457Y-13348782D01*
X-29691455Y-13348782D01*
X-29682546Y-13347877D01*
X-29677276Y-13347053D01*
X-29674422Y-13346678D01*
X-29630799Y-13341989D01*
X-29493796Y-13290889D01*
X-29493793Y-13290886D01*
X-29493791Y-13290886D01*
X-29486417Y-13286859D01*
X-29484478Y-13285620D01*
X-29357959Y-13217496D01*
X-29303776Y-13188321D01*
X-29244989Y-13173500D01*
X-27135009Y-13173500D01*
X-27076226Y-13188319D01*
X-26895508Y-13285629D01*
X-26893551Y-13286879D01*
X-26884083Y-13292048D01*
X-26880953Y-13293466D01*
X-26877460Y-13295347D01*
X-26877454Y-13295349D01*
X-26877450Y-13295352D01*
X-26865610Y-13300967D01*
X-26853759Y-13306588D01*
X-26839432Y-13312507D01*
X-26819540Y-13318382D01*
X-26787766Y-13327767D01*
X-26783657Y-13329137D01*
X-26749201Y-13341989D01*
X-26732221Y-13343814D01*
X-26688655Y-13348499D01*
X-26688638Y-13348500D01*
X-26596649Y-13348500D01*
X-26594184Y-13348549D01*
X-26594058Y-13348554D01*
X-26590539Y-13348694D01*
X-26590539Y-13348693D01*
X-26590538Y-13348694D01*
X-26585383Y-13348531D01*
X-26583423Y-13348500D01*
X-25391362Y-13348500D01*
X-25391346Y-13348499D01*
X-25364308Y-13345591D01*
X-25330799Y-13341989D01*
X-25193796Y-13290889D01*
X-25076739Y-13203261D01*
X-25031766Y-13143184D01*
X-24975833Y-13101314D01*
X-24906141Y-13096330D01*
X-24844818Y-13129815D01*
G37*
%TD.AperFunction*%
%TA.AperFunction,Conductor*%
G36*
X-20356960Y-5468185D02*
G01*
X-20311205Y-5520989D01*
X-20299999Y-5572500D01*
X-20299999Y-5604649D01*
X-20297146Y-5640911D01*
X-20252032Y-5796194D01*
X-20244737Y-5808530D01*
X-20227554Y-5876254D01*
X-20244736Y-5934771D01*
X-20259894Y-5960401D01*
X-20259895Y-5960404D01*
X-20305606Y-6117741D01*
X-20305607Y-6117747D01*
X-20308500Y-6154510D01*
X-20308500Y-6565489D01*
X-20305607Y-6602252D01*
X-20305606Y-6602258D01*
X-20259896Y-6759592D01*
X-20256796Y-6766755D01*
X-20258778Y-6767612D01*
X-20244320Y-6824607D01*
X-20258393Y-6872554D01*
X-20256796Y-6873245D01*
X-20259896Y-6880407D01*
X-20305606Y-7037741D01*
X-20305607Y-7037747D01*
X-20308500Y-7074510D01*
X-20308500Y-7485489D01*
X-20305607Y-7522252D01*
X-20305606Y-7522258D01*
X-20259896Y-7679592D01*
X-20259893Y-7679599D01*
X-20244736Y-7705229D01*
X-20227555Y-7772953D01*
X-20244735Y-7831466D01*
X-20252032Y-7843804D01*
X-20294504Y-7990000D01*
X-20004067Y-7990000D01*
X-19940947Y-8007267D01*
X-19919597Y-8019894D01*
X-19775708Y-8061697D01*
X-19746560Y-8074413D01*
X-19467271Y-8241815D01*
X-19460852Y-8245662D01*
X-19436920Y-8264339D01*
X-19276319Y-8424940D01*
X-19242834Y-8486263D01*
X-19240000Y-8512621D01*
X-19240000Y-9018789D01*
X-19219090Y-9017145D01*
X-19063805Y-8972031D01*
X-18920727Y-8887415D01*
X-18853004Y-8870232D01*
X-18786741Y-8892392D01*
X-18770558Y-8908015D01*
X-18769532Y-8906990D01*
X-18763260Y-8913262D01*
X-18740248Y-8930489D01*
X-18698377Y-8986423D01*
X-18693393Y-9056114D01*
X-18707826Y-9092875D01*
X-18732033Y-9133806D01*
X-18732034Y-9133809D01*
X-18777145Y-9289081D01*
X-18777146Y-9289087D01*
X-18778791Y-9309999D01*
X-18778790Y-9310000D01*
X-17952500Y-9310000D01*
X-17885461Y-9329685D01*
X-17839706Y-9382489D01*
X-17828500Y-9434000D01*
X-17828500Y-9795489D01*
X-17825607Y-9832248D01*
X-17825606Y-9832254D01*
X-17801741Y-9914401D01*
X-17800194Y-9921087D01*
X-17795147Y-9950127D01*
X-17795145Y-9950137D01*
X-17756096Y-10070028D01*
X-17750000Y-10108429D01*
X-17750000Y-10361568D01*
X-17756096Y-10399969D01*
X-17795146Y-10519864D01*
X-17805821Y-10569107D01*
X-17806875Y-10573268D01*
X-17825607Y-10637746D01*
X-17828500Y-10674510D01*
X-17828500Y-11145489D01*
X-17825607Y-11182248D01*
X-17825606Y-11182254D01*
X-17801741Y-11264401D01*
X-17800194Y-11271087D01*
X-17795148Y-11300125D01*
X-17795146Y-11300131D01*
X-17764146Y-11395313D01*
X-17756096Y-11420027D01*
X-17750000Y-11458428D01*
X-17750001Y-11714504D01*
X-17748048Y-11715970D01*
X-17706257Y-11771963D01*
X-17698500Y-11815131D01*
X-17698500Y-12425877D01*
X-17718185Y-12492916D01*
X-17734819Y-12513558D01*
X-19042506Y-13821244D01*
X-19103829Y-13854729D01*
X-19173521Y-13849745D01*
X-19197662Y-13836082D01*
X-19198196Y-13836933D01*
X-19348815Y-13742292D01*
X-19350757Y-13741356D01*
X-19355221Y-13739446D01*
X-19654099Y-13586819D01*
X-19685385Y-13564066D01*
X-20844070Y-12405381D01*
X-20866823Y-12374095D01*
X-20902338Y-12304548D01*
X-21016813Y-12080379D01*
X-21016818Y-12080370D01*
X-21017275Y-12079475D01*
X-21017183Y-12079427D01*
X-21019111Y-12075022D01*
X-21019266Y-12075097D01*
X-21022289Y-12068821D01*
X-21022291Y-12068818D01*
X-21022291Y-12068817D01*
X-21028952Y-12058217D01*
X-21030709Y-12055237D01*
X-21033089Y-12050931D01*
X-21033771Y-12049919D01*
X-21037037Y-12045348D01*
X-21113229Y-11924091D01*
X-21234092Y-11803228D01*
X-21378817Y-11712291D01*
X-21540151Y-11655837D01*
X-21540156Y-11655836D01*
X-21709996Y-11636701D01*
X-21710004Y-11636701D01*
X-21879845Y-11655836D01*
X-21879850Y-11655837D01*
X-22041184Y-11712291D01*
X-22185909Y-11803228D01*
X-22306772Y-11924091D01*
X-22397709Y-12068816D01*
X-22454163Y-12230150D01*
X-22454164Y-12230155D01*
X-22473299Y-12399996D01*
X-22473299Y-12400003D01*
X-22454164Y-12569844D01*
X-22454163Y-12569849D01*
X-22397709Y-12731183D01*
X-22311213Y-12868841D01*
X-22306771Y-12875909D01*
X-22185909Y-12996771D01*
X-22041183Y-13087709D01*
X-22041179Y-13087710D01*
X-22039253Y-13088638D01*
X-22034779Y-13090553D01*
X-22029624Y-13093185D01*
X-22029623Y-13093186D01*
X-21735903Y-13243178D01*
X-21704619Y-13265930D01*
X-20545934Y-14424615D01*
X-20523181Y-14455901D01*
X-20479670Y-14541105D01*
X-20466712Y-14609762D01*
X-20492929Y-14674527D01*
X-20549999Y-14714835D01*
X-20590104Y-14721500D01*
X-23268958Y-14721500D01*
X-23335997Y-14701815D01*
X-23381752Y-14649011D01*
X-23392178Y-14611383D01*
X-23405837Y-14490152D01*
X-23405838Y-14490151D01*
X-23414587Y-14465149D01*
X-23416863Y-14456834D01*
X-23417408Y-14454114D01*
X-23417408Y-14454107D01*
X-23484134Y-14120906D01*
X-23489086Y-14096176D01*
X-23491500Y-14071828D01*
X-23491500Y-12006551D01*
X-23485404Y-11968150D01*
X-23444213Y-11841678D01*
X-23394855Y-11690133D01*
X-23384169Y-11640842D01*
X-23383129Y-11636736D01*
X-23364394Y-11572254D01*
X-23361500Y-11535484D01*
X-23361500Y-11160000D01*
X-18778790Y-11160000D01*
X-18777146Y-11180910D01*
X-18732032Y-11336195D01*
X-18649722Y-11475374D01*
X-18649715Y-11475383D01*
X-18535384Y-11589714D01*
X-18535375Y-11589721D01*
X-18396196Y-11672031D01*
X-18250000Y-11714504D01*
X-18250000Y-11160000D01*
X-18778790Y-11160000D01*
X-23361500Y-11160000D01*
X-23361500Y-11064516D01*
X-23364394Y-11027746D01*
X-23369545Y-11010017D01*
X-23398052Y-10911895D01*
X-23410106Y-10870403D01*
X-23493512Y-10729371D01*
X-23493514Y-10729369D01*
X-23493517Y-10729365D01*
X-23562883Y-10659999D01*
X-18778791Y-10659999D01*
X-18778790Y-10660000D01*
X-18250000Y-10660000D01*
X-18250000Y-9810000D01*
X-18778790Y-9810000D01*
X-18777146Y-9830910D01*
X-18732032Y-9986195D01*
X-18649722Y-10125374D01*
X-18649715Y-10125383D01*
X-18627779Y-10147319D01*
X-18594294Y-10208642D01*
X-18599278Y-10278334D01*
X-18627779Y-10322681D01*
X-18649715Y-10344616D01*
X-18649722Y-10344625D01*
X-18732032Y-10483804D01*
X-18732034Y-10483809D01*
X-18777145Y-10639081D01*
X-18777146Y-10639087D01*
X-18778791Y-10659999D01*
X-23562883Y-10659999D01*
X-23609366Y-10613516D01*
X-23609374Y-10613510D01*
X-23750403Y-10530106D01*
X-23750408Y-10530104D01*
X-23907742Y-10484394D01*
X-23907748Y-10484393D01*
X-23944511Y-10481500D01*
X-23944516Y-10481500D01*
X-24355484Y-10481500D01*
X-24355490Y-10481500D01*
X-24392253Y-10484393D01*
X-24392259Y-10484394D01*
X-24549596Y-10530105D01*
X-24549599Y-10530106D01*
X-24575229Y-10545264D01*
X-24642953Y-10562446D01*
X-24701472Y-10545262D01*
X-24713806Y-10537967D01*
X-24713810Y-10537966D01*
X-24859999Y-10495493D01*
X-24860000Y-10495494D01*
X-24860000Y-10785931D01*
X-24877267Y-10849050D01*
X-24889892Y-10870397D01*
X-24889896Y-10870407D01*
X-24935606Y-11027741D01*
X-24935607Y-11027747D01*
X-24938500Y-11064510D01*
X-24938500Y-11426000D01*
X-24958185Y-11493039D01*
X-25010989Y-11538794D01*
X-25062500Y-11550000D01*
X-25888790Y-11550000D01*
X-25889621Y-11550898D01*
X-25903332Y-11616153D01*
X-25952386Y-11665908D01*
X-26012583Y-11681500D01*
X-26680272Y-11681500D01*
X-26682850Y-11681446D01*
X-26683822Y-11681405D01*
X-26688493Y-11681210D01*
X-26697388Y-11682113D01*
X-26702689Y-11682940D01*
X-26705609Y-11683324D01*
X-26749198Y-11688010D01*
X-26749201Y-11688010D01*
X-26749201Y-11688011D01*
X-26754874Y-11690127D01*
X-26886205Y-11739111D01*
X-26893543Y-11743116D01*
X-26895500Y-11744365D01*
X-27076223Y-11841678D01*
X-27135011Y-11856500D01*
X-29244988Y-11856500D01*
X-29303776Y-11841678D01*
X-29484496Y-11744367D01*
X-29486423Y-11743137D01*
X-29495938Y-11737941D01*
X-29499027Y-11736541D01*
X-29502532Y-11734655D01*
X-29502541Y-11734650D01*
X-29526289Y-11723389D01*
X-29531870Y-11721084D01*
X-29540645Y-11717461D01*
X-29540650Y-11717459D01*
X-29540651Y-11717459D01*
X-29592335Y-11702195D01*
X-29596441Y-11700825D01*
X-29625126Y-11690127D01*
X-29630799Y-11688011D01*
X-29630801Y-11688010D01*
X-29630803Y-11688010D01*
X-29691346Y-11681500D01*
X-29691362Y-11681500D01*
X-29783140Y-11681500D01*
X-29785577Y-11681451D01*
X-29787791Y-11681363D01*
X-29789416Y-11681298D01*
X-29794810Y-11681469D01*
X-29796763Y-11681500D01*
X-30420856Y-11681500D01*
X-30487895Y-11661815D01*
X-30533650Y-11609011D01*
X-30544474Y-11547770D01*
X-30544371Y-11546466D01*
X-30541500Y-11509989D01*
X-30541501Y-11049999D01*
X-25888791Y-11049999D01*
X-25888790Y-11050000D01*
X-25360000Y-11050000D01*
X-25360000Y-10495494D01*
X-25360002Y-10495493D01*
X-25506191Y-10537965D01*
X-25506194Y-10537967D01*
X-25645375Y-10620278D01*
X-25645384Y-10620285D01*
X-25759715Y-10734616D01*
X-25759722Y-10734625D01*
X-25842032Y-10873804D01*
X-25842034Y-10873809D01*
X-25887145Y-11029081D01*
X-25887146Y-11029087D01*
X-25888791Y-11049999D01*
X-30541501Y-11049999D01*
X-30541501Y-11010012D01*
X-30544371Y-10973534D01*
X-30589731Y-10817404D01*
X-30672494Y-10677459D01*
X-30672496Y-10677457D01*
X-30672499Y-10677453D01*
X-30787454Y-10562498D01*
X-30787462Y-10562492D01*
X-30914107Y-10487595D01*
X-30927404Y-10479731D01*
X-30927405Y-10479730D01*
X-30927406Y-10479730D01*
X-30927409Y-10479729D01*
X-31083527Y-10434372D01*
X-31083539Y-10434370D01*
X-31115823Y-10431829D01*
X-31120011Y-10431500D01*
X-31120012Y-10431500D01*
X-31519978Y-10431500D01*
X-31520000Y-10431501D01*
X-31556467Y-10434371D01*
X-31712592Y-10479729D01*
X-31712596Y-10479730D01*
X-31775230Y-10516772D01*
X-31842955Y-10533953D01*
X-31901470Y-10516771D01*
X-31950805Y-10487595D01*
X-31950812Y-10487591D01*
X-32089999Y-10447153D01*
X-32090001Y-10447154D01*
X-32090001Y-10936511D01*
X-32094920Y-10971090D01*
X-32095627Y-10973522D01*
X-32095630Y-10973539D01*
X-32098500Y-11010005D01*
X-32098500Y-11010011D01*
X-32098500Y-11210802D01*
X-32098499Y-11386000D01*
X-32118183Y-11453039D01*
X-32170987Y-11498794D01*
X-32222499Y-11510000D01*
X-32466000Y-11510000D01*
X-32533039Y-11490315D01*
X-32578794Y-11437511D01*
X-32590000Y-11386000D01*
X-32590000Y-10447154D01*
X-32590002Y-10447153D01*
X-32729189Y-10487591D01*
X-32736349Y-10490691D01*
X-32737219Y-10488680D01*
X-32794104Y-10503113D01*
X-32860366Y-10480952D01*
X-32904129Y-10426486D01*
X-32913500Y-10379198D01*
X-32913500Y-10064763D01*
X-32893815Y-9997724D01*
X-32841011Y-9951969D01*
X-32771853Y-9942025D01*
X-32726380Y-9958031D01*
X-32722596Y-9960269D01*
X-32722593Y-9960269D01*
X-32722591Y-9960271D01*
X-32566474Y-10005627D01*
X-32566472Y-10005627D01*
X-32566466Y-10005629D01*
X-32529989Y-10008500D01*
X-32130012Y-10008499D01*
X-32093534Y-10005629D01*
X-31937404Y-9960269D01*
X-31883121Y-9928165D01*
X-31815399Y-9910982D01*
X-31756880Y-9928165D01*
X-31702596Y-9960269D01*
X-31702589Y-9960271D01*
X-31546474Y-10005627D01*
X-31546472Y-10005627D01*
X-31546466Y-10005629D01*
X-31509989Y-10008500D01*
X-31110012Y-10008499D01*
X-31073534Y-10005629D01*
X-30917404Y-9960269D01*
X-30777459Y-9877506D01*
X-30662494Y-9762541D01*
X-30579731Y-9622596D01*
X-30555644Y-9539685D01*
X-30532603Y-9460382D01*
X-30531891Y-9460588D01*
X-30517947Y-9424420D01*
X-30515204Y-9420000D01*
X-25878790Y-9420000D01*
X-25877146Y-9440910D01*
X-25832032Y-9596195D01*
X-25749722Y-9735374D01*
X-25749715Y-9735383D01*
X-25635384Y-9849714D01*
X-25635375Y-9849721D01*
X-25496196Y-9932031D01*
X-25350000Y-9974504D01*
X-25350000Y-9420000D01*
X-25878790Y-9420000D01*
X-30515204Y-9420000D01*
X-30353468Y-9159343D01*
X-30335792Y-9137050D01*
X-30154339Y-8955597D01*
X-30138330Y-8942091D01*
X-30122084Y-8930587D01*
X-29980415Y-8796204D01*
X-29955463Y-8772536D01*
X-29893278Y-8740680D01*
X-29870126Y-8738500D01*
X-29699526Y-8738500D01*
X-29696950Y-8738554D01*
X-29691457Y-8738782D01*
X-29691455Y-8738782D01*
X-29682546Y-8737877D01*
X-29677276Y-8737053D01*
X-29674422Y-8736678D01*
X-29630799Y-8731989D01*
X-29493796Y-8680889D01*
X-29493793Y-8680886D01*
X-29493791Y-8680886D01*
X-29486417Y-8676859D01*
X-29484478Y-8675620D01*
X-29331129Y-8593049D01*
X-29303776Y-8578321D01*
X-29244989Y-8563500D01*
X-27135009Y-8563500D01*
X-27076226Y-8578319D01*
X-26895508Y-8675629D01*
X-26893551Y-8676879D01*
X-26884083Y-8682048D01*
X-26880953Y-8683466D01*
X-26877460Y-8685347D01*
X-26877454Y-8685349D01*
X-26877450Y-8685352D01*
X-26865610Y-8690967D01*
X-26853759Y-8696588D01*
X-26839432Y-8702507D01*
X-26819540Y-8708382D01*
X-26787766Y-8717767D01*
X-26783657Y-8719137D01*
X-26749201Y-8731989D01*
X-26732221Y-8733814D01*
X-26688655Y-8738499D01*
X-26688638Y-8738500D01*
X-26596649Y-8738500D01*
X-26594184Y-8738549D01*
X-26594058Y-8738554D01*
X-26590539Y-8738694D01*
X-26590539Y-8738693D01*
X-26590538Y-8738694D01*
X-26585383Y-8738531D01*
X-26583423Y-8738500D01*
X-25995643Y-8738500D01*
X-25928604Y-8758185D01*
X-25882849Y-8810989D01*
X-25872905Y-8880147D01*
X-25876567Y-8897095D01*
X-25877145Y-8899081D01*
X-25877146Y-8899087D01*
X-25878791Y-8919999D01*
X-25878790Y-8920000D01*
X-25052500Y-8920000D01*
X-24985461Y-8939685D01*
X-24939706Y-8992489D01*
X-24928500Y-9044000D01*
X-24928500Y-9405489D01*
X-24925607Y-9442252D01*
X-24925606Y-9442258D01*
X-24879896Y-9599592D01*
X-24879894Y-9599597D01*
X-24867268Y-9620946D01*
X-24850000Y-9684067D01*
X-24850000Y-9974503D01*
X-24703806Y-9932032D01*
X-24691473Y-9924738D01*
X-24623749Y-9907553D01*
X-24565230Y-9924734D01*
X-24539597Y-9939894D01*
X-24539595Y-9939894D01*
X-24539594Y-9939895D01*
X-24382259Y-9985605D01*
X-24382256Y-9985605D01*
X-24382254Y-9985606D01*
X-24345484Y-9988500D01*
X-24345478Y-9988500D01*
X-23934522Y-9988500D01*
X-23934516Y-9988500D01*
X-23897746Y-9985606D01*
X-23897744Y-9985605D01*
X-23897742Y-9985605D01*
X-23810542Y-9960271D01*
X-23740403Y-9939894D01*
X-23599371Y-9856488D01*
X-23483512Y-9740629D01*
X-23400106Y-9599597D01*
X-23359661Y-9460382D01*
X-23354395Y-9442258D01*
X-23354394Y-9442252D01*
X-23354288Y-9440910D01*
X-23351500Y-9405484D01*
X-23351500Y-8934516D01*
X-23354394Y-8897746D01*
X-23400106Y-8740403D01*
X-23400109Y-8740398D01*
X-23402080Y-8735842D01*
X-23406396Y-8726856D01*
X-23406435Y-8726875D01*
X-23407651Y-8724245D01*
X-23408199Y-8723103D01*
X-23408293Y-8722855D01*
X-23515907Y-8490000D01*
X-20294504Y-8490000D01*
X-20252032Y-8636195D01*
X-20169722Y-8775374D01*
X-20169715Y-8775383D01*
X-20055384Y-8889714D01*
X-20055375Y-8889721D01*
X-19916196Y-8972031D01*
X-19760911Y-9017145D01*
X-19740000Y-9018789D01*
X-19740000Y-8490000D01*
X-20294504Y-8490000D01*
X-23515907Y-8490000D01*
X-23520061Y-8481011D01*
X-23531500Y-8428991D01*
X-23531500Y-6146108D01*
X-23525466Y-6107897D01*
X-23423837Y-5794149D01*
X-23423828Y-5794116D01*
X-23423820Y-5794092D01*
X-23418357Y-5775124D01*
X-23414520Y-5761805D01*
X-23414519Y-5761791D01*
X-23413478Y-5756460D01*
X-23413087Y-5756536D01*
X-23408466Y-5735936D01*
X-23403251Y-5721031D01*
X-23362530Y-5664258D01*
X-23297577Y-5638510D01*
X-23260429Y-5640698D01*
X-23256754Y-5641479D01*
X-23256752Y-5641480D01*
X-23080232Y-5679000D01*
X-23080231Y-5679000D01*
X-22899768Y-5679000D01*
X-22723248Y-5641480D01*
X-22702444Y-5632217D01*
X-22677417Y-5624129D01*
X-22669909Y-5622558D01*
X-22669903Y-5622555D01*
X-22669900Y-5622555D01*
X-22212324Y-5455981D01*
X-22169907Y-5448500D01*
X-20423999Y-5448500D01*
X-20356960Y-5468185D01*
G37*
%TD.AperFunction*%
%TA.AperFunction,Conductor*%
G36*
X-254802Y-9491523D02*
G01*
X823437Y-10029024D01*
X874650Y-10076548D01*
X892041Y-10144219D01*
X870086Y-10210550D01*
X823434Y-10250973D01*
X-254800Y-10788475D01*
X-310121Y-10801500D01*
X-7959358Y-10801500D01*
X-8026397Y-10781815D01*
X-8072152Y-10729011D01*
X-8082096Y-10659853D01*
X-8053071Y-10596297D01*
X-8047039Y-10589819D01*
X-6972039Y-9514819D01*
X-6910716Y-9481334D01*
X-6884358Y-9478500D01*
X-310119Y-9478500D01*
X-254802Y-9491523D01*
G37*
%TD.AperFunction*%
%TA.AperFunction,Conductor*%
G36*
X-31460823Y-5488185D02*
G01*
X-31440181Y-5504819D01*
X-31440000Y-5505000D01*
X-29240000Y-5505000D01*
X-29239819Y-5504819D01*
X-29178496Y-5471334D01*
X-29152138Y-5468500D01*
X-27227862Y-5468500D01*
X-27160823Y-5488185D01*
X-27140181Y-5504819D01*
X-27140000Y-5505000D01*
X-25989421Y-5505000D01*
X-25947110Y-5512442D01*
X-25871677Y-5539830D01*
X-25815385Y-5581209D01*
X-25790398Y-5646458D01*
X-25790000Y-5656383D01*
X-25790000Y-6580000D01*
X-25392172Y-6580000D01*
X-25392156Y-6579999D01*
X-25332628Y-6573598D01*
X-25332621Y-6573596D01*
X-25197914Y-6523354D01*
X-25197907Y-6523350D01*
X-25082813Y-6437190D01*
X-25082810Y-6437187D01*
X-24996650Y-6322093D01*
X-24996645Y-6322084D01*
X-24988682Y-6300735D01*
X-24946812Y-6244801D01*
X-24881348Y-6220383D01*
X-24813075Y-6235234D01*
X-24763669Y-6284639D01*
X-24748500Y-6344067D01*
X-24748500Y-7172500D01*
X-24768185Y-7239539D01*
X-24820989Y-7285294D01*
X-24872500Y-7296500D01*
X-24908637Y-7296500D01*
X-24975676Y-7276815D01*
X-24979219Y-7274452D01*
X-25141813Y-7161886D01*
X-25167403Y-7147011D01*
X-25175390Y-7142369D01*
X-25181389Y-7138399D01*
X-25188446Y-7133116D01*
X-25193796Y-7129111D01*
X-25193799Y-7129110D01*
X-25193800Y-7129109D01*
X-25200377Y-7126656D01*
X-25207721Y-7123359D01*
X-25211847Y-7121174D01*
X-25215171Y-7119579D01*
X-25215173Y-7119578D01*
X-25247116Y-7109165D01*
X-25249559Y-7108312D01*
X-25311332Y-7085272D01*
X-25330799Y-7078011D01*
X-25330800Y-7078010D01*
X-25330801Y-7078010D01*
X-25391346Y-7071500D01*
X-25391362Y-7071500D01*
X-26680272Y-7071500D01*
X-26682850Y-7071446D01*
X-26683822Y-7071405D01*
X-26688493Y-7071210D01*
X-26697388Y-7072113D01*
X-26702689Y-7072940D01*
X-26705609Y-7073324D01*
X-26749198Y-7078010D01*
X-26749201Y-7078010D01*
X-26749201Y-7078011D01*
X-26768668Y-7085272D01*
X-26886205Y-7129111D01*
X-26893543Y-7133116D01*
X-26895500Y-7134365D01*
X-27076223Y-7231678D01*
X-27135011Y-7246500D01*
X-29244988Y-7246500D01*
X-29303776Y-7231678D01*
X-29484496Y-7134367D01*
X-29486423Y-7133137D01*
X-29495938Y-7127941D01*
X-29499027Y-7126541D01*
X-29502532Y-7124655D01*
X-29502541Y-7124650D01*
X-29526289Y-7113389D01*
X-29531870Y-7111084D01*
X-29540645Y-7107461D01*
X-29540650Y-7107459D01*
X-29540651Y-7107459D01*
X-29592335Y-7092195D01*
X-29596441Y-7090825D01*
X-29621863Y-7081344D01*
X-29630799Y-7078011D01*
X-29630801Y-7078010D01*
X-29630803Y-7078010D01*
X-29691346Y-7071500D01*
X-29691362Y-7071500D01*
X-29783140Y-7071500D01*
X-29785577Y-7071451D01*
X-29787791Y-7071363D01*
X-29789416Y-7071298D01*
X-29794810Y-7071469D01*
X-29796763Y-7071500D01*
X-30988655Y-7071500D01*
X-31049203Y-7078011D01*
X-31049205Y-7078011D01*
X-31186205Y-7129111D01*
X-31303261Y-7216739D01*
X-31390889Y-7333795D01*
X-31441989Y-7470795D01*
X-31441989Y-7470797D01*
X-31448500Y-7531345D01*
X-31448500Y-8233074D01*
X-31468185Y-8300113D01*
X-31520989Y-8345868D01*
X-31540551Y-8352019D01*
X-31540381Y-8352603D01*
X-31702592Y-8399729D01*
X-31702595Y-8399730D01*
X-31756880Y-8431834D01*
X-31824604Y-8449015D01*
X-31883120Y-8431834D01*
X-31932174Y-8402824D01*
X-31937404Y-8399731D01*
X-31937405Y-8399730D01*
X-31937406Y-8399730D01*
X-31937409Y-8399729D01*
X-32093528Y-8354372D01*
X-32093539Y-8354370D01*
X-32125823Y-8351829D01*
X-32130011Y-8351500D01*
X-32130012Y-8351500D01*
X-32529978Y-8351500D01*
X-32530000Y-8351501D01*
X-32566467Y-8354371D01*
X-32566468Y-8354371D01*
X-32722592Y-8399729D01*
X-32722599Y-8399732D01*
X-32726383Y-8401970D01*
X-32729734Y-8402819D01*
X-32729752Y-8402828D01*
X-32729754Y-8402824D01*
X-32794107Y-8419150D01*
X-32860369Y-8396989D01*
X-32904130Y-8342521D01*
X-32913500Y-8295236D01*
X-32913500Y-6005000D01*
X-31440000Y-6005000D01*
X-31440000Y-6127844D01*
X-31433599Y-6187372D01*
X-31433597Y-6187379D01*
X-31383355Y-6322086D01*
X-31383351Y-6322093D01*
X-31297191Y-6437187D01*
X-31297188Y-6437190D01*
X-31182094Y-6523350D01*
X-31182087Y-6523354D01*
X-31047380Y-6573596D01*
X-31047373Y-6573598D01*
X-30987845Y-6579999D01*
X-30987828Y-6580000D01*
X-30590000Y-6580000D01*
X-30590000Y-6005000D01*
X-30090000Y-6005000D01*
X-30090000Y-6580000D01*
X-29692172Y-6580000D01*
X-29692156Y-6579999D01*
X-29632628Y-6573598D01*
X-29632621Y-6573596D01*
X-29497914Y-6523354D01*
X-29497907Y-6523350D01*
X-29382813Y-6437190D01*
X-29382810Y-6437187D01*
X-29296650Y-6322093D01*
X-29296646Y-6322086D01*
X-29246404Y-6187379D01*
X-29246402Y-6187372D01*
X-29240001Y-6127844D01*
X-29240000Y-6127827D01*
X-29240000Y-6005000D01*
X-27140000Y-6005000D01*
X-27140000Y-6127844D01*
X-27133599Y-6187372D01*
X-27133597Y-6187379D01*
X-27083355Y-6322086D01*
X-27083351Y-6322093D01*
X-26997191Y-6437187D01*
X-26997188Y-6437190D01*
X-26882094Y-6523350D01*
X-26882087Y-6523354D01*
X-26747380Y-6573596D01*
X-26747373Y-6573598D01*
X-26687845Y-6579999D01*
X-26687828Y-6580000D01*
X-26290000Y-6580000D01*
X-26290000Y-6005000D01*
X-27140000Y-6005000D01*
X-29240000Y-6005000D01*
X-30090000Y-6005000D01*
X-30590000Y-6005000D01*
X-31440000Y-6005000D01*
X-32913500Y-6005000D01*
X-32913500Y-5906122D01*
X-32893815Y-5839083D01*
X-32877181Y-5818441D01*
X-32563559Y-5504819D01*
X-32502236Y-5471334D01*
X-32475878Y-5468500D01*
X-31527862Y-5468500D01*
X-31460823Y-5488185D01*
G37*
%TD.AperFunction*%
%TA.AperFunction,Conductor*%
G36*
X-3265Y-248098D02*
G01*
X147467Y-256562D01*
X299376Y-265093D01*
X306269Y-265869D01*
X547899Y-306924D01*
X603383Y-316352D01*
X610167Y-317900D01*
X870338Y-392854D01*
X899756Y-401329D01*
X906320Y-403626D01*
X1184754Y-518956D01*
X1191002Y-521966D01*
X1313401Y-589613D01*
X1454771Y-667746D01*
X1460663Y-671448D01*
X1706441Y-845837D01*
X1711882Y-850175D01*
X1936591Y-1050988D01*
X1941511Y-1055908D01*
X2142324Y-1280617D01*
X2146662Y-1286058D01*
X2321051Y-1531836D01*
X2324753Y-1537728D01*
X2422148Y-1713950D01*
X2470461Y-1801366D01*
X2470529Y-1801488D01*
X2473546Y-1807753D01*
X2499002Y-1869210D01*
X2588872Y-2086176D01*
X2591170Y-2092743D01*
X2674599Y-2382332D01*
X2676147Y-2389116D01*
X2726628Y-2686218D01*
X2727407Y-2693133D01*
X2744401Y-2995764D01*
X2744499Y-2999241D01*
X2744499Y-5315949D01*
X2724814Y-5382988D01*
X2672010Y-5428743D01*
X2602852Y-5438687D01*
X2539296Y-5409662D01*
X2532818Y-5403630D01*
X2421082Y-5291894D01*
X2227578Y-5156399D01*
X2013492Y-5056570D01*
X2013486Y-5056567D01*
X1800000Y-4999364D01*
X1800000Y-5894498D01*
X1692315Y-5845320D01*
X1585763Y-5830000D01*
X1514237Y-5830000D01*
X1407685Y-5845320D01*
X1300000Y-5894498D01*
X1300000Y-4999364D01*
X1299999Y-4999364D01*
X1086513Y-5056567D01*
X1086507Y-5056570D01*
X872422Y-5156399D01*
X872420Y-5156400D01*
X678926Y-5291886D01*
X678920Y-5291891D01*
X511891Y-5458920D01*
X511886Y-5458926D01*
X376400Y-5652420D01*
X376399Y-5652422D01*
X276570Y-5866507D01*
X276567Y-5866513D01*
X219364Y-6079999D01*
X219364Y-6080000D01*
X1116314Y-6080000D01*
X1090507Y-6120156D01*
X1050000Y-6258111D01*
X1050000Y-6401889D01*
X1090507Y-6539844D01*
X1116314Y-6580000D01*
X219364Y-6580000D01*
X276567Y-6793486D01*
X276570Y-6793492D01*
X376399Y-7007578D01*
X511894Y-7201082D01*
X678917Y-7368105D01*
X854303Y-7490913D01*
X897928Y-7545491D01*
X905120Y-7614989D01*
X873598Y-7677344D01*
X838500Y-7703463D01*
X-254800Y-8248475D01*
X-310121Y-8261500D01*
X-3763160Y-8261500D01*
X-3830199Y-8241815D01*
X-3875954Y-8189011D01*
X-3885898Y-8119853D01*
X-3856873Y-8056297D01*
X-3829133Y-8032507D01*
X-3812820Y-8022255D01*
X-3804091Y-8016771D01*
X-3683229Y-7895909D01*
X-3592291Y-7751183D01*
X-3535838Y-7589850D01*
X-3535837Y-7589844D01*
X-3516701Y-7420003D01*
X-3516701Y-7419996D01*
X-3535837Y-7250155D01*
X-3535838Y-7250150D01*
X-3570882Y-7150000D01*
X-3592291Y-7088817D01*
X-3683229Y-6944091D01*
X-3804091Y-6823229D01*
X-3804092Y-6823228D01*
X-3948817Y-6732291D01*
X-4110151Y-6675837D01*
X-4110156Y-6675836D01*
X-4279996Y-6656701D01*
X-4280004Y-6656701D01*
X-4449849Y-6675837D01*
X-4449850Y-6675837D01*
X-4506291Y-6695586D01*
X-4526200Y-6700745D01*
X-4544143Y-6703834D01*
X-4544150Y-6703836D01*
X-4857902Y-6805466D01*
X-4896113Y-6811500D01*
X-6811051Y-6811500D01*
X-6819149Y-6810969D01*
X-6844525Y-6807628D01*
X-6854996Y-6806250D01*
X-6854998Y-6806250D01*
X-6892508Y-6811188D01*
X-6892537Y-6811191D01*
X-6994453Y-6824607D01*
X-6994454Y-6824608D01*
X-7007384Y-6826310D01*
X-7013849Y-6827162D01*
X-7161871Y-6888474D01*
X-7161874Y-6888476D01*
X-7255436Y-6960268D01*
X-7255435Y-6960269D01*
X-7288987Y-6986015D01*
X-7311001Y-7014703D01*
X-7316352Y-7020805D01*
X-8129819Y-7834272D01*
X-8191142Y-7867757D01*
X-8260833Y-7862773D01*
X-8316767Y-7820901D01*
X-8341184Y-7755437D01*
X-8341500Y-7746591D01*
X-8341500Y-3200119D01*
X-8328476Y-3144798D01*
X-7786659Y-2057899D01*
X-7739134Y-2006686D01*
X-7671463Y-1989295D01*
X-7605132Y-2011250D01*
X-7571876Y-2045401D01*
X-7485724Y-2177265D01*
X-7485716Y-2177276D01*
X-7353815Y-2320556D01*
X-7333240Y-2342906D01*
X-7155576Y-2481189D01*
X-7155575Y-2481189D01*
X-7155573Y-2481191D01*
X-7062419Y-2531603D01*
X-6957574Y-2588342D01*
X-6744635Y-2661444D01*
X-6522569Y-2698500D01*
X-6297431Y-2698500D01*
X-6075365Y-2661444D01*
X-5862426Y-2588342D01*
X-5664424Y-2481189D01*
X-5486760Y-2342906D01*
X-5365406Y-2211082D01*
X-5334285Y-2177276D01*
X-5334285Y-2177275D01*
X-5334278Y-2177268D01*
X-5243807Y-2038790D01*
X-5190662Y-1993437D01*
X-5121431Y-1984013D01*
X-5058095Y-2013515D01*
X-5036196Y-2038787D01*
X-4945722Y-2177268D01*
X-4945718Y-2177272D01*
X-4945717Y-2177273D01*
X-4945716Y-2177276D01*
X-4813815Y-2320556D01*
X-4793240Y-2342906D01*
X-4615576Y-2481189D01*
X-4615575Y-2481189D01*
X-4615573Y-2481191D01*
X-4522419Y-2531603D01*
X-4417574Y-2588342D01*
X-4204635Y-2661444D01*
X-3982569Y-2698500D01*
X-3757431Y-2698500D01*
X-3535365Y-2661444D01*
X-3322426Y-2588342D01*
X-3124424Y-2481189D01*
X-2946760Y-2342906D01*
X-2825406Y-2211082D01*
X-2794285Y-2177276D01*
X-2794285Y-2177275D01*
X-2794278Y-2177268D01*
X-2703807Y-2038790D01*
X-2650662Y-1993437D01*
X-2581431Y-1984013D01*
X-2518095Y-2013515D01*
X-2496196Y-2038787D01*
X-2405722Y-2177268D01*
X-2405718Y-2177272D01*
X-2405717Y-2177273D01*
X-2405716Y-2177276D01*
X-2273815Y-2320556D01*
X-2253240Y-2342906D01*
X-2075576Y-2481189D01*
X-2075575Y-2481189D01*
X-2075573Y-2481191D01*
X-1982419Y-2531603D01*
X-1877574Y-2588342D01*
X-1664635Y-2661444D01*
X-1442569Y-2698500D01*
X-1217431Y-2698500D01*
X-995365Y-2661444D01*
X-782426Y-2588342D01*
X-584424Y-2481189D01*
X-406760Y-2342906D01*
X-285406Y-2211082D01*
X-254285Y-2177276D01*
X-254282Y-2177272D01*
X-254278Y-2177268D01*
X-249813Y-2170432D01*
X-196669Y-2125078D01*
X-127438Y-2115653D01*
X-64102Y-2145154D01*
X-26769Y-2204213D01*
X-22145Y-2244151D01*
X-22282Y-2247015D01*
X-21151Y-2270769D01*
X-21345Y-2279445D01*
X-23174Y-2299198D01*
X-23249Y-2300003D01*
X-16193Y-2376158D01*
X-15999Y-2378927D01*
X-12209Y-2458470D01*
X-12208Y-2458475D01*
X-8445Y-2473986D01*
X-5479Y-2491774D01*
X-4294Y-2504559D01*
X17541Y-2581305D01*
X18152Y-2583621D01*
X37701Y-2664201D01*
X37702Y-2664206D01*
X42891Y-2675568D01*
X49359Y-2693134D01*
X51922Y-2702141D01*
X51928Y-2702158D01*
X88940Y-2776487D01*
X89838Y-2778367D01*
X125641Y-2856765D01*
X125647Y-2856776D01*
X130879Y-2864123D01*
X140868Y-2880771D01*
X143497Y-2886050D01*
X182375Y-2937533D01*
X195512Y-2954929D01*
X196526Y-2956310D01*
X248441Y-3029215D01*
X248443Y-3029217D01*
X248444Y-3029218D01*
X248445Y-3029219D01*
X252459Y-3033047D01*
X265837Y-3048057D01*
X267292Y-3049983D01*
X267295Y-3049987D01*
X267298Y-3049989D01*
X267299Y-3049991D01*
X333536Y-3110374D01*
X334530Y-3111301D01*
X372921Y-3147906D01*
X401654Y-3175303D01*
X403398Y-3176424D01*
X414519Y-3184970D01*
X414544Y-3184938D01*
X419119Y-3188393D01*
X498571Y-3237588D01*
X579747Y-3289757D01*
X585000Y-3292465D01*
X584966Y-3292529D01*
X588488Y-3294308D01*
X588650Y-3293984D01*
X593773Y-3296534D01*
X593782Y-3296540D01*
X683782Y-3331405D01*
X761547Y-3362538D01*
X776279Y-3368436D01*
X776517Y-3368482D01*
X781752Y-3369729D01*
X785337Y-3370748D01*
X785345Y-3370751D01*
X883229Y-3389048D01*
X984151Y-3408500D01*
X984156Y-3408500D01*
X1192716Y-3408500D01*
X1192718Y-3408500D01*
X1242132Y-3399262D01*
X1247575Y-3398494D01*
X1300739Y-3393419D01*
X1345668Y-3380225D01*
X1351720Y-3378776D01*
X1394655Y-3370751D01*
X1444560Y-3351417D01*
X1449487Y-3349743D01*
X1487603Y-3338550D01*
X1503862Y-3333777D01*
X1508444Y-3331415D01*
X1542542Y-3313835D01*
X1548550Y-3311131D01*
X1586218Y-3296540D01*
X1634526Y-3266627D01*
X1638748Y-3264236D01*
X1692026Y-3236771D01*
X1723656Y-3211896D01*
X1729336Y-3207923D01*
X1760882Y-3188392D01*
X1805310Y-3147889D01*
X1808721Y-3145000D01*
X1858432Y-3105908D01*
X1882627Y-3077984D01*
X1887708Y-3072774D01*
X1912701Y-3049991D01*
X1950893Y-2999414D01*
X1953514Y-2996177D01*
X1961936Y-2986458D01*
X1997065Y-2945918D01*
X2013897Y-2916761D01*
X2018111Y-2910403D01*
X2036503Y-2886050D01*
X2066221Y-2826366D01*
X2068022Y-2823014D01*
X2093799Y-2778367D01*
X2102913Y-2762582D01*
X2112846Y-2733881D01*
X2115925Y-2726547D01*
X2128074Y-2702152D01*
X2147224Y-2634842D01*
X2148248Y-2631593D01*
X2172153Y-2562527D01*
X2176006Y-2535722D01*
X2177738Y-2527597D01*
X2184294Y-2504559D01*
X2191051Y-2431636D01*
X2191416Y-2428550D01*
X2195023Y-2403460D01*
X2202281Y-2352984D01*
X2201149Y-2329236D01*
X2201342Y-2320564D01*
X2203249Y-2300000D01*
X2196191Y-2223839D01*
X2195996Y-2221067D01*
X2195520Y-2211082D01*
X2192208Y-2141526D01*
X2188441Y-2126002D01*
X2185478Y-2108229D01*
X2184294Y-2095441D01*
X2162449Y-2018666D01*
X2161843Y-2016364D01*
X2161152Y-2013515D01*
X2142298Y-1935796D01*
X2137107Y-1924430D01*
X2130636Y-1906853D01*
X2130277Y-1905590D01*
X2128074Y-1897848D01*
X2091043Y-1823482D01*
X2090149Y-1821607D01*
X2080905Y-1801366D01*
X2054356Y-1743229D01*
X2049121Y-1735877D01*
X2039129Y-1719224D01*
X2036503Y-1713950D01*
X2018877Y-1690610D01*
X1984487Y-1645070D01*
X1983460Y-1643670D01*
X1931558Y-1570784D01*
X1931554Y-1570780D01*
X1927546Y-1566958D01*
X1914153Y-1551931D01*
X1912708Y-1550018D01*
X1912704Y-1550013D01*
X1912701Y-1550009D01*
X1846418Y-1489585D01*
X1845468Y-1488698D01*
X1833735Y-1477511D01*
X1778346Y-1424697D01*
X1778343Y-1424694D01*
X1776601Y-1423575D01*
X1765480Y-1415029D01*
X1765456Y-1415062D01*
X1760877Y-1411604D01*
X1681442Y-1362420D01*
X1600258Y-1310246D01*
X1594999Y-1307535D01*
X1595032Y-1307470D01*
X1591512Y-1305692D01*
X1591351Y-1306016D01*
X1586222Y-1303462D01*
X1586218Y-1303460D01*
X1496232Y-1268600D01*
X1403722Y-1231564D01*
X1403714Y-1231562D01*
X1403470Y-1231515D01*
X1398257Y-1230273D01*
X1394658Y-1229249D01*
X1296677Y-1210933D01*
X1195850Y-1191500D01*
X1195849Y-1191500D01*
X1192718Y-1191500D01*
X987282Y-1191500D01*
X987276Y-1191500D01*
X937885Y-1200732D01*
X932386Y-1201507D01*
X879265Y-1206580D01*
X879261Y-1206580D01*
X879261Y-1206581D01*
X864439Y-1210933D01*
X834348Y-1219768D01*
X828271Y-1221224D01*
X785351Y-1229247D01*
X785338Y-1229250D01*
X735438Y-1248582D01*
X730509Y-1250257D01*
X676140Y-1266222D01*
X637459Y-1286162D01*
X631445Y-1288868D01*
X593781Y-1303460D01*
X593780Y-1303460D01*
X545474Y-1333370D01*
X541245Y-1335764D01*
X487977Y-1363226D01*
X456354Y-1388094D01*
X450665Y-1392073D01*
X419116Y-1411609D01*
X374708Y-1452091D01*
X371266Y-1455006D01*
X321565Y-1494093D01*
X297377Y-1522006D01*
X292290Y-1527224D01*
X267298Y-1550009D01*
X267297Y-1550009D01*
X242614Y-1582695D01*
X186505Y-1624330D01*
X116793Y-1629020D01*
X55611Y-1595276D01*
X22386Y-1533812D01*
X20086Y-1497725D01*
X20756Y-1489646D01*
X31231Y-1363229D01*
X33156Y-1340004D01*
X33156Y-1339994D01*
X14565Y-1115640D01*
X14563Y-1115628D01*
X-14851Y-999475D01*
X-40704Y-897384D01*
X-131140Y-691209D01*
X-145368Y-669432D01*
X-241709Y-521970D01*
X-254278Y-502732D01*
X-297315Y-455982D01*
X-328236Y-393329D01*
X-320376Y-323903D01*
X-276229Y-269747D01*
X-209812Y-248056D01*
X-206084Y-248000D01*
X-49170Y-248000D01*
X-6742Y-248000D01*
X-3265Y-248098D01*
G37*
%TD.AperFunction*%
%TA.AperFunction,Conductor*%
G36*
X-13604542Y-5468185D02*
G01*
X-13564661Y-5509698D01*
X-13406173Y-5779521D01*
X-13394017Y-5807728D01*
X-13371741Y-5884399D01*
X-13370194Y-5891087D01*
X-13365147Y-5920127D01*
X-13365145Y-5920138D01*
X-13361152Y-5932397D01*
X-13359110Y-6002237D01*
X-13395150Y-6062094D01*
X-13457830Y-6092965D01*
X-13527250Y-6085047D01*
X-13563944Y-6061184D01*
X-13567643Y-6057710D01*
X-13569040Y-6056356D01*
X-13590324Y-6035072D01*
X-13596217Y-6030501D01*
X-13600654Y-6026711D01*
X-13636523Y-5993028D01*
X-13636525Y-5993026D01*
X-13655456Y-5982619D01*
X-13671708Y-5971944D01*
X-13688788Y-5958696D01*
X-13688792Y-5958694D01*
X-13733954Y-5939150D01*
X-13739201Y-5936580D01*
X-13782319Y-5912875D01*
X-13782318Y-5912875D01*
X-13803245Y-5907502D01*
X-13821650Y-5901201D01*
X-13841482Y-5892619D01*
X-13890087Y-5884921D01*
X-13895809Y-5883736D01*
X-13929468Y-5875094D01*
X-13943468Y-5871500D01*
X-13943469Y-5871500D01*
X-13965075Y-5871500D01*
X-13984473Y-5869973D01*
X-13993053Y-5868614D01*
X-14005807Y-5866594D01*
X-14005808Y-5866594D01*
X-14054801Y-5871225D01*
X-14060637Y-5871500D01*
X-15958332Y-5871500D01*
X-16025371Y-5851815D01*
X-16071126Y-5799011D01*
X-16081622Y-5760754D01*
X-16083157Y-5746479D01*
X-16088538Y-5696418D01*
X-16088540Y-5696412D01*
X-16088540Y-5696405D01*
X-16089134Y-5692845D01*
X-16088879Y-5692802D01*
X-16091500Y-5669470D01*
X-16091500Y-5572500D01*
X-16071815Y-5505461D01*
X-16019011Y-5459706D01*
X-15967500Y-5448500D01*
X-13671581Y-5448500D01*
X-13604542Y-5468185D01*
G37*
%TD.AperFunction*%
%TA.AperFunction,Conductor*%
G36*
X-26480000Y-2670633D02*
G01*
X-26266517Y-2613433D01*
X-26266508Y-2613429D01*
X-26052422Y-2513600D01*
X-25858918Y-2378105D01*
X-25691895Y-2211082D01*
X-25565716Y-2030882D01*
X-25511139Y-1987257D01*
X-25441640Y-1980065D01*
X-25379286Y-2011587D01*
X-25354978Y-2043191D01*
X-24767483Y-3133628D01*
X-24763336Y-3141325D01*
X-24748500Y-3200139D01*
X-24748500Y-3941498D01*
X-24768185Y-4008537D01*
X-24820989Y-4054292D01*
X-24890147Y-4064236D01*
X-24922936Y-4054777D01*
X-25003243Y-4019021D01*
X-25003249Y-4019019D01*
X-25142250Y-3989474D01*
X-25179768Y-3981500D01*
X-25360232Y-3981500D01*
X-25536747Y-4019017D01*
X-25542275Y-4020813D01*
X-25555137Y-4025286D01*
X-25970106Y-4131500D01*
X-26020755Y-4144464D01*
X-26033113Y-4147627D01*
X-26063860Y-4151500D01*
X-30910878Y-4151500D01*
X-30977917Y-4131815D01*
X-31023672Y-4079011D01*
X-31033616Y-4009853D01*
X-31004591Y-3946297D01*
X-30998559Y-3939819D01*
X-30830263Y-3771523D01*
X-30143270Y-3084528D01*
X-30095179Y-3054699D01*
X-28788544Y-2614540D01*
X-28780394Y-2611640D01*
X-28775612Y-2609848D01*
X-28749812Y-2598056D01*
X-28744187Y-2595811D01*
X-28722426Y-2588342D01*
X-28524424Y-2481189D01*
X-28346760Y-2342906D01*
X-28225406Y-2211082D01*
X-28194285Y-2177276D01*
X-28194285Y-2177275D01*
X-28194278Y-2177268D01*
X-28100251Y-2033347D01*
X-28047106Y-1987994D01*
X-27977875Y-1978570D01*
X-27914539Y-2008072D01*
X-27894870Y-2030048D01*
X-27768110Y-2211078D01*
X-27601083Y-2378105D01*
X-27407579Y-2513600D01*
X-27193493Y-2613429D01*
X-27193484Y-2613433D01*
X-26980000Y-2670634D01*
X-26980000Y-1775501D01*
X-26872315Y-1824680D01*
X-26765763Y-1840000D01*
X-26694237Y-1840000D01*
X-26587685Y-1824680D01*
X-26480000Y-1775501D01*
X-26480000Y-2670633D01*
G37*
%TD.AperFunction*%
%TA.AperFunction,Conductor*%
G36*
X-22844589Y-2014446D02*
G01*
X-22808577Y-2050450D01*
X-22725724Y-2177265D01*
X-22725716Y-2177276D01*
X-22593815Y-2320556D01*
X-22573240Y-2342906D01*
X-22395576Y-2481189D01*
X-22395575Y-2481189D01*
X-22395573Y-2481191D01*
X-22302419Y-2531603D01*
X-22197574Y-2588342D01*
X-22151919Y-2604015D01*
X-22144212Y-2607258D01*
X-22126365Y-2616229D01*
X-20813298Y-3055670D01*
X-20764971Y-3085579D01*
X-20211345Y-3639204D01*
X-20206004Y-3645294D01*
X-20196073Y-3658236D01*
X-20183990Y-3673984D01*
X-20183989Y-3673985D01*
X-20183987Y-3673987D01*
X-20160106Y-3692311D01*
X-20153716Y-3697215D01*
X-20153692Y-3697235D01*
X-20077833Y-3755443D01*
X-20056876Y-3771524D01*
X-20056874Y-3771524D01*
X-20056872Y-3771526D01*
X-19982864Y-3802181D01*
X-19908851Y-3832838D01*
X-19889464Y-3835390D01*
X-19889457Y-3835393D01*
X-19889457Y-3835391D01*
X-19789885Y-3848500D01*
X-19789884Y-3848500D01*
X-19787871Y-3848765D01*
X-19787852Y-3848766D01*
X-19750000Y-3853750D01*
X-19749999Y-3853750D01*
X-19739528Y-3852371D01*
X-19714152Y-3849030D01*
X-19706054Y-3848500D01*
X-13443411Y-3848500D01*
X-13376372Y-3868185D01*
X-13355730Y-3884819D01*
X-13320730Y-3919819D01*
X-13287245Y-3981142D01*
X-13292229Y-4050834D01*
X-13334101Y-4106767D01*
X-13399565Y-4131184D01*
X-13408411Y-4131500D01*
X-22196431Y-4131500D01*
X-22227083Y-4127652D01*
X-22704880Y-4005762D01*
X-22717124Y-4001510D01*
X-22723255Y-3999517D01*
X-22899768Y-3962000D01*
X-23080232Y-3962000D01*
X-23092144Y-3964532D01*
X-23256752Y-3999519D01*
X-23256758Y-3999521D01*
X-23357064Y-4044182D01*
X-23426314Y-4053467D01*
X-23489591Y-4023839D01*
X-23526804Y-3964704D01*
X-23531500Y-3930903D01*
X-23531500Y-3181903D01*
X-23519917Y-3129573D01*
X-23024801Y-2065939D01*
X-22978665Y-2013472D01*
X-22911484Y-1994275D01*
X-22844589Y-2014446D01*
G37*
%TD.AperFunction*%
%TA.AperFunction,Conductor*%
G36*
X-10149449Y-2019911D02*
G01*
X-10109027Y-2066562D01*
X-9574096Y-3139641D01*
X-9571525Y-3144797D01*
X-9558500Y-3200118D01*
X-9558500Y-3964532D01*
X-9578185Y-4031571D01*
X-9630989Y-4077326D01*
X-9700147Y-4087270D01*
X-9763703Y-4058245D01*
X-9770181Y-4052213D01*
X-10741860Y-3080535D01*
X-10775345Y-3019212D01*
X-10770361Y-2949521D01*
X-10765160Y-2937542D01*
X-10330977Y-2066562D01*
X-10283451Y-2015347D01*
X-10215780Y-1997956D01*
X-10149449Y-2019911D01*
G37*
%TD.AperFunction*%
%TA.AperFunction,Conductor*%
G36*
X-35758718Y-267685D02*
G01*
X-35712963Y-320489D01*
X-35702468Y-385257D01*
X-35708500Y-441348D01*
X-35708500Y-2162682D01*
X-35709314Y-2172571D01*
X-35709441Y-2178562D01*
X-35708958Y-2182519D01*
X-35708500Y-2190042D01*
X-35708500Y-2238654D01*
X-35701990Y-2299198D01*
X-35687867Y-2337065D01*
X-35687064Y-2339354D01*
X-35672214Y-2384492D01*
X-35672212Y-2384496D01*
X-35671016Y-2386613D01*
X-35662806Y-2404255D01*
X-35650889Y-2436203D01*
X-35650889Y-2436204D01*
X-35621154Y-2475927D01*
X-35616800Y-2482595D01*
X-35600336Y-2511744D01*
X-35600335Y-2511745D01*
X-35600332Y-2511750D01*
X-35600330Y-2511752D01*
X-35561752Y-2561771D01*
X-35536397Y-2626877D01*
X-35550266Y-2695356D01*
X-35598956Y-2745467D01*
X-35659941Y-2761500D01*
X-35931468Y-2761500D01*
X-35993152Y-2745069D01*
X-36012636Y-2733896D01*
X-36293310Y-2572948D01*
X-36337162Y-2530478D01*
X-36385970Y-2451348D01*
X-36511348Y-2325970D01*
X-36662262Y-2232885D01*
X-36682228Y-2226269D01*
X-36830573Y-2177113D01*
X-36922272Y-2167744D01*
X-36986963Y-2141347D01*
X-37027114Y-2084166D01*
X-37029976Y-2014355D01*
X-37015206Y-1979288D01*
X-36942910Y-1862079D01*
X-36942907Y-1862072D01*
X-36890058Y-1702583D01*
X-36880001Y-1604150D01*
X-36880000Y-1604137D01*
X-36880000Y-1550000D01*
X-37943500Y-1550000D01*
X-38010539Y-1530315D01*
X-38056294Y-1477511D01*
X-38067500Y-1426000D01*
X-38067500Y-1174000D01*
X-38047815Y-1106961D01*
X-37995011Y-1061206D01*
X-37943500Y-1050000D01*
X-36880001Y-1050000D01*
X-36880001Y-995864D01*
X-36880002Y-995847D01*
X-36890057Y-897416D01*
X-36942907Y-737927D01*
X-36942909Y-737922D01*
X-37031115Y-594919D01*
X-37149921Y-476113D01*
X-37155588Y-471632D01*
X-37154341Y-470054D01*
X-37194334Y-425592D01*
X-37205557Y-356630D01*
X-37177714Y-292547D01*
X-37119646Y-253690D01*
X-37082513Y-248000D01*
X-35825757Y-248000D01*
X-35758718Y-267685D01*
G37*
%TD.AperFunction*%
%TD*%
%TA.AperFunction,Conductor*%
%TO.N,/PA6{slash}MISO*%
G36*
X-21117487Y-17373058D02*
G01*
X-21112015Y-17378961D01*
X-21021391Y-17595483D01*
X-21021358Y-17604437D01*
X-21021391Y-17604517D01*
X-21112015Y-17821038D01*
X-21118371Y-17827347D01*
X-21126413Y-17827652D01*
X-21512405Y-17702622D01*
X-21519220Y-17696812D01*
X-21520500Y-17691491D01*
X-21520500Y-17508508D01*
X-21517073Y-17500235D01*
X-21512409Y-17497378D01*
X-21126412Y-17372347D01*
X-21117487Y-17373058D01*
G37*
%TD.AperFunction*%
%TD*%
%TA.AperFunction,Conductor*%
%TO.N,/PA6{slash}MISO*%
G36*
X-22438094Y-17497378D02*
G01*
X-22431280Y-17503187D01*
X-22430000Y-17508508D01*
X-22430000Y-17691491D01*
X-22433427Y-17699764D01*
X-22438095Y-17702622D01*
X-22824088Y-17827652D01*
X-22833014Y-17826941D01*
X-22838486Y-17821038D01*
X-22929111Y-17604515D01*
X-22929143Y-17595563D01*
X-22838486Y-17378960D01*
X-22832130Y-17372652D01*
X-22824089Y-17372347D01*
X-22438094Y-17497378D01*
G37*
%TD.AperFunction*%
%TD*%
%TA.AperFunction,Conductor*%
%TO.N,Net-(F1-Pad1)*%
G36*
X-39528609Y-3182036D02*
G01*
X-38922893Y-3931980D01*
X-38920361Y-3940569D01*
X-38923722Y-3947604D01*
X-39267618Y-4291500D01*
X-39272867Y-4294529D01*
X-39680474Y-4403600D01*
X-39689351Y-4402429D01*
X-39693749Y-4397938D01*
X-39750649Y-4294529D01*
X-40155274Y-3559168D01*
X-40156259Y-3550269D01*
X-40151041Y-3543497D01*
X-39543727Y-3179352D01*
X-39534870Y-3178037D01*
X-39528609Y-3182036D01*
G37*
%TD.AperFunction*%
%TD*%
%TA.AperFunction,Conductor*%
%TO.N,Net-(F1-Pad1)*%
G36*
X-37914191Y-11348368D02*
G01*
X-37749705Y-11526153D01*
X-37749685Y-11526173D01*
X-37410485Y-11865373D01*
X-37407058Y-11873646D01*
X-37410485Y-11881919D01*
X-37415731Y-11884948D01*
X-37915720Y-12018853D01*
X-37923967Y-12018022D01*
X-38599057Y-11681499D01*
X-38604932Y-11674741D01*
X-38604308Y-11665808D01*
X-38598806Y-11660435D01*
X-37927745Y-11345720D01*
X-37918801Y-11345311D01*
X-37914191Y-11348368D01*
G37*
%TD.AperFunction*%
%TD*%
%TA.AperFunction,Conductor*%
%TO.N,/VDD_5V*%
G36*
X-36727174Y-2929695D02*
G01*
X-36115680Y-3296591D01*
X-36115680Y-3296592D01*
X-36110349Y-3303787D01*
X-36110000Y-3306625D01*
X-36110000Y-3793375D01*
X-36113427Y-3801648D01*
X-36115680Y-3803408D01*
X-36727173Y-4170303D01*
X-36736031Y-4171621D01*
X-36741460Y-4168550D01*
X-37352707Y-3558280D01*
X-37356140Y-3550009D01*
X-37352720Y-3541733D01*
X-37352707Y-3541720D01*
X-37107187Y-3296592D01*
X-36741459Y-2931448D01*
X-36733184Y-2928029D01*
X-36727174Y-2929695D01*
G37*
%TD.AperFunction*%
%TD*%
%TA.AperFunction,Conductor*%
%TO.N,/VDD_5V*%
G36*
X-40111638Y-16493427D02*
G01*
X-40108370Y-16499777D01*
X-40060988Y-16784073D01*
X-40063008Y-16792797D01*
X-40064242Y-16794255D01*
X-40351713Y-17082685D01*
X-40359981Y-17086126D01*
X-40368259Y-17082713D01*
X-40368287Y-17082685D01*
X-40655759Y-16794255D01*
X-40659172Y-16785977D01*
X-40659014Y-16784083D01*
X-40611630Y-16499775D01*
X-40606889Y-16492179D01*
X-40600089Y-16490000D01*
X-40119911Y-16490000D01*
X-40111638Y-16493427D01*
G37*
%TD.AperFunction*%
%TD*%
%TA.AperFunction,Conductor*%
%TO.N,/VDD_5V*%
G36*
X-34341627Y-1348172D02*
G01*
X-34341064Y-1348776D01*
X-33617583Y-2182432D01*
X-33614748Y-2190927D01*
X-33617483Y-2197653D01*
X-34391285Y-3113332D01*
X-34399242Y-3117439D01*
X-34407773Y-3114716D01*
X-34408494Y-3114053D01*
X-34752783Y-2769764D01*
X-34753279Y-2769200D01*
X-35193719Y-2198144D01*
X-35196058Y-2189501D01*
X-35192728Y-2182727D01*
X-34358172Y-1348171D01*
X-34349900Y-1344745D01*
X-34341627Y-1348172D01*
G37*
%TD.AperFunction*%
%TD*%
%TA.AperFunction,Conductor*%
%TO.N,/VDD_5V*%
G36*
X-36730135Y-2914395D02*
G01*
X-36115880Y-3266628D01*
X-36110408Y-3273717D01*
X-36110000Y-3276778D01*
X-36110000Y-3763510D01*
X-36113427Y-3771783D01*
X-36115504Y-3773435D01*
X-36727213Y-4155305D01*
X-36736046Y-4156779D01*
X-36741575Y-4153758D01*
X-37352630Y-3558158D01*
X-37356161Y-3549932D01*
X-37352848Y-3541623D01*
X-36744339Y-2916384D01*
X-36736114Y-2912846D01*
X-36730135Y-2914395D01*
G37*
%TD.AperFunction*%
%TD*%
%TA.AperFunction,Conductor*%
%TO.N,/VDD_3.3V*%
G36*
X-30044336Y-1019245D02*
G01*
X-29273785Y-1337438D01*
X-29267448Y-1343761D01*
X-29267438Y-1343785D01*
X-28949494Y-2113736D01*
X-28949503Y-2122691D01*
X-28955842Y-2129016D01*
X-28956573Y-2129290D01*
X-30383172Y-2609863D01*
X-30392106Y-2609256D01*
X-30395180Y-2607048D01*
X-30596752Y-2405476D01*
X-30600179Y-2397203D01*
X-30599363Y-2392912D01*
X-30059662Y-1025772D01*
X-30053436Y-1019336D01*
X-30044483Y-1019186D01*
X-30044336Y-1019245D01*
G37*
%TD.AperFunction*%
%TD*%
%TA.AperFunction,Conductor*%
%TO.N,/VDD_3.3V*%
G36*
X-25404878Y-4520419D02*
G01*
X-25400043Y-4525979D01*
X-25270881Y-4835494D01*
X-25270858Y-4844449D01*
X-25270881Y-4844506D01*
X-25399641Y-5153056D01*
X-25405990Y-5159371D01*
X-25414432Y-5159548D01*
X-25956326Y-4962798D01*
X-25962933Y-4956753D01*
X-25964033Y-4951800D01*
X-25964033Y-4669082D01*
X-25960606Y-4660809D01*
X-25955237Y-4657748D01*
X-25413740Y-4519150D01*
X-25404878Y-4520419D01*
G37*
%TD.AperFunction*%
%TD*%
%TA.AperFunction,Conductor*%
%TO.N,/NRST*%
G36*
X-24040236Y-5033427D02*
G01*
X-24037378Y-5038095D01*
X-23912348Y-5424087D01*
X-23913059Y-5433013D01*
X-23918962Y-5438485D01*
X-24135483Y-5529109D01*
X-24144437Y-5529142D01*
X-24144517Y-5529109D01*
X-24361039Y-5438485D01*
X-24367348Y-5432129D01*
X-24367653Y-5424088D01*
X-24242623Y-5038095D01*
X-24236812Y-5031280D01*
X-24231491Y-5030000D01*
X-24048509Y-5030000D01*
X-24040236Y-5033427D01*
G37*
%TD.AperFunction*%
%TD*%
%TA.AperFunction,Conductor*%
%TO.N,/NRST*%
G36*
X-24185516Y-1340863D02*
G01*
X-23415970Y-1660599D01*
X-23409645Y-1666938D01*
X-23409654Y-1675893D01*
X-23409852Y-1676342D01*
X-24036852Y-3023292D01*
X-24043450Y-3029346D01*
X-24047459Y-3030054D01*
X-24233014Y-3030054D01*
X-24241287Y-3026627D01*
X-24243314Y-3023903D01*
X-24969162Y-1676670D01*
X-24970069Y-1667762D01*
X-24964411Y-1660821D01*
X-24963371Y-1660325D01*
X-24194489Y-1340864D01*
X-24185534Y-1340856D01*
X-24185516Y-1340863D01*
G37*
%TD.AperFunction*%
%TD*%
%TA.AperFunction,Conductor*%
%TO.N,/PB8*%
G36*
X-20867331Y-1019511D02*
G01*
X-20861006Y-1025850D01*
X-20860725Y-1026603D01*
X-20493663Y-2123400D01*
X-20379506Y-2464504D01*
X-20380130Y-2473437D01*
X-20382328Y-2476490D01*
X-20513510Y-2607672D01*
X-20521783Y-2611099D01*
X-20525496Y-2610494D01*
X-20935028Y-2473437D01*
X-21189765Y-2388184D01*
X-21963397Y-2129275D01*
X-21970155Y-2123400D01*
X-21970779Y-2114467D01*
X-21970503Y-2113726D01*
X-21652562Y-1343783D01*
X-21646241Y-1337448D01*
X-20876285Y-1019502D01*
X-20867331Y-1019511D01*
G37*
%TD.AperFunction*%
%TD*%
%TA.AperFunction,Conductor*%
%TO.N,/PB8*%
G36*
X-11305084Y-6790842D02*
G01*
X-11175588Y-6920338D01*
X-11172161Y-6928611D01*
X-11173396Y-6933843D01*
X-11238172Y-7063394D01*
X-11244922Y-7069257D01*
X-11536976Y-7167040D01*
X-11545909Y-7166417D01*
X-11551786Y-7159660D01*
X-11551786Y-7152231D01*
X-11454003Y-6860174D01*
X-11448141Y-6853426D01*
X-11318586Y-6788649D01*
X-11309657Y-6788015D01*
X-11305084Y-6790842D01*
G37*
%TD.AperFunction*%
%TD*%
%TA.AperFunction,Conductor*%
%TO.N,/PB7*%
G36*
X-18327331Y-1019511D02*
G01*
X-18321006Y-1025850D01*
X-18320725Y-1026603D01*
X-17953663Y-2123400D01*
X-17839506Y-2464504D01*
X-17840130Y-2473437D01*
X-17842328Y-2476490D01*
X-17973510Y-2607672D01*
X-17981783Y-2611099D01*
X-17985496Y-2610494D01*
X-18395028Y-2473437D01*
X-18649765Y-2388184D01*
X-19423397Y-2129275D01*
X-19430155Y-2123400D01*
X-19430779Y-2114467D01*
X-19430503Y-2113726D01*
X-19112562Y-1343783D01*
X-19106241Y-1337448D01*
X-18336285Y-1019502D01*
X-18327331Y-1019511D01*
G37*
%TD.AperFunction*%
%TD*%
%TA.AperFunction,Conductor*%
%TO.N,/PB7*%
G36*
X-10597977Y-7497949D02*
G01*
X-10468481Y-7627445D01*
X-10465054Y-7635718D01*
X-10466289Y-7640950D01*
X-10531065Y-7770501D01*
X-10537815Y-7776364D01*
X-10829869Y-7874147D01*
X-10838802Y-7873524D01*
X-10844679Y-7866767D01*
X-10844679Y-7859338D01*
X-10746896Y-7567281D01*
X-10741034Y-7560533D01*
X-10611479Y-7495756D01*
X-10602550Y-7495122D01*
X-10597977Y-7497949D01*
G37*
%TD.AperFunction*%
%TD*%
%TA.AperFunction,Conductor*%
%TO.N,/PB6*%
G36*
X-10244423Y-7851502D02*
G01*
X-10114927Y-7980998D01*
X-10111500Y-7989271D01*
X-10112735Y-7994503D01*
X-10177511Y-8124054D01*
X-10184261Y-8129917D01*
X-10476315Y-8227700D01*
X-10485248Y-8227077D01*
X-10491125Y-8220320D01*
X-10491125Y-8212891D01*
X-10393342Y-7920834D01*
X-10387480Y-7914086D01*
X-10257925Y-7849309D01*
X-10248996Y-7848675D01*
X-10244423Y-7851502D01*
G37*
%TD.AperFunction*%
%TD*%
%TA.AperFunction,Conductor*%
%TO.N,/PB6*%
G36*
X-15787331Y-1019511D02*
G01*
X-15781006Y-1025850D01*
X-15780725Y-1026603D01*
X-15413663Y-2123400D01*
X-15299506Y-2464504D01*
X-15300130Y-2473437D01*
X-15302328Y-2476490D01*
X-15433510Y-2607672D01*
X-15441783Y-2611099D01*
X-15445496Y-2610494D01*
X-15855028Y-2473437D01*
X-16109765Y-2388184D01*
X-16883397Y-2129275D01*
X-16890155Y-2123400D01*
X-16890779Y-2114467D01*
X-16890503Y-2113726D01*
X-16572562Y-1343783D01*
X-16566241Y-1337448D01*
X-15796285Y-1019502D01*
X-15787331Y-1019511D01*
G37*
%TD.AperFunction*%
%TD*%
%TA.AperFunction,Conductor*%
%TO.N,/PB5*%
G36*
X-13246175Y-1019033D02*
G01*
X-13240020Y-1024981D01*
X-13094558Y-1343785D01*
X-12738958Y-2123143D01*
X-12655319Y-2306450D01*
X-12655002Y-2315399D01*
X-12657690Y-2319580D01*
X-12788884Y-2450774D01*
X-12797157Y-2454201D01*
X-12799575Y-2453948D01*
X-12814313Y-2450835D01*
X-12818119Y-2449295D01*
X-12823548Y-2445884D01*
X-12823552Y-2445883D01*
X-12853704Y-2442486D01*
X-12854259Y-2442396D01*
X-14341515Y-2128206D01*
X-14348901Y-2123143D01*
X-14350544Y-2114341D01*
X-14349911Y-2112293D01*
X-14032562Y-1343783D01*
X-14026241Y-1337448D01*
X-13255128Y-1019024D01*
X-13246175Y-1019033D01*
G37*
%TD.AperFunction*%
%TD*%
%TA.AperFunction,Conductor*%
%TO.N,/PB4*%
G36*
X-11485511Y-1340865D02*
G01*
X-10716276Y-1660472D01*
X-10709951Y-1666811D01*
X-10709960Y-1675766D01*
X-10710294Y-1676497D01*
X-11386770Y-3033520D01*
X-11393528Y-3039395D01*
X-11397241Y-3040000D01*
X-11582759Y-3040000D01*
X-11591032Y-3036573D01*
X-11593230Y-3033520D01*
X-12269707Y-1676497D01*
X-12270331Y-1667564D01*
X-12264456Y-1660806D01*
X-12263739Y-1660478D01*
X-11494489Y-1340864D01*
X-11485534Y-1340856D01*
X-11485511Y-1340865D01*
G37*
%TD.AperFunction*%
%TD*%
%TA.AperFunction,Conductor*%
%TO.N,/PB4*%
G36*
X-9537317Y-8558609D02*
G01*
X-9407821Y-8688105D01*
X-9404394Y-8696378D01*
X-9405629Y-8701610D01*
X-9470405Y-8831161D01*
X-9477155Y-8837024D01*
X-9769209Y-8934807D01*
X-9778142Y-8934184D01*
X-9784019Y-8927427D01*
X-9784019Y-8919998D01*
X-9686236Y-8627941D01*
X-9680374Y-8621193D01*
X-9550819Y-8556416D01*
X-9541890Y-8555782D01*
X-9537317Y-8558609D01*
G37*
%TD.AperFunction*%
%TD*%
%TA.AperFunction,Conductor*%
%TO.N,/PB3*%
G36*
X-9183763Y-8912162D02*
G01*
X-9054267Y-9041658D01*
X-9050840Y-9049931D01*
X-9052075Y-9055163D01*
X-9116851Y-9184714D01*
X-9123601Y-9190577D01*
X-9415655Y-9288360D01*
X-9424588Y-9287737D01*
X-9430465Y-9280980D01*
X-9430465Y-9273551D01*
X-9332682Y-8981494D01*
X-9326820Y-8974746D01*
X-9197265Y-8909969D01*
X-9188336Y-8909335D01*
X-9183763Y-8912162D01*
G37*
%TD.AperFunction*%
%TD*%
%TA.AperFunction,Conductor*%
%TO.N,/PB3*%
G36*
X-8945511Y-1340865D02*
G01*
X-8176276Y-1660472D01*
X-8169951Y-1666811D01*
X-8169960Y-1675766D01*
X-8170294Y-1676497D01*
X-8846770Y-3033520D01*
X-8853528Y-3039395D01*
X-8857241Y-3040000D01*
X-9042759Y-3040000D01*
X-9051032Y-3036573D01*
X-9053230Y-3033520D01*
X-9729707Y-1676497D01*
X-9730331Y-1667564D01*
X-9724456Y-1660806D01*
X-9723739Y-1660478D01*
X-8954489Y-1340864D01*
X-8945534Y-1340856D01*
X-8945511Y-1340865D01*
G37*
%TD.AperFunction*%
%TD*%
%TA.AperFunction,Conductor*%
%TO.N,/PA11*%
G36*
X-6308968Y-17263427D02*
G01*
X-6306770Y-17266480D01*
X-5630294Y-18623502D01*
X-5629670Y-18632435D01*
X-5635545Y-18639193D01*
X-5636276Y-18639527D01*
X-6405511Y-18959134D01*
X-6414466Y-18959143D01*
X-6414489Y-18959134D01*
X-7183725Y-18639527D01*
X-7190050Y-18633188D01*
X-7190041Y-18624233D01*
X-7189715Y-18623518D01*
X-6513231Y-17266480D01*
X-6506472Y-17260605D01*
X-6502759Y-17260000D01*
X-6317241Y-17260000D01*
X-6308968Y-17263427D01*
G37*
%TD.AperFunction*%
%TD*%
%TA.AperFunction,Conductor*%
%TO.N,/PA11*%
G36*
X-9830708Y-11931081D02*
G01*
X-9823958Y-11936944D01*
X-9759182Y-12066495D01*
X-9758547Y-12075427D01*
X-9761374Y-12080000D01*
X-9890870Y-12209496D01*
X-9899143Y-12212923D01*
X-9904374Y-12211688D01*
X-9968382Y-12179684D01*
X-10033926Y-12146912D01*
X-10039789Y-12140162D01*
X-10061928Y-12074038D01*
X-10137572Y-11848107D01*
X-10136949Y-11839175D01*
X-10130192Y-11833298D01*
X-10122763Y-11833298D01*
X-9830708Y-11931081D01*
G37*
%TD.AperFunction*%
%TD*%
%TA.AperFunction,Conductor*%
%TO.N,/PA12*%
G36*
X-3888126Y-17239265D02*
G01*
X-3886260Y-17241700D01*
X-3091339Y-18623184D01*
X-3090183Y-18632064D01*
X-3095645Y-18639160D01*
X-3096991Y-18639824D01*
X-3864810Y-18958844D01*
X-3873764Y-18958852D01*
X-4643792Y-18639491D01*
X-4650121Y-18633157D01*
X-4650117Y-18624202D01*
X-4649825Y-18623552D01*
X-4036150Y-17371631D01*
X-4033921Y-17368514D01*
X-3904671Y-17239264D01*
X-3896399Y-17235838D01*
X-3888126Y-17239265D01*
G37*
%TD.AperFunction*%
%TD*%
%TA.AperFunction,Conductor*%
%TO.N,/PA6{slash}MISO*%
G36*
X-18107879Y-17603708D02*
G01*
X-17979643Y-17731944D01*
X-17976216Y-17740217D01*
X-17976503Y-17742793D01*
X-18321647Y-19271747D01*
X-18326812Y-19279063D01*
X-18335636Y-19280584D01*
X-18337526Y-19279985D01*
X-19106215Y-18962562D01*
X-19112553Y-18956238D01*
X-19430915Y-18185274D01*
X-19430906Y-18176321D01*
X-19424810Y-18170099D01*
X-18836407Y-17911489D01*
X-18831698Y-17910500D01*
X-18550314Y-17910500D01*
X-18546450Y-17911156D01*
X-18537290Y-17914362D01*
X-18537289Y-17914361D01*
X-18537287Y-17914362D01*
X-18518971Y-17912298D01*
X-18503334Y-17910536D01*
X-18502683Y-17910500D01*
X-18491677Y-17910500D01*
X-18491674Y-17910500D01*
X-18480930Y-17908047D01*
X-18480318Y-17907943D01*
X-18446340Y-17904116D01*
X-18438113Y-17898945D01*
X-18434505Y-17897451D01*
X-18425033Y-17895290D01*
X-18398307Y-17873975D01*
X-18397788Y-17873607D01*
X-18388463Y-17867748D01*
X-18380686Y-17859969D01*
X-18380206Y-17859539D01*
X-18353476Y-17838224D01*
X-18349264Y-17829475D01*
X-18346998Y-17826281D01*
X-18124424Y-17603707D01*
X-18116152Y-17600281D01*
X-18107879Y-17603708D01*
G37*
%TD.AperFunction*%
%TD*%
%TA.AperFunction,Conductor*%
%TO.N,/PA10*%
G36*
X-8868865Y-17267405D02*
G01*
X-8866735Y-17270323D01*
X-8170510Y-18623431D01*
X-8169772Y-18632355D01*
X-8175561Y-18639188D01*
X-8176425Y-18639589D01*
X-8945511Y-18959134D01*
X-8954466Y-18959143D01*
X-8954489Y-18959134D01*
X-9723577Y-18639589D01*
X-9723848Y-18639476D01*
X-9730172Y-18633138D01*
X-9730163Y-18624183D01*
X-9729893Y-18623581D01*
X-9073199Y-17270568D01*
X-9066503Y-17264623D01*
X-9062673Y-17263978D01*
X-8877138Y-17263978D01*
X-8868865Y-17267405D01*
G37*
%TD.AperFunction*%
%TD*%
%TA.AperFunction,Conductor*%
%TO.N,/PA10*%
G36*
X-10184261Y-12284634D02*
G01*
X-10177511Y-12290497D01*
X-10112735Y-12420048D01*
X-10112100Y-12428980D01*
X-10114927Y-12433553D01*
X-10244423Y-12563049D01*
X-10252696Y-12566476D01*
X-10257927Y-12565241D01*
X-10321935Y-12533237D01*
X-10387479Y-12500465D01*
X-10393342Y-12493715D01*
X-10415481Y-12427591D01*
X-10491125Y-12201660D01*
X-10490502Y-12192728D01*
X-10483745Y-12186851D01*
X-10476316Y-12186851D01*
X-10184261Y-12284634D01*
G37*
%TD.AperFunction*%
%TD*%
%TA.AperFunction,Conductor*%
%TO.N,/PA9*%
G36*
X-10537815Y-12638187D02*
G01*
X-10531065Y-12644050D01*
X-10466289Y-12773601D01*
X-10465654Y-12782533D01*
X-10468481Y-12787106D01*
X-10597977Y-12916602D01*
X-10606250Y-12920029D01*
X-10611481Y-12918794D01*
X-10675489Y-12886790D01*
X-10741033Y-12854018D01*
X-10746896Y-12847268D01*
X-10769035Y-12781144D01*
X-10844679Y-12555213D01*
X-10844056Y-12546281D01*
X-10837299Y-12540404D01*
X-10829870Y-12540404D01*
X-10537815Y-12638187D01*
G37*
%TD.AperFunction*%
%TD*%
%TA.AperFunction,Conductor*%
%TO.N,/PA9*%
G36*
X-10346414Y-17698350D02*
G01*
X-10342987Y-17706623D01*
X-10343283Y-17709238D01*
X-10701612Y-19271804D01*
X-10706801Y-19279102D01*
X-10715631Y-19280593D01*
X-10717482Y-19280003D01*
X-11485512Y-18962853D01*
X-11491850Y-18956529D01*
X-11810661Y-18185869D01*
X-11810657Y-18176915D01*
X-11804323Y-18170586D01*
X-11804002Y-18170458D01*
X-10541991Y-17695671D01*
X-10537871Y-17694923D01*
X-10354687Y-17694923D01*
X-10346414Y-17698350D01*
G37*
%TD.AperFunction*%
%TD*%
%TA.AperFunction,Conductor*%
%TO.N,/PA8*%
G36*
X-12896563Y-17690129D02*
G01*
X-12893510Y-17692327D01*
X-12762328Y-17823509D01*
X-12758901Y-17831782D01*
X-12759506Y-17835495D01*
X-13240725Y-19273396D01*
X-13246600Y-19280154D01*
X-13255533Y-19280778D01*
X-13256286Y-19280497D01*
X-14026215Y-18962562D01*
X-14032553Y-18956238D01*
X-14350498Y-18186284D01*
X-14350489Y-18177330D01*
X-14344150Y-18171005D01*
X-14343419Y-18170731D01*
X-12905494Y-17689505D01*
X-12896563Y-17690129D01*
G37*
%TD.AperFunction*%
%TD*%
%TA.AperFunction,Conductor*%
%TO.N,/PA8*%
G36*
X-11198000Y-12890310D02*
G01*
X-10941409Y-13041004D01*
X-10936010Y-13048149D01*
X-10935932Y-13048470D01*
X-10893294Y-13233841D01*
X-10894779Y-13242672D01*
X-10902073Y-13247866D01*
X-10904696Y-13248164D01*
X-11084684Y-13248164D01*
X-11092957Y-13244737D01*
X-11093497Y-13244159D01*
X-11314884Y-12990600D01*
X-11317744Y-12982114D01*
X-11313766Y-12974092D01*
X-11313423Y-12973803D01*
X-11211276Y-12891296D01*
X-11202688Y-12888765D01*
X-11198000Y-12890310D01*
G37*
%TD.AperFunction*%
%TD*%
%TA.AperFunction,Conductor*%
%TO.N,/PA7{slash}MOSI*%
G36*
X-16468968Y-17263427D02*
G01*
X-16466770Y-17266480D01*
X-15790294Y-18623502D01*
X-15789670Y-18632435D01*
X-15795545Y-18639193D01*
X-15796276Y-18639527D01*
X-16565511Y-18959134D01*
X-16574466Y-18959143D01*
X-16574489Y-18959134D01*
X-17343725Y-18639527D01*
X-17350050Y-18633188D01*
X-17350041Y-18624233D01*
X-17349715Y-18623518D01*
X-16673231Y-17266480D01*
X-16666472Y-17260605D01*
X-16662759Y-17260000D01*
X-16477241Y-17260000D01*
X-16468968Y-17263427D01*
G37*
%TD.AperFunction*%
%TD*%
%TA.AperFunction,Conductor*%
%TO.N,/PA7{slash}MOSI*%
G36*
X-13749047Y-12187474D02*
G01*
X-13743170Y-12194231D01*
X-13743170Y-12201661D01*
X-13840953Y-12493715D01*
X-13846816Y-12500465D01*
X-13976367Y-12565241D01*
X-13985299Y-12565876D01*
X-13989872Y-12563049D01*
X-14119368Y-12433553D01*
X-14122795Y-12425280D01*
X-14121562Y-12420053D01*
X-14056784Y-12290496D01*
X-14050036Y-12284634D01*
X-13757979Y-12186851D01*
X-13749047Y-12187474D01*
G37*
%TD.AperFunction*%
%TD*%
%TA.AperFunction,Conductor*%
%TO.N,/PA4{slash}CS*%
G36*
X-23898884Y-17344054D02*
G01*
X-23898259Y-17344635D01*
X-23767774Y-17475120D01*
X-23764878Y-17479909D01*
X-23407883Y-18624520D01*
X-23408691Y-18633439D01*
X-23414570Y-18638811D01*
X-24183474Y-18957706D01*
X-24192429Y-18957710D01*
X-24196239Y-18955162D01*
X-24783369Y-18366649D01*
X-24786786Y-18358372D01*
X-24783940Y-18350738D01*
X-23915385Y-17345259D01*
X-23907385Y-17341239D01*
X-23898884Y-17344054D01*
G37*
%TD.AperFunction*%
%TD*%
%TA.AperFunction,Conductor*%
%TO.N,/PA3*%
G36*
X-25596563Y-17690129D02*
G01*
X-25593510Y-17692327D01*
X-25462328Y-17823509D01*
X-25458901Y-17831782D01*
X-25459506Y-17835495D01*
X-25940725Y-19273396D01*
X-25946600Y-19280154D01*
X-25955533Y-19280778D01*
X-25956286Y-19280497D01*
X-26726215Y-18962562D01*
X-26732553Y-18956238D01*
X-27050498Y-18186284D01*
X-27050489Y-18177330D01*
X-27044150Y-18171005D01*
X-27043419Y-18170731D01*
X-25605494Y-17689505D01*
X-25596563Y-17690129D01*
G37*
%TD.AperFunction*%
%TD*%
%TA.AperFunction,Conductor*%
%TO.N,/PA3*%
G36*
X-15163260Y-10773260D02*
G01*
X-15157383Y-10780017D01*
X-15157383Y-10787447D01*
X-15255166Y-11079501D01*
X-15261029Y-11086251D01*
X-15390580Y-11151027D01*
X-15399512Y-11151662D01*
X-15404085Y-11148835D01*
X-15533581Y-11019339D01*
X-15537008Y-11011066D01*
X-15535775Y-11005839D01*
X-15470997Y-10876282D01*
X-15464249Y-10870420D01*
X-15172192Y-10772637D01*
X-15163260Y-10773260D01*
G37*
%TD.AperFunction*%
%TD*%
%TA.AperFunction,Conductor*%
%TO.N,/PA2*%
G36*
X-28136563Y-17690129D02*
G01*
X-28133510Y-17692327D01*
X-28002328Y-17823509D01*
X-27998901Y-17831782D01*
X-27999506Y-17835495D01*
X-28480725Y-19273396D01*
X-28486600Y-19280154D01*
X-28495533Y-19280778D01*
X-28496286Y-19280497D01*
X-29266215Y-18962562D01*
X-29272553Y-18956238D01*
X-29590498Y-18186284D01*
X-29590489Y-18177330D01*
X-29584150Y-18171005D01*
X-29583419Y-18170731D01*
X-28145494Y-17689505D01*
X-28136563Y-17690129D01*
G37*
%TD.AperFunction*%
%TD*%
%TA.AperFunction,Conductor*%
%TO.N,/PA2*%
G36*
X-15153422Y-9651393D02*
G01*
X-15149968Y-9659655D01*
X-15149968Y-9659733D01*
X-15150612Y-9853590D01*
X-15154066Y-9861852D01*
X-15157080Y-9864016D01*
X-15284514Y-9927733D01*
X-15293446Y-9928368D01*
X-15298019Y-9925541D01*
X-15427515Y-9796045D01*
X-15430942Y-9787772D01*
X-15429709Y-9782545D01*
X-15365989Y-9655104D01*
X-15359225Y-9649238D01*
X-15355565Y-9648638D01*
X-15161707Y-9647994D01*
X-15153422Y-9651393D01*
G37*
%TD.AperFunction*%
%TD*%
%TA.AperFunction,Conductor*%
%TO.N,/PA1*%
G36*
X-15108655Y-8906735D02*
G01*
X-14918599Y-8985798D01*
X-14912277Y-8992140D01*
X-14912169Y-8992411D01*
X-14804938Y-9272016D01*
X-14805175Y-9280968D01*
X-14811672Y-9287130D01*
X-14819551Y-9287309D01*
X-15108140Y-9191414D01*
X-15114911Y-9185553D01*
X-15116084Y-9181561D01*
X-15124812Y-9100311D01*
X-15124845Y-9099686D01*
X-15124845Y-8917539D01*
X-15121418Y-8909266D01*
X-15113145Y-8905839D01*
X-15108655Y-8906735D01*
G37*
%TD.AperFunction*%
%TD*%
%TA.AperFunction,Conductor*%
%TO.N,/PA1*%
G36*
X-30676563Y-17690129D02*
G01*
X-30673510Y-17692327D01*
X-30542328Y-17823509D01*
X-30538901Y-17831782D01*
X-30539506Y-17835495D01*
X-31020725Y-19273396D01*
X-31026600Y-19280154D01*
X-31035533Y-19280778D01*
X-31036286Y-19280497D01*
X-31806215Y-18962562D01*
X-31812553Y-18956238D01*
X-32130498Y-18186284D01*
X-32130489Y-18177330D01*
X-32124150Y-18171005D01*
X-32123419Y-18170731D01*
X-30685494Y-17689505D01*
X-30676563Y-17690129D01*
G37*
%TD.AperFunction*%
%TD*%
%TA.AperFunction,Conductor*%
%TO.N,/PA0*%
G36*
X-14683477Y-8556416D02*
G01*
X-14553922Y-8621193D01*
X-14548059Y-8627943D01*
X-14450276Y-8919997D01*
X-14450899Y-8928930D01*
X-14457656Y-8934807D01*
X-14465086Y-8934807D01*
X-14757140Y-8837024D01*
X-14763890Y-8831161D01*
X-14828667Y-8701607D01*
X-14829301Y-8692678D01*
X-14826476Y-8688107D01*
X-14696977Y-8558608D01*
X-14688705Y-8555182D01*
X-14683477Y-8556416D01*
G37*
%TD.AperFunction*%
%TD*%
%TA.AperFunction,Conductor*%
%TO.N,/PA0*%
G36*
X-32967828Y-17441209D02*
G01*
X-32964278Y-17443641D01*
X-32833642Y-17574277D01*
X-32830215Y-17582550D01*
X-32831006Y-17586780D01*
X-33495677Y-19300932D01*
X-33501863Y-19307407D01*
X-33510816Y-19307611D01*
X-33511053Y-19307516D01*
X-34346216Y-18962562D01*
X-34352554Y-18956236D01*
X-34697518Y-18121052D01*
X-34697508Y-18112097D01*
X-34691170Y-18105771D01*
X-34691004Y-18105704D01*
X-32976778Y-17441005D01*
X-32967828Y-17441209D01*
G37*
%TD.AperFunction*%
%TD*%
%TA.AperFunction,Conductor*%
%TO.N,/PA5{slash}SCLK*%
G36*
X-20482337Y-17741074D02*
G01*
X-20479679Y-17743066D01*
X-20348469Y-17874276D01*
X-20345042Y-17882549D01*
X-20345773Y-17886619D01*
X-20860482Y-19273906D01*
X-20866572Y-19280470D01*
X-20875521Y-19280805D01*
X-20875917Y-19280650D01*
X-20892249Y-19273906D01*
X-21646216Y-18962561D01*
X-21652553Y-18956238D01*
X-21970312Y-18186735D01*
X-21970303Y-18177781D01*
X-21963964Y-18171456D01*
X-21962802Y-18171047D01*
X-21147439Y-17932274D01*
X-21138842Y-17933076D01*
X-21130161Y-17937500D01*
X-21020500Y-17954869D01*
X-20910839Y-17937500D01*
X-20811913Y-17887095D01*
X-20738968Y-17814149D01*
X-20733991Y-17811199D01*
X-20491239Y-17740111D01*
X-20482337Y-17741074D01*
G37*
%TD.AperFunction*%
%TD*%
%TA.AperFunction,Conductor*%
%TO.N,/VDD_5V*%
G36*
X-40870776Y-16833146D02*
G01*
X-40862799Y-16837215D01*
X-40860000Y-16844809D01*
X-40860000Y-17323001D01*
X-40863427Y-17331274D01*
X-40870977Y-17334679D01*
X-41272966Y-17359564D01*
X-41281435Y-17356655D01*
X-41283674Y-17353984D01*
X-41447203Y-17086217D01*
X-41448591Y-17077370D01*
X-41447098Y-17073852D01*
X-41277789Y-16807139D01*
X-41270463Y-16801991D01*
X-41266993Y-16801747D01*
X-40870776Y-16833146D01*
G37*
%TD.AperFunction*%
%TD*%
%TA.AperFunction,Conductor*%
%TO.N,/VDD_5V*%
G36*
X-40856421Y-16792143D02*
G01*
X-40375869Y-17079899D01*
X-40370532Y-17087089D01*
X-40371842Y-17095948D01*
X-40375925Y-17100008D01*
X-40856288Y-17384060D01*
X-40864251Y-17385515D01*
X-41150308Y-17335688D01*
X-41157870Y-17330893D01*
X-41160000Y-17324162D01*
X-41160000Y-16844109D01*
X-41156573Y-16835836D01*
X-41149998Y-16832533D01*
X-40864128Y-16790605D01*
X-40856421Y-16792143D01*
G37*
%TD.AperFunction*%
%TD*%
%TA.AperFunction,Conductor*%
%TO.N,/VDD_5V*%
G36*
X-39569776Y-18738370D02*
G01*
X-39562179Y-18743111D01*
X-39560000Y-18749911D01*
X-39560000Y-19230088D01*
X-39563427Y-19238361D01*
X-39569777Y-19241629D01*
X-39855757Y-19289292D01*
X-39863691Y-19287789D01*
X-40344237Y-19000038D01*
X-40349574Y-18992848D01*
X-40348264Y-18983989D01*
X-40344237Y-18979962D01*
X-39960051Y-18749911D01*
X-39863691Y-18692209D01*
X-39855758Y-18690707D01*
X-39569776Y-18738370D01*
G37*
%TD.AperFunction*%
%TD*%
%TA.AperFunction,Conductor*%
%TO.N,/VDD_5V*%
G36*
X-39569776Y-16838370D02*
G01*
X-39562179Y-16843111D01*
X-39560000Y-16849911D01*
X-39560000Y-17330088D01*
X-39563427Y-17338361D01*
X-39569777Y-17341629D01*
X-39855757Y-17389292D01*
X-39863691Y-17387789D01*
X-40344237Y-17100038D01*
X-40349574Y-17092848D01*
X-40348264Y-17083989D01*
X-40344237Y-17079962D01*
X-39960051Y-16849911D01*
X-39863691Y-16792209D01*
X-39855758Y-16790707D01*
X-39569776Y-16838370D01*
G37*
%TD.AperFunction*%
%TD*%
%TA.AperFunction,Conductor*%
%TO.N,/VDD_3.3V*%
G36*
X-36882232Y-16813821D02*
G01*
X-36878448Y-16816808D01*
X-36665248Y-17072507D01*
X-36662582Y-17081056D01*
X-36665248Y-17087493D01*
X-36878556Y-17343321D01*
X-36886486Y-17347480D01*
X-36891055Y-17346988D01*
X-37165898Y-17260473D01*
X-37241815Y-17236576D01*
X-37248676Y-17230824D01*
X-37250000Y-17225421D01*
X-37250000Y-16942404D01*
X-37246574Y-16934134D01*
X-37242036Y-16931319D01*
X-36891167Y-16813212D01*
X-36882232Y-16813821D01*
G37*
%TD.AperFunction*%
%TD*%
%TA.AperFunction,Conductor*%
%TO.N,/VDD_3.3V*%
G36*
X-37254331Y-16792721D02*
G01*
X-36966637Y-16930814D01*
X-36960662Y-16937484D01*
X-36960000Y-16941362D01*
X-36960000Y-17226817D01*
X-36963427Y-17235090D01*
X-36966405Y-17237250D01*
X-37254276Y-17383350D01*
X-37263204Y-17384039D01*
X-37265526Y-17382988D01*
X-37529628Y-17226817D01*
X-37744077Y-17100007D01*
X-37749453Y-17092847D01*
X-37748192Y-17083982D01*
X-37744133Y-17079899D01*
X-37265399Y-16793232D01*
X-37256541Y-16791923D01*
X-37254331Y-16792721D01*
G37*
%TD.AperFunction*%
%TD*%
%TA.AperFunction,Conductor*%
%TO.N,/VDD_3.3V*%
G36*
X-11924974Y-15475078D02*
G01*
X-11725079Y-15674973D01*
X-11721652Y-15683246D01*
X-11723019Y-15688734D01*
X-11991669Y-16194573D01*
X-11998576Y-16200272D01*
X-12006451Y-16199906D01*
X-12316192Y-16072563D01*
X-12322540Y-16066249D01*
X-12449907Y-15756449D01*
X-12449884Y-15747495D01*
X-12444575Y-15741668D01*
X-11938733Y-15473017D01*
X-11929821Y-15472164D01*
X-11924974Y-15475078D01*
G37*
%TD.AperFunction*%
%TD*%
%TA.AperFunction,Conductor*%
%TO.N,/VDD_3.3V*%
G36*
X-32561190Y-8917086D02*
G01*
X-32335840Y-9172255D01*
X-32332932Y-9180725D01*
X-32335840Y-9187745D01*
X-32561190Y-9442913D01*
X-32569235Y-9446846D01*
X-32575691Y-9445368D01*
X-32864031Y-9283353D01*
X-32869565Y-9276313D01*
X-32870000Y-9273153D01*
X-32870000Y-9086846D01*
X-32866573Y-9078573D01*
X-32864031Y-9076646D01*
X-32575690Y-8914630D01*
X-32566800Y-8913566D01*
X-32561190Y-8917086D01*
G37*
%TD.AperFunction*%
%TD*%
%TA.AperFunction,Conductor*%
%TO.N,/VDD_3.3V*%
G36*
X-36718009Y-16439714D02*
G01*
X-36714833Y-16441972D01*
X-36515269Y-16641536D01*
X-36513638Y-16643580D01*
X-36371078Y-16870266D01*
X-36369574Y-16879094D01*
X-36374406Y-16886172D01*
X-36653008Y-17075475D01*
X-36661777Y-17077291D01*
X-36667535Y-17074381D01*
X-36878335Y-16879094D01*
X-36917099Y-16843183D01*
X-36920838Y-16835048D01*
X-36919679Y-16829507D01*
X-36733637Y-16445147D01*
X-36726948Y-16439194D01*
X-36718009Y-16439714D01*
G37*
%TD.AperFunction*%
%TD*%
%TA.AperFunction,Conductor*%
%TO.N,/VDD_3.3V*%
G36*
X-11632509Y-14775246D02*
G01*
X-11376743Y-14988501D01*
X-11372584Y-14996431D01*
X-11373111Y-15001110D01*
X-11487369Y-15351923D01*
X-11493190Y-15358728D01*
X-11498494Y-15360000D01*
X-11781506Y-15360000D01*
X-11789779Y-15356573D01*
X-11792631Y-15351923D01*
X-11906890Y-15001108D01*
X-11906194Y-14992183D01*
X-11903262Y-14988505D01*
X-11647492Y-14775246D01*
X-11638944Y-14772581D01*
X-11632509Y-14775246D01*
G37*
%TD.AperFunction*%
%TD*%
%TA.AperFunction,Conductor*%
%TO.N,/VDD_3.3V*%
G36*
X-12602509Y-5535246D02*
G01*
X-12346743Y-5748501D01*
X-12342584Y-5756431D01*
X-12343111Y-5761110D01*
X-12457369Y-6111923D01*
X-12463190Y-6118728D01*
X-12468494Y-6120000D01*
X-12751506Y-6120000D01*
X-12759779Y-6116573D01*
X-12762631Y-6111923D01*
X-12876890Y-5761108D01*
X-12876194Y-5752183D01*
X-12873262Y-5748505D01*
X-12617492Y-5535246D01*
X-12608944Y-5532581D01*
X-12602509Y-5535246D01*
G37*
%TD.AperFunction*%
%TD*%
%TA.AperFunction,Conductor*%
%TO.N,/VDD_3.3V*%
G36*
X-22304875Y-4637753D02*
G01*
X-22297706Y-4643119D01*
X-22296067Y-4649090D01*
X-22296067Y-4931808D01*
X-22299494Y-4940081D01*
X-22303765Y-4942802D01*
X-22845564Y-5140036D01*
X-22854510Y-5139646D01*
X-22860363Y-5133549D01*
X-22989121Y-4825005D01*
X-22989143Y-4816051D01*
X-22989120Y-4815994D01*
X-22916978Y-4643119D01*
X-22859955Y-4506471D01*
X-22853606Y-4500157D01*
X-22846265Y-4499641D01*
X-22304875Y-4637753D01*
G37*
%TD.AperFunction*%
%TD*%
%TA.AperFunction,Conductor*%
%TO.N,/VDD_3.3V*%
G36*
X-40930435Y-657554D02*
G01*
X-40923442Y-663147D01*
X-40921990Y-668792D01*
X-40921990Y-951500D01*
X-40925417Y-959773D01*
X-40930073Y-962627D01*
X-41475801Y-1140022D01*
X-41484728Y-1139320D01*
X-41490216Y-1133401D01*
X-41562672Y-959773D01*
X-41619121Y-824505D01*
X-41619143Y-815551D01*
X-41619120Y-815494D01*
X-41490083Y-506278D01*
X-41483734Y-499964D01*
X-41476030Y-499547D01*
X-40930435Y-657554D01*
G37*
%TD.AperFunction*%
%TD*%
%TA.AperFunction,Conductor*%
%TO.N,/VDD_3.3V*%
G36*
X-40794835Y-553297D02*
G01*
X-40791650Y-555753D01*
X-40566228Y-802102D01*
X-40563171Y-810518D01*
X-40566228Y-817898D01*
X-40791650Y-1064246D01*
X-40799764Y-1068037D01*
X-40803752Y-1067522D01*
X-41141770Y-962555D01*
X-41148654Y-956828D01*
X-41150000Y-951381D01*
X-41150000Y-668618D01*
X-41146573Y-660345D01*
X-41141771Y-657444D01*
X-40803751Y-552477D01*
X-40794835Y-553297D01*
G37*
%TD.AperFunction*%
%TD*%
%TA.AperFunction,Conductor*%
%TO.N,/VDD_3.3V*%
G36*
X-33421910Y-11613427D02*
G01*
X-33419193Y-11617687D01*
X-33160092Y-12327281D01*
X-33160473Y-12336228D01*
X-33166582Y-12342094D01*
X-33567500Y-12509125D01*
X-33576455Y-12509144D01*
X-33576500Y-12509125D01*
X-33977419Y-12342094D01*
X-33983738Y-12335749D01*
X-33983909Y-12327283D01*
X-33724807Y-11617686D01*
X-33718751Y-11611091D01*
X-33713817Y-11610000D01*
X-33430183Y-11610000D01*
X-33421910Y-11613427D01*
G37*
%TD.AperFunction*%
%TD*%
%TA.AperFunction,Conductor*%
%TO.N,/VDD_3.3V*%
G36*
X-32680610Y-12362163D02*
G01*
X-32674054Y-12368261D01*
X-32672995Y-12373126D01*
X-32672995Y-12656767D01*
X-32676422Y-12665040D01*
X-32680744Y-12667780D01*
X-33389320Y-12921988D01*
X-33398264Y-12921556D01*
X-33404071Y-12915475D01*
X-33507266Y-12667780D01*
X-33571127Y-12514498D01*
X-33571145Y-12505547D01*
X-33404123Y-12104648D01*
X-33397778Y-12098330D01*
X-33389240Y-12098185D01*
X-32680610Y-12362163D01*
G37*
%TD.AperFunction*%
%TD*%
%TA.AperFunction,Conductor*%
%TO.N,/VDD_3.3V*%
G36*
X-30934446Y-12193003D02*
G01*
X-30358033Y-12504708D01*
X-30352385Y-12511657D01*
X-30353306Y-12520564D01*
X-30358033Y-12525291D01*
X-30934447Y-12836996D01*
X-30943354Y-12837917D01*
X-30945559Y-12837006D01*
X-31258847Y-12668313D01*
X-31264507Y-12661373D01*
X-31265000Y-12658011D01*
X-31265000Y-12371988D01*
X-31261573Y-12363715D01*
X-31258852Y-12361689D01*
X-30945559Y-12192992D01*
X-30936650Y-12192088D01*
X-30934446Y-12193003D01*
G37*
%TD.AperFunction*%
%TD*%
%TA.AperFunction,Conductor*%
%TO.N,/VDD_3.3V*%
G36*
X-33166582Y-12677905D02*
G01*
X-33160263Y-12684250D01*
X-33160092Y-12692718D01*
X-33419193Y-13402313D01*
X-33425249Y-13408909D01*
X-33430183Y-13410000D01*
X-33713817Y-13410000D01*
X-33722090Y-13406573D01*
X-33724807Y-13402313D01*
X-33983909Y-12692716D01*
X-33983528Y-12683771D01*
X-33977421Y-12677906D01*
X-33576499Y-12510873D01*
X-33567548Y-12510855D01*
X-33166582Y-12677905D01*
G37*
%TD.AperFunction*%
%TD*%
%TA.AperFunction,Conductor*%
%TO.N,/VDD_3.3V*%
G36*
X-12941719Y-4974374D02*
G01*
X-12529688Y-5215435D01*
X-12524278Y-5222570D01*
X-12524334Y-5228701D01*
X-12607740Y-5525184D01*
X-12613279Y-5532220D01*
X-12614610Y-5532860D01*
X-12880636Y-5640620D01*
X-12889591Y-5640550D01*
X-12895117Y-5635702D01*
X-13157063Y-5189747D01*
X-13158299Y-5180878D01*
X-13155250Y-5175550D01*
X-12955899Y-4976199D01*
X-12947627Y-4972773D01*
X-12941719Y-4974374D01*
G37*
%TD.AperFunction*%
%TD*%
%TA.AperFunction,Conductor*%
%TO.N,/VDD_3.3V*%
G36*
X-29734441Y-12192993D02*
G01*
X-29421152Y-12361687D01*
X-29415493Y-12368626D01*
X-29415000Y-12371988D01*
X-29415000Y-12658011D01*
X-29418427Y-12666284D01*
X-29421153Y-12668313D01*
X-29734442Y-12837006D01*
X-29743351Y-12837911D01*
X-29745554Y-12836996D01*
X-30321968Y-12525291D01*
X-30327616Y-12518341D01*
X-30326695Y-12509434D01*
X-30321971Y-12504709D01*
X-29745554Y-12193002D01*
X-29736647Y-12192082D01*
X-29734441Y-12192993D01*
G37*
%TD.AperFunction*%
%TD*%
%TA.AperFunction,Conductor*%
%TO.N,/VDD_3.3V*%
G36*
X-26634446Y-12193003D02*
G01*
X-26058033Y-12504708D01*
X-26052385Y-12511657D01*
X-26053306Y-12520564D01*
X-26058033Y-12525291D01*
X-26634447Y-12836996D01*
X-26643354Y-12837917D01*
X-26645559Y-12837006D01*
X-26958847Y-12668313D01*
X-26964507Y-12661373D01*
X-26965000Y-12658011D01*
X-26965000Y-12371988D01*
X-26961573Y-12363715D01*
X-26958852Y-12361689D01*
X-26645559Y-12192992D01*
X-26636650Y-12192088D01*
X-26634446Y-12193003D01*
G37*
%TD.AperFunction*%
%TD*%
%TA.AperFunction,Conductor*%
%TO.N,/VDD_3.3V*%
G36*
X-11490221Y-14183427D02*
G01*
X-11487369Y-14188077D01*
X-11373111Y-14538889D01*
X-11373807Y-14547816D01*
X-11376743Y-14551498D01*
X-11632507Y-14764752D01*
X-11641056Y-14767418D01*
X-11647493Y-14764752D01*
X-11903258Y-14551498D01*
X-11907417Y-14543568D01*
X-11906891Y-14538894D01*
X-11792631Y-14188076D01*
X-11786810Y-14181271D01*
X-11781506Y-14180000D01*
X-11498494Y-14180000D01*
X-11490221Y-14183427D01*
G37*
%TD.AperFunction*%
%TD*%
%TA.AperFunction,Conductor*%
%TO.N,/VDD_3.3V*%
G36*
X-16890221Y-10323427D02*
G01*
X-16887369Y-10328077D01*
X-16773111Y-10678889D01*
X-16773807Y-10687816D01*
X-16776743Y-10691498D01*
X-17032507Y-10904752D01*
X-17041056Y-10907418D01*
X-17047493Y-10904752D01*
X-17303258Y-10691498D01*
X-17307417Y-10683568D01*
X-17306891Y-10678894D01*
X-17192631Y-10328076D01*
X-17186810Y-10321271D01*
X-17181506Y-10320000D01*
X-16898494Y-10320000D01*
X-16890221Y-10323427D01*
G37*
%TD.AperFunction*%
%TD*%
%TA.AperFunction,Conductor*%
%TO.N,/VDD_3.3V*%
G36*
X-17032509Y-9565246D02*
G01*
X-16776743Y-9778501D01*
X-16772584Y-9786431D01*
X-16773111Y-9791110D01*
X-16887369Y-10141923D01*
X-16893190Y-10148728D01*
X-16898494Y-10150000D01*
X-17181506Y-10150000D01*
X-17189779Y-10146573D01*
X-17192631Y-10141923D01*
X-17306890Y-9791108D01*
X-17306194Y-9782183D01*
X-17303262Y-9778505D01*
X-17047492Y-9565246D01*
X-17038944Y-9562581D01*
X-17032509Y-9565246D01*
G37*
%TD.AperFunction*%
%TD*%
%TA.AperFunction,Conductor*%
%TO.N,/VDD_3.3V*%
G36*
X-17032509Y-10915246D02*
G01*
X-16776743Y-11128501D01*
X-16772584Y-11136431D01*
X-16773111Y-11141110D01*
X-16887369Y-11491923D01*
X-16893190Y-11498728D01*
X-16898494Y-11500000D01*
X-17181506Y-11500000D01*
X-17189779Y-11496573D01*
X-17192631Y-11491923D01*
X-17306890Y-11141108D01*
X-17306194Y-11132183D01*
X-17303262Y-11128505D01*
X-17047492Y-10915246D01*
X-17038944Y-10912581D01*
X-17032509Y-10915246D01*
G37*
%TD.AperFunction*%
%TD*%
%TA.AperFunction,Conductor*%
%TO.N,/VDD_3.3V*%
G36*
X-16664738Y-9244263D02*
G01*
X-16664529Y-9244467D01*
X-16464451Y-9444545D01*
X-16461024Y-9452818D01*
X-16464451Y-9461091D01*
X-16464683Y-9461317D01*
X-16755902Y-9736830D01*
X-16764267Y-9740027D01*
X-16770362Y-9738113D01*
X-16840996Y-9691761D01*
X-17035241Y-9564294D01*
X-17040277Y-9556891D01*
X-17040516Y-9554175D01*
X-17031921Y-9261075D01*
X-17028253Y-9252907D01*
X-17020519Y-9249723D01*
X-16673094Y-9241044D01*
X-16664738Y-9244263D01*
G37*
%TD.AperFunction*%
%TD*%
%TA.AperFunction,Conductor*%
%TO.N,/VDD_3.3V*%
G36*
X-19786278Y-15152645D02*
G01*
X-19781973Y-15157865D01*
X-19690891Y-15375483D01*
X-19690858Y-15384438D01*
X-19690891Y-15384517D01*
X-19781973Y-15602134D01*
X-19788329Y-15608443D01*
X-19795063Y-15609089D01*
X-20180597Y-15531883D01*
X-20188037Y-15526899D01*
X-20190000Y-15520411D01*
X-20190000Y-15239588D01*
X-20186573Y-15231315D01*
X-20180600Y-15228117D01*
X-19795061Y-15150910D01*
X-19786278Y-15152645D01*
G37*
%TD.AperFunction*%
%TD*%
%TA.AperFunction,Conductor*%
%TO.N,/VDD_3.3V*%
G36*
X-19427960Y-14938912D02*
G01*
X-19229337Y-15137535D01*
X-19225910Y-15145808D01*
X-19228050Y-15152553D01*
X-19505247Y-15545470D01*
X-19512816Y-15550254D01*
X-19521552Y-15548285D01*
X-19523047Y-15547031D01*
X-19689022Y-15382379D01*
X-19691606Y-15378514D01*
X-19781908Y-15158210D01*
X-19781875Y-15149258D01*
X-19777227Y-15143820D01*
X-19442376Y-14937227D01*
X-19433536Y-14935800D01*
X-19427960Y-14938912D01*
G37*
%TD.AperFunction*%
%TD*%
%TA.AperFunction,Conductor*%
%TO.N,/BOOT0*%
G36*
X-24001316Y-14163427D02*
G01*
X-23998117Y-14169403D01*
X-23920911Y-14554937D01*
X-23922646Y-14563722D01*
X-23927866Y-14568027D01*
X-24145483Y-14659109D01*
X-24154437Y-14659142D01*
X-24154517Y-14659109D01*
X-24372135Y-14568027D01*
X-24378444Y-14561672D01*
X-24379090Y-14554939D01*
X-24301884Y-14169403D01*
X-24296899Y-14161963D01*
X-24290411Y-14160000D01*
X-24009589Y-14160000D01*
X-24001316Y-14163427D01*
G37*
%TD.AperFunction*%
%TD*%
%TA.AperFunction,Conductor*%
%TO.N,/BOOT0*%
G36*
X-24142509Y-11305246D02*
G01*
X-23886743Y-11518501D01*
X-23882584Y-11526431D01*
X-23883111Y-11531110D01*
X-23997369Y-11881923D01*
X-24003190Y-11888728D01*
X-24008494Y-11890000D01*
X-24291506Y-11890000D01*
X-24299779Y-11886573D01*
X-24302631Y-11881923D01*
X-24416890Y-11531108D01*
X-24416194Y-11522183D01*
X-24413262Y-11518505D01*
X-24157492Y-11305246D01*
X-24148944Y-11302581D01*
X-24142509Y-11305246D01*
G37*
%TD.AperFunction*%
%TD*%
%TA.AperFunction,Conductor*%
%TO.N,/BOOT0*%
G36*
X-10951530Y-7144395D02*
G01*
X-10822034Y-7273891D01*
X-10818607Y-7282164D01*
X-10819842Y-7287396D01*
X-10884618Y-7416947D01*
X-10891368Y-7422810D01*
X-11183422Y-7520593D01*
X-11192355Y-7519970D01*
X-11198232Y-7513213D01*
X-11198232Y-7505784D01*
X-11100449Y-7213727D01*
X-11094587Y-7206979D01*
X-10965032Y-7142202D01*
X-10956103Y-7141568D01*
X-10951530Y-7144395D01*
G37*
%TD.AperFunction*%
%TD*%
%TA.AperFunction,Conductor*%
%TO.N,/BOOT0*%
G36*
X-31220236Y-11433427D02*
G01*
X-31217378Y-11438095D01*
X-31092348Y-11824087D01*
X-31093059Y-11833013D01*
X-31098962Y-11838485D01*
X-31315483Y-11929109D01*
X-31324437Y-11929142D01*
X-31324517Y-11929109D01*
X-31541039Y-11838485D01*
X-31547348Y-11832129D01*
X-31547653Y-11824088D01*
X-31422623Y-11438095D01*
X-31416812Y-11431280D01*
X-31411491Y-11430000D01*
X-31228509Y-11430000D01*
X-31220236Y-11433427D01*
G37*
%TD.AperFunction*%
%TD*%
%TA.AperFunction,Conductor*%
%TO.N,/BOOT0*%
G36*
X-31312102Y-11266227D02*
G01*
X-31066532Y-11490937D01*
X-31062741Y-11499051D01*
X-31063769Y-11504388D01*
X-31216889Y-11843119D01*
X-31223419Y-11849246D01*
X-31227550Y-11850000D01*
X-31412450Y-11850000D01*
X-31420723Y-11846573D01*
X-31423111Y-11843119D01*
X-31576232Y-11504388D01*
X-31576517Y-11495438D01*
X-31573472Y-11490940D01*
X-31327898Y-11266226D01*
X-31319482Y-11263170D01*
X-31312102Y-11266227D01*
G37*
%TD.AperFunction*%
%TD*%
%TA.AperFunction,Conductor*%
%TO.N,/BOOT0*%
G36*
X-10711937Y-6641178D02*
G01*
X-10656110Y-6664544D01*
X-10497898Y-6730765D01*
X-10491590Y-6737120D01*
X-10491623Y-6746074D01*
X-10492032Y-6746948D01*
X-10710134Y-7167098D01*
X-10716987Y-7172861D01*
X-10725909Y-7172091D01*
X-10728791Y-7169980D01*
X-10856803Y-7041968D01*
X-10859756Y-7036989D01*
X-10945166Y-6745734D01*
X-10944206Y-6736834D01*
X-10938434Y-6731642D01*
X-10720948Y-6641167D01*
X-10711993Y-6641155D01*
X-10711937Y-6641178D01*
G37*
%TD.AperFunction*%
%TD*%
%TA.AperFunction,Conductor*%
%TO.N,/BOOT0*%
G36*
X-30829207Y-14562435D02*
G01*
X-30822332Y-14568172D01*
X-30820995Y-14573603D01*
X-30820995Y-14756597D01*
X-30824422Y-14764870D01*
X-30828957Y-14767684D01*
X-31214005Y-14897489D01*
X-31222940Y-14896885D01*
X-31228536Y-14890919D01*
X-31280115Y-14767684D01*
X-31319111Y-14674515D01*
X-31319143Y-14665563D01*
X-31228442Y-14448855D01*
X-31222086Y-14442547D01*
X-31214163Y-14442205D01*
X-30829207Y-14562435D01*
G37*
%TD.AperFunction*%
%TD*%
%TA.AperFunction,Conductor*%
%TO.N,/BOOT0*%
G36*
X-30933685Y-14343414D02*
G01*
X-30594588Y-14526787D01*
X-30358033Y-14654708D01*
X-30352385Y-14661658D01*
X-30353306Y-14670565D01*
X-30358033Y-14675292D01*
X-30933682Y-14986583D01*
X-30942589Y-14987504D01*
X-30945905Y-14985912D01*
X-31259960Y-14768489D01*
X-31264811Y-14760962D01*
X-31265000Y-14758869D01*
X-31265000Y-14571130D01*
X-31261573Y-14562857D01*
X-31259966Y-14561514D01*
X-30945904Y-14344087D01*
X-30937154Y-14342197D01*
X-30933685Y-14343414D01*
G37*
%TD.AperFunction*%
%TD*%
%TA.AperFunction,Conductor*%
%TO.N,/BOOT0*%
G36*
X-29734098Y-14344086D02*
G01*
X-29420040Y-14561511D01*
X-29415189Y-14569037D01*
X-29415000Y-14571130D01*
X-29415000Y-14758869D01*
X-29418427Y-14767142D01*
X-29420040Y-14768489D01*
X-29734094Y-14985911D01*
X-29742847Y-14987802D01*
X-29746319Y-14986583D01*
X-30321968Y-14675292D01*
X-30327616Y-14668342D01*
X-30326695Y-14659435D01*
X-30321968Y-14654708D01*
X-30167413Y-14571130D01*
X-29746317Y-14343415D01*
X-29737412Y-14342495D01*
X-29734098Y-14344086D01*
G37*
%TD.AperFunction*%
%TD*%
%TA.AperFunction,Conductor*%
%TO.N,/BOOT0*%
G36*
X-26633685Y-14343414D02*
G01*
X-26294588Y-14526787D01*
X-26058033Y-14654708D01*
X-26052385Y-14661658D01*
X-26053306Y-14670565D01*
X-26058033Y-14675292D01*
X-26633682Y-14986583D01*
X-26642589Y-14987504D01*
X-26645905Y-14985912D01*
X-26959960Y-14768489D01*
X-26964811Y-14760962D01*
X-26965000Y-14758869D01*
X-26965000Y-14571130D01*
X-26961573Y-14562857D01*
X-26959966Y-14561514D01*
X-26645904Y-14344087D01*
X-26637154Y-14342197D01*
X-26633685Y-14343414D01*
G37*
%TD.AperFunction*%
%TD*%
%TA.AperFunction,Conductor*%
%TO.N,/BOOT0*%
G36*
X-24247061Y-14433114D02*
G01*
X-24241465Y-14439080D01*
X-24150891Y-14655483D01*
X-24150858Y-14664437D01*
X-24150891Y-14664517D01*
X-24241559Y-14881143D01*
X-24247915Y-14887452D01*
X-24255840Y-14887794D01*
X-24640793Y-14767564D01*
X-24647668Y-14761827D01*
X-24649005Y-14756396D01*
X-24649005Y-14573402D01*
X-24645578Y-14565129D01*
X-24641047Y-14562316D01*
X-24255995Y-14432510D01*
X-24247061Y-14433114D01*
G37*
%TD.AperFunction*%
%TD*%
%TA.AperFunction,Conductor*%
%TO.N,/BOOT0*%
G36*
X-25434098Y-14344086D02*
G01*
X-25120040Y-14561511D01*
X-25115189Y-14569037D01*
X-25115000Y-14571130D01*
X-25115000Y-14758869D01*
X-25118427Y-14767142D01*
X-25120040Y-14768489D01*
X-25434094Y-14985911D01*
X-25442847Y-14987802D01*
X-25446319Y-14986583D01*
X-26021968Y-14675292D01*
X-26027616Y-14668342D01*
X-26026695Y-14659435D01*
X-26021968Y-14654708D01*
X-25867413Y-14571130D01*
X-25446317Y-14343415D01*
X-25437412Y-14342495D01*
X-25434098Y-14344086D01*
G37*
%TD.AperFunction*%
%TD*%
%TA.AperFunction,Conductor*%
%TO.N,/NRST*%
G36*
X-29734441Y-7582993D02*
G01*
X-29421152Y-7751687D01*
X-29415493Y-7758626D01*
X-29415000Y-7761988D01*
X-29415000Y-8048011D01*
X-29418427Y-8056284D01*
X-29421153Y-8058313D01*
X-29734442Y-8227006D01*
X-29743351Y-8227911D01*
X-29745554Y-8226996D01*
X-30321968Y-7915292D01*
X-30327616Y-7908342D01*
X-30326695Y-7899435D01*
X-30321968Y-7894708D01*
X-30070321Y-7758626D01*
X-29745554Y-7583002D01*
X-29736647Y-7582082D01*
X-29734441Y-7582993D01*
G37*
%TD.AperFunction*%
%TD*%
%TA.AperFunction,Conductor*%
%TO.N,/NRST*%
G36*
X-26634447Y-7583003D02*
G01*
X-26058033Y-7894708D01*
X-26052385Y-7901658D01*
X-26053306Y-7910565D01*
X-26058033Y-7915292D01*
X-26634447Y-8226996D01*
X-26643354Y-8227917D01*
X-26645559Y-8227006D01*
X-26958847Y-8058313D01*
X-26964507Y-8051373D01*
X-26965000Y-8048011D01*
X-26965000Y-7761988D01*
X-26961573Y-7753715D01*
X-26958852Y-7751689D01*
X-26645559Y-7582992D01*
X-26636650Y-7582088D01*
X-26634447Y-7583003D01*
G37*
%TD.AperFunction*%
%TD*%
%TA.AperFunction,Conductor*%
%TO.N,/NRST*%
G36*
X-24039209Y-8583427D02*
G01*
X-24036861Y-8586792D01*
X-23874422Y-8938277D01*
X-23874062Y-8947224D01*
X-23877550Y-8952171D01*
X-24132507Y-9164752D01*
X-24141056Y-9167418D01*
X-24147493Y-9164752D01*
X-24259617Y-9071264D01*
X-24402452Y-8952170D01*
X-24406610Y-8944241D01*
X-24405580Y-8938280D01*
X-24243139Y-8586791D01*
X-24236557Y-8580719D01*
X-24232518Y-8580000D01*
X-24047482Y-8580000D01*
X-24039209Y-8583427D01*
G37*
%TD.AperFunction*%
%TD*%
%TA.AperFunction,Conductor*%
%TO.N,/NRST*%
G36*
X-25434098Y-7584086D02*
G01*
X-25120040Y-7801511D01*
X-25115189Y-7809037D01*
X-25115000Y-7811130D01*
X-25115000Y-7998869D01*
X-25118427Y-8007142D01*
X-25120040Y-8008489D01*
X-25434094Y-8225911D01*
X-25442847Y-8227802D01*
X-25446319Y-8226583D01*
X-26021968Y-7915292D01*
X-26027616Y-7908342D01*
X-26026695Y-7899435D01*
X-26021968Y-7894708D01*
X-25867413Y-7811130D01*
X-25446317Y-7583415D01*
X-25437412Y-7582495D01*
X-25434098Y-7584086D01*
G37*
%TD.AperFunction*%
%TD*%
%TA.AperFunction,Conductor*%
%TO.N,/NRST*%
G36*
X-30968336Y-8638854D02*
G01*
X-30769089Y-8838101D01*
X-30765662Y-8846374D01*
X-30767420Y-8852543D01*
X-31034779Y-9283421D01*
X-31042053Y-9288644D01*
X-31049164Y-9288075D01*
X-31304844Y-9183114D01*
X-31311196Y-9176803D01*
X-31311894Y-9174482D01*
X-31370275Y-8868197D01*
X-31368458Y-8859428D01*
X-31364599Y-8855854D01*
X-30982422Y-8636973D01*
X-30973542Y-8635836D01*
X-30968336Y-8638854D01*
G37*
%TD.AperFunction*%
%TD*%
%TA.AperFunction,Conductor*%
%TO.N,/NRST*%
G36*
X-30332962Y-7914129D02*
G01*
X-30332946Y-7914154D01*
X-30134902Y-8221849D01*
X-30133306Y-8230660D01*
X-30136688Y-8236670D01*
X-30475476Y-8558033D01*
X-30483837Y-8561240D01*
X-30491801Y-8557817D01*
X-30695883Y-8353735D01*
X-30830610Y-8240184D01*
X-30834728Y-8232232D01*
X-30832016Y-8223698D01*
X-30829431Y-8221418D01*
X-30349138Y-7910662D01*
X-30340332Y-7909046D01*
X-30332962Y-7914129D01*
G37*
%TD.AperFunction*%
%TD*%
%TA.AperFunction,Conductor*%
%TO.N,/NRST*%
G36*
X-13975920Y-7848917D02*
G01*
X-13846785Y-7914082D01*
X-13840961Y-7920811D01*
X-13743180Y-8212860D01*
X-13743803Y-8221793D01*
X-13750560Y-8227670D01*
X-13758002Y-8227666D01*
X-14049745Y-8129631D01*
X-14056489Y-8123760D01*
X-14121138Y-7994063D01*
X-14121762Y-7985129D01*
X-14118942Y-7980572D01*
X-13989459Y-7851089D01*
X-13981187Y-7847663D01*
X-13975920Y-7848917D01*
G37*
%TD.AperFunction*%
%TD*%
%TA.AperFunction,Conductor*%
%TO.N,/NRST*%
G36*
X-14448094Y-7467878D02*
G01*
X-14441280Y-7473687D01*
X-14440000Y-7479008D01*
X-14440000Y-7661991D01*
X-14443427Y-7670264D01*
X-14448095Y-7673122D01*
X-14834088Y-7798152D01*
X-14843014Y-7797441D01*
X-14848486Y-7791538D01*
X-14939111Y-7575015D01*
X-14939143Y-7566063D01*
X-14848486Y-7349460D01*
X-14842130Y-7343152D01*
X-14834089Y-7342847D01*
X-14448094Y-7467878D01*
G37*
%TD.AperFunction*%
%TD*%
%TA.AperFunction,Conductor*%
%TO.N,/NRST*%
G36*
X-23918962Y-5621514D02*
G01*
X-23912653Y-5627870D01*
X-23912348Y-5635912D01*
X-24037378Y-6021905D01*
X-24043188Y-6028720D01*
X-24048509Y-6030000D01*
X-24231491Y-6030000D01*
X-24239764Y-6026573D01*
X-24242622Y-6021905D01*
X-24367653Y-5635912D01*
X-24366942Y-5626986D01*
X-24361040Y-5621514D01*
X-24144516Y-5530889D01*
X-24135563Y-5530857D01*
X-23918962Y-5621514D01*
G37*
%TD.AperFunction*%
%TD*%
%TA.AperFunction,Conductor*%
%TO.N,Net-(U3-PC14-OSC_IN)*%
G36*
X-18393386Y-5154141D02*
G01*
X-17520797Y-5539789D01*
X-17514616Y-5546267D01*
X-17514826Y-5555220D01*
X-17519842Y-5560716D01*
X-18393492Y-6046381D01*
X-18402388Y-6047406D01*
X-18406035Y-6045634D01*
X-18728742Y-5812175D01*
X-18730157Y-5810969D01*
X-18932540Y-5608586D01*
X-18935967Y-5600313D01*
X-18932540Y-5592040D01*
X-18931747Y-5591317D01*
X-18405573Y-5155829D01*
X-18397015Y-5153195D01*
X-18393386Y-5154141D01*
G37*
%TD.AperFunction*%
%TD*%
%TA.AperFunction,Conductor*%
%TO.N,Net-(U3-PC14-OSC_IN)*%
G36*
X-19140610Y-5811390D02*
G01*
X-18941253Y-6010747D01*
X-18937826Y-6019020D01*
X-18939367Y-6024824D01*
X-19175497Y-6438097D01*
X-19182577Y-6443581D01*
X-19188752Y-6443576D01*
X-19485164Y-6362228D01*
X-19492236Y-6356734D01*
X-19492891Y-6355389D01*
X-19602158Y-6089306D01*
X-19602131Y-6080352D01*
X-19597352Y-6074828D01*
X-19154898Y-5809627D01*
X-19146040Y-5808314D01*
X-19140610Y-5811390D01*
G37*
%TD.AperFunction*%
%TD*%
%TA.AperFunction,Conductor*%
%TO.N,Net-(U3-PC14-OSC_IN)*%
G36*
X-16608270Y-5741115D02*
G01*
X-16600902Y-5746204D01*
X-16599096Y-5751303D01*
X-16540980Y-6291921D01*
X-16543503Y-6300513D01*
X-16544340Y-6301445D01*
X-16746643Y-6503748D01*
X-16754916Y-6507175D01*
X-16759992Y-6506017D01*
X-17697157Y-6054790D01*
X-17703124Y-6048113D01*
X-17702899Y-6039791D01*
X-17504431Y-5558325D01*
X-17498110Y-5551983D01*
X-17491156Y-5551346D01*
X-16608270Y-5741115D01*
G37*
%TD.AperFunction*%
%TD*%
%TA.AperFunction,Conductor*%
%TO.N,Net-(U3-PC15-OSC_OUT)*%
G36*
X-16746643Y-7096251D02*
G01*
X-16544340Y-7298554D01*
X-16540913Y-7306827D01*
X-16540980Y-7308078D01*
X-16599096Y-7848694D01*
X-16603388Y-7856553D01*
X-16608270Y-7858882D01*
X-17491155Y-8048653D01*
X-17499964Y-8047041D01*
X-17504431Y-8041673D01*
X-17580513Y-7857105D01*
X-17702898Y-7560208D01*
X-17702883Y-7551255D01*
X-17697159Y-7545210D01*
X-16759992Y-7093981D01*
X-16751051Y-7093481D01*
X-16746643Y-7096251D01*
G37*
%TD.AperFunction*%
%TD*%
%TA.AperFunction,Conductor*%
%TO.N,Net-(U3-PC15-OSC_OUT)*%
G36*
X-18393222Y-7553768D02*
G01*
X-17519408Y-8039525D01*
X-17513842Y-8046540D01*
X-17514867Y-8055436D01*
X-17520180Y-8060370D01*
X-18393464Y-8464411D01*
X-18402412Y-8464774D01*
X-18405645Y-8462961D01*
X-18463450Y-8417137D01*
X-18943057Y-8036942D01*
X-18947411Y-8029119D01*
X-18944957Y-8020507D01*
X-18944070Y-8019511D01*
X-18741451Y-7816892D01*
X-18740945Y-7816445D01*
X-18406110Y-7554774D01*
X-18397483Y-7552381D01*
X-18393222Y-7553768D01*
G37*
%TD.AperFunction*%
%TD*%
%TA.AperFunction,Conductor*%
%TO.N,Net-(U3-PC15-OSC_OUT)*%
G36*
X-19179867Y-7197537D02*
G01*
X-19175497Y-7201901D01*
X-18939367Y-7615175D01*
X-18938238Y-7624058D01*
X-18941253Y-7629252D01*
X-19140610Y-7828609D01*
X-19148883Y-7832036D01*
X-19154898Y-7830371D01*
X-19597350Y-7565172D01*
X-19602684Y-7557980D01*
X-19602159Y-7550695D01*
X-19492891Y-7284609D01*
X-19486578Y-7278258D01*
X-19485180Y-7277775D01*
X-19188753Y-7196422D01*
X-19179867Y-7197537D01*
G37*
%TD.AperFunction*%
%TD*%
%TA.AperFunction,Conductor*%
%TO.N,/PA4{slash}CS*%
G36*
X-15600641Y-14011775D02*
G01*
X-15471253Y-14141163D01*
X-15467826Y-14149436D01*
X-15469106Y-14154757D01*
X-15653634Y-14516106D01*
X-15660449Y-14521916D01*
X-15668491Y-14521611D01*
X-15885678Y-14432586D01*
X-15892032Y-14426278D01*
X-15981089Y-14209011D01*
X-15981056Y-14200059D01*
X-15975587Y-14194158D01*
X-15614234Y-14009627D01*
X-15605309Y-14008917D01*
X-15600641Y-14011775D01*
G37*
%TD.AperFunction*%
%TD*%
%TA.AperFunction,Conductor*%
%TO.N,/PA4{slash}CS*%
G36*
X-16110966Y-14338247D02*
G01*
X-15893325Y-14427458D01*
X-15886969Y-14433767D01*
X-15886936Y-14433847D01*
X-15798127Y-14650509D01*
X-15798160Y-14659463D01*
X-15804171Y-14665624D01*
X-16177214Y-14832695D01*
X-16186165Y-14832949D01*
X-16190269Y-14830290D01*
X-16319676Y-14700883D01*
X-16323103Y-14692610D01*
X-16321566Y-14686814D01*
X-16125561Y-14343273D01*
X-16118487Y-14337788D01*
X-16110966Y-14338247D01*
G37*
%TD.AperFunction*%
%TD*%
%TA.AperFunction,Conductor*%
%TO.N,/PA4{slash}CS*%
G36*
X-21480037Y-12308444D02*
G01*
X-21474134Y-12313916D01*
X-21289606Y-12675265D01*
X-21288895Y-12684191D01*
X-21291753Y-12688859D01*
X-21421141Y-12818247D01*
X-21429414Y-12821674D01*
X-21434735Y-12820394D01*
X-21704092Y-12682843D01*
X-21796085Y-12635865D01*
X-21801894Y-12629051D01*
X-21801590Y-12621011D01*
X-21712564Y-12403821D01*
X-21706257Y-12397468D01*
X-21488989Y-12308411D01*
X-21480037Y-12308444D01*
G37*
%TD.AperFunction*%
%TD*%
%TA.AperFunction,Conductor*%
%TO.N,/PA4{slash}CS*%
G36*
X-19955268Y-14009604D02*
G01*
X-19593916Y-14194134D01*
X-19588107Y-14200948D01*
X-19588412Y-14208991D01*
X-19677436Y-14426176D01*
X-19683745Y-14432531D01*
X-19683824Y-14432564D01*
X-19901009Y-14521588D01*
X-19909964Y-14521555D01*
X-19915866Y-14516084D01*
X-20100396Y-14154733D01*
X-20101106Y-14145808D01*
X-20098250Y-14141142D01*
X-19968859Y-14011751D01*
X-19960587Y-14008325D01*
X-19955268Y-14009604D01*
G37*
%TD.AperFunction*%
%TD*%
%TA.AperFunction,Conductor*%
%TO.N,/PA4{slash}CS*%
G36*
X-14809707Y-11126814D02*
G01*
X-14803830Y-11133571D01*
X-14803830Y-11141001D01*
X-14901613Y-11433055D01*
X-14907476Y-11439805D01*
X-15037027Y-11504581D01*
X-15045959Y-11505216D01*
X-15050532Y-11502389D01*
X-15180028Y-11372893D01*
X-15183455Y-11364620D01*
X-15182222Y-11359393D01*
X-15117444Y-11229836D01*
X-15110696Y-11223974D01*
X-14818639Y-11126191D01*
X-14809707Y-11126814D01*
G37*
%TD.AperFunction*%
%TD*%
%TA.AperFunction,Conductor*%
%TO.N,/PA5{slash}SCLK*%
G36*
X-14456153Y-11480367D02*
G01*
X-14450276Y-11487124D01*
X-14450276Y-11494554D01*
X-14548059Y-11786608D01*
X-14553922Y-11793358D01*
X-14683473Y-11858134D01*
X-14692405Y-11858769D01*
X-14696978Y-11855942D01*
X-14826474Y-11726446D01*
X-14829901Y-11718173D01*
X-14828668Y-11712946D01*
X-14763890Y-11583389D01*
X-14757142Y-11577527D01*
X-14465085Y-11479744D01*
X-14456153Y-11480367D01*
G37*
%TD.AperFunction*%
%TD*%
%TA.AperFunction,Conductor*%
%TO.N,/PA6{slash}MISO*%
G36*
X-14102600Y-11833921D02*
G01*
X-14096723Y-11840678D01*
X-14096723Y-11848108D01*
X-14194506Y-12140162D01*
X-14200369Y-12146912D01*
X-14329920Y-12211688D01*
X-14338852Y-12212323D01*
X-14343425Y-12209496D01*
X-14472921Y-12080000D01*
X-14476348Y-12071727D01*
X-14475115Y-12066500D01*
X-14410337Y-11936943D01*
X-14403589Y-11931081D01*
X-14111532Y-11833298D01*
X-14102600Y-11833921D01*
G37*
%TD.AperFunction*%
%TD*%
%TA.AperFunction,Conductor*%
%TO.N,/PA15*%
G36*
X-4376987Y-7193058D02*
G01*
X-4371515Y-7198961D01*
X-4280891Y-7415482D01*
X-4280858Y-7424436D01*
X-4280891Y-7424516D01*
X-4371515Y-7641038D01*
X-4377871Y-7647347D01*
X-4385913Y-7647652D01*
X-4771905Y-7522622D01*
X-4778720Y-7516812D01*
X-4780000Y-7511491D01*
X-4780000Y-7328508D01*
X-4776573Y-7320235D01*
X-4771909Y-7317378D01*
X-4385912Y-7192347D01*
X-4376987Y-7193058D01*
G37*
%TD.AperFunction*%
%TD*%
%TA.AperFunction,Conductor*%
%TO.N,/PA15*%
G36*
X-8830210Y-9265716D02*
G01*
X-8700714Y-9395212D01*
X-8697287Y-9403485D01*
X-8698522Y-9408717D01*
X-8763298Y-9538268D01*
X-8770048Y-9544131D01*
X-9062102Y-9641914D01*
X-9071035Y-9641291D01*
X-9076912Y-9634534D01*
X-9076912Y-9627105D01*
X-8979129Y-9335048D01*
X-8973267Y-9328300D01*
X-8843712Y-9263523D01*
X-8834783Y-9262889D01*
X-8830210Y-9265716D01*
G37*
%TD.AperFunction*%
%TD*%
%TA.AperFunction,Conductor*%
%TO.N,/PA15*%
G36*
X-3768094Y-14687378D02*
G01*
X-3761280Y-14693187D01*
X-3760000Y-14698508D01*
X-3760000Y-14881491D01*
X-3763427Y-14889764D01*
X-3768095Y-14892622D01*
X-4154088Y-15017652D01*
X-4163014Y-15016941D01*
X-4168486Y-15011038D01*
X-4259111Y-14794515D01*
X-4259143Y-14785563D01*
X-4168486Y-14568960D01*
X-4162130Y-14562652D01*
X-4154089Y-14562347D01*
X-3768094Y-14687378D01*
G37*
%TD.AperFunction*%
%TD*%
%TA.AperFunction,Conductor*%
%TO.N,/PA15*%
G36*
X-1416987Y-14563058D02*
G01*
X-1411515Y-14568961D01*
X-1320891Y-14785482D01*
X-1320858Y-14794436D01*
X-1320891Y-14794516D01*
X-1411515Y-15011038D01*
X-1417871Y-15017347D01*
X-1425913Y-15017652D01*
X-1811905Y-14892622D01*
X-1818720Y-14886812D01*
X-1820000Y-14881491D01*
X-1820000Y-14698508D01*
X-1816573Y-14690235D01*
X-1811909Y-14687378D01*
X-1425912Y-14562347D01*
X-1416987Y-14563058D01*
G37*
%TD.AperFunction*%
%TD*%
%TA.AperFunction,Conductor*%
%TO.N,/PA13{slash}SWDIO*%
G36*
X1229193Y-10635544D02*
G01*
X1229527Y-10636275D01*
X1549134Y-11405511D01*
X1549143Y-11414466D01*
X1549134Y-11414489D01*
X1229527Y-12183724D01*
X1223188Y-12190049D01*
X1214233Y-12190040D01*
X1213502Y-12189706D01*
X-143520Y-11513230D01*
X-149395Y-11506472D01*
X-150000Y-11502759D01*
X-150000Y-11317240D01*
X-146573Y-11308967D01*
X-143524Y-11306771D01*
X1213503Y-10630292D01*
X1222435Y-10629669D01*
X1229193Y-10635544D01*
G37*
%TD.AperFunction*%
%TD*%
%TA.AperFunction,Conductor*%
%TO.N,/PA13{slash}SWDIO*%
G36*
X-9125939Y-11223208D02*
G01*
X-9119169Y-11229069D01*
X-9118035Y-11232740D01*
X-9107617Y-11309607D01*
X-9107564Y-11310394D01*
X-9107564Y-11492632D01*
X-9110991Y-11500905D01*
X-9119264Y-11504332D01*
X-9123659Y-11503475D01*
X-9313490Y-11426525D01*
X-9319870Y-11420241D01*
X-9319983Y-11419965D01*
X-9363245Y-11310000D01*
X-9429057Y-11142714D01*
X-9428897Y-11133763D01*
X-9422452Y-11127545D01*
X-9414480Y-11127330D01*
X-9125939Y-11223208D01*
G37*
%TD.AperFunction*%
%TD*%
%TA.AperFunction,Conductor*%
%TO.N,/PA14{slash}SWCLK*%
G36*
X-8936276Y-10489010D02*
G01*
X-8806780Y-10618506D01*
X-8803353Y-10626779D01*
X-8804588Y-10632011D01*
X-8868305Y-10759445D01*
X-8875070Y-10765313D01*
X-8878731Y-10765913D01*
X-9072588Y-10766557D01*
X-9080873Y-10763158D01*
X-9084327Y-10754896D01*
X-9084327Y-10754818D01*
X-9083683Y-10560961D01*
X-9080229Y-10552699D01*
X-9077220Y-10550538D01*
X-8949778Y-10486817D01*
X-8940849Y-10486183D01*
X-8936276Y-10489010D01*
G37*
%TD.AperFunction*%
%TD*%
%TA.AperFunction,Conductor*%
%TO.N,/PA14{slash}SWCLK*%
G36*
X1229193Y-8095544D02*
G01*
X1229527Y-8096275D01*
X1549134Y-8865511D01*
X1549143Y-8874466D01*
X1549134Y-8874489D01*
X1229527Y-9643724D01*
X1223188Y-9650049D01*
X1214233Y-9650040D01*
X1213502Y-9649706D01*
X-143520Y-8973230D01*
X-149395Y-8966472D01*
X-150000Y-8962759D01*
X-150000Y-8777240D01*
X-146573Y-8768967D01*
X-143524Y-8766771D01*
X1213503Y-8090292D01*
X1222435Y-8089669D01*
X1229193Y-8095544D01*
G37*
%TD.AperFunction*%
%TD*%
%TA.AperFunction,Conductor*%
%TO.N,/PB0*%
G36*
X-13804573Y-12830823D02*
G01*
X-13802918Y-12832198D01*
X-13674239Y-12960877D01*
X-13670920Y-12967565D01*
X-13621812Y-13326752D01*
X-13624086Y-13335413D01*
X-13631819Y-13339929D01*
X-13633371Y-13340037D01*
X-13865815Y-13340693D01*
X-13874098Y-13337289D01*
X-14039960Y-13170095D01*
X-14043353Y-13161809D01*
X-14041303Y-13155241D01*
X-13820839Y-12833852D01*
X-13813333Y-12828969D01*
X-13804573Y-12830823D01*
G37*
%TD.AperFunction*%
%TD*%
%TA.AperFunction,Conductor*%
%TO.N,/PB0*%
G36*
X-13395493Y-12541027D02*
G01*
X-13389616Y-12547784D01*
X-13389616Y-12555214D01*
X-13487399Y-12847268D01*
X-13493262Y-12854018D01*
X-13622813Y-12918794D01*
X-13631745Y-12919429D01*
X-13636318Y-12916602D01*
X-13765814Y-12787106D01*
X-13769241Y-12778833D01*
X-13768008Y-12773606D01*
X-13703230Y-12644049D01*
X-13696482Y-12638187D01*
X-13404425Y-12540404D01*
X-13395493Y-12541027D01*
G37*
%TD.AperFunction*%
%TD*%
%TA.AperFunction,Conductor*%
%TO.N,/PB1*%
G36*
X-13577242Y-13687641D02*
G01*
X-13447843Y-13817040D01*
X-13444416Y-13825313D01*
X-13445777Y-13830789D01*
X-13634067Y-14186298D01*
X-13640967Y-14192005D01*
X-13648843Y-14191648D01*
X-13866176Y-14102564D01*
X-13872532Y-14096255D01*
X-13872565Y-14096175D01*
X-13961519Y-13879160D01*
X-13961486Y-13870206D01*
X-13955839Y-13864215D01*
X-13590658Y-13685405D01*
X-13581723Y-13684846D01*
X-13577242Y-13687641D01*
G37*
%TD.AperFunction*%
%TD*%
%TA.AperFunction,Conductor*%
%TO.N,/PB1*%
G36*
X-13041940Y-12894581D02*
G01*
X-13036063Y-12901338D01*
X-13036063Y-12908768D01*
X-13133846Y-13200822D01*
X-13139709Y-13207572D01*
X-13269260Y-13272348D01*
X-13278192Y-13272983D01*
X-13282765Y-13270156D01*
X-13412261Y-13140660D01*
X-13415688Y-13132387D01*
X-13414455Y-13127160D01*
X-13349677Y-12997603D01*
X-13342929Y-12991741D01*
X-13050872Y-12893958D01*
X-13041940Y-12894581D01*
G37*
%TD.AperFunction*%
%TD*%
%TA.AperFunction,Conductor*%
%TO.N,/PB2*%
G36*
X-12690336Y-13249403D02*
G01*
X-12684041Y-13255771D01*
X-12683773Y-13263875D01*
X-12779636Y-13552366D01*
X-12785497Y-13559137D01*
X-12788667Y-13560192D01*
X-12858972Y-13572844D01*
X-12861044Y-13573029D01*
X-13042869Y-13573029D01*
X-13051142Y-13569602D01*
X-13054569Y-13561329D01*
X-13053767Y-13557072D01*
X-13051929Y-13552366D01*
X-12979741Y-13367557D01*
X-12973539Y-13361099D01*
X-12973302Y-13360998D01*
X-12699290Y-13249351D01*
X-12690336Y-13249403D01*
G37*
%TD.AperFunction*%
%TD*%
%TA.AperFunction,Conductor*%
%TO.N,/PB2*%
G36*
X-13591141Y-14431752D02*
G01*
X-13461753Y-14561140D01*
X-13458326Y-14569413D01*
X-13459606Y-14574734D01*
X-13644134Y-14936083D01*
X-13650949Y-14941893D01*
X-13658991Y-14941588D01*
X-13876178Y-14852563D01*
X-13882532Y-14846255D01*
X-13971589Y-14628988D01*
X-13971556Y-14620036D01*
X-13966087Y-14614135D01*
X-13604734Y-14429604D01*
X-13595809Y-14428894D01*
X-13591141Y-14431752D01*
G37*
%TD.AperFunction*%
%TD*%
%TA.AperFunction,Conductor*%
%TO.N,/PB5*%
G36*
X-9890870Y-8205055D02*
G01*
X-9761374Y-8334551D01*
X-9757947Y-8342824D01*
X-9759182Y-8348056D01*
X-9823958Y-8477607D01*
X-9830708Y-8483470D01*
X-10122762Y-8581253D01*
X-10131695Y-8580630D01*
X-10137572Y-8573873D01*
X-10137572Y-8566444D01*
X-10039789Y-8274387D01*
X-10033927Y-8267639D01*
X-9904372Y-8202862D01*
X-9895443Y-8202228D01*
X-9890870Y-8205055D01*
G37*
%TD.AperFunction*%
%TD*%
%TA.AperFunction,Conductor*%
%TO.N,Net-(D1-A)*%
G36*
X-40316252Y-1572476D02*
G01*
X-39978230Y-1677444D01*
X-39971346Y-1683171D01*
X-39970000Y-1688618D01*
X-39970000Y-1971381D01*
X-39973427Y-1979654D01*
X-39978230Y-1982555D01*
X-40316249Y-2087522D01*
X-40325166Y-2086702D01*
X-40328351Y-2084246D01*
X-40431629Y-1971381D01*
X-40553774Y-1837897D01*
X-40556830Y-1829482D01*
X-40553773Y-1822102D01*
X-40431628Y-1688618D01*
X-40328349Y-1575751D01*
X-40320237Y-1571962D01*
X-40316252Y-1572476D01*
G37*
%TD.AperFunction*%
%TD*%
%TA.AperFunction,Conductor*%
%TO.N,Net-(D1-A)*%
G36*
X-39819785Y-1076325D02*
G01*
X-39396631Y-1297320D01*
X-39390884Y-1304188D01*
X-39390517Y-1305703D01*
X-39311464Y-1764205D01*
X-39313435Y-1772940D01*
X-39320252Y-1777567D01*
X-40145377Y-1976517D01*
X-40154222Y-1975125D01*
X-40159493Y-1967885D01*
X-40159819Y-1965143D01*
X-40159819Y-1682964D01*
X-40158407Y-1677392D01*
X-39957113Y-1305703D01*
X-39835488Y-1081122D01*
X-39828536Y-1075481D01*
X-39819785Y-1076325D01*
G37*
%TD.AperFunction*%
%TD*%
%TA.AperFunction,Conductor*%
%TO.N,Net-(F1-Pad1)*%
G36*
X-37578386Y-8387523D02*
G01*
X-37571423Y-8393152D01*
X-37570000Y-8398744D01*
X-37570001Y-8880928D01*
X-37573428Y-8889201D01*
X-37578787Y-8892259D01*
X-37915769Y-8978911D01*
X-37923909Y-8978048D01*
X-38599834Y-8640568D01*
X-38605705Y-8633806D01*
X-38605076Y-8624874D01*
X-38599756Y-8619594D01*
X-37924090Y-8288656D01*
X-37915636Y-8287943D01*
X-37578386Y-8387523D01*
G37*
%TD.AperFunction*%
%TD*%
%TA.AperFunction,Conductor*%
%TO.N,/PA12*%
G36*
X-9477155Y-11577527D02*
G01*
X-9470405Y-11583390D01*
X-9405629Y-11712941D01*
X-9404994Y-11721873D01*
X-9407821Y-11726446D01*
X-9537317Y-11855942D01*
X-9545590Y-11859369D01*
X-9550821Y-11858134D01*
X-9614829Y-11826130D01*
X-9680373Y-11793358D01*
X-9686236Y-11786608D01*
X-9708375Y-11720484D01*
X-9784019Y-11494553D01*
X-9783396Y-11485621D01*
X-9776639Y-11479744D01*
X-9769210Y-11479744D01*
X-9477155Y-11577527D01*
G37*
%TD.AperFunction*%
%TD*%
M02*
