%TF.GenerationSoftware,KiCad,Pcbnew,(6.0.8)*%
%TF.CreationDate,2022-10-30T12:46:51+08:00*%
%TF.ProjectId,UINIO-MCU-STM32L051K8,55494e49-4f2d-44d4-9355-2d53544d3332,rev?*%
%TF.SameCoordinates,Original*%
%TF.FileFunction,Legend,Bot*%
%TF.FilePolarity,Positive*%
%FSLAX46Y46*%
G04 Gerber Fmt 4.6, Leading zero omitted, Abs format (unit mm)*
G04 Created by KiCad (PCBNEW (6.0.8)) date 2022-10-30 12:46:51*
%MOMM*%
%LPD*%
G01*
G04 APERTURE LIST*
G04 Aperture macros list*
%AMRoundRect*
0 Rectangle with rounded corners*
0 $1 Rounding radius*
0 $2 $3 $4 $5 $6 $7 $8 $9 X,Y pos of 4 corners*
0 Add a 4 corners polygon primitive as box body*
4,1,4,$2,$3,$4,$5,$6,$7,$8,$9,$2,$3,0*
0 Add four circle primitives for the rounded corners*
1,1,$1+$1,$2,$3*
1,1,$1+$1,$4,$5*
1,1,$1+$1,$6,$7*
1,1,$1+$1,$8,$9*
0 Add four rect primitives between the rounded corners*
20,1,$1+$1,$2,$3,$4,$5,0*
20,1,$1+$1,$4,$5,$6,$7,0*
20,1,$1+$1,$6,$7,$8,$9,0*
20,1,$1+$1,$8,$9,$2,$3,0*%
G04 Aperture macros list end*
%ADD10C,0.100000*%
%ADD11C,0.200000*%
%ADD12C,0.300000*%
%ADD13C,0.120000*%
%ADD14C,0.152000*%
%ADD15C,1.200000*%
%ADD16R,1.700000X1.700000*%
%ADD17O,1.700000X1.700000*%
%ADD18O,1.800000X1.000000*%
%ADD19O,0.630000X2.250000*%
%ADD20RoundRect,0.140000X0.170000X-0.140000X0.170000X0.140000X-0.170000X0.140000X-0.170000X-0.140000X0*%
G04 APERTURE END LIST*
D10*
X150373333Y-107036666D02*
X151073333Y-107036666D01*
X151073333Y-106770000D01*
X151040000Y-106703333D01*
X151006666Y-106670000D01*
X150940000Y-106636666D01*
X150840000Y-106636666D01*
X150773333Y-106670000D01*
X150740000Y-106703333D01*
X150706666Y-106770000D01*
X150706666Y-107036666D01*
X150740000Y-106103333D02*
X150706666Y-106003333D01*
X150673333Y-105970000D01*
X150606666Y-105936666D01*
X150506666Y-105936666D01*
X150440000Y-105970000D01*
X150406666Y-106003333D01*
X150373333Y-106070000D01*
X150373333Y-106336666D01*
X151073333Y-106336666D01*
X151073333Y-106103333D01*
X151040000Y-106036666D01*
X151006666Y-106003333D01*
X150940000Y-105970000D01*
X150873333Y-105970000D01*
X150806666Y-106003333D01*
X150773333Y-106036666D01*
X150740000Y-106103333D01*
X150740000Y-106336666D01*
X151073333Y-105703333D02*
X151073333Y-105236666D01*
X150373333Y-105536666D01*
X131644285Y-100218571D02*
X131644285Y-100818571D01*
X131872857Y-100818571D01*
X131930000Y-100790000D01*
X131958571Y-100761428D01*
X131987142Y-100704285D01*
X131987142Y-100618571D01*
X131958571Y-100561428D01*
X131930000Y-100532857D01*
X131872857Y-100504285D01*
X131644285Y-100504285D01*
X132215714Y-100390000D02*
X132501428Y-100390000D01*
X132158571Y-100218571D02*
X132358571Y-100818571D01*
X132558571Y-100218571D01*
X133072857Y-100218571D02*
X132730000Y-100218571D01*
X132901428Y-100218571D02*
X132901428Y-100818571D01*
X132844285Y-100732857D01*
X132787142Y-100675714D01*
X132730000Y-100647142D01*
X133587142Y-100618571D02*
X133587142Y-100218571D01*
X133444285Y-100847142D02*
X133301428Y-100418571D01*
X133672857Y-100418571D01*
D11*
X172902857Y-108560000D02*
X172174285Y-108560000D01*
X172088571Y-108517142D01*
X172045714Y-108474285D01*
X172002857Y-108388571D01*
X172002857Y-108217142D01*
X172045714Y-108131428D01*
X172088571Y-108088571D01*
X172174285Y-108045714D01*
X172902857Y-108045714D01*
X172002857Y-107617142D02*
X172902857Y-107617142D01*
X172002857Y-107188571D02*
X172902857Y-107188571D01*
X172002857Y-106674285D01*
X172902857Y-106674285D01*
X172002857Y-106245714D02*
X172902857Y-106245714D01*
X172902857Y-105645714D02*
X172902857Y-105474285D01*
X172860000Y-105388571D01*
X172774285Y-105302857D01*
X172602857Y-105260000D01*
X172302857Y-105260000D01*
X172131428Y-105302857D01*
X172045714Y-105388571D01*
X172002857Y-105474285D01*
X172002857Y-105645714D01*
X172045714Y-105731428D01*
X172131428Y-105817142D01*
X172302857Y-105860000D01*
X172602857Y-105860000D01*
X172774285Y-105817142D01*
X172860000Y-105731428D01*
X172902857Y-105645714D01*
X172345714Y-104874285D02*
X172345714Y-104188571D01*
X172002857Y-103760000D02*
X172902857Y-103760000D01*
X172260000Y-103460000D01*
X172902857Y-103160000D01*
X172002857Y-103160000D01*
X172088571Y-102217142D02*
X172045714Y-102260000D01*
X172002857Y-102388571D01*
X172002857Y-102474285D01*
X172045714Y-102602857D01*
X172131428Y-102688571D01*
X172217142Y-102731428D01*
X172388571Y-102774285D01*
X172517142Y-102774285D01*
X172688571Y-102731428D01*
X172774285Y-102688571D01*
X172860000Y-102602857D01*
X172902857Y-102474285D01*
X172902857Y-102388571D01*
X172860000Y-102260000D01*
X172817142Y-102217142D01*
X172902857Y-101831428D02*
X172174285Y-101831428D01*
X172088571Y-101788571D01*
X172045714Y-101745714D01*
X172002857Y-101660000D01*
X172002857Y-101488571D01*
X172045714Y-101402857D01*
X172088571Y-101360000D01*
X172174285Y-101317142D01*
X172902857Y-101317142D01*
X172345714Y-100888571D02*
X172345714Y-100202857D01*
X172045714Y-99817142D02*
X172002857Y-99688571D01*
X172002857Y-99474285D01*
X172045714Y-99388571D01*
X172088571Y-99345714D01*
X172174285Y-99302857D01*
X172260000Y-99302857D01*
X172345714Y-99345714D01*
X172388571Y-99388571D01*
X172431428Y-99474285D01*
X172474285Y-99645714D01*
X172517142Y-99731428D01*
X172560000Y-99774285D01*
X172645714Y-99817142D01*
X172731428Y-99817142D01*
X172817142Y-99774285D01*
X172860000Y-99731428D01*
X172902857Y-99645714D01*
X172902857Y-99431428D01*
X172860000Y-99302857D01*
X172902857Y-99045714D02*
X172902857Y-98531428D01*
X172002857Y-98788571D02*
X172902857Y-98788571D01*
X172002857Y-98231428D02*
X172902857Y-98231428D01*
X172260000Y-97931428D01*
X172902857Y-97631428D01*
X172002857Y-97631428D01*
X172902857Y-97288571D02*
X172902857Y-96731428D01*
X172560000Y-97031428D01*
X172560000Y-96902857D01*
X172517142Y-96817142D01*
X172474285Y-96774285D01*
X172388571Y-96731428D01*
X172174285Y-96731428D01*
X172088571Y-96774285D01*
X172045714Y-96817142D01*
X172002857Y-96902857D01*
X172002857Y-97160000D01*
X172045714Y-97245714D01*
X172088571Y-97288571D01*
X172817142Y-96388571D02*
X172860000Y-96345714D01*
X172902857Y-96260000D01*
X172902857Y-96045714D01*
X172860000Y-95960000D01*
X172817142Y-95917142D01*
X172731428Y-95874285D01*
X172645714Y-95874285D01*
X172517142Y-95917142D01*
X172002857Y-96431428D01*
X172002857Y-95874285D01*
X172002857Y-95060000D02*
X172002857Y-95488571D01*
X172902857Y-95488571D01*
X172902857Y-94588571D02*
X172902857Y-94502857D01*
X172860000Y-94417142D01*
X172817142Y-94374285D01*
X172731428Y-94331428D01*
X172560000Y-94288571D01*
X172345714Y-94288571D01*
X172174285Y-94331428D01*
X172088571Y-94374285D01*
X172045714Y-94417142D01*
X172002857Y-94502857D01*
X172002857Y-94588571D01*
X172045714Y-94674285D01*
X172088571Y-94717142D01*
X172174285Y-94760000D01*
X172345714Y-94802857D01*
X172560000Y-94802857D01*
X172731428Y-94760000D01*
X172817142Y-94717142D01*
X172860000Y-94674285D01*
X172902857Y-94588571D01*
X172902857Y-93474285D02*
X172902857Y-93902857D01*
X172474285Y-93945714D01*
X172517142Y-93902857D01*
X172560000Y-93817142D01*
X172560000Y-93602857D01*
X172517142Y-93517142D01*
X172474285Y-93474285D01*
X172388571Y-93431428D01*
X172174285Y-93431428D01*
X172088571Y-93474285D01*
X172045714Y-93517142D01*
X172002857Y-93602857D01*
X172002857Y-93817142D01*
X172045714Y-93902857D01*
X172088571Y-93945714D01*
X172002857Y-92574285D02*
X172002857Y-93088571D01*
X172002857Y-92831428D02*
X172902857Y-92831428D01*
X172774285Y-92917142D01*
X172688571Y-93002857D01*
X172645714Y-93088571D01*
X172002857Y-92188571D02*
X172902857Y-92188571D01*
X172002857Y-91674285D02*
X172517142Y-92060000D01*
X172902857Y-91674285D02*
X172388571Y-92188571D01*
X172517142Y-91160000D02*
X172560000Y-91245714D01*
X172602857Y-91288571D01*
X172688571Y-91331428D01*
X172731428Y-91331428D01*
X172817142Y-91288571D01*
X172860000Y-91245714D01*
X172902857Y-91160000D01*
X172902857Y-90988571D01*
X172860000Y-90902857D01*
X172817142Y-90860000D01*
X172731428Y-90817142D01*
X172688571Y-90817142D01*
X172602857Y-90860000D01*
X172560000Y-90902857D01*
X172517142Y-90988571D01*
X172517142Y-91160000D01*
X172474285Y-91245714D01*
X172431428Y-91288571D01*
X172345714Y-91331428D01*
X172174285Y-91331428D01*
X172088571Y-91288571D01*
X172045714Y-91245714D01*
X172002857Y-91160000D01*
X172002857Y-90988571D01*
X172045714Y-90902857D01*
X172088571Y-90860000D01*
X172174285Y-90817142D01*
X172345714Y-90817142D01*
X172431428Y-90860000D01*
X172474285Y-90902857D01*
X172517142Y-90988571D01*
D10*
X142733333Y-106956666D02*
X143433333Y-106956666D01*
X143433333Y-106690000D01*
X143400000Y-106623333D01*
X143366666Y-106590000D01*
X143300000Y-106556666D01*
X143200000Y-106556666D01*
X143133333Y-106590000D01*
X143100000Y-106623333D01*
X143066666Y-106690000D01*
X143066666Y-106956666D01*
X143100000Y-106023333D02*
X143066666Y-105923333D01*
X143033333Y-105890000D01*
X142966666Y-105856666D01*
X142866666Y-105856666D01*
X142800000Y-105890000D01*
X142766666Y-105923333D01*
X142733333Y-105990000D01*
X142733333Y-106256666D01*
X143433333Y-106256666D01*
X143433333Y-106023333D01*
X143400000Y-105956666D01*
X143366666Y-105923333D01*
X143300000Y-105890000D01*
X143233333Y-105890000D01*
X143166666Y-105923333D01*
X143133333Y-105956666D01*
X143100000Y-106023333D01*
X143100000Y-106256666D01*
X143200000Y-105256666D02*
X142733333Y-105256666D01*
X143466666Y-105423333D02*
X142966666Y-105590000D01*
X142966666Y-105156666D01*
X132593333Y-107036666D02*
X133293333Y-107036666D01*
X133293333Y-106770000D01*
X133260000Y-106703333D01*
X133226666Y-106670000D01*
X133160000Y-106636666D01*
X133060000Y-106636666D01*
X132993333Y-106670000D01*
X132960000Y-106703333D01*
X132926666Y-106770000D01*
X132926666Y-107036666D01*
X132960000Y-106103333D02*
X132926666Y-106003333D01*
X132893333Y-105970000D01*
X132826666Y-105936666D01*
X132726666Y-105936666D01*
X132660000Y-105970000D01*
X132626666Y-106003333D01*
X132593333Y-106070000D01*
X132593333Y-106336666D01*
X133293333Y-106336666D01*
X133293333Y-106103333D01*
X133260000Y-106036666D01*
X133226666Y-106003333D01*
X133160000Y-105970000D01*
X133093333Y-105970000D01*
X133026666Y-106003333D01*
X132993333Y-106036666D01*
X132960000Y-106103333D01*
X132960000Y-106336666D01*
X133293333Y-105503333D02*
X133293333Y-105436666D01*
X133260000Y-105370000D01*
X133226666Y-105336666D01*
X133160000Y-105303333D01*
X133026666Y-105270000D01*
X132860000Y-105270000D01*
X132726666Y-105303333D01*
X132660000Y-105336666D01*
X132626666Y-105370000D01*
X132593333Y-105436666D01*
X132593333Y-105503333D01*
X132626666Y-105570000D01*
X132660000Y-105603333D01*
X132726666Y-105636666D01*
X132860000Y-105670000D01*
X133026666Y-105670000D01*
X133160000Y-105636666D01*
X133226666Y-105603333D01*
X133260000Y-105570000D01*
X133293333Y-105503333D01*
X137733333Y-94730000D02*
X138433333Y-94730000D01*
X138433333Y-94463333D01*
X138400000Y-94396666D01*
X138366666Y-94363333D01*
X138300000Y-94330000D01*
X138200000Y-94330000D01*
X138133333Y-94363333D01*
X138100000Y-94396666D01*
X138066666Y-94463333D01*
X138066666Y-94730000D01*
X137933333Y-94063333D02*
X137933333Y-93730000D01*
X137733333Y-94130000D02*
X138433333Y-93896666D01*
X137733333Y-93663333D01*
X137733333Y-93063333D02*
X137733333Y-93463333D01*
X137733333Y-93263333D02*
X138433333Y-93263333D01*
X138333333Y-93330000D01*
X138266666Y-93396666D01*
X138233333Y-93463333D01*
X137733333Y-92396666D02*
X137733333Y-92796666D01*
X137733333Y-92596666D02*
X138433333Y-92596666D01*
X138333333Y-92663333D01*
X138266666Y-92730000D01*
X138233333Y-92796666D01*
X140243333Y-107036666D02*
X140943333Y-107036666D01*
X140943333Y-106770000D01*
X140910000Y-106703333D01*
X140876666Y-106670000D01*
X140810000Y-106636666D01*
X140710000Y-106636666D01*
X140643333Y-106670000D01*
X140610000Y-106703333D01*
X140576666Y-106770000D01*
X140576666Y-107036666D01*
X140610000Y-106103333D02*
X140576666Y-106003333D01*
X140543333Y-105970000D01*
X140476666Y-105936666D01*
X140376666Y-105936666D01*
X140310000Y-105970000D01*
X140276666Y-106003333D01*
X140243333Y-106070000D01*
X140243333Y-106336666D01*
X140943333Y-106336666D01*
X140943333Y-106103333D01*
X140910000Y-106036666D01*
X140876666Y-106003333D01*
X140810000Y-105970000D01*
X140743333Y-105970000D01*
X140676666Y-106003333D01*
X140643333Y-106036666D01*
X140610000Y-106103333D01*
X140610000Y-106336666D01*
X140943333Y-105703333D02*
X140943333Y-105270000D01*
X140676666Y-105503333D01*
X140676666Y-105403333D01*
X140643333Y-105336666D01*
X140610000Y-105303333D01*
X140543333Y-105270000D01*
X140376666Y-105270000D01*
X140310000Y-105303333D01*
X140276666Y-105336666D01*
X140243333Y-105403333D01*
X140243333Y-105603333D01*
X140276666Y-105670000D01*
X140310000Y-105703333D01*
X155453333Y-107040000D02*
X156153333Y-107040000D01*
X155453333Y-106640000D01*
X156153333Y-106640000D01*
X155453333Y-105906666D02*
X155786666Y-106140000D01*
X155453333Y-106306666D02*
X156153333Y-106306666D01*
X156153333Y-106040000D01*
X156120000Y-105973333D01*
X156086666Y-105940000D01*
X156020000Y-105906666D01*
X155920000Y-105906666D01*
X155853333Y-105940000D01*
X155820000Y-105973333D01*
X155786666Y-106040000D01*
X155786666Y-106306666D01*
X155486666Y-105640000D02*
X155453333Y-105540000D01*
X155453333Y-105373333D01*
X155486666Y-105306666D01*
X155520000Y-105273333D01*
X155586666Y-105240000D01*
X155653333Y-105240000D01*
X155720000Y-105273333D01*
X155753333Y-105306666D01*
X155786666Y-105373333D01*
X155820000Y-105506666D01*
X155853333Y-105573333D01*
X155886666Y-105606666D01*
X155953333Y-105640000D01*
X156020000Y-105640000D01*
X156086666Y-105606666D01*
X156120000Y-105573333D01*
X156153333Y-105506666D01*
X156153333Y-105340000D01*
X156120000Y-105240000D01*
X156153333Y-105040000D02*
X156153333Y-104640000D01*
X155453333Y-104840000D02*
X156153333Y-104840000D01*
X147843333Y-107006666D02*
X148543333Y-107006666D01*
X148543333Y-106740000D01*
X148510000Y-106673333D01*
X148476666Y-106640000D01*
X148410000Y-106606666D01*
X148310000Y-106606666D01*
X148243333Y-106640000D01*
X148210000Y-106673333D01*
X148176666Y-106740000D01*
X148176666Y-107006666D01*
X148210000Y-106073333D02*
X148176666Y-105973333D01*
X148143333Y-105940000D01*
X148076666Y-105906666D01*
X147976666Y-105906666D01*
X147910000Y-105940000D01*
X147876666Y-105973333D01*
X147843333Y-106040000D01*
X147843333Y-106306666D01*
X148543333Y-106306666D01*
X148543333Y-106073333D01*
X148510000Y-106006666D01*
X148476666Y-105973333D01*
X148410000Y-105940000D01*
X148343333Y-105940000D01*
X148276666Y-105973333D01*
X148243333Y-106006666D01*
X148210000Y-106073333D01*
X148210000Y-106306666D01*
X148543333Y-105306666D02*
X148543333Y-105440000D01*
X148510000Y-105506666D01*
X148476666Y-105540000D01*
X148376666Y-105606666D01*
X148243333Y-105640000D01*
X147976666Y-105640000D01*
X147910000Y-105606666D01*
X147876666Y-105573333D01*
X147843333Y-105506666D01*
X147843333Y-105373333D01*
X147876666Y-105306666D01*
X147910000Y-105273333D01*
X147976666Y-105240000D01*
X148143333Y-105240000D01*
X148210000Y-105273333D01*
X148243333Y-105306666D01*
X148276666Y-105373333D01*
X148276666Y-105506666D01*
X148243333Y-105573333D01*
X148210000Y-105606666D01*
X148143333Y-105640000D01*
X135143333Y-94759000D02*
X135843333Y-94759000D01*
X135843333Y-94492333D01*
X135810000Y-94425666D01*
X135776666Y-94392333D01*
X135710000Y-94359000D01*
X135610000Y-94359000D01*
X135543333Y-94392333D01*
X135510000Y-94425666D01*
X135476666Y-94492333D01*
X135476666Y-94759000D01*
X135343333Y-94092333D02*
X135343333Y-93759000D01*
X135143333Y-94159000D02*
X135843333Y-93925666D01*
X135143333Y-93692333D01*
X135143333Y-93092333D02*
X135143333Y-93492333D01*
X135143333Y-93292333D02*
X135843333Y-93292333D01*
X135743333Y-93359000D01*
X135676666Y-93425666D01*
X135643333Y-93492333D01*
X135776666Y-92825666D02*
X135810000Y-92792333D01*
X135843333Y-92725666D01*
X135843333Y-92559000D01*
X135810000Y-92492333D01*
X135776666Y-92459000D01*
X135710000Y-92425666D01*
X135643333Y-92425666D01*
X135543333Y-92459000D01*
X135143333Y-92859000D01*
X135143333Y-92425666D01*
X132623333Y-94740000D02*
X133323333Y-94740000D01*
X133323333Y-94473333D01*
X133290000Y-94406666D01*
X133256666Y-94373333D01*
X133190000Y-94340000D01*
X133090000Y-94340000D01*
X133023333Y-94373333D01*
X132990000Y-94406666D01*
X132956666Y-94473333D01*
X132956666Y-94740000D01*
X132823333Y-94073333D02*
X132823333Y-93740000D01*
X132623333Y-94140000D02*
X133323333Y-93906666D01*
X132623333Y-93673333D01*
X132623333Y-93073333D02*
X132623333Y-93473333D01*
X132623333Y-93273333D02*
X133323333Y-93273333D01*
X133223333Y-93340000D01*
X133156666Y-93406666D01*
X133123333Y-93473333D01*
X133323333Y-92440000D02*
X133323333Y-92773333D01*
X132990000Y-92806666D01*
X133023333Y-92773333D01*
X133056666Y-92706666D01*
X133056666Y-92540000D01*
X133023333Y-92473333D01*
X132990000Y-92440000D01*
X132923333Y-92406666D01*
X132756666Y-92406666D01*
X132690000Y-92440000D01*
X132656666Y-92473333D01*
X132623333Y-92540000D01*
X132623333Y-92706666D01*
X132656666Y-92773333D01*
X132690000Y-92806666D01*
X152913333Y-107036666D02*
X153613333Y-107036666D01*
X153613333Y-106770000D01*
X153580000Y-106703333D01*
X153546666Y-106670000D01*
X153480000Y-106636666D01*
X153380000Y-106636666D01*
X153313333Y-106670000D01*
X153280000Y-106703333D01*
X153246666Y-106770000D01*
X153246666Y-107036666D01*
X153280000Y-106103333D02*
X153246666Y-106003333D01*
X153213333Y-105970000D01*
X153146666Y-105936666D01*
X153046666Y-105936666D01*
X152980000Y-105970000D01*
X152946666Y-106003333D01*
X152913333Y-106070000D01*
X152913333Y-106336666D01*
X153613333Y-106336666D01*
X153613333Y-106103333D01*
X153580000Y-106036666D01*
X153546666Y-106003333D01*
X153480000Y-105970000D01*
X153413333Y-105970000D01*
X153346666Y-106003333D01*
X153313333Y-106036666D01*
X153280000Y-106103333D01*
X153280000Y-106336666D01*
X153313333Y-105536666D02*
X153346666Y-105603333D01*
X153380000Y-105636666D01*
X153446666Y-105670000D01*
X153480000Y-105670000D01*
X153546666Y-105636666D01*
X153580000Y-105603333D01*
X153613333Y-105536666D01*
X153613333Y-105403333D01*
X153580000Y-105336666D01*
X153546666Y-105303333D01*
X153480000Y-105270000D01*
X153446666Y-105270000D01*
X153380000Y-105303333D01*
X153346666Y-105336666D01*
X153313333Y-105403333D01*
X153313333Y-105536666D01*
X153280000Y-105603333D01*
X153246666Y-105636666D01*
X153180000Y-105670000D01*
X153046666Y-105670000D01*
X152980000Y-105636666D01*
X152946666Y-105603333D01*
X152913333Y-105536666D01*
X152913333Y-105403333D01*
X152946666Y-105336666D01*
X152980000Y-105303333D01*
X153046666Y-105270000D01*
X153180000Y-105270000D01*
X153246666Y-105303333D01*
X153280000Y-105336666D01*
X153313333Y-105403333D01*
X140193333Y-94739000D02*
X140893333Y-94739000D01*
X140893333Y-94472333D01*
X140860000Y-94405666D01*
X140826666Y-94372333D01*
X140760000Y-94339000D01*
X140660000Y-94339000D01*
X140593333Y-94372333D01*
X140560000Y-94405666D01*
X140526666Y-94472333D01*
X140526666Y-94739000D01*
X140393333Y-94072333D02*
X140393333Y-93739000D01*
X140193333Y-94139000D02*
X140893333Y-93905666D01*
X140193333Y-93672333D01*
X140193333Y-93072333D02*
X140193333Y-93472333D01*
X140193333Y-93272333D02*
X140893333Y-93272333D01*
X140793333Y-93339000D01*
X140726666Y-93405666D01*
X140693333Y-93472333D01*
X140893333Y-92639000D02*
X140893333Y-92572333D01*
X140860000Y-92505666D01*
X140826666Y-92472333D01*
X140760000Y-92439000D01*
X140626666Y-92405666D01*
X140460000Y-92405666D01*
X140326666Y-92439000D01*
X140260000Y-92472333D01*
X140226666Y-92505666D01*
X140193333Y-92572333D01*
X140193333Y-92639000D01*
X140226666Y-92705666D01*
X140260000Y-92739000D01*
X140326666Y-92772333D01*
X140460000Y-92805666D01*
X140626666Y-92805666D01*
X140760000Y-92772333D01*
X140826666Y-92739000D01*
X140860000Y-92705666D01*
X140893333Y-92639000D01*
X158023333Y-94066666D02*
X158723333Y-94066666D01*
X158723333Y-93800000D01*
X158690000Y-93733333D01*
X158656666Y-93700000D01*
X158590000Y-93666666D01*
X158490000Y-93666666D01*
X158423333Y-93700000D01*
X158390000Y-93733333D01*
X158356666Y-93800000D01*
X158356666Y-94066666D01*
X158223333Y-93400000D02*
X158223333Y-93066666D01*
X158023333Y-93466666D02*
X158723333Y-93233333D01*
X158023333Y-93000000D01*
X158723333Y-92833333D02*
X158723333Y-92400000D01*
X158456666Y-92633333D01*
X158456666Y-92533333D01*
X158423333Y-92466666D01*
X158390000Y-92433333D01*
X158323333Y-92400000D01*
X158156666Y-92400000D01*
X158090000Y-92433333D01*
X158056666Y-92466666D01*
X158023333Y-92533333D01*
X158023333Y-92733333D01*
X158056666Y-92800000D01*
X158090000Y-92833333D01*
X150393333Y-94066666D02*
X151093333Y-94066666D01*
X151093333Y-93800000D01*
X151060000Y-93733333D01*
X151026666Y-93700000D01*
X150960000Y-93666666D01*
X150860000Y-93666666D01*
X150793333Y-93700000D01*
X150760000Y-93733333D01*
X150726666Y-93800000D01*
X150726666Y-94066666D01*
X150593333Y-93400000D02*
X150593333Y-93066666D01*
X150393333Y-93466666D02*
X151093333Y-93233333D01*
X150393333Y-93000000D01*
X151093333Y-92466666D02*
X151093333Y-92600000D01*
X151060000Y-92666666D01*
X151026666Y-92700000D01*
X150926666Y-92766666D01*
X150793333Y-92800000D01*
X150526666Y-92800000D01*
X150460000Y-92766666D01*
X150426666Y-92733333D01*
X150393333Y-92666666D01*
X150393333Y-92533333D01*
X150426666Y-92466666D01*
X150460000Y-92433333D01*
X150526666Y-92400000D01*
X150693333Y-92400000D01*
X150760000Y-92433333D01*
X150793333Y-92466666D01*
X150826666Y-92533333D01*
X150826666Y-92666666D01*
X150793333Y-92733333D01*
X150760000Y-92766666D01*
X150693333Y-92800000D01*
X170888571Y-102692857D02*
X170288571Y-102492857D01*
X170888571Y-102292857D01*
X170317142Y-101864285D02*
X170288571Y-101921428D01*
X170288571Y-102035714D01*
X170317142Y-102092857D01*
X170374285Y-102121428D01*
X170602857Y-102121428D01*
X170660000Y-102092857D01*
X170688571Y-102035714D01*
X170688571Y-101921428D01*
X170660000Y-101864285D01*
X170602857Y-101835714D01*
X170545714Y-101835714D01*
X170488571Y-102121428D01*
X170288571Y-101578571D02*
X170688571Y-101578571D01*
X170574285Y-101578571D02*
X170631428Y-101550000D01*
X170660000Y-101521428D01*
X170688571Y-101464285D01*
X170688571Y-101407142D01*
X170317142Y-101235714D02*
X170288571Y-101178571D01*
X170288571Y-101064285D01*
X170317142Y-101007142D01*
X170374285Y-100978571D01*
X170402857Y-100978571D01*
X170460000Y-101007142D01*
X170488571Y-101064285D01*
X170488571Y-101150000D01*
X170517142Y-101207142D01*
X170574285Y-101235714D01*
X170602857Y-101235714D01*
X170660000Y-101207142D01*
X170688571Y-101150000D01*
X170688571Y-101064285D01*
X170660000Y-101007142D01*
X170288571Y-100721428D02*
X170688571Y-100721428D01*
X170888571Y-100721428D02*
X170860000Y-100750000D01*
X170831428Y-100721428D01*
X170860000Y-100692857D01*
X170888571Y-100721428D01*
X170831428Y-100721428D01*
X170288571Y-100350000D02*
X170317142Y-100407142D01*
X170345714Y-100435714D01*
X170402857Y-100464285D01*
X170574285Y-100464285D01*
X170631428Y-100435714D01*
X170660000Y-100407142D01*
X170688571Y-100350000D01*
X170688571Y-100264285D01*
X170660000Y-100207142D01*
X170631428Y-100178571D01*
X170574285Y-100150000D01*
X170402857Y-100150000D01*
X170345714Y-100178571D01*
X170317142Y-100207142D01*
X170288571Y-100264285D01*
X170288571Y-100350000D01*
X170688571Y-99892857D02*
X170288571Y-99892857D01*
X170631428Y-99892857D02*
X170660000Y-99864285D01*
X170688571Y-99807142D01*
X170688571Y-99721428D01*
X170660000Y-99664285D01*
X170602857Y-99635714D01*
X170288571Y-99635714D01*
X170831428Y-98921428D02*
X170860000Y-98892857D01*
X170888571Y-98835714D01*
X170888571Y-98692857D01*
X170860000Y-98635714D01*
X170831428Y-98607142D01*
X170774285Y-98578571D01*
X170717142Y-98578571D01*
X170631428Y-98607142D01*
X170288571Y-98950000D01*
X170288571Y-98578571D01*
X170345714Y-98321428D02*
X170317142Y-98292857D01*
X170288571Y-98321428D01*
X170317142Y-98350000D01*
X170345714Y-98321428D01*
X170288571Y-98321428D01*
X170888571Y-97921428D02*
X170888571Y-97864285D01*
X170860000Y-97807142D01*
X170831428Y-97778571D01*
X170774285Y-97750000D01*
X170660000Y-97721428D01*
X170517142Y-97721428D01*
X170402857Y-97750000D01*
X170345714Y-97778571D01*
X170317142Y-97807142D01*
X170288571Y-97864285D01*
X170288571Y-97921428D01*
X170317142Y-97978571D01*
X170345714Y-98007142D01*
X170402857Y-98035714D01*
X170517142Y-98064285D01*
X170660000Y-98064285D01*
X170774285Y-98035714D01*
X170831428Y-98007142D01*
X170860000Y-97978571D01*
X170888571Y-97921428D01*
X170345714Y-97464285D02*
X170317142Y-97435714D01*
X170288571Y-97464285D01*
X170317142Y-97492857D01*
X170345714Y-97464285D01*
X170288571Y-97464285D01*
X170888571Y-97064285D02*
X170888571Y-97007142D01*
X170860000Y-96950000D01*
X170831428Y-96921428D01*
X170774285Y-96892857D01*
X170660000Y-96864285D01*
X170517142Y-96864285D01*
X170402857Y-96892857D01*
X170345714Y-96921428D01*
X170317142Y-96950000D01*
X170288571Y-97007142D01*
X170288571Y-97064285D01*
X170317142Y-97121428D01*
X170345714Y-97150000D01*
X170402857Y-97178571D01*
X170517142Y-97207142D01*
X170660000Y-97207142D01*
X170774285Y-97178571D01*
X170831428Y-97150000D01*
X170860000Y-97121428D01*
X170888571Y-97064285D01*
X131634761Y-98616190D02*
X131749047Y-98578095D01*
X131939523Y-98578095D01*
X132015714Y-98616190D01*
X132053809Y-98654285D01*
X132091904Y-98730476D01*
X132091904Y-98806666D01*
X132053809Y-98882857D01*
X132015714Y-98920952D01*
X131939523Y-98959047D01*
X131787142Y-98997142D01*
X131710952Y-99035238D01*
X131672857Y-99073333D01*
X131634761Y-99149523D01*
X131634761Y-99225714D01*
X131672857Y-99301904D01*
X131710952Y-99340000D01*
X131787142Y-99378095D01*
X131977619Y-99378095D01*
X132091904Y-99340000D01*
X132358571Y-99378095D02*
X132549047Y-98578095D01*
X132701428Y-99149523D01*
X132853809Y-98578095D01*
X133044285Y-99378095D01*
X133349047Y-98578095D02*
X133349047Y-99378095D01*
X133539523Y-99378095D01*
X133653809Y-99340000D01*
X133730000Y-99263809D01*
X133768095Y-99187619D01*
X133806190Y-99035238D01*
X133806190Y-98920952D01*
X133768095Y-98768571D01*
X133730000Y-98692380D01*
X133653809Y-98616190D01*
X133539523Y-98578095D01*
X133349047Y-98578095D01*
X134149047Y-98578095D02*
X134149047Y-99378095D01*
X134682380Y-99378095D02*
X134834761Y-99378095D01*
X134910952Y-99340000D01*
X134987142Y-99263809D01*
X135025238Y-99111428D01*
X135025238Y-98844761D01*
X134987142Y-98692380D01*
X134910952Y-98616190D01*
X134834761Y-98578095D01*
X134682380Y-98578095D01*
X134606190Y-98616190D01*
X134530000Y-98692380D01*
X134491904Y-98844761D01*
X134491904Y-99111428D01*
X134530000Y-99263809D01*
X134606190Y-99340000D01*
X134682380Y-99378095D01*
X131644285Y-97608571D02*
X131644285Y-98208571D01*
X131872857Y-98208571D01*
X131930000Y-98180000D01*
X131958571Y-98151428D01*
X131987142Y-98094285D01*
X131987142Y-98008571D01*
X131958571Y-97951428D01*
X131930000Y-97922857D01*
X131872857Y-97894285D01*
X131644285Y-97894285D01*
X132215714Y-97780000D02*
X132501428Y-97780000D01*
X132158571Y-97608571D02*
X132358571Y-98208571D01*
X132558571Y-97608571D01*
X133072857Y-97608571D02*
X132730000Y-97608571D01*
X132901428Y-97608571D02*
X132901428Y-98208571D01*
X132844285Y-98122857D01*
X132787142Y-98065714D01*
X132730000Y-98037142D01*
X133272857Y-98208571D02*
X133644285Y-98208571D01*
X133444285Y-97980000D01*
X133530000Y-97980000D01*
X133587142Y-97951428D01*
X133615714Y-97922857D01*
X133644285Y-97865714D01*
X133644285Y-97722857D01*
X133615714Y-97665714D01*
X133587142Y-97637142D01*
X133530000Y-97608571D01*
X133358571Y-97608571D01*
X133301428Y-97637142D01*
X133272857Y-97665714D01*
X137753333Y-107036666D02*
X138453333Y-107036666D01*
X138453333Y-106770000D01*
X138420000Y-106703333D01*
X138386666Y-106670000D01*
X138320000Y-106636666D01*
X138220000Y-106636666D01*
X138153333Y-106670000D01*
X138120000Y-106703333D01*
X138086666Y-106770000D01*
X138086666Y-107036666D01*
X138120000Y-106103333D02*
X138086666Y-106003333D01*
X138053333Y-105970000D01*
X137986666Y-105936666D01*
X137886666Y-105936666D01*
X137820000Y-105970000D01*
X137786666Y-106003333D01*
X137753333Y-106070000D01*
X137753333Y-106336666D01*
X138453333Y-106336666D01*
X138453333Y-106103333D01*
X138420000Y-106036666D01*
X138386666Y-106003333D01*
X138320000Y-105970000D01*
X138253333Y-105970000D01*
X138186666Y-106003333D01*
X138153333Y-106036666D01*
X138120000Y-106103333D01*
X138120000Y-106336666D01*
X138386666Y-105670000D02*
X138420000Y-105636666D01*
X138453333Y-105570000D01*
X138453333Y-105403333D01*
X138420000Y-105336666D01*
X138386666Y-105303333D01*
X138320000Y-105270000D01*
X138253333Y-105270000D01*
X138153333Y-105303333D01*
X137753333Y-105703333D01*
X137753333Y-105270000D01*
X152963333Y-94056666D02*
X153663333Y-94056666D01*
X153663333Y-93790000D01*
X153630000Y-93723333D01*
X153596666Y-93690000D01*
X153530000Y-93656666D01*
X153430000Y-93656666D01*
X153363333Y-93690000D01*
X153330000Y-93723333D01*
X153296666Y-93790000D01*
X153296666Y-94056666D01*
X153163333Y-93390000D02*
X153163333Y-93056666D01*
X152963333Y-93456666D02*
X153663333Y-93223333D01*
X152963333Y-92990000D01*
X153663333Y-92423333D02*
X153663333Y-92756666D01*
X153330000Y-92790000D01*
X153363333Y-92756666D01*
X153396666Y-92690000D01*
X153396666Y-92523333D01*
X153363333Y-92456666D01*
X153330000Y-92423333D01*
X153263333Y-92390000D01*
X153096666Y-92390000D01*
X153030000Y-92423333D01*
X152996666Y-92456666D01*
X152963333Y-92523333D01*
X152963333Y-92690000D01*
X152996666Y-92756666D01*
X153030000Y-92790000D01*
X142763333Y-94066666D02*
X143463333Y-94066666D01*
X143463333Y-93800000D01*
X143430000Y-93733333D01*
X143396666Y-93700000D01*
X143330000Y-93666666D01*
X143230000Y-93666666D01*
X143163333Y-93700000D01*
X143130000Y-93733333D01*
X143096666Y-93800000D01*
X143096666Y-94066666D01*
X142963333Y-93400000D02*
X142963333Y-93066666D01*
X142763333Y-93466666D02*
X143463333Y-93233333D01*
X142763333Y-93000000D01*
X142763333Y-92733333D02*
X142763333Y-92600000D01*
X142796666Y-92533333D01*
X142830000Y-92500000D01*
X142930000Y-92433333D01*
X143063333Y-92400000D01*
X143330000Y-92400000D01*
X143396666Y-92433333D01*
X143430000Y-92466666D01*
X143463333Y-92533333D01*
X143463333Y-92666666D01*
X143430000Y-92733333D01*
X143396666Y-92766666D01*
X143330000Y-92800000D01*
X143163333Y-92800000D01*
X143096666Y-92766666D01*
X143063333Y-92733333D01*
X143030000Y-92666666D01*
X143030000Y-92533333D01*
X143063333Y-92466666D01*
X143096666Y-92433333D01*
X143163333Y-92400000D01*
X147843333Y-94106666D02*
X148543333Y-94106666D01*
X148543333Y-93840000D01*
X148510000Y-93773333D01*
X148476666Y-93740000D01*
X148410000Y-93706666D01*
X148310000Y-93706666D01*
X148243333Y-93740000D01*
X148210000Y-93773333D01*
X148176666Y-93840000D01*
X148176666Y-94106666D01*
X148043333Y-93440000D02*
X148043333Y-93106666D01*
X147843333Y-93506666D02*
X148543333Y-93273333D01*
X147843333Y-93040000D01*
X148543333Y-92873333D02*
X148543333Y-92406666D01*
X147843333Y-92706666D01*
X131649523Y-96438095D02*
X132144761Y-96438095D01*
X131878095Y-96133333D01*
X131992380Y-96133333D01*
X132068571Y-96095238D01*
X132106666Y-96057142D01*
X132144761Y-95980952D01*
X132144761Y-95790476D01*
X132106666Y-95714285D01*
X132068571Y-95676190D01*
X131992380Y-95638095D01*
X131763809Y-95638095D01*
X131687619Y-95676190D01*
X131649523Y-95714285D01*
X132373333Y-96438095D02*
X132640000Y-95638095D01*
X132906666Y-96438095D01*
X133097142Y-96438095D02*
X133592380Y-96438095D01*
X133325714Y-96133333D01*
X133440000Y-96133333D01*
X133516190Y-96095238D01*
X133554285Y-96057142D01*
X133592380Y-95980952D01*
X133592380Y-95790476D01*
X133554285Y-95714285D01*
X133516190Y-95676190D01*
X133440000Y-95638095D01*
X133211428Y-95638095D01*
X133135238Y-95676190D01*
X133097142Y-95714285D01*
X160583333Y-94066666D02*
X161283333Y-94066666D01*
X161283333Y-93800000D01*
X161250000Y-93733333D01*
X161216666Y-93700000D01*
X161150000Y-93666666D01*
X161050000Y-93666666D01*
X160983333Y-93700000D01*
X160950000Y-93733333D01*
X160916666Y-93800000D01*
X160916666Y-94066666D01*
X160783333Y-93400000D02*
X160783333Y-93066666D01*
X160583333Y-93466666D02*
X161283333Y-93233333D01*
X160583333Y-93000000D01*
X161216666Y-92800000D02*
X161250000Y-92766666D01*
X161283333Y-92700000D01*
X161283333Y-92533333D01*
X161250000Y-92466666D01*
X161216666Y-92433333D01*
X161150000Y-92400000D01*
X161083333Y-92400000D01*
X160983333Y-92433333D01*
X160583333Y-92833333D01*
X160583333Y-92400000D01*
X132100476Y-103970000D02*
X132024285Y-104008095D01*
X131910000Y-104008095D01*
X131795714Y-103970000D01*
X131719523Y-103893809D01*
X131681428Y-103817619D01*
X131643333Y-103665238D01*
X131643333Y-103550952D01*
X131681428Y-103398571D01*
X131719523Y-103322380D01*
X131795714Y-103246190D01*
X131910000Y-103208095D01*
X131986190Y-103208095D01*
X132100476Y-103246190D01*
X132138571Y-103284285D01*
X132138571Y-103550952D01*
X131986190Y-103550952D01*
X132481428Y-103208095D02*
X132481428Y-104008095D01*
X132938571Y-103208095D01*
X132938571Y-104008095D01*
X133319523Y-103208095D02*
X133319523Y-104008095D01*
X133510000Y-104008095D01*
X133624285Y-103970000D01*
X133700476Y-103893809D01*
X133738571Y-103817619D01*
X133776666Y-103665238D01*
X133776666Y-103550952D01*
X133738571Y-103398571D01*
X133700476Y-103322380D01*
X133624285Y-103246190D01*
X133510000Y-103208095D01*
X133319523Y-103208095D01*
X145343333Y-94066666D02*
X146043333Y-94066666D01*
X146043333Y-93800000D01*
X146010000Y-93733333D01*
X145976666Y-93700000D01*
X145910000Y-93666666D01*
X145810000Y-93666666D01*
X145743333Y-93700000D01*
X145710000Y-93733333D01*
X145676666Y-93800000D01*
X145676666Y-94066666D01*
X145543333Y-93400000D02*
X145543333Y-93066666D01*
X145343333Y-93466666D02*
X146043333Y-93233333D01*
X145343333Y-93000000D01*
X145743333Y-92666666D02*
X145776666Y-92733333D01*
X145810000Y-92766666D01*
X145876666Y-92800000D01*
X145910000Y-92800000D01*
X145976666Y-92766666D01*
X146010000Y-92733333D01*
X146043333Y-92666666D01*
X146043333Y-92533333D01*
X146010000Y-92466666D01*
X145976666Y-92433333D01*
X145910000Y-92400000D01*
X145876666Y-92400000D01*
X145810000Y-92433333D01*
X145776666Y-92466666D01*
X145743333Y-92533333D01*
X145743333Y-92666666D01*
X145710000Y-92733333D01*
X145676666Y-92766666D01*
X145610000Y-92800000D01*
X145476666Y-92800000D01*
X145410000Y-92766666D01*
X145376666Y-92733333D01*
X145343333Y-92666666D01*
X145343333Y-92533333D01*
X145376666Y-92466666D01*
X145410000Y-92433333D01*
X145476666Y-92400000D01*
X145610000Y-92400000D01*
X145676666Y-92433333D01*
X145710000Y-92466666D01*
X145743333Y-92533333D01*
X131650476Y-101166190D02*
X131764761Y-101128095D01*
X131955238Y-101128095D01*
X132031428Y-101166190D01*
X132069523Y-101204285D01*
X132107619Y-101280476D01*
X132107619Y-101356666D01*
X132069523Y-101432857D01*
X132031428Y-101470952D01*
X131955238Y-101509047D01*
X131802857Y-101547142D01*
X131726666Y-101585238D01*
X131688571Y-101623333D01*
X131650476Y-101699523D01*
X131650476Y-101775714D01*
X131688571Y-101851904D01*
X131726666Y-101890000D01*
X131802857Y-101928095D01*
X131993333Y-101928095D01*
X132107619Y-101890000D01*
X132374285Y-101928095D02*
X132564761Y-101128095D01*
X132717142Y-101699523D01*
X132869523Y-101128095D01*
X133060000Y-101928095D01*
X133821904Y-101204285D02*
X133783809Y-101166190D01*
X133669523Y-101128095D01*
X133593333Y-101128095D01*
X133479047Y-101166190D01*
X133402857Y-101242380D01*
X133364761Y-101318571D01*
X133326666Y-101470952D01*
X133326666Y-101585238D01*
X133364761Y-101737619D01*
X133402857Y-101813809D01*
X133479047Y-101890000D01*
X133593333Y-101928095D01*
X133669523Y-101928095D01*
X133783809Y-101890000D01*
X133821904Y-101851904D01*
X134545714Y-101128095D02*
X134164761Y-101128095D01*
X134164761Y-101928095D01*
X134812380Y-101128095D02*
X134812380Y-101928095D01*
X135269523Y-101128095D02*
X134926666Y-101585238D01*
X135269523Y-101928095D02*
X134812380Y-101470952D01*
X145313333Y-107006666D02*
X146013333Y-107006666D01*
X146013333Y-106740000D01*
X145980000Y-106673333D01*
X145946666Y-106640000D01*
X145880000Y-106606666D01*
X145780000Y-106606666D01*
X145713333Y-106640000D01*
X145680000Y-106673333D01*
X145646666Y-106740000D01*
X145646666Y-107006666D01*
X145680000Y-106073333D02*
X145646666Y-105973333D01*
X145613333Y-105940000D01*
X145546666Y-105906666D01*
X145446666Y-105906666D01*
X145380000Y-105940000D01*
X145346666Y-105973333D01*
X145313333Y-106040000D01*
X145313333Y-106306666D01*
X146013333Y-106306666D01*
X146013333Y-106073333D01*
X145980000Y-106006666D01*
X145946666Y-105973333D01*
X145880000Y-105940000D01*
X145813333Y-105940000D01*
X145746666Y-105973333D01*
X145713333Y-106006666D01*
X145680000Y-106073333D01*
X145680000Y-106306666D01*
X146013333Y-105273333D02*
X146013333Y-105606666D01*
X145680000Y-105640000D01*
X145713333Y-105606666D01*
X145746666Y-105540000D01*
X145746666Y-105373333D01*
X145713333Y-105306666D01*
X145680000Y-105273333D01*
X145613333Y-105240000D01*
X145446666Y-105240000D01*
X145380000Y-105273333D01*
X145346666Y-105306666D01*
X145313333Y-105373333D01*
X145313333Y-105540000D01*
X145346666Y-105606666D01*
X145380000Y-105640000D01*
X157313333Y-104283333D02*
X156613333Y-104116666D01*
X157113333Y-103983333D01*
X156613333Y-103850000D01*
X157313333Y-103683333D01*
X157246666Y-103450000D02*
X157280000Y-103416666D01*
X157313333Y-103350000D01*
X157313333Y-103183333D01*
X157280000Y-103116666D01*
X157246666Y-103083333D01*
X157180000Y-103050000D01*
X157113333Y-103050000D01*
X157013333Y-103083333D01*
X156613333Y-103483333D01*
X156613333Y-103050000D01*
X157313333Y-102416666D02*
X157313333Y-102750000D01*
X156980000Y-102783333D01*
X157013333Y-102750000D01*
X157046666Y-102683333D01*
X157046666Y-102516666D01*
X157013333Y-102450000D01*
X156980000Y-102416666D01*
X156913333Y-102383333D01*
X156746666Y-102383333D01*
X156680000Y-102416666D01*
X156646666Y-102450000D01*
X156613333Y-102516666D01*
X156613333Y-102683333D01*
X156646666Y-102750000D01*
X156680000Y-102783333D01*
X156546666Y-101616666D02*
X156580000Y-101683333D01*
X156646666Y-101750000D01*
X156746666Y-101850000D01*
X156780000Y-101916666D01*
X156780000Y-101983333D01*
X156613333Y-101950000D02*
X156646666Y-102016666D01*
X156713333Y-102083333D01*
X156846666Y-102116666D01*
X157080000Y-102116666D01*
X157213333Y-102083333D01*
X157280000Y-102016666D01*
X157313333Y-101950000D01*
X157313333Y-101816666D01*
X157280000Y-101750000D01*
X157213333Y-101683333D01*
X157080000Y-101650000D01*
X156846666Y-101650000D01*
X156713333Y-101683333D01*
X156646666Y-101750000D01*
X156613333Y-101816666D01*
X156613333Y-101950000D01*
X156880000Y-101350000D02*
X156880000Y-100816666D01*
X157313333Y-100550000D02*
X156613333Y-100083333D01*
X157313333Y-100083333D02*
X156613333Y-100550000D01*
X157313333Y-99883333D02*
X156613333Y-99416666D01*
X157313333Y-99416666D02*
X156613333Y-99883333D01*
X156880000Y-99150000D02*
X156880000Y-98616666D01*
X157313333Y-98083333D02*
X156813333Y-98083333D01*
X156713333Y-98116666D01*
X156646666Y-98183333D01*
X156613333Y-98283333D01*
X156613333Y-98350000D01*
X157313333Y-97850000D02*
X156613333Y-97616666D01*
X157313333Y-97383333D01*
X156646666Y-97183333D02*
X156613333Y-97083333D01*
X156613333Y-96916666D01*
X156646666Y-96850000D01*
X156680000Y-96816666D01*
X156746666Y-96783333D01*
X156813333Y-96783333D01*
X156880000Y-96816666D01*
X156913333Y-96850000D01*
X156946666Y-96916666D01*
X156980000Y-97050000D01*
X157013333Y-97116666D01*
X157046666Y-97150000D01*
X157113333Y-97183333D01*
X157180000Y-97183333D01*
X157246666Y-97150000D01*
X157280000Y-97116666D01*
X157313333Y-97050000D01*
X157313333Y-96883333D01*
X157280000Y-96783333D01*
X156646666Y-96516666D02*
X156613333Y-96416666D01*
X156613333Y-96250000D01*
X156646666Y-96183333D01*
X156680000Y-96150000D01*
X156746666Y-96116666D01*
X156813333Y-96116666D01*
X156880000Y-96150000D01*
X156913333Y-96183333D01*
X156946666Y-96250000D01*
X156980000Y-96383333D01*
X157013333Y-96450000D01*
X157046666Y-96483333D01*
X157113333Y-96516666D01*
X157180000Y-96516666D01*
X157246666Y-96483333D01*
X157280000Y-96450000D01*
X157313333Y-96383333D01*
X157313333Y-96216666D01*
X157280000Y-96116666D01*
X156613333Y-95816666D02*
X157313333Y-95816666D01*
X156546666Y-95016666D02*
X156580000Y-95083333D01*
X156646666Y-95150000D01*
X156746666Y-95250000D01*
X156780000Y-95316666D01*
X156780000Y-95383333D01*
X156613333Y-95350000D02*
X156646666Y-95416666D01*
X156713333Y-95483333D01*
X156846666Y-95516666D01*
X157080000Y-95516666D01*
X157213333Y-95483333D01*
X157280000Y-95416666D01*
X157313333Y-95350000D01*
X157313333Y-95216666D01*
X157280000Y-95150000D01*
X157213333Y-95083333D01*
X157080000Y-95050000D01*
X156846666Y-95050000D01*
X156713333Y-95083333D01*
X156646666Y-95150000D01*
X156613333Y-95216666D01*
X156613333Y-95350000D01*
X163133333Y-94066666D02*
X163833333Y-94066666D01*
X163833333Y-93800000D01*
X163800000Y-93733333D01*
X163766666Y-93700000D01*
X163700000Y-93666666D01*
X163600000Y-93666666D01*
X163533333Y-93700000D01*
X163500000Y-93733333D01*
X163466666Y-93800000D01*
X163466666Y-94066666D01*
X163333333Y-93400000D02*
X163333333Y-93066666D01*
X163133333Y-93466666D02*
X163833333Y-93233333D01*
X163133333Y-93000000D01*
X163133333Y-92400000D02*
X163133333Y-92800000D01*
X163133333Y-92600000D02*
X163833333Y-92600000D01*
X163733333Y-92666666D01*
X163666666Y-92733333D01*
X163633333Y-92800000D01*
X155543333Y-94096666D02*
X156243333Y-94096666D01*
X156243333Y-93830000D01*
X156210000Y-93763333D01*
X156176666Y-93730000D01*
X156110000Y-93696666D01*
X156010000Y-93696666D01*
X155943333Y-93730000D01*
X155910000Y-93763333D01*
X155876666Y-93830000D01*
X155876666Y-94096666D01*
X155743333Y-93430000D02*
X155743333Y-93096666D01*
X155543333Y-93496666D02*
X156243333Y-93263333D01*
X155543333Y-93030000D01*
X156010000Y-92496666D02*
X155543333Y-92496666D01*
X156276666Y-92663333D02*
X155776666Y-92830000D01*
X155776666Y-92396666D01*
X166308333Y-106613333D02*
X166308333Y-106946666D01*
X165975000Y-106980000D01*
X166008333Y-106946666D01*
X166041666Y-106880000D01*
X166041666Y-106713333D01*
X166008333Y-106646666D01*
X165975000Y-106613333D01*
X165908333Y-106580000D01*
X165741666Y-106580000D01*
X165675000Y-106613333D01*
X165641666Y-106646666D01*
X165608333Y-106713333D01*
X165608333Y-106880000D01*
X165641666Y-106946666D01*
X165675000Y-106980000D01*
X166308333Y-106380000D02*
X165608333Y-106146666D01*
X166308333Y-105913333D01*
X165653333Y-94066666D02*
X166353333Y-94066666D01*
X166353333Y-93800000D01*
X166320000Y-93733333D01*
X166286666Y-93700000D01*
X166220000Y-93666666D01*
X166120000Y-93666666D01*
X166053333Y-93700000D01*
X166020000Y-93733333D01*
X165986666Y-93800000D01*
X165986666Y-94066666D01*
X165853333Y-93400000D02*
X165853333Y-93066666D01*
X165653333Y-93466666D02*
X166353333Y-93233333D01*
X165653333Y-93000000D01*
X166353333Y-92633333D02*
X166353333Y-92566666D01*
X166320000Y-92500000D01*
X166286666Y-92466666D01*
X166220000Y-92433333D01*
X166086666Y-92400000D01*
X165920000Y-92400000D01*
X165786666Y-92433333D01*
X165720000Y-92466666D01*
X165686666Y-92500000D01*
X165653333Y-92566666D01*
X165653333Y-92633333D01*
X165686666Y-92700000D01*
X165720000Y-92733333D01*
X165786666Y-92766666D01*
X165920000Y-92800000D01*
X166086666Y-92800000D01*
X166220000Y-92766666D01*
X166286666Y-92733333D01*
X166320000Y-92700000D01*
X166353333Y-92633333D01*
X135173333Y-107036666D02*
X135873333Y-107036666D01*
X135873333Y-106770000D01*
X135840000Y-106703333D01*
X135806666Y-106670000D01*
X135740000Y-106636666D01*
X135640000Y-106636666D01*
X135573333Y-106670000D01*
X135540000Y-106703333D01*
X135506666Y-106770000D01*
X135506666Y-107036666D01*
X135540000Y-106103333D02*
X135506666Y-106003333D01*
X135473333Y-105970000D01*
X135406666Y-105936666D01*
X135306666Y-105936666D01*
X135240000Y-105970000D01*
X135206666Y-106003333D01*
X135173333Y-106070000D01*
X135173333Y-106336666D01*
X135873333Y-106336666D01*
X135873333Y-106103333D01*
X135840000Y-106036666D01*
X135806666Y-106003333D01*
X135740000Y-105970000D01*
X135673333Y-105970000D01*
X135606666Y-106003333D01*
X135573333Y-106036666D01*
X135540000Y-106103333D01*
X135540000Y-106336666D01*
X135173333Y-105270000D02*
X135173333Y-105670000D01*
X135173333Y-105470000D02*
X135873333Y-105470000D01*
X135773333Y-105536666D01*
X135706666Y-105603333D01*
X135673333Y-105670000D01*
X161253333Y-107036666D02*
X161253333Y-106603333D01*
X160986666Y-106836666D01*
X160986666Y-106736666D01*
X160953333Y-106670000D01*
X160920000Y-106636666D01*
X160853333Y-106603333D01*
X160686666Y-106603333D01*
X160620000Y-106636666D01*
X160586666Y-106670000D01*
X160553333Y-106736666D01*
X160553333Y-106936666D01*
X160586666Y-107003333D01*
X160620000Y-107036666D01*
X161253333Y-106403333D02*
X160553333Y-106170000D01*
X161253333Y-105936666D01*
X161253333Y-105770000D02*
X161253333Y-105336666D01*
X160986666Y-105570000D01*
X160986666Y-105470000D01*
X160953333Y-105403333D01*
X160920000Y-105370000D01*
X160853333Y-105336666D01*
X160686666Y-105336666D01*
X160620000Y-105370000D01*
X160586666Y-105403333D01*
X160553333Y-105470000D01*
X160553333Y-105670000D01*
X160586666Y-105736666D01*
X160620000Y-105770000D01*
X163750000Y-106638333D02*
X163783333Y-106705000D01*
X163783333Y-106805000D01*
X163750000Y-106905000D01*
X163683333Y-106971666D01*
X163616666Y-107005000D01*
X163483333Y-107038333D01*
X163383333Y-107038333D01*
X163250000Y-107005000D01*
X163183333Y-106971666D01*
X163116666Y-106905000D01*
X163083333Y-106805000D01*
X163083333Y-106738333D01*
X163116666Y-106638333D01*
X163150000Y-106605000D01*
X163383333Y-106605000D01*
X163383333Y-106738333D01*
X163083333Y-106305000D02*
X163783333Y-106305000D01*
X163083333Y-105905000D01*
X163783333Y-105905000D01*
X163083333Y-105571666D02*
X163783333Y-105571666D01*
X163783333Y-105405000D01*
X163750000Y-105305000D01*
X163683333Y-105238333D01*
X163616666Y-105205000D01*
X163483333Y-105171666D01*
X163383333Y-105171666D01*
X163250000Y-105205000D01*
X163183333Y-105238333D01*
X163116666Y-105305000D01*
X163083333Y-105405000D01*
X163083333Y-105571666D01*
X158670000Y-106633333D02*
X158703333Y-106700000D01*
X158703333Y-106800000D01*
X158670000Y-106900000D01*
X158603333Y-106966666D01*
X158536666Y-107000000D01*
X158403333Y-107033333D01*
X158303333Y-107033333D01*
X158170000Y-107000000D01*
X158103333Y-106966666D01*
X158036666Y-106900000D01*
X158003333Y-106800000D01*
X158003333Y-106733333D01*
X158036666Y-106633333D01*
X158070000Y-106600000D01*
X158303333Y-106600000D01*
X158303333Y-106733333D01*
X158003333Y-106300000D02*
X158703333Y-106300000D01*
X158003333Y-105900000D01*
X158703333Y-105900000D01*
X158003333Y-105566666D02*
X158703333Y-105566666D01*
X158703333Y-105400000D01*
X158670000Y-105300000D01*
X158603333Y-105233333D01*
X158536666Y-105200000D01*
X158403333Y-105166666D01*
X158303333Y-105166666D01*
X158170000Y-105200000D01*
X158103333Y-105233333D01*
X158036666Y-105300000D01*
X158003333Y-105400000D01*
X158003333Y-105566666D01*
%TO.C,U2*%
X160618095Y-100344523D02*
X159970476Y-100344523D01*
X159894285Y-100306428D01*
X159856190Y-100268333D01*
X159818095Y-100192142D01*
X159818095Y-100039761D01*
X159856190Y-99963571D01*
X159894285Y-99925476D01*
X159970476Y-99887380D01*
X160618095Y-99887380D01*
X160541904Y-99544523D02*
X160580000Y-99506428D01*
X160618095Y-99430238D01*
X160618095Y-99239761D01*
X160580000Y-99163571D01*
X160541904Y-99125476D01*
X160465714Y-99087380D01*
X160389523Y-99087380D01*
X160275238Y-99125476D01*
X159818095Y-99582619D01*
X159818095Y-99087380D01*
%TO.C,C3*%
X164695714Y-99800000D02*
X164667142Y-99828571D01*
X164638571Y-99914285D01*
X164638571Y-99971428D01*
X164667142Y-100057142D01*
X164724285Y-100114285D01*
X164781428Y-100142857D01*
X164895714Y-100171428D01*
X164981428Y-100171428D01*
X165095714Y-100142857D01*
X165152857Y-100114285D01*
X165210000Y-100057142D01*
X165238571Y-99971428D01*
X165238571Y-99914285D01*
X165210000Y-99828571D01*
X165181428Y-99800000D01*
X165238571Y-99600000D02*
X165238571Y-99228571D01*
X165010000Y-99428571D01*
X165010000Y-99342857D01*
X164981428Y-99285714D01*
X164952857Y-99257142D01*
X164895714Y-99228571D01*
X164752857Y-99228571D01*
X164695714Y-99257142D01*
X164667142Y-99285714D01*
X164638571Y-99342857D01*
X164638571Y-99514285D01*
X164667142Y-99571428D01*
X164695714Y-99600000D01*
D12*
%TO.C,*%
D10*
%TO.C,Hole3*%
X175940000Y-107630000D02*
G75*
G03*
X175940000Y-107630000I-900000J0D01*
G01*
%TO.C,Hole1*%
X131430000Y-91810000D02*
G75*
G03*
X131430000Y-91810000I-900000J0D01*
G01*
%TO.C,Hole2*%
X131460000Y-107620000D02*
G75*
G03*
X131460000Y-107620000I-900000J0D01*
G01*
%TO.C,Hole4*%
X175940000Y-91810000D02*
G75*
G03*
X175940000Y-91810000I-900000J0D01*
G01*
D13*
%TO.C,J2*%
X164710000Y-109830000D02*
X131630000Y-109830000D01*
X167310000Y-109830000D02*
X167310000Y-108500000D01*
X165980000Y-109830000D02*
X167310000Y-109830000D01*
X164710000Y-107170000D02*
X131630000Y-107170000D01*
X131630000Y-109830000D02*
X131630000Y-107170000D01*
X164710000Y-109830000D02*
X164710000Y-107170000D01*
D14*
%TO.C,U2*%
X162949000Y-97504000D02*
X157671000Y-97504000D01*
X157671000Y-101856000D02*
X162949000Y-101856000D01*
X162949000Y-101856000D02*
X162949000Y-97504000D01*
X157671000Y-97504000D02*
X157671000Y-101856000D01*
D12*
X163132000Y-103210000D02*
G75*
G03*
X163132000Y-103210000I-150000J0D01*
G01*
X162365000Y-101104000D02*
G75*
G03*
X162365000Y-101104000I-150000J0D01*
G01*
D13*
%TO.C,C3*%
X164290000Y-99757836D02*
X164290000Y-99542164D01*
X163570000Y-99757836D02*
X163570000Y-99542164D01*
%TO.C,J1*%
X167320000Y-92270000D02*
X167320000Y-90940000D01*
X164720000Y-92270000D02*
X164720000Y-89610000D01*
X164720000Y-89610000D02*
X131640000Y-89610000D01*
X164720000Y-92270000D02*
X131640000Y-92270000D01*
X165990000Y-92270000D02*
X167320000Y-92270000D01*
X131640000Y-92270000D02*
X131640000Y-89610000D01*
%TO.C,*%
G36*
X153110654Y-99846076D02*
G01*
X153117089Y-99857730D01*
X153121776Y-99880724D01*
X153125447Y-99918813D01*
X153128836Y-99975751D01*
X153131978Y-100021449D01*
X153137483Y-100073645D01*
X153144032Y-100115774D01*
X153150796Y-100141570D01*
X153154679Y-100152012D01*
X153157493Y-100192347D01*
X153138460Y-100227099D01*
X153097515Y-100256411D01*
X153087426Y-100261243D01*
X153058935Y-100271331D01*
X153040518Y-100272672D01*
X153035709Y-100270010D01*
X153026651Y-100252516D01*
X153030364Y-100231103D01*
X153045826Y-100216596D01*
X153059620Y-100210170D01*
X153084541Y-100193359D01*
X153089028Y-100189338D01*
X153097148Y-100177246D01*
X153096060Y-100160121D01*
X153085937Y-100130079D01*
X153082910Y-100120664D01*
X153074631Y-100077572D01*
X153069381Y-100022745D01*
X153067501Y-99964429D01*
X153069331Y-99910872D01*
X153075213Y-99870321D01*
X153085236Y-99848057D01*
X153102750Y-99842178D01*
X153110654Y-99846076D01*
G37*
G36*
X153308643Y-101258633D02*
G01*
X153302991Y-101264285D01*
X153297339Y-101258633D01*
X153302991Y-101252981D01*
X153308643Y-101258633D01*
G37*
G36*
X152256552Y-99316933D02*
G01*
X152341063Y-99324412D01*
X152416421Y-99338453D01*
X152489059Y-99360243D01*
X152565408Y-99390969D01*
X152567279Y-99391801D01*
X152612258Y-99414745D01*
X152636668Y-99433993D01*
X152640046Y-99448985D01*
X152621927Y-99459163D01*
X152613856Y-99461033D01*
X152557916Y-99465462D01*
X152493888Y-99459419D01*
X152431530Y-99443696D01*
X152384293Y-99428269D01*
X152311949Y-99407256D01*
X152234651Y-99387108D01*
X152158988Y-99369432D01*
X152091549Y-99355834D01*
X152038921Y-99347923D01*
X152032023Y-99347175D01*
X151992902Y-99341477D01*
X151974205Y-99335140D01*
X151974002Y-99327560D01*
X151990280Y-99322447D01*
X152027036Y-99318477D01*
X152081978Y-99315888D01*
X152152892Y-99314838D01*
X152156456Y-99314830D01*
X152256552Y-99316933D01*
G37*
G36*
X147053055Y-100711669D02*
G01*
X147160217Y-100753240D01*
X147267657Y-100817212D01*
X147340152Y-100867889D01*
X147340152Y-100732999D01*
X147747094Y-100732999D01*
X147747094Y-101999042D01*
X147340152Y-101999042D01*
X147340152Y-101086509D01*
X147269502Y-101054214D01*
X147269042Y-101054004D01*
X147218715Y-101034318D01*
X147169000Y-101023238D01*
X147108421Y-101018199D01*
X147065449Y-101017637D01*
X147010083Y-101023518D01*
X146968876Y-101039708D01*
X146937244Y-101068374D01*
X146910601Y-101111682D01*
X146882341Y-101168201D01*
X146878557Y-101583622D01*
X146874772Y-101999042D01*
X146468025Y-101999042D01*
X146472711Y-101521450D01*
X146473240Y-101468777D01*
X146474585Y-101352491D01*
X146476169Y-101255585D01*
X146478237Y-101175758D01*
X146481037Y-101110707D01*
X146484815Y-101058130D01*
X146489817Y-101015724D01*
X146496289Y-100981188D01*
X146504478Y-100952219D01*
X146514630Y-100926514D01*
X146526992Y-100901772D01*
X146541809Y-100875691D01*
X146588033Y-100812958D01*
X146650671Y-100760691D01*
X146728581Y-100722964D01*
X146823657Y-100698587D01*
X146840453Y-100695961D01*
X146946394Y-100692556D01*
X147053055Y-100711669D01*
G37*
G36*
X152913004Y-101303849D02*
G01*
X152907352Y-101309501D01*
X152901700Y-101303849D01*
X152907352Y-101298197D01*
X152913004Y-101303849D01*
G37*
G36*
X152879093Y-101303849D02*
G01*
X152873441Y-101309501D01*
X152867789Y-101303849D01*
X152873441Y-101298197D01*
X152879093Y-101303849D01*
G37*
G36*
X152099119Y-101953827D02*
G01*
X152098303Y-101959811D01*
X152091583Y-101961363D01*
X152090230Y-101959706D01*
X152091583Y-101946291D01*
X152094983Y-101944522D01*
X152099119Y-101953827D01*
G37*
G36*
X142282567Y-97411992D02*
G01*
X142306418Y-97438406D01*
X142325272Y-97461818D01*
X142332497Y-97474409D01*
X142332190Y-97475351D01*
X142320854Y-97487844D01*
X142295606Y-97510757D01*
X142259760Y-97541178D01*
X142216631Y-97576194D01*
X142168762Y-97614736D01*
X142119183Y-97655475D01*
X142075733Y-97691972D01*
X142044246Y-97719378D01*
X142014911Y-97744925D01*
X141991568Y-97763556D01*
X141979701Y-97770855D01*
X141977770Y-97770305D01*
X141963121Y-97758957D01*
X141940209Y-97736904D01*
X141913907Y-97709370D01*
X141889086Y-97681579D01*
X141870621Y-97658758D01*
X141863383Y-97646131D01*
X141870550Y-97636725D01*
X141892764Y-97616008D01*
X141926735Y-97587010D01*
X141969105Y-97552423D01*
X142016514Y-97514941D01*
X142065605Y-97477254D01*
X142113019Y-97442056D01*
X142155397Y-97412039D01*
X142232637Y-97359147D01*
X142282567Y-97411992D01*
G37*
G36*
X138905427Y-98173763D02*
G01*
X138971353Y-98225810D01*
X139086177Y-98311201D01*
X139033137Y-98363444D01*
X139005986Y-98389008D01*
X138983044Y-98408307D01*
X138970805Y-98415687D01*
X138965987Y-98413887D01*
X138945337Y-98400699D01*
X138912996Y-98377126D01*
X138872606Y-98346046D01*
X138827809Y-98310340D01*
X138782246Y-98272886D01*
X138739561Y-98236566D01*
X138703394Y-98204257D01*
X138635274Y-98141190D01*
X138542430Y-98231491D01*
X138515293Y-98256988D01*
X138463442Y-98302278D01*
X138411212Y-98344396D01*
X138366588Y-98376744D01*
X138283590Y-98431697D01*
X138343981Y-98452350D01*
X138381167Y-98464396D01*
X138473717Y-98490482D01*
X138581717Y-98516755D01*
X138700355Y-98542213D01*
X138824821Y-98565858D01*
X138950306Y-98586688D01*
X139071997Y-98603705D01*
X139230946Y-98623576D01*
X139185037Y-98699692D01*
X139168640Y-98726047D01*
X139147463Y-98755313D01*
X139131117Y-98769362D01*
X139116520Y-98771419D01*
X139102116Y-98768950D01*
X139068289Y-98763601D01*
X139022223Y-98756569D01*
X138969569Y-98748724D01*
X138793526Y-98719299D01*
X138503380Y-98654627D01*
X138225560Y-98571752D01*
X138091964Y-98526495D01*
X137969772Y-98567086D01*
X137921487Y-98582612D01*
X137715605Y-98638256D01*
X137493422Y-98682046D01*
X137253259Y-98714328D01*
X137203122Y-98719879D01*
X137159870Y-98723740D01*
X137129957Y-98722536D01*
X137108353Y-98714098D01*
X137090026Y-98696254D01*
X137069947Y-98666835D01*
X137043084Y-98623671D01*
X136999701Y-98554709D01*
X137182054Y-98547979D01*
X137254481Y-98544592D01*
X137499118Y-98521773D01*
X137731013Y-98481746D01*
X137737928Y-98480258D01*
X137802066Y-98466360D01*
X137845284Y-98455438D01*
X137868549Y-98445364D01*
X137872830Y-98434013D01*
X137859098Y-98419256D01*
X137828320Y-98398969D01*
X137781466Y-98371023D01*
X137708023Y-98324462D01*
X137630824Y-98270166D01*
X137557826Y-98213814D01*
X137494342Y-98159513D01*
X137445686Y-98111373D01*
X137426580Y-98089143D01*
X137411893Y-98065264D01*
X137636918Y-98065264D01*
X137675874Y-98105771D01*
X137683472Y-98113325D01*
X137726034Y-98149320D01*
X137782880Y-98190594D01*
X137848968Y-98233812D01*
X137919255Y-98275637D01*
X137988699Y-98312734D01*
X138009369Y-98322874D01*
X138049498Y-98341485D01*
X138080361Y-98354359D01*
X138096551Y-98359167D01*
X138114986Y-98353811D01*
X138148601Y-98337380D01*
X138192190Y-98312477D01*
X138241514Y-98281748D01*
X138292337Y-98247843D01*
X138340421Y-98213408D01*
X138381527Y-98181093D01*
X138408220Y-98158953D01*
X138438522Y-98133785D01*
X138460899Y-98113550D01*
X138473881Y-98097715D01*
X138476003Y-98085744D01*
X138465795Y-98077104D01*
X138441790Y-98071259D01*
X138402519Y-98067676D01*
X138346516Y-98065819D01*
X138272313Y-98065154D01*
X138178441Y-98065148D01*
X138063432Y-98065264D01*
X137636918Y-98065264D01*
X137411893Y-98065264D01*
X137411635Y-98064844D01*
X137405290Y-98037522D01*
X137403970Y-97997408D01*
X137403970Y-97929617D01*
X137912648Y-97929617D01*
X137953173Y-97929606D01*
X138071965Y-97929400D01*
X138170246Y-97928862D01*
X138249622Y-97927903D01*
X138311699Y-97926432D01*
X138358085Y-97924361D01*
X138390384Y-97921600D01*
X138410204Y-97918059D01*
X138419150Y-97913650D01*
X138418830Y-97908282D01*
X138410848Y-97901867D01*
X138405633Y-97897457D01*
X138388141Y-97878657D01*
X138365916Y-97851890D01*
X138331463Y-97808388D01*
X138408648Y-97774297D01*
X138485832Y-97740205D01*
X138542979Y-97815129D01*
X138567039Y-97845035D01*
X138621112Y-97905752D01*
X138686419Y-97973232D01*
X138758529Y-98043226D01*
X138804921Y-98085744D01*
X138833008Y-98111486D01*
X138905427Y-98173763D01*
G37*
G36*
X153195603Y-101332109D02*
G01*
X153194788Y-101338093D01*
X153188067Y-101339645D01*
X153186715Y-101337988D01*
X153188067Y-101324573D01*
X153191467Y-101322804D01*
X153195603Y-101332109D01*
G37*
G36*
X139800410Y-98833933D02*
G01*
X140942110Y-98833933D01*
X140942110Y-98969581D01*
X139800410Y-98969581D01*
X139800410Y-99253919D01*
X139868436Y-99321945D01*
X140055378Y-99318149D01*
X140116048Y-99316985D01*
X140167850Y-99316408D01*
X140202847Y-99316964D01*
X140224146Y-99318975D01*
X140234857Y-99322763D01*
X140238089Y-99328651D01*
X140236951Y-99336960D01*
X140235164Y-99345308D01*
X140229630Y-99376102D01*
X140223836Y-99413261D01*
X140216089Y-99466955D01*
X140015192Y-99466955D01*
X140003268Y-99466954D01*
X139934092Y-99466790D01*
X139882884Y-99466004D01*
X139845598Y-99464115D01*
X139818188Y-99460638D01*
X139796608Y-99455091D01*
X139776814Y-99446990D01*
X139754758Y-99435853D01*
X139723507Y-99417950D01*
X139695317Y-99395731D01*
X139674893Y-99368754D01*
X139660889Y-99333454D01*
X139651963Y-99286267D01*
X139646770Y-99223626D01*
X139643966Y-99141966D01*
X139640125Y-98969581D01*
X139280428Y-98969581D01*
X139280428Y-98833933D01*
X139642154Y-98833933D01*
X139642154Y-98698286D01*
X139800410Y-98698286D01*
X139800410Y-98833933D01*
G37*
G36*
X153768812Y-99650560D02*
G01*
X153847733Y-99652667D01*
X153935198Y-99656125D01*
X154000888Y-99660311D01*
X154045275Y-99665258D01*
X154068834Y-99670997D01*
X154087671Y-99683529D01*
X154099563Y-99709239D01*
X154090803Y-99741505D01*
X154061487Y-99778945D01*
X154040688Y-99798739D01*
X154018591Y-99814016D01*
X154002227Y-99813997D01*
X153986606Y-99800091D01*
X153980758Y-99791178D01*
X153981744Y-99776135D01*
X153998496Y-99754875D01*
X154024733Y-99726946D01*
X153986025Y-99726822D01*
X153946669Y-99724739D01*
X153906071Y-99719877D01*
X153898363Y-99718654D01*
X153874331Y-99717755D01*
X153859654Y-99727843D01*
X153845437Y-99753913D01*
X153841122Y-99762930D01*
X153829798Y-99785726D01*
X153824511Y-99794940D01*
X153822574Y-99795539D01*
X153805789Y-99801382D01*
X153777757Y-99811400D01*
X153775268Y-99812297D01*
X153743252Y-99823282D01*
X153722380Y-99826886D01*
X153703037Y-99823191D01*
X153675604Y-99812280D01*
X153675321Y-99812161D01*
X153640642Y-99789005D01*
X153612679Y-99755760D01*
X153600524Y-99737285D01*
X153580542Y-99720119D01*
X153554116Y-99715642D01*
X153526237Y-99720862D01*
X153493392Y-99739909D01*
X153482501Y-99749457D01*
X153465631Y-99757251D01*
X153450274Y-99749829D01*
X153445363Y-99745450D01*
X153434385Y-99726634D01*
X153441093Y-99705090D01*
X153466431Y-99676527D01*
X153499875Y-99644485D01*
X153768812Y-99650560D01*
G37*
G36*
X152675621Y-101151245D02*
G01*
X152674805Y-101157230D01*
X152668085Y-101158781D01*
X152666732Y-101157125D01*
X152668085Y-101143709D01*
X152671485Y-101141941D01*
X152675621Y-101151245D01*
G37*
G36*
X153188250Y-100730178D02*
G01*
X153204081Y-100731382D01*
X153211508Y-100736577D01*
X153218211Y-100755874D01*
X153216164Y-100767295D01*
X153204081Y-100782183D01*
X153200438Y-100782989D01*
X153177090Y-100784733D01*
X153137280Y-100785870D01*
X153085450Y-100786307D01*
X153026044Y-100785951D01*
X152997121Y-100785569D01*
X152941551Y-100784535D01*
X152903641Y-100782896D01*
X152879892Y-100780088D01*
X152866803Y-100775548D01*
X152860873Y-100768714D01*
X152858602Y-100759022D01*
X152857924Y-100753125D01*
X152859246Y-100745190D01*
X152866589Y-100739700D01*
X152883271Y-100736084D01*
X152912607Y-100733770D01*
X152957914Y-100732187D01*
X153022509Y-100730762D01*
X153048999Y-100730275D01*
X153106324Y-100729610D01*
X153154203Y-100729583D01*
X153188250Y-100730178D01*
G37*
G36*
X142841175Y-101999042D02*
G01*
X142434233Y-101999042D01*
X142434233Y-101558188D01*
X142841175Y-101558188D01*
X142841175Y-101999042D01*
G37*
G36*
X148538372Y-101999042D02*
G01*
X148131429Y-101999042D01*
X148131429Y-100732999D01*
X148538372Y-100732999D01*
X148538372Y-101999042D01*
G37*
G36*
X142739440Y-97861793D02*
G01*
X143700276Y-97861793D01*
X143700276Y-98020048D01*
X143263864Y-98020048D01*
X143249611Y-98020049D01*
X143141291Y-98020113D01*
X143053287Y-98020350D01*
X142983551Y-98020855D01*
X142930032Y-98021723D01*
X142890683Y-98023048D01*
X142863453Y-98024924D01*
X142846294Y-98027446D01*
X142837157Y-98030708D01*
X142833992Y-98034804D01*
X142834751Y-98039830D01*
X142838700Y-98049214D01*
X142857028Y-98084393D01*
X142885242Y-98132610D01*
X142920910Y-98190076D01*
X142961602Y-98253005D01*
X143004886Y-98317608D01*
X143048330Y-98380099D01*
X143089503Y-98436688D01*
X143125698Y-98483295D01*
X143197219Y-98568800D01*
X143278572Y-98659679D01*
X143365191Y-98751158D01*
X143452506Y-98838465D01*
X143535948Y-98916828D01*
X143610951Y-98981473D01*
X143649293Y-99012612D01*
X143690155Y-99045861D01*
X143723026Y-99072678D01*
X143743120Y-99089162D01*
X143771525Y-99112659D01*
X143712261Y-99188072D01*
X143701680Y-99201411D01*
X143675611Y-99233136D01*
X143656123Y-99255207D01*
X143646809Y-99263484D01*
X143635266Y-99258419D01*
X143608785Y-99239078D01*
X143571178Y-99207460D01*
X143524863Y-99165904D01*
X143472258Y-99116745D01*
X143415781Y-99062320D01*
X143357850Y-99004967D01*
X143300884Y-98947022D01*
X143247300Y-98890822D01*
X143199516Y-98838702D01*
X143159951Y-98793001D01*
X143088409Y-98702607D01*
X142984077Y-98555937D01*
X142886183Y-98400969D01*
X142800267Y-98246127D01*
X142745092Y-98138740D01*
X142742178Y-98825455D01*
X142739265Y-99512171D01*
X142570055Y-99512171D01*
X142567142Y-98825455D01*
X142564228Y-98138740D01*
X142488495Y-98282991D01*
X142416776Y-98412266D01*
X142285500Y-98617335D01*
X142141804Y-98805724D01*
X141987039Y-98975568D01*
X141954064Y-99007603D01*
X141907315Y-99050739D01*
X141857766Y-99094482D01*
X141808643Y-99136165D01*
X141763170Y-99173119D01*
X141724571Y-99202674D01*
X141696071Y-99222164D01*
X141680895Y-99228918D01*
X141677143Y-99226763D01*
X141660904Y-99210994D01*
X141636290Y-99183318D01*
X141606977Y-99147769D01*
X141542739Y-99067273D01*
X141606977Y-99027708D01*
X141727960Y-98946450D01*
X141885903Y-98819189D01*
X142035907Y-98673612D01*
X142175696Y-98511981D01*
X142302990Y-98336559D01*
X142305417Y-98332888D01*
X142338602Y-98281311D01*
X142372620Y-98226244D01*
X142405306Y-98171448D01*
X142434497Y-98120680D01*
X142458027Y-98077699D01*
X142473732Y-98046264D01*
X142479449Y-98030133D01*
X142479333Y-98029888D01*
X142466217Y-98027575D01*
X142432879Y-98025481D01*
X142381481Y-98023657D01*
X142314190Y-98022153D01*
X142233168Y-98021017D01*
X142140582Y-98020299D01*
X142038594Y-98020048D01*
X141597740Y-98020048D01*
X141597740Y-97861793D01*
X142569880Y-97861793D01*
X142569880Y-97319203D01*
X142739440Y-97319203D01*
X142739440Y-97861793D01*
G37*
G36*
X149354613Y-100911036D02*
G01*
X149357909Y-101507320D01*
X149387992Y-101571494D01*
X149416268Y-101619397D01*
X149462927Y-101665792D01*
X149523017Y-101696548D01*
X149598137Y-101712423D01*
X149689889Y-101714171D01*
X149730503Y-101710859D01*
X149809034Y-101694233D01*
X149870785Y-101663708D01*
X149917514Y-101617789D01*
X149950981Y-101554985D01*
X149972946Y-101473800D01*
X149975970Y-101446312D01*
X149978724Y-101396408D01*
X149981026Y-101326004D01*
X149982854Y-101236176D01*
X149984186Y-101128001D01*
X149985002Y-101002556D01*
X149985279Y-100860918D01*
X149985279Y-100314752D01*
X150414829Y-100314752D01*
X150414435Y-100882776D01*
X150414284Y-100986329D01*
X150413810Y-101110543D01*
X150412985Y-101215349D01*
X150411763Y-101302598D01*
X150410098Y-101374144D01*
X150407945Y-101431837D01*
X150405256Y-101477529D01*
X150401986Y-101513072D01*
X150398089Y-101540319D01*
X150397917Y-101541280D01*
X150367642Y-101651873D01*
X150319271Y-101749257D01*
X150253404Y-101832924D01*
X150170644Y-101902368D01*
X150071593Y-101957086D01*
X149956852Y-101996569D01*
X149827023Y-102020314D01*
X149815474Y-102021594D01*
X149648957Y-102029938D01*
X149492746Y-102018203D01*
X149346890Y-101986392D01*
X149294872Y-101969514D01*
X149221187Y-101938105D01*
X149157388Y-101898943D01*
X149095520Y-101847638D01*
X149060963Y-101813127D01*
X149010956Y-101748326D01*
X148973580Y-101674634D01*
X148945067Y-101585482D01*
X148941955Y-101572926D01*
X148937468Y-101552264D01*
X148933735Y-101529883D01*
X148930686Y-101503693D01*
X148928254Y-101471605D01*
X148926370Y-101431531D01*
X148924964Y-101381382D01*
X148923968Y-101319069D01*
X148923313Y-101242503D01*
X148922930Y-101149596D01*
X148922751Y-101038259D01*
X148922706Y-100906402D01*
X148922706Y-100314752D01*
X149351318Y-100314752D01*
X149354613Y-100911036D01*
G37*
G36*
X152961188Y-101232100D02*
G01*
X152963872Y-101241677D01*
X152961555Y-101245097D01*
X152952568Y-101252981D01*
X152950933Y-101252449D01*
X152941264Y-101241677D01*
X152940359Y-101235690D01*
X152952568Y-101230373D01*
X152961188Y-101232100D01*
G37*
G36*
X148549676Y-100540832D02*
G01*
X148120125Y-100540832D01*
X148120125Y-100235625D01*
X148549676Y-100235625D01*
X148549676Y-100540832D01*
G37*
G36*
X138325714Y-100698008D02*
G01*
X138334227Y-100699690D01*
X138399481Y-100719083D01*
X138471858Y-100749645D01*
X138543244Y-100787575D01*
X138605526Y-100829073D01*
X138658710Y-100869682D01*
X138658710Y-100732999D01*
X139065652Y-100732999D01*
X139065652Y-101999042D01*
X138658710Y-101999042D01*
X138658710Y-101086768D01*
X138581506Y-101051183D01*
X138545288Y-101036299D01*
X138470933Y-101017151D01*
X138402130Y-101014428D01*
X138341794Y-101027688D01*
X138292844Y-101056486D01*
X138258195Y-101100378D01*
X138257730Y-101101279D01*
X138251788Y-101113903D01*
X138246936Y-101127896D01*
X138243042Y-101145618D01*
X138239969Y-101169430D01*
X138237584Y-101201690D01*
X138235751Y-101244759D01*
X138234336Y-101300997D01*
X138233205Y-101372763D01*
X138232221Y-101462416D01*
X138231251Y-101572318D01*
X138227691Y-101999042D01*
X137822217Y-101999042D01*
X137822217Y-101085084D01*
X137757219Y-101053195D01*
X137713924Y-101034807D01*
X137666010Y-101023023D01*
X137607441Y-101017878D01*
X137600541Y-101017633D01*
X137534412Y-101020257D01*
X137484908Y-101033828D01*
X137448316Y-101059987D01*
X137420926Y-101100378D01*
X137415541Y-101112087D01*
X137410680Y-101126264D01*
X137406761Y-101144177D01*
X137403652Y-101168184D01*
X137401221Y-101200645D01*
X137399338Y-101243918D01*
X137397871Y-101300363D01*
X137396689Y-101372339D01*
X137395660Y-101462204D01*
X137394653Y-101572318D01*
X137390988Y-101999042D01*
X136983336Y-101999042D01*
X136988789Y-101521450D01*
X136989203Y-101485607D01*
X136990700Y-101367875D01*
X136992343Y-101269767D01*
X136994363Y-101188939D01*
X136996991Y-101123046D01*
X137000460Y-101069744D01*
X137005001Y-101026689D01*
X137010846Y-100991537D01*
X137018227Y-100961944D01*
X137027375Y-100935566D01*
X137038522Y-100910058D01*
X137051900Y-100883077D01*
X137081336Y-100836326D01*
X137139273Y-100777246D01*
X137210965Y-100732412D01*
X137293115Y-100703267D01*
X137382425Y-100691253D01*
X137475596Y-100697812D01*
X137507135Y-100705003D01*
X137576616Y-100729162D01*
X137652666Y-100764361D01*
X137728941Y-100807509D01*
X137799099Y-100855515D01*
X137872064Y-100910985D01*
X137902045Y-100863710D01*
X137922713Y-100834848D01*
X137983435Y-100775994D01*
X138057853Y-100731413D01*
X138142211Y-100702575D01*
X138232751Y-100690950D01*
X138325714Y-100698008D01*
G37*
G36*
X153915813Y-99310471D02*
G01*
X153969486Y-99312269D01*
X154019461Y-99315507D01*
X154061009Y-99319884D01*
X154089405Y-99325097D01*
X154099920Y-99330844D01*
X154097409Y-99333117D01*
X154077980Y-99339127D01*
X154043513Y-99345980D01*
X153999031Y-99352593D01*
X153991061Y-99353694D01*
X153938624Y-99363235D01*
X153873673Y-99377815D01*
X153803703Y-99395654D01*
X153736213Y-99414972D01*
X153668588Y-99434717D01*
X153593277Y-99453414D01*
X153533211Y-99463498D01*
X153485351Y-99465440D01*
X153446654Y-99459710D01*
X153427970Y-99450868D01*
X153427699Y-99437711D01*
X153448193Y-99419979D01*
X153489962Y-99396936D01*
X153535779Y-99376823D01*
X153624496Y-99347365D01*
X153720447Y-99325125D01*
X153814169Y-99312566D01*
X153816275Y-99312407D01*
X153863167Y-99310416D01*
X153915813Y-99310471D01*
G37*
G36*
X152709533Y-101236025D02*
G01*
X152703881Y-101241677D01*
X152698229Y-101236025D01*
X152703881Y-101230373D01*
X152709533Y-101236025D01*
G37*
G36*
X153338787Y-101166317D02*
G01*
X153340555Y-101169717D01*
X153331251Y-101173853D01*
X153325267Y-101173038D01*
X153323715Y-101166317D01*
X153325372Y-101164965D01*
X153338787Y-101166317D01*
G37*
G36*
X152830109Y-101234141D02*
G01*
X152831877Y-101237541D01*
X152822573Y-101241677D01*
X152816588Y-101240861D01*
X152815037Y-101234141D01*
X152816694Y-101232788D01*
X152830109Y-101234141D01*
G37*
G36*
X138670014Y-99500867D02*
G01*
X138670014Y-99398920D01*
X138107642Y-99401852D01*
X137545270Y-99404783D01*
X137538318Y-99500867D01*
X137381362Y-99500867D01*
X137381362Y-99263484D01*
X137539013Y-99263484D01*
X138670014Y-99263484D01*
X138670014Y-98924154D01*
X138107642Y-98927086D01*
X137545270Y-98930017D01*
X137542141Y-99096751D01*
X137539013Y-99263484D01*
X137381362Y-99263484D01*
X137381362Y-98788718D01*
X138828269Y-98788718D01*
X138828269Y-99500867D01*
X138670014Y-99500867D01*
G37*
G36*
X140614295Y-98743502D02*
G01*
X140614295Y-98562638D01*
X140207352Y-98562638D01*
X140207352Y-98709590D01*
X140050176Y-98709590D01*
X140046810Y-98638940D01*
X140043445Y-98568290D01*
X139837148Y-98565209D01*
X139630850Y-98562128D01*
X139630850Y-98698286D01*
X139472595Y-98698286D01*
X139472595Y-98438295D01*
X139630850Y-98438295D01*
X140614295Y-98438295D01*
X140614295Y-98280039D01*
X140207352Y-98280039D01*
X140207352Y-98438295D01*
X140050130Y-98438295D01*
X140046787Y-98361993D01*
X140043445Y-98285691D01*
X139837148Y-98282610D01*
X139630850Y-98279529D01*
X139630850Y-98438295D01*
X139472595Y-98438295D01*
X139472595Y-98155696D01*
X139630850Y-98155696D01*
X140614295Y-98155696D01*
X140614295Y-97997440D01*
X140207352Y-97997440D01*
X140207352Y-98155696D01*
X140049097Y-98155696D01*
X140049097Y-97997440D01*
X139630850Y-97997440D01*
X139630850Y-98155696D01*
X139472595Y-98155696D01*
X139472595Y-97861793D01*
X140049097Y-97861793D01*
X140049097Y-97714841D01*
X139336947Y-97714841D01*
X139336947Y-97579194D01*
X140049097Y-97579194D01*
X140049097Y-97319203D01*
X140207352Y-97319203D01*
X140207352Y-97579194D01*
X140885590Y-97579194D01*
X140885590Y-97714841D01*
X140207352Y-97714841D01*
X140207352Y-97861793D01*
X140772550Y-97861793D01*
X140772550Y-98743502D01*
X140614295Y-98743502D01*
G37*
G36*
X153955946Y-101871594D02*
G01*
X153954879Y-101890031D01*
X153952025Y-101899948D01*
X153947780Y-101906781D01*
X153943803Y-101892840D01*
X153943363Y-101890776D01*
X153937805Y-101878583D01*
X153928355Y-101887188D01*
X153927669Y-101888168D01*
X153920035Y-101897214D01*
X153921635Y-101886991D01*
X153925516Y-101879485D01*
X153943731Y-101868410D01*
X153955946Y-101871594D01*
G37*
G36*
X141258621Y-97940921D02*
G01*
X141484700Y-97940921D01*
X141484700Y-98099176D01*
X141258621Y-98099176D01*
X141258621Y-99500867D01*
X141100365Y-99500867D01*
X141100365Y-98099176D01*
X140885590Y-98099176D01*
X140885590Y-97940921D01*
X141100365Y-97940921D01*
X141100365Y-97319203D01*
X141258621Y-97319203D01*
X141258621Y-97940921D01*
G37*
G36*
X138184896Y-97321827D02*
G01*
X138219029Y-97341979D01*
X138249629Y-97362007D01*
X138263657Y-97378520D01*
X138262408Y-97396684D01*
X138247183Y-97421663D01*
X138219278Y-97458622D01*
X138205763Y-97476071D01*
X138184422Y-97502648D01*
X138167677Y-97524285D01*
X138157165Y-97541483D01*
X138154522Y-97554743D01*
X138161385Y-97564566D01*
X138179392Y-97571454D01*
X138210178Y-97575907D01*
X138255381Y-97578426D01*
X138316638Y-97579514D01*
X138395585Y-97579670D01*
X138493858Y-97579396D01*
X138613096Y-97579194D01*
X139088260Y-97579194D01*
X139088260Y-97997440D01*
X138930005Y-97997440D01*
X138930005Y-97726145D01*
X137268323Y-97726145D01*
X137268323Y-97997440D01*
X137110067Y-97997440D01*
X137110067Y-97579194D01*
X138053544Y-97579194D01*
X138008530Y-97549191D01*
X137993853Y-97539373D01*
X137970328Y-97523451D01*
X137959094Y-97515567D01*
X137962562Y-97506609D01*
X137977551Y-97484021D01*
X138001209Y-97451934D01*
X138030475Y-97414370D01*
X138062285Y-97375354D01*
X138093576Y-97338910D01*
X138134982Y-97292251D01*
X138184896Y-97321827D01*
G37*
G36*
X145712381Y-97771361D02*
G01*
X146006284Y-97771361D01*
X146006284Y-97918313D01*
X145712381Y-97918313D01*
X145712381Y-98401295D01*
X145856507Y-98442993D01*
X145866822Y-98445979D01*
X145920663Y-98461627D01*
X145966506Y-98475048D01*
X145999778Y-98484899D01*
X146015901Y-98489835D01*
X146020357Y-98492517D01*
X146025739Y-98505508D01*
X146026539Y-98532188D01*
X146023112Y-98576851D01*
X146022634Y-98581640D01*
X146018049Y-98621455D01*
X146013617Y-98650887D01*
X146010237Y-98663864D01*
X146007089Y-98663833D01*
X145986953Y-98659178D01*
X145952336Y-98649528D01*
X145907937Y-98636325D01*
X145858456Y-98621011D01*
X145808592Y-98605027D01*
X145763044Y-98589815D01*
X145726511Y-98576817D01*
X145725651Y-98576647D01*
X145721640Y-98581482D01*
X145718471Y-98597363D01*
X145716060Y-98626216D01*
X145714328Y-98669967D01*
X145713192Y-98730544D01*
X145712570Y-98809874D01*
X145712381Y-98909881D01*
X145712381Y-99248239D01*
X145739972Y-99274159D01*
X145741623Y-99275699D01*
X145755619Y-99286904D01*
X145771522Y-99293710D01*
X145794499Y-99296891D01*
X145829714Y-99297220D01*
X145882333Y-99295469D01*
X145997104Y-99290859D01*
X145989279Y-99363921D01*
X145984921Y-99400043D01*
X145979845Y-99433439D01*
X145975704Y-99451969D01*
X145974920Y-99453467D01*
X145963872Y-99459839D01*
X145939029Y-99464002D01*
X145897464Y-99466269D01*
X145836251Y-99466955D01*
X145820691Y-99466917D01*
X145753668Y-99465301D01*
X145703809Y-99460594D01*
X145666632Y-99451820D01*
X145637656Y-99438001D01*
X145612398Y-99418160D01*
X145599982Y-99406430D01*
X145586170Y-99391755D01*
X145575042Y-99375870D01*
X145566267Y-99356398D01*
X145559513Y-99330962D01*
X145554446Y-99297184D01*
X145550736Y-99252686D01*
X145548051Y-99195092D01*
X145546058Y-99122025D01*
X145544426Y-99031106D01*
X145542822Y-98919958D01*
X145537170Y-98514261D01*
X145415652Y-98475918D01*
X145294135Y-98437575D01*
X145294135Y-98270567D01*
X145386588Y-98298959D01*
X145399829Y-98303045D01*
X145445067Y-98317284D01*
X145482823Y-98329569D01*
X145506016Y-98337608D01*
X145524789Y-98344291D01*
X145537906Y-98347863D01*
X145538009Y-98347816D01*
X145539530Y-98335750D01*
X145540851Y-98304772D01*
X145541893Y-98258354D01*
X145542576Y-98199969D01*
X145542822Y-98133088D01*
X145542822Y-97918313D01*
X145282831Y-97918313D01*
X145282831Y-97771361D01*
X145542822Y-97771361D01*
X145542822Y-97330507D01*
X145712381Y-97330507D01*
X145712381Y-97771361D01*
G37*
G36*
X153952969Y-101840787D02*
G01*
X153952153Y-101846771D01*
X153945433Y-101848323D01*
X153944080Y-101846666D01*
X153945433Y-101833251D01*
X153948833Y-101831483D01*
X153952969Y-101840787D01*
G37*
G36*
X152788661Y-101269937D02*
G01*
X152783009Y-101275589D01*
X152777357Y-101269937D01*
X152783009Y-101264285D01*
X152788661Y-101269937D01*
G37*
G36*
X152612344Y-99673946D02*
G01*
X152633856Y-99700336D01*
X152640437Y-99726465D01*
X152626351Y-99748228D01*
X152622615Y-99750934D01*
X152605880Y-99752798D01*
X152582179Y-99738308D01*
X152565603Y-99727051D01*
X152527554Y-99715080D01*
X152494158Y-99724047D01*
X152468162Y-99753585D01*
X152466859Y-99755915D01*
X152442071Y-99786861D01*
X152411897Y-99809762D01*
X152390748Y-99818078D01*
X152342327Y-99822729D01*
X152295251Y-99811036D01*
X152255862Y-99785182D01*
X152230506Y-99747349D01*
X152217811Y-99713635D01*
X152144335Y-99721405D01*
X152107894Y-99725768D01*
X152079004Y-99730257D01*
X152066219Y-99733644D01*
X152067774Y-99741629D01*
X152080349Y-99758853D01*
X152092628Y-99774890D01*
X152097494Y-99796530D01*
X152081344Y-99810476D01*
X152060762Y-99812119D01*
X152029806Y-99796568D01*
X151998170Y-99761962D01*
X151992581Y-99753816D01*
X151977110Y-99721269D01*
X151980572Y-99696387D01*
X152003214Y-99674922D01*
X152014358Y-99669332D01*
X152032249Y-99664389D01*
X152058792Y-99660463D01*
X152096780Y-99657330D01*
X152149003Y-99654764D01*
X152218251Y-99652540D01*
X152307316Y-99650435D01*
X152582979Y-99644580D01*
X152612344Y-99673946D01*
G37*
G36*
X145040077Y-98395200D02*
G01*
X145018355Y-98460088D01*
X144990135Y-98534641D01*
X144958615Y-98611016D01*
X144926994Y-98681367D01*
X144898471Y-98737850D01*
X144874965Y-98778249D01*
X144828764Y-98850574D01*
X144774708Y-98928726D01*
X144717276Y-99006074D01*
X144693496Y-99036915D01*
X144787518Y-99097999D01*
X144821799Y-99119578D01*
X144920007Y-99175908D01*
X145028544Y-99231754D01*
X145139075Y-99282956D01*
X145243267Y-99325358D01*
X145280174Y-99339217D01*
X145320343Y-99354587D01*
X145348346Y-99365652D01*
X145359663Y-99370652D01*
X145359586Y-99371850D01*
X145351497Y-99386056D01*
X145333567Y-99412461D01*
X145308795Y-99446589D01*
X145254571Y-99519361D01*
X145166537Y-99482100D01*
X145098803Y-99452125D01*
X144962927Y-99385285D01*
X144828000Y-99310883D01*
X144704685Y-99234632D01*
X144692030Y-99226289D01*
X144646502Y-99196540D01*
X144609011Y-99172457D01*
X144583150Y-99156329D01*
X144572513Y-99150444D01*
X144570900Y-99151095D01*
X144555490Y-99160904D01*
X144527972Y-99180043D01*
X144492936Y-99205347D01*
X144469167Y-99222543D01*
X144333685Y-99311835D01*
X144187015Y-99393802D01*
X144023455Y-99471678D01*
X143963269Y-99498295D01*
X143895535Y-99417130D01*
X143827801Y-99335964D01*
X143936424Y-99298870D01*
X143954711Y-99292480D01*
X144017798Y-99268864D01*
X144082166Y-99242866D01*
X144136384Y-99219047D01*
X144167389Y-99203795D01*
X144217987Y-99176727D01*
X144271447Y-99146163D01*
X144323189Y-99114894D01*
X144368632Y-99085714D01*
X144403195Y-99061412D01*
X144422297Y-99044783D01*
X144424487Y-99035643D01*
X144416633Y-99017201D01*
X144395708Y-98988280D01*
X144360085Y-98946302D01*
X144342133Y-98925530D01*
X144274576Y-98840137D01*
X144210467Y-98748256D01*
X144151519Y-98653172D01*
X144099446Y-98558171D01*
X144055962Y-98466538D01*
X144022781Y-98381559D01*
X144006900Y-98325255D01*
X144184823Y-98325255D01*
X144192341Y-98350689D01*
X144195763Y-98361577D01*
X144216623Y-98416013D01*
X144245935Y-98480989D01*
X144280409Y-98549854D01*
X144316752Y-98615957D01*
X144351673Y-98672646D01*
X144364632Y-98691579D01*
X144405955Y-98747464D01*
X144450917Y-98803343D01*
X144491853Y-98849544D01*
X144566218Y-98927528D01*
X144623057Y-98855297D01*
X144625957Y-98851604D01*
X144711253Y-98734376D01*
X144779975Y-98620089D01*
X144835758Y-98501983D01*
X144882237Y-98373297D01*
X144897415Y-98325255D01*
X144184823Y-98325255D01*
X144006900Y-98325255D01*
X144001615Y-98306520D01*
X143994179Y-98244707D01*
X143994179Y-98178304D01*
X144468946Y-98178304D01*
X144468946Y-97839185D01*
X143869836Y-97839185D01*
X143869836Y-97680929D01*
X144468946Y-97680929D01*
X144468946Y-97319203D01*
X144638505Y-97319203D01*
X144638505Y-97680929D01*
X145215007Y-97680929D01*
X145215007Y-97839185D01*
X144638505Y-97839185D01*
X144638505Y-98178304D01*
X145215007Y-98178304D01*
X145215007Y-98325255D01*
X145059690Y-98325255D01*
X145044805Y-98378949D01*
X145040077Y-98395200D01*
G37*
G36*
X153342555Y-101236025D02*
G01*
X153336903Y-101241677D01*
X153331251Y-101236025D01*
X153336903Y-101230373D01*
X153342555Y-101236025D01*
G37*
G36*
X139810606Y-97333408D02*
G01*
X139827450Y-97350755D01*
X139846811Y-97378548D01*
X139876001Y-97426590D01*
X139750599Y-97489999D01*
X139747728Y-97491450D01*
X139698927Y-97515700D01*
X139657158Y-97535737D01*
X139626778Y-97549518D01*
X139612143Y-97554997D01*
X139605948Y-97552825D01*
X139590338Y-97536789D01*
X139572724Y-97510985D01*
X139557097Y-97482303D01*
X139547445Y-97457629D01*
X139547761Y-97443852D01*
X139559947Y-97436453D01*
X139588592Y-97422121D01*
X139627984Y-97403694D01*
X139672928Y-97383469D01*
X139718227Y-97363742D01*
X139758685Y-97346808D01*
X139789105Y-97334965D01*
X139804292Y-97330507D01*
X139810606Y-97333408D01*
G37*
G36*
X140738197Y-101506858D02*
G01*
X140708794Y-101625558D01*
X140661639Y-101731258D01*
X140597474Y-101823077D01*
X140517044Y-101900132D01*
X140421091Y-101961543D01*
X140310361Y-102006428D01*
X140185597Y-102033906D01*
X140184094Y-102034114D01*
X140124141Y-102038538D01*
X140050828Y-102038416D01*
X139972587Y-102034196D01*
X139897851Y-102026327D01*
X139835052Y-102015257D01*
X139746079Y-101987845D01*
X139644635Y-101936647D01*
X139556873Y-101868058D01*
X139483874Y-101783150D01*
X139426713Y-101682998D01*
X139386471Y-101568675D01*
X139379804Y-101537159D01*
X139371319Y-101466282D01*
X139367975Y-101390320D01*
X139784293Y-101390320D01*
X139785347Y-101455828D01*
X139788583Y-101505240D01*
X139794449Y-101543488D01*
X139803393Y-101575502D01*
X139808680Y-101589579D01*
X139843098Y-101653329D01*
X139888674Y-101705353D01*
X139940910Y-101740263D01*
X139962054Y-101748659D01*
X140030228Y-101762144D01*
X140100031Y-101758455D01*
X140166247Y-101738914D01*
X140223661Y-101704845D01*
X140267058Y-101657569D01*
X140280602Y-101635544D01*
X140299624Y-101597083D01*
X140312679Y-101555834D01*
X140320765Y-101506862D01*
X140324879Y-101445236D01*
X140326019Y-101366021D01*
X140325669Y-101326130D01*
X140321752Y-101246099D01*
X140312599Y-101182336D01*
X140297105Y-101130601D01*
X140274164Y-101086650D01*
X140242671Y-101046243D01*
X140217747Y-101021182D01*
X140173821Y-100991029D01*
X140122867Y-100975126D01*
X140057938Y-100970630D01*
X140014594Y-100973032D01*
X139946534Y-100989653D01*
X139891261Y-101023379D01*
X139846651Y-101075734D01*
X139810582Y-101148243D01*
X139809060Y-101152172D01*
X139798697Y-101182669D01*
X139791704Y-101213815D01*
X139787421Y-101251098D01*
X139785186Y-101300005D01*
X139784338Y-101366021D01*
X139784293Y-101390320D01*
X139367975Y-101390320D01*
X139367765Y-101385550D01*
X139369140Y-101302877D01*
X139375439Y-101226178D01*
X139386660Y-101163366D01*
X139416353Y-101072743D01*
X139469723Y-100969244D01*
X139539542Y-100881001D01*
X139625111Y-100808705D01*
X139725732Y-100753047D01*
X139840704Y-100714718D01*
X139875370Y-100707836D01*
X139950881Y-100699173D01*
X140035803Y-100695486D01*
X140122271Y-100696782D01*
X140202421Y-100703068D01*
X140268389Y-100714350D01*
X140320793Y-100729211D01*
X140430234Y-100775557D01*
X140524760Y-100838362D01*
X140603673Y-100916677D01*
X140666269Y-101009550D01*
X140711849Y-101116032D01*
X140739711Y-101235172D01*
X140749154Y-101366021D01*
X140749102Y-101376039D01*
X140738197Y-101506858D01*
G37*
G36*
X153229515Y-101236025D02*
G01*
X153223863Y-101241677D01*
X153218211Y-101236025D01*
X153223863Y-101230373D01*
X153229515Y-101236025D01*
G37*
G36*
X152133031Y-101869047D02*
G01*
X152127379Y-101874699D01*
X152121727Y-101869047D01*
X152127379Y-101863395D01*
X152133031Y-101869047D01*
G37*
G36*
X152869908Y-101233955D02*
G01*
X152875140Y-101238024D01*
X152863079Y-101240785D01*
X152851613Y-101239985D01*
X152848242Y-101234848D01*
X152852241Y-101232608D01*
X152869908Y-101233955D01*
G37*
G36*
X152793417Y-101231261D02*
G01*
X152794313Y-101241677D01*
X152791993Y-101245060D01*
X152782342Y-101252981D01*
X152781214Y-101252687D01*
X152777357Y-101241677D01*
X152777817Y-101238579D01*
X152789328Y-101230373D01*
X152793417Y-101231261D01*
G37*
G36*
X153444291Y-101168201D02*
G01*
X153438639Y-101173853D01*
X153432987Y-101168201D01*
X153438639Y-101162549D01*
X153444291Y-101168201D01*
G37*
G36*
X153998185Y-101959479D02*
G01*
X153992533Y-101965131D01*
X153986881Y-101959479D01*
X153992533Y-101953827D01*
X153998185Y-101959479D01*
G37*
G36*
X152144335Y-101818179D02*
G01*
X152143519Y-101824163D01*
X152136799Y-101825715D01*
X152135446Y-101824058D01*
X152136799Y-101810643D01*
X152140199Y-101808875D01*
X152144335Y-101818179D01*
G37*
G36*
X140586453Y-99007743D02*
G01*
X140606667Y-99024977D01*
X140631923Y-99050941D01*
X140674789Y-99098389D01*
X140642923Y-99121591D01*
X140624230Y-99135357D01*
X140590591Y-99160340D01*
X140548337Y-99191854D01*
X140502463Y-99226177D01*
X140502082Y-99226462D01*
X140459560Y-99258008D01*
X140423836Y-99283916D01*
X140398650Y-99301514D01*
X140387743Y-99308130D01*
X140378659Y-99302115D01*
X140358143Y-99283749D01*
X140331224Y-99257258D01*
X140280828Y-99205816D01*
X140309088Y-99183986D01*
X140330179Y-99168158D01*
X140368292Y-99140779D01*
X140412257Y-99110155D01*
X140458023Y-99079005D01*
X140501540Y-99050045D01*
X140538758Y-99025995D01*
X140565625Y-99009571D01*
X140578090Y-99003493D01*
X140586453Y-99007743D01*
G37*
G36*
X152915124Y-101233955D02*
G01*
X152920356Y-101238024D01*
X152908294Y-101240785D01*
X152896829Y-101239985D01*
X152893458Y-101234848D01*
X152897457Y-101232608D01*
X152915124Y-101233955D01*
G37*
G36*
X152675621Y-101179505D02*
G01*
X152669969Y-101185157D01*
X152664317Y-101179505D01*
X152669969Y-101173853D01*
X152675621Y-101179505D01*
G37*
G36*
X152766053Y-101236025D02*
G01*
X152760401Y-101241677D01*
X152754749Y-101236025D01*
X152760401Y-101230373D01*
X152766053Y-101236025D01*
G37*
G36*
X146141932Y-100619959D02*
G01*
X145870637Y-100619959D01*
X145870637Y-101693836D01*
X146141932Y-101693836D01*
X146141932Y-101999042D01*
X145169791Y-101999042D01*
X145169791Y-101693836D01*
X145441086Y-101693836D01*
X145441086Y-100619959D01*
X145169791Y-100619959D01*
X145169791Y-100314752D01*
X146141932Y-100314752D01*
X146141932Y-100619959D01*
G37*
G36*
X144896232Y-101214965D02*
G01*
X144890182Y-101306403D01*
X144879726Y-101389088D01*
X144865084Y-101456268D01*
X144862031Y-101466506D01*
X144812857Y-101590881D01*
X144745923Y-101702250D01*
X144662738Y-101799342D01*
X144564810Y-101880884D01*
X144453647Y-101945603D01*
X144330758Y-101992226D01*
X144197651Y-102019481D01*
X144119333Y-102027718D01*
X144048114Y-102030896D01*
X143977933Y-102028470D01*
X143898096Y-102020475D01*
X143829872Y-102009988D01*
X143695058Y-101974714D01*
X143574460Y-101922106D01*
X143468540Y-101852565D01*
X143377757Y-101766493D01*
X143302573Y-101664291D01*
X143243447Y-101546360D01*
X143200840Y-101413100D01*
X143197020Y-101396292D01*
X143182856Y-101303455D01*
X143176224Y-101199098D01*
X143176300Y-101189904D01*
X143621939Y-101189904D01*
X143624542Y-101264426D01*
X143631719Y-101327666D01*
X143633474Y-101337349D01*
X143660730Y-101434213D01*
X143702758Y-101521050D01*
X143757437Y-101594939D01*
X143822646Y-101652956D01*
X143896265Y-101692180D01*
X143949581Y-101707456D01*
X144035050Y-101716014D01*
X144121082Y-101707753D01*
X144201710Y-101683444D01*
X144270967Y-101643856D01*
X144304132Y-101615152D01*
X144361991Y-101543575D01*
X144406546Y-101455710D01*
X144437191Y-101353308D01*
X144453324Y-101238122D01*
X144454341Y-101111903D01*
X144452648Y-101084795D01*
X144436101Y-100961639D01*
X144406013Y-100856206D01*
X144362493Y-100768638D01*
X144305656Y-100699081D01*
X144235611Y-100647678D01*
X144152472Y-100614575D01*
X144056351Y-100599913D01*
X144027596Y-100598750D01*
X143980798Y-100599826D01*
X143941290Y-100606603D01*
X143899013Y-100620390D01*
X143897563Y-100620940D01*
X143818972Y-100662231D01*
X143752510Y-100721751D01*
X143697662Y-100800083D01*
X143653914Y-100897810D01*
X143650616Y-100907865D01*
X143638249Y-100963082D01*
X143629126Y-101032789D01*
X143623578Y-101110544D01*
X143621939Y-101189904D01*
X143176300Y-101189904D01*
X143177115Y-101091350D01*
X143185521Y-100988343D01*
X143201431Y-100898208D01*
X143206838Y-100876971D01*
X143251780Y-100747838D01*
X143313589Y-100632797D01*
X143391432Y-100532769D01*
X143484478Y-100448677D01*
X143591893Y-100381441D01*
X143712845Y-100331985D01*
X143784129Y-100312617D01*
X143914001Y-100291313D01*
X144047700Y-100285340D01*
X144180807Y-100294296D01*
X144308902Y-100317778D01*
X144427567Y-100355382D01*
X144532382Y-100406707D01*
X144544465Y-100414164D01*
X144640570Y-100488035D01*
X144723741Y-100579125D01*
X144792620Y-100685381D01*
X144845847Y-100804748D01*
X144882063Y-100935172D01*
X144885746Y-100955653D01*
X144894234Y-101032838D01*
X144897285Y-101111903D01*
X144897656Y-101121525D01*
X144896232Y-101214965D01*
G37*
G36*
X152450589Y-100433449D02*
G01*
X152472837Y-100439703D01*
X152481711Y-100461704D01*
X152486422Y-100482070D01*
X152496036Y-100502661D01*
X152504261Y-100509170D01*
X152536282Y-100521173D01*
X152586713Y-100531681D01*
X152652780Y-100540580D01*
X152731707Y-100547756D01*
X152820718Y-100553096D01*
X152917040Y-100556485D01*
X153017897Y-100557810D01*
X153120514Y-100556958D01*
X153222116Y-100553813D01*
X153319928Y-100548263D01*
X153411175Y-100540193D01*
X153470002Y-100532884D01*
X153520843Y-100523306D01*
X153554864Y-100511586D01*
X153575191Y-100496589D01*
X153584951Y-100477182D01*
X153585020Y-100476907D01*
X153596040Y-100455855D01*
X153617076Y-100452492D01*
X153627350Y-100454944D01*
X153639104Y-100467042D01*
X153642110Y-100494396D01*
X153641835Y-100502497D01*
X153635896Y-100527583D01*
X153620543Y-100547998D01*
X153593577Y-100564528D01*
X153552798Y-100577958D01*
X153496008Y-100589074D01*
X153421008Y-100598663D01*
X153325599Y-100607509D01*
X153294154Y-100609857D01*
X153186542Y-100615069D01*
X153069721Y-100617103D01*
X152948973Y-100616110D01*
X152829583Y-100612241D01*
X152716835Y-100605646D01*
X152616013Y-100596477D01*
X152532400Y-100584883D01*
X152482478Y-100572139D01*
X152442800Y-100549527D01*
X152421787Y-100517180D01*
X152417906Y-100473610D01*
X152421044Y-100451230D01*
X152430117Y-100436801D01*
X152449542Y-100433444D01*
X152450589Y-100433449D01*
G37*
G36*
X150279182Y-99003493D02*
G01*
X150279182Y-98845237D01*
X149649536Y-98845237D01*
X149642712Y-99023275D01*
X149641300Y-99055234D01*
X149637444Y-99118274D01*
X149632677Y-99174030D01*
X149627473Y-99217395D01*
X149622305Y-99243264D01*
X149601299Y-99290257D01*
X149556543Y-99344594D01*
X149494787Y-99384883D01*
X149417060Y-99410288D01*
X149408761Y-99411455D01*
X149376154Y-99413665D01*
X149325615Y-99415497D01*
X149260311Y-99416891D01*
X149183410Y-99417790D01*
X149098079Y-99418134D01*
X149007486Y-99417866D01*
X148977806Y-99417671D01*
X148875738Y-99416815D01*
X148792989Y-99415470D01*
X148726944Y-99413191D01*
X148674986Y-99409534D01*
X148634499Y-99404055D01*
X148602867Y-99396308D01*
X148577475Y-99385850D01*
X148555706Y-99372235D01*
X148534944Y-99355019D01*
X148512573Y-99333758D01*
X148489117Y-99306376D01*
X148465417Y-99265123D01*
X148444864Y-99211073D01*
X148426252Y-99140958D01*
X148408375Y-99051508D01*
X148405178Y-99033694D01*
X148396791Y-98987659D01*
X148389830Y-98950379D01*
X148385548Y-98928607D01*
X148384932Y-98925164D01*
X148386613Y-98912963D01*
X148398079Y-98902171D01*
X148423276Y-98890120D01*
X148466152Y-98874145D01*
X148478394Y-98869848D01*
X148516470Y-98857173D01*
X148543846Y-98849128D01*
X148555262Y-98847295D01*
X148557875Y-98858109D01*
X148562950Y-98887045D01*
X148569665Y-98929491D01*
X148577268Y-98980885D01*
X148589689Y-99054633D01*
X148606857Y-99123124D01*
X148627777Y-99173852D01*
X148653561Y-99209408D01*
X148685323Y-99232381D01*
X148685456Y-99232447D01*
X148699364Y-99238282D01*
X148716746Y-99242852D01*
X148740335Y-99246305D01*
X148772864Y-99248788D01*
X148817067Y-99250451D01*
X148875677Y-99251441D01*
X148951427Y-99251906D01*
X149047050Y-99251996D01*
X149106757Y-99251937D01*
X149195491Y-99251513D01*
X149265572Y-99250315D01*
X149319522Y-99247912D01*
X149359862Y-99243877D01*
X149389113Y-99237780D01*
X149409798Y-99229193D01*
X149424438Y-99217686D01*
X149435554Y-99202831D01*
X149445668Y-99184199D01*
X149453479Y-99165649D01*
X149459251Y-99141239D01*
X149462416Y-99108242D01*
X149463399Y-99061995D01*
X149462624Y-98997841D01*
X149459644Y-98850889D01*
X149049876Y-98847922D01*
X148640107Y-98844955D01*
X148640107Y-98686982D01*
X148820971Y-98686982D01*
X150279182Y-98686982D01*
X150279182Y-98313951D01*
X149646160Y-98313951D01*
X149646160Y-98686982D01*
X149465296Y-98686982D01*
X149465296Y-98313951D01*
X148820971Y-98313951D01*
X148820971Y-98686982D01*
X148640107Y-98686982D01*
X148640107Y-98155696D01*
X148820971Y-98155696D01*
X150279182Y-98155696D01*
X150279182Y-97771361D01*
X149646160Y-97771361D01*
X149646160Y-98155696D01*
X149465843Y-98155696D01*
X149462744Y-97966354D01*
X149459644Y-97777013D01*
X149140307Y-97774011D01*
X148820971Y-97771009D01*
X148820971Y-98155696D01*
X148640107Y-98155696D01*
X148640107Y-97613106D01*
X149465296Y-97613106D01*
X149465296Y-97330507D01*
X149646160Y-97330507D01*
X149646160Y-97613106D01*
X150460045Y-97613106D01*
X150460045Y-99003493D01*
X150279182Y-99003493D01*
G37*
G36*
X152852717Y-101301965D02*
G01*
X152854485Y-101305365D01*
X152845181Y-101309501D01*
X152839196Y-101308685D01*
X152837645Y-101301965D01*
X152839301Y-101300612D01*
X152852717Y-101301965D01*
G37*
G36*
X153868858Y-101247923D02*
G01*
X153912982Y-101338114D01*
X153958817Y-101443136D01*
X154005336Y-101560654D01*
X154051515Y-101688331D01*
X154096329Y-101823831D01*
X154103837Y-101847590D01*
X154121170Y-101902362D01*
X154135747Y-101948315D01*
X154146219Y-101981202D01*
X154151239Y-101996776D01*
X154148499Y-102005213D01*
X154130447Y-102008762D01*
X154093572Y-102008080D01*
X154030983Y-102004694D01*
X154003395Y-101925567D01*
X154002142Y-101921981D01*
X153987660Y-101881222D01*
X153975467Y-101848098D01*
X153968089Y-101829483D01*
X153962974Y-101814452D01*
X153957248Y-101785786D01*
X153954009Y-101767847D01*
X153948210Y-101753132D01*
X153943949Y-101752454D01*
X153935640Y-101764502D01*
X153928350Y-101786992D01*
X153924280Y-101812198D01*
X153925632Y-101832392D01*
X153928016Y-101847382D01*
X153918958Y-101846378D01*
X153914528Y-101845238D01*
X153909617Y-101854092D01*
X153908059Y-101879371D01*
X153909489Y-101924090D01*
X153913844Y-102010346D01*
X152155639Y-102010346D01*
X152155639Y-101987071D01*
X152157402Y-101973992D01*
X152164117Y-101969030D01*
X152168902Y-101969029D01*
X152174135Y-101954652D01*
X152175409Y-101926497D01*
X152172947Y-101889943D01*
X152166970Y-101850369D01*
X152157698Y-101813155D01*
X152136588Y-101746497D01*
X152123982Y-101782657D01*
X152123523Y-101784002D01*
X152117099Y-101814291D01*
X152118473Y-101837308D01*
X152120724Y-101847047D01*
X152114360Y-101848872D01*
X152112907Y-101848595D01*
X152103266Y-101859381D01*
X152090144Y-101886657D01*
X152075701Y-101926111D01*
X152048251Y-102010276D01*
X152005100Y-102010311D01*
X151981234Y-102009278D01*
X151967690Y-102003588D01*
X151967662Y-101990565D01*
X151968510Y-101987571D01*
X151974873Y-101964488D01*
X151985509Y-101925487D01*
X151999164Y-101875180D01*
X152014581Y-101818179D01*
X152055009Y-101674466D01*
X152096986Y-101539416D01*
X152137822Y-101423703D01*
X152178141Y-101325691D01*
X152218570Y-101243744D01*
X152259731Y-101176228D01*
X152287794Y-101143137D01*
X152317168Y-101117924D01*
X152612279Y-101117924D01*
X152612726Y-101132332D01*
X152613239Y-101135767D01*
X152621691Y-101164019D01*
X152635956Y-101196386D01*
X152638043Y-101200390D01*
X152650671Y-101221981D01*
X152658198Y-101225543D01*
X152664430Y-101213342D01*
X152669356Y-101202168D01*
X152674364Y-101204287D01*
X152680364Y-101226603D01*
X152680596Y-101227619D01*
X152690979Y-101254107D01*
X152704572Y-101268638D01*
X152711424Y-101270165D01*
X152719586Y-101263781D01*
X152722466Y-101242304D01*
X152720956Y-101202113D01*
X152720850Y-101200413D01*
X152721493Y-101179744D01*
X152725706Y-101175092D01*
X152728176Y-101180504D01*
X152732462Y-101203737D01*
X152735263Y-101237263D01*
X152736419Y-101257355D01*
X152740533Y-101281196D01*
X152750216Y-101292034D01*
X152769071Y-101296140D01*
X152789121Y-101301635D01*
X152793945Y-101310096D01*
X152795020Y-101317912D01*
X152810036Y-101332814D01*
X152834808Y-101348504D01*
X152862587Y-101360915D01*
X152886628Y-101365978D01*
X152902093Y-101368556D01*
X152915399Y-101378857D01*
X152918374Y-101380578D01*
X152925683Y-101369143D01*
X152934455Y-101346404D01*
X152942593Y-101318885D01*
X152948003Y-101293106D01*
X152948304Y-101284067D01*
X153026445Y-101284067D01*
X153033238Y-101293384D01*
X153054304Y-101298197D01*
X153064325Y-101297847D01*
X153079008Y-101292383D01*
X153080542Y-101276469D01*
X153070408Y-101245239D01*
X153058252Y-101213417D01*
X153139084Y-101213417D01*
X153140691Y-101221268D01*
X153153214Y-101230546D01*
X153159899Y-101232437D01*
X153150910Y-101241115D01*
X153148367Y-101242828D01*
X153140300Y-101255843D01*
X153146982Y-101276469D01*
X153147374Y-101277680D01*
X153156408Y-101298116D01*
X153167063Y-101328239D01*
X153170908Y-101338832D01*
X153189631Y-101357261D01*
X153221037Y-101357454D01*
X153230455Y-101352771D01*
X153236924Y-101339515D01*
X153240023Y-101313215D01*
X153240819Y-101269108D01*
X153240789Y-101255136D01*
X153239838Y-101217461D01*
X153237482Y-101202113D01*
X153252123Y-101202113D01*
X153255635Y-101220750D01*
X153266253Y-101230546D01*
X153274078Y-101232232D01*
X153265520Y-101240145D01*
X153265241Y-101240326D01*
X153255437Y-101259513D01*
X153255114Y-101269108D01*
X153254216Y-101295779D01*
X153254465Y-101298939D01*
X153258066Y-101325918D01*
X153264782Y-101335075D01*
X153277557Y-101330835D01*
X153289251Y-101319758D01*
X153298650Y-101294809D01*
X153298843Y-101291516D01*
X153300990Y-101279586D01*
X153305059Y-101289342D01*
X153306311Y-101293614D01*
X153314484Y-101302706D01*
X153332007Y-101295101D01*
X153344351Y-101283266D01*
X153351804Y-101260573D01*
X153353859Y-101222002D01*
X153353899Y-101219069D01*
X153367097Y-101219069D01*
X153368118Y-101234295D01*
X153374022Y-101258857D01*
X153384332Y-101261656D01*
X153398677Y-101242420D01*
X153401651Y-101236497D01*
X153410453Y-101205176D01*
X153405579Y-101182554D01*
X153387852Y-101173853D01*
X153374405Y-101176574D01*
X153367690Y-101189640D01*
X153367097Y-101219069D01*
X153353899Y-101219069D01*
X153354224Y-101194914D01*
X153357257Y-101173168D01*
X153365660Y-101164262D01*
X153382119Y-101162549D01*
X153421683Y-101162549D01*
X153421899Y-101182880D01*
X153422897Y-101205176D01*
X153423063Y-101208894D01*
X153424897Y-101219069D01*
X153425291Y-101218921D01*
X153433593Y-101208361D01*
X153447505Y-101186239D01*
X153456191Y-101169854D01*
X153466358Y-101136832D01*
X153462343Y-101114339D01*
X153444291Y-101106030D01*
X153439061Y-101106271D01*
X153427925Y-101111741D01*
X153427039Y-101114706D01*
X153422873Y-101128649D01*
X153422278Y-101145593D01*
X153421683Y-101162549D01*
X153382119Y-101162549D01*
X153400552Y-101159231D01*
X153410379Y-101145593D01*
X153409007Y-101136823D01*
X153395558Y-101129249D01*
X153367835Y-101139116D01*
X153356160Y-101144806D01*
X153327202Y-101156187D01*
X153319604Y-101159484D01*
X153310364Y-101173571D01*
X153310802Y-101202228D01*
X153310982Y-101203836D01*
X153310671Y-101231563D01*
X153302679Y-101241677D01*
X153294914Y-101232986D01*
X153294928Y-101207765D01*
X153296531Y-101192556D01*
X153292422Y-101177439D01*
X153276014Y-101173853D01*
X153275453Y-101173856D01*
X153257222Y-101180162D01*
X153252123Y-101202113D01*
X153237482Y-101202113D01*
X153236602Y-101196377D01*
X153229816Y-101187178D01*
X153218211Y-101185157D01*
X153203920Y-101188681D01*
X153195603Y-101207098D01*
X153193949Y-101220038D01*
X153185354Y-101235374D01*
X153180276Y-101234383D01*
X153181020Y-101219085D01*
X153181044Y-101218994D01*
X153180591Y-101201242D01*
X153163010Y-101196461D01*
X153148629Y-101199641D01*
X153139084Y-101213417D01*
X153058252Y-101213417D01*
X153057290Y-101215149D01*
X153042549Y-101241677D01*
X153031915Y-101264296D01*
X153026445Y-101284067D01*
X152948304Y-101284067D01*
X152948587Y-101275589D01*
X152947843Y-101267968D01*
X152953207Y-101266940D01*
X152953305Y-101267034D01*
X152963735Y-101264095D01*
X152976889Y-101245866D01*
X152981862Y-101236141D01*
X152990612Y-101215149D01*
X152986796Y-101208188D01*
X152969524Y-101211041D01*
X152955951Y-101212783D01*
X152946916Y-101207990D01*
X152944948Y-101205188D01*
X152927486Y-101197947D01*
X152897831Y-101191667D01*
X152888138Y-101190197D01*
X152849410Y-101184067D01*
X152818703Y-101178859D01*
X152814082Y-101178093D01*
X152793842Y-101179338D01*
X152787534Y-101193414D01*
X152787461Y-101194551D01*
X152784531Y-101200840D01*
X152778546Y-101185157D01*
X152769593Y-101167170D01*
X152748587Y-101156897D01*
X152735479Y-101155432D01*
X152719823Y-101147859D01*
X152715199Y-101144285D01*
X152693393Y-101134244D01*
X152661568Y-101123294D01*
X152637899Y-101116380D01*
X152628808Y-101114735D01*
X152827510Y-101114735D01*
X152828551Y-101115239D01*
X152844909Y-101119470D01*
X152876576Y-101126301D01*
X152917995Y-101134517D01*
X152921210Y-101135126D01*
X152970745Y-101143137D01*
X153017759Y-101148594D01*
X153052472Y-101150347D01*
X153079460Y-101148202D01*
X153124266Y-101141980D01*
X153174322Y-101133283D01*
X153220562Y-101123708D01*
X153253917Y-101114852D01*
X153254124Y-101114706D01*
X153243412Y-101113747D01*
X153213800Y-101112917D01*
X153168525Y-101112263D01*
X153110826Y-101111835D01*
X153043942Y-101111682D01*
X153034965Y-101111684D01*
X152968485Y-101111870D01*
X152911128Y-101112315D01*
X152866266Y-101112973D01*
X152837270Y-101113795D01*
X152827510Y-101114735D01*
X152628808Y-101114735D01*
X152618877Y-101112938D01*
X152612279Y-101117924D01*
X152317168Y-101117924D01*
X152337151Y-101100771D01*
X152394293Y-101063612D01*
X152451239Y-101037447D01*
X152492500Y-101023176D01*
X152406023Y-100978959D01*
X152362138Y-100956160D01*
X152276045Y-100908304D01*
X152203567Y-100862304D01*
X152139341Y-100814301D01*
X152078005Y-100760433D01*
X152014198Y-100696839D01*
X151975292Y-100655520D01*
X151930826Y-100604951D01*
X151895384Y-100558903D01*
X151864324Y-100511201D01*
X151833008Y-100455670D01*
X151808182Y-100409709D01*
X151788119Y-100374737D01*
X151773042Y-100353347D01*
X151759980Y-100342189D01*
X151745968Y-100337911D01*
X151728036Y-100337164D01*
X151699530Y-100335154D01*
X151655698Y-100329169D01*
X151609412Y-100320629D01*
X151554170Y-100305643D01*
X151467572Y-100265316D01*
X151393531Y-100206470D01*
X151330789Y-100128237D01*
X151287074Y-100051312D01*
X151256955Y-99968735D01*
X151245549Y-99885010D01*
X151247072Y-99862594D01*
X151348060Y-99862594D01*
X151348350Y-99899138D01*
X151350387Y-99940863D01*
X151355607Y-99971871D01*
X151365431Y-99999337D01*
X151381280Y-100030439D01*
X151401070Y-100062301D01*
X151454400Y-100124990D01*
X151518163Y-100176983D01*
X151585760Y-100212409D01*
X151611424Y-100220841D01*
X151656331Y-100231470D01*
X151693362Y-100235625D01*
X151693648Y-100235625D01*
X151722278Y-100234185D01*
X151733459Y-100228075D01*
X151732231Y-100214563D01*
X151723230Y-100180837D01*
X151710650Y-100116014D01*
X151698791Y-100034632D01*
X151688150Y-99940246D01*
X151679226Y-99836408D01*
X151674037Y-99765880D01*
X151773484Y-99765880D01*
X151775495Y-99802759D01*
X151779456Y-99851134D01*
X151784898Y-99906439D01*
X151791352Y-99964108D01*
X151798349Y-100019573D01*
X151805420Y-100068269D01*
X151812097Y-100105629D01*
X151843216Y-100228075D01*
X151844153Y-100231760D01*
X151889078Y-100352177D01*
X151947146Y-100460571D01*
X152020902Y-100561631D01*
X152112890Y-100660048D01*
X152190899Y-100728859D01*
X152321921Y-100821097D01*
X152465975Y-100897942D01*
X152619537Y-100957605D01*
X152779081Y-100998297D01*
X152798260Y-101001553D01*
X152847662Y-101007985D01*
X152906117Y-101013786D01*
X152968374Y-101018625D01*
X153029181Y-101022170D01*
X153083286Y-101024091D01*
X153125439Y-101024054D01*
X153150388Y-101021730D01*
X153155823Y-101020620D01*
X153181843Y-101016315D01*
X153221476Y-101010385D01*
X153268553Y-101003768D01*
X153364532Y-100985615D01*
X153490804Y-100948931D01*
X153617816Y-100899308D01*
X153738449Y-100839598D01*
X153845581Y-100772654D01*
X153854335Y-100766296D01*
X153915413Y-100715803D01*
X153981050Y-100652809D01*
X154045474Y-100583472D01*
X154102914Y-100513950D01*
X154147599Y-100450400D01*
X154157822Y-100433465D01*
X154214707Y-100316303D01*
X154241019Y-100235625D01*
X154352255Y-100235625D01*
X154398473Y-100235616D01*
X154417884Y-100234111D01*
X154470554Y-100220353D01*
X154528266Y-100195077D01*
X154583772Y-100161782D01*
X154629827Y-100123965D01*
X154641934Y-100111537D01*
X154681924Y-100062460D01*
X154708209Y-100011624D01*
X154723544Y-99952300D01*
X154730686Y-99877760D01*
X154731825Y-99850554D01*
X154732176Y-99806535D01*
X154728879Y-99773812D01*
X154720848Y-99744790D01*
X154706998Y-99711873D01*
X154684478Y-99670793D01*
X154653711Y-99626637D01*
X154620019Y-99586569D01*
X154587886Y-99555896D01*
X154561793Y-99539926D01*
X154548245Y-99539334D01*
X154523701Y-99550988D01*
X154489612Y-99579059D01*
X154466221Y-99599511D01*
X154451733Y-99610563D01*
X154441906Y-99618060D01*
X154427988Y-99625211D01*
X154427439Y-99625287D01*
X154421658Y-99637622D01*
X154417821Y-99668366D01*
X154416431Y-99713679D01*
X154415915Y-99737380D01*
X154415180Y-99771147D01*
X154409348Y-99865749D01*
X154399609Y-99965264D01*
X154386908Y-100060524D01*
X154372192Y-100142367D01*
X154352255Y-100235625D01*
X154241019Y-100235625D01*
X154258993Y-100180515D01*
X154290638Y-100026257D01*
X154309600Y-99853681D01*
X154317670Y-99737380D01*
X154289386Y-99750267D01*
X154286165Y-99751802D01*
X154269889Y-99764332D01*
X154264888Y-99775796D01*
X154260577Y-99785679D01*
X154254952Y-99822735D01*
X154253657Y-99833522D01*
X154235589Y-99903316D01*
X154203282Y-99961339D01*
X154159043Y-100003248D01*
X154135928Y-100016334D01*
X154097800Y-100031094D01*
X154049938Y-100042442D01*
X153989781Y-100050706D01*
X153914768Y-100056208D01*
X153822339Y-100059275D01*
X153709934Y-100060231D01*
X153651200Y-100060189D01*
X153582998Y-100059816D01*
X153531490Y-100058804D01*
X153493180Y-100056849D01*
X153464572Y-100053649D01*
X153442170Y-100048901D01*
X153422476Y-100042300D01*
X153401995Y-100033546D01*
X153380334Y-100022375D01*
X153338015Y-99994250D01*
X153304451Y-99964457D01*
X153287406Y-99942276D01*
X153262405Y-99899900D01*
X153240196Y-99852399D01*
X153224293Y-99807567D01*
X153218211Y-99773198D01*
X153217556Y-99767326D01*
X153209379Y-99757166D01*
X153188066Y-99750251D01*
X153148886Y-99744631D01*
X153142277Y-99743960D01*
X153094072Y-99741601D01*
X153036399Y-99741797D01*
X152980326Y-99744551D01*
X152881091Y-99752314D01*
X152880905Y-99753315D01*
X152873463Y-99793324D01*
X152855827Y-99858225D01*
X152817368Y-99931728D01*
X152761547Y-99990822D01*
X152688089Y-100035868D01*
X152680132Y-100039454D01*
X152661643Y-100046540D01*
X152641080Y-100051783D01*
X152615020Y-100055458D01*
X152580041Y-100057839D01*
X152532721Y-100059199D01*
X152469638Y-100059813D01*
X152387370Y-100059955D01*
X152339349Y-100059825D01*
X152237593Y-100058322D01*
X152154587Y-100054823D01*
X152087629Y-100048941D01*
X152034021Y-100040288D01*
X151991063Y-100028478D01*
X151956054Y-100013122D01*
X151926295Y-99993836D01*
X151924208Y-99992221D01*
X151879433Y-99943289D01*
X151850527Y-99881198D01*
X151839743Y-99810715D01*
X151837905Y-99784255D01*
X151829207Y-99763966D01*
X151809407Y-99750946D01*
X151787371Y-99742916D01*
X151774799Y-99742292D01*
X151773891Y-99745063D01*
X151773484Y-99765880D01*
X151674037Y-99765880D01*
X151671666Y-99733655D01*
X151875524Y-99733655D01*
X151875748Y-99795943D01*
X151877469Y-99814830D01*
X151891537Y-99879993D01*
X151918651Y-99929910D01*
X151960895Y-99966559D01*
X152020357Y-99991920D01*
X152099119Y-100007972D01*
X152120386Y-100010616D01*
X152190433Y-100017119D01*
X152270127Y-100022035D01*
X152353045Y-100025168D01*
X152432766Y-100026322D01*
X152502868Y-100025301D01*
X152556930Y-100021911D01*
X152597440Y-100016085D01*
X152677483Y-99992419D01*
X152740638Y-99954043D01*
X152787404Y-99900596D01*
X152818273Y-99831719D01*
X152823452Y-99813530D01*
X152834225Y-99753315D01*
X152831621Y-99730184D01*
X153264131Y-99730184D01*
X153266347Y-99785644D01*
X153286151Y-99854656D01*
X153305148Y-99895891D01*
X153343682Y-99946043D01*
X153396042Y-99982762D01*
X153464517Y-100007488D01*
X153551395Y-100021662D01*
X153583574Y-100024575D01*
X153651444Y-100028843D01*
X153716959Y-100029659D01*
X153788348Y-100027004D01*
X153873841Y-100020856D01*
X153970733Y-100011137D01*
X154048453Y-99998613D01*
X154108058Y-99981762D01*
X154151793Y-99958960D01*
X154181904Y-99928586D01*
X154200636Y-99889015D01*
X154210233Y-99838626D01*
X154212942Y-99775796D01*
X154212064Y-99731605D01*
X154207100Y-99692518D01*
X154195505Y-99667170D01*
X154174776Y-99650677D01*
X154142413Y-99638158D01*
X154104007Y-99628710D01*
X154035264Y-99618241D01*
X153952133Y-99610651D01*
X153859214Y-99605942D01*
X153761110Y-99604113D01*
X153662422Y-99605163D01*
X153567751Y-99609094D01*
X153481699Y-99615904D01*
X153408868Y-99625595D01*
X153353859Y-99638165D01*
X153313776Y-99655708D01*
X153279831Y-99687222D01*
X153264131Y-99730184D01*
X152831621Y-99730184D01*
X152829069Y-99707512D01*
X152806476Y-99673485D01*
X152764937Y-99648600D01*
X152702945Y-99630223D01*
X152700334Y-99629656D01*
X152634312Y-99619067D01*
X152552864Y-99611525D01*
X152460725Y-99606974D01*
X152362632Y-99605357D01*
X152263320Y-99606617D01*
X152167524Y-99610697D01*
X152079980Y-99617541D01*
X152005423Y-99627090D01*
X151948590Y-99639289D01*
X151945138Y-99640334D01*
X151908833Y-99658832D01*
X151886090Y-99688945D01*
X151875524Y-99733655D01*
X151671666Y-99733655D01*
X151665241Y-99646314D01*
X151630667Y-99631861D01*
X151601885Y-99616190D01*
X151598969Y-99613765D01*
X151771304Y-99613765D01*
X151771710Y-99640897D01*
X151775018Y-99669276D01*
X151783642Y-99686619D01*
X151799917Y-99699957D01*
X151800431Y-99700293D01*
X151821135Y-99712002D01*
X151831338Y-99714348D01*
X151832407Y-99712391D01*
X151840581Y-99695414D01*
X151853167Y-99668111D01*
X151858209Y-99657892D01*
X151879845Y-99628863D01*
X151911258Y-99607930D01*
X151956709Y-99592888D01*
X152020458Y-99581531D01*
X152084578Y-99573820D01*
X152192936Y-99565218D01*
X152303728Y-99561263D01*
X152413413Y-99561766D01*
X152518446Y-99566536D01*
X152615287Y-99575384D01*
X152700392Y-99588118D01*
X152770219Y-99604550D01*
X152821225Y-99624489D01*
X152821557Y-99624669D01*
X152844059Y-99645002D01*
X152862045Y-99674162D01*
X152876995Y-99709990D01*
X153218217Y-99703206D01*
X153235287Y-99670195D01*
X153242820Y-99657674D01*
X153265303Y-99634121D01*
X153298196Y-99614903D01*
X153343936Y-99599297D01*
X153404961Y-99586576D01*
X153483709Y-99576016D01*
X153582615Y-99566892D01*
X153588523Y-99566440D01*
X153669112Y-99562430D01*
X153757512Y-99561386D01*
X153848664Y-99563075D01*
X153937506Y-99567264D01*
X154018977Y-99573720D01*
X154088016Y-99582211D01*
X154139563Y-99592505D01*
X154153194Y-99596852D01*
X154197696Y-99620422D01*
X154232746Y-99652873D01*
X154251825Y-99688621D01*
X154251862Y-99688771D01*
X154261463Y-99710977D01*
X154275683Y-99712441D01*
X154297349Y-99693466D01*
X154297792Y-99692972D01*
X154305260Y-99682288D01*
X154310351Y-99667450D01*
X154313342Y-99644770D01*
X154314511Y-99610563D01*
X154314138Y-99561142D01*
X154312500Y-99492821D01*
X154311600Y-99461210D01*
X154309457Y-99401250D01*
X154306703Y-99357405D01*
X154302644Y-99325124D01*
X154296581Y-99299859D01*
X154287819Y-99277061D01*
X154275662Y-99252180D01*
X154238292Y-99184193D01*
X154172247Y-99086363D01*
X154100722Y-99008290D01*
X154021697Y-98948255D01*
X153933152Y-98904538D01*
X153833069Y-98875421D01*
X153832551Y-98875313D01*
X153791178Y-98867243D01*
X153766239Y-98864656D01*
X153752280Y-98867591D01*
X153743846Y-98876089D01*
X153725636Y-98902014D01*
X153701991Y-98926616D01*
X153674664Y-98940115D01*
X153635469Y-98947939D01*
X153631350Y-98948501D01*
X153574803Y-98953515D01*
X153502053Y-98956371D01*
X153418872Y-98957144D01*
X153331032Y-98955910D01*
X153244305Y-98952744D01*
X153164461Y-98947720D01*
X153097273Y-98940916D01*
X152998807Y-98925246D01*
X152863168Y-98896063D01*
X152723886Y-98858599D01*
X152587520Y-98814827D01*
X152460635Y-98766719D01*
X152349791Y-98716248D01*
X152330985Y-98706761D01*
X152302077Y-98693057D01*
X152286871Y-98688740D01*
X152280972Y-98693137D01*
X152279983Y-98705578D01*
X152274178Y-98730299D01*
X152258373Y-98768423D01*
X152235477Y-98814259D01*
X152208405Y-98862339D01*
X152180068Y-98907192D01*
X152153379Y-98943347D01*
X152151695Y-98945357D01*
X152116812Y-98982370D01*
X152072904Y-99023121D01*
X152029059Y-99059146D01*
X152019324Y-99066628D01*
X151960072Y-99119227D01*
X151911510Y-99177529D01*
X151871068Y-99245760D01*
X151836179Y-99328145D01*
X151804273Y-99428909D01*
X151801656Y-99438396D01*
X151785707Y-99505154D01*
X151775133Y-99566170D01*
X151771304Y-99613765D01*
X151598969Y-99613765D01*
X151579960Y-99597956D01*
X151560438Y-99580297D01*
X151532110Y-99562102D01*
X151513777Y-99553898D01*
X151498861Y-99554033D01*
X151481617Y-99565478D01*
X151455371Y-99590721D01*
X151438519Y-99609222D01*
X151405747Y-99652282D01*
X151379145Y-99695474D01*
X151370549Y-99712507D01*
X151358636Y-99741503D01*
X151351815Y-99771354D01*
X151348739Y-99809304D01*
X151348060Y-99862594D01*
X151247072Y-99862594D01*
X151251657Y-99795086D01*
X151263426Y-99743678D01*
X151286623Y-99678837D01*
X151316761Y-99615726D01*
X151350486Y-99561232D01*
X151384448Y-99522243D01*
X151392827Y-99514779D01*
X151411926Y-99494657D01*
X151416945Y-99478787D01*
X151410986Y-99459880D01*
X151402110Y-99429365D01*
X151398274Y-99393372D01*
X151396918Y-99376103D01*
X151389175Y-99336444D01*
X151376856Y-99294994D01*
X151373425Y-99285232D01*
X151344476Y-99186869D01*
X151318955Y-99071809D01*
X151297521Y-98945221D01*
X151280837Y-98812275D01*
X151269563Y-98678142D01*
X151264359Y-98547990D01*
X151265888Y-98426991D01*
X151266927Y-98406501D01*
X151280098Y-98270193D01*
X151303297Y-98137904D01*
X151335392Y-98014110D01*
X151375253Y-97903290D01*
X151421749Y-97809919D01*
X151436025Y-97787582D01*
X151484351Y-97724809D01*
X151544822Y-97658904D01*
X151611838Y-97595318D01*
X151679801Y-97539505D01*
X151743113Y-97496918D01*
X151781923Y-97473033D01*
X151828689Y-97437846D01*
X151855520Y-97407351D01*
X151863432Y-97394530D01*
X151917353Y-97326393D01*
X151988923Y-97259210D01*
X152074078Y-97195758D01*
X152168755Y-97138813D01*
X152268888Y-97091153D01*
X152370414Y-97055555D01*
X152436831Y-97039846D01*
X152534837Y-97023890D01*
X152646012Y-97011877D01*
X152765304Y-97004024D01*
X152887658Y-97000552D01*
X153008021Y-97001680D01*
X153121339Y-97007626D01*
X153222558Y-97018610D01*
X153292406Y-97029809D01*
X153509303Y-97078911D01*
X153717027Y-97148537D01*
X153916562Y-97239057D01*
X154108892Y-97350838D01*
X154109512Y-97351240D01*
X154178326Y-97397626D01*
X154239600Y-97443334D01*
X154297543Y-97492125D01*
X154356364Y-97547762D01*
X154420271Y-97614006D01*
X154493474Y-97694619D01*
X154497238Y-97698846D01*
X154566282Y-97775025D01*
X154624015Y-97835592D01*
X154672817Y-97882727D01*
X154715071Y-97918607D01*
X154753159Y-97945411D01*
X154789462Y-97965317D01*
X154805061Y-97973347D01*
X154837902Y-97994109D01*
X154859860Y-98013232D01*
X154876664Y-98047645D01*
X154876496Y-98088661D01*
X154858870Y-98127875D01*
X154825237Y-98159162D01*
X154800620Y-98174503D01*
X154781474Y-98186828D01*
X154777455Y-98192161D01*
X154774386Y-98208474D01*
X154774434Y-98237855D01*
X154777647Y-98283406D01*
X154784075Y-98348227D01*
X154784253Y-98349900D01*
X154790530Y-98422320D01*
X154795723Y-98506714D01*
X154799298Y-98592733D01*
X154800718Y-98670026D01*
X154801034Y-98706269D01*
X154803869Y-98790332D01*
X154809434Y-98858474D01*
X154817496Y-98907409D01*
X154824522Y-98938877D01*
X154831439Y-98976471D01*
X154834275Y-99001536D01*
X154834185Y-99004419D01*
X154823368Y-99032914D01*
X154799577Y-99062069D01*
X154769943Y-99084776D01*
X154741598Y-99093925D01*
X154736665Y-99094113D01*
X154727103Y-99097039D01*
X154718757Y-99106026D01*
X154710337Y-99124261D01*
X154700550Y-99154929D01*
X154688104Y-99201217D01*
X154671709Y-99266310D01*
X154663006Y-99301150D01*
X154648864Y-99357159D01*
X154637012Y-99403336D01*
X154628492Y-99435644D01*
X154624344Y-99450041D01*
X154626939Y-99458290D01*
X154642972Y-99477436D01*
X154669215Y-99500894D01*
X154717697Y-99547610D01*
X154772016Y-99625243D01*
X154812983Y-99717831D01*
X154829808Y-99789103D01*
X154830606Y-99806535D01*
X154834074Y-99882259D01*
X154820851Y-99974973D01*
X154790628Y-100059757D01*
X154749178Y-100131704D01*
X154684943Y-100208611D01*
X154608454Y-100266732D01*
X154518787Y-100306729D01*
X154415019Y-100329266D01*
X154381982Y-100333625D01*
X154344409Y-100339929D01*
X154321703Y-100346840D01*
X154309155Y-100356020D01*
X154302057Y-100369130D01*
X154299307Y-100375972D01*
X154278107Y-100419029D01*
X154247181Y-100472594D01*
X154210249Y-100530757D01*
X154171031Y-100587611D01*
X154133247Y-100637248D01*
X154113310Y-100661254D01*
X154054845Y-100725184D01*
X153992834Y-100782307D01*
X153922817Y-100836158D01*
X153840333Y-100890271D01*
X153740923Y-100948182D01*
X153624962Y-101012851D01*
X153686939Y-101043173D01*
X153712466Y-101057466D01*
X153754156Y-101087075D01*
X153786348Y-101117227D01*
X153789838Y-101121385D01*
X153800699Y-101136832D01*
X153827468Y-101174902D01*
X153868858Y-101247923D01*
G37*
G36*
X141420318Y-100696251D02*
G01*
X141521392Y-100702650D01*
X141609996Y-100717593D01*
X141692520Y-100742388D01*
X141775358Y-100778341D01*
X141853388Y-100823257D01*
X141940901Y-100894759D01*
X142010656Y-100980157D01*
X142062721Y-101079559D01*
X142097161Y-101193073D01*
X142114045Y-101320805D01*
X142115451Y-101402954D01*
X142102141Y-101528411D01*
X142069950Y-101641885D01*
X142019459Y-101742683D01*
X141951253Y-101830116D01*
X141865917Y-101903492D01*
X141764033Y-101962119D01*
X141646186Y-102005306D01*
X141512960Y-102032363D01*
X141417440Y-102039449D01*
X141303036Y-102036241D01*
X141187471Y-102022227D01*
X141078181Y-101998344D01*
X140982603Y-101965529D01*
X140930806Y-101943326D01*
X140930806Y-101773365D01*
X140930837Y-101726528D01*
X140931234Y-101674881D01*
X140932503Y-101640173D01*
X140935152Y-101619037D01*
X140939689Y-101608108D01*
X140946623Y-101604019D01*
X140956462Y-101603404D01*
X140957836Y-101603468D01*
X140980450Y-101611228D01*
X141013280Y-101629407D01*
X141049720Y-101654392D01*
X141059806Y-101661771D01*
X141136562Y-101705671D01*
X141220099Y-101735089D01*
X141306443Y-101749964D01*
X141391623Y-101750236D01*
X141471669Y-101735844D01*
X141542608Y-101706726D01*
X141600469Y-101662822D01*
X141604913Y-101658211D01*
X141641284Y-101614571D01*
X141666724Y-101569181D01*
X141682870Y-101516932D01*
X141691358Y-101452719D01*
X141693823Y-101371435D01*
X141693694Y-101327801D01*
X141692557Y-101281828D01*
X141689342Y-101248098D01*
X141682983Y-101220563D01*
X141672416Y-101193176D01*
X141656575Y-101159888D01*
X141627583Y-101109242D01*
X141577774Y-101051420D01*
X141517169Y-101011783D01*
X141443491Y-100988986D01*
X141354460Y-100981686D01*
X141298828Y-100985580D01*
X141217254Y-101003254D01*
X141138532Y-101032850D01*
X141069118Y-101071781D01*
X141015469Y-101117463D01*
X140994394Y-101132130D01*
X140962966Y-101139941D01*
X140930806Y-101139941D01*
X140930806Y-100791143D01*
X140995804Y-100766676D01*
X141028998Y-100754490D01*
X141116305Y-100726558D01*
X141196572Y-100708587D01*
X141278717Y-100698895D01*
X141371660Y-100695800D01*
X141420318Y-100696251D01*
G37*
G36*
X153193780Y-101268492D02*
G01*
X153195603Y-101286893D01*
X153193685Y-101300024D01*
X153185358Y-101309501D01*
X153180390Y-101304918D01*
X153181024Y-101286893D01*
X153185332Y-101273605D01*
X153191270Y-101264285D01*
X153193780Y-101268492D01*
G37*
G36*
X148052301Y-97601802D02*
G01*
X147340152Y-97601802D01*
X147311956Y-97601808D01*
X147188748Y-97601996D01*
X147072895Y-97602425D01*
X146966304Y-97603072D01*
X146870880Y-97603916D01*
X146788531Y-97604933D01*
X146721164Y-97606100D01*
X146670684Y-97607396D01*
X146638999Y-97608797D01*
X146628015Y-97610280D01*
X146634153Y-97616421D01*
X146656605Y-97634667D01*
X146693547Y-97663287D01*
X146742894Y-97700700D01*
X146802563Y-97745329D01*
X146870469Y-97795595D01*
X146944526Y-97849922D01*
X147261024Y-98081085D01*
X147261024Y-98313951D01*
X148289684Y-98313951D01*
X148289684Y-98472207D01*
X147261024Y-98472207D01*
X147261024Y-98834495D01*
X147261026Y-98853835D01*
X147261192Y-98957613D01*
X147261897Y-99041539D01*
X147263512Y-99107977D01*
X147266411Y-99159290D01*
X147270967Y-99197842D01*
X147277553Y-99225995D01*
X147286542Y-99246114D01*
X147298308Y-99260561D01*
X147313224Y-99271701D01*
X147331662Y-99281895D01*
X147342378Y-99286817D01*
X147361580Y-99292459D01*
X147387264Y-99295780D01*
X147423452Y-99297013D01*
X147474164Y-99296390D01*
X147543420Y-99294144D01*
X147576593Y-99292798D01*
X147635163Y-99289861D01*
X147684248Y-99286682D01*
X147719478Y-99283562D01*
X147736482Y-99280803D01*
X147742029Y-99279352D01*
X147747531Y-99282935D01*
X147748936Y-99297205D01*
X147746394Y-99326038D01*
X147740052Y-99373307D01*
X147737112Y-99394019D01*
X147731256Y-99435056D01*
X147727042Y-99464293D01*
X147725231Y-99476438D01*
X147724601Y-99476701D01*
X147708963Y-99477573D01*
X147674865Y-99477984D01*
X147625684Y-99477931D01*
X147564798Y-99477416D01*
X147495581Y-99476438D01*
X147480307Y-99476179D01*
X147405408Y-99474698D01*
X147348822Y-99472930D01*
X147306894Y-99470480D01*
X147275969Y-99466957D01*
X147252395Y-99461968D01*
X147232515Y-99455118D01*
X147212675Y-99446016D01*
X147177589Y-99425142D01*
X147126719Y-99375292D01*
X147090727Y-99308700D01*
X147090519Y-99308146D01*
X147086103Y-99289876D01*
X147082383Y-99259889D01*
X147079279Y-99216369D01*
X147076713Y-99157503D01*
X147074603Y-99081474D01*
X147072871Y-98986469D01*
X147071435Y-98870671D01*
X147067306Y-98472207D01*
X146096716Y-98472207D01*
X146096716Y-98313951D01*
X147068857Y-98313951D01*
X147068857Y-98158153D01*
X146701478Y-97888578D01*
X146334099Y-97619004D01*
X146334099Y-97443546D01*
X148052301Y-97443546D01*
X148052301Y-97601802D01*
G37*
%TD*%
%LPC*%
D15*
%TO.C,Hole3*%
X175040000Y-107630000D03*
%TD*%
%TO.C,Hole1*%
X130530000Y-91810000D03*
%TD*%
D16*
%TO.C,J3*%
X130090000Y-95970000D03*
D17*
X130090000Y-98510000D03*
X130090000Y-101050000D03*
X130090000Y-103590000D03*
%TD*%
D18*
%TO.C,USB1*%
X170560000Y-104080000D03*
X170560000Y-95440000D03*
X174360000Y-104080000D03*
X174360000Y-95440000D03*
%TD*%
D15*
%TO.C,Hole2*%
X130560000Y-107620000D03*
%TD*%
%TO.C,Hole4*%
X175040000Y-91810000D03*
%TD*%
D16*
%TO.C,J2*%
X165980000Y-108500000D03*
D17*
X163440000Y-108500000D03*
X160900000Y-108500000D03*
X158360000Y-108500000D03*
X155820000Y-108500000D03*
X153280000Y-108500000D03*
X150740000Y-108500000D03*
X148200000Y-108500000D03*
X145660000Y-108500000D03*
X143120000Y-108500000D03*
X140580000Y-108500000D03*
X138040000Y-108500000D03*
X135500000Y-108500000D03*
X132960000Y-108500000D03*
%TD*%
D19*
%TO.C,U2*%
X162215000Y-103210000D03*
X160945000Y-103210000D03*
X159675000Y-103210000D03*
X158405000Y-103210000D03*
X158405000Y-96150000D03*
X159675000Y-96150000D03*
X160945000Y-96150000D03*
X162215000Y-96150000D03*
%TD*%
D20*
%TO.C,C3*%
X163930000Y-100130000D03*
X163930000Y-99170000D03*
%TD*%
D16*
%TO.C,J1*%
X165990000Y-90940000D03*
D17*
X163450000Y-90940000D03*
X160910000Y-90940000D03*
X158370000Y-90940000D03*
X155830000Y-90940000D03*
X153290000Y-90940000D03*
X150750000Y-90940000D03*
X148210000Y-90940000D03*
X145670000Y-90940000D03*
X143130000Y-90940000D03*
X140590000Y-90940000D03*
X138050000Y-90940000D03*
X135510000Y-90940000D03*
X132970000Y-90940000D03*
%TD*%
M02*
