%TF.GenerationSoftware,KiCad,Pcbnew,(6.0.8)*%
%TF.CreationDate,2022-10-13T16:24:43+08:00*%
%TF.ProjectId,UINIO-MCU-STM32L051K8,55494e49-4f2d-44d4-9355-2d53544d3332,rev?*%
%TF.SameCoordinates,Original*%
%TF.FileFunction,Copper,L2,Bot*%
%TF.FilePolarity,Positive*%
%FSLAX46Y46*%
G04 Gerber Fmt 4.6, Leading zero omitted, Abs format (unit mm)*
G04 Created by KiCad (PCBNEW (6.0.8)) date 2022-10-13 16:24:43*
%MOMM*%
%LPD*%
G01*
G04 APERTURE LIST*
G04 Aperture macros list*
%AMRoundRect*
0 Rectangle with rounded corners*
0 $1 Rounding radius*
0 $2 $3 $4 $5 $6 $7 $8 $9 X,Y pos of 4 corners*
0 Add a 4 corners polygon primitive as box body*
4,1,4,$2,$3,$4,$5,$6,$7,$8,$9,$2,$3,0*
0 Add four circle primitives for the rounded corners*
1,1,$1+$1,$2,$3*
1,1,$1+$1,$4,$5*
1,1,$1+$1,$6,$7*
1,1,$1+$1,$8,$9*
0 Add four rect primitives between the rounded corners*
20,1,$1+$1,$2,$3,$4,$5,0*
20,1,$1+$1,$4,$5,$6,$7,0*
20,1,$1+$1,$6,$7,$8,$9,0*
20,1,$1+$1,$8,$9,$2,$3,0*%
G04 Aperture macros list end*
%TA.AperFunction,ComponentPad*%
%ADD10C,1.200000*%
%TD*%
%TA.AperFunction,ComponentPad*%
%ADD11R,1.700000X1.700000*%
%TD*%
%TA.AperFunction,ComponentPad*%
%ADD12O,1.700000X1.700000*%
%TD*%
%TA.AperFunction,ComponentPad*%
%ADD13O,1.800000X1.000000*%
%TD*%
%TA.AperFunction,SMDPad,CuDef*%
%ADD14O,0.630000X2.250000*%
%TD*%
%TA.AperFunction,SMDPad,CuDef*%
%ADD15RoundRect,0.140000X0.170000X-0.140000X0.170000X0.140000X-0.170000X0.140000X-0.170000X-0.140000X0*%
%TD*%
%TA.AperFunction,ViaPad*%
%ADD16C,0.500000*%
%TD*%
%TA.AperFunction,ViaPad*%
%ADD17C,0.900000*%
%TD*%
%TA.AperFunction,ViaPad*%
%ADD18C,0.700000*%
%TD*%
%TA.AperFunction,Conductor*%
%ADD19C,0.300000*%
%TD*%
%TA.AperFunction,Conductor*%
%ADD20C,0.500000*%
%TD*%
%TA.AperFunction,Conductor*%
%ADD21C,0.400000*%
%TD*%
%TA.AperFunction,Conductor*%
%ADD22C,0.200000*%
%TD*%
G04 APERTURE END LIST*
D10*
%TO.P,HOLE1,*%
%TO.N,*%
X175160000Y-107360000D03*
%TD*%
D11*
%TO.P,J3,1,Pin_1*%
%TO.N,/PA13{slash}SWDIO*%
X130390000Y-103590000D03*
D12*
%TO.P,J3,2,Pin_2*%
%TO.N,GND*%
X130390000Y-101050000D03*
%TO.P,J3,3,Pin_3*%
%TO.N,/PA14{slash}SWCLK*%
X130390000Y-98510000D03*
%TO.P,J3,4,Pin_4*%
%TO.N,/VDD_3.3V*%
X130390000Y-95970000D03*
%TD*%
D13*
%TO.P,USB1,1,GND*%
%TO.N,GND*%
X170430000Y-104090000D03*
%TO.P,USB1,2,GND*%
X170430000Y-95450000D03*
%TO.P,USB1,3,GND*%
X174230000Y-104090000D03*
%TO.P,USB1,4,GND*%
X174230000Y-95450000D03*
%TD*%
D10*
%TO.P,HOLE2,*%
%TO.N,*%
X175200000Y-92230000D03*
%TD*%
%TO.P,HOLE4,*%
%TO.N,*%
X130220000Y-92000000D03*
%TD*%
%TO.P,HOLE3,*%
%TO.N,*%
X130190000Y-107540000D03*
%TD*%
D11*
%TO.P,J2,1,Pin_1*%
%TO.N,/VDD_5V*%
X165980000Y-108610000D03*
D12*
%TO.P,J2,2,Pin_2*%
%TO.N,GND*%
X163440000Y-108610000D03*
%TO.P,J2,3,Pin_3*%
%TO.N,/VDD_3.3V*%
X160900000Y-108610000D03*
%TO.P,J2,4,Pin_4*%
%TO.N,GND*%
X158360000Y-108610000D03*
%TO.P,J2,5,Pin_5*%
%TO.N,/NRST*%
X155820000Y-108610000D03*
%TO.P,J2,6,Pin_6*%
%TO.N,/PB8*%
X153280000Y-108610000D03*
%TO.P,J2,7,Pin_7*%
%TO.N,/PB7*%
X150740000Y-108610000D03*
%TO.P,J2,8,Pin_8*%
%TO.N,/PB6*%
X148200000Y-108610000D03*
%TO.P,J2,9,Pin_9*%
%TO.N,/PB5*%
X145660000Y-108610000D03*
%TO.P,J2,10,Pin_10*%
%TO.N,/PB4*%
X143120000Y-108610000D03*
%TO.P,J2,11,Pin_11*%
%TO.N,/PB3*%
X140580000Y-108610000D03*
%TO.P,J2,12,Pin_12*%
%TO.N,/PB2*%
X138040000Y-108610000D03*
%TO.P,J2,13,Pin_13*%
%TO.N,/PB1*%
X135500000Y-108610000D03*
%TO.P,J2,14,Pin_14*%
%TO.N,/PB0*%
X132960000Y-108610000D03*
%TD*%
D14*
%TO.P,U2,1,CS#*%
%TO.N,/PA4{slash}CS*%
X162255000Y-103210000D03*
%TO.P,U2,2,DO(IO1)*%
%TO.N,/PA6{slash}MISO*%
X160985000Y-103210000D03*
%TO.P,U2,3,WP#(IO2)*%
%TO.N,GND*%
X159715000Y-103210000D03*
%TO.P,U2,4,GND*%
X158445000Y-103210000D03*
%TO.P,U2,5,DI(IO0)*%
%TO.N,/PA7{slash}MOSI*%
X158445000Y-96150000D03*
%TO.P,U2,6,CLK*%
%TO.N,/PA5{slash}SCLK*%
X159715000Y-96150000D03*
%TO.P,U2,7,HOLD#/RESET#/(IO3)*%
%TO.N,GND*%
X160985000Y-96150000D03*
%TO.P,U2,8,VCC*%
%TO.N,/VDD_3.3V*%
X162255000Y-96150000D03*
%TD*%
D15*
%TO.P,C3,1*%
%TO.N,GND*%
X163930000Y-100130000D03*
%TO.P,C3,2*%
%TO.N,/VDD_3.3V*%
X163930000Y-99170000D03*
%TD*%
D11*
%TO.P,J1,1,Pin_1*%
%TO.N,/PA0*%
X166010000Y-90900000D03*
D12*
%TO.P,J1,2,Pin_2*%
%TO.N,/PA1*%
X163470000Y-90900000D03*
%TO.P,J1,3,Pin_3*%
%TO.N,/PA2*%
X160930000Y-90900000D03*
%TO.P,J1,4,Pin_4*%
%TO.N,/PA3*%
X158390000Y-90900000D03*
%TO.P,J1,5,Pin_5*%
%TO.N,/PA4{slash}CS*%
X155850000Y-90900000D03*
%TO.P,J1,6,Pin_6*%
%TO.N,/PA5{slash}SCLK*%
X153310000Y-90900000D03*
%TO.P,J1,7,Pin_7*%
%TO.N,/PA6{slash}MISO*%
X150770000Y-90900000D03*
%TO.P,J1,8,Pin_8*%
%TO.N,/PA7{slash}MOSI*%
X148230000Y-90900000D03*
%TO.P,J1,9,Pin_9*%
%TO.N,/PA8*%
X145690000Y-90900000D03*
%TO.P,J1,10,Pin_10*%
%TO.N,/PA9*%
X143150000Y-90900000D03*
%TO.P,J1,11,Pin_11*%
%TO.N,/PA10*%
X140610000Y-90900000D03*
%TO.P,J1,12,Pin_12*%
%TO.N,/PA11*%
X138070000Y-90900000D03*
%TO.P,J1,13,Pin_13*%
%TO.N,/PA12*%
X135530000Y-90900000D03*
%TO.P,J1,14,Pin_14*%
%TO.N,/PA15*%
X132990000Y-90900000D03*
%TD*%
D16*
%TO.N,GND*%
X166890000Y-93370000D03*
D17*
X145120000Y-93600000D03*
X138040000Y-103390000D03*
X161930000Y-99680000D03*
X151040000Y-97420000D03*
D16*
X144240000Y-99170000D03*
X143820000Y-99610000D03*
X142930000Y-100500000D03*
X143340000Y-100040000D03*
D17*
X144970000Y-105930000D03*
D16*
X144690000Y-98740000D03*
D17*
X139650000Y-106390000D03*
D16*
%TO.N,/VDD_3.3V*%
X151330000Y-94540000D03*
D18*
X154630000Y-105099500D03*
D17*
X165212000Y-97562000D03*
X143780000Y-93600000D03*
D18*
X156910000Y-105080000D03*
D16*
%TO.N,/BOOT0*%
X142357647Y-103390000D03*
X155800000Y-95090000D03*
%TO.N,/NRST*%
X146150000Y-102349500D03*
X155780000Y-104550000D03*
D18*
%TO.N,Net-(C11-Pad2)*%
X146990000Y-102980000D03*
X151160000Y-99720000D03*
D16*
%TO.N,/PA4{slash}CS*%
X153330000Y-97520000D03*
X151430000Y-95490000D03*
X147529500Y-95489977D03*
%TO.N,/PA13{slash}SWDIO*%
X139970000Y-97690000D03*
%TO.N,/PA14{slash}SWCLK*%
X138310000Y-98510000D03*
%TO.N,/PB0*%
X145510000Y-96580000D03*
%TO.N,/PB1*%
X145510000Y-95820000D03*
%TO.N,/PB2*%
X145520000Y-95070000D03*
%TD*%
D19*
%TO.N,GND*%
X162290000Y-105960000D02*
X158610000Y-105960000D01*
X152530000Y-94270000D02*
X152530000Y-95930000D01*
X145000000Y-105960000D02*
X158080000Y-105960000D01*
X158445000Y-104755000D02*
X159160000Y-105470000D01*
D20*
X169150000Y-95450000D02*
X170430000Y-95450000D01*
D21*
X140040000Y-103390000D02*
X142930000Y-100500000D01*
D19*
X151840000Y-93580000D02*
X152530000Y-94270000D01*
X158445000Y-103210000D02*
X158445000Y-104755000D01*
X159715000Y-103210000D02*
X159715000Y-104745000D01*
X145140000Y-93580000D02*
X151840000Y-93580000D01*
D20*
X164470000Y-100130000D02*
X168955000Y-95645000D01*
D19*
X159715000Y-104745000D02*
X159950000Y-104980000D01*
D21*
X160985000Y-98755000D02*
X161910000Y-99680000D01*
D19*
X161610000Y-104980000D02*
X163330000Y-106700000D01*
X159160000Y-105470000D02*
X162100000Y-105470000D01*
D20*
X163930000Y-100130000D02*
X164470000Y-100130000D01*
D21*
X144690000Y-98740000D02*
X142930000Y-100500000D01*
D20*
X168955000Y-95645000D02*
X169150000Y-95450000D01*
D19*
X162100000Y-105470000D02*
X163190000Y-106560000D01*
D21*
X168955000Y-95435000D02*
X168955000Y-95645000D01*
D20*
X162380000Y-100130000D02*
X161930000Y-99680000D01*
D19*
X159950000Y-104980000D02*
X161610000Y-104980000D01*
X158080000Y-105960000D02*
X158610000Y-105960000D01*
X158610000Y-105960000D02*
X158360000Y-105960000D01*
D21*
X160985000Y-96150000D02*
X160985000Y-98755000D01*
D19*
X145120000Y-93600000D02*
X145140000Y-93580000D01*
X144910000Y-105990000D02*
X140050000Y-105990000D01*
D21*
X138040000Y-103390000D02*
X140040000Y-103390000D01*
D20*
X163930000Y-100130000D02*
X162380000Y-100130000D01*
D19*
X163190000Y-106560000D02*
X163190000Y-108100000D01*
D20*
X166150000Y-104110000D02*
X163440000Y-106820000D01*
X170410000Y-104110000D02*
X166150000Y-104110000D01*
D19*
X163440000Y-108260000D02*
X163440000Y-107110000D01*
X166890000Y-93370000D02*
X168955000Y-95435000D01*
X158360000Y-105960000D02*
X158360000Y-108610000D01*
X144970000Y-105930000D02*
X144910000Y-105990000D01*
X144970000Y-105930000D02*
X145000000Y-105960000D01*
X163330000Y-106700000D02*
X163330000Y-108500000D01*
X163440000Y-107110000D02*
X162290000Y-105960000D01*
D20*
X163440000Y-106820000D02*
X163440000Y-108610000D01*
D21*
X161910000Y-99680000D02*
X161930000Y-99680000D01*
D19*
X140050000Y-105990000D02*
X139650000Y-106390000D01*
X152530000Y-95930000D02*
X151040000Y-97420000D01*
%TO.N,/VDD_3.3V*%
X164450000Y-97562000D02*
X165212000Y-97562000D01*
X163930000Y-99170000D02*
X162630000Y-99170000D01*
X162255000Y-98795000D02*
X162255000Y-96150000D01*
X143770000Y-94540000D02*
X131820000Y-94540000D01*
X162630000Y-99170000D02*
X162255000Y-98795000D01*
X156890500Y-105099500D02*
X156910000Y-105080000D01*
X131820000Y-94540000D02*
X130390000Y-95970000D01*
X154630000Y-105099500D02*
X156890500Y-105099500D01*
X163930000Y-98082000D02*
X164450000Y-97562000D01*
X143780000Y-93600000D02*
X143780000Y-94530000D01*
X143780000Y-94530000D02*
X143770000Y-94540000D01*
X163930000Y-99170000D02*
X163930000Y-98082000D01*
X151330000Y-94540000D02*
X143770000Y-94540000D01*
D22*
%TO.N,/BOOT0*%
X154320000Y-95090000D02*
X150040000Y-99370000D01*
X150025026Y-99370000D02*
X147495026Y-101900000D01*
X150040000Y-99370000D02*
X150025026Y-99370000D01*
X143847647Y-101900000D02*
X142357647Y-103390000D01*
X155800000Y-95090000D02*
X154320000Y-95090000D01*
X147495026Y-101900000D02*
X143847647Y-101900000D01*
%TO.N,/NRST*%
X147310000Y-104550000D02*
X155780000Y-104550000D01*
X146150000Y-102349500D02*
X146150000Y-103390000D01*
X146150000Y-103390000D02*
X147310000Y-104550000D01*
D19*
%TO.N,Net-(C11-Pad2)*%
X150250000Y-99720000D02*
X151160000Y-99720000D01*
X146990000Y-102980000D02*
X150250000Y-99720000D01*
D22*
%TO.N,/PA4{slash}CS*%
X161995000Y-104535000D02*
X162255000Y-104275000D01*
X160675000Y-104535000D02*
X161995000Y-104535000D01*
X160350000Y-100270000D02*
X160350000Y-104210000D01*
X157600000Y-97520000D02*
X160350000Y-100270000D01*
X162255000Y-104275000D02*
X162255000Y-103555000D01*
X153330000Y-97520000D02*
X157600000Y-97520000D01*
X147529523Y-95490000D02*
X147529500Y-95489977D01*
X160350000Y-104210000D02*
X160675000Y-104535000D01*
X151430000Y-95490000D02*
X147529523Y-95490000D01*
D19*
%TO.N,/PA5{slash}SCLK*%
X154410000Y-92000000D02*
X153310000Y-90900000D01*
X159715000Y-96150000D02*
X159715000Y-93905000D01*
X159715000Y-93905000D02*
X157810000Y-92000000D01*
X157810000Y-92000000D02*
X154410000Y-92000000D01*
%TO.N,/PA6{slash}MISO*%
X159670000Y-92960000D02*
X159670000Y-90270000D01*
X160985000Y-100015000D02*
X160350000Y-99380000D01*
X159030000Y-89630000D02*
X152040000Y-89630000D01*
X160985000Y-103210000D02*
X160985000Y-100015000D01*
X159670000Y-90270000D02*
X159030000Y-89630000D01*
X152040000Y-89630000D02*
X150770000Y-90900000D01*
X160350000Y-93640000D02*
X159670000Y-92960000D01*
X160350000Y-99380000D02*
X160350000Y-93640000D01*
%TO.N,/PA7{slash}MOSI*%
X150020000Y-92690000D02*
X148230000Y-90900000D01*
X158445000Y-93575000D02*
X157560000Y-92690000D01*
X157560000Y-92690000D02*
X150020000Y-92690000D01*
X158445000Y-96150000D02*
X158445000Y-93575000D01*
D22*
%TO.N,/PA13{slash}SWDIO*%
X134060000Y-103590000D02*
X130390000Y-103590000D01*
X139960000Y-97690000D02*
X134060000Y-103590000D01*
X139970000Y-97690000D02*
X139960000Y-97690000D01*
%TO.N,/PA14{slash}SWCLK*%
X130390000Y-98510000D02*
X138310000Y-98510000D01*
%TO.N,/PB0*%
X145510000Y-96580000D02*
X141800000Y-96580000D01*
X133280000Y-105100000D02*
X133280000Y-108610000D01*
X141800000Y-96580000D02*
X133280000Y-105100000D01*
%TO.N,/PB1*%
X145510000Y-95820000D02*
X146160000Y-95820000D01*
X146500000Y-96160000D02*
X146500000Y-97880000D01*
X146500000Y-97880000D02*
X135770000Y-108610000D01*
X146160000Y-95820000D02*
X146500000Y-96160000D01*
%TO.N,/PB2*%
X146890000Y-95949292D02*
X146890000Y-97940000D01*
X145520000Y-95070000D02*
X146010708Y-95070000D01*
X138040000Y-106790000D02*
X138040000Y-108610000D01*
X146890000Y-97940000D02*
X138040000Y-106790000D01*
X146010708Y-95070000D02*
X146890000Y-95949292D01*
%TD*%
%TA.AperFunction,Conductor*%
%TO.N,GND*%
G36*
X174044064Y-89631932D02*
G01*
X174325450Y-89659354D01*
X174339935Y-89661623D01*
X174616226Y-89721561D01*
X174630351Y-89725499D01*
X174695538Y-89747835D01*
X174897803Y-89817142D01*
X174911379Y-89822697D01*
X175166358Y-89944798D01*
X175179197Y-89951893D01*
X175418257Y-90102800D01*
X175430185Y-90111339D01*
X175650092Y-90289012D01*
X175660946Y-90298879D01*
X175858712Y-90500905D01*
X175868345Y-90511966D01*
X176041292Y-90735606D01*
X176049575Y-90747713D01*
X176195355Y-90989934D01*
X176202175Y-91002921D01*
X176318819Y-91260451D01*
X176324083Y-91274143D01*
X176410005Y-91543479D01*
X176413642Y-91557689D01*
X176425610Y-91619144D01*
X176435241Y-91668603D01*
X176428629Y-91739291D01*
X176384849Y-91795182D01*
X176317802Y-91818532D01*
X176248775Y-91801928D01*
X176198558Y-91748415D01*
X176151756Y-91653510D01*
X176149201Y-91648329D01*
X176130796Y-91623681D01*
X176030758Y-91489715D01*
X176030758Y-91489714D01*
X176027305Y-91485091D01*
X175933549Y-91398424D01*
X175881943Y-91350719D01*
X175881940Y-91350717D01*
X175877703Y-91346800D01*
X175770067Y-91278887D01*
X175710288Y-91241169D01*
X175710283Y-91241167D01*
X175705404Y-91238088D01*
X175516180Y-91162595D01*
X175316366Y-91122849D01*
X175310592Y-91122773D01*
X175310588Y-91122773D01*
X175207452Y-91121424D01*
X175112655Y-91120183D01*
X175106958Y-91121162D01*
X175106957Y-91121162D01*
X174917567Y-91153705D01*
X174911870Y-91154684D01*
X174720734Y-91225198D01*
X174715773Y-91228150D01*
X174715772Y-91228150D01*
X174582164Y-91307639D01*
X174545649Y-91329363D01*
X174392478Y-91463690D01*
X174388911Y-91468215D01*
X174388906Y-91468220D01*
X174352331Y-91514616D01*
X174266351Y-91623681D01*
X174171492Y-91803978D01*
X174111078Y-91998543D01*
X174087132Y-92200859D01*
X174100457Y-92404151D01*
X174150605Y-92601610D01*
X174235898Y-92786624D01*
X174353479Y-92952997D01*
X174357613Y-92957024D01*
X174459070Y-93055859D01*
X174499410Y-93095157D01*
X174504206Y-93098362D01*
X174504209Y-93098364D01*
X174603002Y-93164375D01*
X174668803Y-93208342D01*
X174674106Y-93210620D01*
X174674109Y-93210622D01*
X174834778Y-93279651D01*
X174855987Y-93288763D01*
X174920254Y-93303305D01*
X175049055Y-93332450D01*
X175049060Y-93332451D01*
X175054692Y-93333725D01*
X175060463Y-93333952D01*
X175060465Y-93333952D01*
X175123470Y-93336427D01*
X175258263Y-93341723D01*
X175459883Y-93312490D01*
X175465347Y-93310635D01*
X175465352Y-93310634D01*
X175647327Y-93248862D01*
X175647332Y-93248860D01*
X175652799Y-93247004D01*
X175661594Y-93242079D01*
X175731379Y-93202997D01*
X175830551Y-93147458D01*
X175987186Y-93017186D01*
X176117458Y-92860551D01*
X176217004Y-92682799D01*
X176218860Y-92677332D01*
X176218862Y-92677327D01*
X176246187Y-92596828D01*
X176287024Y-92538752D01*
X176352777Y-92511973D01*
X176422569Y-92524994D01*
X176474242Y-92573681D01*
X176491500Y-92637329D01*
X176491500Y-107084621D01*
X176490236Y-107102423D01*
X176490093Y-107103425D01*
X176460667Y-107168036D01*
X176400981Y-107206482D01*
X176329985Y-107206556D01*
X176270219Y-107168235D01*
X176244088Y-107119825D01*
X176200875Y-106966606D01*
X176200874Y-106966604D01*
X176199307Y-106961047D01*
X176188680Y-106939496D01*
X176111756Y-106783510D01*
X176109201Y-106778329D01*
X176090796Y-106753681D01*
X175990758Y-106619715D01*
X175990758Y-106619714D01*
X175987305Y-106615091D01*
X175837703Y-106476800D01*
X175763819Y-106430183D01*
X175670288Y-106371169D01*
X175670283Y-106371167D01*
X175665404Y-106368088D01*
X175476180Y-106292595D01*
X175276366Y-106252849D01*
X175270592Y-106252773D01*
X175270588Y-106252773D01*
X175167452Y-106251424D01*
X175072655Y-106250183D01*
X175066958Y-106251162D01*
X175066957Y-106251162D01*
X174877567Y-106283705D01*
X174871870Y-106284684D01*
X174680734Y-106355198D01*
X174675773Y-106358150D01*
X174675772Y-106358150D01*
X174548321Y-106433976D01*
X174505649Y-106459363D01*
X174352478Y-106593690D01*
X174348911Y-106598215D01*
X174348906Y-106598220D01*
X174302726Y-106656800D01*
X174226351Y-106753681D01*
X174223662Y-106758792D01*
X174223660Y-106758795D01*
X174215817Y-106773702D01*
X174131492Y-106933978D01*
X174102882Y-107026118D01*
X174075601Y-107113978D01*
X174071078Y-107128543D01*
X174047132Y-107330859D01*
X174060457Y-107534151D01*
X174110605Y-107731610D01*
X174195898Y-107916624D01*
X174313479Y-108082997D01*
X174335210Y-108104166D01*
X174403511Y-108170702D01*
X174459410Y-108225157D01*
X174464206Y-108228362D01*
X174464209Y-108228364D01*
X174516041Y-108262997D01*
X174628803Y-108338342D01*
X174634106Y-108340620D01*
X174634109Y-108340622D01*
X174723115Y-108378862D01*
X174815987Y-108418763D01*
X174877655Y-108432717D01*
X175009055Y-108462450D01*
X175009060Y-108462451D01*
X175014692Y-108463725D01*
X175020463Y-108463952D01*
X175020465Y-108463952D01*
X175083470Y-108466427D01*
X175218263Y-108471723D01*
X175419883Y-108442490D01*
X175425347Y-108440635D01*
X175425352Y-108440634D01*
X175607327Y-108378862D01*
X175607332Y-108378860D01*
X175612799Y-108377004D01*
X175790551Y-108277458D01*
X175947186Y-108147186D01*
X176077458Y-107990551D01*
X176080282Y-107985508D01*
X176080285Y-107985504D01*
X176124030Y-107907391D01*
X176174767Y-107857729D01*
X176244298Y-107843382D01*
X176310549Y-107868903D01*
X176352485Y-107926192D01*
X176355129Y-108003528D01*
X176345288Y-108038019D01*
X176340463Y-108051831D01*
X176227716Y-108322941D01*
X176221323Y-108336102D01*
X176083762Y-108581851D01*
X176077901Y-108592321D01*
X176070032Y-108604641D01*
X175903272Y-108835048D01*
X175897865Y-108842519D01*
X175888612Y-108853853D01*
X175690044Y-109070151D01*
X175679540Y-109080337D01*
X175474633Y-109257145D01*
X175457229Y-109272162D01*
X175445618Y-109281058D01*
X175202564Y-109445821D01*
X175190017Y-109453302D01*
X174929486Y-109588783D01*
X174916146Y-109594763D01*
X174641680Y-109699123D01*
X174627725Y-109703520D01*
X174343022Y-109775354D01*
X174328658Y-109778102D01*
X174246202Y-109788963D01*
X174037537Y-109816447D01*
X174022944Y-109817512D01*
X173764263Y-109821334D01*
X173737644Y-109818892D01*
X173737522Y-109818868D01*
X173728518Y-109817063D01*
X173719576Y-109817840D01*
X173719573Y-109817840D01*
X173682913Y-109821027D01*
X173672002Y-109821500D01*
X167419379Y-109821500D01*
X167351258Y-109801498D01*
X167304765Y-109747842D01*
X167294661Y-109677568D01*
X167301397Y-109651271D01*
X167328971Y-109577718D01*
X167328973Y-109577712D01*
X167331745Y-109570316D01*
X167338500Y-109508134D01*
X167338500Y-107711866D01*
X167331745Y-107649684D01*
X167280615Y-107513295D01*
X167193261Y-107396739D01*
X167076705Y-107309385D01*
X166940316Y-107258255D01*
X166878134Y-107251500D01*
X165081866Y-107251500D01*
X165019684Y-107258255D01*
X164883295Y-107309385D01*
X164766739Y-107396739D01*
X164679385Y-107513295D01*
X164676233Y-107521703D01*
X164676232Y-107521705D01*
X164634722Y-107632433D01*
X164592081Y-107689198D01*
X164525519Y-107713898D01*
X164456170Y-107698691D01*
X164423546Y-107673004D01*
X164372799Y-107617234D01*
X164365273Y-107610215D01*
X164198139Y-107478222D01*
X164189552Y-107472517D01*
X164003117Y-107369599D01*
X163993705Y-107365369D01*
X163792959Y-107294280D01*
X163782988Y-107291646D01*
X163711837Y-107278972D01*
X163698540Y-107280432D01*
X163694000Y-107294989D01*
X163694000Y-108738000D01*
X163673998Y-108806121D01*
X163620342Y-108852614D01*
X163568000Y-108864000D01*
X163312000Y-108864000D01*
X163243879Y-108843998D01*
X163197386Y-108790342D01*
X163186000Y-108738000D01*
X163186000Y-107293102D01*
X163182082Y-107279758D01*
X163167806Y-107277771D01*
X163129324Y-107283660D01*
X163119288Y-107286051D01*
X162916868Y-107352212D01*
X162907359Y-107356209D01*
X162718463Y-107454542D01*
X162709738Y-107460036D01*
X162539433Y-107587905D01*
X162531726Y-107594748D01*
X162384590Y-107748717D01*
X162378109Y-107756722D01*
X162273498Y-107910074D01*
X162218587Y-107955076D01*
X162148062Y-107963247D01*
X162084315Y-107931993D01*
X162063618Y-107907509D01*
X161982822Y-107782617D01*
X161982820Y-107782614D01*
X161980014Y-107778277D01*
X161829670Y-107613051D01*
X161825619Y-107609852D01*
X161825615Y-107609848D01*
X161658414Y-107477800D01*
X161658410Y-107477798D01*
X161654359Y-107474598D01*
X161618028Y-107454542D01*
X161599557Y-107444346D01*
X161458789Y-107366638D01*
X161453920Y-107364914D01*
X161453916Y-107364912D01*
X161253087Y-107293795D01*
X161253083Y-107293794D01*
X161248212Y-107292069D01*
X161243119Y-107291162D01*
X161243116Y-107291161D01*
X161033373Y-107253800D01*
X161033367Y-107253799D01*
X161028284Y-107252894D01*
X160954452Y-107251992D01*
X160810081Y-107250228D01*
X160810079Y-107250228D01*
X160804911Y-107250165D01*
X160584091Y-107283955D01*
X160371756Y-107353357D01*
X160173607Y-107456507D01*
X160169474Y-107459610D01*
X160169471Y-107459612D01*
X159999100Y-107587530D01*
X159994965Y-107590635D01*
X159991393Y-107594373D01*
X159865598Y-107726010D01*
X159840629Y-107752138D01*
X159733204Y-107909618D01*
X159732898Y-107910066D01*
X159677987Y-107955069D01*
X159607462Y-107963240D01*
X159543715Y-107931986D01*
X159523018Y-107907502D01*
X159442426Y-107782926D01*
X159436136Y-107774757D01*
X159292806Y-107617240D01*
X159285273Y-107610215D01*
X159118139Y-107478222D01*
X159109552Y-107472517D01*
X158923117Y-107369599D01*
X158913705Y-107365369D01*
X158712959Y-107294280D01*
X158702988Y-107291646D01*
X158631837Y-107278972D01*
X158618540Y-107280432D01*
X158614000Y-107294989D01*
X158614000Y-108738000D01*
X158593998Y-108806121D01*
X158540342Y-108852614D01*
X158488000Y-108864000D01*
X158232000Y-108864000D01*
X158163879Y-108843998D01*
X158117386Y-108790342D01*
X158106000Y-108738000D01*
X158106000Y-107293102D01*
X158102082Y-107279758D01*
X158087806Y-107277771D01*
X158049324Y-107283660D01*
X158039288Y-107286051D01*
X157836868Y-107352212D01*
X157827359Y-107356209D01*
X157638463Y-107454542D01*
X157629738Y-107460036D01*
X157459433Y-107587905D01*
X157451726Y-107594748D01*
X157304590Y-107748717D01*
X157298109Y-107756722D01*
X157193498Y-107910074D01*
X157138587Y-107955076D01*
X157068062Y-107963247D01*
X157004315Y-107931993D01*
X156983618Y-107907509D01*
X156902822Y-107782617D01*
X156902820Y-107782614D01*
X156900014Y-107778277D01*
X156749670Y-107613051D01*
X156745619Y-107609852D01*
X156745615Y-107609848D01*
X156578414Y-107477800D01*
X156578410Y-107477798D01*
X156574359Y-107474598D01*
X156538028Y-107454542D01*
X156519557Y-107444346D01*
X156378789Y-107366638D01*
X156373920Y-107364914D01*
X156373916Y-107364912D01*
X156173087Y-107293795D01*
X156173083Y-107293794D01*
X156168212Y-107292069D01*
X156163119Y-107291162D01*
X156163116Y-107291161D01*
X155953373Y-107253800D01*
X155953367Y-107253799D01*
X155948284Y-107252894D01*
X155874452Y-107251992D01*
X155730081Y-107250228D01*
X155730079Y-107250228D01*
X155724911Y-107250165D01*
X155504091Y-107283955D01*
X155291756Y-107353357D01*
X155093607Y-107456507D01*
X155089474Y-107459610D01*
X155089471Y-107459612D01*
X154919100Y-107587530D01*
X154914965Y-107590635D01*
X154911393Y-107594373D01*
X154785598Y-107726010D01*
X154760629Y-107752138D01*
X154653201Y-107909621D01*
X154598293Y-107954621D01*
X154527768Y-107962792D01*
X154464021Y-107931538D01*
X154443324Y-107907054D01*
X154362822Y-107782617D01*
X154362820Y-107782614D01*
X154360014Y-107778277D01*
X154209670Y-107613051D01*
X154205619Y-107609852D01*
X154205615Y-107609848D01*
X154038414Y-107477800D01*
X154038410Y-107477798D01*
X154034359Y-107474598D01*
X153998028Y-107454542D01*
X153979557Y-107444346D01*
X153838789Y-107366638D01*
X153833920Y-107364914D01*
X153833916Y-107364912D01*
X153633087Y-107293795D01*
X153633083Y-107293794D01*
X153628212Y-107292069D01*
X153623119Y-107291162D01*
X153623116Y-107291161D01*
X153413373Y-107253800D01*
X153413367Y-107253799D01*
X153408284Y-107252894D01*
X153334452Y-107251992D01*
X153190081Y-107250228D01*
X153190079Y-107250228D01*
X153184911Y-107250165D01*
X152964091Y-107283955D01*
X152751756Y-107353357D01*
X152553607Y-107456507D01*
X152549474Y-107459610D01*
X152549471Y-107459612D01*
X152379100Y-107587530D01*
X152374965Y-107590635D01*
X152371393Y-107594373D01*
X152245598Y-107726010D01*
X152220629Y-107752138D01*
X152113201Y-107909621D01*
X152058293Y-107954621D01*
X151987768Y-107962792D01*
X151924021Y-107931538D01*
X151903324Y-107907054D01*
X151822822Y-107782617D01*
X151822820Y-107782614D01*
X151820014Y-107778277D01*
X151669670Y-107613051D01*
X151665619Y-107609852D01*
X151665615Y-107609848D01*
X151498414Y-107477800D01*
X151498410Y-107477798D01*
X151494359Y-107474598D01*
X151458028Y-107454542D01*
X151439557Y-107444346D01*
X151298789Y-107366638D01*
X151293920Y-107364914D01*
X151293916Y-107364912D01*
X151093087Y-107293795D01*
X151093083Y-107293794D01*
X151088212Y-107292069D01*
X151083119Y-107291162D01*
X151083116Y-107291161D01*
X150873373Y-107253800D01*
X150873367Y-107253799D01*
X150868284Y-107252894D01*
X150794452Y-107251992D01*
X150650081Y-107250228D01*
X150650079Y-107250228D01*
X150644911Y-107250165D01*
X150424091Y-107283955D01*
X150211756Y-107353357D01*
X150013607Y-107456507D01*
X150009474Y-107459610D01*
X150009471Y-107459612D01*
X149839100Y-107587530D01*
X149834965Y-107590635D01*
X149831393Y-107594373D01*
X149705598Y-107726010D01*
X149680629Y-107752138D01*
X149573201Y-107909621D01*
X149518293Y-107954621D01*
X149447768Y-107962792D01*
X149384021Y-107931538D01*
X149363324Y-107907054D01*
X149282822Y-107782617D01*
X149282820Y-107782614D01*
X149280014Y-107778277D01*
X149129670Y-107613051D01*
X149125619Y-107609852D01*
X149125615Y-107609848D01*
X148958414Y-107477800D01*
X148958410Y-107477798D01*
X148954359Y-107474598D01*
X148918028Y-107454542D01*
X148899557Y-107444346D01*
X148758789Y-107366638D01*
X148753920Y-107364914D01*
X148753916Y-107364912D01*
X148553087Y-107293795D01*
X148553083Y-107293794D01*
X148548212Y-107292069D01*
X148543119Y-107291162D01*
X148543116Y-107291161D01*
X148333373Y-107253800D01*
X148333367Y-107253799D01*
X148328284Y-107252894D01*
X148254452Y-107251992D01*
X148110081Y-107250228D01*
X148110079Y-107250228D01*
X148104911Y-107250165D01*
X147884091Y-107283955D01*
X147671756Y-107353357D01*
X147473607Y-107456507D01*
X147469474Y-107459610D01*
X147469471Y-107459612D01*
X147299100Y-107587530D01*
X147294965Y-107590635D01*
X147291393Y-107594373D01*
X147165598Y-107726010D01*
X147140629Y-107752138D01*
X147033201Y-107909621D01*
X146978293Y-107954621D01*
X146907768Y-107962792D01*
X146844021Y-107931538D01*
X146823324Y-107907054D01*
X146742822Y-107782617D01*
X146742820Y-107782614D01*
X146740014Y-107778277D01*
X146589670Y-107613051D01*
X146585619Y-107609852D01*
X146585615Y-107609848D01*
X146418414Y-107477800D01*
X146418410Y-107477798D01*
X146414359Y-107474598D01*
X146378028Y-107454542D01*
X146359557Y-107444346D01*
X146218789Y-107366638D01*
X146213920Y-107364914D01*
X146213916Y-107364912D01*
X146013087Y-107293795D01*
X146013083Y-107293794D01*
X146008212Y-107292069D01*
X146003119Y-107291162D01*
X146003116Y-107291161D01*
X145793373Y-107253800D01*
X145793367Y-107253799D01*
X145788284Y-107252894D01*
X145714452Y-107251992D01*
X145570081Y-107250228D01*
X145570079Y-107250228D01*
X145564911Y-107250165D01*
X145344091Y-107283955D01*
X145131756Y-107353357D01*
X144933607Y-107456507D01*
X144929474Y-107459610D01*
X144929471Y-107459612D01*
X144759100Y-107587530D01*
X144754965Y-107590635D01*
X144751393Y-107594373D01*
X144625598Y-107726010D01*
X144600629Y-107752138D01*
X144493201Y-107909621D01*
X144438293Y-107954621D01*
X144367768Y-107962792D01*
X144304021Y-107931538D01*
X144283324Y-107907054D01*
X144202822Y-107782617D01*
X144202820Y-107782614D01*
X144200014Y-107778277D01*
X144049670Y-107613051D01*
X144045619Y-107609852D01*
X144045615Y-107609848D01*
X143878414Y-107477800D01*
X143878410Y-107477798D01*
X143874359Y-107474598D01*
X143838028Y-107454542D01*
X143819557Y-107444346D01*
X143678789Y-107366638D01*
X143673920Y-107364914D01*
X143673916Y-107364912D01*
X143473087Y-107293795D01*
X143473083Y-107293794D01*
X143468212Y-107292069D01*
X143463119Y-107291162D01*
X143463116Y-107291161D01*
X143253373Y-107253800D01*
X143253367Y-107253799D01*
X143248284Y-107252894D01*
X143174452Y-107251992D01*
X143030081Y-107250228D01*
X143030079Y-107250228D01*
X143024911Y-107250165D01*
X142804091Y-107283955D01*
X142591756Y-107353357D01*
X142393607Y-107456507D01*
X142389474Y-107459610D01*
X142389471Y-107459612D01*
X142219100Y-107587530D01*
X142214965Y-107590635D01*
X142211393Y-107594373D01*
X142085598Y-107726010D01*
X142060629Y-107752138D01*
X141953201Y-107909621D01*
X141898293Y-107954621D01*
X141827768Y-107962792D01*
X141764021Y-107931538D01*
X141743324Y-107907054D01*
X141662822Y-107782617D01*
X141662820Y-107782614D01*
X141660014Y-107778277D01*
X141509670Y-107613051D01*
X141505619Y-107609852D01*
X141505615Y-107609848D01*
X141338414Y-107477800D01*
X141338410Y-107477798D01*
X141334359Y-107474598D01*
X141298028Y-107454542D01*
X141279557Y-107444346D01*
X141138789Y-107366638D01*
X141133920Y-107364914D01*
X141133916Y-107364912D01*
X140933087Y-107293795D01*
X140933083Y-107293794D01*
X140928212Y-107292069D01*
X140923119Y-107291162D01*
X140923116Y-107291161D01*
X140713373Y-107253800D01*
X140713367Y-107253799D01*
X140708284Y-107252894D01*
X140634452Y-107251992D01*
X140490081Y-107250228D01*
X140490079Y-107250228D01*
X140484911Y-107250165D01*
X140264091Y-107283955D01*
X140051756Y-107353357D01*
X139853607Y-107456507D01*
X139849474Y-107459610D01*
X139849471Y-107459612D01*
X139679100Y-107587530D01*
X139674965Y-107590635D01*
X139671393Y-107594373D01*
X139545598Y-107726010D01*
X139520629Y-107752138D01*
X139413201Y-107909621D01*
X139358293Y-107954621D01*
X139287768Y-107962792D01*
X139224021Y-107931538D01*
X139203324Y-107907054D01*
X139122822Y-107782617D01*
X139122820Y-107782614D01*
X139120014Y-107778277D01*
X138969670Y-107613051D01*
X138965619Y-107609852D01*
X138965615Y-107609848D01*
X138798414Y-107477800D01*
X138798410Y-107477798D01*
X138794359Y-107474598D01*
X138713607Y-107430021D01*
X138663636Y-107379588D01*
X138648500Y-107319712D01*
X138648500Y-107094239D01*
X138668502Y-107026118D01*
X138685405Y-107005144D01*
X141703747Y-103986802D01*
X141766059Y-103952776D01*
X141836874Y-103957841D01*
X141869994Y-103976985D01*
X141871102Y-103978132D01*
X141877001Y-103981992D01*
X142000649Y-104062905D01*
X142013493Y-104071310D01*
X142020097Y-104073766D01*
X142020099Y-104073767D01*
X142056491Y-104087301D01*
X142172988Y-104130626D01*
X142341662Y-104153132D01*
X142348673Y-104152494D01*
X142348677Y-104152494D01*
X142504109Y-104138348D01*
X142511130Y-104137709D01*
X142517832Y-104135531D01*
X142517834Y-104135531D01*
X142666270Y-104087301D01*
X142666273Y-104087300D01*
X142672969Y-104085124D01*
X142819137Y-103997990D01*
X142824231Y-103993139D01*
X142824235Y-103993136D01*
X142891480Y-103929099D01*
X142942368Y-103880639D01*
X142953456Y-103863951D01*
X143032637Y-103744773D01*
X143036538Y-103738902D01*
X143096966Y-103579825D01*
X143102315Y-103541762D01*
X143131602Y-103477088D01*
X143137994Y-103470202D01*
X144062791Y-102545405D01*
X144125103Y-102511379D01*
X144151886Y-102508500D01*
X145312607Y-102508500D01*
X145380728Y-102528502D01*
X145427221Y-102582158D01*
X145432165Y-102594728D01*
X145457094Y-102669667D01*
X145460741Y-102675689D01*
X145460742Y-102675691D01*
X145523276Y-102778947D01*
X145541500Y-102844218D01*
X145541500Y-103341864D01*
X145540422Y-103358307D01*
X145536250Y-103390000D01*
X145541500Y-103429880D01*
X145541500Y-103429885D01*
X145545668Y-103461542D01*
X145557162Y-103548851D01*
X145618476Y-103696876D01*
X145623503Y-103703427D01*
X145623504Y-103703429D01*
X145691520Y-103792069D01*
X145691526Y-103792075D01*
X145716013Y-103823987D01*
X145722568Y-103829017D01*
X145741379Y-103843452D01*
X145753770Y-103854319D01*
X146845685Y-104946234D01*
X146856552Y-104958625D01*
X146876013Y-104983987D01*
X146907925Y-105008474D01*
X146907929Y-105008478D01*
X147003124Y-105081524D01*
X147067497Y-105108188D01*
X147143522Y-105139679D01*
X147143523Y-105139679D01*
X147151149Y-105142838D01*
X147156178Y-105143500D01*
X147159334Y-105143916D01*
X147159336Y-105143916D01*
X147270107Y-105158499D01*
X147270115Y-105158500D01*
X147270116Y-105158500D01*
X147270126Y-105158501D01*
X147301811Y-105162672D01*
X147310000Y-105163750D01*
X147318189Y-105162672D01*
X147341693Y-105159578D01*
X147358138Y-105158500D01*
X153659521Y-105158500D01*
X153727642Y-105178502D01*
X153774135Y-105232158D01*
X153783373Y-105265989D01*
X153783571Y-105265947D01*
X153784306Y-105269402D01*
X153784830Y-105271323D01*
X153784944Y-105272405D01*
X153785635Y-105278975D01*
X153841401Y-105450607D01*
X153931633Y-105606893D01*
X154052387Y-105741004D01*
X154057729Y-105744885D01*
X154057731Y-105744887D01*
X154175241Y-105830263D01*
X154198385Y-105847078D01*
X154204413Y-105849762D01*
X154204415Y-105849763D01*
X154319450Y-105900980D01*
X154363248Y-105920480D01*
X154441572Y-105937128D01*
X154533311Y-105956628D01*
X154533315Y-105956628D01*
X154539768Y-105958000D01*
X154720232Y-105958000D01*
X154726685Y-105956628D01*
X154726689Y-105956628D01*
X154818428Y-105937128D01*
X154896752Y-105920480D01*
X154940550Y-105900980D01*
X155055585Y-105849763D01*
X155055587Y-105849762D01*
X155061615Y-105847078D01*
X155088455Y-105827578D01*
X155151099Y-105782064D01*
X155217967Y-105758205D01*
X155225160Y-105758000D01*
X156341679Y-105758000D01*
X156415741Y-105782064D01*
X156478385Y-105827578D01*
X156484413Y-105830262D01*
X156484415Y-105830263D01*
X156528213Y-105849763D01*
X156643248Y-105900980D01*
X156731508Y-105919740D01*
X156813311Y-105937128D01*
X156813315Y-105937128D01*
X156819768Y-105938500D01*
X157000232Y-105938500D01*
X157006685Y-105937128D01*
X157006689Y-105937128D01*
X157088492Y-105919740D01*
X157176752Y-105900980D01*
X157291787Y-105849763D01*
X157335585Y-105830263D01*
X157335587Y-105830262D01*
X157341615Y-105827578D01*
X157437381Y-105758000D01*
X157482269Y-105725387D01*
X157482271Y-105725385D01*
X157487613Y-105721504D01*
X157608367Y-105587393D01*
X157663311Y-105492227D01*
X157695295Y-105436830D01*
X157695296Y-105436829D01*
X157698599Y-105431107D01*
X157750164Y-105272405D01*
X157752325Y-105265754D01*
X157752325Y-105265753D01*
X157754365Y-105259475D01*
X157766068Y-105148136D01*
X157772539Y-105086565D01*
X157773229Y-105080000D01*
X157771284Y-105061496D01*
X157755055Y-104907089D01*
X157755055Y-104907088D01*
X157754365Y-104900525D01*
X157750979Y-104890102D01*
X157731326Y-104829617D01*
X157720433Y-104796092D01*
X157718406Y-104725125D01*
X157755068Y-104664328D01*
X157818780Y-104633002D01*
X157889314Y-104641095D01*
X157919218Y-104658960D01*
X157931989Y-104669228D01*
X158075990Y-104760613D01*
X158088576Y-104766752D01*
X158173934Y-104797147D01*
X158188013Y-104797943D01*
X158191000Y-104792273D01*
X158191000Y-104784848D01*
X158699000Y-104784848D01*
X158702973Y-104798379D01*
X158709647Y-104799338D01*
X158790967Y-104771655D01*
X158803633Y-104765694D01*
X158948897Y-104676328D01*
X158959924Y-104667712D01*
X158991371Y-104636917D01*
X159054036Y-104603547D01*
X159124795Y-104609353D01*
X159168935Y-104638157D01*
X159191079Y-104660456D01*
X159201988Y-104669227D01*
X159345990Y-104760613D01*
X159358576Y-104766752D01*
X159443934Y-104797147D01*
X159458013Y-104797943D01*
X159461000Y-104792273D01*
X159461000Y-103482115D01*
X159456525Y-103466876D01*
X159455135Y-103465671D01*
X159447452Y-103464000D01*
X158717115Y-103464000D01*
X158701876Y-103468475D01*
X158700671Y-103469865D01*
X158699000Y-103477548D01*
X158699000Y-104784848D01*
X158191000Y-104784848D01*
X158191000Y-103482115D01*
X158186525Y-103466876D01*
X158185135Y-103465671D01*
X158177452Y-103464000D01*
X157640115Y-103464000D01*
X157624876Y-103468475D01*
X157623671Y-103469865D01*
X157622000Y-103477548D01*
X157622000Y-104062905D01*
X157622393Y-104069929D01*
X157636589Y-104196490D01*
X157639690Y-104210140D01*
X157665429Y-104284054D01*
X157668941Y-104354963D01*
X157633560Y-104416515D01*
X157570517Y-104449168D01*
X157499829Y-104442553D01*
X157472376Y-104427426D01*
X157457359Y-104416515D01*
X157341615Y-104332422D01*
X157335587Y-104329738D01*
X157335585Y-104329737D01*
X157182783Y-104261705D01*
X157182781Y-104261705D01*
X157176752Y-104259020D01*
X157088492Y-104240260D01*
X157006689Y-104222872D01*
X157006685Y-104222872D01*
X157000232Y-104221500D01*
X156819768Y-104221500D01*
X156813315Y-104222872D01*
X156813311Y-104222872D01*
X156731508Y-104240260D01*
X156643248Y-104259020D01*
X156637219Y-104261704D01*
X156637217Y-104261705D01*
X156625475Y-104266933D01*
X156555108Y-104276367D01*
X156490811Y-104246260D01*
X156467374Y-104218599D01*
X156378192Y-104075879D01*
X156372284Y-104069929D01*
X156263248Y-103960129D01*
X156258286Y-103955132D01*
X156236806Y-103941500D01*
X156203406Y-103920304D01*
X156114608Y-103863951D01*
X155954300Y-103806868D01*
X155785329Y-103786720D01*
X155778326Y-103787456D01*
X155778325Y-103787456D01*
X155623101Y-103803770D01*
X155623097Y-103803771D01*
X155616093Y-103804507D01*
X155609422Y-103806778D01*
X155461673Y-103857075D01*
X155461670Y-103857076D01*
X155455003Y-103859346D01*
X155449005Y-103863036D01*
X155449003Y-103863037D01*
X155351831Y-103922818D01*
X155285809Y-103941500D01*
X147614239Y-103941500D01*
X147546118Y-103921498D01*
X147525144Y-103904595D01*
X147483368Y-103862819D01*
X147449342Y-103800507D01*
X147454407Y-103729692D01*
X147498401Y-103671790D01*
X147567613Y-103621504D01*
X147688367Y-103487393D01*
X147767622Y-103350120D01*
X147775295Y-103336830D01*
X147775296Y-103336829D01*
X147778599Y-103331107D01*
X147834365Y-103159475D01*
X147840575Y-103100394D01*
X147867589Y-103034737D01*
X147876790Y-103024470D01*
X147963375Y-102937885D01*
X157622000Y-102937885D01*
X157626475Y-102953124D01*
X157627865Y-102954329D01*
X157635548Y-102956000D01*
X158172885Y-102956000D01*
X158188124Y-102951525D01*
X158189329Y-102950135D01*
X158191000Y-102942452D01*
X158191000Y-101635152D01*
X158187027Y-101621621D01*
X158180353Y-101620662D01*
X158099033Y-101648345D01*
X158086367Y-101654306D01*
X157941103Y-101743672D01*
X157930071Y-101752292D01*
X157808217Y-101871620D01*
X157799369Y-101882470D01*
X157706983Y-102025824D01*
X157700753Y-102038373D01*
X157642423Y-102198634D01*
X157639131Y-102212242D01*
X157622497Y-102343919D01*
X157622000Y-102351810D01*
X157622000Y-102937885D01*
X147963375Y-102937885D01*
X150481601Y-100419659D01*
X150543913Y-100385633D01*
X150614728Y-100390698D01*
X150644751Y-100406814D01*
X150728385Y-100467578D01*
X150734413Y-100470262D01*
X150734415Y-100470263D01*
X150887217Y-100538295D01*
X150893248Y-100540980D01*
X150981508Y-100559740D01*
X151063311Y-100577128D01*
X151063315Y-100577128D01*
X151069768Y-100578500D01*
X151250232Y-100578500D01*
X151256685Y-100577128D01*
X151256689Y-100577128D01*
X151338492Y-100559740D01*
X151426752Y-100540980D01*
X151432783Y-100538295D01*
X151585585Y-100470263D01*
X151585587Y-100470262D01*
X151591615Y-100467578D01*
X151681717Y-100402115D01*
X151732269Y-100365387D01*
X151732271Y-100365385D01*
X151737613Y-100361504D01*
X151858367Y-100227393D01*
X151939017Y-100087703D01*
X151945295Y-100076830D01*
X151945296Y-100076829D01*
X151948599Y-100071107D01*
X151998274Y-99918222D01*
X152002325Y-99905754D01*
X152002325Y-99905753D01*
X152004365Y-99899475D01*
X152013915Y-99808620D01*
X152022539Y-99726565D01*
X152023229Y-99720000D01*
X152017696Y-99667356D01*
X152005055Y-99547089D01*
X152005055Y-99547088D01*
X152004365Y-99540525D01*
X151998739Y-99523208D01*
X151955227Y-99389292D01*
X151948599Y-99368893D01*
X151858367Y-99212607D01*
X151752309Y-99094817D01*
X151742035Y-99083407D01*
X151742034Y-99083406D01*
X151737613Y-99078496D01*
X151705343Y-99055050D01*
X151596957Y-98976303D01*
X151596956Y-98976302D01*
X151591615Y-98972422D01*
X151585587Y-98969738D01*
X151585585Y-98969737D01*
X151556022Y-98956575D01*
X151501926Y-98910595D01*
X151481277Y-98842668D01*
X151500629Y-98774359D01*
X151518176Y-98752373D01*
X152445497Y-97825052D01*
X152507809Y-97791026D01*
X152578624Y-97796091D01*
X152635460Y-97838638D01*
X152642366Y-97848872D01*
X152725246Y-97985723D01*
X152843455Y-98108132D01*
X152985846Y-98201310D01*
X152992450Y-98203766D01*
X152992452Y-98203767D01*
X153028844Y-98217301D01*
X153145341Y-98260626D01*
X153314015Y-98283132D01*
X153321026Y-98282494D01*
X153321030Y-98282494D01*
X153476462Y-98268348D01*
X153483483Y-98267709D01*
X153490185Y-98265531D01*
X153490187Y-98265531D01*
X153638623Y-98217301D01*
X153638626Y-98217300D01*
X153645322Y-98215124D01*
X153760823Y-98146271D01*
X153825341Y-98128500D01*
X157295761Y-98128500D01*
X157363882Y-98148502D01*
X157384856Y-98165405D01*
X159704595Y-100485144D01*
X159738621Y-100547456D01*
X159741500Y-100574239D01*
X159741500Y-101456183D01*
X159721498Y-101524304D01*
X159667842Y-101570797D01*
X159628671Y-101581493D01*
X159544160Y-101590376D01*
X159530485Y-101593382D01*
X159369033Y-101648345D01*
X159356367Y-101654306D01*
X159211103Y-101743672D01*
X159200076Y-101752288D01*
X159168629Y-101783083D01*
X159105964Y-101816453D01*
X159035205Y-101810647D01*
X158991065Y-101781843D01*
X158968921Y-101759544D01*
X158958012Y-101750773D01*
X158814010Y-101659387D01*
X158801424Y-101653248D01*
X158716066Y-101622853D01*
X158701987Y-101622057D01*
X158699000Y-101627727D01*
X158699000Y-102937885D01*
X158703475Y-102953124D01*
X158704865Y-102954329D01*
X158712548Y-102956000D01*
X159615500Y-102956000D01*
X159683621Y-102976002D01*
X159730114Y-103029658D01*
X159741500Y-103082000D01*
X159741500Y-104161864D01*
X159740422Y-104178307D01*
X159736250Y-104210000D01*
X159737328Y-104218189D01*
X159741023Y-104246260D01*
X159741500Y-104249880D01*
X159741500Y-104249885D01*
X159752366Y-104332422D01*
X159757162Y-104368851D01*
X159818476Y-104516876D01*
X159823503Y-104523427D01*
X159823504Y-104523429D01*
X159891520Y-104612069D01*
X159891526Y-104612075D01*
X159916013Y-104643987D01*
X159922565Y-104649014D01*
X159928405Y-104654855D01*
X159926767Y-104656493D01*
X159961571Y-104704158D01*
X159969000Y-104746782D01*
X159969000Y-104784848D01*
X159972973Y-104798379D01*
X159980092Y-104799402D01*
X160050302Y-104796417D01*
X160109068Y-104829617D01*
X160210685Y-104931234D01*
X160221552Y-104943625D01*
X160241013Y-104968987D01*
X160272925Y-104993474D01*
X160272928Y-104993477D01*
X160292478Y-105008478D01*
X160368125Y-105066524D01*
X160516150Y-105127838D01*
X160635115Y-105143500D01*
X160635120Y-105143500D01*
X160635129Y-105143501D01*
X160666812Y-105147672D01*
X160675000Y-105148750D01*
X160706693Y-105144578D01*
X160723136Y-105143500D01*
X161946864Y-105143500D01*
X161963307Y-105144578D01*
X161995000Y-105148750D01*
X162003189Y-105147672D01*
X162034874Y-105143501D01*
X162034884Y-105143500D01*
X162034885Y-105143500D01*
X162034901Y-105143498D01*
X162134457Y-105130391D01*
X162145664Y-105128916D01*
X162145666Y-105128915D01*
X162153851Y-105127838D01*
X162301876Y-105066524D01*
X162310229Y-105060115D01*
X162397072Y-104993477D01*
X162397075Y-104993474D01*
X162402889Y-104989013D01*
X162428987Y-104968987D01*
X162436938Y-104958625D01*
X162448452Y-104943621D01*
X162459319Y-104931230D01*
X162630805Y-104759744D01*
X162653872Y-104741526D01*
X162765205Y-104673033D01*
X162897205Y-104543770D01*
X162997286Y-104388474D01*
X162999696Y-104381853D01*
X163009190Y-104355768D01*
X169057425Y-104355768D01*
X169089138Y-104463521D01*
X169093731Y-104474889D01*
X169179607Y-104639154D01*
X169186321Y-104649415D01*
X169302468Y-104793873D01*
X169311046Y-104802632D01*
X169453039Y-104921778D01*
X169463159Y-104928708D01*
X169625585Y-105018002D01*
X169636858Y-105022834D01*
X169813538Y-105078880D01*
X169825532Y-105081430D01*
X169969761Y-105097607D01*
X169976785Y-105098000D01*
X170157885Y-105098000D01*
X170173124Y-105093525D01*
X170174329Y-105092135D01*
X170176000Y-105084452D01*
X170176000Y-105079885D01*
X170684000Y-105079885D01*
X170688475Y-105095124D01*
X170689865Y-105096329D01*
X170697548Y-105098000D01*
X170876657Y-105098000D01*
X170882805Y-105097699D01*
X171020603Y-105084188D01*
X171032638Y-105081805D01*
X171210076Y-105028233D01*
X171221416Y-105023559D01*
X171385077Y-104936540D01*
X171395294Y-104929751D01*
X171538933Y-104812603D01*
X171547637Y-104803959D01*
X171665784Y-104661144D01*
X171672644Y-104650973D01*
X171760804Y-104487924D01*
X171765556Y-104476619D01*
X171801250Y-104361308D01*
X171801331Y-104355768D01*
X172857425Y-104355768D01*
X172889138Y-104463521D01*
X172893731Y-104474889D01*
X172979607Y-104639154D01*
X172986321Y-104649415D01*
X173102468Y-104793873D01*
X173111046Y-104802632D01*
X173253039Y-104921778D01*
X173263159Y-104928708D01*
X173425585Y-105018002D01*
X173436858Y-105022834D01*
X173613538Y-105078880D01*
X173625532Y-105081430D01*
X173769761Y-105097607D01*
X173776785Y-105098000D01*
X173957885Y-105098000D01*
X173973124Y-105093525D01*
X173974329Y-105092135D01*
X173976000Y-105084452D01*
X173976000Y-105079885D01*
X174484000Y-105079885D01*
X174488475Y-105095124D01*
X174489865Y-105096329D01*
X174497548Y-105098000D01*
X174676657Y-105098000D01*
X174682805Y-105097699D01*
X174820603Y-105084188D01*
X174832638Y-105081805D01*
X175010076Y-105028233D01*
X175021416Y-105023559D01*
X175185077Y-104936540D01*
X175195294Y-104929751D01*
X175338933Y-104812603D01*
X175347637Y-104803959D01*
X175465784Y-104661144D01*
X175472644Y-104650973D01*
X175560804Y-104487924D01*
X175565556Y-104476619D01*
X175601250Y-104361308D01*
X175601456Y-104347205D01*
X175594701Y-104344000D01*
X174502115Y-104344000D01*
X174486876Y-104348475D01*
X174485671Y-104349865D01*
X174484000Y-104357548D01*
X174484000Y-105079885D01*
X173976000Y-105079885D01*
X173976000Y-104362115D01*
X173971525Y-104346876D01*
X173970135Y-104345671D01*
X173962452Y-104344000D01*
X172872076Y-104344000D01*
X172858545Y-104347973D01*
X172857425Y-104355768D01*
X171801331Y-104355768D01*
X171801456Y-104347205D01*
X171794701Y-104344000D01*
X170702115Y-104344000D01*
X170686876Y-104348475D01*
X170685671Y-104349865D01*
X170684000Y-104357548D01*
X170684000Y-105079885D01*
X170176000Y-105079885D01*
X170176000Y-104362115D01*
X170171525Y-104346876D01*
X170170135Y-104345671D01*
X170162452Y-104344000D01*
X169072076Y-104344000D01*
X169058545Y-104347973D01*
X169057425Y-104355768D01*
X163009190Y-104355768D01*
X163058066Y-104221484D01*
X163058066Y-104221483D01*
X163060475Y-104214865D01*
X163078500Y-104072180D01*
X163078500Y-103832795D01*
X169058544Y-103832795D01*
X169065299Y-103836000D01*
X170157885Y-103836000D01*
X170173124Y-103831525D01*
X170174329Y-103830135D01*
X170176000Y-103822452D01*
X170176000Y-103817885D01*
X170684000Y-103817885D01*
X170688475Y-103833124D01*
X170689865Y-103834329D01*
X170697548Y-103836000D01*
X171787924Y-103836000D01*
X171798839Y-103832795D01*
X172858544Y-103832795D01*
X172865299Y-103836000D01*
X173957885Y-103836000D01*
X173973124Y-103831525D01*
X173974329Y-103830135D01*
X173976000Y-103822452D01*
X173976000Y-103817885D01*
X174484000Y-103817885D01*
X174488475Y-103833124D01*
X174489865Y-103834329D01*
X174497548Y-103836000D01*
X175587924Y-103836000D01*
X175601455Y-103832027D01*
X175602575Y-103824232D01*
X175570862Y-103716479D01*
X175566269Y-103705111D01*
X175480393Y-103540846D01*
X175473679Y-103530585D01*
X175357532Y-103386127D01*
X175348954Y-103377368D01*
X175206961Y-103258222D01*
X175196841Y-103251292D01*
X175034415Y-103161998D01*
X175023142Y-103157166D01*
X174846462Y-103101120D01*
X174834468Y-103098570D01*
X174690239Y-103082393D01*
X174683215Y-103082000D01*
X174502115Y-103082000D01*
X174486876Y-103086475D01*
X174485671Y-103087865D01*
X174484000Y-103095548D01*
X174484000Y-103817885D01*
X173976000Y-103817885D01*
X173976000Y-103100115D01*
X173971525Y-103084876D01*
X173970135Y-103083671D01*
X173962452Y-103082000D01*
X173783343Y-103082000D01*
X173777195Y-103082301D01*
X173639397Y-103095812D01*
X173627362Y-103098195D01*
X173449924Y-103151767D01*
X173438584Y-103156441D01*
X173274923Y-103243460D01*
X173264706Y-103250249D01*
X173121067Y-103367397D01*
X173112363Y-103376041D01*
X172994216Y-103518856D01*
X172987356Y-103529027D01*
X172899196Y-103692076D01*
X172894444Y-103703381D01*
X172858750Y-103818692D01*
X172858544Y-103832795D01*
X171798839Y-103832795D01*
X171801455Y-103832027D01*
X171802575Y-103824232D01*
X171770862Y-103716479D01*
X171766269Y-103705111D01*
X171680393Y-103540846D01*
X171673679Y-103530585D01*
X171557532Y-103386127D01*
X171548954Y-103377368D01*
X171406961Y-103258222D01*
X171396841Y-103251292D01*
X171234415Y-103161998D01*
X171223142Y-103157166D01*
X171046462Y-103101120D01*
X171034468Y-103098570D01*
X170890239Y-103082393D01*
X170883215Y-103082000D01*
X170702115Y-103082000D01*
X170686876Y-103086475D01*
X170685671Y-103087865D01*
X170684000Y-103095548D01*
X170684000Y-103817885D01*
X170176000Y-103817885D01*
X170176000Y-103100115D01*
X170171525Y-103084876D01*
X170170135Y-103083671D01*
X170162452Y-103082000D01*
X169983343Y-103082000D01*
X169977195Y-103082301D01*
X169839397Y-103095812D01*
X169827362Y-103098195D01*
X169649924Y-103151767D01*
X169638584Y-103156441D01*
X169474923Y-103243460D01*
X169464706Y-103250249D01*
X169321067Y-103367397D01*
X169312363Y-103376041D01*
X169194216Y-103518856D01*
X169187356Y-103529027D01*
X169099196Y-103692076D01*
X169094444Y-103703381D01*
X169058750Y-103818692D01*
X169058544Y-103832795D01*
X163078500Y-103832795D01*
X163078500Y-102353543D01*
X163063117Y-102216400D01*
X163043780Y-102160870D01*
X163004677Y-102048583D01*
X163002359Y-102041926D01*
X162992298Y-102025824D01*
X162908188Y-101891222D01*
X162904455Y-101885248D01*
X162890922Y-101871620D01*
X162779237Y-101759152D01*
X162779233Y-101759149D01*
X162774273Y-101754154D01*
X162704399Y-101709810D01*
X162624235Y-101658936D01*
X162624233Y-101658935D01*
X162618283Y-101655159D01*
X162558612Y-101633911D01*
X162450872Y-101595546D01*
X162450867Y-101595545D01*
X162444237Y-101593184D01*
X162437251Y-101592351D01*
X162437247Y-101592350D01*
X162306100Y-101576712D01*
X162260785Y-101571309D01*
X162253782Y-101572045D01*
X162253781Y-101572045D01*
X162202600Y-101577425D01*
X162077046Y-101590621D01*
X162070380Y-101592890D01*
X162070377Y-101592891D01*
X161908816Y-101647891D01*
X161908813Y-101647892D01*
X161902152Y-101650160D01*
X161835520Y-101691153D01*
X161767021Y-101709810D01*
X161699307Y-101688471D01*
X161653879Y-101633911D01*
X161643500Y-101583834D01*
X161643500Y-100395871D01*
X163121776Y-100395871D01*
X163158357Y-100521784D01*
X163164604Y-100536220D01*
X163239876Y-100663499D01*
X163249516Y-100675926D01*
X163354074Y-100780484D01*
X163366501Y-100790124D01*
X163493780Y-100865396D01*
X163508216Y-100871643D01*
X163651641Y-100913312D01*
X163659609Y-100914768D01*
X163673031Y-100911948D01*
X163676000Y-100900487D01*
X163676000Y-100898424D01*
X164184000Y-100898424D01*
X164188344Y-100913219D01*
X164198775Y-100915063D01*
X164208359Y-100913312D01*
X164351784Y-100871643D01*
X164366220Y-100865396D01*
X164493499Y-100790124D01*
X164505926Y-100780484D01*
X164610484Y-100675926D01*
X164620124Y-100663499D01*
X164695396Y-100536220D01*
X164701643Y-100521784D01*
X164736619Y-100401395D01*
X164736579Y-100387295D01*
X164729309Y-100384000D01*
X164202115Y-100384000D01*
X164186876Y-100388475D01*
X164185671Y-100389865D01*
X164184000Y-100397548D01*
X164184000Y-100898424D01*
X163676000Y-100898424D01*
X163676000Y-100402115D01*
X163671525Y-100386876D01*
X163670135Y-100385671D01*
X163662452Y-100384000D01*
X163136442Y-100384000D01*
X163122911Y-100387973D01*
X163121776Y-100395871D01*
X161643500Y-100395871D01*
X161643500Y-100097060D01*
X161644059Y-100085203D01*
X161645789Y-100077463D01*
X161645154Y-100057240D01*
X161643562Y-100006599D01*
X161643500Y-100002641D01*
X161643500Y-99973568D01*
X161642947Y-99969189D01*
X161642014Y-99957346D01*
X161641976Y-99956111D01*
X161640563Y-99911169D01*
X161634579Y-99890571D01*
X161630571Y-99871218D01*
X161629604Y-99863567D01*
X161627882Y-99849936D01*
X161621338Y-99833406D01*
X161610875Y-99806982D01*
X161607029Y-99795747D01*
X161596358Y-99759016D01*
X161596357Y-99759013D01*
X161594145Y-99751400D01*
X161583225Y-99732935D01*
X161574534Y-99715195D01*
X161566635Y-99695244D01*
X161539482Y-99657871D01*
X161532967Y-99647952D01*
X161513493Y-99615023D01*
X161513490Y-99615019D01*
X161509453Y-99608193D01*
X161494289Y-99593029D01*
X161481448Y-99577995D01*
X161480306Y-99576423D01*
X161468841Y-99560643D01*
X161433247Y-99531197D01*
X161424468Y-99523208D01*
X161045405Y-99144145D01*
X161011379Y-99081833D01*
X161008500Y-99055050D01*
X161008500Y-97898561D01*
X161028502Y-97830440D01*
X161082158Y-97783947D01*
X161121331Y-97773251D01*
X161155840Y-97769624D01*
X161169514Y-97766618D01*
X161330967Y-97711655D01*
X161343635Y-97705693D01*
X161404477Y-97668263D01*
X161472978Y-97649604D01*
X161540693Y-97670943D01*
X161586121Y-97725502D01*
X161596500Y-97775580D01*
X161596500Y-98712944D01*
X161595941Y-98724800D01*
X161594212Y-98732537D01*
X161594461Y-98740459D01*
X161596438Y-98803369D01*
X161596500Y-98807327D01*
X161596500Y-98836432D01*
X161597056Y-98840832D01*
X161597988Y-98852664D01*
X161599438Y-98898831D01*
X161603126Y-98911523D01*
X161605419Y-98919416D01*
X161609430Y-98938782D01*
X161612118Y-98960064D01*
X161615034Y-98967429D01*
X161615035Y-98967433D01*
X161629126Y-99003021D01*
X161632965Y-99014231D01*
X161645855Y-99058600D01*
X161656775Y-99077065D01*
X161665466Y-99094805D01*
X161673365Y-99114756D01*
X161700516Y-99152126D01*
X161707033Y-99162048D01*
X161726507Y-99194977D01*
X161726510Y-99194981D01*
X161730547Y-99201807D01*
X161745711Y-99216971D01*
X161758551Y-99232004D01*
X161771159Y-99249357D01*
X161806752Y-99278802D01*
X161815532Y-99286792D01*
X162106345Y-99577605D01*
X162114335Y-99586385D01*
X162118584Y-99593080D01*
X162124362Y-99598506D01*
X162124363Y-99598507D01*
X162170257Y-99641604D01*
X162173099Y-99644359D01*
X162193667Y-99664927D01*
X162197170Y-99667644D01*
X162206195Y-99675352D01*
X162239867Y-99706972D01*
X162246818Y-99710793D01*
X162246819Y-99710794D01*
X162258658Y-99717303D01*
X162275182Y-99728157D01*
X162285271Y-99735982D01*
X162292132Y-99741304D01*
X162299404Y-99744451D01*
X162299406Y-99744452D01*
X162334535Y-99759654D01*
X162345196Y-99764876D01*
X162385663Y-99787124D01*
X162406441Y-99792459D01*
X162425131Y-99798858D01*
X162444824Y-99807380D01*
X162488596Y-99814313D01*
X162490448Y-99814606D01*
X162502071Y-99817013D01*
X162530072Y-99824202D01*
X162546812Y-99828500D01*
X162568259Y-99828500D01*
X162587969Y-99830051D01*
X162609152Y-99833406D01*
X162655141Y-99829059D01*
X162666996Y-99828500D01*
X163025119Y-99828500D01*
X163093240Y-99848502D01*
X163112588Y-99867795D01*
X163130691Y-99876000D01*
X163408621Y-99876000D01*
X163472760Y-99893546D01*
X163493403Y-99905754D01*
X163500403Y-99909894D01*
X163508014Y-99912105D01*
X163508016Y-99912106D01*
X163558995Y-99926916D01*
X163657746Y-99955606D01*
X163664151Y-99956110D01*
X163664156Y-99956111D01*
X163692060Y-99958307D01*
X163692068Y-99958307D01*
X163694516Y-99958500D01*
X164165484Y-99958500D01*
X164167932Y-99958307D01*
X164167940Y-99958307D01*
X164195844Y-99956111D01*
X164195849Y-99956110D01*
X164202254Y-99955606D01*
X164301005Y-99926916D01*
X164351984Y-99912106D01*
X164351986Y-99912105D01*
X164359597Y-99909894D01*
X164366598Y-99905754D01*
X164387240Y-99893546D01*
X164451379Y-99876000D01*
X164723558Y-99876000D01*
X164737089Y-99872027D01*
X164738224Y-99864129D01*
X164701643Y-99738216D01*
X164695395Y-99723778D01*
X164689984Y-99714628D01*
X164672526Y-99645812D01*
X164689985Y-99586353D01*
X164695857Y-99576423D01*
X164699894Y-99569597D01*
X164702496Y-99560643D01*
X164743811Y-99418431D01*
X164745606Y-99412254D01*
X164747414Y-99389292D01*
X164748307Y-99377940D01*
X164748307Y-99377932D01*
X164748500Y-99375484D01*
X164748500Y-98964516D01*
X164745606Y-98927746D01*
X164710045Y-98805342D01*
X164702106Y-98778016D01*
X164702105Y-98778014D01*
X164699894Y-98770403D01*
X164672925Y-98724800D01*
X164620522Y-98636192D01*
X164616488Y-98629371D01*
X164614184Y-98627067D01*
X164588994Y-98562915D01*
X164588500Y-98551771D01*
X164588500Y-98526383D01*
X164608502Y-98458262D01*
X164662158Y-98411769D01*
X164732432Y-98401665D01*
X164775967Y-98416393D01*
X164826409Y-98444584D01*
X165005180Y-98502670D01*
X165191830Y-98524927D01*
X165197965Y-98524455D01*
X165197967Y-98524455D01*
X165373105Y-98510979D01*
X165373109Y-98510978D01*
X165379247Y-98510506D01*
X165464378Y-98486737D01*
X165554350Y-98461616D01*
X165554353Y-98461615D01*
X165560294Y-98459956D01*
X165565798Y-98457176D01*
X165565800Y-98457175D01*
X165722574Y-98377983D01*
X165722576Y-98377982D01*
X165728075Y-98375204D01*
X165876199Y-98259477D01*
X165880225Y-98254813D01*
X165994994Y-98121852D01*
X165994995Y-98121850D01*
X165999023Y-98117184D01*
X166091870Y-97953744D01*
X166151203Y-97775382D01*
X166174762Y-97588892D01*
X166175018Y-97570584D01*
X166175089Y-97565522D01*
X166175089Y-97565518D01*
X166175138Y-97562000D01*
X166156795Y-97374926D01*
X166152172Y-97359612D01*
X166104246Y-97200877D01*
X166102465Y-97194977D01*
X166014218Y-97029008D01*
X165895415Y-96883340D01*
X165781831Y-96789375D01*
X165755329Y-96767450D01*
X165755324Y-96767447D01*
X165750580Y-96763522D01*
X165745161Y-96760592D01*
X165745158Y-96760590D01*
X165675671Y-96723019D01*
X165585231Y-96674119D01*
X165405666Y-96618534D01*
X165399541Y-96617890D01*
X165399540Y-96617890D01*
X165224852Y-96599529D01*
X165224851Y-96599529D01*
X165218724Y-96598885D01*
X165141673Y-96605897D01*
X165037665Y-96615363D01*
X165037662Y-96615364D01*
X165031526Y-96615922D01*
X165025620Y-96617660D01*
X165025616Y-96617661D01*
X164904940Y-96653178D01*
X164851202Y-96668994D01*
X164684621Y-96756080D01*
X164538128Y-96873864D01*
X164536592Y-96871954D01*
X164483463Y-96900254D01*
X164461915Y-96902801D01*
X164445953Y-96903302D01*
X164441628Y-96903438D01*
X164437673Y-96903500D01*
X164408568Y-96903500D01*
X164404168Y-96904056D01*
X164392336Y-96904988D01*
X164346169Y-96906438D01*
X164325579Y-96912420D01*
X164306218Y-96916430D01*
X164299230Y-96917312D01*
X164292796Y-96918125D01*
X164292795Y-96918125D01*
X164284936Y-96919118D01*
X164277571Y-96922034D01*
X164277567Y-96922035D01*
X164241979Y-96936126D01*
X164230769Y-96939965D01*
X164186400Y-96952855D01*
X164167935Y-96963775D01*
X164150195Y-96972466D01*
X164130244Y-96980365D01*
X164092874Y-97007516D01*
X164082952Y-97014033D01*
X164050023Y-97033507D01*
X164050019Y-97033510D01*
X164043193Y-97037547D01*
X164028029Y-97052711D01*
X164012996Y-97065551D01*
X163995643Y-97078159D01*
X163983001Y-97093441D01*
X163966198Y-97113752D01*
X163958208Y-97122532D01*
X163522395Y-97558345D01*
X163513615Y-97566335D01*
X163513613Y-97566337D01*
X163506920Y-97570584D01*
X163501494Y-97576362D01*
X163501493Y-97576363D01*
X163458396Y-97622257D01*
X163455641Y-97625099D01*
X163435073Y-97645667D01*
X163432356Y-97649170D01*
X163424648Y-97658195D01*
X163393028Y-97691867D01*
X163389207Y-97698818D01*
X163389206Y-97698819D01*
X163382697Y-97710658D01*
X163371843Y-97727182D01*
X163364018Y-97737271D01*
X163358696Y-97744132D01*
X163355549Y-97751404D01*
X163355548Y-97751406D01*
X163340346Y-97786535D01*
X163335124Y-97797195D01*
X163321715Y-97821586D01*
X163312876Y-97837663D01*
X163307541Y-97858441D01*
X163301142Y-97877131D01*
X163292620Y-97896824D01*
X163287079Y-97931812D01*
X163285394Y-97942448D01*
X163282987Y-97954071D01*
X163271500Y-97998812D01*
X163271500Y-98020259D01*
X163269949Y-98039969D01*
X163266594Y-98061152D01*
X163267340Y-98069043D01*
X163270941Y-98107138D01*
X163271500Y-98118996D01*
X163271500Y-98385500D01*
X163251498Y-98453621D01*
X163197842Y-98500114D01*
X163145500Y-98511500D01*
X163039500Y-98511500D01*
X162971379Y-98491498D01*
X162924886Y-98437842D01*
X162913500Y-98385500D01*
X162913500Y-97495569D01*
X162933589Y-97427314D01*
X162993467Y-97334402D01*
X162993471Y-97334393D01*
X162997286Y-97328474D01*
X162999803Y-97321558D01*
X163058066Y-97161484D01*
X163058066Y-97161483D01*
X163060475Y-97154865D01*
X163078500Y-97012180D01*
X163078500Y-95715768D01*
X169057425Y-95715768D01*
X169089138Y-95823521D01*
X169093731Y-95834889D01*
X169179607Y-95999154D01*
X169186321Y-96009415D01*
X169302468Y-96153873D01*
X169311046Y-96162632D01*
X169453039Y-96281778D01*
X169463159Y-96288708D01*
X169625585Y-96378002D01*
X169636858Y-96382834D01*
X169813538Y-96438880D01*
X169825532Y-96441430D01*
X169969761Y-96457607D01*
X169976785Y-96458000D01*
X170157885Y-96458000D01*
X170173124Y-96453525D01*
X170174329Y-96452135D01*
X170176000Y-96444452D01*
X170176000Y-96439885D01*
X170684000Y-96439885D01*
X170688475Y-96455124D01*
X170689865Y-96456329D01*
X170697548Y-96458000D01*
X170876657Y-96458000D01*
X170882805Y-96457699D01*
X171020603Y-96444188D01*
X171032638Y-96441805D01*
X171210076Y-96388233D01*
X171221416Y-96383559D01*
X171385077Y-96296540D01*
X171395294Y-96289751D01*
X171538933Y-96172603D01*
X171547637Y-96163959D01*
X171665784Y-96021144D01*
X171672644Y-96010973D01*
X171760804Y-95847924D01*
X171765556Y-95836619D01*
X171801250Y-95721308D01*
X171801331Y-95715768D01*
X172857425Y-95715768D01*
X172889138Y-95823521D01*
X172893731Y-95834889D01*
X172979607Y-95999154D01*
X172986321Y-96009415D01*
X173102468Y-96153873D01*
X173111046Y-96162632D01*
X173253039Y-96281778D01*
X173263159Y-96288708D01*
X173425585Y-96378002D01*
X173436858Y-96382834D01*
X173613538Y-96438880D01*
X173625532Y-96441430D01*
X173769761Y-96457607D01*
X173776785Y-96458000D01*
X173957885Y-96458000D01*
X173973124Y-96453525D01*
X173974329Y-96452135D01*
X173976000Y-96444452D01*
X173976000Y-96439885D01*
X174484000Y-96439885D01*
X174488475Y-96455124D01*
X174489865Y-96456329D01*
X174497548Y-96458000D01*
X174676657Y-96458000D01*
X174682805Y-96457699D01*
X174820603Y-96444188D01*
X174832638Y-96441805D01*
X175010076Y-96388233D01*
X175021416Y-96383559D01*
X175185077Y-96296540D01*
X175195294Y-96289751D01*
X175338933Y-96172603D01*
X175347637Y-96163959D01*
X175465784Y-96021144D01*
X175472644Y-96010973D01*
X175560804Y-95847924D01*
X175565556Y-95836619D01*
X175601250Y-95721308D01*
X175601456Y-95707205D01*
X175594701Y-95704000D01*
X174502115Y-95704000D01*
X174486876Y-95708475D01*
X174485671Y-95709865D01*
X174484000Y-95717548D01*
X174484000Y-96439885D01*
X173976000Y-96439885D01*
X173976000Y-95722115D01*
X173971525Y-95706876D01*
X173970135Y-95705671D01*
X173962452Y-95704000D01*
X172872076Y-95704000D01*
X172858545Y-95707973D01*
X172857425Y-95715768D01*
X171801331Y-95715768D01*
X171801456Y-95707205D01*
X171794701Y-95704000D01*
X170702115Y-95704000D01*
X170686876Y-95708475D01*
X170685671Y-95709865D01*
X170684000Y-95717548D01*
X170684000Y-96439885D01*
X170176000Y-96439885D01*
X170176000Y-95722115D01*
X170171525Y-95706876D01*
X170170135Y-95705671D01*
X170162452Y-95704000D01*
X169072076Y-95704000D01*
X169058545Y-95707973D01*
X169057425Y-95715768D01*
X163078500Y-95715768D01*
X163078500Y-95293543D01*
X163067199Y-95192795D01*
X169058544Y-95192795D01*
X169065299Y-95196000D01*
X170157885Y-95196000D01*
X170173124Y-95191525D01*
X170174329Y-95190135D01*
X170176000Y-95182452D01*
X170176000Y-95177885D01*
X170684000Y-95177885D01*
X170688475Y-95193124D01*
X170689865Y-95194329D01*
X170697548Y-95196000D01*
X171787924Y-95196000D01*
X171798839Y-95192795D01*
X172858544Y-95192795D01*
X172865299Y-95196000D01*
X173957885Y-95196000D01*
X173973124Y-95191525D01*
X173974329Y-95190135D01*
X173976000Y-95182452D01*
X173976000Y-95177885D01*
X174484000Y-95177885D01*
X174488475Y-95193124D01*
X174489865Y-95194329D01*
X174497548Y-95196000D01*
X175587924Y-95196000D01*
X175601455Y-95192027D01*
X175602575Y-95184232D01*
X175570862Y-95076479D01*
X175566269Y-95065111D01*
X175480393Y-94900846D01*
X175473679Y-94890585D01*
X175357532Y-94746127D01*
X175348954Y-94737368D01*
X175206961Y-94618222D01*
X175196841Y-94611292D01*
X175034415Y-94521998D01*
X175023142Y-94517166D01*
X174846462Y-94461120D01*
X174834468Y-94458570D01*
X174690239Y-94442393D01*
X174683215Y-94442000D01*
X174502115Y-94442000D01*
X174486876Y-94446475D01*
X174485671Y-94447865D01*
X174484000Y-94455548D01*
X174484000Y-95177885D01*
X173976000Y-95177885D01*
X173976000Y-94460115D01*
X173971525Y-94444876D01*
X173970135Y-94443671D01*
X173962452Y-94442000D01*
X173783343Y-94442000D01*
X173777195Y-94442301D01*
X173639397Y-94455812D01*
X173627362Y-94458195D01*
X173449924Y-94511767D01*
X173438584Y-94516441D01*
X173274923Y-94603460D01*
X173264706Y-94610249D01*
X173121067Y-94727397D01*
X173112363Y-94736041D01*
X172994216Y-94878856D01*
X172987356Y-94889027D01*
X172899196Y-95052076D01*
X172894444Y-95063381D01*
X172858750Y-95178692D01*
X172858544Y-95192795D01*
X171798839Y-95192795D01*
X171801455Y-95192027D01*
X171802575Y-95184232D01*
X171770862Y-95076479D01*
X171766269Y-95065111D01*
X171680393Y-94900846D01*
X171673679Y-94890585D01*
X171557532Y-94746127D01*
X171548954Y-94737368D01*
X171406961Y-94618222D01*
X171396841Y-94611292D01*
X171234415Y-94521998D01*
X171223142Y-94517166D01*
X171046462Y-94461120D01*
X171034468Y-94458570D01*
X170890239Y-94442393D01*
X170883215Y-94442000D01*
X170702115Y-94442000D01*
X170686876Y-94446475D01*
X170685671Y-94447865D01*
X170684000Y-94455548D01*
X170684000Y-95177885D01*
X170176000Y-95177885D01*
X170176000Y-94460115D01*
X170171525Y-94444876D01*
X170170135Y-94443671D01*
X170162452Y-94442000D01*
X169983343Y-94442000D01*
X169977195Y-94442301D01*
X169839397Y-94455812D01*
X169827362Y-94458195D01*
X169649924Y-94511767D01*
X169638584Y-94516441D01*
X169474923Y-94603460D01*
X169464706Y-94610249D01*
X169321067Y-94727397D01*
X169312363Y-94736041D01*
X169194216Y-94878856D01*
X169187356Y-94889027D01*
X169099196Y-95052076D01*
X169094444Y-95063381D01*
X169058750Y-95178692D01*
X169058544Y-95192795D01*
X163067199Y-95192795D01*
X163063117Y-95156400D01*
X163047643Y-95111963D01*
X163031327Y-95065111D01*
X163002359Y-94981926D01*
X162995861Y-94971526D01*
X162908188Y-94831222D01*
X162904455Y-94825248D01*
X162895500Y-94816230D01*
X162779237Y-94699152D01*
X162779233Y-94699149D01*
X162774273Y-94694154D01*
X162697705Y-94645562D01*
X162624235Y-94598936D01*
X162624233Y-94598935D01*
X162618283Y-94595159D01*
X162587316Y-94584132D01*
X162450872Y-94535546D01*
X162450867Y-94535545D01*
X162444237Y-94533184D01*
X162437251Y-94532351D01*
X162437247Y-94532350D01*
X162303824Y-94516441D01*
X162260785Y-94511309D01*
X162253782Y-94512045D01*
X162253781Y-94512045D01*
X162211958Y-94516441D01*
X162077046Y-94530621D01*
X162070380Y-94532890D01*
X162070377Y-94532891D01*
X161908816Y-94587891D01*
X161908813Y-94587892D01*
X161902152Y-94590160D01*
X161896154Y-94593850D01*
X161896152Y-94593851D01*
X161750797Y-94683274D01*
X161750794Y-94683277D01*
X161744795Y-94686967D01*
X161708274Y-94722730D01*
X161645611Y-94756099D01*
X161574853Y-94750293D01*
X161530712Y-94721488D01*
X161508921Y-94699544D01*
X161498012Y-94690773D01*
X161354005Y-94599383D01*
X161341429Y-94593250D01*
X161180756Y-94536036D01*
X161167132Y-94532841D01*
X161119580Y-94527170D01*
X161054307Y-94499242D01*
X161014495Y-94440459D01*
X161008500Y-94402056D01*
X161008500Y-93722056D01*
X161009059Y-93710200D01*
X161009059Y-93710197D01*
X161010788Y-93702463D01*
X161008562Y-93631631D01*
X161008500Y-93627673D01*
X161008500Y-93598568D01*
X161007944Y-93594168D01*
X161007012Y-93582330D01*
X161005811Y-93544094D01*
X161005562Y-93536169D01*
X160999580Y-93515579D01*
X160995570Y-93496216D01*
X160993875Y-93482796D01*
X160993875Y-93482795D01*
X160992882Y-93474936D01*
X160989966Y-93467571D01*
X160989965Y-93467567D01*
X160975874Y-93431979D01*
X160972035Y-93420769D01*
X160959145Y-93376400D01*
X160948229Y-93357943D01*
X160939534Y-93340193D01*
X160931635Y-93320244D01*
X160926603Y-93313318D01*
X160904477Y-93282864D01*
X160897960Y-93272943D01*
X160892937Y-93264449D01*
X160874452Y-93233193D01*
X160859291Y-93218032D01*
X160846449Y-93202997D01*
X160833841Y-93185643D01*
X160798248Y-93156198D01*
X160789467Y-93148208D01*
X160365404Y-92724144D01*
X160331379Y-92661832D01*
X160328500Y-92635049D01*
X160328500Y-92307554D01*
X160348502Y-92239433D01*
X160402158Y-92192940D01*
X160472432Y-92182836D01*
X160499449Y-92189844D01*
X160549692Y-92209030D01*
X160554760Y-92210061D01*
X160554763Y-92210062D01*
X160652762Y-92230000D01*
X160768597Y-92253567D01*
X160773772Y-92253757D01*
X160773774Y-92253757D01*
X160986673Y-92261564D01*
X160986677Y-92261564D01*
X160991837Y-92261753D01*
X160996957Y-92261097D01*
X160996959Y-92261097D01*
X161208288Y-92234025D01*
X161208289Y-92234025D01*
X161213416Y-92233368D01*
X161218366Y-92231883D01*
X161422429Y-92170661D01*
X161422434Y-92170659D01*
X161427384Y-92169174D01*
X161627994Y-92070896D01*
X161809860Y-91941173D01*
X161968096Y-91783489D01*
X161986783Y-91757484D01*
X162098453Y-91602077D01*
X162099776Y-91603028D01*
X162146645Y-91559857D01*
X162216580Y-91547625D01*
X162282026Y-91575144D01*
X162309875Y-91606994D01*
X162369987Y-91705088D01*
X162516250Y-91873938D01*
X162688126Y-92016632D01*
X162881000Y-92129338D01*
X162885825Y-92131180D01*
X162885826Y-92131181D01*
X162958612Y-92158975D01*
X163089692Y-92209030D01*
X163094760Y-92210061D01*
X163094763Y-92210062D01*
X163192762Y-92230000D01*
X163308597Y-92253567D01*
X163313772Y-92253757D01*
X163313774Y-92253757D01*
X163526673Y-92261564D01*
X163526677Y-92261564D01*
X163531837Y-92261753D01*
X163536957Y-92261097D01*
X163536959Y-92261097D01*
X163748288Y-92234025D01*
X163748289Y-92234025D01*
X163753416Y-92233368D01*
X163758366Y-92231883D01*
X163962429Y-92170661D01*
X163962434Y-92170659D01*
X163967384Y-92169174D01*
X164167994Y-92070896D01*
X164349860Y-91941173D01*
X164458091Y-91833319D01*
X164520462Y-91799404D01*
X164591268Y-91804592D01*
X164648030Y-91847238D01*
X164665012Y-91878341D01*
X164709385Y-91996705D01*
X164796739Y-92113261D01*
X164913295Y-92200615D01*
X165049684Y-92251745D01*
X165111866Y-92258500D01*
X166908134Y-92258500D01*
X166970316Y-92251745D01*
X167106705Y-92200615D01*
X167223261Y-92113261D01*
X167310615Y-91996705D01*
X167361745Y-91860316D01*
X167368500Y-91798134D01*
X167368500Y-90001866D01*
X167361745Y-89939684D01*
X167312652Y-89808728D01*
X167307469Y-89737923D01*
X167341390Y-89675554D01*
X167403645Y-89641424D01*
X167430634Y-89638500D01*
X173675070Y-89638500D01*
X173684748Y-89638872D01*
X173733555Y-89642632D01*
X173742342Y-89640781D01*
X173742343Y-89640781D01*
X173750917Y-89638975D01*
X173774452Y-89636293D01*
X173860526Y-89634628D01*
X174029412Y-89631362D01*
X174044064Y-89631932D01*
G37*
%TD.AperFunction*%
%TA.AperFunction,Conductor*%
G36*
X145086012Y-97209068D02*
G01*
X145153693Y-97253357D01*
X145165846Y-97261310D01*
X145172450Y-97263766D01*
X145172452Y-97263767D01*
X145245593Y-97290968D01*
X145325341Y-97320626D01*
X145494015Y-97343132D01*
X145501026Y-97342494D01*
X145501030Y-97342494D01*
X145656462Y-97328348D01*
X145663483Y-97327709D01*
X145670183Y-97325532D01*
X145670188Y-97325531D01*
X145726564Y-97307213D01*
X145797532Y-97305186D01*
X145858330Y-97341848D01*
X145889655Y-97405561D01*
X145891500Y-97427046D01*
X145891500Y-97575761D01*
X145871498Y-97643882D01*
X145854595Y-97664856D01*
X136184440Y-107335011D01*
X136122128Y-107369037D01*
X136053285Y-107364689D01*
X135853087Y-107293795D01*
X135853083Y-107293794D01*
X135848212Y-107292069D01*
X135843119Y-107291162D01*
X135843116Y-107291161D01*
X135633373Y-107253800D01*
X135633367Y-107253799D01*
X135628284Y-107252894D01*
X135554452Y-107251992D01*
X135410081Y-107250228D01*
X135410079Y-107250228D01*
X135404911Y-107250165D01*
X135184091Y-107283955D01*
X134971756Y-107353357D01*
X134773607Y-107456507D01*
X134769474Y-107459610D01*
X134769471Y-107459612D01*
X134599100Y-107587530D01*
X134594965Y-107590635D01*
X134591393Y-107594373D01*
X134465598Y-107726010D01*
X134440629Y-107752138D01*
X134333201Y-107909621D01*
X134278293Y-107954621D01*
X134207768Y-107962792D01*
X134144021Y-107931538D01*
X134123324Y-107907054D01*
X134042822Y-107782617D01*
X134042820Y-107782614D01*
X134040014Y-107778277D01*
X134036538Y-107774457D01*
X134036533Y-107774450D01*
X133921307Y-107647819D01*
X133890255Y-107583973D01*
X133888500Y-107563019D01*
X133888500Y-105404239D01*
X133908502Y-105336118D01*
X133925405Y-105315144D01*
X142015144Y-97225405D01*
X142077456Y-97191379D01*
X142104239Y-97188500D01*
X145017019Y-97188500D01*
X145086012Y-97209068D01*
G37*
%TD.AperFunction*%
%TA.AperFunction,Conductor*%
G36*
X137434882Y-99138502D02*
G01*
X137481375Y-99192158D01*
X137491479Y-99262432D01*
X137461985Y-99327012D01*
X137455856Y-99333595D01*
X133844856Y-102944595D01*
X133782544Y-102978621D01*
X133755761Y-102981500D01*
X131874500Y-102981500D01*
X131806379Y-102961498D01*
X131759886Y-102907842D01*
X131748500Y-102855500D01*
X131748500Y-102691866D01*
X131741745Y-102629684D01*
X131690615Y-102493295D01*
X131603261Y-102376739D01*
X131486705Y-102289385D01*
X131367687Y-102244767D01*
X131310923Y-102202125D01*
X131286223Y-102135564D01*
X131301430Y-102066215D01*
X131322977Y-102037535D01*
X131424052Y-101936812D01*
X131430730Y-101928965D01*
X131555003Y-101756020D01*
X131560313Y-101747183D01*
X131654670Y-101556267D01*
X131658469Y-101546672D01*
X131720377Y-101342910D01*
X131722555Y-101332837D01*
X131723986Y-101321962D01*
X131721775Y-101307778D01*
X131708617Y-101304000D01*
X130262000Y-101304000D01*
X130193879Y-101283998D01*
X130147386Y-101230342D01*
X130136000Y-101178000D01*
X130136000Y-100922000D01*
X130156002Y-100853879D01*
X130209658Y-100807386D01*
X130262000Y-100796000D01*
X131708344Y-100796000D01*
X131721875Y-100792027D01*
X131723180Y-100782947D01*
X131681214Y-100615875D01*
X131677894Y-100606124D01*
X131592972Y-100410814D01*
X131588105Y-100401739D01*
X131472426Y-100222926D01*
X131466136Y-100214757D01*
X131322806Y-100057240D01*
X131315273Y-100050215D01*
X131148139Y-99918222D01*
X131139556Y-99912520D01*
X131102602Y-99892120D01*
X131052631Y-99841687D01*
X131037859Y-99772245D01*
X131062975Y-99705839D01*
X131090327Y-99679232D01*
X131139217Y-99644359D01*
X131269860Y-99551173D01*
X131273959Y-99547089D01*
X131424435Y-99397137D01*
X131428096Y-99393489D01*
X131510507Y-99278802D01*
X131555435Y-99216277D01*
X131558453Y-99212077D01*
X131566904Y-99194977D01*
X131570019Y-99188675D01*
X131618132Y-99136467D01*
X131682977Y-99118500D01*
X137366761Y-99118500D01*
X137434882Y-99138502D01*
G37*
%TD.AperFunction*%
%TA.AperFunction,Conductor*%
G36*
X132097911Y-89658502D02*
G01*
X132144404Y-89712158D01*
X132154508Y-89782432D01*
X132125014Y-89847012D01*
X132105445Y-89865258D01*
X132084965Y-89880635D01*
X131930629Y-90042138D01*
X131927720Y-90046403D01*
X131927714Y-90046411D01*
X131842556Y-90171249D01*
X131804743Y-90226680D01*
X131710688Y-90429305D01*
X131650989Y-90644570D01*
X131627251Y-90866695D01*
X131627548Y-90871848D01*
X131627548Y-90871851D01*
X131635581Y-91011169D01*
X131640110Y-91089715D01*
X131641247Y-91094761D01*
X131641248Y-91094767D01*
X131656280Y-91161468D01*
X131689222Y-91307639D01*
X131773266Y-91514616D01*
X131810685Y-91575678D01*
X131887291Y-91700688D01*
X131889987Y-91705088D01*
X132036250Y-91873938D01*
X132208126Y-92016632D01*
X132401000Y-92129338D01*
X132405825Y-92131180D01*
X132405826Y-92131181D01*
X132478612Y-92158975D01*
X132609692Y-92209030D01*
X132614760Y-92210061D01*
X132614763Y-92210062D01*
X132712762Y-92230000D01*
X132828597Y-92253567D01*
X132833772Y-92253757D01*
X132833774Y-92253757D01*
X133046673Y-92261564D01*
X133046677Y-92261564D01*
X133051837Y-92261753D01*
X133056957Y-92261097D01*
X133056959Y-92261097D01*
X133268288Y-92234025D01*
X133268289Y-92234025D01*
X133273416Y-92233368D01*
X133278366Y-92231883D01*
X133482429Y-92170661D01*
X133482434Y-92170659D01*
X133487384Y-92169174D01*
X133687994Y-92070896D01*
X133869860Y-91941173D01*
X134028096Y-91783489D01*
X134046783Y-91757484D01*
X134158453Y-91602077D01*
X134159776Y-91603028D01*
X134206645Y-91559857D01*
X134276580Y-91547625D01*
X134342026Y-91575144D01*
X134369875Y-91606994D01*
X134429987Y-91705088D01*
X134576250Y-91873938D01*
X134748126Y-92016632D01*
X134941000Y-92129338D01*
X134945825Y-92131180D01*
X134945826Y-92131181D01*
X135018612Y-92158975D01*
X135149692Y-92209030D01*
X135154760Y-92210061D01*
X135154763Y-92210062D01*
X135252762Y-92230000D01*
X135368597Y-92253567D01*
X135373772Y-92253757D01*
X135373774Y-92253757D01*
X135586673Y-92261564D01*
X135586677Y-92261564D01*
X135591837Y-92261753D01*
X135596957Y-92261097D01*
X135596959Y-92261097D01*
X135808288Y-92234025D01*
X135808289Y-92234025D01*
X135813416Y-92233368D01*
X135818366Y-92231883D01*
X136022429Y-92170661D01*
X136022434Y-92170659D01*
X136027384Y-92169174D01*
X136227994Y-92070896D01*
X136409860Y-91941173D01*
X136568096Y-91783489D01*
X136586783Y-91757484D01*
X136698453Y-91602077D01*
X136699776Y-91603028D01*
X136746645Y-91559857D01*
X136816580Y-91547625D01*
X136882026Y-91575144D01*
X136909875Y-91606994D01*
X136969987Y-91705088D01*
X137116250Y-91873938D01*
X137288126Y-92016632D01*
X137481000Y-92129338D01*
X137485825Y-92131180D01*
X137485826Y-92131181D01*
X137558612Y-92158975D01*
X137689692Y-92209030D01*
X137694760Y-92210061D01*
X137694763Y-92210062D01*
X137792762Y-92230000D01*
X137908597Y-92253567D01*
X137913772Y-92253757D01*
X137913774Y-92253757D01*
X138126673Y-92261564D01*
X138126677Y-92261564D01*
X138131837Y-92261753D01*
X138136957Y-92261097D01*
X138136959Y-92261097D01*
X138348288Y-92234025D01*
X138348289Y-92234025D01*
X138353416Y-92233368D01*
X138358366Y-92231883D01*
X138562429Y-92170661D01*
X138562434Y-92170659D01*
X138567384Y-92169174D01*
X138767994Y-92070896D01*
X138949860Y-91941173D01*
X139108096Y-91783489D01*
X139126783Y-91757484D01*
X139238453Y-91602077D01*
X139239776Y-91603028D01*
X139286645Y-91559857D01*
X139356580Y-91547625D01*
X139422026Y-91575144D01*
X139449875Y-91606994D01*
X139509987Y-91705088D01*
X139656250Y-91873938D01*
X139828126Y-92016632D01*
X140021000Y-92129338D01*
X140025825Y-92131180D01*
X140025826Y-92131181D01*
X140098612Y-92158975D01*
X140229692Y-92209030D01*
X140234760Y-92210061D01*
X140234763Y-92210062D01*
X140332762Y-92230000D01*
X140448597Y-92253567D01*
X140453772Y-92253757D01*
X140453774Y-92253757D01*
X140666673Y-92261564D01*
X140666677Y-92261564D01*
X140671837Y-92261753D01*
X140676957Y-92261097D01*
X140676959Y-92261097D01*
X140888288Y-92234025D01*
X140888289Y-92234025D01*
X140893416Y-92233368D01*
X140898366Y-92231883D01*
X141102429Y-92170661D01*
X141102434Y-92170659D01*
X141107384Y-92169174D01*
X141307994Y-92070896D01*
X141489860Y-91941173D01*
X141648096Y-91783489D01*
X141666783Y-91757484D01*
X141778453Y-91602077D01*
X141779776Y-91603028D01*
X141826645Y-91559857D01*
X141896580Y-91547625D01*
X141962026Y-91575144D01*
X141989875Y-91606994D01*
X142049987Y-91705088D01*
X142196250Y-91873938D01*
X142368126Y-92016632D01*
X142561000Y-92129338D01*
X142565825Y-92131180D01*
X142565826Y-92131181D01*
X142638612Y-92158975D01*
X142769692Y-92209030D01*
X142774760Y-92210061D01*
X142774763Y-92210062D01*
X142872762Y-92230000D01*
X142988597Y-92253567D01*
X142993772Y-92253757D01*
X142993774Y-92253757D01*
X143206673Y-92261564D01*
X143206677Y-92261564D01*
X143211837Y-92261753D01*
X143216957Y-92261097D01*
X143216959Y-92261097D01*
X143428288Y-92234025D01*
X143428289Y-92234025D01*
X143433416Y-92233368D01*
X143438366Y-92231883D01*
X143642429Y-92170661D01*
X143642434Y-92170659D01*
X143647384Y-92169174D01*
X143847994Y-92070896D01*
X144029860Y-91941173D01*
X144188096Y-91783489D01*
X144206783Y-91757484D01*
X144318453Y-91602077D01*
X144319776Y-91603028D01*
X144366645Y-91559857D01*
X144436580Y-91547625D01*
X144502026Y-91575144D01*
X144529875Y-91606994D01*
X144589987Y-91705088D01*
X144736250Y-91873938D01*
X144908126Y-92016632D01*
X145101000Y-92129338D01*
X145105825Y-92131180D01*
X145105826Y-92131181D01*
X145178612Y-92158975D01*
X145309692Y-92209030D01*
X145314760Y-92210061D01*
X145314763Y-92210062D01*
X145412762Y-92230000D01*
X145528597Y-92253567D01*
X145533772Y-92253757D01*
X145533774Y-92253757D01*
X145746673Y-92261564D01*
X145746677Y-92261564D01*
X145751837Y-92261753D01*
X145756957Y-92261097D01*
X145756959Y-92261097D01*
X145968288Y-92234025D01*
X145968289Y-92234025D01*
X145973416Y-92233368D01*
X145978366Y-92231883D01*
X146182429Y-92170661D01*
X146182434Y-92170659D01*
X146187384Y-92169174D01*
X146387994Y-92070896D01*
X146569860Y-91941173D01*
X146728096Y-91783489D01*
X146746783Y-91757484D01*
X146858453Y-91602077D01*
X146859776Y-91603028D01*
X146906645Y-91559857D01*
X146976580Y-91547625D01*
X147042026Y-91575144D01*
X147069875Y-91606994D01*
X147129987Y-91705088D01*
X147276250Y-91873938D01*
X147448126Y-92016632D01*
X147641000Y-92129338D01*
X147645825Y-92131180D01*
X147645826Y-92131181D01*
X147718612Y-92158975D01*
X147849692Y-92209030D01*
X147854760Y-92210061D01*
X147854763Y-92210062D01*
X147952762Y-92230000D01*
X148068597Y-92253567D01*
X148073772Y-92253757D01*
X148073774Y-92253757D01*
X148286673Y-92261564D01*
X148286677Y-92261564D01*
X148291837Y-92261753D01*
X148296957Y-92261097D01*
X148296959Y-92261097D01*
X148369961Y-92251745D01*
X148513416Y-92233368D01*
X148532632Y-92227603D01*
X148603626Y-92227185D01*
X148657934Y-92259193D01*
X149496341Y-93097600D01*
X149504331Y-93106381D01*
X149504339Y-93106390D01*
X149508584Y-93113080D01*
X149514359Y-93118503D01*
X149560274Y-93161620D01*
X149563116Y-93164375D01*
X149583667Y-93184926D01*
X149586801Y-93187357D01*
X149587163Y-93187638D01*
X149596191Y-93195348D01*
X149629867Y-93226972D01*
X149636818Y-93230793D01*
X149636819Y-93230794D01*
X149648655Y-93237301D01*
X149665184Y-93248158D01*
X149675869Y-93256447D01*
X149675871Y-93256448D01*
X149682131Y-93261304D01*
X149724544Y-93279657D01*
X149735181Y-93284868D01*
X149775663Y-93307124D01*
X149783342Y-93309096D01*
X149783343Y-93309096D01*
X149796434Y-93312457D01*
X149815136Y-93318859D01*
X149834823Y-93327379D01*
X149842652Y-93328619D01*
X149880448Y-93334605D01*
X149892074Y-93337013D01*
X149929135Y-93346529D01*
X149929136Y-93346529D01*
X149936812Y-93348500D01*
X149958258Y-93348500D01*
X149977968Y-93350051D01*
X149999151Y-93353406D01*
X150045140Y-93349059D01*
X150056995Y-93348500D01*
X157235050Y-93348500D01*
X157303171Y-93368502D01*
X157324145Y-93385405D01*
X157749595Y-93810855D01*
X157783621Y-93873167D01*
X157786500Y-93899950D01*
X157786500Y-94804431D01*
X157766411Y-94872686D01*
X157706533Y-94965598D01*
X157706529Y-94965607D01*
X157702714Y-94971526D01*
X157700305Y-94978146D01*
X157700304Y-94978147D01*
X157668652Y-95065111D01*
X157639525Y-95145135D01*
X157621500Y-95287820D01*
X157621500Y-96785500D01*
X157601498Y-96853621D01*
X157547842Y-96900114D01*
X157495500Y-96911500D01*
X153823411Y-96911500D01*
X153755897Y-96891885D01*
X153670550Y-96837722D01*
X153664608Y-96833951D01*
X153665095Y-96833184D01*
X153617064Y-96789375D01*
X153598804Y-96720767D01*
X153620534Y-96653178D01*
X153635668Y-96634881D01*
X154535144Y-95735405D01*
X154597456Y-95701379D01*
X154624239Y-95698500D01*
X155307019Y-95698500D01*
X155376012Y-95719068D01*
X155427120Y-95752512D01*
X155455846Y-95771310D01*
X155462450Y-95773766D01*
X155462452Y-95773767D01*
X155498844Y-95787301D01*
X155615341Y-95830626D01*
X155784015Y-95853132D01*
X155791026Y-95852494D01*
X155791030Y-95852494D01*
X155946462Y-95838348D01*
X155953483Y-95837709D01*
X155960185Y-95835531D01*
X155960187Y-95835531D01*
X156108623Y-95787301D01*
X156108626Y-95787300D01*
X156115322Y-95785124D01*
X156261490Y-95697990D01*
X156266584Y-95693139D01*
X156266588Y-95693136D01*
X156369910Y-95594743D01*
X156384721Y-95580639D01*
X156478891Y-95438902D01*
X156539319Y-95279825D01*
X156540397Y-95272158D01*
X156550343Y-95201380D01*
X156563001Y-95111313D01*
X156563299Y-95090000D01*
X156544331Y-94920892D01*
X156529693Y-94878856D01*
X156490686Y-94766846D01*
X156488368Y-94760189D01*
X156473279Y-94736041D01*
X156445691Y-94691892D01*
X156398192Y-94615879D01*
X156392581Y-94610228D01*
X156318905Y-94536036D01*
X156278286Y-94495132D01*
X156256806Y-94481500D01*
X156199095Y-94444876D01*
X156134608Y-94403951D01*
X155974300Y-94346868D01*
X155805329Y-94326720D01*
X155798326Y-94327456D01*
X155798325Y-94327456D01*
X155643101Y-94343770D01*
X155643097Y-94343771D01*
X155636093Y-94344507D01*
X155629422Y-94346778D01*
X155481673Y-94397075D01*
X155481670Y-94397076D01*
X155475003Y-94399346D01*
X155469005Y-94403036D01*
X155469003Y-94403037D01*
X155371831Y-94462818D01*
X155305809Y-94481500D01*
X154368136Y-94481500D01*
X154351693Y-94480422D01*
X154320000Y-94476250D01*
X154311811Y-94477328D01*
X154280126Y-94481499D01*
X154280117Y-94481500D01*
X154280115Y-94481500D01*
X154280109Y-94481501D01*
X154280107Y-94481501D01*
X154180543Y-94494609D01*
X154169336Y-94496084D01*
X154169334Y-94496085D01*
X154161149Y-94497162D01*
X154013124Y-94558476D01*
X154006573Y-94563503D01*
X154006571Y-94563504D01*
X153935262Y-94618222D01*
X153917928Y-94631523D01*
X153917925Y-94631526D01*
X153886013Y-94656013D01*
X153880983Y-94662568D01*
X153866548Y-94681379D01*
X153855681Y-94693770D01*
X149693154Y-98856297D01*
X149680762Y-98867165D01*
X149622971Y-98911509D01*
X149622960Y-98911519D01*
X149622954Y-98911523D01*
X149622951Y-98911526D01*
X149591039Y-98936013D01*
X149586009Y-98942568D01*
X149571574Y-98961379D01*
X149560707Y-98973770D01*
X147279882Y-101254595D01*
X147217570Y-101288621D01*
X147190787Y-101291500D01*
X144703239Y-101291500D01*
X144635118Y-101271498D01*
X144588625Y-101217842D01*
X144578521Y-101147568D01*
X144608015Y-101082988D01*
X144614144Y-101076405D01*
X147286234Y-98404315D01*
X147298625Y-98393448D01*
X147317437Y-98379013D01*
X147323987Y-98373987D01*
X147348474Y-98342075D01*
X147348480Y-98342069D01*
X147416496Y-98253429D01*
X147416497Y-98253427D01*
X147421524Y-98246876D01*
X147482838Y-98098851D01*
X147487801Y-98061152D01*
X147498500Y-97979885D01*
X147498500Y-97979880D01*
X147503750Y-97940000D01*
X147499578Y-97908307D01*
X147498500Y-97891864D01*
X147498500Y-96369529D01*
X147518502Y-96301408D01*
X147572158Y-96254915D01*
X147613080Y-96244048D01*
X147663490Y-96239460D01*
X147682983Y-96237686D01*
X147689685Y-96235508D01*
X147689687Y-96235508D01*
X147838123Y-96187278D01*
X147838126Y-96187277D01*
X147844822Y-96185101D01*
X147960285Y-96116271D01*
X148024803Y-96098500D01*
X150937019Y-96098500D01*
X151006012Y-96119068D01*
X151074613Y-96163959D01*
X151085846Y-96171310D01*
X151092450Y-96173766D01*
X151092452Y-96173767D01*
X151128782Y-96187278D01*
X151245341Y-96230626D01*
X151414015Y-96253132D01*
X151421026Y-96252494D01*
X151421030Y-96252494D01*
X151576462Y-96238348D01*
X151583483Y-96237709D01*
X151590185Y-96235531D01*
X151590187Y-96235531D01*
X151738623Y-96187301D01*
X151738626Y-96187300D01*
X151745322Y-96185124D01*
X151891490Y-96097990D01*
X151896584Y-96093139D01*
X151896588Y-96093136D01*
X151995278Y-95999154D01*
X152014721Y-95980639D01*
X152023566Y-95967327D01*
X152066338Y-95902950D01*
X152108891Y-95838902D01*
X152169319Y-95679825D01*
X152193001Y-95511313D01*
X152193299Y-95490000D01*
X152174331Y-95320892D01*
X152165900Y-95296680D01*
X152120686Y-95166846D01*
X152118368Y-95160189D01*
X152113329Y-95152124D01*
X152031925Y-95021853D01*
X152028192Y-95015879D01*
X152025851Y-95013521D01*
X151999766Y-94949076D01*
X152011054Y-94889724D01*
X152008891Y-94888902D01*
X152066816Y-94736414D01*
X152069319Y-94729825D01*
X152093001Y-94561313D01*
X152093299Y-94540000D01*
X152074331Y-94370892D01*
X152066789Y-94349233D01*
X152020686Y-94216846D01*
X152018368Y-94210189D01*
X151928192Y-94065879D01*
X151883782Y-94021157D01*
X151813248Y-93950129D01*
X151808286Y-93945132D01*
X151782309Y-93928646D01*
X151753406Y-93910304D01*
X151664608Y-93853951D01*
X151504300Y-93796868D01*
X151335329Y-93776720D01*
X151328326Y-93777456D01*
X151328325Y-93777456D01*
X151173101Y-93793770D01*
X151173097Y-93793771D01*
X151166093Y-93794507D01*
X151159422Y-93796778D01*
X151011673Y-93847075D01*
X151011670Y-93847076D01*
X151005003Y-93849346D01*
X150983105Y-93862818D01*
X150917083Y-93881500D01*
X144853516Y-93881500D01*
X144785395Y-93861498D01*
X144738902Y-93807842D01*
X144728510Y-93739708D01*
X144742321Y-93630379D01*
X144742762Y-93626892D01*
X144743138Y-93600000D01*
X144724795Y-93412926D01*
X144704749Y-93346529D01*
X144698017Y-93324232D01*
X144670465Y-93232977D01*
X144582218Y-93067008D01*
X144463415Y-92921340D01*
X144399378Y-92868364D01*
X144323329Y-92805450D01*
X144323324Y-92805447D01*
X144318580Y-92801522D01*
X144313161Y-92798592D01*
X144313158Y-92798590D01*
X144243671Y-92761019D01*
X144153231Y-92712119D01*
X143973666Y-92656534D01*
X143967541Y-92655890D01*
X143967540Y-92655890D01*
X143792852Y-92637529D01*
X143792851Y-92637529D01*
X143786724Y-92636885D01*
X143709673Y-92643897D01*
X143605665Y-92653363D01*
X143605662Y-92653364D01*
X143599526Y-92653922D01*
X143593620Y-92655660D01*
X143593616Y-92655661D01*
X143484275Y-92687842D01*
X143419202Y-92706994D01*
X143252621Y-92794080D01*
X143106128Y-92911864D01*
X143102170Y-92916582D01*
X143102167Y-92916584D01*
X143071613Y-92952997D01*
X142985302Y-93055859D01*
X142982338Y-93061251D01*
X142982335Y-93061255D01*
X142914347Y-93184926D01*
X142894746Y-93220580D01*
X142892885Y-93226447D01*
X142892884Y-93226449D01*
X142868504Y-93303305D01*
X142837909Y-93399752D01*
X142816956Y-93586552D01*
X142830258Y-93744958D01*
X142816027Y-93814512D01*
X142766450Y-93865332D01*
X142704700Y-93881500D01*
X131902056Y-93881500D01*
X131890200Y-93880941D01*
X131890197Y-93880941D01*
X131882463Y-93879212D01*
X131827446Y-93880941D01*
X131811631Y-93881438D01*
X131807673Y-93881500D01*
X131778568Y-93881500D01*
X131774168Y-93882056D01*
X131762336Y-93882988D01*
X131716169Y-93884438D01*
X131695579Y-93890420D01*
X131676218Y-93894430D01*
X131669230Y-93895312D01*
X131662796Y-93896125D01*
X131662795Y-93896125D01*
X131654936Y-93897118D01*
X131647571Y-93900034D01*
X131647567Y-93900035D01*
X131611979Y-93914126D01*
X131600769Y-93917965D01*
X131556400Y-93930855D01*
X131537943Y-93941771D01*
X131520193Y-93950466D01*
X131500244Y-93958365D01*
X131493833Y-93963023D01*
X131493831Y-93963024D01*
X131462864Y-93985523D01*
X131452946Y-93992038D01*
X131413193Y-94015548D01*
X131398032Y-94030709D01*
X131383000Y-94043548D01*
X131365643Y-94056159D01*
X131360590Y-94062267D01*
X131336194Y-94091757D01*
X131328204Y-94100537D01*
X130817336Y-94611405D01*
X130755024Y-94645431D01*
X130706145Y-94646357D01*
X130523373Y-94613800D01*
X130523367Y-94613799D01*
X130518284Y-94612894D01*
X130444452Y-94611992D01*
X130300081Y-94610228D01*
X130300079Y-94610228D01*
X130294911Y-94610165D01*
X130074091Y-94643955D01*
X129861756Y-94713357D01*
X129663607Y-94816507D01*
X129659474Y-94819610D01*
X129659471Y-94819612D01*
X129533441Y-94914238D01*
X129484965Y-94950635D01*
X129481393Y-94954373D01*
X129351785Y-95090000D01*
X129331480Y-95111247D01*
X129331479Y-95111248D01*
X129330629Y-95112138D01*
X129330445Y-95111963D01*
X129274009Y-95150951D01*
X129203052Y-95153317D01*
X129142079Y-95116946D01*
X129110450Y-95053384D01*
X129108500Y-95031305D01*
X129108500Y-92744662D01*
X129128502Y-92676541D01*
X129182158Y-92630048D01*
X129252432Y-92619944D01*
X129317012Y-92649438D01*
X129337396Y-92671941D01*
X129373479Y-92722997D01*
X129519410Y-92865157D01*
X129524206Y-92868362D01*
X129524209Y-92868364D01*
X129610638Y-92926114D01*
X129688803Y-92978342D01*
X129694106Y-92980620D01*
X129694109Y-92980622D01*
X129779214Y-93017186D01*
X129875987Y-93058763D01*
X129936515Y-93072459D01*
X130069055Y-93102450D01*
X130069060Y-93102451D01*
X130074692Y-93103725D01*
X130080463Y-93103952D01*
X130080465Y-93103952D01*
X130142294Y-93106381D01*
X130278263Y-93111723D01*
X130479883Y-93082490D01*
X130485347Y-93080635D01*
X130485352Y-93080634D01*
X130667327Y-93018862D01*
X130667332Y-93018860D01*
X130672799Y-93017004D01*
X130850551Y-92917458D01*
X131007186Y-92787186D01*
X131137458Y-92630551D01*
X131237004Y-92452799D01*
X131238860Y-92447332D01*
X131238862Y-92447327D01*
X131300634Y-92265352D01*
X131300635Y-92265347D01*
X131302490Y-92259883D01*
X131331723Y-92058263D01*
X131333249Y-92000000D01*
X131316986Y-91823002D01*
X131315137Y-91802880D01*
X131315136Y-91802877D01*
X131314608Y-91797126D01*
X131288650Y-91705088D01*
X131260875Y-91606606D01*
X131260874Y-91606604D01*
X131259307Y-91601047D01*
X131246797Y-91575678D01*
X131171756Y-91423510D01*
X131169201Y-91418329D01*
X131156867Y-91401811D01*
X131050758Y-91259715D01*
X131050758Y-91259714D01*
X131047305Y-91255091D01*
X130947244Y-91162595D01*
X130901943Y-91120719D01*
X130901940Y-91120717D01*
X130897703Y-91116800D01*
X130738312Y-91016232D01*
X130730288Y-91011169D01*
X130730283Y-91011167D01*
X130725404Y-91008088D01*
X130536180Y-90932595D01*
X130336366Y-90892849D01*
X130330592Y-90892773D01*
X130330588Y-90892773D01*
X130227452Y-90891424D01*
X130132655Y-90890183D01*
X130126958Y-90891162D01*
X130126957Y-90891162D01*
X129937567Y-90923705D01*
X129931870Y-90924684D01*
X129740734Y-90995198D01*
X129735773Y-90998150D01*
X129735772Y-90998150D01*
X129570617Y-91096407D01*
X129570614Y-91096409D01*
X129565649Y-91099363D01*
X129562112Y-91102465D01*
X129495571Y-91126205D01*
X129426420Y-91110123D01*
X129376941Y-91059208D01*
X129362843Y-90989625D01*
X129377692Y-90940212D01*
X129382448Y-90931468D01*
X129467975Y-90774205D01*
X129475784Y-90761658D01*
X129630582Y-90542734D01*
X129639807Y-90531189D01*
X129819165Y-90331904D01*
X129829679Y-90321518D01*
X130031132Y-90144609D01*
X130042789Y-90135525D01*
X130263582Y-89983413D01*
X130276223Y-89975757D01*
X130378184Y-89921907D01*
X130513309Y-89850542D01*
X130526743Y-89844427D01*
X130776854Y-89747835D01*
X130790929Y-89743328D01*
X131050632Y-89676685D01*
X131065137Y-89673858D01*
X131291671Y-89643357D01*
X131296410Y-89642719D01*
X131323206Y-89641988D01*
X131332313Y-89642712D01*
X131341103Y-89640883D01*
X131344399Y-89640675D01*
X131365524Y-89638500D01*
X132029790Y-89638500D01*
X132097911Y-89658502D01*
G37*
%TD.AperFunction*%
%TD*%
M02*
