%TF.GenerationSoftware,KiCad,Pcbnew,7.0.11*%
%TF.CreationDate,2024-04-23T00:26:42+08:00*%
%TF.ProjectId,UINIO-MCU-STM32L051K8U6,55494e49-4f2d-44d4-9355-2d53544d3332,Version 3.3.2*%
%TF.SameCoordinates,PX7aae400PY5939cc0*%
%TF.FileFunction,Soldermask,Bot*%
%TF.FilePolarity,Negative*%
%FSLAX46Y46*%
G04 Gerber Fmt 4.6, Leading zero omitted, Abs format (unit mm)*
G04 Created by KiCad (PCBNEW 7.0.11) date 2024-04-23 00:26:42*
%MOMM*%
%LPD*%
G01*
G04 APERTURE LIST*
G04 Aperture macros list*
%AMRoundRect*
0 Rectangle with rounded corners*
0 $1 Rounding radius*
0 $2 $3 $4 $5 $6 $7 $8 $9 X,Y pos of 4 corners*
0 Add a 4 corners polygon primitive as box body*
4,1,4,$2,$3,$4,$5,$6,$7,$8,$9,$2,$3,0*
0 Add four circle primitives for the rounded corners*
1,1,$1+$1,$2,$3*
1,1,$1+$1,$4,$5*
1,1,$1+$1,$6,$7*
1,1,$1+$1,$8,$9*
0 Add four rect primitives between the rounded corners*
20,1,$1+$1,$2,$3,$4,$5,0*
20,1,$1+$1,$4,$5,$6,$7,0*
20,1,$1+$1,$6,$7,$8,$9,0*
20,1,$1+$1,$8,$9,$2,$3,0*%
G04 Aperture macros list end*
%ADD10C,1.200000*%
%ADD11R,1.700000X1.700000*%
%ADD12O,1.700000X1.700000*%
%ADD13O,1.800000X1.000000*%
%ADD14O,0.630000X2.250000*%
%ADD15RoundRect,0.140000X-0.170000X0.140000X-0.170000X-0.140000X0.170000X-0.140000X0.170000X0.140000X0*%
G04 APERTURE END LIST*
D10*
%TO.C,Hole3*%
X-1120000Y-2300000D03*
%TD*%
%TO.C,Hole1*%
X43390000Y-17980000D03*
%TD*%
D11*
%TO.C,J3*%
X43850000Y-13950000D03*
D12*
X43850000Y-11410000D03*
X43850000Y-8870000D03*
X43850000Y-6330000D03*
%TD*%
D13*
%TO.C,USB1*%
X2680000Y-5830000D03*
X2680000Y-14470000D03*
X-1120000Y-5830000D03*
X-1120000Y-14470000D03*
%TD*%
D10*
%TO.C,Hole2*%
X43390000Y-2300000D03*
%TD*%
%TO.C,Hole4*%
X-1120000Y-17980000D03*
%TD*%
D11*
%TO.C,J2*%
X7950000Y-1340000D03*
D12*
X10490000Y-1340000D03*
X13030000Y-1340000D03*
X15570000Y-1340000D03*
X18110000Y-1340000D03*
X20650000Y-1340000D03*
X23190000Y-1340000D03*
X25730000Y-1340000D03*
X28270000Y-1340000D03*
X30810000Y-1340000D03*
X33350000Y-1340000D03*
X35890000Y-1340000D03*
X38430000Y-1340000D03*
X40970000Y-1340000D03*
%TD*%
D14*
%TO.C,U2*%
X11725000Y-6620000D03*
X12995000Y-6620000D03*
X14265000Y-6620000D03*
X15535000Y-6620000D03*
X15535000Y-13680000D03*
X14265000Y-13680000D03*
X12995000Y-13680000D03*
X11725000Y-13680000D03*
%TD*%
D15*
%TO.C,C3*%
X10390000Y-9670000D03*
X10390000Y-10630000D03*
%TD*%
D11*
%TO.C,J1*%
X7950000Y-18960000D03*
D12*
X10490000Y-18960000D03*
X13030000Y-18960000D03*
X15570000Y-18960000D03*
X18110000Y-18960000D03*
X20650000Y-18960000D03*
X23190000Y-18960000D03*
X25730000Y-18960000D03*
X28270000Y-18960000D03*
X30810000Y-18960000D03*
X33350000Y-18960000D03*
X35890000Y-18960000D03*
X38430000Y-18960000D03*
X40970000Y-18960000D03*
%TD*%
M02*
