%TF.GenerationSoftware,KiCad,Pcbnew,(6.0.10)*%
%TF.CreationDate,2023-01-11T23:50:30+08:00*%
%TF.ProjectId,UINIO-MCU-STM32L051K8,55494e49-4f2d-44d4-9355-2d53544d3332,Version 3.0.0*%
%TF.SameCoordinates,Original*%
%TF.FileFunction,Paste,Top*%
%TF.FilePolarity,Positive*%
%FSLAX46Y46*%
G04 Gerber Fmt 4.6, Leading zero omitted, Abs format (unit mm)*
G04 Created by KiCad (PCBNEW (6.0.10)) date 2023-01-11 23:50:30*
%MOMM*%
%LPD*%
G01*
G04 APERTURE LIST*
G04 Aperture macros list*
%AMRoundRect*
0 Rectangle with rounded corners*
0 $1 Rounding radius*
0 $2 $3 $4 $5 $6 $7 $8 $9 X,Y pos of 4 corners*
0 Add a 4 corners polygon primitive as box body*
4,1,4,$2,$3,$4,$5,$6,$7,$8,$9,$2,$3,0*
0 Add four circle primitives for the rounded corners*
1,1,$1+$1,$2,$3*
1,1,$1+$1,$4,$5*
1,1,$1+$1,$6,$7*
1,1,$1+$1,$8,$9*
0 Add four rect primitives between the rounded corners*
20,1,$1+$1,$2,$3,$4,$5,0*
20,1,$1+$1,$4,$5,$6,$7,0*
20,1,$1+$1,$6,$7,$8,$9,0*
20,1,$1+$1,$8,$9,$2,$3,0*%
%AMRotRect*
0 Rectangle, with rotation*
0 The origin of the aperture is its center*
0 $1 length*
0 $2 width*
0 $3 Rotation angle, in degrees counterclockwise*
0 Add horizontal line*
21,1,$1,$2,0,0,$3*%
G04 Aperture macros list end*
%ADD10C,0.120000*%
%ADD11RoundRect,0.135000X0.135000X0.185000X-0.135000X0.185000X-0.135000X-0.185000X0.135000X-0.185000X0*%
%ADD12RoundRect,0.140000X0.140000X0.170000X-0.140000X0.170000X-0.140000X-0.170000X0.140000X-0.170000X0*%
%ADD13RoundRect,0.250000X0.375000X0.625000X-0.375000X0.625000X-0.375000X-0.625000X0.375000X-0.625000X0*%
%ADD14RoundRect,0.140000X-0.140000X-0.170000X0.140000X-0.170000X0.140000X0.170000X-0.140000X0.170000X0*%
%ADD15RotRect,0.600000X0.300000X135.000000*%
%ADD16RotRect,0.600000X0.300000X225.000000*%
%ADD17RotRect,0.600000X0.300000X315.000000*%
%ADD18RotRect,0.600000X0.300000X45.000000*%
%ADD19RotRect,3.450000X3.450000X45.000000*%
%ADD20RoundRect,0.135000X0.185000X-0.135000X0.185000X0.135000X-0.185000X0.135000X-0.185000X-0.135000X0*%
%ADD21R,1.400000X0.700000*%
%ADD22R,1.400000X0.800000*%
%ADD23R,1.500000X1.500000*%
%ADD24RoundRect,0.218750X-0.218750X-0.256250X0.218750X-0.256250X0.218750X0.256250X-0.218750X0.256250X0*%
%ADD25RoundRect,0.127000X-0.127000X-0.127000X0.127000X-0.127000X0.127000X0.127000X-0.127000X0.127000X0*%
%ADD26RoundRect,0.140000X-0.170000X0.140000X-0.170000X-0.140000X0.170000X-0.140000X0.170000X0.140000X0*%
%ADD27RoundRect,0.140000X0.170000X-0.140000X0.170000X0.140000X-0.170000X0.140000X-0.170000X-0.140000X0*%
%ADD28R,1.800000X1.000000*%
%ADD29R,1.000000X0.600000*%
G04 APERTURE END LIST*
%TO.C,USB1*%
G36*
X175558000Y-103560000D02*
G01*
X175651000Y-103588000D01*
X175738000Y-103634000D01*
X175814000Y-103696000D01*
X175876000Y-103772000D01*
X175922000Y-103859000D01*
X175950000Y-103952000D01*
X175960000Y-104050000D01*
X175950000Y-104148000D01*
X175922000Y-104241000D01*
X175876000Y-104328000D01*
X175814000Y-104404000D01*
X175738000Y-104466000D01*
X175651000Y-104512000D01*
X175558000Y-104540000D01*
X175460000Y-104550000D01*
X174660000Y-104550000D01*
X174562000Y-104540000D01*
X174469000Y-104512000D01*
X174382000Y-104466000D01*
X174306000Y-104404000D01*
X174244000Y-104328000D01*
X174198000Y-104241000D01*
X174170000Y-104148000D01*
X174160000Y-104050000D01*
X174170000Y-103952000D01*
X174198000Y-103859000D01*
X174244000Y-103772000D01*
X174306000Y-103696000D01*
X174382000Y-103634000D01*
X174469000Y-103588000D01*
X174562000Y-103560000D01*
X174660000Y-103550000D01*
X175460000Y-103550000D01*
X175558000Y-103560000D01*
G37*
D10*
X175558000Y-103560000D02*
X175651000Y-103588000D01*
X175738000Y-103634000D01*
X175814000Y-103696000D01*
X175876000Y-103772000D01*
X175922000Y-103859000D01*
X175950000Y-103952000D01*
X175960000Y-104050000D01*
X175950000Y-104148000D01*
X175922000Y-104241000D01*
X175876000Y-104328000D01*
X175814000Y-104404000D01*
X175738000Y-104466000D01*
X175651000Y-104512000D01*
X175558000Y-104540000D01*
X175460000Y-104550000D01*
X174660000Y-104550000D01*
X174562000Y-104540000D01*
X174469000Y-104512000D01*
X174382000Y-104466000D01*
X174306000Y-104404000D01*
X174244000Y-104328000D01*
X174198000Y-104241000D01*
X174170000Y-104148000D01*
X174160000Y-104050000D01*
X174170000Y-103952000D01*
X174198000Y-103859000D01*
X174244000Y-103772000D01*
X174306000Y-103696000D01*
X174382000Y-103634000D01*
X174469000Y-103588000D01*
X174562000Y-103560000D01*
X174660000Y-103550000D01*
X175460000Y-103550000D01*
X175558000Y-103560000D01*
G36*
X170960000Y-97380000D02*
G01*
X169560000Y-97380000D01*
X169560000Y-96580000D01*
X170960000Y-96580000D01*
X170960000Y-97380000D01*
G37*
X170960000Y-97380000D02*
X169560000Y-97380000D01*
X169560000Y-96580000D01*
X170960000Y-96580000D01*
X170960000Y-97380000D01*
G36*
X171757000Y-103560000D02*
G01*
X171851000Y-103588000D01*
X171938000Y-103634000D01*
X172013000Y-103696000D01*
X172076000Y-103772000D01*
X172122000Y-103859000D01*
X172150000Y-103952000D01*
X172160000Y-104050000D01*
X172150000Y-104148000D01*
X172122000Y-104241000D01*
X172076000Y-104328000D01*
X172013000Y-104404000D01*
X171938000Y-104466000D01*
X171851000Y-104512000D01*
X171757000Y-104540000D01*
X171660000Y-104550000D01*
X170860000Y-104550000D01*
X170762000Y-104540000D01*
X170669000Y-104512000D01*
X170582000Y-104466000D01*
X170506000Y-104404000D01*
X170444000Y-104328000D01*
X170398000Y-104241000D01*
X170369000Y-104148000D01*
X170360000Y-104050000D01*
X170369000Y-103952000D01*
X170398000Y-103859000D01*
X170444000Y-103772000D01*
X170506000Y-103696000D01*
X170582000Y-103634000D01*
X170669000Y-103588000D01*
X170762000Y-103560000D01*
X170860000Y-103550000D01*
X171660000Y-103550000D01*
X171757000Y-103560000D01*
G37*
X171757000Y-103560000D02*
X171851000Y-103588000D01*
X171938000Y-103634000D01*
X172013000Y-103696000D01*
X172076000Y-103772000D01*
X172122000Y-103859000D01*
X172150000Y-103952000D01*
X172160000Y-104050000D01*
X172150000Y-104148000D01*
X172122000Y-104241000D01*
X172076000Y-104328000D01*
X172013000Y-104404000D01*
X171938000Y-104466000D01*
X171851000Y-104512000D01*
X171757000Y-104540000D01*
X171660000Y-104550000D01*
X170860000Y-104550000D01*
X170762000Y-104540000D01*
X170669000Y-104512000D01*
X170582000Y-104466000D01*
X170506000Y-104404000D01*
X170444000Y-104328000D01*
X170398000Y-104241000D01*
X170369000Y-104148000D01*
X170360000Y-104050000D01*
X170369000Y-103952000D01*
X170398000Y-103859000D01*
X170444000Y-103772000D01*
X170506000Y-103696000D01*
X170582000Y-103634000D01*
X170669000Y-103588000D01*
X170762000Y-103560000D01*
X170860000Y-103550000D01*
X171660000Y-103550000D01*
X171757000Y-103560000D01*
G36*
X171757000Y-94920000D02*
G01*
X171851000Y-94948000D01*
X171938000Y-94994000D01*
X172013000Y-95056000D01*
X172076000Y-95132000D01*
X172122000Y-95219000D01*
X172150000Y-95312000D01*
X172160000Y-95410000D01*
X172150000Y-95507000D01*
X172122000Y-95601000D01*
X172076000Y-95688000D01*
X172013000Y-95763000D01*
X171938000Y-95826000D01*
X171851000Y-95872000D01*
X171757000Y-95900000D01*
X171660000Y-95910000D01*
X170860000Y-95910000D01*
X170762000Y-95900000D01*
X170669000Y-95872000D01*
X170582000Y-95826000D01*
X170506000Y-95763000D01*
X170444000Y-95688000D01*
X170398000Y-95601000D01*
X170369000Y-95507000D01*
X170360000Y-95410000D01*
X170369000Y-95312000D01*
X170398000Y-95219000D01*
X170444000Y-95132000D01*
X170506000Y-95056000D01*
X170582000Y-94994000D01*
X170669000Y-94948000D01*
X170762000Y-94920000D01*
X170860000Y-94910000D01*
X171660000Y-94910000D01*
X171757000Y-94920000D01*
G37*
X171757000Y-94920000D02*
X171851000Y-94948000D01*
X171938000Y-94994000D01*
X172013000Y-95056000D01*
X172076000Y-95132000D01*
X172122000Y-95219000D01*
X172150000Y-95312000D01*
X172160000Y-95410000D01*
X172150000Y-95507000D01*
X172122000Y-95601000D01*
X172076000Y-95688000D01*
X172013000Y-95763000D01*
X171938000Y-95826000D01*
X171851000Y-95872000D01*
X171757000Y-95900000D01*
X171660000Y-95910000D01*
X170860000Y-95910000D01*
X170762000Y-95900000D01*
X170669000Y-95872000D01*
X170582000Y-95826000D01*
X170506000Y-95763000D01*
X170444000Y-95688000D01*
X170398000Y-95601000D01*
X170369000Y-95507000D01*
X170360000Y-95410000D01*
X170369000Y-95312000D01*
X170398000Y-95219000D01*
X170444000Y-95132000D01*
X170506000Y-95056000D01*
X170582000Y-94994000D01*
X170669000Y-94948000D01*
X170762000Y-94920000D01*
X170860000Y-94910000D01*
X171660000Y-94910000D01*
X171757000Y-94920000D01*
G36*
X170960000Y-100580000D02*
G01*
X169560000Y-100580000D01*
X169560000Y-99880000D01*
X170960000Y-99880000D01*
X170960000Y-100580000D01*
G37*
X170960000Y-100580000D02*
X169560000Y-100580000D01*
X169560000Y-99880000D01*
X170960000Y-99880000D01*
X170960000Y-100580000D01*
G36*
X170960000Y-99580000D02*
G01*
X169560000Y-99580000D01*
X169560000Y-98880000D01*
X170960000Y-98880000D01*
X170960000Y-99580000D01*
G37*
X170960000Y-99580000D02*
X169560000Y-99580000D01*
X169560000Y-98880000D01*
X170960000Y-98880000D01*
X170960000Y-99580000D01*
G36*
X175558000Y-94920000D02*
G01*
X175651000Y-94948000D01*
X175738000Y-94994000D01*
X175814000Y-95056000D01*
X175876000Y-95132000D01*
X175922000Y-95219000D01*
X175950000Y-95312000D01*
X175960000Y-95410000D01*
X175950000Y-95507000D01*
X175922000Y-95601000D01*
X175876000Y-95688000D01*
X175814000Y-95763000D01*
X175738000Y-95826000D01*
X175651000Y-95872000D01*
X175558000Y-95900000D01*
X175460000Y-95910000D01*
X174660000Y-95910000D01*
X174562000Y-95900000D01*
X174469000Y-95872000D01*
X174382000Y-95826000D01*
X174306000Y-95763000D01*
X174244000Y-95688000D01*
X174198000Y-95601000D01*
X174170000Y-95507000D01*
X174160000Y-95410000D01*
X174170000Y-95312000D01*
X174198000Y-95219000D01*
X174244000Y-95132000D01*
X174306000Y-95056000D01*
X174382000Y-94994000D01*
X174469000Y-94948000D01*
X174562000Y-94920000D01*
X174660000Y-94910000D01*
X175460000Y-94910000D01*
X175558000Y-94920000D01*
G37*
X175558000Y-94920000D02*
X175651000Y-94948000D01*
X175738000Y-94994000D01*
X175814000Y-95056000D01*
X175876000Y-95132000D01*
X175922000Y-95219000D01*
X175950000Y-95312000D01*
X175960000Y-95410000D01*
X175950000Y-95507000D01*
X175922000Y-95601000D01*
X175876000Y-95688000D01*
X175814000Y-95763000D01*
X175738000Y-95826000D01*
X175651000Y-95872000D01*
X175558000Y-95900000D01*
X175460000Y-95910000D01*
X174660000Y-95910000D01*
X174562000Y-95900000D01*
X174469000Y-95872000D01*
X174382000Y-95826000D01*
X174306000Y-95763000D01*
X174244000Y-95688000D01*
X174198000Y-95601000D01*
X174170000Y-95507000D01*
X174160000Y-95410000D01*
X174170000Y-95312000D01*
X174198000Y-95219000D01*
X174244000Y-95132000D01*
X174306000Y-95056000D01*
X174382000Y-94994000D01*
X174469000Y-94948000D01*
X174562000Y-94920000D01*
X174660000Y-94910000D01*
X175460000Y-94910000D01*
X175558000Y-94920000D01*
G36*
X170960000Y-102880000D02*
G01*
X169560000Y-102880000D01*
X169560000Y-102080000D01*
X170960000Y-102080000D01*
X170960000Y-102880000D01*
G37*
X170960000Y-102880000D02*
X169560000Y-102880000D01*
X169560000Y-102080000D01*
X170960000Y-102080000D01*
X170960000Y-102880000D01*
G36*
X170960000Y-98560000D02*
G01*
X169560000Y-98560000D01*
X169560000Y-97860000D01*
X170960000Y-97860000D01*
X170960000Y-98560000D01*
G37*
X170960000Y-98560000D02*
X169560000Y-98560000D01*
X169560000Y-97860000D01*
X170960000Y-97860000D01*
X170960000Y-98560000D01*
G36*
X170960000Y-101600000D02*
G01*
X169560000Y-101600000D01*
X169560000Y-100900000D01*
X170960000Y-100900000D01*
X170960000Y-101600000D01*
G37*
X170960000Y-101600000D02*
X169560000Y-101600000D01*
X169560000Y-100900000D01*
X170960000Y-100900000D01*
X170960000Y-101600000D01*
%TD*%
D11*
%TO.C,R3*%
X163970000Y-100740000D03*
X162950000Y-100740000D03*
%TD*%
D12*
%TO.C,C5*%
X156750000Y-98620000D03*
X155790000Y-98620000D03*
%TD*%
D13*
%TO.C,F1*%
X171800000Y-106370000D03*
X169000000Y-106370000D03*
%TD*%
D14*
%TO.C,C4*%
X143277147Y-95098606D03*
X144237147Y-95098606D03*
%TD*%
D15*
%TO.C,U3*%
X144315761Y-102704819D03*
X144669315Y-102351266D03*
X145022868Y-101997712D03*
X145376422Y-101644159D03*
X145729975Y-101290606D03*
X146083528Y-100937052D03*
X146437082Y-100583499D03*
X146790635Y-100229945D03*
D16*
X146790635Y-99112717D03*
X146437082Y-98759163D03*
X146083528Y-98405610D03*
X145729975Y-98052056D03*
X145376422Y-97698503D03*
X145022868Y-97344950D03*
X144669315Y-96991396D03*
X144315761Y-96637843D03*
D17*
X143198533Y-96637843D03*
X142844979Y-96991396D03*
X142491426Y-97344950D03*
X142137872Y-97698503D03*
X141784319Y-98052056D03*
X141430766Y-98405610D03*
X141077212Y-98759163D03*
X140723659Y-99112717D03*
D18*
X140723659Y-100229945D03*
X141077212Y-100583499D03*
X141430766Y-100937052D03*
X141784319Y-101290606D03*
X142137872Y-101644159D03*
X142491426Y-101997712D03*
X142844979Y-102351266D03*
X143198533Y-102704819D03*
D19*
X143757147Y-99671331D03*
%TD*%
D20*
%TO.C,R1*%
X172200000Y-109110000D03*
X172200000Y-108090000D03*
%TD*%
D12*
%TO.C,C8*%
X149640000Y-99010000D03*
X148680000Y-99010000D03*
%TD*%
D14*
%TO.C,C7*%
X143287147Y-104358606D03*
X144247147Y-104358606D03*
%TD*%
D21*
%TO.C,USB1*%
X170260000Y-100230000D03*
X170260000Y-98210000D03*
D22*
X170260000Y-96980000D03*
D21*
X170260000Y-99230000D03*
X170260000Y-101250000D03*
D22*
X170260000Y-102480000D03*
%TD*%
D14*
%TO.C,C9*%
X155780000Y-100750000D03*
X156740000Y-100750000D03*
%TD*%
D23*
%TO.C,SW2*%
X163530000Y-103090000D03*
X156130000Y-103090000D03*
%TD*%
D11*
%TO.C,R2*%
X163980000Y-98660000D03*
X162960000Y-98660000D03*
%TD*%
D24*
%TO.C,D1*%
X169457500Y-108620000D03*
X171032500Y-108620000D03*
%TD*%
D25*
%TO.C,C2*%
X168300000Y-91852000D03*
X168300000Y-92868000D03*
%TD*%
D12*
%TO.C,C6*%
X149640000Y-100360000D03*
X148680000Y-100360000D03*
%TD*%
D26*
%TO.C,C11*%
X151130000Y-101680000D03*
X151130000Y-102640000D03*
%TD*%
D27*
%TO.C,C10*%
X151130000Y-104520000D03*
X151130000Y-103560000D03*
%TD*%
D25*
%TO.C,C1*%
X173090000Y-91852000D03*
X173090000Y-92868000D03*
%TD*%
D28*
%TO.C,Y1*%
X149140000Y-101870000D03*
X149140000Y-104370000D03*
%TD*%
D23*
%TO.C,SW1*%
X163550000Y-96330000D03*
X156150000Y-96330000D03*
%TD*%
D29*
%TO.C,U1*%
X172000000Y-92830000D03*
X172000000Y-91880000D03*
X172000000Y-90930000D03*
X169400000Y-90930000D03*
X169400000Y-92830000D03*
%TD*%
M02*
