%TF.GenerationSoftware,KiCad,Pcbnew,(6.0.10)*%
%TF.CreationDate,2023-01-11T23:50:31+08:00*%
%TF.ProjectId,UINIO-MCU-STM32L051K8,55494e49-4f2d-44d4-9355-2d53544d3332,Version 3.0.0*%
%TF.SameCoordinates,Original*%
%TF.FileFunction,Legend,Bot*%
%TF.FilePolarity,Positive*%
%FSLAX46Y46*%
G04 Gerber Fmt 4.6, Leading zero omitted, Abs format (unit mm)*
G04 Created by KiCad (PCBNEW (6.0.10)) date 2023-01-11 23:50:31*
%MOMM*%
%LPD*%
G01*
G04 APERTURE LIST*
G04 Aperture macros list*
%AMRoundRect*
0 Rectangle with rounded corners*
0 $1 Rounding radius*
0 $2 $3 $4 $5 $6 $7 $8 $9 X,Y pos of 4 corners*
0 Add a 4 corners polygon primitive as box body*
4,1,4,$2,$3,$4,$5,$6,$7,$8,$9,$2,$3,0*
0 Add four circle primitives for the rounded corners*
1,1,$1+$1,$2,$3*
1,1,$1+$1,$4,$5*
1,1,$1+$1,$6,$7*
1,1,$1+$1,$8,$9*
0 Add four rect primitives between the rounded corners*
20,1,$1+$1,$2,$3,$4,$5,0*
20,1,$1+$1,$4,$5,$6,$7,0*
20,1,$1+$1,$6,$7,$8,$9,0*
20,1,$1+$1,$8,$9,$2,$3,0*%
G04 Aperture macros list end*
%ADD10C,0.100000*%
%ADD11C,0.200000*%
%ADD12C,0.300000*%
%ADD13C,0.120000*%
%ADD14C,0.152000*%
%ADD15C,1.200000*%
%ADD16R,1.700000X1.700000*%
%ADD17O,1.700000X1.700000*%
%ADD18O,1.800000X1.000000*%
%ADD19O,0.630000X2.250000*%
%ADD20RoundRect,0.140000X0.170000X-0.140000X0.170000X0.140000X-0.170000X0.140000X-0.170000X-0.140000X0*%
G04 APERTURE END LIST*
D10*
X150373333Y-107036666D02*
X151073333Y-107036666D01*
X151073333Y-106770000D01*
X151040000Y-106703333D01*
X151006666Y-106670000D01*
X150940000Y-106636666D01*
X150840000Y-106636666D01*
X150773333Y-106670000D01*
X150740000Y-106703333D01*
X150706666Y-106770000D01*
X150706666Y-107036666D01*
X150740000Y-106103333D02*
X150706666Y-106003333D01*
X150673333Y-105970000D01*
X150606666Y-105936666D01*
X150506666Y-105936666D01*
X150440000Y-105970000D01*
X150406666Y-106003333D01*
X150373333Y-106070000D01*
X150373333Y-106336666D01*
X151073333Y-106336666D01*
X151073333Y-106103333D01*
X151040000Y-106036666D01*
X151006666Y-106003333D01*
X150940000Y-105970000D01*
X150873333Y-105970000D01*
X150806666Y-106003333D01*
X150773333Y-106036666D01*
X150740000Y-106103333D01*
X150740000Y-106336666D01*
X151073333Y-105703333D02*
X151073333Y-105236666D01*
X150373333Y-105536666D01*
X131644285Y-100218571D02*
X131644285Y-100818571D01*
X131872857Y-100818571D01*
X131930000Y-100790000D01*
X131958571Y-100761428D01*
X131987142Y-100704285D01*
X131987142Y-100618571D01*
X131958571Y-100561428D01*
X131930000Y-100532857D01*
X131872857Y-100504285D01*
X131644285Y-100504285D01*
X132215714Y-100390000D02*
X132501428Y-100390000D01*
X132158571Y-100218571D02*
X132358571Y-100818571D01*
X132558571Y-100218571D01*
X133072857Y-100218571D02*
X132730000Y-100218571D01*
X132901428Y-100218571D02*
X132901428Y-100818571D01*
X132844285Y-100732857D01*
X132787142Y-100675714D01*
X132730000Y-100647142D01*
X133587142Y-100618571D02*
X133587142Y-100218571D01*
X133444285Y-100847142D02*
X133301428Y-100418571D01*
X133672857Y-100418571D01*
D11*
X172902857Y-108560000D02*
X172174285Y-108560000D01*
X172088571Y-108517142D01*
X172045714Y-108474285D01*
X172002857Y-108388571D01*
X172002857Y-108217142D01*
X172045714Y-108131428D01*
X172088571Y-108088571D01*
X172174285Y-108045714D01*
X172902857Y-108045714D01*
X172002857Y-107617142D02*
X172902857Y-107617142D01*
X172002857Y-107188571D02*
X172902857Y-107188571D01*
X172002857Y-106674285D01*
X172902857Y-106674285D01*
X172002857Y-106245714D02*
X172902857Y-106245714D01*
X172902857Y-105645714D02*
X172902857Y-105474285D01*
X172860000Y-105388571D01*
X172774285Y-105302857D01*
X172602857Y-105260000D01*
X172302857Y-105260000D01*
X172131428Y-105302857D01*
X172045714Y-105388571D01*
X172002857Y-105474285D01*
X172002857Y-105645714D01*
X172045714Y-105731428D01*
X172131428Y-105817142D01*
X172302857Y-105860000D01*
X172602857Y-105860000D01*
X172774285Y-105817142D01*
X172860000Y-105731428D01*
X172902857Y-105645714D01*
X172345714Y-104874285D02*
X172345714Y-104188571D01*
X172002857Y-103760000D02*
X172902857Y-103760000D01*
X172260000Y-103460000D01*
X172902857Y-103160000D01*
X172002857Y-103160000D01*
X172088571Y-102217142D02*
X172045714Y-102260000D01*
X172002857Y-102388571D01*
X172002857Y-102474285D01*
X172045714Y-102602857D01*
X172131428Y-102688571D01*
X172217142Y-102731428D01*
X172388571Y-102774285D01*
X172517142Y-102774285D01*
X172688571Y-102731428D01*
X172774285Y-102688571D01*
X172860000Y-102602857D01*
X172902857Y-102474285D01*
X172902857Y-102388571D01*
X172860000Y-102260000D01*
X172817142Y-102217142D01*
X172902857Y-101831428D02*
X172174285Y-101831428D01*
X172088571Y-101788571D01*
X172045714Y-101745714D01*
X172002857Y-101660000D01*
X172002857Y-101488571D01*
X172045714Y-101402857D01*
X172088571Y-101360000D01*
X172174285Y-101317142D01*
X172902857Y-101317142D01*
X172345714Y-100888571D02*
X172345714Y-100202857D01*
X172045714Y-99817142D02*
X172002857Y-99688571D01*
X172002857Y-99474285D01*
X172045714Y-99388571D01*
X172088571Y-99345714D01*
X172174285Y-99302857D01*
X172260000Y-99302857D01*
X172345714Y-99345714D01*
X172388571Y-99388571D01*
X172431428Y-99474285D01*
X172474285Y-99645714D01*
X172517142Y-99731428D01*
X172560000Y-99774285D01*
X172645714Y-99817142D01*
X172731428Y-99817142D01*
X172817142Y-99774285D01*
X172860000Y-99731428D01*
X172902857Y-99645714D01*
X172902857Y-99431428D01*
X172860000Y-99302857D01*
X172902857Y-99045714D02*
X172902857Y-98531428D01*
X172002857Y-98788571D02*
X172902857Y-98788571D01*
X172002857Y-98231428D02*
X172902857Y-98231428D01*
X172260000Y-97931428D01*
X172902857Y-97631428D01*
X172002857Y-97631428D01*
X172902857Y-97288571D02*
X172902857Y-96731428D01*
X172560000Y-97031428D01*
X172560000Y-96902857D01*
X172517142Y-96817142D01*
X172474285Y-96774285D01*
X172388571Y-96731428D01*
X172174285Y-96731428D01*
X172088571Y-96774285D01*
X172045714Y-96817142D01*
X172002857Y-96902857D01*
X172002857Y-97160000D01*
X172045714Y-97245714D01*
X172088571Y-97288571D01*
X172817142Y-96388571D02*
X172860000Y-96345714D01*
X172902857Y-96260000D01*
X172902857Y-96045714D01*
X172860000Y-95960000D01*
X172817142Y-95917142D01*
X172731428Y-95874285D01*
X172645714Y-95874285D01*
X172517142Y-95917142D01*
X172002857Y-96431428D01*
X172002857Y-95874285D01*
X172002857Y-95060000D02*
X172002857Y-95488571D01*
X172902857Y-95488571D01*
X172902857Y-94588571D02*
X172902857Y-94502857D01*
X172860000Y-94417142D01*
X172817142Y-94374285D01*
X172731428Y-94331428D01*
X172560000Y-94288571D01*
X172345714Y-94288571D01*
X172174285Y-94331428D01*
X172088571Y-94374285D01*
X172045714Y-94417142D01*
X172002857Y-94502857D01*
X172002857Y-94588571D01*
X172045714Y-94674285D01*
X172088571Y-94717142D01*
X172174285Y-94760000D01*
X172345714Y-94802857D01*
X172560000Y-94802857D01*
X172731428Y-94760000D01*
X172817142Y-94717142D01*
X172860000Y-94674285D01*
X172902857Y-94588571D01*
X172902857Y-93474285D02*
X172902857Y-93902857D01*
X172474285Y-93945714D01*
X172517142Y-93902857D01*
X172560000Y-93817142D01*
X172560000Y-93602857D01*
X172517142Y-93517142D01*
X172474285Y-93474285D01*
X172388571Y-93431428D01*
X172174285Y-93431428D01*
X172088571Y-93474285D01*
X172045714Y-93517142D01*
X172002857Y-93602857D01*
X172002857Y-93817142D01*
X172045714Y-93902857D01*
X172088571Y-93945714D01*
X172002857Y-92574285D02*
X172002857Y-93088571D01*
X172002857Y-92831428D02*
X172902857Y-92831428D01*
X172774285Y-92917142D01*
X172688571Y-93002857D01*
X172645714Y-93088571D01*
X172002857Y-92188571D02*
X172902857Y-92188571D01*
X172002857Y-91674285D02*
X172517142Y-92060000D01*
X172902857Y-91674285D02*
X172388571Y-92188571D01*
X172517142Y-91160000D02*
X172560000Y-91245714D01*
X172602857Y-91288571D01*
X172688571Y-91331428D01*
X172731428Y-91331428D01*
X172817142Y-91288571D01*
X172860000Y-91245714D01*
X172902857Y-91160000D01*
X172902857Y-90988571D01*
X172860000Y-90902857D01*
X172817142Y-90860000D01*
X172731428Y-90817142D01*
X172688571Y-90817142D01*
X172602857Y-90860000D01*
X172560000Y-90902857D01*
X172517142Y-90988571D01*
X172517142Y-91160000D01*
X172474285Y-91245714D01*
X172431428Y-91288571D01*
X172345714Y-91331428D01*
X172174285Y-91331428D01*
X172088571Y-91288571D01*
X172045714Y-91245714D01*
X172002857Y-91160000D01*
X172002857Y-90988571D01*
X172045714Y-90902857D01*
X172088571Y-90860000D01*
X172174285Y-90817142D01*
X172345714Y-90817142D01*
X172431428Y-90860000D01*
X172474285Y-90902857D01*
X172517142Y-90988571D01*
D10*
X142733333Y-106956666D02*
X143433333Y-106956666D01*
X143433333Y-106690000D01*
X143400000Y-106623333D01*
X143366666Y-106590000D01*
X143300000Y-106556666D01*
X143200000Y-106556666D01*
X143133333Y-106590000D01*
X143100000Y-106623333D01*
X143066666Y-106690000D01*
X143066666Y-106956666D01*
X143100000Y-106023333D02*
X143066666Y-105923333D01*
X143033333Y-105890000D01*
X142966666Y-105856666D01*
X142866666Y-105856666D01*
X142800000Y-105890000D01*
X142766666Y-105923333D01*
X142733333Y-105990000D01*
X142733333Y-106256666D01*
X143433333Y-106256666D01*
X143433333Y-106023333D01*
X143400000Y-105956666D01*
X143366666Y-105923333D01*
X143300000Y-105890000D01*
X143233333Y-105890000D01*
X143166666Y-105923333D01*
X143133333Y-105956666D01*
X143100000Y-106023333D01*
X143100000Y-106256666D01*
X143200000Y-105256666D02*
X142733333Y-105256666D01*
X143466666Y-105423333D02*
X142966666Y-105590000D01*
X142966666Y-105156666D01*
X132593333Y-107036666D02*
X133293333Y-107036666D01*
X133293333Y-106770000D01*
X133260000Y-106703333D01*
X133226666Y-106670000D01*
X133160000Y-106636666D01*
X133060000Y-106636666D01*
X132993333Y-106670000D01*
X132960000Y-106703333D01*
X132926666Y-106770000D01*
X132926666Y-107036666D01*
X132960000Y-106103333D02*
X132926666Y-106003333D01*
X132893333Y-105970000D01*
X132826666Y-105936666D01*
X132726666Y-105936666D01*
X132660000Y-105970000D01*
X132626666Y-106003333D01*
X132593333Y-106070000D01*
X132593333Y-106336666D01*
X133293333Y-106336666D01*
X133293333Y-106103333D01*
X133260000Y-106036666D01*
X133226666Y-106003333D01*
X133160000Y-105970000D01*
X133093333Y-105970000D01*
X133026666Y-106003333D01*
X132993333Y-106036666D01*
X132960000Y-106103333D01*
X132960000Y-106336666D01*
X133293333Y-105503333D02*
X133293333Y-105436666D01*
X133260000Y-105370000D01*
X133226666Y-105336666D01*
X133160000Y-105303333D01*
X133026666Y-105270000D01*
X132860000Y-105270000D01*
X132726666Y-105303333D01*
X132660000Y-105336666D01*
X132626666Y-105370000D01*
X132593333Y-105436666D01*
X132593333Y-105503333D01*
X132626666Y-105570000D01*
X132660000Y-105603333D01*
X132726666Y-105636666D01*
X132860000Y-105670000D01*
X133026666Y-105670000D01*
X133160000Y-105636666D01*
X133226666Y-105603333D01*
X133260000Y-105570000D01*
X133293333Y-105503333D01*
X137733333Y-94730000D02*
X138433333Y-94730000D01*
X138433333Y-94463333D01*
X138400000Y-94396666D01*
X138366666Y-94363333D01*
X138300000Y-94330000D01*
X138200000Y-94330000D01*
X138133333Y-94363333D01*
X138100000Y-94396666D01*
X138066666Y-94463333D01*
X138066666Y-94730000D01*
X137933333Y-94063333D02*
X137933333Y-93730000D01*
X137733333Y-94130000D02*
X138433333Y-93896666D01*
X137733333Y-93663333D01*
X137733333Y-93063333D02*
X137733333Y-93463333D01*
X137733333Y-93263333D02*
X138433333Y-93263333D01*
X138333333Y-93330000D01*
X138266666Y-93396666D01*
X138233333Y-93463333D01*
X137733333Y-92396666D02*
X137733333Y-92796666D01*
X137733333Y-92596666D02*
X138433333Y-92596666D01*
X138333333Y-92663333D01*
X138266666Y-92730000D01*
X138233333Y-92796666D01*
X140243333Y-107036666D02*
X140943333Y-107036666D01*
X140943333Y-106770000D01*
X140910000Y-106703333D01*
X140876666Y-106670000D01*
X140810000Y-106636666D01*
X140710000Y-106636666D01*
X140643333Y-106670000D01*
X140610000Y-106703333D01*
X140576666Y-106770000D01*
X140576666Y-107036666D01*
X140610000Y-106103333D02*
X140576666Y-106003333D01*
X140543333Y-105970000D01*
X140476666Y-105936666D01*
X140376666Y-105936666D01*
X140310000Y-105970000D01*
X140276666Y-106003333D01*
X140243333Y-106070000D01*
X140243333Y-106336666D01*
X140943333Y-106336666D01*
X140943333Y-106103333D01*
X140910000Y-106036666D01*
X140876666Y-106003333D01*
X140810000Y-105970000D01*
X140743333Y-105970000D01*
X140676666Y-106003333D01*
X140643333Y-106036666D01*
X140610000Y-106103333D01*
X140610000Y-106336666D01*
X140943333Y-105703333D02*
X140943333Y-105270000D01*
X140676666Y-105503333D01*
X140676666Y-105403333D01*
X140643333Y-105336666D01*
X140610000Y-105303333D01*
X140543333Y-105270000D01*
X140376666Y-105270000D01*
X140310000Y-105303333D01*
X140276666Y-105336666D01*
X140243333Y-105403333D01*
X140243333Y-105603333D01*
X140276666Y-105670000D01*
X140310000Y-105703333D01*
X155453333Y-107040000D02*
X156153333Y-107040000D01*
X155453333Y-106640000D01*
X156153333Y-106640000D01*
X155453333Y-105906666D02*
X155786666Y-106140000D01*
X155453333Y-106306666D02*
X156153333Y-106306666D01*
X156153333Y-106040000D01*
X156120000Y-105973333D01*
X156086666Y-105940000D01*
X156020000Y-105906666D01*
X155920000Y-105906666D01*
X155853333Y-105940000D01*
X155820000Y-105973333D01*
X155786666Y-106040000D01*
X155786666Y-106306666D01*
X155486666Y-105640000D02*
X155453333Y-105540000D01*
X155453333Y-105373333D01*
X155486666Y-105306666D01*
X155520000Y-105273333D01*
X155586666Y-105240000D01*
X155653333Y-105240000D01*
X155720000Y-105273333D01*
X155753333Y-105306666D01*
X155786666Y-105373333D01*
X155820000Y-105506666D01*
X155853333Y-105573333D01*
X155886666Y-105606666D01*
X155953333Y-105640000D01*
X156020000Y-105640000D01*
X156086666Y-105606666D01*
X156120000Y-105573333D01*
X156153333Y-105506666D01*
X156153333Y-105340000D01*
X156120000Y-105240000D01*
X156153333Y-105040000D02*
X156153333Y-104640000D01*
X155453333Y-104840000D02*
X156153333Y-104840000D01*
X147843333Y-107006666D02*
X148543333Y-107006666D01*
X148543333Y-106740000D01*
X148510000Y-106673333D01*
X148476666Y-106640000D01*
X148410000Y-106606666D01*
X148310000Y-106606666D01*
X148243333Y-106640000D01*
X148210000Y-106673333D01*
X148176666Y-106740000D01*
X148176666Y-107006666D01*
X148210000Y-106073333D02*
X148176666Y-105973333D01*
X148143333Y-105940000D01*
X148076666Y-105906666D01*
X147976666Y-105906666D01*
X147910000Y-105940000D01*
X147876666Y-105973333D01*
X147843333Y-106040000D01*
X147843333Y-106306666D01*
X148543333Y-106306666D01*
X148543333Y-106073333D01*
X148510000Y-106006666D01*
X148476666Y-105973333D01*
X148410000Y-105940000D01*
X148343333Y-105940000D01*
X148276666Y-105973333D01*
X148243333Y-106006666D01*
X148210000Y-106073333D01*
X148210000Y-106306666D01*
X148543333Y-105306666D02*
X148543333Y-105440000D01*
X148510000Y-105506666D01*
X148476666Y-105540000D01*
X148376666Y-105606666D01*
X148243333Y-105640000D01*
X147976666Y-105640000D01*
X147910000Y-105606666D01*
X147876666Y-105573333D01*
X147843333Y-105506666D01*
X147843333Y-105373333D01*
X147876666Y-105306666D01*
X147910000Y-105273333D01*
X147976666Y-105240000D01*
X148143333Y-105240000D01*
X148210000Y-105273333D01*
X148243333Y-105306666D01*
X148276666Y-105373333D01*
X148276666Y-105506666D01*
X148243333Y-105573333D01*
X148210000Y-105606666D01*
X148143333Y-105640000D01*
X135143333Y-94759000D02*
X135843333Y-94759000D01*
X135843333Y-94492333D01*
X135810000Y-94425666D01*
X135776666Y-94392333D01*
X135710000Y-94359000D01*
X135610000Y-94359000D01*
X135543333Y-94392333D01*
X135510000Y-94425666D01*
X135476666Y-94492333D01*
X135476666Y-94759000D01*
X135343333Y-94092333D02*
X135343333Y-93759000D01*
X135143333Y-94159000D02*
X135843333Y-93925666D01*
X135143333Y-93692333D01*
X135143333Y-93092333D02*
X135143333Y-93492333D01*
X135143333Y-93292333D02*
X135843333Y-93292333D01*
X135743333Y-93359000D01*
X135676666Y-93425666D01*
X135643333Y-93492333D01*
X135776666Y-92825666D02*
X135810000Y-92792333D01*
X135843333Y-92725666D01*
X135843333Y-92559000D01*
X135810000Y-92492333D01*
X135776666Y-92459000D01*
X135710000Y-92425666D01*
X135643333Y-92425666D01*
X135543333Y-92459000D01*
X135143333Y-92859000D01*
X135143333Y-92425666D01*
X132623333Y-94740000D02*
X133323333Y-94740000D01*
X133323333Y-94473333D01*
X133290000Y-94406666D01*
X133256666Y-94373333D01*
X133190000Y-94340000D01*
X133090000Y-94340000D01*
X133023333Y-94373333D01*
X132990000Y-94406666D01*
X132956666Y-94473333D01*
X132956666Y-94740000D01*
X132823333Y-94073333D02*
X132823333Y-93740000D01*
X132623333Y-94140000D02*
X133323333Y-93906666D01*
X132623333Y-93673333D01*
X132623333Y-93073333D02*
X132623333Y-93473333D01*
X132623333Y-93273333D02*
X133323333Y-93273333D01*
X133223333Y-93340000D01*
X133156666Y-93406666D01*
X133123333Y-93473333D01*
X133323333Y-92440000D02*
X133323333Y-92773333D01*
X132990000Y-92806666D01*
X133023333Y-92773333D01*
X133056666Y-92706666D01*
X133056666Y-92540000D01*
X133023333Y-92473333D01*
X132990000Y-92440000D01*
X132923333Y-92406666D01*
X132756666Y-92406666D01*
X132690000Y-92440000D01*
X132656666Y-92473333D01*
X132623333Y-92540000D01*
X132623333Y-92706666D01*
X132656666Y-92773333D01*
X132690000Y-92806666D01*
X152913333Y-107036666D02*
X153613333Y-107036666D01*
X153613333Y-106770000D01*
X153580000Y-106703333D01*
X153546666Y-106670000D01*
X153480000Y-106636666D01*
X153380000Y-106636666D01*
X153313333Y-106670000D01*
X153280000Y-106703333D01*
X153246666Y-106770000D01*
X153246666Y-107036666D01*
X153280000Y-106103333D02*
X153246666Y-106003333D01*
X153213333Y-105970000D01*
X153146666Y-105936666D01*
X153046666Y-105936666D01*
X152980000Y-105970000D01*
X152946666Y-106003333D01*
X152913333Y-106070000D01*
X152913333Y-106336666D01*
X153613333Y-106336666D01*
X153613333Y-106103333D01*
X153580000Y-106036666D01*
X153546666Y-106003333D01*
X153480000Y-105970000D01*
X153413333Y-105970000D01*
X153346666Y-106003333D01*
X153313333Y-106036666D01*
X153280000Y-106103333D01*
X153280000Y-106336666D01*
X153313333Y-105536666D02*
X153346666Y-105603333D01*
X153380000Y-105636666D01*
X153446666Y-105670000D01*
X153480000Y-105670000D01*
X153546666Y-105636666D01*
X153580000Y-105603333D01*
X153613333Y-105536666D01*
X153613333Y-105403333D01*
X153580000Y-105336666D01*
X153546666Y-105303333D01*
X153480000Y-105270000D01*
X153446666Y-105270000D01*
X153380000Y-105303333D01*
X153346666Y-105336666D01*
X153313333Y-105403333D01*
X153313333Y-105536666D01*
X153280000Y-105603333D01*
X153246666Y-105636666D01*
X153180000Y-105670000D01*
X153046666Y-105670000D01*
X152980000Y-105636666D01*
X152946666Y-105603333D01*
X152913333Y-105536666D01*
X152913333Y-105403333D01*
X152946666Y-105336666D01*
X152980000Y-105303333D01*
X153046666Y-105270000D01*
X153180000Y-105270000D01*
X153246666Y-105303333D01*
X153280000Y-105336666D01*
X153313333Y-105403333D01*
X140193333Y-94739000D02*
X140893333Y-94739000D01*
X140893333Y-94472333D01*
X140860000Y-94405666D01*
X140826666Y-94372333D01*
X140760000Y-94339000D01*
X140660000Y-94339000D01*
X140593333Y-94372333D01*
X140560000Y-94405666D01*
X140526666Y-94472333D01*
X140526666Y-94739000D01*
X140393333Y-94072333D02*
X140393333Y-93739000D01*
X140193333Y-94139000D02*
X140893333Y-93905666D01*
X140193333Y-93672333D01*
X140193333Y-93072333D02*
X140193333Y-93472333D01*
X140193333Y-93272333D02*
X140893333Y-93272333D01*
X140793333Y-93339000D01*
X140726666Y-93405666D01*
X140693333Y-93472333D01*
X140893333Y-92639000D02*
X140893333Y-92572333D01*
X140860000Y-92505666D01*
X140826666Y-92472333D01*
X140760000Y-92439000D01*
X140626666Y-92405666D01*
X140460000Y-92405666D01*
X140326666Y-92439000D01*
X140260000Y-92472333D01*
X140226666Y-92505666D01*
X140193333Y-92572333D01*
X140193333Y-92639000D01*
X140226666Y-92705666D01*
X140260000Y-92739000D01*
X140326666Y-92772333D01*
X140460000Y-92805666D01*
X140626666Y-92805666D01*
X140760000Y-92772333D01*
X140826666Y-92739000D01*
X140860000Y-92705666D01*
X140893333Y-92639000D01*
X158023333Y-94066666D02*
X158723333Y-94066666D01*
X158723333Y-93800000D01*
X158690000Y-93733333D01*
X158656666Y-93700000D01*
X158590000Y-93666666D01*
X158490000Y-93666666D01*
X158423333Y-93700000D01*
X158390000Y-93733333D01*
X158356666Y-93800000D01*
X158356666Y-94066666D01*
X158223333Y-93400000D02*
X158223333Y-93066666D01*
X158023333Y-93466666D02*
X158723333Y-93233333D01*
X158023333Y-93000000D01*
X158723333Y-92833333D02*
X158723333Y-92400000D01*
X158456666Y-92633333D01*
X158456666Y-92533333D01*
X158423333Y-92466666D01*
X158390000Y-92433333D01*
X158323333Y-92400000D01*
X158156666Y-92400000D01*
X158090000Y-92433333D01*
X158056666Y-92466666D01*
X158023333Y-92533333D01*
X158023333Y-92733333D01*
X158056666Y-92800000D01*
X158090000Y-92833333D01*
X150393333Y-94066666D02*
X151093333Y-94066666D01*
X151093333Y-93800000D01*
X151060000Y-93733333D01*
X151026666Y-93700000D01*
X150960000Y-93666666D01*
X150860000Y-93666666D01*
X150793333Y-93700000D01*
X150760000Y-93733333D01*
X150726666Y-93800000D01*
X150726666Y-94066666D01*
X150593333Y-93400000D02*
X150593333Y-93066666D01*
X150393333Y-93466666D02*
X151093333Y-93233333D01*
X150393333Y-93000000D01*
X151093333Y-92466666D02*
X151093333Y-92600000D01*
X151060000Y-92666666D01*
X151026666Y-92700000D01*
X150926666Y-92766666D01*
X150793333Y-92800000D01*
X150526666Y-92800000D01*
X150460000Y-92766666D01*
X150426666Y-92733333D01*
X150393333Y-92666666D01*
X150393333Y-92533333D01*
X150426666Y-92466666D01*
X150460000Y-92433333D01*
X150526666Y-92400000D01*
X150693333Y-92400000D01*
X150760000Y-92433333D01*
X150793333Y-92466666D01*
X150826666Y-92533333D01*
X150826666Y-92666666D01*
X150793333Y-92733333D01*
X150760000Y-92766666D01*
X150693333Y-92800000D01*
X170943333Y-103153333D02*
X170243333Y-102920000D01*
X170943333Y-102686666D01*
X170276666Y-102186666D02*
X170243333Y-102253333D01*
X170243333Y-102386666D01*
X170276666Y-102453333D01*
X170343333Y-102486666D01*
X170610000Y-102486666D01*
X170676666Y-102453333D01*
X170710000Y-102386666D01*
X170710000Y-102253333D01*
X170676666Y-102186666D01*
X170610000Y-102153333D01*
X170543333Y-102153333D01*
X170476666Y-102486666D01*
X170243333Y-101853333D02*
X170710000Y-101853333D01*
X170576666Y-101853333D02*
X170643333Y-101820000D01*
X170676666Y-101786666D01*
X170710000Y-101720000D01*
X170710000Y-101653333D01*
X170276666Y-101453333D02*
X170243333Y-101386666D01*
X170243333Y-101253333D01*
X170276666Y-101186666D01*
X170343333Y-101153333D01*
X170376666Y-101153333D01*
X170443333Y-101186666D01*
X170476666Y-101253333D01*
X170476666Y-101353333D01*
X170510000Y-101420000D01*
X170576666Y-101453333D01*
X170610000Y-101453333D01*
X170676666Y-101420000D01*
X170710000Y-101353333D01*
X170710000Y-101253333D01*
X170676666Y-101186666D01*
X170243333Y-100853333D02*
X170710000Y-100853333D01*
X170943333Y-100853333D02*
X170910000Y-100886666D01*
X170876666Y-100853333D01*
X170910000Y-100820000D01*
X170943333Y-100853333D01*
X170876666Y-100853333D01*
X170243333Y-100420000D02*
X170276666Y-100486666D01*
X170310000Y-100520000D01*
X170376666Y-100553333D01*
X170576666Y-100553333D01*
X170643333Y-100520000D01*
X170676666Y-100486666D01*
X170710000Y-100420000D01*
X170710000Y-100320000D01*
X170676666Y-100253333D01*
X170643333Y-100220000D01*
X170576666Y-100186666D01*
X170376666Y-100186666D01*
X170310000Y-100220000D01*
X170276666Y-100253333D01*
X170243333Y-100320000D01*
X170243333Y-100420000D01*
X170710000Y-99886666D02*
X170243333Y-99886666D01*
X170643333Y-99886666D02*
X170676666Y-99853333D01*
X170710000Y-99786666D01*
X170710000Y-99686666D01*
X170676666Y-99620000D01*
X170610000Y-99586666D01*
X170243333Y-99586666D01*
X170943333Y-98786666D02*
X170943333Y-98353333D01*
X170676666Y-98586666D01*
X170676666Y-98486666D01*
X170643333Y-98420000D01*
X170610000Y-98386666D01*
X170543333Y-98353333D01*
X170376666Y-98353333D01*
X170310000Y-98386666D01*
X170276666Y-98420000D01*
X170243333Y-98486666D01*
X170243333Y-98686666D01*
X170276666Y-98753333D01*
X170310000Y-98786666D01*
X170310000Y-98053333D02*
X170276666Y-98020000D01*
X170243333Y-98053333D01*
X170276666Y-98086666D01*
X170310000Y-98053333D01*
X170243333Y-98053333D01*
X170943333Y-97586666D02*
X170943333Y-97520000D01*
X170910000Y-97453333D01*
X170876666Y-97420000D01*
X170810000Y-97386666D01*
X170676666Y-97353333D01*
X170510000Y-97353333D01*
X170376666Y-97386666D01*
X170310000Y-97420000D01*
X170276666Y-97453333D01*
X170243333Y-97520000D01*
X170243333Y-97586666D01*
X170276666Y-97653333D01*
X170310000Y-97686666D01*
X170376666Y-97720000D01*
X170510000Y-97753333D01*
X170676666Y-97753333D01*
X170810000Y-97720000D01*
X170876666Y-97686666D01*
X170910000Y-97653333D01*
X170943333Y-97586666D01*
X170310000Y-97053333D02*
X170276666Y-97020000D01*
X170243333Y-97053333D01*
X170276666Y-97086666D01*
X170310000Y-97053333D01*
X170243333Y-97053333D01*
X170943333Y-96586666D02*
X170943333Y-96520000D01*
X170910000Y-96453333D01*
X170876666Y-96420000D01*
X170810000Y-96386666D01*
X170676666Y-96353333D01*
X170510000Y-96353333D01*
X170376666Y-96386666D01*
X170310000Y-96420000D01*
X170276666Y-96453333D01*
X170243333Y-96520000D01*
X170243333Y-96586666D01*
X170276666Y-96653333D01*
X170310000Y-96686666D01*
X170376666Y-96720000D01*
X170510000Y-96753333D01*
X170676666Y-96753333D01*
X170810000Y-96720000D01*
X170876666Y-96686666D01*
X170910000Y-96653333D01*
X170943333Y-96586666D01*
X131634761Y-98616190D02*
X131749047Y-98578095D01*
X131939523Y-98578095D01*
X132015714Y-98616190D01*
X132053809Y-98654285D01*
X132091904Y-98730476D01*
X132091904Y-98806666D01*
X132053809Y-98882857D01*
X132015714Y-98920952D01*
X131939523Y-98959047D01*
X131787142Y-98997142D01*
X131710952Y-99035238D01*
X131672857Y-99073333D01*
X131634761Y-99149523D01*
X131634761Y-99225714D01*
X131672857Y-99301904D01*
X131710952Y-99340000D01*
X131787142Y-99378095D01*
X131977619Y-99378095D01*
X132091904Y-99340000D01*
X132358571Y-99378095D02*
X132549047Y-98578095D01*
X132701428Y-99149523D01*
X132853809Y-98578095D01*
X133044285Y-99378095D01*
X133349047Y-98578095D02*
X133349047Y-99378095D01*
X133539523Y-99378095D01*
X133653809Y-99340000D01*
X133730000Y-99263809D01*
X133768095Y-99187619D01*
X133806190Y-99035238D01*
X133806190Y-98920952D01*
X133768095Y-98768571D01*
X133730000Y-98692380D01*
X133653809Y-98616190D01*
X133539523Y-98578095D01*
X133349047Y-98578095D01*
X134149047Y-98578095D02*
X134149047Y-99378095D01*
X134682380Y-99378095D02*
X134834761Y-99378095D01*
X134910952Y-99340000D01*
X134987142Y-99263809D01*
X135025238Y-99111428D01*
X135025238Y-98844761D01*
X134987142Y-98692380D01*
X134910952Y-98616190D01*
X134834761Y-98578095D01*
X134682380Y-98578095D01*
X134606190Y-98616190D01*
X134530000Y-98692380D01*
X134491904Y-98844761D01*
X134491904Y-99111428D01*
X134530000Y-99263809D01*
X134606190Y-99340000D01*
X134682380Y-99378095D01*
X131644285Y-97608571D02*
X131644285Y-98208571D01*
X131872857Y-98208571D01*
X131930000Y-98180000D01*
X131958571Y-98151428D01*
X131987142Y-98094285D01*
X131987142Y-98008571D01*
X131958571Y-97951428D01*
X131930000Y-97922857D01*
X131872857Y-97894285D01*
X131644285Y-97894285D01*
X132215714Y-97780000D02*
X132501428Y-97780000D01*
X132158571Y-97608571D02*
X132358571Y-98208571D01*
X132558571Y-97608571D01*
X133072857Y-97608571D02*
X132730000Y-97608571D01*
X132901428Y-97608571D02*
X132901428Y-98208571D01*
X132844285Y-98122857D01*
X132787142Y-98065714D01*
X132730000Y-98037142D01*
X133272857Y-98208571D02*
X133644285Y-98208571D01*
X133444285Y-97980000D01*
X133530000Y-97980000D01*
X133587142Y-97951428D01*
X133615714Y-97922857D01*
X133644285Y-97865714D01*
X133644285Y-97722857D01*
X133615714Y-97665714D01*
X133587142Y-97637142D01*
X133530000Y-97608571D01*
X133358571Y-97608571D01*
X133301428Y-97637142D01*
X133272857Y-97665714D01*
X137753333Y-107036666D02*
X138453333Y-107036666D01*
X138453333Y-106770000D01*
X138420000Y-106703333D01*
X138386666Y-106670000D01*
X138320000Y-106636666D01*
X138220000Y-106636666D01*
X138153333Y-106670000D01*
X138120000Y-106703333D01*
X138086666Y-106770000D01*
X138086666Y-107036666D01*
X138120000Y-106103333D02*
X138086666Y-106003333D01*
X138053333Y-105970000D01*
X137986666Y-105936666D01*
X137886666Y-105936666D01*
X137820000Y-105970000D01*
X137786666Y-106003333D01*
X137753333Y-106070000D01*
X137753333Y-106336666D01*
X138453333Y-106336666D01*
X138453333Y-106103333D01*
X138420000Y-106036666D01*
X138386666Y-106003333D01*
X138320000Y-105970000D01*
X138253333Y-105970000D01*
X138186666Y-106003333D01*
X138153333Y-106036666D01*
X138120000Y-106103333D01*
X138120000Y-106336666D01*
X138386666Y-105670000D02*
X138420000Y-105636666D01*
X138453333Y-105570000D01*
X138453333Y-105403333D01*
X138420000Y-105336666D01*
X138386666Y-105303333D01*
X138320000Y-105270000D01*
X138253333Y-105270000D01*
X138153333Y-105303333D01*
X137753333Y-105703333D01*
X137753333Y-105270000D01*
X152963333Y-94056666D02*
X153663333Y-94056666D01*
X153663333Y-93790000D01*
X153630000Y-93723333D01*
X153596666Y-93690000D01*
X153530000Y-93656666D01*
X153430000Y-93656666D01*
X153363333Y-93690000D01*
X153330000Y-93723333D01*
X153296666Y-93790000D01*
X153296666Y-94056666D01*
X153163333Y-93390000D02*
X153163333Y-93056666D01*
X152963333Y-93456666D02*
X153663333Y-93223333D01*
X152963333Y-92990000D01*
X153663333Y-92423333D02*
X153663333Y-92756666D01*
X153330000Y-92790000D01*
X153363333Y-92756666D01*
X153396666Y-92690000D01*
X153396666Y-92523333D01*
X153363333Y-92456666D01*
X153330000Y-92423333D01*
X153263333Y-92390000D01*
X153096666Y-92390000D01*
X153030000Y-92423333D01*
X152996666Y-92456666D01*
X152963333Y-92523333D01*
X152963333Y-92690000D01*
X152996666Y-92756666D01*
X153030000Y-92790000D01*
X142763333Y-94066666D02*
X143463333Y-94066666D01*
X143463333Y-93800000D01*
X143430000Y-93733333D01*
X143396666Y-93700000D01*
X143330000Y-93666666D01*
X143230000Y-93666666D01*
X143163333Y-93700000D01*
X143130000Y-93733333D01*
X143096666Y-93800000D01*
X143096666Y-94066666D01*
X142963333Y-93400000D02*
X142963333Y-93066666D01*
X142763333Y-93466666D02*
X143463333Y-93233333D01*
X142763333Y-93000000D01*
X142763333Y-92733333D02*
X142763333Y-92600000D01*
X142796666Y-92533333D01*
X142830000Y-92500000D01*
X142930000Y-92433333D01*
X143063333Y-92400000D01*
X143330000Y-92400000D01*
X143396666Y-92433333D01*
X143430000Y-92466666D01*
X143463333Y-92533333D01*
X143463333Y-92666666D01*
X143430000Y-92733333D01*
X143396666Y-92766666D01*
X143330000Y-92800000D01*
X143163333Y-92800000D01*
X143096666Y-92766666D01*
X143063333Y-92733333D01*
X143030000Y-92666666D01*
X143030000Y-92533333D01*
X143063333Y-92466666D01*
X143096666Y-92433333D01*
X143163333Y-92400000D01*
X147843333Y-94106666D02*
X148543333Y-94106666D01*
X148543333Y-93840000D01*
X148510000Y-93773333D01*
X148476666Y-93740000D01*
X148410000Y-93706666D01*
X148310000Y-93706666D01*
X148243333Y-93740000D01*
X148210000Y-93773333D01*
X148176666Y-93840000D01*
X148176666Y-94106666D01*
X148043333Y-93440000D02*
X148043333Y-93106666D01*
X147843333Y-93506666D02*
X148543333Y-93273333D01*
X147843333Y-93040000D01*
X148543333Y-92873333D02*
X148543333Y-92406666D01*
X147843333Y-92706666D01*
X131649523Y-96438095D02*
X132144761Y-96438095D01*
X131878095Y-96133333D01*
X131992380Y-96133333D01*
X132068571Y-96095238D01*
X132106666Y-96057142D01*
X132144761Y-95980952D01*
X132144761Y-95790476D01*
X132106666Y-95714285D01*
X132068571Y-95676190D01*
X131992380Y-95638095D01*
X131763809Y-95638095D01*
X131687619Y-95676190D01*
X131649523Y-95714285D01*
X132373333Y-96438095D02*
X132640000Y-95638095D01*
X132906666Y-96438095D01*
X133097142Y-96438095D02*
X133592380Y-96438095D01*
X133325714Y-96133333D01*
X133440000Y-96133333D01*
X133516190Y-96095238D01*
X133554285Y-96057142D01*
X133592380Y-95980952D01*
X133592380Y-95790476D01*
X133554285Y-95714285D01*
X133516190Y-95676190D01*
X133440000Y-95638095D01*
X133211428Y-95638095D01*
X133135238Y-95676190D01*
X133097142Y-95714285D01*
X160583333Y-94066666D02*
X161283333Y-94066666D01*
X161283333Y-93800000D01*
X161250000Y-93733333D01*
X161216666Y-93700000D01*
X161150000Y-93666666D01*
X161050000Y-93666666D01*
X160983333Y-93700000D01*
X160950000Y-93733333D01*
X160916666Y-93800000D01*
X160916666Y-94066666D01*
X160783333Y-93400000D02*
X160783333Y-93066666D01*
X160583333Y-93466666D02*
X161283333Y-93233333D01*
X160583333Y-93000000D01*
X161216666Y-92800000D02*
X161250000Y-92766666D01*
X161283333Y-92700000D01*
X161283333Y-92533333D01*
X161250000Y-92466666D01*
X161216666Y-92433333D01*
X161150000Y-92400000D01*
X161083333Y-92400000D01*
X160983333Y-92433333D01*
X160583333Y-92833333D01*
X160583333Y-92400000D01*
X132100476Y-103970000D02*
X132024285Y-104008095D01*
X131910000Y-104008095D01*
X131795714Y-103970000D01*
X131719523Y-103893809D01*
X131681428Y-103817619D01*
X131643333Y-103665238D01*
X131643333Y-103550952D01*
X131681428Y-103398571D01*
X131719523Y-103322380D01*
X131795714Y-103246190D01*
X131910000Y-103208095D01*
X131986190Y-103208095D01*
X132100476Y-103246190D01*
X132138571Y-103284285D01*
X132138571Y-103550952D01*
X131986190Y-103550952D01*
X132481428Y-103208095D02*
X132481428Y-104008095D01*
X132938571Y-103208095D01*
X132938571Y-104008095D01*
X133319523Y-103208095D02*
X133319523Y-104008095D01*
X133510000Y-104008095D01*
X133624285Y-103970000D01*
X133700476Y-103893809D01*
X133738571Y-103817619D01*
X133776666Y-103665238D01*
X133776666Y-103550952D01*
X133738571Y-103398571D01*
X133700476Y-103322380D01*
X133624285Y-103246190D01*
X133510000Y-103208095D01*
X133319523Y-103208095D01*
X145343333Y-94066666D02*
X146043333Y-94066666D01*
X146043333Y-93800000D01*
X146010000Y-93733333D01*
X145976666Y-93700000D01*
X145910000Y-93666666D01*
X145810000Y-93666666D01*
X145743333Y-93700000D01*
X145710000Y-93733333D01*
X145676666Y-93800000D01*
X145676666Y-94066666D01*
X145543333Y-93400000D02*
X145543333Y-93066666D01*
X145343333Y-93466666D02*
X146043333Y-93233333D01*
X145343333Y-93000000D01*
X145743333Y-92666666D02*
X145776666Y-92733333D01*
X145810000Y-92766666D01*
X145876666Y-92800000D01*
X145910000Y-92800000D01*
X145976666Y-92766666D01*
X146010000Y-92733333D01*
X146043333Y-92666666D01*
X146043333Y-92533333D01*
X146010000Y-92466666D01*
X145976666Y-92433333D01*
X145910000Y-92400000D01*
X145876666Y-92400000D01*
X145810000Y-92433333D01*
X145776666Y-92466666D01*
X145743333Y-92533333D01*
X145743333Y-92666666D01*
X145710000Y-92733333D01*
X145676666Y-92766666D01*
X145610000Y-92800000D01*
X145476666Y-92800000D01*
X145410000Y-92766666D01*
X145376666Y-92733333D01*
X145343333Y-92666666D01*
X145343333Y-92533333D01*
X145376666Y-92466666D01*
X145410000Y-92433333D01*
X145476666Y-92400000D01*
X145610000Y-92400000D01*
X145676666Y-92433333D01*
X145710000Y-92466666D01*
X145743333Y-92533333D01*
X131650476Y-101166190D02*
X131764761Y-101128095D01*
X131955238Y-101128095D01*
X132031428Y-101166190D01*
X132069523Y-101204285D01*
X132107619Y-101280476D01*
X132107619Y-101356666D01*
X132069523Y-101432857D01*
X132031428Y-101470952D01*
X131955238Y-101509047D01*
X131802857Y-101547142D01*
X131726666Y-101585238D01*
X131688571Y-101623333D01*
X131650476Y-101699523D01*
X131650476Y-101775714D01*
X131688571Y-101851904D01*
X131726666Y-101890000D01*
X131802857Y-101928095D01*
X131993333Y-101928095D01*
X132107619Y-101890000D01*
X132374285Y-101928095D02*
X132564761Y-101128095D01*
X132717142Y-101699523D01*
X132869523Y-101128095D01*
X133060000Y-101928095D01*
X133821904Y-101204285D02*
X133783809Y-101166190D01*
X133669523Y-101128095D01*
X133593333Y-101128095D01*
X133479047Y-101166190D01*
X133402857Y-101242380D01*
X133364761Y-101318571D01*
X133326666Y-101470952D01*
X133326666Y-101585238D01*
X133364761Y-101737619D01*
X133402857Y-101813809D01*
X133479047Y-101890000D01*
X133593333Y-101928095D01*
X133669523Y-101928095D01*
X133783809Y-101890000D01*
X133821904Y-101851904D01*
X134545714Y-101128095D02*
X134164761Y-101128095D01*
X134164761Y-101928095D01*
X134812380Y-101128095D02*
X134812380Y-101928095D01*
X135269523Y-101128095D02*
X134926666Y-101585238D01*
X135269523Y-101928095D02*
X134812380Y-101470952D01*
X145313333Y-107006666D02*
X146013333Y-107006666D01*
X146013333Y-106740000D01*
X145980000Y-106673333D01*
X145946666Y-106640000D01*
X145880000Y-106606666D01*
X145780000Y-106606666D01*
X145713333Y-106640000D01*
X145680000Y-106673333D01*
X145646666Y-106740000D01*
X145646666Y-107006666D01*
X145680000Y-106073333D02*
X145646666Y-105973333D01*
X145613333Y-105940000D01*
X145546666Y-105906666D01*
X145446666Y-105906666D01*
X145380000Y-105940000D01*
X145346666Y-105973333D01*
X145313333Y-106040000D01*
X145313333Y-106306666D01*
X146013333Y-106306666D01*
X146013333Y-106073333D01*
X145980000Y-106006666D01*
X145946666Y-105973333D01*
X145880000Y-105940000D01*
X145813333Y-105940000D01*
X145746666Y-105973333D01*
X145713333Y-106006666D01*
X145680000Y-106073333D01*
X145680000Y-106306666D01*
X146013333Y-105273333D02*
X146013333Y-105606666D01*
X145680000Y-105640000D01*
X145713333Y-105606666D01*
X145746666Y-105540000D01*
X145746666Y-105373333D01*
X145713333Y-105306666D01*
X145680000Y-105273333D01*
X145613333Y-105240000D01*
X145446666Y-105240000D01*
X145380000Y-105273333D01*
X145346666Y-105306666D01*
X145313333Y-105373333D01*
X145313333Y-105540000D01*
X145346666Y-105606666D01*
X145380000Y-105640000D01*
X163133333Y-94066666D02*
X163833333Y-94066666D01*
X163833333Y-93800000D01*
X163800000Y-93733333D01*
X163766666Y-93700000D01*
X163700000Y-93666666D01*
X163600000Y-93666666D01*
X163533333Y-93700000D01*
X163500000Y-93733333D01*
X163466666Y-93800000D01*
X163466666Y-94066666D01*
X163333333Y-93400000D02*
X163333333Y-93066666D01*
X163133333Y-93466666D02*
X163833333Y-93233333D01*
X163133333Y-93000000D01*
X163133333Y-92400000D02*
X163133333Y-92800000D01*
X163133333Y-92600000D02*
X163833333Y-92600000D01*
X163733333Y-92666666D01*
X163666666Y-92733333D01*
X163633333Y-92800000D01*
X155543333Y-94096666D02*
X156243333Y-94096666D01*
X156243333Y-93830000D01*
X156210000Y-93763333D01*
X156176666Y-93730000D01*
X156110000Y-93696666D01*
X156010000Y-93696666D01*
X155943333Y-93730000D01*
X155910000Y-93763333D01*
X155876666Y-93830000D01*
X155876666Y-94096666D01*
X155743333Y-93430000D02*
X155743333Y-93096666D01*
X155543333Y-93496666D02*
X156243333Y-93263333D01*
X155543333Y-93030000D01*
X156010000Y-92496666D02*
X155543333Y-92496666D01*
X156276666Y-92663333D02*
X155776666Y-92830000D01*
X155776666Y-92396666D01*
X166308333Y-106613333D02*
X166308333Y-106946666D01*
X165975000Y-106980000D01*
X166008333Y-106946666D01*
X166041666Y-106880000D01*
X166041666Y-106713333D01*
X166008333Y-106646666D01*
X165975000Y-106613333D01*
X165908333Y-106580000D01*
X165741666Y-106580000D01*
X165675000Y-106613333D01*
X165641666Y-106646666D01*
X165608333Y-106713333D01*
X165608333Y-106880000D01*
X165641666Y-106946666D01*
X165675000Y-106980000D01*
X166308333Y-106380000D02*
X165608333Y-106146666D01*
X166308333Y-105913333D01*
X165653333Y-94066666D02*
X166353333Y-94066666D01*
X166353333Y-93800000D01*
X166320000Y-93733333D01*
X166286666Y-93700000D01*
X166220000Y-93666666D01*
X166120000Y-93666666D01*
X166053333Y-93700000D01*
X166020000Y-93733333D01*
X165986666Y-93800000D01*
X165986666Y-94066666D01*
X165853333Y-93400000D02*
X165853333Y-93066666D01*
X165653333Y-93466666D02*
X166353333Y-93233333D01*
X165653333Y-93000000D01*
X166353333Y-92633333D02*
X166353333Y-92566666D01*
X166320000Y-92500000D01*
X166286666Y-92466666D01*
X166220000Y-92433333D01*
X166086666Y-92400000D01*
X165920000Y-92400000D01*
X165786666Y-92433333D01*
X165720000Y-92466666D01*
X165686666Y-92500000D01*
X165653333Y-92566666D01*
X165653333Y-92633333D01*
X165686666Y-92700000D01*
X165720000Y-92733333D01*
X165786666Y-92766666D01*
X165920000Y-92800000D01*
X166086666Y-92800000D01*
X166220000Y-92766666D01*
X166286666Y-92733333D01*
X166320000Y-92700000D01*
X166353333Y-92633333D01*
X135173333Y-107036666D02*
X135873333Y-107036666D01*
X135873333Y-106770000D01*
X135840000Y-106703333D01*
X135806666Y-106670000D01*
X135740000Y-106636666D01*
X135640000Y-106636666D01*
X135573333Y-106670000D01*
X135540000Y-106703333D01*
X135506666Y-106770000D01*
X135506666Y-107036666D01*
X135540000Y-106103333D02*
X135506666Y-106003333D01*
X135473333Y-105970000D01*
X135406666Y-105936666D01*
X135306666Y-105936666D01*
X135240000Y-105970000D01*
X135206666Y-106003333D01*
X135173333Y-106070000D01*
X135173333Y-106336666D01*
X135873333Y-106336666D01*
X135873333Y-106103333D01*
X135840000Y-106036666D01*
X135806666Y-106003333D01*
X135740000Y-105970000D01*
X135673333Y-105970000D01*
X135606666Y-106003333D01*
X135573333Y-106036666D01*
X135540000Y-106103333D01*
X135540000Y-106336666D01*
X135173333Y-105270000D02*
X135173333Y-105670000D01*
X135173333Y-105470000D02*
X135873333Y-105470000D01*
X135773333Y-105536666D01*
X135706666Y-105603333D01*
X135673333Y-105670000D01*
X161253333Y-107036666D02*
X161253333Y-106603333D01*
X160986666Y-106836666D01*
X160986666Y-106736666D01*
X160953333Y-106670000D01*
X160920000Y-106636666D01*
X160853333Y-106603333D01*
X160686666Y-106603333D01*
X160620000Y-106636666D01*
X160586666Y-106670000D01*
X160553333Y-106736666D01*
X160553333Y-106936666D01*
X160586666Y-107003333D01*
X160620000Y-107036666D01*
X161253333Y-106403333D02*
X160553333Y-106170000D01*
X161253333Y-105936666D01*
X161253333Y-105770000D02*
X161253333Y-105336666D01*
X160986666Y-105570000D01*
X160986666Y-105470000D01*
X160953333Y-105403333D01*
X160920000Y-105370000D01*
X160853333Y-105336666D01*
X160686666Y-105336666D01*
X160620000Y-105370000D01*
X160586666Y-105403333D01*
X160553333Y-105470000D01*
X160553333Y-105670000D01*
X160586666Y-105736666D01*
X160620000Y-105770000D01*
X163750000Y-106638333D02*
X163783333Y-106705000D01*
X163783333Y-106805000D01*
X163750000Y-106905000D01*
X163683333Y-106971666D01*
X163616666Y-107005000D01*
X163483333Y-107038333D01*
X163383333Y-107038333D01*
X163250000Y-107005000D01*
X163183333Y-106971666D01*
X163116666Y-106905000D01*
X163083333Y-106805000D01*
X163083333Y-106738333D01*
X163116666Y-106638333D01*
X163150000Y-106605000D01*
X163383333Y-106605000D01*
X163383333Y-106738333D01*
X163083333Y-106305000D02*
X163783333Y-106305000D01*
X163083333Y-105905000D01*
X163783333Y-105905000D01*
X163083333Y-105571666D02*
X163783333Y-105571666D01*
X163783333Y-105405000D01*
X163750000Y-105305000D01*
X163683333Y-105238333D01*
X163616666Y-105205000D01*
X163483333Y-105171666D01*
X163383333Y-105171666D01*
X163250000Y-105205000D01*
X163183333Y-105238333D01*
X163116666Y-105305000D01*
X163083333Y-105405000D01*
X163083333Y-105571666D01*
X158700000Y-106633333D02*
X158733333Y-106700000D01*
X158733333Y-106800000D01*
X158700000Y-106900000D01*
X158633333Y-106966666D01*
X158566666Y-107000000D01*
X158433333Y-107033333D01*
X158333333Y-107033333D01*
X158200000Y-107000000D01*
X158133333Y-106966666D01*
X158066666Y-106900000D01*
X158033333Y-106800000D01*
X158033333Y-106733333D01*
X158066666Y-106633333D01*
X158100000Y-106600000D01*
X158333333Y-106600000D01*
X158333333Y-106733333D01*
X158033333Y-106300000D02*
X158733333Y-106300000D01*
X158033333Y-105900000D01*
X158733333Y-105900000D01*
X158033333Y-105566666D02*
X158733333Y-105566666D01*
X158733333Y-105400000D01*
X158700000Y-105300000D01*
X158633333Y-105233333D01*
X158566666Y-105200000D01*
X158433333Y-105166666D01*
X158333333Y-105166666D01*
X158200000Y-105200000D01*
X158133333Y-105233333D01*
X158066666Y-105300000D01*
X158033333Y-105400000D01*
X158033333Y-105566666D01*
%TO.C,U2*%
X160618095Y-100344523D02*
X159970476Y-100344523D01*
X159894285Y-100306428D01*
X159856190Y-100268333D01*
X159818095Y-100192142D01*
X159818095Y-100039761D01*
X159856190Y-99963571D01*
X159894285Y-99925476D01*
X159970476Y-99887380D01*
X160618095Y-99887380D01*
X160541904Y-99544523D02*
X160580000Y-99506428D01*
X160618095Y-99430238D01*
X160618095Y-99239761D01*
X160580000Y-99163571D01*
X160541904Y-99125476D01*
X160465714Y-99087380D01*
X160389523Y-99087380D01*
X160275238Y-99125476D01*
X159818095Y-99582619D01*
X159818095Y-99087380D01*
%TO.C,C3*%
X163685714Y-98200000D02*
X163657142Y-98228571D01*
X163628571Y-98314285D01*
X163628571Y-98371428D01*
X163657142Y-98457142D01*
X163714285Y-98514285D01*
X163771428Y-98542857D01*
X163885714Y-98571428D01*
X163971428Y-98571428D01*
X164085714Y-98542857D01*
X164142857Y-98514285D01*
X164200000Y-98457142D01*
X164228571Y-98371428D01*
X164228571Y-98314285D01*
X164200000Y-98228571D01*
X164171428Y-98200000D01*
X164228571Y-98000000D02*
X164228571Y-97628571D01*
X164000000Y-97828571D01*
X164000000Y-97742857D01*
X163971428Y-97685714D01*
X163942857Y-97657142D01*
X163885714Y-97628571D01*
X163742857Y-97628571D01*
X163685714Y-97657142D01*
X163657142Y-97685714D01*
X163628571Y-97742857D01*
X163628571Y-97914285D01*
X163657142Y-97971428D01*
X163685714Y-98000000D01*
D12*
%TO.C,*%
D10*
%TO.C,Hole3*%
X175940000Y-107630000D02*
G75*
G03*
X175940000Y-107630000I-900000J0D01*
G01*
%TO.C,Hole1*%
X131430000Y-91810000D02*
G75*
G03*
X131430000Y-91810000I-900000J0D01*
G01*
%TO.C,Hole2*%
X131460000Y-107620000D02*
G75*
G03*
X131460000Y-107620000I-900000J0D01*
G01*
%TO.C,Hole4*%
X175940000Y-91810000D02*
G75*
G03*
X175940000Y-91810000I-900000J0D01*
G01*
D13*
%TO.C,J2*%
X164710000Y-109830000D02*
X131630000Y-109830000D01*
X167310000Y-109830000D02*
X167310000Y-108500000D01*
X165980000Y-109830000D02*
X167310000Y-109830000D01*
X164710000Y-107170000D02*
X131630000Y-107170000D01*
X131630000Y-109830000D02*
X131630000Y-107170000D01*
X164710000Y-109830000D02*
X164710000Y-107170000D01*
D14*
%TO.C,U2*%
X162949000Y-97504000D02*
X157671000Y-97504000D01*
X157671000Y-101856000D02*
X162949000Y-101856000D01*
X162949000Y-101856000D02*
X162949000Y-97504000D01*
X157671000Y-97504000D02*
X157671000Y-101856000D01*
D12*
X163132000Y-103210000D02*
G75*
G03*
X163132000Y-103210000I-150000J0D01*
G01*
X162365000Y-101104000D02*
G75*
G03*
X162365000Y-101104000I-150000J0D01*
G01*
D13*
%TO.C,C3*%
X164290000Y-99757836D02*
X164290000Y-99542164D01*
X163570000Y-99757836D02*
X163570000Y-99542164D01*
%TO.C,J1*%
X167320000Y-92270000D02*
X167320000Y-90940000D01*
X164720000Y-92270000D02*
X164720000Y-89610000D01*
X164720000Y-89610000D02*
X131640000Y-89610000D01*
X164720000Y-92270000D02*
X131640000Y-92270000D01*
X165990000Y-92270000D02*
X167320000Y-92270000D01*
X131640000Y-92270000D02*
X131640000Y-89610000D01*
%TO.C,*%
G36*
X166355473Y-102143169D02*
G01*
X166199631Y-102141860D01*
X166070433Y-102139666D01*
X165965132Y-102136368D01*
X165880984Y-102131744D01*
X165815240Y-102125574D01*
X165765156Y-102117636D01*
X165727985Y-102107709D01*
X165700981Y-102095573D01*
X165681398Y-102081007D01*
X165666488Y-102063789D01*
X165653507Y-102043699D01*
X165639708Y-102020515D01*
X165635227Y-102012749D01*
X165629738Y-102000766D01*
X165624877Y-101985067D01*
X165620606Y-101963431D01*
X165616887Y-101933639D01*
X165613682Y-101893471D01*
X165610952Y-101840709D01*
X165608658Y-101773133D01*
X165606764Y-101688523D01*
X165605230Y-101584660D01*
X165604018Y-101459324D01*
X165603091Y-101310297D01*
X165602409Y-101135358D01*
X165601934Y-100932289D01*
X165601629Y-100698869D01*
X165601455Y-100432880D01*
X165601420Y-100302284D01*
X166660425Y-100302284D01*
X166660425Y-100570112D01*
X166758494Y-100612300D01*
X166856564Y-100654488D01*
X166856564Y-101080964D01*
X166758494Y-101116229D01*
X166660425Y-101151495D01*
X166660425Y-101417768D01*
X166753591Y-101380841D01*
X166757253Y-101379387D01*
X166807939Y-101359076D01*
X166886814Y-101327276D01*
X166986561Y-101286943D01*
X167099868Y-101241036D01*
X167219421Y-101192510D01*
X167245557Y-101181893D01*
X167357330Y-101136505D01*
X167456174Y-101096398D01*
X167536236Y-101063944D01*
X167591663Y-101041516D01*
X167616602Y-101031486D01*
X167627345Y-101018566D01*
X167637696Y-100968129D01*
X167641120Y-100879806D01*
X167641120Y-100737748D01*
X167371429Y-100618372D01*
X167363180Y-100614721D01*
X167242101Y-100561067D01*
X167111246Y-100502997D01*
X166985833Y-100447269D01*
X166881081Y-100400640D01*
X166660425Y-100302284D01*
X165601420Y-100302284D01*
X165601409Y-100261120D01*
X166660425Y-100261120D01*
X167641120Y-100261120D01*
X167641120Y-100007416D01*
X167640395Y-99915217D01*
X167636063Y-99812758D01*
X167626332Y-99736512D01*
X167609509Y-99678896D01*
X167583902Y-99632326D01*
X167547821Y-99589220D01*
X167485262Y-99541227D01*
X167400094Y-99511569D01*
X167311936Y-99510741D01*
X167230814Y-99538590D01*
X167166753Y-99594967D01*
X167156207Y-99609147D01*
X167131001Y-99637478D01*
X167111256Y-99638420D01*
X167083359Y-99615292D01*
X167062406Y-99599893D01*
X167008543Y-99568075D01*
X166935097Y-99529357D01*
X166851660Y-99488967D01*
X166660425Y-99400383D01*
X166660425Y-99673693D01*
X166812290Y-99742901D01*
X166863040Y-99766755D01*
X166952873Y-99815372D01*
X167011381Y-99859604D01*
X167043134Y-99903402D01*
X167052703Y-99950717D01*
X167052703Y-100006139D01*
X166660425Y-100006139D01*
X166660425Y-100261120D01*
X165601409Y-100261120D01*
X165601374Y-100132102D01*
X165601347Y-99794316D01*
X165601315Y-99547938D01*
X165601269Y-99339267D01*
X166660425Y-99339267D01*
X167641120Y-99339267D01*
X167641120Y-99128598D01*
X167464595Y-98976410D01*
X167464526Y-98976351D01*
X167396009Y-98917006D01*
X167339901Y-98867890D01*
X167301992Y-98834108D01*
X167288070Y-98820761D01*
X167288070Y-98820757D01*
X167302060Y-98807324D01*
X167339997Y-98773438D01*
X167396101Y-98724206D01*
X167464595Y-98664738D01*
X167641120Y-98512175D01*
X167641120Y-98299730D01*
X166660425Y-98299730D01*
X166660425Y-98534101D01*
X166962686Y-98539502D01*
X167264947Y-98544904D01*
X167119597Y-98668739D01*
X167081640Y-98702011D01*
X167026379Y-98754441D01*
X166988381Y-98795850D01*
X166974247Y-98819394D01*
X166980084Y-98831935D01*
X167009930Y-98867946D01*
X167059378Y-98917918D01*
X167121978Y-98975057D01*
X167269709Y-99103900D01*
X166660425Y-99103900D01*
X166660425Y-99339267D01*
X165601269Y-99339267D01*
X165601245Y-99229816D01*
X165601249Y-98947224D01*
X165601445Y-98697988D01*
X165601946Y-98479939D01*
X165602869Y-98290904D01*
X165604330Y-98128713D01*
X165606444Y-97991195D01*
X165609326Y-97876179D01*
X165613092Y-97781493D01*
X165617858Y-97704966D01*
X165623740Y-97644427D01*
X165630852Y-97597705D01*
X165639311Y-97562629D01*
X165649232Y-97537028D01*
X165660731Y-97518730D01*
X165673922Y-97505565D01*
X165688923Y-97495361D01*
X165705848Y-97485947D01*
X165724813Y-97475152D01*
X165725348Y-97474827D01*
X165738640Y-97467492D01*
X165754480Y-97461168D01*
X165775691Y-97455779D01*
X165805093Y-97451251D01*
X165845509Y-97447509D01*
X165899760Y-97444478D01*
X165970666Y-97442083D01*
X166061050Y-97440251D01*
X166173734Y-97438905D01*
X166311537Y-97437971D01*
X166477283Y-97437375D01*
X166673792Y-97437042D01*
X166903886Y-97436897D01*
X167170386Y-97436865D01*
X167182140Y-97436865D01*
X167447082Y-97436900D01*
X167675734Y-97437051D01*
X167870918Y-97437394D01*
X168035455Y-97438003D01*
X168172166Y-97438952D01*
X168283873Y-97440316D01*
X168373398Y-97442171D01*
X168443561Y-97444590D01*
X168497185Y-97447649D01*
X168537091Y-97451422D01*
X168566099Y-97455984D01*
X168587033Y-97461410D01*
X168602712Y-97467775D01*
X168615959Y-97475152D01*
X168629189Y-97482807D01*
X168646757Y-97492434D01*
X168662361Y-97502171D01*
X168676116Y-97514191D01*
X168688140Y-97530668D01*
X168698547Y-97553775D01*
X168707455Y-97585685D01*
X168714978Y-97628571D01*
X168721233Y-97684607D01*
X168726336Y-97755965D01*
X168730402Y-97844818D01*
X168733548Y-97953341D01*
X168735889Y-98083706D01*
X168737543Y-98238086D01*
X168738623Y-98418655D01*
X168739247Y-98627585D01*
X168739531Y-98867050D01*
X168739590Y-99139223D01*
X168739540Y-99446278D01*
X168739498Y-99790386D01*
X168739521Y-100030250D01*
X168739581Y-100348737D01*
X168739568Y-100631658D01*
X168739368Y-100881187D01*
X168738864Y-101099497D01*
X168737939Y-101288761D01*
X168736479Y-101451153D01*
X168734366Y-101588844D01*
X168731486Y-101704010D01*
X168727722Y-101798822D01*
X168722958Y-101875454D01*
X168717079Y-101936079D01*
X168709967Y-101982871D01*
X168701508Y-102018003D01*
X168691586Y-102043647D01*
X168680083Y-102061977D01*
X168666885Y-102075166D01*
X168651876Y-102085388D01*
X168634939Y-102094815D01*
X168615959Y-102105621D01*
X168615707Y-102105774D01*
X168602420Y-102113141D01*
X168586641Y-102119494D01*
X168565544Y-102124907D01*
X168536304Y-102129457D01*
X168496094Y-102133218D01*
X168442089Y-102136266D01*
X168371462Y-102138675D01*
X168281389Y-102140521D01*
X168169043Y-102141879D01*
X168031598Y-102142824D01*
X167866229Y-102143432D01*
X167670109Y-102143777D01*
X167440413Y-102143935D01*
X167174316Y-102143981D01*
X167010327Y-102144005D01*
X166758075Y-102144021D01*
X166660425Y-102143929D01*
X166540706Y-102143816D01*
X166355473Y-102143169D01*
G37*
G36*
X167381927Y-99766899D02*
G01*
X167425044Y-99801118D01*
X167454005Y-99863610D01*
X167464595Y-99950224D01*
X167462692Y-99981555D01*
X167450511Y-99998547D01*
X167418403Y-100005075D01*
X167356718Y-100006139D01*
X167248842Y-100006139D01*
X167248842Y-99908522D01*
X167252105Y-99846670D01*
X167265402Y-99807823D01*
X167293413Y-99781701D01*
X167328868Y-99765100D01*
X167381927Y-99766899D01*
G37*
G36*
X167066685Y-100740601D02*
G01*
X167105671Y-100756434D01*
X167167195Y-100781769D01*
X167240706Y-100812267D01*
X167392426Y-100875429D01*
X167247082Y-100931311D01*
X167232894Y-100936756D01*
X167160559Y-100964197D01*
X167101520Y-100986102D01*
X167067413Y-100998143D01*
X167064887Y-100998909D01*
X167048020Y-100999012D01*
X167038412Y-100982256D01*
X167034091Y-100941193D01*
X167033089Y-100868374D01*
X167033727Y-100813599D01*
X167037598Y-100762712D01*
X167046229Y-100739840D01*
X167061037Y-100738381D01*
X167066685Y-100740601D01*
G37*
G36*
X153780654Y-99936076D02*
G01*
X153787089Y-99947730D01*
X153791776Y-99970724D01*
X153795447Y-100008813D01*
X153798836Y-100065751D01*
X153801978Y-100111449D01*
X153807483Y-100163645D01*
X153814032Y-100205774D01*
X153820796Y-100231570D01*
X153824679Y-100242012D01*
X153827493Y-100282347D01*
X153808460Y-100317099D01*
X153767515Y-100346411D01*
X153757426Y-100351243D01*
X153728935Y-100361331D01*
X153710518Y-100362672D01*
X153705709Y-100360010D01*
X153696651Y-100342516D01*
X153700364Y-100321103D01*
X153715826Y-100306596D01*
X153729620Y-100300170D01*
X153754541Y-100283359D01*
X153759028Y-100279338D01*
X153767148Y-100267246D01*
X153766060Y-100250121D01*
X153755937Y-100220079D01*
X153752910Y-100210664D01*
X153744631Y-100167572D01*
X153739381Y-100112745D01*
X153737501Y-100054429D01*
X153739331Y-100000872D01*
X153745213Y-99960321D01*
X153755236Y-99938057D01*
X153772750Y-99932178D01*
X153780654Y-99936076D01*
G37*
G36*
X153978643Y-101348633D02*
G01*
X153972991Y-101354285D01*
X153967339Y-101348633D01*
X153972991Y-101342981D01*
X153978643Y-101348633D01*
G37*
G36*
X152926552Y-99406933D02*
G01*
X153011063Y-99414412D01*
X153086421Y-99428453D01*
X153159059Y-99450243D01*
X153235408Y-99480969D01*
X153237279Y-99481801D01*
X153282258Y-99504745D01*
X153306668Y-99523993D01*
X153310046Y-99538985D01*
X153291927Y-99549163D01*
X153283856Y-99551033D01*
X153227916Y-99555462D01*
X153163888Y-99549419D01*
X153101530Y-99533696D01*
X153054293Y-99518269D01*
X152981949Y-99497256D01*
X152904651Y-99477108D01*
X152828988Y-99459432D01*
X152761549Y-99445834D01*
X152708921Y-99437923D01*
X152702023Y-99437175D01*
X152662902Y-99431477D01*
X152644205Y-99425140D01*
X152644002Y-99417560D01*
X152660280Y-99412447D01*
X152697036Y-99408477D01*
X152751978Y-99405888D01*
X152822892Y-99404838D01*
X152826456Y-99404830D01*
X152926552Y-99406933D01*
G37*
G36*
X147723055Y-100801669D02*
G01*
X147830217Y-100843240D01*
X147937657Y-100907212D01*
X148010152Y-100957889D01*
X148010152Y-100822999D01*
X148417094Y-100822999D01*
X148417094Y-102089042D01*
X148010152Y-102089042D01*
X148010152Y-101176509D01*
X147939502Y-101144214D01*
X147939042Y-101144004D01*
X147888715Y-101124318D01*
X147839000Y-101113238D01*
X147778421Y-101108199D01*
X147735449Y-101107637D01*
X147680083Y-101113518D01*
X147638876Y-101129708D01*
X147607244Y-101158374D01*
X147580601Y-101201682D01*
X147552341Y-101258201D01*
X147548557Y-101673622D01*
X147544772Y-102089042D01*
X147138025Y-102089042D01*
X147142711Y-101611450D01*
X147143240Y-101558777D01*
X147144585Y-101442491D01*
X147146169Y-101345585D01*
X147148237Y-101265758D01*
X147151037Y-101200707D01*
X147154815Y-101148130D01*
X147159817Y-101105724D01*
X147166289Y-101071188D01*
X147174478Y-101042219D01*
X147184630Y-101016514D01*
X147196992Y-100991772D01*
X147211809Y-100965691D01*
X147258033Y-100902958D01*
X147320671Y-100850691D01*
X147398581Y-100812964D01*
X147493657Y-100788587D01*
X147510453Y-100785961D01*
X147616394Y-100782556D01*
X147723055Y-100801669D01*
G37*
G36*
X153583004Y-101393849D02*
G01*
X153577352Y-101399501D01*
X153571700Y-101393849D01*
X153577352Y-101388197D01*
X153583004Y-101393849D01*
G37*
G36*
X153549093Y-101393849D02*
G01*
X153543441Y-101399501D01*
X153537789Y-101393849D01*
X153543441Y-101388197D01*
X153549093Y-101393849D01*
G37*
G36*
X152769119Y-102043827D02*
G01*
X152768303Y-102049811D01*
X152761583Y-102051363D01*
X152760230Y-102049706D01*
X152761583Y-102036291D01*
X152764983Y-102034522D01*
X152769119Y-102043827D01*
G37*
G36*
X142952567Y-97501992D02*
G01*
X142976418Y-97528406D01*
X142995272Y-97551818D01*
X143002497Y-97564409D01*
X143002190Y-97565351D01*
X142990854Y-97577844D01*
X142965606Y-97600757D01*
X142929760Y-97631178D01*
X142886631Y-97666194D01*
X142838762Y-97704736D01*
X142789183Y-97745475D01*
X142745733Y-97781972D01*
X142714246Y-97809378D01*
X142684911Y-97834925D01*
X142661568Y-97853556D01*
X142649701Y-97860855D01*
X142647770Y-97860305D01*
X142633121Y-97848957D01*
X142610209Y-97826904D01*
X142583907Y-97799370D01*
X142559086Y-97771579D01*
X142540621Y-97748758D01*
X142533383Y-97736131D01*
X142540550Y-97726725D01*
X142562764Y-97706008D01*
X142596735Y-97677010D01*
X142639105Y-97642423D01*
X142686514Y-97604941D01*
X142735605Y-97567254D01*
X142783019Y-97532056D01*
X142825397Y-97502039D01*
X142902637Y-97449147D01*
X142952567Y-97501992D01*
G37*
G36*
X139575427Y-98263763D02*
G01*
X139641353Y-98315810D01*
X139756177Y-98401201D01*
X139703137Y-98453444D01*
X139675986Y-98479008D01*
X139653044Y-98498307D01*
X139640805Y-98505687D01*
X139635987Y-98503887D01*
X139615337Y-98490699D01*
X139582996Y-98467126D01*
X139542606Y-98436046D01*
X139497809Y-98400340D01*
X139452246Y-98362886D01*
X139409561Y-98326566D01*
X139373394Y-98294257D01*
X139305274Y-98231190D01*
X139212430Y-98321491D01*
X139185293Y-98346988D01*
X139133442Y-98392278D01*
X139081212Y-98434396D01*
X139036588Y-98466744D01*
X138953590Y-98521697D01*
X139013981Y-98542350D01*
X139051167Y-98554396D01*
X139143717Y-98580482D01*
X139251717Y-98606755D01*
X139370355Y-98632213D01*
X139494821Y-98655858D01*
X139620306Y-98676688D01*
X139741997Y-98693705D01*
X139900946Y-98713576D01*
X139855037Y-98789692D01*
X139838640Y-98816047D01*
X139817463Y-98845313D01*
X139801117Y-98859362D01*
X139786520Y-98861419D01*
X139772116Y-98858950D01*
X139738289Y-98853601D01*
X139692223Y-98846569D01*
X139639569Y-98838724D01*
X139463526Y-98809299D01*
X139173380Y-98744627D01*
X138895560Y-98661752D01*
X138761964Y-98616495D01*
X138639772Y-98657086D01*
X138591487Y-98672612D01*
X138385605Y-98728256D01*
X138163422Y-98772046D01*
X137923259Y-98804328D01*
X137873122Y-98809879D01*
X137829870Y-98813740D01*
X137799957Y-98812536D01*
X137778353Y-98804098D01*
X137760026Y-98786254D01*
X137739947Y-98756835D01*
X137713084Y-98713671D01*
X137669701Y-98644709D01*
X137852054Y-98637979D01*
X137924481Y-98634592D01*
X138169118Y-98611773D01*
X138401013Y-98571746D01*
X138407928Y-98570258D01*
X138472066Y-98556360D01*
X138515284Y-98545438D01*
X138538549Y-98535364D01*
X138542830Y-98524013D01*
X138529098Y-98509256D01*
X138498320Y-98488969D01*
X138451466Y-98461023D01*
X138378023Y-98414462D01*
X138300824Y-98360166D01*
X138227826Y-98303814D01*
X138164342Y-98249513D01*
X138115686Y-98201373D01*
X138096580Y-98179143D01*
X138081893Y-98155264D01*
X138306918Y-98155264D01*
X138345874Y-98195771D01*
X138353472Y-98203325D01*
X138396034Y-98239320D01*
X138452880Y-98280594D01*
X138518968Y-98323812D01*
X138589255Y-98365637D01*
X138658699Y-98402734D01*
X138679369Y-98412874D01*
X138719498Y-98431485D01*
X138750361Y-98444359D01*
X138766551Y-98449167D01*
X138784986Y-98443811D01*
X138818601Y-98427380D01*
X138862190Y-98402477D01*
X138911514Y-98371748D01*
X138962337Y-98337843D01*
X139010421Y-98303408D01*
X139051527Y-98271093D01*
X139078220Y-98248953D01*
X139108522Y-98223785D01*
X139130899Y-98203550D01*
X139143881Y-98187715D01*
X139146003Y-98175744D01*
X139135795Y-98167104D01*
X139111790Y-98161259D01*
X139072519Y-98157676D01*
X139016516Y-98155819D01*
X138942313Y-98155154D01*
X138848441Y-98155148D01*
X138733432Y-98155264D01*
X138306918Y-98155264D01*
X138081893Y-98155264D01*
X138081635Y-98154844D01*
X138075290Y-98127522D01*
X138073970Y-98087408D01*
X138073970Y-98019617D01*
X138582648Y-98019617D01*
X138623173Y-98019606D01*
X138741965Y-98019400D01*
X138840246Y-98018862D01*
X138919622Y-98017903D01*
X138981699Y-98016432D01*
X139028085Y-98014361D01*
X139060384Y-98011600D01*
X139080204Y-98008059D01*
X139089150Y-98003650D01*
X139088830Y-97998282D01*
X139080848Y-97991867D01*
X139075633Y-97987457D01*
X139058141Y-97968657D01*
X139035916Y-97941890D01*
X139001463Y-97898388D01*
X139078648Y-97864297D01*
X139155832Y-97830205D01*
X139212979Y-97905129D01*
X139237039Y-97935035D01*
X139291112Y-97995752D01*
X139356419Y-98063232D01*
X139428529Y-98133226D01*
X139474921Y-98175744D01*
X139503008Y-98201486D01*
X139575427Y-98263763D01*
G37*
G36*
X153865603Y-101422109D02*
G01*
X153864788Y-101428093D01*
X153858067Y-101429645D01*
X153856715Y-101427988D01*
X153858067Y-101414573D01*
X153861467Y-101412804D01*
X153865603Y-101422109D01*
G37*
G36*
X140470410Y-98923933D02*
G01*
X141612110Y-98923933D01*
X141612110Y-99059581D01*
X140470410Y-99059581D01*
X140470410Y-99343919D01*
X140538436Y-99411945D01*
X140725378Y-99408149D01*
X140786048Y-99406985D01*
X140837850Y-99406408D01*
X140872847Y-99406964D01*
X140894146Y-99408975D01*
X140904857Y-99412763D01*
X140908089Y-99418651D01*
X140906951Y-99426960D01*
X140905164Y-99435308D01*
X140899630Y-99466102D01*
X140893836Y-99503261D01*
X140886089Y-99556955D01*
X140685192Y-99556955D01*
X140673268Y-99556954D01*
X140604092Y-99556790D01*
X140552884Y-99556004D01*
X140515598Y-99554115D01*
X140488188Y-99550638D01*
X140466608Y-99545091D01*
X140446814Y-99536990D01*
X140424758Y-99525853D01*
X140393507Y-99507950D01*
X140365317Y-99485731D01*
X140344893Y-99458754D01*
X140330889Y-99423454D01*
X140321963Y-99376267D01*
X140316770Y-99313626D01*
X140313966Y-99231966D01*
X140310125Y-99059581D01*
X139950428Y-99059581D01*
X139950428Y-98923933D01*
X140312154Y-98923933D01*
X140312154Y-98788286D01*
X140470410Y-98788286D01*
X140470410Y-98923933D01*
G37*
G36*
X154438812Y-99740560D02*
G01*
X154517733Y-99742667D01*
X154605198Y-99746125D01*
X154670888Y-99750311D01*
X154715275Y-99755258D01*
X154738834Y-99760997D01*
X154757671Y-99773529D01*
X154769563Y-99799239D01*
X154760803Y-99831505D01*
X154731487Y-99868945D01*
X154710688Y-99888739D01*
X154688591Y-99904016D01*
X154672227Y-99903997D01*
X154656606Y-99890091D01*
X154650758Y-99881178D01*
X154651744Y-99866135D01*
X154668496Y-99844875D01*
X154694733Y-99816946D01*
X154656025Y-99816822D01*
X154616669Y-99814739D01*
X154576071Y-99809877D01*
X154568363Y-99808654D01*
X154544331Y-99807755D01*
X154529654Y-99817843D01*
X154515437Y-99843913D01*
X154511122Y-99852930D01*
X154499798Y-99875726D01*
X154494511Y-99884940D01*
X154492574Y-99885539D01*
X154475789Y-99891382D01*
X154447757Y-99901400D01*
X154445268Y-99902297D01*
X154413252Y-99913282D01*
X154392380Y-99916886D01*
X154373037Y-99913191D01*
X154345604Y-99902280D01*
X154345321Y-99902161D01*
X154310642Y-99879005D01*
X154282679Y-99845760D01*
X154270524Y-99827285D01*
X154250542Y-99810119D01*
X154224116Y-99805642D01*
X154196237Y-99810862D01*
X154163392Y-99829909D01*
X154152501Y-99839457D01*
X154135631Y-99847251D01*
X154120274Y-99839829D01*
X154115363Y-99835450D01*
X154104385Y-99816634D01*
X154111093Y-99795090D01*
X154136431Y-99766527D01*
X154169875Y-99734485D01*
X154438812Y-99740560D01*
G37*
G36*
X153345621Y-101241245D02*
G01*
X153344805Y-101247230D01*
X153338085Y-101248781D01*
X153336732Y-101247125D01*
X153338085Y-101233709D01*
X153341485Y-101231941D01*
X153345621Y-101241245D01*
G37*
G36*
X153858250Y-100820178D02*
G01*
X153874081Y-100821382D01*
X153881508Y-100826577D01*
X153888211Y-100845874D01*
X153886164Y-100857295D01*
X153874081Y-100872183D01*
X153870438Y-100872989D01*
X153847090Y-100874733D01*
X153807280Y-100875870D01*
X153755450Y-100876307D01*
X153696044Y-100875951D01*
X153667121Y-100875569D01*
X153611551Y-100874535D01*
X153573641Y-100872896D01*
X153549892Y-100870088D01*
X153536803Y-100865548D01*
X153530873Y-100858714D01*
X153528602Y-100849022D01*
X153527924Y-100843125D01*
X153529246Y-100835190D01*
X153536589Y-100829700D01*
X153553271Y-100826084D01*
X153582607Y-100823770D01*
X153627914Y-100822187D01*
X153692509Y-100820762D01*
X153718999Y-100820275D01*
X153776324Y-100819610D01*
X153824203Y-100819583D01*
X153858250Y-100820178D01*
G37*
G36*
X143511175Y-102089042D02*
G01*
X143104233Y-102089042D01*
X143104233Y-101648188D01*
X143511175Y-101648188D01*
X143511175Y-102089042D01*
G37*
G36*
X149208372Y-102089042D02*
G01*
X148801429Y-102089042D01*
X148801429Y-100822999D01*
X149208372Y-100822999D01*
X149208372Y-102089042D01*
G37*
G36*
X143409440Y-97951793D02*
G01*
X144370276Y-97951793D01*
X144370276Y-98110048D01*
X143933864Y-98110048D01*
X143919611Y-98110049D01*
X143811291Y-98110113D01*
X143723287Y-98110350D01*
X143653551Y-98110855D01*
X143600032Y-98111723D01*
X143560683Y-98113048D01*
X143533453Y-98114924D01*
X143516294Y-98117446D01*
X143507157Y-98120708D01*
X143503992Y-98124804D01*
X143504751Y-98129830D01*
X143508700Y-98139214D01*
X143527028Y-98174393D01*
X143555242Y-98222610D01*
X143590910Y-98280076D01*
X143631602Y-98343005D01*
X143674886Y-98407608D01*
X143718330Y-98470099D01*
X143759503Y-98526688D01*
X143795698Y-98573295D01*
X143867219Y-98658800D01*
X143948572Y-98749679D01*
X144035191Y-98841158D01*
X144122506Y-98928465D01*
X144205948Y-99006828D01*
X144280951Y-99071473D01*
X144319293Y-99102612D01*
X144360155Y-99135861D01*
X144393026Y-99162678D01*
X144413120Y-99179162D01*
X144441525Y-99202659D01*
X144382261Y-99278072D01*
X144371680Y-99291411D01*
X144345611Y-99323136D01*
X144326123Y-99345207D01*
X144316809Y-99353484D01*
X144305266Y-99348419D01*
X144278785Y-99329078D01*
X144241178Y-99297460D01*
X144194863Y-99255904D01*
X144142258Y-99206745D01*
X144085781Y-99152320D01*
X144027850Y-99094967D01*
X143970884Y-99037022D01*
X143917300Y-98980822D01*
X143869516Y-98928702D01*
X143829951Y-98883001D01*
X143758409Y-98792607D01*
X143654077Y-98645937D01*
X143556183Y-98490969D01*
X143470267Y-98336127D01*
X143415092Y-98228740D01*
X143412178Y-98915455D01*
X143409265Y-99602171D01*
X143240055Y-99602171D01*
X143237142Y-98915455D01*
X143234228Y-98228740D01*
X143158495Y-98372991D01*
X143086776Y-98502266D01*
X142955500Y-98707335D01*
X142811804Y-98895724D01*
X142657039Y-99065568D01*
X142624064Y-99097603D01*
X142577315Y-99140739D01*
X142527766Y-99184482D01*
X142478643Y-99226165D01*
X142433170Y-99263119D01*
X142394571Y-99292674D01*
X142366071Y-99312164D01*
X142350895Y-99318918D01*
X142347143Y-99316763D01*
X142330904Y-99300994D01*
X142306290Y-99273318D01*
X142276977Y-99237769D01*
X142212739Y-99157273D01*
X142276977Y-99117708D01*
X142397960Y-99036450D01*
X142555903Y-98909189D01*
X142705907Y-98763612D01*
X142845696Y-98601981D01*
X142972990Y-98426559D01*
X142975417Y-98422888D01*
X143008602Y-98371311D01*
X143042620Y-98316244D01*
X143075306Y-98261448D01*
X143104497Y-98210680D01*
X143128027Y-98167699D01*
X143143732Y-98136264D01*
X143149449Y-98120133D01*
X143149333Y-98119888D01*
X143136217Y-98117575D01*
X143102879Y-98115481D01*
X143051481Y-98113657D01*
X142984190Y-98112153D01*
X142903168Y-98111017D01*
X142810582Y-98110299D01*
X142708594Y-98110048D01*
X142267740Y-98110048D01*
X142267740Y-97951793D01*
X143239880Y-97951793D01*
X143239880Y-97409203D01*
X143409440Y-97409203D01*
X143409440Y-97951793D01*
G37*
G36*
X150024613Y-101001036D02*
G01*
X150027909Y-101597320D01*
X150057992Y-101661494D01*
X150086268Y-101709397D01*
X150132927Y-101755792D01*
X150193017Y-101786548D01*
X150268137Y-101802423D01*
X150359889Y-101804171D01*
X150400503Y-101800859D01*
X150479034Y-101784233D01*
X150540785Y-101753708D01*
X150587514Y-101707789D01*
X150620981Y-101644985D01*
X150642946Y-101563800D01*
X150645970Y-101536312D01*
X150648724Y-101486408D01*
X150651026Y-101416004D01*
X150652854Y-101326176D01*
X150654186Y-101218001D01*
X150655002Y-101092556D01*
X150655279Y-100950918D01*
X150655279Y-100404752D01*
X151084829Y-100404752D01*
X151084435Y-100972776D01*
X151084284Y-101076329D01*
X151083810Y-101200543D01*
X151082985Y-101305349D01*
X151081763Y-101392598D01*
X151080098Y-101464144D01*
X151077945Y-101521837D01*
X151075256Y-101567529D01*
X151071986Y-101603072D01*
X151068089Y-101630319D01*
X151067917Y-101631280D01*
X151037642Y-101741873D01*
X150989271Y-101839257D01*
X150923404Y-101922924D01*
X150840644Y-101992368D01*
X150741593Y-102047086D01*
X150626852Y-102086569D01*
X150497023Y-102110314D01*
X150485474Y-102111594D01*
X150318957Y-102119938D01*
X150162746Y-102108203D01*
X150016890Y-102076392D01*
X149964872Y-102059514D01*
X149891187Y-102028105D01*
X149827388Y-101988943D01*
X149765520Y-101937638D01*
X149730963Y-101903127D01*
X149680956Y-101838326D01*
X149643580Y-101764634D01*
X149615067Y-101675482D01*
X149611955Y-101662926D01*
X149607468Y-101642264D01*
X149603735Y-101619883D01*
X149600686Y-101593693D01*
X149598254Y-101561605D01*
X149596370Y-101521531D01*
X149594964Y-101471382D01*
X149593968Y-101409069D01*
X149593313Y-101332503D01*
X149592930Y-101239596D01*
X149592751Y-101128259D01*
X149592706Y-100996402D01*
X149592706Y-100404752D01*
X150021318Y-100404752D01*
X150024613Y-101001036D01*
G37*
G36*
X153631188Y-101322100D02*
G01*
X153633872Y-101331677D01*
X153631555Y-101335097D01*
X153622568Y-101342981D01*
X153620933Y-101342449D01*
X153611264Y-101331677D01*
X153610359Y-101325690D01*
X153622568Y-101320373D01*
X153631188Y-101322100D01*
G37*
G36*
X149219676Y-100630832D02*
G01*
X148790125Y-100630832D01*
X148790125Y-100325625D01*
X149219676Y-100325625D01*
X149219676Y-100630832D01*
G37*
G36*
X138995714Y-100788008D02*
G01*
X139004227Y-100789690D01*
X139069481Y-100809083D01*
X139141858Y-100839645D01*
X139213244Y-100877575D01*
X139275526Y-100919073D01*
X139328710Y-100959682D01*
X139328710Y-100822999D01*
X139735652Y-100822999D01*
X139735652Y-102089042D01*
X139328710Y-102089042D01*
X139328710Y-101176768D01*
X139251506Y-101141183D01*
X139215288Y-101126299D01*
X139140933Y-101107151D01*
X139072130Y-101104428D01*
X139011794Y-101117688D01*
X138962844Y-101146486D01*
X138928195Y-101190378D01*
X138927730Y-101191279D01*
X138921788Y-101203903D01*
X138916936Y-101217896D01*
X138913042Y-101235618D01*
X138909969Y-101259430D01*
X138907584Y-101291690D01*
X138905751Y-101334759D01*
X138904336Y-101390997D01*
X138903205Y-101462763D01*
X138902221Y-101552416D01*
X138901251Y-101662318D01*
X138897691Y-102089042D01*
X138492217Y-102089042D01*
X138492217Y-101175084D01*
X138427219Y-101143195D01*
X138383924Y-101124807D01*
X138336010Y-101113023D01*
X138277441Y-101107878D01*
X138270541Y-101107633D01*
X138204412Y-101110257D01*
X138154908Y-101123828D01*
X138118316Y-101149987D01*
X138090926Y-101190378D01*
X138085541Y-101202087D01*
X138080680Y-101216264D01*
X138076761Y-101234177D01*
X138073652Y-101258184D01*
X138071221Y-101290645D01*
X138069338Y-101333918D01*
X138067871Y-101390363D01*
X138066689Y-101462339D01*
X138065660Y-101552204D01*
X138064653Y-101662318D01*
X138060988Y-102089042D01*
X137653336Y-102089042D01*
X137658789Y-101611450D01*
X137659203Y-101575607D01*
X137660700Y-101457875D01*
X137662343Y-101359767D01*
X137664363Y-101278939D01*
X137666991Y-101213046D01*
X137670460Y-101159744D01*
X137675001Y-101116689D01*
X137680846Y-101081537D01*
X137688227Y-101051944D01*
X137697375Y-101025566D01*
X137708522Y-101000058D01*
X137721900Y-100973077D01*
X137751336Y-100926326D01*
X137809273Y-100867246D01*
X137880965Y-100822412D01*
X137963115Y-100793267D01*
X138052425Y-100781253D01*
X138145596Y-100787812D01*
X138177135Y-100795003D01*
X138246616Y-100819162D01*
X138322666Y-100854361D01*
X138398941Y-100897509D01*
X138469099Y-100945515D01*
X138542064Y-101000985D01*
X138572045Y-100953710D01*
X138592713Y-100924848D01*
X138653435Y-100865994D01*
X138727853Y-100821413D01*
X138812211Y-100792575D01*
X138902751Y-100780950D01*
X138995714Y-100788008D01*
G37*
G36*
X154585813Y-99400471D02*
G01*
X154639486Y-99402269D01*
X154689461Y-99405507D01*
X154731009Y-99409884D01*
X154759405Y-99415097D01*
X154769920Y-99420844D01*
X154767409Y-99423117D01*
X154747980Y-99429127D01*
X154713513Y-99435980D01*
X154669031Y-99442593D01*
X154661061Y-99443694D01*
X154608624Y-99453235D01*
X154543673Y-99467815D01*
X154473703Y-99485654D01*
X154406213Y-99504972D01*
X154338588Y-99524717D01*
X154263277Y-99543414D01*
X154203211Y-99553498D01*
X154155351Y-99555440D01*
X154116654Y-99549710D01*
X154097970Y-99540868D01*
X154097699Y-99527711D01*
X154118193Y-99509979D01*
X154159962Y-99486936D01*
X154205779Y-99466823D01*
X154294496Y-99437365D01*
X154390447Y-99415125D01*
X154484169Y-99402566D01*
X154486275Y-99402407D01*
X154533167Y-99400416D01*
X154585813Y-99400471D01*
G37*
G36*
X153379533Y-101326025D02*
G01*
X153373881Y-101331677D01*
X153368229Y-101326025D01*
X153373881Y-101320373D01*
X153379533Y-101326025D01*
G37*
G36*
X154008787Y-101256317D02*
G01*
X154010555Y-101259717D01*
X154001251Y-101263853D01*
X153995267Y-101263038D01*
X153993715Y-101256317D01*
X153995372Y-101254965D01*
X154008787Y-101256317D01*
G37*
G36*
X153500109Y-101324141D02*
G01*
X153501877Y-101327541D01*
X153492573Y-101331677D01*
X153486588Y-101330861D01*
X153485037Y-101324141D01*
X153486694Y-101322788D01*
X153500109Y-101324141D01*
G37*
G36*
X139340014Y-99590867D02*
G01*
X139340014Y-99488920D01*
X138777642Y-99491852D01*
X138215270Y-99494783D01*
X138208318Y-99590867D01*
X138051362Y-99590867D01*
X138051362Y-99353484D01*
X138209013Y-99353484D01*
X139340014Y-99353484D01*
X139340014Y-99014154D01*
X138777642Y-99017086D01*
X138215270Y-99020017D01*
X138212141Y-99186751D01*
X138209013Y-99353484D01*
X138051362Y-99353484D01*
X138051362Y-98878718D01*
X139498269Y-98878718D01*
X139498269Y-99590867D01*
X139340014Y-99590867D01*
G37*
G36*
X141284295Y-98833502D02*
G01*
X141284295Y-98652638D01*
X140877352Y-98652638D01*
X140877352Y-98799590D01*
X140720176Y-98799590D01*
X140716810Y-98728940D01*
X140713445Y-98658290D01*
X140507148Y-98655209D01*
X140300850Y-98652128D01*
X140300850Y-98788286D01*
X140142595Y-98788286D01*
X140142595Y-98528295D01*
X140300850Y-98528295D01*
X141284295Y-98528295D01*
X141284295Y-98370039D01*
X140877352Y-98370039D01*
X140877352Y-98528295D01*
X140720130Y-98528295D01*
X140716787Y-98451993D01*
X140713445Y-98375691D01*
X140507148Y-98372610D01*
X140300850Y-98369529D01*
X140300850Y-98528295D01*
X140142595Y-98528295D01*
X140142595Y-98245696D01*
X140300850Y-98245696D01*
X141284295Y-98245696D01*
X141284295Y-98087440D01*
X140877352Y-98087440D01*
X140877352Y-98245696D01*
X140719097Y-98245696D01*
X140719097Y-98087440D01*
X140300850Y-98087440D01*
X140300850Y-98245696D01*
X140142595Y-98245696D01*
X140142595Y-97951793D01*
X140719097Y-97951793D01*
X140719097Y-97804841D01*
X140006947Y-97804841D01*
X140006947Y-97669194D01*
X140719097Y-97669194D01*
X140719097Y-97409203D01*
X140877352Y-97409203D01*
X140877352Y-97669194D01*
X141555590Y-97669194D01*
X141555590Y-97804841D01*
X140877352Y-97804841D01*
X140877352Y-97951793D01*
X141442550Y-97951793D01*
X141442550Y-98833502D01*
X141284295Y-98833502D01*
G37*
G36*
X154625946Y-101961594D02*
G01*
X154624879Y-101980031D01*
X154622025Y-101989948D01*
X154617780Y-101996781D01*
X154613803Y-101982840D01*
X154613363Y-101980776D01*
X154607805Y-101968583D01*
X154598355Y-101977188D01*
X154597669Y-101978168D01*
X154590035Y-101987214D01*
X154591635Y-101976991D01*
X154595516Y-101969485D01*
X154613731Y-101958410D01*
X154625946Y-101961594D01*
G37*
G36*
X141928621Y-98030921D02*
G01*
X142154700Y-98030921D01*
X142154700Y-98189176D01*
X141928621Y-98189176D01*
X141928621Y-99590867D01*
X141770365Y-99590867D01*
X141770365Y-98189176D01*
X141555590Y-98189176D01*
X141555590Y-98030921D01*
X141770365Y-98030921D01*
X141770365Y-97409203D01*
X141928621Y-97409203D01*
X141928621Y-98030921D01*
G37*
G36*
X138854896Y-97411827D02*
G01*
X138889029Y-97431979D01*
X138919629Y-97452007D01*
X138933657Y-97468520D01*
X138932408Y-97486684D01*
X138917183Y-97511663D01*
X138889278Y-97548622D01*
X138875763Y-97566071D01*
X138854422Y-97592648D01*
X138837677Y-97614285D01*
X138827165Y-97631483D01*
X138824522Y-97644743D01*
X138831385Y-97654566D01*
X138849392Y-97661454D01*
X138880178Y-97665907D01*
X138925381Y-97668426D01*
X138986638Y-97669514D01*
X139065585Y-97669670D01*
X139163858Y-97669396D01*
X139283096Y-97669194D01*
X139758260Y-97669194D01*
X139758260Y-98087440D01*
X139600005Y-98087440D01*
X139600005Y-97816145D01*
X137938323Y-97816145D01*
X137938323Y-98087440D01*
X137780067Y-98087440D01*
X137780067Y-97669194D01*
X138723544Y-97669194D01*
X138678530Y-97639191D01*
X138663853Y-97629373D01*
X138640328Y-97613451D01*
X138629094Y-97605567D01*
X138632562Y-97596609D01*
X138647551Y-97574021D01*
X138671209Y-97541934D01*
X138700475Y-97504370D01*
X138732285Y-97465354D01*
X138763576Y-97428910D01*
X138804982Y-97382251D01*
X138854896Y-97411827D01*
G37*
G36*
X146382381Y-97861361D02*
G01*
X146676284Y-97861361D01*
X146676284Y-98008313D01*
X146382381Y-98008313D01*
X146382381Y-98491295D01*
X146526507Y-98532993D01*
X146536822Y-98535979D01*
X146590663Y-98551627D01*
X146636506Y-98565048D01*
X146669778Y-98574899D01*
X146685901Y-98579835D01*
X146690357Y-98582517D01*
X146695739Y-98595508D01*
X146696539Y-98622188D01*
X146693112Y-98666851D01*
X146692634Y-98671640D01*
X146688049Y-98711455D01*
X146683617Y-98740887D01*
X146680237Y-98753864D01*
X146677089Y-98753833D01*
X146656953Y-98749178D01*
X146622336Y-98739528D01*
X146577937Y-98726325D01*
X146528456Y-98711011D01*
X146478592Y-98695027D01*
X146433044Y-98679815D01*
X146396511Y-98666817D01*
X146395651Y-98666647D01*
X146391640Y-98671482D01*
X146388471Y-98687363D01*
X146386060Y-98716216D01*
X146384328Y-98759967D01*
X146383192Y-98820544D01*
X146382570Y-98899874D01*
X146382381Y-98999881D01*
X146382381Y-99338239D01*
X146409972Y-99364159D01*
X146411623Y-99365699D01*
X146425619Y-99376904D01*
X146441522Y-99383710D01*
X146464499Y-99386891D01*
X146499714Y-99387220D01*
X146552333Y-99385469D01*
X146667104Y-99380859D01*
X146659279Y-99453921D01*
X146654921Y-99490043D01*
X146649845Y-99523439D01*
X146645704Y-99541969D01*
X146644920Y-99543467D01*
X146633872Y-99549839D01*
X146609029Y-99554002D01*
X146567464Y-99556269D01*
X146506251Y-99556955D01*
X146490691Y-99556917D01*
X146423668Y-99555301D01*
X146373809Y-99550594D01*
X146336632Y-99541820D01*
X146307656Y-99528001D01*
X146282398Y-99508160D01*
X146269982Y-99496430D01*
X146256170Y-99481755D01*
X146245042Y-99465870D01*
X146236267Y-99446398D01*
X146229513Y-99420962D01*
X146224446Y-99387184D01*
X146220736Y-99342686D01*
X146218051Y-99285092D01*
X146216058Y-99212025D01*
X146214426Y-99121106D01*
X146212822Y-99009958D01*
X146207170Y-98604261D01*
X146085652Y-98565918D01*
X145964135Y-98527575D01*
X145964135Y-98360567D01*
X146056588Y-98388959D01*
X146069829Y-98393045D01*
X146115067Y-98407284D01*
X146152823Y-98419569D01*
X146176016Y-98427608D01*
X146194789Y-98434291D01*
X146207906Y-98437863D01*
X146208009Y-98437816D01*
X146209530Y-98425750D01*
X146210851Y-98394772D01*
X146211893Y-98348354D01*
X146212576Y-98289969D01*
X146212822Y-98223088D01*
X146212822Y-98008313D01*
X145952831Y-98008313D01*
X145952831Y-97861361D01*
X146212822Y-97861361D01*
X146212822Y-97420507D01*
X146382381Y-97420507D01*
X146382381Y-97861361D01*
G37*
G36*
X154622969Y-101930787D02*
G01*
X154622153Y-101936771D01*
X154615433Y-101938323D01*
X154614080Y-101936666D01*
X154615433Y-101923251D01*
X154618833Y-101921483D01*
X154622969Y-101930787D01*
G37*
G36*
X153458661Y-101359937D02*
G01*
X153453009Y-101365589D01*
X153447357Y-101359937D01*
X153453009Y-101354285D01*
X153458661Y-101359937D01*
G37*
G36*
X153282344Y-99763946D02*
G01*
X153303856Y-99790336D01*
X153310437Y-99816465D01*
X153296351Y-99838228D01*
X153292615Y-99840934D01*
X153275880Y-99842798D01*
X153252179Y-99828308D01*
X153235603Y-99817051D01*
X153197554Y-99805080D01*
X153164158Y-99814047D01*
X153138162Y-99843585D01*
X153136859Y-99845915D01*
X153112071Y-99876861D01*
X153081897Y-99899762D01*
X153060748Y-99908078D01*
X153012327Y-99912729D01*
X152965251Y-99901036D01*
X152925862Y-99875182D01*
X152900506Y-99837349D01*
X152887811Y-99803635D01*
X152814335Y-99811405D01*
X152777894Y-99815768D01*
X152749004Y-99820257D01*
X152736219Y-99823644D01*
X152737774Y-99831629D01*
X152750349Y-99848853D01*
X152762628Y-99864890D01*
X152767494Y-99886530D01*
X152751344Y-99900476D01*
X152730762Y-99902119D01*
X152699806Y-99886568D01*
X152668170Y-99851962D01*
X152662581Y-99843816D01*
X152647110Y-99811269D01*
X152650572Y-99786387D01*
X152673214Y-99764922D01*
X152684358Y-99759332D01*
X152702249Y-99754389D01*
X152728792Y-99750463D01*
X152766780Y-99747330D01*
X152819003Y-99744764D01*
X152888251Y-99742540D01*
X152977316Y-99740435D01*
X153252979Y-99734580D01*
X153282344Y-99763946D01*
G37*
G36*
X145710077Y-98485200D02*
G01*
X145688355Y-98550088D01*
X145660135Y-98624641D01*
X145628615Y-98701016D01*
X145596994Y-98771367D01*
X145568471Y-98827850D01*
X145544965Y-98868249D01*
X145498764Y-98940574D01*
X145444708Y-99018726D01*
X145387276Y-99096074D01*
X145363496Y-99126915D01*
X145457518Y-99187999D01*
X145491799Y-99209578D01*
X145590007Y-99265908D01*
X145698544Y-99321754D01*
X145809075Y-99372956D01*
X145913267Y-99415358D01*
X145950174Y-99429217D01*
X145990343Y-99444587D01*
X146018346Y-99455652D01*
X146029663Y-99460652D01*
X146029586Y-99461850D01*
X146021497Y-99476056D01*
X146003567Y-99502461D01*
X145978795Y-99536589D01*
X145924571Y-99609361D01*
X145836537Y-99572100D01*
X145768803Y-99542125D01*
X145632927Y-99475285D01*
X145498000Y-99400883D01*
X145374685Y-99324632D01*
X145362030Y-99316289D01*
X145316502Y-99286540D01*
X145279011Y-99262457D01*
X145253150Y-99246329D01*
X145242513Y-99240444D01*
X145240900Y-99241095D01*
X145225490Y-99250904D01*
X145197972Y-99270043D01*
X145162936Y-99295347D01*
X145139167Y-99312543D01*
X145003685Y-99401835D01*
X144857015Y-99483802D01*
X144693455Y-99561678D01*
X144633269Y-99588295D01*
X144565535Y-99507130D01*
X144497801Y-99425964D01*
X144606424Y-99388870D01*
X144624711Y-99382480D01*
X144687798Y-99358864D01*
X144752166Y-99332866D01*
X144806384Y-99309047D01*
X144837389Y-99293795D01*
X144887987Y-99266727D01*
X144941447Y-99236163D01*
X144993189Y-99204894D01*
X145038632Y-99175714D01*
X145073195Y-99151412D01*
X145092297Y-99134783D01*
X145094487Y-99125643D01*
X145086633Y-99107201D01*
X145065708Y-99078280D01*
X145030085Y-99036302D01*
X145012133Y-99015530D01*
X144944576Y-98930137D01*
X144880467Y-98838256D01*
X144821519Y-98743172D01*
X144769446Y-98648171D01*
X144725962Y-98556538D01*
X144692781Y-98471559D01*
X144676900Y-98415255D01*
X144854823Y-98415255D01*
X144862341Y-98440689D01*
X144865763Y-98451577D01*
X144886623Y-98506013D01*
X144915935Y-98570989D01*
X144950409Y-98639854D01*
X144986752Y-98705957D01*
X145021673Y-98762646D01*
X145034632Y-98781579D01*
X145075955Y-98837464D01*
X145120917Y-98893343D01*
X145161853Y-98939544D01*
X145236218Y-99017528D01*
X145293057Y-98945297D01*
X145295957Y-98941604D01*
X145381253Y-98824376D01*
X145449975Y-98710089D01*
X145505758Y-98591983D01*
X145552237Y-98463297D01*
X145567415Y-98415255D01*
X144854823Y-98415255D01*
X144676900Y-98415255D01*
X144671615Y-98396520D01*
X144664179Y-98334707D01*
X144664179Y-98268304D01*
X145138946Y-98268304D01*
X145138946Y-97929185D01*
X144539836Y-97929185D01*
X144539836Y-97770929D01*
X145138946Y-97770929D01*
X145138946Y-97409203D01*
X145308505Y-97409203D01*
X145308505Y-97770929D01*
X145885007Y-97770929D01*
X145885007Y-97929185D01*
X145308505Y-97929185D01*
X145308505Y-98268304D01*
X145885007Y-98268304D01*
X145885007Y-98415255D01*
X145729690Y-98415255D01*
X145714805Y-98468949D01*
X145710077Y-98485200D01*
G37*
G36*
X154012555Y-101326025D02*
G01*
X154006903Y-101331677D01*
X154001251Y-101326025D01*
X154006903Y-101320373D01*
X154012555Y-101326025D01*
G37*
G36*
X140480606Y-97423408D02*
G01*
X140497450Y-97440755D01*
X140516811Y-97468548D01*
X140546001Y-97516590D01*
X140420599Y-97579999D01*
X140417728Y-97581450D01*
X140368927Y-97605700D01*
X140327158Y-97625737D01*
X140296778Y-97639518D01*
X140282143Y-97644997D01*
X140275948Y-97642825D01*
X140260338Y-97626789D01*
X140242724Y-97600985D01*
X140227097Y-97572303D01*
X140217445Y-97547629D01*
X140217761Y-97533852D01*
X140229947Y-97526453D01*
X140258592Y-97512121D01*
X140297984Y-97493694D01*
X140342928Y-97473469D01*
X140388227Y-97453742D01*
X140428685Y-97436808D01*
X140459105Y-97424965D01*
X140474292Y-97420507D01*
X140480606Y-97423408D01*
G37*
G36*
X141408197Y-101596858D02*
G01*
X141378794Y-101715558D01*
X141331639Y-101821258D01*
X141267474Y-101913077D01*
X141187044Y-101990132D01*
X141091091Y-102051543D01*
X140980361Y-102096428D01*
X140855597Y-102123906D01*
X140854094Y-102124114D01*
X140794141Y-102128538D01*
X140720828Y-102128416D01*
X140642587Y-102124196D01*
X140567851Y-102116327D01*
X140505052Y-102105257D01*
X140416079Y-102077845D01*
X140314635Y-102026647D01*
X140226873Y-101958058D01*
X140153874Y-101873150D01*
X140096713Y-101772998D01*
X140056471Y-101658675D01*
X140049804Y-101627159D01*
X140041319Y-101556282D01*
X140037975Y-101480320D01*
X140454293Y-101480320D01*
X140455347Y-101545828D01*
X140458583Y-101595240D01*
X140464449Y-101633488D01*
X140473393Y-101665502D01*
X140478680Y-101679579D01*
X140513098Y-101743329D01*
X140558674Y-101795353D01*
X140610910Y-101830263D01*
X140632054Y-101838659D01*
X140700228Y-101852144D01*
X140770031Y-101848455D01*
X140836247Y-101828914D01*
X140893661Y-101794845D01*
X140937058Y-101747569D01*
X140950602Y-101725544D01*
X140969624Y-101687083D01*
X140982679Y-101645834D01*
X140990765Y-101596862D01*
X140994879Y-101535236D01*
X140996019Y-101456021D01*
X140995669Y-101416130D01*
X140991752Y-101336099D01*
X140982599Y-101272336D01*
X140967105Y-101220601D01*
X140944164Y-101176650D01*
X140912671Y-101136243D01*
X140887747Y-101111182D01*
X140843821Y-101081029D01*
X140792867Y-101065126D01*
X140727938Y-101060630D01*
X140684594Y-101063032D01*
X140616534Y-101079653D01*
X140561261Y-101113379D01*
X140516651Y-101165734D01*
X140480582Y-101238243D01*
X140479060Y-101242172D01*
X140468697Y-101272669D01*
X140461704Y-101303815D01*
X140457421Y-101341098D01*
X140455186Y-101390005D01*
X140454338Y-101456021D01*
X140454293Y-101480320D01*
X140037975Y-101480320D01*
X140037765Y-101475550D01*
X140039140Y-101392877D01*
X140045439Y-101316178D01*
X140056660Y-101253366D01*
X140086353Y-101162743D01*
X140139723Y-101059244D01*
X140209542Y-100971001D01*
X140295111Y-100898705D01*
X140395732Y-100843047D01*
X140510704Y-100804718D01*
X140545370Y-100797836D01*
X140620881Y-100789173D01*
X140705803Y-100785486D01*
X140792271Y-100786782D01*
X140872421Y-100793068D01*
X140938389Y-100804350D01*
X140990793Y-100819211D01*
X141100234Y-100865557D01*
X141194760Y-100928362D01*
X141273673Y-101006677D01*
X141336269Y-101099550D01*
X141381849Y-101206032D01*
X141409711Y-101325172D01*
X141419154Y-101456021D01*
X141419102Y-101466039D01*
X141408197Y-101596858D01*
G37*
G36*
X153899515Y-101326025D02*
G01*
X153893863Y-101331677D01*
X153888211Y-101326025D01*
X153893863Y-101320373D01*
X153899515Y-101326025D01*
G37*
G36*
X152803031Y-101959047D02*
G01*
X152797379Y-101964699D01*
X152791727Y-101959047D01*
X152797379Y-101953395D01*
X152803031Y-101959047D01*
G37*
G36*
X153539908Y-101323955D02*
G01*
X153545140Y-101328024D01*
X153533079Y-101330785D01*
X153521613Y-101329985D01*
X153518242Y-101324848D01*
X153522241Y-101322608D01*
X153539908Y-101323955D01*
G37*
G36*
X153463417Y-101321261D02*
G01*
X153464313Y-101331677D01*
X153461993Y-101335060D01*
X153452342Y-101342981D01*
X153451214Y-101342687D01*
X153447357Y-101331677D01*
X153447817Y-101328579D01*
X153459328Y-101320373D01*
X153463417Y-101321261D01*
G37*
G36*
X154114291Y-101258201D02*
G01*
X154108639Y-101263853D01*
X154102987Y-101258201D01*
X154108639Y-101252549D01*
X154114291Y-101258201D01*
G37*
G36*
X154668185Y-102049479D02*
G01*
X154662533Y-102055131D01*
X154656881Y-102049479D01*
X154662533Y-102043827D01*
X154668185Y-102049479D01*
G37*
G36*
X152814335Y-101908179D02*
G01*
X152813519Y-101914163D01*
X152806799Y-101915715D01*
X152805446Y-101914058D01*
X152806799Y-101900643D01*
X152810199Y-101898875D01*
X152814335Y-101908179D01*
G37*
G36*
X141256453Y-99097743D02*
G01*
X141276667Y-99114977D01*
X141301923Y-99140941D01*
X141344789Y-99188389D01*
X141312923Y-99211591D01*
X141294230Y-99225357D01*
X141260591Y-99250340D01*
X141218337Y-99281854D01*
X141172463Y-99316177D01*
X141172082Y-99316462D01*
X141129560Y-99348008D01*
X141093836Y-99373916D01*
X141068650Y-99391514D01*
X141057743Y-99398130D01*
X141048659Y-99392115D01*
X141028143Y-99373749D01*
X141001224Y-99347258D01*
X140950828Y-99295816D01*
X140979088Y-99273986D01*
X141000179Y-99258158D01*
X141038292Y-99230779D01*
X141082257Y-99200155D01*
X141128023Y-99169005D01*
X141171540Y-99140045D01*
X141208758Y-99115995D01*
X141235625Y-99099571D01*
X141248090Y-99093493D01*
X141256453Y-99097743D01*
G37*
G36*
X153585124Y-101323955D02*
G01*
X153590356Y-101328024D01*
X153578294Y-101330785D01*
X153566829Y-101329985D01*
X153563458Y-101324848D01*
X153567457Y-101322608D01*
X153585124Y-101323955D01*
G37*
G36*
X153345621Y-101269505D02*
G01*
X153339969Y-101275157D01*
X153334317Y-101269505D01*
X153339969Y-101263853D01*
X153345621Y-101269505D01*
G37*
G36*
X153436053Y-101326025D02*
G01*
X153430401Y-101331677D01*
X153424749Y-101326025D01*
X153430401Y-101320373D01*
X153436053Y-101326025D01*
G37*
G36*
X146811932Y-100709959D02*
G01*
X146540637Y-100709959D01*
X146540637Y-101783836D01*
X146811932Y-101783836D01*
X146811932Y-102089042D01*
X145839791Y-102089042D01*
X145839791Y-101783836D01*
X146111086Y-101783836D01*
X146111086Y-100709959D01*
X145839791Y-100709959D01*
X145839791Y-100404752D01*
X146811932Y-100404752D01*
X146811932Y-100709959D01*
G37*
G36*
X145566232Y-101304965D02*
G01*
X145560182Y-101396403D01*
X145549726Y-101479088D01*
X145535084Y-101546268D01*
X145532031Y-101556506D01*
X145482857Y-101680881D01*
X145415923Y-101792250D01*
X145332738Y-101889342D01*
X145234810Y-101970884D01*
X145123647Y-102035603D01*
X145000758Y-102082226D01*
X144867651Y-102109481D01*
X144789333Y-102117718D01*
X144718114Y-102120896D01*
X144647933Y-102118470D01*
X144568096Y-102110475D01*
X144499872Y-102099988D01*
X144365058Y-102064714D01*
X144244460Y-102012106D01*
X144138540Y-101942565D01*
X144047757Y-101856493D01*
X143972573Y-101754291D01*
X143913447Y-101636360D01*
X143870840Y-101503100D01*
X143867020Y-101486292D01*
X143852856Y-101393455D01*
X143846224Y-101289098D01*
X143846300Y-101279904D01*
X144291939Y-101279904D01*
X144294542Y-101354426D01*
X144301719Y-101417666D01*
X144303474Y-101427349D01*
X144330730Y-101524213D01*
X144372758Y-101611050D01*
X144427437Y-101684939D01*
X144492646Y-101742956D01*
X144566265Y-101782180D01*
X144619581Y-101797456D01*
X144705050Y-101806014D01*
X144791082Y-101797753D01*
X144871710Y-101773444D01*
X144940967Y-101733856D01*
X144974132Y-101705152D01*
X145031991Y-101633575D01*
X145076546Y-101545710D01*
X145107191Y-101443308D01*
X145123324Y-101328122D01*
X145124341Y-101201903D01*
X145122648Y-101174795D01*
X145106101Y-101051639D01*
X145076013Y-100946206D01*
X145032493Y-100858638D01*
X144975656Y-100789081D01*
X144905611Y-100737678D01*
X144822472Y-100704575D01*
X144726351Y-100689913D01*
X144697596Y-100688750D01*
X144650798Y-100689826D01*
X144611290Y-100696603D01*
X144569013Y-100710390D01*
X144567563Y-100710940D01*
X144488972Y-100752231D01*
X144422510Y-100811751D01*
X144367662Y-100890083D01*
X144323914Y-100987810D01*
X144320616Y-100997865D01*
X144308249Y-101053082D01*
X144299126Y-101122789D01*
X144293578Y-101200544D01*
X144291939Y-101279904D01*
X143846300Y-101279904D01*
X143847115Y-101181350D01*
X143855521Y-101078343D01*
X143871431Y-100988208D01*
X143876838Y-100966971D01*
X143921780Y-100837838D01*
X143983589Y-100722797D01*
X144061432Y-100622769D01*
X144154478Y-100538677D01*
X144261893Y-100471441D01*
X144382845Y-100421985D01*
X144454129Y-100402617D01*
X144584001Y-100381313D01*
X144717700Y-100375340D01*
X144850807Y-100384296D01*
X144978902Y-100407778D01*
X145097567Y-100445382D01*
X145202382Y-100496707D01*
X145214465Y-100504164D01*
X145310570Y-100578035D01*
X145393741Y-100669125D01*
X145462620Y-100775381D01*
X145515847Y-100894748D01*
X145552063Y-101025172D01*
X145555746Y-101045653D01*
X145564234Y-101122838D01*
X145567285Y-101201903D01*
X145567656Y-101211525D01*
X145566232Y-101304965D01*
G37*
G36*
X153120589Y-100523449D02*
G01*
X153142837Y-100529703D01*
X153151711Y-100551704D01*
X153156422Y-100572070D01*
X153166036Y-100592661D01*
X153174261Y-100599170D01*
X153206282Y-100611173D01*
X153256713Y-100621681D01*
X153322780Y-100630580D01*
X153401707Y-100637756D01*
X153490718Y-100643096D01*
X153587040Y-100646485D01*
X153687897Y-100647810D01*
X153790514Y-100646958D01*
X153892116Y-100643813D01*
X153989928Y-100638263D01*
X154081175Y-100630193D01*
X154140002Y-100622884D01*
X154190843Y-100613306D01*
X154224864Y-100601586D01*
X154245191Y-100586589D01*
X154254951Y-100567182D01*
X154255020Y-100566907D01*
X154266040Y-100545855D01*
X154287076Y-100542492D01*
X154297350Y-100544944D01*
X154309104Y-100557042D01*
X154312110Y-100584396D01*
X154311835Y-100592497D01*
X154305896Y-100617583D01*
X154290543Y-100637998D01*
X154263577Y-100654528D01*
X154222798Y-100667958D01*
X154166008Y-100679074D01*
X154091008Y-100688663D01*
X153995599Y-100697509D01*
X153964154Y-100699857D01*
X153856542Y-100705069D01*
X153739721Y-100707103D01*
X153618973Y-100706110D01*
X153499583Y-100702241D01*
X153386835Y-100695646D01*
X153286013Y-100686477D01*
X153202400Y-100674883D01*
X153152478Y-100662139D01*
X153112800Y-100639527D01*
X153091787Y-100607180D01*
X153087906Y-100563610D01*
X153091044Y-100541230D01*
X153100117Y-100526801D01*
X153119542Y-100523444D01*
X153120589Y-100523449D01*
G37*
G36*
X150949182Y-99093493D02*
G01*
X150949182Y-98935237D01*
X150319536Y-98935237D01*
X150312712Y-99113275D01*
X150311300Y-99145234D01*
X150307444Y-99208274D01*
X150302677Y-99264030D01*
X150297473Y-99307395D01*
X150292305Y-99333264D01*
X150271299Y-99380257D01*
X150226543Y-99434594D01*
X150164787Y-99474883D01*
X150087060Y-99500288D01*
X150078761Y-99501455D01*
X150046154Y-99503665D01*
X149995615Y-99505497D01*
X149930311Y-99506891D01*
X149853410Y-99507790D01*
X149768079Y-99508134D01*
X149677486Y-99507866D01*
X149647806Y-99507671D01*
X149545738Y-99506815D01*
X149462989Y-99505470D01*
X149396944Y-99503191D01*
X149344986Y-99499534D01*
X149304499Y-99494055D01*
X149272867Y-99486308D01*
X149247475Y-99475850D01*
X149225706Y-99462235D01*
X149204944Y-99445019D01*
X149182573Y-99423758D01*
X149159117Y-99396376D01*
X149135417Y-99355123D01*
X149114864Y-99301073D01*
X149096252Y-99230958D01*
X149078375Y-99141508D01*
X149075178Y-99123694D01*
X149066791Y-99077659D01*
X149059830Y-99040379D01*
X149055548Y-99018607D01*
X149054932Y-99015164D01*
X149056613Y-99002963D01*
X149068079Y-98992171D01*
X149093276Y-98980120D01*
X149136152Y-98964145D01*
X149148394Y-98959848D01*
X149186470Y-98947173D01*
X149213846Y-98939128D01*
X149225262Y-98937295D01*
X149227875Y-98948109D01*
X149232950Y-98977045D01*
X149239665Y-99019491D01*
X149247268Y-99070885D01*
X149259689Y-99144633D01*
X149276857Y-99213124D01*
X149297777Y-99263852D01*
X149323561Y-99299408D01*
X149355323Y-99322381D01*
X149355456Y-99322447D01*
X149369364Y-99328282D01*
X149386746Y-99332852D01*
X149410335Y-99336305D01*
X149442864Y-99338788D01*
X149487067Y-99340451D01*
X149545677Y-99341441D01*
X149621427Y-99341906D01*
X149717050Y-99341996D01*
X149776757Y-99341937D01*
X149865491Y-99341513D01*
X149935572Y-99340315D01*
X149989522Y-99337912D01*
X150029862Y-99333877D01*
X150059113Y-99327780D01*
X150079798Y-99319193D01*
X150094438Y-99307686D01*
X150105554Y-99292831D01*
X150115668Y-99274199D01*
X150123479Y-99255649D01*
X150129251Y-99231239D01*
X150132416Y-99198242D01*
X150133399Y-99151995D01*
X150132624Y-99087841D01*
X150129644Y-98940889D01*
X149719876Y-98937922D01*
X149310107Y-98934955D01*
X149310107Y-98776982D01*
X149490971Y-98776982D01*
X150949182Y-98776982D01*
X150949182Y-98403951D01*
X150316160Y-98403951D01*
X150316160Y-98776982D01*
X150135296Y-98776982D01*
X150135296Y-98403951D01*
X149490971Y-98403951D01*
X149490971Y-98776982D01*
X149310107Y-98776982D01*
X149310107Y-98245696D01*
X149490971Y-98245696D01*
X150949182Y-98245696D01*
X150949182Y-97861361D01*
X150316160Y-97861361D01*
X150316160Y-98245696D01*
X150135843Y-98245696D01*
X150132744Y-98056354D01*
X150129644Y-97867013D01*
X149810307Y-97864011D01*
X149490971Y-97861009D01*
X149490971Y-98245696D01*
X149310107Y-98245696D01*
X149310107Y-97703106D01*
X150135296Y-97703106D01*
X150135296Y-97420507D01*
X150316160Y-97420507D01*
X150316160Y-97703106D01*
X151130045Y-97703106D01*
X151130045Y-99093493D01*
X150949182Y-99093493D01*
G37*
G36*
X153522717Y-101391965D02*
G01*
X153524485Y-101395365D01*
X153515181Y-101399501D01*
X153509196Y-101398685D01*
X153507645Y-101391965D01*
X153509301Y-101390612D01*
X153522717Y-101391965D01*
G37*
G36*
X154538858Y-101337923D02*
G01*
X154582982Y-101428114D01*
X154628817Y-101533136D01*
X154675336Y-101650654D01*
X154721515Y-101778331D01*
X154766329Y-101913831D01*
X154773837Y-101937590D01*
X154791170Y-101992362D01*
X154805747Y-102038315D01*
X154816219Y-102071202D01*
X154821239Y-102086776D01*
X154818499Y-102095213D01*
X154800447Y-102098762D01*
X154763572Y-102098080D01*
X154700983Y-102094694D01*
X154673395Y-102015567D01*
X154672142Y-102011981D01*
X154657660Y-101971222D01*
X154645467Y-101938098D01*
X154638089Y-101919483D01*
X154632974Y-101904452D01*
X154627248Y-101875786D01*
X154624009Y-101857847D01*
X154618210Y-101843132D01*
X154613949Y-101842454D01*
X154605640Y-101854502D01*
X154598350Y-101876992D01*
X154594280Y-101902198D01*
X154595632Y-101922392D01*
X154598016Y-101937382D01*
X154588958Y-101936378D01*
X154584528Y-101935238D01*
X154579617Y-101944092D01*
X154578059Y-101969371D01*
X154579489Y-102014090D01*
X154583844Y-102100346D01*
X152825639Y-102100346D01*
X152825639Y-102077071D01*
X152827402Y-102063992D01*
X152834117Y-102059030D01*
X152838902Y-102059029D01*
X152844135Y-102044652D01*
X152845409Y-102016497D01*
X152842947Y-101979943D01*
X152836970Y-101940369D01*
X152827698Y-101903155D01*
X152806588Y-101836497D01*
X152793982Y-101872657D01*
X152793523Y-101874002D01*
X152787099Y-101904291D01*
X152788473Y-101927308D01*
X152790724Y-101937047D01*
X152784360Y-101938872D01*
X152782907Y-101938595D01*
X152773266Y-101949381D01*
X152760144Y-101976657D01*
X152745701Y-102016111D01*
X152718251Y-102100276D01*
X152675100Y-102100311D01*
X152651234Y-102099278D01*
X152637690Y-102093588D01*
X152637662Y-102080565D01*
X152638510Y-102077571D01*
X152644873Y-102054488D01*
X152655509Y-102015487D01*
X152669164Y-101965180D01*
X152684581Y-101908179D01*
X152725009Y-101764466D01*
X152766986Y-101629416D01*
X152807822Y-101513703D01*
X152848141Y-101415691D01*
X152888570Y-101333744D01*
X152929731Y-101266228D01*
X152957794Y-101233137D01*
X152987168Y-101207924D01*
X153282279Y-101207924D01*
X153282726Y-101222332D01*
X153283239Y-101225767D01*
X153291691Y-101254019D01*
X153305956Y-101286386D01*
X153308043Y-101290390D01*
X153320671Y-101311981D01*
X153328198Y-101315543D01*
X153334430Y-101303342D01*
X153339356Y-101292168D01*
X153344364Y-101294287D01*
X153350364Y-101316603D01*
X153350596Y-101317619D01*
X153360979Y-101344107D01*
X153374572Y-101358638D01*
X153381424Y-101360165D01*
X153389586Y-101353781D01*
X153392466Y-101332304D01*
X153390956Y-101292113D01*
X153390850Y-101290413D01*
X153391493Y-101269744D01*
X153395706Y-101265092D01*
X153398176Y-101270504D01*
X153402462Y-101293737D01*
X153405263Y-101327263D01*
X153406419Y-101347355D01*
X153410533Y-101371196D01*
X153420216Y-101382034D01*
X153439071Y-101386140D01*
X153459121Y-101391635D01*
X153463945Y-101400096D01*
X153465020Y-101407912D01*
X153480036Y-101422814D01*
X153504808Y-101438504D01*
X153532587Y-101450915D01*
X153556628Y-101455978D01*
X153572093Y-101458556D01*
X153585399Y-101468857D01*
X153588374Y-101470578D01*
X153595683Y-101459143D01*
X153604455Y-101436404D01*
X153612593Y-101408885D01*
X153618003Y-101383106D01*
X153618304Y-101374067D01*
X153696445Y-101374067D01*
X153703238Y-101383384D01*
X153724304Y-101388197D01*
X153734325Y-101387847D01*
X153749008Y-101382383D01*
X153750542Y-101366469D01*
X153740408Y-101335239D01*
X153728252Y-101303417D01*
X153809084Y-101303417D01*
X153810691Y-101311268D01*
X153823214Y-101320546D01*
X153829899Y-101322437D01*
X153820910Y-101331115D01*
X153818367Y-101332828D01*
X153810300Y-101345843D01*
X153816982Y-101366469D01*
X153817374Y-101367680D01*
X153826408Y-101388116D01*
X153837063Y-101418239D01*
X153840908Y-101428832D01*
X153859631Y-101447261D01*
X153891037Y-101447454D01*
X153900455Y-101442771D01*
X153906924Y-101429515D01*
X153910023Y-101403215D01*
X153910819Y-101359108D01*
X153910789Y-101345136D01*
X153909838Y-101307461D01*
X153907482Y-101292113D01*
X153922123Y-101292113D01*
X153925635Y-101310750D01*
X153936253Y-101320546D01*
X153944078Y-101322232D01*
X153935520Y-101330145D01*
X153935241Y-101330326D01*
X153925437Y-101349513D01*
X153925114Y-101359108D01*
X153924216Y-101385779D01*
X153924465Y-101388939D01*
X153928066Y-101415918D01*
X153934782Y-101425075D01*
X153947557Y-101420835D01*
X153959251Y-101409758D01*
X153968650Y-101384809D01*
X153968843Y-101381516D01*
X153970990Y-101369586D01*
X153975059Y-101379342D01*
X153976311Y-101383614D01*
X153984484Y-101392706D01*
X154002007Y-101385101D01*
X154014351Y-101373266D01*
X154021804Y-101350573D01*
X154023859Y-101312002D01*
X154023899Y-101309069D01*
X154037097Y-101309069D01*
X154038118Y-101324295D01*
X154044022Y-101348857D01*
X154054332Y-101351656D01*
X154068677Y-101332420D01*
X154071651Y-101326497D01*
X154080453Y-101295176D01*
X154075579Y-101272554D01*
X154057852Y-101263853D01*
X154044405Y-101266574D01*
X154037690Y-101279640D01*
X154037097Y-101309069D01*
X154023899Y-101309069D01*
X154024224Y-101284914D01*
X154027257Y-101263168D01*
X154035660Y-101254262D01*
X154052119Y-101252549D01*
X154091683Y-101252549D01*
X154091899Y-101272880D01*
X154092897Y-101295176D01*
X154093063Y-101298894D01*
X154094897Y-101309069D01*
X154095291Y-101308921D01*
X154103593Y-101298361D01*
X154117505Y-101276239D01*
X154126191Y-101259854D01*
X154136358Y-101226832D01*
X154132343Y-101204339D01*
X154114291Y-101196030D01*
X154109061Y-101196271D01*
X154097925Y-101201741D01*
X154097039Y-101204706D01*
X154092873Y-101218649D01*
X154092278Y-101235593D01*
X154091683Y-101252549D01*
X154052119Y-101252549D01*
X154070552Y-101249231D01*
X154080379Y-101235593D01*
X154079007Y-101226823D01*
X154065558Y-101219249D01*
X154037835Y-101229116D01*
X154026160Y-101234806D01*
X153997202Y-101246187D01*
X153989604Y-101249484D01*
X153980364Y-101263571D01*
X153980802Y-101292228D01*
X153980982Y-101293836D01*
X153980671Y-101321563D01*
X153972679Y-101331677D01*
X153964914Y-101322986D01*
X153964928Y-101297765D01*
X153966531Y-101282556D01*
X153962422Y-101267439D01*
X153946014Y-101263853D01*
X153945453Y-101263856D01*
X153927222Y-101270162D01*
X153922123Y-101292113D01*
X153907482Y-101292113D01*
X153906602Y-101286377D01*
X153899816Y-101277178D01*
X153888211Y-101275157D01*
X153873920Y-101278681D01*
X153865603Y-101297098D01*
X153863949Y-101310038D01*
X153855354Y-101325374D01*
X153850276Y-101324383D01*
X153851020Y-101309085D01*
X153851044Y-101308994D01*
X153850591Y-101291242D01*
X153833010Y-101286461D01*
X153818629Y-101289641D01*
X153809084Y-101303417D01*
X153728252Y-101303417D01*
X153727290Y-101305149D01*
X153712549Y-101331677D01*
X153701915Y-101354296D01*
X153696445Y-101374067D01*
X153618304Y-101374067D01*
X153618587Y-101365589D01*
X153617843Y-101357968D01*
X153623207Y-101356940D01*
X153623305Y-101357034D01*
X153633735Y-101354095D01*
X153646889Y-101335866D01*
X153651862Y-101326141D01*
X153660612Y-101305149D01*
X153656796Y-101298188D01*
X153639524Y-101301041D01*
X153625951Y-101302783D01*
X153616916Y-101297990D01*
X153614948Y-101295188D01*
X153597486Y-101287947D01*
X153567831Y-101281667D01*
X153558138Y-101280197D01*
X153519410Y-101274067D01*
X153488703Y-101268859D01*
X153484082Y-101268093D01*
X153463842Y-101269338D01*
X153457534Y-101283414D01*
X153457461Y-101284551D01*
X153454531Y-101290840D01*
X153448546Y-101275157D01*
X153439593Y-101257170D01*
X153418587Y-101246897D01*
X153405479Y-101245432D01*
X153389823Y-101237859D01*
X153385199Y-101234285D01*
X153363393Y-101224244D01*
X153331568Y-101213294D01*
X153307899Y-101206380D01*
X153298808Y-101204735D01*
X153497510Y-101204735D01*
X153498551Y-101205239D01*
X153514909Y-101209470D01*
X153546576Y-101216301D01*
X153587995Y-101224517D01*
X153591210Y-101225126D01*
X153640745Y-101233137D01*
X153687759Y-101238594D01*
X153722472Y-101240347D01*
X153749460Y-101238202D01*
X153794266Y-101231980D01*
X153844322Y-101223283D01*
X153890562Y-101213708D01*
X153923917Y-101204852D01*
X153924124Y-101204706D01*
X153913412Y-101203747D01*
X153883800Y-101202917D01*
X153838525Y-101202263D01*
X153780826Y-101201835D01*
X153713942Y-101201682D01*
X153704965Y-101201684D01*
X153638485Y-101201870D01*
X153581128Y-101202315D01*
X153536266Y-101202973D01*
X153507270Y-101203795D01*
X153497510Y-101204735D01*
X153298808Y-101204735D01*
X153288877Y-101202938D01*
X153282279Y-101207924D01*
X152987168Y-101207924D01*
X153007151Y-101190771D01*
X153064293Y-101153612D01*
X153121239Y-101127447D01*
X153162500Y-101113176D01*
X153076023Y-101068959D01*
X153032138Y-101046160D01*
X152946045Y-100998304D01*
X152873567Y-100952304D01*
X152809341Y-100904301D01*
X152748005Y-100850433D01*
X152684198Y-100786839D01*
X152645292Y-100745520D01*
X152600826Y-100694951D01*
X152565384Y-100648903D01*
X152534324Y-100601201D01*
X152503008Y-100545670D01*
X152478182Y-100499709D01*
X152458119Y-100464737D01*
X152443042Y-100443347D01*
X152429980Y-100432189D01*
X152415968Y-100427911D01*
X152398036Y-100427164D01*
X152369530Y-100425154D01*
X152325698Y-100419169D01*
X152279412Y-100410629D01*
X152224170Y-100395643D01*
X152137572Y-100355316D01*
X152063531Y-100296470D01*
X152000789Y-100218237D01*
X151957074Y-100141312D01*
X151926955Y-100058735D01*
X151915549Y-99975010D01*
X151917072Y-99952594D01*
X152018060Y-99952594D01*
X152018350Y-99989138D01*
X152020387Y-100030863D01*
X152025607Y-100061871D01*
X152035431Y-100089337D01*
X152051280Y-100120439D01*
X152071070Y-100152301D01*
X152124400Y-100214990D01*
X152188163Y-100266983D01*
X152255760Y-100302409D01*
X152281424Y-100310841D01*
X152326331Y-100321470D01*
X152363362Y-100325625D01*
X152363648Y-100325625D01*
X152392278Y-100324185D01*
X152403459Y-100318075D01*
X152402231Y-100304563D01*
X152393230Y-100270837D01*
X152380650Y-100206014D01*
X152368791Y-100124632D01*
X152358150Y-100030246D01*
X152349226Y-99926408D01*
X152344037Y-99855880D01*
X152443484Y-99855880D01*
X152445495Y-99892759D01*
X152449456Y-99941134D01*
X152454898Y-99996439D01*
X152461352Y-100054108D01*
X152468349Y-100109573D01*
X152475420Y-100158269D01*
X152482097Y-100195629D01*
X152513216Y-100318075D01*
X152514153Y-100321760D01*
X152559078Y-100442177D01*
X152617146Y-100550571D01*
X152690902Y-100651631D01*
X152782890Y-100750048D01*
X152860899Y-100818859D01*
X152991921Y-100911097D01*
X153135975Y-100987942D01*
X153289537Y-101047605D01*
X153449081Y-101088297D01*
X153468260Y-101091553D01*
X153517662Y-101097985D01*
X153576117Y-101103786D01*
X153638374Y-101108625D01*
X153699181Y-101112170D01*
X153753286Y-101114091D01*
X153795439Y-101114054D01*
X153820388Y-101111730D01*
X153825823Y-101110620D01*
X153851843Y-101106315D01*
X153891476Y-101100385D01*
X153938553Y-101093768D01*
X154034532Y-101075615D01*
X154160804Y-101038931D01*
X154287816Y-100989308D01*
X154408449Y-100929598D01*
X154515581Y-100862654D01*
X154524335Y-100856296D01*
X154585413Y-100805803D01*
X154651050Y-100742809D01*
X154715474Y-100673472D01*
X154772914Y-100603950D01*
X154817599Y-100540400D01*
X154827822Y-100523465D01*
X154884707Y-100406303D01*
X154911019Y-100325625D01*
X155022255Y-100325625D01*
X155068473Y-100325616D01*
X155087884Y-100324111D01*
X155140554Y-100310353D01*
X155198266Y-100285077D01*
X155253772Y-100251782D01*
X155299827Y-100213965D01*
X155311934Y-100201537D01*
X155351924Y-100152460D01*
X155378209Y-100101624D01*
X155393544Y-100042300D01*
X155400686Y-99967760D01*
X155401825Y-99940554D01*
X155402176Y-99896535D01*
X155398879Y-99863812D01*
X155390848Y-99834790D01*
X155376998Y-99801873D01*
X155354478Y-99760793D01*
X155323711Y-99716637D01*
X155290019Y-99676569D01*
X155257886Y-99645896D01*
X155231793Y-99629926D01*
X155218245Y-99629334D01*
X155193701Y-99640988D01*
X155159612Y-99669059D01*
X155136221Y-99689511D01*
X155121733Y-99700563D01*
X155111906Y-99708060D01*
X155097988Y-99715211D01*
X155097439Y-99715287D01*
X155091658Y-99727622D01*
X155087821Y-99758366D01*
X155086431Y-99803679D01*
X155085915Y-99827380D01*
X155085180Y-99861147D01*
X155079348Y-99955749D01*
X155069609Y-100055264D01*
X155056908Y-100150524D01*
X155042192Y-100232367D01*
X155022255Y-100325625D01*
X154911019Y-100325625D01*
X154928993Y-100270515D01*
X154960638Y-100116257D01*
X154979600Y-99943681D01*
X154987670Y-99827380D01*
X154959386Y-99840267D01*
X154956165Y-99841802D01*
X154939889Y-99854332D01*
X154934888Y-99865796D01*
X154930577Y-99875679D01*
X154924952Y-99912735D01*
X154923657Y-99923522D01*
X154905589Y-99993316D01*
X154873282Y-100051339D01*
X154829043Y-100093248D01*
X154805928Y-100106334D01*
X154767800Y-100121094D01*
X154719938Y-100132442D01*
X154659781Y-100140706D01*
X154584768Y-100146208D01*
X154492339Y-100149275D01*
X154379934Y-100150231D01*
X154321200Y-100150189D01*
X154252998Y-100149816D01*
X154201490Y-100148804D01*
X154163180Y-100146849D01*
X154134572Y-100143649D01*
X154112170Y-100138901D01*
X154092476Y-100132300D01*
X154071995Y-100123546D01*
X154050334Y-100112375D01*
X154008015Y-100084250D01*
X153974451Y-100054457D01*
X153957406Y-100032276D01*
X153932405Y-99989900D01*
X153910196Y-99942399D01*
X153894293Y-99897567D01*
X153888211Y-99863198D01*
X153887556Y-99857326D01*
X153879379Y-99847166D01*
X153858066Y-99840251D01*
X153818886Y-99834631D01*
X153812277Y-99833960D01*
X153764072Y-99831601D01*
X153706399Y-99831797D01*
X153650326Y-99834551D01*
X153551091Y-99842314D01*
X153550905Y-99843315D01*
X153543463Y-99883324D01*
X153525827Y-99948225D01*
X153487368Y-100021728D01*
X153431547Y-100080822D01*
X153358089Y-100125868D01*
X153350132Y-100129454D01*
X153331643Y-100136540D01*
X153311080Y-100141783D01*
X153285020Y-100145458D01*
X153250041Y-100147839D01*
X153202721Y-100149199D01*
X153139638Y-100149813D01*
X153057370Y-100149955D01*
X153009349Y-100149825D01*
X152907593Y-100148322D01*
X152824587Y-100144823D01*
X152757629Y-100138941D01*
X152704021Y-100130288D01*
X152661063Y-100118478D01*
X152626054Y-100103122D01*
X152596295Y-100083836D01*
X152594208Y-100082221D01*
X152549433Y-100033289D01*
X152520527Y-99971198D01*
X152509743Y-99900715D01*
X152507905Y-99874255D01*
X152499207Y-99853966D01*
X152479407Y-99840946D01*
X152457371Y-99832916D01*
X152444799Y-99832292D01*
X152443891Y-99835063D01*
X152443484Y-99855880D01*
X152344037Y-99855880D01*
X152341666Y-99823655D01*
X152545524Y-99823655D01*
X152545748Y-99885943D01*
X152547469Y-99904830D01*
X152561537Y-99969993D01*
X152588651Y-100019910D01*
X152630895Y-100056559D01*
X152690357Y-100081920D01*
X152769119Y-100097972D01*
X152790386Y-100100616D01*
X152860433Y-100107119D01*
X152940127Y-100112035D01*
X153023045Y-100115168D01*
X153102766Y-100116322D01*
X153172868Y-100115301D01*
X153226930Y-100111911D01*
X153267440Y-100106085D01*
X153347483Y-100082419D01*
X153410638Y-100044043D01*
X153457404Y-99990596D01*
X153488273Y-99921719D01*
X153493452Y-99903530D01*
X153504225Y-99843315D01*
X153501621Y-99820184D01*
X153934131Y-99820184D01*
X153936347Y-99875644D01*
X153956151Y-99944656D01*
X153975148Y-99985891D01*
X154013682Y-100036043D01*
X154066042Y-100072762D01*
X154134517Y-100097488D01*
X154221395Y-100111662D01*
X154253574Y-100114575D01*
X154321444Y-100118843D01*
X154386959Y-100119659D01*
X154458348Y-100117004D01*
X154543841Y-100110856D01*
X154640733Y-100101137D01*
X154718453Y-100088613D01*
X154778058Y-100071762D01*
X154821793Y-100048960D01*
X154851904Y-100018586D01*
X154870636Y-99979015D01*
X154880233Y-99928626D01*
X154882942Y-99865796D01*
X154882064Y-99821605D01*
X154877100Y-99782518D01*
X154865505Y-99757170D01*
X154844776Y-99740677D01*
X154812413Y-99728158D01*
X154774007Y-99718710D01*
X154705264Y-99708241D01*
X154622133Y-99700651D01*
X154529214Y-99695942D01*
X154431110Y-99694113D01*
X154332422Y-99695163D01*
X154237751Y-99699094D01*
X154151699Y-99705904D01*
X154078868Y-99715595D01*
X154023859Y-99728165D01*
X153983776Y-99745708D01*
X153949831Y-99777222D01*
X153934131Y-99820184D01*
X153501621Y-99820184D01*
X153499069Y-99797512D01*
X153476476Y-99763485D01*
X153434937Y-99738600D01*
X153372945Y-99720223D01*
X153370334Y-99719656D01*
X153304312Y-99709067D01*
X153222864Y-99701525D01*
X153130725Y-99696974D01*
X153032632Y-99695357D01*
X152933320Y-99696617D01*
X152837524Y-99700697D01*
X152749980Y-99707541D01*
X152675423Y-99717090D01*
X152618590Y-99729289D01*
X152615138Y-99730334D01*
X152578833Y-99748832D01*
X152556090Y-99778945D01*
X152545524Y-99823655D01*
X152341666Y-99823655D01*
X152335241Y-99736314D01*
X152300667Y-99721861D01*
X152271885Y-99706190D01*
X152268969Y-99703765D01*
X152441304Y-99703765D01*
X152441710Y-99730897D01*
X152445018Y-99759276D01*
X152453642Y-99776619D01*
X152469917Y-99789957D01*
X152470431Y-99790293D01*
X152491135Y-99802002D01*
X152501338Y-99804348D01*
X152502407Y-99802391D01*
X152510581Y-99785414D01*
X152523167Y-99758111D01*
X152528209Y-99747892D01*
X152549845Y-99718863D01*
X152581258Y-99697930D01*
X152626709Y-99682888D01*
X152690458Y-99671531D01*
X152754578Y-99663820D01*
X152862936Y-99655218D01*
X152973728Y-99651263D01*
X153083413Y-99651766D01*
X153188446Y-99656536D01*
X153285287Y-99665384D01*
X153370392Y-99678118D01*
X153440219Y-99694550D01*
X153491225Y-99714489D01*
X153491557Y-99714669D01*
X153514059Y-99735002D01*
X153532045Y-99764162D01*
X153546995Y-99799990D01*
X153888217Y-99793206D01*
X153905287Y-99760195D01*
X153912820Y-99747674D01*
X153935303Y-99724121D01*
X153968196Y-99704903D01*
X154013936Y-99689297D01*
X154074961Y-99676576D01*
X154153709Y-99666016D01*
X154252615Y-99656892D01*
X154258523Y-99656440D01*
X154339112Y-99652430D01*
X154427512Y-99651386D01*
X154518664Y-99653075D01*
X154607506Y-99657264D01*
X154688977Y-99663720D01*
X154758016Y-99672211D01*
X154809563Y-99682505D01*
X154823194Y-99686852D01*
X154867696Y-99710422D01*
X154902746Y-99742873D01*
X154921825Y-99778621D01*
X154921862Y-99778771D01*
X154931463Y-99800977D01*
X154945683Y-99802441D01*
X154967349Y-99783466D01*
X154967792Y-99782972D01*
X154975260Y-99772288D01*
X154980351Y-99757450D01*
X154983342Y-99734770D01*
X154984511Y-99700563D01*
X154984138Y-99651142D01*
X154982500Y-99582821D01*
X154981600Y-99551210D01*
X154979457Y-99491250D01*
X154976703Y-99447405D01*
X154972644Y-99415124D01*
X154966581Y-99389859D01*
X154957819Y-99367061D01*
X154945662Y-99342180D01*
X154908292Y-99274193D01*
X154842247Y-99176363D01*
X154770722Y-99098290D01*
X154691697Y-99038255D01*
X154603152Y-98994538D01*
X154503069Y-98965421D01*
X154502551Y-98965313D01*
X154461178Y-98957243D01*
X154436239Y-98954656D01*
X154422280Y-98957591D01*
X154413846Y-98966089D01*
X154395636Y-98992014D01*
X154371991Y-99016616D01*
X154344664Y-99030115D01*
X154305469Y-99037939D01*
X154301350Y-99038501D01*
X154244803Y-99043515D01*
X154172053Y-99046371D01*
X154088872Y-99047144D01*
X154001032Y-99045910D01*
X153914305Y-99042744D01*
X153834461Y-99037720D01*
X153767273Y-99030916D01*
X153668807Y-99015246D01*
X153533168Y-98986063D01*
X153393886Y-98948599D01*
X153257520Y-98904827D01*
X153130635Y-98856719D01*
X153019791Y-98806248D01*
X153000985Y-98796761D01*
X152972077Y-98783057D01*
X152956871Y-98778740D01*
X152950972Y-98783137D01*
X152949983Y-98795578D01*
X152944178Y-98820299D01*
X152928373Y-98858423D01*
X152905477Y-98904259D01*
X152878405Y-98952339D01*
X152850068Y-98997192D01*
X152823379Y-99033347D01*
X152821695Y-99035357D01*
X152786812Y-99072370D01*
X152742904Y-99113121D01*
X152699059Y-99149146D01*
X152689324Y-99156628D01*
X152630072Y-99209227D01*
X152581510Y-99267529D01*
X152541068Y-99335760D01*
X152506179Y-99418145D01*
X152474273Y-99518909D01*
X152471656Y-99528396D01*
X152455707Y-99595154D01*
X152445133Y-99656170D01*
X152441304Y-99703765D01*
X152268969Y-99703765D01*
X152249960Y-99687956D01*
X152230438Y-99670297D01*
X152202110Y-99652102D01*
X152183777Y-99643898D01*
X152168861Y-99644033D01*
X152151617Y-99655478D01*
X152125371Y-99680721D01*
X152108519Y-99699222D01*
X152075747Y-99742282D01*
X152049145Y-99785474D01*
X152040549Y-99802507D01*
X152028636Y-99831503D01*
X152021815Y-99861354D01*
X152018739Y-99899304D01*
X152018060Y-99952594D01*
X151917072Y-99952594D01*
X151921657Y-99885086D01*
X151933426Y-99833678D01*
X151956623Y-99768837D01*
X151986761Y-99705726D01*
X152020486Y-99651232D01*
X152054448Y-99612243D01*
X152062827Y-99604779D01*
X152081926Y-99584657D01*
X152086945Y-99568787D01*
X152080986Y-99549880D01*
X152072110Y-99519365D01*
X152068274Y-99483372D01*
X152066918Y-99466103D01*
X152059175Y-99426444D01*
X152046856Y-99384994D01*
X152043425Y-99375232D01*
X152014476Y-99276869D01*
X151988955Y-99161809D01*
X151967521Y-99035221D01*
X151950837Y-98902275D01*
X151939563Y-98768142D01*
X151934359Y-98637990D01*
X151935888Y-98516991D01*
X151936927Y-98496501D01*
X151950098Y-98360193D01*
X151973297Y-98227904D01*
X152005392Y-98104110D01*
X152045253Y-97993290D01*
X152091749Y-97899919D01*
X152106025Y-97877582D01*
X152154351Y-97814809D01*
X152214822Y-97748904D01*
X152281838Y-97685318D01*
X152349801Y-97629505D01*
X152413113Y-97586918D01*
X152451923Y-97563033D01*
X152498689Y-97527846D01*
X152525520Y-97497351D01*
X152533432Y-97484530D01*
X152587353Y-97416393D01*
X152658923Y-97349210D01*
X152744078Y-97285758D01*
X152838755Y-97228813D01*
X152938888Y-97181153D01*
X153040414Y-97145555D01*
X153106831Y-97129846D01*
X153204837Y-97113890D01*
X153316012Y-97101877D01*
X153435304Y-97094024D01*
X153557658Y-97090552D01*
X153678021Y-97091680D01*
X153791339Y-97097626D01*
X153892558Y-97108610D01*
X153962406Y-97119809D01*
X154179303Y-97168911D01*
X154387027Y-97238537D01*
X154586562Y-97329057D01*
X154778892Y-97440838D01*
X154779512Y-97441240D01*
X154848326Y-97487626D01*
X154909600Y-97533334D01*
X154967543Y-97582125D01*
X155026364Y-97637762D01*
X155090271Y-97704006D01*
X155163474Y-97784619D01*
X155167238Y-97788846D01*
X155236282Y-97865025D01*
X155294015Y-97925592D01*
X155342817Y-97972727D01*
X155385071Y-98008607D01*
X155423159Y-98035411D01*
X155459462Y-98055317D01*
X155475061Y-98063347D01*
X155507902Y-98084109D01*
X155529860Y-98103232D01*
X155546664Y-98137645D01*
X155546496Y-98178661D01*
X155528870Y-98217875D01*
X155495237Y-98249162D01*
X155470620Y-98264503D01*
X155451474Y-98276828D01*
X155447455Y-98282161D01*
X155444386Y-98298474D01*
X155444434Y-98327855D01*
X155447647Y-98373406D01*
X155454075Y-98438227D01*
X155454253Y-98439900D01*
X155460530Y-98512320D01*
X155465723Y-98596714D01*
X155469298Y-98682733D01*
X155470718Y-98760026D01*
X155471034Y-98796269D01*
X155473869Y-98880332D01*
X155479434Y-98948474D01*
X155487496Y-98997409D01*
X155494522Y-99028877D01*
X155501439Y-99066471D01*
X155504275Y-99091536D01*
X155504185Y-99094419D01*
X155493368Y-99122914D01*
X155469577Y-99152069D01*
X155439943Y-99174776D01*
X155411598Y-99183925D01*
X155406665Y-99184113D01*
X155397103Y-99187039D01*
X155388757Y-99196026D01*
X155380337Y-99214261D01*
X155370550Y-99244929D01*
X155358104Y-99291217D01*
X155341709Y-99356310D01*
X155333006Y-99391150D01*
X155318864Y-99447159D01*
X155307012Y-99493336D01*
X155298492Y-99525644D01*
X155294344Y-99540041D01*
X155296939Y-99548290D01*
X155312972Y-99567436D01*
X155339215Y-99590894D01*
X155387697Y-99637610D01*
X155442016Y-99715243D01*
X155482983Y-99807831D01*
X155499808Y-99879103D01*
X155500606Y-99896535D01*
X155504074Y-99972259D01*
X155490851Y-100064973D01*
X155460628Y-100149757D01*
X155419178Y-100221704D01*
X155354943Y-100298611D01*
X155278454Y-100356732D01*
X155188787Y-100396729D01*
X155085019Y-100419266D01*
X155051982Y-100423625D01*
X155014409Y-100429929D01*
X154991703Y-100436840D01*
X154979155Y-100446020D01*
X154972057Y-100459130D01*
X154969307Y-100465972D01*
X154948107Y-100509029D01*
X154917181Y-100562594D01*
X154880249Y-100620757D01*
X154841031Y-100677611D01*
X154803247Y-100727248D01*
X154783310Y-100751254D01*
X154724845Y-100815184D01*
X154662834Y-100872307D01*
X154592817Y-100926158D01*
X154510333Y-100980271D01*
X154410923Y-101038182D01*
X154294962Y-101102851D01*
X154356939Y-101133173D01*
X154382466Y-101147466D01*
X154424156Y-101177075D01*
X154456348Y-101207227D01*
X154459838Y-101211385D01*
X154470699Y-101226832D01*
X154497468Y-101264902D01*
X154538858Y-101337923D01*
G37*
G36*
X142090318Y-100786251D02*
G01*
X142191392Y-100792650D01*
X142279996Y-100807593D01*
X142362520Y-100832388D01*
X142445358Y-100868341D01*
X142523388Y-100913257D01*
X142610901Y-100984759D01*
X142680656Y-101070157D01*
X142732721Y-101169559D01*
X142767161Y-101283073D01*
X142784045Y-101410805D01*
X142785451Y-101492954D01*
X142772141Y-101618411D01*
X142739950Y-101731885D01*
X142689459Y-101832683D01*
X142621253Y-101920116D01*
X142535917Y-101993492D01*
X142434033Y-102052119D01*
X142316186Y-102095306D01*
X142182960Y-102122363D01*
X142087440Y-102129449D01*
X141973036Y-102126241D01*
X141857471Y-102112227D01*
X141748181Y-102088344D01*
X141652603Y-102055529D01*
X141600806Y-102033326D01*
X141600806Y-101863365D01*
X141600837Y-101816528D01*
X141601234Y-101764881D01*
X141602503Y-101730173D01*
X141605152Y-101709037D01*
X141609689Y-101698108D01*
X141616623Y-101694019D01*
X141626462Y-101693404D01*
X141627836Y-101693468D01*
X141650450Y-101701228D01*
X141683280Y-101719407D01*
X141719720Y-101744392D01*
X141729806Y-101751771D01*
X141806562Y-101795671D01*
X141890099Y-101825089D01*
X141976443Y-101839964D01*
X142061623Y-101840236D01*
X142141669Y-101825844D01*
X142212608Y-101796726D01*
X142270469Y-101752822D01*
X142274913Y-101748211D01*
X142311284Y-101704571D01*
X142336724Y-101659181D01*
X142352870Y-101606932D01*
X142361358Y-101542719D01*
X142363823Y-101461435D01*
X142363694Y-101417801D01*
X142362557Y-101371828D01*
X142359342Y-101338098D01*
X142352983Y-101310563D01*
X142342416Y-101283176D01*
X142326575Y-101249888D01*
X142297583Y-101199242D01*
X142247774Y-101141420D01*
X142187169Y-101101783D01*
X142113491Y-101078986D01*
X142024460Y-101071686D01*
X141968828Y-101075580D01*
X141887254Y-101093254D01*
X141808532Y-101122850D01*
X141739118Y-101161781D01*
X141685469Y-101207463D01*
X141664394Y-101222130D01*
X141632966Y-101229941D01*
X141600806Y-101229941D01*
X141600806Y-100881143D01*
X141665804Y-100856676D01*
X141698998Y-100844490D01*
X141786305Y-100816558D01*
X141866572Y-100798587D01*
X141948717Y-100788895D01*
X142041660Y-100785800D01*
X142090318Y-100786251D01*
G37*
G36*
X153863780Y-101358492D02*
G01*
X153865603Y-101376893D01*
X153863685Y-101390024D01*
X153855358Y-101399501D01*
X153850390Y-101394918D01*
X153851024Y-101376893D01*
X153855332Y-101363605D01*
X153861270Y-101354285D01*
X153863780Y-101358492D01*
G37*
G36*
X148722301Y-97691802D02*
G01*
X148010152Y-97691802D01*
X147981956Y-97691808D01*
X147858748Y-97691996D01*
X147742895Y-97692425D01*
X147636304Y-97693072D01*
X147540880Y-97693916D01*
X147458531Y-97694933D01*
X147391164Y-97696100D01*
X147340684Y-97697396D01*
X147308999Y-97698797D01*
X147298015Y-97700280D01*
X147304153Y-97706421D01*
X147326605Y-97724667D01*
X147363547Y-97753287D01*
X147412894Y-97790700D01*
X147472563Y-97835329D01*
X147540469Y-97885595D01*
X147614526Y-97939922D01*
X147931024Y-98171085D01*
X147931024Y-98403951D01*
X148959684Y-98403951D01*
X148959684Y-98562207D01*
X147931024Y-98562207D01*
X147931024Y-98924495D01*
X147931026Y-98943835D01*
X147931192Y-99047613D01*
X147931897Y-99131539D01*
X147933512Y-99197977D01*
X147936411Y-99249290D01*
X147940967Y-99287842D01*
X147947553Y-99315995D01*
X147956542Y-99336114D01*
X147968308Y-99350561D01*
X147983224Y-99361701D01*
X148001662Y-99371895D01*
X148012378Y-99376817D01*
X148031580Y-99382459D01*
X148057264Y-99385780D01*
X148093452Y-99387013D01*
X148144164Y-99386390D01*
X148213420Y-99384144D01*
X148246593Y-99382798D01*
X148305163Y-99379861D01*
X148354248Y-99376682D01*
X148389478Y-99373562D01*
X148406482Y-99370803D01*
X148412029Y-99369352D01*
X148417531Y-99372935D01*
X148418936Y-99387205D01*
X148416394Y-99416038D01*
X148410052Y-99463307D01*
X148407112Y-99484019D01*
X148401256Y-99525056D01*
X148397042Y-99554293D01*
X148395231Y-99566438D01*
X148394601Y-99566701D01*
X148378963Y-99567573D01*
X148344865Y-99567984D01*
X148295684Y-99567931D01*
X148234798Y-99567416D01*
X148165581Y-99566438D01*
X148150307Y-99566179D01*
X148075408Y-99564698D01*
X148018822Y-99562930D01*
X147976894Y-99560480D01*
X147945969Y-99556957D01*
X147922395Y-99551968D01*
X147902515Y-99545118D01*
X147882675Y-99536016D01*
X147847589Y-99515142D01*
X147796719Y-99465292D01*
X147760727Y-99398700D01*
X147760519Y-99398146D01*
X147756103Y-99379876D01*
X147752383Y-99349889D01*
X147749279Y-99306369D01*
X147746713Y-99247503D01*
X147744603Y-99171474D01*
X147742871Y-99076469D01*
X147741435Y-98960671D01*
X147737306Y-98562207D01*
X146766716Y-98562207D01*
X146766716Y-98403951D01*
X147738857Y-98403951D01*
X147738857Y-98248153D01*
X147371478Y-97978578D01*
X147004099Y-97709004D01*
X147004099Y-97533546D01*
X148722301Y-97533546D01*
X148722301Y-97691802D01*
G37*
%TD*%
%LPC*%
D15*
%TO.C,Hole3*%
X175040000Y-107630000D03*
%TD*%
%TO.C,Hole1*%
X130530000Y-91810000D03*
%TD*%
D16*
%TO.C,J3*%
X130090000Y-95970000D03*
D17*
X130090000Y-98510000D03*
X130090000Y-101050000D03*
X130090000Y-103590000D03*
%TD*%
D18*
%TO.C,USB1*%
X171260000Y-104050000D03*
X171260000Y-95410000D03*
X175060000Y-104050000D03*
X175060000Y-95410000D03*
%TD*%
D15*
%TO.C,Hole2*%
X130560000Y-107620000D03*
%TD*%
%TO.C,Hole4*%
X175040000Y-91810000D03*
%TD*%
D16*
%TO.C,J2*%
X165980000Y-108500000D03*
D17*
X163440000Y-108500000D03*
X160900000Y-108500000D03*
X158360000Y-108500000D03*
X155820000Y-108500000D03*
X153280000Y-108500000D03*
X150740000Y-108500000D03*
X148200000Y-108500000D03*
X145660000Y-108500000D03*
X143120000Y-108500000D03*
X140580000Y-108500000D03*
X138040000Y-108500000D03*
X135500000Y-108500000D03*
X132960000Y-108500000D03*
%TD*%
D19*
%TO.C,U2*%
X162215000Y-103210000D03*
X160945000Y-103210000D03*
X159675000Y-103210000D03*
X158405000Y-103210000D03*
X158405000Y-96150000D03*
X159675000Y-96150000D03*
X160945000Y-96150000D03*
X162215000Y-96150000D03*
%TD*%
D20*
%TO.C,C3*%
X163930000Y-100130000D03*
X163930000Y-99170000D03*
%TD*%
D16*
%TO.C,J1*%
X165990000Y-90940000D03*
D17*
X163450000Y-90940000D03*
X160910000Y-90940000D03*
X158370000Y-90940000D03*
X155830000Y-90940000D03*
X153290000Y-90940000D03*
X150750000Y-90940000D03*
X148210000Y-90940000D03*
X145670000Y-90940000D03*
X143130000Y-90940000D03*
X140590000Y-90940000D03*
X138050000Y-90940000D03*
X135510000Y-90940000D03*
X132970000Y-90940000D03*
%TD*%
M02*
