%TF.GenerationSoftware,KiCad,Pcbnew,(6.0.7)*%
%TF.CreationDate,2022-10-08T18:54:48+08:00*%
%TF.ProjectId,UINIO-MCU-STM32L051K8,55494e49-4f2d-44d4-9355-2d53544d3332,rev?*%
%TF.SameCoordinates,Original*%
%TF.FileFunction,Soldermask,Bot*%
%TF.FilePolarity,Negative*%
%FSLAX46Y46*%
G04 Gerber Fmt 4.6, Leading zero omitted, Abs format (unit mm)*
G04 Created by KiCad (PCBNEW (6.0.7)) date 2022-10-08 18:54:48*
%MOMM*%
%LPD*%
G01*
G04 APERTURE LIST*
G04 Aperture macros list*
%AMRoundRect*
0 Rectangle with rounded corners*
0 $1 Rounding radius*
0 $2 $3 $4 $5 $6 $7 $8 $9 X,Y pos of 4 corners*
0 Add a 4 corners polygon primitive as box body*
4,1,4,$2,$3,$4,$5,$6,$7,$8,$9,$2,$3,0*
0 Add four circle primitives for the rounded corners*
1,1,$1+$1,$2,$3*
1,1,$1+$1,$4,$5*
1,1,$1+$1,$6,$7*
1,1,$1+$1,$8,$9*
0 Add four rect primitives between the rounded corners*
20,1,$1+$1,$2,$3,$4,$5,0*
20,1,$1+$1,$4,$5,$6,$7,0*
20,1,$1+$1,$6,$7,$8,$9,0*
20,1,$1+$1,$8,$9,$2,$3,0*%
G04 Aperture macros list end*
%ADD10R,1.700000X1.700000*%
%ADD11O,1.700000X1.700000*%
%ADD12O,1.000000X1.800000*%
%ADD13O,2.250000X0.630000*%
%ADD14RoundRect,0.140000X0.140000X0.170000X-0.140000X0.170000X-0.140000X-0.170000X0.140000X-0.170000X0*%
G04 APERTURE END LIST*
D10*
%TO.C,J3*%
X160460000Y-129310000D03*
D11*
X157920000Y-129310000D03*
X155380000Y-129310000D03*
X152840000Y-129310000D03*
%TD*%
D12*
%TO.C,USB1*%
X160960000Y-89270000D03*
X152320000Y-89270000D03*
X160960000Y-85470000D03*
X152320000Y-85470000D03*
%TD*%
D10*
%TO.C,J2*%
X165480000Y-93720000D03*
D11*
X165480000Y-96260000D03*
X165480000Y-98800000D03*
X165480000Y-101340000D03*
X165480000Y-103880000D03*
X165480000Y-106420000D03*
X165480000Y-108960000D03*
X165480000Y-111500000D03*
X165480000Y-114040000D03*
X165480000Y-116580000D03*
X165480000Y-119120000D03*
X165480000Y-121660000D03*
X165480000Y-124200000D03*
X165480000Y-126740000D03*
%TD*%
D13*
%TO.C,U2*%
X160080000Y-97445000D03*
X160080000Y-98715000D03*
X160080000Y-99985000D03*
X160080000Y-101255000D03*
X153020000Y-101255000D03*
X153020000Y-99985000D03*
X153020000Y-98715000D03*
X153020000Y-97445000D03*
%TD*%
D14*
%TO.C,C3*%
X157000000Y-95770000D03*
X156040000Y-95770000D03*
%TD*%
D10*
%TO.C,J1*%
X147770000Y-93690000D03*
D11*
X147770000Y-96230000D03*
X147770000Y-98770000D03*
X147770000Y-101310000D03*
X147770000Y-103850000D03*
X147770000Y-106390000D03*
X147770000Y-108930000D03*
X147770000Y-111470000D03*
X147770000Y-114010000D03*
X147770000Y-116550000D03*
X147770000Y-119090000D03*
X147770000Y-121630000D03*
X147770000Y-124170000D03*
X147770000Y-126710000D03*
%TD*%
M02*
