M48
; DRILL file {KiCad (6.0.7)} date Fri Sep 30 17:02:46 2022
; FORMAT={-:-/ absolute / metric / decimal}
; #@! TF.CreationDate,2022-09-30T17:02:46+08:00
; #@! TF.GenerationSoftware,Kicad,Pcbnew,(6.0.7)
; #@! TF.FileFunction,MixedPlating,1,2
FMAT,2
METRIC
; #@! TA.AperFunction,Plated,PTH,ViaDrill
T1C0.200
; #@! TA.AperFunction,Plated,PTH,ViaDrill
T2C0.300
; #@! TA.AperFunction,Plated,PTH,ViaDrill
T3C0.500
; #@! TA.AperFunction,Plated,PTH,ComponentDrill
T4C0.600
; #@! TA.AperFunction,Plated,PTH,ComponentDrill
T5C1.000
; #@! TA.AperFunction,Plated,PTH,ViaDrill
T6C1.200
; #@! TA.AperFunction,NonPlated,NPTH,ComponentDrill
T7C0.650
%
G90
G05
T1
X142.5Y-111.2
X142.84Y-110.6
X143.2Y-110.0
X149.48Y-124.69
X151.9Y-123.4
X157.2Y-122.8
X157.823Y-120.328
X158.34Y-119.84
X158.6Y-114.6
X158.6Y-115.3
X158.6Y-116.0
X158.6Y-116.7
X158.6Y-117.4
X158.845Y-119.215
X163.6Y-113.3
X165.7Y-118.9
X165.7Y-119.6
X165.7Y-120.3
T2
X142.11Y-115.198
X143.29Y-115.198
X144.47Y-115.198
X146.56Y-120.03
X146.695Y-117.465
X146.92Y-111.05
X153.42Y-111.21
X153.42Y-112.15
X153.8Y-125.08
X154.83Y-109.84
X154.87Y-114.16
X154.88Y-117.84
X155.36Y-125.14
X155.78Y-109.81
X155.84Y-114.11
X156.31Y-112.666
X156.4Y-108.8
X163.44Y-119.91
X164.45Y-105.76
X165.33Y-103.81
X166.25Y-107.75
X166.26Y-105.78
T3
X148.054Y-103.8
X149.2Y-98.95
X152.6Y-105.3
X157.4Y-105.3
X166.99Y-97.79
T5
X139.5Y-96.5
X139.5Y-99.04
X139.5Y-101.58
X139.5Y-104.12
X139.5Y-106.66
X139.5Y-109.2
X139.5Y-111.74
X139.5Y-114.28
X139.5Y-116.82
X139.5Y-119.36
X139.5Y-121.9
X139.5Y-124.44
X139.5Y-126.98
X139.5Y-129.52
X151.12Y-129.54
X153.66Y-129.54
X156.2Y-129.54
X158.74Y-129.54
X170.4Y-96.5
X170.4Y-99.04
X170.4Y-101.58
X170.4Y-104.12
X170.4Y-106.66
X170.4Y-109.2
X170.4Y-111.74
X170.4Y-114.28
X170.4Y-116.82
X170.4Y-119.36
X170.4Y-121.9
X170.4Y-124.44
X170.4Y-126.98
X170.4Y-129.52
T6
X144.23Y-96.31
X145.16Y-129.7
X164.61Y-129.63
X165.56Y-96.26
T7
X152.11Y-101.198
X157.89Y-101.198
T4
G00X150.675Y-97.948
M15
G01X150.675Y-97.048
M16
G05
G00X150.675Y-102.298
M15
G01X150.675Y-101.098
M16
G05
G00X159.325Y-97.948
M15
G01X159.325Y-97.048
M16
G05
G00X159.325Y-102.298
M15
G01X159.325Y-101.098
M16
G05
T0
M30
