M48
; DRILL file {KiCad 7.0.5} date Tue Jul  4 16:10:49 2023
; FORMAT={-:-/ absolute / metric / decimal}
; #@! TF.CreationDate,2023-07-04T16:10:49+08:00
; #@! TF.GenerationSoftware,Kicad,Pcbnew,7.0.5
; #@! TF.FileFunction,MixedPlating,1,2
FMAT,2
METRIC
; #@! TA.AperFunction,Plated,PTH,ViaDrill
T1C0.200
; #@! TA.AperFunction,Plated,PTH,ViaDrill
T2C0.300
; #@! TA.AperFunction,Plated,PTH,ViaDrill
T3C0.400
; #@! TA.AperFunction,Plated,PTH,ViaDrill
T4C0.500
; #@! TA.AperFunction,Plated,PTH,ComponentDrill
T5C0.600
; #@! TA.AperFunction,Plated,PTH,ComponentDrill
T6C1.000
; #@! TA.AperFunction,Plated,PTH,ComponentDrill
T7C1.200
%
G90
G05
T1
X-24.14Y-5.53
X-13.05Y-11.18
X-12.6Y-10.75
X-12.18Y-10.31
X-11.7Y-9.88
X-11.29Y-9.42
T2
X-41.62Y-0.82
X-36.157Y-16.073
X-35.25Y-17.09
X-33.35Y-3.49
X-32.5Y-13.74
X-31.88Y-8.05
X-31.32Y-11.93
X-31.32Y-14.67
X-30.97Y-16.92
X-28.91Y-16.92
X-27.99Y-11.32
X-25.27Y-4.84
X-24.15Y-14.66
X-22.99Y-4.821
X-22.93Y-17.6
X-21.71Y-12.4
X-21.02Y-17.6
X-19.69Y-15.38
X-19.68Y-14.43
X-18.0Y-12.09
X-15.889Y-14.43
X-15.766Y-7.571
X-14.94Y-7.571
X-14.91Y-16.08
X-13.88Y-14.85
X-13.87Y-13.34
X-13.87Y-14.1
X-13.73Y-5.73
X-12.32Y-16.07
X-10.717Y-6.64
X-10.17Y-3.37
X-9.83Y-14.66
X-9.82Y-16.46
X-7.78Y-16.46
X-5.59Y-16.46
X-4.28Y-7.42
X-4.26Y-14.79
X-3.43Y-10.02
X-2.4Y-16.46
X-1.32Y-14.79
X0.08Y-16.46
T3
X-33.572Y-12.51
T4
X-36.18Y-1.3
X-30.29Y-10.24
X-13.33Y-3.99
X-8.19Y-6.31
X-8.186Y-3.984
T6
X-34.35Y-1.34
X-34.35Y-18.96
X-31.81Y-1.34
X-31.81Y-18.96
X-29.27Y-1.34
X-29.27Y-18.96
X-26.73Y-1.34
X-26.73Y-18.96
X-24.19Y-1.34
X-24.19Y-18.96
X-21.65Y-1.34
X-21.65Y-18.96
X-19.11Y-1.34
X-19.11Y-18.96
X-16.57Y-1.34
X-16.57Y-18.96
X-14.03Y-1.34
X-14.03Y-18.96
X-11.49Y-1.34
X-11.49Y-18.96
X-8.95Y-1.34
X-8.95Y-18.96
X-6.41Y-1.34
X-6.41Y-18.96
X-3.87Y-1.34
X-3.87Y-18.96
X-1.33Y-1.34
X-1.33Y-18.96
X1.55Y-6.33
X1.55Y-8.87
X1.55Y-11.41
X1.55Y-13.95
T7
X-43.42Y-2.3
X-43.42Y-17.98
X1.09Y-2.3
X1.09Y-17.98
T5
G00X-43.02Y-5.83
M15
G01X-43.82Y-5.83
M16
G05
G00X-43.02Y-14.47
M15
G01X-43.82Y-14.47
M16
G05
G00X-39.22Y-5.83
M15
G01X-40.02Y-5.83
M16
G05
G00X-39.22Y-14.47
M15
G01X-40.02Y-14.47
M16
G05
T0
M30
