%TF.GenerationSoftware,KiCad,Pcbnew,(6.0.8)*%
%TF.CreationDate,2022-10-13T16:24:43+08:00*%
%TF.ProjectId,UINIO-MCU-STM32L051K8,55494e49-4f2d-44d4-9355-2d53544d3332,rev?*%
%TF.SameCoordinates,Original*%
%TF.FileFunction,Paste,Top*%
%TF.FilePolarity,Positive*%
%FSLAX46Y46*%
G04 Gerber Fmt 4.6, Leading zero omitted, Abs format (unit mm)*
G04 Created by KiCad (PCBNEW (6.0.8)) date 2022-10-13 16:24:43*
%MOMM*%
%LPD*%
G01*
G04 APERTURE LIST*
G04 Aperture macros list*
%AMRoundRect*
0 Rectangle with rounded corners*
0 $1 Rounding radius*
0 $2 $3 $4 $5 $6 $7 $8 $9 X,Y pos of 4 corners*
0 Add a 4 corners polygon primitive as box body*
4,1,4,$2,$3,$4,$5,$6,$7,$8,$9,$2,$3,0*
0 Add four circle primitives for the rounded corners*
1,1,$1+$1,$2,$3*
1,1,$1+$1,$4,$5*
1,1,$1+$1,$6,$7*
1,1,$1+$1,$8,$9*
0 Add four rect primitives between the rounded corners*
20,1,$1+$1,$2,$3,$4,$5,0*
20,1,$1+$1,$4,$5,$6,$7,0*
20,1,$1+$1,$6,$7,$8,$9,0*
20,1,$1+$1,$8,$9,$2,$3,0*%
%AMRotRect*
0 Rectangle, with rotation*
0 The origin of the aperture is its center*
0 $1 length*
0 $2 width*
0 $3 Rotation angle, in degrees counterclockwise*
0 Add horizontal line*
21,1,$1,$2,0,0,$3*%
G04 Aperture macros list end*
%ADD10C,0.120000*%
%ADD11RoundRect,0.135000X0.135000X0.185000X-0.135000X0.185000X-0.135000X-0.185000X0.135000X-0.185000X0*%
%ADD12RoundRect,0.140000X0.140000X0.170000X-0.140000X0.170000X-0.140000X-0.170000X0.140000X-0.170000X0*%
%ADD13RoundRect,0.250000X0.375000X0.625000X-0.375000X0.625000X-0.375000X-0.625000X0.375000X-0.625000X0*%
%ADD14RoundRect,0.140000X-0.140000X-0.170000X0.140000X-0.170000X0.140000X0.170000X-0.140000X0.170000X0*%
%ADD15RotRect,0.600000X0.300000X135.000000*%
%ADD16RotRect,0.600000X0.300000X225.000000*%
%ADD17RotRect,0.600000X0.300000X315.000000*%
%ADD18RotRect,0.600000X0.300000X45.000000*%
%ADD19RotRect,3.450000X3.450000X45.000000*%
%ADD20RoundRect,0.135000X0.185000X-0.135000X0.185000X0.135000X-0.185000X0.135000X-0.185000X-0.135000X0*%
%ADD21R,1.400000X0.700000*%
%ADD22R,1.400000X0.800000*%
%ADD23R,1.500000X1.500000*%
%ADD24RoundRect,0.218750X-0.218750X-0.256250X0.218750X-0.256250X0.218750X0.256250X-0.218750X0.256250X0*%
%ADD25RoundRect,0.140000X-0.170000X0.140000X-0.170000X-0.140000X0.170000X-0.140000X0.170000X0.140000X0*%
%ADD26R,1.400000X1.200000*%
%ADD27RoundRect,0.140000X0.170000X-0.140000X0.170000X0.140000X-0.170000X0.140000X-0.170000X-0.140000X0*%
%ADD28R,1.000000X0.600000*%
G04 APERTURE END LIST*
%TO.C,USB1*%
G36*
X174728000Y-103600000D02*
G01*
X174821000Y-103628000D01*
X174908000Y-103674000D01*
X174984000Y-103736000D01*
X175046000Y-103812000D01*
X175092000Y-103899000D01*
X175120000Y-103992000D01*
X175130000Y-104090000D01*
X175120000Y-104188000D01*
X175092000Y-104281000D01*
X175046000Y-104368000D01*
X174984000Y-104444000D01*
X174908000Y-104506000D01*
X174821000Y-104552000D01*
X174728000Y-104580000D01*
X174630000Y-104590000D01*
X173830000Y-104590000D01*
X173732000Y-104580000D01*
X173639000Y-104552000D01*
X173552000Y-104506000D01*
X173476000Y-104444000D01*
X173414000Y-104368000D01*
X173368000Y-104281000D01*
X173340000Y-104188000D01*
X173330000Y-104090000D01*
X173340000Y-103992000D01*
X173368000Y-103899000D01*
X173414000Y-103812000D01*
X173476000Y-103736000D01*
X173552000Y-103674000D01*
X173639000Y-103628000D01*
X173732000Y-103600000D01*
X173830000Y-103590000D01*
X174630000Y-103590000D01*
X174728000Y-103600000D01*
G37*
D10*
X174728000Y-103600000D02*
X174821000Y-103628000D01*
X174908000Y-103674000D01*
X174984000Y-103736000D01*
X175046000Y-103812000D01*
X175092000Y-103899000D01*
X175120000Y-103992000D01*
X175130000Y-104090000D01*
X175120000Y-104188000D01*
X175092000Y-104281000D01*
X175046000Y-104368000D01*
X174984000Y-104444000D01*
X174908000Y-104506000D01*
X174821000Y-104552000D01*
X174728000Y-104580000D01*
X174630000Y-104590000D01*
X173830000Y-104590000D01*
X173732000Y-104580000D01*
X173639000Y-104552000D01*
X173552000Y-104506000D01*
X173476000Y-104444000D01*
X173414000Y-104368000D01*
X173368000Y-104281000D01*
X173340000Y-104188000D01*
X173330000Y-104090000D01*
X173340000Y-103992000D01*
X173368000Y-103899000D01*
X173414000Y-103812000D01*
X173476000Y-103736000D01*
X173552000Y-103674000D01*
X173639000Y-103628000D01*
X173732000Y-103600000D01*
X173830000Y-103590000D01*
X174630000Y-103590000D01*
X174728000Y-103600000D01*
G36*
X170130000Y-97420000D02*
G01*
X168730000Y-97420000D01*
X168730000Y-96620000D01*
X170130000Y-96620000D01*
X170130000Y-97420000D01*
G37*
X170130000Y-97420000D02*
X168730000Y-97420000D01*
X168730000Y-96620000D01*
X170130000Y-96620000D01*
X170130000Y-97420000D01*
G36*
X170927000Y-103600000D02*
G01*
X171021000Y-103628000D01*
X171108000Y-103674000D01*
X171183000Y-103736000D01*
X171246000Y-103812000D01*
X171292000Y-103899000D01*
X171320000Y-103992000D01*
X171330000Y-104090000D01*
X171320000Y-104188000D01*
X171292000Y-104281000D01*
X171246000Y-104368000D01*
X171183000Y-104444000D01*
X171108000Y-104506000D01*
X171021000Y-104552000D01*
X170927000Y-104580000D01*
X170830000Y-104590000D01*
X170030000Y-104590000D01*
X169932000Y-104580000D01*
X169839000Y-104552000D01*
X169752000Y-104506000D01*
X169676000Y-104444000D01*
X169614000Y-104368000D01*
X169568000Y-104281000D01*
X169539000Y-104188000D01*
X169530000Y-104090000D01*
X169539000Y-103992000D01*
X169568000Y-103899000D01*
X169614000Y-103812000D01*
X169676000Y-103736000D01*
X169752000Y-103674000D01*
X169839000Y-103628000D01*
X169932000Y-103600000D01*
X170030000Y-103590000D01*
X170830000Y-103590000D01*
X170927000Y-103600000D01*
G37*
X170927000Y-103600000D02*
X171021000Y-103628000D01*
X171108000Y-103674000D01*
X171183000Y-103736000D01*
X171246000Y-103812000D01*
X171292000Y-103899000D01*
X171320000Y-103992000D01*
X171330000Y-104090000D01*
X171320000Y-104188000D01*
X171292000Y-104281000D01*
X171246000Y-104368000D01*
X171183000Y-104444000D01*
X171108000Y-104506000D01*
X171021000Y-104552000D01*
X170927000Y-104580000D01*
X170830000Y-104590000D01*
X170030000Y-104590000D01*
X169932000Y-104580000D01*
X169839000Y-104552000D01*
X169752000Y-104506000D01*
X169676000Y-104444000D01*
X169614000Y-104368000D01*
X169568000Y-104281000D01*
X169539000Y-104188000D01*
X169530000Y-104090000D01*
X169539000Y-103992000D01*
X169568000Y-103899000D01*
X169614000Y-103812000D01*
X169676000Y-103736000D01*
X169752000Y-103674000D01*
X169839000Y-103628000D01*
X169932000Y-103600000D01*
X170030000Y-103590000D01*
X170830000Y-103590000D01*
X170927000Y-103600000D01*
G36*
X170927000Y-94960000D02*
G01*
X171021000Y-94988000D01*
X171108000Y-95034000D01*
X171183000Y-95096000D01*
X171246000Y-95172000D01*
X171292000Y-95259000D01*
X171320000Y-95352000D01*
X171330000Y-95450000D01*
X171320000Y-95547000D01*
X171292000Y-95641000D01*
X171246000Y-95728000D01*
X171183000Y-95803000D01*
X171108000Y-95866000D01*
X171021000Y-95912000D01*
X170927000Y-95940000D01*
X170830000Y-95950000D01*
X170030000Y-95950000D01*
X169932000Y-95940000D01*
X169839000Y-95912000D01*
X169752000Y-95866000D01*
X169676000Y-95803000D01*
X169614000Y-95728000D01*
X169568000Y-95641000D01*
X169539000Y-95547000D01*
X169530000Y-95450000D01*
X169539000Y-95352000D01*
X169568000Y-95259000D01*
X169614000Y-95172000D01*
X169676000Y-95096000D01*
X169752000Y-95034000D01*
X169839000Y-94988000D01*
X169932000Y-94960000D01*
X170030000Y-94950000D01*
X170830000Y-94950000D01*
X170927000Y-94960000D01*
G37*
X170927000Y-94960000D02*
X171021000Y-94988000D01*
X171108000Y-95034000D01*
X171183000Y-95096000D01*
X171246000Y-95172000D01*
X171292000Y-95259000D01*
X171320000Y-95352000D01*
X171330000Y-95450000D01*
X171320000Y-95547000D01*
X171292000Y-95641000D01*
X171246000Y-95728000D01*
X171183000Y-95803000D01*
X171108000Y-95866000D01*
X171021000Y-95912000D01*
X170927000Y-95940000D01*
X170830000Y-95950000D01*
X170030000Y-95950000D01*
X169932000Y-95940000D01*
X169839000Y-95912000D01*
X169752000Y-95866000D01*
X169676000Y-95803000D01*
X169614000Y-95728000D01*
X169568000Y-95641000D01*
X169539000Y-95547000D01*
X169530000Y-95450000D01*
X169539000Y-95352000D01*
X169568000Y-95259000D01*
X169614000Y-95172000D01*
X169676000Y-95096000D01*
X169752000Y-95034000D01*
X169839000Y-94988000D01*
X169932000Y-94960000D01*
X170030000Y-94950000D01*
X170830000Y-94950000D01*
X170927000Y-94960000D01*
G36*
X170130000Y-100620000D02*
G01*
X168730000Y-100620000D01*
X168730000Y-99920000D01*
X170130000Y-99920000D01*
X170130000Y-100620000D01*
G37*
X170130000Y-100620000D02*
X168730000Y-100620000D01*
X168730000Y-99920000D01*
X170130000Y-99920000D01*
X170130000Y-100620000D01*
G36*
X170130000Y-99620000D02*
G01*
X168730000Y-99620000D01*
X168730000Y-98920000D01*
X170130000Y-98920000D01*
X170130000Y-99620000D01*
G37*
X170130000Y-99620000D02*
X168730000Y-99620000D01*
X168730000Y-98920000D01*
X170130000Y-98920000D01*
X170130000Y-99620000D01*
G36*
X174728000Y-94960000D02*
G01*
X174821000Y-94988000D01*
X174908000Y-95034000D01*
X174984000Y-95096000D01*
X175046000Y-95172000D01*
X175092000Y-95259000D01*
X175120000Y-95352000D01*
X175130000Y-95450000D01*
X175120000Y-95547000D01*
X175092000Y-95641000D01*
X175046000Y-95728000D01*
X174984000Y-95803000D01*
X174908000Y-95866000D01*
X174821000Y-95912000D01*
X174728000Y-95940000D01*
X174630000Y-95950000D01*
X173830000Y-95950000D01*
X173732000Y-95940000D01*
X173639000Y-95912000D01*
X173552000Y-95866000D01*
X173476000Y-95803000D01*
X173414000Y-95728000D01*
X173368000Y-95641000D01*
X173340000Y-95547000D01*
X173330000Y-95450000D01*
X173340000Y-95352000D01*
X173368000Y-95259000D01*
X173414000Y-95172000D01*
X173476000Y-95096000D01*
X173552000Y-95034000D01*
X173639000Y-94988000D01*
X173732000Y-94960000D01*
X173830000Y-94950000D01*
X174630000Y-94950000D01*
X174728000Y-94960000D01*
G37*
X174728000Y-94960000D02*
X174821000Y-94988000D01*
X174908000Y-95034000D01*
X174984000Y-95096000D01*
X175046000Y-95172000D01*
X175092000Y-95259000D01*
X175120000Y-95352000D01*
X175130000Y-95450000D01*
X175120000Y-95547000D01*
X175092000Y-95641000D01*
X175046000Y-95728000D01*
X174984000Y-95803000D01*
X174908000Y-95866000D01*
X174821000Y-95912000D01*
X174728000Y-95940000D01*
X174630000Y-95950000D01*
X173830000Y-95950000D01*
X173732000Y-95940000D01*
X173639000Y-95912000D01*
X173552000Y-95866000D01*
X173476000Y-95803000D01*
X173414000Y-95728000D01*
X173368000Y-95641000D01*
X173340000Y-95547000D01*
X173330000Y-95450000D01*
X173340000Y-95352000D01*
X173368000Y-95259000D01*
X173414000Y-95172000D01*
X173476000Y-95096000D01*
X173552000Y-95034000D01*
X173639000Y-94988000D01*
X173732000Y-94960000D01*
X173830000Y-94950000D01*
X174630000Y-94950000D01*
X174728000Y-94960000D01*
G36*
X170130000Y-102920000D02*
G01*
X168730000Y-102920000D01*
X168730000Y-102120000D01*
X170130000Y-102120000D01*
X170130000Y-102920000D01*
G37*
X170130000Y-102920000D02*
X168730000Y-102920000D01*
X168730000Y-102120000D01*
X170130000Y-102120000D01*
X170130000Y-102920000D01*
G36*
X170130000Y-98600000D02*
G01*
X168730000Y-98600000D01*
X168730000Y-97900000D01*
X170130000Y-97900000D01*
X170130000Y-98600000D01*
G37*
X170130000Y-98600000D02*
X168730000Y-98600000D01*
X168730000Y-97900000D01*
X170130000Y-97900000D01*
X170130000Y-98600000D01*
G36*
X170130000Y-101640000D02*
G01*
X168730000Y-101640000D01*
X168730000Y-100940000D01*
X170130000Y-100940000D01*
X170130000Y-101640000D01*
G37*
X170130000Y-101640000D02*
X168730000Y-101640000D01*
X168730000Y-100940000D01*
X170130000Y-100940000D01*
X170130000Y-101640000D01*
%TD*%
D11*
%TO.C,R3*%
X163970000Y-100740000D03*
X162950000Y-100740000D03*
%TD*%
D12*
%TO.C,C5*%
X156750000Y-98620000D03*
X155790000Y-98620000D03*
%TD*%
D13*
%TO.C,F1*%
X171800000Y-106370000D03*
X169000000Y-106370000D03*
%TD*%
D14*
%TO.C,C4*%
X143277147Y-95098606D03*
X144237147Y-95098606D03*
%TD*%
D15*
%TO.C,U3*%
X144315761Y-102704819D03*
X144669315Y-102351266D03*
X145022868Y-101997712D03*
X145376422Y-101644159D03*
X145729975Y-101290606D03*
X146083528Y-100937052D03*
X146437082Y-100583499D03*
X146790635Y-100229945D03*
D16*
X146790635Y-99112717D03*
X146437082Y-98759163D03*
X146083528Y-98405610D03*
X145729975Y-98052056D03*
X145376422Y-97698503D03*
X145022868Y-97344950D03*
X144669315Y-96991396D03*
X144315761Y-96637843D03*
D17*
X143198533Y-96637843D03*
X142844979Y-96991396D03*
X142491426Y-97344950D03*
X142137872Y-97698503D03*
X141784319Y-98052056D03*
X141430766Y-98405610D03*
X141077212Y-98759163D03*
X140723659Y-99112717D03*
D18*
X140723659Y-100229945D03*
X141077212Y-100583499D03*
X141430766Y-100937052D03*
X141784319Y-101290606D03*
X142137872Y-101644159D03*
X142491426Y-101997712D03*
X142844979Y-102351266D03*
X143198533Y-102704819D03*
D19*
X143757147Y-99671331D03*
%TD*%
D20*
%TO.C,R1*%
X172200000Y-109110000D03*
X172200000Y-108090000D03*
%TD*%
D12*
%TO.C,C8*%
X149640000Y-99260000D03*
X148680000Y-99260000D03*
%TD*%
D14*
%TO.C,C7*%
X143287147Y-104358606D03*
X144247147Y-104358606D03*
%TD*%
D21*
%TO.C,USB1*%
X169430000Y-100270000D03*
X169430000Y-98250000D03*
D22*
X169430000Y-97020000D03*
D21*
X169430000Y-99270000D03*
X169430000Y-101290000D03*
D22*
X169430000Y-102520000D03*
%TD*%
D14*
%TO.C,C9*%
X155780000Y-100750000D03*
X156740000Y-100750000D03*
%TD*%
D23*
%TO.C,SW2*%
X163530000Y-103090000D03*
X156130000Y-103090000D03*
%TD*%
D11*
%TO.C,R2*%
X163980000Y-98660000D03*
X162960000Y-98660000D03*
%TD*%
D24*
%TO.C,D1*%
X169457500Y-108620000D03*
X171032500Y-108620000D03*
%TD*%
D25*
%TO.C,C2*%
X168380000Y-91890000D03*
X168380000Y-92850000D03*
%TD*%
D12*
%TO.C,C6*%
X149640000Y-100240000D03*
X148680000Y-100240000D03*
%TD*%
D25*
%TO.C,C11*%
X152400000Y-101510000D03*
X152400000Y-102470000D03*
%TD*%
D26*
%TO.C,Y1*%
X150770000Y-102260000D03*
X148570000Y-102260000D03*
X148570000Y-103960000D03*
X150770000Y-103960000D03*
%TD*%
D27*
%TO.C,C10*%
X152390000Y-104350000D03*
X152390000Y-103390000D03*
%TD*%
D25*
%TO.C,C1*%
X173330000Y-91890000D03*
X173330000Y-92850000D03*
%TD*%
D23*
%TO.C,SW1*%
X163550000Y-96330000D03*
X156150000Y-96330000D03*
%TD*%
D28*
%TO.C,U1*%
X172158000Y-92836000D03*
X172158000Y-91886000D03*
X172158000Y-90936000D03*
X169558000Y-90936000D03*
X169558000Y-92836000D03*
%TD*%
M02*
