M48
; DRILL file {KiCad (6.0.8)} date Thu Oct 13 16:33:50 2022
; FORMAT={-:-/ absolute / metric / decimal}
; #@! TF.CreationDate,2022-10-13T16:33:50+08:00
; #@! TF.GenerationSoftware,Kicad,Pcbnew,(6.0.8)
; #@! TF.FileFunction,MixedPlating,1,2
FMAT,2
METRIC
; #@! TA.AperFunction,Plated,PTH,ViaDrill
T1C0.200
; #@! TA.AperFunction,Plated,PTH,ViaDrill
T2C0.300
; #@! TA.AperFunction,Plated,PTH,ViaDrill
T3C0.500
; #@! TA.AperFunction,Plated,PTH,ComponentDrill
T4C0.600
; #@! TA.AperFunction,Plated,PTH,ComponentDrill
T5C1.000
; #@! TA.AperFunction,Plated,PTH,ComponentDrill
T6C1.200
%
G90
G05
T1
X138.31Y-98.51
X139.97Y-97.69
X142.358Y-103.39
X142.93Y-100.5
X143.34Y-100.04
X143.82Y-99.61
X144.24Y-99.17
X144.69Y-98.74
X145.51Y-95.82
X145.51Y-96.58
X145.52Y-95.07
X146.15Y-102.349
X147.529Y-95.49
X151.43Y-95.49
X153.49Y-97.52
X155.78Y-104.55
X155.8Y-95.09
T2
X146.99Y-102.98
X151.16Y-99.72
X151.33Y-94.54
X154.63Y-105.099
X156.91Y-105.08
X166.89Y-93.37
T3
X138.04Y-103.39
X139.65Y-106.39
X143.78Y-93.6
X144.97Y-105.93
X145.12Y-93.6
X151.04Y-97.42
X161.93Y-99.68
X165.212Y-97.562
T5
X130.39Y-95.97
X130.39Y-98.51
X130.39Y-101.05
X130.39Y-103.59
X132.96Y-108.61
X132.99Y-90.9
X135.5Y-108.61
X135.53Y-90.9
X138.04Y-108.61
X138.07Y-90.9
X140.58Y-108.61
X140.61Y-90.9
X143.12Y-108.61
X143.15Y-90.9
X145.66Y-108.61
X145.69Y-90.9
X148.2Y-108.61
X148.23Y-90.9
X150.74Y-108.61
X150.77Y-90.9
X153.28Y-108.61
X153.31Y-90.9
X155.82Y-108.61
X155.85Y-90.9
X158.36Y-108.61
X158.39Y-90.9
X160.9Y-108.61
X160.93Y-90.9
X163.44Y-108.61
X163.47Y-90.9
X165.98Y-108.61
X166.01Y-90.9
T6
X130.19Y-107.54
X130.22Y-92.0
X175.16Y-107.36
X175.2Y-92.23
T4
G00X170.03Y-95.45
M15
G01X170.83Y-95.45
M16
G05
G00X170.03Y-104.09
M15
G01X170.83Y-104.09
M16
G05
G00X173.83Y-95.45
M15
G01X174.63Y-95.45
M16
G05
G00X173.83Y-104.09
M15
G01X174.63Y-104.09
M16
G05
T0
M30
