M48
; DRILL file {KiCad 7.0.9} date Thu Jan 11 23:09:49 2024
; FORMAT={-:-/ absolute / metric / decimal}
; #@! TF.CreationDate,2024-01-11T23:09:49+08:00
; #@! TF.GenerationSoftware,Kicad,Pcbnew,7.0.9
; #@! TF.FileFunction,MixedPlating,1,2
FMAT,2
METRIC
; #@! TA.AperFunction,Plated,PTH,ViaDrill
T1C0.200
; #@! TA.AperFunction,Plated,PTH,ViaDrill
T2C0.300
; #@! TA.AperFunction,Plated,PTH,ViaDrill
T3C0.400
; #@! TA.AperFunction,Plated,PTH,ViaDrill
T4C0.500
; #@! TA.AperFunction,Plated,PTH,ComponentDrill
T5C0.600
; #@! TA.AperFunction,Plated,PTH,ComponentDrill
T6C1.000
; #@! TA.AperFunction,Plated,PTH,ComponentDrill
T7C1.200
%
G90
G05
T1
X18.16Y-5.53
X29.25Y-11.18
X29.7Y-10.75
X30.12Y-10.31
X30.6Y-9.88
X31.01Y-9.42
T2
X0.68Y-0.82
X6.143Y-16.073
X7.05Y-17.09
X8.95Y-3.49
X9.8Y-13.74
X10.42Y-8.05
X10.98Y-11.93
X10.98Y-14.67
X11.33Y-16.92
X13.39Y-16.92
X14.31Y-11.32
X17.03Y-4.84
X18.15Y-14.66
X19.31Y-4.821
X19.37Y-17.6
X20.59Y-12.4
X21.279Y-17.6
X22.61Y-15.38
X22.62Y-14.43
X24.3Y-12.09
X26.41Y-14.43
X26.534Y-7.571
X27.36Y-7.571
X27.39Y-16.08
X28.42Y-14.85
X28.43Y-13.34
X28.43Y-14.1
X28.57Y-5.73
X29.98Y-16.07
X31.583Y-6.64
X32.13Y-3.37
X32.47Y-14.66
X32.48Y-16.46
X34.52Y-16.46
X36.71Y-16.46
X38.02Y-7.42
X38.04Y-14.79
X38.87Y-10.02
X39.9Y-16.46
X40.98Y-14.79
X42.38Y-16.46
T3
X8.728Y-12.51
T4
X6.12Y-1.3
X12.01Y-10.24
X28.97Y-3.99
X34.11Y-6.31
X34.114Y-3.984
T6
X7.95Y-1.34
X7.95Y-18.96
X10.49Y-1.34
X10.49Y-18.96
X13.03Y-1.34
X13.03Y-18.96
X15.57Y-1.34
X15.57Y-18.96
X18.11Y-1.34
X18.11Y-18.96
X20.65Y-1.34
X20.65Y-18.96
X23.19Y-1.34
X23.19Y-18.96
X25.73Y-1.34
X25.73Y-18.96
X28.27Y-1.34
X28.27Y-18.96
X30.81Y-1.34
X30.81Y-18.96
X33.35Y-1.34
X33.35Y-18.96
X35.89Y-1.34
X35.89Y-18.96
X38.43Y-1.34
X38.43Y-18.96
X40.97Y-1.34
X40.97Y-18.96
X43.85Y-6.33
X43.85Y-8.87
X43.85Y-11.41
X43.85Y-13.95
T7
X-1.12Y-2.3
X-1.12Y-17.98
X43.39Y-2.3
X43.39Y-17.98
T5
G00X-0.72Y-5.83
M15
G01X-1.52Y-5.83
M16
G05
G00X-0.72Y-14.47
M15
G01X-1.52Y-14.47
M16
G05
G00X3.08Y-5.83
M15
G01X2.28Y-5.83
M16
G05
G00X3.08Y-14.47
M15
G01X2.28Y-14.47
M16
G05
T0
M30
