%TF.GenerationSoftware,KiCad,Pcbnew,(6.0.8)*%
%TF.CreationDate,2022-10-12T16:14:51+08:00*%
%TF.ProjectId,UINIO-MCU-STM32L051K8,55494e49-4f2d-44d4-9355-2d53544d3332,rev?*%
%TF.SameCoordinates,Original*%
%TF.FileFunction,Soldermask,Top*%
%TF.FilePolarity,Negative*%
%FSLAX46Y46*%
G04 Gerber Fmt 4.6, Leading zero omitted, Abs format (unit mm)*
G04 Created by KiCad (PCBNEW (6.0.8)) date 2022-10-12 16:14:51*
%MOMM*%
%LPD*%
G01*
G04 APERTURE LIST*
G04 Aperture macros list*
%AMRoundRect*
0 Rectangle with rounded corners*
0 $1 Rounding radius*
0 $2 $3 $4 $5 $6 $7 $8 $9 X,Y pos of 4 corners*
0 Add a 4 corners polygon primitive as box body*
4,1,4,$2,$3,$4,$5,$6,$7,$8,$9,$2,$3,0*
0 Add four circle primitives for the rounded corners*
1,1,$1+$1,$2,$3*
1,1,$1+$1,$4,$5*
1,1,$1+$1,$6,$7*
1,1,$1+$1,$8,$9*
0 Add four rect primitives between the rounded corners*
20,1,$1+$1,$2,$3,$4,$5,0*
20,1,$1+$1,$4,$5,$6,$7,0*
20,1,$1+$1,$6,$7,$8,$9,0*
20,1,$1+$1,$8,$9,$2,$3,0*%
%AMRotRect*
0 Rectangle, with rotation*
0 The origin of the aperture is its center*
0 $1 length*
0 $2 width*
0 $3 Rotation angle, in degrees counterclockwise*
0 Add horizontal line*
21,1,$1,$2,0,0,$3*%
G04 Aperture macros list end*
%ADD10RoundRect,0.135000X-0.135000X-0.185000X0.135000X-0.185000X0.135000X0.185000X-0.135000X0.185000X0*%
%ADD11RoundRect,0.140000X-0.140000X-0.170000X0.140000X-0.170000X0.140000X0.170000X-0.140000X0.170000X0*%
%ADD12RoundRect,0.250000X-0.375000X-0.625000X0.375000X-0.625000X0.375000X0.625000X-0.375000X0.625000X0*%
%ADD13RoundRect,0.140000X0.140000X0.170000X-0.140000X0.170000X-0.140000X-0.170000X0.140000X-0.170000X0*%
%ADD14C,1.200000*%
%ADD15RotRect,0.600000X0.300000X315.000000*%
%ADD16RotRect,0.600000X0.300000X45.000000*%
%ADD17RotRect,0.600000X0.300000X135.000000*%
%ADD18RotRect,0.600000X0.300000X225.000000*%
%ADD19RotRect,3.450000X3.450000X225.000000*%
%ADD20RoundRect,0.135000X-0.185000X0.135000X-0.185000X-0.135000X0.185000X-0.135000X0.185000X0.135000X0*%
%ADD21R,1.700000X1.700000*%
%ADD22O,1.700000X1.700000*%
%ADD23O,1.800000X1.000000*%
%ADD24R,1.400000X0.700000*%
%ADD25R,1.400000X0.800000*%
%ADD26R,1.500000X1.500000*%
%ADD27RoundRect,0.218750X0.218750X0.256250X-0.218750X0.256250X-0.218750X-0.256250X0.218750X-0.256250X0*%
%ADD28RoundRect,0.140000X0.170000X-0.140000X0.170000X0.140000X-0.170000X0.140000X-0.170000X-0.140000X0*%
%ADD29RoundRect,0.140000X-0.170000X0.140000X-0.170000X-0.140000X0.170000X-0.140000X0.170000X0.140000X0*%
%ADD30R,1.400000X1.200000*%
%ADD31R,1.000000X0.600000*%
G04 APERTURE END LIST*
D10*
%TO.C,R3*%
X141840000Y-98760000D03*
X142860000Y-98760000D03*
%TD*%
D11*
%TO.C,C5*%
X149060000Y-100880000D03*
X150020000Y-100880000D03*
%TD*%
D12*
%TO.C,F1*%
X134010000Y-93130000D03*
X136810000Y-93130000D03*
%TD*%
D13*
%TO.C,C4*%
X162532853Y-104401394D03*
X161572853Y-104401394D03*
%TD*%
D14*
%TO.C,HOLE1*%
X130650000Y-92140000D03*
%TD*%
D15*
%TO.C,U3*%
X161494239Y-96795181D03*
X161140685Y-97148734D03*
X160787132Y-97502288D03*
X160433578Y-97855841D03*
X160080025Y-98209394D03*
X159726472Y-98562948D03*
X159372918Y-98916501D03*
X159019365Y-99270055D03*
D16*
X159019365Y-100387283D03*
X159372918Y-100740837D03*
X159726472Y-101094390D03*
X160080025Y-101447944D03*
X160433578Y-101801497D03*
X160787132Y-102155050D03*
X161140685Y-102508604D03*
X161494239Y-102862157D03*
D17*
X162611467Y-102862157D03*
X162965021Y-102508604D03*
X163318574Y-102155050D03*
X163672128Y-101801497D03*
X164025681Y-101447944D03*
X164379234Y-101094390D03*
X164732788Y-100740837D03*
X165086341Y-100387283D03*
D18*
X165086341Y-99270055D03*
X164732788Y-98916501D03*
X164379234Y-98562948D03*
X164025681Y-98209394D03*
X163672128Y-97855841D03*
X163318574Y-97502288D03*
X162965021Y-97148734D03*
X162611467Y-96795181D03*
D19*
X162052853Y-99828669D03*
%TD*%
D20*
%TO.C,R1*%
X133610000Y-90390000D03*
X133610000Y-91410000D03*
%TD*%
D21*
%TO.C,J3*%
X175420000Y-95910000D03*
D22*
X175420000Y-98450000D03*
X175420000Y-100990000D03*
X175420000Y-103530000D03*
%TD*%
D11*
%TO.C,C8*%
X156280000Y-101230000D03*
X157240000Y-101230000D03*
%TD*%
D13*
%TO.C,C7*%
X162522853Y-95141394D03*
X161562853Y-95141394D03*
%TD*%
D23*
%TO.C,USB1*%
X135380000Y-95410000D03*
X135380000Y-104050000D03*
X131580000Y-95410000D03*
X131580000Y-104050000D03*
D24*
X136380000Y-99230000D03*
X136380000Y-101250000D03*
D25*
X136380000Y-102480000D03*
D24*
X136380000Y-100230000D03*
X136380000Y-98210000D03*
D25*
X136380000Y-96980000D03*
%TD*%
D13*
%TO.C,C9*%
X150030000Y-98750000D03*
X149070000Y-98750000D03*
%TD*%
D14*
%TO.C,HOLE2*%
X130610000Y-107270000D03*
%TD*%
%TO.C,HOLE4*%
X175590000Y-107500000D03*
%TD*%
D26*
%TO.C,SW2*%
X142280000Y-96410000D03*
X149680000Y-96410000D03*
%TD*%
D10*
%TO.C,R2*%
X141830000Y-100840000D03*
X142850000Y-100840000D03*
%TD*%
D27*
%TO.C,D1*%
X136352500Y-90880000D03*
X134777500Y-90880000D03*
%TD*%
D28*
%TO.C,C2*%
X137430000Y-107610000D03*
X137430000Y-106650000D03*
%TD*%
D11*
%TO.C,C6*%
X156280000Y-100310000D03*
X157240000Y-100310000D03*
%TD*%
D29*
%TO.C,C11*%
X152920000Y-97210000D03*
X152920000Y-98170000D03*
%TD*%
D30*
%TO.C,Y1*%
X154500000Y-97670000D03*
X156700000Y-97670000D03*
X156700000Y-95970000D03*
X154500000Y-95970000D03*
%TD*%
D14*
%TO.C,HOLE3*%
X175620000Y-91960000D03*
%TD*%
D28*
%TO.C,C10*%
X152920000Y-96350000D03*
X152920000Y-95390000D03*
%TD*%
%TO.C,C1*%
X132480000Y-107610000D03*
X132480000Y-106650000D03*
%TD*%
D26*
%TO.C,SW1*%
X142260000Y-103170000D03*
X149660000Y-103170000D03*
%TD*%
D31*
%TO.C,U1*%
X133652000Y-106664000D03*
X133652000Y-107614000D03*
X133652000Y-108564000D03*
X136252000Y-108564000D03*
X136252000Y-106664000D03*
%TD*%
D21*
%TO.C,J2*%
X139830000Y-90890000D03*
D22*
X142370000Y-90890000D03*
X144910000Y-90890000D03*
X147450000Y-90890000D03*
X149990000Y-90890000D03*
X152530000Y-90890000D03*
X155070000Y-90890000D03*
X157610000Y-90890000D03*
X160150000Y-90890000D03*
X162690000Y-90890000D03*
X165230000Y-90890000D03*
X167770000Y-90890000D03*
X170310000Y-90890000D03*
X172850000Y-90890000D03*
%TD*%
D21*
%TO.C,J1*%
X139800000Y-108600000D03*
D22*
X142340000Y-108600000D03*
X144880000Y-108600000D03*
X147420000Y-108600000D03*
X149960000Y-108600000D03*
X152500000Y-108600000D03*
X155040000Y-108600000D03*
X157580000Y-108600000D03*
X160120000Y-108600000D03*
X162660000Y-108600000D03*
X165200000Y-108600000D03*
X167740000Y-108600000D03*
X170280000Y-108600000D03*
X172820000Y-108600000D03*
%TD*%
M02*
