%TF.GenerationSoftware,KiCad,Pcbnew,(6.0.8)*%
%TF.CreationDate,2022-10-13T16:33:47+08:00*%
%TF.ProjectId,UINIO-MCU-STM32L051K8,55494e49-4f2d-44d4-9355-2d53544d3332,rev?*%
%TF.SameCoordinates,Original*%
%TF.FileFunction,Legend,Bot*%
%TF.FilePolarity,Positive*%
%FSLAX46Y46*%
G04 Gerber Fmt 4.6, Leading zero omitted, Abs format (unit mm)*
G04 Created by KiCad (PCBNEW (6.0.8)) date 2022-10-13 16:33:47*
%MOMM*%
%LPD*%
G01*
G04 APERTURE LIST*
G04 Aperture macros list*
%AMRoundRect*
0 Rectangle with rounded corners*
0 $1 Rounding radius*
0 $2 $3 $4 $5 $6 $7 $8 $9 X,Y pos of 4 corners*
0 Add a 4 corners polygon primitive as box body*
4,1,4,$2,$3,$4,$5,$6,$7,$8,$9,$2,$3,0*
0 Add four circle primitives for the rounded corners*
1,1,$1+$1,$2,$3*
1,1,$1+$1,$4,$5*
1,1,$1+$1,$6,$7*
1,1,$1+$1,$8,$9*
0 Add four rect primitives between the rounded corners*
20,1,$1+$1,$2,$3,$4,$5,0*
20,1,$1+$1,$4,$5,$6,$7,0*
20,1,$1+$1,$6,$7,$8,$9,0*
20,1,$1+$1,$8,$9,$2,$3,0*%
G04 Aperture macros list end*
%ADD10C,0.100000*%
%ADD11C,0.150000*%
%ADD12C,0.300000*%
%ADD13C,0.120000*%
%ADD14C,0.152000*%
%ADD15C,1.200000*%
%ADD16R,1.700000X1.700000*%
%ADD17O,1.700000X1.700000*%
%ADD18O,1.800000X1.000000*%
%ADD19O,0.630000X2.250000*%
%ADD20RoundRect,0.140000X0.170000X-0.140000X0.170000X0.140000X-0.170000X0.140000X-0.170000X-0.140000X0*%
G04 APERTURE END LIST*
D10*
X150498571Y-106922857D02*
X151098571Y-106922857D01*
X151098571Y-106694285D01*
X151070000Y-106637142D01*
X151041428Y-106608571D01*
X150984285Y-106580000D01*
X150898571Y-106580000D01*
X150841428Y-106608571D01*
X150812857Y-106637142D01*
X150784285Y-106694285D01*
X150784285Y-106922857D01*
X150812857Y-106122857D02*
X150784285Y-106037142D01*
X150755714Y-106008571D01*
X150698571Y-105980000D01*
X150612857Y-105980000D01*
X150555714Y-106008571D01*
X150527142Y-106037142D01*
X150498571Y-106094285D01*
X150498571Y-106322857D01*
X151098571Y-106322857D01*
X151098571Y-106122857D01*
X151070000Y-106065714D01*
X151041428Y-106037142D01*
X150984285Y-106008571D01*
X150927142Y-106008571D01*
X150870000Y-106037142D01*
X150841428Y-106065714D01*
X150812857Y-106122857D01*
X150812857Y-106322857D01*
X151098571Y-105780000D02*
X151098571Y-105380000D01*
X150498571Y-105637142D01*
X132040000Y-97723333D02*
X132040000Y-98423333D01*
X132306666Y-98423333D01*
X132373333Y-98390000D01*
X132406666Y-98356666D01*
X132440000Y-98290000D01*
X132440000Y-98190000D01*
X132406666Y-98123333D01*
X132373333Y-98090000D01*
X132306666Y-98056666D01*
X132040000Y-98056666D01*
X132706666Y-97923333D02*
X133040000Y-97923333D01*
X132640000Y-97723333D02*
X132873333Y-98423333D01*
X133106666Y-97723333D01*
X133706666Y-97723333D02*
X133306666Y-97723333D01*
X133506666Y-97723333D02*
X133506666Y-98423333D01*
X133440000Y-98323333D01*
X133373333Y-98256666D01*
X133306666Y-98223333D01*
X134306666Y-98190000D02*
X134306666Y-97723333D01*
X134140000Y-98456666D02*
X133973333Y-97956666D01*
X134406666Y-97956666D01*
X142878571Y-106922857D02*
X143478571Y-106922857D01*
X143478571Y-106694285D01*
X143450000Y-106637142D01*
X143421428Y-106608571D01*
X143364285Y-106580000D01*
X143278571Y-106580000D01*
X143221428Y-106608571D01*
X143192857Y-106637142D01*
X143164285Y-106694285D01*
X143164285Y-106922857D01*
X143192857Y-106122857D02*
X143164285Y-106037142D01*
X143135714Y-106008571D01*
X143078571Y-105980000D01*
X142992857Y-105980000D01*
X142935714Y-106008571D01*
X142907142Y-106037142D01*
X142878571Y-106094285D01*
X142878571Y-106322857D01*
X143478571Y-106322857D01*
X143478571Y-106122857D01*
X143450000Y-106065714D01*
X143421428Y-106037142D01*
X143364285Y-106008571D01*
X143307142Y-106008571D01*
X143250000Y-106037142D01*
X143221428Y-106065714D01*
X143192857Y-106122857D01*
X143192857Y-106322857D01*
X143278571Y-105465714D02*
X142878571Y-105465714D01*
X143507142Y-105608571D02*
X143078571Y-105751428D01*
X143078571Y-105380000D01*
X132718571Y-106922857D02*
X133318571Y-106922857D01*
X133318571Y-106694285D01*
X133290000Y-106637142D01*
X133261428Y-106608571D01*
X133204285Y-106580000D01*
X133118571Y-106580000D01*
X133061428Y-106608571D01*
X133032857Y-106637142D01*
X133004285Y-106694285D01*
X133004285Y-106922857D01*
X133032857Y-106122857D02*
X133004285Y-106037142D01*
X132975714Y-106008571D01*
X132918571Y-105980000D01*
X132832857Y-105980000D01*
X132775714Y-106008571D01*
X132747142Y-106037142D01*
X132718571Y-106094285D01*
X132718571Y-106322857D01*
X133318571Y-106322857D01*
X133318571Y-106122857D01*
X133290000Y-106065714D01*
X133261428Y-106037142D01*
X133204285Y-106008571D01*
X133147142Y-106008571D01*
X133090000Y-106037142D01*
X133061428Y-106065714D01*
X133032857Y-106122857D01*
X133032857Y-106322857D01*
X133318571Y-105608571D02*
X133318571Y-105551428D01*
X133290000Y-105494285D01*
X133261428Y-105465714D01*
X133204285Y-105437142D01*
X133090000Y-105408571D01*
X132947142Y-105408571D01*
X132832857Y-105437142D01*
X132775714Y-105465714D01*
X132747142Y-105494285D01*
X132718571Y-105551428D01*
X132718571Y-105608571D01*
X132747142Y-105665714D01*
X132775714Y-105694285D01*
X132832857Y-105722857D01*
X132947142Y-105751428D01*
X133090000Y-105751428D01*
X133204285Y-105722857D01*
X133261428Y-105694285D01*
X133290000Y-105665714D01*
X133318571Y-105608571D01*
X137808571Y-94595714D02*
X138408571Y-94595714D01*
X138408571Y-94367142D01*
X138380000Y-94310000D01*
X138351428Y-94281428D01*
X138294285Y-94252857D01*
X138208571Y-94252857D01*
X138151428Y-94281428D01*
X138122857Y-94310000D01*
X138094285Y-94367142D01*
X138094285Y-94595714D01*
X137980000Y-94024285D02*
X137980000Y-93738571D01*
X137808571Y-94081428D02*
X138408571Y-93881428D01*
X137808571Y-93681428D01*
X137808571Y-93167142D02*
X137808571Y-93510000D01*
X137808571Y-93338571D02*
X138408571Y-93338571D01*
X138322857Y-93395714D01*
X138265714Y-93452857D01*
X138237142Y-93510000D01*
X137808571Y-92595714D02*
X137808571Y-92938571D01*
X137808571Y-92767142D02*
X138408571Y-92767142D01*
X138322857Y-92824285D01*
X138265714Y-92881428D01*
X138237142Y-92938571D01*
X140338571Y-106922857D02*
X140938571Y-106922857D01*
X140938571Y-106694285D01*
X140910000Y-106637142D01*
X140881428Y-106608571D01*
X140824285Y-106580000D01*
X140738571Y-106580000D01*
X140681428Y-106608571D01*
X140652857Y-106637142D01*
X140624285Y-106694285D01*
X140624285Y-106922857D01*
X140652857Y-106122857D02*
X140624285Y-106037142D01*
X140595714Y-106008571D01*
X140538571Y-105980000D01*
X140452857Y-105980000D01*
X140395714Y-106008571D01*
X140367142Y-106037142D01*
X140338571Y-106094285D01*
X140338571Y-106322857D01*
X140938571Y-106322857D01*
X140938571Y-106122857D01*
X140910000Y-106065714D01*
X140881428Y-106037142D01*
X140824285Y-106008571D01*
X140767142Y-106008571D01*
X140710000Y-106037142D01*
X140681428Y-106065714D01*
X140652857Y-106122857D01*
X140652857Y-106322857D01*
X140938571Y-105780000D02*
X140938571Y-105408571D01*
X140710000Y-105608571D01*
X140710000Y-105522857D01*
X140681428Y-105465714D01*
X140652857Y-105437142D01*
X140595714Y-105408571D01*
X140452857Y-105408571D01*
X140395714Y-105437142D01*
X140367142Y-105465714D01*
X140338571Y-105522857D01*
X140338571Y-105694285D01*
X140367142Y-105751428D01*
X140395714Y-105780000D01*
X155618571Y-107086714D02*
X156218571Y-107086714D01*
X155618571Y-106743857D01*
X156218571Y-106743857D01*
X155618571Y-106115285D02*
X155904285Y-106315285D01*
X155618571Y-106458142D02*
X156218571Y-106458142D01*
X156218571Y-106229571D01*
X156190000Y-106172428D01*
X156161428Y-106143857D01*
X156104285Y-106115285D01*
X156018571Y-106115285D01*
X155961428Y-106143857D01*
X155932857Y-106172428D01*
X155904285Y-106229571D01*
X155904285Y-106458142D01*
X155647142Y-105886714D02*
X155618571Y-105801000D01*
X155618571Y-105658142D01*
X155647142Y-105601000D01*
X155675714Y-105572428D01*
X155732857Y-105543857D01*
X155790000Y-105543857D01*
X155847142Y-105572428D01*
X155875714Y-105601000D01*
X155904285Y-105658142D01*
X155932857Y-105772428D01*
X155961428Y-105829571D01*
X155990000Y-105858142D01*
X156047142Y-105886714D01*
X156104285Y-105886714D01*
X156161428Y-105858142D01*
X156190000Y-105829571D01*
X156218571Y-105772428D01*
X156218571Y-105629571D01*
X156190000Y-105543857D01*
X156218571Y-105372428D02*
X156218571Y-105029571D01*
X155618571Y-105201000D02*
X156218571Y-105201000D01*
X147958571Y-106922857D02*
X148558571Y-106922857D01*
X148558571Y-106694285D01*
X148530000Y-106637142D01*
X148501428Y-106608571D01*
X148444285Y-106580000D01*
X148358571Y-106580000D01*
X148301428Y-106608571D01*
X148272857Y-106637142D01*
X148244285Y-106694285D01*
X148244285Y-106922857D01*
X148272857Y-106122857D02*
X148244285Y-106037142D01*
X148215714Y-106008571D01*
X148158571Y-105980000D01*
X148072857Y-105980000D01*
X148015714Y-106008571D01*
X147987142Y-106037142D01*
X147958571Y-106094285D01*
X147958571Y-106322857D01*
X148558571Y-106322857D01*
X148558571Y-106122857D01*
X148530000Y-106065714D01*
X148501428Y-106037142D01*
X148444285Y-106008571D01*
X148387142Y-106008571D01*
X148330000Y-106037142D01*
X148301428Y-106065714D01*
X148272857Y-106122857D01*
X148272857Y-106322857D01*
X148558571Y-105465714D02*
X148558571Y-105580000D01*
X148530000Y-105637142D01*
X148501428Y-105665714D01*
X148415714Y-105722857D01*
X148301428Y-105751428D01*
X148072857Y-105751428D01*
X148015714Y-105722857D01*
X147987142Y-105694285D01*
X147958571Y-105637142D01*
X147958571Y-105522857D01*
X147987142Y-105465714D01*
X148015714Y-105437142D01*
X148072857Y-105408571D01*
X148215714Y-105408571D01*
X148272857Y-105437142D01*
X148301428Y-105465714D01*
X148330000Y-105522857D01*
X148330000Y-105637142D01*
X148301428Y-105694285D01*
X148272857Y-105722857D01*
X148215714Y-105751428D01*
X135268571Y-94615714D02*
X135868571Y-94615714D01*
X135868571Y-94387142D01*
X135840000Y-94330000D01*
X135811428Y-94301428D01*
X135754285Y-94272857D01*
X135668571Y-94272857D01*
X135611428Y-94301428D01*
X135582857Y-94330000D01*
X135554285Y-94387142D01*
X135554285Y-94615714D01*
X135440000Y-94044285D02*
X135440000Y-93758571D01*
X135268571Y-94101428D02*
X135868571Y-93901428D01*
X135268571Y-93701428D01*
X135268571Y-93187142D02*
X135268571Y-93530000D01*
X135268571Y-93358571D02*
X135868571Y-93358571D01*
X135782857Y-93415714D01*
X135725714Y-93472857D01*
X135697142Y-93530000D01*
X135811428Y-92958571D02*
X135840000Y-92930000D01*
X135868571Y-92872857D01*
X135868571Y-92730000D01*
X135840000Y-92672857D01*
X135811428Y-92644285D01*
X135754285Y-92615714D01*
X135697142Y-92615714D01*
X135611428Y-92644285D01*
X135268571Y-92987142D01*
X135268571Y-92615714D01*
X132738571Y-94605714D02*
X133338571Y-94605714D01*
X133338571Y-94377142D01*
X133310000Y-94320000D01*
X133281428Y-94291428D01*
X133224285Y-94262857D01*
X133138571Y-94262857D01*
X133081428Y-94291428D01*
X133052857Y-94320000D01*
X133024285Y-94377142D01*
X133024285Y-94605714D01*
X132910000Y-94034285D02*
X132910000Y-93748571D01*
X132738571Y-94091428D02*
X133338571Y-93891428D01*
X132738571Y-93691428D01*
X132738571Y-93177142D02*
X132738571Y-93520000D01*
X132738571Y-93348571D02*
X133338571Y-93348571D01*
X133252857Y-93405714D01*
X133195714Y-93462857D01*
X133167142Y-93520000D01*
X133338571Y-92634285D02*
X133338571Y-92920000D01*
X133052857Y-92948571D01*
X133081428Y-92920000D01*
X133110000Y-92862857D01*
X133110000Y-92720000D01*
X133081428Y-92662857D01*
X133052857Y-92634285D01*
X132995714Y-92605714D01*
X132852857Y-92605714D01*
X132795714Y-92634285D01*
X132767142Y-92662857D01*
X132738571Y-92720000D01*
X132738571Y-92862857D01*
X132767142Y-92920000D01*
X132795714Y-92948571D01*
X153038571Y-106922857D02*
X153638571Y-106922857D01*
X153638571Y-106694285D01*
X153610000Y-106637142D01*
X153581428Y-106608571D01*
X153524285Y-106580000D01*
X153438571Y-106580000D01*
X153381428Y-106608571D01*
X153352857Y-106637142D01*
X153324285Y-106694285D01*
X153324285Y-106922857D01*
X153352857Y-106122857D02*
X153324285Y-106037142D01*
X153295714Y-106008571D01*
X153238571Y-105980000D01*
X153152857Y-105980000D01*
X153095714Y-106008571D01*
X153067142Y-106037142D01*
X153038571Y-106094285D01*
X153038571Y-106322857D01*
X153638571Y-106322857D01*
X153638571Y-106122857D01*
X153610000Y-106065714D01*
X153581428Y-106037142D01*
X153524285Y-106008571D01*
X153467142Y-106008571D01*
X153410000Y-106037142D01*
X153381428Y-106065714D01*
X153352857Y-106122857D01*
X153352857Y-106322857D01*
X153381428Y-105637142D02*
X153410000Y-105694285D01*
X153438571Y-105722857D01*
X153495714Y-105751428D01*
X153524285Y-105751428D01*
X153581428Y-105722857D01*
X153610000Y-105694285D01*
X153638571Y-105637142D01*
X153638571Y-105522857D01*
X153610000Y-105465714D01*
X153581428Y-105437142D01*
X153524285Y-105408571D01*
X153495714Y-105408571D01*
X153438571Y-105437142D01*
X153410000Y-105465714D01*
X153381428Y-105522857D01*
X153381428Y-105637142D01*
X153352857Y-105694285D01*
X153324285Y-105722857D01*
X153267142Y-105751428D01*
X153152857Y-105751428D01*
X153095714Y-105722857D01*
X153067142Y-105694285D01*
X153038571Y-105637142D01*
X153038571Y-105522857D01*
X153067142Y-105465714D01*
X153095714Y-105437142D01*
X153152857Y-105408571D01*
X153267142Y-105408571D01*
X153324285Y-105437142D01*
X153352857Y-105465714D01*
X153381428Y-105522857D01*
X140348571Y-94595714D02*
X140948571Y-94595714D01*
X140948571Y-94367142D01*
X140920000Y-94310000D01*
X140891428Y-94281428D01*
X140834285Y-94252857D01*
X140748571Y-94252857D01*
X140691428Y-94281428D01*
X140662857Y-94310000D01*
X140634285Y-94367142D01*
X140634285Y-94595714D01*
X140520000Y-94024285D02*
X140520000Y-93738571D01*
X140348571Y-94081428D02*
X140948571Y-93881428D01*
X140348571Y-93681428D01*
X140348571Y-93167142D02*
X140348571Y-93510000D01*
X140348571Y-93338571D02*
X140948571Y-93338571D01*
X140862857Y-93395714D01*
X140805714Y-93452857D01*
X140777142Y-93510000D01*
X140948571Y-92795714D02*
X140948571Y-92738571D01*
X140920000Y-92681428D01*
X140891428Y-92652857D01*
X140834285Y-92624285D01*
X140720000Y-92595714D01*
X140577142Y-92595714D01*
X140462857Y-92624285D01*
X140405714Y-92652857D01*
X140377142Y-92681428D01*
X140348571Y-92738571D01*
X140348571Y-92795714D01*
X140377142Y-92852857D01*
X140405714Y-92881428D01*
X140462857Y-92910000D01*
X140577142Y-92938571D01*
X140720000Y-92938571D01*
X140834285Y-92910000D01*
X140891428Y-92881428D01*
X140920000Y-92852857D01*
X140948571Y-92795714D01*
X158128571Y-93920000D02*
X158728571Y-93920000D01*
X158728571Y-93691428D01*
X158700000Y-93634285D01*
X158671428Y-93605714D01*
X158614285Y-93577142D01*
X158528571Y-93577142D01*
X158471428Y-93605714D01*
X158442857Y-93634285D01*
X158414285Y-93691428D01*
X158414285Y-93920000D01*
X158300000Y-93348571D02*
X158300000Y-93062857D01*
X158128571Y-93405714D02*
X158728571Y-93205714D01*
X158128571Y-93005714D01*
X158728571Y-92862857D02*
X158728571Y-92491428D01*
X158500000Y-92691428D01*
X158500000Y-92605714D01*
X158471428Y-92548571D01*
X158442857Y-92520000D01*
X158385714Y-92491428D01*
X158242857Y-92491428D01*
X158185714Y-92520000D01*
X158157142Y-92548571D01*
X158128571Y-92605714D01*
X158128571Y-92777142D01*
X158157142Y-92834285D01*
X158185714Y-92862857D01*
X150508571Y-93920000D02*
X151108571Y-93920000D01*
X151108571Y-93691428D01*
X151080000Y-93634285D01*
X151051428Y-93605714D01*
X150994285Y-93577142D01*
X150908571Y-93577142D01*
X150851428Y-93605714D01*
X150822857Y-93634285D01*
X150794285Y-93691428D01*
X150794285Y-93920000D01*
X150680000Y-93348571D02*
X150680000Y-93062857D01*
X150508571Y-93405714D02*
X151108571Y-93205714D01*
X150508571Y-93005714D01*
X151108571Y-92548571D02*
X151108571Y-92662857D01*
X151080000Y-92720000D01*
X151051428Y-92748571D01*
X150965714Y-92805714D01*
X150851428Y-92834285D01*
X150622857Y-92834285D01*
X150565714Y-92805714D01*
X150537142Y-92777142D01*
X150508571Y-92720000D01*
X150508571Y-92605714D01*
X150537142Y-92548571D01*
X150565714Y-92520000D01*
X150622857Y-92491428D01*
X150765714Y-92491428D01*
X150822857Y-92520000D01*
X150851428Y-92548571D01*
X150880000Y-92605714D01*
X150880000Y-92720000D01*
X150851428Y-92777142D01*
X150822857Y-92805714D01*
X150765714Y-92834285D01*
D11*
X132014761Y-103806190D02*
X132129047Y-103768095D01*
X132319523Y-103768095D01*
X132395714Y-103806190D01*
X132433809Y-103844285D01*
X132471904Y-103920476D01*
X132471904Y-103996666D01*
X132433809Y-104072857D01*
X132395714Y-104110952D01*
X132319523Y-104149047D01*
X132167142Y-104187142D01*
X132090952Y-104225238D01*
X132052857Y-104263333D01*
X132014761Y-104339523D01*
X132014761Y-104415714D01*
X132052857Y-104491904D01*
X132090952Y-104530000D01*
X132167142Y-104568095D01*
X132357619Y-104568095D01*
X132471904Y-104530000D01*
X132738571Y-104568095D02*
X132929047Y-103768095D01*
X133081428Y-104339523D01*
X133233809Y-103768095D01*
X133424285Y-104568095D01*
X133729047Y-103768095D02*
X133729047Y-104568095D01*
X133919523Y-104568095D01*
X134033809Y-104530000D01*
X134110000Y-104453809D01*
X134148095Y-104377619D01*
X134186190Y-104225238D01*
X134186190Y-104110952D01*
X134148095Y-103958571D01*
X134110000Y-103882380D01*
X134033809Y-103806190D01*
X133919523Y-103768095D01*
X133729047Y-103768095D01*
X134529047Y-103768095D02*
X134529047Y-104568095D01*
X135062380Y-104568095D02*
X135214761Y-104568095D01*
X135290952Y-104530000D01*
X135367142Y-104453809D01*
X135405238Y-104301428D01*
X135405238Y-104034761D01*
X135367142Y-103882380D01*
X135290952Y-103806190D01*
X135214761Y-103768095D01*
X135062380Y-103768095D01*
X134986190Y-103806190D01*
X134910000Y-103882380D01*
X134871904Y-104034761D01*
X134871904Y-104301428D01*
X134910000Y-104453809D01*
X134986190Y-104530000D01*
X135062380Y-104568095D01*
D10*
X132000000Y-102663333D02*
X132000000Y-103363333D01*
X132266666Y-103363333D01*
X132333333Y-103330000D01*
X132366666Y-103296666D01*
X132400000Y-103230000D01*
X132400000Y-103130000D01*
X132366666Y-103063333D01*
X132333333Y-103030000D01*
X132266666Y-102996666D01*
X132000000Y-102996666D01*
X132666666Y-102863333D02*
X133000000Y-102863333D01*
X132600000Y-102663333D02*
X132833333Y-103363333D01*
X133066666Y-102663333D01*
X133666666Y-102663333D02*
X133266666Y-102663333D01*
X133466666Y-102663333D02*
X133466666Y-103363333D01*
X133400000Y-103263333D01*
X133333333Y-103196666D01*
X133266666Y-103163333D01*
X133900000Y-103363333D02*
X134333333Y-103363333D01*
X134100000Y-103096666D01*
X134200000Y-103096666D01*
X134266666Y-103063333D01*
X134300000Y-103030000D01*
X134333333Y-102963333D01*
X134333333Y-102796666D01*
X134300000Y-102730000D01*
X134266666Y-102696666D01*
X134200000Y-102663333D01*
X134000000Y-102663333D01*
X133933333Y-102696666D01*
X133900000Y-102730000D01*
X137798571Y-106922857D02*
X138398571Y-106922857D01*
X138398571Y-106694285D01*
X138370000Y-106637142D01*
X138341428Y-106608571D01*
X138284285Y-106580000D01*
X138198571Y-106580000D01*
X138141428Y-106608571D01*
X138112857Y-106637142D01*
X138084285Y-106694285D01*
X138084285Y-106922857D01*
X138112857Y-106122857D02*
X138084285Y-106037142D01*
X138055714Y-106008571D01*
X137998571Y-105980000D01*
X137912857Y-105980000D01*
X137855714Y-106008571D01*
X137827142Y-106037142D01*
X137798571Y-106094285D01*
X137798571Y-106322857D01*
X138398571Y-106322857D01*
X138398571Y-106122857D01*
X138370000Y-106065714D01*
X138341428Y-106037142D01*
X138284285Y-106008571D01*
X138227142Y-106008571D01*
X138170000Y-106037142D01*
X138141428Y-106065714D01*
X138112857Y-106122857D01*
X138112857Y-106322857D01*
X138341428Y-105751428D02*
X138370000Y-105722857D01*
X138398571Y-105665714D01*
X138398571Y-105522857D01*
X138370000Y-105465714D01*
X138341428Y-105437142D01*
X138284285Y-105408571D01*
X138227142Y-105408571D01*
X138141428Y-105437142D01*
X137798571Y-105780000D01*
X137798571Y-105408571D01*
X153002527Y-93944413D02*
X153602527Y-93944413D01*
X153602527Y-93715841D01*
X153573956Y-93658698D01*
X153545384Y-93630127D01*
X153488241Y-93601555D01*
X153402527Y-93601555D01*
X153345384Y-93630127D01*
X153316813Y-93658698D01*
X153288241Y-93715841D01*
X153288241Y-93944413D01*
X153173956Y-93372984D02*
X153173956Y-93087270D01*
X153002527Y-93430127D02*
X153602527Y-93230127D01*
X153002527Y-93030127D01*
X153602527Y-92544413D02*
X153602527Y-92830127D01*
X153316813Y-92858698D01*
X153345384Y-92830127D01*
X153373956Y-92772984D01*
X153373956Y-92630127D01*
X153345384Y-92572984D01*
X153316813Y-92544413D01*
X153259670Y-92515841D01*
X153116813Y-92515841D01*
X153059670Y-92544413D01*
X153031098Y-92572984D01*
X153002527Y-92630127D01*
X153002527Y-92772984D01*
X153031098Y-92830127D01*
X153059670Y-92858698D01*
X142888571Y-93920000D02*
X143488571Y-93920000D01*
X143488571Y-93691428D01*
X143460000Y-93634285D01*
X143431428Y-93605714D01*
X143374285Y-93577142D01*
X143288571Y-93577142D01*
X143231428Y-93605714D01*
X143202857Y-93634285D01*
X143174285Y-93691428D01*
X143174285Y-93920000D01*
X143060000Y-93348571D02*
X143060000Y-93062857D01*
X142888571Y-93405714D02*
X143488571Y-93205714D01*
X142888571Y-93005714D01*
X142888571Y-92777142D02*
X142888571Y-92662857D01*
X142917142Y-92605714D01*
X142945714Y-92577142D01*
X143031428Y-92520000D01*
X143145714Y-92491428D01*
X143374285Y-92491428D01*
X143431428Y-92520000D01*
X143460000Y-92548571D01*
X143488571Y-92605714D01*
X143488571Y-92720000D01*
X143460000Y-92777142D01*
X143431428Y-92805714D01*
X143374285Y-92834285D01*
X143231428Y-92834285D01*
X143174285Y-92805714D01*
X143145714Y-92777142D01*
X143117142Y-92720000D01*
X143117142Y-92605714D01*
X143145714Y-92548571D01*
X143174285Y-92520000D01*
X143231428Y-92491428D01*
X147968571Y-93920000D02*
X148568571Y-93920000D01*
X148568571Y-93691428D01*
X148540000Y-93634285D01*
X148511428Y-93605714D01*
X148454285Y-93577142D01*
X148368571Y-93577142D01*
X148311428Y-93605714D01*
X148282857Y-93634285D01*
X148254285Y-93691428D01*
X148254285Y-93920000D01*
X148140000Y-93348571D02*
X148140000Y-93062857D01*
X147968571Y-93405714D02*
X148568571Y-93205714D01*
X147968571Y-93005714D01*
X148568571Y-92862857D02*
X148568571Y-92462857D01*
X147968571Y-92720000D01*
D11*
X131966666Y-96303333D02*
X132400000Y-96303333D01*
X132166666Y-96036666D01*
X132266666Y-96036666D01*
X132333333Y-96003333D01*
X132366666Y-95970000D01*
X132400000Y-95903333D01*
X132400000Y-95736666D01*
X132366666Y-95670000D01*
X132333333Y-95636666D01*
X132266666Y-95603333D01*
X132066666Y-95603333D01*
X132000000Y-95636666D01*
X131966666Y-95670000D01*
X132700000Y-95670000D02*
X132733333Y-95636666D01*
X132700000Y-95603333D01*
X132666666Y-95636666D01*
X132700000Y-95670000D01*
X132700000Y-95603333D01*
X132966666Y-96303333D02*
X133400000Y-96303333D01*
X133166666Y-96036666D01*
X133266666Y-96036666D01*
X133333333Y-96003333D01*
X133366666Y-95970000D01*
X133400000Y-95903333D01*
X133400000Y-95736666D01*
X133366666Y-95670000D01*
X133333333Y-95636666D01*
X133266666Y-95603333D01*
X133066666Y-95603333D01*
X133000000Y-95636666D01*
X132966666Y-95670000D01*
X133600000Y-96303333D02*
X133833333Y-95603333D01*
X134066666Y-96303333D01*
D10*
X160668571Y-93920000D02*
X161268571Y-93920000D01*
X161268571Y-93691428D01*
X161240000Y-93634285D01*
X161211428Y-93605714D01*
X161154285Y-93577142D01*
X161068571Y-93577142D01*
X161011428Y-93605714D01*
X160982857Y-93634285D01*
X160954285Y-93691428D01*
X160954285Y-93920000D01*
X160840000Y-93348571D02*
X160840000Y-93062857D01*
X160668571Y-93405714D02*
X161268571Y-93205714D01*
X160668571Y-93005714D01*
X161211428Y-92834285D02*
X161240000Y-92805714D01*
X161268571Y-92748571D01*
X161268571Y-92605714D01*
X161240000Y-92548571D01*
X161211428Y-92520000D01*
X161154285Y-92491428D01*
X161097142Y-92491428D01*
X161011428Y-92520000D01*
X160668571Y-92862857D01*
X160668571Y-92491428D01*
D11*
X132470476Y-101440000D02*
X132394285Y-101478095D01*
X132280000Y-101478095D01*
X132165714Y-101440000D01*
X132089523Y-101363809D01*
X132051428Y-101287619D01*
X132013333Y-101135238D01*
X132013333Y-101020952D01*
X132051428Y-100868571D01*
X132089523Y-100792380D01*
X132165714Y-100716190D01*
X132280000Y-100678095D01*
X132356190Y-100678095D01*
X132470476Y-100716190D01*
X132508571Y-100754285D01*
X132508571Y-101020952D01*
X132356190Y-101020952D01*
X132851428Y-100678095D02*
X132851428Y-101478095D01*
X133308571Y-100678095D01*
X133308571Y-101478095D01*
X133689523Y-100678095D02*
X133689523Y-101478095D01*
X133880000Y-101478095D01*
X133994285Y-101440000D01*
X134070476Y-101363809D01*
X134108571Y-101287619D01*
X134146666Y-101135238D01*
X134146666Y-101020952D01*
X134108571Y-100868571D01*
X134070476Y-100792380D01*
X133994285Y-100716190D01*
X133880000Y-100678095D01*
X133689523Y-100678095D01*
D10*
X145428571Y-93920000D02*
X146028571Y-93920000D01*
X146028571Y-93691428D01*
X146000000Y-93634285D01*
X145971428Y-93605714D01*
X145914285Y-93577142D01*
X145828571Y-93577142D01*
X145771428Y-93605714D01*
X145742857Y-93634285D01*
X145714285Y-93691428D01*
X145714285Y-93920000D01*
X145600000Y-93348571D02*
X145600000Y-93062857D01*
X145428571Y-93405714D02*
X146028571Y-93205714D01*
X145428571Y-93005714D01*
X145771428Y-92720000D02*
X145800000Y-92777142D01*
X145828571Y-92805714D01*
X145885714Y-92834285D01*
X145914285Y-92834285D01*
X145971428Y-92805714D01*
X146000000Y-92777142D01*
X146028571Y-92720000D01*
X146028571Y-92605714D01*
X146000000Y-92548571D01*
X145971428Y-92520000D01*
X145914285Y-92491428D01*
X145885714Y-92491428D01*
X145828571Y-92520000D01*
X145800000Y-92548571D01*
X145771428Y-92605714D01*
X145771428Y-92720000D01*
X145742857Y-92777142D01*
X145714285Y-92805714D01*
X145657142Y-92834285D01*
X145542857Y-92834285D01*
X145485714Y-92805714D01*
X145457142Y-92777142D01*
X145428571Y-92720000D01*
X145428571Y-92605714D01*
X145457142Y-92548571D01*
X145485714Y-92520000D01*
X145542857Y-92491428D01*
X145657142Y-92491428D01*
X145714285Y-92520000D01*
X145742857Y-92548571D01*
X145771428Y-92605714D01*
D11*
X132030476Y-98806190D02*
X132144761Y-98768095D01*
X132335238Y-98768095D01*
X132411428Y-98806190D01*
X132449523Y-98844285D01*
X132487619Y-98920476D01*
X132487619Y-98996666D01*
X132449523Y-99072857D01*
X132411428Y-99110952D01*
X132335238Y-99149047D01*
X132182857Y-99187142D01*
X132106666Y-99225238D01*
X132068571Y-99263333D01*
X132030476Y-99339523D01*
X132030476Y-99415714D01*
X132068571Y-99491904D01*
X132106666Y-99530000D01*
X132182857Y-99568095D01*
X132373333Y-99568095D01*
X132487619Y-99530000D01*
X132754285Y-99568095D02*
X132944761Y-98768095D01*
X133097142Y-99339523D01*
X133249523Y-98768095D01*
X133440000Y-99568095D01*
X134201904Y-98844285D02*
X134163809Y-98806190D01*
X134049523Y-98768095D01*
X133973333Y-98768095D01*
X133859047Y-98806190D01*
X133782857Y-98882380D01*
X133744761Y-98958571D01*
X133706666Y-99110952D01*
X133706666Y-99225238D01*
X133744761Y-99377619D01*
X133782857Y-99453809D01*
X133859047Y-99530000D01*
X133973333Y-99568095D01*
X134049523Y-99568095D01*
X134163809Y-99530000D01*
X134201904Y-99491904D01*
X134925714Y-98768095D02*
X134544761Y-98768095D01*
X134544761Y-99568095D01*
X135192380Y-98768095D02*
X135192380Y-99568095D01*
X135649523Y-98768095D02*
X135306666Y-99225238D01*
X135649523Y-99568095D02*
X135192380Y-99110952D01*
D10*
X145418571Y-106922857D02*
X146018571Y-106922857D01*
X146018571Y-106694285D01*
X145990000Y-106637142D01*
X145961428Y-106608571D01*
X145904285Y-106580000D01*
X145818571Y-106580000D01*
X145761428Y-106608571D01*
X145732857Y-106637142D01*
X145704285Y-106694285D01*
X145704285Y-106922857D01*
X145732857Y-106122857D02*
X145704285Y-106037142D01*
X145675714Y-106008571D01*
X145618571Y-105980000D01*
X145532857Y-105980000D01*
X145475714Y-106008571D01*
X145447142Y-106037142D01*
X145418571Y-106094285D01*
X145418571Y-106322857D01*
X146018571Y-106322857D01*
X146018571Y-106122857D01*
X145990000Y-106065714D01*
X145961428Y-106037142D01*
X145904285Y-106008571D01*
X145847142Y-106008571D01*
X145790000Y-106037142D01*
X145761428Y-106065714D01*
X145732857Y-106122857D01*
X145732857Y-106322857D01*
X146018571Y-105437142D02*
X146018571Y-105722857D01*
X145732857Y-105751428D01*
X145761428Y-105722857D01*
X145790000Y-105665714D01*
X145790000Y-105522857D01*
X145761428Y-105465714D01*
X145732857Y-105437142D01*
X145675714Y-105408571D01*
X145532857Y-105408571D01*
X145475714Y-105437142D01*
X145447142Y-105465714D01*
X145418571Y-105522857D01*
X145418571Y-105665714D01*
X145447142Y-105722857D01*
X145475714Y-105751428D01*
X156788571Y-103701428D02*
X156188571Y-103558571D01*
X156617142Y-103444285D01*
X156188571Y-103330000D01*
X156788571Y-103187142D01*
X156731428Y-102987142D02*
X156760000Y-102958571D01*
X156788571Y-102901428D01*
X156788571Y-102758571D01*
X156760000Y-102701428D01*
X156731428Y-102672857D01*
X156674285Y-102644285D01*
X156617142Y-102644285D01*
X156531428Y-102672857D01*
X156188571Y-103015714D01*
X156188571Y-102644285D01*
X156788571Y-102101428D02*
X156788571Y-102387142D01*
X156502857Y-102415714D01*
X156531428Y-102387142D01*
X156560000Y-102330000D01*
X156560000Y-102187142D01*
X156531428Y-102130000D01*
X156502857Y-102101428D01*
X156445714Y-102072857D01*
X156302857Y-102072857D01*
X156245714Y-102101428D01*
X156217142Y-102130000D01*
X156188571Y-102187142D01*
X156188571Y-102330000D01*
X156217142Y-102387142D01*
X156245714Y-102415714D01*
X156131428Y-101415714D02*
X156160000Y-101472857D01*
X156217142Y-101530000D01*
X156302857Y-101615714D01*
X156331428Y-101672857D01*
X156331428Y-101730000D01*
X156188571Y-101701428D02*
X156217142Y-101758571D01*
X156274285Y-101815714D01*
X156388571Y-101844285D01*
X156588571Y-101844285D01*
X156702857Y-101815714D01*
X156760000Y-101758571D01*
X156788571Y-101701428D01*
X156788571Y-101587142D01*
X156760000Y-101530000D01*
X156702857Y-101472857D01*
X156588571Y-101444285D01*
X156388571Y-101444285D01*
X156274285Y-101472857D01*
X156217142Y-101530000D01*
X156188571Y-101587142D01*
X156188571Y-101701428D01*
X156417142Y-101187142D02*
X156417142Y-100730000D01*
X156788571Y-100501428D02*
X156188571Y-100101428D01*
X156788571Y-100101428D02*
X156188571Y-100501428D01*
X156788571Y-99930000D02*
X156188571Y-99530000D01*
X156788571Y-99530000D02*
X156188571Y-99930000D01*
X156417142Y-99301428D02*
X156417142Y-98844285D01*
X156788571Y-98387142D02*
X156360000Y-98387142D01*
X156274285Y-98415714D01*
X156217142Y-98472857D01*
X156188571Y-98558571D01*
X156188571Y-98615714D01*
X156788571Y-98187142D02*
X156188571Y-97987142D01*
X156788571Y-97787142D01*
X156217142Y-97615714D02*
X156188571Y-97530000D01*
X156188571Y-97387142D01*
X156217142Y-97330000D01*
X156245714Y-97301428D01*
X156302857Y-97272857D01*
X156360000Y-97272857D01*
X156417142Y-97301428D01*
X156445714Y-97330000D01*
X156474285Y-97387142D01*
X156502857Y-97501428D01*
X156531428Y-97558571D01*
X156560000Y-97587142D01*
X156617142Y-97615714D01*
X156674285Y-97615714D01*
X156731428Y-97587142D01*
X156760000Y-97558571D01*
X156788571Y-97501428D01*
X156788571Y-97358571D01*
X156760000Y-97272857D01*
X156217142Y-97044285D02*
X156188571Y-96958571D01*
X156188571Y-96815714D01*
X156217142Y-96758571D01*
X156245714Y-96730000D01*
X156302857Y-96701428D01*
X156360000Y-96701428D01*
X156417142Y-96730000D01*
X156445714Y-96758571D01*
X156474285Y-96815714D01*
X156502857Y-96930000D01*
X156531428Y-96987142D01*
X156560000Y-97015714D01*
X156617142Y-97044285D01*
X156674285Y-97044285D01*
X156731428Y-97015714D01*
X156760000Y-96987142D01*
X156788571Y-96930000D01*
X156788571Y-96787142D01*
X156760000Y-96701428D01*
X156188571Y-96444285D02*
X156788571Y-96444285D01*
X156131428Y-95758571D02*
X156160000Y-95815714D01*
X156217142Y-95872857D01*
X156302857Y-95958571D01*
X156331428Y-96015714D01*
X156331428Y-96072857D01*
X156188571Y-96044285D02*
X156217142Y-96101428D01*
X156274285Y-96158571D01*
X156388571Y-96187142D01*
X156588571Y-96187142D01*
X156702857Y-96158571D01*
X156760000Y-96101428D01*
X156788571Y-96044285D01*
X156788571Y-95930000D01*
X156760000Y-95872857D01*
X156702857Y-95815714D01*
X156588571Y-95787142D01*
X156388571Y-95787142D01*
X156274285Y-95815714D01*
X156217142Y-95872857D01*
X156188571Y-95930000D01*
X156188571Y-96044285D01*
X163208571Y-93980000D02*
X163808571Y-93980000D01*
X163808571Y-93751428D01*
X163780000Y-93694285D01*
X163751428Y-93665714D01*
X163694285Y-93637142D01*
X163608571Y-93637142D01*
X163551428Y-93665714D01*
X163522857Y-93694285D01*
X163494285Y-93751428D01*
X163494285Y-93980000D01*
X163380000Y-93408571D02*
X163380000Y-93122857D01*
X163208571Y-93465714D02*
X163808571Y-93265714D01*
X163208571Y-93065714D01*
X163208571Y-92551428D02*
X163208571Y-92894285D01*
X163208571Y-92722857D02*
X163808571Y-92722857D01*
X163722857Y-92780000D01*
X163665714Y-92837142D01*
X163637142Y-92894285D01*
X155588571Y-93920000D02*
X156188571Y-93920000D01*
X156188571Y-93691428D01*
X156160000Y-93634285D01*
X156131428Y-93605714D01*
X156074285Y-93577142D01*
X155988571Y-93577142D01*
X155931428Y-93605714D01*
X155902857Y-93634285D01*
X155874285Y-93691428D01*
X155874285Y-93920000D01*
X155760000Y-93348571D02*
X155760000Y-93062857D01*
X155588571Y-93405714D02*
X156188571Y-93205714D01*
X155588571Y-93005714D01*
X155988571Y-92548571D02*
X155588571Y-92548571D01*
X156217142Y-92691428D02*
X155788571Y-92834285D01*
X155788571Y-92462857D01*
X166318571Y-106844285D02*
X166318571Y-107130000D01*
X166032857Y-107158571D01*
X166061428Y-107130000D01*
X166090000Y-107072857D01*
X166090000Y-106930000D01*
X166061428Y-106872857D01*
X166032857Y-106844285D01*
X165975714Y-106815714D01*
X165832857Y-106815714D01*
X165775714Y-106844285D01*
X165747142Y-106872857D01*
X165718571Y-106930000D01*
X165718571Y-107072857D01*
X165747142Y-107130000D01*
X165775714Y-107158571D01*
X166318571Y-106644285D02*
X165718571Y-106444285D01*
X166318571Y-106244285D01*
X165748571Y-93920000D02*
X166348571Y-93920000D01*
X166348571Y-93691428D01*
X166320000Y-93634285D01*
X166291428Y-93605714D01*
X166234285Y-93577142D01*
X166148571Y-93577142D01*
X166091428Y-93605714D01*
X166062857Y-93634285D01*
X166034285Y-93691428D01*
X166034285Y-93920000D01*
X165920000Y-93348571D02*
X165920000Y-93062857D01*
X165748571Y-93405714D02*
X166348571Y-93205714D01*
X165748571Y-93005714D01*
X166348571Y-92691428D02*
X166348571Y-92634285D01*
X166320000Y-92577142D01*
X166291428Y-92548571D01*
X166234285Y-92520000D01*
X166120000Y-92491428D01*
X165977142Y-92491428D01*
X165862857Y-92520000D01*
X165805714Y-92548571D01*
X165777142Y-92577142D01*
X165748571Y-92634285D01*
X165748571Y-92691428D01*
X165777142Y-92748571D01*
X165805714Y-92777142D01*
X165862857Y-92805714D01*
X165977142Y-92834285D01*
X166120000Y-92834285D01*
X166234285Y-92805714D01*
X166291428Y-92777142D01*
X166320000Y-92748571D01*
X166348571Y-92691428D01*
X135258571Y-106922857D02*
X135858571Y-106922857D01*
X135858571Y-106694285D01*
X135830000Y-106637142D01*
X135801428Y-106608571D01*
X135744285Y-106580000D01*
X135658571Y-106580000D01*
X135601428Y-106608571D01*
X135572857Y-106637142D01*
X135544285Y-106694285D01*
X135544285Y-106922857D01*
X135572857Y-106122857D02*
X135544285Y-106037142D01*
X135515714Y-106008571D01*
X135458571Y-105980000D01*
X135372857Y-105980000D01*
X135315714Y-106008571D01*
X135287142Y-106037142D01*
X135258571Y-106094285D01*
X135258571Y-106322857D01*
X135858571Y-106322857D01*
X135858571Y-106122857D01*
X135830000Y-106065714D01*
X135801428Y-106037142D01*
X135744285Y-106008571D01*
X135687142Y-106008571D01*
X135630000Y-106037142D01*
X135601428Y-106065714D01*
X135572857Y-106122857D01*
X135572857Y-106322857D01*
X135258571Y-105408571D02*
X135258571Y-105751428D01*
X135258571Y-105580000D02*
X135858571Y-105580000D01*
X135772857Y-105637142D01*
X135715714Y-105694285D01*
X135687142Y-105751428D01*
X161278571Y-107125714D02*
X161278571Y-106754285D01*
X161050000Y-106954285D01*
X161050000Y-106868571D01*
X161021428Y-106811428D01*
X160992857Y-106782857D01*
X160935714Y-106754285D01*
X160792857Y-106754285D01*
X160735714Y-106782857D01*
X160707142Y-106811428D01*
X160678571Y-106868571D01*
X160678571Y-107040000D01*
X160707142Y-107097142D01*
X160735714Y-107125714D01*
X160735714Y-106497142D02*
X160707142Y-106468571D01*
X160678571Y-106497142D01*
X160707142Y-106525714D01*
X160735714Y-106497142D01*
X160678571Y-106497142D01*
X161278571Y-106268571D02*
X161278571Y-105897142D01*
X161050000Y-106097142D01*
X161050000Y-106011428D01*
X161021428Y-105954285D01*
X160992857Y-105925714D01*
X160935714Y-105897142D01*
X160792857Y-105897142D01*
X160735714Y-105925714D01*
X160707142Y-105954285D01*
X160678571Y-106011428D01*
X160678571Y-106182857D01*
X160707142Y-106240000D01*
X160735714Y-106268571D01*
X161278571Y-105725714D02*
X160678571Y-105525714D01*
X161278571Y-105325714D01*
X163800000Y-106717142D02*
X163828571Y-106774285D01*
X163828571Y-106860000D01*
X163800000Y-106945714D01*
X163742857Y-107002857D01*
X163685714Y-107031428D01*
X163571428Y-107060000D01*
X163485714Y-107060000D01*
X163371428Y-107031428D01*
X163314285Y-107002857D01*
X163257142Y-106945714D01*
X163228571Y-106860000D01*
X163228571Y-106802857D01*
X163257142Y-106717142D01*
X163285714Y-106688571D01*
X163485714Y-106688571D01*
X163485714Y-106802857D01*
X163228571Y-106431428D02*
X163828571Y-106431428D01*
X163228571Y-106088571D01*
X163828571Y-106088571D01*
X163228571Y-105802857D02*
X163828571Y-105802857D01*
X163828571Y-105660000D01*
X163800000Y-105574285D01*
X163742857Y-105517142D01*
X163685714Y-105488571D01*
X163571428Y-105460000D01*
X163485714Y-105460000D01*
X163371428Y-105488571D01*
X163314285Y-105517142D01*
X163257142Y-105574285D01*
X163228571Y-105660000D01*
X163228571Y-105802857D01*
X158690000Y-106637142D02*
X158718571Y-106694285D01*
X158718571Y-106780000D01*
X158690000Y-106865714D01*
X158632857Y-106922857D01*
X158575714Y-106951428D01*
X158461428Y-106980000D01*
X158375714Y-106980000D01*
X158261428Y-106951428D01*
X158204285Y-106922857D01*
X158147142Y-106865714D01*
X158118571Y-106780000D01*
X158118571Y-106722857D01*
X158147142Y-106637142D01*
X158175714Y-106608571D01*
X158375714Y-106608571D01*
X158375714Y-106722857D01*
X158118571Y-106351428D02*
X158718571Y-106351428D01*
X158118571Y-106008571D01*
X158718571Y-106008571D01*
X158118571Y-105722857D02*
X158718571Y-105722857D01*
X158718571Y-105580000D01*
X158690000Y-105494285D01*
X158632857Y-105437142D01*
X158575714Y-105408571D01*
X158461428Y-105380000D01*
X158375714Y-105380000D01*
X158261428Y-105408571D01*
X158204285Y-105437142D01*
X158147142Y-105494285D01*
X158118571Y-105580000D01*
X158118571Y-105722857D01*
%TO.C,U2*%
X163431904Y-102605476D02*
X164079523Y-102605476D01*
X164155714Y-102643571D01*
X164193809Y-102681666D01*
X164231904Y-102757857D01*
X164231904Y-102910238D01*
X164193809Y-102986428D01*
X164155714Y-103024523D01*
X164079523Y-103062619D01*
X163431904Y-103062619D01*
X163508095Y-103405476D02*
X163470000Y-103443571D01*
X163431904Y-103519761D01*
X163431904Y-103710238D01*
X163470000Y-103786428D01*
X163508095Y-103824523D01*
X163584285Y-103862619D01*
X163660476Y-103862619D01*
X163774761Y-103824523D01*
X164231904Y-103367380D01*
X164231904Y-103862619D01*
%TO.C,C3*%
X165174285Y-99590000D02*
X165202857Y-99561428D01*
X165231428Y-99475714D01*
X165231428Y-99418571D01*
X165202857Y-99332857D01*
X165145714Y-99275714D01*
X165088571Y-99247142D01*
X164974285Y-99218571D01*
X164888571Y-99218571D01*
X164774285Y-99247142D01*
X164717142Y-99275714D01*
X164660000Y-99332857D01*
X164631428Y-99418571D01*
X164631428Y-99475714D01*
X164660000Y-99561428D01*
X164688571Y-99590000D01*
X164631428Y-99790000D02*
X164631428Y-100161428D01*
X164860000Y-99961428D01*
X164860000Y-100047142D01*
X164888571Y-100104285D01*
X164917142Y-100132857D01*
X164974285Y-100161428D01*
X165117142Y-100161428D01*
X165174285Y-100132857D01*
X165202857Y-100104285D01*
X165231428Y-100047142D01*
X165231428Y-99875714D01*
X165202857Y-99818571D01*
X165174285Y-99790000D01*
D12*
%TO.C,*%
D10*
%TO.C,HOLE1*%
X176060000Y-107360000D02*
G75*
G03*
X176060000Y-107360000I-900000J0D01*
G01*
%TO.C,HOLE2*%
X176100000Y-92230000D02*
G75*
G03*
X176100000Y-92230000I-900000J0D01*
G01*
%TO.C,HOLE4*%
X131120000Y-92000000D02*
G75*
G03*
X131120000Y-92000000I-900000J0D01*
G01*
%TO.C,HOLE3*%
X131090000Y-107540000D02*
G75*
G03*
X131090000Y-107540000I-900000J0D01*
G01*
D13*
%TO.C,J2*%
X164710000Y-109940000D02*
X131630000Y-109940000D01*
X167310000Y-109940000D02*
X167310000Y-108610000D01*
X165980000Y-109940000D02*
X167310000Y-109940000D01*
X164710000Y-107280000D02*
X131630000Y-107280000D01*
X131630000Y-109940000D02*
X131630000Y-107280000D01*
X164710000Y-109940000D02*
X164710000Y-107280000D01*
D14*
%TO.C,U2*%
X162989000Y-97504000D02*
X157711000Y-97504000D01*
X157711000Y-101856000D02*
X162989000Y-101856000D01*
X162989000Y-101856000D02*
X162989000Y-97504000D01*
X157711000Y-97504000D02*
X157711000Y-101856000D01*
D12*
X163172000Y-103210000D02*
G75*
G03*
X163172000Y-103210000I-150000J0D01*
G01*
X162405000Y-101104000D02*
G75*
G03*
X162405000Y-101104000I-150000J0D01*
G01*
D13*
%TO.C,C3*%
X164290000Y-99757836D02*
X164290000Y-99542164D01*
X163570000Y-99757836D02*
X163570000Y-99542164D01*
%TO.C,J1*%
X167340000Y-92230000D02*
X167340000Y-90900000D01*
X164740000Y-92230000D02*
X164740000Y-89570000D01*
X164740000Y-89570000D02*
X131660000Y-89570000D01*
X164740000Y-92230000D02*
X131660000Y-92230000D01*
X166010000Y-92230000D02*
X167340000Y-92230000D01*
X131660000Y-92230000D02*
X131660000Y-89570000D01*
%TO.C,*%
G36*
X153150654Y-99846076D02*
G01*
X153157089Y-99857730D01*
X153161776Y-99880724D01*
X153165447Y-99918813D01*
X153168836Y-99975751D01*
X153171978Y-100021449D01*
X153177483Y-100073645D01*
X153184032Y-100115774D01*
X153190796Y-100141570D01*
X153194679Y-100152012D01*
X153197493Y-100192347D01*
X153178460Y-100227099D01*
X153137515Y-100256411D01*
X153127426Y-100261243D01*
X153098935Y-100271331D01*
X153080518Y-100272672D01*
X153075709Y-100270010D01*
X153066651Y-100252516D01*
X153070364Y-100231103D01*
X153085826Y-100216596D01*
X153099620Y-100210170D01*
X153124541Y-100193359D01*
X153129028Y-100189338D01*
X153137148Y-100177246D01*
X153136060Y-100160121D01*
X153125937Y-100130079D01*
X153122910Y-100120664D01*
X153114631Y-100077572D01*
X153109381Y-100022745D01*
X153107501Y-99964429D01*
X153109331Y-99910872D01*
X153115213Y-99870321D01*
X153125236Y-99848057D01*
X153142750Y-99842178D01*
X153150654Y-99846076D01*
G37*
G36*
X153348643Y-101258633D02*
G01*
X153342991Y-101264285D01*
X153337339Y-101258633D01*
X153342991Y-101252981D01*
X153348643Y-101258633D01*
G37*
G36*
X152296552Y-99316933D02*
G01*
X152381063Y-99324412D01*
X152456421Y-99338453D01*
X152529059Y-99360243D01*
X152605408Y-99390969D01*
X152607279Y-99391801D01*
X152652258Y-99414745D01*
X152676668Y-99433993D01*
X152680046Y-99448985D01*
X152661927Y-99459163D01*
X152653856Y-99461033D01*
X152597916Y-99465462D01*
X152533888Y-99459419D01*
X152471530Y-99443696D01*
X152424293Y-99428269D01*
X152351949Y-99407256D01*
X152274651Y-99387108D01*
X152198988Y-99369432D01*
X152131549Y-99355834D01*
X152078921Y-99347923D01*
X152072023Y-99347175D01*
X152032902Y-99341477D01*
X152014205Y-99335140D01*
X152014002Y-99327560D01*
X152030280Y-99322447D01*
X152067036Y-99318477D01*
X152121978Y-99315888D01*
X152192892Y-99314838D01*
X152196456Y-99314830D01*
X152296552Y-99316933D01*
G37*
G36*
X147093055Y-100711669D02*
G01*
X147200217Y-100753240D01*
X147307657Y-100817212D01*
X147380152Y-100867889D01*
X147380152Y-100732999D01*
X147787094Y-100732999D01*
X147787094Y-101999042D01*
X147380152Y-101999042D01*
X147380152Y-101086509D01*
X147309502Y-101054214D01*
X147309042Y-101054004D01*
X147258715Y-101034318D01*
X147209000Y-101023238D01*
X147148421Y-101018199D01*
X147105449Y-101017637D01*
X147050083Y-101023518D01*
X147008876Y-101039708D01*
X146977244Y-101068374D01*
X146950601Y-101111682D01*
X146922341Y-101168201D01*
X146918557Y-101583622D01*
X146914772Y-101999042D01*
X146508025Y-101999042D01*
X146512711Y-101521450D01*
X146513240Y-101468777D01*
X146514585Y-101352491D01*
X146516169Y-101255585D01*
X146518237Y-101175758D01*
X146521037Y-101110707D01*
X146524815Y-101058130D01*
X146529817Y-101015724D01*
X146536289Y-100981188D01*
X146544478Y-100952219D01*
X146554630Y-100926514D01*
X146566992Y-100901772D01*
X146581809Y-100875691D01*
X146628033Y-100812958D01*
X146690671Y-100760691D01*
X146768581Y-100722964D01*
X146863657Y-100698587D01*
X146880453Y-100695961D01*
X146986394Y-100692556D01*
X147093055Y-100711669D01*
G37*
G36*
X152953004Y-101303849D02*
G01*
X152947352Y-101309501D01*
X152941700Y-101303849D01*
X152947352Y-101298197D01*
X152953004Y-101303849D01*
G37*
G36*
X152919093Y-101303849D02*
G01*
X152913441Y-101309501D01*
X152907789Y-101303849D01*
X152913441Y-101298197D01*
X152919093Y-101303849D01*
G37*
G36*
X152139119Y-101953827D02*
G01*
X152138303Y-101959811D01*
X152131583Y-101961363D01*
X152130230Y-101959706D01*
X152131583Y-101946291D01*
X152134983Y-101944522D01*
X152139119Y-101953827D01*
G37*
G36*
X142322567Y-97411992D02*
G01*
X142346418Y-97438406D01*
X142365272Y-97461818D01*
X142372497Y-97474409D01*
X142372190Y-97475351D01*
X142360854Y-97487844D01*
X142335606Y-97510757D01*
X142299760Y-97541178D01*
X142256631Y-97576194D01*
X142208762Y-97614736D01*
X142159183Y-97655475D01*
X142115733Y-97691972D01*
X142084246Y-97719378D01*
X142054911Y-97744925D01*
X142031568Y-97763556D01*
X142019701Y-97770855D01*
X142017770Y-97770305D01*
X142003121Y-97758957D01*
X141980209Y-97736904D01*
X141953907Y-97709370D01*
X141929086Y-97681579D01*
X141910621Y-97658758D01*
X141903383Y-97646131D01*
X141910550Y-97636725D01*
X141932764Y-97616008D01*
X141966735Y-97587010D01*
X142009105Y-97552423D01*
X142056514Y-97514941D01*
X142105605Y-97477254D01*
X142153019Y-97442056D01*
X142195397Y-97412039D01*
X142272637Y-97359147D01*
X142322567Y-97411992D01*
G37*
G36*
X138945427Y-98173763D02*
G01*
X139011353Y-98225810D01*
X139126177Y-98311201D01*
X139073137Y-98363444D01*
X139045986Y-98389008D01*
X139023044Y-98408307D01*
X139010805Y-98415687D01*
X139005987Y-98413887D01*
X138985337Y-98400699D01*
X138952996Y-98377126D01*
X138912606Y-98346046D01*
X138867809Y-98310340D01*
X138822246Y-98272886D01*
X138779561Y-98236566D01*
X138743394Y-98204257D01*
X138675274Y-98141190D01*
X138582430Y-98231491D01*
X138555293Y-98256988D01*
X138503442Y-98302278D01*
X138451212Y-98344396D01*
X138406588Y-98376744D01*
X138323590Y-98431697D01*
X138383981Y-98452350D01*
X138421167Y-98464396D01*
X138513717Y-98490482D01*
X138621717Y-98516755D01*
X138740355Y-98542213D01*
X138864821Y-98565858D01*
X138990306Y-98586688D01*
X139111997Y-98603705D01*
X139270946Y-98623576D01*
X139225037Y-98699692D01*
X139208640Y-98726047D01*
X139187463Y-98755313D01*
X139171117Y-98769362D01*
X139156520Y-98771419D01*
X139142116Y-98768950D01*
X139108289Y-98763601D01*
X139062223Y-98756569D01*
X139009569Y-98748724D01*
X138833526Y-98719299D01*
X138543380Y-98654627D01*
X138265560Y-98571752D01*
X138131964Y-98526495D01*
X138009772Y-98567086D01*
X137961487Y-98582612D01*
X137755605Y-98638256D01*
X137533422Y-98682046D01*
X137293259Y-98714328D01*
X137243122Y-98719879D01*
X137199870Y-98723740D01*
X137169957Y-98722536D01*
X137148353Y-98714098D01*
X137130026Y-98696254D01*
X137109947Y-98666835D01*
X137083084Y-98623671D01*
X137039701Y-98554709D01*
X137222054Y-98547979D01*
X137294481Y-98544592D01*
X137539118Y-98521773D01*
X137771013Y-98481746D01*
X137777928Y-98480258D01*
X137842066Y-98466360D01*
X137885284Y-98455438D01*
X137908549Y-98445364D01*
X137912830Y-98434013D01*
X137899098Y-98419256D01*
X137868320Y-98398969D01*
X137821466Y-98371023D01*
X137748023Y-98324462D01*
X137670824Y-98270166D01*
X137597826Y-98213814D01*
X137534342Y-98159513D01*
X137485686Y-98111373D01*
X137466580Y-98089143D01*
X137451893Y-98065264D01*
X137676918Y-98065264D01*
X137715874Y-98105771D01*
X137723472Y-98113325D01*
X137766034Y-98149320D01*
X137822880Y-98190594D01*
X137888968Y-98233812D01*
X137959255Y-98275637D01*
X138028699Y-98312734D01*
X138049369Y-98322874D01*
X138089498Y-98341485D01*
X138120361Y-98354359D01*
X138136551Y-98359167D01*
X138154986Y-98353811D01*
X138188601Y-98337380D01*
X138232190Y-98312477D01*
X138281514Y-98281748D01*
X138332337Y-98247843D01*
X138380421Y-98213408D01*
X138421527Y-98181093D01*
X138448220Y-98158953D01*
X138478522Y-98133785D01*
X138500899Y-98113550D01*
X138513881Y-98097715D01*
X138516003Y-98085744D01*
X138505795Y-98077104D01*
X138481790Y-98071259D01*
X138442519Y-98067676D01*
X138386516Y-98065819D01*
X138312313Y-98065154D01*
X138218441Y-98065148D01*
X138103432Y-98065264D01*
X137676918Y-98065264D01*
X137451893Y-98065264D01*
X137451635Y-98064844D01*
X137445290Y-98037522D01*
X137443970Y-97997408D01*
X137443970Y-97929617D01*
X137952648Y-97929617D01*
X137993173Y-97929606D01*
X138111965Y-97929400D01*
X138210246Y-97928862D01*
X138289622Y-97927903D01*
X138351699Y-97926432D01*
X138398085Y-97924361D01*
X138430384Y-97921600D01*
X138450204Y-97918059D01*
X138459150Y-97913650D01*
X138458830Y-97908282D01*
X138450848Y-97901867D01*
X138445633Y-97897457D01*
X138428141Y-97878657D01*
X138405916Y-97851890D01*
X138371463Y-97808388D01*
X138448648Y-97774297D01*
X138525832Y-97740205D01*
X138582979Y-97815129D01*
X138607039Y-97845035D01*
X138661112Y-97905752D01*
X138726419Y-97973232D01*
X138798529Y-98043226D01*
X138844921Y-98085744D01*
X138873008Y-98111486D01*
X138945427Y-98173763D01*
G37*
G36*
X153235603Y-101332109D02*
G01*
X153234788Y-101338093D01*
X153228067Y-101339645D01*
X153226715Y-101337988D01*
X153228067Y-101324573D01*
X153231467Y-101322804D01*
X153235603Y-101332109D01*
G37*
G36*
X139840410Y-98833933D02*
G01*
X140982110Y-98833933D01*
X140982110Y-98969581D01*
X139840410Y-98969581D01*
X139840410Y-99253919D01*
X139908436Y-99321945D01*
X140095378Y-99318149D01*
X140156048Y-99316985D01*
X140207850Y-99316408D01*
X140242847Y-99316964D01*
X140264146Y-99318975D01*
X140274857Y-99322763D01*
X140278089Y-99328651D01*
X140276951Y-99336960D01*
X140275164Y-99345308D01*
X140269630Y-99376102D01*
X140263836Y-99413261D01*
X140256089Y-99466955D01*
X140055192Y-99466955D01*
X140043268Y-99466954D01*
X139974092Y-99466790D01*
X139922884Y-99466004D01*
X139885598Y-99464115D01*
X139858188Y-99460638D01*
X139836608Y-99455091D01*
X139816814Y-99446990D01*
X139794758Y-99435853D01*
X139763507Y-99417950D01*
X139735317Y-99395731D01*
X139714893Y-99368754D01*
X139700889Y-99333454D01*
X139691963Y-99286267D01*
X139686770Y-99223626D01*
X139683966Y-99141966D01*
X139680125Y-98969581D01*
X139320428Y-98969581D01*
X139320428Y-98833933D01*
X139682154Y-98833933D01*
X139682154Y-98698286D01*
X139840410Y-98698286D01*
X139840410Y-98833933D01*
G37*
G36*
X153808812Y-99650560D02*
G01*
X153887733Y-99652667D01*
X153975198Y-99656125D01*
X154040888Y-99660311D01*
X154085275Y-99665258D01*
X154108834Y-99670997D01*
X154127671Y-99683529D01*
X154139563Y-99709239D01*
X154130803Y-99741505D01*
X154101487Y-99778945D01*
X154080688Y-99798739D01*
X154058591Y-99814016D01*
X154042227Y-99813997D01*
X154026606Y-99800091D01*
X154020758Y-99791178D01*
X154021744Y-99776135D01*
X154038496Y-99754875D01*
X154064733Y-99726946D01*
X154026025Y-99726822D01*
X153986669Y-99724739D01*
X153946071Y-99719877D01*
X153938363Y-99718654D01*
X153914331Y-99717755D01*
X153899654Y-99727843D01*
X153885437Y-99753913D01*
X153881122Y-99762930D01*
X153869798Y-99785726D01*
X153864511Y-99794940D01*
X153862574Y-99795539D01*
X153845789Y-99801382D01*
X153817757Y-99811400D01*
X153815268Y-99812297D01*
X153783252Y-99823282D01*
X153762380Y-99826886D01*
X153743037Y-99823191D01*
X153715604Y-99812280D01*
X153715321Y-99812161D01*
X153680642Y-99789005D01*
X153652679Y-99755760D01*
X153640524Y-99737285D01*
X153620542Y-99720119D01*
X153594116Y-99715642D01*
X153566237Y-99720862D01*
X153533392Y-99739909D01*
X153522501Y-99749457D01*
X153505631Y-99757251D01*
X153490274Y-99749829D01*
X153485363Y-99745450D01*
X153474385Y-99726634D01*
X153481093Y-99705090D01*
X153506431Y-99676527D01*
X153539875Y-99644485D01*
X153808812Y-99650560D01*
G37*
G36*
X152715621Y-101151245D02*
G01*
X152714805Y-101157230D01*
X152708085Y-101158781D01*
X152706732Y-101157125D01*
X152708085Y-101143709D01*
X152711485Y-101141941D01*
X152715621Y-101151245D01*
G37*
G36*
X153228250Y-100730178D02*
G01*
X153244081Y-100731382D01*
X153251508Y-100736577D01*
X153258211Y-100755874D01*
X153256164Y-100767295D01*
X153244081Y-100782183D01*
X153240438Y-100782989D01*
X153217090Y-100784733D01*
X153177280Y-100785870D01*
X153125450Y-100786307D01*
X153066044Y-100785951D01*
X153037121Y-100785569D01*
X152981551Y-100784535D01*
X152943641Y-100782896D01*
X152919892Y-100780088D01*
X152906803Y-100775548D01*
X152900873Y-100768714D01*
X152898602Y-100759022D01*
X152897924Y-100753125D01*
X152899246Y-100745190D01*
X152906589Y-100739700D01*
X152923271Y-100736084D01*
X152952607Y-100733770D01*
X152997914Y-100732187D01*
X153062509Y-100730762D01*
X153088999Y-100730275D01*
X153146324Y-100729610D01*
X153194203Y-100729583D01*
X153228250Y-100730178D01*
G37*
G36*
X142881175Y-101999042D02*
G01*
X142474233Y-101999042D01*
X142474233Y-101558188D01*
X142881175Y-101558188D01*
X142881175Y-101999042D01*
G37*
G36*
X148578372Y-101999042D02*
G01*
X148171429Y-101999042D01*
X148171429Y-100732999D01*
X148578372Y-100732999D01*
X148578372Y-101999042D01*
G37*
G36*
X142779440Y-97861793D02*
G01*
X143740276Y-97861793D01*
X143740276Y-98020048D01*
X143303864Y-98020048D01*
X143289611Y-98020049D01*
X143181291Y-98020113D01*
X143093287Y-98020350D01*
X143023551Y-98020855D01*
X142970032Y-98021723D01*
X142930683Y-98023048D01*
X142903453Y-98024924D01*
X142886294Y-98027446D01*
X142877157Y-98030708D01*
X142873992Y-98034804D01*
X142874751Y-98039830D01*
X142878700Y-98049214D01*
X142897028Y-98084393D01*
X142925242Y-98132610D01*
X142960910Y-98190076D01*
X143001602Y-98253005D01*
X143044886Y-98317608D01*
X143088330Y-98380099D01*
X143129503Y-98436688D01*
X143165698Y-98483295D01*
X143237219Y-98568800D01*
X143318572Y-98659679D01*
X143405191Y-98751158D01*
X143492506Y-98838465D01*
X143575948Y-98916828D01*
X143650951Y-98981473D01*
X143689293Y-99012612D01*
X143730155Y-99045861D01*
X143763026Y-99072678D01*
X143783120Y-99089162D01*
X143811525Y-99112659D01*
X143752261Y-99188072D01*
X143741680Y-99201411D01*
X143715611Y-99233136D01*
X143696123Y-99255207D01*
X143686809Y-99263484D01*
X143675266Y-99258419D01*
X143648785Y-99239078D01*
X143611178Y-99207460D01*
X143564863Y-99165904D01*
X143512258Y-99116745D01*
X143455781Y-99062320D01*
X143397850Y-99004967D01*
X143340884Y-98947022D01*
X143287300Y-98890822D01*
X143239516Y-98838702D01*
X143199951Y-98793001D01*
X143128409Y-98702607D01*
X143024077Y-98555937D01*
X142926183Y-98400969D01*
X142840267Y-98246127D01*
X142785092Y-98138740D01*
X142782178Y-98825455D01*
X142779265Y-99512171D01*
X142610055Y-99512171D01*
X142607142Y-98825455D01*
X142604228Y-98138740D01*
X142528495Y-98282991D01*
X142456776Y-98412266D01*
X142325500Y-98617335D01*
X142181804Y-98805724D01*
X142027039Y-98975568D01*
X141994064Y-99007603D01*
X141947315Y-99050739D01*
X141897766Y-99094482D01*
X141848643Y-99136165D01*
X141803170Y-99173119D01*
X141764571Y-99202674D01*
X141736071Y-99222164D01*
X141720895Y-99228918D01*
X141717143Y-99226763D01*
X141700904Y-99210994D01*
X141676290Y-99183318D01*
X141646977Y-99147769D01*
X141582739Y-99067273D01*
X141646977Y-99027708D01*
X141767960Y-98946450D01*
X141925903Y-98819189D01*
X142075907Y-98673612D01*
X142215696Y-98511981D01*
X142342990Y-98336559D01*
X142345417Y-98332888D01*
X142378602Y-98281311D01*
X142412620Y-98226244D01*
X142445306Y-98171448D01*
X142474497Y-98120680D01*
X142498027Y-98077699D01*
X142513732Y-98046264D01*
X142519449Y-98030133D01*
X142519333Y-98029888D01*
X142506217Y-98027575D01*
X142472879Y-98025481D01*
X142421481Y-98023657D01*
X142354190Y-98022153D01*
X142273168Y-98021017D01*
X142180582Y-98020299D01*
X142078594Y-98020048D01*
X141637740Y-98020048D01*
X141637740Y-97861793D01*
X142609880Y-97861793D01*
X142609880Y-97319203D01*
X142779440Y-97319203D01*
X142779440Y-97861793D01*
G37*
G36*
X149394613Y-100911036D02*
G01*
X149397909Y-101507320D01*
X149427992Y-101571494D01*
X149456268Y-101619397D01*
X149502927Y-101665792D01*
X149563017Y-101696548D01*
X149638137Y-101712423D01*
X149729889Y-101714171D01*
X149770503Y-101710859D01*
X149849034Y-101694233D01*
X149910785Y-101663708D01*
X149957514Y-101617789D01*
X149990981Y-101554985D01*
X150012946Y-101473800D01*
X150015970Y-101446312D01*
X150018724Y-101396408D01*
X150021026Y-101326004D01*
X150022854Y-101236176D01*
X150024186Y-101128001D01*
X150025002Y-101002556D01*
X150025279Y-100860918D01*
X150025279Y-100314752D01*
X150454829Y-100314752D01*
X150454435Y-100882776D01*
X150454284Y-100986329D01*
X150453810Y-101110543D01*
X150452985Y-101215349D01*
X150451763Y-101302598D01*
X150450098Y-101374144D01*
X150447945Y-101431837D01*
X150445256Y-101477529D01*
X150441986Y-101513072D01*
X150438089Y-101540319D01*
X150437917Y-101541280D01*
X150407642Y-101651873D01*
X150359271Y-101749257D01*
X150293404Y-101832924D01*
X150210644Y-101902368D01*
X150111593Y-101957086D01*
X149996852Y-101996569D01*
X149867023Y-102020314D01*
X149855474Y-102021594D01*
X149688957Y-102029938D01*
X149532746Y-102018203D01*
X149386890Y-101986392D01*
X149334872Y-101969514D01*
X149261187Y-101938105D01*
X149197388Y-101898943D01*
X149135520Y-101847638D01*
X149100963Y-101813127D01*
X149050956Y-101748326D01*
X149013580Y-101674634D01*
X148985067Y-101585482D01*
X148981955Y-101572926D01*
X148977468Y-101552264D01*
X148973735Y-101529883D01*
X148970686Y-101503693D01*
X148968254Y-101471605D01*
X148966370Y-101431531D01*
X148964964Y-101381382D01*
X148963968Y-101319069D01*
X148963313Y-101242503D01*
X148962930Y-101149596D01*
X148962751Y-101038259D01*
X148962706Y-100906402D01*
X148962706Y-100314752D01*
X149391318Y-100314752D01*
X149394613Y-100911036D01*
G37*
G36*
X153001188Y-101232100D02*
G01*
X153003872Y-101241677D01*
X153001555Y-101245097D01*
X152992568Y-101252981D01*
X152990933Y-101252449D01*
X152981264Y-101241677D01*
X152980359Y-101235690D01*
X152992568Y-101230373D01*
X153001188Y-101232100D01*
G37*
G36*
X148589676Y-100540832D02*
G01*
X148160125Y-100540832D01*
X148160125Y-100235625D01*
X148589676Y-100235625D01*
X148589676Y-100540832D01*
G37*
G36*
X138365714Y-100698008D02*
G01*
X138374227Y-100699690D01*
X138439481Y-100719083D01*
X138511858Y-100749645D01*
X138583244Y-100787575D01*
X138645526Y-100829073D01*
X138698710Y-100869682D01*
X138698710Y-100732999D01*
X139105652Y-100732999D01*
X139105652Y-101999042D01*
X138698710Y-101999042D01*
X138698710Y-101086768D01*
X138621506Y-101051183D01*
X138585288Y-101036299D01*
X138510933Y-101017151D01*
X138442130Y-101014428D01*
X138381794Y-101027688D01*
X138332844Y-101056486D01*
X138298195Y-101100378D01*
X138297730Y-101101279D01*
X138291788Y-101113903D01*
X138286936Y-101127896D01*
X138283042Y-101145618D01*
X138279969Y-101169430D01*
X138277584Y-101201690D01*
X138275751Y-101244759D01*
X138274336Y-101300997D01*
X138273205Y-101372763D01*
X138272221Y-101462416D01*
X138271251Y-101572318D01*
X138267691Y-101999042D01*
X137862217Y-101999042D01*
X137862217Y-101085084D01*
X137797219Y-101053195D01*
X137753924Y-101034807D01*
X137706010Y-101023023D01*
X137647441Y-101017878D01*
X137640541Y-101017633D01*
X137574412Y-101020257D01*
X137524908Y-101033828D01*
X137488316Y-101059987D01*
X137460926Y-101100378D01*
X137455541Y-101112087D01*
X137450680Y-101126264D01*
X137446761Y-101144177D01*
X137443652Y-101168184D01*
X137441221Y-101200645D01*
X137439338Y-101243918D01*
X137437871Y-101300363D01*
X137436689Y-101372339D01*
X137435660Y-101462204D01*
X137434653Y-101572318D01*
X137430988Y-101999042D01*
X137023336Y-101999042D01*
X137028789Y-101521450D01*
X137029203Y-101485607D01*
X137030700Y-101367875D01*
X137032343Y-101269767D01*
X137034363Y-101188939D01*
X137036991Y-101123046D01*
X137040460Y-101069744D01*
X137045001Y-101026689D01*
X137050846Y-100991537D01*
X137058227Y-100961944D01*
X137067375Y-100935566D01*
X137078522Y-100910058D01*
X137091900Y-100883077D01*
X137121336Y-100836326D01*
X137179273Y-100777246D01*
X137250965Y-100732412D01*
X137333115Y-100703267D01*
X137422425Y-100691253D01*
X137515596Y-100697812D01*
X137547135Y-100705003D01*
X137616616Y-100729162D01*
X137692666Y-100764361D01*
X137768941Y-100807509D01*
X137839099Y-100855515D01*
X137912064Y-100910985D01*
X137942045Y-100863710D01*
X137962713Y-100834848D01*
X138023435Y-100775994D01*
X138097853Y-100731413D01*
X138182211Y-100702575D01*
X138272751Y-100690950D01*
X138365714Y-100698008D01*
G37*
G36*
X153955813Y-99310471D02*
G01*
X154009486Y-99312269D01*
X154059461Y-99315507D01*
X154101009Y-99319884D01*
X154129405Y-99325097D01*
X154139920Y-99330844D01*
X154137409Y-99333117D01*
X154117980Y-99339127D01*
X154083513Y-99345980D01*
X154039031Y-99352593D01*
X154031061Y-99353694D01*
X153978624Y-99363235D01*
X153913673Y-99377815D01*
X153843703Y-99395654D01*
X153776213Y-99414972D01*
X153708588Y-99434717D01*
X153633277Y-99453414D01*
X153573211Y-99463498D01*
X153525351Y-99465440D01*
X153486654Y-99459710D01*
X153467970Y-99450868D01*
X153467699Y-99437711D01*
X153488193Y-99419979D01*
X153529962Y-99396936D01*
X153575779Y-99376823D01*
X153664496Y-99347365D01*
X153760447Y-99325125D01*
X153854169Y-99312566D01*
X153856275Y-99312407D01*
X153903167Y-99310416D01*
X153955813Y-99310471D01*
G37*
G36*
X152749533Y-101236025D02*
G01*
X152743881Y-101241677D01*
X152738229Y-101236025D01*
X152743881Y-101230373D01*
X152749533Y-101236025D01*
G37*
G36*
X153378787Y-101166317D02*
G01*
X153380555Y-101169717D01*
X153371251Y-101173853D01*
X153365267Y-101173038D01*
X153363715Y-101166317D01*
X153365372Y-101164965D01*
X153378787Y-101166317D01*
G37*
G36*
X152870109Y-101234141D02*
G01*
X152871877Y-101237541D01*
X152862573Y-101241677D01*
X152856588Y-101240861D01*
X152855037Y-101234141D01*
X152856694Y-101232788D01*
X152870109Y-101234141D01*
G37*
G36*
X138710014Y-99500867D02*
G01*
X138710014Y-99398920D01*
X138147642Y-99401852D01*
X137585270Y-99404783D01*
X137578318Y-99500867D01*
X137421362Y-99500867D01*
X137421362Y-99263484D01*
X137579013Y-99263484D01*
X138710014Y-99263484D01*
X138710014Y-98924154D01*
X138147642Y-98927086D01*
X137585270Y-98930017D01*
X137582141Y-99096751D01*
X137579013Y-99263484D01*
X137421362Y-99263484D01*
X137421362Y-98788718D01*
X138868269Y-98788718D01*
X138868269Y-99500867D01*
X138710014Y-99500867D01*
G37*
G36*
X140654295Y-98743502D02*
G01*
X140654295Y-98562638D01*
X140247352Y-98562638D01*
X140247352Y-98709590D01*
X140090176Y-98709590D01*
X140086810Y-98638940D01*
X140083445Y-98568290D01*
X139877148Y-98565209D01*
X139670850Y-98562128D01*
X139670850Y-98698286D01*
X139512595Y-98698286D01*
X139512595Y-98438295D01*
X139670850Y-98438295D01*
X140654295Y-98438295D01*
X140654295Y-98280039D01*
X140247352Y-98280039D01*
X140247352Y-98438295D01*
X140090130Y-98438295D01*
X140086787Y-98361993D01*
X140083445Y-98285691D01*
X139877148Y-98282610D01*
X139670850Y-98279529D01*
X139670850Y-98438295D01*
X139512595Y-98438295D01*
X139512595Y-98155696D01*
X139670850Y-98155696D01*
X140654295Y-98155696D01*
X140654295Y-97997440D01*
X140247352Y-97997440D01*
X140247352Y-98155696D01*
X140089097Y-98155696D01*
X140089097Y-97997440D01*
X139670850Y-97997440D01*
X139670850Y-98155696D01*
X139512595Y-98155696D01*
X139512595Y-97861793D01*
X140089097Y-97861793D01*
X140089097Y-97714841D01*
X139376947Y-97714841D01*
X139376947Y-97579194D01*
X140089097Y-97579194D01*
X140089097Y-97319203D01*
X140247352Y-97319203D01*
X140247352Y-97579194D01*
X140925590Y-97579194D01*
X140925590Y-97714841D01*
X140247352Y-97714841D01*
X140247352Y-97861793D01*
X140812550Y-97861793D01*
X140812550Y-98743502D01*
X140654295Y-98743502D01*
G37*
G36*
X153995946Y-101871594D02*
G01*
X153994879Y-101890031D01*
X153992025Y-101899948D01*
X153987780Y-101906781D01*
X153983803Y-101892840D01*
X153983363Y-101890776D01*
X153977805Y-101878583D01*
X153968355Y-101887188D01*
X153967669Y-101888168D01*
X153960035Y-101897214D01*
X153961635Y-101886991D01*
X153965516Y-101879485D01*
X153983731Y-101868410D01*
X153995946Y-101871594D01*
G37*
G36*
X141298621Y-97940921D02*
G01*
X141524700Y-97940921D01*
X141524700Y-98099176D01*
X141298621Y-98099176D01*
X141298621Y-99500867D01*
X141140365Y-99500867D01*
X141140365Y-98099176D01*
X140925590Y-98099176D01*
X140925590Y-97940921D01*
X141140365Y-97940921D01*
X141140365Y-97319203D01*
X141298621Y-97319203D01*
X141298621Y-97940921D01*
G37*
G36*
X138224896Y-97321827D02*
G01*
X138259029Y-97341979D01*
X138289629Y-97362007D01*
X138303657Y-97378520D01*
X138302408Y-97396684D01*
X138287183Y-97421663D01*
X138259278Y-97458622D01*
X138245763Y-97476071D01*
X138224422Y-97502648D01*
X138207677Y-97524285D01*
X138197165Y-97541483D01*
X138194522Y-97554743D01*
X138201385Y-97564566D01*
X138219392Y-97571454D01*
X138250178Y-97575907D01*
X138295381Y-97578426D01*
X138356638Y-97579514D01*
X138435585Y-97579670D01*
X138533858Y-97579396D01*
X138653096Y-97579194D01*
X139128260Y-97579194D01*
X139128260Y-97997440D01*
X138970005Y-97997440D01*
X138970005Y-97726145D01*
X137308323Y-97726145D01*
X137308323Y-97997440D01*
X137150067Y-97997440D01*
X137150067Y-97579194D01*
X138093544Y-97579194D01*
X138048530Y-97549191D01*
X138033853Y-97539373D01*
X138010328Y-97523451D01*
X137999094Y-97515567D01*
X138002562Y-97506609D01*
X138017551Y-97484021D01*
X138041209Y-97451934D01*
X138070475Y-97414370D01*
X138102285Y-97375354D01*
X138133576Y-97338910D01*
X138174982Y-97292251D01*
X138224896Y-97321827D01*
G37*
G36*
X145752381Y-97771361D02*
G01*
X146046284Y-97771361D01*
X146046284Y-97918313D01*
X145752381Y-97918313D01*
X145752381Y-98401295D01*
X145896507Y-98442993D01*
X145906822Y-98445979D01*
X145960663Y-98461627D01*
X146006506Y-98475048D01*
X146039778Y-98484899D01*
X146055901Y-98489835D01*
X146060357Y-98492517D01*
X146065739Y-98505508D01*
X146066539Y-98532188D01*
X146063112Y-98576851D01*
X146062634Y-98581640D01*
X146058049Y-98621455D01*
X146053617Y-98650887D01*
X146050237Y-98663864D01*
X146047089Y-98663833D01*
X146026953Y-98659178D01*
X145992336Y-98649528D01*
X145947937Y-98636325D01*
X145898456Y-98621011D01*
X145848592Y-98605027D01*
X145803044Y-98589815D01*
X145766511Y-98576817D01*
X145765651Y-98576647D01*
X145761640Y-98581482D01*
X145758471Y-98597363D01*
X145756060Y-98626216D01*
X145754328Y-98669967D01*
X145753192Y-98730544D01*
X145752570Y-98809874D01*
X145752381Y-98909881D01*
X145752381Y-99248239D01*
X145779972Y-99274159D01*
X145781623Y-99275699D01*
X145795619Y-99286904D01*
X145811522Y-99293710D01*
X145834499Y-99296891D01*
X145869714Y-99297220D01*
X145922333Y-99295469D01*
X146037104Y-99290859D01*
X146029279Y-99363921D01*
X146024921Y-99400043D01*
X146019845Y-99433439D01*
X146015704Y-99451969D01*
X146014920Y-99453467D01*
X146003872Y-99459839D01*
X145979029Y-99464002D01*
X145937464Y-99466269D01*
X145876251Y-99466955D01*
X145860691Y-99466917D01*
X145793668Y-99465301D01*
X145743809Y-99460594D01*
X145706632Y-99451820D01*
X145677656Y-99438001D01*
X145652398Y-99418160D01*
X145639982Y-99406430D01*
X145626170Y-99391755D01*
X145615042Y-99375870D01*
X145606267Y-99356398D01*
X145599513Y-99330962D01*
X145594446Y-99297184D01*
X145590736Y-99252686D01*
X145588051Y-99195092D01*
X145586058Y-99122025D01*
X145584426Y-99031106D01*
X145582822Y-98919958D01*
X145577170Y-98514261D01*
X145455652Y-98475918D01*
X145334135Y-98437575D01*
X145334135Y-98270567D01*
X145426588Y-98298959D01*
X145439829Y-98303045D01*
X145485067Y-98317284D01*
X145522823Y-98329569D01*
X145546016Y-98337608D01*
X145564789Y-98344291D01*
X145577906Y-98347863D01*
X145578009Y-98347816D01*
X145579530Y-98335750D01*
X145580851Y-98304772D01*
X145581893Y-98258354D01*
X145582576Y-98199969D01*
X145582822Y-98133088D01*
X145582822Y-97918313D01*
X145322831Y-97918313D01*
X145322831Y-97771361D01*
X145582822Y-97771361D01*
X145582822Y-97330507D01*
X145752381Y-97330507D01*
X145752381Y-97771361D01*
G37*
G36*
X153992969Y-101840787D02*
G01*
X153992153Y-101846771D01*
X153985433Y-101848323D01*
X153984080Y-101846666D01*
X153985433Y-101833251D01*
X153988833Y-101831483D01*
X153992969Y-101840787D01*
G37*
G36*
X152828661Y-101269937D02*
G01*
X152823009Y-101275589D01*
X152817357Y-101269937D01*
X152823009Y-101264285D01*
X152828661Y-101269937D01*
G37*
G36*
X152652344Y-99673946D02*
G01*
X152673856Y-99700336D01*
X152680437Y-99726465D01*
X152666351Y-99748228D01*
X152662615Y-99750934D01*
X152645880Y-99752798D01*
X152622179Y-99738308D01*
X152605603Y-99727051D01*
X152567554Y-99715080D01*
X152534158Y-99724047D01*
X152508162Y-99753585D01*
X152506859Y-99755915D01*
X152482071Y-99786861D01*
X152451897Y-99809762D01*
X152430748Y-99818078D01*
X152382327Y-99822729D01*
X152335251Y-99811036D01*
X152295862Y-99785182D01*
X152270506Y-99747349D01*
X152257811Y-99713635D01*
X152184335Y-99721405D01*
X152147894Y-99725768D01*
X152119004Y-99730257D01*
X152106219Y-99733644D01*
X152107774Y-99741629D01*
X152120349Y-99758853D01*
X152132628Y-99774890D01*
X152137494Y-99796530D01*
X152121344Y-99810476D01*
X152100762Y-99812119D01*
X152069806Y-99796568D01*
X152038170Y-99761962D01*
X152032581Y-99753816D01*
X152017110Y-99721269D01*
X152020572Y-99696387D01*
X152043214Y-99674922D01*
X152054358Y-99669332D01*
X152072249Y-99664389D01*
X152098792Y-99660463D01*
X152136780Y-99657330D01*
X152189003Y-99654764D01*
X152258251Y-99652540D01*
X152347316Y-99650435D01*
X152622979Y-99644580D01*
X152652344Y-99673946D01*
G37*
G36*
X145080077Y-98395200D02*
G01*
X145058355Y-98460088D01*
X145030135Y-98534641D01*
X144998615Y-98611016D01*
X144966994Y-98681367D01*
X144938471Y-98737850D01*
X144914965Y-98778249D01*
X144868764Y-98850574D01*
X144814708Y-98928726D01*
X144757276Y-99006074D01*
X144733496Y-99036915D01*
X144827518Y-99097999D01*
X144861799Y-99119578D01*
X144960007Y-99175908D01*
X145068544Y-99231754D01*
X145179075Y-99282956D01*
X145283267Y-99325358D01*
X145320174Y-99339217D01*
X145360343Y-99354587D01*
X145388346Y-99365652D01*
X145399663Y-99370652D01*
X145399586Y-99371850D01*
X145391497Y-99386056D01*
X145373567Y-99412461D01*
X145348795Y-99446589D01*
X145294571Y-99519361D01*
X145206537Y-99482100D01*
X145138803Y-99452125D01*
X145002927Y-99385285D01*
X144868000Y-99310883D01*
X144744685Y-99234632D01*
X144732030Y-99226289D01*
X144686502Y-99196540D01*
X144649011Y-99172457D01*
X144623150Y-99156329D01*
X144612513Y-99150444D01*
X144610900Y-99151095D01*
X144595490Y-99160904D01*
X144567972Y-99180043D01*
X144532936Y-99205347D01*
X144509167Y-99222543D01*
X144373685Y-99311835D01*
X144227015Y-99393802D01*
X144063455Y-99471678D01*
X144003269Y-99498295D01*
X143935535Y-99417130D01*
X143867801Y-99335964D01*
X143976424Y-99298870D01*
X143994711Y-99292480D01*
X144057798Y-99268864D01*
X144122166Y-99242866D01*
X144176384Y-99219047D01*
X144207389Y-99203795D01*
X144257987Y-99176727D01*
X144311447Y-99146163D01*
X144363189Y-99114894D01*
X144408632Y-99085714D01*
X144443195Y-99061412D01*
X144462297Y-99044783D01*
X144464487Y-99035643D01*
X144456633Y-99017201D01*
X144435708Y-98988280D01*
X144400085Y-98946302D01*
X144382133Y-98925530D01*
X144314576Y-98840137D01*
X144250467Y-98748256D01*
X144191519Y-98653172D01*
X144139446Y-98558171D01*
X144095962Y-98466538D01*
X144062781Y-98381559D01*
X144046900Y-98325255D01*
X144224823Y-98325255D01*
X144232341Y-98350689D01*
X144235763Y-98361577D01*
X144256623Y-98416013D01*
X144285935Y-98480989D01*
X144320409Y-98549854D01*
X144356752Y-98615957D01*
X144391673Y-98672646D01*
X144404632Y-98691579D01*
X144445955Y-98747464D01*
X144490917Y-98803343D01*
X144531853Y-98849544D01*
X144606218Y-98927528D01*
X144663057Y-98855297D01*
X144665957Y-98851604D01*
X144751253Y-98734376D01*
X144819975Y-98620089D01*
X144875758Y-98501983D01*
X144922237Y-98373297D01*
X144937415Y-98325255D01*
X144224823Y-98325255D01*
X144046900Y-98325255D01*
X144041615Y-98306520D01*
X144034179Y-98244707D01*
X144034179Y-98178304D01*
X144508946Y-98178304D01*
X144508946Y-97839185D01*
X143909836Y-97839185D01*
X143909836Y-97680929D01*
X144508946Y-97680929D01*
X144508946Y-97319203D01*
X144678505Y-97319203D01*
X144678505Y-97680929D01*
X145255007Y-97680929D01*
X145255007Y-97839185D01*
X144678505Y-97839185D01*
X144678505Y-98178304D01*
X145255007Y-98178304D01*
X145255007Y-98325255D01*
X145099690Y-98325255D01*
X145084805Y-98378949D01*
X145080077Y-98395200D01*
G37*
G36*
X153382555Y-101236025D02*
G01*
X153376903Y-101241677D01*
X153371251Y-101236025D01*
X153376903Y-101230373D01*
X153382555Y-101236025D01*
G37*
G36*
X139850606Y-97333408D02*
G01*
X139867450Y-97350755D01*
X139886811Y-97378548D01*
X139916001Y-97426590D01*
X139790599Y-97489999D01*
X139787728Y-97491450D01*
X139738927Y-97515700D01*
X139697158Y-97535737D01*
X139666778Y-97549518D01*
X139652143Y-97554997D01*
X139645948Y-97552825D01*
X139630338Y-97536789D01*
X139612724Y-97510985D01*
X139597097Y-97482303D01*
X139587445Y-97457629D01*
X139587761Y-97443852D01*
X139599947Y-97436453D01*
X139628592Y-97422121D01*
X139667984Y-97403694D01*
X139712928Y-97383469D01*
X139758227Y-97363742D01*
X139798685Y-97346808D01*
X139829105Y-97334965D01*
X139844292Y-97330507D01*
X139850606Y-97333408D01*
G37*
G36*
X140778197Y-101506858D02*
G01*
X140748794Y-101625558D01*
X140701639Y-101731258D01*
X140637474Y-101823077D01*
X140557044Y-101900132D01*
X140461091Y-101961543D01*
X140350361Y-102006428D01*
X140225597Y-102033906D01*
X140224094Y-102034114D01*
X140164141Y-102038538D01*
X140090828Y-102038416D01*
X140012587Y-102034196D01*
X139937851Y-102026327D01*
X139875052Y-102015257D01*
X139786079Y-101987845D01*
X139684635Y-101936647D01*
X139596873Y-101868058D01*
X139523874Y-101783150D01*
X139466713Y-101682998D01*
X139426471Y-101568675D01*
X139419804Y-101537159D01*
X139411319Y-101466282D01*
X139407975Y-101390320D01*
X139824293Y-101390320D01*
X139825347Y-101455828D01*
X139828583Y-101505240D01*
X139834449Y-101543488D01*
X139843393Y-101575502D01*
X139848680Y-101589579D01*
X139883098Y-101653329D01*
X139928674Y-101705353D01*
X139980910Y-101740263D01*
X140002054Y-101748659D01*
X140070228Y-101762144D01*
X140140031Y-101758455D01*
X140206247Y-101738914D01*
X140263661Y-101704845D01*
X140307058Y-101657569D01*
X140320602Y-101635544D01*
X140339624Y-101597083D01*
X140352679Y-101555834D01*
X140360765Y-101506862D01*
X140364879Y-101445236D01*
X140366019Y-101366021D01*
X140365669Y-101326130D01*
X140361752Y-101246099D01*
X140352599Y-101182336D01*
X140337105Y-101130601D01*
X140314164Y-101086650D01*
X140282671Y-101046243D01*
X140257747Y-101021182D01*
X140213821Y-100991029D01*
X140162867Y-100975126D01*
X140097938Y-100970630D01*
X140054594Y-100973032D01*
X139986534Y-100989653D01*
X139931261Y-101023379D01*
X139886651Y-101075734D01*
X139850582Y-101148243D01*
X139849060Y-101152172D01*
X139838697Y-101182669D01*
X139831704Y-101213815D01*
X139827421Y-101251098D01*
X139825186Y-101300005D01*
X139824338Y-101366021D01*
X139824293Y-101390320D01*
X139407975Y-101390320D01*
X139407765Y-101385550D01*
X139409140Y-101302877D01*
X139415439Y-101226178D01*
X139426660Y-101163366D01*
X139456353Y-101072743D01*
X139509723Y-100969244D01*
X139579542Y-100881001D01*
X139665111Y-100808705D01*
X139765732Y-100753047D01*
X139880704Y-100714718D01*
X139915370Y-100707836D01*
X139990881Y-100699173D01*
X140075803Y-100695486D01*
X140162271Y-100696782D01*
X140242421Y-100703068D01*
X140308389Y-100714350D01*
X140360793Y-100729211D01*
X140470234Y-100775557D01*
X140564760Y-100838362D01*
X140643673Y-100916677D01*
X140706269Y-101009550D01*
X140751849Y-101116032D01*
X140779711Y-101235172D01*
X140789154Y-101366021D01*
X140789102Y-101376039D01*
X140778197Y-101506858D01*
G37*
G36*
X153269515Y-101236025D02*
G01*
X153263863Y-101241677D01*
X153258211Y-101236025D01*
X153263863Y-101230373D01*
X153269515Y-101236025D01*
G37*
G36*
X152173031Y-101869047D02*
G01*
X152167379Y-101874699D01*
X152161727Y-101869047D01*
X152167379Y-101863395D01*
X152173031Y-101869047D01*
G37*
G36*
X152909908Y-101233955D02*
G01*
X152915140Y-101238024D01*
X152903079Y-101240785D01*
X152891613Y-101239985D01*
X152888242Y-101234848D01*
X152892241Y-101232608D01*
X152909908Y-101233955D01*
G37*
G36*
X152833417Y-101231261D02*
G01*
X152834313Y-101241677D01*
X152831993Y-101245060D01*
X152822342Y-101252981D01*
X152821214Y-101252687D01*
X152817357Y-101241677D01*
X152817817Y-101238579D01*
X152829328Y-101230373D01*
X152833417Y-101231261D01*
G37*
G36*
X153484291Y-101168201D02*
G01*
X153478639Y-101173853D01*
X153472987Y-101168201D01*
X153478639Y-101162549D01*
X153484291Y-101168201D01*
G37*
G36*
X154038185Y-101959479D02*
G01*
X154032533Y-101965131D01*
X154026881Y-101959479D01*
X154032533Y-101953827D01*
X154038185Y-101959479D01*
G37*
G36*
X152184335Y-101818179D02*
G01*
X152183519Y-101824163D01*
X152176799Y-101825715D01*
X152175446Y-101824058D01*
X152176799Y-101810643D01*
X152180199Y-101808875D01*
X152184335Y-101818179D01*
G37*
G36*
X140626453Y-99007743D02*
G01*
X140646667Y-99024977D01*
X140671923Y-99050941D01*
X140714789Y-99098389D01*
X140682923Y-99121591D01*
X140664230Y-99135357D01*
X140630591Y-99160340D01*
X140588337Y-99191854D01*
X140542463Y-99226177D01*
X140542082Y-99226462D01*
X140499560Y-99258008D01*
X140463836Y-99283916D01*
X140438650Y-99301514D01*
X140427743Y-99308130D01*
X140418659Y-99302115D01*
X140398143Y-99283749D01*
X140371224Y-99257258D01*
X140320828Y-99205816D01*
X140349088Y-99183986D01*
X140370179Y-99168158D01*
X140408292Y-99140779D01*
X140452257Y-99110155D01*
X140498023Y-99079005D01*
X140541540Y-99050045D01*
X140578758Y-99025995D01*
X140605625Y-99009571D01*
X140618090Y-99003493D01*
X140626453Y-99007743D01*
G37*
G36*
X152955124Y-101233955D02*
G01*
X152960356Y-101238024D01*
X152948294Y-101240785D01*
X152936829Y-101239985D01*
X152933458Y-101234848D01*
X152937457Y-101232608D01*
X152955124Y-101233955D01*
G37*
G36*
X152715621Y-101179505D02*
G01*
X152709969Y-101185157D01*
X152704317Y-101179505D01*
X152709969Y-101173853D01*
X152715621Y-101179505D01*
G37*
G36*
X152806053Y-101236025D02*
G01*
X152800401Y-101241677D01*
X152794749Y-101236025D01*
X152800401Y-101230373D01*
X152806053Y-101236025D01*
G37*
G36*
X146181932Y-100619959D02*
G01*
X145910637Y-100619959D01*
X145910637Y-101693836D01*
X146181932Y-101693836D01*
X146181932Y-101999042D01*
X145209791Y-101999042D01*
X145209791Y-101693836D01*
X145481086Y-101693836D01*
X145481086Y-100619959D01*
X145209791Y-100619959D01*
X145209791Y-100314752D01*
X146181932Y-100314752D01*
X146181932Y-100619959D01*
G37*
G36*
X144936232Y-101214965D02*
G01*
X144930182Y-101306403D01*
X144919726Y-101389088D01*
X144905084Y-101456268D01*
X144902031Y-101466506D01*
X144852857Y-101590881D01*
X144785923Y-101702250D01*
X144702738Y-101799342D01*
X144604810Y-101880884D01*
X144493647Y-101945603D01*
X144370758Y-101992226D01*
X144237651Y-102019481D01*
X144159333Y-102027718D01*
X144088114Y-102030896D01*
X144017933Y-102028470D01*
X143938096Y-102020475D01*
X143869872Y-102009988D01*
X143735058Y-101974714D01*
X143614460Y-101922106D01*
X143508540Y-101852565D01*
X143417757Y-101766493D01*
X143342573Y-101664291D01*
X143283447Y-101546360D01*
X143240840Y-101413100D01*
X143237020Y-101396292D01*
X143222856Y-101303455D01*
X143216224Y-101199098D01*
X143216300Y-101189904D01*
X143661939Y-101189904D01*
X143664542Y-101264426D01*
X143671719Y-101327666D01*
X143673474Y-101337349D01*
X143700730Y-101434213D01*
X143742758Y-101521050D01*
X143797437Y-101594939D01*
X143862646Y-101652956D01*
X143936265Y-101692180D01*
X143989581Y-101707456D01*
X144075050Y-101716014D01*
X144161082Y-101707753D01*
X144241710Y-101683444D01*
X144310967Y-101643856D01*
X144344132Y-101615152D01*
X144401991Y-101543575D01*
X144446546Y-101455710D01*
X144477191Y-101353308D01*
X144493324Y-101238122D01*
X144494341Y-101111903D01*
X144492648Y-101084795D01*
X144476101Y-100961639D01*
X144446013Y-100856206D01*
X144402493Y-100768638D01*
X144345656Y-100699081D01*
X144275611Y-100647678D01*
X144192472Y-100614575D01*
X144096351Y-100599913D01*
X144067596Y-100598750D01*
X144020798Y-100599826D01*
X143981290Y-100606603D01*
X143939013Y-100620390D01*
X143937563Y-100620940D01*
X143858972Y-100662231D01*
X143792510Y-100721751D01*
X143737662Y-100800083D01*
X143693914Y-100897810D01*
X143690616Y-100907865D01*
X143678249Y-100963082D01*
X143669126Y-101032789D01*
X143663578Y-101110544D01*
X143661939Y-101189904D01*
X143216300Y-101189904D01*
X143217115Y-101091350D01*
X143225521Y-100988343D01*
X143241431Y-100898208D01*
X143246838Y-100876971D01*
X143291780Y-100747838D01*
X143353589Y-100632797D01*
X143431432Y-100532769D01*
X143524478Y-100448677D01*
X143631893Y-100381441D01*
X143752845Y-100331985D01*
X143824129Y-100312617D01*
X143954001Y-100291313D01*
X144087700Y-100285340D01*
X144220807Y-100294296D01*
X144348902Y-100317778D01*
X144467567Y-100355382D01*
X144572382Y-100406707D01*
X144584465Y-100414164D01*
X144680570Y-100488035D01*
X144763741Y-100579125D01*
X144832620Y-100685381D01*
X144885847Y-100804748D01*
X144922063Y-100935172D01*
X144925746Y-100955653D01*
X144934234Y-101032838D01*
X144937285Y-101111903D01*
X144937656Y-101121525D01*
X144936232Y-101214965D01*
G37*
G36*
X152490589Y-100433449D02*
G01*
X152512837Y-100439703D01*
X152521711Y-100461704D01*
X152526422Y-100482070D01*
X152536036Y-100502661D01*
X152544261Y-100509170D01*
X152576282Y-100521173D01*
X152626713Y-100531681D01*
X152692780Y-100540580D01*
X152771707Y-100547756D01*
X152860718Y-100553096D01*
X152957040Y-100556485D01*
X153057897Y-100557810D01*
X153160514Y-100556958D01*
X153262116Y-100553813D01*
X153359928Y-100548263D01*
X153451175Y-100540193D01*
X153510002Y-100532884D01*
X153560843Y-100523306D01*
X153594864Y-100511586D01*
X153615191Y-100496589D01*
X153624951Y-100477182D01*
X153625020Y-100476907D01*
X153636040Y-100455855D01*
X153657076Y-100452492D01*
X153667350Y-100454944D01*
X153679104Y-100467042D01*
X153682110Y-100494396D01*
X153681835Y-100502497D01*
X153675896Y-100527583D01*
X153660543Y-100547998D01*
X153633577Y-100564528D01*
X153592798Y-100577958D01*
X153536008Y-100589074D01*
X153461008Y-100598663D01*
X153365599Y-100607509D01*
X153334154Y-100609857D01*
X153226542Y-100615069D01*
X153109721Y-100617103D01*
X152988973Y-100616110D01*
X152869583Y-100612241D01*
X152756835Y-100605646D01*
X152656013Y-100596477D01*
X152572400Y-100584883D01*
X152522478Y-100572139D01*
X152482800Y-100549527D01*
X152461787Y-100517180D01*
X152457906Y-100473610D01*
X152461044Y-100451230D01*
X152470117Y-100436801D01*
X152489542Y-100433444D01*
X152490589Y-100433449D01*
G37*
G36*
X150319182Y-99003493D02*
G01*
X150319182Y-98845237D01*
X149689536Y-98845237D01*
X149682712Y-99023275D01*
X149681300Y-99055234D01*
X149677444Y-99118274D01*
X149672677Y-99174030D01*
X149667473Y-99217395D01*
X149662305Y-99243264D01*
X149641299Y-99290257D01*
X149596543Y-99344594D01*
X149534787Y-99384883D01*
X149457060Y-99410288D01*
X149448761Y-99411455D01*
X149416154Y-99413665D01*
X149365615Y-99415497D01*
X149300311Y-99416891D01*
X149223410Y-99417790D01*
X149138079Y-99418134D01*
X149047486Y-99417866D01*
X149017806Y-99417671D01*
X148915738Y-99416815D01*
X148832989Y-99415470D01*
X148766944Y-99413191D01*
X148714986Y-99409534D01*
X148674499Y-99404055D01*
X148642867Y-99396308D01*
X148617475Y-99385850D01*
X148595706Y-99372235D01*
X148574944Y-99355019D01*
X148552573Y-99333758D01*
X148529117Y-99306376D01*
X148505417Y-99265123D01*
X148484864Y-99211073D01*
X148466252Y-99140958D01*
X148448375Y-99051508D01*
X148445178Y-99033694D01*
X148436791Y-98987659D01*
X148429830Y-98950379D01*
X148425548Y-98928607D01*
X148424932Y-98925164D01*
X148426613Y-98912963D01*
X148438079Y-98902171D01*
X148463276Y-98890120D01*
X148506152Y-98874145D01*
X148518394Y-98869848D01*
X148556470Y-98857173D01*
X148583846Y-98849128D01*
X148595262Y-98847295D01*
X148597875Y-98858109D01*
X148602950Y-98887045D01*
X148609665Y-98929491D01*
X148617268Y-98980885D01*
X148629689Y-99054633D01*
X148646857Y-99123124D01*
X148667777Y-99173852D01*
X148693561Y-99209408D01*
X148725323Y-99232381D01*
X148725456Y-99232447D01*
X148739364Y-99238282D01*
X148756746Y-99242852D01*
X148780335Y-99246305D01*
X148812864Y-99248788D01*
X148857067Y-99250451D01*
X148915677Y-99251441D01*
X148991427Y-99251906D01*
X149087050Y-99251996D01*
X149146757Y-99251937D01*
X149235491Y-99251513D01*
X149305572Y-99250315D01*
X149359522Y-99247912D01*
X149399862Y-99243877D01*
X149429113Y-99237780D01*
X149449798Y-99229193D01*
X149464438Y-99217686D01*
X149475554Y-99202831D01*
X149485668Y-99184199D01*
X149493479Y-99165649D01*
X149499251Y-99141239D01*
X149502416Y-99108242D01*
X149503399Y-99061995D01*
X149502624Y-98997841D01*
X149499644Y-98850889D01*
X149089876Y-98847922D01*
X148680107Y-98844955D01*
X148680107Y-98686982D01*
X148860971Y-98686982D01*
X150319182Y-98686982D01*
X150319182Y-98313951D01*
X149686160Y-98313951D01*
X149686160Y-98686982D01*
X149505296Y-98686982D01*
X149505296Y-98313951D01*
X148860971Y-98313951D01*
X148860971Y-98686982D01*
X148680107Y-98686982D01*
X148680107Y-98155696D01*
X148860971Y-98155696D01*
X150319182Y-98155696D01*
X150319182Y-97771361D01*
X149686160Y-97771361D01*
X149686160Y-98155696D01*
X149505843Y-98155696D01*
X149502744Y-97966354D01*
X149499644Y-97777013D01*
X149180307Y-97774011D01*
X148860971Y-97771009D01*
X148860971Y-98155696D01*
X148680107Y-98155696D01*
X148680107Y-97613106D01*
X149505296Y-97613106D01*
X149505296Y-97330507D01*
X149686160Y-97330507D01*
X149686160Y-97613106D01*
X150500045Y-97613106D01*
X150500045Y-99003493D01*
X150319182Y-99003493D01*
G37*
G36*
X152892717Y-101301965D02*
G01*
X152894485Y-101305365D01*
X152885181Y-101309501D01*
X152879196Y-101308685D01*
X152877645Y-101301965D01*
X152879301Y-101300612D01*
X152892717Y-101301965D01*
G37*
G36*
X153908858Y-101247923D02*
G01*
X153952982Y-101338114D01*
X153998817Y-101443136D01*
X154045336Y-101560654D01*
X154091515Y-101688331D01*
X154136329Y-101823831D01*
X154143837Y-101847590D01*
X154161170Y-101902362D01*
X154175747Y-101948315D01*
X154186219Y-101981202D01*
X154191239Y-101996776D01*
X154188499Y-102005213D01*
X154170447Y-102008762D01*
X154133572Y-102008080D01*
X154070983Y-102004694D01*
X154043395Y-101925567D01*
X154042142Y-101921981D01*
X154027660Y-101881222D01*
X154015467Y-101848098D01*
X154008089Y-101829483D01*
X154002974Y-101814452D01*
X153997248Y-101785786D01*
X153994009Y-101767847D01*
X153988210Y-101753132D01*
X153983949Y-101752454D01*
X153975640Y-101764502D01*
X153968350Y-101786992D01*
X153964280Y-101812198D01*
X153965632Y-101832392D01*
X153968016Y-101847382D01*
X153958958Y-101846378D01*
X153954528Y-101845238D01*
X153949617Y-101854092D01*
X153948059Y-101879371D01*
X153949489Y-101924090D01*
X153953844Y-102010346D01*
X152195639Y-102010346D01*
X152195639Y-101987071D01*
X152197402Y-101973992D01*
X152204117Y-101969030D01*
X152208902Y-101969029D01*
X152214135Y-101954652D01*
X152215409Y-101926497D01*
X152212947Y-101889943D01*
X152206970Y-101850369D01*
X152197698Y-101813155D01*
X152176588Y-101746497D01*
X152163982Y-101782657D01*
X152163523Y-101784002D01*
X152157099Y-101814291D01*
X152158473Y-101837308D01*
X152160724Y-101847047D01*
X152154360Y-101848872D01*
X152152907Y-101848595D01*
X152143266Y-101859381D01*
X152130144Y-101886657D01*
X152115701Y-101926111D01*
X152088251Y-102010276D01*
X152045100Y-102010311D01*
X152021234Y-102009278D01*
X152007690Y-102003588D01*
X152007662Y-101990565D01*
X152008510Y-101987571D01*
X152014873Y-101964488D01*
X152025509Y-101925487D01*
X152039164Y-101875180D01*
X152054581Y-101818179D01*
X152095009Y-101674466D01*
X152136986Y-101539416D01*
X152177822Y-101423703D01*
X152218141Y-101325691D01*
X152258570Y-101243744D01*
X152299731Y-101176228D01*
X152327794Y-101143137D01*
X152357168Y-101117924D01*
X152652279Y-101117924D01*
X152652726Y-101132332D01*
X152653239Y-101135767D01*
X152661691Y-101164019D01*
X152675956Y-101196386D01*
X152678043Y-101200390D01*
X152690671Y-101221981D01*
X152698198Y-101225543D01*
X152704430Y-101213342D01*
X152709356Y-101202168D01*
X152714364Y-101204287D01*
X152720364Y-101226603D01*
X152720596Y-101227619D01*
X152730979Y-101254107D01*
X152744572Y-101268638D01*
X152751424Y-101270165D01*
X152759586Y-101263781D01*
X152762466Y-101242304D01*
X152760956Y-101202113D01*
X152760850Y-101200413D01*
X152761493Y-101179744D01*
X152765706Y-101175092D01*
X152768176Y-101180504D01*
X152772462Y-101203737D01*
X152775263Y-101237263D01*
X152776419Y-101257355D01*
X152780533Y-101281196D01*
X152790216Y-101292034D01*
X152809071Y-101296140D01*
X152829121Y-101301635D01*
X152833945Y-101310096D01*
X152835020Y-101317912D01*
X152850036Y-101332814D01*
X152874808Y-101348504D01*
X152902587Y-101360915D01*
X152926628Y-101365978D01*
X152942093Y-101368556D01*
X152955399Y-101378857D01*
X152958374Y-101380578D01*
X152965683Y-101369143D01*
X152974455Y-101346404D01*
X152982593Y-101318885D01*
X152988003Y-101293106D01*
X152988304Y-101284067D01*
X153066445Y-101284067D01*
X153073238Y-101293384D01*
X153094304Y-101298197D01*
X153104325Y-101297847D01*
X153119008Y-101292383D01*
X153120542Y-101276469D01*
X153110408Y-101245239D01*
X153098252Y-101213417D01*
X153179084Y-101213417D01*
X153180691Y-101221268D01*
X153193214Y-101230546D01*
X153199899Y-101232437D01*
X153190910Y-101241115D01*
X153188367Y-101242828D01*
X153180300Y-101255843D01*
X153186982Y-101276469D01*
X153187374Y-101277680D01*
X153196408Y-101298116D01*
X153207063Y-101328239D01*
X153210908Y-101338832D01*
X153229631Y-101357261D01*
X153261037Y-101357454D01*
X153270455Y-101352771D01*
X153276924Y-101339515D01*
X153280023Y-101313215D01*
X153280819Y-101269108D01*
X153280789Y-101255136D01*
X153279838Y-101217461D01*
X153277482Y-101202113D01*
X153292123Y-101202113D01*
X153295635Y-101220750D01*
X153306253Y-101230546D01*
X153314078Y-101232232D01*
X153305520Y-101240145D01*
X153305241Y-101240326D01*
X153295437Y-101259513D01*
X153295114Y-101269108D01*
X153294216Y-101295779D01*
X153294465Y-101298939D01*
X153298066Y-101325918D01*
X153304782Y-101335075D01*
X153317557Y-101330835D01*
X153329251Y-101319758D01*
X153338650Y-101294809D01*
X153338843Y-101291516D01*
X153340990Y-101279586D01*
X153345059Y-101289342D01*
X153346311Y-101293614D01*
X153354484Y-101302706D01*
X153372007Y-101295101D01*
X153384351Y-101283266D01*
X153391804Y-101260573D01*
X153393859Y-101222002D01*
X153393899Y-101219069D01*
X153407097Y-101219069D01*
X153408118Y-101234295D01*
X153414022Y-101258857D01*
X153424332Y-101261656D01*
X153438677Y-101242420D01*
X153441651Y-101236497D01*
X153450453Y-101205176D01*
X153445579Y-101182554D01*
X153427852Y-101173853D01*
X153414405Y-101176574D01*
X153407690Y-101189640D01*
X153407097Y-101219069D01*
X153393899Y-101219069D01*
X153394224Y-101194914D01*
X153397257Y-101173168D01*
X153405660Y-101164262D01*
X153422119Y-101162549D01*
X153461683Y-101162549D01*
X153461899Y-101182880D01*
X153462897Y-101205176D01*
X153463063Y-101208894D01*
X153464897Y-101219069D01*
X153465291Y-101218921D01*
X153473593Y-101208361D01*
X153487505Y-101186239D01*
X153496191Y-101169854D01*
X153506358Y-101136832D01*
X153502343Y-101114339D01*
X153484291Y-101106030D01*
X153479061Y-101106271D01*
X153467925Y-101111741D01*
X153467039Y-101114706D01*
X153462873Y-101128649D01*
X153462278Y-101145593D01*
X153461683Y-101162549D01*
X153422119Y-101162549D01*
X153440552Y-101159231D01*
X153450379Y-101145593D01*
X153449007Y-101136823D01*
X153435558Y-101129249D01*
X153407835Y-101139116D01*
X153396160Y-101144806D01*
X153367202Y-101156187D01*
X153359604Y-101159484D01*
X153350364Y-101173571D01*
X153350802Y-101202228D01*
X153350982Y-101203836D01*
X153350671Y-101231563D01*
X153342679Y-101241677D01*
X153334914Y-101232986D01*
X153334928Y-101207765D01*
X153336531Y-101192556D01*
X153332422Y-101177439D01*
X153316014Y-101173853D01*
X153315453Y-101173856D01*
X153297222Y-101180162D01*
X153292123Y-101202113D01*
X153277482Y-101202113D01*
X153276602Y-101196377D01*
X153269816Y-101187178D01*
X153258211Y-101185157D01*
X153243920Y-101188681D01*
X153235603Y-101207098D01*
X153233949Y-101220038D01*
X153225354Y-101235374D01*
X153220276Y-101234383D01*
X153221020Y-101219085D01*
X153221044Y-101218994D01*
X153220591Y-101201242D01*
X153203010Y-101196461D01*
X153188629Y-101199641D01*
X153179084Y-101213417D01*
X153098252Y-101213417D01*
X153097290Y-101215149D01*
X153082549Y-101241677D01*
X153071915Y-101264296D01*
X153066445Y-101284067D01*
X152988304Y-101284067D01*
X152988587Y-101275589D01*
X152987843Y-101267968D01*
X152993207Y-101266940D01*
X152993305Y-101267034D01*
X153003735Y-101264095D01*
X153016889Y-101245866D01*
X153021862Y-101236141D01*
X153030612Y-101215149D01*
X153026796Y-101208188D01*
X153009524Y-101211041D01*
X152995951Y-101212783D01*
X152986916Y-101207990D01*
X152984948Y-101205188D01*
X152967486Y-101197947D01*
X152937831Y-101191667D01*
X152928138Y-101190197D01*
X152889410Y-101184067D01*
X152858703Y-101178859D01*
X152854082Y-101178093D01*
X152833842Y-101179338D01*
X152827534Y-101193414D01*
X152827461Y-101194551D01*
X152824531Y-101200840D01*
X152818546Y-101185157D01*
X152809593Y-101167170D01*
X152788587Y-101156897D01*
X152775479Y-101155432D01*
X152759823Y-101147859D01*
X152755199Y-101144285D01*
X152733393Y-101134244D01*
X152701568Y-101123294D01*
X152677899Y-101116380D01*
X152668808Y-101114735D01*
X152867510Y-101114735D01*
X152868551Y-101115239D01*
X152884909Y-101119470D01*
X152916576Y-101126301D01*
X152957995Y-101134517D01*
X152961210Y-101135126D01*
X153010745Y-101143137D01*
X153057759Y-101148594D01*
X153092472Y-101150347D01*
X153119460Y-101148202D01*
X153164266Y-101141980D01*
X153214322Y-101133283D01*
X153260562Y-101123708D01*
X153293917Y-101114852D01*
X153294124Y-101114706D01*
X153283412Y-101113747D01*
X153253800Y-101112917D01*
X153208525Y-101112263D01*
X153150826Y-101111835D01*
X153083942Y-101111682D01*
X153074965Y-101111684D01*
X153008485Y-101111870D01*
X152951128Y-101112315D01*
X152906266Y-101112973D01*
X152877270Y-101113795D01*
X152867510Y-101114735D01*
X152668808Y-101114735D01*
X152658877Y-101112938D01*
X152652279Y-101117924D01*
X152357168Y-101117924D01*
X152377151Y-101100771D01*
X152434293Y-101063612D01*
X152491239Y-101037447D01*
X152532500Y-101023176D01*
X152446023Y-100978959D01*
X152402138Y-100956160D01*
X152316045Y-100908304D01*
X152243567Y-100862304D01*
X152179341Y-100814301D01*
X152118005Y-100760433D01*
X152054198Y-100696839D01*
X152015292Y-100655520D01*
X151970826Y-100604951D01*
X151935384Y-100558903D01*
X151904324Y-100511201D01*
X151873008Y-100455670D01*
X151848182Y-100409709D01*
X151828119Y-100374737D01*
X151813042Y-100353347D01*
X151799980Y-100342189D01*
X151785968Y-100337911D01*
X151768036Y-100337164D01*
X151739530Y-100335154D01*
X151695698Y-100329169D01*
X151649412Y-100320629D01*
X151594170Y-100305643D01*
X151507572Y-100265316D01*
X151433531Y-100206470D01*
X151370789Y-100128237D01*
X151327074Y-100051312D01*
X151296955Y-99968735D01*
X151285549Y-99885010D01*
X151287072Y-99862594D01*
X151388060Y-99862594D01*
X151388350Y-99899138D01*
X151390387Y-99940863D01*
X151395607Y-99971871D01*
X151405431Y-99999337D01*
X151421280Y-100030439D01*
X151441070Y-100062301D01*
X151494400Y-100124990D01*
X151558163Y-100176983D01*
X151625760Y-100212409D01*
X151651424Y-100220841D01*
X151696331Y-100231470D01*
X151733362Y-100235625D01*
X151733648Y-100235625D01*
X151762278Y-100234185D01*
X151773459Y-100228075D01*
X151772231Y-100214563D01*
X151763230Y-100180837D01*
X151750650Y-100116014D01*
X151738791Y-100034632D01*
X151728150Y-99940246D01*
X151719226Y-99836408D01*
X151714037Y-99765880D01*
X151813484Y-99765880D01*
X151815495Y-99802759D01*
X151819456Y-99851134D01*
X151824898Y-99906439D01*
X151831352Y-99964108D01*
X151838349Y-100019573D01*
X151845420Y-100068269D01*
X151852097Y-100105629D01*
X151883216Y-100228075D01*
X151884153Y-100231760D01*
X151929078Y-100352177D01*
X151987146Y-100460571D01*
X152060902Y-100561631D01*
X152152890Y-100660048D01*
X152230899Y-100728859D01*
X152361921Y-100821097D01*
X152505975Y-100897942D01*
X152659537Y-100957605D01*
X152819081Y-100998297D01*
X152838260Y-101001553D01*
X152887662Y-101007985D01*
X152946117Y-101013786D01*
X153008374Y-101018625D01*
X153069181Y-101022170D01*
X153123286Y-101024091D01*
X153165439Y-101024054D01*
X153190388Y-101021730D01*
X153195823Y-101020620D01*
X153221843Y-101016315D01*
X153261476Y-101010385D01*
X153308553Y-101003768D01*
X153404532Y-100985615D01*
X153530804Y-100948931D01*
X153657816Y-100899308D01*
X153778449Y-100839598D01*
X153885581Y-100772654D01*
X153894335Y-100766296D01*
X153955413Y-100715803D01*
X154021050Y-100652809D01*
X154085474Y-100583472D01*
X154142914Y-100513950D01*
X154187599Y-100450400D01*
X154197822Y-100433465D01*
X154254707Y-100316303D01*
X154281019Y-100235625D01*
X154392255Y-100235625D01*
X154438473Y-100235616D01*
X154457884Y-100234111D01*
X154510554Y-100220353D01*
X154568266Y-100195077D01*
X154623772Y-100161782D01*
X154669827Y-100123965D01*
X154681934Y-100111537D01*
X154721924Y-100062460D01*
X154748209Y-100011624D01*
X154763544Y-99952300D01*
X154770686Y-99877760D01*
X154771825Y-99850554D01*
X154772176Y-99806535D01*
X154768879Y-99773812D01*
X154760848Y-99744790D01*
X154746998Y-99711873D01*
X154724478Y-99670793D01*
X154693711Y-99626637D01*
X154660019Y-99586569D01*
X154627886Y-99555896D01*
X154601793Y-99539926D01*
X154588245Y-99539334D01*
X154563701Y-99550988D01*
X154529612Y-99579059D01*
X154506221Y-99599511D01*
X154491733Y-99610563D01*
X154481906Y-99618060D01*
X154467988Y-99625211D01*
X154467439Y-99625287D01*
X154461658Y-99637622D01*
X154457821Y-99668366D01*
X154456431Y-99713679D01*
X154455915Y-99737380D01*
X154455180Y-99771147D01*
X154449348Y-99865749D01*
X154439609Y-99965264D01*
X154426908Y-100060524D01*
X154412192Y-100142367D01*
X154392255Y-100235625D01*
X154281019Y-100235625D01*
X154298993Y-100180515D01*
X154330638Y-100026257D01*
X154349600Y-99853681D01*
X154357670Y-99737380D01*
X154329386Y-99750267D01*
X154326165Y-99751802D01*
X154309889Y-99764332D01*
X154304888Y-99775796D01*
X154300577Y-99785679D01*
X154294952Y-99822735D01*
X154293657Y-99833522D01*
X154275589Y-99903316D01*
X154243282Y-99961339D01*
X154199043Y-100003248D01*
X154175928Y-100016334D01*
X154137800Y-100031094D01*
X154089938Y-100042442D01*
X154029781Y-100050706D01*
X153954768Y-100056208D01*
X153862339Y-100059275D01*
X153749934Y-100060231D01*
X153691200Y-100060189D01*
X153622998Y-100059816D01*
X153571490Y-100058804D01*
X153533180Y-100056849D01*
X153504572Y-100053649D01*
X153482170Y-100048901D01*
X153462476Y-100042300D01*
X153441995Y-100033546D01*
X153420334Y-100022375D01*
X153378015Y-99994250D01*
X153344451Y-99964457D01*
X153327406Y-99942276D01*
X153302405Y-99899900D01*
X153280196Y-99852399D01*
X153264293Y-99807567D01*
X153258211Y-99773198D01*
X153257556Y-99767326D01*
X153249379Y-99757166D01*
X153228066Y-99750251D01*
X153188886Y-99744631D01*
X153182277Y-99743960D01*
X153134072Y-99741601D01*
X153076399Y-99741797D01*
X153020326Y-99744551D01*
X152921091Y-99752314D01*
X152920905Y-99753315D01*
X152913463Y-99793324D01*
X152895827Y-99858225D01*
X152857368Y-99931728D01*
X152801547Y-99990822D01*
X152728089Y-100035868D01*
X152720132Y-100039454D01*
X152701643Y-100046540D01*
X152681080Y-100051783D01*
X152655020Y-100055458D01*
X152620041Y-100057839D01*
X152572721Y-100059199D01*
X152509638Y-100059813D01*
X152427370Y-100059955D01*
X152379349Y-100059825D01*
X152277593Y-100058322D01*
X152194587Y-100054823D01*
X152127629Y-100048941D01*
X152074021Y-100040288D01*
X152031063Y-100028478D01*
X151996054Y-100013122D01*
X151966295Y-99993836D01*
X151964208Y-99992221D01*
X151919433Y-99943289D01*
X151890527Y-99881198D01*
X151879743Y-99810715D01*
X151877905Y-99784255D01*
X151869207Y-99763966D01*
X151849407Y-99750946D01*
X151827371Y-99742916D01*
X151814799Y-99742292D01*
X151813891Y-99745063D01*
X151813484Y-99765880D01*
X151714037Y-99765880D01*
X151711666Y-99733655D01*
X151915524Y-99733655D01*
X151915748Y-99795943D01*
X151917469Y-99814830D01*
X151931537Y-99879993D01*
X151958651Y-99929910D01*
X152000895Y-99966559D01*
X152060357Y-99991920D01*
X152139119Y-100007972D01*
X152160386Y-100010616D01*
X152230433Y-100017119D01*
X152310127Y-100022035D01*
X152393045Y-100025168D01*
X152472766Y-100026322D01*
X152542868Y-100025301D01*
X152596930Y-100021911D01*
X152637440Y-100016085D01*
X152717483Y-99992419D01*
X152780638Y-99954043D01*
X152827404Y-99900596D01*
X152858273Y-99831719D01*
X152863452Y-99813530D01*
X152874225Y-99753315D01*
X152871621Y-99730184D01*
X153304131Y-99730184D01*
X153306347Y-99785644D01*
X153326151Y-99854656D01*
X153345148Y-99895891D01*
X153383682Y-99946043D01*
X153436042Y-99982762D01*
X153504517Y-100007488D01*
X153591395Y-100021662D01*
X153623574Y-100024575D01*
X153691444Y-100028843D01*
X153756959Y-100029659D01*
X153828348Y-100027004D01*
X153913841Y-100020856D01*
X154010733Y-100011137D01*
X154088453Y-99998613D01*
X154148058Y-99981762D01*
X154191793Y-99958960D01*
X154221904Y-99928586D01*
X154240636Y-99889015D01*
X154250233Y-99838626D01*
X154252942Y-99775796D01*
X154252064Y-99731605D01*
X154247100Y-99692518D01*
X154235505Y-99667170D01*
X154214776Y-99650677D01*
X154182413Y-99638158D01*
X154144007Y-99628710D01*
X154075264Y-99618241D01*
X153992133Y-99610651D01*
X153899214Y-99605942D01*
X153801110Y-99604113D01*
X153702422Y-99605163D01*
X153607751Y-99609094D01*
X153521699Y-99615904D01*
X153448868Y-99625595D01*
X153393859Y-99638165D01*
X153353776Y-99655708D01*
X153319831Y-99687222D01*
X153304131Y-99730184D01*
X152871621Y-99730184D01*
X152869069Y-99707512D01*
X152846476Y-99673485D01*
X152804937Y-99648600D01*
X152742945Y-99630223D01*
X152740334Y-99629656D01*
X152674312Y-99619067D01*
X152592864Y-99611525D01*
X152500725Y-99606974D01*
X152402632Y-99605357D01*
X152303320Y-99606617D01*
X152207524Y-99610697D01*
X152119980Y-99617541D01*
X152045423Y-99627090D01*
X151988590Y-99639289D01*
X151985138Y-99640334D01*
X151948833Y-99658832D01*
X151926090Y-99688945D01*
X151915524Y-99733655D01*
X151711666Y-99733655D01*
X151705241Y-99646314D01*
X151670667Y-99631861D01*
X151641885Y-99616190D01*
X151638969Y-99613765D01*
X151811304Y-99613765D01*
X151811710Y-99640897D01*
X151815018Y-99669276D01*
X151823642Y-99686619D01*
X151839917Y-99699957D01*
X151840431Y-99700293D01*
X151861135Y-99712002D01*
X151871338Y-99714348D01*
X151872407Y-99712391D01*
X151880581Y-99695414D01*
X151893167Y-99668111D01*
X151898209Y-99657892D01*
X151919845Y-99628863D01*
X151951258Y-99607930D01*
X151996709Y-99592888D01*
X152060458Y-99581531D01*
X152124578Y-99573820D01*
X152232936Y-99565218D01*
X152343728Y-99561263D01*
X152453413Y-99561766D01*
X152558446Y-99566536D01*
X152655287Y-99575384D01*
X152740392Y-99588118D01*
X152810219Y-99604550D01*
X152861225Y-99624489D01*
X152861557Y-99624669D01*
X152884059Y-99645002D01*
X152902045Y-99674162D01*
X152916995Y-99709990D01*
X153258217Y-99703206D01*
X153275287Y-99670195D01*
X153282820Y-99657674D01*
X153305303Y-99634121D01*
X153338196Y-99614903D01*
X153383936Y-99599297D01*
X153444961Y-99586576D01*
X153523709Y-99576016D01*
X153622615Y-99566892D01*
X153628523Y-99566440D01*
X153709112Y-99562430D01*
X153797512Y-99561386D01*
X153888664Y-99563075D01*
X153977506Y-99567264D01*
X154058977Y-99573720D01*
X154128016Y-99582211D01*
X154179563Y-99592505D01*
X154193194Y-99596852D01*
X154237696Y-99620422D01*
X154272746Y-99652873D01*
X154291825Y-99688621D01*
X154291862Y-99688771D01*
X154301463Y-99710977D01*
X154315683Y-99712441D01*
X154337349Y-99693466D01*
X154337792Y-99692972D01*
X154345260Y-99682288D01*
X154350351Y-99667450D01*
X154353342Y-99644770D01*
X154354511Y-99610563D01*
X154354138Y-99561142D01*
X154352500Y-99492821D01*
X154351600Y-99461210D01*
X154349457Y-99401250D01*
X154346703Y-99357405D01*
X154342644Y-99325124D01*
X154336581Y-99299859D01*
X154327819Y-99277061D01*
X154315662Y-99252180D01*
X154278292Y-99184193D01*
X154212247Y-99086363D01*
X154140722Y-99008290D01*
X154061697Y-98948255D01*
X153973152Y-98904538D01*
X153873069Y-98875421D01*
X153872551Y-98875313D01*
X153831178Y-98867243D01*
X153806239Y-98864656D01*
X153792280Y-98867591D01*
X153783846Y-98876089D01*
X153765636Y-98902014D01*
X153741991Y-98926616D01*
X153714664Y-98940115D01*
X153675469Y-98947939D01*
X153671350Y-98948501D01*
X153614803Y-98953515D01*
X153542053Y-98956371D01*
X153458872Y-98957144D01*
X153371032Y-98955910D01*
X153284305Y-98952744D01*
X153204461Y-98947720D01*
X153137273Y-98940916D01*
X153038807Y-98925246D01*
X152903168Y-98896063D01*
X152763886Y-98858599D01*
X152627520Y-98814827D01*
X152500635Y-98766719D01*
X152389791Y-98716248D01*
X152370985Y-98706761D01*
X152342077Y-98693057D01*
X152326871Y-98688740D01*
X152320972Y-98693137D01*
X152319983Y-98705578D01*
X152314178Y-98730299D01*
X152298373Y-98768423D01*
X152275477Y-98814259D01*
X152248405Y-98862339D01*
X152220068Y-98907192D01*
X152193379Y-98943347D01*
X152191695Y-98945357D01*
X152156812Y-98982370D01*
X152112904Y-99023121D01*
X152069059Y-99059146D01*
X152059324Y-99066628D01*
X152000072Y-99119227D01*
X151951510Y-99177529D01*
X151911068Y-99245760D01*
X151876179Y-99328145D01*
X151844273Y-99428909D01*
X151841656Y-99438396D01*
X151825707Y-99505154D01*
X151815133Y-99566170D01*
X151811304Y-99613765D01*
X151638969Y-99613765D01*
X151619960Y-99597956D01*
X151600438Y-99580297D01*
X151572110Y-99562102D01*
X151553777Y-99553898D01*
X151538861Y-99554033D01*
X151521617Y-99565478D01*
X151495371Y-99590721D01*
X151478519Y-99609222D01*
X151445747Y-99652282D01*
X151419145Y-99695474D01*
X151410549Y-99712507D01*
X151398636Y-99741503D01*
X151391815Y-99771354D01*
X151388739Y-99809304D01*
X151388060Y-99862594D01*
X151287072Y-99862594D01*
X151291657Y-99795086D01*
X151303426Y-99743678D01*
X151326623Y-99678837D01*
X151356761Y-99615726D01*
X151390486Y-99561232D01*
X151424448Y-99522243D01*
X151432827Y-99514779D01*
X151451926Y-99494657D01*
X151456945Y-99478787D01*
X151450986Y-99459880D01*
X151442110Y-99429365D01*
X151438274Y-99393372D01*
X151436918Y-99376103D01*
X151429175Y-99336444D01*
X151416856Y-99294994D01*
X151413425Y-99285232D01*
X151384476Y-99186869D01*
X151358955Y-99071809D01*
X151337521Y-98945221D01*
X151320837Y-98812275D01*
X151309563Y-98678142D01*
X151304359Y-98547990D01*
X151305888Y-98426991D01*
X151306927Y-98406501D01*
X151320098Y-98270193D01*
X151343297Y-98137904D01*
X151375392Y-98014110D01*
X151415253Y-97903290D01*
X151461749Y-97809919D01*
X151476025Y-97787582D01*
X151524351Y-97724809D01*
X151584822Y-97658904D01*
X151651838Y-97595318D01*
X151719801Y-97539505D01*
X151783113Y-97496918D01*
X151821923Y-97473033D01*
X151868689Y-97437846D01*
X151895520Y-97407351D01*
X151903432Y-97394530D01*
X151957353Y-97326393D01*
X152028923Y-97259210D01*
X152114078Y-97195758D01*
X152208755Y-97138813D01*
X152308888Y-97091153D01*
X152410414Y-97055555D01*
X152476831Y-97039846D01*
X152574837Y-97023890D01*
X152686012Y-97011877D01*
X152805304Y-97004024D01*
X152927658Y-97000552D01*
X153048021Y-97001680D01*
X153161339Y-97007626D01*
X153262558Y-97018610D01*
X153332406Y-97029809D01*
X153549303Y-97078911D01*
X153757027Y-97148537D01*
X153956562Y-97239057D01*
X154148892Y-97350838D01*
X154149512Y-97351240D01*
X154218326Y-97397626D01*
X154279600Y-97443334D01*
X154337543Y-97492125D01*
X154396364Y-97547762D01*
X154460271Y-97614006D01*
X154533474Y-97694619D01*
X154537238Y-97698846D01*
X154606282Y-97775025D01*
X154664015Y-97835592D01*
X154712817Y-97882727D01*
X154755071Y-97918607D01*
X154793159Y-97945411D01*
X154829462Y-97965317D01*
X154845061Y-97973347D01*
X154877902Y-97994109D01*
X154899860Y-98013232D01*
X154916664Y-98047645D01*
X154916496Y-98088661D01*
X154898870Y-98127875D01*
X154865237Y-98159162D01*
X154840620Y-98174503D01*
X154821474Y-98186828D01*
X154817455Y-98192161D01*
X154814386Y-98208474D01*
X154814434Y-98237855D01*
X154817647Y-98283406D01*
X154824075Y-98348227D01*
X154824253Y-98349900D01*
X154830530Y-98422320D01*
X154835723Y-98506714D01*
X154839298Y-98592733D01*
X154840718Y-98670026D01*
X154841034Y-98706269D01*
X154843869Y-98790332D01*
X154849434Y-98858474D01*
X154857496Y-98907409D01*
X154864522Y-98938877D01*
X154871439Y-98976471D01*
X154874275Y-99001536D01*
X154874185Y-99004419D01*
X154863368Y-99032914D01*
X154839577Y-99062069D01*
X154809943Y-99084776D01*
X154781598Y-99093925D01*
X154776665Y-99094113D01*
X154767103Y-99097039D01*
X154758757Y-99106026D01*
X154750337Y-99124261D01*
X154740550Y-99154929D01*
X154728104Y-99201217D01*
X154711709Y-99266310D01*
X154703006Y-99301150D01*
X154688864Y-99357159D01*
X154677012Y-99403336D01*
X154668492Y-99435644D01*
X154664344Y-99450041D01*
X154666939Y-99458290D01*
X154682972Y-99477436D01*
X154709215Y-99500894D01*
X154757697Y-99547610D01*
X154812016Y-99625243D01*
X154852983Y-99717831D01*
X154869808Y-99789103D01*
X154870606Y-99806535D01*
X154874074Y-99882259D01*
X154860851Y-99974973D01*
X154830628Y-100059757D01*
X154789178Y-100131704D01*
X154724943Y-100208611D01*
X154648454Y-100266732D01*
X154558787Y-100306729D01*
X154455019Y-100329266D01*
X154421982Y-100333625D01*
X154384409Y-100339929D01*
X154361703Y-100346840D01*
X154349155Y-100356020D01*
X154342057Y-100369130D01*
X154339307Y-100375972D01*
X154318107Y-100419029D01*
X154287181Y-100472594D01*
X154250249Y-100530757D01*
X154211031Y-100587611D01*
X154173247Y-100637248D01*
X154153310Y-100661254D01*
X154094845Y-100725184D01*
X154032834Y-100782307D01*
X153962817Y-100836158D01*
X153880333Y-100890271D01*
X153780923Y-100948182D01*
X153664962Y-101012851D01*
X153726939Y-101043173D01*
X153752466Y-101057466D01*
X153794156Y-101087075D01*
X153826348Y-101117227D01*
X153829838Y-101121385D01*
X153840699Y-101136832D01*
X153867468Y-101174902D01*
X153908858Y-101247923D01*
G37*
G36*
X141460318Y-100696251D02*
G01*
X141561392Y-100702650D01*
X141649996Y-100717593D01*
X141732520Y-100742388D01*
X141815358Y-100778341D01*
X141893388Y-100823257D01*
X141980901Y-100894759D01*
X142050656Y-100980157D01*
X142102721Y-101079559D01*
X142137161Y-101193073D01*
X142154045Y-101320805D01*
X142155451Y-101402954D01*
X142142141Y-101528411D01*
X142109950Y-101641885D01*
X142059459Y-101742683D01*
X141991253Y-101830116D01*
X141905917Y-101903492D01*
X141804033Y-101962119D01*
X141686186Y-102005306D01*
X141552960Y-102032363D01*
X141457440Y-102039449D01*
X141343036Y-102036241D01*
X141227471Y-102022227D01*
X141118181Y-101998344D01*
X141022603Y-101965529D01*
X140970806Y-101943326D01*
X140970806Y-101773365D01*
X140970837Y-101726528D01*
X140971234Y-101674881D01*
X140972503Y-101640173D01*
X140975152Y-101619037D01*
X140979689Y-101608108D01*
X140986623Y-101604019D01*
X140996462Y-101603404D01*
X140997836Y-101603468D01*
X141020450Y-101611228D01*
X141053280Y-101629407D01*
X141089720Y-101654392D01*
X141099806Y-101661771D01*
X141176562Y-101705671D01*
X141260099Y-101735089D01*
X141346443Y-101749964D01*
X141431623Y-101750236D01*
X141511669Y-101735844D01*
X141582608Y-101706726D01*
X141640469Y-101662822D01*
X141644913Y-101658211D01*
X141681284Y-101614571D01*
X141706724Y-101569181D01*
X141722870Y-101516932D01*
X141731358Y-101452719D01*
X141733823Y-101371435D01*
X141733694Y-101327801D01*
X141732557Y-101281828D01*
X141729342Y-101248098D01*
X141722983Y-101220563D01*
X141712416Y-101193176D01*
X141696575Y-101159888D01*
X141667583Y-101109242D01*
X141617774Y-101051420D01*
X141557169Y-101011783D01*
X141483491Y-100988986D01*
X141394460Y-100981686D01*
X141338828Y-100985580D01*
X141257254Y-101003254D01*
X141178532Y-101032850D01*
X141109118Y-101071781D01*
X141055469Y-101117463D01*
X141034394Y-101132130D01*
X141002966Y-101139941D01*
X140970806Y-101139941D01*
X140970806Y-100791143D01*
X141035804Y-100766676D01*
X141068998Y-100754490D01*
X141156305Y-100726558D01*
X141236572Y-100708587D01*
X141318717Y-100698895D01*
X141411660Y-100695800D01*
X141460318Y-100696251D01*
G37*
G36*
X153233780Y-101268492D02*
G01*
X153235603Y-101286893D01*
X153233685Y-101300024D01*
X153225358Y-101309501D01*
X153220390Y-101304918D01*
X153221024Y-101286893D01*
X153225332Y-101273605D01*
X153231270Y-101264285D01*
X153233780Y-101268492D01*
G37*
G36*
X148092301Y-97601802D02*
G01*
X147380152Y-97601802D01*
X147351956Y-97601808D01*
X147228748Y-97601996D01*
X147112895Y-97602425D01*
X147006304Y-97603072D01*
X146910880Y-97603916D01*
X146828531Y-97604933D01*
X146761164Y-97606100D01*
X146710684Y-97607396D01*
X146678999Y-97608797D01*
X146668015Y-97610280D01*
X146674153Y-97616421D01*
X146696605Y-97634667D01*
X146733547Y-97663287D01*
X146782894Y-97700700D01*
X146842563Y-97745329D01*
X146910469Y-97795595D01*
X146984526Y-97849922D01*
X147301024Y-98081085D01*
X147301024Y-98313951D01*
X148329684Y-98313951D01*
X148329684Y-98472207D01*
X147301024Y-98472207D01*
X147301024Y-98834495D01*
X147301026Y-98853835D01*
X147301192Y-98957613D01*
X147301897Y-99041539D01*
X147303512Y-99107977D01*
X147306411Y-99159290D01*
X147310967Y-99197842D01*
X147317553Y-99225995D01*
X147326542Y-99246114D01*
X147338308Y-99260561D01*
X147353224Y-99271701D01*
X147371662Y-99281895D01*
X147382378Y-99286817D01*
X147401580Y-99292459D01*
X147427264Y-99295780D01*
X147463452Y-99297013D01*
X147514164Y-99296390D01*
X147583420Y-99294144D01*
X147616593Y-99292798D01*
X147675163Y-99289861D01*
X147724248Y-99286682D01*
X147759478Y-99283562D01*
X147776482Y-99280803D01*
X147782029Y-99279352D01*
X147787531Y-99282935D01*
X147788936Y-99297205D01*
X147786394Y-99326038D01*
X147780052Y-99373307D01*
X147777112Y-99394019D01*
X147771256Y-99435056D01*
X147767042Y-99464293D01*
X147765231Y-99476438D01*
X147764601Y-99476701D01*
X147748963Y-99477573D01*
X147714865Y-99477984D01*
X147665684Y-99477931D01*
X147604798Y-99477416D01*
X147535581Y-99476438D01*
X147520307Y-99476179D01*
X147445408Y-99474698D01*
X147388822Y-99472930D01*
X147346894Y-99470480D01*
X147315969Y-99466957D01*
X147292395Y-99461968D01*
X147272515Y-99455118D01*
X147252675Y-99446016D01*
X147217589Y-99425142D01*
X147166719Y-99375292D01*
X147130727Y-99308700D01*
X147130519Y-99308146D01*
X147126103Y-99289876D01*
X147122383Y-99259889D01*
X147119279Y-99216369D01*
X147116713Y-99157503D01*
X147114603Y-99081474D01*
X147112871Y-98986469D01*
X147111435Y-98870671D01*
X147107306Y-98472207D01*
X146136716Y-98472207D01*
X146136716Y-98313951D01*
X147108857Y-98313951D01*
X147108857Y-98158153D01*
X146741478Y-97888578D01*
X146374099Y-97619004D01*
X146374099Y-97443546D01*
X148092301Y-97443546D01*
X148092301Y-97601802D01*
G37*
%TD*%
%LPC*%
D15*
%TO.C,HOLE1*%
X175160000Y-107360000D03*
%TD*%
D16*
%TO.C,J3*%
X130390000Y-103590000D03*
D17*
X130390000Y-101050000D03*
X130390000Y-98510000D03*
X130390000Y-95970000D03*
%TD*%
D18*
%TO.C,USB1*%
X170430000Y-104090000D03*
X170430000Y-95450000D03*
X174230000Y-104090000D03*
X174230000Y-95450000D03*
%TD*%
D15*
%TO.C,HOLE2*%
X175200000Y-92230000D03*
%TD*%
%TO.C,HOLE4*%
X130220000Y-92000000D03*
%TD*%
%TO.C,HOLE3*%
X130190000Y-107540000D03*
%TD*%
D16*
%TO.C,J2*%
X165980000Y-108610000D03*
D17*
X163440000Y-108610000D03*
X160900000Y-108610000D03*
X158360000Y-108610000D03*
X155820000Y-108610000D03*
X153280000Y-108610000D03*
X150740000Y-108610000D03*
X148200000Y-108610000D03*
X145660000Y-108610000D03*
X143120000Y-108610000D03*
X140580000Y-108610000D03*
X138040000Y-108610000D03*
X135500000Y-108610000D03*
X132960000Y-108610000D03*
%TD*%
D19*
%TO.C,U2*%
X162255000Y-103210000D03*
X160985000Y-103210000D03*
X159715000Y-103210000D03*
X158445000Y-103210000D03*
X158445000Y-96150000D03*
X159715000Y-96150000D03*
X160985000Y-96150000D03*
X162255000Y-96150000D03*
%TD*%
D20*
%TO.C,C3*%
X163930000Y-100130000D03*
X163930000Y-99170000D03*
%TD*%
D16*
%TO.C,J1*%
X166010000Y-90900000D03*
D17*
X163470000Y-90900000D03*
X160930000Y-90900000D03*
X158390000Y-90900000D03*
X155850000Y-90900000D03*
X153310000Y-90900000D03*
X150770000Y-90900000D03*
X148230000Y-90900000D03*
X145690000Y-90900000D03*
X143150000Y-90900000D03*
X140610000Y-90900000D03*
X138070000Y-90900000D03*
X135530000Y-90900000D03*
X132990000Y-90900000D03*
%TD*%
M02*
