%TF.GenerationSoftware,KiCad,Pcbnew,(6.0.7)*%
%TF.CreationDate,2022-09-30T17:02:33+08:00*%
%TF.ProjectId,UINIO-EVB-STM32L051K8,55494e49-4f2d-4455-9642-2d53544d3332,rev?*%
%TF.SameCoordinates,Original*%
%TF.FileFunction,Legend,Top*%
%TF.FilePolarity,Positive*%
%FSLAX46Y46*%
G04 Gerber Fmt 4.6, Leading zero omitted, Abs format (unit mm)*
G04 Created by KiCad (PCBNEW (6.0.7)) date 2022-09-30 17:02:33*
%MOMM*%
%LPD*%
G01*
G04 APERTURE LIST*
G04 Aperture macros list*
%AMRoundRect*
0 Rectangle with rounded corners*
0 $1 Rounding radius*
0 $2 $3 $4 $5 $6 $7 $8 $9 X,Y pos of 4 corners*
0 Add a 4 corners polygon primitive as box body*
4,1,4,$2,$3,$4,$5,$6,$7,$8,$9,$2,$3,0*
0 Add four circle primitives for the rounded corners*
1,1,$1+$1,$2,$3*
1,1,$1+$1,$4,$5*
1,1,$1+$1,$6,$7*
1,1,$1+$1,$8,$9*
0 Add four rect primitives between the rounded corners*
20,1,$1+$1,$2,$3,$4,$5,0*
20,1,$1+$1,$4,$5,$6,$7,0*
20,1,$1+$1,$6,$7,$8,$9,0*
20,1,$1+$1,$8,$9,$2,$3,0*%
%AMRotRect*
0 Rectangle, with rotation*
0 The origin of the aperture is its center*
0 $1 length*
0 $2 width*
0 $3 Rotation angle, in degrees counterclockwise*
0 Add horizontal line*
21,1,$1,$2,0,0,$3*%
G04 Aperture macros list end*
%ADD10C,0.100000*%
%ADD11C,0.150000*%
%ADD12C,0.300000*%
%ADD13C,0.120000*%
%ADD14C,0.254000*%
%ADD15RoundRect,0.135000X0.135000X0.185000X-0.135000X0.185000X-0.135000X-0.185000X0.135000X-0.185000X0*%
%ADD16RoundRect,0.140000X-0.170000X0.140000X-0.170000X-0.140000X0.170000X-0.140000X0.170000X0.140000X0*%
%ADD17RoundRect,0.250000X0.625000X-0.375000X0.625000X0.375000X-0.625000X0.375000X-0.625000X-0.375000X0*%
%ADD18RoundRect,0.140000X0.140000X0.170000X-0.140000X0.170000X-0.140000X-0.170000X0.140000X-0.170000X0*%
%ADD19RotRect,0.600000X0.300000X135.000000*%
%ADD20RotRect,0.600000X0.300000X225.000000*%
%ADD21RotRect,0.600000X0.300000X315.000000*%
%ADD22RotRect,0.600000X0.300000X45.000000*%
%ADD23RotRect,3.450000X3.450000X45.000000*%
%ADD24RoundRect,0.135000X-0.185000X0.135000X-0.185000X-0.135000X0.185000X-0.135000X0.185000X0.135000X0*%
%ADD25R,1.700000X1.700000*%
%ADD26O,1.700000X1.700000*%
%ADD27C,0.650000*%
%ADD28O,1.000000X2.100000*%
%ADD29O,1.000000X1.900000*%
%ADD30R,0.600000X1.150000*%
%ADD31R,0.300000X1.150000*%
%ADD32RoundRect,0.140000X0.170000X-0.140000X0.170000X0.140000X-0.170000X0.140000X-0.170000X-0.140000X0*%
%ADD33R,1.500000X1.500000*%
%ADD34RoundRect,0.218750X0.256250X-0.218750X0.256250X0.218750X-0.256250X0.218750X-0.256250X-0.218750X0*%
%ADD35RoundRect,0.140000X-0.140000X-0.170000X0.140000X-0.170000X0.140000X0.170000X-0.140000X0.170000X0*%
%ADD36R,1.400000X1.200000*%
%ADD37R,0.600000X1.000000*%
G04 APERTURE END LIST*
D10*
X166649523Y-114661904D02*
X166649523Y-113861904D01*
X166954285Y-113861904D01*
X167030476Y-113900000D01*
X167068571Y-113938095D01*
X167106666Y-114014285D01*
X167106666Y-114128571D01*
X167068571Y-114204761D01*
X167030476Y-114242857D01*
X166954285Y-114280952D01*
X166649523Y-114280952D01*
X167716190Y-114242857D02*
X167830476Y-114280952D01*
X167868571Y-114319047D01*
X167906666Y-114395238D01*
X167906666Y-114509523D01*
X167868571Y-114585714D01*
X167830476Y-114623809D01*
X167754285Y-114661904D01*
X167449523Y-114661904D01*
X167449523Y-113861904D01*
X167716190Y-113861904D01*
X167792380Y-113900000D01*
X167830476Y-113938095D01*
X167868571Y-114014285D01*
X167868571Y-114090476D01*
X167830476Y-114166666D01*
X167792380Y-114204761D01*
X167716190Y-114242857D01*
X167449523Y-114242857D01*
X168592380Y-113861904D02*
X168440000Y-113861904D01*
X168363809Y-113900000D01*
X168325714Y-113938095D01*
X168249523Y-114052380D01*
X168211428Y-114204761D01*
X168211428Y-114509523D01*
X168249523Y-114585714D01*
X168287619Y-114623809D01*
X168363809Y-114661904D01*
X168516190Y-114661904D01*
X168592380Y-114623809D01*
X168630476Y-114585714D01*
X168668571Y-114509523D01*
X168668571Y-114319047D01*
X168630476Y-114242857D01*
X168592380Y-114204761D01*
X168516190Y-114166666D01*
X168363809Y-114166666D01*
X168287619Y-114204761D01*
X168249523Y-114242857D01*
X168211428Y-114319047D01*
X141306666Y-107041904D02*
X141306666Y-106241904D01*
X141611428Y-106241904D01*
X141687619Y-106280000D01*
X141725714Y-106318095D01*
X141763809Y-106394285D01*
X141763809Y-106508571D01*
X141725714Y-106584761D01*
X141687619Y-106622857D01*
X141611428Y-106660952D01*
X141306666Y-106660952D01*
X142068571Y-106813333D02*
X142449523Y-106813333D01*
X141992380Y-107041904D02*
X142259047Y-106241904D01*
X142525714Y-107041904D01*
X143135238Y-106508571D02*
X143135238Y-107041904D01*
X142944761Y-106203809D02*
X142754285Y-106775238D01*
X143249523Y-106775238D01*
X146868571Y-126472190D02*
X146868571Y-126876952D01*
X146892380Y-126924571D01*
X146916190Y-126948380D01*
X146963809Y-126972190D01*
X147059047Y-126972190D01*
X147106666Y-126948380D01*
X147130476Y-126924571D01*
X147154285Y-126876952D01*
X147154285Y-126472190D01*
X147392380Y-126972190D02*
X147392380Y-126472190D01*
X147630476Y-126972190D02*
X147630476Y-126472190D01*
X147916190Y-126972190D01*
X147916190Y-126472190D01*
X148154285Y-126972190D02*
X148154285Y-126472190D01*
X148487619Y-126472190D02*
X148582857Y-126472190D01*
X148630476Y-126496000D01*
X148678095Y-126543619D01*
X148701904Y-126638857D01*
X148701904Y-126805523D01*
X148678095Y-126900761D01*
X148630476Y-126948380D01*
X148582857Y-126972190D01*
X148487619Y-126972190D01*
X148440000Y-126948380D01*
X148392380Y-126900761D01*
X148368571Y-126805523D01*
X148368571Y-126638857D01*
X148392380Y-126543619D01*
X148440000Y-126496000D01*
X148487619Y-126472190D01*
X148916190Y-126781714D02*
X149297142Y-126781714D01*
X149535238Y-126710285D02*
X149701904Y-126710285D01*
X149773333Y-126972190D02*
X149535238Y-126972190D01*
X149535238Y-126472190D01*
X149773333Y-126472190D01*
X149916190Y-126472190D02*
X150082857Y-126972190D01*
X150249523Y-126472190D01*
X150582857Y-126710285D02*
X150654285Y-126734095D01*
X150678095Y-126757904D01*
X150701904Y-126805523D01*
X150701904Y-126876952D01*
X150678095Y-126924571D01*
X150654285Y-126948380D01*
X150606666Y-126972190D01*
X150416190Y-126972190D01*
X150416190Y-126472190D01*
X150582857Y-126472190D01*
X150630476Y-126496000D01*
X150654285Y-126519809D01*
X150678095Y-126567428D01*
X150678095Y-126615047D01*
X150654285Y-126662666D01*
X150630476Y-126686476D01*
X150582857Y-126710285D01*
X150416190Y-126710285D01*
X150916190Y-126781714D02*
X151297142Y-126781714D01*
X151511428Y-126948380D02*
X151582857Y-126972190D01*
X151701904Y-126972190D01*
X151749523Y-126948380D01*
X151773333Y-126924571D01*
X151797142Y-126876952D01*
X151797142Y-126829333D01*
X151773333Y-126781714D01*
X151749523Y-126757904D01*
X151701904Y-126734095D01*
X151606666Y-126710285D01*
X151559047Y-126686476D01*
X151535238Y-126662666D01*
X151511428Y-126615047D01*
X151511428Y-126567428D01*
X151535238Y-126519809D01*
X151559047Y-126496000D01*
X151606666Y-126472190D01*
X151725714Y-126472190D01*
X151797142Y-126496000D01*
X151940000Y-126472190D02*
X152225714Y-126472190D01*
X152082857Y-126972190D02*
X152082857Y-126472190D01*
X152392380Y-126972190D02*
X152392380Y-126472190D01*
X152559047Y-126829333D01*
X152725714Y-126472190D01*
X152725714Y-126972190D01*
X152916190Y-126472190D02*
X153225714Y-126472190D01*
X153059047Y-126662666D01*
X153130476Y-126662666D01*
X153178095Y-126686476D01*
X153201904Y-126710285D01*
X153225714Y-126757904D01*
X153225714Y-126876952D01*
X153201904Y-126924571D01*
X153178095Y-126948380D01*
X153130476Y-126972190D01*
X152987619Y-126972190D01*
X152940000Y-126948380D01*
X152916190Y-126924571D01*
X153416190Y-126519809D02*
X153440000Y-126496000D01*
X153487619Y-126472190D01*
X153606666Y-126472190D01*
X153654285Y-126496000D01*
X153678095Y-126519809D01*
X153701904Y-126567428D01*
X153701904Y-126615047D01*
X153678095Y-126686476D01*
X153392380Y-126972190D01*
X153701904Y-126972190D01*
X154154285Y-126972190D02*
X153916190Y-126972190D01*
X153916190Y-126472190D01*
X154416190Y-126472190D02*
X154463809Y-126472190D01*
X154511428Y-126496000D01*
X154535238Y-126519809D01*
X154559047Y-126567428D01*
X154582857Y-126662666D01*
X154582857Y-126781714D01*
X154559047Y-126876952D01*
X154535238Y-126924571D01*
X154511428Y-126948380D01*
X154463809Y-126972190D01*
X154416190Y-126972190D01*
X154368571Y-126948380D01*
X154344761Y-126924571D01*
X154320952Y-126876952D01*
X154297142Y-126781714D01*
X154297142Y-126662666D01*
X154320952Y-126567428D01*
X154344761Y-126519809D01*
X154368571Y-126496000D01*
X154416190Y-126472190D01*
X155035238Y-126472190D02*
X154797142Y-126472190D01*
X154773333Y-126710285D01*
X154797142Y-126686476D01*
X154844761Y-126662666D01*
X154963809Y-126662666D01*
X155011428Y-126686476D01*
X155035238Y-126710285D01*
X155059047Y-126757904D01*
X155059047Y-126876952D01*
X155035238Y-126924571D01*
X155011428Y-126948380D01*
X154963809Y-126972190D01*
X154844761Y-126972190D01*
X154797142Y-126948380D01*
X154773333Y-126924571D01*
X155535238Y-126972190D02*
X155249523Y-126972190D01*
X155392380Y-126972190D02*
X155392380Y-126472190D01*
X155344761Y-126543619D01*
X155297142Y-126591238D01*
X155249523Y-126615047D01*
X155749523Y-126972190D02*
X155749523Y-126472190D01*
X156035238Y-126972190D02*
X155820952Y-126686476D01*
X156035238Y-126472190D02*
X155749523Y-126757904D01*
X156320952Y-126686476D02*
X156273333Y-126662666D01*
X156249523Y-126638857D01*
X156225714Y-126591238D01*
X156225714Y-126567428D01*
X156249523Y-126519809D01*
X156273333Y-126496000D01*
X156320952Y-126472190D01*
X156416190Y-126472190D01*
X156463809Y-126496000D01*
X156487619Y-126519809D01*
X156511428Y-126567428D01*
X156511428Y-126591238D01*
X156487619Y-126638857D01*
X156463809Y-126662666D01*
X156416190Y-126686476D01*
X156320952Y-126686476D01*
X156273333Y-126710285D01*
X156249523Y-126734095D01*
X156225714Y-126781714D01*
X156225714Y-126876952D01*
X156249523Y-126924571D01*
X156273333Y-126948380D01*
X156320952Y-126972190D01*
X156416190Y-126972190D01*
X156463809Y-126948380D01*
X156487619Y-126924571D01*
X156511428Y-126876952D01*
X156511428Y-126781714D01*
X156487619Y-126734095D01*
X156463809Y-126710285D01*
X156416190Y-126686476D01*
X158178095Y-126472190D02*
X158344761Y-126972190D01*
X158511428Y-126472190D01*
X158868571Y-126948380D02*
X158820952Y-126972190D01*
X158725714Y-126972190D01*
X158678095Y-126948380D01*
X158654285Y-126900761D01*
X158654285Y-126710285D01*
X158678095Y-126662666D01*
X158725714Y-126638857D01*
X158820952Y-126638857D01*
X158868571Y-126662666D01*
X158892380Y-126710285D01*
X158892380Y-126757904D01*
X158654285Y-126805523D01*
X159106666Y-126972190D02*
X159106666Y-126638857D01*
X159106666Y-126734095D02*
X159130476Y-126686476D01*
X159154285Y-126662666D01*
X159201904Y-126638857D01*
X159249523Y-126638857D01*
X159392380Y-126948380D02*
X159440000Y-126972190D01*
X159535238Y-126972190D01*
X159582857Y-126948380D01*
X159606666Y-126900761D01*
X159606666Y-126876952D01*
X159582857Y-126829333D01*
X159535238Y-126805523D01*
X159463809Y-126805523D01*
X159416190Y-126781714D01*
X159392380Y-126734095D01*
X159392380Y-126710285D01*
X159416190Y-126662666D01*
X159463809Y-126638857D01*
X159535238Y-126638857D01*
X159582857Y-126662666D01*
X159820952Y-126972190D02*
X159820952Y-126638857D01*
X159820952Y-126472190D02*
X159797142Y-126496000D01*
X159820952Y-126519809D01*
X159844761Y-126496000D01*
X159820952Y-126472190D01*
X159820952Y-126519809D01*
X160130476Y-126972190D02*
X160082857Y-126948380D01*
X160059047Y-126924571D01*
X160035238Y-126876952D01*
X160035238Y-126734095D01*
X160059047Y-126686476D01*
X160082857Y-126662666D01*
X160130476Y-126638857D01*
X160201904Y-126638857D01*
X160249523Y-126662666D01*
X160273333Y-126686476D01*
X160297142Y-126734095D01*
X160297142Y-126876952D01*
X160273333Y-126924571D01*
X160249523Y-126948380D01*
X160201904Y-126972190D01*
X160130476Y-126972190D01*
X160511428Y-126638857D02*
X160511428Y-126972190D01*
X160511428Y-126686476D02*
X160535238Y-126662666D01*
X160582857Y-126638857D01*
X160654285Y-126638857D01*
X160701904Y-126662666D01*
X160725714Y-126710285D01*
X160725714Y-126972190D01*
X161606666Y-126972190D02*
X161320952Y-126972190D01*
X161463809Y-126972190D02*
X161463809Y-126472190D01*
X161416190Y-126543619D01*
X161368571Y-126591238D01*
X161320952Y-126615047D01*
X161820952Y-126924571D02*
X161844761Y-126948380D01*
X161820952Y-126972190D01*
X161797142Y-126948380D01*
X161820952Y-126924571D01*
X161820952Y-126972190D01*
X162154285Y-126472190D02*
X162201904Y-126472190D01*
X162249523Y-126496000D01*
X162273333Y-126519809D01*
X162297142Y-126567428D01*
X162320952Y-126662666D01*
X162320952Y-126781714D01*
X162297142Y-126876952D01*
X162273333Y-126924571D01*
X162249523Y-126948380D01*
X162201904Y-126972190D01*
X162154285Y-126972190D01*
X162106666Y-126948380D01*
X162082857Y-126924571D01*
X162059047Y-126876952D01*
X162035238Y-126781714D01*
X162035238Y-126662666D01*
X162059047Y-126567428D01*
X162082857Y-126519809D01*
X162106666Y-126496000D01*
X162154285Y-126472190D01*
X162535238Y-126924571D02*
X162559047Y-126948380D01*
X162535238Y-126972190D01*
X162511428Y-126948380D01*
X162535238Y-126924571D01*
X162535238Y-126972190D01*
X162868571Y-126472190D02*
X162916190Y-126472190D01*
X162963809Y-126496000D01*
X162987619Y-126519809D01*
X163011428Y-126567428D01*
X163035238Y-126662666D01*
X163035238Y-126781714D01*
X163011428Y-126876952D01*
X162987619Y-126924571D01*
X162963809Y-126948380D01*
X162916190Y-126972190D01*
X162868571Y-126972190D01*
X162820952Y-126948380D01*
X162797142Y-126924571D01*
X162773333Y-126876952D01*
X162749523Y-126781714D01*
X162749523Y-126662666D01*
X162773333Y-126567428D01*
X162797142Y-126519809D01*
X162820952Y-126496000D01*
X162868571Y-126472190D01*
X141306666Y-96881904D02*
X141306666Y-96081904D01*
X141611428Y-96081904D01*
X141687619Y-96120000D01*
X141725714Y-96158095D01*
X141763809Y-96234285D01*
X141763809Y-96348571D01*
X141725714Y-96424761D01*
X141687619Y-96462857D01*
X141611428Y-96500952D01*
X141306666Y-96500952D01*
X142068571Y-96653333D02*
X142449523Y-96653333D01*
X141992380Y-96881904D02*
X142259047Y-96081904D01*
X142525714Y-96881904D01*
X142944761Y-96081904D02*
X143020952Y-96081904D01*
X143097142Y-96120000D01*
X143135238Y-96158095D01*
X143173333Y-96234285D01*
X143211428Y-96386666D01*
X143211428Y-96577142D01*
X143173333Y-96729523D01*
X143135238Y-96805714D01*
X143097142Y-96843809D01*
X143020952Y-96881904D01*
X142944761Y-96881904D01*
X142868571Y-96843809D01*
X142830476Y-96805714D01*
X142792380Y-96729523D01*
X142754285Y-96577142D01*
X142754285Y-96386666D01*
X142792380Y-96234285D01*
X142830476Y-96158095D01*
X142868571Y-96120000D01*
X142944761Y-96081904D01*
X141246666Y-99421904D02*
X141246666Y-98621904D01*
X141551428Y-98621904D01*
X141627619Y-98660000D01*
X141665714Y-98698095D01*
X141703809Y-98774285D01*
X141703809Y-98888571D01*
X141665714Y-98964761D01*
X141627619Y-99002857D01*
X141551428Y-99040952D01*
X141246666Y-99040952D01*
X142008571Y-99193333D02*
X142389523Y-99193333D01*
X141932380Y-99421904D02*
X142199047Y-98621904D01*
X142465714Y-99421904D01*
X143151428Y-99421904D02*
X142694285Y-99421904D01*
X142922857Y-99421904D02*
X142922857Y-98621904D01*
X142846666Y-98736190D01*
X142770476Y-98812380D01*
X142694285Y-98850476D01*
X141306714Y-129901904D02*
X141306714Y-129101904D01*
X141611476Y-129101904D01*
X141687666Y-129140000D01*
X141725761Y-129178095D01*
X141763857Y-129254285D01*
X141763857Y-129368571D01*
X141725761Y-129444761D01*
X141687666Y-129482857D01*
X141611476Y-129520952D01*
X141306714Y-129520952D01*
X142068619Y-129673333D02*
X142449571Y-129673333D01*
X141992428Y-129901904D02*
X142259095Y-129101904D01*
X142525761Y-129901904D01*
X143211476Y-129901904D02*
X142754333Y-129901904D01*
X142982904Y-129901904D02*
X142982904Y-129101904D01*
X142906714Y-129216190D01*
X142830523Y-129292380D01*
X142754333Y-129330476D01*
X143935285Y-129101904D02*
X143554333Y-129101904D01*
X143516238Y-129482857D01*
X143554333Y-129444761D01*
X143630523Y-129406666D01*
X143821000Y-129406666D01*
X143897190Y-129444761D01*
X143935285Y-129482857D01*
X143973380Y-129559047D01*
X143973380Y-129749523D01*
X143935285Y-129825714D01*
X143897190Y-129863809D01*
X143821000Y-129901904D01*
X143630523Y-129901904D01*
X143554333Y-129863809D01*
X143516238Y-129825714D01*
X165944714Y-107041904D02*
X165944714Y-106241904D01*
X166401857Y-107041904D01*
X166401857Y-106241904D01*
X167239952Y-107041904D02*
X166973285Y-106660952D01*
X166782809Y-107041904D02*
X166782809Y-106241904D01*
X167087571Y-106241904D01*
X167163761Y-106280000D01*
X167201857Y-106318095D01*
X167239952Y-106394285D01*
X167239952Y-106508571D01*
X167201857Y-106584761D01*
X167163761Y-106622857D01*
X167087571Y-106660952D01*
X166782809Y-106660952D01*
X167544714Y-107003809D02*
X167659000Y-107041904D01*
X167849476Y-107041904D01*
X167925666Y-107003809D01*
X167963761Y-106965714D01*
X168001857Y-106889523D01*
X168001857Y-106813333D01*
X167963761Y-106737142D01*
X167925666Y-106699047D01*
X167849476Y-106660952D01*
X167697095Y-106622857D01*
X167620904Y-106584761D01*
X167582809Y-106546666D01*
X167544714Y-106470476D01*
X167544714Y-106394285D01*
X167582809Y-106318095D01*
X167620904Y-106280000D01*
X167697095Y-106241904D01*
X167887571Y-106241904D01*
X168001857Y-106280000D01*
X168230428Y-106241904D02*
X168687571Y-106241904D01*
X168459000Y-107041904D02*
X168459000Y-106241904D01*
X141306666Y-104501904D02*
X141306666Y-103701904D01*
X141611428Y-103701904D01*
X141687619Y-103740000D01*
X141725714Y-103778095D01*
X141763809Y-103854285D01*
X141763809Y-103968571D01*
X141725714Y-104044761D01*
X141687619Y-104082857D01*
X141611428Y-104120952D01*
X141306666Y-104120952D01*
X142068571Y-104273333D02*
X142449523Y-104273333D01*
X141992380Y-104501904D02*
X142259047Y-103701904D01*
X142525714Y-104501904D01*
X142716190Y-103701904D02*
X143211428Y-103701904D01*
X142944761Y-104006666D01*
X143059047Y-104006666D01*
X143135238Y-104044761D01*
X143173333Y-104082857D01*
X143211428Y-104159047D01*
X143211428Y-104349523D01*
X143173333Y-104425714D01*
X143135238Y-104463809D01*
X143059047Y-104501904D01*
X142830476Y-104501904D01*
X142754285Y-104463809D01*
X142716190Y-104425714D01*
X167030476Y-103740000D02*
X166954285Y-103701904D01*
X166840000Y-103701904D01*
X166725714Y-103740000D01*
X166649523Y-103816190D01*
X166611428Y-103892380D01*
X166573333Y-104044761D01*
X166573333Y-104159047D01*
X166611428Y-104311428D01*
X166649523Y-104387619D01*
X166725714Y-104463809D01*
X166840000Y-104501904D01*
X166916190Y-104501904D01*
X167030476Y-104463809D01*
X167068571Y-104425714D01*
X167068571Y-104159047D01*
X166916190Y-104159047D01*
X167411428Y-104501904D02*
X167411428Y-103701904D01*
X167868571Y-104501904D01*
X167868571Y-103701904D01*
X168249523Y-104501904D02*
X168249523Y-103701904D01*
X168440000Y-103701904D01*
X168554285Y-103740000D01*
X168630476Y-103816190D01*
X168668571Y-103892380D01*
X168706666Y-104044761D01*
X168706666Y-104159047D01*
X168668571Y-104311428D01*
X168630476Y-104387619D01*
X168554285Y-104463809D01*
X168440000Y-104501904D01*
X168249523Y-104501904D01*
X166649523Y-127361904D02*
X166649523Y-126561904D01*
X166954285Y-126561904D01*
X167030476Y-126600000D01*
X167068571Y-126638095D01*
X167106666Y-126714285D01*
X167106666Y-126828571D01*
X167068571Y-126904761D01*
X167030476Y-126942857D01*
X166954285Y-126980952D01*
X166649523Y-126980952D01*
X167716190Y-126942857D02*
X167830476Y-126980952D01*
X167868571Y-127019047D01*
X167906666Y-127095238D01*
X167906666Y-127209523D01*
X167868571Y-127285714D01*
X167830476Y-127323809D01*
X167754285Y-127361904D01*
X167449523Y-127361904D01*
X167449523Y-126561904D01*
X167716190Y-126561904D01*
X167792380Y-126600000D01*
X167830476Y-126638095D01*
X167868571Y-126714285D01*
X167868571Y-126790476D01*
X167830476Y-126866666D01*
X167792380Y-126904761D01*
X167716190Y-126942857D01*
X167449523Y-126942857D01*
X168668571Y-127361904D02*
X168211428Y-127361904D01*
X168440000Y-127361904D02*
X168440000Y-126561904D01*
X168363809Y-126676190D01*
X168287619Y-126752380D01*
X168211428Y-126790476D01*
X141306666Y-112121904D02*
X141306666Y-111321904D01*
X141611428Y-111321904D01*
X141687619Y-111360000D01*
X141725714Y-111398095D01*
X141763809Y-111474285D01*
X141763809Y-111588571D01*
X141725714Y-111664761D01*
X141687619Y-111702857D01*
X141611428Y-111740952D01*
X141306666Y-111740952D01*
X142068571Y-111893333D02*
X142449523Y-111893333D01*
X141992380Y-112121904D02*
X142259047Y-111321904D01*
X142525714Y-112121904D01*
X143135238Y-111321904D02*
X142982857Y-111321904D01*
X142906666Y-111360000D01*
X142868571Y-111398095D01*
X142792380Y-111512380D01*
X142754285Y-111664761D01*
X142754285Y-111969523D01*
X142792380Y-112045714D01*
X142830476Y-112083809D01*
X142906666Y-112121904D01*
X143059047Y-112121904D01*
X143135238Y-112083809D01*
X143173333Y-112045714D01*
X143211428Y-111969523D01*
X143211428Y-111779047D01*
X143173333Y-111702857D01*
X143135238Y-111664761D01*
X143059047Y-111626666D01*
X142906666Y-111626666D01*
X142830476Y-111664761D01*
X142792380Y-111702857D01*
X142754285Y-111779047D01*
X166649523Y-109581904D02*
X166649523Y-108781904D01*
X166954285Y-108781904D01*
X167030476Y-108820000D01*
X167068571Y-108858095D01*
X167106666Y-108934285D01*
X167106666Y-109048571D01*
X167068571Y-109124761D01*
X167030476Y-109162857D01*
X166954285Y-109200952D01*
X166649523Y-109200952D01*
X167716190Y-109162857D02*
X167830476Y-109200952D01*
X167868571Y-109239047D01*
X167906666Y-109315238D01*
X167906666Y-109429523D01*
X167868571Y-109505714D01*
X167830476Y-109543809D01*
X167754285Y-109581904D01*
X167449523Y-109581904D01*
X167449523Y-108781904D01*
X167716190Y-108781904D01*
X167792380Y-108820000D01*
X167830476Y-108858095D01*
X167868571Y-108934285D01*
X167868571Y-109010476D01*
X167830476Y-109086666D01*
X167792380Y-109124761D01*
X167716190Y-109162857D01*
X167449523Y-109162857D01*
X168363809Y-109124761D02*
X168287619Y-109086666D01*
X168249523Y-109048571D01*
X168211428Y-108972380D01*
X168211428Y-108934285D01*
X168249523Y-108858095D01*
X168287619Y-108820000D01*
X168363809Y-108781904D01*
X168516190Y-108781904D01*
X168592380Y-108820000D01*
X168630476Y-108858095D01*
X168668571Y-108934285D01*
X168668571Y-108972380D01*
X168630476Y-109048571D01*
X168592380Y-109086666D01*
X168516190Y-109124761D01*
X168363809Y-109124761D01*
X168287619Y-109162857D01*
X168249523Y-109200952D01*
X168211428Y-109277142D01*
X168211428Y-109429523D01*
X168249523Y-109505714D01*
X168287619Y-109543809D01*
X168363809Y-109581904D01*
X168516190Y-109581904D01*
X168592380Y-109543809D01*
X168630476Y-109505714D01*
X168668571Y-109429523D01*
X168668571Y-109277142D01*
X168630476Y-109200952D01*
X168592380Y-109162857D01*
X168516190Y-109124761D01*
X166649523Y-124821904D02*
X166649523Y-124021904D01*
X166954285Y-124021904D01*
X167030476Y-124060000D01*
X167068571Y-124098095D01*
X167106666Y-124174285D01*
X167106666Y-124288571D01*
X167068571Y-124364761D01*
X167030476Y-124402857D01*
X166954285Y-124440952D01*
X166649523Y-124440952D01*
X167716190Y-124402857D02*
X167830476Y-124440952D01*
X167868571Y-124479047D01*
X167906666Y-124555238D01*
X167906666Y-124669523D01*
X167868571Y-124745714D01*
X167830476Y-124783809D01*
X167754285Y-124821904D01*
X167449523Y-124821904D01*
X167449523Y-124021904D01*
X167716190Y-124021904D01*
X167792380Y-124060000D01*
X167830476Y-124098095D01*
X167868571Y-124174285D01*
X167868571Y-124250476D01*
X167830476Y-124326666D01*
X167792380Y-124364761D01*
X167716190Y-124402857D01*
X167449523Y-124402857D01*
X168211428Y-124098095D02*
X168249523Y-124060000D01*
X168325714Y-124021904D01*
X168516190Y-124021904D01*
X168592380Y-124060000D01*
X168630476Y-124098095D01*
X168668571Y-124174285D01*
X168668571Y-124250476D01*
X168630476Y-124364761D01*
X168173333Y-124821904D01*
X168668571Y-124821904D01*
X167827619Y-96081904D02*
X167446666Y-96081904D01*
X167408571Y-96462857D01*
X167446666Y-96424761D01*
X167522857Y-96386666D01*
X167713333Y-96386666D01*
X167789523Y-96424761D01*
X167827619Y-96462857D01*
X167865714Y-96539047D01*
X167865714Y-96729523D01*
X167827619Y-96805714D01*
X167789523Y-96843809D01*
X167713333Y-96881904D01*
X167522857Y-96881904D01*
X167446666Y-96843809D01*
X167408571Y-96805714D01*
X168094285Y-96081904D02*
X168360952Y-96881904D01*
X168627619Y-96081904D01*
D11*
X164503809Y-112237142D02*
X164503809Y-111094285D01*
X164503809Y-111618095D02*
X164932380Y-111618095D01*
X164646666Y-111332380D02*
X164694285Y-111237142D01*
X164884761Y-110999047D01*
X164313333Y-111284761D02*
X164599047Y-111046666D01*
X164646666Y-111951428D02*
X164884761Y-112189523D01*
X163837142Y-111094285D02*
X163932380Y-111713333D01*
X163932380Y-112141904D01*
X163932380Y-111760952D02*
X164218095Y-111999047D01*
X164313333Y-111713333D01*
X164027619Y-111380000D02*
X164503809Y-111856190D01*
X164027619Y-110237142D02*
X164027619Y-109522857D01*
X164360952Y-109951428D02*
X164360952Y-109618095D01*
X164360952Y-110237142D02*
X164360952Y-109808571D01*
X164932380Y-109808571D02*
X164932380Y-109522857D01*
X164408571Y-109760952D02*
X164932380Y-109760952D01*
X164789523Y-109522857D02*
X164932380Y-109570476D01*
X164170476Y-109760952D02*
X164313333Y-109570476D01*
X164075238Y-110618095D02*
X164265714Y-110713333D01*
X164122857Y-110380000D02*
X164265714Y-110475238D01*
X164551428Y-110760952D01*
X164027619Y-109903809D02*
X164170476Y-110046666D01*
X164360952Y-110237142D01*
X163789523Y-109951428D02*
X163980000Y-109903809D01*
X163789523Y-110475238D02*
X164170476Y-110665714D01*
X164837142Y-110189523D02*
X164932380Y-110380000D01*
X164456190Y-110094285D02*
X164789523Y-110141904D01*
X164218095Y-110427619D02*
X164265714Y-110760952D01*
X164503809Y-110380000D02*
X164551428Y-110760952D01*
X164741904Y-110380000D02*
X164837142Y-110760952D01*
X163980000Y-109046666D02*
X163980000Y-108141904D01*
X164265714Y-109046666D02*
X164265714Y-108237142D01*
X164408571Y-109046666D02*
X164408571Y-108237142D01*
X164599047Y-108951428D02*
X164599047Y-108284761D01*
X164075238Y-109046666D02*
X164408571Y-109046666D01*
X164075238Y-109046666D02*
X164075238Y-108284761D01*
X164408571Y-108284761D01*
X163789523Y-108903809D02*
X164122857Y-109237142D01*
X164408571Y-108808571D02*
X164551428Y-108951428D01*
X164694285Y-109284761D01*
X164646666Y-108951428D02*
X164789523Y-108618095D01*
X164932380Y-108141904D01*
X164789523Y-108665714D02*
X164932380Y-108046666D01*
X164599047Y-108332380D02*
X164789523Y-108618095D01*
X164837142Y-108856190D01*
X164932380Y-109237142D01*
X164075238Y-107427619D02*
X164075238Y-106618095D01*
X164884761Y-107475238D02*
X164884761Y-106570476D01*
X164027619Y-107570476D02*
X164932380Y-107570476D01*
X163789523Y-106999047D02*
X164075238Y-106999047D01*
X164218095Y-106760952D02*
X164884761Y-106951428D01*
X164218095Y-107237142D02*
X164741904Y-107189523D01*
X163837142Y-107475238D02*
X164122857Y-107618095D01*
X164313333Y-107808571D01*
D10*
X141306666Y-101961904D02*
X141306666Y-101161904D01*
X141611428Y-101161904D01*
X141687619Y-101200000D01*
X141725714Y-101238095D01*
X141763809Y-101314285D01*
X141763809Y-101428571D01*
X141725714Y-101504761D01*
X141687619Y-101542857D01*
X141611428Y-101580952D01*
X141306666Y-101580952D01*
X142068571Y-101733333D02*
X142449523Y-101733333D01*
X141992380Y-101961904D02*
X142259047Y-101161904D01*
X142525714Y-101961904D01*
X142754285Y-101238095D02*
X142792380Y-101200000D01*
X142868571Y-101161904D01*
X143059047Y-101161904D01*
X143135238Y-101200000D01*
X143173333Y-101238095D01*
X143211428Y-101314285D01*
X143211428Y-101390476D01*
X143173333Y-101504761D01*
X142716190Y-101961904D01*
X143211428Y-101961904D01*
X141306666Y-114661904D02*
X141306666Y-113861904D01*
X141611428Y-113861904D01*
X141687619Y-113900000D01*
X141725714Y-113938095D01*
X141763809Y-114014285D01*
X141763809Y-114128571D01*
X141725714Y-114204761D01*
X141687619Y-114242857D01*
X141611428Y-114280952D01*
X141306666Y-114280952D01*
X142068571Y-114433333D02*
X142449523Y-114433333D01*
X141992380Y-114661904D02*
X142259047Y-113861904D01*
X142525714Y-114661904D01*
X142716190Y-113861904D02*
X143249523Y-113861904D01*
X142906666Y-114661904D01*
X166649523Y-112121904D02*
X166649523Y-111321904D01*
X166954285Y-111321904D01*
X167030476Y-111360000D01*
X167068571Y-111398095D01*
X167106666Y-111474285D01*
X167106666Y-111588571D01*
X167068571Y-111664761D01*
X167030476Y-111702857D01*
X166954285Y-111740952D01*
X166649523Y-111740952D01*
X167716190Y-111702857D02*
X167830476Y-111740952D01*
X167868571Y-111779047D01*
X167906666Y-111855238D01*
X167906666Y-111969523D01*
X167868571Y-112045714D01*
X167830476Y-112083809D01*
X167754285Y-112121904D01*
X167449523Y-112121904D01*
X167449523Y-111321904D01*
X167716190Y-111321904D01*
X167792380Y-111360000D01*
X167830476Y-111398095D01*
X167868571Y-111474285D01*
X167868571Y-111550476D01*
X167830476Y-111626666D01*
X167792380Y-111664761D01*
X167716190Y-111702857D01*
X167449523Y-111702857D01*
X168173333Y-111321904D02*
X168706666Y-111321904D01*
X168363809Y-112121904D01*
X166205047Y-101161904D02*
X166700285Y-101161904D01*
X166433619Y-101466666D01*
X166547904Y-101466666D01*
X166624095Y-101504761D01*
X166662190Y-101542857D01*
X166700285Y-101619047D01*
X166700285Y-101809523D01*
X166662190Y-101885714D01*
X166624095Y-101923809D01*
X166547904Y-101961904D01*
X166319333Y-101961904D01*
X166243142Y-101923809D01*
X166205047Y-101885714D01*
X167043142Y-101885714D02*
X167081238Y-101923809D01*
X167043142Y-101961904D01*
X167005047Y-101923809D01*
X167043142Y-101885714D01*
X167043142Y-101961904D01*
X167347904Y-101161904D02*
X167843142Y-101161904D01*
X167576476Y-101466666D01*
X167690761Y-101466666D01*
X167766952Y-101504761D01*
X167805047Y-101542857D01*
X167843142Y-101619047D01*
X167843142Y-101809523D01*
X167805047Y-101885714D01*
X167766952Y-101923809D01*
X167690761Y-101961904D01*
X167462190Y-101961904D01*
X167386000Y-101923809D01*
X167347904Y-101885714D01*
X168071714Y-101161904D02*
X168338380Y-101961904D01*
X168605047Y-101161904D01*
X141306666Y-119741904D02*
X141306666Y-118941904D01*
X141611428Y-118941904D01*
X141687619Y-118980000D01*
X141725714Y-119018095D01*
X141763809Y-119094285D01*
X141763809Y-119208571D01*
X141725714Y-119284761D01*
X141687619Y-119322857D01*
X141611428Y-119360952D01*
X141306666Y-119360952D01*
X142068571Y-119513333D02*
X142449523Y-119513333D01*
X141992380Y-119741904D02*
X142259047Y-118941904D01*
X142525714Y-119741904D01*
X142830476Y-119741904D02*
X142982857Y-119741904D01*
X143059047Y-119703809D01*
X143097142Y-119665714D01*
X143173333Y-119551428D01*
X143211428Y-119399047D01*
X143211428Y-119094285D01*
X143173333Y-119018095D01*
X143135238Y-118980000D01*
X143059047Y-118941904D01*
X142906666Y-118941904D01*
X142830476Y-118980000D01*
X142792380Y-119018095D01*
X142754285Y-119094285D01*
X142754285Y-119284761D01*
X142792380Y-119360952D01*
X142830476Y-119399047D01*
X142906666Y-119437142D01*
X143059047Y-119437142D01*
X143135238Y-119399047D01*
X143173333Y-119360952D01*
X143211428Y-119284761D01*
X166649523Y-129901904D02*
X166649523Y-129101904D01*
X166954285Y-129101904D01*
X167030476Y-129140000D01*
X167068571Y-129178095D01*
X167106666Y-129254285D01*
X167106666Y-129368571D01*
X167068571Y-129444761D01*
X167030476Y-129482857D01*
X166954285Y-129520952D01*
X166649523Y-129520952D01*
X167716190Y-129482857D02*
X167830476Y-129520952D01*
X167868571Y-129559047D01*
X167906666Y-129635238D01*
X167906666Y-129749523D01*
X167868571Y-129825714D01*
X167830476Y-129863809D01*
X167754285Y-129901904D01*
X167449523Y-129901904D01*
X167449523Y-129101904D01*
X167716190Y-129101904D01*
X167792380Y-129140000D01*
X167830476Y-129178095D01*
X167868571Y-129254285D01*
X167868571Y-129330476D01*
X167830476Y-129406666D01*
X167792380Y-129444761D01*
X167716190Y-129482857D01*
X167449523Y-129482857D01*
X168401904Y-129101904D02*
X168478095Y-129101904D01*
X168554285Y-129140000D01*
X168592380Y-129178095D01*
X168630476Y-129254285D01*
X168668571Y-129406666D01*
X168668571Y-129597142D01*
X168630476Y-129749523D01*
X168592380Y-129825714D01*
X168554285Y-129863809D01*
X168478095Y-129901904D01*
X168401904Y-129901904D01*
X168325714Y-129863809D01*
X168287619Y-129825714D01*
X168249523Y-129749523D01*
X168211428Y-129597142D01*
X168211428Y-129406666D01*
X168249523Y-129254285D01*
X168287619Y-129178095D01*
X168325714Y-129140000D01*
X168401904Y-129101904D01*
X141306714Y-124821904D02*
X141306714Y-124021904D01*
X141611476Y-124021904D01*
X141687666Y-124060000D01*
X141725761Y-124098095D01*
X141763857Y-124174285D01*
X141763857Y-124288571D01*
X141725761Y-124364761D01*
X141687666Y-124402857D01*
X141611476Y-124440952D01*
X141306714Y-124440952D01*
X142068619Y-124593333D02*
X142449571Y-124593333D01*
X141992428Y-124821904D02*
X142259095Y-124021904D01*
X142525761Y-124821904D01*
X143211476Y-124821904D02*
X142754333Y-124821904D01*
X142982904Y-124821904D02*
X142982904Y-124021904D01*
X142906714Y-124136190D01*
X142830523Y-124212380D01*
X142754333Y-124250476D01*
X143973380Y-124821904D02*
X143516238Y-124821904D01*
X143744809Y-124821904D02*
X143744809Y-124021904D01*
X143668619Y-124136190D01*
X143592428Y-124212380D01*
X143516238Y-124250476D01*
X141282253Y-109627948D02*
X141282253Y-108827948D01*
X141587015Y-108827948D01*
X141663206Y-108866044D01*
X141701301Y-108904139D01*
X141739396Y-108980329D01*
X141739396Y-109094615D01*
X141701301Y-109170805D01*
X141663206Y-109208901D01*
X141587015Y-109246996D01*
X141282253Y-109246996D01*
X142044158Y-109399377D02*
X142425110Y-109399377D01*
X141967967Y-109627948D02*
X142234634Y-108827948D01*
X142501301Y-109627948D01*
X143148920Y-108827948D02*
X142767967Y-108827948D01*
X142729872Y-109208901D01*
X142767967Y-109170805D01*
X142844158Y-109132710D01*
X143034634Y-109132710D01*
X143110825Y-109170805D01*
X143148920Y-109208901D01*
X143187015Y-109285091D01*
X143187015Y-109475567D01*
X143148920Y-109551758D01*
X143110825Y-109589853D01*
X143034634Y-109627948D01*
X142844158Y-109627948D01*
X142767967Y-109589853D01*
X142729872Y-109551758D01*
X141306714Y-127361904D02*
X141306714Y-126561904D01*
X141611476Y-126561904D01*
X141687666Y-126600000D01*
X141725761Y-126638095D01*
X141763857Y-126714285D01*
X141763857Y-126828571D01*
X141725761Y-126904761D01*
X141687666Y-126942857D01*
X141611476Y-126980952D01*
X141306714Y-126980952D01*
X142068619Y-127133333D02*
X142449571Y-127133333D01*
X141992428Y-127361904D02*
X142259095Y-126561904D01*
X142525761Y-127361904D01*
X143211476Y-127361904D02*
X142754333Y-127361904D01*
X142982904Y-127361904D02*
X142982904Y-126561904D01*
X142906714Y-126676190D01*
X142830523Y-126752380D01*
X142754333Y-126790476D01*
X143516238Y-126638095D02*
X143554333Y-126600000D01*
X143630523Y-126561904D01*
X143821000Y-126561904D01*
X143897190Y-126600000D01*
X143935285Y-126638095D01*
X143973380Y-126714285D01*
X143973380Y-126790476D01*
X143935285Y-126904761D01*
X143478142Y-127361904D01*
X143973380Y-127361904D01*
X166649523Y-122281904D02*
X166649523Y-121481904D01*
X166954285Y-121481904D01*
X167030476Y-121520000D01*
X167068571Y-121558095D01*
X167106666Y-121634285D01*
X167106666Y-121748571D01*
X167068571Y-121824761D01*
X167030476Y-121862857D01*
X166954285Y-121900952D01*
X166649523Y-121900952D01*
X167716190Y-121862857D02*
X167830476Y-121900952D01*
X167868571Y-121939047D01*
X167906666Y-122015238D01*
X167906666Y-122129523D01*
X167868571Y-122205714D01*
X167830476Y-122243809D01*
X167754285Y-122281904D01*
X167449523Y-122281904D01*
X167449523Y-121481904D01*
X167716190Y-121481904D01*
X167792380Y-121520000D01*
X167830476Y-121558095D01*
X167868571Y-121634285D01*
X167868571Y-121710476D01*
X167830476Y-121786666D01*
X167792380Y-121824761D01*
X167716190Y-121862857D01*
X167449523Y-121862857D01*
X168173333Y-121481904D02*
X168668571Y-121481904D01*
X168401904Y-121786666D01*
X168516190Y-121786666D01*
X168592380Y-121824761D01*
X168630476Y-121862857D01*
X168668571Y-121939047D01*
X168668571Y-122129523D01*
X168630476Y-122205714D01*
X168592380Y-122243809D01*
X168516190Y-122281904D01*
X168287619Y-122281904D01*
X168211428Y-122243809D01*
X168173333Y-122205714D01*
X166649523Y-119741904D02*
X166649523Y-118941904D01*
X166954285Y-118941904D01*
X167030476Y-118980000D01*
X167068571Y-119018095D01*
X167106666Y-119094285D01*
X167106666Y-119208571D01*
X167068571Y-119284761D01*
X167030476Y-119322857D01*
X166954285Y-119360952D01*
X166649523Y-119360952D01*
X167716190Y-119322857D02*
X167830476Y-119360952D01*
X167868571Y-119399047D01*
X167906666Y-119475238D01*
X167906666Y-119589523D01*
X167868571Y-119665714D01*
X167830476Y-119703809D01*
X167754285Y-119741904D01*
X167449523Y-119741904D01*
X167449523Y-118941904D01*
X167716190Y-118941904D01*
X167792380Y-118980000D01*
X167830476Y-119018095D01*
X167868571Y-119094285D01*
X167868571Y-119170476D01*
X167830476Y-119246666D01*
X167792380Y-119284761D01*
X167716190Y-119322857D01*
X167449523Y-119322857D01*
X168592380Y-119208571D02*
X168592380Y-119741904D01*
X168401904Y-118903809D02*
X168211428Y-119475238D01*
X168706666Y-119475238D01*
D11*
X145072380Y-112046666D02*
X145072380Y-111713333D01*
X145500952Y-112046666D02*
X145500952Y-110999047D01*
X146024761Y-111903809D02*
X146024761Y-110999047D01*
X145691428Y-111903809D02*
X146072380Y-111903809D01*
X145215238Y-112046666D02*
X145215238Y-110999047D01*
X145500952Y-110999047D01*
X145691428Y-111903809D02*
X145691428Y-110999047D01*
X146072380Y-110999047D01*
X145024761Y-112046666D02*
X145596190Y-112046666D01*
X145977142Y-112141904D01*
X145024761Y-111570476D02*
X145024761Y-111808571D01*
X144929523Y-111094285D02*
X145024761Y-111570476D01*
X145072380Y-110713333D02*
X145072380Y-110189523D01*
X145358095Y-110760952D02*
X145358095Y-110189523D01*
X146072380Y-109856190D02*
X146072380Y-109618095D01*
X145643809Y-109903809D02*
X146024761Y-110094285D01*
X145358095Y-110570476D02*
X145881904Y-110713333D01*
X145262857Y-110094285D02*
X145262857Y-109522857D01*
X145691428Y-109522857D01*
X146072380Y-109618095D01*
X144977142Y-109856190D02*
X145358095Y-109856190D01*
X145834285Y-109951428D01*
X145548571Y-110332380D02*
X145834285Y-110189523D01*
X145881904Y-110760952D01*
X145167619Y-108760952D02*
X145167619Y-108141904D01*
X145405714Y-108903809D02*
X145405714Y-108046666D01*
X145881904Y-108380000D02*
X145881904Y-108094285D01*
X146072380Y-108856190D02*
X146072380Y-108046666D01*
X144929523Y-108475238D02*
X145405714Y-108475238D01*
X145405714Y-108332380D02*
X145881904Y-108332380D01*
X145691428Y-108046666D02*
X145881904Y-108094285D01*
X144977142Y-109237142D02*
X145167619Y-109046666D01*
X145453333Y-109284761D02*
X145453333Y-109094285D01*
X145929523Y-109094285D01*
X146024761Y-109284761D01*
X145691428Y-108665714D02*
X145834285Y-108856190D01*
X144977142Y-108713333D02*
X145262857Y-108856190D01*
X145405714Y-108618095D02*
X145739047Y-108713333D01*
X145929523Y-109094285D02*
X146024761Y-108856190D01*
X146072380Y-108570476D01*
X145215238Y-107808571D02*
X145215238Y-107427619D01*
X145643809Y-107284761D02*
X145643809Y-106713333D01*
X145834285Y-107380000D02*
X145834285Y-106570476D01*
X146072380Y-107760952D02*
X146072380Y-107618095D01*
X144929523Y-107570476D02*
X146072380Y-107570476D01*
X145500952Y-106951428D02*
X146072380Y-106951428D01*
X145024761Y-107237142D02*
X145262857Y-106999047D01*
X145453333Y-106618095D01*
X145024761Y-107332380D02*
X145024761Y-106665714D01*
X145262857Y-106903809D01*
X145453333Y-107332380D01*
X145500952Y-107427619D02*
X145596190Y-107808571D01*
D10*
X141306666Y-117201904D02*
X141306666Y-116401904D01*
X141611428Y-116401904D01*
X141687619Y-116440000D01*
X141725714Y-116478095D01*
X141763809Y-116554285D01*
X141763809Y-116668571D01*
X141725714Y-116744761D01*
X141687619Y-116782857D01*
X141611428Y-116820952D01*
X141306666Y-116820952D01*
X142068571Y-116973333D02*
X142449523Y-116973333D01*
X141992380Y-117201904D02*
X142259047Y-116401904D01*
X142525714Y-117201904D01*
X142906666Y-116744761D02*
X142830476Y-116706666D01*
X142792380Y-116668571D01*
X142754285Y-116592380D01*
X142754285Y-116554285D01*
X142792380Y-116478095D01*
X142830476Y-116440000D01*
X142906666Y-116401904D01*
X143059047Y-116401904D01*
X143135238Y-116440000D01*
X143173333Y-116478095D01*
X143211428Y-116554285D01*
X143211428Y-116592380D01*
X143173333Y-116668571D01*
X143135238Y-116706666D01*
X143059047Y-116744761D01*
X142906666Y-116744761D01*
X142830476Y-116782857D01*
X142792380Y-116820952D01*
X142754285Y-116897142D01*
X142754285Y-117049523D01*
X142792380Y-117125714D01*
X142830476Y-117163809D01*
X142906666Y-117201904D01*
X143059047Y-117201904D01*
X143135238Y-117163809D01*
X143173333Y-117125714D01*
X143211428Y-117049523D01*
X143211428Y-116897142D01*
X143173333Y-116820952D01*
X143135238Y-116782857D01*
X143059047Y-116744761D01*
X166649523Y-117201904D02*
X166649523Y-116401904D01*
X166954285Y-116401904D01*
X167030476Y-116440000D01*
X167068571Y-116478095D01*
X167106666Y-116554285D01*
X167106666Y-116668571D01*
X167068571Y-116744761D01*
X167030476Y-116782857D01*
X166954285Y-116820952D01*
X166649523Y-116820952D01*
X167716190Y-116782857D02*
X167830476Y-116820952D01*
X167868571Y-116859047D01*
X167906666Y-116935238D01*
X167906666Y-117049523D01*
X167868571Y-117125714D01*
X167830476Y-117163809D01*
X167754285Y-117201904D01*
X167449523Y-117201904D01*
X167449523Y-116401904D01*
X167716190Y-116401904D01*
X167792380Y-116440000D01*
X167830476Y-116478095D01*
X167868571Y-116554285D01*
X167868571Y-116630476D01*
X167830476Y-116706666D01*
X167792380Y-116744761D01*
X167716190Y-116782857D01*
X167449523Y-116782857D01*
X168630476Y-116401904D02*
X168249523Y-116401904D01*
X168211428Y-116782857D01*
X168249523Y-116744761D01*
X168325714Y-116706666D01*
X168516190Y-116706666D01*
X168592380Y-116744761D01*
X168630476Y-116782857D01*
X168668571Y-116859047D01*
X168668571Y-117049523D01*
X168630476Y-117125714D01*
X168592380Y-117163809D01*
X168516190Y-117201904D01*
X168325714Y-117201904D01*
X168249523Y-117163809D01*
X168211428Y-117125714D01*
X167005507Y-98650017D02*
X166929316Y-98611921D01*
X166815031Y-98611921D01*
X166700745Y-98650017D01*
X166624554Y-98726207D01*
X166586459Y-98802397D01*
X166548364Y-98954778D01*
X166548364Y-99069064D01*
X166586459Y-99221445D01*
X166624554Y-99297636D01*
X166700745Y-99373826D01*
X166815031Y-99411921D01*
X166891221Y-99411921D01*
X167005507Y-99373826D01*
X167043602Y-99335731D01*
X167043602Y-99069064D01*
X166891221Y-99069064D01*
X167386459Y-99411921D02*
X167386459Y-98611921D01*
X167843602Y-99411921D01*
X167843602Y-98611921D01*
X168224554Y-99411921D02*
X168224554Y-98611921D01*
X168415031Y-98611921D01*
X168529316Y-98650017D01*
X168605507Y-98726207D01*
X168643602Y-98802397D01*
X168681697Y-98954778D01*
X168681697Y-99069064D01*
X168643602Y-99221445D01*
X168605507Y-99297636D01*
X168529316Y-99373826D01*
X168415031Y-99411921D01*
X168224554Y-99411921D01*
X141306714Y-122281904D02*
X141306714Y-121481904D01*
X141611476Y-121481904D01*
X141687666Y-121520000D01*
X141725761Y-121558095D01*
X141763857Y-121634285D01*
X141763857Y-121748571D01*
X141725761Y-121824761D01*
X141687666Y-121862857D01*
X141611476Y-121900952D01*
X141306714Y-121900952D01*
X142068619Y-122053333D02*
X142449571Y-122053333D01*
X141992428Y-122281904D02*
X142259095Y-121481904D01*
X142525761Y-122281904D01*
X143211476Y-122281904D02*
X142754333Y-122281904D01*
X142982904Y-122281904D02*
X142982904Y-121481904D01*
X142906714Y-121596190D01*
X142830523Y-121672380D01*
X142754333Y-121710476D01*
X143706714Y-121481904D02*
X143782904Y-121481904D01*
X143859095Y-121520000D01*
X143897190Y-121558095D01*
X143935285Y-121634285D01*
X143973380Y-121786666D01*
X143973380Y-121977142D01*
X143935285Y-122129523D01*
X143897190Y-122205714D01*
X143859095Y-122243809D01*
X143782904Y-122281904D01*
X143706714Y-122281904D01*
X143630523Y-122243809D01*
X143592428Y-122205714D01*
X143554333Y-122129523D01*
X143516238Y-121977142D01*
X143516238Y-121786666D01*
X143554333Y-121634285D01*
X143592428Y-121558095D01*
X143630523Y-121520000D01*
X143706714Y-121481904D01*
X180461904Y-116763333D02*
X180461904Y-116268095D01*
X180766666Y-116534761D01*
X180766666Y-116420476D01*
X180804761Y-116344285D01*
X180842857Y-116306190D01*
X180919047Y-116268095D01*
X181109523Y-116268095D01*
X181185714Y-116306190D01*
X181223809Y-116344285D01*
X181261904Y-116420476D01*
X181261904Y-116649047D01*
X181223809Y-116725238D01*
X181185714Y-116763333D01*
X180461904Y-115582380D02*
X180461904Y-115734761D01*
X180500000Y-115810952D01*
X180538095Y-115849047D01*
X180652380Y-115925238D01*
X180804761Y-115963333D01*
X181109523Y-115963333D01*
X181185714Y-115925238D01*
X181223809Y-115887142D01*
X181261904Y-115810952D01*
X181261904Y-115658571D01*
X181223809Y-115582380D01*
X181185714Y-115544285D01*
X181109523Y-115506190D01*
X180919047Y-115506190D01*
X180842857Y-115544285D01*
X180804761Y-115582380D01*
X180766666Y-115658571D01*
X180766666Y-115810952D01*
X180804761Y-115887142D01*
X180842857Y-115925238D01*
X180919047Y-115963333D01*
X181185714Y-115163333D02*
X181223809Y-115125238D01*
X181261904Y-115163333D01*
X181223809Y-115201428D01*
X181185714Y-115163333D01*
X181261904Y-115163333D01*
X180461904Y-114401428D02*
X180461904Y-114782380D01*
X180842857Y-114820476D01*
X180804761Y-114782380D01*
X180766666Y-114706190D01*
X180766666Y-114515714D01*
X180804761Y-114439523D01*
X180842857Y-114401428D01*
X180919047Y-114363333D01*
X181109523Y-114363333D01*
X181185714Y-114401428D01*
X181223809Y-114439523D01*
X181261904Y-114515714D01*
X181261904Y-114706190D01*
X181223809Y-114782380D01*
X181185714Y-114820476D01*
X180804761Y-113906190D02*
X180766666Y-113982380D01*
X180728571Y-114020476D01*
X180652380Y-114058571D01*
X180614285Y-114058571D01*
X180538095Y-114020476D01*
X180500000Y-113982380D01*
X180461904Y-113906190D01*
X180461904Y-113753809D01*
X180500000Y-113677619D01*
X180538095Y-113639523D01*
X180614285Y-113601428D01*
X180652380Y-113601428D01*
X180728571Y-113639523D01*
X180766666Y-113677619D01*
X180804761Y-113753809D01*
X180804761Y-113906190D01*
X180842857Y-113982380D01*
X180880952Y-114020476D01*
X180957142Y-114058571D01*
X181109523Y-114058571D01*
X181185714Y-114020476D01*
X181223809Y-113982380D01*
X181261904Y-113906190D01*
X181261904Y-113753809D01*
X181223809Y-113677619D01*
X181185714Y-113639523D01*
X181109523Y-113601428D01*
X180957142Y-113601428D01*
X180880952Y-113639523D01*
X180842857Y-113677619D01*
X180804761Y-113753809D01*
X180461904Y-113106190D02*
X180461904Y-113030000D01*
X180500000Y-112953809D01*
X180538095Y-112915714D01*
X180614285Y-112877619D01*
X180766666Y-112839523D01*
X180957142Y-112839523D01*
X181109523Y-112877619D01*
X181185714Y-112915714D01*
X181223809Y-112953809D01*
X181261904Y-113030000D01*
X181261904Y-113106190D01*
X181223809Y-113182380D01*
X181185714Y-113220476D01*
X181109523Y-113258571D01*
X180957142Y-113296666D01*
X180766666Y-113296666D01*
X180614285Y-113258571D01*
X180538095Y-113220476D01*
X180500000Y-113182380D01*
X180461904Y-113106190D01*
X180461904Y-112344285D02*
X180461904Y-112268095D01*
X180500000Y-112191904D01*
X180538095Y-112153809D01*
X180614285Y-112115714D01*
X180766666Y-112077619D01*
X180957142Y-112077619D01*
X181109523Y-112115714D01*
X181185714Y-112153809D01*
X181223809Y-112191904D01*
X181261904Y-112268095D01*
X181261904Y-112344285D01*
X181223809Y-112420476D01*
X181185714Y-112458571D01*
X181109523Y-112496666D01*
X180957142Y-112534761D01*
X180766666Y-112534761D01*
X180614285Y-112496666D01*
X180538095Y-112458571D01*
X180500000Y-112420476D01*
X180461904Y-112344285D01*
X181261904Y-111125238D02*
X180728571Y-111125238D01*
X180804761Y-111125238D02*
X180766666Y-111087142D01*
X180728571Y-111010952D01*
X180728571Y-110896666D01*
X180766666Y-110820476D01*
X180842857Y-110782380D01*
X181261904Y-110782380D01*
X180842857Y-110782380D02*
X180766666Y-110744285D01*
X180728571Y-110668095D01*
X180728571Y-110553809D01*
X180766666Y-110477619D01*
X180842857Y-110439523D01*
X181261904Y-110439523D01*
X181261904Y-110058571D02*
X180728571Y-110058571D01*
X180804761Y-110058571D02*
X180766666Y-110020476D01*
X180728571Y-109944285D01*
X180728571Y-109830000D01*
X180766666Y-109753809D01*
X180842857Y-109715714D01*
X181261904Y-109715714D01*
X180842857Y-109715714D02*
X180766666Y-109677619D01*
X180728571Y-109601428D01*
X180728571Y-109487142D01*
X180766666Y-109410952D01*
X180842857Y-109372857D01*
X181261904Y-109372857D01*
X172650000Y-131320000D02*
X182386420Y-131320000D01*
X172650000Y-94740000D02*
X182386420Y-94740000D01*
X181800000Y-131320000D02*
X181800000Y-94740000D01*
X181800000Y-131320000D02*
X181800000Y-94740000D01*
X181800000Y-131320000D02*
X182386421Y-130193496D01*
X181800000Y-131320000D02*
X181213579Y-130193496D01*
X181800000Y-94740000D02*
X181213579Y-95866504D01*
X181800000Y-94740000D02*
X182386421Y-95866504D01*
X151206666Y-138561904D02*
X151701904Y-138561904D01*
X151435238Y-138866666D01*
X151549523Y-138866666D01*
X151625714Y-138904761D01*
X151663809Y-138942857D01*
X151701904Y-139019047D01*
X151701904Y-139209523D01*
X151663809Y-139285714D01*
X151625714Y-139323809D01*
X151549523Y-139361904D01*
X151320952Y-139361904D01*
X151244761Y-139323809D01*
X151206666Y-139285714D01*
X152387619Y-138828571D02*
X152387619Y-139361904D01*
X152197142Y-138523809D02*
X152006666Y-139095238D01*
X152501904Y-139095238D01*
X152806666Y-139285714D02*
X152844761Y-139323809D01*
X152806666Y-139361904D01*
X152768571Y-139323809D01*
X152806666Y-139285714D01*
X152806666Y-139361904D01*
X153530476Y-138828571D02*
X153530476Y-139361904D01*
X153340000Y-138523809D02*
X153149523Y-139095238D01*
X153644761Y-139095238D01*
X153911428Y-138638095D02*
X153949523Y-138600000D01*
X154025714Y-138561904D01*
X154216190Y-138561904D01*
X154292380Y-138600000D01*
X154330476Y-138638095D01*
X154368571Y-138714285D01*
X154368571Y-138790476D01*
X154330476Y-138904761D01*
X153873333Y-139361904D01*
X154368571Y-139361904D01*
X154863809Y-138561904D02*
X154940000Y-138561904D01*
X155016190Y-138600000D01*
X155054285Y-138638095D01*
X155092380Y-138714285D01*
X155130476Y-138866666D01*
X155130476Y-139057142D01*
X155092380Y-139209523D01*
X155054285Y-139285714D01*
X155016190Y-139323809D01*
X154940000Y-139361904D01*
X154863809Y-139361904D01*
X154787619Y-139323809D01*
X154749523Y-139285714D01*
X154711428Y-139209523D01*
X154673333Y-139057142D01*
X154673333Y-138866666D01*
X154711428Y-138714285D01*
X154749523Y-138638095D01*
X154787619Y-138600000D01*
X154863809Y-138561904D01*
X155625714Y-138561904D02*
X155701904Y-138561904D01*
X155778095Y-138600000D01*
X155816190Y-138638095D01*
X155854285Y-138714285D01*
X155892380Y-138866666D01*
X155892380Y-139057142D01*
X155854285Y-139209523D01*
X155816190Y-139285714D01*
X155778095Y-139323809D01*
X155701904Y-139361904D01*
X155625714Y-139361904D01*
X155549523Y-139323809D01*
X155511428Y-139285714D01*
X155473333Y-139209523D01*
X155435238Y-139057142D01*
X155435238Y-138866666D01*
X155473333Y-138714285D01*
X155511428Y-138638095D01*
X155549523Y-138600000D01*
X155625714Y-138561904D01*
X156844761Y-139361904D02*
X156844761Y-138828571D01*
X156844761Y-138904761D02*
X156882857Y-138866666D01*
X156959047Y-138828571D01*
X157073333Y-138828571D01*
X157149523Y-138866666D01*
X157187619Y-138942857D01*
X157187619Y-139361904D01*
X157187619Y-138942857D02*
X157225714Y-138866666D01*
X157301904Y-138828571D01*
X157416190Y-138828571D01*
X157492380Y-138866666D01*
X157530476Y-138942857D01*
X157530476Y-139361904D01*
X157911428Y-139361904D02*
X157911428Y-138828571D01*
X157911428Y-138904761D02*
X157949523Y-138866666D01*
X158025714Y-138828571D01*
X158140000Y-138828571D01*
X158216190Y-138866666D01*
X158254285Y-138942857D01*
X158254285Y-139361904D01*
X158254285Y-138942857D02*
X158292380Y-138866666D01*
X158368571Y-138828571D01*
X158482857Y-138828571D01*
X158559047Y-138866666D01*
X158597142Y-138942857D01*
X158597142Y-139361904D01*
X137730000Y-131820000D02*
X137730000Y-140486420D01*
X172150000Y-131820000D02*
X172150000Y-140486420D01*
X137730000Y-139900000D02*
X172150000Y-139900000D01*
X137730000Y-139900000D02*
X172150000Y-139900000D01*
X137730000Y-139900000D02*
X138856504Y-140486421D01*
X137730000Y-139900000D02*
X138856504Y-139313579D01*
X172150000Y-139900000D02*
X171023496Y-139313579D01*
X172150000Y-139900000D02*
X171023496Y-140486421D01*
%TO.C,R3*%
X164476666Y-98301904D02*
X164210000Y-97920952D01*
X164019523Y-98301904D02*
X164019523Y-97501904D01*
X164324285Y-97501904D01*
X164400476Y-97540000D01*
X164438571Y-97578095D01*
X164476666Y-97654285D01*
X164476666Y-97768571D01*
X164438571Y-97844761D01*
X164400476Y-97882857D01*
X164324285Y-97920952D01*
X164019523Y-97920952D01*
X164743333Y-97501904D02*
X165238571Y-97501904D01*
X164971904Y-97806666D01*
X165086190Y-97806666D01*
X165162380Y-97844761D01*
X165200476Y-97882857D01*
X165238571Y-97959047D01*
X165238571Y-98149523D01*
X165200476Y-98225714D01*
X165162380Y-98263809D01*
X165086190Y-98301904D01*
X164857619Y-98301904D01*
X164781428Y-98263809D01*
X164743333Y-98225714D01*
%TO.C,C5*%
X152585714Y-107533333D02*
X152623809Y-107571428D01*
X152661904Y-107685714D01*
X152661904Y-107761904D01*
X152623809Y-107876190D01*
X152547619Y-107952380D01*
X152471428Y-107990476D01*
X152319047Y-108028571D01*
X152204761Y-108028571D01*
X152052380Y-107990476D01*
X151976190Y-107952380D01*
X151900000Y-107876190D01*
X151861904Y-107761904D01*
X151861904Y-107685714D01*
X151900000Y-107571428D01*
X151938095Y-107533333D01*
X151861904Y-106809523D02*
X151861904Y-107190476D01*
X152242857Y-107228571D01*
X152204761Y-107190476D01*
X152166666Y-107114285D01*
X152166666Y-106923809D01*
X152204761Y-106847619D01*
X152242857Y-106809523D01*
X152319047Y-106771428D01*
X152509523Y-106771428D01*
X152585714Y-106809523D01*
X152623809Y-106847619D01*
X152661904Y-106923809D01*
X152661904Y-107114285D01*
X152623809Y-107190476D01*
X152585714Y-107228571D01*
%TO.C,F1*%
X162193333Y-97542857D02*
X161926666Y-97542857D01*
X161926666Y-97961904D02*
X161926666Y-97161904D01*
X162307619Y-97161904D01*
X163031428Y-97961904D02*
X162574285Y-97961904D01*
X162802857Y-97961904D02*
X162802857Y-97161904D01*
X162726666Y-97276190D01*
X162650476Y-97352380D01*
X162574285Y-97390476D01*
%TO.C,C4*%
X152706666Y-123925714D02*
X152668571Y-123963809D01*
X152554285Y-124001904D01*
X152478095Y-124001904D01*
X152363809Y-123963809D01*
X152287619Y-123887619D01*
X152249523Y-123811428D01*
X152211428Y-123659047D01*
X152211428Y-123544761D01*
X152249523Y-123392380D01*
X152287619Y-123316190D01*
X152363809Y-123240000D01*
X152478095Y-123201904D01*
X152554285Y-123201904D01*
X152668571Y-123240000D01*
X152706666Y-123278095D01*
X153392380Y-123468571D02*
X153392380Y-124001904D01*
X153201904Y-123163809D02*
X153011428Y-123735238D01*
X153506666Y-123735238D01*
%TO.C,U3*%
X148825476Y-118331904D02*
X148825476Y-118979523D01*
X148863571Y-119055714D01*
X148901666Y-119093809D01*
X148977857Y-119131904D01*
X149130238Y-119131904D01*
X149206428Y-119093809D01*
X149244523Y-119055714D01*
X149282619Y-118979523D01*
X149282619Y-118331904D01*
X149587380Y-118331904D02*
X150082619Y-118331904D01*
X149815952Y-118636666D01*
X149930238Y-118636666D01*
X150006428Y-118674761D01*
X150044523Y-118712857D01*
X150082619Y-118789047D01*
X150082619Y-118979523D01*
X150044523Y-119055714D01*
X150006428Y-119093809D01*
X149930238Y-119131904D01*
X149701666Y-119131904D01*
X149625476Y-119093809D01*
X149587380Y-119055714D01*
%TO.C,R1*%
X150971904Y-107533333D02*
X150590952Y-107800000D01*
X150971904Y-107990476D02*
X150171904Y-107990476D01*
X150171904Y-107685714D01*
X150210000Y-107609523D01*
X150248095Y-107571428D01*
X150324285Y-107533333D01*
X150438571Y-107533333D01*
X150514761Y-107571428D01*
X150552857Y-107609523D01*
X150590952Y-107685714D01*
X150590952Y-107990476D01*
X150971904Y-106771428D02*
X150971904Y-107228571D01*
X150971904Y-107000000D02*
X150171904Y-107000000D01*
X150286190Y-107076190D01*
X150362380Y-107152380D01*
X150400476Y-107228571D01*
%TO.C,C8*%
X156666666Y-112337714D02*
X156628571Y-112375809D01*
X156514285Y-112413904D01*
X156438095Y-112413904D01*
X156323809Y-112375809D01*
X156247619Y-112299619D01*
X156209523Y-112223428D01*
X156171428Y-112071047D01*
X156171428Y-111956761D01*
X156209523Y-111804380D01*
X156247619Y-111728190D01*
X156323809Y-111652000D01*
X156438095Y-111613904D01*
X156514285Y-111613904D01*
X156628571Y-111652000D01*
X156666666Y-111690095D01*
X157123809Y-111956761D02*
X157047619Y-111918666D01*
X157009523Y-111880571D01*
X156971428Y-111804380D01*
X156971428Y-111766285D01*
X157009523Y-111690095D01*
X157047619Y-111652000D01*
X157123809Y-111613904D01*
X157276190Y-111613904D01*
X157352380Y-111652000D01*
X157390476Y-111690095D01*
X157428571Y-111766285D01*
X157428571Y-111804380D01*
X157390476Y-111880571D01*
X157352380Y-111918666D01*
X157276190Y-111956761D01*
X157123809Y-111956761D01*
X157047619Y-111994857D01*
X157009523Y-112032952D01*
X156971428Y-112109142D01*
X156971428Y-112261523D01*
X157009523Y-112337714D01*
X157047619Y-112375809D01*
X157123809Y-112413904D01*
X157276190Y-112413904D01*
X157352380Y-112375809D01*
X157390476Y-112337714D01*
X157428571Y-112261523D01*
X157428571Y-112109142D01*
X157390476Y-112032952D01*
X157352380Y-111994857D01*
X157276190Y-111956761D01*
%TO.C,C7*%
X161056666Y-121185714D02*
X161018571Y-121223809D01*
X160904285Y-121261904D01*
X160828095Y-121261904D01*
X160713809Y-121223809D01*
X160637619Y-121147619D01*
X160599523Y-121071428D01*
X160561428Y-120919047D01*
X160561428Y-120804761D01*
X160599523Y-120652380D01*
X160637619Y-120576190D01*
X160713809Y-120500000D01*
X160828095Y-120461904D01*
X160904285Y-120461904D01*
X161018571Y-120500000D01*
X161056666Y-120538095D01*
X161323333Y-120461904D02*
X161856666Y-120461904D01*
X161513809Y-121261904D01*
%TO.C,USB1*%
X153554571Y-98143904D02*
X153554571Y-98791523D01*
X153592666Y-98867714D01*
X153630761Y-98905809D01*
X153706952Y-98943904D01*
X153859333Y-98943904D01*
X153935523Y-98905809D01*
X153973619Y-98867714D01*
X154011714Y-98791523D01*
X154011714Y-98143904D01*
X154354571Y-98905809D02*
X154468857Y-98943904D01*
X154659333Y-98943904D01*
X154735523Y-98905809D01*
X154773619Y-98867714D01*
X154811714Y-98791523D01*
X154811714Y-98715333D01*
X154773619Y-98639142D01*
X154735523Y-98601047D01*
X154659333Y-98562952D01*
X154506952Y-98524857D01*
X154430761Y-98486761D01*
X154392666Y-98448666D01*
X154354571Y-98372476D01*
X154354571Y-98296285D01*
X154392666Y-98220095D01*
X154430761Y-98182000D01*
X154506952Y-98143904D01*
X154697428Y-98143904D01*
X154811714Y-98182000D01*
X155421238Y-98524857D02*
X155535523Y-98562952D01*
X155573619Y-98601047D01*
X155611714Y-98677238D01*
X155611714Y-98791523D01*
X155573619Y-98867714D01*
X155535523Y-98905809D01*
X155459333Y-98943904D01*
X155154571Y-98943904D01*
X155154571Y-98143904D01*
X155421238Y-98143904D01*
X155497428Y-98182000D01*
X155535523Y-98220095D01*
X155573619Y-98296285D01*
X155573619Y-98372476D01*
X155535523Y-98448666D01*
X155497428Y-98486761D01*
X155421238Y-98524857D01*
X155154571Y-98524857D01*
X156373619Y-98943904D02*
X155916476Y-98943904D01*
X156145047Y-98943904D02*
X156145047Y-98143904D01*
X156068857Y-98258190D01*
X155992666Y-98334380D01*
X155916476Y-98372476D01*
D12*
%TO.C,*%
D10*
%TO.C,C9*%
X159467514Y-107485333D02*
X159505609Y-107523428D01*
X159543704Y-107637714D01*
X159543704Y-107713904D01*
X159505609Y-107828190D01*
X159429419Y-107904380D01*
X159353228Y-107942476D01*
X159200847Y-107980571D01*
X159086561Y-107980571D01*
X158934180Y-107942476D01*
X158857990Y-107904380D01*
X158781800Y-107828190D01*
X158743704Y-107713904D01*
X158743704Y-107637714D01*
X158781800Y-107523428D01*
X158819895Y-107485333D01*
X159543704Y-107104380D02*
X159543704Y-106952000D01*
X159505609Y-106875809D01*
X159467514Y-106837714D01*
X159353228Y-106761523D01*
X159200847Y-106723428D01*
X158896085Y-106723428D01*
X158819895Y-106761523D01*
X158781800Y-106799619D01*
X158743704Y-106875809D01*
X158743704Y-107028190D01*
X158781800Y-107104380D01*
X158819895Y-107142476D01*
X158896085Y-107180571D01*
X159086561Y-107180571D01*
X159162752Y-107142476D01*
X159200847Y-107104380D01*
X159238942Y-107028190D01*
X159238942Y-106875809D01*
X159200847Y-106799619D01*
X159162752Y-106761523D01*
X159086561Y-106723428D01*
%TO.C,R2*%
X157881904Y-107513333D02*
X157500952Y-107780000D01*
X157881904Y-107970476D02*
X157081904Y-107970476D01*
X157081904Y-107665714D01*
X157120000Y-107589523D01*
X157158095Y-107551428D01*
X157234285Y-107513333D01*
X157348571Y-107513333D01*
X157424761Y-107551428D01*
X157462857Y-107589523D01*
X157500952Y-107665714D01*
X157500952Y-107970476D01*
X157158095Y-107208571D02*
X157120000Y-107170476D01*
X157081904Y-107094285D01*
X157081904Y-106903809D01*
X157120000Y-106827619D01*
X157158095Y-106789523D01*
X157234285Y-106751428D01*
X157310476Y-106751428D01*
X157424761Y-106789523D01*
X157881904Y-107246666D01*
X157881904Y-106751428D01*
%TO.C,D1*%
X164159523Y-103441904D02*
X164159523Y-102641904D01*
X164350000Y-102641904D01*
X164464285Y-102680000D01*
X164540476Y-102756190D01*
X164578571Y-102832380D01*
X164616666Y-102984761D01*
X164616666Y-103099047D01*
X164578571Y-103251428D01*
X164540476Y-103327619D01*
X164464285Y-103403809D01*
X164350000Y-103441904D01*
X164159523Y-103441904D01*
X165378571Y-103441904D02*
X164921428Y-103441904D01*
X165150000Y-103441904D02*
X165150000Y-102641904D01*
X165073809Y-102756190D01*
X164997619Y-102832380D01*
X164921428Y-102870476D01*
%TO.C,C2*%
X145746666Y-102985714D02*
X145708571Y-103023809D01*
X145594285Y-103061904D01*
X145518095Y-103061904D01*
X145403809Y-103023809D01*
X145327619Y-102947619D01*
X145289523Y-102871428D01*
X145251428Y-102719047D01*
X145251428Y-102604761D01*
X145289523Y-102452380D01*
X145327619Y-102376190D01*
X145403809Y-102300000D01*
X145518095Y-102261904D01*
X145594285Y-102261904D01*
X145708571Y-102300000D01*
X145746666Y-102338095D01*
X146051428Y-102338095D02*
X146089523Y-102300000D01*
X146165714Y-102261904D01*
X146356190Y-102261904D01*
X146432380Y-102300000D01*
X146470476Y-102338095D01*
X146508571Y-102414285D01*
X146508571Y-102490476D01*
X146470476Y-102604761D01*
X146013333Y-103061904D01*
X146508571Y-103061904D01*
%TO.C,C6*%
X156666666Y-113605714D02*
X156628571Y-113643809D01*
X156514285Y-113681904D01*
X156438095Y-113681904D01*
X156323809Y-113643809D01*
X156247619Y-113567619D01*
X156209523Y-113491428D01*
X156171428Y-113339047D01*
X156171428Y-113224761D01*
X156209523Y-113072380D01*
X156247619Y-112996190D01*
X156323809Y-112920000D01*
X156438095Y-112881904D01*
X156514285Y-112881904D01*
X156628571Y-112920000D01*
X156666666Y-112958095D01*
X157352380Y-112881904D02*
X157200000Y-112881904D01*
X157123809Y-112920000D01*
X157085714Y-112958095D01*
X157009523Y-113072380D01*
X156971428Y-113224761D01*
X156971428Y-113529523D01*
X157009523Y-113605714D01*
X157047619Y-113643809D01*
X157123809Y-113681904D01*
X157276190Y-113681904D01*
X157352380Y-113643809D01*
X157390476Y-113605714D01*
X157428571Y-113529523D01*
X157428571Y-113339047D01*
X157390476Y-113262857D01*
X157352380Y-113224761D01*
X157276190Y-113186666D01*
X157123809Y-113186666D01*
X157047619Y-113224761D01*
X157009523Y-113262857D01*
X156971428Y-113339047D01*
%TO.C,C11*%
X163625714Y-121695714D02*
X163587619Y-121733809D01*
X163473333Y-121771904D01*
X163397142Y-121771904D01*
X163282857Y-121733809D01*
X163206666Y-121657619D01*
X163168571Y-121581428D01*
X163130476Y-121429047D01*
X163130476Y-121314761D01*
X163168571Y-121162380D01*
X163206666Y-121086190D01*
X163282857Y-121010000D01*
X163397142Y-120971904D01*
X163473333Y-120971904D01*
X163587619Y-121010000D01*
X163625714Y-121048095D01*
X164387619Y-121771904D02*
X163930476Y-121771904D01*
X164159047Y-121771904D02*
X164159047Y-120971904D01*
X164082857Y-121086190D01*
X164006666Y-121162380D01*
X163930476Y-121200476D01*
X165149523Y-121771904D02*
X164692380Y-121771904D01*
X164920952Y-121771904D02*
X164920952Y-120971904D01*
X164844761Y-121086190D01*
X164768571Y-121162380D01*
X164692380Y-121200476D01*
%TO.C,Y1*%
X157549047Y-123390952D02*
X157549047Y-123771904D01*
X157282380Y-122971904D02*
X157549047Y-123390952D01*
X157815714Y-122971904D01*
X158501428Y-123771904D02*
X158044285Y-123771904D01*
X158272857Y-123771904D02*
X158272857Y-122971904D01*
X158196666Y-123086190D01*
X158120476Y-123162380D01*
X158044285Y-123200476D01*
%TO.C,C10*%
X163665714Y-125625714D02*
X163627619Y-125663809D01*
X163513333Y-125701904D01*
X163437142Y-125701904D01*
X163322857Y-125663809D01*
X163246666Y-125587619D01*
X163208571Y-125511428D01*
X163170476Y-125359047D01*
X163170476Y-125244761D01*
X163208571Y-125092380D01*
X163246666Y-125016190D01*
X163322857Y-124940000D01*
X163437142Y-124901904D01*
X163513333Y-124901904D01*
X163627619Y-124940000D01*
X163665714Y-124978095D01*
X164427619Y-125701904D02*
X163970476Y-125701904D01*
X164199047Y-125701904D02*
X164199047Y-124901904D01*
X164122857Y-125016190D01*
X164046666Y-125092380D01*
X163970476Y-125130476D01*
X164922857Y-124901904D02*
X164999047Y-124901904D01*
X165075238Y-124940000D01*
X165113333Y-124978095D01*
X165151428Y-125054285D01*
X165189523Y-125206666D01*
X165189523Y-125397142D01*
X165151428Y-125549523D01*
X165113333Y-125625714D01*
X165075238Y-125663809D01*
X164999047Y-125701904D01*
X164922857Y-125701904D01*
X164846666Y-125663809D01*
X164808571Y-125625714D01*
X164770476Y-125549523D01*
X164732380Y-125397142D01*
X164732380Y-125206666D01*
X164770476Y-125054285D01*
X164808571Y-124978095D01*
X164846666Y-124940000D01*
X164922857Y-124901904D01*
%TO.C,C1*%
X145716666Y-97475714D02*
X145678571Y-97513809D01*
X145564285Y-97551904D01*
X145488095Y-97551904D01*
X145373809Y-97513809D01*
X145297619Y-97437619D01*
X145259523Y-97361428D01*
X145221428Y-97209047D01*
X145221428Y-97094761D01*
X145259523Y-96942380D01*
X145297619Y-96866190D01*
X145373809Y-96790000D01*
X145488095Y-96751904D01*
X145564285Y-96751904D01*
X145678571Y-96790000D01*
X145716666Y-96828095D01*
X146478571Y-97551904D02*
X146021428Y-97551904D01*
X146250000Y-97551904D02*
X146250000Y-96751904D01*
X146173809Y-96866190D01*
X146097619Y-96942380D01*
X146021428Y-96980476D01*
%TO.C,U1*%
X146491476Y-99510904D02*
X146491476Y-100158523D01*
X146529571Y-100234714D01*
X146567666Y-100272809D01*
X146643857Y-100310904D01*
X146796238Y-100310904D01*
X146872428Y-100272809D01*
X146910523Y-100234714D01*
X146948619Y-100158523D01*
X146948619Y-99510904D01*
X147748619Y-100310904D02*
X147291476Y-100310904D01*
X147520047Y-100310904D02*
X147520047Y-99510904D01*
X147443857Y-99625190D01*
X147367666Y-99701380D01*
X147291476Y-99739476D01*
%TO.C,C3*%
X148823333Y-111425714D02*
X148861428Y-111463809D01*
X148975714Y-111501904D01*
X149051904Y-111501904D01*
X149166190Y-111463809D01*
X149242380Y-111387619D01*
X149280476Y-111311428D01*
X149318571Y-111159047D01*
X149318571Y-111044761D01*
X149280476Y-110892380D01*
X149242380Y-110816190D01*
X149166190Y-110740000D01*
X149051904Y-110701904D01*
X148975714Y-110701904D01*
X148861428Y-110740000D01*
X148823333Y-110778095D01*
X148556666Y-110701904D02*
X148061428Y-110701904D01*
X148328095Y-111006666D01*
X148213809Y-111006666D01*
X148137619Y-111044761D01*
X148099523Y-111082857D01*
X148061428Y-111159047D01*
X148061428Y-111349523D01*
X148099523Y-111425714D01*
X148137619Y-111463809D01*
X148213809Y-111501904D01*
X148442380Y-111501904D01*
X148518571Y-111463809D01*
X148556666Y-111425714D01*
D13*
%TO.C,R3*%
X164783641Y-99410000D02*
X164476359Y-99410000D01*
X164783641Y-98650000D02*
X164476359Y-98650000D01*
%TO.C,C5*%
X152660000Y-109192164D02*
X152660000Y-109407836D01*
X151940000Y-109192164D02*
X151940000Y-109407836D01*
%TO.C,F1*%
X161470000Y-101022064D02*
X161470000Y-99817936D01*
X163290000Y-101022064D02*
X163290000Y-99817936D01*
%TO.C,C4*%
X154977836Y-123340000D02*
X154762164Y-123340000D01*
X154977836Y-124060000D02*
X154762164Y-124060000D01*
D14*
%TO.C,U3*%
X151557305Y-118909408D02*
X151287898Y-118640000D01*
X151287898Y-118640000D02*
X151557305Y-118370592D01*
X158472102Y-118640000D02*
X158202695Y-118909408D01*
X155149408Y-121962695D02*
X154880000Y-122232102D01*
X154880000Y-115047898D02*
X155149408Y-115317305D01*
X154610592Y-115317305D02*
X154880000Y-115047898D01*
X158202695Y-118370592D02*
X158472102Y-118640000D01*
X154880000Y-122232102D02*
X154610592Y-121962695D01*
X155007001Y-122411708D02*
G75*
G03*
X155007001Y-122411708I-127001J0D01*
G01*
D13*
%TO.C,R1*%
X150220000Y-109146359D02*
X150220000Y-109453641D01*
X150980000Y-109146359D02*
X150980000Y-109453641D01*
%TO.C,J3*%
X160070000Y-128210000D02*
X160070000Y-129540000D01*
X149790000Y-128210000D02*
X149790000Y-130870000D01*
X157470000Y-130870000D02*
X149790000Y-130870000D01*
X157470000Y-128210000D02*
X157470000Y-130870000D01*
X157470000Y-128210000D02*
X149790000Y-128210000D01*
X158740000Y-128210000D02*
X160070000Y-128210000D01*
%TO.C,C8*%
X154907836Y-112470000D02*
X154692164Y-112470000D01*
X154907836Y-111750000D02*
X154692164Y-111750000D01*
%TO.C,C7*%
X159577836Y-121230000D02*
X159362164Y-121230000D01*
X159577836Y-120510000D02*
X159362164Y-120510000D01*
D14*
%TO.C,USB1*%
X159400000Y-98675000D02*
X159400000Y-100420000D01*
X150600000Y-98675000D02*
X150600000Y-100420000D01*
X159400000Y-94898000D02*
X150600000Y-94898000D01*
X159400000Y-94898000D02*
X159400000Y-96320000D01*
X150600000Y-94898000D02*
X150600000Y-96320000D01*
%TO.C,*%
G36*
X148274094Y-124755463D02*
G01*
X148272602Y-124761927D01*
X148266846Y-124762712D01*
X148257896Y-124758734D01*
X148259597Y-124755463D01*
X148272501Y-124754162D01*
X148274094Y-124755463D01*
G37*
G36*
X147669265Y-123191953D02*
G01*
X147693637Y-123219428D01*
X147700089Y-123240151D01*
X147689529Y-123258251D01*
X147684806Y-123262463D01*
X147670034Y-123269602D01*
X147653807Y-123262105D01*
X147643330Y-123252921D01*
X147611737Y-123234599D01*
X147584920Y-123229578D01*
X147559501Y-123233884D01*
X147540280Y-123250397D01*
X147528588Y-123268168D01*
X147501691Y-123300146D01*
X147468333Y-123322420D01*
X147468060Y-123322534D01*
X147441673Y-123333029D01*
X147423067Y-123336584D01*
X147402990Y-123333117D01*
X147372194Y-123322551D01*
X147369799Y-123321688D01*
X147342836Y-123312052D01*
X147326690Y-123306431D01*
X147324827Y-123305855D01*
X147319741Y-123296992D01*
X147308849Y-123275065D01*
X147304698Y-123266391D01*
X147291023Y-123241314D01*
X147276905Y-123231610D01*
X147253788Y-123232475D01*
X147246374Y-123233651D01*
X147207323Y-123238328D01*
X147169466Y-123240332D01*
X147132233Y-123240452D01*
X147157471Y-123267316D01*
X147173585Y-123287767D01*
X147174533Y-123302236D01*
X147168908Y-123310809D01*
X147153882Y-123324186D01*
X147138142Y-123324204D01*
X147116886Y-123309509D01*
X147096880Y-123290469D01*
X147068680Y-123254456D01*
X147060254Y-123223419D01*
X147071693Y-123198689D01*
X147089812Y-123186634D01*
X147112474Y-123181113D01*
X147155170Y-123176355D01*
X147218357Y-123172328D01*
X147302490Y-123169002D01*
X147378404Y-123166975D01*
X147637095Y-123161132D01*
X147669265Y-123191953D01*
G37*
G36*
X147806543Y-124624984D02*
G01*
X147805050Y-124631448D01*
X147799294Y-124632233D01*
X147790344Y-124628254D01*
X147792045Y-124624984D01*
X147804949Y-124623682D01*
X147806543Y-124624984D01*
G37*
G36*
X147908027Y-124692036D02*
G01*
X147902590Y-124697472D01*
X147897154Y-124692036D01*
X147902590Y-124686599D01*
X147908027Y-124692036D01*
G37*
G36*
X148175293Y-124691713D02*
G01*
X148174423Y-124697472D01*
X148165122Y-124707834D01*
X148163549Y-124708346D01*
X148154905Y-124700762D01*
X148152676Y-124697472D01*
X148155258Y-124688260D01*
X148163549Y-124686599D01*
X148175293Y-124691713D01*
G37*
G36*
X147701435Y-124626796D02*
G01*
X147695998Y-124632233D01*
X147690561Y-124626796D01*
X147695998Y-124621359D01*
X147701435Y-124626796D01*
G37*
G36*
X148440818Y-124637669D02*
G01*
X148435382Y-124643106D01*
X148429945Y-124637669D01*
X148435382Y-124632233D01*
X148440818Y-124637669D01*
G37*
G36*
X147361536Y-124577764D02*
G01*
X147392502Y-124548761D01*
X147432603Y-124520280D01*
X147457158Y-124506531D01*
X147516773Y-124477364D01*
X147405230Y-124415159D01*
X147309608Y-124359455D01*
X147230267Y-124307403D01*
X147162917Y-124255604D01*
X147103269Y-124200657D01*
X147047031Y-124139163D01*
X147027854Y-124116071D01*
X146991509Y-124068326D01*
X146953785Y-124013638D01*
X146918260Y-123957690D01*
X146888513Y-123906167D01*
X146868120Y-123864750D01*
X146865475Y-123858169D01*
X146858648Y-123845558D01*
X146846578Y-123836728D01*
X146824737Y-123830080D01*
X146788595Y-123824016D01*
X146756817Y-123819823D01*
X146657002Y-123798145D01*
X146570751Y-123759672D01*
X146497177Y-123703766D01*
X146435389Y-123629789D01*
X146395518Y-123560582D01*
X146366447Y-123479028D01*
X146353728Y-123389847D01*
X146357063Y-123317009D01*
X146451743Y-123317009D01*
X146452081Y-123359350D01*
X146453177Y-123385519D01*
X146460047Y-123457220D01*
X146474797Y-123514283D01*
X146500081Y-123563183D01*
X146538547Y-123610389D01*
X146550193Y-123622344D01*
X146594493Y-123658721D01*
X146647885Y-123690747D01*
X146703398Y-123715060D01*
X146754061Y-123728294D01*
X146772732Y-123729741D01*
X146817190Y-123729750D01*
X146798012Y-123640045D01*
X146783857Y-123561320D01*
X146771640Y-123469689D01*
X146762272Y-123373967D01*
X146756662Y-123282968D01*
X146755955Y-123250488D01*
X146850457Y-123250488D01*
X146858220Y-123362358D01*
X146876459Y-123528358D01*
X146906899Y-123676740D01*
X146949497Y-123807354D01*
X147004215Y-123920052D01*
X147014048Y-123936342D01*
X147057031Y-123997471D01*
X147112283Y-124064344D01*
X147174252Y-124131040D01*
X147237388Y-124191633D01*
X147296140Y-124240203D01*
X147304560Y-124246318D01*
X147407610Y-124310712D01*
X147523647Y-124368147D01*
X147645820Y-124415880D01*
X147767282Y-124451166D01*
X147859603Y-124468627D01*
X147904886Y-124474992D01*
X147943010Y-124480696D01*
X147968039Y-124484837D01*
X147973267Y-124485905D01*
X147997265Y-124488141D01*
X148037811Y-124488176D01*
X148089855Y-124486329D01*
X148148346Y-124482919D01*
X148208230Y-124478264D01*
X148264459Y-124472684D01*
X148311979Y-124466497D01*
X148330427Y-124463364D01*
X148483893Y-124424223D01*
X148631603Y-124366833D01*
X148770169Y-124292916D01*
X148896200Y-124204192D01*
X148971236Y-124138003D01*
X149059720Y-124043336D01*
X149130666Y-123946125D01*
X149186522Y-123841861D01*
X149229735Y-123726032D01*
X149230636Y-123722488D01*
X149336211Y-123722488D01*
X149346966Y-123728365D01*
X149374506Y-123729750D01*
X149374780Y-123729750D01*
X149410401Y-123725753D01*
X149453597Y-123715529D01*
X149478283Y-123707419D01*
X149543305Y-123673342D01*
X149604638Y-123623330D01*
X149655937Y-123563030D01*
X149674973Y-123532382D01*
X149690218Y-123502464D01*
X149699667Y-123476044D01*
X149704689Y-123446219D01*
X149706648Y-123406083D01*
X149706927Y-123370931D01*
X149706274Y-123319671D01*
X149703315Y-123283168D01*
X149696753Y-123254454D01*
X149685294Y-123226562D01*
X149677026Y-123210179D01*
X149651438Y-123168632D01*
X149619915Y-123127213D01*
X149603705Y-123109417D01*
X149578458Y-123085135D01*
X149561871Y-123074126D01*
X149547524Y-123073997D01*
X149529889Y-123081888D01*
X149502641Y-123099389D01*
X149483862Y-123116376D01*
X149462773Y-123133915D01*
X149435087Y-123148989D01*
X149401830Y-123162891D01*
X149388378Y-123345743D01*
X149379794Y-123445625D01*
X149369559Y-123536415D01*
X149358151Y-123614696D01*
X149346050Y-123677050D01*
X149337392Y-123709491D01*
X149336211Y-123722488D01*
X149230636Y-123722488D01*
X149260569Y-123604707D01*
X149266992Y-123568770D01*
X149273794Y-123521930D01*
X149280524Y-123468578D01*
X149286732Y-123413106D01*
X149291967Y-123359908D01*
X149295777Y-123313376D01*
X149297712Y-123277902D01*
X149297320Y-123257878D01*
X149296447Y-123255213D01*
X149284353Y-123255813D01*
X149263156Y-123263537D01*
X149244111Y-123276061D01*
X149235745Y-123295577D01*
X149233977Y-123321028D01*
X149223604Y-123388827D01*
X149195799Y-123448552D01*
X149152729Y-123495620D01*
X149150722Y-123497173D01*
X149122097Y-123515725D01*
X149088422Y-123530495D01*
X149047100Y-123541855D01*
X148995535Y-123550178D01*
X148931128Y-123555837D01*
X148851284Y-123559203D01*
X148753405Y-123560648D01*
X148707214Y-123560773D01*
X148628080Y-123560636D01*
X148567401Y-123560046D01*
X148521884Y-123558738D01*
X148488238Y-123556448D01*
X148463170Y-123552913D01*
X148443390Y-123547869D01*
X148425606Y-123541053D01*
X148417952Y-123537604D01*
X148347293Y-123494274D01*
X148293599Y-123437431D01*
X148256605Y-123366729D01*
X148239641Y-123304300D01*
X148232483Y-123265816D01*
X148277384Y-123265816D01*
X148287747Y-123323737D01*
X148292728Y-123341232D01*
X148322421Y-123407486D01*
X148367405Y-123458896D01*
X148428154Y-123495810D01*
X148505147Y-123518574D01*
X148544114Y-123524179D01*
X148596116Y-123527440D01*
X148663548Y-123528421D01*
X148740231Y-123527311D01*
X148819990Y-123524298D01*
X148896647Y-123519569D01*
X148964026Y-123513314D01*
X148984483Y-123510770D01*
X149060244Y-123495330D01*
X149117440Y-123470935D01*
X149158075Y-123435683D01*
X149184156Y-123387668D01*
X149197688Y-123324987D01*
X149199344Y-123306819D01*
X149199559Y-123246905D01*
X149189395Y-123203898D01*
X149167519Y-123174932D01*
X149132597Y-123157139D01*
X149129276Y-123156134D01*
X149074609Y-123144400D01*
X149002893Y-123135214D01*
X148918684Y-123128632D01*
X148826538Y-123124707D01*
X148731009Y-123123495D01*
X148636654Y-123125050D01*
X148548026Y-123129428D01*
X148469681Y-123136682D01*
X148406174Y-123146868D01*
X148403662Y-123147413D01*
X148344032Y-123165091D01*
X148304076Y-123189027D01*
X148282343Y-123221758D01*
X148277384Y-123265816D01*
X148232483Y-123265816D01*
X148232304Y-123264853D01*
X148136849Y-123257386D01*
X148082913Y-123254736D01*
X148027437Y-123254548D01*
X147981069Y-123256817D01*
X147974711Y-123257463D01*
X147937023Y-123262868D01*
X147916523Y-123269520D01*
X147908658Y-123279293D01*
X147908027Y-123284941D01*
X147902177Y-123318001D01*
X147886880Y-123361125D01*
X147865518Y-123406816D01*
X147841469Y-123447577D01*
X147825073Y-123468913D01*
X147792788Y-123497571D01*
X147752081Y-123524625D01*
X147731245Y-123535370D01*
X147711545Y-123543791D01*
X147692601Y-123550140D01*
X147671052Y-123554707D01*
X147643534Y-123557786D01*
X147606684Y-123559666D01*
X147557139Y-123560639D01*
X147491535Y-123560998D01*
X147435039Y-123561038D01*
X147326916Y-123560119D01*
X147238009Y-123557169D01*
X147165854Y-123551876D01*
X147107989Y-123543928D01*
X147061950Y-123533011D01*
X147025275Y-123518814D01*
X147003041Y-123506226D01*
X146960487Y-123465914D01*
X146929411Y-123410101D01*
X146912031Y-123342966D01*
X146910785Y-123332591D01*
X146905375Y-123296947D01*
X146901228Y-123287440D01*
X146951195Y-123287440D01*
X146953801Y-123347876D01*
X146963033Y-123396345D01*
X146981050Y-123434409D01*
X147010014Y-123463626D01*
X147052083Y-123485559D01*
X147109417Y-123501768D01*
X147184176Y-123513815D01*
X147277376Y-123523164D01*
X147359612Y-123529077D01*
X147428281Y-123531632D01*
X147491300Y-123530846D01*
X147556585Y-123526741D01*
X147587538Y-123523939D01*
X147671105Y-123510305D01*
X147736972Y-123486521D01*
X147787337Y-123451201D01*
X147824402Y-123402960D01*
X147842676Y-123363296D01*
X147861725Y-123296913D01*
X147863857Y-123243566D01*
X147848755Y-123202241D01*
X147816104Y-123171927D01*
X147777548Y-123155053D01*
X147724634Y-123142962D01*
X147654578Y-123133640D01*
X147571805Y-123127089D01*
X147480741Y-123123309D01*
X147385812Y-123122298D01*
X147291446Y-123124057D01*
X147202067Y-123128587D01*
X147122103Y-123135888D01*
X147055980Y-123145958D01*
X147019036Y-123155046D01*
X146987907Y-123167088D01*
X146967968Y-123182952D01*
X146956814Y-123207335D01*
X146952039Y-123244933D01*
X146951195Y-123287440D01*
X146901228Y-123287440D01*
X146896418Y-123276413D01*
X146880762Y-123264360D01*
X146877664Y-123262884D01*
X146850457Y-123250488D01*
X146755955Y-123250488D01*
X146755459Y-123227690D01*
X146754121Y-123184103D01*
X146750431Y-123154531D01*
X146744870Y-123142666D01*
X146744342Y-123142592D01*
X146730955Y-123135714D01*
X146721501Y-123128502D01*
X146853496Y-123128502D01*
X146854621Y-123161406D01*
X146857497Y-123183222D01*
X146862394Y-123197495D01*
X146869578Y-123207772D01*
X146870004Y-123208247D01*
X146890844Y-123226499D01*
X146904522Y-123225091D01*
X146913757Y-123203731D01*
X146913794Y-123203587D01*
X146932145Y-123169200D01*
X146965860Y-123137986D01*
X147008667Y-123115314D01*
X147021779Y-123111132D01*
X147071362Y-123101231D01*
X147137770Y-123093063D01*
X147216137Y-123086853D01*
X147301594Y-123082824D01*
X147389273Y-123081199D01*
X147474306Y-123082204D01*
X147551824Y-123086061D01*
X147557507Y-123086496D01*
X147652645Y-123095272D01*
X147728392Y-123105429D01*
X147787093Y-123117665D01*
X147831090Y-123132677D01*
X147862730Y-123151163D01*
X147884356Y-123173818D01*
X147891602Y-123185863D01*
X147908022Y-123217615D01*
X148072133Y-123220879D01*
X148236243Y-123224142D01*
X148250624Y-123189679D01*
X148267924Y-123161629D01*
X148289569Y-123142072D01*
X148289888Y-123141898D01*
X148338951Y-123122719D01*
X148406118Y-123106913D01*
X148487980Y-123094663D01*
X148581131Y-123086153D01*
X148682164Y-123081564D01*
X148787669Y-123081081D01*
X148894240Y-123084885D01*
X148998470Y-123093159D01*
X149060147Y-123100576D01*
X149121467Y-123111501D01*
X149165186Y-123125970D01*
X149195402Y-123146105D01*
X149216215Y-123174028D01*
X149221064Y-123183858D01*
X149233170Y-123210121D01*
X149241033Y-123226451D01*
X149242061Y-123228333D01*
X149251875Y-123226077D01*
X149271791Y-123214814D01*
X149272285Y-123214491D01*
X149287940Y-123201661D01*
X149296236Y-123184979D01*
X149299418Y-123157681D01*
X149299808Y-123131583D01*
X149296125Y-123085801D01*
X149285954Y-123027110D01*
X149270613Y-122962895D01*
X149268095Y-122953769D01*
X149237405Y-122856844D01*
X149203845Y-122777598D01*
X149164944Y-122711967D01*
X149118232Y-122655886D01*
X149061238Y-122605291D01*
X149051874Y-122598094D01*
X149009699Y-122563441D01*
X148967464Y-122524243D01*
X148933910Y-122488640D01*
X148932290Y-122486707D01*
X148906618Y-122451930D01*
X148879361Y-122408786D01*
X148853320Y-122362537D01*
X148831296Y-122318447D01*
X148816093Y-122281776D01*
X148810510Y-122257997D01*
X148809558Y-122246030D01*
X148803884Y-122241800D01*
X148789257Y-122245953D01*
X148761450Y-122259135D01*
X148743361Y-122268260D01*
X148636741Y-122316808D01*
X148514689Y-122363083D01*
X148383519Y-122405188D01*
X148249543Y-122441224D01*
X148119073Y-122469295D01*
X148024358Y-122484368D01*
X147959730Y-122490914D01*
X147882928Y-122495745D01*
X147799504Y-122498791D01*
X147715011Y-122499978D01*
X147634999Y-122499235D01*
X147565021Y-122496488D01*
X147510629Y-122491665D01*
X147506667Y-122491124D01*
X147468965Y-122483598D01*
X147442679Y-122470613D01*
X147419935Y-122446949D01*
X147402419Y-122422011D01*
X147394306Y-122413837D01*
X147380879Y-122411014D01*
X147356890Y-122413503D01*
X147317094Y-122421265D01*
X147316596Y-122421369D01*
X147220325Y-122449377D01*
X147135154Y-122491428D01*
X147059139Y-122549176D01*
X146990339Y-122624274D01*
X146926810Y-122718377D01*
X146890865Y-122783774D01*
X146879170Y-122807707D01*
X146870742Y-122829636D01*
X146864911Y-122853939D01*
X146861006Y-122884989D01*
X146858357Y-122927165D01*
X146856296Y-122984840D01*
X146855430Y-123015246D01*
X146853854Y-123080964D01*
X146853496Y-123128502D01*
X146721501Y-123128502D01*
X146707566Y-123117872D01*
X146685065Y-123098199D01*
X146652275Y-123071198D01*
X146628667Y-123059987D01*
X146615635Y-123060557D01*
X146590536Y-123075918D01*
X146559627Y-123105422D01*
X146527219Y-123143964D01*
X146497624Y-123186438D01*
X146475962Y-123225952D01*
X146462640Y-123257615D01*
X146454915Y-123285532D01*
X146451743Y-123317009D01*
X146357063Y-123317009D01*
X146357831Y-123300240D01*
X146374015Y-123231684D01*
X146413422Y-123142623D01*
X146465671Y-123067948D01*
X146512305Y-123023012D01*
X146537549Y-123000447D01*
X146552971Y-122982031D01*
X146555467Y-122974096D01*
X146551478Y-122960248D01*
X146543282Y-122929171D01*
X146531882Y-122884753D01*
X146518278Y-122830878D01*
X146509907Y-122797365D01*
X146494136Y-122734752D01*
X146482165Y-122690228D01*
X146472751Y-122660728D01*
X146464651Y-122643188D01*
X146456623Y-122634543D01*
X146447425Y-122631729D01*
X146442680Y-122631548D01*
X146415415Y-122622747D01*
X146386911Y-122600906D01*
X146364026Y-122572861D01*
X146353621Y-122545452D01*
X146353534Y-122542679D01*
X146356262Y-122518569D01*
X146362916Y-122482407D01*
X146369674Y-122452138D01*
X146377429Y-122405068D01*
X146382781Y-122339522D01*
X146385509Y-122258661D01*
X146385813Y-122223799D01*
X146387179Y-122149451D01*
X146390617Y-122066709D01*
X146395613Y-121985530D01*
X146401651Y-121915870D01*
X146401821Y-121914261D01*
X146408005Y-121851909D01*
X146411096Y-121808094D01*
X146411141Y-121779832D01*
X146408190Y-121764141D01*
X146404324Y-121759011D01*
X146385907Y-121747155D01*
X146362228Y-121732399D01*
X146329877Y-121702304D01*
X146312922Y-121664584D01*
X146312761Y-121625131D01*
X146328924Y-121592029D01*
X146350046Y-121573634D01*
X146381635Y-121553663D01*
X146396640Y-121545939D01*
X146431560Y-121526792D01*
X146468197Y-121501009D01*
X146508841Y-121466496D01*
X146555784Y-121421157D01*
X146611317Y-121362897D01*
X146677731Y-121289620D01*
X146681351Y-121285555D01*
X146751765Y-121208013D01*
X146813237Y-121144292D01*
X146869817Y-121090776D01*
X146925553Y-121043844D01*
X146984493Y-120999877D01*
X147050685Y-120955258D01*
X147051280Y-120954872D01*
X147236283Y-120847349D01*
X147428216Y-120760278D01*
X147628025Y-120693305D01*
X147836659Y-120646073D01*
X147903846Y-120635301D01*
X148001209Y-120624736D01*
X148110209Y-120619016D01*
X148225986Y-120617931D01*
X148343679Y-120621271D01*
X148458426Y-120628824D01*
X148565366Y-120640380D01*
X148659637Y-120655728D01*
X148723524Y-120670838D01*
X148821182Y-120705081D01*
X148917500Y-120750925D01*
X149008569Y-120805700D01*
X149090480Y-120866734D01*
X149159324Y-120931357D01*
X149211190Y-120996898D01*
X149218801Y-121009231D01*
X149244610Y-121038564D01*
X149289594Y-121072411D01*
X149326925Y-121095386D01*
X149387825Y-121136350D01*
X149453199Y-121190037D01*
X149517662Y-121251200D01*
X149575828Y-121314595D01*
X149622313Y-121374976D01*
X149636046Y-121396462D01*
X149680770Y-121486275D01*
X149719112Y-121592874D01*
X149749985Y-121711951D01*
X149772299Y-121839200D01*
X149784969Y-121970314D01*
X149785969Y-121990024D01*
X149787439Y-122106413D01*
X149782434Y-122231606D01*
X149771589Y-122360629D01*
X149755540Y-122488509D01*
X149734923Y-122610274D01*
X149710374Y-122720951D01*
X149682529Y-122815566D01*
X149679228Y-122824956D01*
X149667379Y-122864827D01*
X149659931Y-122902975D01*
X149658626Y-122919586D01*
X149654936Y-122954208D01*
X149646398Y-122983561D01*
X149640667Y-123001747D01*
X149645495Y-123017013D01*
X149663866Y-123036368D01*
X149671925Y-123043548D01*
X149704593Y-123081051D01*
X149737034Y-123133469D01*
X149766023Y-123194175D01*
X149788337Y-123256546D01*
X149799657Y-123305995D01*
X149805532Y-123392493D01*
X149794561Y-123473028D01*
X149765589Y-123552460D01*
X149723540Y-123626453D01*
X149663188Y-123701706D01*
X149591968Y-123758310D01*
X149508670Y-123797100D01*
X149455532Y-123811515D01*
X149411010Y-123819730D01*
X149368848Y-123825487D01*
X149341428Y-123827420D01*
X149324179Y-123828139D01*
X149310700Y-123832254D01*
X149298137Y-123842987D01*
X149283633Y-123863562D01*
X149264336Y-123897202D01*
X149240455Y-123941411D01*
X149210332Y-123994827D01*
X149180456Y-124040711D01*
X149146364Y-124085005D01*
X149103592Y-124133647D01*
X149066169Y-124173392D01*
X149004792Y-124234563D01*
X148945793Y-124286379D01*
X148884015Y-124332553D01*
X148814298Y-124376800D01*
X148731485Y-124422833D01*
X148689271Y-124444763D01*
X148606089Y-124487296D01*
X148645778Y-124501023D01*
X148700554Y-124526192D01*
X148755520Y-124561934D01*
X148802997Y-124602687D01*
X148829990Y-124634517D01*
X148869583Y-124699461D01*
X148908471Y-124778285D01*
X148947255Y-124872563D01*
X148986535Y-124983868D01*
X149026912Y-125113772D01*
X149065800Y-125252010D01*
X149080630Y-125306839D01*
X149093764Y-125355229D01*
X149103995Y-125392744D01*
X149110116Y-125414948D01*
X149110932Y-125417828D01*
X149110904Y-125430355D01*
X149097876Y-125435828D01*
X149074920Y-125436822D01*
X149033412Y-125436788D01*
X149007008Y-125355829D01*
X148993115Y-125317879D01*
X148980494Y-125291642D01*
X148971220Y-125281267D01*
X148969822Y-125281534D01*
X148963700Y-125279778D01*
X148965866Y-125270410D01*
X148967188Y-125248270D01*
X148961009Y-125219135D01*
X148960567Y-125217841D01*
X148948442Y-125183059D01*
X148928135Y-125247177D01*
X148919217Y-125282974D01*
X148913467Y-125321040D01*
X148911099Y-125356201D01*
X148912325Y-125383284D01*
X148917359Y-125397113D01*
X148921961Y-125397114D01*
X148928420Y-125401887D01*
X148930116Y-125414468D01*
X148930116Y-125436856D01*
X147238897Y-125436856D01*
X147243087Y-125353886D01*
X147244462Y-125310870D01*
X147242964Y-125286555D01*
X147238240Y-125278038D01*
X147233979Y-125279134D01*
X147225266Y-125280100D01*
X147227559Y-125265681D01*
X147228859Y-125246256D01*
X147224945Y-125222011D01*
X147217932Y-125200377D01*
X147209940Y-125188789D01*
X147205841Y-125189441D01*
X147200263Y-125203596D01*
X147197148Y-125220851D01*
X147191639Y-125248425D01*
X147186719Y-125262883D01*
X147179623Y-125280789D01*
X147167894Y-125312651D01*
X147153963Y-125351857D01*
X147152759Y-125355306D01*
X147126221Y-125431419D01*
X147066017Y-125434676D01*
X147030547Y-125435331D01*
X147013183Y-125431918D01*
X147010547Y-125423803D01*
X147015375Y-125408822D01*
X147025449Y-125377188D01*
X147039471Y-125332985D01*
X147056143Y-125280300D01*
X147063365Y-125257447D01*
X147106472Y-125127109D01*
X147150891Y-125004296D01*
X147195638Y-124891256D01*
X147239726Y-124790235D01*
X147282170Y-124703481D01*
X147321983Y-124633241D01*
X147347732Y-124596622D01*
X147669334Y-124596622D01*
X147679114Y-124628385D01*
X147687469Y-124644146D01*
X147700851Y-124665426D01*
X147708837Y-124675583D01*
X147709216Y-124675726D01*
X147710980Y-124665938D01*
X147711140Y-124662362D01*
X147723109Y-124662362D01*
X147731576Y-124692490D01*
X147734437Y-124698187D01*
X147748236Y-124716690D01*
X147758152Y-124713997D01*
X147763831Y-124690372D01*
X147764814Y-124675726D01*
X147764244Y-124647418D01*
X147757784Y-124634850D01*
X147744849Y-124632233D01*
X147727798Y-124640602D01*
X147723109Y-124662362D01*
X147711140Y-124662362D01*
X147712100Y-124640915D01*
X147712308Y-124621359D01*
X147711735Y-124605049D01*
X147723181Y-124605049D01*
X147732633Y-124618167D01*
X147750364Y-124621359D01*
X147766196Y-124623007D01*
X147774279Y-124631573D01*
X147777196Y-124652491D01*
X147777548Y-124678547D01*
X147779524Y-124715648D01*
X147786693Y-124737477D01*
X147798567Y-124748861D01*
X147815423Y-124756176D01*
X147823284Y-124747430D01*
X147824489Y-124743322D01*
X147828401Y-124734046D01*
X147830474Y-124745657D01*
X147830653Y-124748738D01*
X147840494Y-124773032D01*
X147852939Y-124784072D01*
X147868512Y-124789145D01*
X147875952Y-124778663D01*
X147878493Y-124765427D01*
X147881659Y-124746687D01*
X147883321Y-124747915D01*
X147884648Y-124769992D01*
X147884651Y-124770070D01*
X147893422Y-124797841D01*
X147912033Y-124811653D01*
X147933803Y-124810526D01*
X147952051Y-124793477D01*
X147957226Y-124780736D01*
X147967475Y-124751761D01*
X147976166Y-124732103D01*
X147976543Y-124730938D01*
X148040451Y-124730938D01*
X148041927Y-124746246D01*
X148056050Y-124751502D01*
X148065690Y-124751839D01*
X148085953Y-124747209D01*
X148092488Y-124738247D01*
X148087226Y-124719230D01*
X148076997Y-124697472D01*
X148062817Y-124671954D01*
X148126955Y-124671954D01*
X148135371Y-124692147D01*
X148140155Y-124701501D01*
X148152808Y-124719036D01*
X148162841Y-124721863D01*
X148162935Y-124721773D01*
X148168095Y-124722761D01*
X148167379Y-124730092D01*
X148167941Y-124746942D01*
X148173144Y-124771739D01*
X148180973Y-124798210D01*
X148189410Y-124820081D01*
X148196440Y-124831082D01*
X148199302Y-124829426D01*
X148212102Y-124819517D01*
X148226977Y-124817038D01*
X148250102Y-124812167D01*
X148276823Y-124800229D01*
X148300651Y-124785137D01*
X148315095Y-124770803D01*
X148316129Y-124763285D01*
X148320770Y-124755145D01*
X148340056Y-124749860D01*
X148358192Y-124745910D01*
X148367507Y-124735486D01*
X148371464Y-124712553D01*
X148372575Y-124693227D01*
X148375270Y-124660977D01*
X148379393Y-124638630D01*
X148381768Y-124633424D01*
X148385821Y-124637898D01*
X148386439Y-124657780D01*
X148386338Y-124659416D01*
X148384885Y-124698075D01*
X148387655Y-124718734D01*
X148395506Y-124724875D01*
X148402097Y-124723406D01*
X148415173Y-124709429D01*
X148425160Y-124683950D01*
X148425383Y-124682972D01*
X148431155Y-124661507D01*
X148435971Y-124659468D01*
X148440709Y-124670217D01*
X148446704Y-124681953D01*
X148453945Y-124678526D01*
X148466091Y-124657758D01*
X148468099Y-124653907D01*
X148481821Y-124622773D01*
X148489950Y-124595598D01*
X148490444Y-124592294D01*
X148490874Y-124578434D01*
X148484527Y-124573638D01*
X148466229Y-124576948D01*
X148443462Y-124583599D01*
X148412850Y-124594132D01*
X148391875Y-124603791D01*
X148387427Y-124607228D01*
X148372367Y-124614513D01*
X148359759Y-124615923D01*
X148339554Y-124625803D01*
X148330941Y-124643106D01*
X148325184Y-124658191D01*
X148322366Y-124652142D01*
X148322296Y-124651048D01*
X148316228Y-124637508D01*
X148296759Y-124636311D01*
X148292314Y-124637047D01*
X148262777Y-124642057D01*
X148225525Y-124647954D01*
X148216201Y-124649368D01*
X148187676Y-124655408D01*
X148170879Y-124662373D01*
X148168986Y-124665069D01*
X148160295Y-124669679D01*
X148147239Y-124668003D01*
X148130625Y-124665259D01*
X148126955Y-124671954D01*
X148062817Y-124671954D01*
X148061892Y-124670289D01*
X148050199Y-124700898D01*
X148040451Y-124730938D01*
X147976543Y-124730938D01*
X147982970Y-124711099D01*
X147975210Y-124698579D01*
X147972764Y-124696932D01*
X147964118Y-124688584D01*
X147970548Y-124686765D01*
X147982594Y-124677841D01*
X147984140Y-124670289D01*
X147974958Y-124657037D01*
X147961125Y-124653979D01*
X147944214Y-124658578D01*
X147943779Y-124675654D01*
X147943801Y-124675741D01*
X147944517Y-124690456D01*
X147939633Y-124691409D01*
X147931365Y-124676657D01*
X147929774Y-124664211D01*
X147921774Y-124646495D01*
X147908027Y-124643106D01*
X147894031Y-124646656D01*
X147887393Y-124661030D01*
X147885422Y-124689317D01*
X147883700Y-124713491D01*
X147880317Y-124721988D01*
X147878355Y-124719219D01*
X147865661Y-124699661D01*
X147860185Y-124694920D01*
X147854985Y-124687940D01*
X147861816Y-124686765D01*
X147872030Y-124677343D01*
X147875407Y-124659416D01*
X147870503Y-124638301D01*
X147852966Y-124632235D01*
X147852427Y-124632233D01*
X147836644Y-124635681D01*
X147832692Y-124650223D01*
X147834233Y-124664852D01*
X147834247Y-124689113D01*
X147826778Y-124697472D01*
X147819090Y-124687743D01*
X147818790Y-124661073D01*
X147818964Y-124659526D01*
X147819385Y-124631961D01*
X147810498Y-124618410D01*
X147803189Y-124615239D01*
X147775334Y-124604292D01*
X147764104Y-124598819D01*
X147737437Y-124589328D01*
X147724500Y-124596613D01*
X147723181Y-124605049D01*
X147711735Y-124605049D01*
X147711163Y-124588750D01*
X147707155Y-124575338D01*
X147873483Y-124575338D01*
X147873682Y-124575479D01*
X147905766Y-124583997D01*
X147950244Y-124593208D01*
X147998393Y-124601574D01*
X148041492Y-124607558D01*
X148067452Y-124609622D01*
X148100842Y-124607936D01*
X148146065Y-124602686D01*
X148193713Y-124594981D01*
X148196806Y-124594395D01*
X148236646Y-124586492D01*
X148267107Y-124579921D01*
X148282842Y-124575851D01*
X148283843Y-124575367D01*
X148274455Y-124574463D01*
X148246563Y-124573672D01*
X148203411Y-124573039D01*
X148148239Y-124572610D01*
X148084292Y-124572432D01*
X148075657Y-124572429D01*
X148011321Y-124572577D01*
X147955821Y-124572989D01*
X147912271Y-124573618D01*
X147883786Y-124574416D01*
X147873483Y-124575338D01*
X147707155Y-124575338D01*
X147706303Y-124572487D01*
X147695591Y-124567225D01*
X147690561Y-124566993D01*
X147673197Y-124574986D01*
X147669334Y-124596622D01*
X147347732Y-124596622D01*
X147358179Y-124581764D01*
X147361536Y-124577764D01*
G37*
G36*
X147937022Y-124777210D02*
G01*
X147938324Y-124790114D01*
X147937022Y-124791707D01*
X147930558Y-124790215D01*
X147929774Y-124784459D01*
X147933752Y-124775509D01*
X147937022Y-124777210D01*
G37*
G36*
X148035936Y-123356948D02*
G01*
X148045577Y-123378364D01*
X148051235Y-123417370D01*
X148052996Y-123468886D01*
X148051187Y-123524980D01*
X148046137Y-123577719D01*
X148038173Y-123619169D01*
X148035262Y-123628225D01*
X148025525Y-123657123D01*
X148024478Y-123673596D01*
X148032288Y-123685226D01*
X148036604Y-123689094D01*
X148060576Y-123705265D01*
X148073845Y-123711446D01*
X148088717Y-123725400D01*
X148092289Y-123745998D01*
X148083576Y-123762825D01*
X148078950Y-123765385D01*
X148061235Y-123764095D01*
X148033830Y-123754392D01*
X148024125Y-123749744D01*
X147984740Y-123721549D01*
X147966433Y-123688120D01*
X147969139Y-123649322D01*
X147972874Y-123639279D01*
X147979380Y-123614466D01*
X147985680Y-123573942D01*
X147990975Y-123523734D01*
X147993997Y-123479777D01*
X147997257Y-123425009D01*
X148000788Y-123388371D01*
X148005296Y-123366253D01*
X148011486Y-123355043D01*
X148019090Y-123351294D01*
X148035936Y-123356948D01*
G37*
G36*
X147168644Y-125387926D02*
G01*
X147163207Y-125393363D01*
X147157770Y-125387926D01*
X147163207Y-125382489D01*
X147168644Y-125387926D01*
G37*
G36*
X148948238Y-125244761D02*
G01*
X148949540Y-125257665D01*
X148948238Y-125259259D01*
X148941774Y-125257766D01*
X148940989Y-125252010D01*
X148944968Y-125243060D01*
X148948238Y-125244761D01*
G37*
G36*
X148932758Y-122844044D02*
G01*
X149000970Y-122845054D01*
X149053819Y-122847544D01*
X149089175Y-122851363D01*
X149104833Y-122856281D01*
X149104638Y-122863573D01*
X149086653Y-122869668D01*
X149049023Y-122875150D01*
X149042387Y-122875869D01*
X148991764Y-122883479D01*
X148926894Y-122896558D01*
X148854114Y-122913561D01*
X148779762Y-122932942D01*
X148710173Y-122953154D01*
X148664737Y-122967993D01*
X148604755Y-122983117D01*
X148543165Y-122988930D01*
X148489357Y-122984669D01*
X148481593Y-122982871D01*
X148464165Y-122973081D01*
X148467414Y-122958659D01*
X148490894Y-122940145D01*
X148534159Y-122918075D01*
X148535959Y-122917275D01*
X148609399Y-122887719D01*
X148679270Y-122866759D01*
X148751757Y-122853253D01*
X148833048Y-122846060D01*
X148929330Y-122844036D01*
X148932758Y-122844044D01*
G37*
G36*
X147939654Y-124728184D02*
G01*
X147943797Y-124740965D01*
X147944407Y-124758304D01*
X147939629Y-124762712D01*
X147931619Y-124753596D01*
X147929774Y-124740965D01*
X147931528Y-124723266D01*
X147933942Y-124719219D01*
X147939654Y-124728184D01*
G37*
G36*
X147831914Y-124713782D02*
G01*
X147826477Y-124719219D01*
X147821041Y-124713782D01*
X147826477Y-124708346D01*
X147831914Y-124713782D01*
G37*
G36*
X148295841Y-124690223D02*
G01*
X148294348Y-124696688D01*
X148288592Y-124697472D01*
X148279642Y-124693494D01*
X148281343Y-124690223D01*
X148294247Y-124688922D01*
X148295841Y-124690223D01*
G37*
G36*
X148212479Y-124757275D02*
G01*
X148207042Y-124762712D01*
X148201606Y-124757275D01*
X148207042Y-124751839D01*
X148212479Y-124757275D01*
G37*
G36*
X148245099Y-124757275D02*
G01*
X148239662Y-124762712D01*
X148234226Y-124757275D01*
X148239662Y-124751839D01*
X148245099Y-124757275D01*
G37*
G36*
X148437194Y-124603237D02*
G01*
X148438495Y-124616141D01*
X148437194Y-124617735D01*
X148430730Y-124616242D01*
X148429945Y-124610486D01*
X148433923Y-124601536D01*
X148437194Y-124603237D01*
G37*
G36*
X148331643Y-124694492D02*
G01*
X148332085Y-124697472D01*
X148328375Y-124708063D01*
X148327290Y-124708346D01*
X148318007Y-124700726D01*
X148315775Y-124697472D01*
X148316637Y-124687453D01*
X148320570Y-124686599D01*
X148331643Y-124694492D01*
G37*
G36*
X148962736Y-125300940D02*
G01*
X148957299Y-125306376D01*
X148951863Y-125300940D01*
X148957299Y-125295503D01*
X148962736Y-125300940D01*
G37*
G36*
X148015651Y-124204914D02*
G01*
X148070792Y-124205554D01*
X148096273Y-124206022D01*
X148158407Y-124207393D01*
X148201988Y-124208916D01*
X148230207Y-124211142D01*
X148246253Y-124214620D01*
X148253317Y-124219901D01*
X148254588Y-124227534D01*
X148253936Y-124233206D01*
X148251751Y-124242528D01*
X148246047Y-124249102D01*
X148233456Y-124253469D01*
X148210612Y-124256170D01*
X148174147Y-124257747D01*
X148120694Y-124258741D01*
X148092873Y-124259109D01*
X148035730Y-124259452D01*
X147985875Y-124259031D01*
X147947582Y-124257937D01*
X147925124Y-124256260D01*
X147921619Y-124255484D01*
X147909996Y-124241163D01*
X147908027Y-124230178D01*
X147914475Y-124211616D01*
X147921619Y-124206619D01*
X147936847Y-124205461D01*
X147969597Y-124204888D01*
X148015651Y-124204914D01*
G37*
G36*
X148263901Y-124690903D02*
G01*
X148260658Y-124695845D01*
X148249630Y-124696614D01*
X148238027Y-124693958D01*
X148243060Y-124690045D01*
X148260054Y-124688748D01*
X148263901Y-124690903D01*
G37*
G36*
X148991731Y-125375241D02*
G01*
X148993033Y-125388145D01*
X148991731Y-125389738D01*
X148985267Y-125388246D01*
X148984483Y-125382489D01*
X148988461Y-125373539D01*
X148991731Y-125375241D01*
G37*
G36*
X148353832Y-124692036D02*
G01*
X148348395Y-124697472D01*
X148342959Y-124692036D01*
X148348395Y-124686599D01*
X148353832Y-124692036D01*
G37*
G36*
X148220408Y-124690903D02*
G01*
X148217165Y-124695845D01*
X148206136Y-124696614D01*
X148194534Y-124693958D01*
X148199567Y-124690045D01*
X148216561Y-124688748D01*
X148220408Y-124690903D01*
G37*
G36*
X147332749Y-122841706D02*
G01*
X147334775Y-122841859D01*
X147424927Y-122853939D01*
X147517221Y-122875332D01*
X147602559Y-122903668D01*
X147646630Y-122923014D01*
X147686807Y-122945180D01*
X147706521Y-122962236D01*
X147706260Y-122974891D01*
X147688288Y-122983397D01*
X147651065Y-122988909D01*
X147605028Y-122987041D01*
X147547252Y-122977340D01*
X147474809Y-122959356D01*
X147409761Y-122940363D01*
X147344842Y-122921781D01*
X147277538Y-122904622D01*
X147215061Y-122890598D01*
X147164623Y-122881420D01*
X147156957Y-122880361D01*
X147114169Y-122874000D01*
X147081015Y-122867408D01*
X147062326Y-122861627D01*
X147059911Y-122859440D01*
X147070026Y-122853913D01*
X147097339Y-122848898D01*
X147137305Y-122844688D01*
X147185375Y-122841573D01*
X147237004Y-122839844D01*
X147287644Y-122839791D01*
X147332749Y-122841706D01*
G37*
G36*
X148784218Y-123166855D02*
G01*
X148869890Y-123168880D01*
X148936500Y-123171019D01*
X148986733Y-123173488D01*
X149023273Y-123176502D01*
X149048805Y-123180278D01*
X149066015Y-123185032D01*
X149076734Y-123190410D01*
X149098513Y-123211057D01*
X149101843Y-123234991D01*
X149086961Y-123266298D01*
X149081586Y-123274134D01*
X149051155Y-123307421D01*
X149021378Y-123322379D01*
X149001580Y-123320799D01*
X148986046Y-123307385D01*
X148990726Y-123286569D01*
X149002538Y-123271143D01*
X149014634Y-123254575D01*
X149016130Y-123246894D01*
X149003832Y-123243637D01*
X148976042Y-123239318D01*
X148940989Y-123235122D01*
X148870313Y-123227647D01*
X148858102Y-123260077D01*
X148833711Y-123296469D01*
X148795823Y-123321338D01*
X148750540Y-123332585D01*
X148703965Y-123328112D01*
X148683621Y-123320113D01*
X148654597Y-123298084D01*
X148630753Y-123268316D01*
X148629500Y-123266075D01*
X148604495Y-123237663D01*
X148572370Y-123229037D01*
X148535771Y-123240552D01*
X148519827Y-123251381D01*
X148497029Y-123265319D01*
X148480932Y-123263526D01*
X148477338Y-123260923D01*
X148463789Y-123239989D01*
X148470119Y-123214856D01*
X148490811Y-123189470D01*
X148519057Y-123161224D01*
X148784218Y-123166855D01*
G37*
G36*
X147227670Y-125310980D02*
G01*
X147231403Y-125318200D01*
X147232942Y-125328033D01*
X147225599Y-125319332D01*
X147224939Y-125318390D01*
X147215850Y-125310113D01*
X147210504Y-125321841D01*
X147210080Y-125323826D01*
X147206255Y-125337237D01*
X147202171Y-125330664D01*
X147199426Y-125321124D01*
X147198400Y-125303390D01*
X147210149Y-125300327D01*
X147227670Y-125310980D01*
G37*
G36*
X148666095Y-123923262D02*
G01*
X148674823Y-123937141D01*
X148677841Y-123958668D01*
X148674108Y-124000578D01*
X148653895Y-124031692D01*
X148615729Y-124053443D01*
X148567709Y-124065702D01*
X148487282Y-124076854D01*
X148390301Y-124085674D01*
X148281849Y-124092017D01*
X148167008Y-124095739D01*
X148050860Y-124096694D01*
X147938489Y-124094738D01*
X147834977Y-124089724D01*
X147804731Y-124087465D01*
X147712957Y-124078956D01*
X147640814Y-124069733D01*
X147586188Y-124059041D01*
X147546963Y-124046122D01*
X147521024Y-124030222D01*
X147506256Y-124010585D01*
X147500543Y-123986454D01*
X147500279Y-123978662D01*
X147503170Y-123952350D01*
X147514477Y-123940713D01*
X147524359Y-123938355D01*
X147544593Y-123941589D01*
X147555193Y-123961840D01*
X147555260Y-123962104D01*
X147564648Y-123980772D01*
X147584201Y-123995197D01*
X147616925Y-124006471D01*
X147665829Y-124015684D01*
X147722415Y-124022714D01*
X147810185Y-124030476D01*
X147904271Y-124035815D01*
X148002002Y-124038840D01*
X148100709Y-124039660D01*
X148197724Y-124038386D01*
X148290376Y-124035125D01*
X148375996Y-124029989D01*
X148451916Y-124023086D01*
X148515465Y-124014526D01*
X148563975Y-124004419D01*
X148594776Y-123992873D01*
X148602688Y-123986613D01*
X148611935Y-123966806D01*
X148616467Y-123947215D01*
X148625003Y-123926053D01*
X148646403Y-123920037D01*
X148647411Y-123920032D01*
X148666095Y-123923262D01*
G37*
G36*
X148332085Y-124724655D02*
G01*
X148326649Y-124730092D01*
X148321212Y-124724655D01*
X148326649Y-124719219D01*
X148332085Y-124724655D01*
G37*
G36*
X148408198Y-124692036D02*
G01*
X148402762Y-124697472D01*
X148397325Y-124692036D01*
X148402762Y-124686599D01*
X148408198Y-124692036D01*
G37*
G36*
X147208512Y-125266508D02*
G01*
X147209814Y-125279412D01*
X147208512Y-125281005D01*
X147202048Y-125279513D01*
X147201263Y-125273757D01*
X147205242Y-125264807D01*
X147208512Y-125266508D01*
G37*
G36*
X147799294Y-124692036D02*
G01*
X147793858Y-124697472D01*
X147788421Y-124692036D01*
X147793858Y-124686599D01*
X147799294Y-124692036D01*
G37*
D13*
%TO.C,C9*%
X159540000Y-109387836D02*
X159540000Y-109172164D01*
X158820000Y-109387836D02*
X158820000Y-109172164D01*
D14*
%TO.C,SW2*%
X160799000Y-106343000D02*
X160112000Y-106343000D01*
X162524000Y-108327000D02*
X162524000Y-110359000D01*
X163412000Y-106343000D02*
X163412000Y-112343000D01*
X160112000Y-112343000D02*
X160845000Y-112343000D01*
X163412000Y-106343000D02*
X162761000Y-106343000D01*
X162715000Y-112343000D02*
X163412000Y-112343000D01*
X160112000Y-112343000D02*
X160112000Y-106343000D01*
X162524000Y-110359000D02*
X161000000Y-110359000D01*
X161000000Y-110359000D02*
X161000000Y-108327000D01*
X161000000Y-108327000D02*
X162524000Y-108327000D01*
D13*
%TO.C,R2*%
X157880000Y-109146359D02*
X157880000Y-109453641D01*
X157120000Y-109146359D02*
X157120000Y-109453641D01*
%TO.C,D1*%
X165375000Y-102485000D02*
X165375000Y-100200000D01*
X163905000Y-102485000D02*
X165375000Y-102485000D01*
X163905000Y-100200000D02*
X163905000Y-102485000D01*
%TO.C,C2*%
X147466164Y-102283000D02*
X147681836Y-102283000D01*
X147466164Y-103003000D02*
X147681836Y-103003000D01*
%TO.C,C6*%
X154907836Y-112960000D02*
X154692164Y-112960000D01*
X154907836Y-113680000D02*
X154692164Y-113680000D01*
%TO.C,C11*%
X164267836Y-122810000D02*
X164052164Y-122810000D01*
X164267836Y-122090000D02*
X164052164Y-122090000D01*
%TO.C,Y1*%
X162600000Y-124980000D02*
X162600000Y-121680000D01*
X162600000Y-121680000D02*
X158600000Y-121680000D01*
%TO.C,C10*%
X164267836Y-124630000D02*
X164052164Y-124630000D01*
X164267836Y-123910000D02*
X164052164Y-123910000D01*
%TO.C,C1*%
X147392164Y-97515000D02*
X147607836Y-97515000D01*
X147392164Y-96795000D02*
X147607836Y-96795000D01*
D14*
%TO.C,SW1*%
X146432000Y-112363000D02*
X147165000Y-112363000D01*
X148844000Y-110379000D02*
X147320000Y-110379000D01*
X148844000Y-108347000D02*
X148844000Y-110379000D01*
X147320000Y-110379000D02*
X147320000Y-108347000D01*
X146432000Y-112363000D02*
X146432000Y-106363000D01*
X149732000Y-106363000D02*
X149732000Y-112363000D01*
X147119000Y-106363000D02*
X146432000Y-106363000D01*
X149732000Y-106363000D02*
X149081000Y-106363000D01*
X149035000Y-112363000D02*
X149732000Y-112363000D01*
X147320000Y-108347000D02*
X148844000Y-108347000D01*
%TO.C,U1*%
X145540000Y-100849000D02*
X145540000Y-99049000D01*
X147490000Y-100849000D02*
X146690000Y-100849000D01*
X148640000Y-100849000D02*
X148640000Y-99049000D01*
X148868000Y-98425000D02*
G75*
G03*
X148868000Y-98425000I-127000J0D01*
G01*
%TD*%
%LPC*%
D15*
%TO.C,R3*%
X165140000Y-99030000D03*
X164120000Y-99030000D03*
%TD*%
D16*
%TO.C,C5*%
X152300000Y-108820000D03*
X152300000Y-109780000D03*
%TD*%
D17*
%TO.C,F1*%
X162380000Y-101820000D03*
X162380000Y-99020000D03*
%TD*%
D18*
%TO.C,C4*%
X155350000Y-123700000D03*
X154390000Y-123700000D03*
%TD*%
D19*
%TO.C,U3*%
X155438614Y-121673488D03*
X155792168Y-121319935D03*
X156145721Y-120966381D03*
X156499275Y-120612828D03*
X156852828Y-120259275D03*
X157206381Y-119905721D03*
X157559935Y-119552168D03*
X157913488Y-119198614D03*
D20*
X157913488Y-118081386D03*
X157559935Y-117727832D03*
X157206381Y-117374279D03*
X156852828Y-117020725D03*
X156499275Y-116667172D03*
X156145721Y-116313619D03*
X155792168Y-115960065D03*
X155438614Y-115606512D03*
D21*
X154321386Y-115606512D03*
X153967832Y-115960065D03*
X153614279Y-116313619D03*
X153260725Y-116667172D03*
X152907172Y-117020725D03*
X152553619Y-117374279D03*
X152200065Y-117727832D03*
X151846512Y-118081386D03*
D22*
X151846512Y-119198614D03*
X152200065Y-119552168D03*
X152553619Y-119905721D03*
X152907172Y-120259275D03*
X153260725Y-120612828D03*
X153614279Y-120966381D03*
X153967832Y-121319935D03*
X154321386Y-121673488D03*
D23*
X154880000Y-118640000D03*
%TD*%
D24*
%TO.C,R1*%
X150600000Y-108790000D03*
X150600000Y-109810000D03*
%TD*%
D25*
%TO.C,J3*%
X158740000Y-129540000D03*
D26*
X156200000Y-129540000D03*
X153660000Y-129540000D03*
X151120000Y-129540000D03*
%TD*%
D18*
%TO.C,C8*%
X155280000Y-112110000D03*
X154320000Y-112110000D03*
%TD*%
%TO.C,C7*%
X159950000Y-120870000D03*
X158990000Y-120870000D03*
%TD*%
D27*
%TO.C,USB1*%
X152110000Y-101198000D03*
X157890000Y-101198000D03*
D28*
X159325000Y-101698000D03*
X150675000Y-101698000D03*
D29*
X159325000Y-97498000D03*
X150675000Y-97498000D03*
D30*
X158200000Y-102460000D03*
X157400000Y-102460000D03*
D31*
X156250000Y-102460000D03*
X155250000Y-102460000D03*
X154750000Y-102460000D03*
X153750000Y-102460000D03*
D30*
X151800000Y-102460000D03*
X152600000Y-102460000D03*
D31*
X153250000Y-102460000D03*
X154250000Y-102460000D03*
X155750000Y-102460000D03*
X156750000Y-102460000D03*
%TD*%
D32*
%TO.C,C9*%
X159180000Y-109760000D03*
X159180000Y-108800000D03*
%TD*%
D33*
%TO.C,SW2*%
X161780000Y-105780000D03*
X161780000Y-113180000D03*
%TD*%
D24*
%TO.C,R2*%
X157500000Y-108790000D03*
X157500000Y-109810000D03*
%TD*%
D34*
%TO.C,D1*%
X164640000Y-101787500D03*
X164640000Y-100212500D03*
%TD*%
D35*
%TO.C,C2*%
X147094000Y-102643000D03*
X148054000Y-102643000D03*
%TD*%
D18*
%TO.C,C6*%
X155280000Y-113320000D03*
X154320000Y-113320000D03*
%TD*%
%TO.C,C11*%
X164640000Y-122450000D03*
X163680000Y-122450000D03*
%TD*%
D36*
%TO.C,Y1*%
X161700000Y-122480000D03*
X159500000Y-122480000D03*
X159500000Y-124180000D03*
X161700000Y-124180000D03*
%TD*%
D18*
%TO.C,C10*%
X164640000Y-124270000D03*
X163680000Y-124270000D03*
%TD*%
D35*
%TO.C,C1*%
X147980000Y-97155000D03*
X147020000Y-97155000D03*
%TD*%
D33*
%TO.C,SW1*%
X148100000Y-105800000D03*
X148100000Y-113200000D03*
%TD*%
D37*
%TO.C,U1*%
X148040000Y-98649000D03*
X147090000Y-98649000D03*
X146140000Y-98649000D03*
X146140000Y-101249000D03*
X148040000Y-101249000D03*
%TD*%
D25*
%TO.C,J2*%
X170400000Y-96500000D03*
D26*
X170400000Y-99040000D03*
X170400000Y-101580000D03*
X170400000Y-104120000D03*
X170400000Y-106660000D03*
X170400000Y-109200000D03*
X170400000Y-111740000D03*
X170400000Y-114280000D03*
X170400000Y-116820000D03*
X170400000Y-119360000D03*
X170400000Y-121900000D03*
X170400000Y-124440000D03*
X170400000Y-126980000D03*
X170400000Y-129520000D03*
%TD*%
D25*
%TO.C,J1*%
X139500000Y-96500000D03*
D26*
X139500000Y-99040000D03*
X139500000Y-101580000D03*
X139500000Y-104120000D03*
X139500000Y-106660000D03*
X139500000Y-109200000D03*
X139500000Y-111740000D03*
X139500000Y-114280000D03*
X139500000Y-116820000D03*
X139500000Y-119360000D03*
X139500000Y-121900000D03*
X139500000Y-124440000D03*
X139500000Y-126980000D03*
X139500000Y-129520000D03*
%TD*%
M02*
