M48
; DRILL file {KiCad (6.0.7)} date Sat Oct  8 18:54:56 2022
; FORMAT={-:-/ absolute / metric / decimal}
; #@! TF.CreationDate,2022-10-08T18:54:56+08:00
; #@! TF.GenerationSoftware,Kicad,Pcbnew,(6.0.7)
; #@! TF.FileFunction,MixedPlating,1,2
FMAT,2
METRIC
; #@! TA.AperFunction,Plated,PTH,ViaDrill
T1C0.200
; #@! TA.AperFunction,Plated,PTH,ViaDrill
T2C0.300
; #@! TA.AperFunction,Plated,PTH,ViaDrill
T3C0.500
; #@! TA.AperFunction,Plated,PTH,ComponentDrill
T4C0.600
; #@! TA.AperFunction,Plated,PTH,ComponentDrill
T5C1.000
; #@! TA.AperFunction,Plated,PTH,ViaDrill
T6C1.200
%
G90
G05
T1
X151.94Y-114.18
X151.96Y-103.9
X152.36Y-112.17
X152.36Y-108.27
X152.69Y-114.19
X153.45Y-114.19
X154.27Y-106.36
X154.56Y-119.73
X155.38Y-122.53
X155.61Y-115.01
X156.04Y-115.46
X156.48Y-115.88
X156.91Y-116.36
X157.37Y-116.77
X159.219Y-113.55
X160.26Y-117.342
X161.42Y-103.92
T2
X151.329Y-108.285
X156.59Y-108.54
X159.7Y-112.65
T3
X150.45Y-114.97
X150.59Y-116.42
X154.43Y-108.85
X154.432Y-94.488
X156.55Y-97.77
X162.34Y-115.06
T5
X147.77Y-93.69
X147.77Y-96.23
X147.77Y-98.77
X147.77Y-101.31
X147.77Y-103.85
X147.77Y-106.39
X147.77Y-108.93
X147.77Y-111.47
X147.77Y-114.01
X147.77Y-116.55
X147.77Y-119.09
X147.77Y-121.63
X147.77Y-124.17
X147.77Y-126.71
X152.84Y-129.31
X155.38Y-129.31
X157.92Y-129.31
X160.46Y-129.31
X165.48Y-93.72
X165.48Y-96.26
X165.48Y-98.8
X165.48Y-101.34
X165.48Y-103.88
X165.48Y-106.42
X165.48Y-108.96
X165.48Y-111.5
X165.48Y-114.04
X165.48Y-116.58
X165.48Y-119.12
X165.48Y-121.66
X165.48Y-124.2
X165.48Y-126.74
T6
X148.87Y-129.48
X149.1Y-84.5
X164.23Y-84.54
X164.41Y-129.51
T4
G00X152.32Y-85.87
M15
G01X152.32Y-85.07
M16
G05
G00X152.32Y-89.67
M15
G01X152.32Y-88.87
M16
G05
G00X160.96Y-85.87
M15
G01X160.96Y-85.07
M16
G05
G00X160.96Y-89.67
M15
G01X160.96Y-88.87
M16
G05
T0
M30
