%TF.GenerationSoftware,KiCad,Pcbnew,7.0.5*%
%TF.CreationDate,2023-07-04T16:10:45+08:00*%
%TF.ProjectId,UINIO-MCU-STM32L051K8,55494e49-4f2d-44d4-9355-2d53544d3332,Version 3.3.0*%
%TF.SameCoordinates,PXa305660PY5939cc0*%
%TF.FileFunction,Soldermask,Top*%
%TF.FilePolarity,Negative*%
%FSLAX46Y46*%
G04 Gerber Fmt 4.6, Leading zero omitted, Abs format (unit mm)*
G04 Created by KiCad (PCBNEW 7.0.5) date 2023-07-04 16:10:45*
%MOMM*%
%LPD*%
G01*
G04 APERTURE LIST*
G04 Aperture macros list*
%AMRoundRect*
0 Rectangle with rounded corners*
0 $1 Rounding radius*
0 $2 $3 $4 $5 $6 $7 $8 $9 X,Y pos of 4 corners*
0 Add a 4 corners polygon primitive as box body*
4,1,4,$2,$3,$4,$5,$6,$7,$8,$9,$2,$3,0*
0 Add four circle primitives for the rounded corners*
1,1,$1+$1,$2,$3*
1,1,$1+$1,$4,$5*
1,1,$1+$1,$6,$7*
1,1,$1+$1,$8,$9*
0 Add four rect primitives between the rounded corners*
20,1,$1+$1,$2,$3,$4,$5,0*
20,1,$1+$1,$4,$5,$6,$7,0*
20,1,$1+$1,$6,$7,$8,$9,0*
20,1,$1+$1,$8,$9,$2,$3,0*%
%AMRotRect*
0 Rectangle, with rotation*
0 The origin of the aperture is its center*
0 $1 length*
0 $2 width*
0 $3 Rotation angle, in degrees counterclockwise*
0 Add horizontal line*
21,1,$1,$2,0,0,$3*%
G04 Aperture macros list end*
%ADD10RoundRect,0.135000X-0.135000X-0.185000X0.135000X-0.185000X0.135000X0.185000X-0.135000X0.185000X0*%
%ADD11RoundRect,0.140000X-0.140000X-0.170000X0.140000X-0.170000X0.140000X0.170000X-0.140000X0.170000X0*%
%ADD12RoundRect,0.250000X-0.375000X-0.625000X0.375000X-0.625000X0.375000X0.625000X-0.375000X0.625000X0*%
%ADD13C,1.200000*%
%ADD14RoundRect,0.140000X0.140000X0.170000X-0.140000X0.170000X-0.140000X-0.170000X0.140000X-0.170000X0*%
%ADD15RotRect,0.600000X0.300000X315.000000*%
%ADD16RotRect,0.600000X0.300000X45.000000*%
%ADD17RotRect,0.600000X0.300000X135.000000*%
%ADD18RotRect,0.600000X0.300000X225.000000*%
%ADD19RotRect,3.450000X3.450000X225.000000*%
%ADD20RoundRect,0.135000X0.185000X-0.135000X0.185000X0.135000X-0.185000X0.135000X-0.185000X-0.135000X0*%
%ADD21R,1.700000X1.700000*%
%ADD22O,1.700000X1.700000*%
%ADD23O,1.800000X1.000000*%
%ADD24R,1.400000X0.700000*%
%ADD25R,1.400000X0.800000*%
%ADD26R,1.200000X0.650000*%
%ADD27RoundRect,0.218750X0.218750X0.256250X-0.218750X0.256250X-0.218750X-0.256250X0.218750X-0.256250X0*%
%ADD28RoundRect,0.140000X0.170000X-0.140000X0.170000X0.140000X-0.170000X0.140000X-0.170000X-0.140000X0*%
%ADD29RoundRect,0.140000X-0.170000X0.140000X-0.170000X-0.140000X0.170000X-0.140000X0.170000X0.140000X0*%
%ADD30R,1.800000X1.000000*%
%ADD31R,1.000000X0.600000*%
G04 APERTURE END LIST*
D10*
%TO.C,R3*%
X-32330000Y-9180000D03*
X-31310000Y-9180000D03*
%TD*%
D11*
%TO.C,C5*%
X-25110000Y-11300000D03*
X-24150000Y-11300000D03*
%TD*%
D12*
%TO.C,F1*%
X-40160000Y-3550000D03*
X-37360000Y-3550000D03*
%TD*%
D13*
%TO.C,Hole3*%
X-43420000Y-2300000D03*
%TD*%
D14*
%TO.C,C4*%
X-11640000Y-14770000D03*
X-12600000Y-14770000D03*
%TD*%
D15*
%TO.C,U3*%
X-12675761Y-7173788D03*
X-13029315Y-7527341D03*
X-13382868Y-7880895D03*
X-13736422Y-8234448D03*
X-14089975Y-8588001D03*
X-14443528Y-8941555D03*
X-14797082Y-9295108D03*
X-15150635Y-9648662D03*
D16*
X-15150635Y-10765890D03*
X-14797082Y-11119444D03*
X-14443528Y-11472997D03*
X-14089975Y-11826551D03*
X-13736422Y-12180104D03*
X-13382868Y-12533657D03*
X-13029315Y-12887211D03*
X-12675761Y-13240764D03*
D17*
X-11558533Y-13240764D03*
X-11204979Y-12887211D03*
X-10851426Y-12533657D03*
X-10497872Y-12180104D03*
X-10144319Y-11826551D03*
X-9790766Y-11472997D03*
X-9437212Y-11119444D03*
X-9083659Y-10765890D03*
D18*
X-9083659Y-9648662D03*
X-9437212Y-9295108D03*
X-9790766Y-8941555D03*
X-10144319Y-8588001D03*
X-10497872Y-8234448D03*
X-10851426Y-7880895D03*
X-11204979Y-7527341D03*
X-11558533Y-7173788D03*
D19*
X-12117147Y-10207276D03*
%TD*%
D20*
%TO.C,R1*%
X-40560000Y-1830000D03*
X-40560000Y-810000D03*
%TD*%
D13*
%TO.C,Hole1*%
X1090000Y-17980000D03*
%TD*%
D21*
%TO.C,J3*%
X1550000Y-13950000D03*
D22*
X1550000Y-11410000D03*
X1550000Y-8870000D03*
X1550000Y-6330000D03*
%TD*%
D11*
%TO.C,C8*%
X-18000000Y-10910000D03*
X-17040000Y-10910000D03*
%TD*%
D14*
%TO.C,C7*%
X-11650000Y-5530000D03*
X-12610000Y-5530000D03*
%TD*%
D23*
%TO.C,USB1*%
X-39620000Y-5830000D03*
X-39620000Y-14470000D03*
X-43420000Y-5830000D03*
X-43420000Y-14470000D03*
D24*
X-38620000Y-9650000D03*
X-38620000Y-11670000D03*
D25*
X-38620000Y-12900000D03*
D24*
X-38620000Y-10650000D03*
X-38620000Y-8630000D03*
D25*
X-38620000Y-7400000D03*
%TD*%
D14*
%TO.C,C9*%
X-24140000Y-9170000D03*
X-25100000Y-9170000D03*
%TD*%
D13*
%TO.C,Hole2*%
X1090000Y-2300000D03*
%TD*%
D26*
%TO.C,SW2*%
X-30340000Y-5755000D03*
X-26040000Y-5755000D03*
X-30340000Y-7905000D03*
X-26040000Y-7905000D03*
%TD*%
D10*
%TO.C,R2*%
X-32340000Y-11260000D03*
X-31320000Y-11260000D03*
%TD*%
D27*
%TO.C,D1*%
X-37817500Y-1300000D03*
X-39392500Y-1300000D03*
%TD*%
D28*
%TO.C,C2*%
X-36660000Y-18040000D03*
X-36660000Y-17080000D03*
%TD*%
D11*
%TO.C,C6*%
X-18000000Y-9560000D03*
X-17040000Y-9560000D03*
%TD*%
D28*
%TO.C,C11*%
X-19490000Y-8240000D03*
X-19490000Y-7280000D03*
%TD*%
D29*
%TO.C,C10*%
X-19490000Y-5400000D03*
X-19490000Y-6360000D03*
%TD*%
D28*
%TO.C,C1*%
X-41450000Y-18040000D03*
X-41450000Y-17080000D03*
%TD*%
D13*
%TO.C,Hole4*%
X-43420000Y-17980000D03*
%TD*%
D30*
%TO.C,Y1*%
X-17500000Y-8050000D03*
X-17500000Y-5550000D03*
%TD*%
D26*
%TO.C,SW1*%
X-30340000Y-12515000D03*
X-26040000Y-12515000D03*
X-30340000Y-14665000D03*
X-26040000Y-14665000D03*
%TD*%
D31*
%TO.C,U1*%
X-40360000Y-17090000D03*
X-40360000Y-18040000D03*
X-40360000Y-18990000D03*
X-37760000Y-18990000D03*
X-37760000Y-17090000D03*
%TD*%
D22*
%TO.C,J2*%
X-1330000Y-1340000D03*
X-3870000Y-1340000D03*
X-6410000Y-1340000D03*
X-8950000Y-1340000D03*
X-11490000Y-1340000D03*
X-14030000Y-1340000D03*
X-16570000Y-1340000D03*
X-19110000Y-1340000D03*
X-21650000Y-1340000D03*
X-24190000Y-1340000D03*
X-26730000Y-1340000D03*
X-29270000Y-1340000D03*
X-31810000Y-1340000D03*
D21*
X-34350000Y-1340000D03*
%TD*%
%TO.C,J1*%
X-34350000Y-18960000D03*
D22*
X-31810000Y-18960000D03*
X-29270000Y-18960000D03*
X-26730000Y-18960000D03*
X-24190000Y-18960000D03*
X-21650000Y-18960000D03*
X-19110000Y-18960000D03*
X-16570000Y-18960000D03*
X-14030000Y-18960000D03*
X-11490000Y-18960000D03*
X-8950000Y-18960000D03*
X-6410000Y-18960000D03*
X-3870000Y-18960000D03*
X-1330000Y-18960000D03*
%TD*%
M02*
