%TF.GenerationSoftware,KiCad,Pcbnew,(6.0.11)*%
%TF.CreationDate,2023-02-01T23:08:24+08:00*%
%TF.ProjectId,UINIO-MCU-STM32L051K8,55494e49-4f2d-44d4-9355-2d53544d3332,Version 3.2.0*%
%TF.SameCoordinates,PXa358680PY592b260*%
%TF.FileFunction,Soldermask,Top*%
%TF.FilePolarity,Negative*%
%FSLAX46Y46*%
G04 Gerber Fmt 4.6, Leading zero omitted, Abs format (unit mm)*
G04 Created by KiCad (PCBNEW (6.0.11)) date 2023-02-01 23:08:24*
%MOMM*%
%LPD*%
G01*
G04 APERTURE LIST*
G04 Aperture macros list*
%AMRoundRect*
0 Rectangle with rounded corners*
0 $1 Rounding radius*
0 $2 $3 $4 $5 $6 $7 $8 $9 X,Y pos of 4 corners*
0 Add a 4 corners polygon primitive as box body*
4,1,4,$2,$3,$4,$5,$6,$7,$8,$9,$2,$3,0*
0 Add four circle primitives for the rounded corners*
1,1,$1+$1,$2,$3*
1,1,$1+$1,$4,$5*
1,1,$1+$1,$6,$7*
1,1,$1+$1,$8,$9*
0 Add four rect primitives between the rounded corners*
20,1,$1+$1,$2,$3,$4,$5,0*
20,1,$1+$1,$4,$5,$6,$7,0*
20,1,$1+$1,$6,$7,$8,$9,0*
20,1,$1+$1,$8,$9,$2,$3,0*%
%AMRotRect*
0 Rectangle, with rotation*
0 The origin of the aperture is its center*
0 $1 length*
0 $2 width*
0 $3 Rotation angle, in degrees counterclockwise*
0 Add horizontal line*
21,1,$1,$2,0,0,$3*%
G04 Aperture macros list end*
%ADD10RoundRect,0.135000X-0.135000X-0.185000X0.135000X-0.185000X0.135000X0.185000X-0.135000X0.185000X0*%
%ADD11RoundRect,0.140000X-0.140000X-0.170000X0.140000X-0.170000X0.140000X0.170000X-0.140000X0.170000X0*%
%ADD12RoundRect,0.250000X-0.375000X-0.625000X0.375000X-0.625000X0.375000X0.625000X-0.375000X0.625000X0*%
%ADD13C,1.200000*%
%ADD14RoundRect,0.140000X0.140000X0.170000X-0.140000X0.170000X-0.140000X-0.170000X0.140000X-0.170000X0*%
%ADD15RotRect,0.600000X0.300000X315.000000*%
%ADD16RotRect,0.600000X0.300000X45.000000*%
%ADD17RotRect,0.600000X0.300000X135.000000*%
%ADD18RotRect,0.600000X0.300000X225.000000*%
%ADD19RotRect,3.450000X3.450000X225.000000*%
%ADD20RoundRect,0.135000X0.185000X-0.135000X0.185000X0.135000X-0.185000X0.135000X-0.185000X-0.135000X0*%
%ADD21R,1.700000X1.700000*%
%ADD22O,1.700000X1.700000*%
%ADD23O,1.800000X1.000000*%
%ADD24R,1.400000X0.700000*%
%ADD25R,1.400000X0.800000*%
%ADD26R,1.500000X1.500000*%
%ADD27RoundRect,0.218750X0.218750X0.256250X-0.218750X0.256250X-0.218750X-0.256250X0.218750X-0.256250X0*%
%ADD28RoundRect,0.140000X0.170000X-0.140000X0.170000X0.140000X-0.170000X0.140000X-0.170000X-0.140000X0*%
%ADD29RoundRect,0.140000X-0.170000X0.140000X-0.170000X-0.140000X0.170000X-0.140000X0.170000X0.140000X0*%
%ADD30R,1.800000X1.000000*%
%ADD31R,1.000000X0.600000*%
G04 APERTURE END LIST*
D10*
%TO.C,R3*%
X-32670000Y-9240000D03*
X-31650000Y-9240000D03*
%TD*%
D11*
%TO.C,C5*%
X-25450000Y-11360000D03*
X-24490000Y-11360000D03*
%TD*%
D12*
%TO.C,F1*%
X-40500000Y-3610000D03*
X-37700000Y-3610000D03*
%TD*%
D13*
%TO.C,Hole3*%
X-43740000Y-2350000D03*
%TD*%
D14*
%TO.C,C4*%
X-11977147Y-14881394D03*
X-12937147Y-14881394D03*
%TD*%
D15*
%TO.C,U3*%
X-13015761Y-7275181D03*
X-13369315Y-7628734D03*
X-13722868Y-7982288D03*
X-14076422Y-8335841D03*
X-14429975Y-8689394D03*
X-14783528Y-9042948D03*
X-15137082Y-9396501D03*
X-15490635Y-9750055D03*
D16*
X-15490635Y-10867283D03*
X-15137082Y-11220837D03*
X-14783528Y-11574390D03*
X-14429975Y-11927944D03*
X-14076422Y-12281497D03*
X-13722868Y-12635050D03*
X-13369315Y-12988604D03*
X-13015761Y-13342157D03*
D17*
X-11898533Y-13342157D03*
X-11544979Y-12988604D03*
X-11191426Y-12635050D03*
X-10837872Y-12281497D03*
X-10484319Y-11927944D03*
X-10130766Y-11574390D03*
X-9777212Y-11220837D03*
X-9423659Y-10867283D03*
D18*
X-9423659Y-9750055D03*
X-9777212Y-9396501D03*
X-10130766Y-9042948D03*
X-10484319Y-8689394D03*
X-10837872Y-8335841D03*
X-11191426Y-7982288D03*
X-11544979Y-7628734D03*
X-11898533Y-7275181D03*
D19*
X-12457147Y-10308669D03*
%TD*%
D20*
%TO.C,R1*%
X-40900000Y-1890000D03*
X-40900000Y-870000D03*
%TD*%
D13*
%TO.C,Hole1*%
X770000Y-18170000D03*
%TD*%
D21*
%TO.C,J3*%
X1210000Y-14010000D03*
D22*
X1210000Y-11470000D03*
X1210000Y-8930000D03*
X1210000Y-6390000D03*
%TD*%
D11*
%TO.C,C8*%
X-18340000Y-10970000D03*
X-17380000Y-10970000D03*
%TD*%
D14*
%TO.C,C7*%
X-11987147Y-5621394D03*
X-12947147Y-5621394D03*
%TD*%
D23*
%TO.C,USB1*%
X-39960000Y-5930000D03*
X-39960000Y-14570000D03*
X-43760000Y-5930000D03*
X-43760000Y-14570000D03*
D24*
X-38960000Y-9750000D03*
X-38960000Y-11770000D03*
D25*
X-38960000Y-13000000D03*
D24*
X-38960000Y-10750000D03*
X-38960000Y-8730000D03*
D25*
X-38960000Y-7500000D03*
%TD*%
D14*
%TO.C,C9*%
X-24480000Y-9230000D03*
X-25440000Y-9230000D03*
%TD*%
D13*
%TO.C,Hole2*%
X740000Y-2360000D03*
%TD*%
D26*
%TO.C,SW2*%
X-32230000Y-6890000D03*
X-24830000Y-6890000D03*
%TD*%
D10*
%TO.C,R2*%
X-32680000Y-11320000D03*
X-31660000Y-11320000D03*
%TD*%
D27*
%TO.C,D1*%
X-38157500Y-1360000D03*
X-39732500Y-1360000D03*
%TD*%
D28*
%TO.C,C2*%
X-37000000Y-18100000D03*
X-37000000Y-17140000D03*
%TD*%
D11*
%TO.C,C6*%
X-18340000Y-9620000D03*
X-17380000Y-9620000D03*
%TD*%
D28*
%TO.C,C11*%
X-19830000Y-8300000D03*
X-19830000Y-7340000D03*
%TD*%
D29*
%TO.C,C10*%
X-19830000Y-5460000D03*
X-19830000Y-6420000D03*
%TD*%
D28*
%TO.C,C1*%
X-41790000Y-18100000D03*
X-41790000Y-17140000D03*
%TD*%
D13*
%TO.C,Hole4*%
X-43740000Y-18170000D03*
%TD*%
D30*
%TO.C,Y1*%
X-17840000Y-8110000D03*
X-17840000Y-5610000D03*
%TD*%
D26*
%TO.C,SW1*%
X-32250000Y-13650000D03*
X-24850000Y-13650000D03*
%TD*%
D31*
%TO.C,U1*%
X-40700000Y-17150000D03*
X-40700000Y-18100000D03*
X-40700000Y-19050000D03*
X-38100000Y-19050000D03*
X-38100000Y-17150000D03*
%TD*%
D21*
%TO.C,J2*%
X-34680000Y-1480000D03*
D22*
X-32140000Y-1480000D03*
X-29600000Y-1480000D03*
X-27060000Y-1480000D03*
X-24520000Y-1480000D03*
X-21980000Y-1480000D03*
X-19440000Y-1480000D03*
X-16900000Y-1480000D03*
X-14360000Y-1480000D03*
X-11820000Y-1480000D03*
X-9280000Y-1480000D03*
X-6740000Y-1480000D03*
X-4200000Y-1480000D03*
X-1660000Y-1480000D03*
%TD*%
D21*
%TO.C,J1*%
X-34690000Y-19040000D03*
D22*
X-32150000Y-19040000D03*
X-29610000Y-19040000D03*
X-27070000Y-19040000D03*
X-24530000Y-19040000D03*
X-21990000Y-19040000D03*
X-19450000Y-19040000D03*
X-16910000Y-19040000D03*
X-14370000Y-19040000D03*
X-11830000Y-19040000D03*
X-9290000Y-19040000D03*
X-6750000Y-19040000D03*
X-4210000Y-19040000D03*
X-1670000Y-19040000D03*
%TD*%
M02*
