%TF.GenerationSoftware,KiCad,Pcbnew,(6.0.8)*%
%TF.CreationDate,2022-10-25T17:59:58+08:00*%
%TF.ProjectId,UINIO-MCU-STM32L051K8,55494e49-4f2d-44d4-9355-2d53544d3332,rev?*%
%TF.SameCoordinates,Original*%
%TF.FileFunction,Legend,Top*%
%TF.FilePolarity,Positive*%
%FSLAX46Y46*%
G04 Gerber Fmt 4.6, Leading zero omitted, Abs format (unit mm)*
G04 Created by KiCad (PCBNEW (6.0.8)) date 2022-10-25 17:59:58*
%MOMM*%
%LPD*%
G01*
G04 APERTURE LIST*
G04 Aperture macros list*
%AMRoundRect*
0 Rectangle with rounded corners*
0 $1 Rounding radius*
0 $2 $3 $4 $5 $6 $7 $8 $9 X,Y pos of 4 corners*
0 Add a 4 corners polygon primitive as box body*
4,1,4,$2,$3,$4,$5,$6,$7,$8,$9,$2,$3,0*
0 Add four circle primitives for the rounded corners*
1,1,$1+$1,$2,$3*
1,1,$1+$1,$4,$5*
1,1,$1+$1,$6,$7*
1,1,$1+$1,$8,$9*
0 Add four rect primitives between the rounded corners*
20,1,$1+$1,$2,$3,$4,$5,0*
20,1,$1+$1,$4,$5,$6,$7,0*
20,1,$1+$1,$6,$7,$8,$9,0*
20,1,$1+$1,$8,$9,$2,$3,0*%
%AMRotRect*
0 Rectangle, with rotation*
0 The origin of the aperture is its center*
0 $1 length*
0 $2 width*
0 $3 Rotation angle, in degrees counterclockwise*
0 Add horizontal line*
21,1,$1,$2,0,0,$3*%
G04 Aperture macros list end*
%ADD10C,0.100000*%
%ADD11C,0.150000*%
%ADD12C,0.300000*%
%ADD13C,0.120000*%
%ADD14C,0.254000*%
%ADD15RoundRect,0.135000X0.135000X0.185000X-0.135000X0.185000X-0.135000X-0.185000X0.135000X-0.185000X0*%
%ADD16RoundRect,0.140000X0.140000X0.170000X-0.140000X0.170000X-0.140000X-0.170000X0.140000X-0.170000X0*%
%ADD17RoundRect,0.250000X0.375000X0.625000X-0.375000X0.625000X-0.375000X-0.625000X0.375000X-0.625000X0*%
%ADD18C,1.200000*%
%ADD19RoundRect,0.140000X-0.140000X-0.170000X0.140000X-0.170000X0.140000X0.170000X-0.140000X0.170000X0*%
%ADD20RotRect,0.600000X0.300000X135.000000*%
%ADD21RotRect,0.600000X0.300000X225.000000*%
%ADD22RotRect,0.600000X0.300000X315.000000*%
%ADD23RotRect,0.600000X0.300000X45.000000*%
%ADD24RotRect,3.450000X3.450000X45.000000*%
%ADD25RoundRect,0.135000X0.185000X-0.135000X0.185000X0.135000X-0.185000X0.135000X-0.185000X-0.135000X0*%
%ADD26R,1.700000X1.700000*%
%ADD27O,1.700000X1.700000*%
%ADD28O,1.800000X1.000000*%
%ADD29R,1.400000X0.700000*%
%ADD30R,1.400000X0.800000*%
%ADD31R,1.500000X1.500000*%
%ADD32RoundRect,0.218750X-0.218750X-0.256250X0.218750X-0.256250X0.218750X0.256250X-0.218750X0.256250X0*%
%ADD33RoundRect,0.140000X-0.170000X0.140000X-0.170000X-0.140000X0.170000X-0.140000X0.170000X0.140000X0*%
%ADD34RoundRect,0.140000X0.170000X-0.140000X0.170000X0.140000X-0.170000X0.140000X-0.170000X-0.140000X0*%
%ADD35R,1.800000X1.000000*%
%ADD36R,1.000000X0.600000*%
G04 APERTURE END LIST*
D10*
X147853333Y-105273333D02*
X148553333Y-105273333D01*
X148553333Y-105540000D01*
X148520000Y-105606666D01*
X148486666Y-105640000D01*
X148420000Y-105673333D01*
X148320000Y-105673333D01*
X148253333Y-105640000D01*
X148220000Y-105606666D01*
X148186666Y-105540000D01*
X148186666Y-105273333D01*
X148220000Y-106206666D02*
X148186666Y-106306666D01*
X148153333Y-106340000D01*
X148086666Y-106373333D01*
X147986666Y-106373333D01*
X147920000Y-106340000D01*
X147886666Y-106306666D01*
X147853333Y-106240000D01*
X147853333Y-105973333D01*
X148553333Y-105973333D01*
X148553333Y-106206666D01*
X148520000Y-106273333D01*
X148486666Y-106306666D01*
X148420000Y-106340000D01*
X148353333Y-106340000D01*
X148286666Y-106306666D01*
X148253333Y-106273333D01*
X148220000Y-106206666D01*
X148220000Y-105973333D01*
X148553333Y-106973333D02*
X148553333Y-106840000D01*
X148520000Y-106773333D01*
X148486666Y-106740000D01*
X148386666Y-106673333D01*
X148253333Y-106640000D01*
X147986666Y-106640000D01*
X147920000Y-106673333D01*
X147886666Y-106706666D01*
X147853333Y-106773333D01*
X147853333Y-106906666D01*
X147886666Y-106973333D01*
X147920000Y-107006666D01*
X147986666Y-107040000D01*
X148153333Y-107040000D01*
X148220000Y-107006666D01*
X148253333Y-106973333D01*
X148286666Y-106906666D01*
X148286666Y-106773333D01*
X148253333Y-106706666D01*
X148220000Y-106673333D01*
X148153333Y-106640000D01*
X131659523Y-95631904D02*
X132154761Y-95631904D01*
X131888095Y-95936666D01*
X132002380Y-95936666D01*
X132078571Y-95974761D01*
X132116666Y-96012857D01*
X132154761Y-96089047D01*
X132154761Y-96279523D01*
X132116666Y-96355714D01*
X132078571Y-96393809D01*
X132002380Y-96431904D01*
X131773809Y-96431904D01*
X131697619Y-96393809D01*
X131659523Y-96355714D01*
X132383333Y-95631904D02*
X132650000Y-96431904D01*
X132916666Y-95631904D01*
X133107142Y-95631904D02*
X133602380Y-95631904D01*
X133335714Y-95936666D01*
X133450000Y-95936666D01*
X133526190Y-95974761D01*
X133564285Y-96012857D01*
X133602380Y-96089047D01*
X133602380Y-96279523D01*
X133564285Y-96355714D01*
X133526190Y-96393809D01*
X133450000Y-96431904D01*
X133221428Y-96431904D01*
X133145238Y-96393809D01*
X133107142Y-96355714D01*
X155543333Y-92403333D02*
X156243333Y-92403333D01*
X156243333Y-92670000D01*
X156210000Y-92736666D01*
X156176666Y-92770000D01*
X156110000Y-92803333D01*
X156010000Y-92803333D01*
X155943333Y-92770000D01*
X155910000Y-92736666D01*
X155876666Y-92670000D01*
X155876666Y-92403333D01*
X155743333Y-93070000D02*
X155743333Y-93403333D01*
X155543333Y-93003333D02*
X156243333Y-93236666D01*
X155543333Y-93470000D01*
X156010000Y-94003333D02*
X155543333Y-94003333D01*
X156276666Y-93836666D02*
X155776666Y-93670000D01*
X155776666Y-94103333D01*
X132100476Y-103250000D02*
X132024285Y-103211904D01*
X131910000Y-103211904D01*
X131795714Y-103250000D01*
X131719523Y-103326190D01*
X131681428Y-103402380D01*
X131643333Y-103554761D01*
X131643333Y-103669047D01*
X131681428Y-103821428D01*
X131719523Y-103897619D01*
X131795714Y-103973809D01*
X131910000Y-104011904D01*
X131986190Y-104011904D01*
X132100476Y-103973809D01*
X132138571Y-103935714D01*
X132138571Y-103669047D01*
X131986190Y-103669047D01*
X132481428Y-104011904D02*
X132481428Y-103211904D01*
X132938571Y-104011904D01*
X132938571Y-103211904D01*
X133319523Y-104011904D02*
X133319523Y-103211904D01*
X133510000Y-103211904D01*
X133624285Y-103250000D01*
X133700476Y-103326190D01*
X133738571Y-103402380D01*
X133776666Y-103554761D01*
X133776666Y-103669047D01*
X133738571Y-103821428D01*
X133700476Y-103897619D01*
X133624285Y-103973809D01*
X133510000Y-104011904D01*
X133319523Y-104011904D01*
X165663333Y-92403333D02*
X166363333Y-92403333D01*
X166363333Y-92670000D01*
X166330000Y-92736666D01*
X166296666Y-92770000D01*
X166230000Y-92803333D01*
X166130000Y-92803333D01*
X166063333Y-92770000D01*
X166030000Y-92736666D01*
X165996666Y-92670000D01*
X165996666Y-92403333D01*
X165863333Y-93070000D02*
X165863333Y-93403333D01*
X165663333Y-93003333D02*
X166363333Y-93236666D01*
X165663333Y-93470000D01*
X166363333Y-93836666D02*
X166363333Y-93903333D01*
X166330000Y-93970000D01*
X166296666Y-94003333D01*
X166230000Y-94036666D01*
X166096666Y-94070000D01*
X165930000Y-94070000D01*
X165796666Y-94036666D01*
X165730000Y-94003333D01*
X165696666Y-93970000D01*
X165663333Y-93903333D01*
X165663333Y-93836666D01*
X165696666Y-93770000D01*
X165730000Y-93736666D01*
X165796666Y-93703333D01*
X165930000Y-93670000D01*
X166096666Y-93670000D01*
X166230000Y-93703333D01*
X166296666Y-93736666D01*
X166330000Y-93770000D01*
X166363333Y-93836666D01*
X163133333Y-92403333D02*
X163833333Y-92403333D01*
X163833333Y-92670000D01*
X163800000Y-92736666D01*
X163766666Y-92770000D01*
X163700000Y-92803333D01*
X163600000Y-92803333D01*
X163533333Y-92770000D01*
X163500000Y-92736666D01*
X163466666Y-92670000D01*
X163466666Y-92403333D01*
X163333333Y-93070000D02*
X163333333Y-93403333D01*
X163133333Y-93003333D02*
X163833333Y-93236666D01*
X163133333Y-93470000D01*
X163133333Y-94070000D02*
X163133333Y-93670000D01*
X163133333Y-93870000D02*
X163833333Y-93870000D01*
X163733333Y-93803333D01*
X163666666Y-93736666D01*
X163633333Y-93670000D01*
X132623333Y-92391000D02*
X133323333Y-92391000D01*
X133323333Y-92657666D01*
X133290000Y-92724333D01*
X133256666Y-92757666D01*
X133190000Y-92791000D01*
X133090000Y-92791000D01*
X133023333Y-92757666D01*
X132990000Y-92724333D01*
X132956666Y-92657666D01*
X132956666Y-92391000D01*
X132823333Y-93057666D02*
X132823333Y-93391000D01*
X132623333Y-92991000D02*
X133323333Y-93224333D01*
X132623333Y-93457666D01*
X132623333Y-94057666D02*
X132623333Y-93657666D01*
X132623333Y-93857666D02*
X133323333Y-93857666D01*
X133223333Y-93791000D01*
X133156666Y-93724333D01*
X133123333Y-93657666D01*
X133323333Y-94691000D02*
X133323333Y-94357666D01*
X132990000Y-94324333D01*
X133023333Y-94357666D01*
X133056666Y-94424333D01*
X133056666Y-94591000D01*
X133023333Y-94657666D01*
X132990000Y-94691000D01*
X132923333Y-94724333D01*
X132756666Y-94724333D01*
X132690000Y-94691000D01*
X132656666Y-94657666D01*
X132623333Y-94591000D01*
X132623333Y-94424333D01*
X132656666Y-94357666D01*
X132690000Y-94324333D01*
X155453333Y-104636000D02*
X156153333Y-104636000D01*
X155453333Y-105036000D01*
X156153333Y-105036000D01*
X155453333Y-105769333D02*
X155786666Y-105536000D01*
X155453333Y-105369333D02*
X156153333Y-105369333D01*
X156153333Y-105636000D01*
X156120000Y-105702666D01*
X156086666Y-105736000D01*
X156020000Y-105769333D01*
X155920000Y-105769333D01*
X155853333Y-105736000D01*
X155820000Y-105702666D01*
X155786666Y-105636000D01*
X155786666Y-105369333D01*
X155486666Y-106036000D02*
X155453333Y-106136000D01*
X155453333Y-106302666D01*
X155486666Y-106369333D01*
X155520000Y-106402666D01*
X155586666Y-106436000D01*
X155653333Y-106436000D01*
X155720000Y-106402666D01*
X155753333Y-106369333D01*
X155786666Y-106302666D01*
X155820000Y-106169333D01*
X155853333Y-106102666D01*
X155886666Y-106069333D01*
X155953333Y-106036000D01*
X156020000Y-106036000D01*
X156086666Y-106069333D01*
X156120000Y-106102666D01*
X156153333Y-106169333D01*
X156153333Y-106336000D01*
X156120000Y-106436000D01*
X156153333Y-106636000D02*
X156153333Y-107036000D01*
X155453333Y-106836000D02*
X156153333Y-106836000D01*
X158033333Y-92403333D02*
X158733333Y-92403333D01*
X158733333Y-92670000D01*
X158700000Y-92736666D01*
X158666666Y-92770000D01*
X158600000Y-92803333D01*
X158500000Y-92803333D01*
X158433333Y-92770000D01*
X158400000Y-92736666D01*
X158366666Y-92670000D01*
X158366666Y-92403333D01*
X158233333Y-93070000D02*
X158233333Y-93403333D01*
X158033333Y-93003333D02*
X158733333Y-93236666D01*
X158033333Y-93470000D01*
X158733333Y-93636666D02*
X158733333Y-94070000D01*
X158466666Y-93836666D01*
X158466666Y-93936666D01*
X158433333Y-94003333D01*
X158400000Y-94036666D01*
X158333333Y-94070000D01*
X158166666Y-94070000D01*
X158100000Y-94036666D01*
X158066666Y-94003333D01*
X158033333Y-93936666D01*
X158033333Y-93736666D01*
X158066666Y-93670000D01*
X158100000Y-93636666D01*
X158750000Y-105576666D02*
X158783333Y-105510000D01*
X158783333Y-105410000D01*
X158750000Y-105310000D01*
X158683333Y-105243333D01*
X158616666Y-105210000D01*
X158483333Y-105176666D01*
X158383333Y-105176666D01*
X158250000Y-105210000D01*
X158183333Y-105243333D01*
X158116666Y-105310000D01*
X158083333Y-105410000D01*
X158083333Y-105476666D01*
X158116666Y-105576666D01*
X158150000Y-105610000D01*
X158383333Y-105610000D01*
X158383333Y-105476666D01*
X158083333Y-105910000D02*
X158783333Y-105910000D01*
X158083333Y-106310000D01*
X158783333Y-106310000D01*
X158083333Y-106643333D02*
X158783333Y-106643333D01*
X158783333Y-106810000D01*
X158750000Y-106910000D01*
X158683333Y-106976666D01*
X158616666Y-107010000D01*
X158483333Y-107043333D01*
X158383333Y-107043333D01*
X158250000Y-107010000D01*
X158183333Y-106976666D01*
X158116666Y-106910000D01*
X158083333Y-106810000D01*
X158083333Y-106643333D01*
X131634761Y-99323809D02*
X131749047Y-99361904D01*
X131939523Y-99361904D01*
X132015714Y-99323809D01*
X132053809Y-99285714D01*
X132091904Y-99209523D01*
X132091904Y-99133333D01*
X132053809Y-99057142D01*
X132015714Y-99019047D01*
X131939523Y-98980952D01*
X131787142Y-98942857D01*
X131710952Y-98904761D01*
X131672857Y-98866666D01*
X131634761Y-98790476D01*
X131634761Y-98714285D01*
X131672857Y-98638095D01*
X131710952Y-98600000D01*
X131787142Y-98561904D01*
X131977619Y-98561904D01*
X132091904Y-98600000D01*
X132358571Y-98561904D02*
X132549047Y-99361904D01*
X132701428Y-98790476D01*
X132853809Y-99361904D01*
X133044285Y-98561904D01*
X133349047Y-99361904D02*
X133349047Y-98561904D01*
X133539523Y-98561904D01*
X133653809Y-98600000D01*
X133730000Y-98676190D01*
X133768095Y-98752380D01*
X133806190Y-98904761D01*
X133806190Y-99019047D01*
X133768095Y-99171428D01*
X133730000Y-99247619D01*
X133653809Y-99323809D01*
X133539523Y-99361904D01*
X133349047Y-99361904D01*
X134149047Y-99361904D02*
X134149047Y-98561904D01*
X134682380Y-98561904D02*
X134834761Y-98561904D01*
X134910952Y-98600000D01*
X134987142Y-98676190D01*
X135025238Y-98828571D01*
X135025238Y-99095238D01*
X134987142Y-99247619D01*
X134910952Y-99323809D01*
X134834761Y-99361904D01*
X134682380Y-99361904D01*
X134606190Y-99323809D01*
X134530000Y-99247619D01*
X134491904Y-99095238D01*
X134491904Y-98828571D01*
X134530000Y-98676190D01*
X134606190Y-98600000D01*
X134682380Y-98561904D01*
X135173333Y-105273333D02*
X135873333Y-105273333D01*
X135873333Y-105540000D01*
X135840000Y-105606666D01*
X135806666Y-105640000D01*
X135740000Y-105673333D01*
X135640000Y-105673333D01*
X135573333Y-105640000D01*
X135540000Y-105606666D01*
X135506666Y-105540000D01*
X135506666Y-105273333D01*
X135540000Y-106206666D02*
X135506666Y-106306666D01*
X135473333Y-106340000D01*
X135406666Y-106373333D01*
X135306666Y-106373333D01*
X135240000Y-106340000D01*
X135206666Y-106306666D01*
X135173333Y-106240000D01*
X135173333Y-105973333D01*
X135873333Y-105973333D01*
X135873333Y-106206666D01*
X135840000Y-106273333D01*
X135806666Y-106306666D01*
X135740000Y-106340000D01*
X135673333Y-106340000D01*
X135606666Y-106306666D01*
X135573333Y-106273333D01*
X135540000Y-106206666D01*
X135540000Y-105973333D01*
X135173333Y-107040000D02*
X135173333Y-106640000D01*
X135173333Y-106840000D02*
X135873333Y-106840000D01*
X135773333Y-106773333D01*
X135706666Y-106706666D01*
X135673333Y-106640000D01*
X150393333Y-92403333D02*
X151093333Y-92403333D01*
X151093333Y-92670000D01*
X151060000Y-92736666D01*
X151026666Y-92770000D01*
X150960000Y-92803333D01*
X150860000Y-92803333D01*
X150793333Y-92770000D01*
X150760000Y-92736666D01*
X150726666Y-92670000D01*
X150726666Y-92403333D01*
X150593333Y-93070000D02*
X150593333Y-93403333D01*
X150393333Y-93003333D02*
X151093333Y-93236666D01*
X150393333Y-93470000D01*
X151093333Y-94003333D02*
X151093333Y-93870000D01*
X151060000Y-93803333D01*
X151026666Y-93770000D01*
X150926666Y-93703333D01*
X150793333Y-93670000D01*
X150526666Y-93670000D01*
X150460000Y-93703333D01*
X150426666Y-93736666D01*
X150393333Y-93803333D01*
X150393333Y-93936666D01*
X150426666Y-94003333D01*
X150460000Y-94036666D01*
X150526666Y-94070000D01*
X150693333Y-94070000D01*
X150760000Y-94036666D01*
X150793333Y-94003333D01*
X150826666Y-93936666D01*
X150826666Y-93803333D01*
X150793333Y-93736666D01*
X150760000Y-93703333D01*
X150693333Y-93670000D01*
X152913333Y-105272333D02*
X153613333Y-105272333D01*
X153613333Y-105539000D01*
X153580000Y-105605666D01*
X153546666Y-105639000D01*
X153480000Y-105672333D01*
X153380000Y-105672333D01*
X153313333Y-105639000D01*
X153280000Y-105605666D01*
X153246666Y-105539000D01*
X153246666Y-105272333D01*
X153280000Y-106205666D02*
X153246666Y-106305666D01*
X153213333Y-106339000D01*
X153146666Y-106372333D01*
X153046666Y-106372333D01*
X152980000Y-106339000D01*
X152946666Y-106305666D01*
X152913333Y-106239000D01*
X152913333Y-105972333D01*
X153613333Y-105972333D01*
X153613333Y-106205666D01*
X153580000Y-106272333D01*
X153546666Y-106305666D01*
X153480000Y-106339000D01*
X153413333Y-106339000D01*
X153346666Y-106305666D01*
X153313333Y-106272333D01*
X153280000Y-106205666D01*
X153280000Y-105972333D01*
X153313333Y-106772333D02*
X153346666Y-106705666D01*
X153380000Y-106672333D01*
X153446666Y-106639000D01*
X153480000Y-106639000D01*
X153546666Y-106672333D01*
X153580000Y-106705666D01*
X153613333Y-106772333D01*
X153613333Y-106905666D01*
X153580000Y-106972333D01*
X153546666Y-107005666D01*
X153480000Y-107039000D01*
X153446666Y-107039000D01*
X153380000Y-107005666D01*
X153346666Y-106972333D01*
X153313333Y-106905666D01*
X153313333Y-106772333D01*
X153280000Y-106705666D01*
X153246666Y-106672333D01*
X153180000Y-106639000D01*
X153046666Y-106639000D01*
X152980000Y-106672333D01*
X152946666Y-106705666D01*
X152913333Y-106772333D01*
X152913333Y-106905666D01*
X152946666Y-106972333D01*
X152980000Y-107005666D01*
X153046666Y-107039000D01*
X153180000Y-107039000D01*
X153246666Y-107005666D01*
X153280000Y-106972333D01*
X153313333Y-106905666D01*
X137753333Y-105273333D02*
X138453333Y-105273333D01*
X138453333Y-105540000D01*
X138420000Y-105606666D01*
X138386666Y-105640000D01*
X138320000Y-105673333D01*
X138220000Y-105673333D01*
X138153333Y-105640000D01*
X138120000Y-105606666D01*
X138086666Y-105540000D01*
X138086666Y-105273333D01*
X138120000Y-106206666D02*
X138086666Y-106306666D01*
X138053333Y-106340000D01*
X137986666Y-106373333D01*
X137886666Y-106373333D01*
X137820000Y-106340000D01*
X137786666Y-106306666D01*
X137753333Y-106240000D01*
X137753333Y-105973333D01*
X138453333Y-105973333D01*
X138453333Y-106206666D01*
X138420000Y-106273333D01*
X138386666Y-106306666D01*
X138320000Y-106340000D01*
X138253333Y-106340000D01*
X138186666Y-106306666D01*
X138153333Y-106273333D01*
X138120000Y-106206666D01*
X138120000Y-105973333D01*
X138386666Y-106640000D02*
X138420000Y-106673333D01*
X138453333Y-106740000D01*
X138453333Y-106906666D01*
X138420000Y-106973333D01*
X138386666Y-107006666D01*
X138320000Y-107040000D01*
X138253333Y-107040000D01*
X138153333Y-107006666D01*
X137753333Y-106606666D01*
X137753333Y-107040000D01*
X166338333Y-106280666D02*
X166338333Y-105947333D01*
X166005000Y-105914000D01*
X166038333Y-105947333D01*
X166071666Y-106014000D01*
X166071666Y-106180666D01*
X166038333Y-106247333D01*
X166005000Y-106280666D01*
X165938333Y-106314000D01*
X165771666Y-106314000D01*
X165705000Y-106280666D01*
X165671666Y-106247333D01*
X165638333Y-106180666D01*
X165638333Y-106014000D01*
X165671666Y-105947333D01*
X165705000Y-105914000D01*
X166338333Y-106514000D02*
X165638333Y-106747333D01*
X166338333Y-106980666D01*
D11*
X164541428Y-103527142D02*
X164541428Y-102627142D01*
X165055714Y-103527142D01*
X165055714Y-102627142D01*
X165998571Y-103527142D02*
X165698571Y-103098571D01*
X165484285Y-103527142D02*
X165484285Y-102627142D01*
X165827142Y-102627142D01*
X165912857Y-102670000D01*
X165955714Y-102712857D01*
X165998571Y-102798571D01*
X165998571Y-102927142D01*
X165955714Y-103012857D01*
X165912857Y-103055714D01*
X165827142Y-103098571D01*
X165484285Y-103098571D01*
X166341428Y-103484285D02*
X166470000Y-103527142D01*
X166684285Y-103527142D01*
X166770000Y-103484285D01*
X166812857Y-103441428D01*
X166855714Y-103355714D01*
X166855714Y-103270000D01*
X166812857Y-103184285D01*
X166770000Y-103141428D01*
X166684285Y-103098571D01*
X166512857Y-103055714D01*
X166427142Y-103012857D01*
X166384285Y-102970000D01*
X166341428Y-102884285D01*
X166341428Y-102798571D01*
X166384285Y-102712857D01*
X166427142Y-102670000D01*
X166512857Y-102627142D01*
X166727142Y-102627142D01*
X166855714Y-102670000D01*
X167112857Y-102627142D02*
X167627142Y-102627142D01*
X167370000Y-103527142D02*
X167370000Y-102627142D01*
D10*
X160593333Y-92403333D02*
X161293333Y-92403333D01*
X161293333Y-92670000D01*
X161260000Y-92736666D01*
X161226666Y-92770000D01*
X161160000Y-92803333D01*
X161060000Y-92803333D01*
X160993333Y-92770000D01*
X160960000Y-92736666D01*
X160926666Y-92670000D01*
X160926666Y-92403333D01*
X160793333Y-93070000D02*
X160793333Y-93403333D01*
X160593333Y-93003333D02*
X161293333Y-93236666D01*
X160593333Y-93470000D01*
X161226666Y-93670000D02*
X161260000Y-93703333D01*
X161293333Y-93770000D01*
X161293333Y-93936666D01*
X161260000Y-94003333D01*
X161226666Y-94036666D01*
X161160000Y-94070000D01*
X161093333Y-94070000D01*
X160993333Y-94036666D01*
X160593333Y-93636666D01*
X160593333Y-94070000D01*
X147853333Y-92403333D02*
X148553333Y-92403333D01*
X148553333Y-92670000D01*
X148520000Y-92736666D01*
X148486666Y-92770000D01*
X148420000Y-92803333D01*
X148320000Y-92803333D01*
X148253333Y-92770000D01*
X148220000Y-92736666D01*
X148186666Y-92670000D01*
X148186666Y-92403333D01*
X148053333Y-93070000D02*
X148053333Y-93403333D01*
X147853333Y-93003333D02*
X148553333Y-93236666D01*
X147853333Y-93470000D01*
X148553333Y-93636666D02*
X148553333Y-94103333D01*
X147853333Y-93803333D01*
X150383333Y-105233333D02*
X151083333Y-105233333D01*
X151083333Y-105500000D01*
X151050000Y-105566666D01*
X151016666Y-105600000D01*
X150950000Y-105633333D01*
X150850000Y-105633333D01*
X150783333Y-105600000D01*
X150750000Y-105566666D01*
X150716666Y-105500000D01*
X150716666Y-105233333D01*
X150750000Y-106166666D02*
X150716666Y-106266666D01*
X150683333Y-106300000D01*
X150616666Y-106333333D01*
X150516666Y-106333333D01*
X150450000Y-106300000D01*
X150416666Y-106266666D01*
X150383333Y-106200000D01*
X150383333Y-105933333D01*
X151083333Y-105933333D01*
X151083333Y-106166666D01*
X151050000Y-106233333D01*
X151016666Y-106266666D01*
X150950000Y-106300000D01*
X150883333Y-106300000D01*
X150816666Y-106266666D01*
X150783333Y-106233333D01*
X150750000Y-106166666D01*
X150750000Y-105933333D01*
X151083333Y-106566666D02*
X151083333Y-107033333D01*
X150383333Y-106733333D01*
X161253333Y-105303333D02*
X161253333Y-105736666D01*
X160986666Y-105503333D01*
X160986666Y-105603333D01*
X160953333Y-105670000D01*
X160920000Y-105703333D01*
X160853333Y-105736666D01*
X160686666Y-105736666D01*
X160620000Y-105703333D01*
X160586666Y-105670000D01*
X160553333Y-105603333D01*
X160553333Y-105403333D01*
X160586666Y-105336666D01*
X160620000Y-105303333D01*
X161253333Y-105936666D02*
X160553333Y-106170000D01*
X161253333Y-106403333D01*
X161253333Y-106570000D02*
X161253333Y-107003333D01*
X160986666Y-106770000D01*
X160986666Y-106870000D01*
X160953333Y-106936666D01*
X160920000Y-106970000D01*
X160853333Y-107003333D01*
X160686666Y-107003333D01*
X160620000Y-106970000D01*
X160586666Y-106936666D01*
X160553333Y-106870000D01*
X160553333Y-106670000D01*
X160586666Y-106603333D01*
X160620000Y-106570000D01*
X142763333Y-92403333D02*
X143463333Y-92403333D01*
X143463333Y-92670000D01*
X143430000Y-92736666D01*
X143396666Y-92770000D01*
X143330000Y-92803333D01*
X143230000Y-92803333D01*
X143163333Y-92770000D01*
X143130000Y-92736666D01*
X143096666Y-92670000D01*
X143096666Y-92403333D01*
X142963333Y-93070000D02*
X142963333Y-93403333D01*
X142763333Y-93003333D02*
X143463333Y-93236666D01*
X142763333Y-93470000D01*
X142763333Y-93736666D02*
X142763333Y-93870000D01*
X142796666Y-93936666D01*
X142830000Y-93970000D01*
X142930000Y-94036666D01*
X143063333Y-94070000D01*
X143330000Y-94070000D01*
X143396666Y-94036666D01*
X143430000Y-94003333D01*
X143463333Y-93936666D01*
X143463333Y-93803333D01*
X143430000Y-93736666D01*
X143396666Y-93703333D01*
X143330000Y-93670000D01*
X143163333Y-93670000D01*
X143096666Y-93703333D01*
X143063333Y-93736666D01*
X143030000Y-93803333D01*
X143030000Y-93936666D01*
X143063333Y-94003333D01*
X143096666Y-94036666D01*
X143163333Y-94070000D01*
X132593333Y-105263333D02*
X133293333Y-105263333D01*
X133293333Y-105530000D01*
X133260000Y-105596666D01*
X133226666Y-105630000D01*
X133160000Y-105663333D01*
X133060000Y-105663333D01*
X132993333Y-105630000D01*
X132960000Y-105596666D01*
X132926666Y-105530000D01*
X132926666Y-105263333D01*
X132960000Y-106196666D02*
X132926666Y-106296666D01*
X132893333Y-106330000D01*
X132826666Y-106363333D01*
X132726666Y-106363333D01*
X132660000Y-106330000D01*
X132626666Y-106296666D01*
X132593333Y-106230000D01*
X132593333Y-105963333D01*
X133293333Y-105963333D01*
X133293333Y-106196666D01*
X133260000Y-106263333D01*
X133226666Y-106296666D01*
X133160000Y-106330000D01*
X133093333Y-106330000D01*
X133026666Y-106296666D01*
X132993333Y-106263333D01*
X132960000Y-106196666D01*
X132960000Y-105963333D01*
X133293333Y-106796666D02*
X133293333Y-106863333D01*
X133260000Y-106930000D01*
X133226666Y-106963333D01*
X133160000Y-106996666D01*
X133026666Y-107030000D01*
X132860000Y-107030000D01*
X132726666Y-106996666D01*
X132660000Y-106963333D01*
X132626666Y-106930000D01*
X132593333Y-106863333D01*
X132593333Y-106796666D01*
X132626666Y-106730000D01*
X132660000Y-106696666D01*
X132726666Y-106663333D01*
X132860000Y-106630000D01*
X133026666Y-106630000D01*
X133160000Y-106663333D01*
X133226666Y-106696666D01*
X133260000Y-106730000D01*
X133293333Y-106796666D01*
X137723333Y-92400000D02*
X138423333Y-92400000D01*
X138423333Y-92666666D01*
X138390000Y-92733333D01*
X138356666Y-92766666D01*
X138290000Y-92800000D01*
X138190000Y-92800000D01*
X138123333Y-92766666D01*
X138090000Y-92733333D01*
X138056666Y-92666666D01*
X138056666Y-92400000D01*
X137923333Y-93066666D02*
X137923333Y-93400000D01*
X137723333Y-93000000D02*
X138423333Y-93233333D01*
X137723333Y-93466666D01*
X137723333Y-94066666D02*
X137723333Y-93666666D01*
X137723333Y-93866666D02*
X138423333Y-93866666D01*
X138323333Y-93800000D01*
X138256666Y-93733333D01*
X138223333Y-93666666D01*
X137723333Y-94733333D02*
X137723333Y-94333333D01*
X137723333Y-94533333D02*
X138423333Y-94533333D01*
X138323333Y-94466666D01*
X138256666Y-94400000D01*
X138223333Y-94333333D01*
X152967289Y-92418920D02*
X153667289Y-92418920D01*
X153667289Y-92685587D01*
X153633956Y-92752253D01*
X153600622Y-92785587D01*
X153533956Y-92818920D01*
X153433956Y-92818920D01*
X153367289Y-92785587D01*
X153333956Y-92752253D01*
X153300622Y-92685587D01*
X153300622Y-92418920D01*
X153167289Y-93085587D02*
X153167289Y-93418920D01*
X152967289Y-93018920D02*
X153667289Y-93252253D01*
X152967289Y-93485587D01*
X153667289Y-94052253D02*
X153667289Y-93718920D01*
X153333956Y-93685587D01*
X153367289Y-93718920D01*
X153400622Y-93785587D01*
X153400622Y-93952253D01*
X153367289Y-94018920D01*
X153333956Y-94052253D01*
X153267289Y-94085587D01*
X153100622Y-94085587D01*
X153033956Y-94052253D01*
X153000622Y-94018920D01*
X152967289Y-93952253D01*
X152967289Y-93785587D01*
X153000622Y-93718920D01*
X153033956Y-93685587D01*
X135153333Y-92400000D02*
X135853333Y-92400000D01*
X135853333Y-92666666D01*
X135820000Y-92733333D01*
X135786666Y-92766666D01*
X135720000Y-92800000D01*
X135620000Y-92800000D01*
X135553333Y-92766666D01*
X135520000Y-92733333D01*
X135486666Y-92666666D01*
X135486666Y-92400000D01*
X135353333Y-93066666D02*
X135353333Y-93400000D01*
X135153333Y-93000000D02*
X135853333Y-93233333D01*
X135153333Y-93466666D01*
X135153333Y-94066666D02*
X135153333Y-93666666D01*
X135153333Y-93866666D02*
X135853333Y-93866666D01*
X135753333Y-93800000D01*
X135686666Y-93733333D01*
X135653333Y-93666666D01*
X135786666Y-94333333D02*
X135820000Y-94366666D01*
X135853333Y-94433333D01*
X135853333Y-94600000D01*
X135820000Y-94666666D01*
X135786666Y-94700000D01*
X135720000Y-94733333D01*
X135653333Y-94733333D01*
X135553333Y-94700000D01*
X135153333Y-94300000D01*
X135153333Y-94733333D01*
X131644285Y-98221428D02*
X131644285Y-97621428D01*
X131872857Y-97621428D01*
X131930000Y-97650000D01*
X131958571Y-97678571D01*
X131987142Y-97735714D01*
X131987142Y-97821428D01*
X131958571Y-97878571D01*
X131930000Y-97907142D01*
X131872857Y-97935714D01*
X131644285Y-97935714D01*
X132215714Y-98050000D02*
X132501428Y-98050000D01*
X132158571Y-98221428D02*
X132358571Y-97621428D01*
X132558571Y-98221428D01*
X133072857Y-98221428D02*
X132730000Y-98221428D01*
X132901428Y-98221428D02*
X132901428Y-97621428D01*
X132844285Y-97707142D01*
X132787142Y-97764285D01*
X132730000Y-97792857D01*
X133272857Y-97621428D02*
X133644285Y-97621428D01*
X133444285Y-97850000D01*
X133530000Y-97850000D01*
X133587142Y-97878571D01*
X133615714Y-97907142D01*
X133644285Y-97964285D01*
X133644285Y-98107142D01*
X133615714Y-98164285D01*
X133587142Y-98192857D01*
X133530000Y-98221428D01*
X133358571Y-98221428D01*
X133301428Y-98192857D01*
X133272857Y-98164285D01*
X131650476Y-101883809D02*
X131764761Y-101921904D01*
X131955238Y-101921904D01*
X132031428Y-101883809D01*
X132069523Y-101845714D01*
X132107619Y-101769523D01*
X132107619Y-101693333D01*
X132069523Y-101617142D01*
X132031428Y-101579047D01*
X131955238Y-101540952D01*
X131802857Y-101502857D01*
X131726666Y-101464761D01*
X131688571Y-101426666D01*
X131650476Y-101350476D01*
X131650476Y-101274285D01*
X131688571Y-101198095D01*
X131726666Y-101160000D01*
X131802857Y-101121904D01*
X131993333Y-101121904D01*
X132107619Y-101160000D01*
X132374285Y-101121904D02*
X132564761Y-101921904D01*
X132717142Y-101350476D01*
X132869523Y-101921904D01*
X133060000Y-101121904D01*
X133821904Y-101845714D02*
X133783809Y-101883809D01*
X133669523Y-101921904D01*
X133593333Y-101921904D01*
X133479047Y-101883809D01*
X133402857Y-101807619D01*
X133364761Y-101731428D01*
X133326666Y-101579047D01*
X133326666Y-101464761D01*
X133364761Y-101312380D01*
X133402857Y-101236190D01*
X133479047Y-101160000D01*
X133593333Y-101121904D01*
X133669523Y-101121904D01*
X133783809Y-101160000D01*
X133821904Y-101198095D01*
X134545714Y-101921904D02*
X134164761Y-101921904D01*
X134164761Y-101121904D01*
X134812380Y-101921904D02*
X134812380Y-101121904D01*
X135269523Y-101921904D02*
X134926666Y-101464761D01*
X135269523Y-101121904D02*
X134812380Y-101579047D01*
X140243333Y-105273333D02*
X140943333Y-105273333D01*
X140943333Y-105540000D01*
X140910000Y-105606666D01*
X140876666Y-105640000D01*
X140810000Y-105673333D01*
X140710000Y-105673333D01*
X140643333Y-105640000D01*
X140610000Y-105606666D01*
X140576666Y-105540000D01*
X140576666Y-105273333D01*
X140610000Y-106206666D02*
X140576666Y-106306666D01*
X140543333Y-106340000D01*
X140476666Y-106373333D01*
X140376666Y-106373333D01*
X140310000Y-106340000D01*
X140276666Y-106306666D01*
X140243333Y-106240000D01*
X140243333Y-105973333D01*
X140943333Y-105973333D01*
X140943333Y-106206666D01*
X140910000Y-106273333D01*
X140876666Y-106306666D01*
X140810000Y-106340000D01*
X140743333Y-106340000D01*
X140676666Y-106306666D01*
X140643333Y-106273333D01*
X140610000Y-106206666D01*
X140610000Y-105973333D01*
X140943333Y-106606666D02*
X140943333Y-107040000D01*
X140676666Y-106806666D01*
X140676666Y-106906666D01*
X140643333Y-106973333D01*
X140610000Y-107006666D01*
X140543333Y-107040000D01*
X140376666Y-107040000D01*
X140310000Y-107006666D01*
X140276666Y-106973333D01*
X140243333Y-106906666D01*
X140243333Y-106706666D01*
X140276666Y-106640000D01*
X140310000Y-106606666D01*
X142733333Y-105253333D02*
X143433333Y-105253333D01*
X143433333Y-105520000D01*
X143400000Y-105586666D01*
X143366666Y-105620000D01*
X143300000Y-105653333D01*
X143200000Y-105653333D01*
X143133333Y-105620000D01*
X143100000Y-105586666D01*
X143066666Y-105520000D01*
X143066666Y-105253333D01*
X143100000Y-106186666D02*
X143066666Y-106286666D01*
X143033333Y-106320000D01*
X142966666Y-106353333D01*
X142866666Y-106353333D01*
X142800000Y-106320000D01*
X142766666Y-106286666D01*
X142733333Y-106220000D01*
X142733333Y-105953333D01*
X143433333Y-105953333D01*
X143433333Y-106186666D01*
X143400000Y-106253333D01*
X143366666Y-106286666D01*
X143300000Y-106320000D01*
X143233333Y-106320000D01*
X143166666Y-106286666D01*
X143133333Y-106253333D01*
X143100000Y-106186666D01*
X143100000Y-105953333D01*
X143200000Y-106953333D02*
X142733333Y-106953333D01*
X143466666Y-106786666D02*
X142966666Y-106620000D01*
X142966666Y-107053333D01*
D11*
X164823333Y-96322857D02*
X164937619Y-96360952D01*
X164975714Y-96399047D01*
X165013809Y-96475238D01*
X165013809Y-96589523D01*
X164975714Y-96665714D01*
X164937619Y-96703809D01*
X164861428Y-96741904D01*
X164556666Y-96741904D01*
X164556666Y-95941904D01*
X164823333Y-95941904D01*
X164899523Y-95980000D01*
X164937619Y-96018095D01*
X164975714Y-96094285D01*
X164975714Y-96170476D01*
X164937619Y-96246666D01*
X164899523Y-96284761D01*
X164823333Y-96322857D01*
X164556666Y-96322857D01*
X165509047Y-95941904D02*
X165661428Y-95941904D01*
X165737619Y-95980000D01*
X165813809Y-96056190D01*
X165851904Y-96208571D01*
X165851904Y-96475238D01*
X165813809Y-96627619D01*
X165737619Y-96703809D01*
X165661428Y-96741904D01*
X165509047Y-96741904D01*
X165432857Y-96703809D01*
X165356666Y-96627619D01*
X165318571Y-96475238D01*
X165318571Y-96208571D01*
X165356666Y-96056190D01*
X165432857Y-95980000D01*
X165509047Y-95941904D01*
X166347142Y-95941904D02*
X166499523Y-95941904D01*
X166575714Y-95980000D01*
X166651904Y-96056190D01*
X166690000Y-96208571D01*
X166690000Y-96475238D01*
X166651904Y-96627619D01*
X166575714Y-96703809D01*
X166499523Y-96741904D01*
X166347142Y-96741904D01*
X166270952Y-96703809D01*
X166194761Y-96627619D01*
X166156666Y-96475238D01*
X166156666Y-96208571D01*
X166194761Y-96056190D01*
X166270952Y-95980000D01*
X166347142Y-95941904D01*
X166918571Y-95941904D02*
X167375714Y-95941904D01*
X167147142Y-96741904D02*
X167147142Y-95941904D01*
X167794761Y-95941904D02*
X167870952Y-95941904D01*
X167947142Y-95980000D01*
X167985238Y-96018095D01*
X168023333Y-96094285D01*
X168061428Y-96246666D01*
X168061428Y-96437142D01*
X168023333Y-96589523D01*
X167985238Y-96665714D01*
X167947142Y-96703809D01*
X167870952Y-96741904D01*
X167794761Y-96741904D01*
X167718571Y-96703809D01*
X167680476Y-96665714D01*
X167642380Y-96589523D01*
X167604285Y-96437142D01*
X167604285Y-96246666D01*
X167642380Y-96094285D01*
X167680476Y-96018095D01*
X167718571Y-95980000D01*
X167794761Y-95941904D01*
D10*
X145353333Y-92403333D02*
X146053333Y-92403333D01*
X146053333Y-92670000D01*
X146020000Y-92736666D01*
X145986666Y-92770000D01*
X145920000Y-92803333D01*
X145820000Y-92803333D01*
X145753333Y-92770000D01*
X145720000Y-92736666D01*
X145686666Y-92670000D01*
X145686666Y-92403333D01*
X145553333Y-93070000D02*
X145553333Y-93403333D01*
X145353333Y-93003333D02*
X146053333Y-93236666D01*
X145353333Y-93470000D01*
X145753333Y-93803333D02*
X145786666Y-93736666D01*
X145820000Y-93703333D01*
X145886666Y-93670000D01*
X145920000Y-93670000D01*
X145986666Y-93703333D01*
X146020000Y-93736666D01*
X146053333Y-93803333D01*
X146053333Y-93936666D01*
X146020000Y-94003333D01*
X145986666Y-94036666D01*
X145920000Y-94070000D01*
X145886666Y-94070000D01*
X145820000Y-94036666D01*
X145786666Y-94003333D01*
X145753333Y-93936666D01*
X145753333Y-93803333D01*
X145720000Y-93736666D01*
X145686666Y-93703333D01*
X145620000Y-93670000D01*
X145486666Y-93670000D01*
X145420000Y-93703333D01*
X145386666Y-93736666D01*
X145353333Y-93803333D01*
X145353333Y-93936666D01*
X145386666Y-94003333D01*
X145420000Y-94036666D01*
X145486666Y-94070000D01*
X145620000Y-94070000D01*
X145686666Y-94036666D01*
X145720000Y-94003333D01*
X145753333Y-93936666D01*
X145323333Y-105273333D02*
X146023333Y-105273333D01*
X146023333Y-105540000D01*
X145990000Y-105606666D01*
X145956666Y-105640000D01*
X145890000Y-105673333D01*
X145790000Y-105673333D01*
X145723333Y-105640000D01*
X145690000Y-105606666D01*
X145656666Y-105540000D01*
X145656666Y-105273333D01*
X145690000Y-106206666D02*
X145656666Y-106306666D01*
X145623333Y-106340000D01*
X145556666Y-106373333D01*
X145456666Y-106373333D01*
X145390000Y-106340000D01*
X145356666Y-106306666D01*
X145323333Y-106240000D01*
X145323333Y-105973333D01*
X146023333Y-105973333D01*
X146023333Y-106206666D01*
X145990000Y-106273333D01*
X145956666Y-106306666D01*
X145890000Y-106340000D01*
X145823333Y-106340000D01*
X145756666Y-106306666D01*
X145723333Y-106273333D01*
X145690000Y-106206666D01*
X145690000Y-105973333D01*
X146023333Y-107006666D02*
X146023333Y-106673333D01*
X145690000Y-106640000D01*
X145723333Y-106673333D01*
X145756666Y-106740000D01*
X145756666Y-106906666D01*
X145723333Y-106973333D01*
X145690000Y-107006666D01*
X145623333Y-107040000D01*
X145456666Y-107040000D01*
X145390000Y-107006666D01*
X145356666Y-106973333D01*
X145323333Y-106906666D01*
X145323333Y-106740000D01*
X145356666Y-106673333D01*
X145390000Y-106640000D01*
X131644285Y-100821428D02*
X131644285Y-100221428D01*
X131872857Y-100221428D01*
X131930000Y-100250000D01*
X131958571Y-100278571D01*
X131987142Y-100335714D01*
X131987142Y-100421428D01*
X131958571Y-100478571D01*
X131930000Y-100507142D01*
X131872857Y-100535714D01*
X131644285Y-100535714D01*
X132215714Y-100650000D02*
X132501428Y-100650000D01*
X132158571Y-100821428D02*
X132358571Y-100221428D01*
X132558571Y-100821428D01*
X133072857Y-100821428D02*
X132730000Y-100821428D01*
X132901428Y-100821428D02*
X132901428Y-100221428D01*
X132844285Y-100307142D01*
X132787142Y-100364285D01*
X132730000Y-100392857D01*
X133587142Y-100421428D02*
X133587142Y-100821428D01*
X133444285Y-100192857D02*
X133301428Y-100621428D01*
X133672857Y-100621428D01*
X163750000Y-105571666D02*
X163783333Y-105505000D01*
X163783333Y-105405000D01*
X163750000Y-105305000D01*
X163683333Y-105238333D01*
X163616666Y-105205000D01*
X163483333Y-105171666D01*
X163383333Y-105171666D01*
X163250000Y-105205000D01*
X163183333Y-105238333D01*
X163116666Y-105305000D01*
X163083333Y-105405000D01*
X163083333Y-105471666D01*
X163116666Y-105571666D01*
X163150000Y-105605000D01*
X163383333Y-105605000D01*
X163383333Y-105471666D01*
X163083333Y-105905000D02*
X163783333Y-105905000D01*
X163083333Y-106305000D01*
X163783333Y-106305000D01*
X163083333Y-106638333D02*
X163783333Y-106638333D01*
X163783333Y-106805000D01*
X163750000Y-106905000D01*
X163683333Y-106971666D01*
X163616666Y-107005000D01*
X163483333Y-107038333D01*
X163383333Y-107038333D01*
X163250000Y-107005000D01*
X163183333Y-106971666D01*
X163116666Y-106905000D01*
X163083333Y-106805000D01*
X163083333Y-106638333D01*
X140203333Y-92400000D02*
X140903333Y-92400000D01*
X140903333Y-92666666D01*
X140870000Y-92733333D01*
X140836666Y-92766666D01*
X140770000Y-92800000D01*
X140670000Y-92800000D01*
X140603333Y-92766666D01*
X140570000Y-92733333D01*
X140536666Y-92666666D01*
X140536666Y-92400000D01*
X140403333Y-93066666D02*
X140403333Y-93400000D01*
X140203333Y-93000000D02*
X140903333Y-93233333D01*
X140203333Y-93466666D01*
X140203333Y-94066666D02*
X140203333Y-93666666D01*
X140203333Y-93866666D02*
X140903333Y-93866666D01*
X140803333Y-93800000D01*
X140736666Y-93733333D01*
X140703333Y-93666666D01*
X140903333Y-94500000D02*
X140903333Y-94566666D01*
X140870000Y-94633333D01*
X140836666Y-94666666D01*
X140770000Y-94700000D01*
X140636666Y-94733333D01*
X140470000Y-94733333D01*
X140336666Y-94700000D01*
X140270000Y-94666666D01*
X140236666Y-94633333D01*
X140203333Y-94566666D01*
X140203333Y-94500000D01*
X140236666Y-94433333D01*
X140270000Y-94400000D01*
X140336666Y-94366666D01*
X140470000Y-94333333D01*
X140636666Y-94333333D01*
X140770000Y-94366666D01*
X140836666Y-94400000D01*
X140870000Y-94433333D01*
X140903333Y-94500000D01*
D12*
%TO.C,*%
D10*
%TO.C,R3*%
X161850000Y-101051428D02*
X161650000Y-100765714D01*
X161507142Y-101051428D02*
X161507142Y-100451428D01*
X161735714Y-100451428D01*
X161792857Y-100480000D01*
X161821428Y-100508571D01*
X161850000Y-100565714D01*
X161850000Y-100651428D01*
X161821428Y-100708571D01*
X161792857Y-100737142D01*
X161735714Y-100765714D01*
X161507142Y-100765714D01*
X162050000Y-100451428D02*
X162421428Y-100451428D01*
X162221428Y-100680000D01*
X162307142Y-100680000D01*
X162364285Y-100708571D01*
X162392857Y-100737142D01*
X162421428Y-100794285D01*
X162421428Y-100937142D01*
X162392857Y-100994285D01*
X162364285Y-101022857D01*
X162307142Y-101051428D01*
X162135714Y-101051428D01*
X162078571Y-101022857D01*
X162050000Y-100994285D01*
%TO.C,C5*%
X157660000Y-98854285D02*
X157631428Y-98882857D01*
X157545714Y-98911428D01*
X157488571Y-98911428D01*
X157402857Y-98882857D01*
X157345714Y-98825714D01*
X157317142Y-98768571D01*
X157288571Y-98654285D01*
X157288571Y-98568571D01*
X157317142Y-98454285D01*
X157345714Y-98397142D01*
X157402857Y-98340000D01*
X157488571Y-98311428D01*
X157545714Y-98311428D01*
X157631428Y-98340000D01*
X157660000Y-98368571D01*
X158202857Y-98311428D02*
X157917142Y-98311428D01*
X157888571Y-98597142D01*
X157917142Y-98568571D01*
X157974285Y-98540000D01*
X158117142Y-98540000D01*
X158174285Y-98568571D01*
X158202857Y-98597142D01*
X158231428Y-98654285D01*
X158231428Y-98797142D01*
X158202857Y-98854285D01*
X158174285Y-98882857D01*
X158117142Y-98911428D01*
X157974285Y-98911428D01*
X157917142Y-98882857D01*
X157888571Y-98854285D01*
%TO.C,F1*%
X173067142Y-106590000D02*
X173067142Y-106790000D01*
X173381428Y-106790000D02*
X172781428Y-106790000D01*
X172781428Y-106504285D01*
X173381428Y-105961428D02*
X173381428Y-106304285D01*
X173381428Y-106132857D02*
X172781428Y-106132857D01*
X172867142Y-106190000D01*
X172924285Y-106247142D01*
X172952857Y-106304285D01*
%TO.C,C4*%
X142127147Y-95332891D02*
X142098575Y-95361463D01*
X142012861Y-95390034D01*
X141955718Y-95390034D01*
X141870004Y-95361463D01*
X141812861Y-95304320D01*
X141784289Y-95247177D01*
X141755718Y-95132891D01*
X141755718Y-95047177D01*
X141784289Y-94932891D01*
X141812861Y-94875748D01*
X141870004Y-94818606D01*
X141955718Y-94790034D01*
X142012861Y-94790034D01*
X142098575Y-94818606D01*
X142127147Y-94847177D01*
X142641432Y-94990034D02*
X142641432Y-95390034D01*
X142498575Y-94761463D02*
X142355718Y-95190034D01*
X142727147Y-95190034D01*
%TO.C,U3*%
X146227857Y-96901428D02*
X146227857Y-97387142D01*
X146256428Y-97444285D01*
X146285000Y-97472857D01*
X146342142Y-97501428D01*
X146456428Y-97501428D01*
X146513571Y-97472857D01*
X146542142Y-97444285D01*
X146570714Y-97387142D01*
X146570714Y-96901428D01*
X146799285Y-96901428D02*
X147170714Y-96901428D01*
X146970714Y-97130000D01*
X147056428Y-97130000D01*
X147113571Y-97158571D01*
X147142142Y-97187142D01*
X147170714Y-97244285D01*
X147170714Y-97387142D01*
X147142142Y-97444285D01*
X147113571Y-97472857D01*
X147056428Y-97501428D01*
X146885000Y-97501428D01*
X146827857Y-97472857D01*
X146799285Y-97444285D01*
%TO.C,R1*%
X173381428Y-108710000D02*
X173095714Y-108910000D01*
X173381428Y-109052857D02*
X172781428Y-109052857D01*
X172781428Y-108824285D01*
X172810000Y-108767142D01*
X172838571Y-108738571D01*
X172895714Y-108710000D01*
X172981428Y-108710000D01*
X173038571Y-108738571D01*
X173067142Y-108767142D01*
X173095714Y-108824285D01*
X173095714Y-109052857D01*
X173381428Y-108138571D02*
X173381428Y-108481428D01*
X173381428Y-108310000D02*
X172781428Y-108310000D01*
X172867142Y-108367142D01*
X172924285Y-108424285D01*
X172952857Y-108481428D01*
%TO.C,C8*%
X150680000Y-99254285D02*
X150651428Y-99282857D01*
X150565714Y-99311428D01*
X150508571Y-99311428D01*
X150422857Y-99282857D01*
X150365714Y-99225714D01*
X150337142Y-99168571D01*
X150308571Y-99054285D01*
X150308571Y-98968571D01*
X150337142Y-98854285D01*
X150365714Y-98797142D01*
X150422857Y-98740000D01*
X150508571Y-98711428D01*
X150565714Y-98711428D01*
X150651428Y-98740000D01*
X150680000Y-98768571D01*
X151022857Y-98968571D02*
X150965714Y-98940000D01*
X150937142Y-98911428D01*
X150908571Y-98854285D01*
X150908571Y-98825714D01*
X150937142Y-98768571D01*
X150965714Y-98740000D01*
X151022857Y-98711428D01*
X151137142Y-98711428D01*
X151194285Y-98740000D01*
X151222857Y-98768571D01*
X151251428Y-98825714D01*
X151251428Y-98854285D01*
X151222857Y-98911428D01*
X151194285Y-98940000D01*
X151137142Y-98968571D01*
X151022857Y-98968571D01*
X150965714Y-98997142D01*
X150937142Y-99025714D01*
X150908571Y-99082857D01*
X150908571Y-99197142D01*
X150937142Y-99254285D01*
X150965714Y-99282857D01*
X151022857Y-99311428D01*
X151137142Y-99311428D01*
X151194285Y-99282857D01*
X151222857Y-99254285D01*
X151251428Y-99197142D01*
X151251428Y-99082857D01*
X151222857Y-99025714D01*
X151194285Y-98997142D01*
X151137142Y-98968571D01*
%TO.C,C7*%
X142137147Y-104632891D02*
X142108575Y-104661463D01*
X142022861Y-104690034D01*
X141965718Y-104690034D01*
X141880004Y-104661463D01*
X141822861Y-104604320D01*
X141794289Y-104547177D01*
X141765718Y-104432891D01*
X141765718Y-104347177D01*
X141794289Y-104232891D01*
X141822861Y-104175748D01*
X141880004Y-104118606D01*
X141965718Y-104090034D01*
X142022861Y-104090034D01*
X142108575Y-104118606D01*
X142137147Y-104147177D01*
X142337147Y-104090034D02*
X142737147Y-104090034D01*
X142480004Y-104690034D01*
%TO.C,USB1*%
X173708571Y-98837857D02*
X173222857Y-98837857D01*
X173165714Y-98866428D01*
X173137142Y-98895000D01*
X173108571Y-98952142D01*
X173108571Y-99066428D01*
X173137142Y-99123571D01*
X173165714Y-99152142D01*
X173222857Y-99180714D01*
X173708571Y-99180714D01*
X173137142Y-99437857D02*
X173108571Y-99523571D01*
X173108571Y-99666428D01*
X173137142Y-99723571D01*
X173165714Y-99752142D01*
X173222857Y-99780714D01*
X173280000Y-99780714D01*
X173337142Y-99752142D01*
X173365714Y-99723571D01*
X173394285Y-99666428D01*
X173422857Y-99552142D01*
X173451428Y-99495000D01*
X173480000Y-99466428D01*
X173537142Y-99437857D01*
X173594285Y-99437857D01*
X173651428Y-99466428D01*
X173680000Y-99495000D01*
X173708571Y-99552142D01*
X173708571Y-99695000D01*
X173680000Y-99780714D01*
X173422857Y-100237857D02*
X173394285Y-100323571D01*
X173365714Y-100352142D01*
X173308571Y-100380714D01*
X173222857Y-100380714D01*
X173165714Y-100352142D01*
X173137142Y-100323571D01*
X173108571Y-100266428D01*
X173108571Y-100037857D01*
X173708571Y-100037857D01*
X173708571Y-100237857D01*
X173680000Y-100295000D01*
X173651428Y-100323571D01*
X173594285Y-100352142D01*
X173537142Y-100352142D01*
X173480000Y-100323571D01*
X173451428Y-100295000D01*
X173422857Y-100237857D01*
X173422857Y-100037857D01*
X173108571Y-100952142D02*
X173108571Y-100609285D01*
X173108571Y-100780714D02*
X173708571Y-100780714D01*
X173622857Y-100723571D01*
X173565714Y-100666428D01*
X173537142Y-100609285D01*
%TO.C,C9*%
X157650000Y-100994285D02*
X157621428Y-101022857D01*
X157535714Y-101051428D01*
X157478571Y-101051428D01*
X157392857Y-101022857D01*
X157335714Y-100965714D01*
X157307142Y-100908571D01*
X157278571Y-100794285D01*
X157278571Y-100708571D01*
X157307142Y-100594285D01*
X157335714Y-100537142D01*
X157392857Y-100480000D01*
X157478571Y-100451428D01*
X157535714Y-100451428D01*
X157621428Y-100480000D01*
X157650000Y-100508571D01*
X157935714Y-101051428D02*
X158050000Y-101051428D01*
X158107142Y-101022857D01*
X158135714Y-100994285D01*
X158192857Y-100908571D01*
X158221428Y-100794285D01*
X158221428Y-100565714D01*
X158192857Y-100508571D01*
X158164285Y-100480000D01*
X158107142Y-100451428D01*
X157992857Y-100451428D01*
X157935714Y-100480000D01*
X157907142Y-100508571D01*
X157878571Y-100565714D01*
X157878571Y-100708571D01*
X157907142Y-100765714D01*
X157935714Y-100794285D01*
X157992857Y-100822857D01*
X158107142Y-100822857D01*
X158164285Y-100794285D01*
X158192857Y-100765714D01*
X158221428Y-100708571D01*
%TO.C,R2*%
X161850000Y-98971428D02*
X161650000Y-98685714D01*
X161507142Y-98971428D02*
X161507142Y-98371428D01*
X161735714Y-98371428D01*
X161792857Y-98400000D01*
X161821428Y-98428571D01*
X161850000Y-98485714D01*
X161850000Y-98571428D01*
X161821428Y-98628571D01*
X161792857Y-98657142D01*
X161735714Y-98685714D01*
X161507142Y-98685714D01*
X162078571Y-98428571D02*
X162107142Y-98400000D01*
X162164285Y-98371428D01*
X162307142Y-98371428D01*
X162364285Y-98400000D01*
X162392857Y-98428571D01*
X162421428Y-98485714D01*
X162421428Y-98542857D01*
X162392857Y-98628571D01*
X162050000Y-98971428D01*
X162421428Y-98971428D01*
%TO.C,D1*%
X168571428Y-109102857D02*
X167971428Y-109102857D01*
X167971428Y-108960000D01*
X168000000Y-108874285D01*
X168057142Y-108817142D01*
X168114285Y-108788571D01*
X168228571Y-108760000D01*
X168314285Y-108760000D01*
X168428571Y-108788571D01*
X168485714Y-108817142D01*
X168542857Y-108874285D01*
X168571428Y-108960000D01*
X168571428Y-109102857D01*
X168571428Y-108188571D02*
X168571428Y-108531428D01*
X168571428Y-108360000D02*
X167971428Y-108360000D01*
X168057142Y-108417142D01*
X168114285Y-108474285D01*
X168142857Y-108531428D01*
%TO.C,C2*%
X168474285Y-90930000D02*
X168502857Y-90958571D01*
X168531428Y-91044285D01*
X168531428Y-91101428D01*
X168502857Y-91187142D01*
X168445714Y-91244285D01*
X168388571Y-91272857D01*
X168274285Y-91301428D01*
X168188571Y-91301428D01*
X168074285Y-91272857D01*
X168017142Y-91244285D01*
X167960000Y-91187142D01*
X167931428Y-91101428D01*
X167931428Y-91044285D01*
X167960000Y-90958571D01*
X167988571Y-90930000D01*
X167988571Y-90701428D02*
X167960000Y-90672857D01*
X167931428Y-90615714D01*
X167931428Y-90472857D01*
X167960000Y-90415714D01*
X167988571Y-90387142D01*
X168045714Y-90358571D01*
X168102857Y-90358571D01*
X168188571Y-90387142D01*
X168531428Y-90730000D01*
X168531428Y-90358571D01*
%TO.C,C6*%
X150670000Y-100584285D02*
X150641428Y-100612857D01*
X150555714Y-100641428D01*
X150498571Y-100641428D01*
X150412857Y-100612857D01*
X150355714Y-100555714D01*
X150327142Y-100498571D01*
X150298571Y-100384285D01*
X150298571Y-100298571D01*
X150327142Y-100184285D01*
X150355714Y-100127142D01*
X150412857Y-100070000D01*
X150498571Y-100041428D01*
X150555714Y-100041428D01*
X150641428Y-100070000D01*
X150670000Y-100098571D01*
X151184285Y-100041428D02*
X151070000Y-100041428D01*
X151012857Y-100070000D01*
X150984285Y-100098571D01*
X150927142Y-100184285D01*
X150898571Y-100298571D01*
X150898571Y-100527142D01*
X150927142Y-100584285D01*
X150955714Y-100612857D01*
X151012857Y-100641428D01*
X151127142Y-100641428D01*
X151184285Y-100612857D01*
X151212857Y-100584285D01*
X151241428Y-100527142D01*
X151241428Y-100384285D01*
X151212857Y-100327142D01*
X151184285Y-100298571D01*
X151127142Y-100270000D01*
X151012857Y-100270000D01*
X150955714Y-100298571D01*
X150927142Y-100327142D01*
X150898571Y-100384285D01*
%TO.C,C11*%
X152224285Y-102454285D02*
X152195714Y-102482857D01*
X152110000Y-102511428D01*
X152052857Y-102511428D01*
X151967142Y-102482857D01*
X151910000Y-102425714D01*
X151881428Y-102368571D01*
X151852857Y-102254285D01*
X151852857Y-102168571D01*
X151881428Y-102054285D01*
X151910000Y-101997142D01*
X151967142Y-101940000D01*
X152052857Y-101911428D01*
X152110000Y-101911428D01*
X152195714Y-101940000D01*
X152224285Y-101968571D01*
X152795714Y-102511428D02*
X152452857Y-102511428D01*
X152624285Y-102511428D02*
X152624285Y-101911428D01*
X152567142Y-101997142D01*
X152510000Y-102054285D01*
X152452857Y-102082857D01*
X153367142Y-102511428D02*
X153024285Y-102511428D01*
X153195714Y-102511428D02*
X153195714Y-101911428D01*
X153138571Y-101997142D01*
X153081428Y-102054285D01*
X153024285Y-102082857D01*
%TO.C,C10*%
X152224285Y-104254285D02*
X152195714Y-104282857D01*
X152110000Y-104311428D01*
X152052857Y-104311428D01*
X151967142Y-104282857D01*
X151910000Y-104225714D01*
X151881428Y-104168571D01*
X151852857Y-104054285D01*
X151852857Y-103968571D01*
X151881428Y-103854285D01*
X151910000Y-103797142D01*
X151967142Y-103740000D01*
X152052857Y-103711428D01*
X152110000Y-103711428D01*
X152195714Y-103740000D01*
X152224285Y-103768571D01*
X152795714Y-104311428D02*
X152452857Y-104311428D01*
X152624285Y-104311428D02*
X152624285Y-103711428D01*
X152567142Y-103797142D01*
X152510000Y-103854285D01*
X152452857Y-103882857D01*
X153167142Y-103711428D02*
X153224285Y-103711428D01*
X153281428Y-103740000D01*
X153310000Y-103768571D01*
X153338571Y-103825714D01*
X153367142Y-103940000D01*
X153367142Y-104082857D01*
X153338571Y-104197142D01*
X153310000Y-104254285D01*
X153281428Y-104282857D01*
X153224285Y-104311428D01*
X153167142Y-104311428D01*
X153110000Y-104282857D01*
X153081428Y-104254285D01*
X153052857Y-104197142D01*
X153024285Y-104082857D01*
X153024285Y-103940000D01*
X153052857Y-103825714D01*
X153081428Y-103768571D01*
X153110000Y-103740000D01*
X153167142Y-103711428D01*
%TO.C,C1*%
X173284285Y-90950000D02*
X173312857Y-90978571D01*
X173341428Y-91064285D01*
X173341428Y-91121428D01*
X173312857Y-91207142D01*
X173255714Y-91264285D01*
X173198571Y-91292857D01*
X173084285Y-91321428D01*
X172998571Y-91321428D01*
X172884285Y-91292857D01*
X172827142Y-91264285D01*
X172770000Y-91207142D01*
X172741428Y-91121428D01*
X172741428Y-91064285D01*
X172770000Y-90978571D01*
X172798571Y-90950000D01*
X173341428Y-90378571D02*
X173341428Y-90721428D01*
X173341428Y-90550000D02*
X172741428Y-90550000D01*
X172827142Y-90607142D01*
X172884285Y-90664285D01*
X172912857Y-90721428D01*
%TO.C,Y1*%
X147166428Y-103175714D02*
X147166428Y-103461428D01*
X146966428Y-102861428D02*
X147166428Y-103175714D01*
X147366428Y-102861428D01*
X147880714Y-103461428D02*
X147537857Y-103461428D01*
X147709285Y-103461428D02*
X147709285Y-102861428D01*
X147652142Y-102947142D01*
X147595000Y-103004285D01*
X147537857Y-103032857D01*
%TO.C,U1*%
X170371428Y-92548142D02*
X170857142Y-92548142D01*
X170914285Y-92519571D01*
X170942857Y-92491000D01*
X170971428Y-92433857D01*
X170971428Y-92319571D01*
X170942857Y-92262428D01*
X170914285Y-92233857D01*
X170857142Y-92205285D01*
X170371428Y-92205285D01*
X170971428Y-91605285D02*
X170971428Y-91948142D01*
X170971428Y-91776714D02*
X170371428Y-91776714D01*
X170457142Y-91833857D01*
X170514285Y-91891000D01*
X170542857Y-91948142D01*
%TO.C,*%
G36*
X138489364Y-102255170D02*
G01*
X138800154Y-102255170D01*
X138800154Y-102334280D01*
X138489364Y-102334280D01*
X138489364Y-102441644D01*
X138410254Y-102441644D01*
X138410254Y-102334280D01*
X137709565Y-102334280D01*
X137709565Y-102255170D01*
X138410254Y-102255170D01*
X138410254Y-102142156D01*
X138489364Y-102142156D01*
X138489364Y-102255170D01*
G37*
G36*
X136845004Y-96273880D02*
G01*
X136842179Y-96276705D01*
X136839353Y-96273880D01*
X136842179Y-96271055D01*
X136845004Y-96273880D01*
G37*
G36*
X137093636Y-99215081D02*
G01*
X137026206Y-99215081D01*
X137051539Y-99251321D01*
X137083517Y-99305029D01*
X137104299Y-99358597D01*
X137113853Y-99411916D01*
X137112151Y-99464875D01*
X137110838Y-99473271D01*
X137098652Y-99520798D01*
X137079793Y-99559745D01*
X137053665Y-99591057D01*
X137022306Y-99614164D01*
X137009268Y-99621571D01*
X136996900Y-99627750D01*
X136984050Y-99632825D01*
X136969569Y-99636919D01*
X136952305Y-99640154D01*
X136931107Y-99642654D01*
X136904824Y-99644543D01*
X136872306Y-99645942D01*
X136832401Y-99646977D01*
X136783959Y-99647768D01*
X136725829Y-99648441D01*
X136699498Y-99648705D01*
X136460755Y-99651047D01*
X136460755Y-99447719D01*
X136876083Y-99443935D01*
X136904337Y-99429809D01*
X136925986Y-99416490D01*
X136940315Y-99400678D01*
X136948409Y-99380079D01*
X136951348Y-99352402D01*
X136951068Y-99330921D01*
X136948549Y-99300638D01*
X136943010Y-99275786D01*
X136933169Y-99250628D01*
X136933064Y-99250398D01*
X136916920Y-99215081D01*
X136460755Y-99215081D01*
X136460755Y-99011655D01*
X137093636Y-99011655D01*
X137093636Y-99215081D01*
G37*
G36*
X138042957Y-102984113D02*
G01*
X138110766Y-102984113D01*
X138110766Y-103063224D01*
X138042957Y-103063224D01*
X138042957Y-103244047D01*
X137975149Y-103244047D01*
X137975149Y-103064238D01*
X137888975Y-103062318D01*
X137848155Y-103060916D01*
X137816841Y-103058320D01*
X137793252Y-103053858D01*
X137775607Y-103046858D01*
X137762121Y-103036648D01*
X137751014Y-103022556D01*
X137742065Y-103006934D01*
X137736497Y-102995909D01*
X137732448Y-102986014D01*
X137729675Y-102975226D01*
X137727937Y-102961525D01*
X137726992Y-102942886D01*
X137726600Y-102917287D01*
X137726517Y-102882707D01*
X137726517Y-102776320D01*
X137753358Y-102772447D01*
X137771934Y-102769551D01*
X137787327Y-102766785D01*
X137791500Y-102765891D01*
X137795654Y-102765323D01*
X137798597Y-102766938D01*
X137800491Y-102772293D01*
X137801496Y-102782940D01*
X137801774Y-102800434D01*
X137801485Y-102826330D01*
X137800904Y-102856658D01*
X137799006Y-102950108D01*
X137816008Y-102967111D01*
X137833011Y-102984113D01*
X137975149Y-102984113D01*
X137975149Y-102413390D01*
X138042957Y-102413390D01*
X138042957Y-102984113D01*
G37*
G36*
X136544516Y-95911476D02*
G01*
X136543632Y-95913175D01*
X136536926Y-95913852D01*
X136536098Y-95913175D01*
X136536874Y-95909816D01*
X136539865Y-95909408D01*
X136544516Y-95911476D01*
G37*
G36*
X138473213Y-103540985D02*
G01*
X138506945Y-103573631D01*
X138537297Y-103600661D01*
X138552246Y-103612689D01*
X138589700Y-103641256D01*
X138555616Y-103718424D01*
X138533870Y-103701201D01*
X138520489Y-103690091D01*
X138511092Y-103681347D01*
X138508887Y-103678740D01*
X138505680Y-103674750D01*
X138502997Y-103674590D01*
X138500792Y-103679062D01*
X138499023Y-103688969D01*
X138497642Y-103705116D01*
X138496607Y-103728303D01*
X138495872Y-103759335D01*
X138495392Y-103799014D01*
X138495123Y-103848144D01*
X138495020Y-103907527D01*
X138495015Y-103927784D01*
X138495015Y-104182067D01*
X138461127Y-104182067D01*
X138441074Y-104181407D01*
X138427416Y-104178235D01*
X138415270Y-104170764D01*
X138404157Y-104161214D01*
X138380093Y-104136891D01*
X138352948Y-104105156D01*
X138324778Y-104068665D01*
X138297637Y-104030074D01*
X138274361Y-103993361D01*
X138260391Y-103969939D01*
X138250250Y-103954554D01*
X138242873Y-103947689D01*
X138237199Y-103949829D01*
X138232163Y-103961459D01*
X138226703Y-103983063D01*
X138219756Y-104015125D01*
X138219012Y-104018581D01*
X138199003Y-104134503D01*
X138187596Y-104256795D01*
X138185903Y-104293000D01*
X138182539Y-104384156D01*
X138148065Y-104362470D01*
X138126488Y-104349041D01*
X138111782Y-104339004D01*
X138102862Y-104329843D01*
X138098643Y-104319043D01*
X138098042Y-104304090D01*
X138099972Y-104282468D01*
X138102747Y-104257405D01*
X138118884Y-104137351D01*
X138140774Y-104026284D01*
X138168590Y-103923366D01*
X138176351Y-103899229D01*
X138196642Y-103838146D01*
X138195866Y-103835854D01*
X138280288Y-103835854D01*
X138282691Y-103843947D01*
X138289127Y-103859375D01*
X138298430Y-103879435D01*
X138303499Y-103889767D01*
X138322043Y-103924482D01*
X138342951Y-103959617D01*
X138364556Y-103992654D01*
X138385188Y-104021071D01*
X138403181Y-104042347D01*
X138406958Y-104046145D01*
X138427207Y-104065619D01*
X138427207Y-103852409D01*
X138427265Y-103794918D01*
X138427261Y-103747992D01*
X138426929Y-103710898D01*
X138426001Y-103682903D01*
X138424210Y-103663272D01*
X138421288Y-103651273D01*
X138416969Y-103646170D01*
X138410985Y-103647230D01*
X138403069Y-103653720D01*
X138392954Y-103664906D01*
X138380373Y-103680054D01*
X138369305Y-103693397D01*
X138353151Y-103713946D01*
X138335938Y-103737982D01*
X138318989Y-103763388D01*
X138303628Y-103788045D01*
X138291179Y-103809834D01*
X138282965Y-103826638D01*
X138280288Y-103835854D01*
X138195866Y-103835854D01*
X138174019Y-103771363D01*
X138132591Y-103632484D01*
X138100262Y-103487443D01*
X138085552Y-103399442D01*
X138081631Y-103373120D01*
X138078116Y-103350093D01*
X138075442Y-103333183D01*
X138074208Y-103325982D01*
X138075236Y-103318685D01*
X138082259Y-103310514D01*
X138096888Y-103299928D01*
X138110063Y-103291732D01*
X138148113Y-103268782D01*
X138158046Y-103348239D01*
X138166552Y-103409071D01*
X138176965Y-103471799D01*
X138188785Y-103534019D01*
X138201512Y-103593324D01*
X138214645Y-103647312D01*
X138227685Y-103693577D01*
X138233706Y-103712166D01*
X138244031Y-103742354D01*
X138271501Y-103700865D01*
X138287672Y-103678558D01*
X138308726Y-103652448D01*
X138331366Y-103626529D01*
X138344112Y-103612963D01*
X138389252Y-103566552D01*
X138357725Y-103532499D01*
X138341575Y-103514420D01*
X138323418Y-103493082D01*
X138304696Y-103470306D01*
X138286847Y-103447912D01*
X138271310Y-103427722D01*
X138259526Y-103411555D01*
X138252934Y-103401232D01*
X138252034Y-103398824D01*
X138255723Y-103392705D01*
X138265371Y-103381237D01*
X138278150Y-103367665D01*
X138304266Y-103341150D01*
X138346952Y-103398550D01*
X138372969Y-103431505D01*
X138404101Y-103467707D01*
X138416969Y-103481747D01*
X138438223Y-103504938D01*
X138473213Y-103540985D01*
G37*
G36*
X136483358Y-95889631D02*
G01*
X136480532Y-95892456D01*
X136477707Y-95889631D01*
X136480532Y-95886805D01*
X136483358Y-95889631D01*
G37*
G36*
X136811100Y-96432100D02*
G01*
X136808274Y-96434925D01*
X136805449Y-96432100D01*
X136808274Y-96429275D01*
X136811100Y-96432100D01*
G37*
G36*
X137093636Y-103554836D02*
G01*
X137025310Y-103554836D01*
X137045609Y-103581422D01*
X137066354Y-103612556D01*
X137085315Y-103648242D01*
X137100592Y-103684422D01*
X137110287Y-103717042D01*
X137111127Y-103721297D01*
X137114655Y-103767769D01*
X137108844Y-103813028D01*
X137094429Y-103855198D01*
X137072143Y-103892399D01*
X137042723Y-103922753D01*
X137028295Y-103933085D01*
X137004663Y-103948072D01*
X137032392Y-103984546D01*
X137056389Y-104019618D01*
X137077958Y-104057747D01*
X137095554Y-104095763D01*
X137107631Y-104130496D01*
X137111226Y-104146262D01*
X137114504Y-104192837D01*
X137108498Y-104237482D01*
X137093929Y-104278548D01*
X137071517Y-104314386D01*
X137041984Y-104343348D01*
X137018614Y-104358063D01*
X137005126Y-104364750D01*
X136992375Y-104370323D01*
X136979189Y-104374896D01*
X136964395Y-104378585D01*
X136946823Y-104381507D01*
X136925301Y-104383777D01*
X136898656Y-104385511D01*
X136865717Y-104386825D01*
X136825311Y-104387835D01*
X136776268Y-104388656D01*
X136717416Y-104389404D01*
X136699498Y-104389611D01*
X136460755Y-104392337D01*
X136460755Y-104188556D01*
X136674070Y-104186724D01*
X136729114Y-104186221D01*
X136774037Y-104185707D01*
X136810017Y-104185116D01*
X136838233Y-104184382D01*
X136859865Y-104183441D01*
X136876092Y-104182226D01*
X136888093Y-104180672D01*
X136897047Y-104178712D01*
X136904134Y-104176283D01*
X136909987Y-104173591D01*
X136930178Y-104159899D01*
X136943255Y-104141607D01*
X136950039Y-104116860D01*
X136951351Y-104083803D01*
X136951228Y-104080354D01*
X136948656Y-104051076D01*
X136942766Y-104027124D01*
X136933574Y-104005482D01*
X136917632Y-103972990D01*
X136460755Y-103972990D01*
X136460755Y-103770298D01*
X136674070Y-103768518D01*
X136729008Y-103768033D01*
X136773825Y-103767542D01*
X136809700Y-103766976D01*
X136837813Y-103766269D01*
X136859342Y-103765353D01*
X136875469Y-103764160D01*
X136887372Y-103762624D01*
X136896231Y-103760677D01*
X136903226Y-103758252D01*
X136909537Y-103755282D01*
X136909987Y-103755049D01*
X136931928Y-103737729D01*
X136946324Y-103713259D01*
X136952952Y-103683098D01*
X136951592Y-103648704D01*
X136942020Y-103611535D01*
X136934579Y-103593430D01*
X136916790Y-103554836D01*
X136460755Y-103554836D01*
X136460755Y-103351410D01*
X137093636Y-103351410D01*
X137093636Y-103554836D01*
G37*
G36*
X136798799Y-96290074D02*
G01*
X136797915Y-96291774D01*
X136791209Y-96292450D01*
X136790380Y-96291774D01*
X136791156Y-96288414D01*
X136794148Y-96288007D01*
X136798799Y-96290074D01*
G37*
G36*
X138370699Y-100277417D02*
G01*
X138370699Y-100565604D01*
X138540221Y-100565604D01*
X138540221Y-100277417D01*
X138619331Y-100277417D01*
X138619331Y-100565604D01*
X138800154Y-100565604D01*
X138800154Y-100650365D01*
X138619331Y-100650365D01*
X138619331Y-100949853D01*
X138540221Y-100949853D01*
X138540221Y-100650365D01*
X138370699Y-100650365D01*
X138370699Y-100887695D01*
X138337505Y-100887695D01*
X138306605Y-100883978D01*
X138269094Y-100873398D01*
X138226614Y-100856810D01*
X138180808Y-100835073D01*
X138133318Y-100809043D01*
X138085786Y-100779575D01*
X138039856Y-100747528D01*
X137997169Y-100713757D01*
X137986786Y-100704783D01*
X137965801Y-100686975D01*
X137951344Y-100676516D01*
X137942125Y-100672589D01*
X137937556Y-100673684D01*
X137929243Y-100683233D01*
X137917095Y-100700511D01*
X137902508Y-100723227D01*
X137886877Y-100749092D01*
X137871599Y-100775816D01*
X137858068Y-100801109D01*
X137850443Y-100816609D01*
X137838537Y-100843712D01*
X137825540Y-100875888D01*
X137813735Y-100907425D01*
X137810541Y-100916566D01*
X137791998Y-100970866D01*
X137751424Y-100937006D01*
X137710850Y-100903147D01*
X137724156Y-100873061D01*
X137763085Y-100791299D01*
X137804060Y-100717980D01*
X137848696Y-100650254D01*
X137857292Y-100638372D01*
X137869941Y-100620858D01*
X137879509Y-100607102D01*
X137882922Y-100601740D01*
X137996170Y-100601740D01*
X138035154Y-100638914D01*
X138058249Y-100659377D01*
X138086182Y-100681853D01*
X138114119Y-100702510D01*
X138123583Y-100708988D01*
X138151921Y-100726445D01*
X138184965Y-100744612D01*
X138219390Y-100761845D01*
X138251871Y-100776498D01*
X138279083Y-100786926D01*
X138284526Y-100788636D01*
X138297240Y-100792395D01*
X138297240Y-100436178D01*
X138273224Y-100443765D01*
X138208896Y-100467000D01*
X138149856Y-100494885D01*
X138092725Y-100529238D01*
X138034124Y-100571877D01*
X138032278Y-100573326D01*
X137996170Y-100601740D01*
X137882922Y-100601740D01*
X137884412Y-100599399D01*
X137884737Y-100598593D01*
X137881795Y-100593275D01*
X137873733Y-100580348D01*
X137861695Y-100561606D01*
X137846823Y-100538847D01*
X137842653Y-100532522D01*
X137804536Y-100470878D01*
X137767343Y-100403429D01*
X137733930Y-100335506D01*
X137718946Y-100301647D01*
X137700320Y-100257640D01*
X137736698Y-100230534D01*
X137753758Y-100218150D01*
X137766957Y-100209187D01*
X137774059Y-100205144D01*
X137774658Y-100205105D01*
X137777157Y-100210762D01*
X137782689Y-100224761D01*
X137790372Y-100244841D01*
X137797300Y-100263290D01*
X137818496Y-100315375D01*
X137844091Y-100370628D01*
X137872008Y-100424884D01*
X137900167Y-100473977D01*
X137910954Y-100491114D01*
X137941489Y-100538115D01*
X137956906Y-100526227D01*
X137995572Y-100497518D01*
X138034639Y-100470496D01*
X138070794Y-100447400D01*
X138090989Y-100435650D01*
X138119223Y-100421391D01*
X138154391Y-100405585D01*
X138192570Y-100389828D01*
X138229839Y-100375721D01*
X138262275Y-100364863D01*
X138270399Y-100362499D01*
X138297240Y-100355059D01*
X138297240Y-100277417D01*
X138370699Y-100277417D01*
G37*
G36*
X136843120Y-96470713D02*
G01*
X136843797Y-96477419D01*
X136843120Y-96478248D01*
X136839761Y-96477472D01*
X136839353Y-96474481D01*
X136841421Y-96469829D01*
X136843120Y-96470713D01*
G37*
G36*
X137797430Y-95841205D02*
G01*
X137800036Y-95855400D01*
X137802224Y-95876170D01*
X137803843Y-95901151D01*
X137804741Y-95927982D01*
X137804769Y-95954299D01*
X137803774Y-95977740D01*
X137803695Y-95978793D01*
X137797416Y-96025643D01*
X137786299Y-96073608D01*
X137771573Y-96117957D01*
X137761519Y-96140860D01*
X137750000Y-96161740D01*
X137741136Y-96171985D01*
X137734559Y-96171849D01*
X137730139Y-96162509D01*
X137727274Y-96143165D01*
X137728245Y-96119240D01*
X137733286Y-96089214D01*
X137742632Y-96051567D01*
X137752503Y-96017762D01*
X137762160Y-95984024D01*
X137771077Y-95949047D01*
X137778365Y-95916579D01*
X137783135Y-95890366D01*
X137783686Y-95886383D01*
X137786991Y-95864146D01*
X137790417Y-95846917D01*
X137793421Y-95837204D01*
X137794558Y-95835949D01*
X137797430Y-95841205D01*
G37*
G36*
X138065560Y-104193368D02*
G01*
X137709565Y-104193368D01*
X137709565Y-104114908D01*
X137714374Y-104114560D01*
X137828230Y-104114560D01*
X137911578Y-104112996D01*
X137994926Y-104111433D01*
X137996392Y-103830309D01*
X137997857Y-103549186D01*
X137828230Y-103549186D01*
X137828230Y-104114560D01*
X137714374Y-104114560D01*
X137733580Y-104113170D01*
X137757596Y-104111433D01*
X137759061Y-103830309D01*
X137760527Y-103549186D01*
X137709565Y-103549186D01*
X137709565Y-103470076D01*
X138065560Y-103470076D01*
X138065560Y-104193368D01*
G37*
G36*
X136845004Y-96533813D02*
G01*
X136842179Y-96536638D01*
X136839353Y-96533813D01*
X136842179Y-96530988D01*
X136845004Y-96533813D01*
G37*
G36*
X136528564Y-96822000D02*
G01*
X136525738Y-96824825D01*
X136522913Y-96822000D01*
X136525738Y-96819175D01*
X136528564Y-96822000D01*
G37*
G36*
X136844560Y-96489055D02*
G01*
X136845004Y-96491099D01*
X136840902Y-96496853D01*
X136839353Y-96497083D01*
X136833850Y-96495155D01*
X136833703Y-96494592D01*
X136837662Y-96489767D01*
X136839353Y-96488607D01*
X136844560Y-96489055D01*
G37*
G36*
X136982334Y-100442011D02*
G01*
X136992572Y-100443852D01*
X137057769Y-100461956D01*
X137117440Y-100488564D01*
X137170556Y-100522995D01*
X137216091Y-100564572D01*
X137253018Y-100612614D01*
X137256746Y-100618654D01*
X137282402Y-100671049D01*
X137301200Y-100730369D01*
X137312938Y-100794402D01*
X137317415Y-100860941D01*
X137314430Y-100927775D01*
X137303780Y-100992697D01*
X137294098Y-101028331D01*
X137269376Y-101088794D01*
X137235765Y-101142489D01*
X137193729Y-101189002D01*
X137143726Y-101227915D01*
X137086218Y-101258812D01*
X137021666Y-101281278D01*
X137011050Y-101283981D01*
X136965992Y-101291935D01*
X136914500Y-101296136D01*
X136860638Y-101296582D01*
X136808471Y-101293267D01*
X136762063Y-101286186D01*
X136753661Y-101284277D01*
X136687046Y-101262978D01*
X136628093Y-101233421D01*
X136577004Y-101195838D01*
X136533977Y-101150456D01*
X136499215Y-101097508D01*
X136472917Y-101037223D01*
X136455283Y-100969831D01*
X136450041Y-100935726D01*
X136446044Y-100895817D01*
X136445058Y-100867264D01*
X136602238Y-100867264D01*
X136606515Y-100909990D01*
X136614152Y-100936641D01*
X136633760Y-100973443D01*
X136662762Y-101006040D01*
X136699698Y-101033374D01*
X136743107Y-101054383D01*
X136791528Y-101068008D01*
X136796368Y-101068885D01*
X136827981Y-101072473D01*
X136865234Y-101073774D01*
X136904905Y-101072955D01*
X136943774Y-101070181D01*
X136978620Y-101065621D01*
X137006222Y-101059439D01*
X137011249Y-101057790D01*
X137060101Y-101035921D01*
X137099259Y-101008503D01*
X137129012Y-100975279D01*
X137149653Y-100935993D01*
X137149928Y-100935268D01*
X137156820Y-100914134D01*
X137160208Y-100894384D01*
X137160745Y-100870990D01*
X137160164Y-100856616D01*
X137152835Y-100808566D01*
X137136287Y-100767006D01*
X137110591Y-100731992D01*
X137075820Y-100703579D01*
X137032046Y-100681824D01*
X136979341Y-100666783D01*
X136917777Y-100658512D01*
X136904226Y-100657666D01*
X136841131Y-100658174D01*
X136783550Y-100666239D01*
X136732361Y-100681558D01*
X136688438Y-100703830D01*
X136652657Y-100732753D01*
X136638309Y-100749332D01*
X136618519Y-100783953D01*
X136606367Y-100824258D01*
X136602238Y-100867264D01*
X136445058Y-100867264D01*
X136444832Y-100860734D01*
X136446420Y-100825132D01*
X136450538Y-100785982D01*
X136464162Y-100719443D01*
X136487469Y-100658012D01*
X136519821Y-100602443D01*
X136560583Y-100553490D01*
X136609118Y-100511907D01*
X136664790Y-100478448D01*
X136726964Y-100453866D01*
X136732082Y-100452340D01*
X136765664Y-100445020D01*
X136806998Y-100439794D01*
X136852707Y-100436769D01*
X136899416Y-100436058D01*
X136904226Y-100436244D01*
X136943750Y-100437768D01*
X136982334Y-100442011D01*
G37*
G36*
X137302713Y-97892812D02*
G01*
X137029690Y-97892812D01*
X136958887Y-97892950D01*
X136896179Y-97893358D01*
X136842103Y-97894024D01*
X136797199Y-97894938D01*
X136762005Y-97896089D01*
X136737059Y-97897465D01*
X136723318Y-97898977D01*
X136682734Y-97909957D01*
X136651339Y-97926687D01*
X136628385Y-97950046D01*
X136613126Y-97980915D01*
X136604814Y-98020171D01*
X136603159Y-98040474D01*
X136604033Y-98086339D01*
X136611968Y-98123891D01*
X136627343Y-98153930D01*
X136650535Y-98177254D01*
X136674482Y-98191389D01*
X136706561Y-98206427D01*
X137004637Y-98208074D01*
X137302713Y-98209722D01*
X137302713Y-98423980D01*
X137006954Y-98423980D01*
X136941040Y-98423958D01*
X136885384Y-98423868D01*
X136838940Y-98423677D01*
X136800666Y-98423349D01*
X136769516Y-98422851D01*
X136744448Y-98422149D01*
X136724415Y-98421207D01*
X136708375Y-98419991D01*
X136695283Y-98418467D01*
X136684094Y-98416601D01*
X136673766Y-98414358D01*
X136667489Y-98412802D01*
X136622923Y-98398549D01*
X136586085Y-98379865D01*
X136553692Y-98354867D01*
X136536440Y-98337592D01*
X136510793Y-98306665D01*
X136491217Y-98274773D01*
X136475516Y-98237938D01*
X136467079Y-98211935D01*
X136451177Y-98139023D01*
X136445311Y-98060935D01*
X136449482Y-97977695D01*
X136450122Y-97971922D01*
X136461991Y-97907022D01*
X136481729Y-97849664D01*
X136509081Y-97800150D01*
X136543796Y-97758779D01*
X136585620Y-97725853D01*
X136634301Y-97701673D01*
X136689585Y-97686539D01*
X136690066Y-97686453D01*
X136703686Y-97684505D01*
X136721454Y-97682870D01*
X136744295Y-97681526D01*
X136773135Y-97680449D01*
X136808899Y-97679617D01*
X136852515Y-97679006D01*
X136904906Y-97678594D01*
X136966999Y-97678357D01*
X137018764Y-97678282D01*
X137302713Y-97678085D01*
X137302713Y-97892812D01*
G37*
G36*
X138528920Y-102780687D02*
G01*
X138602379Y-102780687D01*
X138602379Y-102441644D01*
X138670188Y-102441644D01*
X138670188Y-102780687D01*
X138800154Y-102780687D01*
X138800154Y-102859798D01*
X138670188Y-102859798D01*
X138670188Y-103215793D01*
X138602379Y-103215793D01*
X138602379Y-102859798D01*
X138528920Y-102859798D01*
X138528920Y-103147984D01*
X138110766Y-103147984D01*
X138110766Y-103068874D01*
X138178830Y-103068874D01*
X138177290Y-102965749D01*
X138175749Y-102862623D01*
X138140432Y-102860941D01*
X138105598Y-102859281D01*
X138240733Y-102859281D01*
X138240733Y-103068874D01*
X138320098Y-103068874D01*
X138382001Y-103068874D01*
X138461111Y-103068874D01*
X138461111Y-102859798D01*
X138382001Y-102859798D01*
X138382001Y-103068874D01*
X138320098Y-103068874D01*
X138318558Y-102965749D01*
X138317017Y-102862623D01*
X138240733Y-102859281D01*
X138105598Y-102859281D01*
X138105115Y-102859258D01*
X138105115Y-102780687D01*
X138178575Y-102780687D01*
X138240733Y-102780687D01*
X138319843Y-102780687D01*
X138382001Y-102780687D01*
X138461111Y-102780687D01*
X138461111Y-102577261D01*
X138382001Y-102577261D01*
X138382001Y-102780687D01*
X138319843Y-102780687D01*
X138319843Y-102577261D01*
X138240733Y-102577261D01*
X138240733Y-102780687D01*
X138178575Y-102780687D01*
X138178575Y-102577261D01*
X138088163Y-102577261D01*
X138088163Y-102498151D01*
X138528920Y-102498151D01*
X138528920Y-102780687D01*
G37*
G36*
X137226585Y-96066306D02*
G01*
X137232633Y-96072182D01*
X137233858Y-96077318D01*
X137232177Y-96087833D01*
X137221653Y-96093342D01*
X137221516Y-96093376D01*
X137211815Y-96098255D01*
X137204318Y-96108416D01*
X137198459Y-96125423D01*
X137193671Y-96150838D01*
X137190017Y-96180245D01*
X137185983Y-96225858D01*
X137183209Y-96274753D01*
X137181637Y-96325543D01*
X137181211Y-96376840D01*
X137181873Y-96427257D01*
X137183567Y-96475407D01*
X137186237Y-96519903D01*
X137189824Y-96559358D01*
X137194272Y-96592384D01*
X137199525Y-96617594D01*
X137205526Y-96633601D01*
X137208779Y-96637712D01*
X137219072Y-96642518D01*
X137229253Y-96644873D01*
X137240251Y-96649309D01*
X137243377Y-96660431D01*
X137243380Y-96660954D01*
X137241702Y-96670665D01*
X137234489Y-96675200D01*
X137223301Y-96676769D01*
X137201521Y-96674829D01*
X137185352Y-96664324D01*
X137174048Y-96644490D01*
X137167677Y-96619535D01*
X137161882Y-96577737D01*
X137157298Y-96527337D01*
X137154001Y-96470976D01*
X137152067Y-96411294D01*
X137151571Y-96350934D01*
X137152588Y-96292536D01*
X137155193Y-96238742D01*
X137156367Y-96223023D01*
X137160789Y-96175329D01*
X137165582Y-96137838D01*
X137171139Y-96109449D01*
X137177853Y-96089064D01*
X137186116Y-96075584D01*
X137196321Y-96067909D01*
X137208861Y-96064941D01*
X137212911Y-96064803D01*
X137226585Y-96066306D01*
G37*
G36*
X136845004Y-96505560D02*
G01*
X136842179Y-96508385D01*
X136839353Y-96505560D01*
X136842179Y-96502734D01*
X136845004Y-96505560D01*
G37*
G36*
X136613324Y-99949675D02*
G01*
X137150143Y-99949675D01*
X137150143Y-99814058D01*
X137302713Y-99814058D01*
X137302713Y-100300020D01*
X137150143Y-100300020D01*
X137150143Y-100164403D01*
X136613324Y-100164403D01*
X136613324Y-100300020D01*
X136460755Y-100300020D01*
X136460755Y-99814058D01*
X136613324Y-99814058D01*
X136613324Y-99949675D01*
G37*
G36*
X136833703Y-96234325D02*
G01*
X136830877Y-96237150D01*
X136828052Y-96234325D01*
X136830877Y-96231499D01*
X136833703Y-96234325D01*
G37*
G36*
X136877025Y-96216431D02*
G01*
X136877701Y-96223137D01*
X136877025Y-96223965D01*
X136873665Y-96223189D01*
X136873258Y-96220198D01*
X136875325Y-96215547D01*
X136877025Y-96216431D01*
G37*
G36*
X137742994Y-96567412D02*
G01*
X137752616Y-96579614D01*
X137764086Y-96602099D01*
X137764502Y-96603034D01*
X137779861Y-96641200D01*
X137790754Y-96677511D01*
X137797773Y-96715182D01*
X137801511Y-96757428D01*
X137802563Y-96807465D01*
X137802559Y-96809246D01*
X137802034Y-96844695D01*
X137800740Y-96872160D01*
X137798755Y-96890534D01*
X137796199Y-96898671D01*
X137792410Y-96898570D01*
X137789242Y-96889223D01*
X137786393Y-96869668D01*
X137786020Y-96866219D01*
X137782065Y-96839911D01*
X137775268Y-96806199D01*
X137766432Y-96768376D01*
X137756360Y-96729736D01*
X137745856Y-96693571D01*
X137738144Y-96669959D01*
X137730284Y-96638787D01*
X137727263Y-96606779D01*
X137729478Y-96578816D01*
X137730412Y-96574781D01*
X137735500Y-96565724D01*
X137742994Y-96567412D01*
G37*
G36*
X136878908Y-96166516D02*
G01*
X136876083Y-96169341D01*
X136873258Y-96166516D01*
X136876083Y-96163691D01*
X136878908Y-96166516D01*
G37*
G36*
X137934478Y-102568449D02*
G01*
X137947457Y-102581075D01*
X137956072Y-102591179D01*
X137958197Y-102595360D01*
X137955158Y-102601591D01*
X137946948Y-102615022D01*
X137934926Y-102633626D01*
X137920449Y-102655380D01*
X137904877Y-102678258D01*
X137889569Y-102700236D01*
X137875882Y-102719288D01*
X137867970Y-102729831D01*
X137857058Y-102743958D01*
X137831342Y-102718766D01*
X137818100Y-102705309D01*
X137808919Y-102695053D01*
X137805912Y-102690512D01*
X137809219Y-102685060D01*
X137818016Y-102672470D01*
X137830967Y-102654612D01*
X137846737Y-102633355D01*
X137846879Y-102633165D01*
X137864037Y-102610233D01*
X137879790Y-102589111D01*
X137892279Y-102572295D01*
X137899161Y-102562950D01*
X137910759Y-102547021D01*
X137934478Y-102568449D01*
G37*
G36*
X138653235Y-98062334D02*
G01*
X138794504Y-98062334D01*
X138794504Y-98152745D01*
X138653235Y-98152745D01*
X138653235Y-98565248D01*
X138037448Y-98565248D01*
X138036793Y-98474836D01*
X138116417Y-98474836D01*
X138302891Y-98474836D01*
X138302891Y-98152745D01*
X138116417Y-98152745D01*
X138116417Y-98474836D01*
X138036793Y-98474836D01*
X138035964Y-98360409D01*
X138034481Y-98155571D01*
X137961022Y-98154081D01*
X137928952Y-98153694D01*
X137905834Y-98154185D01*
X137889339Y-98155767D01*
X137877137Y-98158653D01*
X137867864Y-98162557D01*
X137858550Y-98167613D01*
X137851124Y-98173170D01*
X137845372Y-98180488D01*
X137841079Y-98190828D01*
X137838031Y-98205451D01*
X137836014Y-98225616D01*
X137834813Y-98252585D01*
X137834214Y-98287618D01*
X137834002Y-98331975D01*
X137833973Y-98361822D01*
X137834017Y-98409623D01*
X137834250Y-98447489D01*
X137834745Y-98476788D01*
X137835576Y-98498884D01*
X137836818Y-98515145D01*
X137838544Y-98526937D01*
X137840828Y-98535626D01*
X137843745Y-98542579D01*
X137843778Y-98542645D01*
X137855262Y-98558522D01*
X137873036Y-98571412D01*
X137898394Y-98581869D01*
X137932632Y-98590451D01*
X137969498Y-98596661D01*
X137995189Y-98600462D01*
X138016407Y-98603818D01*
X138030872Y-98606355D01*
X138036278Y-98607661D01*
X138035362Y-98613368D01*
X138031340Y-98627053D01*
X138025004Y-98646087D01*
X138022856Y-98652206D01*
X138014870Y-98673640D01*
X138008846Y-98686235D01*
X138003451Y-98691967D01*
X137997352Y-98692807D01*
X137995631Y-98692499D01*
X137984748Y-98690359D01*
X137966112Y-98686879D01*
X137943099Y-98682687D01*
X137934195Y-98681088D01*
X137889479Y-98672152D01*
X137854429Y-98662848D01*
X137827410Y-98652574D01*
X137806788Y-98640726D01*
X137793101Y-98629001D01*
X137782472Y-98617818D01*
X137773866Y-98607439D01*
X137767060Y-98596557D01*
X137761832Y-98583864D01*
X137757960Y-98568052D01*
X137755221Y-98547813D01*
X137753393Y-98521839D01*
X137752254Y-98488824D01*
X137751582Y-98447459D01*
X137751154Y-98396436D01*
X137751056Y-98381600D01*
X137750922Y-98336313D01*
X137751094Y-98293657D01*
X137751543Y-98255215D01*
X137752240Y-98222570D01*
X137753156Y-98197306D01*
X137754261Y-98181007D01*
X137754844Y-98176858D01*
X137762815Y-98152472D01*
X138382001Y-98152472D01*
X138382001Y-98474836D01*
X138574301Y-98474836D01*
X138572801Y-98315204D01*
X138571300Y-98155571D01*
X138476650Y-98154021D01*
X138382001Y-98152472D01*
X137762815Y-98152472D01*
X137767544Y-98138003D01*
X137787684Y-98107132D01*
X137814846Y-98084759D01*
X137838337Y-98074258D01*
X137851269Y-98071675D01*
X137872947Y-98069074D01*
X137900819Y-98066691D01*
X137932332Y-98064763D01*
X137948308Y-98064057D01*
X137993264Y-98062334D01*
X138116417Y-98062334D01*
X138302891Y-98062334D01*
X138382001Y-98062334D01*
X138574125Y-98062334D01*
X138574125Y-97745893D01*
X138382001Y-97745893D01*
X138382001Y-98062334D01*
X138302891Y-98062334D01*
X138302891Y-97745893D01*
X138116417Y-97745893D01*
X138116417Y-98062334D01*
X137993264Y-98062334D01*
X138037307Y-98060646D01*
X138037307Y-97745893D01*
X137958197Y-97745893D01*
X137958197Y-97655482D01*
X138653235Y-97655482D01*
X138653235Y-98062334D01*
G37*
G36*
X136825949Y-96288918D02*
G01*
X136828052Y-96290173D01*
X136823393Y-96293141D01*
X136816750Y-96295295D01*
X136807740Y-96295612D01*
X136805449Y-96293128D01*
X136810186Y-96288966D01*
X136816750Y-96288007D01*
X136825949Y-96288918D01*
G37*
G36*
X136681133Y-101667495D02*
G01*
X136460755Y-101667495D01*
X136460755Y-101464069D01*
X136681133Y-101464069D01*
X136681133Y-101667495D01*
G37*
G36*
X136843213Y-96428215D02*
G01*
X136843887Y-96437047D01*
X136842767Y-96439046D01*
X136840199Y-96437361D01*
X136839799Y-96431629D01*
X136841179Y-96425600D01*
X136843213Y-96428215D01*
G37*
G36*
X136844141Y-96405188D02*
G01*
X136845004Y-96409497D01*
X136842346Y-96415601D01*
X136839353Y-96415148D01*
X136833969Y-96410315D01*
X136833703Y-96409497D01*
X136837644Y-96405005D01*
X136839353Y-96403846D01*
X136844141Y-96405188D01*
G37*
G36*
X136809216Y-96459412D02*
G01*
X136809892Y-96466118D01*
X136809216Y-96466946D01*
X136805857Y-96466171D01*
X136805449Y-96463179D01*
X136807517Y-96458528D01*
X136809216Y-96459412D01*
G37*
G36*
X136488009Y-96838194D02*
G01*
X136487125Y-96839894D01*
X136480419Y-96840570D01*
X136479591Y-96839894D01*
X136480366Y-96836535D01*
X136483358Y-96836127D01*
X136488009Y-96838194D01*
G37*
G36*
X136845004Y-96217373D02*
G01*
X136842179Y-96220198D01*
X136839353Y-96217373D01*
X136842179Y-96214547D01*
X136845004Y-96217373D01*
G37*
G36*
X136828052Y-96494258D02*
G01*
X136825227Y-96497083D01*
X136822401Y-96494258D01*
X136825227Y-96491433D01*
X136828052Y-96494258D01*
G37*
G36*
X136902162Y-102528495D02*
G01*
X136955391Y-102551280D01*
X137001817Y-102582571D01*
X137040966Y-102622019D01*
X137072362Y-102669272D01*
X137095530Y-102723980D01*
X137102958Y-102750176D01*
X137108598Y-102783152D01*
X137111740Y-102823219D01*
X137112388Y-102866443D01*
X137110545Y-102908895D01*
X137106214Y-102946642D01*
X137102774Y-102963971D01*
X137083614Y-103021444D01*
X137055791Y-103071743D01*
X137019651Y-103114518D01*
X136975540Y-103149420D01*
X136923802Y-103176099D01*
X136878500Y-103190942D01*
X136847101Y-103196552D01*
X136808760Y-103199701D01*
X136767433Y-103200388D01*
X136727076Y-103198611D01*
X136691645Y-103194369D01*
X136675891Y-103191037D01*
X136618742Y-103170920D01*
X136568677Y-103142346D01*
X136526233Y-103105855D01*
X136491946Y-103061984D01*
X136466353Y-103011273D01*
X136452649Y-102966796D01*
X136447116Y-102935404D01*
X136443182Y-102898044D01*
X136441628Y-102869230D01*
X136579178Y-102869230D01*
X136585919Y-102903309D01*
X136590116Y-102913879D01*
X136607567Y-102939991D01*
X136633573Y-102962774D01*
X136665441Y-102979979D01*
X136672478Y-102982622D01*
X136688481Y-102987093D01*
X136707601Y-102990025D01*
X136732302Y-102991643D01*
X136765048Y-102992170D01*
X136777195Y-102992147D01*
X136810196Y-102991724D01*
X136834644Y-102990607D01*
X136853281Y-102988465D01*
X136868851Y-102984970D01*
X136884096Y-102979789D01*
X136886060Y-102979028D01*
X136922306Y-102960998D01*
X136948478Y-102938698D01*
X136965337Y-102911067D01*
X136973646Y-102877045D01*
X136974847Y-102855378D01*
X136972599Y-102822921D01*
X136964650Y-102797449D01*
X136949576Y-102775491D01*
X136937049Y-102763032D01*
X136916849Y-102747289D01*
X136894879Y-102735821D01*
X136869017Y-102728076D01*
X136837143Y-102723501D01*
X136797136Y-102721542D01*
X136777195Y-102721367D01*
X136737597Y-102721937D01*
X136706790Y-102723994D01*
X136682310Y-102728036D01*
X136661690Y-102734562D01*
X136642464Y-102744071D01*
X136631454Y-102750841D01*
X136607821Y-102772535D01*
X136590790Y-102801236D01*
X136581022Y-102834336D01*
X136579178Y-102869230D01*
X136441628Y-102869230D01*
X136441072Y-102858932D01*
X136441011Y-102822284D01*
X136443223Y-102792314D01*
X136443327Y-102791563D01*
X136457063Y-102729194D01*
X136479500Y-102673842D01*
X136510199Y-102625876D01*
X136548718Y-102585670D01*
X136594617Y-102553595D01*
X136647456Y-102530022D01*
X136706792Y-102515324D01*
X136772187Y-102509873D01*
X136777195Y-102509847D01*
X136842605Y-102514568D01*
X136902162Y-102528495D01*
G37*
G36*
X137384065Y-96308465D02*
G01*
X137389284Y-96310405D01*
X137402179Y-96313786D01*
X137423239Y-96317060D01*
X137449332Y-96319812D01*
X137472176Y-96321383D01*
X137500638Y-96323077D01*
X137519678Y-96324912D01*
X137531173Y-96327255D01*
X137536999Y-96330472D01*
X137538947Y-96334423D01*
X137536008Y-96343178D01*
X137524879Y-96348189D01*
X137504608Y-96351129D01*
X137477835Y-96352044D01*
X137448684Y-96351104D01*
X137421276Y-96348480D01*
X137399735Y-96344341D01*
X137395029Y-96342828D01*
X137380011Y-96337767D01*
X137371450Y-96337223D01*
X137365406Y-96341282D01*
X137363396Y-96343525D01*
X137354992Y-96355983D01*
X137351780Y-96362879D01*
X137344528Y-96370608D01*
X137333824Y-96372464D01*
X137325079Y-96367936D01*
X137323748Y-96365532D01*
X137324419Y-96356326D01*
X137329461Y-96342083D01*
X137331877Y-96337040D01*
X137346529Y-96316572D01*
X137363902Y-96307058D01*
X137384065Y-96308465D01*
G37*
G36*
X137915371Y-101013197D02*
G01*
X137923612Y-101023242D01*
X137937017Y-101039674D01*
X137953638Y-101060100D01*
X137969204Y-101079267D01*
X138001519Y-101116760D01*
X138040692Y-101158472D01*
X138084336Y-101202119D01*
X138130065Y-101245419D01*
X138175494Y-101286087D01*
X138218237Y-101321839D01*
X138241536Y-101339933D01*
X138269824Y-101360515D01*
X138301063Y-101382232D01*
X138333357Y-101403869D01*
X138364814Y-101424210D01*
X138393541Y-101442041D01*
X138417644Y-101456144D01*
X138435230Y-101465306D01*
X138439921Y-101467281D01*
X138442433Y-101467660D01*
X138444481Y-101466078D01*
X138446112Y-101461510D01*
X138447372Y-101452933D01*
X138448310Y-101439321D01*
X138448972Y-101419650D01*
X138449406Y-101392897D01*
X138449659Y-101358037D01*
X138449777Y-101314044D01*
X138449809Y-101259897D01*
X138449809Y-101034614D01*
X138528920Y-101034614D01*
X138528920Y-101514925D01*
X138800154Y-101514925D01*
X138800154Y-101599686D01*
X138528920Y-101599686D01*
X138528920Y-102085649D01*
X138449809Y-102085649D01*
X138449809Y-101865270D01*
X138449684Y-101814288D01*
X138449325Y-101768005D01*
X138448757Y-101727503D01*
X138448005Y-101693865D01*
X138447094Y-101668172D01*
X138446047Y-101651506D01*
X138444891Y-101644950D01*
X138444768Y-101644892D01*
X138436705Y-101647750D01*
X138420990Y-101655601D01*
X138399505Y-101667363D01*
X138374126Y-101681955D01*
X138346734Y-101698295D01*
X138319207Y-101715300D01*
X138293424Y-101731889D01*
X138291589Y-101733102D01*
X138203898Y-101796735D01*
X138123100Y-101866613D01*
X138050328Y-101941599D01*
X137986712Y-102020553D01*
X137946092Y-102081031D01*
X137926313Y-102113143D01*
X137886075Y-102081031D01*
X137868304Y-102066378D01*
X137854469Y-102054073D01*
X137846586Y-102045956D01*
X137845509Y-102044080D01*
X137848885Y-102036494D01*
X137858628Y-102022247D01*
X137873403Y-102002952D01*
X137891875Y-101980220D01*
X137912712Y-101955664D01*
X137934579Y-101930895D01*
X137956142Y-101907526D01*
X137972156Y-101891042D01*
X138057059Y-101813677D01*
X138151232Y-101741845D01*
X138253744Y-101676221D01*
X138318368Y-101640370D01*
X138390477Y-101602512D01*
X138047195Y-101601055D01*
X137703914Y-101599599D01*
X137703914Y-101515013D01*
X138047195Y-101513557D01*
X138390477Y-101512100D01*
X138336795Y-101484519D01*
X138259391Y-101441570D01*
X138181925Y-101392634D01*
X138108606Y-101340480D01*
X138063419Y-101304717D01*
X138040573Y-101284938D01*
X138014520Y-101261052D01*
X137986426Y-101234266D01*
X137957459Y-101205789D01*
X137928789Y-101176830D01*
X137901583Y-101148598D01*
X137877009Y-101122301D01*
X137856236Y-101099149D01*
X137840430Y-101080349D01*
X137830762Y-101067112D01*
X137828230Y-101061342D01*
X137832367Y-101056686D01*
X137843400Y-101046944D01*
X137859259Y-101033912D01*
X137865928Y-101028623D01*
X137903625Y-100998998D01*
X137915371Y-101013197D01*
G37*
G36*
X136555818Y-96815591D02*
G01*
X136554934Y-96817291D01*
X136548228Y-96817967D01*
X136547399Y-96817291D01*
X136548175Y-96813932D01*
X136551166Y-96813524D01*
X136555818Y-96815591D01*
G37*
G36*
X136843213Y-96450818D02*
G01*
X136843887Y-96459650D01*
X136842767Y-96461649D01*
X136840199Y-96459963D01*
X136839799Y-96454232D01*
X136841179Y-96448203D01*
X136843213Y-96450818D01*
G37*
G36*
X137091847Y-96280056D02*
G01*
X137094444Y-96283769D01*
X137095046Y-96291683D01*
X137095344Y-96308703D01*
X137095330Y-96332636D01*
X137094997Y-96361292D01*
X137094754Y-96374535D01*
X137094042Y-96406825D01*
X137093250Y-96429474D01*
X137092094Y-96444138D01*
X137090286Y-96452477D01*
X137087542Y-96456148D01*
X137083575Y-96456809D01*
X137080627Y-96456470D01*
X137075782Y-96455335D01*
X137072366Y-96452370D01*
X137070097Y-96445827D01*
X137068693Y-96433955D01*
X137067873Y-96415005D01*
X137067357Y-96387226D01*
X137067166Y-96372768D01*
X137066988Y-96343071D01*
X137067206Y-96317162D01*
X137067775Y-96297261D01*
X137068646Y-96285590D01*
X137069049Y-96283769D01*
X137076492Y-96277729D01*
X137082201Y-96276705D01*
X137091847Y-96280056D01*
G37*
G36*
X138728862Y-101721963D02*
G01*
X138740566Y-101731388D01*
X138753770Y-101743311D01*
X138780187Y-101768271D01*
X138753746Y-101806882D01*
X138738741Y-101828066D01*
X138721146Y-101851768D01*
X138702307Y-101876308D01*
X138683570Y-101900007D01*
X138666281Y-101921187D01*
X138651785Y-101938169D01*
X138641428Y-101949274D01*
X138636727Y-101952857D01*
X138630414Y-101949238D01*
X138619006Y-101940008D01*
X138605114Y-101927600D01*
X138591350Y-101914452D01*
X138580326Y-101902998D01*
X138574653Y-101895675D01*
X138574379Y-101894710D01*
X138578027Y-101888778D01*
X138587340Y-101877109D01*
X138600111Y-101862445D01*
X138613811Y-101846705D01*
X138632055Y-101824985D01*
X138652420Y-101800201D01*
X138671687Y-101776271D01*
X138689191Y-101754712D01*
X138704398Y-101736793D01*
X138715852Y-101724172D01*
X138722097Y-101718505D01*
X138722568Y-101718352D01*
X138728862Y-101721963D01*
G37*
G36*
X136901564Y-95992700D02*
G01*
X136916637Y-96008793D01*
X136931438Y-96029633D01*
X136938583Y-96042394D01*
X136953741Y-96073375D01*
X136986068Y-96015407D01*
X137015017Y-95965714D01*
X137042068Y-95924481D01*
X137068987Y-95889480D01*
X137097542Y-95858481D01*
X137129500Y-95829256D01*
X137141501Y-95819289D01*
X137166314Y-95800401D01*
X137194734Y-95780797D01*
X137223809Y-95762335D01*
X137250586Y-95746875D01*
X137272110Y-95736278D01*
X137275530Y-95734903D01*
X137282083Y-95731355D01*
X137286672Y-95725082D01*
X137290127Y-95713732D01*
X137290785Y-95709810D01*
X137342268Y-95709810D01*
X137388886Y-95699843D01*
X137429798Y-95692487D01*
X137477418Y-95686138D01*
X137527164Y-95681269D01*
X137574455Y-95678354D01*
X137591335Y-95677987D01*
X137603182Y-95677729D01*
X137625834Y-95677034D01*
X137641202Y-95675116D01*
X137647368Y-95672226D01*
X137647407Y-95671952D01*
X137650981Y-95664994D01*
X137654729Y-95660081D01*
X137660254Y-95652839D01*
X137670477Y-95641146D01*
X137684510Y-95624105D01*
X137690336Y-95611836D01*
X137690039Y-95605064D01*
X137682056Y-95592020D01*
X137666724Y-95575957D01*
X137646694Y-95559115D01*
X137624621Y-95543735D01*
X137604085Y-95532478D01*
X137587631Y-95525554D01*
X137573122Y-95521539D01*
X137556765Y-95519891D01*
X137534760Y-95520067D01*
X137521160Y-95520636D01*
X137483898Y-95524206D01*
X137454243Y-95531872D01*
X137428831Y-95545012D01*
X137404298Y-95565002D01*
X137398085Y-95571055D01*
X137379181Y-95594077D01*
X137362537Y-95621824D01*
X137349902Y-95650673D01*
X137343024Y-95677002D01*
X137342272Y-95686706D01*
X137342268Y-95709810D01*
X137290785Y-95709810D01*
X137293279Y-95694949D01*
X137295458Y-95678435D01*
X137306723Y-95626562D01*
X137326717Y-95581738D01*
X137355771Y-95543502D01*
X137394216Y-95511392D01*
X137430182Y-95490672D01*
X137472565Y-95475564D01*
X137518911Y-95468954D01*
X137556765Y-95470687D01*
X137565479Y-95471086D01*
X137601107Y-95479497D01*
X137647391Y-95499976D01*
X137686198Y-95527129D01*
X137709551Y-95551365D01*
X137721278Y-95564484D01*
X137730848Y-95572498D01*
X137734972Y-95573795D01*
X137742169Y-95571722D01*
X137758319Y-95567463D01*
X137781403Y-95561538D01*
X137809401Y-95554469D01*
X137826817Y-95550118D01*
X137859357Y-95541922D01*
X137882495Y-95535701D01*
X137897826Y-95530809D01*
X137906941Y-95526599D01*
X137911434Y-95522427D01*
X137912897Y-95517647D01*
X137912991Y-95515181D01*
X137917564Y-95501012D01*
X137928915Y-95486199D01*
X137943489Y-95474306D01*
X137957734Y-95468898D01*
X137959175Y-95468853D01*
X137971704Y-95470271D01*
X137990497Y-95473729D01*
X138006228Y-95477241D01*
X138030690Y-95481271D01*
X138064753Y-95484053D01*
X138106776Y-95485470D01*
X138124893Y-95485628D01*
X138163531Y-95486338D01*
X138206531Y-95488125D01*
X138248719Y-95490721D01*
X138284920Y-95493859D01*
X138285756Y-95493947D01*
X138318160Y-95497161D01*
X138340930Y-95498767D01*
X138355618Y-95498791D01*
X138363772Y-95497257D01*
X138366438Y-95495248D01*
X138372599Y-95485677D01*
X138380268Y-95473371D01*
X138395908Y-95456559D01*
X138415511Y-95447747D01*
X138436014Y-95447664D01*
X138453217Y-95456063D01*
X138462776Y-95467040D01*
X138473155Y-95483457D01*
X138477169Y-95491255D01*
X138487120Y-95509402D01*
X138500519Y-95528442D01*
X138518455Y-95549564D01*
X138542017Y-95573960D01*
X138572294Y-95602820D01*
X138610375Y-95637334D01*
X138612488Y-95639216D01*
X138652786Y-95675809D01*
X138685900Y-95707756D01*
X138713712Y-95737160D01*
X138738102Y-95766125D01*
X138760951Y-95796755D01*
X138784139Y-95831154D01*
X138784340Y-95831464D01*
X138840218Y-95927608D01*
X138885468Y-96027353D01*
X138920273Y-96131192D01*
X138944819Y-96239616D01*
X138950417Y-96274533D01*
X138955908Y-96325131D01*
X138958880Y-96381777D01*
X138959444Y-96441945D01*
X138957708Y-96503108D01*
X138953783Y-96562741D01*
X138947778Y-96618316D01*
X138939801Y-96667308D01*
X138931949Y-96700509D01*
X138914154Y-96751261D01*
X138890329Y-96801317D01*
X138861863Y-96848645D01*
X138830144Y-96891213D01*
X138796560Y-96926990D01*
X138762499Y-96953944D01*
X138756090Y-96957899D01*
X138740846Y-96971312D01*
X138723256Y-96994690D01*
X138711317Y-97014090D01*
X138690028Y-97045739D01*
X138662127Y-97079713D01*
X138630342Y-97113214D01*
X138597396Y-97143442D01*
X138566017Y-97167600D01*
X138554851Y-97174737D01*
X138508176Y-97197979D01*
X138452778Y-97217906D01*
X138390895Y-97233950D01*
X138324765Y-97245546D01*
X138256626Y-97252130D01*
X138246383Y-97252650D01*
X138185897Y-97253414D01*
X138120836Y-97250813D01*
X138053784Y-97245177D01*
X137987326Y-97236837D01*
X137924046Y-97226122D01*
X137866529Y-97213364D01*
X137817358Y-97198893D01*
X137812478Y-97197178D01*
X137791758Y-97191020D01*
X137771933Y-97187149D01*
X137763300Y-97186472D01*
X137745308Y-97184554D01*
X137730054Y-97180117D01*
X137720602Y-97177138D01*
X137712669Y-97179647D01*
X137702610Y-97189195D01*
X137698879Y-97193383D01*
X137679389Y-97210360D01*
X137652148Y-97227219D01*
X137620599Y-97242284D01*
X137588186Y-97253881D01*
X137562488Y-97259764D01*
X137517536Y-97262817D01*
X137475683Y-97257115D01*
X137434403Y-97242059D01*
X137395950Y-97220206D01*
X137356842Y-97188842D01*
X137327425Y-97151830D01*
X137307266Y-97108541D01*
X137299775Y-97080926D01*
X137295506Y-97057788D01*
X137292935Y-97038960D01*
X137342268Y-97038960D01*
X137344345Y-97057472D01*
X137349658Y-97079920D01*
X137353873Y-97092749D01*
X137371582Y-97126540D01*
X137397573Y-97158415D01*
X137428910Y-97185074D01*
X137444838Y-97194967D01*
X137460385Y-97202889D01*
X137474115Y-97207800D01*
X137489615Y-97210410D01*
X137510474Y-97211428D01*
X137528742Y-97211573D01*
X137555381Y-97211234D01*
X137574351Y-97209696D01*
X137589274Y-97206286D01*
X137603768Y-97200331D01*
X137612283Y-97196034D01*
X137633874Y-97182736D01*
X137655399Y-97166354D01*
X137664648Y-97157929D01*
X137677267Y-97144809D01*
X137682988Y-97136189D01*
X137683055Y-97128733D01*
X137678954Y-97119568D01*
X137669859Y-97105408D01*
X137661031Y-97095649D01*
X137651916Y-97084689D01*
X137644082Y-97070301D01*
X137636858Y-97053018D01*
X137541832Y-97046027D01*
X137489924Y-97041566D01*
X137442741Y-97036246D01*
X137402060Y-97030318D01*
X137369655Y-97024029D01*
X137352796Y-97019530D01*
X137346042Y-97018916D01*
X137342987Y-97024505D01*
X137342268Y-97038817D01*
X137342268Y-97038960D01*
X137292935Y-97038960D01*
X137292514Y-97035877D01*
X137291509Y-97021627D01*
X137291136Y-97012663D01*
X137288998Y-97005658D01*
X137283420Y-96999129D01*
X137272727Y-96991592D01*
X137255245Y-96981563D01*
X137232270Y-96969153D01*
X137204510Y-96953498D01*
X137180664Y-96937972D01*
X137157646Y-96920255D01*
X137132367Y-96898027D01*
X137111712Y-96878578D01*
X137079922Y-96846681D01*
X137052994Y-96816020D01*
X137028998Y-96783915D01*
X137006003Y-96747684D01*
X136982080Y-96704647D01*
X136970683Y-96682709D01*
X136948579Y-96639480D01*
X136941446Y-96660106D01*
X136928366Y-96688573D01*
X136909791Y-96717138D01*
X136888612Y-96741811D01*
X136872071Y-96755839D01*
X136838320Y-96776415D01*
X136797356Y-96796624D01*
X136748361Y-96816780D01*
X136690517Y-96837193D01*
X136623007Y-96858177D01*
X136551166Y-96878386D01*
X136522672Y-96886093D01*
X136497525Y-96892919D01*
X136478028Y-96898236D01*
X136466490Y-96901417D01*
X136464993Y-96901841D01*
X136458483Y-96901827D01*
X136455638Y-96895056D01*
X136455122Y-96883126D01*
X136455139Y-96861555D01*
X136497213Y-96847833D01*
X136516935Y-96840613D01*
X136530570Y-96834054D01*
X136535962Y-96829234D01*
X136535823Y-96828508D01*
X136536736Y-96825327D01*
X136541604Y-96826452D01*
X136553110Y-96827139D01*
X136568251Y-96823928D01*
X136568924Y-96823698D01*
X136586999Y-96817397D01*
X136553678Y-96806844D01*
X136535075Y-96802209D01*
X136515292Y-96799221D01*
X136497019Y-96797990D01*
X136482945Y-96798627D01*
X136475758Y-96801243D01*
X136475758Y-96803635D01*
X136473277Y-96806992D01*
X136466739Y-96807873D01*
X136455104Y-96807873D01*
X136455104Y-96426590D01*
X136769918Y-96426590D01*
X136770779Y-96428078D01*
X136775928Y-96434729D01*
X136777217Y-96442460D01*
X136779748Y-96454478D01*
X136785952Y-96468364D01*
X136793795Y-96480747D01*
X136801244Y-96488254D01*
X136805151Y-96488791D01*
X136809381Y-96491203D01*
X136812128Y-96501226D01*
X136814181Y-96510651D01*
X136819598Y-96515491D01*
X136831516Y-96517548D01*
X136841560Y-96518126D01*
X136858319Y-96519526D01*
X136869933Y-96521669D01*
X136872639Y-96522903D01*
X136870313Y-96525009D01*
X136859981Y-96525331D01*
X136859131Y-96525278D01*
X136839040Y-96524523D01*
X136828304Y-96525962D01*
X136825112Y-96530042D01*
X136825876Y-96533468D01*
X136833140Y-96540263D01*
X136846381Y-96545453D01*
X136846889Y-96545569D01*
X136858044Y-96548569D01*
X136859104Y-96551072D01*
X136853518Y-96553534D01*
X136847419Y-96556650D01*
X136849199Y-96560412D01*
X136859993Y-96566725D01*
X136861994Y-96567768D01*
X136878174Y-96574899D01*
X136892296Y-96579124D01*
X136894014Y-96579381D01*
X136901216Y-96579604D01*
X136903709Y-96576306D01*
X136901988Y-96566797D01*
X136898532Y-96554965D01*
X136893058Y-96539056D01*
X136888039Y-96528155D01*
X136886252Y-96525844D01*
X136882467Y-96518018D01*
X136881734Y-96511465D01*
X136876599Y-96500965D01*
X136867607Y-96496489D01*
X136859768Y-96493497D01*
X136862911Y-96492033D01*
X136863479Y-96491996D01*
X136870516Y-96488843D01*
X136871138Y-96478725D01*
X136870755Y-96476415D01*
X136868152Y-96461065D01*
X136865087Y-96441705D01*
X136864353Y-96436860D01*
X136861213Y-96422036D01*
X136857594Y-96413306D01*
X136856193Y-96412323D01*
X136853797Y-96407806D01*
X136854668Y-96401021D01*
X136856094Y-96392387D01*
X136852615Y-96390480D01*
X136842121Y-96394853D01*
X136837259Y-96397340D01*
X136828147Y-96403915D01*
X136826678Y-96409129D01*
X136826725Y-96409178D01*
X136826211Y-96411860D01*
X136822401Y-96411487D01*
X136813644Y-96411779D01*
X136800758Y-96414484D01*
X136787001Y-96418552D01*
X136775635Y-96422937D01*
X136769918Y-96426590D01*
X136455104Y-96426590D01*
X136455104Y-96358641D01*
X136811100Y-96358641D01*
X136813506Y-96369171D01*
X136818163Y-96372567D01*
X136828046Y-96369833D01*
X136839353Y-96364517D01*
X136848281Y-96359556D01*
X136885008Y-96359556D01*
X136885885Y-96376909D01*
X136888613Y-96400411D01*
X136892617Y-96425173D01*
X136892921Y-96426780D01*
X136897028Y-96447485D01*
X136900443Y-96463315D01*
X136902559Y-96471492D01*
X136902810Y-96472012D01*
X136903280Y-96467134D01*
X136903691Y-96452639D01*
X136904020Y-96430213D01*
X136904243Y-96401541D01*
X136904335Y-96368308D01*
X136904337Y-96363821D01*
X136904292Y-96344153D01*
X136948122Y-96344153D01*
X136949082Y-96371199D01*
X136950854Y-96401596D01*
X136953273Y-96432717D01*
X136956173Y-96461939D01*
X136959389Y-96486634D01*
X136961017Y-96496222D01*
X136981358Y-96575976D01*
X137011183Y-96652740D01*
X137049597Y-96724751D01*
X137095705Y-96790247D01*
X137130103Y-96829243D01*
X137179301Y-96875227D01*
X137229820Y-96912097D01*
X137284005Y-96941124D01*
X137344200Y-96963582D01*
X137346042Y-96964050D01*
X137407251Y-96979606D01*
X137425927Y-96982944D01*
X137450269Y-96986479D01*
X137477996Y-96989976D01*
X137506824Y-96993203D01*
X137534470Y-96995923D01*
X137558652Y-96997903D01*
X137577088Y-96998908D01*
X137587494Y-96998705D01*
X137588879Y-96998251D01*
X137588567Y-96991966D01*
X137584553Y-96980950D01*
X137578045Y-96971053D01*
X137575561Y-96969988D01*
X137602848Y-96969988D01*
X137604021Y-96975088D01*
X137609874Y-96985438D01*
X137610042Y-96985695D01*
X137616709Y-96993830D01*
X137625379Y-96998141D01*
X137639565Y-96999795D01*
X137653128Y-96999998D01*
X137676920Y-96998084D01*
X137707422Y-96992798D01*
X137740793Y-96984826D01*
X137745536Y-96983517D01*
X137795907Y-96967568D01*
X137837090Y-96950127D01*
X137871198Y-96929911D01*
X137900342Y-96905635D01*
X137926636Y-96876016D01*
X137930376Y-96871149D01*
X137948385Y-96849231D01*
X137968756Y-96827283D01*
X137987258Y-96809845D01*
X137988263Y-96809003D01*
X138006336Y-96795662D01*
X138028758Y-96781496D01*
X138052792Y-96767963D01*
X138075706Y-96756518D01*
X138094763Y-96748617D01*
X138107121Y-96745715D01*
X138113340Y-96745221D01*
X138115538Y-96742272D01*
X138113380Y-96734671D01*
X138106529Y-96720220D01*
X138101787Y-96710819D01*
X138076557Y-96655409D01*
X138052509Y-96591981D01*
X138030627Y-96523813D01*
X138011900Y-96454187D01*
X137997311Y-96386383D01*
X137989478Y-96337161D01*
X137986077Y-96303575D01*
X137983566Y-96263662D01*
X137981983Y-96220307D01*
X137981366Y-96176397D01*
X137981752Y-96134816D01*
X137983180Y-96098449D01*
X137985686Y-96070182D01*
X137985967Y-96068123D01*
X137989879Y-96048530D01*
X137996626Y-96034869D01*
X138008925Y-96023049D01*
X138021884Y-96013947D01*
X138026133Y-96009730D01*
X138027600Y-96002752D01*
X138026306Y-95990286D01*
X138022272Y-95969604D01*
X138022218Y-95969345D01*
X138007663Y-95919314D01*
X137985810Y-95875052D01*
X137955798Y-95835548D01*
X137916771Y-95799793D01*
X137867866Y-95766778D01*
X137833881Y-95748098D01*
X137821443Y-95742020D01*
X137810046Y-95737640D01*
X137797417Y-95734610D01*
X137781280Y-95732580D01*
X137759362Y-95731204D01*
X137729389Y-95730133D01*
X137713587Y-95729682D01*
X137679434Y-95728864D01*
X137654729Y-95728677D01*
X137637629Y-95729262D01*
X137626292Y-95730757D01*
X137618874Y-95733302D01*
X137613533Y-95737035D01*
X137613287Y-95737256D01*
X137603801Y-95748087D01*
X137604533Y-95755195D01*
X137615634Y-95759995D01*
X137615709Y-95760014D01*
X137633579Y-95769551D01*
X137649801Y-95787072D01*
X137661583Y-95809318D01*
X137663756Y-95816132D01*
X137668902Y-95841900D01*
X137673146Y-95876412D01*
X137676374Y-95917138D01*
X137678468Y-95961549D01*
X137679312Y-96007115D01*
X137678790Y-96051305D01*
X137676785Y-96091591D01*
X137676559Y-96094544D01*
X137671999Y-96143986D01*
X137666720Y-96183351D01*
X137660361Y-96213857D01*
X137652559Y-96236722D01*
X137642953Y-96253165D01*
X137631179Y-96264403D01*
X137624920Y-96268169D01*
X137608418Y-96276703D01*
X137605026Y-96447275D01*
X137622936Y-96454749D01*
X137637513Y-96463740D01*
X137647677Y-96474988D01*
X137647767Y-96475154D01*
X137657735Y-96500652D01*
X137665949Y-96535557D01*
X137672315Y-96578100D01*
X137676738Y-96626510D01*
X137679122Y-96679015D01*
X137679373Y-96733845D01*
X137677397Y-96789229D01*
X137673097Y-96843396D01*
X137669242Y-96875449D01*
X137663565Y-96907316D01*
X137656045Y-96930036D01*
X137645581Y-96945739D01*
X137631070Y-96956555D01*
X137625961Y-96959076D01*
X137612313Y-96965367D01*
X137603826Y-96969453D01*
X137602848Y-96969988D01*
X137575561Y-96969988D01*
X137567902Y-96966705D01*
X137554675Y-96965786D01*
X137519441Y-96960395D01*
X137488403Y-96945946D01*
X137463942Y-96923563D01*
X137463135Y-96922520D01*
X137453494Y-96907644D01*
X137445818Y-96890143D01*
X137439914Y-96868669D01*
X137435589Y-96841871D01*
X137432648Y-96808399D01*
X137430899Y-96766905D01*
X137430148Y-96716039D01*
X137430083Y-96692033D01*
X137430122Y-96669341D01*
X137446896Y-96669341D01*
X137447473Y-96709192D01*
X137449039Y-96750642D01*
X137451496Y-96790480D01*
X137454747Y-96825496D01*
X137456069Y-96836127D01*
X137464093Y-96875499D01*
X137476771Y-96905223D01*
X137495091Y-96926341D01*
X137520044Y-96939895D01*
X137552618Y-96946927D01*
X137562060Y-96947788D01*
X137593197Y-96947900D01*
X137615547Y-96942618D01*
X137630600Y-96931249D01*
X137639847Y-96913100D01*
X137640369Y-96911375D01*
X137646467Y-96882964D01*
X137651241Y-96845694D01*
X137654662Y-96801932D01*
X137656701Y-96754045D01*
X137657331Y-96704400D01*
X137656523Y-96655364D01*
X137654248Y-96609305D01*
X137650478Y-96568590D01*
X137645185Y-96535587D01*
X137644901Y-96534281D01*
X137635715Y-96503292D01*
X137623275Y-96482527D01*
X137606265Y-96471233D01*
X137583369Y-96468656D01*
X137553268Y-96474041D01*
X137544176Y-96476630D01*
X137509745Y-96492061D01*
X137483027Y-96515439D01*
X137463844Y-96547009D01*
X137452013Y-96587022D01*
X137449101Y-96607273D01*
X137447406Y-96634297D01*
X137446896Y-96669341D01*
X137430122Y-96669341D01*
X137430154Y-96650909D01*
X137430461Y-96619374D01*
X137431141Y-96595720D01*
X137432331Y-96578234D01*
X137434168Y-96565207D01*
X137436789Y-96554927D01*
X137440331Y-96545685D01*
X137442124Y-96541708D01*
X137464642Y-96504987D01*
X137494182Y-96477082D01*
X137530926Y-96457857D01*
X137563369Y-96449041D01*
X137583869Y-96445228D01*
X137587750Y-96395621D01*
X137589127Y-96367591D01*
X137589224Y-96338761D01*
X137588046Y-96314664D01*
X137587710Y-96311360D01*
X137584901Y-96291774D01*
X137581444Y-96281120D01*
X137576365Y-96277033D01*
X137573429Y-96276705D01*
X137556249Y-96273665D01*
X137533838Y-96265716D01*
X137510093Y-96254614D01*
X137488909Y-96242116D01*
X137477821Y-96233595D01*
X137462928Y-96216817D01*
X137448869Y-96195662D01*
X137443285Y-96184834D01*
X137438908Y-96174596D01*
X137435609Y-96164751D01*
X137433235Y-96153552D01*
X137431635Y-96139251D01*
X137430658Y-96120101D01*
X137430152Y-96094353D01*
X137429966Y-96060259D01*
X137429945Y-96030899D01*
X137429975Y-96027387D01*
X137445227Y-96027387D01*
X137445636Y-96060137D01*
X137447769Y-96094065D01*
X137449225Y-96110151D01*
X137456310Y-96153580D01*
X137468671Y-96187810D01*
X137487026Y-96213984D01*
X137512097Y-96233247D01*
X137532710Y-96242743D01*
X137567208Y-96252643D01*
X137594932Y-96253751D01*
X137616408Y-96245902D01*
X137632162Y-96228934D01*
X137640931Y-96208897D01*
X137647215Y-96181398D01*
X137652059Y-96144991D01*
X137655463Y-96101974D01*
X137657428Y-96054649D01*
X137657953Y-96005316D01*
X137657039Y-95956275D01*
X137654685Y-95909826D01*
X137650891Y-95868270D01*
X137645657Y-95833906D01*
X137640935Y-95814707D01*
X137634677Y-95798529D01*
X137626432Y-95788167D01*
X137613760Y-95782371D01*
X137594222Y-95779889D01*
X137572131Y-95779450D01*
X137540723Y-95780805D01*
X137515534Y-95785602D01*
X137495753Y-95794966D01*
X137480569Y-95810018D01*
X137469171Y-95831881D01*
X137460747Y-95861677D01*
X137454487Y-95900528D01*
X137449628Y-95948963D01*
X137446555Y-95991700D01*
X137445227Y-96027387D01*
X137429975Y-96027387D01*
X137430423Y-95974708D01*
X137431956Y-95928504D01*
X137434707Y-95891006D01*
X137438837Y-95860934D01*
X137444510Y-95837009D01*
X137451888Y-95817949D01*
X137458430Y-95806394D01*
X137479380Y-95784280D01*
X137508385Y-95768129D01*
X137543275Y-95759098D01*
X137548666Y-95758450D01*
X137567191Y-95755638D01*
X137572131Y-95753483D01*
X137577861Y-95750983D01*
X137584125Y-95742847D01*
X137584893Y-95741237D01*
X137591335Y-95727098D01*
X137533197Y-95731132D01*
X137446928Y-95740611D01*
X137369816Y-95756430D01*
X137301938Y-95778568D01*
X137243370Y-95807004D01*
X137234904Y-95812115D01*
X137203136Y-95834452D01*
X137168383Y-95863166D01*
X137133722Y-95895371D01*
X137102232Y-95928182D01*
X137076991Y-95958714D01*
X137073813Y-95963090D01*
X137040348Y-96016644D01*
X137010500Y-96076947D01*
X136985694Y-96140439D01*
X136967356Y-96203561D01*
X136958281Y-96251540D01*
X136954974Y-96275073D01*
X136952009Y-96294885D01*
X136949858Y-96307893D01*
X136949303Y-96310610D01*
X136948141Y-96323081D01*
X136948122Y-96344153D01*
X136904292Y-96344153D01*
X136904260Y-96330386D01*
X136904046Y-96301543D01*
X136903719Y-96278911D01*
X136903304Y-96264108D01*
X136902825Y-96258753D01*
X136902752Y-96258856D01*
X136898325Y-96275530D01*
X136893538Y-96298645D01*
X136889191Y-96323667D01*
X136886081Y-96346065D01*
X136885008Y-96359556D01*
X136848281Y-96359556D01*
X136852615Y-96357148D01*
X136853480Y-96356667D01*
X136837573Y-96350590D01*
X136821961Y-96345525D01*
X136814006Y-96346292D01*
X136811275Y-96353631D01*
X136811100Y-96358641D01*
X136455104Y-96358641D01*
X136455104Y-96275293D01*
X136781478Y-96275293D01*
X136781574Y-96290992D01*
X136790787Y-96300352D01*
X136796082Y-96302274D01*
X136811140Y-96307600D01*
X136821356Y-96312116D01*
X136821961Y-96312312D01*
X136832272Y-96315652D01*
X136838778Y-96311620D01*
X136839634Y-96310348D01*
X136843972Y-96305855D01*
X136844918Y-96309197D01*
X136849556Y-96315457D01*
X136853480Y-96316260D01*
X136860367Y-96311489D01*
X136861956Y-96304300D01*
X136859566Y-96295511D01*
X136850692Y-96295285D01*
X136850647Y-96295297D01*
X136842999Y-96295669D01*
X136842504Y-96293130D01*
X136850171Y-96288834D01*
X136856639Y-96288007D01*
X136865845Y-96283850D01*
X136867607Y-96276705D01*
X136866597Y-96270904D01*
X136861998Y-96267512D01*
X136851459Y-96265895D01*
X136832625Y-96265419D01*
X136825641Y-96265404D01*
X136803592Y-96265802D01*
X136790446Y-96267351D01*
X136783819Y-96270585D01*
X136781478Y-96275293D01*
X136455104Y-96275293D01*
X136455104Y-96253425D01*
X136792665Y-96253425D01*
X136797242Y-96256782D01*
X136810729Y-96258582D01*
X136812308Y-96258707D01*
X136825641Y-96258258D01*
X136830437Y-96258096D01*
X136840029Y-96253195D01*
X136840119Y-96253056D01*
X136844075Y-96248778D01*
X136844918Y-96252690D01*
X136849815Y-96257998D01*
X136859131Y-96259753D01*
X136870104Y-96257204D01*
X136873257Y-96248091D01*
X136873258Y-96247810D01*
X136871465Y-96239608D01*
X136863908Y-96237554D01*
X136856306Y-96238356D01*
X136843698Y-96238362D01*
X136839353Y-96234481D01*
X136844410Y-96230486D01*
X136858270Y-96230330D01*
X136859074Y-96230420D01*
X136873399Y-96230639D01*
X136880441Y-96226020D01*
X136882089Y-96222222D01*
X136887778Y-96207746D01*
X136890622Y-96201910D01*
X136895555Y-96188052D01*
X136891769Y-96181329D01*
X136887384Y-96180643D01*
X136880567Y-96185555D01*
X136878908Y-96194770D01*
X136878052Y-96202997D01*
X136873600Y-96207198D01*
X136862730Y-96208714D01*
X136849189Y-96208897D01*
X136829907Y-96209924D01*
X136818563Y-96213649D01*
X136812647Y-96219820D01*
X136808846Y-96228580D01*
X136813391Y-96232665D01*
X136815526Y-96233291D01*
X136820403Y-96235325D01*
X136814439Y-96236398D01*
X136812793Y-96236495D01*
X136800322Y-96241193D01*
X136794784Y-96247039D01*
X136792665Y-96253425D01*
X136455104Y-96253425D01*
X136455104Y-96193664D01*
X136829366Y-96193664D01*
X136830766Y-96198817D01*
X136843044Y-96201768D01*
X136850655Y-96202279D01*
X136865366Y-96201983D01*
X136871898Y-96198626D01*
X136873258Y-96191904D01*
X136868908Y-96183042D01*
X136857600Y-96180606D01*
X136841943Y-96185006D01*
X136838982Y-96186492D01*
X136829366Y-96193664D01*
X136455104Y-96193664D01*
X136455104Y-96173385D01*
X136850655Y-96173385D01*
X136855741Y-96174302D01*
X136857600Y-96174385D01*
X136868745Y-96174884D01*
X136878908Y-96174992D01*
X136887384Y-96174694D01*
X136895855Y-96174397D01*
X136902825Y-96172315D01*
X136904307Y-96171872D01*
X136907041Y-96166305D01*
X136907162Y-96163691D01*
X136903008Y-96154667D01*
X136891764Y-96152659D01*
X136875257Y-96157742D01*
X136867066Y-96162084D01*
X136856008Y-96169038D01*
X136850729Y-96173188D01*
X136850655Y-96173385D01*
X136455104Y-96173385D01*
X136455104Y-95928966D01*
X136498223Y-95931144D01*
X136520577Y-95931858D01*
X136533214Y-95931079D01*
X136537640Y-95928624D01*
X136537070Y-95926410D01*
X136536569Y-95921882D01*
X136544062Y-95923074D01*
X136554157Y-95923749D01*
X136566757Y-95921715D01*
X136577999Y-95918071D01*
X136584022Y-95913917D01*
X136583683Y-95911787D01*
X136576327Y-95908888D01*
X136567359Y-95907269D01*
X136553030Y-95904407D01*
X136545516Y-95901850D01*
X136536210Y-95898162D01*
X136519652Y-95892067D01*
X136499277Y-95884827D01*
X136497485Y-95884201D01*
X136457930Y-95870410D01*
X136456237Y-95839122D01*
X136455896Y-95820689D01*
X136457670Y-95811665D01*
X136461888Y-95810295D01*
X136469673Y-95812804D01*
X136486113Y-95818039D01*
X136509085Y-95825326D01*
X136536464Y-95833991D01*
X136548341Y-95837744D01*
X136616076Y-95860146D01*
X136679900Y-95883231D01*
X136738646Y-95906485D01*
X136791146Y-95929397D01*
X136836231Y-95951454D01*
X136872734Y-95972145D01*
X136891764Y-95985525D01*
X136899486Y-95990955D01*
X136901564Y-95992700D01*
G37*
G36*
X138302891Y-99254636D02*
G01*
X138419298Y-99254636D01*
X138534854Y-99412850D01*
X138562011Y-99449871D01*
X138587139Y-99483816D01*
X138609448Y-99513644D01*
X138628151Y-99538312D01*
X138642457Y-99556779D01*
X138651578Y-99568002D01*
X138654648Y-99571070D01*
X138655390Y-99565579D01*
X138656090Y-99549740D01*
X138656737Y-99524506D01*
X138657321Y-99490830D01*
X138657829Y-99449665D01*
X138658251Y-99401964D01*
X138658575Y-99348680D01*
X138658789Y-99290766D01*
X138658883Y-99229176D01*
X138658886Y-99215081D01*
X138658886Y-98859086D01*
X138737996Y-98859086D01*
X138737996Y-99717996D01*
X138650287Y-99717996D01*
X138515530Y-99534347D01*
X138380772Y-99350699D01*
X138302891Y-99350699D01*
X138302891Y-99836661D01*
X138223780Y-99836661D01*
X138223780Y-99351474D01*
X138024593Y-99349410D01*
X137966707Y-99348692D01*
X137919214Y-99347826D01*
X137881209Y-99346771D01*
X137851782Y-99345488D01*
X137830027Y-99343937D01*
X137815037Y-99342077D01*
X137805904Y-99339870D01*
X137805627Y-99339766D01*
X137772339Y-99321774D01*
X137747419Y-99296344D01*
X137736984Y-99278805D01*
X137732434Y-99268888D01*
X137729010Y-99258950D01*
X137726516Y-99247165D01*
X137724755Y-99231707D01*
X137723530Y-99210747D01*
X137722646Y-99182460D01*
X137721906Y-99145019D01*
X137721777Y-99137384D01*
X137721288Y-99102783D01*
X137721030Y-99072347D01*
X137721004Y-99047762D01*
X137721209Y-99030717D01*
X137721645Y-99022899D01*
X137721777Y-99022584D01*
X137727848Y-99021679D01*
X137742463Y-99019572D01*
X137762977Y-99016645D01*
X137773330Y-99015175D01*
X137796960Y-99012005D01*
X137811373Y-99010734D01*
X137818507Y-99011437D01*
X137820298Y-99014187D01*
X137819572Y-99016960D01*
X137818193Y-99025460D01*
X137816633Y-99043071D01*
X137815044Y-99067609D01*
X137813576Y-99096887D01*
X137812903Y-99113470D01*
X137811780Y-99148090D01*
X137811469Y-99173440D01*
X137812085Y-99191530D01*
X137813746Y-99204370D01*
X137816566Y-99213968D01*
X137819026Y-99219325D01*
X137824122Y-99228542D01*
X137829691Y-99235998D01*
X137836913Y-99241880D01*
X137846970Y-99246374D01*
X137861044Y-99249666D01*
X137880315Y-99251944D01*
X137905966Y-99253393D01*
X137939178Y-99254200D01*
X137981132Y-99254552D01*
X138033009Y-99254635D01*
X138042677Y-99254636D01*
X138223780Y-99254636D01*
X138223780Y-98740420D01*
X138302891Y-98740420D01*
X138302891Y-99254636D01*
G37*
G36*
X137342268Y-98825181D02*
G01*
X137189698Y-98825181D01*
X137189698Y-98610454D01*
X137342268Y-98610454D01*
X137342268Y-98825181D01*
G37*
G36*
X137618254Y-95842072D02*
G01*
X137624519Y-95851488D01*
X137627388Y-95863265D01*
X137629861Y-95885454D01*
X137631953Y-95918292D01*
X137633682Y-95962014D01*
X137634735Y-96001466D01*
X137637772Y-96135905D01*
X137621754Y-96152623D01*
X137607476Y-96165289D01*
X137596706Y-96168642D01*
X137587300Y-96163154D01*
X137585111Y-96160700D01*
X137581401Y-96153023D01*
X137585297Y-96144590D01*
X137590070Y-96139145D01*
X137599592Y-96122727D01*
X137602201Y-96108790D01*
X137599963Y-96095580D01*
X137591382Y-96085591D01*
X137582146Y-96079515D01*
X137565528Y-96065537D01*
X137553952Y-96048201D01*
X137553893Y-96048060D01*
X137548439Y-96034347D01*
X137546592Y-96024677D01*
X137548393Y-96014243D01*
X137553884Y-95998239D01*
X137554333Y-95996994D01*
X137559340Y-95982982D01*
X137562262Y-95974591D01*
X137562561Y-95973623D01*
X137567167Y-95970980D01*
X137578562Y-95965319D01*
X137583070Y-95963162D01*
X137596102Y-95956055D01*
X137601145Y-95948718D01*
X137600696Y-95936705D01*
X137600084Y-95932852D01*
X137597654Y-95912557D01*
X137596612Y-95892884D01*
X137596550Y-95873534D01*
X137582589Y-95886650D01*
X137571961Y-95895024D01*
X137564442Y-95895517D01*
X137559986Y-95892594D01*
X137553035Y-95884785D01*
X137553025Y-95876605D01*
X137560662Y-95865558D01*
X137570557Y-95855161D01*
X137589272Y-95840506D01*
X137605402Y-95836128D01*
X137618254Y-95842072D01*
G37*
G36*
X138770488Y-102960918D02*
G01*
X138784381Y-102970596D01*
X138793053Y-102979017D01*
X138794504Y-102982173D01*
X138792275Y-102989765D01*
X138786354Y-103004971D01*
X138777890Y-103025196D01*
X138768028Y-103047840D01*
X138757918Y-103070307D01*
X138748707Y-103089999D01*
X138741542Y-103104318D01*
X138737843Y-103110410D01*
X138730957Y-103110567D01*
X138718622Y-103105743D01*
X138704284Y-103097931D01*
X138691385Y-103089126D01*
X138683369Y-103081323D01*
X138682283Y-103078226D01*
X138685022Y-103070910D01*
X138691911Y-103055723D01*
X138701928Y-103034844D01*
X138714050Y-103010449D01*
X138714775Y-103009013D01*
X138746472Y-102946327D01*
X138770488Y-102960918D01*
G37*
G36*
X137609852Y-96568818D02*
G01*
X137623045Y-96579571D01*
X137637724Y-96594251D01*
X137634798Y-96732052D01*
X137633745Y-96776574D01*
X137632634Y-96811191D01*
X137631351Y-96837296D01*
X137629784Y-96856286D01*
X137627822Y-96869555D01*
X137625351Y-96878498D01*
X137622557Y-96884069D01*
X137611826Y-96895387D01*
X137599388Y-96897118D01*
X137583118Y-96889384D01*
X137579046Y-96886590D01*
X137561747Y-96870776D01*
X137553973Y-96855301D01*
X137554795Y-96845012D01*
X137561766Y-96836939D01*
X137572584Y-96839372D01*
X137580600Y-96845510D01*
X137589210Y-96851796D01*
X137593202Y-96852573D01*
X137594895Y-96846182D01*
X137597139Y-96831740D01*
X137599320Y-96813524D01*
X137603205Y-96776794D01*
X137586351Y-96770448D01*
X137567439Y-96757773D01*
X137554515Y-96738083D01*
X137548669Y-96714550D01*
X137550994Y-96690345D01*
X137555151Y-96679773D01*
X137566600Y-96664689D01*
X137582069Y-96652298D01*
X137583234Y-96651647D01*
X137597999Y-96638651D01*
X137602482Y-96621957D01*
X137596498Y-96602937D01*
X137590871Y-96594651D01*
X137583627Y-96582803D01*
X137584559Y-96574437D01*
X137585912Y-96572569D01*
X137596791Y-96565528D01*
X137609852Y-96568818D01*
G37*
G36*
X136526056Y-95914026D02*
G01*
X136520520Y-95923132D01*
X136516768Y-95925072D01*
X136511658Y-95925871D01*
X136516180Y-95922055D01*
X136516670Y-95921712D01*
X136520971Y-95916989D01*
X136514876Y-95914210D01*
X136513844Y-95913990D01*
X136506875Y-95912002D01*
X136510291Y-95909880D01*
X136515249Y-95908453D01*
X136524465Y-95907920D01*
X136526056Y-95914026D01*
G37*
G36*
X136811100Y-96449052D02*
G01*
X136808274Y-96451878D01*
X136805449Y-96449052D01*
X136808274Y-96446227D01*
X136811100Y-96449052D01*
G37*
G36*
X137093636Y-98819531D02*
G01*
X136460755Y-98819531D01*
X136460755Y-98616105D01*
X137093636Y-98616105D01*
X137093636Y-98819531D01*
G37*
G36*
X138670188Y-103577638D02*
G01*
X138670086Y-103637244D01*
X138669950Y-103686370D01*
X138670028Y-103725834D01*
X138670571Y-103756456D01*
X138671831Y-103779052D01*
X138674057Y-103794442D01*
X138677500Y-103803443D01*
X138682410Y-103806874D01*
X138689039Y-103805553D01*
X138697636Y-103800298D01*
X138708452Y-103791928D01*
X138721738Y-103781260D01*
X138730460Y-103774503D01*
X138748936Y-103760554D01*
X138761422Y-103752943D01*
X138770502Y-103752319D01*
X138778757Y-103759331D01*
X138788769Y-103774628D01*
X138798842Y-103791690D01*
X138813627Y-103816642D01*
X138790303Y-103837340D01*
X138772085Y-103852982D01*
X138752581Y-103868884D01*
X138733804Y-103883514D01*
X138717763Y-103895340D01*
X138706472Y-103902833D01*
X138701994Y-103904567D01*
X138698053Y-103898951D01*
X138690093Y-103887191D01*
X138685186Y-103879854D01*
X138670188Y-103857352D01*
X138670188Y-104328986D01*
X138461111Y-104328986D01*
X138461111Y-104249875D01*
X138596728Y-104249875D01*
X138596728Y-103419219D01*
X138461111Y-103419219D01*
X138461111Y-103340109D01*
X138670188Y-103340109D01*
X138670188Y-103577638D01*
G37*
G36*
X138207134Y-99872141D02*
G01*
X138213628Y-99874832D01*
X138214968Y-99877059D01*
X138217436Y-99885119D01*
X138222360Y-99901751D01*
X138229069Y-99924668D01*
X138236892Y-99951582D01*
X138238384Y-99956739D01*
X138259228Y-100028785D01*
X138500666Y-100028785D01*
X138500666Y-99881867D01*
X138574125Y-99881867D01*
X138574125Y-100028785D01*
X138794504Y-100028785D01*
X138794504Y-100113546D01*
X138574125Y-100113546D01*
X138574125Y-100243513D01*
X138500666Y-100243513D01*
X138500666Y-100113546D01*
X138393302Y-100113546D01*
X138359869Y-100113669D01*
X138330683Y-100114011D01*
X138307479Y-100114531D01*
X138291994Y-100115192D01*
X138285962Y-100115952D01*
X138285938Y-100116004D01*
X138287724Y-100122560D01*
X138291065Y-100131945D01*
X138295084Y-100143539D01*
X138301225Y-100162413D01*
X138308342Y-100185027D01*
X138310385Y-100191646D01*
X138324578Y-100237862D01*
X138241093Y-100237862D01*
X138221925Y-100177117D01*
X138202758Y-100116372D01*
X137999955Y-100113546D01*
X137944393Y-100112744D01*
X137898944Y-100111928D01*
X137862418Y-100110932D01*
X137833628Y-100109590D01*
X137811384Y-100107735D01*
X137794498Y-100105203D01*
X137781783Y-100101826D01*
X137772049Y-100097439D01*
X137764109Y-100091877D01*
X137756773Y-100084972D01*
X137750909Y-100078766D01*
X137740991Y-100066140D01*
X137734083Y-100051655D01*
X137729697Y-100033071D01*
X137727344Y-100008147D01*
X137726536Y-99974643D01*
X137726517Y-99966864D01*
X137726860Y-99936265D01*
X137727993Y-99915487D01*
X137730074Y-99903068D01*
X137733260Y-99897545D01*
X137734008Y-99897153D01*
X137743271Y-99895083D01*
X137759966Y-99892546D01*
X137778022Y-99890367D01*
X137814545Y-99886456D01*
X137812241Y-99943828D01*
X137811366Y-99970132D01*
X137811530Y-99987736D01*
X137813120Y-99999221D01*
X137816522Y-100007171D01*
X137822124Y-100014168D01*
X137822893Y-100014993D01*
X137835851Y-100028785D01*
X138004992Y-100028785D01*
X138054985Y-100028691D01*
X138094640Y-100028380D01*
X138124922Y-100027812D01*
X138146793Y-100026946D01*
X138161216Y-100025741D01*
X138169155Y-100024157D01*
X138171572Y-100022152D01*
X138171487Y-100021722D01*
X138164989Y-100003460D01*
X138157385Y-99980691D01*
X138149395Y-99955764D01*
X138141740Y-99931029D01*
X138135140Y-99908835D01*
X138130316Y-99891530D01*
X138127989Y-99881464D01*
X138127973Y-99879891D01*
X138134460Y-99878201D01*
X138149173Y-99875986D01*
X138169076Y-99873694D01*
X138171470Y-99873454D01*
X138193796Y-99871741D01*
X138207134Y-99872141D01*
G37*
G36*
X136799798Y-101827553D02*
G01*
X136863650Y-101835993D01*
X136920394Y-101853210D01*
X136970084Y-101879236D01*
X137012774Y-101914106D01*
X137048517Y-101957853D01*
X137070970Y-101996859D01*
X137088942Y-102038269D01*
X137101337Y-102079522D01*
X137108807Y-102123814D01*
X137112006Y-102174340D01*
X137112231Y-102198663D01*
X137110684Y-102245124D01*
X137105839Y-102286188D01*
X137096856Y-102326312D01*
X137082893Y-102369956D01*
X137076801Y-102386550D01*
X137064570Y-102419041D01*
X136890210Y-102419041D01*
X136890210Y-102402965D01*
X136894115Y-102387254D01*
X136901447Y-102376719D01*
X136924282Y-102349900D01*
X136943744Y-102315201D01*
X136958538Y-102275849D01*
X136967374Y-102235071D01*
X136969320Y-102207261D01*
X136965671Y-102162756D01*
X136954275Y-102125925D01*
X136934461Y-102095629D01*
X136905556Y-102070730D01*
X136880239Y-102056237D01*
X136863599Y-102048319D01*
X136849908Y-102043036D01*
X136836144Y-102039857D01*
X136819282Y-102038250D01*
X136796301Y-102037682D01*
X136774489Y-102037617D01*
X136733856Y-102038850D01*
X136701756Y-102043093D01*
X136675638Y-102051164D01*
X136652948Y-102063881D01*
X136631133Y-102082063D01*
X136628828Y-102084284D01*
X136606881Y-102113208D01*
X136592325Y-102148670D01*
X136585130Y-102188684D01*
X136585266Y-102231264D01*
X136592702Y-102274427D01*
X136607408Y-102316186D01*
X136629353Y-102354556D01*
X136633042Y-102359597D01*
X136645532Y-102377813D01*
X136654619Y-102394225D01*
X136658498Y-102405529D01*
X136658530Y-102406216D01*
X136658223Y-102411134D01*
X136656179Y-102414600D01*
X136650715Y-102416869D01*
X136640150Y-102418193D01*
X136622799Y-102418827D01*
X136596982Y-102419026D01*
X136573569Y-102419041D01*
X136488607Y-102419041D01*
X136477508Y-102393148D01*
X136461104Y-102345370D01*
X136449165Y-102290737D01*
X136442160Y-102232968D01*
X136440556Y-102175778D01*
X136444098Y-102128029D01*
X136457624Y-102061431D01*
X136479213Y-102002520D01*
X136508520Y-101951590D01*
X136545199Y-101908931D01*
X136588906Y-101874836D01*
X136639294Y-101849596D01*
X136696018Y-101833504D01*
X136758733Y-101826851D01*
X136799798Y-101827553D01*
G37*
G36*
X136873258Y-96550765D02*
G01*
X136870432Y-96553591D01*
X136867607Y-96550765D01*
X136870432Y-96547940D01*
X136873258Y-96550765D01*
G37*
G36*
X136889210Y-96550007D02*
G01*
X136888326Y-96551707D01*
X136881620Y-96552383D01*
X136880792Y-96551707D01*
X136881568Y-96548348D01*
X136884559Y-96547940D01*
X136889210Y-96550007D01*
G37*
D13*
%TO.C,R3*%
X163613641Y-100360000D02*
X163306359Y-100360000D01*
X163613641Y-101120000D02*
X163306359Y-101120000D01*
%TO.C,C5*%
X156377836Y-98260000D02*
X156162164Y-98260000D01*
X156377836Y-98980000D02*
X156162164Y-98980000D01*
%TO.C,F1*%
X171002064Y-105460000D02*
X169797936Y-105460000D01*
X171002064Y-107280000D02*
X169797936Y-107280000D01*
D10*
%TO.C,Hole3*%
X175940000Y-107630000D02*
G75*
G03*
X175940000Y-107630000I-900000J0D01*
G01*
D13*
%TO.C,C4*%
X143649311Y-95458606D02*
X143864983Y-95458606D01*
X143649311Y-94738606D02*
X143864983Y-94738606D01*
D14*
%TO.C,U3*%
X140165045Y-99671331D02*
X140434452Y-99401923D01*
X147079842Y-99401923D02*
X147349249Y-99671331D01*
X147349249Y-99671331D02*
X147079842Y-99940739D01*
X140434452Y-99940739D02*
X140165045Y-99671331D01*
X143757147Y-96079229D02*
X144026555Y-96348636D01*
X143487739Y-96348636D02*
X143757147Y-96079229D01*
X143757147Y-103263433D02*
X143487739Y-102994026D01*
X144026555Y-102994026D02*
X143757147Y-103263433D01*
X143884148Y-103443039D02*
G75*
G03*
X143884148Y-103443039I-127001J0D01*
G01*
D13*
%TO.C,R1*%
X171820000Y-108753641D02*
X171820000Y-108446359D01*
X172580000Y-108753641D02*
X172580000Y-108446359D01*
D10*
%TO.C,Hole1*%
X131430000Y-91810000D02*
G75*
G03*
X131430000Y-91810000I-900000J0D01*
G01*
D13*
%TO.C,J3*%
X128760000Y-94640000D02*
X130090000Y-94640000D01*
X128760000Y-104920000D02*
X131420000Y-104920000D01*
X128760000Y-95970000D02*
X128760000Y-94640000D01*
X131420000Y-97240000D02*
X131420000Y-104920000D01*
X128760000Y-97240000D02*
X128760000Y-104920000D01*
X128760000Y-97240000D02*
X131420000Y-97240000D01*
%TO.C,C8*%
X149267836Y-98650000D02*
X149052164Y-98650000D01*
X149267836Y-99370000D02*
X149052164Y-99370000D01*
%TO.C,C7*%
X143659311Y-103998606D02*
X143874983Y-103998606D01*
X143659311Y-104718606D02*
X143874983Y-104718606D01*
D14*
%TO.C,USB1*%
X176970000Y-104230000D02*
X175476000Y-104230000D01*
X171675000Y-95290000D02*
X173244000Y-95290000D01*
X170170000Y-103349000D02*
X170170000Y-103141000D01*
X170170000Y-97659000D02*
X170170000Y-97641000D01*
X173244000Y-104230000D02*
X171675000Y-104230000D01*
X170170000Y-96379000D02*
X170170000Y-96171000D01*
X176970000Y-95290000D02*
X176970000Y-104230000D01*
X175476000Y-95290000D02*
X176970000Y-95290000D01*
X170170000Y-101879000D02*
X170170000Y-101861000D01*
X169630000Y-103450000D02*
G75*
G03*
X169630000Y-103450000I-250000J0D01*
G01*
D13*
%TO.C,C9*%
X156152164Y-101110000D02*
X156367836Y-101110000D01*
X156152164Y-100390000D02*
X156367836Y-100390000D01*
D10*
%TO.C,Hole2*%
X131460000Y-107620000D02*
G75*
G03*
X131460000Y-107620000I-900000J0D01*
G01*
D14*
%TO.C,SW2*%
X156967000Y-101422000D02*
X162967000Y-101422000D01*
X162967000Y-102109000D02*
X162967000Y-101422000D01*
X158951000Y-102310000D02*
X160983000Y-102310000D01*
X160983000Y-102310000D02*
X160983000Y-103834000D01*
X158951000Y-103834000D02*
X158951000Y-102310000D01*
X160983000Y-103834000D02*
X158951000Y-103834000D01*
X162967000Y-104722000D02*
X162967000Y-104071000D01*
X156967000Y-101422000D02*
X156967000Y-102155000D01*
X162967000Y-104722000D02*
X156967000Y-104722000D01*
X156967000Y-104025000D02*
X156967000Y-104722000D01*
D13*
%TO.C,R2*%
X163623641Y-99040000D02*
X163316359Y-99040000D01*
X163623641Y-98280000D02*
X163316359Y-98280000D01*
%TO.C,D1*%
X171045000Y-107885000D02*
X168760000Y-107885000D01*
X168760000Y-107885000D02*
X168760000Y-109355000D01*
X168760000Y-109355000D02*
X171045000Y-109355000D01*
%TO.C,C2*%
X167940000Y-92252164D02*
X167940000Y-92467836D01*
X168660000Y-92252164D02*
X168660000Y-92467836D01*
%TO.C,C6*%
X149267836Y-100720000D02*
X149052164Y-100720000D01*
X149267836Y-100000000D02*
X149052164Y-100000000D01*
%TO.C,C11*%
X150770000Y-102052164D02*
X150770000Y-102267836D01*
X151490000Y-102052164D02*
X151490000Y-102267836D01*
%TO.C,C10*%
X151490000Y-104147836D02*
X151490000Y-103932164D01*
X150770000Y-104147836D02*
X150770000Y-103932164D01*
%TO.C,C1*%
X173450000Y-92252164D02*
X173450000Y-92467836D01*
X172730000Y-92252164D02*
X172730000Y-92467836D01*
D10*
%TO.C,Hole4*%
X175940000Y-91810000D02*
G75*
G03*
X175940000Y-91810000I-900000J0D01*
G01*
D11*
%TO.C,Y1*%
X149902000Y-102612000D02*
X149902000Y-103691000D01*
X148378000Y-102612000D02*
X148378000Y-103691000D01*
D14*
%TO.C,SW1*%
X158971000Y-95550000D02*
X161003000Y-95550000D01*
X161003000Y-95550000D02*
X161003000Y-97074000D01*
X156987000Y-94662000D02*
X162987000Y-94662000D01*
X162987000Y-95349000D02*
X162987000Y-94662000D01*
X158971000Y-97074000D02*
X158971000Y-95550000D01*
X156987000Y-97265000D02*
X156987000Y-97962000D01*
X161003000Y-97074000D02*
X158971000Y-97074000D01*
X162987000Y-97962000D02*
X156987000Y-97962000D01*
X156987000Y-94662000D02*
X156987000Y-95395000D01*
X162987000Y-97962000D02*
X162987000Y-97311000D01*
%TO.C,U1*%
X169800000Y-90330000D02*
X171600000Y-90330000D01*
X169800000Y-93430000D02*
X171600000Y-93430000D01*
X169800000Y-92280000D02*
X169800000Y-91480000D01*
X172351000Y-93531000D02*
G75*
G03*
X172351000Y-93531000I-127000J0D01*
G01*
%TD*%
%LPC*%
D15*
%TO.C,R3*%
X163970000Y-100740000D03*
X162950000Y-100740000D03*
%TD*%
D16*
%TO.C,C5*%
X156750000Y-98620000D03*
X155790000Y-98620000D03*
%TD*%
D17*
%TO.C,F1*%
X171800000Y-106370000D03*
X169000000Y-106370000D03*
%TD*%
D18*
%TO.C,Hole3*%
X175040000Y-107630000D03*
%TD*%
D19*
%TO.C,C4*%
X143277147Y-95098606D03*
X144237147Y-95098606D03*
%TD*%
D20*
%TO.C,U3*%
X144315761Y-102704819D03*
X144669315Y-102351266D03*
X145022868Y-101997712D03*
X145376422Y-101644159D03*
X145729975Y-101290606D03*
X146083528Y-100937052D03*
X146437082Y-100583499D03*
X146790635Y-100229945D03*
D21*
X146790635Y-99112717D03*
X146437082Y-98759163D03*
X146083528Y-98405610D03*
X145729975Y-98052056D03*
X145376422Y-97698503D03*
X145022868Y-97344950D03*
X144669315Y-96991396D03*
X144315761Y-96637843D03*
D22*
X143198533Y-96637843D03*
X142844979Y-96991396D03*
X142491426Y-97344950D03*
X142137872Y-97698503D03*
X141784319Y-98052056D03*
X141430766Y-98405610D03*
X141077212Y-98759163D03*
X140723659Y-99112717D03*
D23*
X140723659Y-100229945D03*
X141077212Y-100583499D03*
X141430766Y-100937052D03*
X141784319Y-101290606D03*
X142137872Y-101644159D03*
X142491426Y-101997712D03*
X142844979Y-102351266D03*
X143198533Y-102704819D03*
D24*
X143757147Y-99671331D03*
%TD*%
D25*
%TO.C,R1*%
X172200000Y-109110000D03*
X172200000Y-108090000D03*
%TD*%
D18*
%TO.C,Hole1*%
X130530000Y-91810000D03*
%TD*%
D26*
%TO.C,J3*%
X130090000Y-95970000D03*
D27*
X130090000Y-98510000D03*
X130090000Y-101050000D03*
X130090000Y-103590000D03*
%TD*%
D16*
%TO.C,C8*%
X149640000Y-99010000D03*
X148680000Y-99010000D03*
%TD*%
D19*
%TO.C,C7*%
X143287147Y-104358606D03*
X144247147Y-104358606D03*
%TD*%
D28*
%TO.C,USB1*%
X170560000Y-104080000D03*
X170560000Y-95440000D03*
X174360000Y-104080000D03*
X174360000Y-95440000D03*
D29*
X169560000Y-100260000D03*
X169560000Y-98240000D03*
D30*
X169560000Y-97010000D03*
D29*
X169560000Y-99260000D03*
X169560000Y-101280000D03*
D30*
X169560000Y-102510000D03*
%TD*%
D19*
%TO.C,C9*%
X155780000Y-100750000D03*
X156740000Y-100750000D03*
%TD*%
D18*
%TO.C,Hole2*%
X130560000Y-107620000D03*
%TD*%
D31*
%TO.C,SW2*%
X163530000Y-103090000D03*
X156130000Y-103090000D03*
%TD*%
D15*
%TO.C,R2*%
X163980000Y-98660000D03*
X162960000Y-98660000D03*
%TD*%
D32*
%TO.C,D1*%
X169457500Y-108620000D03*
X171032500Y-108620000D03*
%TD*%
D33*
%TO.C,C2*%
X168300000Y-91880000D03*
X168300000Y-92840000D03*
%TD*%
D16*
%TO.C,C6*%
X149640000Y-100360000D03*
X148680000Y-100360000D03*
%TD*%
D33*
%TO.C,C11*%
X151130000Y-101680000D03*
X151130000Y-102640000D03*
%TD*%
D34*
%TO.C,C10*%
X151130000Y-104520000D03*
X151130000Y-103560000D03*
%TD*%
D33*
%TO.C,C1*%
X173090000Y-91880000D03*
X173090000Y-92840000D03*
%TD*%
D18*
%TO.C,Hole4*%
X175040000Y-91810000D03*
%TD*%
D35*
%TO.C,Y1*%
X149140000Y-101870000D03*
X149140000Y-104370000D03*
%TD*%
D31*
%TO.C,SW1*%
X163550000Y-96330000D03*
X156150000Y-96330000D03*
%TD*%
D36*
%TO.C,U1*%
X172000000Y-92830000D03*
X172000000Y-91880000D03*
X172000000Y-90930000D03*
X169400000Y-90930000D03*
X169400000Y-92830000D03*
%TD*%
D26*
%TO.C,J2*%
X165980000Y-108500000D03*
D27*
X163440000Y-108500000D03*
X160900000Y-108500000D03*
X158360000Y-108500000D03*
X155820000Y-108500000D03*
X153280000Y-108500000D03*
X150740000Y-108500000D03*
X148200000Y-108500000D03*
X145660000Y-108500000D03*
X143120000Y-108500000D03*
X140580000Y-108500000D03*
X138040000Y-108500000D03*
X135500000Y-108500000D03*
X132960000Y-108500000D03*
%TD*%
D26*
%TO.C,J1*%
X165990000Y-90940000D03*
D27*
X163450000Y-90940000D03*
X160910000Y-90940000D03*
X158370000Y-90940000D03*
X155830000Y-90940000D03*
X153290000Y-90940000D03*
X150750000Y-90940000D03*
X148210000Y-90940000D03*
X145670000Y-90940000D03*
X143130000Y-90940000D03*
X140590000Y-90940000D03*
X138050000Y-90940000D03*
X135510000Y-90940000D03*
X132970000Y-90940000D03*
%TD*%
M02*
