%TF.GenerationSoftware,KiCad,Pcbnew,7.0.5*%
%TF.CreationDate,2023-07-04T16:10:45+08:00*%
%TF.ProjectId,UINIO-MCU-STM32L051K8,55494e49-4f2d-44d4-9355-2d53544d3332,Version 3.3.0*%
%TF.SameCoordinates,PXa305660PY5939cc0*%
%TF.FileFunction,Copper,L2,Bot*%
%TF.FilePolarity,Positive*%
%FSLAX46Y46*%
G04 Gerber Fmt 4.6, Leading zero omitted, Abs format (unit mm)*
G04 Created by KiCad (PCBNEW 7.0.5) date 2023-07-04 16:10:45*
%MOMM*%
%LPD*%
G01*
G04 APERTURE LIST*
G04 Aperture macros list*
%AMRoundRect*
0 Rectangle with rounded corners*
0 $1 Rounding radius*
0 $2 $3 $4 $5 $6 $7 $8 $9 X,Y pos of 4 corners*
0 Add a 4 corners polygon primitive as box body*
4,1,4,$2,$3,$4,$5,$6,$7,$8,$9,$2,$3,0*
0 Add four circle primitives for the rounded corners*
1,1,$1+$1,$2,$3*
1,1,$1+$1,$4,$5*
1,1,$1+$1,$6,$7*
1,1,$1+$1,$8,$9*
0 Add four rect primitives between the rounded corners*
20,1,$1+$1,$2,$3,$4,$5,0*
20,1,$1+$1,$4,$5,$6,$7,0*
20,1,$1+$1,$6,$7,$8,$9,0*
20,1,$1+$1,$8,$9,$2,$3,0*%
G04 Aperture macros list end*
%TA.AperFunction,ComponentPad*%
%ADD10C,1.200000*%
%TD*%
%TA.AperFunction,ComponentPad*%
%ADD11R,1.700000X1.700000*%
%TD*%
%TA.AperFunction,ComponentPad*%
%ADD12O,1.700000X1.700000*%
%TD*%
%TA.AperFunction,ComponentPad*%
%ADD13O,1.800000X1.000000*%
%TD*%
%TA.AperFunction,SMDPad,CuDef*%
%ADD14O,0.630000X2.250000*%
%TD*%
%TA.AperFunction,SMDPad,CuDef*%
%ADD15RoundRect,0.140000X-0.170000X0.140000X-0.170000X-0.140000X0.170000X-0.140000X0.170000X0.140000X0*%
%TD*%
%TA.AperFunction,ViaPad*%
%ADD16C,0.500000*%
%TD*%
%TA.AperFunction,ViaPad*%
%ADD17C,0.700000*%
%TD*%
%TA.AperFunction,ViaPad*%
%ADD18C,0.900000*%
%TD*%
%TA.AperFunction,Conductor*%
%ADD19C,0.300000*%
%TD*%
%TA.AperFunction,Conductor*%
%ADD20C,0.200000*%
%TD*%
%TA.AperFunction,Conductor*%
%ADD21C,0.400000*%
%TD*%
%TA.AperFunction,Conductor*%
%ADD22C,0.500000*%
%TD*%
%TA.AperFunction,Conductor*%
%ADD23C,0.150000*%
%TD*%
G04 APERTURE END LIST*
D10*
%TO.P,Hole3,*%
%TO.N,*%
X-43420000Y-2300000D03*
%TD*%
%TO.P,Hole1,*%
%TO.N,*%
X1090000Y-17980000D03*
%TD*%
D11*
%TO.P,J3,1,Pin_1*%
%TO.N,/VDD_3.3V*%
X1550000Y-13950000D03*
D12*
%TO.P,J3,2,Pin_2*%
%TO.N,/PA13{slash}SWDIO*%
X1550000Y-11410000D03*
%TO.P,J3,3,Pin_3*%
%TO.N,/PA14{slash}SWCLK*%
X1550000Y-8870000D03*
%TO.P,J3,4,Pin_4*%
%TO.N,GND*%
X1550000Y-6330000D03*
%TD*%
D13*
%TO.P,USB1,1,GND*%
%TO.N,GND*%
X-39620000Y-5830000D03*
%TO.P,USB1,2,GND*%
X-39620000Y-14470000D03*
%TO.P,USB1,3,GND*%
X-43420000Y-5830000D03*
%TO.P,USB1,4,GND*%
X-43420000Y-14470000D03*
%TD*%
D10*
%TO.P,Hole2,*%
%TO.N,*%
X1090000Y-2300000D03*
%TD*%
%TO.P,Hole4,*%
%TO.N,*%
X-43420000Y-17980000D03*
%TD*%
D12*
%TO.P,J2,14,Pin_14*%
%TO.N,/PB0*%
X-1330000Y-1340000D03*
%TO.P,J2,13,Pin_13*%
%TO.N,/PB1*%
X-3870000Y-1340000D03*
%TO.P,J2,12,Pin_12*%
%TO.N,/PB2*%
X-6410000Y-1340000D03*
%TO.P,J2,11,Pin_11*%
%TO.N,/PB3*%
X-8950000Y-1340000D03*
%TO.P,J2,10,Pin_10*%
%TO.N,/PB4*%
X-11490000Y-1340000D03*
%TO.P,J2,9,Pin_9*%
%TO.N,/PB5*%
X-14030000Y-1340000D03*
%TO.P,J2,8,Pin_8*%
%TO.N,/PB6*%
X-16570000Y-1340000D03*
%TO.P,J2,7,Pin_7*%
%TO.N,/PB7*%
X-19110000Y-1340000D03*
%TO.P,J2,6,Pin_6*%
%TO.N,/PB8*%
X-21650000Y-1340000D03*
%TO.P,J2,5,Pin_5*%
%TO.N,/NRST*%
X-24190000Y-1340000D03*
%TO.P,J2,4,Pin_4*%
%TO.N,GND*%
X-26730000Y-1340000D03*
%TO.P,J2,3,Pin_3*%
%TO.N,/VDD_3.3V*%
X-29270000Y-1340000D03*
%TO.P,J2,2,Pin_2*%
%TO.N,GND*%
X-31810000Y-1340000D03*
D11*
%TO.P,J2,1,Pin_1*%
%TO.N,/VDD_5V*%
X-34350000Y-1340000D03*
%TD*%
D14*
%TO.P,U2,1,CS#*%
%TO.N,/PA4{slash}CS*%
X-30575000Y-6620000D03*
%TO.P,U2,2,DO(IO1)*%
%TO.N,/PA6{slash}MISO*%
X-29305000Y-6620000D03*
%TO.P,U2,3,WP#(IO2)*%
%TO.N,GND*%
X-28035000Y-6620000D03*
%TO.P,U2,4,GND*%
X-26765000Y-6620000D03*
%TO.P,U2,5,DI(IO0)*%
%TO.N,/PA7{slash}MOSI*%
X-26765000Y-13680000D03*
%TO.P,U2,6,CLK*%
%TO.N,/PA5{slash}SCLK*%
X-28035000Y-13680000D03*
%TO.P,U2,7,HOLD#/RESET#/(IO3)*%
%TO.N,GND*%
X-29305000Y-13680000D03*
%TO.P,U2,8,VCC*%
%TO.N,/VDD_3.3V*%
X-30575000Y-13680000D03*
%TD*%
D15*
%TO.P,C3,1*%
%TO.N,GND*%
X-31910000Y-9670000D03*
%TO.P,C3,2*%
%TO.N,/VDD_3.3V*%
X-31910000Y-10630000D03*
%TD*%
D11*
%TO.P,J1,1,Pin_1*%
%TO.N,/PA0*%
X-34350000Y-18960000D03*
D12*
%TO.P,J1,2,Pin_2*%
%TO.N,/PA1*%
X-31810000Y-18960000D03*
%TO.P,J1,3,Pin_3*%
%TO.N,/PA2*%
X-29270000Y-18960000D03*
%TO.P,J1,4,Pin_4*%
%TO.N,/PA3*%
X-26730000Y-18960000D03*
%TO.P,J1,5,Pin_5*%
%TO.N,/PA4{slash}CS*%
X-24190000Y-18960000D03*
%TO.P,J1,6,Pin_6*%
%TO.N,/PA5{slash}SCLK*%
X-21650000Y-18960000D03*
%TO.P,J1,7,Pin_7*%
%TO.N,/PA6{slash}MISO*%
X-19110000Y-18960000D03*
%TO.P,J1,8,Pin_8*%
%TO.N,/PA7{slash}MOSI*%
X-16570000Y-18960000D03*
%TO.P,J1,9,Pin_9*%
%TO.N,/PA8*%
X-14030000Y-18960000D03*
%TO.P,J1,10,Pin_10*%
%TO.N,/PA9*%
X-11490000Y-18960000D03*
%TO.P,J1,11,Pin_11*%
%TO.N,/PA10*%
X-8950000Y-18960000D03*
%TO.P,J1,12,Pin_12*%
%TO.N,/PA11*%
X-6410000Y-18960000D03*
%TO.P,J1,13,Pin_13*%
%TO.N,/PA12*%
X-3870000Y-18960000D03*
%TO.P,J1,14,Pin_14*%
%TO.N,/PA15*%
X-1330000Y-18960000D03*
%TD*%
D16*
%TO.N,GND*%
X-28910000Y-16920000D03*
X-30970000Y-16920000D03*
D17*
X-35250000Y-17090000D03*
X-14910000Y-16080000D03*
D16*
X-5590000Y-16460000D03*
X-32500000Y-13740000D03*
X-3430000Y-10020000D03*
X80000Y-16460000D03*
D18*
X-8190000Y-6310000D03*
X-30290000Y-10240000D03*
D16*
X-15765837Y-7570500D03*
X-9820000Y-16460000D03*
D17*
X-18000000Y-12090000D03*
D16*
X-33350000Y-3490000D03*
X-2400000Y-16460000D03*
X-7780000Y-16460000D03*
X-27990000Y-11320000D03*
D17*
X-31880000Y-8050000D03*
D18*
X-36180000Y-1300000D03*
D16*
X-12600000Y-10750000D03*
X-10170000Y-3370000D03*
X-12180000Y-10310000D03*
X-11290000Y-9420000D03*
X-11700000Y-9880000D03*
D18*
X-13330000Y-3990000D03*
D16*
X-13730000Y-5730000D03*
X-13050000Y-11180000D03*
D18*
X-8186398Y-3983602D03*
D16*
X-9830000Y-14660000D03*
D17*
%TO.N,/VDD_3.3V*%
X-36157000Y-16073000D03*
D16*
X-19690000Y-15380000D03*
D17*
X-22990000Y-4820500D03*
D18*
X-33572000Y-12510000D03*
D17*
X-12320000Y-16070000D03*
X-25270000Y-4840000D03*
X-41620000Y-820000D03*
D16*
%TO.N,/BOOT0*%
X-10717147Y-6640000D03*
X-31320000Y-11930000D03*
X-31320000Y-14670000D03*
X-24150000Y-14660000D03*
%TO.N,/NRST*%
X-14940000Y-7570500D03*
X-24140000Y-5530000D03*
%TO.N,/PA4{slash}CS*%
X-21710000Y-12400000D03*
X-19680000Y-14430000D03*
X-15889500Y-14430023D03*
%TO.N,/PA6{slash}MISO*%
X-21020500Y-17600000D03*
X-22930000Y-17600000D03*
%TO.N,/PA15*%
X-4260000Y-14790000D03*
X-1320000Y-14790000D03*
X-4280000Y-7420000D03*
%TO.N,/PB0*%
X-13870000Y-13340000D03*
%TO.N,/PB1*%
X-13870000Y-14100000D03*
%TO.N,/PB2*%
X-13880000Y-14850000D03*
%TD*%
D19*
%TO.N,GND*%
X-35250000Y-12280000D02*
X-35285000Y-12245000D01*
X-35250000Y-17090000D02*
X-35250000Y-12280000D01*
D20*
%TO.N,/PA5{slash}SCLK*%
X-22540000Y-17090000D02*
X-21650000Y-17980000D01*
X-27000000Y-17090000D02*
X-22540000Y-17090000D01*
X-28035000Y-16055000D02*
X-27000000Y-17090000D01*
X-21650000Y-17980000D02*
X-21650000Y-19040000D01*
X-28035000Y-13770000D02*
X-28035000Y-16055000D01*
%TO.N,/PA6{slash}MISO*%
X-29345000Y-9905000D02*
X-29345000Y-6750000D01*
X-28710000Y-10540000D02*
X-29345000Y-9905000D01*
X-27390000Y-17600000D02*
X-28710000Y-16280000D01*
X-22930000Y-17600000D02*
X-27390000Y-17600000D01*
X-28710000Y-16280000D02*
X-28710000Y-10540000D01*
X-20470000Y-17600000D02*
X-19110000Y-18960000D01*
X-21020500Y-17600000D02*
X-20470000Y-17600000D01*
%TO.N,/PB2*%
X-15250000Y-11965736D02*
X-6410000Y-3125736D01*
X-15250000Y-13970708D02*
X-15250000Y-11965736D01*
X-14370708Y-14850000D02*
X-15250000Y-13970708D01*
X-6410000Y-3125736D02*
X-6410000Y-1340000D01*
X-13880000Y-14850000D02*
X-14370708Y-14850000D01*
%TO.N,/PB1*%
X-14860000Y-12000000D02*
X-4200000Y-1340000D01*
X-14860000Y-13760000D02*
X-14860000Y-12000000D01*
X-14520000Y-14100000D02*
X-14860000Y-13760000D01*
X-13870000Y-14100000D02*
X-14520000Y-14100000D01*
%TO.N,/PB0*%
X-13330000Y-13340000D02*
X-1330000Y-1340000D01*
X-13870000Y-13340000D02*
X-13330000Y-13340000D01*
%TO.N,/PA15*%
X-1320000Y-14790000D02*
X-1330000Y-14800000D01*
X-1330000Y-14800000D02*
X-1330000Y-18960000D01*
D19*
%TO.N,GND*%
X-31550000Y-3360000D02*
X-31550000Y-1820000D01*
X-30650000Y-3960000D02*
X-26970000Y-3960000D01*
D21*
X-8190000Y-6320000D02*
X-11290000Y-9420000D01*
D22*
X-32710000Y-9670000D02*
X-35285000Y-12245000D01*
D19*
X-8190000Y-3980000D02*
X-13320000Y-3980000D01*
D22*
X-35285000Y-12245000D02*
X-37315000Y-14275000D01*
D19*
X-13320000Y-3980000D02*
X-13330000Y-3990000D01*
D22*
X-31880000Y-8650000D02*
X-30290000Y-10240000D01*
D19*
X-19880000Y-16080000D02*
X-14910000Y-16080000D01*
X-28035000Y-6710000D02*
X-28035000Y-5215000D01*
D22*
X-31880000Y-8050000D02*
X-31880000Y-8650000D01*
D21*
X-29305000Y-13770000D02*
X-29305000Y-11205000D01*
X-13050000Y-11180000D02*
X-11290000Y-9420000D01*
D19*
X-18047107Y-12090000D02*
X-20380000Y-14422893D01*
X-26765000Y-5205000D02*
X-27590000Y-4380000D01*
D22*
X-39620000Y-4740000D02*
X-39620000Y-5870000D01*
D19*
X-8186398Y-3983602D02*
X-8190000Y-3980000D01*
D22*
X-30860000Y-9670000D02*
X-32710000Y-9670000D01*
D19*
X-26790000Y-3960000D02*
X-26720000Y-3890000D01*
X-20380000Y-14422893D02*
X-20380000Y-15580000D01*
X-30100000Y-4810000D02*
X-31690000Y-3220000D01*
D22*
X-34510000Y-5810000D02*
X-31920000Y-3220000D01*
D19*
X-30530000Y-4380000D02*
X-31550000Y-3360000D01*
X-26760000Y-3990000D02*
X-26790000Y-3960000D01*
X-18000000Y-12090000D02*
X-18047107Y-12090000D01*
X-26720000Y-3890000D02*
X-26720000Y-1420000D01*
D22*
X-36180000Y-1300000D02*
X-39620000Y-4740000D01*
D20*
X-7780000Y-16460000D02*
X-5590000Y-16460000D01*
D22*
X-37315000Y-14275000D02*
X-37550000Y-14510000D01*
D19*
X-31690000Y-3220000D02*
X-31690000Y-1420000D01*
D22*
X-38770000Y-5810000D02*
X-34510000Y-5810000D01*
X-31920000Y-3220000D02*
X-31920000Y-1540000D01*
X-37550000Y-14510000D02*
X-39620000Y-14510000D01*
D21*
X-30270000Y-10240000D02*
X-30290000Y-10240000D01*
D19*
X-27590000Y-4380000D02*
X-30530000Y-4380000D01*
D21*
X-8190000Y-6310000D02*
X-8190000Y-6320000D01*
D19*
X-26790000Y-3960000D02*
X-26970000Y-3960000D01*
X-31800000Y-1660000D02*
X-31800000Y-2810000D01*
X-26765000Y-6710000D02*
X-26765000Y-5205000D01*
X-20380000Y-15580000D02*
X-19880000Y-16080000D01*
X-28440000Y-4810000D02*
X-30100000Y-4810000D01*
X-28035000Y-5215000D02*
X-28440000Y-4810000D01*
X-31800000Y-2810000D02*
X-30650000Y-3960000D01*
D21*
X-29305000Y-11205000D02*
X-30270000Y-10240000D01*
D22*
X-30290000Y-10240000D02*
X-30860000Y-9670000D01*
D19*
X-13330000Y-3990000D02*
X-26760000Y-3990000D01*
%TO.N,/VDD_3.3V*%
X-12320000Y-16070000D02*
X-12320000Y-15380000D01*
X-31910000Y-10630000D02*
X-31110000Y-10630000D01*
X-2170000Y-13950000D02*
X-3600000Y-15380000D01*
X-33572000Y-12510000D02*
X-33572000Y-12272000D01*
X1550000Y-13950000D02*
X-2170000Y-13950000D01*
X-36157000Y-16073000D02*
X-36164000Y-16080000D01*
X-12320000Y-15380000D02*
X-3600000Y-15380000D01*
D23*
X-25250500Y-4820500D02*
X-25270000Y-4840000D01*
D19*
X-41620000Y-15280000D02*
X-41620000Y-820000D01*
X-30575000Y-11165000D02*
X-30575000Y-13680000D01*
X-40820000Y-16080000D02*
X-41620000Y-15280000D01*
X-19690000Y-15380000D02*
X-12320000Y-15380000D01*
X-22990000Y-4820500D02*
X-25250500Y-4820500D01*
X-31110000Y-10630000D02*
X-30575000Y-11165000D01*
X-33572000Y-12272000D02*
X-31930000Y-10630000D01*
X-36164000Y-16080000D02*
X-40820000Y-16080000D01*
D20*
%TO.N,/BOOT0*%
X-15855026Y-8020000D02*
X-12090000Y-8020000D01*
X-24150000Y-14660000D02*
X-22510000Y-14660000D01*
X-22510000Y-14660000D02*
X-18400000Y-10550000D01*
X-18400000Y-10550000D02*
X-18385026Y-10550000D01*
X-18385026Y-10550000D02*
X-15855026Y-8020000D01*
X-12090000Y-8020000D02*
X-10717147Y-6647147D01*
X-10717147Y-6647147D02*
X-10717147Y-6640000D01*
X-31320000Y-14670000D02*
X-31320000Y-11930000D01*
%TO.N,/NRST*%
X-14940000Y-5950000D02*
X-15360000Y-5530000D01*
X-14940000Y-7570500D02*
X-14940000Y-5950000D01*
X-15360000Y-5530000D02*
X-24140000Y-5530000D01*
%TO.N,/PA4{slash}CS*%
X-28670000Y-5350000D02*
X-28800000Y-5220000D01*
X-28800000Y-5220000D02*
X-30480000Y-5220000D01*
X-30615000Y-5355000D02*
X-30615000Y-6365000D01*
X-30480000Y-5220000D02*
X-30615000Y-5355000D01*
X-25960000Y-12400000D02*
X-28670000Y-9690000D01*
X-15889523Y-14430000D02*
X-15889500Y-14430023D01*
X-21710000Y-12400000D02*
X-25960000Y-12400000D01*
X-19680000Y-14430000D02*
X-15889523Y-14430000D01*
X-28670000Y-9690000D02*
X-28670000Y-5350000D01*
D19*
%TO.N,/PA7{slash}MOSI*%
X-19080000Y-16530000D02*
X-16570000Y-19040000D01*
X-25920000Y-16530000D02*
X-19080000Y-16530000D01*
X-26765000Y-15685000D02*
X-25920000Y-16530000D01*
X-26765000Y-13770000D02*
X-26765000Y-15685000D01*
D20*
%TO.N,/PA15*%
X-4260000Y-14790000D02*
X-4270000Y-14780000D01*
X-4270000Y-7430000D02*
X-4280000Y-7420000D01*
X-4270000Y-14780000D02*
X-4270000Y-7430000D01*
%TD*%
%TA.AperFunction,Conductor*%
%TO.N,GND*%
G36*
X-35758718Y-267685D02*
G01*
X-35712963Y-320489D01*
X-35702468Y-385257D01*
X-35708500Y-441348D01*
X-35708500Y-2238654D01*
X-35701989Y-2299202D01*
X-35701989Y-2299204D01*
X-35669734Y-2385679D01*
X-35650889Y-2436204D01*
X-35563261Y-2553261D01*
X-35446204Y-2640889D01*
X-35383689Y-2664206D01*
X-35315462Y-2689654D01*
X-35309201Y-2691989D01*
X-35281950Y-2694918D01*
X-35248655Y-2698499D01*
X-35248638Y-2698500D01*
X-33451362Y-2698500D01*
X-33451346Y-2698499D01*
X-33424308Y-2695591D01*
X-33390799Y-2691989D01*
X-33253796Y-2640889D01*
X-33136739Y-2553261D01*
X-33049111Y-2436204D01*
X-33000777Y-2306615D01*
X-32958907Y-2250686D01*
X-32893443Y-2226269D01*
X-32825170Y-2241121D01*
X-32796916Y-2262272D01*
X-32681083Y-2378105D01*
X-32487579Y-2513600D01*
X-32273493Y-2613429D01*
X-32273484Y-2613433D01*
X-32060000Y-2670634D01*
X-32060000Y-1775501D01*
X-31952315Y-1824680D01*
X-31845763Y-1840000D01*
X-31774237Y-1840000D01*
X-31667685Y-1824680D01*
X-31560000Y-1775501D01*
X-31560000Y-2670633D01*
X-31346517Y-2613433D01*
X-31346508Y-2613429D01*
X-31132422Y-2513600D01*
X-30938918Y-2378105D01*
X-30771895Y-2211082D01*
X-30645132Y-2030048D01*
X-30590555Y-1986423D01*
X-30521056Y-1979231D01*
X-30458702Y-2010753D01*
X-30439749Y-2033350D01*
X-30345724Y-2177265D01*
X-30345716Y-2177276D01*
X-30226645Y-2306619D01*
X-30193240Y-2342906D01*
X-30015576Y-2481189D01*
X-30015575Y-2481189D01*
X-30015573Y-2481191D01*
X-29972392Y-2504559D01*
X-29817574Y-2588342D01*
X-29604635Y-2661444D01*
X-29382569Y-2698500D01*
X-29157431Y-2698500D01*
X-28935365Y-2661444D01*
X-28722426Y-2588342D01*
X-28524424Y-2481189D01*
X-28346760Y-2342906D01*
X-28225406Y-2211082D01*
X-28194285Y-2177276D01*
X-28194285Y-2177275D01*
X-28194278Y-2177268D01*
X-28100251Y-2033347D01*
X-28047106Y-1987994D01*
X-27977875Y-1978570D01*
X-27914539Y-2008072D01*
X-27894870Y-2030048D01*
X-27768110Y-2211078D01*
X-27601083Y-2378105D01*
X-27407579Y-2513600D01*
X-27193493Y-2613429D01*
X-27193484Y-2613433D01*
X-26980000Y-2670634D01*
X-26980000Y-1775501D01*
X-26872315Y-1824680D01*
X-26765763Y-1840000D01*
X-26694237Y-1840000D01*
X-26587685Y-1824680D01*
X-26480000Y-1775501D01*
X-26480000Y-2670633D01*
X-26266517Y-2613433D01*
X-26266508Y-2613429D01*
X-26052422Y-2513600D01*
X-25858918Y-2378105D01*
X-25691895Y-2211082D01*
X-25565132Y-2030048D01*
X-25510555Y-1986423D01*
X-25441056Y-1979231D01*
X-25378702Y-2010753D01*
X-25359749Y-2033350D01*
X-25265724Y-2177265D01*
X-25265716Y-2177276D01*
X-25146645Y-2306619D01*
X-25113240Y-2342906D01*
X-24935576Y-2481189D01*
X-24935575Y-2481189D01*
X-24935573Y-2481191D01*
X-24892392Y-2504559D01*
X-24737574Y-2588342D01*
X-24524635Y-2661444D01*
X-24302569Y-2698500D01*
X-24077431Y-2698500D01*
X-23855365Y-2661444D01*
X-23642426Y-2588342D01*
X-23444424Y-2481189D01*
X-23266760Y-2342906D01*
X-23145406Y-2211082D01*
X-23114285Y-2177276D01*
X-23114285Y-2177275D01*
X-23114278Y-2177268D01*
X-23023807Y-2038790D01*
X-22970662Y-1993437D01*
X-22901431Y-1984013D01*
X-22838095Y-2013515D01*
X-22816196Y-2038787D01*
X-22725722Y-2177268D01*
X-22725718Y-2177272D01*
X-22725717Y-2177273D01*
X-22725716Y-2177276D01*
X-22606645Y-2306619D01*
X-22573240Y-2342906D01*
X-22395576Y-2481189D01*
X-22395575Y-2481189D01*
X-22395573Y-2481191D01*
X-22352392Y-2504559D01*
X-22197574Y-2588342D01*
X-21984635Y-2661444D01*
X-21762569Y-2698500D01*
X-21537431Y-2698500D01*
X-21315365Y-2661444D01*
X-21102426Y-2588342D01*
X-20904424Y-2481189D01*
X-20726760Y-2342906D01*
X-20605406Y-2211082D01*
X-20574285Y-2177276D01*
X-20574285Y-2177275D01*
X-20574278Y-2177268D01*
X-20483807Y-2038790D01*
X-20430662Y-1993437D01*
X-20361431Y-1984013D01*
X-20298095Y-2013515D01*
X-20276196Y-2038787D01*
X-20185722Y-2177268D01*
X-20185718Y-2177272D01*
X-20185717Y-2177273D01*
X-20185716Y-2177276D01*
X-20066645Y-2306619D01*
X-20033240Y-2342906D01*
X-19855576Y-2481189D01*
X-19855575Y-2481189D01*
X-19855573Y-2481191D01*
X-19812392Y-2504559D01*
X-19657574Y-2588342D01*
X-19444635Y-2661444D01*
X-19222569Y-2698500D01*
X-18997431Y-2698500D01*
X-18775365Y-2661444D01*
X-18562426Y-2588342D01*
X-18364424Y-2481189D01*
X-18186760Y-2342906D01*
X-18065406Y-2211082D01*
X-18034285Y-2177276D01*
X-18034285Y-2177275D01*
X-18034278Y-2177268D01*
X-17943807Y-2038790D01*
X-17890662Y-1993437D01*
X-17821431Y-1984013D01*
X-17758095Y-2013515D01*
X-17736196Y-2038787D01*
X-17645722Y-2177268D01*
X-17645718Y-2177272D01*
X-17645717Y-2177273D01*
X-17645716Y-2177276D01*
X-17526645Y-2306619D01*
X-17493240Y-2342906D01*
X-17315576Y-2481189D01*
X-17315575Y-2481189D01*
X-17315573Y-2481191D01*
X-17272392Y-2504559D01*
X-17117574Y-2588342D01*
X-16904635Y-2661444D01*
X-16682569Y-2698500D01*
X-16457431Y-2698500D01*
X-16235365Y-2661444D01*
X-16022426Y-2588342D01*
X-15824424Y-2481189D01*
X-15646760Y-2342906D01*
X-15525406Y-2211082D01*
X-15494285Y-2177276D01*
X-15494285Y-2177275D01*
X-15494278Y-2177268D01*
X-15403807Y-2038790D01*
X-15350662Y-1993437D01*
X-15281431Y-1984013D01*
X-15218095Y-2013515D01*
X-15196196Y-2038787D01*
X-15105722Y-2177268D01*
X-15105718Y-2177272D01*
X-15105717Y-2177273D01*
X-15105716Y-2177276D01*
X-14986645Y-2306619D01*
X-14953240Y-2342906D01*
X-14775576Y-2481189D01*
X-14775575Y-2481189D01*
X-14775573Y-2481191D01*
X-14732392Y-2504559D01*
X-14577574Y-2588342D01*
X-14364635Y-2661444D01*
X-14142569Y-2698500D01*
X-13917431Y-2698500D01*
X-13695365Y-2661444D01*
X-13482426Y-2588342D01*
X-13284424Y-2481189D01*
X-13106760Y-2342906D01*
X-12985406Y-2211082D01*
X-12954285Y-2177276D01*
X-12954285Y-2177275D01*
X-12954278Y-2177268D01*
X-12863807Y-2038790D01*
X-12810662Y-1993437D01*
X-12741431Y-1984013D01*
X-12678095Y-2013515D01*
X-12656196Y-2038787D01*
X-12565722Y-2177268D01*
X-12565718Y-2177272D01*
X-12565717Y-2177273D01*
X-12565716Y-2177276D01*
X-12446645Y-2306619D01*
X-12413240Y-2342906D01*
X-12235576Y-2481189D01*
X-12235575Y-2481189D01*
X-12235573Y-2481191D01*
X-12192392Y-2504559D01*
X-12037574Y-2588342D01*
X-11824635Y-2661444D01*
X-11602569Y-2698500D01*
X-11377431Y-2698500D01*
X-11155365Y-2661444D01*
X-10942426Y-2588342D01*
X-10744424Y-2481189D01*
X-10566760Y-2342906D01*
X-10445406Y-2211082D01*
X-10414285Y-2177276D01*
X-10414285Y-2177275D01*
X-10414278Y-2177268D01*
X-10323807Y-2038790D01*
X-10270662Y-1993437D01*
X-10201431Y-1984013D01*
X-10138095Y-2013515D01*
X-10116196Y-2038787D01*
X-10025722Y-2177268D01*
X-10025718Y-2177272D01*
X-10025717Y-2177273D01*
X-10025716Y-2177276D01*
X-9906645Y-2306619D01*
X-9873240Y-2342906D01*
X-9695576Y-2481189D01*
X-9695575Y-2481189D01*
X-9695573Y-2481191D01*
X-9652392Y-2504559D01*
X-9497574Y-2588342D01*
X-9284635Y-2661444D01*
X-9062569Y-2698500D01*
X-8837431Y-2698500D01*
X-8615365Y-2661444D01*
X-8402426Y-2588342D01*
X-8204424Y-2481189D01*
X-8026760Y-2342906D01*
X-7905406Y-2211082D01*
X-7874285Y-2177276D01*
X-7874285Y-2177275D01*
X-7874278Y-2177268D01*
X-7788125Y-2045399D01*
X-7734980Y-2000046D01*
X-7665749Y-1990622D01*
X-7602413Y-2020124D01*
X-7573344Y-2057901D01*
X-7163139Y-2880779D01*
X-7157205Y-2892682D01*
X-7144913Y-2961462D01*
X-7171757Y-3025968D01*
X-7180499Y-3035684D01*
X-10138647Y-5993832D01*
X-10199970Y-6027317D01*
X-10269662Y-6022333D01*
X-10292301Y-6011144D01*
X-10385962Y-5952291D01*
X-10547298Y-5895837D01*
X-10547303Y-5895836D01*
X-10717143Y-5876701D01*
X-10717151Y-5876701D01*
X-10886992Y-5895836D01*
X-10886997Y-5895837D01*
X-11048331Y-5952291D01*
X-11193056Y-6043228D01*
X-11313919Y-6164091D01*
X-11404857Y-6308818D01*
X-11407875Y-6315086D01*
X-11408084Y-6314985D01*
X-11411327Y-6321982D01*
X-11411086Y-6322102D01*
X-11557722Y-6617976D01*
X-11581145Y-6650594D01*
X-12305730Y-7375181D01*
X-12367053Y-7408666D01*
X-12393411Y-7411500D01*
X-14101258Y-7411500D01*
X-14168297Y-7391815D01*
X-14214052Y-7339011D01*
X-14223462Y-7308530D01*
X-14223837Y-7306351D01*
X-14223837Y-7306350D01*
X-14223837Y-7306349D01*
X-14325466Y-6992600D01*
X-14331500Y-6954389D01*
X-14331500Y-5993951D01*
X-14330969Y-5985850D01*
X-14328360Y-5966038D01*
X-14326249Y-5950000D01*
X-14331052Y-5913521D01*
X-14347162Y-5791150D01*
X-14347164Y-5791145D01*
X-14358314Y-5764227D01*
X-14401080Y-5660980D01*
X-14408474Y-5643128D01*
X-14408477Y-5643123D01*
X-14482765Y-5546308D01*
X-14482785Y-5546284D01*
X-14491720Y-5534640D01*
X-14506013Y-5516013D01*
X-14506015Y-5516011D01*
X-14506016Y-5516010D01*
X-14522061Y-5503699D01*
X-14534707Y-5493995D01*
X-14540797Y-5488654D01*
X-14898646Y-5130804D01*
X-14903999Y-5124702D01*
X-14906784Y-5121073D01*
X-14926013Y-5096013D01*
X-14926015Y-5096011D01*
X-14926016Y-5096010D01*
X-14957925Y-5071526D01*
X-14957926Y-5071525D01*
X-14957928Y-5071523D01*
X-15006797Y-5034024D01*
X-15053123Y-4998476D01*
X-15053127Y-4998474D01*
X-15201149Y-4937161D01*
X-15218289Y-4934905D01*
X-15220544Y-4934608D01*
X-15220545Y-4934607D01*
X-15322296Y-4921212D01*
X-15322322Y-4921210D01*
X-15359999Y-4916250D01*
X-15360001Y-4916250D01*
X-15370473Y-4917628D01*
X-15395849Y-4920969D01*
X-15403946Y-4921500D01*
X-22004505Y-4921500D01*
X-22071544Y-4901815D01*
X-22117299Y-4849011D01*
X-22127826Y-4810462D01*
X-22132970Y-4761522D01*
X-22145635Y-4641025D01*
X-22201401Y-4469393D01*
X-22291633Y-4313107D01*
X-22338929Y-4260579D01*
X-22412382Y-4179000D01*
X-22412385Y-4178998D01*
X-22412386Y-4178997D01*
X-22412387Y-4178996D01*
X-22531543Y-4092424D01*
X-22558386Y-4072921D01*
X-22723243Y-3999521D01*
X-22723249Y-3999519D01*
X-22862250Y-3969974D01*
X-22899768Y-3962000D01*
X-23080232Y-3962000D01*
X-23117752Y-3969974D01*
X-23256751Y-3999519D01*
X-23256759Y-3999522D01*
X-23261446Y-4001609D01*
X-23280238Y-4007886D01*
X-23280215Y-4007959D01*
X-23283109Y-4008845D01*
X-23284093Y-4009174D01*
X-23284451Y-4009256D01*
X-23765447Y-4156564D01*
X-23801758Y-4162000D01*
X-24469948Y-4162000D01*
X-24502681Y-4157602D01*
X-24984908Y-4025626D01*
X-25002603Y-4019307D01*
X-25003246Y-4019020D01*
X-25003253Y-4019018D01*
X-25179768Y-3981500D01*
X-25360232Y-3981500D01*
X-25391175Y-3988076D01*
X-25536752Y-4019019D01*
X-25536758Y-4019021D01*
X-25701614Y-4092421D01*
X-25701619Y-4092424D01*
X-25847612Y-4198494D01*
X-25847619Y-4198500D01*
X-25968368Y-4332608D01*
X-26058600Y-4488894D01*
X-26114365Y-4660523D01*
X-26132178Y-4830000D01*
X-26133229Y-4840000D01*
X-26115038Y-5013073D01*
X-26114374Y-5019385D01*
X-26126943Y-5088115D01*
X-26174675Y-5139139D01*
X-26242415Y-5156257D01*
X-26303667Y-5137341D01*
X-26409145Y-5071065D01*
X-26409149Y-5071063D01*
X-26515000Y-5034024D01*
X-26515000Y-6370000D01*
X-25950000Y-6370000D01*
X-25950000Y-5764227D01*
X-25950001Y-5764225D01*
X-25962325Y-5654842D01*
X-25950271Y-5586020D01*
X-25902922Y-5534640D01*
X-25835312Y-5517016D01*
X-25768906Y-5538742D01*
X-25766236Y-5540628D01*
X-25756187Y-5547929D01*
X-25701615Y-5587578D01*
X-25536758Y-5660978D01*
X-25536752Y-5660980D01*
X-25360232Y-5698500D01*
X-25360231Y-5698500D01*
X-25179769Y-5698500D01*
X-25179768Y-5698500D01*
X-25011835Y-5662805D01*
X-24942170Y-5668121D01*
X-24886436Y-5710258D01*
X-24869014Y-5743140D01*
X-24827709Y-5861184D01*
X-24736772Y-6005908D01*
X-24736771Y-6005909D01*
X-24615909Y-6126771D01*
X-24471183Y-6217709D01*
X-24343178Y-6262500D01*
X-24309850Y-6274162D01*
X-24309845Y-6274163D01*
X-24140004Y-6293299D01*
X-24140000Y-6293299D01*
X-24139996Y-6293299D01*
X-23970157Y-6274163D01*
X-23970157Y-6274162D01*
X-23970150Y-6274162D01*
X-23913698Y-6254407D01*
X-23893791Y-6249250D01*
X-23875851Y-6246163D01*
X-23562102Y-6144534D01*
X-23523890Y-6138500D01*
X-15672500Y-6138500D01*
X-15605461Y-6158185D01*
X-15559706Y-6210989D01*
X-15548500Y-6262500D01*
X-15548500Y-6954387D01*
X-15554534Y-6992598D01*
X-15656156Y-7306324D01*
X-15656164Y-7306350D01*
X-15660622Y-7321827D01*
X-15698096Y-7380797D01*
X-15761502Y-7410146D01*
X-15779776Y-7411500D01*
X-15811081Y-7411500D01*
X-15819180Y-7410969D01*
X-15855026Y-7406250D01*
X-15855030Y-7406250D01*
X-15891719Y-7411080D01*
X-15891744Y-7411082D01*
X-16013876Y-7427162D01*
X-16013877Y-7427162D01*
X-16161905Y-7488477D01*
X-16205943Y-7510497D01*
X-16224965Y-7536863D01*
X-16225523Y-7537294D01*
X-16255126Y-7560009D01*
X-16255141Y-7560021D01*
X-16257098Y-7561523D01*
X-16257101Y-7561525D01*
X-16276120Y-7576119D01*
X-16289016Y-7586015D01*
X-16311030Y-7614703D01*
X-16316381Y-7620805D01*
X-18734835Y-10039258D01*
X-18740938Y-10044610D01*
X-18801533Y-10091107D01*
X-18801532Y-10091108D01*
X-18833989Y-10116014D01*
X-18856004Y-10144703D01*
X-18861355Y-10150805D01*
X-20819778Y-12109227D01*
X-20881101Y-12142712D01*
X-20950793Y-12137728D01*
X-21006726Y-12095856D01*
X-21018096Y-12074527D01*
X-21019268Y-12075092D01*
X-21022288Y-12068822D01*
X-21032014Y-12053344D01*
X-21113229Y-11924091D01*
X-21234091Y-11803229D01*
X-21234091Y-11803228D01*
X-21234092Y-11803228D01*
X-21378817Y-11712291D01*
X-21540151Y-11655837D01*
X-21540156Y-11655836D01*
X-21709996Y-11636701D01*
X-21710004Y-11636701D01*
X-21879849Y-11655837D01*
X-21879850Y-11655837D01*
X-21936291Y-11675586D01*
X-21956200Y-11680745D01*
X-21974143Y-11683834D01*
X-21974150Y-11683836D01*
X-22287902Y-11785466D01*
X-22326113Y-11791500D01*
X-25656589Y-11791500D01*
X-25723628Y-11771815D01*
X-25744270Y-11755181D01*
X-28025181Y-9474269D01*
X-28058666Y-9412946D01*
X-28061500Y-9386588D01*
X-28061500Y-8363956D01*
X-28041815Y-8296917D01*
X-27989011Y-8251162D01*
X-27951383Y-8240736D01*
X-27852504Y-8229595D01*
X-27852491Y-8229592D01*
X-27679151Y-8168937D01*
X-27523640Y-8071224D01*
X-27487681Y-8035266D01*
X-27426358Y-8001781D01*
X-27356666Y-8006765D01*
X-27312319Y-8035266D01*
X-27276361Y-8071224D01*
X-27120853Y-8168936D01*
X-27015000Y-8205974D01*
X-27015000Y-6870000D01*
X-26515000Y-6870000D01*
X-26515000Y-8205973D01*
X-26409148Y-8168936D01*
X-26253640Y-8071224D01*
X-26123776Y-7941360D01*
X-26026063Y-7785849D01*
X-25965408Y-7612509D01*
X-25965405Y-7612496D01*
X-25950001Y-7475776D01*
X-25950000Y-7475772D01*
X-25950000Y-6870000D01*
X-26515000Y-6870000D01*
X-27015000Y-6870000D01*
X-27937500Y-6870000D01*
X-28004539Y-6850315D01*
X-28050294Y-6797511D01*
X-28061500Y-6746000D01*
X-28061500Y-6370000D01*
X-27785000Y-6370000D01*
X-27015000Y-6370000D01*
X-27015000Y-5034024D01*
X-27015001Y-5034024D01*
X-27120852Y-5071063D01*
X-27120856Y-5071065D01*
X-27276364Y-5168777D01*
X-27276365Y-5168777D01*
X-27312321Y-5204734D01*
X-27373644Y-5238219D01*
X-27443336Y-5233233D01*
X-27487682Y-5204733D01*
X-27523640Y-5168775D01*
X-27679145Y-5071065D01*
X-27679149Y-5071063D01*
X-27785000Y-5034024D01*
X-27785000Y-6370000D01*
X-28061500Y-6370000D01*
X-28061500Y-5393945D01*
X-28060969Y-5385843D01*
X-28056250Y-5349999D01*
X-28060733Y-5315949D01*
X-28061500Y-5310120D01*
X-28061500Y-5310115D01*
X-28077162Y-5191150D01*
X-28077179Y-5191107D01*
X-28091614Y-5156257D01*
X-28138475Y-5043126D01*
X-28138477Y-5043123D01*
X-28212765Y-4946308D01*
X-28212785Y-4946284D01*
X-28232024Y-4921212D01*
X-28236013Y-4916013D01*
X-28236015Y-4916011D01*
X-28236016Y-4916010D01*
X-28254516Y-4901815D01*
X-28264707Y-4893995D01*
X-28270797Y-4888654D01*
X-28338646Y-4820805D01*
X-28343999Y-4814702D01*
X-28347253Y-4810462D01*
X-28366013Y-4786013D01*
X-28366015Y-4786011D01*
X-28366016Y-4786010D01*
X-28397925Y-4761526D01*
X-28397926Y-4761525D01*
X-28397928Y-4761523D01*
X-28443272Y-4726729D01*
X-28493123Y-4688476D01*
X-28493127Y-4688474D01*
X-28641149Y-4627161D01*
X-28658289Y-4624905D01*
X-28660544Y-4624608D01*
X-28660545Y-4624607D01*
X-28762296Y-4611212D01*
X-28762322Y-4611210D01*
X-28799999Y-4606250D01*
X-28800001Y-4606250D01*
X-28810473Y-4607628D01*
X-28835849Y-4610969D01*
X-28843946Y-4611500D01*
X-30436054Y-4611500D01*
X-30444152Y-4610969D01*
X-30469528Y-4607628D01*
X-30479999Y-4606250D01*
X-30480001Y-4606250D01*
X-30517511Y-4611188D01*
X-30517540Y-4611191D01*
X-30619456Y-4624607D01*
X-30619457Y-4624608D01*
X-30632387Y-4626310D01*
X-30638852Y-4627162D01*
X-30786874Y-4688474D01*
X-30786877Y-4688476D01*
X-30881533Y-4761107D01*
X-30881532Y-4761108D01*
X-30913989Y-4786014D01*
X-30936004Y-4814703D01*
X-30941355Y-4820805D01*
X-31014199Y-4893649D01*
X-31020302Y-4899000D01*
X-31048987Y-4921012D01*
X-31073480Y-4952931D01*
X-31146524Y-5048123D01*
X-31146525Y-5048125D01*
X-31163089Y-5088115D01*
X-31205749Y-5191107D01*
X-31207838Y-5196150D01*
X-31215349Y-5253196D01*
X-31230142Y-5297676D01*
X-31266718Y-5362876D01*
X-31268294Y-5365528D01*
X-31321643Y-5450436D01*
X-31382935Y-5625596D01*
X-31398500Y-5763747D01*
X-31398500Y-7476252D01*
X-31382935Y-7614403D01*
X-31342902Y-7728809D01*
X-31321643Y-7789564D01*
X-31222912Y-7946693D01*
X-31091693Y-8077912D01*
X-30934564Y-8176643D01*
X-30807201Y-8221209D01*
X-30759404Y-8237934D01*
X-30575003Y-8258711D01*
X-30575000Y-8258711D01*
X-30574997Y-8258711D01*
X-30390597Y-8237934D01*
X-30386267Y-8236419D01*
X-30215436Y-8176643D01*
X-30143473Y-8131425D01*
X-30076236Y-8112425D01*
X-30009400Y-8132793D01*
X-29964186Y-8186060D01*
X-29953500Y-8236419D01*
X-29953500Y-9861054D01*
X-29954031Y-9869156D01*
X-29958750Y-9904998D01*
X-29954030Y-9940860D01*
X-29941161Y-10038609D01*
X-29937839Y-10063848D01*
X-29937837Y-10063854D01*
X-29876527Y-10211871D01*
X-29876527Y-10211872D01*
X-29876525Y-10211875D01*
X-29876524Y-10211876D01*
X-29832840Y-10268806D01*
X-29803475Y-10307074D01*
X-29803474Y-10307075D01*
X-29778988Y-10338986D01*
X-29750302Y-10360998D01*
X-29744206Y-10366343D01*
X-29537826Y-10572723D01*
X-29354819Y-10755730D01*
X-29321334Y-10817053D01*
X-29318500Y-10843411D01*
X-29318500Y-11940550D01*
X-29338185Y-12007589D01*
X-29390989Y-12053344D01*
X-29428616Y-12063770D01*
X-29487502Y-12070405D01*
X-29487505Y-12070405D01*
X-29660852Y-12131062D01*
X-29726529Y-12172330D01*
X-29793766Y-12191330D01*
X-29860601Y-12170962D01*
X-29905814Y-12117694D01*
X-29916500Y-12067336D01*
X-29916500Y-11251387D01*
X-29914718Y-11235249D01*
X-29914946Y-11235228D01*
X-29914212Y-11227465D01*
X-29916469Y-11155624D01*
X-29916500Y-11153677D01*
X-29916500Y-11123574D01*
X-29916500Y-11123568D01*
X-29917434Y-11116175D01*
X-29917893Y-11110347D01*
X-29919438Y-11061169D01*
X-29925464Y-11040428D01*
X-29929410Y-11021377D01*
X-29932118Y-10999936D01*
X-29950237Y-10954172D01*
X-29952124Y-10948665D01*
X-29965855Y-10901400D01*
X-29976852Y-10882807D01*
X-29985409Y-10865340D01*
X-29993365Y-10845244D01*
X-30022295Y-10805425D01*
X-30025505Y-10800539D01*
X-30048765Y-10761209D01*
X-30050548Y-10758193D01*
X-30050550Y-10758191D01*
X-30050553Y-10758187D01*
X-30065822Y-10742918D01*
X-30078459Y-10728122D01*
X-30091156Y-10710646D01*
X-30091159Y-10710644D01*
X-30091159Y-10710643D01*
X-30104759Y-10699392D01*
X-30129084Y-10679267D01*
X-30133405Y-10675335D01*
X-30583283Y-10225457D01*
X-30593436Y-10212785D01*
X-30593612Y-10212931D01*
X-30598585Y-10206919D01*
X-30650985Y-10157712D01*
X-30652353Y-10156387D01*
X-30673667Y-10135073D01*
X-30679562Y-10130500D01*
X-30683998Y-10126711D01*
X-30719867Y-10093028D01*
X-30719869Y-10093026D01*
X-30738800Y-10082619D01*
X-30755052Y-10071944D01*
X-30772132Y-10058696D01*
X-30772136Y-10058694D01*
X-30817298Y-10039150D01*
X-30822545Y-10036580D01*
X-30865663Y-10012875D01*
X-30865662Y-10012875D01*
X-30886589Y-10007502D01*
X-30904994Y-10001201D01*
X-30924826Y-9992619D01*
X-30973431Y-9984921D01*
X-30979154Y-9983736D01*
X-31034206Y-9969601D01*
X-31094244Y-9933864D01*
X-31102531Y-9923948D01*
X-31105495Y-9920000D01*
X-31361570Y-9920000D01*
X-31399971Y-9913904D01*
X-31519879Y-9874850D01*
X-31569105Y-9864179D01*
X-31573267Y-9863125D01*
X-31637740Y-9844395D01*
X-31637752Y-9844393D01*
X-31674511Y-9841500D01*
X-31674516Y-9841500D01*
X-32145484Y-9841500D01*
X-32145490Y-9841500D01*
X-32182253Y-9844393D01*
X-32182259Y-9844394D01*
X-32339593Y-9890104D01*
X-32339598Y-9890106D01*
X-32360946Y-9902732D01*
X-32424067Y-9920000D01*
X-32714504Y-9920000D01*
X-32672032Y-10066195D01*
X-32672032Y-10066196D01*
X-32664737Y-10078530D01*
X-32647554Y-10146254D01*
X-32664736Y-10204771D01*
X-32679894Y-10230401D01*
X-32679895Y-10230404D01*
X-32718422Y-10363015D01*
X-32731337Y-10392497D01*
X-32887336Y-10650950D01*
X-32905816Y-10674554D01*
X-33486578Y-11255316D01*
X-33500749Y-11267497D01*
X-34076811Y-11691545D01*
X-34091859Y-11701037D01*
X-34107088Y-11709178D01*
X-34107091Y-11709180D01*
X-34160904Y-11753342D01*
X-34163480Y-11755345D01*
X-34191300Y-11775823D01*
X-34206133Y-11787611D01*
X-34214666Y-11794920D01*
X-34224503Y-11805034D01*
X-34229615Y-11809732D01*
X-34253042Y-11828959D01*
X-34372820Y-11974907D01*
X-34372824Y-11974914D01*
X-34461823Y-12141421D01*
X-34516632Y-12322098D01*
X-34535138Y-12509999D01*
X-34516632Y-12697901D01*
X-34461823Y-12878578D01*
X-34372824Y-13045085D01*
X-34372820Y-13045092D01*
X-34253042Y-13191041D01*
X-34107093Y-13310819D01*
X-34107086Y-13310823D01*
X-33945312Y-13397292D01*
X-33940577Y-13399823D01*
X-33759899Y-13454632D01*
X-33572000Y-13473138D01*
X-33384101Y-13454632D01*
X-33203423Y-13399823D01*
X-33036909Y-13310820D01*
X-32890959Y-13191041D01*
X-32771180Y-13045091D01*
X-32682177Y-12878577D01*
X-32656929Y-12795342D01*
X-32655411Y-12790943D01*
X-32655351Y-12790786D01*
X-32652793Y-12784185D01*
X-32650883Y-12775901D01*
X-32649814Y-12771888D01*
X-32627368Y-12697899D01*
X-32623646Y-12660089D01*
X-32622358Y-12652239D01*
X-32618255Y-12634452D01*
X-32510831Y-12168750D01*
X-32477687Y-12108945D01*
X-32287186Y-11918444D01*
X-32225865Y-11884961D01*
X-32156173Y-11889945D01*
X-32100240Y-11931817D01*
X-32076287Y-11992243D01*
X-32064163Y-12099847D01*
X-32064163Y-12099849D01*
X-32064162Y-12099850D01*
X-32052180Y-12134095D01*
X-32044414Y-12156288D01*
X-32039254Y-12176203D01*
X-32036165Y-12194147D01*
X-32036165Y-12194149D01*
X-31934534Y-12507900D01*
X-31928500Y-12546111D01*
X-31928500Y-14053887D01*
X-31934534Y-14092098D01*
X-32036156Y-14405824D01*
X-32036164Y-14405850D01*
X-32045482Y-14438194D01*
X-32046523Y-14443534D01*
X-32046910Y-14443458D01*
X-32051537Y-14464066D01*
X-32064162Y-14500149D01*
X-32064164Y-14500156D01*
X-32083299Y-14669996D01*
X-32083299Y-14670003D01*
X-32064164Y-14839844D01*
X-32064163Y-14839849D01*
X-32007709Y-15001183D01*
X-31923055Y-15135909D01*
X-31916771Y-15145909D01*
X-31795909Y-15266771D01*
X-31651183Y-15357709D01*
X-31518428Y-15404162D01*
X-31489850Y-15414162D01*
X-31489845Y-15414163D01*
X-31320004Y-15433299D01*
X-31320000Y-15433299D01*
X-31319996Y-15433299D01*
X-31150156Y-15414163D01*
X-31150154Y-15414162D01*
X-31150150Y-15414162D01*
X-31150147Y-15414160D01*
X-31150143Y-15414160D01*
X-31065127Y-15384411D01*
X-30988817Y-15357709D01*
X-30896218Y-15299523D01*
X-30828981Y-15280523D01*
X-30789290Y-15287476D01*
X-30759403Y-15297934D01*
X-30575003Y-15318711D01*
X-30575000Y-15318711D01*
X-30574997Y-15318711D01*
X-30390597Y-15297934D01*
X-30390594Y-15297933D01*
X-30215436Y-15236643D01*
X-30058307Y-15137912D01*
X-30021672Y-15101276D01*
X-29960348Y-15067791D01*
X-29890656Y-15072775D01*
X-29846309Y-15101276D01*
X-29816361Y-15131224D01*
X-29660854Y-15228935D01*
X-29487502Y-15289593D01*
X-29428619Y-15296227D01*
X-29364205Y-15323293D01*
X-29324648Y-15380887D01*
X-29318500Y-15419448D01*
X-29318500Y-16236054D01*
X-29319031Y-16244151D01*
X-29322372Y-16269527D01*
X-29323750Y-16279999D01*
X-29323750Y-16280001D01*
X-29318790Y-16317678D01*
X-29318788Y-16317699D01*
X-29310419Y-16381267D01*
X-29302838Y-16438850D01*
X-29302837Y-16438854D01*
X-29241527Y-16586871D01*
X-29241527Y-16586872D01*
X-29241525Y-16586875D01*
X-29241524Y-16586876D01*
X-29168477Y-16682072D01*
X-29168475Y-16682074D01*
X-29143987Y-16713987D01*
X-29127989Y-16726263D01*
X-29115302Y-16735998D01*
X-29109206Y-16741343D01*
X-28456601Y-17393947D01*
X-27851355Y-17999193D01*
X-27846000Y-18005299D01*
X-27836308Y-18017930D01*
X-27811117Y-18083100D01*
X-27825157Y-18151545D01*
X-27830878Y-18161234D01*
X-27896192Y-18261205D01*
X-27949338Y-18306562D01*
X-28018570Y-18315986D01*
X-28081906Y-18286484D01*
X-28103809Y-18261206D01*
X-28194278Y-18122732D01*
X-28194283Y-18122727D01*
X-28194285Y-18122723D01*
X-28346757Y-17957097D01*
X-28346762Y-17957092D01*
X-28484475Y-17849905D01*
X-28524424Y-17818811D01*
X-28524425Y-17818810D01*
X-28524428Y-17818808D01*
X-28722420Y-17711661D01*
X-28722423Y-17711659D01*
X-28722426Y-17711658D01*
X-28722429Y-17711657D01*
X-28722431Y-17711656D01*
X-28935363Y-17638556D01*
X-29157431Y-17601500D01*
X-29382569Y-17601500D01*
X-29604638Y-17638556D01*
X-29817570Y-17711656D01*
X-29817581Y-17711661D01*
X-30015573Y-17818808D01*
X-30015578Y-17818812D01*
X-30193239Y-17957092D01*
X-30193244Y-17957097D01*
X-30345716Y-18122723D01*
X-30345724Y-18122734D01*
X-30436192Y-18261206D01*
X-30489338Y-18306562D01*
X-30558569Y-18315986D01*
X-30621905Y-18286484D01*
X-30643808Y-18261206D01*
X-30734277Y-18122734D01*
X-30734285Y-18122723D01*
X-30886757Y-17957097D01*
X-30886762Y-17957092D01*
X-31024475Y-17849905D01*
X-31064424Y-17818811D01*
X-31064425Y-17818810D01*
X-31064428Y-17818808D01*
X-31262420Y-17711661D01*
X-31262423Y-17711659D01*
X-31262426Y-17711658D01*
X-31262429Y-17711657D01*
X-31262431Y-17711656D01*
X-31475363Y-17638556D01*
X-31697431Y-17601500D01*
X-31922569Y-17601500D01*
X-32144638Y-17638556D01*
X-32357570Y-17711656D01*
X-32357581Y-17711661D01*
X-32555573Y-17818808D01*
X-32555578Y-17818812D01*
X-32733239Y-17957092D01*
X-32796452Y-18025760D01*
X-32856339Y-18061750D01*
X-32926177Y-18059649D01*
X-32983793Y-18020124D01*
X-33003862Y-17985110D01*
X-33049111Y-17863796D01*
X-33082786Y-17818812D01*
X-33136739Y-17746739D01*
X-33253796Y-17659111D01*
X-33253797Y-17659110D01*
X-33390797Y-17608011D01*
X-33451346Y-17601500D01*
X-33451362Y-17601500D01*
X-35248638Y-17601500D01*
X-35248655Y-17601500D01*
X-35309203Y-17608011D01*
X-35309205Y-17608011D01*
X-35446205Y-17659111D01*
X-35563261Y-17746739D01*
X-35650889Y-17863795D01*
X-35701989Y-18000795D01*
X-35701989Y-18000797D01*
X-35708500Y-18061345D01*
X-35708500Y-19858651D01*
X-35702468Y-19914743D01*
X-35714872Y-19983503D01*
X-35762482Y-20034641D01*
X-35825757Y-20052000D01*
X-42323258Y-20052000D01*
X-42326735Y-20051902D01*
X-42629368Y-20034907D01*
X-42636282Y-20034128D01*
X-42933384Y-19983647D01*
X-42940168Y-19982099D01*
X-43229757Y-19898670D01*
X-43236324Y-19896372D01*
X-43475577Y-19797271D01*
X-43514747Y-19781046D01*
X-43521012Y-19778029D01*
X-43784772Y-19632253D01*
X-43790664Y-19628551D01*
X-44036442Y-19454162D01*
X-44041883Y-19449824D01*
X-44266592Y-19249011D01*
X-44271512Y-19244091D01*
X-44472325Y-19019382D01*
X-44476663Y-19013941D01*
X-44651052Y-18768163D01*
X-44654754Y-18762271D01*
X-44748055Y-18593457D01*
X-44800534Y-18498502D01*
X-44803544Y-18492254D01*
X-44918874Y-18213820D01*
X-44921171Y-18207256D01*
X-44986641Y-17980003D01*
X-44533249Y-17980003D01*
X-44526193Y-18056158D01*
X-44525999Y-18058927D01*
X-44522209Y-18138470D01*
X-44522208Y-18138475D01*
X-44518445Y-18153986D01*
X-44515479Y-18171774D01*
X-44514294Y-18184559D01*
X-44492459Y-18261305D01*
X-44491848Y-18263621D01*
X-44472299Y-18344201D01*
X-44472298Y-18344206D01*
X-44467109Y-18355568D01*
X-44460641Y-18373134D01*
X-44458078Y-18382141D01*
X-44458072Y-18382158D01*
X-44421060Y-18456487D01*
X-44420162Y-18458367D01*
X-44384359Y-18536765D01*
X-44384353Y-18536776D01*
X-44379121Y-18544123D01*
X-44369132Y-18560771D01*
X-44366503Y-18566050D01*
X-44324582Y-18621562D01*
X-44314488Y-18634929D01*
X-44313474Y-18636310D01*
X-44261559Y-18709215D01*
X-44261557Y-18709217D01*
X-44261556Y-18709218D01*
X-44261555Y-18709219D01*
X-44257541Y-18713047D01*
X-44244163Y-18728057D01*
X-44242708Y-18729983D01*
X-44242705Y-18729987D01*
X-44242702Y-18729989D01*
X-44242701Y-18729991D01*
X-44176464Y-18790374D01*
X-44175470Y-18791301D01*
X-44137079Y-18827906D01*
X-44108346Y-18855303D01*
X-44106602Y-18856424D01*
X-44095481Y-18864970D01*
X-44095456Y-18864938D01*
X-44090881Y-18868393D01*
X-44011429Y-18917588D01*
X-43930253Y-18969757D01*
X-43925000Y-18972465D01*
X-43925034Y-18972529D01*
X-43921512Y-18974308D01*
X-43921350Y-18973984D01*
X-43916227Y-18976534D01*
X-43916218Y-18976540D01*
X-43826218Y-19011405D01*
X-43733721Y-19048436D01*
X-43733483Y-19048482D01*
X-43728248Y-19049729D01*
X-43724663Y-19050748D01*
X-43724655Y-19050751D01*
X-43626771Y-19069048D01*
X-43525849Y-19088500D01*
X-43525844Y-19088500D01*
X-43317284Y-19088500D01*
X-43317282Y-19088500D01*
X-43267868Y-19079262D01*
X-43262425Y-19078494D01*
X-43209261Y-19073419D01*
X-43164332Y-19060225D01*
X-43158280Y-19058776D01*
X-43115345Y-19050751D01*
X-43065440Y-19031417D01*
X-43060513Y-19029743D01*
X-43016383Y-19016785D01*
X-43006138Y-19013777D01*
X-43001556Y-19011415D01*
X-42967458Y-18993835D01*
X-42961450Y-18991131D01*
X-42923782Y-18976540D01*
X-42875474Y-18946627D01*
X-42871252Y-18944236D01*
X-42817974Y-18916771D01*
X-42786344Y-18891896D01*
X-42780664Y-18887923D01*
X-42749118Y-18868392D01*
X-42704690Y-18827889D01*
X-42701279Y-18825000D01*
X-42651568Y-18785908D01*
X-42627373Y-18757984D01*
X-42622292Y-18752774D01*
X-42597299Y-18729991D01*
X-42559107Y-18679414D01*
X-42556486Y-18676177D01*
X-42547285Y-18665559D01*
X-42512935Y-18625918D01*
X-42496103Y-18596761D01*
X-42491889Y-18590403D01*
X-42473497Y-18566050D01*
X-42443779Y-18506366D01*
X-42441978Y-18503014D01*
X-42435759Y-18492242D01*
X-42407087Y-18442582D01*
X-42397154Y-18413881D01*
X-42394075Y-18406547D01*
X-42381926Y-18382152D01*
X-42362776Y-18314842D01*
X-42361752Y-18311593D01*
X-42337847Y-18242527D01*
X-42333994Y-18215722D01*
X-42332262Y-18207597D01*
X-42325706Y-18184559D01*
X-42318949Y-18111636D01*
X-42318584Y-18108550D01*
X-42314326Y-18078937D01*
X-42307719Y-18032984D01*
X-42308851Y-18009236D01*
X-42308658Y-18000564D01*
X-42306751Y-17980000D01*
X-42313809Y-17903839D01*
X-42314004Y-17901067D01*
X-42316441Y-17849905D01*
X-42317792Y-17821526D01*
X-42321559Y-17806002D01*
X-42324522Y-17788229D01*
X-42325706Y-17775441D01*
X-42347551Y-17698666D01*
X-42348157Y-17696364D01*
X-42351477Y-17682678D01*
X-42367702Y-17615796D01*
X-42372893Y-17604430D01*
X-42379364Y-17586853D01*
X-42381924Y-17577856D01*
X-42381926Y-17577848D01*
X-42418957Y-17503482D01*
X-42419851Y-17501607D01*
X-42455645Y-17423227D01*
X-42460879Y-17415877D01*
X-42470871Y-17399224D01*
X-42473497Y-17393950D01*
X-42491885Y-17369601D01*
X-42525513Y-17325070D01*
X-42526540Y-17323670D01*
X-42557227Y-17280576D01*
X-42578441Y-17250785D01*
X-42578446Y-17250780D01*
X-42582454Y-17246958D01*
X-42595847Y-17231931D01*
X-42597292Y-17230018D01*
X-42597296Y-17230013D01*
X-42597299Y-17230009D01*
X-42663582Y-17169585D01*
X-42664532Y-17168698D01*
X-42731657Y-17104694D01*
X-42733399Y-17103575D01*
X-42744520Y-17095029D01*
X-42744544Y-17095062D01*
X-42749123Y-17091604D01*
X-42828558Y-17042420D01*
X-42909742Y-16990246D01*
X-42915001Y-16987535D01*
X-42914968Y-16987470D01*
X-42918488Y-16985692D01*
X-42918649Y-16986016D01*
X-42923778Y-16983462D01*
X-42923782Y-16983460D01*
X-43013768Y-16948600D01*
X-43106278Y-16911564D01*
X-43106286Y-16911562D01*
X-43106530Y-16911515D01*
X-43111743Y-16910273D01*
X-43115342Y-16909249D01*
X-43213323Y-16890933D01*
X-43314150Y-16871500D01*
X-43314151Y-16871500D01*
X-43317282Y-16871500D01*
X-43522718Y-16871500D01*
X-43522724Y-16871500D01*
X-43572115Y-16880732D01*
X-43577614Y-16881507D01*
X-43630735Y-16886580D01*
X-43630739Y-16886580D01*
X-43630739Y-16886581D01*
X-43645561Y-16890933D01*
X-43675652Y-16899768D01*
X-43681729Y-16901224D01*
X-43724649Y-16909247D01*
X-43724662Y-16909250D01*
X-43774562Y-16928582D01*
X-43779491Y-16930257D01*
X-43833860Y-16946222D01*
X-43872541Y-16966162D01*
X-43878555Y-16968868D01*
X-43916219Y-16983460D01*
X-43916220Y-16983460D01*
X-43964526Y-17013370D01*
X-43968755Y-17015764D01*
X-44022023Y-17043226D01*
X-44053646Y-17068094D01*
X-44059335Y-17072073D01*
X-44090884Y-17091609D01*
X-44135292Y-17132091D01*
X-44138734Y-17135006D01*
X-44188435Y-17174093D01*
X-44212623Y-17202006D01*
X-44217710Y-17207224D01*
X-44242699Y-17230006D01*
X-44280889Y-17280576D01*
X-44283509Y-17283813D01*
X-44327064Y-17334079D01*
X-44343896Y-17363233D01*
X-44348116Y-17369601D01*
X-44366504Y-17393951D01*
X-44366509Y-17393960D01*
X-44396219Y-17453622D01*
X-44398024Y-17456985D01*
X-44432912Y-17517415D01*
X-44442842Y-17546103D01*
X-44445933Y-17553463D01*
X-44458072Y-17577842D01*
X-44458077Y-17577856D01*
X-44477218Y-17645128D01*
X-44478261Y-17648437D01*
X-44502154Y-17717475D01*
X-44506006Y-17744258D01*
X-44507742Y-17752404D01*
X-44514294Y-17775437D01*
X-44521051Y-17848351D01*
X-44521418Y-17851453D01*
X-44532281Y-17927010D01*
X-44532281Y-17927015D01*
X-44531151Y-17950769D01*
X-44531345Y-17959445D01*
X-44533249Y-17980003D01*
X-44986641Y-17980003D01*
X-45004600Y-17917667D01*
X-45006148Y-17910883D01*
X-45021792Y-17818811D01*
X-45056631Y-17613769D01*
X-45057407Y-17606876D01*
X-45068133Y-17415877D01*
X-45074402Y-17304235D01*
X-45074500Y-17300758D01*
X-45074500Y-2999240D01*
X-45074402Y-2995763D01*
X-45065204Y-2831962D01*
X-45057407Y-2693121D01*
X-45056631Y-2686232D01*
X-45006148Y-2389115D01*
X-45004600Y-2382332D01*
X-44993242Y-2342907D01*
X-44921170Y-2092737D01*
X-44918877Y-2086185D01*
X-44803541Y-1807738D01*
X-44800538Y-1801503D01*
X-44654752Y-1537723D01*
X-44651056Y-1531842D01*
X-44490594Y-1305692D01*
X-44476663Y-1286058D01*
X-44472331Y-1280624D01*
X-44271510Y-1055905D01*
X-44266592Y-1050988D01*
X-44041876Y-850169D01*
X-44036442Y-845837D01*
X-43938612Y-776423D01*
X-43790658Y-671444D01*
X-43784777Y-667748D01*
X-43520997Y-521962D01*
X-43514762Y-518959D01*
X-43236315Y-403623D01*
X-43229763Y-401330D01*
X-42940164Y-317899D01*
X-42933384Y-316352D01*
X-42911343Y-312607D01*
X-42636268Y-265869D01*
X-42629379Y-265093D01*
X-42508634Y-258312D01*
X-42440597Y-274207D01*
X-42391953Y-324362D01*
X-42378148Y-392854D01*
X-42394294Y-444115D01*
X-42408599Y-468893D01*
X-42464365Y-640523D01*
X-42467615Y-671448D01*
X-42483229Y-820000D01*
X-42464365Y-999475D01*
X-42440321Y-1073478D01*
X-42438206Y-1079985D01*
X-42433614Y-1099227D01*
X-42431245Y-1114445D01*
X-42299163Y-1545728D01*
X-42298353Y-1615593D01*
X-42335444Y-1674805D01*
X-42398659Y-1704564D01*
X-42467928Y-1695423D01*
X-42516681Y-1656765D01*
X-42519438Y-1653115D01*
X-42525544Y-1645030D01*
X-42526540Y-1643670D01*
X-42578442Y-1570784D01*
X-42578446Y-1570780D01*
X-42582454Y-1566958D01*
X-42595847Y-1551931D01*
X-42597292Y-1550018D01*
X-42597296Y-1550013D01*
X-42597299Y-1550009D01*
X-42663582Y-1489585D01*
X-42664532Y-1488698D01*
X-42731657Y-1424694D01*
X-42733399Y-1423575D01*
X-42744520Y-1415029D01*
X-42744544Y-1415062D01*
X-42749123Y-1411604D01*
X-42828558Y-1362420D01*
X-42909742Y-1310246D01*
X-42915001Y-1307535D01*
X-42914968Y-1307470D01*
X-42918488Y-1305692D01*
X-42918649Y-1306016D01*
X-42923778Y-1303462D01*
X-42923782Y-1303460D01*
X-43013768Y-1268600D01*
X-43106278Y-1231564D01*
X-43106286Y-1231562D01*
X-43106530Y-1231515D01*
X-43111743Y-1230273D01*
X-43115342Y-1229249D01*
X-43213323Y-1210933D01*
X-43314150Y-1191500D01*
X-43314151Y-1191500D01*
X-43317282Y-1191500D01*
X-43522718Y-1191500D01*
X-43522724Y-1191500D01*
X-43572115Y-1200732D01*
X-43577614Y-1201507D01*
X-43630735Y-1206580D01*
X-43630739Y-1206580D01*
X-43630739Y-1206581D01*
X-43645561Y-1210933D01*
X-43675652Y-1219768D01*
X-43681729Y-1221224D01*
X-43724649Y-1229247D01*
X-43724662Y-1229250D01*
X-43774562Y-1248582D01*
X-43779491Y-1250257D01*
X-43833860Y-1266222D01*
X-43872541Y-1286162D01*
X-43878555Y-1288868D01*
X-43916219Y-1303460D01*
X-43916220Y-1303460D01*
X-43964526Y-1333370D01*
X-43968755Y-1335764D01*
X-44022023Y-1363226D01*
X-44053646Y-1388094D01*
X-44059335Y-1392073D01*
X-44090884Y-1411609D01*
X-44135292Y-1452091D01*
X-44138734Y-1455006D01*
X-44188435Y-1494093D01*
X-44212623Y-1522006D01*
X-44217710Y-1527224D01*
X-44242699Y-1550006D01*
X-44280889Y-1600576D01*
X-44283509Y-1603813D01*
X-44327064Y-1654079D01*
X-44343896Y-1683233D01*
X-44348116Y-1689601D01*
X-44366504Y-1713951D01*
X-44366509Y-1713960D01*
X-44396219Y-1773622D01*
X-44398024Y-1776985D01*
X-44432912Y-1837415D01*
X-44442842Y-1866103D01*
X-44445933Y-1873463D01*
X-44458072Y-1897842D01*
X-44458077Y-1897856D01*
X-44477218Y-1965128D01*
X-44478261Y-1968437D01*
X-44502154Y-2037475D01*
X-44506006Y-2064258D01*
X-44507742Y-2072404D01*
X-44514294Y-2095437D01*
X-44521051Y-2168351D01*
X-44521418Y-2171453D01*
X-44532281Y-2247010D01*
X-44532281Y-2247015D01*
X-44531151Y-2270769D01*
X-44531345Y-2279445D01*
X-44533249Y-2300003D01*
X-44526193Y-2376158D01*
X-44525999Y-2378927D01*
X-44522209Y-2458470D01*
X-44522208Y-2458475D01*
X-44518445Y-2473986D01*
X-44515479Y-2491774D01*
X-44514294Y-2504559D01*
X-44492459Y-2581305D01*
X-44491848Y-2583621D01*
X-44472299Y-2664201D01*
X-44472298Y-2664206D01*
X-44467109Y-2675568D01*
X-44460641Y-2693134D01*
X-44458078Y-2702141D01*
X-44458072Y-2702158D01*
X-44421060Y-2776487D01*
X-44420162Y-2778367D01*
X-44384359Y-2856765D01*
X-44384353Y-2856776D01*
X-44379121Y-2864123D01*
X-44369132Y-2880771D01*
X-44366503Y-2886050D01*
X-44325278Y-2940641D01*
X-44314488Y-2954929D01*
X-44313474Y-2956310D01*
X-44261559Y-3029215D01*
X-44261557Y-3029217D01*
X-44261556Y-3029218D01*
X-44261555Y-3029219D01*
X-44257541Y-3033047D01*
X-44244163Y-3048057D01*
X-44242708Y-3049983D01*
X-44242705Y-3049987D01*
X-44242702Y-3049989D01*
X-44242701Y-3049991D01*
X-44176464Y-3110374D01*
X-44175470Y-3111301D01*
X-44137079Y-3147906D01*
X-44108346Y-3175303D01*
X-44106602Y-3176424D01*
X-44095481Y-3184970D01*
X-44095456Y-3184938D01*
X-44090881Y-3188393D01*
X-44011429Y-3237588D01*
X-43930253Y-3289757D01*
X-43925000Y-3292465D01*
X-43925034Y-3292529D01*
X-43921512Y-3294308D01*
X-43921350Y-3293984D01*
X-43916227Y-3296534D01*
X-43916218Y-3296540D01*
X-43826218Y-3331405D01*
X-43733721Y-3368436D01*
X-43733483Y-3368482D01*
X-43728248Y-3369729D01*
X-43724663Y-3370748D01*
X-43724655Y-3370751D01*
X-43626771Y-3389048D01*
X-43525849Y-3408500D01*
X-43525844Y-3408500D01*
X-43317284Y-3408500D01*
X-43317282Y-3408500D01*
X-43267868Y-3399262D01*
X-43262425Y-3398494D01*
X-43209261Y-3393419D01*
X-43164332Y-3380225D01*
X-43158280Y-3378776D01*
X-43115345Y-3370751D01*
X-43065440Y-3351417D01*
X-43060513Y-3349743D01*
X-43022397Y-3338550D01*
X-43006138Y-3333777D01*
X-43001556Y-3331415D01*
X-42967458Y-3313835D01*
X-42961450Y-3311131D01*
X-42923782Y-3296540D01*
X-42875474Y-3266627D01*
X-42871252Y-3264236D01*
X-42817974Y-3236771D01*
X-42786344Y-3211896D01*
X-42780664Y-3207923D01*
X-42749118Y-3188392D01*
X-42704690Y-3147889D01*
X-42701279Y-3145000D01*
X-42651568Y-3105908D01*
X-42627373Y-3077984D01*
X-42622292Y-3072774D01*
X-42597299Y-3049991D01*
X-42559107Y-2999414D01*
X-42556486Y-2996177D01*
X-42556127Y-2995763D01*
X-42512935Y-2945918D01*
X-42509888Y-2940640D01*
X-42459323Y-2892424D01*
X-42390717Y-2879199D01*
X-42325851Y-2905165D01*
X-42285321Y-2962078D01*
X-42278500Y-3002638D01*
X-42278500Y-4890335D01*
X-42298185Y-4957374D01*
X-42350989Y-5003129D01*
X-42420147Y-5013073D01*
X-42473337Y-4992110D01*
X-42532196Y-4951143D01*
X-42719093Y-4870940D01*
X-42918310Y-4830000D01*
X-43170000Y-4830000D01*
X-43170000Y-5530000D01*
X-43670000Y-5530000D01*
X-43670000Y-4830000D01*
X-43870713Y-4830000D01*
X-44022339Y-4845418D01*
X-44216382Y-4906299D01*
X-44216392Y-4906304D01*
X-44394216Y-5005005D01*
X-44394217Y-5005005D01*
X-44548531Y-5137478D01*
X-44548532Y-5137479D01*
X-44673019Y-5298304D01*
X-44762589Y-5480906D01*
X-44788246Y-5580000D01*
X-43986111Y-5580000D01*
X-44025610Y-5604457D01*
X-44093201Y-5693962D01*
X-44123895Y-5801840D01*
X-44113546Y-5913521D01*
X-44063552Y-6013922D01*
X-43991069Y-6080000D01*
X-44793366Y-6080000D01*
X-44793069Y-6081946D01*
X-44793067Y-6081952D01*
X-44722438Y-6272657D01*
X-44722435Y-6272664D01*
X-44614851Y-6445267D01*
X-44474736Y-6592668D01*
X-44474734Y-6592669D01*
X-44307805Y-6708856D01*
X-44120908Y-6789059D01*
X-43921690Y-6830000D01*
X-43670000Y-6830000D01*
X-43670000Y-6130000D01*
X-43170000Y-6130000D01*
X-43170000Y-6830000D01*
X-42969287Y-6830000D01*
X-42817662Y-6814581D01*
X-42623619Y-6753700D01*
X-42623601Y-6753692D01*
X-42462679Y-6664372D01*
X-42394511Y-6649048D01*
X-42328879Y-6673011D01*
X-42286622Y-6728654D01*
X-42278501Y-6772790D01*
X-42278501Y-13530335D01*
X-42298186Y-13597374D01*
X-42350990Y-13643129D01*
X-42420148Y-13653073D01*
X-42473338Y-13632110D01*
X-42532196Y-13591143D01*
X-42719093Y-13510940D01*
X-42918310Y-13470000D01*
X-43170000Y-13470000D01*
X-43170000Y-14170000D01*
X-43670000Y-14170000D01*
X-43670000Y-13470000D01*
X-43870713Y-13470000D01*
X-44022339Y-13485418D01*
X-44216382Y-13546299D01*
X-44216392Y-13546304D01*
X-44394216Y-13645005D01*
X-44394217Y-13645005D01*
X-44548531Y-13777478D01*
X-44548532Y-13777479D01*
X-44673019Y-13938304D01*
X-44762589Y-14120906D01*
X-44788246Y-14220000D01*
X-43986111Y-14220000D01*
X-44025610Y-14244457D01*
X-44093201Y-14333962D01*
X-44123895Y-14441840D01*
X-44113546Y-14553521D01*
X-44063552Y-14653922D01*
X-43991069Y-14720000D01*
X-44793366Y-14720000D01*
X-44793069Y-14721946D01*
X-44793067Y-14721952D01*
X-44722438Y-14912657D01*
X-44722435Y-14912664D01*
X-44614851Y-15085267D01*
X-44474736Y-15232668D01*
X-44474734Y-15232669D01*
X-44307805Y-15348856D01*
X-44120908Y-15429059D01*
X-43921690Y-15470000D01*
X-43670000Y-15470000D01*
X-43670000Y-14770000D01*
X-43170000Y-14770000D01*
X-43170000Y-15470000D01*
X-42969287Y-15470000D01*
X-42817662Y-15454581D01*
X-42623619Y-15393700D01*
X-42623609Y-15393695D01*
X-42457182Y-15301320D01*
X-42389014Y-15285997D01*
X-42323382Y-15309960D01*
X-42281125Y-15365603D01*
X-42278225Y-15376485D01*
X-42277737Y-15376344D01*
X-42269536Y-15404577D01*
X-42265593Y-15423618D01*
X-42262884Y-15445053D01*
X-42262883Y-15445057D01*
X-42262882Y-15445064D01*
X-42246716Y-15485897D01*
X-42244766Y-15490822D01*
X-42242875Y-15496348D01*
X-42229146Y-15543598D01*
X-42218150Y-15562191D01*
X-42209590Y-15579665D01*
X-42201637Y-15599754D01*
X-42172711Y-15639565D01*
X-42169510Y-15644437D01*
X-42144453Y-15686807D01*
X-42144449Y-15686811D01*
X-42129179Y-15702081D01*
X-42116542Y-15716876D01*
X-42103841Y-15734357D01*
X-42065928Y-15765721D01*
X-42061617Y-15769643D01*
X-41681723Y-16149537D01*
X-41346720Y-16484540D01*
X-41336570Y-16497208D01*
X-41336394Y-16497064D01*
X-41331420Y-16503076D01*
X-41279018Y-16552285D01*
X-41277618Y-16553642D01*
X-41256338Y-16574923D01*
X-41250449Y-16579491D01*
X-41246006Y-16583286D01*
X-41210136Y-16616970D01*
X-41210134Y-16616971D01*
X-41210133Y-16616972D01*
X-41191197Y-16627382D01*
X-41174951Y-16638053D01*
X-41157868Y-16651304D01*
X-41157863Y-16651306D01*
X-41112704Y-16670848D01*
X-41107456Y-16673420D01*
X-41075766Y-16690840D01*
X-41064337Y-16697124D01*
X-41048177Y-16701272D01*
X-41043417Y-16702495D01*
X-41025014Y-16708795D01*
X-41005176Y-16717380D01*
X-40968040Y-16723261D01*
X-40956569Y-16725078D01*
X-40950854Y-16726261D01*
X-40903188Y-16738500D01*
X-40881581Y-16738500D01*
X-40862184Y-16740026D01*
X-40840848Y-16743406D01*
X-40791856Y-16738774D01*
X-40786019Y-16738500D01*
X-36964529Y-16738500D01*
X-36929486Y-16743555D01*
X-36446145Y-16885954D01*
X-36446133Y-16885957D01*
X-36446120Y-16885961D01*
X-36444842Y-16886301D01*
X-36426280Y-16892854D01*
X-36423752Y-16893980D01*
X-36247232Y-16931500D01*
X-36247231Y-16931500D01*
X-36066769Y-16931500D01*
X-36066768Y-16931500D01*
X-35890248Y-16893980D01*
X-35890246Y-16893978D01*
X-35890243Y-16893978D01*
X-35834712Y-16869253D01*
X-35725385Y-16820578D01*
X-35579387Y-16714504D01*
X-35578920Y-16713986D01*
X-35540079Y-16670848D01*
X-35458633Y-16580393D01*
X-35368401Y-16424107D01*
X-35312635Y-16252475D01*
X-35293771Y-16073000D01*
X-35312635Y-15893525D01*
X-35368401Y-15721893D01*
X-35458633Y-15565607D01*
X-35520994Y-15496348D01*
X-35579382Y-15431500D01*
X-35579385Y-15431498D01*
X-35579386Y-15431497D01*
X-35579387Y-15431496D01*
X-35680947Y-15357708D01*
X-35725386Y-15325421D01*
X-35890243Y-15252021D01*
X-35890249Y-15252019D01*
X-36052480Y-15217537D01*
X-36066768Y-15214500D01*
X-36247232Y-15214500D01*
X-36265768Y-15218440D01*
X-36423754Y-15252020D01*
X-36423758Y-15252021D01*
X-36431317Y-15255387D01*
X-36453267Y-15262009D01*
X-36453097Y-15262710D01*
X-36457400Y-15263752D01*
X-36932871Y-15415621D01*
X-36970599Y-15421500D01*
X-38458335Y-15421500D01*
X-38525374Y-15401815D01*
X-38571129Y-15349011D01*
X-38581073Y-15279853D01*
X-38552048Y-15216297D01*
X-38539104Y-15203413D01*
X-38491469Y-15162520D01*
X-38366982Y-15001695D01*
X-38277412Y-14819093D01*
X-38251754Y-14720000D01*
X-39053889Y-14720000D01*
X-39014390Y-14695543D01*
X-38946799Y-14606038D01*
X-38916105Y-14498160D01*
X-38926454Y-14386479D01*
X-38976448Y-14286078D01*
X-39048931Y-14220000D01*
X-38246634Y-14220000D01*
X-38246932Y-14218053D01*
X-38246934Y-14218047D01*
X-38317563Y-14027342D01*
X-38317566Y-14027335D01*
X-38425150Y-13854732D01*
X-38565265Y-13707331D01*
X-38565267Y-13707330D01*
X-38732196Y-13591143D01*
X-38919093Y-13510940D01*
X-39118310Y-13470000D01*
X-39370000Y-13470000D01*
X-39370000Y-14170000D01*
X-39870000Y-14170000D01*
X-39870000Y-13470000D01*
X-40070713Y-13470000D01*
X-40222339Y-13485418D01*
X-40416382Y-13546299D01*
X-40416392Y-13546304D01*
X-40594216Y-13645005D01*
X-40594217Y-13645005D01*
X-40753303Y-13781576D01*
X-40754312Y-13780401D01*
X-40808086Y-13811557D01*
X-40877882Y-13808337D01*
X-40934856Y-13767894D01*
X-40960922Y-13703068D01*
X-40961500Y-13691116D01*
X-40961501Y-9420000D01*
X-32714504Y-9420000D01*
X-32160000Y-9420000D01*
X-32160000Y-8891209D01*
X-31660000Y-8891209D01*
X-31660000Y-9420000D01*
X-31105496Y-9420000D01*
X-31147969Y-9273804D01*
X-31230279Y-9134625D01*
X-31230286Y-9134616D01*
X-31344617Y-9020285D01*
X-31344626Y-9020278D01*
X-31483805Y-8937968D01*
X-31483810Y-8937966D01*
X-31639082Y-8892855D01*
X-31639088Y-8892854D01*
X-31660000Y-8891209D01*
X-32160000Y-8891209D01*
X-32160001Y-8891209D01*
X-32180913Y-8892854D01*
X-32180919Y-8892855D01*
X-32336191Y-8937966D01*
X-32336196Y-8937968D01*
X-32475375Y-9020278D01*
X-32475384Y-9020285D01*
X-32589715Y-9134616D01*
X-32589722Y-9134625D01*
X-32672032Y-9273804D01*
X-32714504Y-9420000D01*
X-40961501Y-9420000D01*
X-40961501Y-6601415D01*
X-40941816Y-6534380D01*
X-40889012Y-6488625D01*
X-40819854Y-6478681D01*
X-40756298Y-6507706D01*
X-40747627Y-6515987D01*
X-40674736Y-6592668D01*
X-40674734Y-6592669D01*
X-40507805Y-6708856D01*
X-40320908Y-6789059D01*
X-40121690Y-6830000D01*
X-39870001Y-6830000D01*
X-39870001Y-6130000D01*
X-39370000Y-6130000D01*
X-39370000Y-6830000D01*
X-39169287Y-6830000D01*
X-39017662Y-6814581D01*
X-38823619Y-6753700D01*
X-38823609Y-6753695D01*
X-38645785Y-6654994D01*
X-38645784Y-6654994D01*
X-38491470Y-6522521D01*
X-38491469Y-6522520D01*
X-38366982Y-6361695D01*
X-38277412Y-6179093D01*
X-38251754Y-6080000D01*
X-39053889Y-6080000D01*
X-39014390Y-6055543D01*
X-38946799Y-5966038D01*
X-38916105Y-5858160D01*
X-38926454Y-5746479D01*
X-38976448Y-5646078D01*
X-39048931Y-5580000D01*
X-38246634Y-5580000D01*
X-38246932Y-5578053D01*
X-38246934Y-5578047D01*
X-38317563Y-5387342D01*
X-38317566Y-5387335D01*
X-38425150Y-5214732D01*
X-38565265Y-5067331D01*
X-38565267Y-5067330D01*
X-38732196Y-4951143D01*
X-38919093Y-4870940D01*
X-39118310Y-4830000D01*
X-39370000Y-4830000D01*
X-39370000Y-5530000D01*
X-39870000Y-5530000D01*
X-39870000Y-4830000D01*
X-40070713Y-4830000D01*
X-40222339Y-4845418D01*
X-40416382Y-4906299D01*
X-40416392Y-4906304D01*
X-40594216Y-5005005D01*
X-40594217Y-5005005D01*
X-40753303Y-5141576D01*
X-40754312Y-5140401D01*
X-40808086Y-5171557D01*
X-40877882Y-5168337D01*
X-40934856Y-5127894D01*
X-40960922Y-5063068D01*
X-40961500Y-5051116D01*
X-40961500Y-1631749D01*
X-40956066Y-1595451D01*
X-40813568Y-1130156D01*
X-40808769Y-1114486D01*
X-40808766Y-1114475D01*
X-40808757Y-1114446D01*
X-40800863Y-1085719D01*
X-40800862Y-1085705D01*
X-40799898Y-1080480D01*
X-40799642Y-1080527D01*
X-40795493Y-1060590D01*
X-40775635Y-999475D01*
X-40756771Y-820000D01*
X-40775635Y-640525D01*
X-40831401Y-468893D01*
X-40851548Y-433998D01*
X-40868020Y-366100D01*
X-40845168Y-300073D01*
X-40790247Y-256883D01*
X-40744160Y-248000D01*
X-35825757Y-248000D01*
X-35758718Y-267685D01*
G37*
%TD.AperFunction*%
%TA.AperFunction,Conductor*%
G36*
X-317745Y-14628185D02*
G01*
X-305956Y-14636781D01*
X-162905Y-14754588D01*
X365369Y-15189637D01*
X389154Y-15208082D01*
X406208Y-15217123D01*
X422432Y-15227410D01*
X434763Y-15236641D01*
X453794Y-15250888D01*
X453795Y-15250888D01*
X453796Y-15250889D01*
X504288Y-15269721D01*
X511675Y-15273040D01*
X518285Y-15276545D01*
X525716Y-15279213D01*
X537167Y-15282281D01*
X542745Y-15284065D01*
X590799Y-15301989D01*
X607779Y-15303814D01*
X651345Y-15308499D01*
X651362Y-15308500D01*
X2448638Y-15308500D01*
X2448654Y-15308499D01*
X2509201Y-15301989D01*
X2515810Y-15299524D01*
X2577166Y-15276638D01*
X2646856Y-15271653D01*
X2708180Y-15305137D01*
X2741666Y-15366460D01*
X2744500Y-15392820D01*
X2744500Y-17300758D01*
X2744402Y-17304235D01*
X2727407Y-17606867D01*
X2726628Y-17613781D01*
X2676147Y-17910883D01*
X2674599Y-17917667D01*
X2591170Y-18207256D01*
X2588872Y-18213823D01*
X2473548Y-18492242D01*
X2470529Y-18498511D01*
X2324753Y-18762271D01*
X2321051Y-18768163D01*
X2146662Y-19013941D01*
X2142324Y-19019382D01*
X1941511Y-19244091D01*
X1936591Y-19249011D01*
X1711882Y-19449824D01*
X1706441Y-19454162D01*
X1460663Y-19628551D01*
X1454771Y-19632253D01*
X1191011Y-19778029D01*
X1184742Y-19781048D01*
X906323Y-19896372D01*
X899756Y-19898670D01*
X610167Y-19982099D01*
X603383Y-19983647D01*
X306281Y-20034128D01*
X299367Y-20034907D01*
X-3265Y-20051902D01*
X-6742Y-20052000D01*
X-206084Y-20052000D01*
X-273123Y-20032315D01*
X-318878Y-19979511D01*
X-328822Y-19910353D01*
X-299797Y-19846797D01*
X-297314Y-19844017D01*
X-286325Y-19832080D01*
X-254278Y-19797268D01*
X-131140Y-19608791D01*
X-40704Y-19402616D01*
X14564Y-19184368D01*
X23273Y-19079267D01*
X33156Y-18960005D01*
X33156Y-18959994D01*
X18568Y-18783954D01*
X32648Y-18715518D01*
X81493Y-18665559D01*
X149595Y-18649938D01*
X215330Y-18673615D01*
X243147Y-18701781D01*
X248441Y-18709215D01*
X248442Y-18709216D01*
X248443Y-18709217D01*
X248445Y-18709219D01*
X252459Y-18713047D01*
X265837Y-18728057D01*
X267292Y-18729983D01*
X267295Y-18729987D01*
X267298Y-18729989D01*
X267299Y-18729991D01*
X333536Y-18790374D01*
X334530Y-18791301D01*
X372921Y-18827906D01*
X401654Y-18855303D01*
X403398Y-18856424D01*
X414519Y-18864970D01*
X414544Y-18864938D01*
X419119Y-18868393D01*
X498571Y-18917588D01*
X579747Y-18969757D01*
X585000Y-18972465D01*
X584966Y-18972529D01*
X588488Y-18974308D01*
X588650Y-18973984D01*
X593773Y-18976534D01*
X593782Y-18976540D01*
X683782Y-19011405D01*
X776279Y-19048436D01*
X776517Y-19048482D01*
X781752Y-19049729D01*
X785337Y-19050748D01*
X785345Y-19050751D01*
X883229Y-19069048D01*
X984151Y-19088500D01*
X984156Y-19088500D01*
X1192716Y-19088500D01*
X1192718Y-19088500D01*
X1242132Y-19079262D01*
X1247575Y-19078494D01*
X1300739Y-19073419D01*
X1345668Y-19060225D01*
X1351720Y-19058776D01*
X1394655Y-19050751D01*
X1444560Y-19031417D01*
X1449487Y-19029743D01*
X1493617Y-19016785D01*
X1503862Y-19013777D01*
X1508444Y-19011415D01*
X1542542Y-18993835D01*
X1548550Y-18991131D01*
X1586218Y-18976540D01*
X1634526Y-18946627D01*
X1638748Y-18944236D01*
X1692026Y-18916771D01*
X1723656Y-18891896D01*
X1729336Y-18887923D01*
X1760882Y-18868392D01*
X1805310Y-18827889D01*
X1808721Y-18825000D01*
X1858432Y-18785908D01*
X1882627Y-18757984D01*
X1887708Y-18752774D01*
X1912701Y-18729991D01*
X1950893Y-18679414D01*
X1953514Y-18676177D01*
X1962715Y-18665559D01*
X1997065Y-18625918D01*
X2013897Y-18596761D01*
X2018111Y-18590403D01*
X2036503Y-18566050D01*
X2066221Y-18506366D01*
X2068022Y-18503014D01*
X2074241Y-18492242D01*
X2102913Y-18442582D01*
X2112846Y-18413881D01*
X2115925Y-18406547D01*
X2128074Y-18382152D01*
X2147224Y-18314842D01*
X2148248Y-18311593D01*
X2172153Y-18242527D01*
X2176006Y-18215722D01*
X2177738Y-18207597D01*
X2184294Y-18184559D01*
X2191051Y-18111636D01*
X2191416Y-18108550D01*
X2195674Y-18078937D01*
X2202281Y-18032984D01*
X2201149Y-18009236D01*
X2201342Y-18000564D01*
X2203249Y-17980000D01*
X2196191Y-17903839D01*
X2195996Y-17901067D01*
X2193559Y-17849905D01*
X2192208Y-17821526D01*
X2188441Y-17806002D01*
X2185478Y-17788229D01*
X2184294Y-17775441D01*
X2162449Y-17698666D01*
X2161843Y-17696364D01*
X2158523Y-17682678D01*
X2142298Y-17615796D01*
X2137107Y-17604430D01*
X2130636Y-17586853D01*
X2128076Y-17577856D01*
X2128074Y-17577848D01*
X2091043Y-17503482D01*
X2090149Y-17501607D01*
X2054355Y-17423227D01*
X2049121Y-17415877D01*
X2039129Y-17399224D01*
X2036503Y-17393950D01*
X2018115Y-17369601D01*
X1984487Y-17325070D01*
X1983460Y-17323670D01*
X1952773Y-17280576D01*
X1931559Y-17250785D01*
X1931554Y-17250780D01*
X1927546Y-17246958D01*
X1914153Y-17231931D01*
X1912708Y-17230018D01*
X1912704Y-17230013D01*
X1912701Y-17230009D01*
X1846418Y-17169585D01*
X1845468Y-17168698D01*
X1778343Y-17104694D01*
X1776601Y-17103575D01*
X1765480Y-17095029D01*
X1765456Y-17095062D01*
X1760877Y-17091604D01*
X1681442Y-17042420D01*
X1600258Y-16990246D01*
X1594999Y-16987535D01*
X1595032Y-16987470D01*
X1591512Y-16985692D01*
X1591351Y-16986016D01*
X1586222Y-16983462D01*
X1586218Y-16983460D01*
X1496232Y-16948600D01*
X1403722Y-16911564D01*
X1403714Y-16911562D01*
X1403470Y-16911515D01*
X1398257Y-16910273D01*
X1394658Y-16909249D01*
X1296677Y-16890933D01*
X1195850Y-16871500D01*
X1195849Y-16871500D01*
X1192718Y-16871500D01*
X987282Y-16871500D01*
X987276Y-16871500D01*
X937885Y-16880732D01*
X932386Y-16881507D01*
X879265Y-16886580D01*
X879261Y-16886580D01*
X879261Y-16886581D01*
X864439Y-16890933D01*
X834348Y-16899768D01*
X828271Y-16901224D01*
X785351Y-16909247D01*
X785338Y-16909250D01*
X735438Y-16928582D01*
X730509Y-16930257D01*
X676140Y-16946222D01*
X637459Y-16966162D01*
X631445Y-16968868D01*
X593781Y-16983460D01*
X593780Y-16983460D01*
X545474Y-17013370D01*
X541245Y-17015764D01*
X487977Y-17043226D01*
X456354Y-17068094D01*
X450665Y-17072073D01*
X419116Y-17091609D01*
X374708Y-17132091D01*
X371266Y-17135006D01*
X321565Y-17174093D01*
X297377Y-17202006D01*
X292290Y-17207224D01*
X267301Y-17230006D01*
X229111Y-17280576D01*
X226491Y-17283813D01*
X182936Y-17334079D01*
X166104Y-17363233D01*
X161884Y-17369601D01*
X143496Y-17393951D01*
X143491Y-17393960D01*
X113781Y-17453622D01*
X111976Y-17456985D01*
X77088Y-17517415D01*
X67158Y-17546103D01*
X64067Y-17553463D01*
X51928Y-17577842D01*
X51923Y-17577856D01*
X32782Y-17645128D01*
X31739Y-17648437D01*
X7846Y-17717475D01*
X3994Y-17744258D01*
X2258Y-17752404D01*
X-4294Y-17775437D01*
X-11051Y-17848351D01*
X-11418Y-17851453D01*
X-22281Y-17927010D01*
X-22281Y-17927015D01*
X-21151Y-17950769D01*
X-21345Y-17959445D01*
X-23249Y-17980003D01*
X-23249Y-17980007D01*
X-21803Y-17995618D01*
X-35220Y-18064187D01*
X-83579Y-18114618D01*
X-151525Y-18130897D01*
X-217487Y-18107858D01*
X-256249Y-18062376D01*
X-257968Y-18058927D01*
X-708477Y-17155197D01*
X-721500Y-17099884D01*
X-721500Y-15410731D01*
X-714526Y-15369731D01*
X-608061Y-15065872D01*
X-596382Y-15027888D01*
X-596332Y-15027459D01*
X-595865Y-15025432D01*
X-595220Y-15022373D01*
X-595162Y-15022385D01*
X-590218Y-15000941D01*
X-575838Y-14959850D01*
X-572416Y-14929480D01*
X-556701Y-14790003D01*
X-556701Y-14789996D01*
X-561615Y-14746383D01*
X-549561Y-14677562D01*
X-502211Y-14626182D01*
X-438395Y-14608500D01*
X-384784Y-14608500D01*
X-317745Y-14628185D01*
G37*
%TD.AperFunction*%
%TA.AperFunction,Conductor*%
G36*
X-2120694Y-14934464D02*
G01*
X-2064760Y-14976336D01*
X-2041407Y-15032197D01*
X-2039689Y-15043616D01*
X-2039689Y-15043617D01*
X-1947914Y-15348856D01*
X-1943751Y-15362700D01*
X-1938500Y-15398404D01*
X-1938500Y-17099879D01*
X-1951525Y-17155200D01*
X-2493344Y-18242095D01*
X-2540870Y-18293311D01*
X-2608540Y-18310702D01*
X-2674871Y-18288747D01*
X-2708126Y-18254598D01*
X-2794278Y-18122732D01*
X-2794285Y-18122725D01*
X-2794285Y-18122723D01*
X-2946757Y-17957097D01*
X-2946762Y-17957092D01*
X-3084475Y-17849905D01*
X-3124424Y-17818811D01*
X-3124425Y-17818810D01*
X-3124428Y-17818808D01*
X-3322420Y-17711661D01*
X-3322423Y-17711659D01*
X-3322426Y-17711658D01*
X-3322429Y-17711657D01*
X-3322431Y-17711656D01*
X-3535363Y-17638556D01*
X-3757431Y-17601500D01*
X-3982569Y-17601500D01*
X-4204638Y-17638556D01*
X-4417570Y-17711656D01*
X-4417581Y-17711661D01*
X-4615573Y-17818808D01*
X-4615578Y-17818812D01*
X-4793239Y-17957092D01*
X-4793244Y-17957097D01*
X-4945716Y-18122723D01*
X-4945724Y-18122734D01*
X-5036193Y-18261206D01*
X-5089340Y-18306563D01*
X-5158571Y-18315986D01*
X-5221907Y-18286483D01*
X-5243809Y-18261206D01*
X-5334278Y-18122732D01*
X-5334283Y-18122727D01*
X-5334285Y-18122723D01*
X-5486757Y-17957097D01*
X-5486762Y-17957092D01*
X-5624475Y-17849905D01*
X-5664424Y-17818811D01*
X-5664425Y-17818810D01*
X-5664428Y-17818808D01*
X-5862420Y-17711661D01*
X-5862423Y-17711659D01*
X-5862426Y-17711658D01*
X-5862429Y-17711657D01*
X-5862431Y-17711656D01*
X-6075363Y-17638556D01*
X-6297431Y-17601500D01*
X-6522569Y-17601500D01*
X-6744638Y-17638556D01*
X-6957570Y-17711656D01*
X-6957581Y-17711661D01*
X-7155573Y-17818808D01*
X-7155578Y-17818812D01*
X-7333239Y-17957092D01*
X-7333244Y-17957097D01*
X-7485716Y-18122723D01*
X-7485724Y-18122734D01*
X-7576192Y-18261206D01*
X-7629338Y-18306562D01*
X-7698569Y-18315986D01*
X-7761905Y-18286484D01*
X-7783808Y-18261206D01*
X-7874277Y-18122734D01*
X-7874285Y-18122723D01*
X-8026757Y-17957097D01*
X-8026762Y-17957092D01*
X-8164475Y-17849905D01*
X-8204424Y-17818811D01*
X-8204425Y-17818810D01*
X-8204428Y-17818808D01*
X-8402420Y-17711661D01*
X-8402423Y-17711659D01*
X-8402426Y-17711658D01*
X-8402429Y-17711657D01*
X-8402431Y-17711656D01*
X-8615363Y-17638556D01*
X-8837431Y-17601500D01*
X-9062569Y-17601500D01*
X-9284638Y-17638556D01*
X-9497570Y-17711656D01*
X-9497581Y-17711661D01*
X-9695573Y-17818808D01*
X-9695578Y-17818812D01*
X-9873239Y-17957092D01*
X-9873244Y-17957097D01*
X-10025716Y-18122723D01*
X-10025724Y-18122734D01*
X-10116192Y-18261206D01*
X-10169338Y-18306562D01*
X-10238569Y-18315986D01*
X-10301905Y-18286484D01*
X-10323808Y-18261206D01*
X-10414277Y-18122734D01*
X-10414285Y-18122723D01*
X-10566757Y-17957097D01*
X-10566762Y-17957092D01*
X-10704475Y-17849905D01*
X-10744424Y-17818811D01*
X-10744425Y-17818810D01*
X-10744428Y-17818808D01*
X-10942420Y-17711661D01*
X-10942423Y-17711659D01*
X-10942426Y-17711658D01*
X-10942429Y-17711657D01*
X-10942431Y-17711656D01*
X-11155363Y-17638556D01*
X-11377431Y-17601500D01*
X-11602569Y-17601500D01*
X-11824638Y-17638556D01*
X-12037570Y-17711656D01*
X-12037581Y-17711661D01*
X-12235573Y-17818808D01*
X-12235578Y-17818812D01*
X-12413239Y-17957092D01*
X-12413244Y-17957097D01*
X-12565716Y-18122723D01*
X-12565724Y-18122734D01*
X-12656192Y-18261206D01*
X-12709338Y-18306562D01*
X-12778569Y-18315986D01*
X-12841905Y-18286484D01*
X-12863808Y-18261206D01*
X-12954277Y-18122734D01*
X-12954285Y-18122723D01*
X-13106757Y-17957097D01*
X-13106762Y-17957092D01*
X-13244475Y-17849905D01*
X-13284424Y-17818811D01*
X-13284425Y-17818810D01*
X-13284428Y-17818808D01*
X-13482420Y-17711661D01*
X-13482423Y-17711659D01*
X-13482426Y-17711658D01*
X-13482429Y-17711657D01*
X-13482431Y-17711656D01*
X-13695363Y-17638556D01*
X-13917431Y-17601500D01*
X-14142569Y-17601500D01*
X-14364638Y-17638556D01*
X-14577570Y-17711656D01*
X-14577581Y-17711661D01*
X-14775573Y-17818808D01*
X-14775578Y-17818812D01*
X-14953239Y-17957092D01*
X-14953244Y-17957097D01*
X-15105716Y-18122723D01*
X-15105724Y-18122734D01*
X-15196192Y-18261206D01*
X-15249338Y-18306562D01*
X-15318569Y-18315986D01*
X-15381905Y-18286484D01*
X-15403808Y-18261206D01*
X-15494277Y-18122734D01*
X-15494285Y-18122723D01*
X-15646757Y-17957097D01*
X-15646762Y-17957092D01*
X-15784475Y-17849905D01*
X-15824424Y-17818811D01*
X-15824425Y-17818810D01*
X-15824428Y-17818808D01*
X-16022420Y-17711661D01*
X-16022423Y-17711659D01*
X-16022426Y-17711658D01*
X-16022429Y-17711657D01*
X-16022431Y-17711656D01*
X-16071518Y-17694804D01*
X-16078841Y-17691754D01*
X-16097224Y-17682677D01*
X-17404122Y-17255637D01*
X-17453289Y-17225451D01*
X-18428559Y-16250181D01*
X-18462044Y-16188858D01*
X-18457060Y-16119166D01*
X-18415188Y-16063233D01*
X-18349724Y-16038816D01*
X-18340878Y-16038500D01*
X-13298190Y-16038500D01*
X-13231151Y-16058185D01*
X-13185396Y-16110989D01*
X-13174869Y-16149537D01*
X-13164365Y-16249477D01*
X-13108600Y-16421105D01*
X-13108599Y-16421107D01*
X-13018367Y-16577393D01*
X-13009828Y-16586876D01*
X-12897619Y-16711499D01*
X-12897616Y-16711501D01*
X-12897613Y-16711504D01*
X-12751615Y-16817578D01*
X-12586758Y-16890978D01*
X-12586752Y-16890980D01*
X-12410232Y-16928500D01*
X-12410231Y-16928500D01*
X-12229769Y-16928500D01*
X-12229768Y-16928500D01*
X-12053248Y-16890980D01*
X-12053246Y-16890978D01*
X-12053243Y-16890978D01*
X-11997712Y-16866253D01*
X-11888385Y-16817578D01*
X-11742387Y-16711504D01*
X-11736460Y-16704922D01*
X-11708096Y-16673420D01*
X-11621633Y-16577393D01*
X-11531401Y-16421107D01*
X-11475635Y-16249475D01*
X-11465131Y-16149536D01*
X-11438546Y-16084923D01*
X-11381248Y-16044939D01*
X-11341810Y-16038500D01*
X-3686391Y-16038500D01*
X-3670254Y-16040281D01*
X-3670232Y-16040054D01*
X-3662465Y-16040788D01*
X-3662464Y-16040787D01*
X-3662463Y-16040788D01*
X-3655761Y-16040577D01*
X-3590625Y-16038531D01*
X-3588678Y-16038500D01*
X-3558573Y-16038500D01*
X-3558568Y-16038500D01*
X-3551178Y-16037566D01*
X-3545349Y-16037107D01*
X-3496169Y-16035562D01*
X-3475417Y-16029532D01*
X-3456379Y-16025590D01*
X-3434936Y-16022882D01*
X-3389166Y-16004760D01*
X-3383652Y-16002873D01*
X-3357125Y-15995165D01*
X-3336400Y-15989145D01*
X-3317804Y-15978146D01*
X-3300336Y-15969589D01*
X-3280244Y-15961635D01*
X-3240418Y-15932698D01*
X-3235559Y-15929506D01*
X-3193193Y-15904453D01*
X-3177910Y-15889168D01*
X-3163127Y-15876542D01*
X-3145643Y-15863841D01*
X-3114268Y-15825913D01*
X-3110354Y-15821612D01*
X-2251706Y-14962963D01*
X-2190385Y-14929480D01*
X-2120694Y-14934464D01*
G37*
%TD.AperFunction*%
%TA.AperFunction,Conductor*%
G36*
X-13005636Y-8648185D02*
G01*
X-12959881Y-8700989D01*
X-12949937Y-8770147D01*
X-12978962Y-8833703D01*
X-12984994Y-8840179D01*
X-14344650Y-10199836D01*
X-15649199Y-11504385D01*
X-15655302Y-11509736D01*
X-15683987Y-11531748D01*
X-15708480Y-11563667D01*
X-15781524Y-11658859D01*
X-15841322Y-11803225D01*
X-15842837Y-11806880D01*
X-15842839Y-11806888D01*
X-15859032Y-11929886D01*
X-15859031Y-11929887D01*
X-15863750Y-11965736D01*
X-15859031Y-12001579D01*
X-15858500Y-12009681D01*
X-15858500Y-13552417D01*
X-15878185Y-13619456D01*
X-15930989Y-13665211D01*
X-15968616Y-13675637D01*
X-16059350Y-13685860D01*
X-16115770Y-13705602D01*
X-16135692Y-13710763D01*
X-16153614Y-13713847D01*
X-16153621Y-13713849D01*
X-16153624Y-13713849D01*
X-16153625Y-13713850D01*
X-16250727Y-13745298D01*
X-16467393Y-13815468D01*
X-16505598Y-13821500D01*
X-19063888Y-13821500D01*
X-19102099Y-13815466D01*
X-19230153Y-13773987D01*
X-19415851Y-13713836D01*
X-19421446Y-13712224D01*
X-19448192Y-13704519D01*
X-19453535Y-13703477D01*
X-19453460Y-13703090D01*
X-19474067Y-13698463D01*
X-19495123Y-13691096D01*
X-19510150Y-13685838D01*
X-19510152Y-13685837D01*
X-19510157Y-13685836D01*
X-19679996Y-13666701D01*
X-19680004Y-13666701D01*
X-19849845Y-13685836D01*
X-19849850Y-13685837D01*
X-20011184Y-13742291D01*
X-20155909Y-13833228D01*
X-20276772Y-13954091D01*
X-20367709Y-14098816D01*
X-20424163Y-14260150D01*
X-20424164Y-14260155D01*
X-20443299Y-14429996D01*
X-20443299Y-14430003D01*
X-20424164Y-14599844D01*
X-20424163Y-14599849D01*
X-20367709Y-14761184D01*
X-20323796Y-14831071D01*
X-20304796Y-14898308D01*
X-20323796Y-14963015D01*
X-20377709Y-15048815D01*
X-20434163Y-15210150D01*
X-20434164Y-15210155D01*
X-20453299Y-15379996D01*
X-20453299Y-15380003D01*
X-20434164Y-15549844D01*
X-20434163Y-15549849D01*
X-20379332Y-15706545D01*
X-20375771Y-15776324D01*
X-20410500Y-15836952D01*
X-20472493Y-15869179D01*
X-20496374Y-15871500D01*
X-25595879Y-15871500D01*
X-25662918Y-15851815D01*
X-25683560Y-15835181D01*
X-26070181Y-15448559D01*
X-26103666Y-15387236D01*
X-26106500Y-15360878D01*
X-26106500Y-15224666D01*
X-26102006Y-15191586D01*
X-26101463Y-15189627D01*
X-26007331Y-14849564D01*
X-25979992Y-14750798D01*
X-25979967Y-14750705D01*
X-25979901Y-14750467D01*
X-25979393Y-14746467D01*
X-25973425Y-14721150D01*
X-25957067Y-14674406D01*
X-25956570Y-14670000D01*
X-25949364Y-14606038D01*
X-25941500Y-14536248D01*
X-25941500Y-13132500D01*
X-25921815Y-13065461D01*
X-25869011Y-13019706D01*
X-25817500Y-13008500D01*
X-22326111Y-13008500D01*
X-22287900Y-13014534D01*
X-22055484Y-13089817D01*
X-21997774Y-13129202D01*
X-21970517Y-13193536D01*
X-21982369Y-13262393D01*
X-22006015Y-13295464D01*
X-22725730Y-14015181D01*
X-22787053Y-14048666D01*
X-22813411Y-14051500D01*
X-23533888Y-14051500D01*
X-23572099Y-14045466D01*
X-23798005Y-13972291D01*
X-23885851Y-13943836D01*
X-23891446Y-13942224D01*
X-23918192Y-13934519D01*
X-23923535Y-13933477D01*
X-23923460Y-13933090D01*
X-23944067Y-13928463D01*
X-23964485Y-13921319D01*
X-23980150Y-13915838D01*
X-23980152Y-13915837D01*
X-23980157Y-13915836D01*
X-24149996Y-13896701D01*
X-24150004Y-13896701D01*
X-24319845Y-13915836D01*
X-24319850Y-13915837D01*
X-24481184Y-13972291D01*
X-24625909Y-14063228D01*
X-24746772Y-14184091D01*
X-24837709Y-14328816D01*
X-24894163Y-14490150D01*
X-24894164Y-14490155D01*
X-24913299Y-14659996D01*
X-24913299Y-14660003D01*
X-24894164Y-14829844D01*
X-24894163Y-14829849D01*
X-24837709Y-14991183D01*
X-24757725Y-15118477D01*
X-24746771Y-15135909D01*
X-24625909Y-15256771D01*
X-24481183Y-15347709D01*
X-24336305Y-15398404D01*
X-24319850Y-15404162D01*
X-24319845Y-15404163D01*
X-24150004Y-15423299D01*
X-24150000Y-15423299D01*
X-24149996Y-15423299D01*
X-23980157Y-15404163D01*
X-23980157Y-15404162D01*
X-23980150Y-15404162D01*
X-23923698Y-15384407D01*
X-23903791Y-15379250D01*
X-23885851Y-15376163D01*
X-23578600Y-15276639D01*
X-23572101Y-15274534D01*
X-23533890Y-15268500D01*
X-22553946Y-15268500D01*
X-22545849Y-15269030D01*
X-22525929Y-15271653D01*
X-22510001Y-15273750D01*
X-22510000Y-15273750D01*
X-22509999Y-15273750D01*
X-22485791Y-15270563D01*
X-22472039Y-15268752D01*
X-22472026Y-15268751D01*
X-22470119Y-15268500D01*
X-22470115Y-15268500D01*
X-22370544Y-15255391D01*
X-22370544Y-15255392D01*
X-22370540Y-15255390D01*
X-22351149Y-15252838D01*
X-22203124Y-15191524D01*
X-22107928Y-15118477D01*
X-22107927Y-15118475D01*
X-22099836Y-15112267D01*
X-22099829Y-15112261D01*
X-22085512Y-15101276D01*
X-22076013Y-15093987D01*
X-22053990Y-15065285D01*
X-22048662Y-15059209D01*
X-18050175Y-11060722D01*
X-18044101Y-11055396D01*
X-17982954Y-11008477D01*
X-17982954Y-11008476D01*
X-17974861Y-11002267D01*
X-17974858Y-11002263D01*
X-17951039Y-10983987D01*
X-17929016Y-10955285D01*
X-17923688Y-10949209D01*
X-15639297Y-8664819D01*
X-15577973Y-8631334D01*
X-15551615Y-8628500D01*
X-13072675Y-8628500D01*
X-13005636Y-8648185D01*
G37*
%TD.AperFunction*%
%TA.AperFunction,Conductor*%
G36*
X-3265Y-248098D02*
G01*
X147467Y-256562D01*
X299376Y-265093D01*
X306269Y-265869D01*
X507574Y-300073D01*
X603383Y-316352D01*
X610167Y-317900D01*
X870338Y-392854D01*
X899756Y-401329D01*
X906320Y-403626D01*
X1184754Y-518956D01*
X1191002Y-521966D01*
X1379070Y-625907D01*
X1454771Y-667746D01*
X1460663Y-671448D01*
X1706441Y-845837D01*
X1711882Y-850175D01*
X1936591Y-1050988D01*
X1941511Y-1055908D01*
X2142324Y-1280617D01*
X2146662Y-1286058D01*
X2321051Y-1531836D01*
X2324753Y-1537728D01*
X2470529Y-1801488D01*
X2473546Y-1807753D01*
X2499002Y-1869210D01*
X2588872Y-2086176D01*
X2591170Y-2092743D01*
X2674599Y-2382332D01*
X2676147Y-2389116D01*
X2726628Y-2686218D01*
X2727407Y-2693133D01*
X2744401Y-2995764D01*
X2744499Y-2999241D01*
X2744499Y-5315949D01*
X2724814Y-5382988D01*
X2672010Y-5428743D01*
X2602852Y-5438687D01*
X2539296Y-5409662D01*
X2532818Y-5403630D01*
X2421082Y-5291894D01*
X2227578Y-5156399D01*
X2013492Y-5056570D01*
X2013486Y-5056567D01*
X1800000Y-4999364D01*
X1800000Y-5894498D01*
X1692315Y-5845320D01*
X1585763Y-5830000D01*
X1514237Y-5830000D01*
X1407685Y-5845320D01*
X1300000Y-5894498D01*
X1300000Y-4999364D01*
X1299999Y-4999364D01*
X1086513Y-5056567D01*
X1086507Y-5056570D01*
X872422Y-5156399D01*
X872420Y-5156400D01*
X678926Y-5291886D01*
X678920Y-5291891D01*
X511891Y-5458920D01*
X511886Y-5458926D01*
X376400Y-5652420D01*
X376399Y-5652422D01*
X276570Y-5866507D01*
X276567Y-5866513D01*
X219364Y-6079999D01*
X219364Y-6080000D01*
X1116314Y-6080000D01*
X1090507Y-6120156D01*
X1050000Y-6258111D01*
X1050000Y-6401889D01*
X1090507Y-6539844D01*
X1116314Y-6580000D01*
X219364Y-6580000D01*
X276567Y-6793486D01*
X276570Y-6793492D01*
X376399Y-7007578D01*
X511894Y-7201082D01*
X678917Y-7368105D01*
X859802Y-7494763D01*
X903427Y-7549340D01*
X910619Y-7618839D01*
X879097Y-7681193D01*
X847697Y-7705392D01*
X804427Y-7728809D01*
X804422Y-7728812D01*
X626761Y-7867092D01*
X626756Y-7867097D01*
X474284Y-8032723D01*
X474276Y-8032734D01*
X351140Y-8221207D01*
X260703Y-8427385D01*
X205436Y-8645628D01*
X205434Y-8645640D01*
X186844Y-8869994D01*
X186844Y-8870005D01*
X205434Y-9094359D01*
X205436Y-9094371D01*
X260703Y-9312614D01*
X351140Y-9518792D01*
X474276Y-9707265D01*
X474284Y-9707276D01*
X626756Y-9872902D01*
X626761Y-9872907D01*
X629261Y-9874853D01*
X804424Y-10011189D01*
X804429Y-10011191D01*
X804431Y-10011193D01*
X840930Y-10030946D01*
X890520Y-10080165D01*
X905628Y-10148382D01*
X881457Y-10213937D01*
X840930Y-10249054D01*
X804431Y-10268806D01*
X804422Y-10268812D01*
X626761Y-10407092D01*
X626756Y-10407097D01*
X474284Y-10572723D01*
X474276Y-10572734D01*
X351140Y-10761207D01*
X260703Y-10967385D01*
X205436Y-11185628D01*
X205434Y-11185640D01*
X186844Y-11409994D01*
X186844Y-11410005D01*
X205434Y-11634359D01*
X205436Y-11634371D01*
X260703Y-11852614D01*
X351140Y-12058792D01*
X474276Y-12247265D01*
X474284Y-12247276D01*
X619489Y-12405008D01*
X650412Y-12467662D01*
X642552Y-12537088D01*
X598405Y-12591244D01*
X571591Y-12605174D01*
X552995Y-12612109D01*
X549429Y-12613317D01*
X543765Y-12615045D01*
X541950Y-12615600D01*
X541944Y-12615602D01*
X541938Y-12615604D01*
X490262Y-12634452D01*
X482972Y-12637955D01*
X477795Y-12640159D01*
X466330Y-12644435D01*
X453795Y-12649111D01*
X402884Y-12687222D01*
X397930Y-12690571D01*
X365366Y-12710363D01*
X-305957Y-13263219D01*
X-370221Y-13290642D01*
X-384785Y-13291500D01*
X-2083609Y-13291500D01*
X-2099747Y-13289718D01*
X-2099768Y-13289946D01*
X-2107536Y-13289211D01*
X-2179375Y-13291469D01*
X-2181322Y-13291500D01*
X-2211434Y-13291500D01*
X-2218828Y-13292433D01*
X-2224646Y-13292891D01*
X-2273827Y-13294437D01*
X-2273837Y-13294439D01*
X-2294578Y-13300464D01*
X-2313618Y-13304407D01*
X-2335054Y-13307116D01*
X-2335069Y-13307119D01*
X-2380822Y-13325233D01*
X-2386346Y-13327124D01*
X-2433598Y-13340854D01*
X-2433606Y-13340857D01*
X-2452197Y-13351852D01*
X-2469662Y-13360408D01*
X-2489753Y-13368363D01*
X-2489758Y-13368366D01*
X-2529573Y-13397292D01*
X-2534455Y-13400499D01*
X-2576810Y-13425549D01*
X-2592084Y-13440823D01*
X-2606872Y-13453454D01*
X-2624357Y-13466158D01*
X-2624360Y-13466162D01*
X-2655734Y-13504084D01*
X-2659666Y-13508406D01*
X-3439023Y-14287761D01*
X-3500346Y-14321246D01*
X-3570038Y-14316262D01*
X-3625971Y-14274390D01*
X-3643729Y-14241081D01*
X-3654525Y-14210267D01*
X-3661500Y-14169266D01*
X-3661500Y-8028406D01*
X-3656249Y-7992703D01*
X-3618483Y-7867094D01*
X-3560311Y-7673616D01*
X-3552929Y-7646369D01*
X-3552929Y-7646366D01*
X-3551986Y-7641169D01*
X-3551255Y-7641301D01*
X-3546949Y-7621599D01*
X-3535838Y-7589850D01*
X-3535406Y-7586015D01*
X-3516701Y-7420003D01*
X-3516701Y-7419996D01*
X-3535837Y-7250155D01*
X-3535838Y-7250150D01*
X-3553008Y-7201082D01*
X-3592291Y-7088817D01*
X-3683229Y-6944091D01*
X-3804091Y-6823229D01*
X-3804092Y-6823228D01*
X-3948817Y-6732291D01*
X-4110151Y-6675837D01*
X-4110156Y-6675836D01*
X-4279996Y-6656701D01*
X-4280004Y-6656701D01*
X-4449845Y-6675836D01*
X-4449850Y-6675837D01*
X-4611184Y-6732291D01*
X-4755909Y-6823228D01*
X-4876772Y-6944091D01*
X-4967709Y-7088816D01*
X-5024163Y-7250150D01*
X-5024164Y-7250155D01*
X-5043299Y-7419996D01*
X-5043299Y-7420003D01*
X-5024163Y-7589848D01*
X-5024163Y-7589849D01*
X-5001121Y-7655701D01*
X-4996495Y-7672718D01*
X-4991941Y-7695869D01*
X-4885475Y-7999731D01*
X-4878500Y-8040733D01*
X-4878500Y-14181590D01*
X-4883751Y-14217293D01*
X-4979690Y-14536384D01*
X-4987073Y-14563635D01*
X-4988015Y-14568832D01*
X-4988738Y-14568700D01*
X-4993053Y-14588398D01*
X-5004162Y-14620146D01*
X-5005289Y-14625087D01*
X-5039395Y-14686067D01*
X-5101055Y-14718928D01*
X-5126181Y-14721500D01*
X-12246030Y-14721500D01*
X-12269265Y-14719304D01*
X-12278322Y-14717576D01*
X-12278327Y-14717576D01*
X-12291364Y-14718396D01*
X-12338765Y-14721378D01*
X-12342637Y-14721500D01*
X-13033387Y-14721500D01*
X-13100426Y-14701815D01*
X-13146181Y-14649011D01*
X-13150428Y-14638455D01*
X-13151014Y-14636781D01*
X-13188880Y-14528567D01*
X-13192441Y-14458790D01*
X-13183555Y-14433807D01*
X-13182296Y-14431189D01*
X-13182291Y-14431183D01*
X-13131516Y-14286078D01*
X-13125840Y-14269857D01*
X-13125837Y-14269844D01*
X-13106701Y-14100003D01*
X-13106701Y-14099997D01*
X-13117121Y-14007519D01*
X-13105067Y-13938697D01*
X-13057718Y-13887317D01*
X-13041366Y-13879079D01*
X-13023124Y-13871524D01*
X-12927928Y-13798477D01*
X-12927927Y-13798475D01*
X-12919836Y-13792267D01*
X-12919829Y-13792261D01*
X-12905903Y-13781576D01*
X-12896013Y-13773987D01*
X-12873990Y-13745285D01*
X-12868662Y-13739209D01*
X-2215029Y-3085576D01*
X-2166705Y-3055669D01*
X-849471Y-2614834D01*
X-841188Y-2611904D01*
X-836320Y-2610087D01*
X-810309Y-2598222D01*
X-804746Y-2596003D01*
X-782426Y-2588342D01*
X-584424Y-2481189D01*
X-406760Y-2342906D01*
X-285406Y-2211082D01*
X-254285Y-2177276D01*
X-254282Y-2177272D01*
X-254278Y-2177268D01*
X-249813Y-2170432D01*
X-196669Y-2125078D01*
X-127438Y-2115653D01*
X-64102Y-2145154D01*
X-26769Y-2204213D01*
X-22145Y-2244151D01*
X-22282Y-2247015D01*
X-21151Y-2270769D01*
X-21345Y-2279445D01*
X-23249Y-2300003D01*
X-16193Y-2376158D01*
X-15999Y-2378927D01*
X-12209Y-2458470D01*
X-12208Y-2458475D01*
X-8445Y-2473986D01*
X-5479Y-2491774D01*
X-4294Y-2504559D01*
X17541Y-2581305D01*
X18152Y-2583621D01*
X37701Y-2664201D01*
X37702Y-2664206D01*
X42891Y-2675568D01*
X49359Y-2693134D01*
X51922Y-2702141D01*
X51928Y-2702158D01*
X88940Y-2776487D01*
X89838Y-2778367D01*
X125641Y-2856765D01*
X125647Y-2856776D01*
X130879Y-2864123D01*
X140868Y-2880771D01*
X143497Y-2886050D01*
X184722Y-2940641D01*
X195512Y-2954929D01*
X196526Y-2956310D01*
X248441Y-3029215D01*
X248443Y-3029217D01*
X248444Y-3029218D01*
X248445Y-3029219D01*
X252459Y-3033047D01*
X265837Y-3048057D01*
X267292Y-3049983D01*
X267295Y-3049987D01*
X267298Y-3049989D01*
X267299Y-3049991D01*
X333536Y-3110374D01*
X334530Y-3111301D01*
X372921Y-3147906D01*
X401654Y-3175303D01*
X403398Y-3176424D01*
X414519Y-3184970D01*
X414544Y-3184938D01*
X419119Y-3188393D01*
X498571Y-3237588D01*
X579747Y-3289757D01*
X585000Y-3292465D01*
X584966Y-3292529D01*
X588488Y-3294308D01*
X588650Y-3293984D01*
X593773Y-3296534D01*
X593782Y-3296540D01*
X683782Y-3331405D01*
X776279Y-3368435D01*
X776279Y-3368436D01*
X776517Y-3368482D01*
X781752Y-3369729D01*
X785337Y-3370748D01*
X785345Y-3370751D01*
X883229Y-3389048D01*
X984151Y-3408500D01*
X984156Y-3408500D01*
X1192716Y-3408500D01*
X1192718Y-3408500D01*
X1242132Y-3399262D01*
X1247575Y-3398494D01*
X1300739Y-3393419D01*
X1345668Y-3380225D01*
X1351720Y-3378776D01*
X1394655Y-3370751D01*
X1444560Y-3351417D01*
X1449487Y-3349743D01*
X1487603Y-3338550D01*
X1503862Y-3333777D01*
X1508444Y-3331415D01*
X1542542Y-3313835D01*
X1548550Y-3311131D01*
X1586218Y-3296540D01*
X1634526Y-3266627D01*
X1638748Y-3264236D01*
X1692026Y-3236771D01*
X1723656Y-3211896D01*
X1729336Y-3207923D01*
X1760882Y-3188392D01*
X1805310Y-3147889D01*
X1808721Y-3145000D01*
X1858432Y-3105908D01*
X1882627Y-3077984D01*
X1887708Y-3072774D01*
X1912701Y-3049991D01*
X1950893Y-2999414D01*
X1953514Y-2996177D01*
X1953873Y-2995763D01*
X1997065Y-2945918D01*
X2013897Y-2916761D01*
X2018111Y-2910403D01*
X2036503Y-2886050D01*
X2066221Y-2826366D01*
X2068022Y-2823014D01*
X2093799Y-2778367D01*
X2102913Y-2762582D01*
X2112846Y-2733881D01*
X2115925Y-2726547D01*
X2128074Y-2702152D01*
X2147224Y-2634842D01*
X2148248Y-2631593D01*
X2172153Y-2562527D01*
X2176006Y-2535722D01*
X2177738Y-2527597D01*
X2184294Y-2504559D01*
X2191051Y-2431636D01*
X2191416Y-2428550D01*
X2198669Y-2378105D01*
X2202281Y-2352984D01*
X2201149Y-2329236D01*
X2201342Y-2320564D01*
X2203249Y-2300000D01*
X2196191Y-2223839D01*
X2195996Y-2221067D01*
X2195520Y-2211082D01*
X2192208Y-2141526D01*
X2188441Y-2126002D01*
X2185478Y-2108229D01*
X2184294Y-2095441D01*
X2162449Y-2018666D01*
X2161843Y-2016364D01*
X2160482Y-2010753D01*
X2142298Y-1935796D01*
X2137107Y-1924430D01*
X2130636Y-1906853D01*
X2128076Y-1897856D01*
X2128074Y-1897848D01*
X2091043Y-1823482D01*
X2090149Y-1821607D01*
X2054355Y-1743227D01*
X2049121Y-1735877D01*
X2039129Y-1719224D01*
X2036503Y-1713950D01*
X2018115Y-1689601D01*
X1984487Y-1645070D01*
X1983460Y-1643670D01*
X1931558Y-1570784D01*
X1931554Y-1570780D01*
X1927546Y-1566958D01*
X1914153Y-1551931D01*
X1912708Y-1550018D01*
X1912704Y-1550013D01*
X1912701Y-1550009D01*
X1846418Y-1489585D01*
X1845468Y-1488698D01*
X1778343Y-1424694D01*
X1776601Y-1423575D01*
X1765480Y-1415029D01*
X1765456Y-1415062D01*
X1760877Y-1411604D01*
X1681442Y-1362420D01*
X1600258Y-1310246D01*
X1594999Y-1307535D01*
X1595032Y-1307470D01*
X1591512Y-1305692D01*
X1591351Y-1306016D01*
X1586222Y-1303462D01*
X1586218Y-1303460D01*
X1496232Y-1268600D01*
X1403722Y-1231564D01*
X1403714Y-1231562D01*
X1403470Y-1231515D01*
X1398257Y-1230273D01*
X1394658Y-1229249D01*
X1296677Y-1210933D01*
X1195850Y-1191500D01*
X1195849Y-1191500D01*
X1192718Y-1191500D01*
X987282Y-1191500D01*
X987276Y-1191500D01*
X937885Y-1200732D01*
X932386Y-1201507D01*
X879265Y-1206580D01*
X879261Y-1206580D01*
X879261Y-1206581D01*
X864439Y-1210933D01*
X834348Y-1219768D01*
X828271Y-1221224D01*
X785351Y-1229247D01*
X785338Y-1229250D01*
X735438Y-1248582D01*
X730509Y-1250257D01*
X676140Y-1266222D01*
X637459Y-1286162D01*
X631445Y-1288868D01*
X593781Y-1303460D01*
X593780Y-1303460D01*
X545474Y-1333370D01*
X541245Y-1335764D01*
X487977Y-1363226D01*
X456354Y-1388094D01*
X450665Y-1392073D01*
X419116Y-1411609D01*
X374708Y-1452091D01*
X371266Y-1455006D01*
X321565Y-1494093D01*
X297377Y-1522006D01*
X292290Y-1527224D01*
X267298Y-1550009D01*
X267297Y-1550009D01*
X242614Y-1582695D01*
X186505Y-1624330D01*
X116793Y-1629020D01*
X55611Y-1595276D01*
X22386Y-1533812D01*
X20086Y-1497725D01*
X20756Y-1489646D01*
X31231Y-1363229D01*
X33156Y-1340004D01*
X33156Y-1339994D01*
X14565Y-1115640D01*
X14563Y-1115628D01*
X7928Y-1089429D01*
X-40704Y-897384D01*
X-131140Y-691209D01*
X-145368Y-669432D01*
X-241709Y-521970D01*
X-254278Y-502732D01*
X-297315Y-455982D01*
X-328236Y-393329D01*
X-320376Y-323903D01*
X-276229Y-269747D01*
X-209812Y-248056D01*
X-206084Y-248000D01*
X-49170Y-248000D01*
X-6742Y-248000D01*
X-3265Y-248098D01*
G37*
%TD.AperFunction*%
%TA.AperFunction,Conductor*%
G36*
X-3814300Y-2721651D02*
G01*
X-3759997Y-2765617D01*
X-3738085Y-2831962D01*
X-3755520Y-2899622D01*
X-3774335Y-2923784D01*
X-13452875Y-12602324D01*
X-13514198Y-12635809D01*
X-13578766Y-12632609D01*
X-13605845Y-12623837D01*
X-13638192Y-12614519D01*
X-13643535Y-12613477D01*
X-13643460Y-12613090D01*
X-13664067Y-12608463D01*
X-13693940Y-12598011D01*
X-13700150Y-12595838D01*
X-13700152Y-12595837D01*
X-13700157Y-12595836D01*
X-13869996Y-12576701D01*
X-13870004Y-12576701D01*
X-14039845Y-12595836D01*
X-14039853Y-12595838D01*
X-14086546Y-12612177D01*
X-14156325Y-12615738D01*
X-14216952Y-12581009D01*
X-14249179Y-12519015D01*
X-14251500Y-12495135D01*
X-14251500Y-12303410D01*
X-14231815Y-12236371D01*
X-14215186Y-12215734D01*
X-4920769Y-2921316D01*
X-4859448Y-2887833D01*
X-4854865Y-2886926D01*
X-3883751Y-2714023D01*
X-3814300Y-2721651D01*
G37*
%TD.AperFunction*%
%TA.AperFunction,Conductor*%
G36*
X-27896297Y-11324698D02*
G01*
X-27889819Y-11330730D01*
X-27217703Y-12002846D01*
X-27184218Y-12064169D01*
X-27189202Y-12133861D01*
X-27231074Y-12189794D01*
X-27239411Y-12195520D01*
X-27281692Y-12222086D01*
X-27312320Y-12252714D01*
X-27373644Y-12286199D01*
X-27443335Y-12281213D01*
X-27487680Y-12252714D01*
X-27518306Y-12222089D01*
X-27518307Y-12222088D01*
X-27675434Y-12123358D01*
X-27675435Y-12123357D01*
X-27675436Y-12123357D01*
X-27717483Y-12108644D01*
X-27850597Y-12062065D01*
X-27991384Y-12046203D01*
X-28055798Y-12019136D01*
X-28095353Y-11961542D01*
X-28101500Y-11922983D01*
X-28101500Y-11418411D01*
X-28081815Y-11351372D01*
X-28029011Y-11305617D01*
X-27959853Y-11295673D01*
X-27896297Y-11324698D01*
G37*
%TD.AperFunction*%
%TD*%
%TA.AperFunction,Conductor*%
%TO.N,/PA5{slash}SCLK*%
G36*
X-22080147Y-17407792D02*
G01*
X-21057903Y-18350709D01*
X-21054146Y-18358837D01*
X-21057236Y-18367242D01*
X-21057553Y-18367572D01*
X-21645861Y-18957265D01*
X-21654130Y-18960702D01*
X-21654154Y-18960702D01*
X-22485874Y-18960011D01*
X-22494144Y-18956577D01*
X-22497564Y-18948301D01*
X-22497357Y-18946122D01*
X-22387156Y-18367572D01*
X-22230501Y-17545130D01*
X-22227283Y-17539049D01*
X-22096352Y-17408118D01*
X-22088080Y-17404692D01*
X-22080147Y-17407792D01*
G37*
%TD.AperFunction*%
%TD*%
%TA.AperFunction,Conductor*%
%TO.N,/PA5{slash}SCLK*%
G36*
X-28024636Y-13712807D02*
G01*
X-28023832Y-13714748D01*
X-27745176Y-14606710D01*
X-27745389Y-14614307D01*
X-27932153Y-15112408D01*
X-27938266Y-15118951D01*
X-27943108Y-15120000D01*
X-28126892Y-15120000D01*
X-28135165Y-15116573D01*
X-28137847Y-15112408D01*
X-28324613Y-14614305D01*
X-28324825Y-14606713D01*
X-28046168Y-13714747D01*
X-28040430Y-13707873D01*
X-28031511Y-13707069D01*
X-28024636Y-13712807D01*
G37*
%TD.AperFunction*%
%TD*%
%TA.AperFunction,Conductor*%
%TO.N,/PA6{slash}MISO*%
G36*
X-29294693Y-6652986D02*
G01*
X-29293879Y-6654959D01*
X-29017286Y-7549239D01*
X-29017832Y-7557580D01*
X-29241869Y-8045227D01*
X-29248437Y-8051315D01*
X-29252501Y-8052043D01*
X-29436304Y-8052043D01*
X-29444577Y-8048616D01*
X-29447507Y-8043717D01*
X-29594987Y-7553982D01*
X-29594952Y-7547119D01*
X-29316224Y-6654924D01*
X-29310487Y-6648052D01*
X-29301568Y-6647248D01*
X-29294693Y-6652986D01*
G37*
%TD.AperFunction*%
%TD*%
%TA.AperFunction,Conductor*%
%TO.N,/PA6{slash}MISO*%
G36*
X-23026987Y-17373058D02*
G01*
X-23021515Y-17378961D01*
X-22930891Y-17595483D01*
X-22930858Y-17604437D01*
X-22930891Y-17604517D01*
X-23021515Y-17821038D01*
X-23027871Y-17827347D01*
X-23035913Y-17827652D01*
X-23421905Y-17702622D01*
X-23428720Y-17696812D01*
X-23430000Y-17691491D01*
X-23430000Y-17508508D01*
X-23426573Y-17500235D01*
X-23421909Y-17497378D01*
X-23035912Y-17372347D01*
X-23026987Y-17373058D01*
G37*
%TD.AperFunction*%
%TD*%
%TA.AperFunction,Conductor*%
%TO.N,/PA6{slash}MISO*%
G36*
X-20234510Y-17689504D02*
G01*
X-18796604Y-18170724D01*
X-18789846Y-18176599D01*
X-18789222Y-18185532D01*
X-18789503Y-18186285D01*
X-19107438Y-18956214D01*
X-19113763Y-18962553D01*
X-19113786Y-18962562D01*
X-19883715Y-19280497D01*
X-19892670Y-19280488D01*
X-19898995Y-19274149D01*
X-19899276Y-19273396D01*
X-20003305Y-18962553D01*
X-20380495Y-17835492D01*
X-20379871Y-17826562D01*
X-20377676Y-17823512D01*
X-20246490Y-17692326D01*
X-20238218Y-17688900D01*
X-20234510Y-17689504D01*
G37*
%TD.AperFunction*%
%TD*%
%TA.AperFunction,Conductor*%
%TO.N,/PA6{slash}MISO*%
G36*
X-20528594Y-17497378D02*
G01*
X-20521780Y-17503187D01*
X-20520500Y-17508508D01*
X-20520500Y-17691491D01*
X-20523927Y-17699764D01*
X-20528595Y-17702622D01*
X-20914588Y-17827652D01*
X-20923514Y-17826941D01*
X-20928986Y-17821038D01*
X-21019611Y-17604515D01*
X-21019643Y-17595563D01*
X-20928986Y-17378960D01*
X-20922630Y-17372652D01*
X-20914589Y-17372347D01*
X-20528594Y-17497378D01*
G37*
%TD.AperFunction*%
%TD*%
%TA.AperFunction,Conductor*%
%TO.N,/PB2*%
G36*
X-6405511Y-1340865D02*
G01*
X-5636276Y-1660472D01*
X-5629951Y-1666811D01*
X-5629960Y-1675766D01*
X-5630294Y-1676497D01*
X-6306770Y-3033520D01*
X-6313528Y-3039395D01*
X-6317241Y-3040000D01*
X-6502759Y-3040000D01*
X-6511032Y-3036573D01*
X-6513230Y-3033520D01*
X-7189707Y-1676497D01*
X-7190331Y-1667564D01*
X-7184456Y-1660806D01*
X-7183739Y-1660478D01*
X-6414489Y-1340864D01*
X-6405534Y-1340856D01*
X-6405511Y-1340865D01*
G37*
%TD.AperFunction*%
%TD*%
%TA.AperFunction,Conductor*%
%TO.N,/PB2*%
G36*
X-13971183Y-14629845D02*
G01*
X-13970991Y-14630280D01*
X-13881169Y-14846199D01*
X-13881156Y-14855154D01*
X-13881179Y-14855210D01*
X-13971404Y-15070773D01*
X-13977760Y-15077082D01*
X-13986094Y-15077288D01*
X-14430490Y-14920321D01*
X-14437149Y-14914334D01*
X-14437625Y-14905392D01*
X-14434868Y-14901018D01*
X-14308031Y-14774181D01*
X-14304694Y-14771848D01*
X-13986723Y-14624162D01*
X-13977776Y-14623786D01*
X-13971183Y-14629845D01*
G37*
%TD.AperFunction*%
%TD*%
%TA.AperFunction,Conductor*%
%TO.N,/PB1*%
G36*
X-4645173Y-1018900D02*
G01*
X-3876534Y-1336303D01*
X-3870195Y-1342628D01*
X-3869300Y-1347127D01*
X-3869992Y-2180207D01*
X-3873426Y-2188477D01*
X-3879641Y-2191716D01*
X-5127542Y-2413901D01*
X-5136288Y-2411977D01*
X-5137866Y-2410655D01*
X-5269048Y-2279473D01*
X-5272475Y-2271200D01*
X-5271274Y-2266038D01*
X-4660136Y-1024546D01*
X-4653408Y-1018638D01*
X-4645173Y-1018900D01*
G37*
%TD.AperFunction*%
%TD*%
%TA.AperFunction,Conductor*%
%TO.N,/PB1*%
G36*
X-13966987Y-13873058D02*
G01*
X-13961515Y-13878961D01*
X-13870891Y-14095482D01*
X-13870858Y-14104436D01*
X-13870891Y-14104516D01*
X-13961515Y-14321038D01*
X-13967871Y-14327347D01*
X-13975913Y-14327652D01*
X-14361905Y-14202622D01*
X-14368720Y-14196812D01*
X-14370000Y-14191491D01*
X-14370000Y-14008508D01*
X-14366573Y-14000235D01*
X-14361909Y-13997378D01*
X-13975912Y-13872347D01*
X-13966987Y-13873058D01*
G37*
%TD.AperFunction*%
%TD*%
%TA.AperFunction,Conductor*%
%TO.N,/PB0*%
G36*
X-2103718Y-1019501D02*
G01*
X-1333785Y-1337438D01*
X-1327448Y-1343761D01*
X-1327438Y-1343785D01*
X-1009503Y-2113714D01*
X-1009512Y-2122669D01*
X-1015851Y-2128994D01*
X-1016604Y-2129275D01*
X-2454505Y-2610494D01*
X-2463438Y-2609870D01*
X-2466491Y-2607672D01*
X-2597673Y-2476490D01*
X-2601100Y-2468217D01*
X-2600497Y-2464510D01*
X-2119275Y-1026601D01*
X-2113401Y-1019845D01*
X-2104468Y-1019221D01*
X-2103718Y-1019501D01*
G37*
%TD.AperFunction*%
%TD*%
%TA.AperFunction,Conductor*%
%TO.N,/PB0*%
G36*
X-13378094Y-13237378D02*
G01*
X-13371280Y-13243187D01*
X-13370000Y-13248508D01*
X-13370000Y-13431491D01*
X-13373427Y-13439764D01*
X-13378095Y-13442622D01*
X-13764088Y-13567652D01*
X-13773014Y-13566941D01*
X-13778486Y-13561038D01*
X-13869111Y-13344515D01*
X-13869143Y-13335563D01*
X-13778486Y-13118960D01*
X-13772130Y-13112652D01*
X-13764089Y-13112347D01*
X-13378094Y-13237378D01*
G37*
%TD.AperFunction*%
%TD*%
%TA.AperFunction,Conductor*%
%TO.N,/PA15*%
G36*
X-1101596Y-14880411D02*
G01*
X-1099201Y-14881414D01*
X-1092892Y-14887770D01*
X-1092676Y-14896076D01*
X-1227256Y-15280180D01*
X-1233226Y-15286854D01*
X-1238298Y-15288011D01*
X-1421300Y-15288011D01*
X-1429573Y-15284584D01*
X-1432505Y-15279680D01*
X-1547936Y-14895763D01*
X-1547036Y-14886853D01*
X-1541250Y-14881602D01*
X-1324516Y-14790889D01*
X-1315563Y-14790857D01*
X-1101596Y-14880411D01*
G37*
%TD.AperFunction*%
%TD*%
%TA.AperFunction,Conductor*%
%TO.N,/PA15*%
G36*
X-1228968Y-17263427D02*
G01*
X-1226770Y-17266480D01*
X-550294Y-18623502D01*
X-549670Y-18632435D01*
X-555545Y-18639193D01*
X-556276Y-18639527D01*
X-1325511Y-18959134D01*
X-1334466Y-18959143D01*
X-1334489Y-18959134D01*
X-2103725Y-18639527D01*
X-2110050Y-18633188D01*
X-2110041Y-18624233D01*
X-2109715Y-18623518D01*
X-1433231Y-17266480D01*
X-1426472Y-17260605D01*
X-1422759Y-17260000D01*
X-1237241Y-17260000D01*
X-1228968Y-17263427D01*
G37*
%TD.AperFunction*%
%TD*%
%TA.AperFunction,Conductor*%
%TO.N,/VDD_3.3V*%
G36*
X-12316705Y-15271604D02*
G01*
X-12310687Y-15278235D01*
X-12310000Y-15282184D01*
X-12310000Y-15530000D01*
X-12005995Y-15923941D01*
X-12003654Y-15932584D01*
X-12008110Y-15940352D01*
X-12010792Y-15941903D01*
X-12316521Y-16068150D01*
X-12325475Y-16068141D01*
X-12325476Y-16068140D01*
X-12632030Y-15940767D01*
X-12638355Y-15934429D01*
X-12638345Y-15925474D01*
X-12638121Y-15924968D01*
X-12451641Y-15530000D01*
X-12332280Y-15277188D01*
X-12325649Y-15271171D01*
X-12316705Y-15271604D01*
G37*
%TD.AperFunction*%
%TD*%
%TA.AperFunction,Conductor*%
%TO.N,/VDD_3.3V*%
G36*
X-31678894Y-10363109D02*
G01*
X-31328077Y-10477369D01*
X-31321271Y-10483190D01*
X-31320000Y-10488494D01*
X-31320000Y-10771505D01*
X-31323427Y-10779778D01*
X-31328077Y-10782630D01*
X-31678890Y-10896889D01*
X-31687817Y-10896193D01*
X-31691498Y-10893258D01*
X-31904754Y-10637491D01*
X-31907419Y-10628944D01*
X-31904754Y-10622508D01*
X-31691497Y-10366740D01*
X-31683569Y-10362583D01*
X-31678894Y-10363109D01*
G37*
%TD.AperFunction*%
%TD*%
%TA.AperFunction,Conductor*%
%TO.N,/VDD_3.3V*%
G36*
X707511Y-13107502D02*
G01*
X1542712Y-13941722D01*
X1546144Y-13949993D01*
X1542722Y-13958268D01*
X1542712Y-13958278D01*
X707511Y-14792497D01*
X699236Y-14795919D01*
X691805Y-14793251D01*
X-145738Y-14103509D01*
X-149946Y-14095604D01*
X-150000Y-14094477D01*
X-150000Y-13805522D01*
X-146573Y-13797249D01*
X-145738Y-13796490D01*
X691806Y-13106747D01*
X700370Y-13104134D01*
X707511Y-13107502D01*
G37*
%TD.AperFunction*%
%TD*%
%TA.AperFunction,Conductor*%
%TO.N,/VDD_3.3V*%
G36*
X-41615522Y-820868D02*
G01*
X-41401109Y-910344D01*
X-41306429Y-949855D01*
X-41300114Y-956204D01*
X-41299748Y-964079D01*
X-41467466Y-1511726D01*
X-41473165Y-1518633D01*
X-41478653Y-1520000D01*
X-41761347Y-1520000D01*
X-41769620Y-1516573D01*
X-41772534Y-1511726D01*
X-41940253Y-964079D01*
X-41939399Y-955165D01*
X-41933573Y-949855D01*
X-41624506Y-820879D01*
X-41615551Y-820857D01*
X-41615522Y-820868D01*
G37*
%TD.AperFunction*%
%TD*%
%TA.AperFunction,Conductor*%
%TO.N,/VDD_3.3V*%
G36*
X-30425628Y-12243427D02*
G01*
X-30422625Y-12248579D01*
X-30284898Y-12746133D01*
X-30285006Y-12752743D01*
X-30563832Y-13645251D01*
X-30569570Y-13652126D01*
X-30578489Y-13652930D01*
X-30585364Y-13647192D01*
X-30586168Y-13645251D01*
X-30864995Y-12752743D01*
X-30865103Y-12746134D01*
X-30727375Y-12248578D01*
X-30721865Y-12241520D01*
X-30716099Y-12240000D01*
X-30433901Y-12240000D01*
X-30425628Y-12243427D01*
G37*
%TD.AperFunction*%
%TD*%
%TA.AperFunction,Conductor*%
%TO.N,/VDD_3.3V*%
G36*
X-19199401Y-15228117D02*
G01*
X-19191963Y-15233100D01*
X-19190000Y-15239588D01*
X-19190000Y-15520411D01*
X-19193427Y-15528684D01*
X-19199403Y-15531883D01*
X-19584938Y-15609089D01*
X-19593723Y-15607354D01*
X-19598027Y-15602135D01*
X-19689111Y-15384515D01*
X-19689143Y-15375563D01*
X-19598027Y-15157863D01*
X-19591673Y-15151556D01*
X-19584941Y-15150910D01*
X-19199401Y-15228117D01*
G37*
%TD.AperFunction*%
%TD*%
%TA.AperFunction,Conductor*%
%TO.N,/VDD_3.3V*%
G36*
X-23125166Y-4501101D02*
G01*
X-23119856Y-4506928D01*
X-22990881Y-4815994D01*
X-22990858Y-4824949D01*
X-22990881Y-4825006D01*
X-23119856Y-5134071D01*
X-23126205Y-5140386D01*
X-23134080Y-5140752D01*
X-23681726Y-4973033D01*
X-23688633Y-4967334D01*
X-23690000Y-4961846D01*
X-23690000Y-4679153D01*
X-23686573Y-4670880D01*
X-23681726Y-4667966D01*
X-23134079Y-4500247D01*
X-23125166Y-4501101D01*
G37*
%TD.AperFunction*%
%TD*%
%TA.AperFunction,Conductor*%
%TO.N,/VDD_3.3V*%
G36*
X-24582491Y-4668143D02*
G01*
X-24575415Y-4673632D01*
X-24573879Y-4679428D01*
X-24573879Y-4962144D01*
X-24577306Y-4970417D01*
X-24581782Y-4973211D01*
X-25125689Y-5159799D01*
X-25134627Y-5159242D01*
X-25140284Y-5153238D01*
X-25173170Y-5074433D01*
X-25269121Y-4844505D01*
X-25269143Y-4835551D01*
X-25269120Y-4835494D01*
X-25140023Y-4526134D01*
X-25133675Y-4519821D01*
X-25126141Y-4519357D01*
X-24582491Y-4668143D01*
G37*
%TD.AperFunction*%
%TD*%
%TA.AperFunction,Conductor*%
%TO.N,/VDD_3.3V*%
G36*
X-33177230Y-11679318D02*
G01*
X-32976794Y-11879754D01*
X-32973367Y-11888027D01*
X-32973666Y-11890657D01*
X-33153154Y-12668766D01*
X-33158353Y-12676057D01*
X-33167185Y-12677537D01*
X-33169010Y-12676955D01*
X-33171191Y-12676057D01*
X-33570531Y-12511603D01*
X-33574368Y-12509039D01*
X-33880616Y-12201427D01*
X-33884024Y-12193146D01*
X-33880579Y-12184880D01*
X-33879260Y-12183750D01*
X-33481099Y-11890657D01*
X-33192438Y-11678168D01*
X-33183745Y-11676024D01*
X-33177230Y-11679318D01*
G37*
%TD.AperFunction*%
%TD*%
%TA.AperFunction,Conductor*%
%TO.N,/VDD_3.3V*%
G36*
X-32211366Y-10541551D02*
G01*
X-31914787Y-10627697D01*
X-31907799Y-10633296D01*
X-31907179Y-10634610D01*
X-31801420Y-10900559D01*
X-31801547Y-10909512D01*
X-31806486Y-10915040D01*
X-32257164Y-11172620D01*
X-32266048Y-11173750D01*
X-32271243Y-11170735D01*
X-32470578Y-10971400D01*
X-32474005Y-10963127D01*
X-32472322Y-10957081D01*
X-32224646Y-10546740D01*
X-32217438Y-10541429D01*
X-32211366Y-10541551D01*
G37*
%TD.AperFunction*%
%TD*%
%TA.AperFunction,Conductor*%
%TO.N,/VDD_3.3V*%
G36*
X-36292240Y-15753654D02*
G01*
X-36286806Y-15759546D01*
X-36157881Y-16068494D01*
X-36157858Y-16077449D01*
X-36157881Y-16077506D01*
X-36286899Y-16386676D01*
X-36293248Y-16392991D01*
X-36301003Y-16393393D01*
X-36847214Y-16232472D01*
X-36854182Y-16226847D01*
X-36855608Y-16221249D01*
X-36855608Y-15938545D01*
X-36852181Y-15930272D01*
X-36847468Y-15927400D01*
X-36301162Y-15752907D01*
X-36292240Y-15753654D01*
G37*
%TD.AperFunction*%
%TD*%
%TA.AperFunction,Conductor*%
%TO.N,/BOOT0*%
G36*
X-23658094Y-14557378D02*
G01*
X-23651280Y-14563187D01*
X-23650000Y-14568508D01*
X-23650000Y-14751491D01*
X-23653427Y-14759764D01*
X-23658095Y-14762622D01*
X-24044088Y-14887652D01*
X-24053014Y-14886941D01*
X-24058486Y-14881038D01*
X-24149111Y-14664515D01*
X-24149143Y-14655563D01*
X-24058486Y-14438960D01*
X-24052130Y-14432652D01*
X-24044089Y-14432347D01*
X-23658094Y-14557378D01*
G37*
%TD.AperFunction*%
%TD*%
%TA.AperFunction,Conductor*%
%TO.N,/BOOT0*%
G36*
X-10938037Y-6548460D02*
G01*
X-10720972Y-6637435D01*
X-10714616Y-6643744D01*
X-10714583Y-6643824D01*
X-10625516Y-6861114D01*
X-10625549Y-6870068D01*
X-10630910Y-6875914D01*
X-10988086Y-7063132D01*
X-10997005Y-7063937D01*
X-11001791Y-7061042D01*
X-11131187Y-6931646D01*
X-11134614Y-6923373D01*
X-11133398Y-6918181D01*
X-10952956Y-6554091D01*
X-10946212Y-6548201D01*
X-10938037Y-6548460D01*
G37*
%TD.AperFunction*%
%TD*%
%TA.AperFunction,Conductor*%
%TO.N,/BOOT0*%
G36*
X-31098962Y-12021514D02*
G01*
X-31092653Y-12027870D01*
X-31092348Y-12035912D01*
X-31217378Y-12421905D01*
X-31223188Y-12428720D01*
X-31228509Y-12430000D01*
X-31411491Y-12430000D01*
X-31419764Y-12426573D01*
X-31422622Y-12421905D01*
X-31547653Y-12035912D01*
X-31546942Y-12026986D01*
X-31541040Y-12021514D01*
X-31324516Y-11930889D01*
X-31315563Y-11930857D01*
X-31098962Y-12021514D01*
G37*
%TD.AperFunction*%
%TD*%
%TA.AperFunction,Conductor*%
%TO.N,/BOOT0*%
G36*
X-31220236Y-14173427D02*
G01*
X-31217378Y-14178095D01*
X-31092348Y-14564087D01*
X-31093059Y-14573013D01*
X-31098962Y-14578485D01*
X-31315483Y-14669109D01*
X-31324437Y-14669142D01*
X-31324517Y-14669109D01*
X-31541039Y-14578485D01*
X-31547348Y-14572129D01*
X-31547653Y-14564088D01*
X-31422623Y-14178095D01*
X-31416812Y-14171280D01*
X-31411491Y-14170000D01*
X-31228509Y-14170000D01*
X-31220236Y-14173427D01*
G37*
%TD.AperFunction*%
%TD*%
%TA.AperFunction,Conductor*%
%TO.N,/NRST*%
G36*
X-14840236Y-7073927D02*
G01*
X-14837378Y-7078595D01*
X-14712348Y-7464587D01*
X-14713059Y-7473513D01*
X-14718962Y-7478985D01*
X-14935483Y-7569609D01*
X-14944437Y-7569642D01*
X-14944517Y-7569609D01*
X-15161039Y-7478985D01*
X-15167348Y-7472629D01*
X-15167653Y-7464588D01*
X-15042623Y-7078595D01*
X-15036812Y-7071780D01*
X-15031491Y-7070500D01*
X-14848509Y-7070500D01*
X-14840236Y-7073927D01*
G37*
%TD.AperFunction*%
%TD*%
%TA.AperFunction,Conductor*%
%TO.N,/NRST*%
G36*
X-23648094Y-5427378D02*
G01*
X-23641280Y-5433187D01*
X-23640000Y-5438508D01*
X-23640000Y-5621491D01*
X-23643427Y-5629764D01*
X-23648095Y-5632622D01*
X-24034088Y-5757652D01*
X-24043014Y-5756941D01*
X-24048486Y-5751038D01*
X-24099146Y-5630000D01*
X-24139111Y-5534515D01*
X-24139143Y-5525562D01*
X-24048486Y-5308960D01*
X-24042130Y-5302652D01*
X-24034089Y-5302347D01*
X-23648094Y-5427378D01*
G37*
%TD.AperFunction*%
%TD*%
%TA.AperFunction,Conductor*%
%TO.N,/PA4{slash}CS*%
G36*
X-30559223Y-5175162D02*
G01*
X-30556674Y-5177093D01*
X-30427975Y-5305792D01*
X-30425284Y-5309982D01*
X-30285377Y-5685698D01*
X-30285176Y-5693279D01*
X-30563626Y-6582140D01*
X-30569369Y-6589010D01*
X-30578289Y-6589807D01*
X-30585159Y-6584064D01*
X-30586098Y-6581650D01*
X-30822438Y-5693279D01*
X-30834357Y-5648476D01*
X-30833255Y-5639749D01*
X-30575149Y-5179640D01*
X-30568115Y-5174103D01*
X-30559223Y-5175162D01*
G37*
%TD.AperFunction*%
%TD*%
%TA.AperFunction,Conductor*%
%TO.N,/PA4{slash}CS*%
G36*
X-21806987Y-12173058D02*
G01*
X-21801515Y-12178961D01*
X-21710891Y-12395482D01*
X-21710858Y-12404436D01*
X-21710891Y-12404516D01*
X-21801515Y-12621038D01*
X-21807871Y-12627347D01*
X-21815913Y-12627652D01*
X-22201905Y-12502622D01*
X-22208720Y-12496812D01*
X-22210000Y-12491491D01*
X-22210000Y-12308508D01*
X-22206573Y-12300235D01*
X-22201909Y-12297378D01*
X-21815912Y-12172347D01*
X-21806987Y-12173058D01*
G37*
%TD.AperFunction*%
%TD*%
%TA.AperFunction,Conductor*%
%TO.N,/PA4{slash}CS*%
G36*
X-19188094Y-14327378D02*
G01*
X-19181280Y-14333187D01*
X-19180000Y-14338508D01*
X-19180000Y-14521491D01*
X-19183427Y-14529764D01*
X-19188095Y-14532622D01*
X-19574088Y-14657652D01*
X-19583014Y-14656941D01*
X-19588486Y-14651038D01*
X-19679111Y-14434515D01*
X-19679143Y-14425563D01*
X-19588486Y-14208960D01*
X-19582130Y-14202652D01*
X-19574089Y-14202347D01*
X-19188094Y-14327378D01*
G37*
%TD.AperFunction*%
%TD*%
%TA.AperFunction,Conductor*%
%TO.N,/PA4{slash}CS*%
G36*
X-15986486Y-14203080D02*
G01*
X-15981015Y-14208983D01*
X-15890391Y-14425506D01*
X-15890358Y-14434460D01*
X-15890391Y-14434540D01*
X-15981015Y-14651061D01*
X-15987371Y-14657370D01*
X-15995414Y-14657674D01*
X-16381401Y-14532622D01*
X-16388215Y-14526813D01*
X-16389495Y-14521492D01*
X-16389495Y-14338509D01*
X-16386068Y-14330236D01*
X-16381402Y-14327378D01*
X-15995411Y-14202369D01*
X-15986486Y-14203080D01*
G37*
%TD.AperFunction*%
%TD*%
%TA.AperFunction,Conductor*%
%TO.N,/PA7{slash}MOSI*%
G36*
X-17691232Y-17702040D02*
G01*
X-17286029Y-17834443D01*
X-16256716Y-18170781D01*
X-16249917Y-18176608D01*
X-16249230Y-18185536D01*
X-16249537Y-18186368D01*
X-16567438Y-18956214D01*
X-16573763Y-18962553D01*
X-16573786Y-18962562D01*
X-17344401Y-19280781D01*
X-17353356Y-19280772D01*
X-17359681Y-19274433D01*
X-17359715Y-19274350D01*
X-17485692Y-18962562D01*
X-17804023Y-18174702D01*
X-17907290Y-17919120D01*
X-17907212Y-17910166D01*
X-17904718Y-17906467D01*
X-17703138Y-17704887D01*
X-17694866Y-17701461D01*
X-17691232Y-17702040D01*
G37*
%TD.AperFunction*%
%TD*%
%TA.AperFunction,Conductor*%
%TO.N,/PA7{slash}MOSI*%
G36*
X-26754637Y-13712807D02*
G01*
X-26753833Y-13714748D01*
X-26475006Y-14607256D01*
X-26474898Y-14613866D01*
X-26612625Y-15111421D01*
X-26618135Y-15118480D01*
X-26623901Y-15120000D01*
X-26906099Y-15120000D01*
X-26914372Y-15116573D01*
X-26917375Y-15111421D01*
X-27055103Y-14613866D01*
X-27054996Y-14607257D01*
X-26776168Y-13714746D01*
X-26770431Y-13707873D01*
X-26761512Y-13707069D01*
X-26754637Y-13712807D01*
G37*
%TD.AperFunction*%
%TD*%
%TA.AperFunction,Conductor*%
%TO.N,/PA15*%
G36*
X-4170025Y-14295416D02*
G01*
X-4167256Y-14299820D01*
X-4032676Y-14683923D01*
X-4033175Y-14692864D01*
X-4039201Y-14698585D01*
X-4255483Y-14789109D01*
X-4264437Y-14789142D01*
X-4264517Y-14789109D01*
X-4481248Y-14698398D01*
X-4487557Y-14692042D01*
X-4487936Y-14684237D01*
X-4372505Y-14300319D01*
X-4366841Y-14293384D01*
X-4361300Y-14291989D01*
X-4178298Y-14291989D01*
X-4170025Y-14295416D01*
G37*
%TD.AperFunction*%
%TD*%
%TA.AperFunction,Conductor*%
%TO.N,/PA15*%
G36*
X-4058753Y-7511601D02*
G01*
X-4052444Y-7517957D01*
X-4052065Y-7525763D01*
X-4167495Y-7909680D01*
X-4173159Y-7916616D01*
X-4178700Y-7918011D01*
X-4361702Y-7918011D01*
X-4369975Y-7914584D01*
X-4372744Y-7910180D01*
X-4372919Y-7909680D01*
X-4507325Y-7526074D01*
X-4506826Y-7517135D01*
X-4500801Y-7511414D01*
X-4284516Y-7420889D01*
X-4275563Y-7420857D01*
X-4058753Y-7511601D01*
G37*
%TD.AperFunction*%
%TD*%
M02*
