M48
; DRILL file {KiCad (6.0.10)} date Tue Jan 24 21:43:45 2023
; FORMAT={-:-/ absolute / metric / decimal}
; #@! TF.CreationDate,2023-01-24T21:43:45+08:00
; #@! TF.GenerationSoftware,Kicad,Pcbnew,(6.0.10)
; #@! TF.FileFunction,MixedPlating,1,2
FMAT,2
METRIC
; #@! TA.AperFunction,Plated,PTH,ViaDrill
T1C0.200
; #@! TA.AperFunction,Plated,PTH,ViaDrill
T2C0.300
; #@! TA.AperFunction,Plated,PTH,ViaDrill
T3C0.500
; #@! TA.AperFunction,Plated,PTH,ComponentDrill
T4C0.600
; #@! TA.AperFunction,Plated,PTH,ComponentDrill
T5C1.000
; #@! TA.AperFunction,Plated,PTH,ComponentDrill
T6C1.200
%
G90
G05
T1
X11.058Y-13.94
X11.63Y-11.05
X12.04Y-10.59
X12.52Y-10.16
X12.94Y-9.72
X13.39Y-9.29
X14.21Y-6.37
X14.21Y-7.13
X14.22Y-5.62
X14.85Y-12.899
X16.106Y-12.899
X16.229Y-6.04
X20.13Y-6.04
X22.19Y-8.07
X24.48Y-14.94
X24.5Y-5.64
T2
X0.26Y-4.01
X1.66Y-5.68
X2.95Y-4.94
X3.77Y-10.45
X4.61Y-7.68
X4.62Y-13.05
X5.73Y-3.54
X8.12Y-4.28
X10.16Y-4.29
X10.17Y-5.81
X10.62Y-17.35
X14.07Y-14.74
X20.03Y-5.09
X23.33Y-15.649
X25.61Y-15.63
X32.22Y-12.42
X34.62Y-16.13
X35.59Y-3.92
T3
X8.55Y-14.14
X8.57Y-16.55
X12.4Y-4.15
X13.67Y-16.48
X13.82Y-4.15
X19.74Y-7.97
X30.63Y-10.23
X33.912Y-8.112
X36.52Y-19.17
T5
X-1.21Y-6.52
X-1.21Y-9.06
X-1.21Y-11.6
X-1.21Y-14.14
X1.66Y-19.05
X1.67Y-1.49
X4.2Y-19.05
X4.21Y-1.49
X6.74Y-19.05
X6.75Y-1.49
X9.28Y-19.05
X9.29Y-1.49
X11.82Y-19.05
X11.83Y-1.49
X14.36Y-19.05
X14.37Y-1.49
X16.9Y-19.05
X16.91Y-1.49
X19.44Y-19.05
X19.45Y-1.49
X21.98Y-19.05
X21.99Y-1.49
X24.52Y-19.05
X24.53Y-1.49
X27.06Y-19.05
X27.07Y-1.49
X29.6Y-19.05
X29.61Y-1.49
X32.14Y-19.05
X32.15Y-1.49
X34.68Y-19.05
X34.69Y-1.49
T6
X-0.77Y-2.36
X-0.74Y-18.17
X43.74Y-2.36
X43.74Y-18.18
T4
G00X39.56Y-5.96
M15
G01X40.36Y-5.96
M16
G05
G00X39.56Y-14.6
M15
G01X40.36Y-14.6
M16
G05
G00X43.36Y-5.96
M15
G01X44.16Y-5.96
M16
G05
G00X43.36Y-14.6
M15
G01X44.16Y-14.6
M16
G05
T0
M30
