%TF.GenerationSoftware,KiCad,Pcbnew,(6.0.10)*%
%TF.CreationDate,2023-01-24T21:51:22+08:00*%
%TF.ProjectId,UINIO-MCU-STM32L051K8,55494e49-4f2d-44d4-9355-2d53544d3332,Version 3.1.0*%
%TF.SameCoordinates,PX7d37aa0PY554e610*%
%TF.FileFunction,Copper,L2,Bot*%
%TF.FilePolarity,Positive*%
%FSLAX46Y46*%
G04 Gerber Fmt 4.6, Leading zero omitted, Abs format (unit mm)*
G04 Created by KiCad (PCBNEW (6.0.10)) date 2023-01-24 21:51:22*
%MOMM*%
%LPD*%
G01*
G04 APERTURE LIST*
G04 Aperture macros list*
%AMRoundRect*
0 Rectangle with rounded corners*
0 $1 Rounding radius*
0 $2 $3 $4 $5 $6 $7 $8 $9 X,Y pos of 4 corners*
0 Add a 4 corners polygon primitive as box body*
4,1,4,$2,$3,$4,$5,$6,$7,$8,$9,$2,$3,0*
0 Add four circle primitives for the rounded corners*
1,1,$1+$1,$2,$3*
1,1,$1+$1,$4,$5*
1,1,$1+$1,$6,$7*
1,1,$1+$1,$8,$9*
0 Add four rect primitives between the rounded corners*
20,1,$1+$1,$2,$3,$4,$5,0*
20,1,$1+$1,$4,$5,$6,$7,0*
20,1,$1+$1,$6,$7,$8,$9,0*
20,1,$1+$1,$8,$9,$2,$3,0*%
G04 Aperture macros list end*
%TA.AperFunction,ComponentPad*%
%ADD10C,1.200000*%
%TD*%
%TA.AperFunction,ComponentPad*%
%ADD11R,1.700000X1.700000*%
%TD*%
%TA.AperFunction,ComponentPad*%
%ADD12O,1.700000X1.700000*%
%TD*%
%TA.AperFunction,ComponentPad*%
%ADD13O,1.800000X1.000000*%
%TD*%
%TA.AperFunction,SMDPad,CuDef*%
%ADD14O,0.630000X2.250000*%
%TD*%
%TA.AperFunction,SMDPad,CuDef*%
%ADD15RoundRect,0.140000X0.170000X-0.140000X0.170000X0.140000X-0.170000X0.140000X-0.170000X-0.140000X0*%
%TD*%
%TA.AperFunction,ViaPad*%
%ADD16C,0.500000*%
%TD*%
%TA.AperFunction,ViaPad*%
%ADD17C,0.900000*%
%TD*%
%TA.AperFunction,ViaPad*%
%ADD18C,0.700000*%
%TD*%
%TA.AperFunction,Conductor*%
%ADD19C,0.500000*%
%TD*%
%TA.AperFunction,Conductor*%
%ADD20C,0.300000*%
%TD*%
%TA.AperFunction,Conductor*%
%ADD21C,0.400000*%
%TD*%
%TA.AperFunction,Conductor*%
%ADD22C,0.200000*%
%TD*%
G04 APERTURE END LIST*
D10*
%TO.P,Hole3,*%
%TO.N,*%
X43740000Y-18180000D03*
%TD*%
%TO.P,Hole1,*%
%TO.N,*%
X-770000Y-2360000D03*
%TD*%
D11*
%TO.P,J3,1,Pin_1*%
%TO.N,/VDD_3.3V*%
X-1210000Y-6520000D03*
D12*
%TO.P,J3,2,Pin_2*%
%TO.N,/PA13{slash}SWDIO*%
X-1210000Y-9060000D03*
%TO.P,J3,3,Pin_3*%
%TO.N,/PA14{slash}SWCLK*%
X-1210000Y-11600000D03*
%TO.P,J3,4,Pin_4*%
%TO.N,GND*%
X-1210000Y-14140000D03*
%TD*%
D13*
%TO.P,USB1,1,GND*%
%TO.N,GND*%
X39960000Y-14600000D03*
%TO.P,USB1,2,GND*%
X39960000Y-5960000D03*
%TO.P,USB1,3,GND*%
X43760000Y-14600000D03*
%TO.P,USB1,4,GND*%
X43760000Y-5960000D03*
%TD*%
D10*
%TO.P,Hole2,*%
%TO.N,*%
X-740000Y-18170000D03*
%TD*%
%TO.P,Hole4,*%
%TO.N,*%
X43740000Y-2360000D03*
%TD*%
D11*
%TO.P,J2,1,Pin_1*%
%TO.N,/VDD_5V*%
X34680000Y-19050000D03*
D12*
%TO.P,J2,2,Pin_2*%
%TO.N,GND*%
X32140000Y-19050000D03*
%TO.P,J2,3,Pin_3*%
%TO.N,/VDD_3.3V*%
X29600000Y-19050000D03*
%TO.P,J2,4,Pin_4*%
%TO.N,GND*%
X27060000Y-19050000D03*
%TO.P,J2,5,Pin_5*%
%TO.N,/NRST*%
X24520000Y-19050000D03*
%TO.P,J2,6,Pin_6*%
%TO.N,/PB8*%
X21980000Y-19050000D03*
%TO.P,J2,7,Pin_7*%
%TO.N,/PB7*%
X19440000Y-19050000D03*
%TO.P,J2,8,Pin_8*%
%TO.N,/PB6*%
X16900000Y-19050000D03*
%TO.P,J2,9,Pin_9*%
%TO.N,/PB5*%
X14360000Y-19050000D03*
%TO.P,J2,10,Pin_10*%
%TO.N,/PB4*%
X11820000Y-19050000D03*
%TO.P,J2,11,Pin_11*%
%TO.N,/PB3*%
X9280000Y-19050000D03*
%TO.P,J2,12,Pin_12*%
%TO.N,/PB2*%
X6740000Y-19050000D03*
%TO.P,J2,13,Pin_13*%
%TO.N,/PB1*%
X4200000Y-19050000D03*
%TO.P,J2,14,Pin_14*%
%TO.N,/PB0*%
X1660000Y-19050000D03*
%TD*%
D14*
%TO.P,U2,1,CS#*%
%TO.N,/PA4{slash}CS*%
X30915000Y-13760000D03*
%TO.P,U2,2,DO(IO1)*%
%TO.N,/PA6{slash}MISO*%
X29645000Y-13760000D03*
%TO.P,U2,3,WP#(IO2)*%
%TO.N,GND*%
X28375000Y-13760000D03*
%TO.P,U2,4,GND*%
X27105000Y-13760000D03*
%TO.P,U2,5,DI(IO0)*%
%TO.N,/PA7{slash}MOSI*%
X27105000Y-6700000D03*
%TO.P,U2,6,CLK*%
%TO.N,/PA5{slash}SCLK*%
X28375000Y-6700000D03*
%TO.P,U2,7,HOLD#/RESET#/(IO3)*%
%TO.N,GND*%
X29645000Y-6700000D03*
%TO.P,U2,8,VCC*%
%TO.N,/VDD_3.3V*%
X30915000Y-6700000D03*
%TD*%
D15*
%TO.P,C3,1*%
%TO.N,GND*%
X32630000Y-10680000D03*
%TO.P,C3,2*%
%TO.N,/VDD_3.3V*%
X32630000Y-9720000D03*
%TD*%
D11*
%TO.P,J1,1,Pin_1*%
%TO.N,/PA0*%
X34690000Y-1490000D03*
D12*
%TO.P,J1,2,Pin_2*%
%TO.N,/PA1*%
X32150000Y-1490000D03*
%TO.P,J1,3,Pin_3*%
%TO.N,/PA2*%
X29610000Y-1490000D03*
%TO.P,J1,4,Pin_4*%
%TO.N,/PA3*%
X27070000Y-1490000D03*
%TO.P,J1,5,Pin_5*%
%TO.N,/PA4{slash}CS*%
X24530000Y-1490000D03*
%TO.P,J1,6,Pin_6*%
%TO.N,/PA5{slash}SCLK*%
X21990000Y-1490000D03*
%TO.P,J1,7,Pin_7*%
%TO.N,/PA6{slash}MISO*%
X19450000Y-1490000D03*
%TO.P,J1,8,Pin_8*%
%TO.N,/PA7{slash}MOSI*%
X16910000Y-1490000D03*
%TO.P,J1,9,Pin_9*%
%TO.N,/PA8*%
X14370000Y-1490000D03*
%TO.P,J1,10,Pin_10*%
%TO.N,/PA9*%
X11830000Y-1490000D03*
%TO.P,J1,11,Pin_11*%
%TO.N,/PA10*%
X9290000Y-1490000D03*
%TO.P,J1,12,Pin_12*%
%TO.N,/PA11*%
X6750000Y-1490000D03*
%TO.P,J1,13,Pin_13*%
%TO.N,/PA12*%
X4210000Y-1490000D03*
%TO.P,J1,14,Pin_14*%
%TO.N,/PA15*%
X1670000Y-1490000D03*
%TD*%
D16*
%TO.N,GND*%
X35590000Y-3920000D03*
D17*
X13820000Y-4150000D03*
D16*
X5730000Y-3540000D03*
X3770000Y-10450000D03*
X260000Y-4010000D03*
D17*
X8550000Y-14140000D03*
X30630000Y-10230000D03*
D16*
X16105837Y-12899500D03*
X10160000Y-4290000D03*
D17*
X19740000Y-7970000D03*
D16*
X34620000Y-16130000D03*
X2950000Y-4940000D03*
X8120000Y-4280000D03*
D18*
X32220000Y-12420000D03*
D17*
X36520000Y-19170000D03*
D16*
X12940000Y-9720000D03*
X10620000Y-17350000D03*
X12520000Y-10160000D03*
X11630000Y-11050000D03*
X12040000Y-10590000D03*
D17*
X13670000Y-16480000D03*
D16*
X14070000Y-14740000D03*
X13390000Y-9290000D03*
D17*
X8570000Y-16550000D03*
D16*
X10170000Y-5810000D03*
%TO.N,/VDD_3.3V*%
X20030000Y-5090000D03*
D18*
X23330000Y-15649500D03*
D17*
X33912000Y-8112000D03*
X12400000Y-4150000D03*
D18*
X25610000Y-15630000D03*
D16*
%TO.N,/BOOT0*%
X11057647Y-13940000D03*
X24500000Y-5640000D03*
%TO.N,/NRST*%
X14850000Y-12899500D03*
X24480000Y-14940000D03*
%TO.N,/PA4{slash}CS*%
X22190000Y-8070000D03*
X20130000Y-6040000D03*
X16229500Y-6039977D03*
%TO.N,/PA15*%
X4610000Y-7680000D03*
X1660000Y-5680000D03*
X4620000Y-13050000D03*
%TO.N,/PB0*%
X14210000Y-7130000D03*
%TO.N,/PB1*%
X14210000Y-6370000D03*
%TO.N,/PB2*%
X14220000Y-5620000D03*
%TD*%
D19*
%TO.N,GND*%
X39960000Y-15730000D02*
X39960000Y-14600000D01*
X36520000Y-19170000D02*
X39960000Y-15730000D01*
D20*
X31890000Y-17110000D02*
X31890000Y-18650000D01*
X30990000Y-16510000D02*
X27310000Y-16510000D01*
X21230000Y-4820000D02*
X21230000Y-6480000D01*
X13700000Y-16510000D02*
X26780000Y-16510000D01*
X20540000Y-4130000D02*
X21230000Y-4820000D01*
X13840000Y-4130000D02*
X20540000Y-4130000D01*
D19*
X32220000Y-11820000D02*
X30630000Y-10230000D01*
X33170000Y-10680000D02*
X37655000Y-6195000D01*
D20*
X28375000Y-13760000D02*
X28375000Y-15255000D01*
D19*
X32220000Y-12420000D02*
X32220000Y-11820000D01*
D21*
X13390000Y-9290000D02*
X11630000Y-11050000D01*
D20*
X27105000Y-15265000D02*
X27930000Y-16090000D01*
D21*
X30610000Y-10230000D02*
X30630000Y-10230000D01*
D20*
X27130000Y-16510000D02*
X27060000Y-16580000D01*
D19*
X32630000Y-10680000D02*
X31080000Y-10680000D01*
D22*
X6470000Y-4280000D02*
X8120000Y-4280000D01*
D20*
X30440000Y-15660000D02*
X32030000Y-17250000D01*
D19*
X34850000Y-14660000D02*
X32260000Y-17250000D01*
D20*
X30870000Y-16090000D02*
X31890000Y-17110000D01*
D19*
X31080000Y-10680000D02*
X30630000Y-10230000D01*
D21*
X37655000Y-5985000D02*
X37655000Y-6195000D01*
D20*
X27060000Y-16580000D02*
X27060000Y-19050000D01*
X13610000Y-16540000D02*
X13670000Y-16480000D01*
D21*
X29645000Y-6700000D02*
X29645000Y-9265000D01*
X29645000Y-9265000D02*
X30610000Y-10230000D01*
X8550000Y-14140000D02*
X8550000Y-14130000D01*
D19*
X37655000Y-6195000D02*
X37890000Y-5960000D01*
D20*
X8570000Y-16550000D02*
X8580000Y-16540000D01*
X32030000Y-17250000D02*
X32030000Y-19050000D01*
D19*
X39110000Y-14660000D02*
X34850000Y-14660000D01*
D22*
X5730000Y-3540000D02*
X6470000Y-4280000D01*
D20*
X13820000Y-4150000D02*
X13840000Y-4130000D01*
X8580000Y-16540000D02*
X13610000Y-16540000D01*
D19*
X32260000Y-17250000D02*
X32260000Y-18930000D01*
X37890000Y-5960000D02*
X39960000Y-5960000D01*
D20*
X27930000Y-16090000D02*
X30870000Y-16090000D01*
X27130000Y-16510000D02*
X27310000Y-16510000D01*
X26780000Y-16510000D02*
X27130000Y-16510000D01*
X32140000Y-18810000D02*
X32140000Y-17660000D01*
X35590000Y-3920000D02*
X37655000Y-5985000D01*
X27105000Y-13760000D02*
X27105000Y-15265000D01*
X13670000Y-16480000D02*
X13700000Y-16510000D01*
X28780000Y-15660000D02*
X30440000Y-15660000D01*
X28375000Y-15255000D02*
X28780000Y-15660000D01*
X32140000Y-17660000D02*
X30990000Y-16510000D01*
D21*
X8550000Y-14130000D02*
X11630000Y-11050000D01*
D19*
X32630000Y-10680000D02*
X33170000Y-10680000D01*
D20*
X21230000Y-6480000D02*
X19740000Y-7970000D01*
%TO.N,/VDD_3.3V*%
X32630000Y-9720000D02*
X31330000Y-9720000D01*
X3480000Y-6520000D02*
X4910000Y-5090000D01*
X12400000Y-4150000D02*
X12400000Y-5020000D01*
X25590500Y-15649500D02*
X25610000Y-15630000D01*
X30915000Y-9305000D02*
X30915000Y-6700000D01*
X12400000Y-5020000D02*
X12470000Y-5090000D01*
X3480000Y-6520000D02*
X-1210000Y-6520000D01*
X31330000Y-9720000D02*
X30915000Y-9305000D01*
X32630000Y-9720000D02*
X33110000Y-9720000D01*
X33110000Y-9720000D02*
X33912000Y-8918000D01*
X23330000Y-15649500D02*
X25590500Y-15649500D01*
X33912000Y-8918000D02*
X33912000Y-8112000D01*
X4910000Y-5090000D02*
X12470000Y-5090000D01*
X20030000Y-5090000D02*
X12470000Y-5090000D01*
D22*
%TO.N,/BOOT0*%
X23020000Y-5640000D02*
X18740000Y-9920000D01*
X18725026Y-9920000D02*
X16195026Y-12450000D01*
X18740000Y-9920000D02*
X18725026Y-9920000D01*
X12547647Y-12450000D02*
X11057647Y-13940000D01*
X24500000Y-5640000D02*
X23020000Y-5640000D01*
X16195026Y-12450000D02*
X12547647Y-12450000D01*
%TO.N,/NRST*%
X24480000Y-14940000D02*
X15700000Y-14940000D01*
X14850000Y-14090000D02*
X14850000Y-12899500D01*
X15700000Y-14940000D02*
X14850000Y-14090000D01*
%TO.N,/PA4{slash}CS*%
X29140000Y-15250000D02*
X30820000Y-15250000D01*
X30955000Y-15115000D02*
X30955000Y-14105000D01*
X26300000Y-8070000D02*
X29010000Y-10780000D01*
X29010000Y-10780000D02*
X29010000Y-15120000D01*
X29010000Y-15120000D02*
X29140000Y-15250000D01*
X30820000Y-15250000D02*
X30955000Y-15115000D01*
X16229523Y-6040000D02*
X16229500Y-6039977D01*
X22190000Y-8070000D02*
X26300000Y-8070000D01*
X20130000Y-6040000D02*
X16229523Y-6040000D01*
D20*
%TO.N,/PA5{slash}SCLK*%
X28375000Y-4415000D02*
X26670000Y-2710000D01*
X23210000Y-2710000D02*
X21990000Y-1490000D01*
X26670000Y-2710000D02*
X23210000Y-2710000D01*
X28375000Y-6700000D02*
X28375000Y-4415000D01*
%TO.N,/PA6{slash}MISO*%
X29050000Y-9930000D02*
X29050000Y-4190000D01*
X28370000Y-3510000D02*
X28370000Y-1100000D01*
X29685000Y-13720000D02*
X29685000Y-10565000D01*
X20550000Y-390000D02*
X19450000Y-1490000D01*
X27660000Y-390000D02*
X20550000Y-390000D01*
X28370000Y-1100000D02*
X27660000Y-390000D01*
X29685000Y-10565000D02*
X29050000Y-9930000D01*
X29050000Y-4190000D02*
X28370000Y-3510000D01*
%TO.N,/PA7{slash}MOSI*%
X18660000Y-3240000D02*
X16910000Y-1490000D01*
X27105000Y-6700000D02*
X27105000Y-4085000D01*
X27105000Y-4085000D02*
X26260000Y-3240000D01*
X26260000Y-3240000D02*
X18660000Y-3240000D01*
D22*
%TO.N,/PA15*%
X1660000Y-5680000D02*
X1670000Y-5670000D01*
X1670000Y-5670000D02*
X1670000Y-1490000D01*
X4610000Y-13040000D02*
X4610000Y-7680000D01*
X4620000Y-13050000D02*
X4610000Y-13040000D01*
%TO.N,/PB0*%
X14210000Y-7130000D02*
X14210000Y-7140000D01*
X14210000Y-7140000D02*
X2300000Y-19050000D01*
%TO.N,/PB1*%
X14860000Y-6370000D02*
X15200000Y-6710000D01*
X15200000Y-8470000D02*
X4510000Y-19160000D01*
X14210000Y-6370000D02*
X14860000Y-6370000D01*
X15200000Y-6710000D02*
X15200000Y-8470000D01*
%TO.N,/PB2*%
X6740000Y-17354264D02*
X6740000Y-19050000D01*
X14710708Y-5620000D02*
X15590000Y-6499292D01*
X15590000Y-6499292D02*
X15590000Y-8504264D01*
X14220000Y-5620000D02*
X14710708Y-5620000D01*
X15590000Y-8504264D02*
X6740000Y-17354264D01*
%TD*%
%TA.AperFunction,Conductor*%
%TO.N,GND*%
G36*
X42575662Y-509804D02*
G01*
X42723191Y-511588D01*
X42737762Y-512611D01*
X43027881Y-550013D01*
X43042247Y-552720D01*
X43230388Y-599626D01*
X43326078Y-623483D01*
X43340035Y-627837D01*
X43613755Y-731007D01*
X43627105Y-736946D01*
X43887034Y-871139D01*
X43899601Y-878580D01*
X43943061Y-907849D01*
X44142229Y-1041983D01*
X44153862Y-1050841D01*
X44190274Y-1082063D01*
X44228967Y-1141589D01*
X44229336Y-1212585D01*
X44191262Y-1272509D01*
X44126835Y-1302337D01*
X44067365Y-1295419D01*
X44067082Y-1296376D01*
X44061580Y-1294746D01*
X44061570Y-1294745D01*
X44061552Y-1294738D01*
X44061550Y-1294737D01*
X44056180Y-1292595D01*
X43856366Y-1252849D01*
X43850592Y-1252773D01*
X43850588Y-1252773D01*
X43747452Y-1251424D01*
X43652655Y-1250183D01*
X43646958Y-1251162D01*
X43646957Y-1251162D01*
X43457567Y-1283705D01*
X43451870Y-1284684D01*
X43260734Y-1355198D01*
X43085649Y-1459363D01*
X42932478Y-1593690D01*
X42928911Y-1598215D01*
X42928906Y-1598220D01*
X42864815Y-1679520D01*
X42806351Y-1753681D01*
X42711492Y-1933978D01*
X42661899Y-2093692D01*
X42658508Y-2104616D01*
X42651078Y-2128543D01*
X42627132Y-2330859D01*
X42640457Y-2534151D01*
X42690605Y-2731610D01*
X42775898Y-2916624D01*
X42893479Y-3082997D01*
X42897613Y-3087024D01*
X43025732Y-3211832D01*
X43039410Y-3225157D01*
X43044206Y-3228362D01*
X43044209Y-3228364D01*
X43094727Y-3262119D01*
X43208803Y-3338342D01*
X43214106Y-3340620D01*
X43214109Y-3340622D01*
X43303115Y-3378862D01*
X43395987Y-3418763D01*
X43468817Y-3435243D01*
X43589055Y-3462450D01*
X43589060Y-3462451D01*
X43594692Y-3463725D01*
X43600463Y-3463952D01*
X43600465Y-3463952D01*
X43663470Y-3466427D01*
X43798263Y-3471723D01*
X43999883Y-3442490D01*
X44005347Y-3440635D01*
X44005352Y-3440634D01*
X44187327Y-3378862D01*
X44187332Y-3378860D01*
X44192799Y-3377004D01*
X44231287Y-3355450D01*
X44267567Y-3335132D01*
X44370551Y-3277458D01*
X44527186Y-3147186D01*
X44657458Y-2990551D01*
X44729761Y-2861445D01*
X44754180Y-2817842D01*
X44754181Y-2817840D01*
X44757004Y-2812799D01*
X44758860Y-2807332D01*
X44758862Y-2807327D01*
X44820634Y-2625352D01*
X44820635Y-2625347D01*
X44822490Y-2619883D01*
X44823318Y-2614172D01*
X44823319Y-2614168D01*
X44841345Y-2489838D01*
X44845361Y-2462139D01*
X44874930Y-2397594D01*
X44934702Y-2359281D01*
X45005699Y-2359365D01*
X45065379Y-2397819D01*
X45091102Y-2445232D01*
X45123884Y-2558649D01*
X45127123Y-2572908D01*
X45173625Y-2851753D01*
X45175241Y-2861445D01*
X45176805Y-2875980D01*
X45180791Y-2957066D01*
X45189447Y-3133143D01*
X45187921Y-3159822D01*
X45186386Y-3169133D01*
X45187471Y-3178050D01*
X45190577Y-3203577D01*
X45191500Y-3218796D01*
X45191500Y-5276390D01*
X45171498Y-5344511D01*
X45117842Y-5391004D01*
X45047568Y-5401108D01*
X44982988Y-5371614D01*
X44967303Y-5355342D01*
X44887532Y-5256127D01*
X44878954Y-5247368D01*
X44736961Y-5128222D01*
X44726841Y-5121292D01*
X44564415Y-5031998D01*
X44553142Y-5027166D01*
X44376462Y-4971120D01*
X44364468Y-4968570D01*
X44220239Y-4952393D01*
X44213215Y-4952000D01*
X44032115Y-4952000D01*
X44016876Y-4956475D01*
X44015671Y-4957865D01*
X44014000Y-4965548D01*
X44014000Y-6949885D01*
X44018475Y-6965124D01*
X44019865Y-6966329D01*
X44027548Y-6968000D01*
X44206657Y-6968000D01*
X44212805Y-6967699D01*
X44350603Y-6954188D01*
X44362638Y-6951805D01*
X44540076Y-6898233D01*
X44551416Y-6893559D01*
X44715077Y-6806540D01*
X44725294Y-6799751D01*
X44868933Y-6682603D01*
X44877637Y-6673959D01*
X44968415Y-6564227D01*
X45027249Y-6524488D01*
X45098227Y-6522866D01*
X45158815Y-6559876D01*
X45189775Y-6623766D01*
X45191500Y-6644542D01*
X45191500Y-13916390D01*
X45171498Y-13984511D01*
X45117842Y-14031004D01*
X45047568Y-14041108D01*
X44982988Y-14011614D01*
X44967303Y-13995342D01*
X44887532Y-13896127D01*
X44878954Y-13887368D01*
X44736961Y-13768222D01*
X44726841Y-13761292D01*
X44564415Y-13671998D01*
X44553142Y-13667166D01*
X44376462Y-13611120D01*
X44364468Y-13608570D01*
X44220239Y-13592393D01*
X44213215Y-13592000D01*
X44032115Y-13592000D01*
X44016876Y-13596475D01*
X44015671Y-13597865D01*
X44014000Y-13605548D01*
X44014000Y-15589885D01*
X44018475Y-15605124D01*
X44019865Y-15606329D01*
X44027548Y-15608000D01*
X44206657Y-15608000D01*
X44212805Y-15607699D01*
X44350603Y-15594188D01*
X44362638Y-15591805D01*
X44540076Y-15538233D01*
X44551416Y-15533559D01*
X44715077Y-15446540D01*
X44725294Y-15439751D01*
X44868933Y-15322603D01*
X44877637Y-15313959D01*
X44968415Y-15204227D01*
X45027249Y-15164488D01*
X45098227Y-15162866D01*
X45158815Y-15199876D01*
X45189775Y-15263766D01*
X45191500Y-15284542D01*
X45191500Y-17134617D01*
X45190233Y-17152439D01*
X45186271Y-17180168D01*
X45187546Y-17189050D01*
X45187546Y-17189056D01*
X45188839Y-17198061D01*
X45189997Y-17221495D01*
X45180408Y-17439715D01*
X45177980Y-17494965D01*
X45176556Y-17509106D01*
X45134256Y-17776606D01*
X45129422Y-17807173D01*
X45126412Y-17821069D01*
X45080973Y-17985418D01*
X45079776Y-17989746D01*
X45042344Y-18050073D01*
X44978239Y-18080587D01*
X44907813Y-18071598D01*
X44853427Y-18025962D01*
X44834895Y-17980249D01*
X44834608Y-17977126D01*
X44811871Y-17896507D01*
X44780875Y-17786606D01*
X44780874Y-17786604D01*
X44779307Y-17781047D01*
X44771822Y-17765867D01*
X44691756Y-17603510D01*
X44689201Y-17598329D01*
X44685603Y-17593510D01*
X44570758Y-17439715D01*
X44570758Y-17439714D01*
X44567305Y-17435091D01*
X44417703Y-17296800D01*
X44369536Y-17266409D01*
X44250288Y-17191169D01*
X44250283Y-17191167D01*
X44245404Y-17188088D01*
X44056180Y-17112595D01*
X43856366Y-17072849D01*
X43850592Y-17072773D01*
X43850588Y-17072773D01*
X43747452Y-17071424D01*
X43652655Y-17070183D01*
X43646958Y-17071162D01*
X43646957Y-17071162D01*
X43470586Y-17101468D01*
X43451870Y-17104684D01*
X43260734Y-17175198D01*
X43255773Y-17178150D01*
X43255772Y-17178150D01*
X43107423Y-17266409D01*
X43085649Y-17279363D01*
X42932478Y-17413690D01*
X42928911Y-17418215D01*
X42928906Y-17418220D01*
X42857087Y-17509323D01*
X42806351Y-17573681D01*
X42803662Y-17578792D01*
X42803660Y-17578795D01*
X42793383Y-17598329D01*
X42711492Y-17753978D01*
X42651078Y-17948543D01*
X42627132Y-18150859D01*
X42640457Y-18354151D01*
X42690605Y-18551610D01*
X42775898Y-18736624D01*
X42893479Y-18902997D01*
X43039410Y-19045157D01*
X43044206Y-19048362D01*
X43044209Y-19048364D01*
X43106947Y-19090284D01*
X43208803Y-19158342D01*
X43214106Y-19160620D01*
X43214109Y-19160622D01*
X43386174Y-19234547D01*
X43395987Y-19238763D01*
X43468817Y-19255243D01*
X43589055Y-19282450D01*
X43589060Y-19282451D01*
X43594692Y-19283725D01*
X43600463Y-19283952D01*
X43600465Y-19283952D01*
X43663470Y-19286427D01*
X43798263Y-19291723D01*
X43918083Y-19274350D01*
X43988368Y-19284370D01*
X44042079Y-19330799D01*
X44062162Y-19398896D01*
X44042241Y-19467040D01*
X44009736Y-19501334D01*
X43901622Y-19579098D01*
X43889628Y-19586737D01*
X43626355Y-19734220D01*
X43613577Y-19740458D01*
X43585920Y-19752077D01*
X43335368Y-19857336D01*
X43321983Y-19862090D01*
X43032354Y-19946881D01*
X43018511Y-19950097D01*
X42721191Y-20001711D01*
X42707081Y-20003347D01*
X42441331Y-20019036D01*
X42414830Y-20017802D01*
X42413863Y-20017654D01*
X42413860Y-20017654D01*
X42404987Y-20016295D01*
X42396091Y-20017481D01*
X42396090Y-20017481D01*
X42389145Y-20018407D01*
X42374231Y-20020395D01*
X42357583Y-20021500D01*
X36164500Y-20021500D01*
X36096379Y-20001498D01*
X36049886Y-19947842D01*
X36038500Y-19895500D01*
X36038500Y-18151866D01*
X36031745Y-18089684D01*
X35980615Y-17953295D01*
X35893261Y-17836739D01*
X35776705Y-17749385D01*
X35640316Y-17698255D01*
X35578134Y-17691500D01*
X33781866Y-17691500D01*
X33719684Y-17698255D01*
X33583295Y-17749385D01*
X33466739Y-17836739D01*
X33379385Y-17953295D01*
X33376233Y-17961703D01*
X33376232Y-17961705D01*
X33334722Y-18072433D01*
X33292081Y-18129198D01*
X33225519Y-18153898D01*
X33156170Y-18138691D01*
X33123546Y-18113004D01*
X33072799Y-18057234D01*
X33065273Y-18050215D01*
X32898139Y-17918222D01*
X32889552Y-17912517D01*
X32703117Y-17809599D01*
X32693705Y-17805369D01*
X32492959Y-17734280D01*
X32482988Y-17731646D01*
X32411837Y-17718972D01*
X32398540Y-17720432D01*
X32394000Y-17734989D01*
X32394000Y-19178000D01*
X32373998Y-19246121D01*
X32320342Y-19292614D01*
X32268000Y-19304000D01*
X32012000Y-19304000D01*
X31943879Y-19283998D01*
X31897386Y-19230342D01*
X31886000Y-19178000D01*
X31886000Y-17733102D01*
X31882082Y-17719758D01*
X31867806Y-17717771D01*
X31829324Y-17723660D01*
X31819288Y-17726051D01*
X31616868Y-17792212D01*
X31607359Y-17796209D01*
X31418463Y-17894542D01*
X31409738Y-17900036D01*
X31239433Y-18027905D01*
X31231726Y-18034748D01*
X31084590Y-18188717D01*
X31078109Y-18196722D01*
X30973498Y-18350074D01*
X30918587Y-18395076D01*
X30848062Y-18403247D01*
X30784315Y-18371993D01*
X30763618Y-18347509D01*
X30682822Y-18222617D01*
X30682820Y-18222614D01*
X30680014Y-18218277D01*
X30529670Y-18053051D01*
X30525619Y-18049852D01*
X30525615Y-18049848D01*
X30358414Y-17917800D01*
X30358410Y-17917798D01*
X30354359Y-17914598D01*
X30349829Y-17912097D01*
X30233046Y-17847630D01*
X30158789Y-17806638D01*
X30153920Y-17804914D01*
X30153916Y-17804912D01*
X29953087Y-17733795D01*
X29953083Y-17733794D01*
X29948212Y-17732069D01*
X29943119Y-17731162D01*
X29943116Y-17731161D01*
X29733373Y-17693800D01*
X29733367Y-17693799D01*
X29728284Y-17692894D01*
X29654452Y-17691992D01*
X29510081Y-17690228D01*
X29510079Y-17690228D01*
X29504911Y-17690165D01*
X29284091Y-17723955D01*
X29071756Y-17793357D01*
X28873607Y-17896507D01*
X28869474Y-17899610D01*
X28869471Y-17899612D01*
X28699100Y-18027530D01*
X28694965Y-18030635D01*
X28691393Y-18034373D01*
X28561785Y-18170000D01*
X28540629Y-18192138D01*
X28433204Y-18349618D01*
X28432898Y-18350066D01*
X28377987Y-18395069D01*
X28307462Y-18403240D01*
X28243715Y-18371986D01*
X28223018Y-18347502D01*
X28142426Y-18222926D01*
X28136136Y-18214757D01*
X27992806Y-18057240D01*
X27985273Y-18050215D01*
X27818139Y-17918222D01*
X27809552Y-17912517D01*
X27623117Y-17809599D01*
X27613705Y-17805369D01*
X27412959Y-17734280D01*
X27402988Y-17731646D01*
X27331837Y-17718972D01*
X27318540Y-17720432D01*
X27314000Y-17734989D01*
X27314000Y-19178000D01*
X27293998Y-19246121D01*
X27240342Y-19292614D01*
X27188000Y-19304000D01*
X26932000Y-19304000D01*
X26863879Y-19283998D01*
X26817386Y-19230342D01*
X26806000Y-19178000D01*
X26806000Y-17733102D01*
X26802082Y-17719758D01*
X26787806Y-17717771D01*
X26749324Y-17723660D01*
X26739288Y-17726051D01*
X26536868Y-17792212D01*
X26527359Y-17796209D01*
X26338463Y-17894542D01*
X26329738Y-17900036D01*
X26159433Y-18027905D01*
X26151726Y-18034748D01*
X26004590Y-18188717D01*
X25998109Y-18196722D01*
X25893498Y-18350074D01*
X25838587Y-18395076D01*
X25768062Y-18403247D01*
X25704315Y-18371993D01*
X25683618Y-18347509D01*
X25602822Y-18222617D01*
X25602820Y-18222614D01*
X25600014Y-18218277D01*
X25449670Y-18053051D01*
X25445619Y-18049852D01*
X25445615Y-18049848D01*
X25278414Y-17917800D01*
X25278410Y-17917798D01*
X25274359Y-17914598D01*
X25269829Y-17912097D01*
X25153046Y-17847630D01*
X25078789Y-17806638D01*
X25073920Y-17804914D01*
X25073916Y-17804912D01*
X24873087Y-17733795D01*
X24873083Y-17733794D01*
X24868212Y-17732069D01*
X24863119Y-17731162D01*
X24863116Y-17731161D01*
X24653373Y-17693800D01*
X24653367Y-17693799D01*
X24648284Y-17692894D01*
X24574452Y-17691992D01*
X24430081Y-17690228D01*
X24430079Y-17690228D01*
X24424911Y-17690165D01*
X24204091Y-17723955D01*
X23991756Y-17793357D01*
X23793607Y-17896507D01*
X23789474Y-17899610D01*
X23789471Y-17899612D01*
X23619100Y-18027530D01*
X23614965Y-18030635D01*
X23611393Y-18034373D01*
X23481785Y-18170000D01*
X23460629Y-18192138D01*
X23353201Y-18349621D01*
X23298293Y-18394621D01*
X23227768Y-18402792D01*
X23164021Y-18371538D01*
X23143324Y-18347054D01*
X23062822Y-18222617D01*
X23062820Y-18222614D01*
X23060014Y-18218277D01*
X22909670Y-18053051D01*
X22905619Y-18049852D01*
X22905615Y-18049848D01*
X22738414Y-17917800D01*
X22738410Y-17917798D01*
X22734359Y-17914598D01*
X22729829Y-17912097D01*
X22613046Y-17847630D01*
X22538789Y-17806638D01*
X22533920Y-17804914D01*
X22533916Y-17804912D01*
X22333087Y-17733795D01*
X22333083Y-17733794D01*
X22328212Y-17732069D01*
X22323119Y-17731162D01*
X22323116Y-17731161D01*
X22113373Y-17693800D01*
X22113367Y-17693799D01*
X22108284Y-17692894D01*
X22034452Y-17691992D01*
X21890081Y-17690228D01*
X21890079Y-17690228D01*
X21884911Y-17690165D01*
X21664091Y-17723955D01*
X21451756Y-17793357D01*
X21253607Y-17896507D01*
X21249474Y-17899610D01*
X21249471Y-17899612D01*
X21079100Y-18027530D01*
X21074965Y-18030635D01*
X21071393Y-18034373D01*
X20941785Y-18170000D01*
X20920629Y-18192138D01*
X20813201Y-18349621D01*
X20758293Y-18394621D01*
X20687768Y-18402792D01*
X20624021Y-18371538D01*
X20603324Y-18347054D01*
X20522822Y-18222617D01*
X20522820Y-18222614D01*
X20520014Y-18218277D01*
X20369670Y-18053051D01*
X20365619Y-18049852D01*
X20365615Y-18049848D01*
X20198414Y-17917800D01*
X20198410Y-17917798D01*
X20194359Y-17914598D01*
X20189829Y-17912097D01*
X20073046Y-17847630D01*
X19998789Y-17806638D01*
X19993920Y-17804914D01*
X19993916Y-17804912D01*
X19793087Y-17733795D01*
X19793083Y-17733794D01*
X19788212Y-17732069D01*
X19783119Y-17731162D01*
X19783116Y-17731161D01*
X19573373Y-17693800D01*
X19573367Y-17693799D01*
X19568284Y-17692894D01*
X19494452Y-17691992D01*
X19350081Y-17690228D01*
X19350079Y-17690228D01*
X19344911Y-17690165D01*
X19124091Y-17723955D01*
X18911756Y-17793357D01*
X18713607Y-17896507D01*
X18709474Y-17899610D01*
X18709471Y-17899612D01*
X18539100Y-18027530D01*
X18534965Y-18030635D01*
X18531393Y-18034373D01*
X18401785Y-18170000D01*
X18380629Y-18192138D01*
X18273201Y-18349621D01*
X18218293Y-18394621D01*
X18147768Y-18402792D01*
X18084021Y-18371538D01*
X18063324Y-18347054D01*
X17982822Y-18222617D01*
X17982820Y-18222614D01*
X17980014Y-18218277D01*
X17829670Y-18053051D01*
X17825619Y-18049852D01*
X17825615Y-18049848D01*
X17658414Y-17917800D01*
X17658410Y-17917798D01*
X17654359Y-17914598D01*
X17649829Y-17912097D01*
X17533046Y-17847630D01*
X17458789Y-17806638D01*
X17453920Y-17804914D01*
X17453916Y-17804912D01*
X17253087Y-17733795D01*
X17253083Y-17733794D01*
X17248212Y-17732069D01*
X17243119Y-17731162D01*
X17243116Y-17731161D01*
X17033373Y-17693800D01*
X17033367Y-17693799D01*
X17028284Y-17692894D01*
X16954452Y-17691992D01*
X16810081Y-17690228D01*
X16810079Y-17690228D01*
X16804911Y-17690165D01*
X16584091Y-17723955D01*
X16371756Y-17793357D01*
X16173607Y-17896507D01*
X16169474Y-17899610D01*
X16169471Y-17899612D01*
X15999100Y-18027530D01*
X15994965Y-18030635D01*
X15991393Y-18034373D01*
X15861785Y-18170000D01*
X15840629Y-18192138D01*
X15733201Y-18349621D01*
X15678293Y-18394621D01*
X15607768Y-18402792D01*
X15544021Y-18371538D01*
X15523324Y-18347054D01*
X15442822Y-18222617D01*
X15442820Y-18222614D01*
X15440014Y-18218277D01*
X15289670Y-18053051D01*
X15285619Y-18049852D01*
X15285615Y-18049848D01*
X15118414Y-17917800D01*
X15118410Y-17917798D01*
X15114359Y-17914598D01*
X15109829Y-17912097D01*
X14993046Y-17847630D01*
X14918789Y-17806638D01*
X14913920Y-17804914D01*
X14913916Y-17804912D01*
X14713087Y-17733795D01*
X14713083Y-17733794D01*
X14708212Y-17732069D01*
X14703119Y-17731162D01*
X14703116Y-17731161D01*
X14493373Y-17693800D01*
X14493367Y-17693799D01*
X14488284Y-17692894D01*
X14414452Y-17691992D01*
X14270081Y-17690228D01*
X14270079Y-17690228D01*
X14264911Y-17690165D01*
X14044091Y-17723955D01*
X13831756Y-17793357D01*
X13633607Y-17896507D01*
X13629474Y-17899610D01*
X13629471Y-17899612D01*
X13459100Y-18027530D01*
X13454965Y-18030635D01*
X13451393Y-18034373D01*
X13321785Y-18170000D01*
X13300629Y-18192138D01*
X13193201Y-18349621D01*
X13138293Y-18394621D01*
X13067768Y-18402792D01*
X13004021Y-18371538D01*
X12983324Y-18347054D01*
X12902822Y-18222617D01*
X12902820Y-18222614D01*
X12900014Y-18218277D01*
X12749670Y-18053051D01*
X12745619Y-18049852D01*
X12745615Y-18049848D01*
X12578414Y-17917800D01*
X12578410Y-17917798D01*
X12574359Y-17914598D01*
X12569829Y-17912097D01*
X12453046Y-17847630D01*
X12378789Y-17806638D01*
X12373920Y-17804914D01*
X12373916Y-17804912D01*
X12173087Y-17733795D01*
X12173083Y-17733794D01*
X12168212Y-17732069D01*
X12163119Y-17731162D01*
X12163116Y-17731161D01*
X11953373Y-17693800D01*
X11953367Y-17693799D01*
X11948284Y-17692894D01*
X11874452Y-17691992D01*
X11730081Y-17690228D01*
X11730079Y-17690228D01*
X11724911Y-17690165D01*
X11504091Y-17723955D01*
X11291756Y-17793357D01*
X11093607Y-17896507D01*
X11089474Y-17899610D01*
X11089471Y-17899612D01*
X10919100Y-18027530D01*
X10914965Y-18030635D01*
X10911393Y-18034373D01*
X10781785Y-18170000D01*
X10760629Y-18192138D01*
X10653201Y-18349621D01*
X10598293Y-18394621D01*
X10527768Y-18402792D01*
X10464021Y-18371538D01*
X10443324Y-18347054D01*
X10362822Y-18222617D01*
X10362820Y-18222614D01*
X10360014Y-18218277D01*
X10209670Y-18053051D01*
X10205619Y-18049852D01*
X10205615Y-18049848D01*
X10038414Y-17917800D01*
X10038410Y-17917798D01*
X10034359Y-17914598D01*
X10029829Y-17912097D01*
X9913046Y-17847630D01*
X9838789Y-17806638D01*
X9833920Y-17804914D01*
X9833916Y-17804912D01*
X9633087Y-17733795D01*
X9633083Y-17733794D01*
X9628212Y-17732069D01*
X9623119Y-17731162D01*
X9623116Y-17731161D01*
X9413373Y-17693800D01*
X9413367Y-17693799D01*
X9408284Y-17692894D01*
X9334452Y-17691992D01*
X9190081Y-17690228D01*
X9190079Y-17690228D01*
X9184911Y-17690165D01*
X8964091Y-17723955D01*
X8751756Y-17793357D01*
X8553607Y-17896507D01*
X8549474Y-17899610D01*
X8549471Y-17899612D01*
X8379100Y-18027530D01*
X8374965Y-18030635D01*
X8371393Y-18034373D01*
X8241785Y-18170000D01*
X8220629Y-18192138D01*
X8113201Y-18349621D01*
X8058293Y-18394621D01*
X7987768Y-18402792D01*
X7924021Y-18371538D01*
X7903324Y-18347054D01*
X7822822Y-18222617D01*
X7822820Y-18222614D01*
X7820014Y-18218277D01*
X7669670Y-18053051D01*
X7665619Y-18049852D01*
X7665615Y-18049848D01*
X7498412Y-17917799D01*
X7494359Y-17914598D01*
X7489844Y-17912105D01*
X7489831Y-17912097D01*
X7422864Y-17875129D01*
X7372893Y-17824696D01*
X7358389Y-17777414D01*
X7357881Y-17772361D01*
X7355877Y-17752402D01*
X7355321Y-17744151D01*
X7355315Y-17743978D01*
X7353585Y-17693653D01*
X7353473Y-17692239D01*
X7351387Y-17666001D01*
X7365926Y-17596509D01*
X7387895Y-17566918D01*
X10411553Y-14543260D01*
X10473865Y-14509234D01*
X10544680Y-14514299D01*
X10570418Y-14529178D01*
X10571102Y-14528132D01*
X10706673Y-14616847D01*
X10713493Y-14621310D01*
X10720097Y-14623766D01*
X10720099Y-14623767D01*
X10754800Y-14636672D01*
X10872988Y-14680626D01*
X11041662Y-14703132D01*
X11048673Y-14702494D01*
X11048677Y-14702494D01*
X11204109Y-14688348D01*
X11211130Y-14687709D01*
X11217832Y-14685531D01*
X11217834Y-14685531D01*
X11366270Y-14637301D01*
X11366273Y-14637300D01*
X11372969Y-14635124D01*
X11519137Y-14547990D01*
X11524231Y-14543139D01*
X11524235Y-14543136D01*
X11617142Y-14454661D01*
X11642368Y-14430639D01*
X11660447Y-14403429D01*
X11700513Y-14343124D01*
X11736538Y-14288902D01*
X11796966Y-14129825D01*
X11802315Y-14091762D01*
X11831602Y-14027088D01*
X11837994Y-14020202D01*
X12762791Y-13095405D01*
X12825103Y-13061379D01*
X12851886Y-13058500D01*
X14012607Y-13058500D01*
X14080728Y-13078502D01*
X14127221Y-13132158D01*
X14132165Y-13144728D01*
X14157094Y-13219667D01*
X14160741Y-13225689D01*
X14160742Y-13225691D01*
X14223276Y-13328947D01*
X14241500Y-13394218D01*
X14241500Y-14041864D01*
X14240422Y-14058307D01*
X14236250Y-14090000D01*
X14241500Y-14129880D01*
X14241500Y-14129885D01*
X14254609Y-14229457D01*
X14257162Y-14248851D01*
X14318476Y-14396876D01*
X14323503Y-14403427D01*
X14323504Y-14403429D01*
X14391520Y-14492069D01*
X14391526Y-14492075D01*
X14416013Y-14523987D01*
X14422568Y-14529017D01*
X14441379Y-14543452D01*
X14453770Y-14554319D01*
X15235685Y-15336234D01*
X15246552Y-15348625D01*
X15266013Y-15373987D01*
X15272563Y-15379013D01*
X15297921Y-15398471D01*
X15297937Y-15398485D01*
X15334938Y-15426876D01*
X15393124Y-15471524D01*
X15467137Y-15502181D01*
X15533520Y-15529678D01*
X15533523Y-15529679D01*
X15541150Y-15532838D01*
X15700000Y-15553751D01*
X15731699Y-15549578D01*
X15748144Y-15548500D01*
X22342704Y-15548500D01*
X22410825Y-15568502D01*
X22457318Y-15622158D01*
X22468014Y-15661329D01*
X22483585Y-15809475D01*
X22485635Y-15828975D01*
X22487675Y-15835253D01*
X22487675Y-15835254D01*
X22490969Y-15845391D01*
X22541401Y-16000607D01*
X22631633Y-16156893D01*
X22752387Y-16291004D01*
X22757729Y-16294885D01*
X22757731Y-16294887D01*
X22875241Y-16380263D01*
X22898385Y-16397078D01*
X22904413Y-16399762D01*
X22904415Y-16399763D01*
X23019450Y-16450980D01*
X23063248Y-16470480D01*
X23141572Y-16487128D01*
X23233311Y-16506628D01*
X23233315Y-16506628D01*
X23239768Y-16508000D01*
X23420232Y-16508000D01*
X23426685Y-16506628D01*
X23426689Y-16506628D01*
X23518428Y-16487128D01*
X23596752Y-16470480D01*
X23640550Y-16450980D01*
X23755585Y-16399763D01*
X23755587Y-16399762D01*
X23761615Y-16397078D01*
X23788455Y-16377578D01*
X23851099Y-16332064D01*
X23917967Y-16308205D01*
X23925160Y-16308000D01*
X25041679Y-16308000D01*
X25115741Y-16332064D01*
X25178385Y-16377578D01*
X25184413Y-16380262D01*
X25184415Y-16380263D01*
X25228213Y-16399763D01*
X25343248Y-16450980D01*
X25431508Y-16469740D01*
X25513311Y-16487128D01*
X25513315Y-16487128D01*
X25519768Y-16488500D01*
X25700232Y-16488500D01*
X25706685Y-16487128D01*
X25706689Y-16487128D01*
X25788492Y-16469740D01*
X25876752Y-16450980D01*
X25991787Y-16399763D01*
X26035585Y-16380263D01*
X26035587Y-16380262D01*
X26041615Y-16377578D01*
X26137381Y-16308000D01*
X26182269Y-16275387D01*
X26182271Y-16275385D01*
X26187613Y-16271504D01*
X26308367Y-16137393D01*
X26363311Y-16042227D01*
X26395295Y-15986830D01*
X26395296Y-15986829D01*
X26398599Y-15981107D01*
X26436730Y-15863750D01*
X26452325Y-15815754D01*
X26452325Y-15815753D01*
X26454365Y-15809475D01*
X26473229Y-15630000D01*
X26466765Y-15568502D01*
X26455055Y-15457089D01*
X26455055Y-15457088D01*
X26454365Y-15450525D01*
X26450526Y-15438708D01*
X26432090Y-15381969D01*
X26430063Y-15311001D01*
X26466725Y-15250203D01*
X26530438Y-15218878D01*
X26600971Y-15226972D01*
X26619437Y-15236647D01*
X26735990Y-15310613D01*
X26748576Y-15316752D01*
X26833934Y-15347147D01*
X26848013Y-15347943D01*
X26851000Y-15342273D01*
X26851000Y-15334848D01*
X27359000Y-15334848D01*
X27362973Y-15348379D01*
X27369647Y-15349338D01*
X27450967Y-15321655D01*
X27463633Y-15315694D01*
X27608897Y-15226328D01*
X27619924Y-15217712D01*
X27651371Y-15186917D01*
X27714036Y-15153547D01*
X27784795Y-15159353D01*
X27828935Y-15188157D01*
X27851079Y-15210456D01*
X27861988Y-15219227D01*
X28005990Y-15310613D01*
X28018576Y-15316752D01*
X28103934Y-15347147D01*
X28118013Y-15347943D01*
X28121000Y-15342273D01*
X28121000Y-14032115D01*
X28116525Y-14016876D01*
X28115135Y-14015671D01*
X28107452Y-14014000D01*
X27377115Y-14014000D01*
X27361876Y-14018475D01*
X27360671Y-14019865D01*
X27359000Y-14027548D01*
X27359000Y-15334848D01*
X26851000Y-15334848D01*
X26851000Y-14032115D01*
X26846525Y-14016876D01*
X26845135Y-14015671D01*
X26837452Y-14014000D01*
X26300115Y-14014000D01*
X26284876Y-14018475D01*
X26283671Y-14019865D01*
X26282000Y-14027548D01*
X26282000Y-14612905D01*
X26282393Y-14619929D01*
X26296589Y-14746490D01*
X26299690Y-14760140D01*
X26311881Y-14795149D01*
X26315393Y-14866059D01*
X26280011Y-14927611D01*
X26216969Y-14960263D01*
X26146281Y-14953648D01*
X26118828Y-14938521D01*
X26118764Y-14938474D01*
X26041615Y-14882422D01*
X26035587Y-14879738D01*
X26035585Y-14879737D01*
X25882783Y-14811705D01*
X25882781Y-14811705D01*
X25876752Y-14809020D01*
X25788492Y-14790260D01*
X25706689Y-14772872D01*
X25706685Y-14772872D01*
X25700232Y-14771500D01*
X25519768Y-14771500D01*
X25485531Y-14778777D01*
X25353544Y-14806831D01*
X25282754Y-14801429D01*
X25226121Y-14758612D01*
X25208357Y-14725021D01*
X25192041Y-14678169D01*
X25168368Y-14610189D01*
X25078192Y-14465879D01*
X25043198Y-14430639D01*
X24963248Y-14350129D01*
X24958286Y-14345132D01*
X24941111Y-14334232D01*
X24878933Y-14294773D01*
X24814608Y-14253951D01*
X24654300Y-14196868D01*
X24485329Y-14176720D01*
X24478326Y-14177456D01*
X24478325Y-14177456D01*
X24323101Y-14193770D01*
X24323097Y-14193771D01*
X24316093Y-14194507D01*
X24309422Y-14196778D01*
X24161673Y-14247075D01*
X24161670Y-14247076D01*
X24155003Y-14249346D01*
X24149005Y-14253036D01*
X24149003Y-14253037D01*
X24051831Y-14312818D01*
X23985809Y-14331500D01*
X16004239Y-14331500D01*
X15936118Y-14311498D01*
X15915144Y-14294595D01*
X15495405Y-13874856D01*
X15461379Y-13812544D01*
X15458500Y-13785761D01*
X15458500Y-13487885D01*
X26282000Y-13487885D01*
X26286475Y-13503124D01*
X26287865Y-13504329D01*
X26295548Y-13506000D01*
X26832885Y-13506000D01*
X26848124Y-13501525D01*
X26849329Y-13500135D01*
X26851000Y-13492452D01*
X26851000Y-12185152D01*
X26847027Y-12171621D01*
X26840353Y-12170662D01*
X26759033Y-12198345D01*
X26746367Y-12204306D01*
X26601103Y-12293672D01*
X26590071Y-12302292D01*
X26468217Y-12421620D01*
X26459369Y-12432470D01*
X26366983Y-12575824D01*
X26360753Y-12588373D01*
X26302423Y-12748634D01*
X26299131Y-12762242D01*
X26282497Y-12893919D01*
X26282000Y-12901810D01*
X26282000Y-13487885D01*
X15458500Y-13487885D01*
X15458500Y-13392390D01*
X15479552Y-13322663D01*
X15524990Y-13254273D01*
X15528891Y-13248402D01*
X15570162Y-13139756D01*
X15613051Y-13083178D01*
X15679719Y-13058769D01*
X15687950Y-13058500D01*
X16146890Y-13058500D01*
X16163333Y-13059578D01*
X16195026Y-13063750D01*
X16203215Y-13062672D01*
X16234900Y-13058501D01*
X16234910Y-13058500D01*
X16234911Y-13058500D01*
X16299475Y-13050000D01*
X16334483Y-13045391D01*
X16345690Y-13043916D01*
X16345692Y-13043915D01*
X16353877Y-13042838D01*
X16501902Y-12981524D01*
X16566851Y-12931687D01*
X16597098Y-12908477D01*
X16597101Y-12908474D01*
X16622463Y-12889013D01*
X16629013Y-12883987D01*
X16648484Y-12858613D01*
X16659342Y-12846233D01*
X19071873Y-10433702D01*
X19084264Y-10422835D01*
X19142072Y-10378477D01*
X19142075Y-10378474D01*
X19167437Y-10359013D01*
X19173987Y-10353987D01*
X19193458Y-10328613D01*
X19204316Y-10316233D01*
X21261299Y-8259250D01*
X21323611Y-8225224D01*
X21394426Y-8230289D01*
X21451262Y-8272836D01*
X21469950Y-8308567D01*
X21497094Y-8390167D01*
X21500741Y-8396189D01*
X21500742Y-8396191D01*
X21569127Y-8509107D01*
X21585246Y-8535723D01*
X21703455Y-8658132D01*
X21845846Y-8751310D01*
X21852450Y-8753766D01*
X21852452Y-8753767D01*
X21888844Y-8767301D01*
X22005341Y-8810626D01*
X22174015Y-8833132D01*
X22181026Y-8832494D01*
X22181030Y-8832494D01*
X22336462Y-8818348D01*
X22343483Y-8817709D01*
X22350185Y-8815531D01*
X22350187Y-8815531D01*
X22498623Y-8767301D01*
X22498626Y-8767300D01*
X22505322Y-8765124D01*
X22620823Y-8696271D01*
X22685341Y-8678500D01*
X25995761Y-8678500D01*
X26063882Y-8698502D01*
X26084856Y-8715405D01*
X28364595Y-10995144D01*
X28398621Y-11057456D01*
X28401500Y-11084239D01*
X28401500Y-12006183D01*
X28381498Y-12074304D01*
X28327842Y-12120797D01*
X28288671Y-12131493D01*
X28204160Y-12140376D01*
X28190485Y-12143382D01*
X28029033Y-12198345D01*
X28016367Y-12204306D01*
X27871103Y-12293672D01*
X27860076Y-12302288D01*
X27828629Y-12333083D01*
X27765964Y-12366453D01*
X27695205Y-12360647D01*
X27651065Y-12331843D01*
X27628921Y-12309544D01*
X27618012Y-12300773D01*
X27474010Y-12209387D01*
X27461424Y-12203248D01*
X27376066Y-12172853D01*
X27361987Y-12172057D01*
X27359000Y-12177727D01*
X27359000Y-13487885D01*
X27363475Y-13503124D01*
X27364865Y-13504329D01*
X27372548Y-13506000D01*
X28275500Y-13506000D01*
X28343621Y-13526002D01*
X28390114Y-13579658D01*
X28401500Y-13632000D01*
X28401500Y-15071864D01*
X28400422Y-15088307D01*
X28396250Y-15120000D01*
X28401500Y-15159880D01*
X28401500Y-15159885D01*
X28411607Y-15236647D01*
X28412953Y-15246873D01*
X28412953Y-15246876D01*
X28414527Y-15258831D01*
X28417162Y-15278851D01*
X28420321Y-15286477D01*
X28420321Y-15286478D01*
X28431199Y-15312739D01*
X28478476Y-15426876D01*
X28483503Y-15433427D01*
X28483504Y-15433429D01*
X28551520Y-15522069D01*
X28551526Y-15522075D01*
X28576013Y-15553987D01*
X28582568Y-15559017D01*
X28601379Y-15573452D01*
X28613770Y-15584319D01*
X28675685Y-15646234D01*
X28686552Y-15658625D01*
X28706013Y-15683987D01*
X28712563Y-15689013D01*
X28737921Y-15708471D01*
X28737937Y-15708485D01*
X28787305Y-15746366D01*
X28833124Y-15781524D01*
X28981149Y-15842838D01*
X28989336Y-15843916D01*
X28989337Y-15843916D01*
X29000542Y-15845391D01*
X29031738Y-15849498D01*
X29100115Y-15858500D01*
X29100118Y-15858500D01*
X29100126Y-15858501D01*
X29131811Y-15862672D01*
X29140000Y-15863750D01*
X29171693Y-15859578D01*
X29188136Y-15858500D01*
X30771864Y-15858500D01*
X30788307Y-15859578D01*
X30820000Y-15863750D01*
X30828189Y-15862672D01*
X30859874Y-15858501D01*
X30859884Y-15858500D01*
X30859885Y-15858500D01*
X30859901Y-15858498D01*
X30959457Y-15845391D01*
X30970664Y-15843916D01*
X30970666Y-15843915D01*
X30978851Y-15842838D01*
X31126876Y-15781524D01*
X31222062Y-15708485D01*
X31222069Y-15708480D01*
X31222075Y-15708474D01*
X31247434Y-15689015D01*
X31253987Y-15683987D01*
X31259017Y-15677432D01*
X31273452Y-15658621D01*
X31284319Y-15646230D01*
X31351234Y-15579315D01*
X31363625Y-15568448D01*
X31382437Y-15554013D01*
X31388987Y-15548987D01*
X31413474Y-15517075D01*
X31413478Y-15517071D01*
X31486524Y-15421876D01*
X31547838Y-15273851D01*
X31556135Y-15210828D01*
X31563500Y-15154885D01*
X31563500Y-15154880D01*
X31568750Y-15115000D01*
X31568381Y-15112200D01*
X31587761Y-15046356D01*
X31653467Y-14944400D01*
X31657286Y-14938474D01*
X31677688Y-14882422D01*
X31683750Y-14865768D01*
X38587425Y-14865768D01*
X38619138Y-14973521D01*
X38623731Y-14984889D01*
X38709607Y-15149154D01*
X38716321Y-15159415D01*
X38832468Y-15303873D01*
X38841046Y-15312632D01*
X38983039Y-15431778D01*
X38993159Y-15438708D01*
X39155585Y-15528002D01*
X39166858Y-15532834D01*
X39343538Y-15588880D01*
X39355532Y-15591430D01*
X39499761Y-15607607D01*
X39506785Y-15608000D01*
X39687885Y-15608000D01*
X39703124Y-15603525D01*
X39704329Y-15602135D01*
X39706000Y-15594452D01*
X39706000Y-15589885D01*
X40214000Y-15589885D01*
X40218475Y-15605124D01*
X40219865Y-15606329D01*
X40227548Y-15608000D01*
X40406657Y-15608000D01*
X40412805Y-15607699D01*
X40550603Y-15594188D01*
X40562638Y-15591805D01*
X40740076Y-15538233D01*
X40751416Y-15533559D01*
X40915077Y-15446540D01*
X40925294Y-15439751D01*
X41068933Y-15322603D01*
X41077637Y-15313959D01*
X41195784Y-15171144D01*
X41202644Y-15160973D01*
X41290804Y-14997924D01*
X41295556Y-14986619D01*
X41331250Y-14871308D01*
X41331331Y-14865768D01*
X42387425Y-14865768D01*
X42419138Y-14973521D01*
X42423731Y-14984889D01*
X42509607Y-15149154D01*
X42516321Y-15159415D01*
X42632468Y-15303873D01*
X42641046Y-15312632D01*
X42783039Y-15431778D01*
X42793159Y-15438708D01*
X42955585Y-15528002D01*
X42966858Y-15532834D01*
X43143538Y-15588880D01*
X43155532Y-15591430D01*
X43299761Y-15607607D01*
X43306785Y-15608000D01*
X43487885Y-15608000D01*
X43503124Y-15603525D01*
X43504329Y-15602135D01*
X43506000Y-15594452D01*
X43506000Y-14872115D01*
X43501525Y-14856876D01*
X43500135Y-14855671D01*
X43492452Y-14854000D01*
X42402076Y-14854000D01*
X42388545Y-14857973D01*
X42387425Y-14865768D01*
X41331331Y-14865768D01*
X41331456Y-14857205D01*
X41324701Y-14854000D01*
X40232115Y-14854000D01*
X40216876Y-14858475D01*
X40215671Y-14859865D01*
X40214000Y-14867548D01*
X40214000Y-15589885D01*
X39706000Y-15589885D01*
X39706000Y-14872115D01*
X39701525Y-14856876D01*
X39700135Y-14855671D01*
X39692452Y-14854000D01*
X38602076Y-14854000D01*
X38588545Y-14857973D01*
X38587425Y-14865768D01*
X31683750Y-14865768D01*
X31718066Y-14771484D01*
X31718066Y-14771483D01*
X31720475Y-14764865D01*
X31738500Y-14622180D01*
X31738500Y-14342795D01*
X38588544Y-14342795D01*
X38595299Y-14346000D01*
X39687885Y-14346000D01*
X39703124Y-14341525D01*
X39704329Y-14340135D01*
X39706000Y-14332452D01*
X39706000Y-14327885D01*
X40214000Y-14327885D01*
X40218475Y-14343124D01*
X40219865Y-14344329D01*
X40227548Y-14346000D01*
X41317924Y-14346000D01*
X41328839Y-14342795D01*
X42388544Y-14342795D01*
X42395299Y-14346000D01*
X43487885Y-14346000D01*
X43503124Y-14341525D01*
X43504329Y-14340135D01*
X43506000Y-14332452D01*
X43506000Y-13610115D01*
X43501525Y-13594876D01*
X43500135Y-13593671D01*
X43492452Y-13592000D01*
X43313343Y-13592000D01*
X43307195Y-13592301D01*
X43169397Y-13605812D01*
X43157362Y-13608195D01*
X42979924Y-13661767D01*
X42968584Y-13666441D01*
X42804923Y-13753460D01*
X42794706Y-13760249D01*
X42651067Y-13877397D01*
X42642363Y-13886041D01*
X42524216Y-14028856D01*
X42517356Y-14039027D01*
X42429196Y-14202076D01*
X42424444Y-14213381D01*
X42388750Y-14328692D01*
X42388544Y-14342795D01*
X41328839Y-14342795D01*
X41331455Y-14342027D01*
X41332575Y-14334232D01*
X41300862Y-14226479D01*
X41296269Y-14215111D01*
X41210393Y-14050846D01*
X41203679Y-14040585D01*
X41087532Y-13896127D01*
X41078954Y-13887368D01*
X40936961Y-13768222D01*
X40926841Y-13761292D01*
X40764415Y-13671998D01*
X40753142Y-13667166D01*
X40576462Y-13611120D01*
X40564468Y-13608570D01*
X40420239Y-13592393D01*
X40413215Y-13592000D01*
X40232115Y-13592000D01*
X40216876Y-13596475D01*
X40215671Y-13597865D01*
X40214000Y-13605548D01*
X40214000Y-14327885D01*
X39706000Y-14327885D01*
X39706000Y-13610115D01*
X39701525Y-13594876D01*
X39700135Y-13593671D01*
X39692452Y-13592000D01*
X39513343Y-13592000D01*
X39507195Y-13592301D01*
X39369397Y-13605812D01*
X39357362Y-13608195D01*
X39179924Y-13661767D01*
X39168584Y-13666441D01*
X39004923Y-13753460D01*
X38994706Y-13760249D01*
X38851067Y-13877397D01*
X38842363Y-13886041D01*
X38724216Y-14028856D01*
X38717356Y-14039027D01*
X38629196Y-14202076D01*
X38624444Y-14213381D01*
X38588750Y-14328692D01*
X38588544Y-14342795D01*
X31738500Y-14342795D01*
X31738500Y-12903543D01*
X31723117Y-12766400D01*
X31662359Y-12591926D01*
X31652298Y-12575824D01*
X31568188Y-12441222D01*
X31564455Y-12435248D01*
X31496139Y-12366453D01*
X31439237Y-12309152D01*
X31439233Y-12309149D01*
X31434273Y-12304154D01*
X31325623Y-12235202D01*
X31284235Y-12208936D01*
X31284233Y-12208935D01*
X31278283Y-12205159D01*
X31222097Y-12185152D01*
X31110872Y-12145546D01*
X31110867Y-12145545D01*
X31104237Y-12143184D01*
X31097251Y-12142351D01*
X31097247Y-12142350D01*
X30966100Y-12126712D01*
X30920785Y-12121309D01*
X30913782Y-12122045D01*
X30913781Y-12122045D01*
X30862600Y-12127425D01*
X30737046Y-12140621D01*
X30730380Y-12142890D01*
X30730377Y-12142891D01*
X30568816Y-12197891D01*
X30568813Y-12197892D01*
X30562152Y-12200160D01*
X30535521Y-12216544D01*
X30467022Y-12235202D01*
X30399307Y-12213863D01*
X30353879Y-12159304D01*
X30343500Y-12109226D01*
X30343500Y-10945871D01*
X31821776Y-10945871D01*
X31858357Y-11071784D01*
X31864604Y-11086220D01*
X31939876Y-11213499D01*
X31949516Y-11225926D01*
X32054074Y-11330484D01*
X32066501Y-11340124D01*
X32193780Y-11415396D01*
X32208216Y-11421643D01*
X32351641Y-11463312D01*
X32359609Y-11464768D01*
X32373031Y-11461948D01*
X32376000Y-11450487D01*
X32376000Y-11448424D01*
X32884000Y-11448424D01*
X32888344Y-11463219D01*
X32898775Y-11465063D01*
X32908359Y-11463312D01*
X33051784Y-11421643D01*
X33066220Y-11415396D01*
X33193499Y-11340124D01*
X33205926Y-11330484D01*
X33310484Y-11225926D01*
X33320124Y-11213499D01*
X33395396Y-11086220D01*
X33401643Y-11071784D01*
X33436619Y-10951395D01*
X33436579Y-10937295D01*
X33429309Y-10934000D01*
X32902115Y-10934000D01*
X32886876Y-10938475D01*
X32885671Y-10939865D01*
X32884000Y-10947548D01*
X32884000Y-11448424D01*
X32376000Y-11448424D01*
X32376000Y-10952115D01*
X32371525Y-10936876D01*
X32370135Y-10935671D01*
X32362452Y-10934000D01*
X31836442Y-10934000D01*
X31822911Y-10937973D01*
X31821776Y-10945871D01*
X30343500Y-10945871D01*
X30343500Y-10647060D01*
X30344059Y-10635203D01*
X30345789Y-10627463D01*
X30343562Y-10556599D01*
X30343500Y-10552641D01*
X30343500Y-10523568D01*
X30342947Y-10519189D01*
X30342014Y-10507346D01*
X30341976Y-10506111D01*
X30340563Y-10461169D01*
X30334579Y-10440571D01*
X30330571Y-10421218D01*
X30329675Y-10414130D01*
X30327882Y-10399936D01*
X30321338Y-10383406D01*
X30310875Y-10356982D01*
X30307029Y-10345747D01*
X30296358Y-10309016D01*
X30296357Y-10309013D01*
X30294145Y-10301400D01*
X30283225Y-10282935D01*
X30274534Y-10265195D01*
X30266635Y-10245244D01*
X30239482Y-10207871D01*
X30232967Y-10197952D01*
X30213493Y-10165023D01*
X30213490Y-10165019D01*
X30209453Y-10158193D01*
X30194289Y-10143029D01*
X30181448Y-10127995D01*
X30173501Y-10117057D01*
X30168841Y-10110643D01*
X30133247Y-10081197D01*
X30124468Y-10073208D01*
X29745405Y-9694145D01*
X29711379Y-9631833D01*
X29708500Y-9605050D01*
X29708500Y-8444357D01*
X29728502Y-8376236D01*
X29782158Y-8329743D01*
X29809228Y-8322355D01*
X29808960Y-8321137D01*
X29829514Y-8316618D01*
X29990967Y-8261655D01*
X30003635Y-8255693D01*
X30064477Y-8218263D01*
X30132978Y-8199604D01*
X30200693Y-8220943D01*
X30246121Y-8275502D01*
X30256500Y-8325580D01*
X30256500Y-9222944D01*
X30255941Y-9234800D01*
X30254212Y-9242537D01*
X30254461Y-9250459D01*
X30256438Y-9313369D01*
X30256500Y-9317327D01*
X30256500Y-9346432D01*
X30257056Y-9350832D01*
X30257988Y-9362664D01*
X30259438Y-9408831D01*
X30261650Y-9416444D01*
X30261650Y-9416445D01*
X30265419Y-9429416D01*
X30269430Y-9448782D01*
X30272118Y-9470064D01*
X30275034Y-9477429D01*
X30275035Y-9477433D01*
X30289126Y-9513021D01*
X30292965Y-9524231D01*
X30305855Y-9568600D01*
X30316775Y-9587065D01*
X30325466Y-9604805D01*
X30333365Y-9624756D01*
X30338507Y-9631833D01*
X30360516Y-9662126D01*
X30367033Y-9672048D01*
X30386507Y-9704977D01*
X30386510Y-9704981D01*
X30390547Y-9711807D01*
X30405711Y-9726971D01*
X30418551Y-9742004D01*
X30431159Y-9759357D01*
X30466752Y-9788802D01*
X30475532Y-9796792D01*
X30806345Y-10127605D01*
X30814335Y-10136385D01*
X30818584Y-10143080D01*
X30824362Y-10148506D01*
X30824363Y-10148507D01*
X30870257Y-10191604D01*
X30873099Y-10194359D01*
X30893667Y-10214927D01*
X30897170Y-10217644D01*
X30906195Y-10225352D01*
X30939867Y-10256972D01*
X30946818Y-10260793D01*
X30946819Y-10260794D01*
X30958658Y-10267303D01*
X30975182Y-10278157D01*
X30985271Y-10285982D01*
X30992132Y-10291304D01*
X30999404Y-10294451D01*
X30999406Y-10294452D01*
X31034535Y-10309654D01*
X31045195Y-10314876D01*
X31076070Y-10331850D01*
X31085663Y-10337124D01*
X31106441Y-10342459D01*
X31125131Y-10348858D01*
X31144824Y-10357380D01*
X31179563Y-10362882D01*
X31190448Y-10364606D01*
X31202071Y-10367013D01*
X31230072Y-10374202D01*
X31246812Y-10378500D01*
X31268259Y-10378500D01*
X31287969Y-10380051D01*
X31309152Y-10383406D01*
X31355141Y-10379059D01*
X31366996Y-10378500D01*
X31725119Y-10378500D01*
X31793240Y-10398502D01*
X31812588Y-10417795D01*
X31830691Y-10426000D01*
X32108621Y-10426000D01*
X32172760Y-10443546D01*
X32200403Y-10459894D01*
X32208014Y-10462105D01*
X32208016Y-10462106D01*
X32258995Y-10476916D01*
X32357746Y-10505606D01*
X32364151Y-10506110D01*
X32364156Y-10506111D01*
X32392060Y-10508307D01*
X32392068Y-10508307D01*
X32394516Y-10508500D01*
X32865484Y-10508500D01*
X32867932Y-10508307D01*
X32867940Y-10508307D01*
X32895844Y-10506111D01*
X32895849Y-10506110D01*
X32902254Y-10505606D01*
X33001005Y-10476916D01*
X33051984Y-10462106D01*
X33051986Y-10462105D01*
X33059597Y-10459894D01*
X33087240Y-10443546D01*
X33151379Y-10426000D01*
X33423558Y-10426000D01*
X33437089Y-10422027D01*
X33438224Y-10414130D01*
X33434946Y-10402847D01*
X33435149Y-10331850D01*
X33473702Y-10272234D01*
X33491805Y-10259239D01*
X33495639Y-10256972D01*
X33516807Y-10244453D01*
X33531971Y-10229289D01*
X33547005Y-10216448D01*
X33564357Y-10203841D01*
X33593798Y-10168253D01*
X33601787Y-10159473D01*
X34319604Y-9441655D01*
X34328385Y-9433665D01*
X34328387Y-9433664D01*
X34335080Y-9429416D01*
X34346585Y-9417165D01*
X34383619Y-9377727D01*
X34386374Y-9374885D01*
X34406926Y-9354333D01*
X34409638Y-9350837D01*
X34417349Y-9341808D01*
X34443544Y-9313913D01*
X34448972Y-9308133D01*
X34459301Y-9289345D01*
X34470158Y-9272816D01*
X34478447Y-9262131D01*
X34478448Y-9262129D01*
X34483304Y-9255869D01*
X34501657Y-9213456D01*
X34506868Y-9202819D01*
X34529124Y-9162337D01*
X34534457Y-9141566D01*
X34540859Y-9122864D01*
X34549379Y-9103177D01*
X34556605Y-9057552D01*
X34559013Y-9045926D01*
X34568529Y-9008865D01*
X34568529Y-9008864D01*
X34570500Y-9001188D01*
X34570500Y-8979742D01*
X34572051Y-8960031D01*
X34574166Y-8946677D01*
X34575406Y-8938849D01*
X34571059Y-8892860D01*
X34570500Y-8881005D01*
X34570500Y-8862938D01*
X34590502Y-8794817D01*
X34601119Y-8780607D01*
X34694994Y-8671852D01*
X34694995Y-8671850D01*
X34699023Y-8667184D01*
X34791870Y-8503744D01*
X34851203Y-8325382D01*
X34874762Y-8138892D01*
X34875138Y-8112000D01*
X34856795Y-7924926D01*
X34842439Y-7877375D01*
X34826253Y-7823767D01*
X34802465Y-7744977D01*
X34714218Y-7579008D01*
X34595415Y-7433340D01*
X34494903Y-7350189D01*
X34455329Y-7317450D01*
X34455324Y-7317447D01*
X34450580Y-7313522D01*
X34445161Y-7310592D01*
X34445158Y-7310590D01*
X34375671Y-7273019D01*
X34285231Y-7224119D01*
X34105666Y-7168534D01*
X34099541Y-7167890D01*
X34099540Y-7167890D01*
X33924852Y-7149529D01*
X33924851Y-7149529D01*
X33918724Y-7148885D01*
X33841673Y-7155897D01*
X33737665Y-7165363D01*
X33737662Y-7165364D01*
X33731526Y-7165922D01*
X33725620Y-7167660D01*
X33725616Y-7167661D01*
X33612748Y-7200880D01*
X33551202Y-7218994D01*
X33384621Y-7306080D01*
X33238128Y-7423864D01*
X33234170Y-7428582D01*
X33234167Y-7428584D01*
X33197351Y-7472460D01*
X33117302Y-7567859D01*
X33114338Y-7573251D01*
X33114335Y-7573255D01*
X33086498Y-7623891D01*
X33026746Y-7732580D01*
X33024885Y-7738447D01*
X33024884Y-7738449D01*
X33000528Y-7815229D01*
X32969909Y-7911752D01*
X32948956Y-8098552D01*
X32949472Y-8104696D01*
X32963815Y-8275502D01*
X32964685Y-8285865D01*
X32990591Y-8376210D01*
X33001661Y-8414814D01*
X33016497Y-8466555D01*
X33019312Y-8472032D01*
X33019313Y-8472035D01*
X33093277Y-8615954D01*
X33102418Y-8633740D01*
X33106244Y-8638567D01*
X33109583Y-8643748D01*
X33107951Y-8644800D01*
X33131211Y-8702276D01*
X33118036Y-8772039D01*
X33094923Y-8803818D01*
X33037460Y-8861281D01*
X33000889Y-8897851D01*
X32938577Y-8931876D01*
X32901907Y-8934366D01*
X32867963Y-8931694D01*
X32867935Y-8931693D01*
X32865484Y-8931500D01*
X32394516Y-8931500D01*
X32392068Y-8931693D01*
X32392060Y-8931693D01*
X32364156Y-8933889D01*
X32364151Y-8933890D01*
X32357746Y-8934394D01*
X32269502Y-8960031D01*
X32208016Y-8977894D01*
X32208014Y-8977895D01*
X32200403Y-8980106D01*
X32193578Y-8984142D01*
X32193574Y-8984144D01*
X32092442Y-9043953D01*
X32028303Y-9061500D01*
X31699500Y-9061500D01*
X31631379Y-9041498D01*
X31584886Y-8987842D01*
X31573500Y-8935500D01*
X31573500Y-8045569D01*
X31593589Y-7977314D01*
X31653467Y-7884402D01*
X31653471Y-7884393D01*
X31657286Y-7878474D01*
X31662975Y-7862845D01*
X31718066Y-7711484D01*
X31718066Y-7711483D01*
X31720475Y-7704865D01*
X31738500Y-7562180D01*
X31738500Y-6225768D01*
X38587425Y-6225768D01*
X38619138Y-6333521D01*
X38623731Y-6344889D01*
X38709607Y-6509154D01*
X38716321Y-6519415D01*
X38832468Y-6663873D01*
X38841046Y-6672632D01*
X38983039Y-6791778D01*
X38993159Y-6798708D01*
X39155585Y-6888002D01*
X39166858Y-6892834D01*
X39343538Y-6948880D01*
X39355532Y-6951430D01*
X39499761Y-6967607D01*
X39506785Y-6968000D01*
X39687885Y-6968000D01*
X39703124Y-6963525D01*
X39704329Y-6962135D01*
X39706000Y-6954452D01*
X39706000Y-6949885D01*
X40214000Y-6949885D01*
X40218475Y-6965124D01*
X40219865Y-6966329D01*
X40227548Y-6968000D01*
X40406657Y-6968000D01*
X40412805Y-6967699D01*
X40550603Y-6954188D01*
X40562638Y-6951805D01*
X40740076Y-6898233D01*
X40751416Y-6893559D01*
X40915077Y-6806540D01*
X40925294Y-6799751D01*
X41068933Y-6682603D01*
X41077637Y-6673959D01*
X41195784Y-6531144D01*
X41202644Y-6520973D01*
X41290804Y-6357924D01*
X41295556Y-6346619D01*
X41331250Y-6231308D01*
X41331331Y-6225768D01*
X42387425Y-6225768D01*
X42419138Y-6333521D01*
X42423731Y-6344889D01*
X42509607Y-6509154D01*
X42516321Y-6519415D01*
X42632468Y-6663873D01*
X42641046Y-6672632D01*
X42783039Y-6791778D01*
X42793159Y-6798708D01*
X42955585Y-6888002D01*
X42966858Y-6892834D01*
X43143538Y-6948880D01*
X43155532Y-6951430D01*
X43299761Y-6967607D01*
X43306785Y-6968000D01*
X43487885Y-6968000D01*
X43503124Y-6963525D01*
X43504329Y-6962135D01*
X43506000Y-6954452D01*
X43506000Y-6232115D01*
X43501525Y-6216876D01*
X43500135Y-6215671D01*
X43492452Y-6214000D01*
X42402076Y-6214000D01*
X42388545Y-6217973D01*
X42387425Y-6225768D01*
X41331331Y-6225768D01*
X41331456Y-6217205D01*
X41324701Y-6214000D01*
X40232115Y-6214000D01*
X40216876Y-6218475D01*
X40215671Y-6219865D01*
X40214000Y-6227548D01*
X40214000Y-6949885D01*
X39706000Y-6949885D01*
X39706000Y-6232115D01*
X39701525Y-6216876D01*
X39700135Y-6215671D01*
X39692452Y-6214000D01*
X38602076Y-6214000D01*
X38588545Y-6217973D01*
X38587425Y-6225768D01*
X31738500Y-6225768D01*
X31738500Y-5843543D01*
X31723117Y-5706400D01*
X31721862Y-5702795D01*
X38588544Y-5702795D01*
X38595299Y-5706000D01*
X39687885Y-5706000D01*
X39703124Y-5701525D01*
X39704329Y-5700135D01*
X39706000Y-5692452D01*
X39706000Y-5687885D01*
X40214000Y-5687885D01*
X40218475Y-5703124D01*
X40219865Y-5704329D01*
X40227548Y-5706000D01*
X41317924Y-5706000D01*
X41328839Y-5702795D01*
X42388544Y-5702795D01*
X42395299Y-5706000D01*
X43487885Y-5706000D01*
X43503124Y-5701525D01*
X43504329Y-5700135D01*
X43506000Y-5692452D01*
X43506000Y-4970115D01*
X43501525Y-4954876D01*
X43500135Y-4953671D01*
X43492452Y-4952000D01*
X43313343Y-4952000D01*
X43307195Y-4952301D01*
X43169397Y-4965812D01*
X43157362Y-4968195D01*
X42979924Y-5021767D01*
X42968584Y-5026441D01*
X42804923Y-5113460D01*
X42794706Y-5120249D01*
X42651067Y-5237397D01*
X42642363Y-5246041D01*
X42524216Y-5388856D01*
X42517356Y-5399027D01*
X42429196Y-5562076D01*
X42424444Y-5573381D01*
X42388750Y-5688692D01*
X42388544Y-5702795D01*
X41328839Y-5702795D01*
X41331455Y-5702027D01*
X41332575Y-5694232D01*
X41300862Y-5586479D01*
X41296269Y-5575111D01*
X41210393Y-5410846D01*
X41203679Y-5400585D01*
X41087532Y-5256127D01*
X41078954Y-5247368D01*
X40936961Y-5128222D01*
X40926841Y-5121292D01*
X40764415Y-5031998D01*
X40753142Y-5027166D01*
X40576462Y-4971120D01*
X40564468Y-4968570D01*
X40420239Y-4952393D01*
X40413215Y-4952000D01*
X40232115Y-4952000D01*
X40216876Y-4956475D01*
X40215671Y-4957865D01*
X40214000Y-4965548D01*
X40214000Y-5687885D01*
X39706000Y-5687885D01*
X39706000Y-4970115D01*
X39701525Y-4954876D01*
X39700135Y-4953671D01*
X39692452Y-4952000D01*
X39513343Y-4952000D01*
X39507195Y-4952301D01*
X39369397Y-4965812D01*
X39357362Y-4968195D01*
X39179924Y-5021767D01*
X39168584Y-5026441D01*
X39004923Y-5113460D01*
X38994706Y-5120249D01*
X38851067Y-5237397D01*
X38842363Y-5246041D01*
X38724216Y-5388856D01*
X38717356Y-5399027D01*
X38629196Y-5562076D01*
X38624444Y-5573381D01*
X38588750Y-5688692D01*
X38588544Y-5702795D01*
X31721862Y-5702795D01*
X31716951Y-5688692D01*
X31681356Y-5586479D01*
X31662359Y-5531926D01*
X31655861Y-5521526D01*
X31568188Y-5381222D01*
X31564455Y-5375248D01*
X31546181Y-5356846D01*
X31439237Y-5249152D01*
X31439233Y-5249149D01*
X31434273Y-5244154D01*
X31327191Y-5176197D01*
X31284235Y-5148936D01*
X31284233Y-5148935D01*
X31278283Y-5145159D01*
X31247316Y-5134132D01*
X31110872Y-5085546D01*
X31110867Y-5085545D01*
X31104237Y-5083184D01*
X31097251Y-5082351D01*
X31097247Y-5082350D01*
X30966100Y-5066712D01*
X30920785Y-5061309D01*
X30913782Y-5062045D01*
X30913781Y-5062045D01*
X30862600Y-5067425D01*
X30737046Y-5080621D01*
X30730380Y-5082890D01*
X30730377Y-5082891D01*
X30568816Y-5137891D01*
X30568813Y-5137892D01*
X30562152Y-5140160D01*
X30556154Y-5143850D01*
X30556152Y-5143851D01*
X30410797Y-5233274D01*
X30410794Y-5233277D01*
X30404795Y-5236967D01*
X30368274Y-5272730D01*
X30305611Y-5306099D01*
X30234853Y-5300293D01*
X30190712Y-5271488D01*
X30168921Y-5249544D01*
X30158012Y-5240773D01*
X30014005Y-5149383D01*
X30001429Y-5143250D01*
X29840756Y-5086036D01*
X29827132Y-5082841D01*
X29819580Y-5081940D01*
X29754307Y-5054012D01*
X29714495Y-4995229D01*
X29708500Y-4956826D01*
X29708500Y-4272056D01*
X29709059Y-4260200D01*
X29709059Y-4260197D01*
X29710788Y-4252463D01*
X29708562Y-4181631D01*
X29708500Y-4177673D01*
X29708500Y-4148568D01*
X29707944Y-4144168D01*
X29707012Y-4132330D01*
X29705811Y-4094094D01*
X29705562Y-4086169D01*
X29699580Y-4065579D01*
X29695570Y-4046216D01*
X29693875Y-4032796D01*
X29693875Y-4032795D01*
X29692882Y-4024936D01*
X29689966Y-4017571D01*
X29689965Y-4017567D01*
X29675874Y-3981979D01*
X29672035Y-3970769D01*
X29659145Y-3926400D01*
X29648229Y-3907943D01*
X29639534Y-3890193D01*
X29631635Y-3870244D01*
X29619328Y-3853305D01*
X29604477Y-3832864D01*
X29597960Y-3822943D01*
X29574452Y-3783193D01*
X29559291Y-3768032D01*
X29546449Y-3752997D01*
X29533841Y-3735643D01*
X29498248Y-3706198D01*
X29489467Y-3698208D01*
X29065404Y-3274144D01*
X29031379Y-3211832D01*
X29028500Y-3185049D01*
X29028500Y-2905191D01*
X29048502Y-2837070D01*
X29102158Y-2790577D01*
X29172432Y-2780473D01*
X29199450Y-2787482D01*
X29221359Y-2795848D01*
X29229692Y-2799030D01*
X29234760Y-2800061D01*
X29234763Y-2800062D01*
X29297368Y-2812799D01*
X29448597Y-2843567D01*
X29453772Y-2843757D01*
X29453774Y-2843757D01*
X29666673Y-2851564D01*
X29666677Y-2851564D01*
X29671837Y-2851753D01*
X29676957Y-2851097D01*
X29676959Y-2851097D01*
X29888288Y-2824025D01*
X29888289Y-2824025D01*
X29893416Y-2823368D01*
X29928644Y-2812799D01*
X30102429Y-2760661D01*
X30102434Y-2760659D01*
X30107384Y-2759174D01*
X30307994Y-2660896D01*
X30489860Y-2531173D01*
X30534408Y-2486781D01*
X30595372Y-2426029D01*
X30648096Y-2373489D01*
X30658306Y-2359281D01*
X30778453Y-2192077D01*
X30779776Y-2193028D01*
X30826645Y-2149857D01*
X30896580Y-2137625D01*
X30962026Y-2165144D01*
X30989875Y-2196994D01*
X31049987Y-2295088D01*
X31196250Y-2463938D01*
X31368126Y-2606632D01*
X31561000Y-2719338D01*
X31769692Y-2799030D01*
X31774760Y-2800061D01*
X31774763Y-2800062D01*
X31837368Y-2812799D01*
X31988597Y-2843567D01*
X31993772Y-2843757D01*
X31993774Y-2843757D01*
X32206673Y-2851564D01*
X32206677Y-2851564D01*
X32211837Y-2851753D01*
X32216957Y-2851097D01*
X32216959Y-2851097D01*
X32428288Y-2824025D01*
X32428289Y-2824025D01*
X32433416Y-2823368D01*
X32468644Y-2812799D01*
X32642429Y-2760661D01*
X32642434Y-2760659D01*
X32647384Y-2759174D01*
X32847994Y-2660896D01*
X33029860Y-2531173D01*
X33138091Y-2423319D01*
X33200462Y-2389404D01*
X33271268Y-2394592D01*
X33328030Y-2437238D01*
X33345012Y-2468341D01*
X33359828Y-2507861D01*
X33389385Y-2586705D01*
X33476739Y-2703261D01*
X33593295Y-2790615D01*
X33729684Y-2841745D01*
X33791866Y-2848500D01*
X35588134Y-2848500D01*
X35650316Y-2841745D01*
X35786705Y-2790615D01*
X35903261Y-2703261D01*
X35990615Y-2586705D01*
X36041745Y-2450316D01*
X36048500Y-2388134D01*
X36048500Y-634500D01*
X36068502Y-566379D01*
X36122158Y-519886D01*
X36174500Y-508500D01*
X42365172Y-508500D01*
X42378815Y-509241D01*
X42417338Y-513437D01*
X42434843Y-510324D01*
X42458423Y-508387D01*
X42575662Y-509804D01*
G37*
%TD.AperFunction*%
%TA.AperFunction,Conductor*%
G36*
X12427969Y-5750051D02*
G01*
X12449152Y-5753406D01*
X12495141Y-5749059D01*
X12506996Y-5748500D01*
X13372461Y-5748500D01*
X13440582Y-5768502D01*
X13487075Y-5822158D01*
X13492019Y-5834728D01*
X13527094Y-5940167D01*
X13525296Y-5940765D01*
X13534322Y-6001626D01*
X13525463Y-6030304D01*
X13526304Y-6030610D01*
X13468103Y-6190516D01*
X13446775Y-6359343D01*
X13463381Y-6528699D01*
X13465605Y-6535384D01*
X13465605Y-6535385D01*
X13504263Y-6651594D01*
X13517094Y-6690167D01*
X13520740Y-6696188D01*
X13521294Y-6697386D01*
X13531709Y-6767614D01*
X13525314Y-6793328D01*
X13470513Y-6943894D01*
X13468103Y-6950516D01*
X13463267Y-6988794D01*
X13434887Y-7053867D01*
X13427357Y-7062094D01*
X2583275Y-17906176D01*
X2520963Y-17940202D01*
X2450148Y-17935137D01*
X2423189Y-17919963D01*
X2422724Y-17920664D01*
X2418412Y-17917799D01*
X2414359Y-17914598D01*
X2409829Y-17912097D01*
X2293046Y-17847630D01*
X2218789Y-17806638D01*
X2213920Y-17804914D01*
X2213916Y-17804912D01*
X2013087Y-17733795D01*
X2013083Y-17733794D01*
X2008212Y-17732069D01*
X2003119Y-17731162D01*
X2003116Y-17731161D01*
X1793373Y-17693800D01*
X1793367Y-17693799D01*
X1788284Y-17692894D01*
X1714452Y-17691992D01*
X1570081Y-17690228D01*
X1570079Y-17690228D01*
X1564911Y-17690165D01*
X1344091Y-17723955D01*
X1131756Y-17793357D01*
X933607Y-17896507D01*
X929474Y-17899610D01*
X929471Y-17899612D01*
X759100Y-18027530D01*
X754965Y-18030635D01*
X751393Y-18034373D01*
X621785Y-18170000D01*
X600629Y-18192138D01*
X597715Y-18196410D01*
X594463Y-18200426D01*
X592915Y-18199173D01*
X544617Y-18238757D01*
X474092Y-18246930D01*
X410345Y-18215676D01*
X373614Y-18154920D01*
X369967Y-18134280D01*
X355137Y-17972880D01*
X355136Y-17972877D01*
X354608Y-17967126D01*
X349367Y-17948543D01*
X300875Y-17776606D01*
X300874Y-17776604D01*
X299307Y-17771047D01*
X288680Y-17749496D01*
X211756Y-17593510D01*
X209201Y-17588329D01*
X190796Y-17563681D01*
X90758Y-17429715D01*
X90758Y-17429714D01*
X87305Y-17425091D01*
X-2354Y-17342211D01*
X-58057Y-17290719D01*
X-58060Y-17290717D01*
X-62297Y-17286800D01*
X-125636Y-17246836D01*
X-229712Y-17181169D01*
X-229717Y-17181167D01*
X-234596Y-17178088D01*
X-423820Y-17102595D01*
X-623634Y-17062849D01*
X-629408Y-17062773D01*
X-629412Y-17062773D01*
X-732548Y-17061424D01*
X-827345Y-17060183D01*
X-833042Y-17061162D01*
X-833043Y-17061162D01*
X-907616Y-17073976D01*
X-1028130Y-17094684D01*
X-1219266Y-17165198D01*
X-1224227Y-17168150D01*
X-1224228Y-17168150D01*
X-1257740Y-17188088D01*
X-1394351Y-17269363D01*
X-1547522Y-17403690D01*
X-1551089Y-17408215D01*
X-1551094Y-17408220D01*
X-1630632Y-17509114D01*
X-1673649Y-17563681D01*
X-1676338Y-17568792D01*
X-1676340Y-17568795D01*
X-1681601Y-17578795D01*
X-1768508Y-17743978D01*
X-1828922Y-17938543D01*
X-1830106Y-17948543D01*
X-1843442Y-18061219D01*
X-1871313Y-18126517D01*
X-1930061Y-18166380D01*
X-2001036Y-18168154D01*
X-2061702Y-18131275D01*
X-2091210Y-18075310D01*
X-2151617Y-17818977D01*
X-2154074Y-17805123D01*
X-2188811Y-17516322D01*
X-2189709Y-17502279D01*
X-2191745Y-17246836D01*
X-2189178Y-17220509D01*
X-2189003Y-17219654D01*
X-2187199Y-17210863D01*
X-2189073Y-17188088D01*
X-2191075Y-17163774D01*
X-2191500Y-17153438D01*
X-2191500Y-15357766D01*
X-2171498Y-15289645D01*
X-2117842Y-15243152D01*
X-2047568Y-15233048D01*
X-1993229Y-15254553D01*
X-1987119Y-15258831D01*
X-1803244Y-15366279D01*
X-1793958Y-15370729D01*
X-1594999Y-15446703D01*
X-1585101Y-15449579D01*
X-1481750Y-15470606D01*
X-1467701Y-15469410D01*
X-1464000Y-15459065D01*
X-1464000Y-15458517D01*
X-956000Y-15458517D01*
X-951936Y-15472359D01*
X-938522Y-15474393D01*
X-931816Y-15473534D01*
X-921738Y-15471392D01*
X-717745Y-15410191D01*
X-708158Y-15406433D01*
X-516905Y-15312739D01*
X-508055Y-15307464D01*
X-334672Y-15183792D01*
X-326800Y-15177139D01*
X-175948Y-15026812D01*
X-169270Y-15018965D01*
X-44997Y-14846020D01*
X-39687Y-14837183D01*
X54670Y-14646267D01*
X58469Y-14636672D01*
X120377Y-14432910D01*
X122555Y-14422837D01*
X123986Y-14411962D01*
X121775Y-14397778D01*
X108617Y-14394000D01*
X-937885Y-14394000D01*
X-953124Y-14398475D01*
X-954329Y-14399865D01*
X-956000Y-14407548D01*
X-956000Y-15458517D01*
X-1464000Y-15458517D01*
X-1464000Y-14012000D01*
X-1443998Y-13943879D01*
X-1390342Y-13897386D01*
X-1338000Y-13886000D01*
X108344Y-13886000D01*
X121875Y-13882027D01*
X123180Y-13872947D01*
X81214Y-13705875D01*
X77894Y-13696124D01*
X-7028Y-13500814D01*
X-11895Y-13491739D01*
X-127574Y-13312926D01*
X-133864Y-13304757D01*
X-277194Y-13147240D01*
X-284727Y-13140215D01*
X-451861Y-13008222D01*
X-460444Y-13002520D01*
X-497398Y-12982120D01*
X-547369Y-12931687D01*
X-562141Y-12862245D01*
X-537025Y-12795839D01*
X-509673Y-12769232D01*
X-440917Y-12720189D01*
X-330140Y-12641173D01*
X-171904Y-12483489D01*
X-137239Y-12435248D01*
X-44565Y-12306277D01*
X-41547Y-12302077D01*
X-8495Y-12235202D01*
X55136Y-12106453D01*
X55137Y-12106451D01*
X57430Y-12101811D01*
X122370Y-11888069D01*
X151529Y-11666590D01*
X153156Y-11600000D01*
X134852Y-11377361D01*
X80431Y-11160702D01*
X-8646Y-10955840D01*
X-129986Y-10768277D01*
X-280330Y-10603051D01*
X-284381Y-10599852D01*
X-284385Y-10599848D01*
X-451586Y-10467800D01*
X-451590Y-10467798D01*
X-455641Y-10464598D01*
X-496947Y-10441796D01*
X-546916Y-10391364D01*
X-561688Y-10321921D01*
X-536572Y-10255516D01*
X-509220Y-10228909D01*
X-435930Y-10176632D01*
X-330140Y-10101173D01*
X-171904Y-9943489D01*
X-41547Y-9762077D01*
X-37032Y-9752943D01*
X55136Y-9566453D01*
X55137Y-9566451D01*
X57430Y-9561811D01*
X119614Y-9357139D01*
X120865Y-9353023D01*
X120865Y-9353021D01*
X122370Y-9348069D01*
X151529Y-9126590D01*
X151901Y-9111375D01*
X153074Y-9063365D01*
X153074Y-9063361D01*
X153156Y-9060000D01*
X134852Y-8837361D01*
X80431Y-8620702D01*
X-8646Y-8415840D01*
X-72168Y-8317650D01*
X-127178Y-8232617D01*
X-127180Y-8232614D01*
X-129986Y-8228277D01*
X-133468Y-8224450D01*
X-277202Y-8066488D01*
X-308254Y-8002642D01*
X-299859Y-7932143D01*
X-254683Y-7877375D01*
X-228239Y-7863706D01*
X-121703Y-7823767D01*
X-113295Y-7820615D01*
X3261Y-7733261D01*
X90615Y-7616705D01*
X141745Y-7480316D01*
X148500Y-7418134D01*
X148500Y-7304500D01*
X168502Y-7236379D01*
X222158Y-7189886D01*
X274500Y-7178500D01*
X3397944Y-7178500D01*
X3409800Y-7179059D01*
X3409803Y-7179059D01*
X3417537Y-7180788D01*
X3488369Y-7178562D01*
X3492327Y-7178500D01*
X3521432Y-7178500D01*
X3525832Y-7177944D01*
X3537664Y-7177012D01*
X3583831Y-7175562D01*
X3604421Y-7169580D01*
X3623782Y-7165570D01*
X3630770Y-7164688D01*
X3637204Y-7163875D01*
X3637205Y-7163875D01*
X3645064Y-7162882D01*
X3652429Y-7159966D01*
X3652433Y-7159965D01*
X3688021Y-7145874D01*
X3699231Y-7142035D01*
X3743600Y-7129145D01*
X3762065Y-7118225D01*
X3779805Y-7109534D01*
X3799756Y-7101635D01*
X3801526Y-7100349D01*
X3868362Y-7085611D01*
X3934952Y-7110233D01*
X3977660Y-7166947D01*
X3982926Y-7237748D01*
X3965641Y-7279570D01*
X3935160Y-7326868D01*
X3926304Y-7340610D01*
X3923894Y-7347232D01*
X3878315Y-7472460D01*
X3868103Y-7500516D01*
X3846775Y-7669343D01*
X3863381Y-7838699D01*
X3917094Y-8000167D01*
X3920741Y-8006189D01*
X3920742Y-8006191D01*
X3983276Y-8109447D01*
X4001500Y-8174718D01*
X4001500Y-12572363D01*
X3981411Y-12640618D01*
X3936304Y-12710610D01*
X3878103Y-12870516D01*
X3856775Y-13039343D01*
X3873381Y-13208699D01*
X3875605Y-13215384D01*
X3875605Y-13215385D01*
X3879033Y-13225691D01*
X3927094Y-13370167D01*
X3930741Y-13376189D01*
X3930742Y-13376191D01*
X4009358Y-13506000D01*
X4015246Y-13515723D01*
X4133455Y-13638132D01*
X4275846Y-13731310D01*
X4282450Y-13733766D01*
X4282452Y-13733767D01*
X4318844Y-13747301D01*
X4435341Y-13790626D01*
X4604015Y-13813132D01*
X4611026Y-13812494D01*
X4611030Y-13812494D01*
X4766462Y-13798348D01*
X4773483Y-13797709D01*
X4780185Y-13795531D01*
X4780187Y-13795531D01*
X4928623Y-13747301D01*
X4928626Y-13747300D01*
X4935322Y-13745124D01*
X5081490Y-13657990D01*
X5086584Y-13653139D01*
X5086588Y-13653136D01*
X5163747Y-13579658D01*
X5204721Y-13540639D01*
X5228846Y-13504329D01*
X5294990Y-13404773D01*
X5298891Y-13398902D01*
X5359319Y-13239825D01*
X5383001Y-13071313D01*
X5383165Y-13059578D01*
X5383244Y-13053961D01*
X5383244Y-13053955D01*
X5383299Y-13050000D01*
X5364331Y-12880892D01*
X5360251Y-12869174D01*
X5322143Y-12759746D01*
X5308368Y-12720189D01*
X5237645Y-12607010D01*
X5218500Y-12540242D01*
X5218500Y-8172890D01*
X5239552Y-8103163D01*
X5277817Y-8045569D01*
X5288891Y-8028902D01*
X5349319Y-7869825D01*
X5373001Y-7701313D01*
X5373299Y-7680000D01*
X5354331Y-7510892D01*
X5340948Y-7472460D01*
X5300686Y-7356846D01*
X5298368Y-7350189D01*
X5292383Y-7340610D01*
X5254240Y-7279570D01*
X5208192Y-7205879D01*
X5192311Y-7189886D01*
X5131992Y-7129145D01*
X5088286Y-7085132D01*
X5066004Y-7070991D01*
X4989239Y-7022275D01*
X4944608Y-6993951D01*
X4784300Y-6936868D01*
X4615329Y-6916720D01*
X4608326Y-6917456D01*
X4608325Y-6917456D01*
X4453101Y-6933770D01*
X4453097Y-6933771D01*
X4446093Y-6934507D01*
X4439422Y-6936778D01*
X4291673Y-6987075D01*
X4291670Y-6987076D01*
X4286390Y-6988874D01*
X4286389Y-6988874D01*
X4285003Y-6989346D01*
X4284920Y-6989103D01*
X4218417Y-6999440D01*
X4153504Y-6970686D01*
X4114441Y-6911402D01*
X4113631Y-6840410D01*
X4145829Y-6785431D01*
X5145854Y-5785405D01*
X5208166Y-5751380D01*
X5234949Y-5748500D01*
X12408259Y-5748500D01*
X12427969Y-5750051D01*
G37*
%TD.AperFunction*%
%TA.AperFunction,Conductor*%
G36*
X14558330Y-7891848D02*
G01*
X14589655Y-7955561D01*
X14591500Y-7977046D01*
X14591500Y-8165761D01*
X14571498Y-8233882D01*
X14554595Y-8254856D01*
X4983035Y-17826416D01*
X4920723Y-17860442D01*
X4849908Y-17855377D01*
X4833047Y-17847630D01*
X4763316Y-17809137D01*
X4758789Y-17806638D01*
X4753920Y-17804914D01*
X4753916Y-17804912D01*
X4684959Y-17780493D01*
X4627422Y-17738898D01*
X4601507Y-17672801D01*
X4615441Y-17603185D01*
X4637924Y-17572625D01*
X14299204Y-7911345D01*
X14361306Y-7877907D01*
X14363483Y-7877709D01*
X14370181Y-7875533D01*
X14370184Y-7875532D01*
X14426564Y-7857213D01*
X14497532Y-7855186D01*
X14558330Y-7891848D01*
G37*
%TD.AperFunction*%
%TA.AperFunction,Conductor*%
G36*
X15722026Y-2165144D02*
G01*
X15749875Y-2196994D01*
X15809987Y-2295088D01*
X15956250Y-2463938D01*
X16128126Y-2606632D01*
X16321000Y-2719338D01*
X16529692Y-2799030D01*
X16534760Y-2800061D01*
X16534763Y-2800062D01*
X16597368Y-2812799D01*
X16748597Y-2843567D01*
X16753772Y-2843757D01*
X16753774Y-2843757D01*
X16966673Y-2851564D01*
X16966677Y-2851564D01*
X16971837Y-2851753D01*
X16976957Y-2851097D01*
X16976959Y-2851097D01*
X17049961Y-2841745D01*
X17193416Y-2823368D01*
X17198368Y-2821882D01*
X17198379Y-2821880D01*
X17202902Y-2820523D01*
X17273897Y-2820109D01*
X17322060Y-2846372D01*
X17350984Y-2871672D01*
X17355046Y-2875385D01*
X17394526Y-2913086D01*
X17394556Y-2913114D01*
X17395627Y-2914136D01*
X17432694Y-2946291D01*
X17433891Y-2946983D01*
X17445806Y-2957066D01*
X18136345Y-3647605D01*
X18144335Y-3656385D01*
X18148584Y-3663080D01*
X18154362Y-3668506D01*
X18154363Y-3668507D01*
X18200257Y-3711604D01*
X18203099Y-3714359D01*
X18223667Y-3734927D01*
X18227170Y-3737644D01*
X18236195Y-3745352D01*
X18269867Y-3776972D01*
X18276818Y-3780793D01*
X18276819Y-3780794D01*
X18288658Y-3787303D01*
X18305182Y-3798157D01*
X18315271Y-3805982D01*
X18322132Y-3811304D01*
X18329404Y-3814451D01*
X18329406Y-3814452D01*
X18364535Y-3829654D01*
X18375196Y-3834876D01*
X18415663Y-3857124D01*
X18436441Y-3862459D01*
X18455131Y-3868858D01*
X18474824Y-3877380D01*
X18518596Y-3884313D01*
X18520448Y-3884606D01*
X18532071Y-3887013D01*
X18560072Y-3894202D01*
X18576812Y-3898500D01*
X18598259Y-3898500D01*
X18617969Y-3900051D01*
X18639152Y-3903406D01*
X18685141Y-3899059D01*
X18696996Y-3898500D01*
X25935049Y-3898500D01*
X26003170Y-3918502D01*
X26024144Y-3935404D01*
X26409595Y-4320854D01*
X26443620Y-4383167D01*
X26446500Y-4409950D01*
X26446500Y-5354431D01*
X26426411Y-5422686D01*
X26366533Y-5515598D01*
X26366529Y-5515607D01*
X26362714Y-5521526D01*
X26360305Y-5528146D01*
X26360304Y-5528147D01*
X26308913Y-5669343D01*
X26299525Y-5695135D01*
X26298642Y-5702123D01*
X26298642Y-5702124D01*
X26298250Y-5705226D01*
X26281500Y-5837820D01*
X26281500Y-7335500D01*
X26261498Y-7403621D01*
X26207842Y-7450114D01*
X26155500Y-7461500D01*
X22683411Y-7461500D01*
X22615897Y-7441885D01*
X22530562Y-7387729D01*
X22530558Y-7387727D01*
X22524608Y-7383951D01*
X22426246Y-7348926D01*
X22368782Y-7307232D01*
X22342981Y-7241090D01*
X22357036Y-7171498D01*
X22379417Y-7141132D01*
X23235144Y-6285405D01*
X23297456Y-6251379D01*
X23324239Y-6248500D01*
X24007019Y-6248500D01*
X24076012Y-6269068D01*
X24100978Y-6285405D01*
X24155846Y-6321310D01*
X24162450Y-6323766D01*
X24162452Y-6323767D01*
X24198844Y-6337301D01*
X24315341Y-6380626D01*
X24484015Y-6403132D01*
X24491026Y-6402494D01*
X24491030Y-6402494D01*
X24646462Y-6388348D01*
X24653483Y-6387709D01*
X24660185Y-6385531D01*
X24660187Y-6385531D01*
X24808623Y-6337301D01*
X24808626Y-6337300D01*
X24815322Y-6335124D01*
X24961490Y-6247990D01*
X24966584Y-6243139D01*
X24966588Y-6243136D01*
X25033833Y-6179099D01*
X25084721Y-6130639D01*
X25178891Y-5988902D01*
X25239319Y-5829825D01*
X25240397Y-5822158D01*
X25247937Y-5768502D01*
X25263001Y-5661313D01*
X25263299Y-5640000D01*
X25244331Y-5470892D01*
X25188368Y-5310189D01*
X25098192Y-5165879D01*
X25076318Y-5143851D01*
X25022841Y-5090000D01*
X24978286Y-5045132D01*
X24963109Y-5035500D01*
X24923406Y-5010304D01*
X24834608Y-4953951D01*
X24674300Y-4896868D01*
X24505329Y-4876720D01*
X24498326Y-4877456D01*
X24498325Y-4877456D01*
X24343101Y-4893770D01*
X24343097Y-4893771D01*
X24336093Y-4894507D01*
X24329422Y-4896778D01*
X24181673Y-4947075D01*
X24181670Y-4947076D01*
X24175003Y-4949346D01*
X24169005Y-4953036D01*
X24169003Y-4953037D01*
X24071831Y-5012818D01*
X24005809Y-5031500D01*
X23068136Y-5031500D01*
X23051693Y-5030422D01*
X23020000Y-5026250D01*
X23011811Y-5027328D01*
X22980126Y-5031499D01*
X22980117Y-5031500D01*
X22980115Y-5031500D01*
X22980109Y-5031501D01*
X22980107Y-5031501D01*
X22880543Y-5044609D01*
X22869336Y-5046084D01*
X22869334Y-5046085D01*
X22861149Y-5047162D01*
X22713124Y-5108476D01*
X22706573Y-5113503D01*
X22706571Y-5113504D01*
X22636331Y-5167402D01*
X22617928Y-5181523D01*
X22617925Y-5181526D01*
X22586013Y-5206013D01*
X22580983Y-5212568D01*
X22566548Y-5231379D01*
X22555681Y-5243770D01*
X18393154Y-9406297D01*
X18380762Y-9417165D01*
X18322971Y-9461509D01*
X18322960Y-9461519D01*
X18322954Y-9461523D01*
X18322951Y-9461526D01*
X18291039Y-9486013D01*
X18286009Y-9492568D01*
X18271574Y-9511379D01*
X18260707Y-9523770D01*
X15979882Y-11804595D01*
X15917570Y-11838621D01*
X15890787Y-11841500D01*
X13417503Y-11841500D01*
X13349382Y-11821498D01*
X13302889Y-11767842D01*
X13292785Y-11697568D01*
X13322279Y-11632988D01*
X13328408Y-11626405D01*
X15986234Y-8968579D01*
X15998625Y-8957712D01*
X16017437Y-8943277D01*
X16023987Y-8938251D01*
X16048474Y-8906339D01*
X16048480Y-8906333D01*
X16116496Y-8817693D01*
X16116497Y-8817691D01*
X16121524Y-8811140D01*
X16182838Y-8663115D01*
X16187349Y-8628850D01*
X16198500Y-8544149D01*
X16198500Y-8544144D01*
X16203750Y-8504264D01*
X16199578Y-8472571D01*
X16198500Y-8456128D01*
X16198500Y-6919529D01*
X16218502Y-6851408D01*
X16272158Y-6804915D01*
X16313080Y-6794048D01*
X16363490Y-6789460D01*
X16382983Y-6787686D01*
X16389685Y-6785508D01*
X16389687Y-6785508D01*
X16538123Y-6737278D01*
X16538126Y-6737277D01*
X16544822Y-6735101D01*
X16660285Y-6666271D01*
X16724803Y-6648500D01*
X19637019Y-6648500D01*
X19706012Y-6669068D01*
X19738255Y-6690167D01*
X19785846Y-6721310D01*
X19792450Y-6723766D01*
X19792452Y-6723767D01*
X19828782Y-6737278D01*
X19945341Y-6780626D01*
X20114015Y-6803132D01*
X20121026Y-6802494D01*
X20121030Y-6802494D01*
X20276462Y-6788348D01*
X20283483Y-6787709D01*
X20290185Y-6785531D01*
X20290187Y-6785531D01*
X20438623Y-6737301D01*
X20438626Y-6737300D01*
X20445322Y-6735124D01*
X20591490Y-6647990D01*
X20596584Y-6643139D01*
X20596588Y-6643136D01*
X20684019Y-6559876D01*
X20714721Y-6530639D01*
X20719886Y-6522866D01*
X20761806Y-6459771D01*
X20808891Y-6388902D01*
X20869319Y-6229825D01*
X20893001Y-6061313D01*
X20893299Y-6040000D01*
X20874331Y-5870892D01*
X20871061Y-5861500D01*
X20827182Y-5735500D01*
X20818368Y-5710189D01*
X20813954Y-5703124D01*
X20731925Y-5571853D01*
X20728192Y-5565879D01*
X20725851Y-5563521D01*
X20699766Y-5499076D01*
X20711054Y-5439724D01*
X20708891Y-5438902D01*
X20766816Y-5286414D01*
X20769319Y-5279825D01*
X20793001Y-5111313D01*
X20793299Y-5090000D01*
X20774331Y-4920892D01*
X20766789Y-4899233D01*
X20720686Y-4766846D01*
X20718368Y-4760189D01*
X20628192Y-4615879D01*
X20583782Y-4571157D01*
X20513248Y-4500129D01*
X20508286Y-4495132D01*
X20482309Y-4478646D01*
X20453406Y-4460304D01*
X20364608Y-4403951D01*
X20204300Y-4346868D01*
X20035329Y-4326720D01*
X20028326Y-4327456D01*
X20028325Y-4327456D01*
X19873101Y-4343770D01*
X19873097Y-4343771D01*
X19866093Y-4344507D01*
X19859422Y-4346778D01*
X19711673Y-4397075D01*
X19711670Y-4397076D01*
X19705003Y-4399346D01*
X19683105Y-4412818D01*
X19617083Y-4431500D01*
X13473516Y-4431500D01*
X13405395Y-4411498D01*
X13358902Y-4357842D01*
X13348510Y-4289708D01*
X13362321Y-4180379D01*
X13362762Y-4176892D01*
X13363138Y-4150000D01*
X13344795Y-3962926D01*
X13290465Y-3782977D01*
X13202218Y-3617008D01*
X13083415Y-3471340D01*
X13017104Y-3416483D01*
X12943329Y-3355450D01*
X12943324Y-3355447D01*
X12938580Y-3351522D01*
X12933161Y-3348592D01*
X12933158Y-3348590D01*
X12863671Y-3311019D01*
X12773231Y-3262119D01*
X12593666Y-3206534D01*
X12587541Y-3205890D01*
X12587540Y-3205890D01*
X12412852Y-3187529D01*
X12412851Y-3187529D01*
X12406724Y-3186885D01*
X12329673Y-3193897D01*
X12225665Y-3203363D01*
X12225662Y-3203364D01*
X12219526Y-3203922D01*
X12213620Y-3205660D01*
X12213616Y-3205661D01*
X12080278Y-3244905D01*
X12039202Y-3256994D01*
X12006397Y-3274144D01*
X11879236Y-3340622D01*
X11872621Y-3344080D01*
X11726128Y-3461864D01*
X11722170Y-3466582D01*
X11722167Y-3466584D01*
X11634797Y-3570708D01*
X11605302Y-3605859D01*
X11602338Y-3611251D01*
X11602335Y-3611255D01*
X11570861Y-3668507D01*
X11514746Y-3770580D01*
X11512885Y-3776447D01*
X11512884Y-3776449D01*
X11495259Y-3832010D01*
X11457909Y-3949752D01*
X11436956Y-4136552D01*
X11450258Y-4294958D01*
X11436027Y-4364512D01*
X11386450Y-4415332D01*
X11324700Y-4431500D01*
X4992056Y-4431500D01*
X4980200Y-4430941D01*
X4980197Y-4430941D01*
X4972463Y-4429212D01*
X4917446Y-4430941D01*
X4901631Y-4431438D01*
X4897673Y-4431500D01*
X4868568Y-4431500D01*
X4864168Y-4432056D01*
X4852336Y-4432988D01*
X4806169Y-4434438D01*
X4785579Y-4440420D01*
X4766218Y-4444430D01*
X4759230Y-4445312D01*
X4752796Y-4446125D01*
X4752795Y-4446125D01*
X4744936Y-4447118D01*
X4737571Y-4450034D01*
X4737567Y-4450035D01*
X4701979Y-4464126D01*
X4690769Y-4467965D01*
X4646400Y-4480855D01*
X4627943Y-4491771D01*
X4610193Y-4500466D01*
X4590244Y-4508365D01*
X4583833Y-4513023D01*
X4583831Y-4513024D01*
X4552864Y-4535523D01*
X4542946Y-4542038D01*
X4503193Y-4565548D01*
X4488032Y-4580709D01*
X4473000Y-4593548D01*
X4455643Y-4606159D01*
X4450590Y-4612267D01*
X4426194Y-4641757D01*
X4418204Y-4650537D01*
X3244145Y-5824595D01*
X3181833Y-5858621D01*
X3155050Y-5861500D01*
X2545435Y-5861500D01*
X2477314Y-5841498D01*
X2430821Y-5787842D01*
X2420661Y-5717966D01*
X2422451Y-5705226D01*
X2423001Y-5701313D01*
X2423125Y-5692452D01*
X2423244Y-5683961D01*
X2423244Y-5683955D01*
X2423299Y-5680000D01*
X2404331Y-5510892D01*
X2390402Y-5470892D01*
X2359175Y-5381222D01*
X2348368Y-5350189D01*
X2297645Y-5269017D01*
X2278500Y-5202248D01*
X2278500Y-2885940D01*
X2280472Y-2863734D01*
X2282792Y-2850776D01*
X2283585Y-2846347D01*
X2283744Y-2841745D01*
X2284984Y-2805664D01*
X2285321Y-2795844D01*
X2285878Y-2787585D01*
X2285889Y-2787482D01*
X2288008Y-2766379D01*
X2314718Y-2700598D01*
X2357940Y-2665822D01*
X2363349Y-2663172D01*
X2363353Y-2663170D01*
X2367994Y-2660896D01*
X2372198Y-2657898D01*
X2372202Y-2657895D01*
X2461932Y-2593891D01*
X2549860Y-2531173D01*
X2594408Y-2486781D01*
X2655372Y-2426029D01*
X2708096Y-2373489D01*
X2718306Y-2359281D01*
X2838453Y-2192077D01*
X2839776Y-2193028D01*
X2886645Y-2149857D01*
X2956580Y-2137625D01*
X3022026Y-2165144D01*
X3049875Y-2196994D01*
X3109987Y-2295088D01*
X3256250Y-2463938D01*
X3428126Y-2606632D01*
X3621000Y-2719338D01*
X3829692Y-2799030D01*
X3834760Y-2800061D01*
X3834763Y-2800062D01*
X3897368Y-2812799D01*
X4048597Y-2843567D01*
X4053772Y-2843757D01*
X4053774Y-2843757D01*
X4266673Y-2851564D01*
X4266677Y-2851564D01*
X4271837Y-2851753D01*
X4276957Y-2851097D01*
X4276959Y-2851097D01*
X4488288Y-2824025D01*
X4488289Y-2824025D01*
X4493416Y-2823368D01*
X4528644Y-2812799D01*
X4702429Y-2760661D01*
X4702434Y-2760659D01*
X4707384Y-2759174D01*
X4907994Y-2660896D01*
X5089860Y-2531173D01*
X5134408Y-2486781D01*
X5195372Y-2426029D01*
X5248096Y-2373489D01*
X5258306Y-2359281D01*
X5378453Y-2192077D01*
X5379776Y-2193028D01*
X5426645Y-2149857D01*
X5496580Y-2137625D01*
X5562026Y-2165144D01*
X5589875Y-2196994D01*
X5649987Y-2295088D01*
X5796250Y-2463938D01*
X5968126Y-2606632D01*
X6161000Y-2719338D01*
X6369692Y-2799030D01*
X6374760Y-2800061D01*
X6374763Y-2800062D01*
X6437368Y-2812799D01*
X6588597Y-2843567D01*
X6593772Y-2843757D01*
X6593774Y-2843757D01*
X6806673Y-2851564D01*
X6806677Y-2851564D01*
X6811837Y-2851753D01*
X6816957Y-2851097D01*
X6816959Y-2851097D01*
X7028288Y-2824025D01*
X7028289Y-2824025D01*
X7033416Y-2823368D01*
X7068644Y-2812799D01*
X7242429Y-2760661D01*
X7242434Y-2760659D01*
X7247384Y-2759174D01*
X7447994Y-2660896D01*
X7629860Y-2531173D01*
X7674408Y-2486781D01*
X7735372Y-2426029D01*
X7788096Y-2373489D01*
X7798306Y-2359281D01*
X7918453Y-2192077D01*
X7919776Y-2193028D01*
X7966645Y-2149857D01*
X8036580Y-2137625D01*
X8102026Y-2165144D01*
X8129875Y-2196994D01*
X8189987Y-2295088D01*
X8336250Y-2463938D01*
X8508126Y-2606632D01*
X8701000Y-2719338D01*
X8909692Y-2799030D01*
X8914760Y-2800061D01*
X8914763Y-2800062D01*
X8977368Y-2812799D01*
X9128597Y-2843567D01*
X9133772Y-2843757D01*
X9133774Y-2843757D01*
X9346673Y-2851564D01*
X9346677Y-2851564D01*
X9351837Y-2851753D01*
X9356957Y-2851097D01*
X9356959Y-2851097D01*
X9568288Y-2824025D01*
X9568289Y-2824025D01*
X9573416Y-2823368D01*
X9608644Y-2812799D01*
X9782429Y-2760661D01*
X9782434Y-2760659D01*
X9787384Y-2759174D01*
X9987994Y-2660896D01*
X10169860Y-2531173D01*
X10214408Y-2486781D01*
X10275372Y-2426029D01*
X10328096Y-2373489D01*
X10338306Y-2359281D01*
X10458453Y-2192077D01*
X10459776Y-2193028D01*
X10506645Y-2149857D01*
X10576580Y-2137625D01*
X10642026Y-2165144D01*
X10669875Y-2196994D01*
X10729987Y-2295088D01*
X10876250Y-2463938D01*
X11048126Y-2606632D01*
X11241000Y-2719338D01*
X11449692Y-2799030D01*
X11454760Y-2800061D01*
X11454763Y-2800062D01*
X11517368Y-2812799D01*
X11668597Y-2843567D01*
X11673772Y-2843757D01*
X11673774Y-2843757D01*
X11886673Y-2851564D01*
X11886677Y-2851564D01*
X11891837Y-2851753D01*
X11896957Y-2851097D01*
X11896959Y-2851097D01*
X12108288Y-2824025D01*
X12108289Y-2824025D01*
X12113416Y-2823368D01*
X12148644Y-2812799D01*
X12322429Y-2760661D01*
X12322434Y-2760659D01*
X12327384Y-2759174D01*
X12527994Y-2660896D01*
X12709860Y-2531173D01*
X12754408Y-2486781D01*
X12815372Y-2426029D01*
X12868096Y-2373489D01*
X12878306Y-2359281D01*
X12998453Y-2192077D01*
X12999776Y-2193028D01*
X13046645Y-2149857D01*
X13116580Y-2137625D01*
X13182026Y-2165144D01*
X13209875Y-2196994D01*
X13269987Y-2295088D01*
X13416250Y-2463938D01*
X13588126Y-2606632D01*
X13781000Y-2719338D01*
X13989692Y-2799030D01*
X13994760Y-2800061D01*
X13994763Y-2800062D01*
X14057368Y-2812799D01*
X14208597Y-2843567D01*
X14213772Y-2843757D01*
X14213774Y-2843757D01*
X14426673Y-2851564D01*
X14426677Y-2851564D01*
X14431837Y-2851753D01*
X14436957Y-2851097D01*
X14436959Y-2851097D01*
X14648288Y-2824025D01*
X14648289Y-2824025D01*
X14653416Y-2823368D01*
X14688644Y-2812799D01*
X14862429Y-2760661D01*
X14862434Y-2760659D01*
X14867384Y-2759174D01*
X15067994Y-2660896D01*
X15249860Y-2531173D01*
X15294408Y-2486781D01*
X15355372Y-2426029D01*
X15408096Y-2373489D01*
X15418306Y-2359281D01*
X15538453Y-2192077D01*
X15539776Y-2193028D01*
X15586645Y-2149857D01*
X15656580Y-2137625D01*
X15722026Y-2165144D01*
G37*
%TD.AperFunction*%
%TA.AperFunction,Conductor*%
G36*
X554013Y-2276748D02*
G01*
X568952Y-2293398D01*
X569987Y-2295088D01*
X716250Y-2463938D01*
X888126Y-2606632D01*
X980988Y-2660896D01*
X989776Y-2666031D01*
X1038499Y-2717670D01*
X1051574Y-2762227D01*
X1054111Y-2787482D01*
X1054121Y-2787585D01*
X1054678Y-2795844D01*
X1056414Y-2846347D01*
X1056522Y-2847710D01*
X1056523Y-2847721D01*
X1057951Y-2865675D01*
X1060073Y-2892364D01*
X1060144Y-2892623D01*
X1061500Y-2908242D01*
X1061500Y-5171329D01*
X1041411Y-5239584D01*
X976304Y-5340610D01*
X918103Y-5500516D01*
X896775Y-5669343D01*
X897463Y-5676357D01*
X902056Y-5723205D01*
X888796Y-5792952D01*
X839934Y-5844459D01*
X776657Y-5861500D01*
X274500Y-5861500D01*
X206379Y-5841498D01*
X159886Y-5787842D01*
X148500Y-5735500D01*
X148500Y-5621866D01*
X141745Y-5559684D01*
X90615Y-5423295D01*
X3261Y-5306739D01*
X-113295Y-5219385D01*
X-249684Y-5168255D01*
X-311866Y-5161500D01*
X-2065500Y-5161500D01*
X-2133621Y-5141498D01*
X-2180114Y-5087842D01*
X-2191500Y-5035500D01*
X-2191500Y-3217182D01*
X-2190653Y-3202601D01*
X-2187487Y-3175428D01*
X-2187487Y-3175426D01*
X-2186448Y-3166508D01*
X-2187954Y-3157653D01*
X-2189459Y-3148804D01*
X-2191222Y-3125325D01*
X-2190508Y-3087024D01*
X-2187422Y-2921340D01*
X-2186532Y-2873545D01*
X-2185444Y-2859203D01*
X-2148391Y-2581924D01*
X-2145675Y-2567799D01*
X-2120345Y-2467369D01*
X-2084291Y-2406208D01*
X-2020894Y-2374249D01*
X-1950283Y-2381638D01*
X-1894876Y-2426029D01*
X-1872441Y-2489941D01*
X-1871266Y-2507861D01*
X-1869543Y-2534151D01*
X-1819395Y-2731610D01*
X-1734102Y-2916624D01*
X-1616521Y-3082997D01*
X-1612387Y-3087024D01*
X-1484268Y-3211832D01*
X-1470590Y-3225157D01*
X-1465794Y-3228362D01*
X-1465791Y-3228364D01*
X-1415273Y-3262119D01*
X-1301197Y-3338342D01*
X-1295894Y-3340620D01*
X-1295891Y-3340622D01*
X-1206885Y-3378862D01*
X-1114013Y-3418763D01*
X-1041183Y-3435243D01*
X-920945Y-3462450D01*
X-920940Y-3462451D01*
X-915308Y-3463725D01*
X-909537Y-3463952D01*
X-909535Y-3463952D01*
X-846530Y-3466427D01*
X-711737Y-3471723D01*
X-510117Y-3442490D01*
X-504653Y-3440635D01*
X-504648Y-3440634D01*
X-322673Y-3378862D01*
X-322668Y-3378860D01*
X-317201Y-3377004D01*
X-278713Y-3355450D01*
X-242433Y-3335132D01*
X-139449Y-3277458D01*
X17186Y-3147186D01*
X147458Y-2990551D01*
X219761Y-2861445D01*
X244180Y-2817842D01*
X244181Y-2817840D01*
X247004Y-2812799D01*
X248860Y-2807332D01*
X248862Y-2807327D01*
X310634Y-2625352D01*
X310635Y-2625347D01*
X312490Y-2619883D01*
X341723Y-2418263D01*
X343079Y-2366481D01*
X364858Y-2298908D01*
X419712Y-2253835D01*
X490226Y-2245575D01*
X554013Y-2276748D01*
G37*
%TD.AperFunction*%
%TD*%
%TA.AperFunction,Conductor*%
%TO.N,/VDD_3.3V*%
G36*
X-397122Y-6268081D02*
G01*
X-394663Y-6270249D01*
X-389129Y-6276718D01*
X-389124Y-6276722D01*
X-388468Y-6277489D01*
X-387590Y-6277989D01*
X-387588Y-6277990D01*
X-365061Y-6290805D01*
X-365057Y-6290807D01*
X-364700Y-6291010D01*
X-329153Y-6305010D01*
X-328937Y-6305075D01*
X-328938Y-6305075D01*
X-283282Y-6318890D01*
X-283265Y-6318895D01*
X-283128Y-6318936D01*
X-261020Y-6324263D01*
X-228058Y-6332206D01*
X-228044Y-6332209D01*
X-227932Y-6332236D01*
X-191619Y-6339215D01*
X-164993Y-6344333D01*
X-164984Y-6344335D01*
X-164867Y-6344357D01*
X-95238Y-6354747D01*
X-95130Y-6354759D01*
X-95120Y-6354760D01*
X-63463Y-6358186D01*
X-20348Y-6362852D01*
X58499Y-6368121D01*
X58603Y-6368123D01*
X58616Y-6368124D01*
X85590Y-6368746D01*
X128571Y-6369737D01*
X136762Y-6373353D01*
X140000Y-6381433D01*
X140000Y-6658566D01*
X136573Y-6666839D01*
X128570Y-6670263D01*
X58616Y-6671875D01*
X58603Y-6671876D01*
X58499Y-6671878D01*
X-20348Y-6677147D01*
X-63463Y-6681813D01*
X-95120Y-6685239D01*
X-95130Y-6685240D01*
X-95238Y-6685252D01*
X-164867Y-6695642D01*
X-164984Y-6695664D01*
X-164993Y-6695666D01*
X-191619Y-6700784D01*
X-227932Y-6707763D01*
X-228044Y-6707790D01*
X-228058Y-6707793D01*
X-261020Y-6715736D01*
X-283128Y-6721063D01*
X-283265Y-6721104D01*
X-283282Y-6721109D01*
X-325176Y-6733786D01*
X-329153Y-6734989D01*
X-364700Y-6748989D01*
X-365057Y-6749192D01*
X-365061Y-6749194D01*
X-373480Y-6753984D01*
X-388468Y-6762510D01*
X-394661Y-6769750D01*
X-402643Y-6773810D01*
X-405916Y-6773604D01*
X-1579464Y-6531459D01*
X-1586874Y-6526431D01*
X-1588559Y-6517636D01*
X-1583531Y-6510226D01*
X-1579464Y-6508541D01*
X-405917Y-6266396D01*
X-397122Y-6268081D01*
G37*
%TD.AperFunction*%
%TD*%
%TA.AperFunction,Conductor*%
%TO.N,/PB2*%
G36*
X6836968Y-17703427D02*
G01*
X6840388Y-17711298D01*
X6842846Y-17782787D01*
X6850811Y-17862112D01*
X6863028Y-17936868D01*
X6878633Y-18005946D01*
X6896762Y-18068240D01*
X6916550Y-18122640D01*
X6937133Y-18168039D01*
X6937279Y-18168290D01*
X6937282Y-18168296D01*
X6957412Y-18202929D01*
X6957415Y-18202934D01*
X6957645Y-18203329D01*
X6977222Y-18227403D01*
X6977965Y-18227894D01*
X6988391Y-18234785D01*
X6993404Y-18242206D01*
X6993399Y-18246910D01*
X6751459Y-19419464D01*
X6746431Y-19426874D01*
X6737636Y-19428559D01*
X6730226Y-19423531D01*
X6728541Y-19419464D01*
X6486601Y-18246909D01*
X6488286Y-18238114D01*
X6491609Y-18234784D01*
X6502034Y-18227894D01*
X6502777Y-18227403D01*
X6522354Y-18203329D01*
X6522584Y-18202934D01*
X6522587Y-18202929D01*
X6542717Y-18168296D01*
X6542720Y-18168290D01*
X6542866Y-18168039D01*
X6563449Y-18122640D01*
X6583237Y-18068240D01*
X6601366Y-18005946D01*
X6616971Y-17936868D01*
X6629188Y-17862112D01*
X6637153Y-17782787D01*
X6639612Y-17711297D01*
X6643320Y-17703147D01*
X6651304Y-17700000D01*
X6828695Y-17700000D01*
X6836968Y-17703427D01*
G37*
%TD.AperFunction*%
%TD*%
%TA.AperFunction,Conductor*%
%TO.N,/PB0*%
G36*
X2788764Y-18435680D02*
G01*
X2914092Y-18561008D01*
X2917519Y-18569281D01*
X2914205Y-18577440D01*
X2896486Y-18595652D01*
X2851750Y-18641632D01*
X2851711Y-18641675D01*
X2851696Y-18641690D01*
X2821144Y-18674859D01*
X2786348Y-18712635D01*
X2726551Y-18781251D01*
X2672866Y-18846555D01*
X2625796Y-18907619D01*
X2585848Y-18963519D01*
X2553524Y-19013328D01*
X2529332Y-19056120D01*
X2529223Y-19056364D01*
X2529218Y-19056374D01*
X2515262Y-19087637D01*
X2513775Y-19090968D01*
X2513650Y-19091474D01*
X2509506Y-19108256D01*
X2504196Y-19115466D01*
X2498409Y-19117148D01*
X1885691Y-19130856D01*
X1302482Y-19143903D01*
X1294135Y-19140662D01*
X1290524Y-19132468D01*
X1293765Y-19124120D01*
X1297351Y-19121568D01*
X2387232Y-18622612D01*
X2396181Y-18622284D01*
X2398577Y-18623505D01*
X2405375Y-18628022D01*
X2406912Y-18628119D01*
X2406913Y-18628119D01*
X2426802Y-18629369D01*
X2426804Y-18629369D01*
X2427473Y-18629411D01*
X2457955Y-18624315D01*
X2463571Y-18622612D01*
X2465357Y-18622070D01*
X2495331Y-18612980D01*
X2538109Y-18595652D01*
X2584797Y-18572578D01*
X2633905Y-18544004D01*
X2683940Y-18510176D01*
X2733413Y-18471342D01*
X2772572Y-18435340D01*
X2780982Y-18432263D01*
X2788764Y-18435680D01*
G37*
%TD.AperFunction*%
%TD*%
%TA.AperFunction,Conductor*%
%TO.N,/PA5{slash}SCLK*%
G36*
X21736851Y-1220646D02*
G01*
X22737897Y-1879247D01*
X22742925Y-1886657D01*
X22743131Y-1889930D01*
X22742391Y-1899430D01*
X22749636Y-1925797D01*
X22764873Y-1960833D01*
X22787570Y-2003224D01*
X22817195Y-2051658D01*
X22853217Y-2104822D01*
X22853290Y-2104921D01*
X22853291Y-2104922D01*
X22895032Y-2161305D01*
X22895048Y-2161325D01*
X22895106Y-2161404D01*
X22942330Y-2220090D01*
X22942407Y-2220178D01*
X22942422Y-2220196D01*
X22962954Y-2243668D01*
X22994358Y-2279569D01*
X23002087Y-2287663D01*
X23042763Y-2330259D01*
X23045998Y-2338609D01*
X23042574Y-2346612D01*
X22846612Y-2542574D01*
X22838339Y-2546001D01*
X22830259Y-2542763D01*
X22779663Y-2494448D01*
X22779569Y-2494358D01*
X22749829Y-2468344D01*
X22720196Y-2442422D01*
X22720178Y-2442407D01*
X22720090Y-2442330D01*
X22661404Y-2395106D01*
X22661325Y-2395048D01*
X22661305Y-2395032D01*
X22604922Y-2353291D01*
X22604921Y-2353290D01*
X22604822Y-2353217D01*
X22551658Y-2317195D01*
X22503224Y-2287570D01*
X22460833Y-2264873D01*
X22437929Y-2254912D01*
X22426177Y-2249801D01*
X22426174Y-2249800D01*
X22425797Y-2249636D01*
X22399430Y-2242391D01*
X22394631Y-2242765D01*
X22389930Y-2243131D01*
X22381415Y-2240357D01*
X22379247Y-2237897D01*
X22174163Y-1926177D01*
X21720646Y-1236851D01*
X21718961Y-1228056D01*
X21723989Y-1220646D01*
X21732784Y-1218961D01*
X21736851Y-1220646D01*
G37*
%TD.AperFunction*%
%TD*%
%TA.AperFunction,Conductor*%
%TO.N,/PA15*%
G36*
X1679774Y-1116469D02*
G01*
X1681459Y-1120536D01*
X1923399Y-2293091D01*
X1921714Y-2301886D01*
X1918390Y-2305216D01*
X1907967Y-2312103D01*
X1907965Y-2312105D01*
X1907222Y-2312596D01*
X1887645Y-2336670D01*
X1887415Y-2337065D01*
X1887412Y-2337070D01*
X1867282Y-2371703D01*
X1867133Y-2371960D01*
X1846550Y-2417359D01*
X1826762Y-2471759D01*
X1808633Y-2534053D01*
X1793028Y-2603131D01*
X1780811Y-2677887D01*
X1772846Y-2757212D01*
X1772840Y-2757391D01*
X1772839Y-2757403D01*
X1770388Y-2828702D01*
X1766679Y-2836853D01*
X1758695Y-2840000D01*
X1581304Y-2840000D01*
X1573031Y-2836573D01*
X1569611Y-2828702D01*
X1567160Y-2757403D01*
X1567159Y-2757391D01*
X1567153Y-2757212D01*
X1559188Y-2677887D01*
X1546971Y-2603131D01*
X1531366Y-2534053D01*
X1513237Y-2471759D01*
X1493449Y-2417359D01*
X1472866Y-2371960D01*
X1472717Y-2371703D01*
X1452587Y-2337070D01*
X1452584Y-2337065D01*
X1452354Y-2336670D01*
X1432777Y-2312596D01*
X1431782Y-2311938D01*
X1421609Y-2305215D01*
X1416596Y-2297794D01*
X1416601Y-2293090D01*
X1658541Y-1120536D01*
X1663569Y-1113126D01*
X1672364Y-1111441D01*
X1679774Y-1116469D01*
G37*
%TD.AperFunction*%
%TD*%
%TA.AperFunction,Conductor*%
%TO.N,/PA6{slash}MISO*%
G36*
X20306612Y-437426D02*
G01*
X20502574Y-633388D01*
X20506001Y-641661D01*
X20502763Y-649741D01*
X20454358Y-700430D01*
X20441596Y-715020D01*
X20402422Y-759803D01*
X20402407Y-759821D01*
X20402330Y-759909D01*
X20355106Y-818595D01*
X20355048Y-818674D01*
X20355032Y-818694D01*
X20313291Y-875077D01*
X20313217Y-875177D01*
X20277195Y-928341D01*
X20247570Y-976775D01*
X20224873Y-1019166D01*
X20209636Y-1054202D01*
X20202391Y-1080569D01*
X20202470Y-1081579D01*
X20203131Y-1090070D01*
X20200357Y-1098585D01*
X20197897Y-1100753D01*
X19196851Y-1759354D01*
X19188056Y-1761039D01*
X19180646Y-1756011D01*
X19178961Y-1747216D01*
X19180646Y-1743149D01*
X19839248Y-742102D01*
X19846658Y-737074D01*
X19849929Y-736868D01*
X19859430Y-737608D01*
X19885797Y-730363D01*
X19886174Y-730199D01*
X19886177Y-730198D01*
X19897929Y-725087D01*
X19920833Y-715126D01*
X19963224Y-692429D01*
X20011658Y-662804D01*
X20064822Y-626782D01*
X20064922Y-626708D01*
X20121305Y-584967D01*
X20121325Y-584951D01*
X20121404Y-584893D01*
X20180090Y-537669D01*
X20180178Y-537592D01*
X20180196Y-537577D01*
X20209829Y-511655D01*
X20239569Y-485641D01*
X20251896Y-473870D01*
X20290259Y-437237D01*
X20298609Y-434002D01*
X20306612Y-437426D01*
G37*
%TD.AperFunction*%
%TD*%
%TA.AperFunction,Conductor*%
%TO.N,/PB1*%
G36*
X5274544Y-18269916D02*
G01*
X5399925Y-18395297D01*
X5403352Y-18403570D01*
X5400098Y-18411666D01*
X5388368Y-18423904D01*
X5341603Y-18472692D01*
X5341521Y-18472785D01*
X5341508Y-18472799D01*
X5287567Y-18533949D01*
X5280817Y-18541600D01*
X5226049Y-18608992D01*
X5177680Y-18673737D01*
X5136094Y-18734705D01*
X5136043Y-18734788D01*
X5136030Y-18734808D01*
X5103422Y-18787915D01*
X5101672Y-18790766D01*
X5074798Y-18840789D01*
X5074719Y-18840968D01*
X5074713Y-18840980D01*
X5058225Y-18878279D01*
X5055853Y-18883645D01*
X5045219Y-18918203D01*
X5045169Y-18918849D01*
X5045169Y-18918850D01*
X5043941Y-18934768D01*
X5039888Y-18942753D01*
X5034911Y-18945267D01*
X4568957Y-19052910D01*
X3869030Y-19214604D01*
X3860197Y-19213127D01*
X3854996Y-19205838D01*
X3856473Y-19197005D01*
X3859463Y-19193781D01*
X4819255Y-18488093D01*
X4824757Y-18484048D01*
X4833453Y-18481908D01*
X4836785Y-18482943D01*
X4846208Y-18487504D01*
X4872227Y-18488107D01*
X4872800Y-18488004D01*
X4872801Y-18488004D01*
X4906635Y-18481925D01*
X4906642Y-18481923D01*
X4906972Y-18481864D01*
X4907298Y-18481764D01*
X4907301Y-18481763D01*
X4948674Y-18469035D01*
X4948921Y-18468959D01*
X4949154Y-18468864D01*
X4949163Y-18468861D01*
X4996354Y-18449658D01*
X4996360Y-18449656D01*
X4996550Y-18449578D01*
X5021674Y-18437122D01*
X5048150Y-18423997D01*
X5048156Y-18423994D01*
X5048337Y-18423904D01*
X5069292Y-18411666D01*
X5102569Y-18392233D01*
X5102582Y-18392225D01*
X5102758Y-18392122D01*
X5158292Y-18354417D01*
X5213414Y-18310973D01*
X5224200Y-18301037D01*
X5258344Y-18269584D01*
X5266751Y-18266499D01*
X5274544Y-18269916D01*
G37*
%TD.AperFunction*%
%TD*%
%TA.AperFunction,Conductor*%
%TO.N,/PA7{slash}MOSI*%
G36*
X16656851Y-1220646D02*
G01*
X17657897Y-1879247D01*
X17662925Y-1886657D01*
X17663131Y-1889930D01*
X17662391Y-1899430D01*
X17669636Y-1925797D01*
X17684873Y-1960833D01*
X17707570Y-2003224D01*
X17737195Y-2051658D01*
X17773217Y-2104822D01*
X17773290Y-2104921D01*
X17773291Y-2104922D01*
X17815032Y-2161305D01*
X17815048Y-2161325D01*
X17815106Y-2161404D01*
X17862330Y-2220090D01*
X17862407Y-2220178D01*
X17862422Y-2220196D01*
X17882954Y-2243668D01*
X17914358Y-2279569D01*
X17922087Y-2287663D01*
X17962763Y-2330259D01*
X17965998Y-2338609D01*
X17962574Y-2346612D01*
X17766612Y-2542574D01*
X17758339Y-2546001D01*
X17750259Y-2542763D01*
X17699663Y-2494448D01*
X17699569Y-2494358D01*
X17669829Y-2468344D01*
X17640196Y-2442422D01*
X17640178Y-2442407D01*
X17640090Y-2442330D01*
X17581404Y-2395106D01*
X17581325Y-2395048D01*
X17581305Y-2395032D01*
X17524922Y-2353291D01*
X17524921Y-2353290D01*
X17524822Y-2353217D01*
X17471658Y-2317195D01*
X17423224Y-2287570D01*
X17380833Y-2264873D01*
X17357929Y-2254912D01*
X17346177Y-2249801D01*
X17346174Y-2249800D01*
X17345797Y-2249636D01*
X17319430Y-2242391D01*
X17314631Y-2242765D01*
X17309930Y-2243131D01*
X17301415Y-2240357D01*
X17299247Y-2237897D01*
X17094163Y-1926177D01*
X16640646Y-1236851D01*
X16638961Y-1228056D01*
X16643989Y-1220646D01*
X16652784Y-1218961D01*
X16656851Y-1220646D01*
G37*
%TD.AperFunction*%
%TD*%
M02*
