%TF.GenerationSoftware,KiCad,Pcbnew,(6.0.8)*%
%TF.CreationDate,2022-10-12T16:17:52+08:00*%
%TF.ProjectId,UINIO-MCU-STM32L051K8,55494e49-4f2d-44d4-9355-2d53544d3332,rev?*%
%TF.SameCoordinates,Original*%
%TF.FileFunction,Copper,L1,Top*%
%TF.FilePolarity,Positive*%
%FSLAX46Y46*%
G04 Gerber Fmt 4.6, Leading zero omitted, Abs format (unit mm)*
G04 Created by KiCad (PCBNEW (6.0.8)) date 2022-10-12 16:17:52*
%MOMM*%
%LPD*%
G01*
G04 APERTURE LIST*
G04 Aperture macros list*
%AMRoundRect*
0 Rectangle with rounded corners*
0 $1 Rounding radius*
0 $2 $3 $4 $5 $6 $7 $8 $9 X,Y pos of 4 corners*
0 Add a 4 corners polygon primitive as box body*
4,1,4,$2,$3,$4,$5,$6,$7,$8,$9,$2,$3,0*
0 Add four circle primitives for the rounded corners*
1,1,$1+$1,$2,$3*
1,1,$1+$1,$4,$5*
1,1,$1+$1,$6,$7*
1,1,$1+$1,$8,$9*
0 Add four rect primitives between the rounded corners*
20,1,$1+$1,$2,$3,$4,$5,0*
20,1,$1+$1,$4,$5,$6,$7,0*
20,1,$1+$1,$6,$7,$8,$9,0*
20,1,$1+$1,$8,$9,$2,$3,0*%
%AMRotRect*
0 Rectangle, with rotation*
0 The origin of the aperture is its center*
0 $1 length*
0 $2 width*
0 $3 Rotation angle, in degrees counterclockwise*
0 Add horizontal line*
21,1,$1,$2,0,0,$3*%
G04 Aperture macros list end*
%TA.AperFunction,SMDPad,CuDef*%
%ADD10RoundRect,0.135000X-0.135000X-0.185000X0.135000X-0.185000X0.135000X0.185000X-0.135000X0.185000X0*%
%TD*%
%TA.AperFunction,SMDPad,CuDef*%
%ADD11RoundRect,0.140000X-0.140000X-0.170000X0.140000X-0.170000X0.140000X0.170000X-0.140000X0.170000X0*%
%TD*%
%TA.AperFunction,SMDPad,CuDef*%
%ADD12RoundRect,0.250000X-0.375000X-0.625000X0.375000X-0.625000X0.375000X0.625000X-0.375000X0.625000X0*%
%TD*%
%TA.AperFunction,SMDPad,CuDef*%
%ADD13RoundRect,0.140000X0.140000X0.170000X-0.140000X0.170000X-0.140000X-0.170000X0.140000X-0.170000X0*%
%TD*%
%TA.AperFunction,ComponentPad*%
%ADD14C,1.200000*%
%TD*%
%TA.AperFunction,SMDPad,CuDef*%
%ADD15RotRect,0.600000X0.300000X315.000000*%
%TD*%
%TA.AperFunction,SMDPad,CuDef*%
%ADD16RotRect,0.600000X0.300000X45.000000*%
%TD*%
%TA.AperFunction,SMDPad,CuDef*%
%ADD17RotRect,0.600000X0.300000X135.000000*%
%TD*%
%TA.AperFunction,SMDPad,CuDef*%
%ADD18RotRect,0.600000X0.300000X225.000000*%
%TD*%
%TA.AperFunction,SMDPad,CuDef*%
%ADD19RotRect,3.450000X3.450000X225.000000*%
%TD*%
%TA.AperFunction,SMDPad,CuDef*%
%ADD20RoundRect,0.135000X-0.185000X0.135000X-0.185000X-0.135000X0.185000X-0.135000X0.185000X0.135000X0*%
%TD*%
%TA.AperFunction,ComponentPad*%
%ADD21R,1.700000X1.700000*%
%TD*%
%TA.AperFunction,ComponentPad*%
%ADD22O,1.700000X1.700000*%
%TD*%
%TA.AperFunction,ComponentPad*%
%ADD23O,1.800000X1.000000*%
%TD*%
%TA.AperFunction,SMDPad,CuDef*%
%ADD24R,1.400000X0.700000*%
%TD*%
%TA.AperFunction,SMDPad,CuDef*%
%ADD25R,1.400000X0.800000*%
%TD*%
%TA.AperFunction,SMDPad,CuDef*%
%ADD26R,1.500000X1.500000*%
%TD*%
%TA.AperFunction,SMDPad,CuDef*%
%ADD27RoundRect,0.218750X0.218750X0.256250X-0.218750X0.256250X-0.218750X-0.256250X0.218750X-0.256250X0*%
%TD*%
%TA.AperFunction,SMDPad,CuDef*%
%ADD28RoundRect,0.140000X0.170000X-0.140000X0.170000X0.140000X-0.170000X0.140000X-0.170000X-0.140000X0*%
%TD*%
%TA.AperFunction,SMDPad,CuDef*%
%ADD29RoundRect,0.140000X-0.170000X0.140000X-0.170000X-0.140000X0.170000X-0.140000X0.170000X0.140000X0*%
%TD*%
%TA.AperFunction,SMDPad,CuDef*%
%ADD30R,1.400000X1.200000*%
%TD*%
%TA.AperFunction,SMDPad,CuDef*%
%ADD31R,1.000000X0.600000*%
%TD*%
%TA.AperFunction,ViaPad*%
%ADD32C,0.500000*%
%TD*%
%TA.AperFunction,ViaPad*%
%ADD33C,0.900000*%
%TD*%
%TA.AperFunction,ViaPad*%
%ADD34C,0.700000*%
%TD*%
%TA.AperFunction,Conductor*%
%ADD35C,0.300000*%
%TD*%
%TA.AperFunction,Conductor*%
%ADD36C,0.400000*%
%TD*%
%TA.AperFunction,Conductor*%
%ADD37C,0.500000*%
%TD*%
%TA.AperFunction,Conductor*%
%ADD38C,0.200000*%
%TD*%
G04 APERTURE END LIST*
D10*
%TO.P,R3,1*%
%TO.N,/VDD_3.3V*%
X141840000Y-98760000D03*
%TO.P,R3,2*%
%TO.N,/NRST*%
X142860000Y-98760000D03*
%TD*%
D11*
%TO.P,C5,1*%
%TO.N,GND*%
X149060000Y-100880000D03*
%TO.P,C5,2*%
%TO.N,/BOOT0*%
X150020000Y-100880000D03*
%TD*%
D12*
%TO.P,F1,1*%
%TO.N,Net-(F1-Pad1)*%
X134010000Y-93130000D03*
%TO.P,F1,2*%
%TO.N,/VDD_5V*%
X136810000Y-93130000D03*
%TD*%
D13*
%TO.P,C4,1*%
%TO.N,/VDD_3.3V*%
X162532853Y-104401394D03*
%TO.P,C4,2*%
%TO.N,GND*%
X161572853Y-104401394D03*
%TD*%
D14*
%TO.P,HOLE1,*%
%TO.N,*%
X130650000Y-92140000D03*
%TD*%
D15*
%TO.P,U3,1,VDD*%
%TO.N,/VDD_3.3V*%
X161494239Y-96795181D03*
%TO.P,U3,2,PC14-OSC_IN*%
%TO.N,Net-(C10-Pad2)*%
X161140685Y-97148734D03*
%TO.P,U3,3,PC15-OSC_OUT*%
%TO.N,Net-(C11-Pad2)*%
X160787132Y-97502288D03*
%TO.P,U3,4,NRST*%
%TO.N,/NRST*%
X160433578Y-97855841D03*
%TO.P,U3,5,VDDA*%
%TO.N,/VDD_3.3V*%
X160080025Y-98209394D03*
%TO.P,U3,6,PA0*%
%TO.N,/PA0*%
X159726472Y-98562948D03*
%TO.P,U3,7,PA1*%
%TO.N,/PA1*%
X159372918Y-98916501D03*
%TO.P,U3,8,PA2*%
%TO.N,/PA2*%
X159019365Y-99270055D03*
D16*
%TO.P,U3,9,PA3*%
%TO.N,/PA3*%
X159019365Y-100387283D03*
%TO.P,U3,10,PA4*%
%TO.N,/PA4{slash}CS*%
X159372918Y-100740837D03*
%TO.P,U3,11,PA5*%
%TO.N,/PA5{slash}SCLK*%
X159726472Y-101094390D03*
%TO.P,U3,12,PA6*%
%TO.N,/PA6{slash}MISO*%
X160080025Y-101447944D03*
%TO.P,U3,13,PA7*%
%TO.N,/PA7{slash}MOSI*%
X160433578Y-101801497D03*
%TO.P,U3,14,PB0*%
%TO.N,/PB0*%
X160787132Y-102155050D03*
%TO.P,U3,15,PB1*%
%TO.N,/PB1*%
X161140685Y-102508604D03*
%TO.P,U3,16,PB2*%
%TO.N,/PB2*%
X161494239Y-102862157D03*
D17*
%TO.P,U3,17,VDD*%
%TO.N,/VDD_3.3V*%
X162611467Y-102862157D03*
%TO.P,U3,18,PA8*%
%TO.N,/PA8*%
X162965021Y-102508604D03*
%TO.P,U3,19,PA9*%
%TO.N,/PA9*%
X163318574Y-102155050D03*
%TO.P,U3,20,PA10*%
%TO.N,/PA10*%
X163672128Y-101801497D03*
%TO.P,U3,21,PA11*%
%TO.N,/PA11*%
X164025681Y-101447944D03*
%TO.P,U3,22,PA12*%
%TO.N,/PA12*%
X164379234Y-101094390D03*
%TO.P,U3,23,PA13*%
%TO.N,/PA13{slash}SWDIO*%
X164732788Y-100740837D03*
%TO.P,U3,24,PA14*%
%TO.N,/PA14{slash}SWCLK*%
X165086341Y-100387283D03*
D18*
%TO.P,U3,25,PA15*%
%TO.N,/PA15*%
X165086341Y-99270055D03*
%TO.P,U3,26,PB3*%
%TO.N,/PB3*%
X164732788Y-98916501D03*
%TO.P,U3,27,PB4*%
%TO.N,/PB4*%
X164379234Y-98562948D03*
%TO.P,U3,28,PB5*%
%TO.N,/PB5*%
X164025681Y-98209394D03*
%TO.P,U3,29,PB6*%
%TO.N,/PB6*%
X163672128Y-97855841D03*
%TO.P,U3,30,PB7*%
%TO.N,/PB7*%
X163318574Y-97502288D03*
%TO.P,U3,31,BOOT0*%
%TO.N,/BOOT0*%
X162965021Y-97148734D03*
%TO.P,U3,32,PB8*%
%TO.N,/PB8*%
X162611467Y-96795181D03*
D19*
%TO.P,U3,33,PAD*%
%TO.N,GND*%
X162052853Y-99828669D03*
%TD*%
D20*
%TO.P,R1,1*%
%TO.N,Net-(D1-Pad2)*%
X133610000Y-90390000D03*
%TO.P,R1,2*%
%TO.N,/VDD_5V*%
X133610000Y-91410000D03*
%TD*%
D21*
%TO.P,J3,1,Pin_1*%
%TO.N,/PA13{slash}SWDIO*%
X175420000Y-95910000D03*
D22*
%TO.P,J3,2,Pin_2*%
%TO.N,GND*%
X175420000Y-98450000D03*
%TO.P,J3,3,Pin_3*%
%TO.N,/PA14{slash}SWCLK*%
X175420000Y-100990000D03*
%TO.P,J3,4,Pin_4*%
%TO.N,/VDD_3.3V*%
X175420000Y-103530000D03*
%TD*%
D11*
%TO.P,C8,1*%
%TO.N,GND*%
X156280000Y-101230000D03*
%TO.P,C8,2*%
%TO.N,/VDD_3.3V*%
X157240000Y-101230000D03*
%TD*%
D13*
%TO.P,C7,1*%
%TO.N,GND*%
X162522853Y-95141394D03*
%TO.P,C7,2*%
%TO.N,/VDD_3.3V*%
X161562853Y-95141394D03*
%TD*%
D23*
%TO.P,USB1,1,GND*%
%TO.N,GND*%
X135380000Y-95410000D03*
%TO.P,USB1,2,GND*%
X135380000Y-104050000D03*
%TO.P,USB1,3,GND*%
X131580000Y-95410000D03*
%TO.P,USB1,4,GND*%
X131580000Y-104050000D03*
D24*
%TO.P,USB1,A5,CC1*%
%TO.N,unconnected-(USB1-PadA5)*%
X136380000Y-99230000D03*
%TO.P,USB1,A9,VBUS*%
%TO.N,Net-(F1-Pad1)*%
X136380000Y-101250000D03*
D25*
%TO.P,USB1,A12,GND*%
%TO.N,GND*%
X136380000Y-102480000D03*
D24*
%TO.P,USB1,B5,CC2*%
%TO.N,unconnected-(USB1-PadB5)*%
X136380000Y-100230000D03*
%TO.P,USB1,B9,VBUS*%
%TO.N,Net-(F1-Pad1)*%
X136380000Y-98210000D03*
D25*
%TO.P,USB1,B12,GND*%
%TO.N,GND*%
X136380000Y-96980000D03*
%TD*%
D13*
%TO.P,C9,1*%
%TO.N,/NRST*%
X150030000Y-98750000D03*
%TO.P,C9,2*%
%TO.N,GND*%
X149070000Y-98750000D03*
%TD*%
D14*
%TO.P,HOLE2,*%
%TO.N,*%
X130610000Y-107270000D03*
%TD*%
%TO.P,HOLE4,*%
%TO.N,*%
X175590000Y-107500000D03*
%TD*%
D26*
%TO.P,SW2,1,1*%
%TO.N,GND*%
X142280000Y-96410000D03*
%TO.P,SW2,2,2*%
%TO.N,/NRST*%
X149680000Y-96410000D03*
%TD*%
D10*
%TO.P,R2,1*%
%TO.N,GND*%
X141830000Y-100840000D03*
%TO.P,R2,2*%
%TO.N,/BOOT0*%
X142850000Y-100840000D03*
%TD*%
D27*
%TO.P,D1,1,K*%
%TO.N,GND*%
X136352500Y-90880000D03*
%TO.P,D1,2,A*%
%TO.N,Net-(D1-Pad2)*%
X134777500Y-90880000D03*
%TD*%
D28*
%TO.P,C2,1,1*%
%TO.N,GND*%
X137430000Y-107610000D03*
%TO.P,C2,2,2*%
%TO.N,/VDD_3.3V*%
X137430000Y-106650000D03*
%TD*%
D11*
%TO.P,C6,1*%
%TO.N,GND*%
X156280000Y-100310000D03*
%TO.P,C6,2*%
%TO.N,/VDD_3.3V*%
X157240000Y-100310000D03*
%TD*%
D29*
%TO.P,C11,1*%
%TO.N,GND*%
X152920000Y-97210000D03*
%TO.P,C11,2*%
%TO.N,Net-(C11-Pad2)*%
X152920000Y-98170000D03*
%TD*%
D30*
%TO.P,Y1,1,1*%
%TO.N,Net-(C11-Pad2)*%
X154500000Y-97670000D03*
%TO.P,Y1,2,2*%
%TO.N,GND*%
X156700000Y-97670000D03*
%TO.P,Y1,3,3*%
%TO.N,Net-(C10-Pad2)*%
X156700000Y-95970000D03*
%TO.P,Y1,4,4*%
%TO.N,GND*%
X154500000Y-95970000D03*
%TD*%
D14*
%TO.P,HOLE3,*%
%TO.N,*%
X175620000Y-91960000D03*
%TD*%
D28*
%TO.P,C10,1*%
%TO.N,GND*%
X152920000Y-96350000D03*
%TO.P,C10,2*%
%TO.N,Net-(C10-Pad2)*%
X152920000Y-95390000D03*
%TD*%
%TO.P,C1,1,1*%
%TO.N,GND*%
X132480000Y-107610000D03*
%TO.P,C1,2,2*%
%TO.N,/VDD_5V*%
X132480000Y-106650000D03*
%TD*%
D26*
%TO.P,SW1,1,1*%
%TO.N,/VDD_3.3V*%
X142260000Y-103170000D03*
%TO.P,SW1,2,2*%
%TO.N,/BOOT0*%
X149660000Y-103170000D03*
%TD*%
D31*
%TO.P,U1,1,Vin*%
%TO.N,/VDD_5V*%
X133652000Y-106664000D03*
%TO.P,U1,2,Vss*%
%TO.N,GND*%
X133652000Y-107614000D03*
%TO.P,U1,3,CE*%
%TO.N,/VDD_5V*%
X133652000Y-108564000D03*
%TO.P,U1,4,NC*%
%TO.N,unconnected-(U1-Pad4)*%
X136252000Y-108564000D03*
%TO.P,U1,5,Vout*%
%TO.N,/VDD_3.3V*%
X136252000Y-106664000D03*
%TD*%
D21*
%TO.P,J2,1,Pin_1*%
%TO.N,/VDD_5V*%
X139830000Y-90890000D03*
D22*
%TO.P,J2,2,Pin_2*%
%TO.N,GND*%
X142370000Y-90890000D03*
%TO.P,J2,3,Pin_3*%
%TO.N,/VDD_3.3V*%
X144910000Y-90890000D03*
%TO.P,J2,4,Pin_4*%
%TO.N,GND*%
X147450000Y-90890000D03*
%TO.P,J2,5,Pin_5*%
%TO.N,/NRST*%
X149990000Y-90890000D03*
%TO.P,J2,6,Pin_6*%
%TO.N,/PB8*%
X152530000Y-90890000D03*
%TO.P,J2,7,Pin_7*%
%TO.N,/PB7*%
X155070000Y-90890000D03*
%TO.P,J2,8,Pin_8*%
%TO.N,/PB6*%
X157610000Y-90890000D03*
%TO.P,J2,9,Pin_9*%
%TO.N,/PB5*%
X160150000Y-90890000D03*
%TO.P,J2,10,Pin_10*%
%TO.N,/PB4*%
X162690000Y-90890000D03*
%TO.P,J2,11,Pin_11*%
%TO.N,/PB3*%
X165230000Y-90890000D03*
%TO.P,J2,12,Pin_12*%
%TO.N,/PB2*%
X167770000Y-90890000D03*
%TO.P,J2,13,Pin_13*%
%TO.N,/PB1*%
X170310000Y-90890000D03*
%TO.P,J2,14,Pin_14*%
%TO.N,/PB0*%
X172850000Y-90890000D03*
%TD*%
D21*
%TO.P,J1,1,Pin_1*%
%TO.N,/PA0*%
X139800000Y-108600000D03*
D22*
%TO.P,J1,2,Pin_2*%
%TO.N,/PA1*%
X142340000Y-108600000D03*
%TO.P,J1,3,Pin_3*%
%TO.N,/PA2*%
X144880000Y-108600000D03*
%TO.P,J1,4,Pin_4*%
%TO.N,/PA3*%
X147420000Y-108600000D03*
%TO.P,J1,5,Pin_5*%
%TO.N,/PA4{slash}CS*%
X149960000Y-108600000D03*
%TO.P,J1,6,Pin_6*%
%TO.N,/PA5{slash}SCLK*%
X152500000Y-108600000D03*
%TO.P,J1,7,Pin_7*%
%TO.N,/PA6{slash}MISO*%
X155040000Y-108600000D03*
%TO.P,J1,8,Pin_8*%
%TO.N,/PA7{slash}MOSI*%
X157580000Y-108600000D03*
%TO.P,J1,9,Pin_9*%
%TO.N,/PA8*%
X160120000Y-108600000D03*
%TO.P,J1,10,Pin_10*%
%TO.N,/PA9*%
X162660000Y-108600000D03*
%TO.P,J1,11,Pin_11*%
%TO.N,/PA10*%
X165200000Y-108600000D03*
%TO.P,J1,12,Pin_12*%
%TO.N,/PA11*%
X167740000Y-108600000D03*
%TO.P,J1,13,Pin_13*%
%TO.N,/PA12*%
X170280000Y-108600000D03*
%TO.P,J1,14,Pin_14*%
%TO.N,/PA15*%
X172820000Y-108600000D03*
%TD*%
D32*
%TO.N,GND*%
X138920000Y-106130000D03*
D33*
X161080000Y-105920000D03*
X166980000Y-96070000D03*
X143880000Y-99820000D03*
X152765000Y-99825000D03*
X150790000Y-99820000D03*
X154960000Y-101940000D03*
D32*
X161570000Y-100330000D03*
X161990000Y-99890000D03*
X162880000Y-99000000D03*
X162470000Y-99460000D03*
D33*
X161170000Y-94030000D03*
D32*
X161120000Y-100760000D03*
D33*
X166160000Y-93110000D03*
%TO.N,/VDD_3.3V*%
X140598000Y-101938000D03*
X162530500Y-105780000D03*
D34*
X154395048Y-105040500D03*
D32*
%TO.N,/BOOT0*%
X163452353Y-96110000D03*
X150010000Y-104410000D03*
%TO.N,/NRST*%
X159660000Y-97150500D03*
X150030000Y-94950000D03*
D34*
%TO.N,Net-(C11-Pad2)*%
X158760000Y-96670000D03*
X154650000Y-99780000D03*
D32*
%TO.N,/PA4{slash}CS*%
X152470000Y-102100000D03*
X154380000Y-104010000D03*
X158280500Y-104010023D03*
%TO.N,/PA13{slash}SWDIO*%
X165840000Y-101810000D03*
%TO.N,/PA14{slash}SWCLK*%
X168640000Y-100990000D03*
%TO.N,/PB0*%
X160300000Y-102920000D03*
%TO.N,/PB1*%
X160300000Y-103680000D03*
%TO.N,/PB2*%
X160290000Y-104430000D03*
%TD*%
D35*
%TO.N,GND*%
X143880000Y-99820000D02*
X148980000Y-99820000D01*
X154880000Y-101940000D02*
X152765000Y-99825000D01*
D36*
X169770000Y-96070000D02*
X172150000Y-98450000D01*
D37*
X135380000Y-95980000D02*
X136380000Y-96980000D01*
X133020000Y-89770000D02*
X135242500Y-89770000D01*
X135380000Y-95410000D02*
X135380000Y-95980000D01*
D35*
X137030000Y-109450000D02*
X137430000Y-109050000D01*
X166160000Y-93110000D02*
X166980000Y-93930000D01*
X152920000Y-97210000D02*
X152920000Y-96350000D01*
X149060000Y-99800000D02*
X149060000Y-100880000D01*
D37*
X132860000Y-95390000D02*
X135360000Y-95390000D01*
D35*
X152990000Y-96420000D02*
X154050000Y-96420000D01*
X148980000Y-99820000D02*
X149030000Y-99770000D01*
X132902000Y-109032000D02*
X133320000Y-109450000D01*
X154960000Y-101940000D02*
X154880000Y-101940000D01*
X149030000Y-99770000D02*
X149060000Y-99740000D01*
X152040000Y-99100000D02*
X152040000Y-97590000D01*
X141830000Y-100840000D02*
X142850000Y-99820000D01*
X133320000Y-109450000D02*
X137030000Y-109450000D01*
X161780000Y-94090000D02*
X161720000Y-94030000D01*
X148980000Y-99820000D02*
X150790000Y-99820000D01*
D37*
X132860000Y-89930000D02*
X133020000Y-89770000D01*
D35*
X161572853Y-104401394D02*
X161572853Y-105427147D01*
X161572853Y-105427147D02*
X161080000Y-105920000D01*
X133302000Y-107614000D02*
X132902000Y-108014000D01*
X132902000Y-108014000D02*
X132902000Y-109032000D01*
X142850000Y-99820000D02*
X143880000Y-99820000D01*
D37*
X131600000Y-95390000D02*
X132860000Y-95390000D01*
D35*
X152765000Y-99825000D02*
X152040000Y-99100000D01*
D37*
X132860000Y-95390000D02*
X132860000Y-92030000D01*
D35*
X149030000Y-99770000D02*
X149060000Y-99800000D01*
X162522853Y-94832853D02*
X161780000Y-94090000D01*
D37*
X131580000Y-104050000D02*
X131580000Y-95410000D01*
D35*
X149060000Y-99740000D02*
X149060000Y-98760000D01*
X162522853Y-95141394D02*
X162522853Y-94832853D01*
D36*
X137440000Y-107610000D02*
X137430000Y-107610000D01*
D37*
X135380000Y-104050000D02*
X131580000Y-104050000D01*
D36*
X166980000Y-96070000D02*
X169770000Y-96070000D01*
D35*
X156460000Y-97670000D02*
X154760000Y-95970000D01*
X152420000Y-97210000D02*
X152920000Y-97210000D01*
D37*
X135242500Y-89770000D02*
X136352500Y-90880000D01*
X135380000Y-104050000D02*
X135380000Y-103480000D01*
X135380000Y-103480000D02*
X136380000Y-102480000D01*
D35*
X166980000Y-93930000D02*
X166980000Y-96070000D01*
X137430000Y-109050000D02*
X137430000Y-107610000D01*
X155670000Y-101230000D02*
X156280000Y-101230000D01*
X152040000Y-97590000D02*
X152420000Y-97210000D01*
X154960000Y-101940000D02*
X155670000Y-101230000D01*
X161720000Y-94030000D02*
X161170000Y-94030000D01*
X138920000Y-106130000D02*
X137440000Y-107610000D01*
D37*
X132860000Y-92030000D02*
X132860000Y-89930000D01*
D36*
X172150000Y-98450000D02*
X175420000Y-98450000D01*
D37*
%TO.N,/VDD_5V*%
X134524000Y-106664000D02*
X133652000Y-106664000D01*
X134756000Y-106896000D02*
X134524000Y-106664000D01*
X134870000Y-106650000D02*
X139160000Y-102360000D01*
X133666000Y-106650000D02*
X134870000Y-106650000D01*
X133652000Y-108564000D02*
X134556000Y-108564000D01*
X136810000Y-93020000D02*
X138940000Y-90890000D01*
X138940000Y-90890000D02*
X139830000Y-90890000D01*
X133610000Y-91410000D02*
X134050000Y-91850000D01*
X133652000Y-106664000D02*
X132494000Y-106664000D01*
X139160000Y-95380000D02*
X136910000Y-93130000D01*
X139160000Y-102360000D02*
X139160000Y-95380000D01*
X134050000Y-91850000D02*
X135530000Y-91850000D01*
X134556000Y-108564000D02*
X134756000Y-108364000D01*
X133652000Y-106664000D02*
X133666000Y-106650000D01*
X135530000Y-91850000D02*
X136810000Y-93130000D01*
X134756000Y-108364000D02*
X134756000Y-106896000D01*
%TO.N,/VDD_3.3V*%
X137430000Y-106650000D02*
X137430000Y-106236000D01*
D36*
X140722000Y-98760000D02*
X140598000Y-98636000D01*
D35*
X152530000Y-94420000D02*
X158650000Y-94420000D01*
D37*
X140598000Y-101938000D02*
X140598000Y-103068000D01*
X138508000Y-105158000D02*
X140598000Y-103068000D01*
D35*
X159371394Y-95141394D02*
X161562853Y-95141394D01*
D37*
X137430000Y-106236000D02*
X138508000Y-105158000D01*
D36*
X141840000Y-98760000D02*
X140722000Y-98760000D01*
D35*
X136252000Y-106664000D02*
X137416000Y-106664000D01*
D37*
X140598000Y-97518000D02*
X140598000Y-98636000D01*
D35*
X138626000Y-105040000D02*
X138508000Y-105158000D01*
X154394548Y-105040000D02*
X138626000Y-105040000D01*
X161494239Y-96795181D02*
X161494239Y-95210008D01*
D37*
X140598000Y-103068000D02*
X140700000Y-103170000D01*
X140598000Y-97518000D02*
X140598000Y-95172000D01*
D35*
X162532853Y-104401394D02*
X162532853Y-102940771D01*
X157240000Y-100310000D02*
X157240000Y-99220000D01*
X162532853Y-105777647D02*
X162530500Y-105780000D01*
X154395048Y-105040500D02*
X154368500Y-105040500D01*
X157240000Y-101230000D02*
X157240000Y-100310000D01*
D37*
X140598000Y-98636000D02*
X140598000Y-100414000D01*
D35*
X151560000Y-102232000D02*
X151560000Y-95390000D01*
X154395048Y-105034952D02*
X157240000Y-102190000D01*
D37*
X140700000Y-103170000D02*
X142260000Y-103170000D01*
D35*
X159630631Y-97760000D02*
X160080025Y-98209394D01*
X162532853Y-102940771D02*
X162611467Y-102862157D01*
X154395048Y-105040500D02*
X154394548Y-105040000D01*
D37*
X140598000Y-101938000D02*
X140598000Y-100414000D01*
D35*
X162532853Y-104401394D02*
X162532853Y-105777647D01*
X154395048Y-105040500D02*
X154395048Y-105034952D01*
X158700000Y-97760000D02*
X159630631Y-97760000D01*
X158650000Y-94420000D02*
X159371394Y-95141394D01*
X157240000Y-102190000D02*
X157240000Y-101230000D01*
X157240000Y-99220000D02*
X158700000Y-97760000D01*
X151560000Y-95390000D02*
X152530000Y-94420000D01*
D37*
X140598000Y-95172000D02*
X144880000Y-90890000D01*
D35*
X154368500Y-105040500D02*
X151560000Y-102232000D01*
%TO.N,/BOOT0*%
X150020000Y-104400000D02*
X150020000Y-103530000D01*
X142850000Y-101396000D02*
X142850000Y-100840000D01*
X150010000Y-104410000D02*
X150020000Y-104400000D01*
X149660000Y-103170000D02*
X144624000Y-103170000D01*
X150020000Y-100880000D02*
X150020000Y-102810000D01*
D38*
X163452353Y-96110000D02*
X163452353Y-96661402D01*
D35*
X144624000Y-103170000D02*
X142850000Y-101396000D01*
D38*
X163452353Y-96661402D02*
X162965021Y-97148734D01*
%TO.N,/NRST*%
X159660000Y-97150500D02*
X159728237Y-97150500D01*
D35*
X150030000Y-94950000D02*
X150030000Y-96060000D01*
X150030000Y-94950000D02*
X150030000Y-90930000D01*
X142860000Y-98760000D02*
X145210000Y-96410000D01*
X145210000Y-96410000D02*
X149680000Y-96410000D01*
D38*
X159728237Y-97150500D02*
X160433578Y-97855841D01*
D35*
X150030000Y-98750000D02*
X150030000Y-96760000D01*
%TO.N,Net-(C10-Pad2)*%
X159961951Y-95970000D02*
X161140685Y-97148734D01*
X153280000Y-95030000D02*
X155760000Y-95030000D01*
X156700000Y-95970000D02*
X159961951Y-95970000D01*
X155760000Y-95030000D02*
X156700000Y-95970000D01*
X152920000Y-95390000D02*
X153280000Y-95030000D01*
%TO.N,Net-(C11-Pad2)*%
X154500000Y-99630000D02*
X154500000Y-97670000D01*
X152970000Y-98120000D02*
X154050000Y-98120000D01*
X158780000Y-96650000D02*
X159934844Y-96650000D01*
X158760000Y-96670000D02*
X158780000Y-96650000D01*
X154650000Y-99780000D02*
X154500000Y-99630000D01*
X159934844Y-96650000D02*
X160787132Y-97502288D01*
D37*
%TO.N,Net-(D1-Pad2)*%
X133610000Y-90390000D02*
X134287500Y-90390000D01*
X134287500Y-90390000D02*
X134777500Y-90880000D01*
D38*
%TO.N,/PA0*%
X159323524Y-98160000D02*
X159726472Y-98562948D01*
X158925736Y-98160000D02*
X159323524Y-98160000D01*
X139800000Y-108420000D02*
X142630000Y-105590000D01*
X157750000Y-99335736D02*
X158925736Y-98160000D01*
X142630000Y-105590000D02*
X154767208Y-105590000D01*
X157750000Y-102607208D02*
X157750000Y-99335736D01*
X154767208Y-105590000D02*
X157750000Y-102607208D01*
%TO.N,/PA1*%
X158930000Y-98580000D02*
X158050000Y-99460000D01*
X154781472Y-106000000D02*
X144940000Y-106000000D01*
X158050000Y-99460000D02*
X158050000Y-102731472D01*
X144940000Y-106000000D02*
X142340000Y-108600000D01*
X158050000Y-102731472D02*
X154781472Y-106000000D01*
X159036417Y-98580000D02*
X158930000Y-98580000D01*
X159372918Y-98916501D02*
X159036417Y-98580000D01*
%TO.N,/PA2*%
X158350000Y-102855736D02*
X154885736Y-106320000D01*
X154885736Y-106320000D02*
X147160000Y-106320000D01*
X147160000Y-106320000D02*
X144880000Y-108600000D01*
X158350000Y-99939420D02*
X158350000Y-102855736D01*
X159019365Y-99270055D02*
X158350000Y-99939420D01*
%TO.N,/PA3*%
X158650000Y-100756648D02*
X158650000Y-102980000D01*
X149300000Y-106720000D02*
X147420000Y-108600000D01*
X159019365Y-100387283D02*
X158650000Y-100756648D01*
X158650000Y-102980000D02*
X154910000Y-106720000D01*
X154910000Y-106720000D02*
X149300000Y-106720000D01*
%TO.N,/PA4{slash}CS*%
X155120000Y-107140000D02*
X151420000Y-107140000D01*
X158280500Y-104010023D02*
X158950000Y-103340523D01*
X158280500Y-104010023D02*
X158249977Y-104010023D01*
X154380000Y-104010000D02*
X152470000Y-102100000D01*
X158950000Y-103340523D02*
X158950000Y-101163755D01*
X158950000Y-101163755D02*
X159372918Y-100740837D01*
X158249977Y-104010023D02*
X155120000Y-107140000D01*
X151420000Y-107140000D02*
X149960000Y-108600000D01*
%TO.N,/PA5{slash}SCLK*%
X152500000Y-108600000D02*
X153550000Y-107550000D01*
X153550000Y-107550000D02*
X155395736Y-107550000D01*
X159250000Y-101570862D02*
X159726472Y-101094390D01*
X155395736Y-107550000D02*
X159250000Y-103695736D01*
X159250000Y-103695736D02*
X159250000Y-101570862D01*
%TO.N,/PA6{slash}MISO*%
X160080025Y-101447944D02*
X159550000Y-101977969D01*
X159550000Y-101977969D02*
X159550000Y-103820000D01*
X159550000Y-103820000D02*
X155040000Y-108330000D01*
%TO.N,/PA7{slash}MOSI*%
X157580000Y-108600000D02*
X157580000Y-106214264D01*
X157580000Y-106214264D02*
X159850000Y-103944264D01*
X159850000Y-102385075D02*
X160433578Y-101801497D01*
X159850000Y-103944264D02*
X159850000Y-102385075D01*
%TO.N,/PA8*%
X163180000Y-106400000D02*
X163180000Y-102723583D01*
X163180000Y-102723583D02*
X162965021Y-102508604D01*
X160980000Y-108600000D02*
X163180000Y-106400000D01*
X160120000Y-108600000D02*
X160980000Y-108600000D01*
%TO.N,/PA9*%
X163550000Y-107710000D02*
X163550000Y-102386476D01*
X163550000Y-102386476D02*
X163318574Y-102155050D01*
X162660000Y-108600000D02*
X163550000Y-107710000D01*
%TO.N,/PA10*%
X166930000Y-105059369D02*
X166930000Y-106870000D01*
X163672128Y-101801497D02*
X166930000Y-105059369D01*
X166930000Y-106870000D02*
X165200000Y-108600000D01*
%TO.N,/PA15*%
X168030055Y-99270055D02*
X165086341Y-99270055D01*
X172820000Y-104060000D02*
X168030055Y-99270055D01*
X172820000Y-108600000D02*
X172820000Y-104060000D01*
%TO.N,/PA13{slash}SWDIO*%
X165801951Y-101810000D02*
X164732788Y-100740837D01*
X165840000Y-101810000D02*
X165801951Y-101810000D01*
%TO.N,/PA14{slash}SWCLK*%
X165710000Y-100990000D02*
X165107283Y-100387283D01*
X168580000Y-100990000D02*
X165710000Y-100990000D01*
%TO.N,/PB0*%
X160300000Y-102920000D02*
X160300000Y-102642182D01*
X160300000Y-102642182D02*
X160787132Y-102155050D01*
%TO.N,/PB1*%
X160850000Y-103370000D02*
X160850000Y-102799289D01*
X160300000Y-103680000D02*
X160540000Y-103680000D01*
X160540000Y-103680000D02*
X160850000Y-103370000D01*
X160850000Y-102799289D02*
X161140685Y-102508604D01*
%TO.N,/PB2*%
X160404264Y-104430000D02*
X161494239Y-103340025D01*
X161494239Y-103340025D02*
X161494239Y-102862157D01*
X160290000Y-104430000D02*
X160404264Y-104430000D01*
%TO.N,/PB3*%
X165230000Y-90890000D02*
X165230000Y-98419289D01*
X165230000Y-98419289D02*
X164732788Y-98916501D01*
%TO.N,/PB4*%
X164379234Y-98562948D02*
X164900000Y-98042182D01*
X164900000Y-93400000D02*
X162690000Y-91190000D01*
X164900000Y-98042182D02*
X164900000Y-93400000D01*
%TO.N,/PB5*%
X164600000Y-94370000D02*
X164600000Y-97635075D01*
X164600000Y-97635075D02*
X164025681Y-98209394D01*
X160150000Y-90890000D02*
X161120000Y-90890000D01*
X161120000Y-90890000D02*
X164600000Y-94370000D01*
%TO.N,/PB6*%
X163672128Y-97855841D02*
X164260000Y-97267969D01*
X164260000Y-94890000D02*
X161310000Y-91940000D01*
X158660000Y-91940000D02*
X157610000Y-90890000D01*
X164260000Y-97267969D02*
X164260000Y-94890000D01*
X161310000Y-91940000D02*
X158660000Y-91940000D01*
%TO.N,/PB7*%
X156700000Y-92520000D02*
X161370000Y-92520000D01*
X161370000Y-92520000D02*
X163960000Y-95110000D01*
X163960000Y-96860862D02*
X163318574Y-97502288D01*
X155070000Y-90890000D02*
X156700000Y-92520000D01*
X163960000Y-95110000D02*
X163960000Y-96860862D01*
%TO.N,/PB8*%
X162611467Y-96795181D02*
X163002853Y-96403795D01*
X154460000Y-92820000D02*
X152530000Y-90890000D01*
X161100000Y-92820000D02*
X154460000Y-92820000D01*
X163002853Y-94722853D02*
X161100000Y-92820000D01*
X163002853Y-96403795D02*
X163002853Y-94722853D01*
D37*
%TO.N,Net-(F1-Pad1)*%
X137540000Y-100690000D02*
X136980000Y-101250000D01*
X136980000Y-98210000D02*
X137540000Y-98770000D01*
X136380000Y-98210000D02*
X136980000Y-98210000D01*
X137540000Y-98770000D02*
X137540000Y-99450000D01*
X137540000Y-99450000D02*
X137540000Y-95708528D01*
X137540000Y-99450000D02*
X137540000Y-100690000D01*
X134961472Y-93130000D02*
X134010000Y-93130000D01*
X136980000Y-101250000D02*
X136380000Y-101250000D01*
X137540000Y-95708528D02*
X134961472Y-93130000D01*
D38*
%TO.N,/PA11*%
X167740000Y-105162263D02*
X164025681Y-101447944D01*
X167740000Y-108600000D02*
X167740000Y-105162263D01*
%TO.N,/PA12*%
X170280000Y-106995156D02*
X164379234Y-101094390D01*
X170280000Y-108600000D02*
X170280000Y-106995156D01*
%TD*%
%TA.AperFunction,Conductor*%
%TO.N,GND*%
G36*
X137076783Y-107412084D02*
G01*
X137112635Y-107422500D01*
X137151570Y-107433812D01*
X137151573Y-107433813D01*
X137157746Y-107435606D01*
X137164151Y-107436110D01*
X137164156Y-107436111D01*
X137192060Y-107438307D01*
X137192068Y-107438307D01*
X137194516Y-107438500D01*
X137558000Y-107438500D01*
X137626121Y-107458502D01*
X137672614Y-107512158D01*
X137684000Y-107564500D01*
X137684000Y-108378424D01*
X137688344Y-108393219D01*
X137698775Y-108395063D01*
X137708359Y-108393312D01*
X137851784Y-108351643D01*
X137866220Y-108345396D01*
X137993499Y-108270124D01*
X138005926Y-108260484D01*
X138110484Y-108155926D01*
X138120124Y-108143499D01*
X138195396Y-108016220D01*
X138199862Y-108005899D01*
X138245272Y-107951324D01*
X138312979Y-107929963D01*
X138381486Y-107948598D01*
X138429043Y-108001313D01*
X138441500Y-108055938D01*
X138441500Y-109498134D01*
X138448255Y-109560316D01*
X138494196Y-109682861D01*
X138497348Y-109691270D01*
X138502531Y-109762077D01*
X138468610Y-109824446D01*
X138406355Y-109858576D01*
X138379366Y-109861500D01*
X132134932Y-109861500D01*
X132125255Y-109861128D01*
X132085394Y-109858057D01*
X132085390Y-109858057D01*
X132076443Y-109857368D01*
X132067657Y-109859219D01*
X132067654Y-109859219D01*
X132059080Y-109861025D01*
X132035546Y-109863707D01*
X131947832Y-109865403D01*
X131780593Y-109868638D01*
X131765940Y-109868068D01*
X131484559Y-109840646D01*
X131470075Y-109838378D01*
X131193784Y-109778438D01*
X131179659Y-109774500D01*
X130912223Y-109682860D01*
X130898648Y-109677306D01*
X130643668Y-109555201D01*
X130630830Y-109548107D01*
X130410452Y-109408990D01*
X130391768Y-109397195D01*
X130379842Y-109388657D01*
X130297436Y-109322075D01*
X130180087Y-109227261D01*
X130159949Y-109210990D01*
X130149095Y-109201123D01*
X129951332Y-108999096D01*
X129941698Y-108988033D01*
X129922604Y-108963341D01*
X129768757Y-108764389D01*
X129760484Y-108752296D01*
X129614702Y-108510060D01*
X129607890Y-108497088D01*
X129491252Y-108239556D01*
X129485988Y-108225864D01*
X129411822Y-107993358D01*
X129400073Y-107956527D01*
X129396437Y-107942319D01*
X129395948Y-107939807D01*
X129375035Y-107832395D01*
X129381650Y-107761708D01*
X129425432Y-107705818D01*
X129492479Y-107682470D01*
X129561506Y-107699078D01*
X129613138Y-107755563D01*
X129645898Y-107826624D01*
X129763479Y-107992997D01*
X129909410Y-108135157D01*
X129914206Y-108138362D01*
X129914209Y-108138364D01*
X129982149Y-108183760D01*
X130078803Y-108248342D01*
X130084106Y-108250620D01*
X130084109Y-108250622D01*
X130169214Y-108287186D01*
X130265987Y-108328763D01*
X130338817Y-108345243D01*
X130459055Y-108372450D01*
X130459060Y-108372451D01*
X130464692Y-108373725D01*
X130470463Y-108373952D01*
X130470465Y-108373952D01*
X130533470Y-108376427D01*
X130668263Y-108381723D01*
X130869883Y-108352490D01*
X130875347Y-108350635D01*
X130875352Y-108350634D01*
X131057327Y-108288862D01*
X131057332Y-108288860D01*
X131062799Y-108287004D01*
X131092941Y-108270124D01*
X131171972Y-108225864D01*
X131240551Y-108187458D01*
X131397186Y-108057186D01*
X131488039Y-107947947D01*
X131546976Y-107908363D01*
X131617958Y-107906927D01*
X131678449Y-107944094D01*
X131705909Y-107993358D01*
X131708358Y-108001785D01*
X131714604Y-108016220D01*
X131789876Y-108143499D01*
X131799516Y-108155926D01*
X131904074Y-108260484D01*
X131916501Y-108270124D01*
X132043780Y-108345396D01*
X132058216Y-108351643D01*
X132201641Y-108393312D01*
X132209609Y-108394768D01*
X132223031Y-108391948D01*
X132226000Y-108380487D01*
X132226000Y-107564500D01*
X132246002Y-107496379D01*
X132299658Y-107449886D01*
X132352000Y-107438500D01*
X132715484Y-107438500D01*
X132717932Y-107438307D01*
X132717940Y-107438307D01*
X132745841Y-107436111D01*
X132745844Y-107436111D01*
X132752254Y-107435606D01*
X132780146Y-107427503D01*
X132815297Y-107422500D01*
X132903487Y-107422500D01*
X132947716Y-107430518D01*
X133034289Y-107462973D01*
X133034291Y-107462973D01*
X133041684Y-107465745D01*
X133049532Y-107466598D01*
X133049534Y-107466598D01*
X133100469Y-107472131D01*
X133103866Y-107472500D01*
X133780000Y-107472500D01*
X133848121Y-107492502D01*
X133894614Y-107546158D01*
X133906000Y-107598500D01*
X133906000Y-107629500D01*
X133885998Y-107697621D01*
X133832342Y-107744114D01*
X133780000Y-107755500D01*
X133103866Y-107755500D01*
X133041684Y-107762255D01*
X132905295Y-107813385D01*
X132881338Y-107831340D01*
X132866012Y-107842826D01*
X132799506Y-107867674D01*
X132790447Y-107868000D01*
X132752115Y-107868000D01*
X132736876Y-107872475D01*
X132735671Y-107873865D01*
X132734000Y-107881548D01*
X132734000Y-107931802D01*
X132713998Y-107999923D01*
X132708824Y-108007369D01*
X132701385Y-108017295D01*
X132650255Y-108153684D01*
X132643500Y-108215866D01*
X132643500Y-108912134D01*
X132650255Y-108974316D01*
X132701385Y-109110705D01*
X132788739Y-109227261D01*
X132905295Y-109314615D01*
X133041684Y-109365745D01*
X133103866Y-109372500D01*
X134200134Y-109372500D01*
X134203531Y-109372131D01*
X134254466Y-109366598D01*
X134254468Y-109366598D01*
X134262316Y-109365745D01*
X134269709Y-109362973D01*
X134269711Y-109362973D01*
X134356284Y-109330518D01*
X134400513Y-109322500D01*
X134488930Y-109322500D01*
X134507880Y-109323933D01*
X134522115Y-109326099D01*
X134522119Y-109326099D01*
X134529349Y-109327199D01*
X134536641Y-109326606D01*
X134536644Y-109326606D01*
X134582018Y-109322915D01*
X134592233Y-109322500D01*
X134600293Y-109322500D01*
X134613583Y-109320951D01*
X134628507Y-109319211D01*
X134632882Y-109318778D01*
X134698339Y-109313454D01*
X134698342Y-109313453D01*
X134705637Y-109312860D01*
X134712601Y-109310604D01*
X134718560Y-109309413D01*
X134724415Y-109308029D01*
X134731681Y-109307182D01*
X134800327Y-109282265D01*
X134804455Y-109280848D01*
X134866936Y-109260607D01*
X134866938Y-109260606D01*
X134873899Y-109258351D01*
X134880154Y-109254555D01*
X134885628Y-109252049D01*
X134891058Y-109249330D01*
X134897937Y-109246833D01*
X134927789Y-109227261D01*
X134958976Y-109206814D01*
X134962680Y-109204477D01*
X135025107Y-109166595D01*
X135033484Y-109159197D01*
X135033508Y-109159224D01*
X135036500Y-109156571D01*
X135039733Y-109153868D01*
X135045852Y-109149856D01*
X135099128Y-109093617D01*
X135101506Y-109091175D01*
X135105818Y-109086863D01*
X135168130Y-109052837D01*
X135238945Y-109057902D01*
X135295781Y-109100449D01*
X135299995Y-109106998D01*
X135301385Y-109110705D01*
X135306769Y-109117888D01*
X135306769Y-109117889D01*
X135326746Y-109144544D01*
X135388739Y-109227261D01*
X135505295Y-109314615D01*
X135641684Y-109365745D01*
X135703866Y-109372500D01*
X136800134Y-109372500D01*
X136862316Y-109365745D01*
X136998705Y-109314615D01*
X137115261Y-109227261D01*
X137202615Y-109110705D01*
X137253745Y-108974316D01*
X137260500Y-108912134D01*
X137260500Y-108215866D01*
X137253745Y-108153684D01*
X137202615Y-108017295D01*
X137197228Y-108010107D01*
X137192921Y-108002240D01*
X137195698Y-108000719D01*
X137176325Y-107948857D01*
X137176000Y-107939807D01*
X137176000Y-107882115D01*
X137171525Y-107866876D01*
X137170135Y-107865671D01*
X137162452Y-107864000D01*
X137108216Y-107864000D01*
X137040095Y-107843998D01*
X137032651Y-107838826D01*
X137005892Y-107818771D01*
X137005890Y-107818770D01*
X136998705Y-107813385D01*
X136862316Y-107762255D01*
X136800134Y-107755500D01*
X135703866Y-107755500D01*
X135700471Y-107755869D01*
X135700467Y-107755869D01*
X135654107Y-107760905D01*
X135584224Y-107748376D01*
X135532209Y-107700055D01*
X135514500Y-107635642D01*
X135514500Y-107592358D01*
X135534502Y-107524237D01*
X135588158Y-107477744D01*
X135654107Y-107467095D01*
X135700467Y-107472131D01*
X135700471Y-107472131D01*
X135703866Y-107472500D01*
X136800134Y-107472500D01*
X136862316Y-107465745D01*
X136997409Y-107415101D01*
X137068215Y-107409918D01*
X137076783Y-107412084D01*
G37*
%TD.AperFunction*%
%TA.AperFunction,Conductor*%
G36*
X174449748Y-89679060D02*
G01*
X174457841Y-89681075D01*
X174466809Y-89680711D01*
X174466815Y-89680712D01*
X174475236Y-89680370D01*
X174499109Y-89681672D01*
X174662779Y-89706328D01*
X174749776Y-89719434D01*
X174764565Y-89722579D01*
X175035281Y-89797383D01*
X175049586Y-89802277D01*
X175309406Y-89908975D01*
X175323018Y-89915545D01*
X175399506Y-89958303D01*
X175568177Y-90052592D01*
X175580908Y-90060748D01*
X175647440Y-90109237D01*
X175807892Y-90226176D01*
X175819547Y-90235793D01*
X176025083Y-90427223D01*
X176035509Y-90438173D01*
X176216627Y-90652833D01*
X176225663Y-90664948D01*
X176317308Y-90804590D01*
X176337961Y-90872513D01*
X176318613Y-90940823D01*
X176265405Y-90987828D01*
X176195232Y-90998605D01*
X176144732Y-90980283D01*
X176130288Y-90971169D01*
X176130283Y-90971167D01*
X176125404Y-90968088D01*
X175936180Y-90892595D01*
X175736366Y-90852849D01*
X175730592Y-90852773D01*
X175730588Y-90852773D01*
X175627452Y-90851424D01*
X175532655Y-90850183D01*
X175526958Y-90851162D01*
X175526957Y-90851162D01*
X175494757Y-90856695D01*
X175331870Y-90884684D01*
X175140734Y-90955198D01*
X175135773Y-90958150D01*
X175135772Y-90958150D01*
X175008321Y-91033976D01*
X174965649Y-91059363D01*
X174812478Y-91193690D01*
X174808911Y-91198215D01*
X174808906Y-91198220D01*
X174762726Y-91256800D01*
X174686351Y-91353681D01*
X174683662Y-91358792D01*
X174683660Y-91358795D01*
X174662131Y-91399715D01*
X174591492Y-91533978D01*
X174559226Y-91637893D01*
X174535601Y-91713978D01*
X174531078Y-91728543D01*
X174507132Y-91930859D01*
X174520457Y-92134151D01*
X174570605Y-92331610D01*
X174655898Y-92516624D01*
X174773479Y-92682997D01*
X174919410Y-92825157D01*
X174924206Y-92828362D01*
X174924209Y-92828364D01*
X174968985Y-92858282D01*
X175088803Y-92938342D01*
X175094106Y-92940620D01*
X175094109Y-92940622D01*
X175183115Y-92978862D01*
X175275987Y-93018763D01*
X175348817Y-93035243D01*
X175469055Y-93062450D01*
X175469060Y-93062451D01*
X175474692Y-93063725D01*
X175480463Y-93063952D01*
X175480465Y-93063952D01*
X175543470Y-93066427D01*
X175678263Y-93071723D01*
X175879883Y-93042490D01*
X175885347Y-93040635D01*
X175885352Y-93040634D01*
X176067327Y-92978862D01*
X176067332Y-92978860D01*
X176072799Y-92977004D01*
X176250551Y-92877458D01*
X176407186Y-92747186D01*
X176457222Y-92687024D01*
X176478626Y-92661289D01*
X176537564Y-92621705D01*
X176608546Y-92620269D01*
X176669036Y-92657436D01*
X176699829Y-92721407D01*
X176701500Y-92741858D01*
X176701500Y-94499377D01*
X176681498Y-94567498D01*
X176627842Y-94613991D01*
X176557568Y-94624095D01*
X176519311Y-94611338D01*
X176516705Y-94609385D01*
X176380316Y-94558255D01*
X176318134Y-94551500D01*
X174521866Y-94551500D01*
X174459684Y-94558255D01*
X174323295Y-94609385D01*
X174206739Y-94696739D01*
X174119385Y-94813295D01*
X174068255Y-94949684D01*
X174061500Y-95011866D01*
X174061500Y-96808134D01*
X174068255Y-96870316D01*
X174119385Y-97006705D01*
X174206739Y-97123261D01*
X174323295Y-97210615D01*
X174331704Y-97213767D01*
X174331705Y-97213768D01*
X174440960Y-97254726D01*
X174497725Y-97297367D01*
X174522425Y-97363929D01*
X174507218Y-97433278D01*
X174487825Y-97459759D01*
X174364590Y-97588717D01*
X174358104Y-97596727D01*
X174238098Y-97772649D01*
X174233000Y-97781623D01*
X174143338Y-97974783D01*
X174139775Y-97984470D01*
X174084389Y-98184183D01*
X174085912Y-98192607D01*
X174098292Y-98196000D01*
X175548000Y-98196000D01*
X175616121Y-98216002D01*
X175662614Y-98269658D01*
X175674000Y-98322000D01*
X175674000Y-98578000D01*
X175653998Y-98646121D01*
X175600342Y-98692614D01*
X175548000Y-98704000D01*
X174103225Y-98704000D01*
X174089694Y-98707973D01*
X174088257Y-98717966D01*
X174118565Y-98852446D01*
X174121645Y-98862275D01*
X174201770Y-99059603D01*
X174206413Y-99068794D01*
X174317694Y-99250388D01*
X174323777Y-99258699D01*
X174463213Y-99419667D01*
X174470580Y-99426883D01*
X174634434Y-99562916D01*
X174642881Y-99568831D01*
X174711969Y-99609203D01*
X174760693Y-99660842D01*
X174773764Y-99730625D01*
X174747033Y-99796396D01*
X174706584Y-99829752D01*
X174693607Y-99836507D01*
X174689474Y-99839610D01*
X174689471Y-99839612D01*
X174519100Y-99967530D01*
X174514965Y-99970635D01*
X174473170Y-100014371D01*
X174399443Y-100091522D01*
X174360629Y-100132138D01*
X174357715Y-100136410D01*
X174357714Y-100136411D01*
X174314938Y-100199118D01*
X174234743Y-100316680D01*
X174197272Y-100397404D01*
X174170021Y-100456113D01*
X174140688Y-100519305D01*
X174080989Y-100734570D01*
X174057251Y-100956695D01*
X174057548Y-100961848D01*
X174057548Y-100961851D01*
X174066616Y-101119114D01*
X174070110Y-101179715D01*
X174071247Y-101184761D01*
X174071248Y-101184767D01*
X174093296Y-101282596D01*
X174119222Y-101397639D01*
X174180673Y-101548976D01*
X174200783Y-101598500D01*
X174203266Y-101604616D01*
X174236958Y-101659597D01*
X174292925Y-101750926D01*
X174319987Y-101795088D01*
X174466250Y-101963938D01*
X174570653Y-102050615D01*
X174632240Y-102101745D01*
X174638126Y-102106632D01*
X174657009Y-102117666D01*
X174711445Y-102149476D01*
X174760169Y-102201114D01*
X174773240Y-102270897D01*
X174746509Y-102336669D01*
X174706055Y-102370027D01*
X174693607Y-102376507D01*
X174689474Y-102379610D01*
X174689471Y-102379612D01*
X174519100Y-102507530D01*
X174514965Y-102510635D01*
X174360629Y-102672138D01*
X174357715Y-102676410D01*
X174357714Y-102676411D01*
X174328843Y-102718734D01*
X174234743Y-102856680D01*
X174207208Y-102916000D01*
X174147386Y-103044876D01*
X174140688Y-103059305D01*
X174080989Y-103274570D01*
X174057251Y-103496695D01*
X174057548Y-103501848D01*
X174057548Y-103501851D01*
X174065765Y-103644359D01*
X174070110Y-103719715D01*
X174071247Y-103724761D01*
X174071248Y-103724767D01*
X174092037Y-103817013D01*
X174119222Y-103937639D01*
X174203266Y-104144616D01*
X174205965Y-104149020D01*
X174311543Y-104321308D01*
X174319987Y-104335088D01*
X174466250Y-104503938D01*
X174607426Y-104621144D01*
X174629336Y-104639334D01*
X174638126Y-104646632D01*
X174831000Y-104759338D01*
X175039692Y-104839030D01*
X175044760Y-104840061D01*
X175044763Y-104840062D01*
X175136048Y-104858634D01*
X175258597Y-104883567D01*
X175263772Y-104883757D01*
X175263774Y-104883757D01*
X175476673Y-104891564D01*
X175476677Y-104891564D01*
X175481837Y-104891753D01*
X175486957Y-104891097D01*
X175486959Y-104891097D01*
X175698288Y-104864025D01*
X175698289Y-104864025D01*
X175703416Y-104863368D01*
X175719195Y-104858634D01*
X175912429Y-104800661D01*
X175912434Y-104800659D01*
X175917384Y-104799174D01*
X176117994Y-104700896D01*
X176299860Y-104571173D01*
X176458096Y-104413489D01*
X176461112Y-104409291D01*
X176461116Y-104409287D01*
X176473177Y-104392502D01*
X176529171Y-104348854D01*
X176599874Y-104342407D01*
X176662839Y-104375209D01*
X176698074Y-104436845D01*
X176701500Y-104466027D01*
X176701500Y-106756351D01*
X176681498Y-106824472D01*
X176627842Y-106870965D01*
X176557568Y-106881069D01*
X176492988Y-106851575D01*
X176474542Y-106831740D01*
X176420758Y-106759715D01*
X176420758Y-106759714D01*
X176417305Y-106755091D01*
X176323951Y-106668795D01*
X176271943Y-106620719D01*
X176271940Y-106620717D01*
X176267703Y-106616800D01*
X176221675Y-106587759D01*
X176100288Y-106511169D01*
X176100283Y-106511167D01*
X176095404Y-106508088D01*
X175906180Y-106432595D01*
X175706366Y-106392849D01*
X175700592Y-106392773D01*
X175700588Y-106392773D01*
X175597452Y-106391424D01*
X175502655Y-106390183D01*
X175496958Y-106391162D01*
X175496957Y-106391162D01*
X175307567Y-106423705D01*
X175301870Y-106424684D01*
X175110734Y-106495198D01*
X175105773Y-106498150D01*
X175105772Y-106498150D01*
X174946190Y-106593092D01*
X174935649Y-106599363D01*
X174782478Y-106733690D01*
X174778911Y-106738215D01*
X174778906Y-106738220D01*
X174710911Y-106824472D01*
X174656351Y-106893681D01*
X174653662Y-106898792D01*
X174653660Y-106898795D01*
X174618615Y-106965405D01*
X174561492Y-107073978D01*
X174501078Y-107268543D01*
X174477132Y-107470859D01*
X174490457Y-107674151D01*
X174540605Y-107871610D01*
X174625898Y-108056624D01*
X174743479Y-108222997D01*
X174747613Y-108227024D01*
X174875538Y-108351643D01*
X174889410Y-108365157D01*
X174894206Y-108368362D01*
X174894209Y-108368364D01*
X174934167Y-108395063D01*
X175058803Y-108478342D01*
X175064106Y-108480620D01*
X175064109Y-108480622D01*
X175153115Y-108518862D01*
X175245987Y-108558763D01*
X175318817Y-108575243D01*
X175439055Y-108602450D01*
X175439060Y-108602451D01*
X175444692Y-108603725D01*
X175450463Y-108603952D01*
X175450465Y-108603952D01*
X175513470Y-108606427D01*
X175648263Y-108611723D01*
X175849883Y-108582490D01*
X175855347Y-108580635D01*
X175855352Y-108580634D01*
X176037327Y-108518862D01*
X176037332Y-108518860D01*
X176042799Y-108517004D01*
X176076898Y-108497908D01*
X176199232Y-108429397D01*
X176220551Y-108417458D01*
X176243358Y-108398490D01*
X176308520Y-108370308D01*
X176378576Y-108381830D01*
X176431281Y-108429397D01*
X176449902Y-108497908D01*
X176434619Y-108555558D01*
X176342016Y-108725837D01*
X176334216Y-108738369D01*
X176231996Y-108882939D01*
X176179421Y-108957296D01*
X176170196Y-108968842D01*
X175990833Y-109168138D01*
X175980320Y-109178523D01*
X175796441Y-109340006D01*
X175778866Y-109355440D01*
X175767214Y-109364520D01*
X175685962Y-109420500D01*
X175546418Y-109516641D01*
X175533778Y-109524297D01*
X175296701Y-109649515D01*
X175283251Y-109655639D01*
X175033142Y-109752238D01*
X175019068Y-109756745D01*
X174897900Y-109787842D01*
X174798856Y-109813261D01*
X174759365Y-109823396D01*
X174744863Y-109826223D01*
X174631444Y-109841498D01*
X174513997Y-109857315D01*
X174487204Y-109858046D01*
X174486621Y-109858000D01*
X174486620Y-109858000D01*
X174477670Y-109857289D01*
X174468882Y-109859118D01*
X174465570Y-109859327D01*
X174444466Y-109861500D01*
X173782793Y-109861500D01*
X173714672Y-109841498D01*
X173668179Y-109787842D01*
X173658075Y-109717568D01*
X173687569Y-109652988D01*
X173698674Y-109642019D01*
X173699860Y-109641173D01*
X173858096Y-109483489D01*
X173944697Y-109362971D01*
X173985435Y-109306277D01*
X173988453Y-109302077D01*
X174009320Y-109259857D01*
X174085136Y-109106453D01*
X174085137Y-109106451D01*
X174087430Y-109101811D01*
X174144026Y-108915531D01*
X174150865Y-108893023D01*
X174150865Y-108893021D01*
X174152370Y-108888069D01*
X174181529Y-108666590D01*
X174182890Y-108610894D01*
X174183074Y-108603365D01*
X174183074Y-108603361D01*
X174183156Y-108600000D01*
X174164852Y-108377361D01*
X174110431Y-108160702D01*
X174021354Y-107955840D01*
X173945654Y-107838826D01*
X173902822Y-107772617D01*
X173902820Y-107772614D01*
X173900014Y-107768277D01*
X173749670Y-107603051D01*
X173745619Y-107599852D01*
X173745615Y-107599848D01*
X173578414Y-107467800D01*
X173578410Y-107467798D01*
X173574359Y-107464598D01*
X173493607Y-107420021D01*
X173443636Y-107369588D01*
X173428500Y-107309712D01*
X173428500Y-104108136D01*
X173429578Y-104091690D01*
X173432672Y-104068188D01*
X173433750Y-104060000D01*
X173428500Y-104020122D01*
X173428500Y-104020115D01*
X173412838Y-103901150D01*
X173381929Y-103826528D01*
X173363433Y-103781876D01*
X173351524Y-103753124D01*
X173324038Y-103717303D01*
X173283989Y-103665111D01*
X173278477Y-103657928D01*
X173278474Y-103657925D01*
X173253987Y-103626013D01*
X173247432Y-103620983D01*
X173228621Y-103606548D01*
X173216230Y-103595681D01*
X168494370Y-98873821D01*
X168483503Y-98861430D01*
X168469068Y-98842618D01*
X168464042Y-98836068D01*
X168432130Y-98811581D01*
X168432127Y-98811578D01*
X168388368Y-98778000D01*
X168343484Y-98743559D01*
X168343482Y-98743558D01*
X168336931Y-98738531D01*
X168188906Y-98677217D01*
X168180719Y-98676139D01*
X168180718Y-98676139D01*
X168159547Y-98673352D01*
X168069948Y-98661556D01*
X168069946Y-98661556D01*
X168069940Y-98661555D01*
X168069938Y-98661555D01*
X168069929Y-98661554D01*
X168038244Y-98657383D01*
X168030055Y-98656305D01*
X167998362Y-98660477D01*
X167981919Y-98661555D01*
X165955532Y-98661555D01*
X165887411Y-98641553D01*
X165840918Y-98587897D01*
X165830610Y-98519110D01*
X165838500Y-98459175D01*
X165838500Y-98459169D01*
X165842672Y-98427478D01*
X165843750Y-98419289D01*
X165839578Y-98387596D01*
X165838500Y-98371153D01*
X165838500Y-92183319D01*
X165858502Y-92115198D01*
X165909068Y-92070168D01*
X165918353Y-92065619D01*
X165923353Y-92063170D01*
X165923357Y-92063168D01*
X165927994Y-92060896D01*
X165932198Y-92057898D01*
X165932202Y-92057895D01*
X166021932Y-91993891D01*
X166109860Y-91931173D01*
X166268096Y-91773489D01*
X166287490Y-91746500D01*
X166398453Y-91592077D01*
X166399776Y-91593028D01*
X166446645Y-91549857D01*
X166516580Y-91537625D01*
X166582026Y-91565144D01*
X166609875Y-91596994D01*
X166625852Y-91623066D01*
X166669987Y-91695088D01*
X166816250Y-91863938D01*
X166988126Y-92006632D01*
X167181000Y-92119338D01*
X167389692Y-92199030D01*
X167394760Y-92200061D01*
X167394763Y-92200062D01*
X167484387Y-92218296D01*
X167608597Y-92243567D01*
X167613772Y-92243757D01*
X167613774Y-92243757D01*
X167826673Y-92251564D01*
X167826677Y-92251564D01*
X167831837Y-92251753D01*
X167836957Y-92251097D01*
X167836959Y-92251097D01*
X168048288Y-92224025D01*
X168048289Y-92224025D01*
X168053416Y-92223368D01*
X168058376Y-92221880D01*
X168262429Y-92160661D01*
X168262434Y-92160659D01*
X168267384Y-92159174D01*
X168467994Y-92060896D01*
X168649860Y-91931173D01*
X168808096Y-91773489D01*
X168827490Y-91746500D01*
X168938453Y-91592077D01*
X168939776Y-91593028D01*
X168986645Y-91549857D01*
X169056580Y-91537625D01*
X169122026Y-91565144D01*
X169149875Y-91596994D01*
X169165852Y-91623066D01*
X169209987Y-91695088D01*
X169356250Y-91863938D01*
X169528126Y-92006632D01*
X169721000Y-92119338D01*
X169929692Y-92199030D01*
X169934760Y-92200061D01*
X169934763Y-92200062D01*
X170024387Y-92218296D01*
X170148597Y-92243567D01*
X170153772Y-92243757D01*
X170153774Y-92243757D01*
X170366673Y-92251564D01*
X170366677Y-92251564D01*
X170371837Y-92251753D01*
X170376957Y-92251097D01*
X170376959Y-92251097D01*
X170588288Y-92224025D01*
X170588289Y-92224025D01*
X170593416Y-92223368D01*
X170598376Y-92221880D01*
X170802429Y-92160661D01*
X170802434Y-92160659D01*
X170807384Y-92159174D01*
X171007994Y-92060896D01*
X171189860Y-91931173D01*
X171348096Y-91773489D01*
X171367490Y-91746500D01*
X171478453Y-91592077D01*
X171479776Y-91593028D01*
X171526645Y-91549857D01*
X171596580Y-91537625D01*
X171662026Y-91565144D01*
X171689875Y-91596994D01*
X171705852Y-91623066D01*
X171749987Y-91695088D01*
X171896250Y-91863938D01*
X172068126Y-92006632D01*
X172261000Y-92119338D01*
X172469692Y-92199030D01*
X172474760Y-92200061D01*
X172474763Y-92200062D01*
X172564387Y-92218296D01*
X172688597Y-92243567D01*
X172693772Y-92243757D01*
X172693774Y-92243757D01*
X172906673Y-92251564D01*
X172906677Y-92251564D01*
X172911837Y-92251753D01*
X172916957Y-92251097D01*
X172916959Y-92251097D01*
X173128288Y-92224025D01*
X173128289Y-92224025D01*
X173133416Y-92223368D01*
X173138376Y-92221880D01*
X173342429Y-92160661D01*
X173342434Y-92160659D01*
X173347384Y-92159174D01*
X173547994Y-92060896D01*
X173729860Y-91931173D01*
X173888096Y-91773489D01*
X173907490Y-91746500D01*
X174015435Y-91596277D01*
X174018453Y-91592077D01*
X174021002Y-91586921D01*
X174115136Y-91396453D01*
X174115137Y-91396451D01*
X174117430Y-91391811D01*
X174182370Y-91178069D01*
X174211529Y-90956590D01*
X174212763Y-90906096D01*
X174213074Y-90893365D01*
X174213074Y-90893361D01*
X174213156Y-90890000D01*
X174194852Y-90667361D01*
X174140431Y-90450702D01*
X174051354Y-90245840D01*
X173959745Y-90104234D01*
X173932822Y-90062617D01*
X173932820Y-90062614D01*
X173930014Y-90058277D01*
X173820152Y-89937540D01*
X173783148Y-89896873D01*
X173783146Y-89896871D01*
X173779670Y-89893051D01*
X173780391Y-89892395D01*
X173746732Y-89835572D01*
X173749318Y-89764622D01*
X173789851Y-89706334D01*
X173855463Y-89679212D01*
X173868841Y-89678500D01*
X174438731Y-89678500D01*
X174449748Y-89679060D01*
G37*
%TD.AperFunction*%
%TA.AperFunction,Conductor*%
G36*
X161686474Y-104167396D02*
G01*
X161732967Y-104221052D01*
X161744353Y-104273394D01*
X161744353Y-104636878D01*
X161744546Y-104639326D01*
X161744546Y-104639334D01*
X161745121Y-104646632D01*
X161747247Y-104673648D01*
X161792959Y-104830991D01*
X161796994Y-104837813D01*
X161796994Y-104837814D01*
X161809307Y-104858634D01*
X161826853Y-104922773D01*
X161826853Y-105081490D01*
X161806851Y-105149611D01*
X161797384Y-105162468D01*
X161735802Y-105235859D01*
X161732834Y-105241257D01*
X161732831Y-105241262D01*
X161665571Y-105363608D01*
X161645246Y-105400580D01*
X161588409Y-105579752D01*
X161567456Y-105766552D01*
X161567972Y-105772696D01*
X161579325Y-105907894D01*
X161583185Y-105953865D01*
X161584884Y-105959789D01*
X161627776Y-106109371D01*
X161634997Y-106134555D01*
X161637812Y-106140032D01*
X161637813Y-106140035D01*
X161710346Y-106281169D01*
X161720918Y-106301740D01*
X161724741Y-106306564D01*
X161724744Y-106306568D01*
X161817587Y-106423705D01*
X161837677Y-106449052D01*
X161842371Y-106453047D01*
X161967462Y-106559508D01*
X162006375Y-106618891D01*
X162007006Y-106689885D01*
X161974894Y-106744557D01*
X161166196Y-107553255D01*
X161103884Y-107587281D01*
X161033069Y-107582216D01*
X160999011Y-107563043D01*
X160884365Y-107472500D01*
X160878415Y-107467801D01*
X160878413Y-107467800D01*
X160874359Y-107464598D01*
X160678789Y-107356638D01*
X160673920Y-107354914D01*
X160673916Y-107354912D01*
X160473087Y-107283795D01*
X160473083Y-107283794D01*
X160468212Y-107282069D01*
X160463119Y-107281162D01*
X160463116Y-107281161D01*
X160253373Y-107243800D01*
X160253367Y-107243799D01*
X160248284Y-107242894D01*
X160174452Y-107241992D01*
X160030081Y-107240228D01*
X160030079Y-107240228D01*
X160024911Y-107240165D01*
X159804091Y-107273955D01*
X159591756Y-107343357D01*
X159561443Y-107359137D01*
X159414548Y-107435606D01*
X159393607Y-107446507D01*
X159389474Y-107449610D01*
X159389471Y-107449612D01*
X159219100Y-107577530D01*
X159214965Y-107580635D01*
X159162399Y-107635642D01*
X159082538Y-107719212D01*
X159060629Y-107742138D01*
X158953201Y-107899621D01*
X158898293Y-107944621D01*
X158827768Y-107952792D01*
X158764021Y-107921538D01*
X158743324Y-107897054D01*
X158662822Y-107772617D01*
X158662820Y-107772614D01*
X158660014Y-107768277D01*
X158509670Y-107603051D01*
X158505619Y-107599852D01*
X158505615Y-107599848D01*
X158338414Y-107467800D01*
X158338410Y-107467798D01*
X158334359Y-107464598D01*
X158253607Y-107420021D01*
X158203636Y-107369588D01*
X158188500Y-107309712D01*
X158188500Y-106518503D01*
X158208502Y-106450382D01*
X158225405Y-106429408D01*
X159631673Y-105023140D01*
X159693985Y-104989114D01*
X159764800Y-104994179D01*
X159799936Y-105014488D01*
X159803455Y-105018132D01*
X159945846Y-105111310D01*
X159952450Y-105113766D01*
X159952452Y-105113767D01*
X159988844Y-105127301D01*
X160105341Y-105170626D01*
X160274015Y-105193132D01*
X160281026Y-105192494D01*
X160281030Y-105192494D01*
X160436462Y-105178348D01*
X160443483Y-105177709D01*
X160450185Y-105175531D01*
X160450187Y-105175531D01*
X160598623Y-105127301D01*
X160598626Y-105127300D01*
X160605322Y-105125124D01*
X160751490Y-105037990D01*
X160756590Y-105033133D01*
X160756593Y-105033131D01*
X160781053Y-105009839D01*
X160844178Y-104977347D01*
X160914849Y-104984141D01*
X160957039Y-105011990D01*
X161026927Y-105081878D01*
X161039354Y-105091518D01*
X161166633Y-105166790D01*
X161181069Y-105173037D01*
X161301458Y-105208013D01*
X161315558Y-105207973D01*
X161318853Y-105200703D01*
X161318853Y-104428150D01*
X161338855Y-104360029D01*
X161355758Y-104339055D01*
X161510514Y-104184299D01*
X161572826Y-104150273D01*
X161599609Y-104147394D01*
X161618353Y-104147394D01*
X161686474Y-104167396D01*
G37*
%TD.AperFunction*%
%TA.AperFunction,Conductor*%
G36*
X141424882Y-105718502D02*
G01*
X141471375Y-105772158D01*
X141481479Y-105842432D01*
X141451985Y-105907012D01*
X141445856Y-105913595D01*
X140154856Y-107204595D01*
X140092544Y-107238621D01*
X140065761Y-107241500D01*
X138901866Y-107241500D01*
X138839684Y-107248255D01*
X138703295Y-107299385D01*
X138586739Y-107386739D01*
X138499385Y-107503295D01*
X138496233Y-107511703D01*
X138491982Y-107523042D01*
X138449340Y-107579807D01*
X138382778Y-107604506D01*
X138313429Y-107589298D01*
X138263311Y-107539012D01*
X138248000Y-107478812D01*
X138248000Y-107407031D01*
X138247807Y-107402102D01*
X138245614Y-107374244D01*
X138243312Y-107361641D01*
X138201643Y-107218216D01*
X138195395Y-107203778D01*
X138189984Y-107194628D01*
X138172526Y-107125812D01*
X138189985Y-107066353D01*
X138195857Y-107056423D01*
X138199894Y-107049597D01*
X138203106Y-107038543D01*
X138227298Y-106955271D01*
X138245606Y-106892254D01*
X138246487Y-106881069D01*
X138248307Y-106857940D01*
X138248307Y-106857932D01*
X138248500Y-106855484D01*
X138248500Y-106542371D01*
X138268502Y-106474250D01*
X138285405Y-106453276D01*
X139003276Y-105735405D01*
X139065588Y-105701379D01*
X139092371Y-105698500D01*
X141356761Y-105698500D01*
X141424882Y-105718502D01*
G37*
%TD.AperFunction*%
%TA.AperFunction,Conductor*%
G36*
X132865549Y-89698502D02*
G01*
X132912042Y-89752158D01*
X132922146Y-89822432D01*
X132905882Y-89868639D01*
X132851762Y-89960151D01*
X132829731Y-89997404D01*
X132827520Y-90005015D01*
X132827519Y-90005017D01*
X132813084Y-90054702D01*
X132784371Y-90153534D01*
X132783867Y-90159941D01*
X132783866Y-90159945D01*
X132783158Y-90168945D01*
X132781500Y-90190011D01*
X132781501Y-90589988D01*
X132784371Y-90626466D01*
X132829731Y-90782596D01*
X132833767Y-90789421D01*
X132833769Y-90789425D01*
X132861231Y-90835861D01*
X132878691Y-90904677D01*
X132861231Y-90964139D01*
X132833769Y-91010575D01*
X132833767Y-91010579D01*
X132829731Y-91017404D01*
X132827520Y-91025015D01*
X132827519Y-91025017D01*
X132813074Y-91074737D01*
X132784371Y-91173534D01*
X132783867Y-91179941D01*
X132783866Y-91179945D01*
X132782428Y-91198220D01*
X132781500Y-91210011D01*
X132781501Y-91609988D01*
X132784371Y-91646466D01*
X132786168Y-91652650D01*
X132825312Y-91787384D01*
X132829731Y-91802596D01*
X132912494Y-91942541D01*
X132952285Y-91982332D01*
X132986311Y-92044644D01*
X132981246Y-92115459D01*
X132970450Y-92137543D01*
X132956490Y-92160191D01*
X132942885Y-92182262D01*
X132922488Y-92243757D01*
X132899140Y-92314151D01*
X132887203Y-92350139D01*
X132886503Y-92356975D01*
X132886502Y-92356978D01*
X132884126Y-92380167D01*
X132876500Y-92454600D01*
X132876500Y-93805400D01*
X132876837Y-93808646D01*
X132876837Y-93808650D01*
X132886436Y-93901158D01*
X132887474Y-93911166D01*
X132889655Y-93917702D01*
X132889655Y-93917704D01*
X132919039Y-94005777D01*
X132943450Y-94078946D01*
X133036522Y-94229348D01*
X133161697Y-94354305D01*
X133167927Y-94358145D01*
X133167928Y-94358146D01*
X133265954Y-94418570D01*
X133312262Y-94447115D01*
X133386586Y-94471767D01*
X133473611Y-94500632D01*
X133473613Y-94500632D01*
X133480139Y-94502797D01*
X133486975Y-94503497D01*
X133486978Y-94503498D01*
X133530031Y-94507909D01*
X133584600Y-94513500D01*
X134145611Y-94513500D01*
X134213732Y-94533502D01*
X134260225Y-94587158D01*
X134270329Y-94657432D01*
X134242696Y-94719816D01*
X134144213Y-94838862D01*
X134137356Y-94849027D01*
X134049196Y-95012076D01*
X134044444Y-95023381D01*
X134008750Y-95138692D01*
X134008544Y-95152795D01*
X134015299Y-95156000D01*
X135508000Y-95156000D01*
X135576121Y-95176002D01*
X135622614Y-95229658D01*
X135634000Y-95282000D01*
X135634000Y-95538000D01*
X135613998Y-95606121D01*
X135560342Y-95652614D01*
X135508000Y-95664000D01*
X134022076Y-95664000D01*
X134008545Y-95667973D01*
X134007425Y-95675768D01*
X134039138Y-95783521D01*
X134043731Y-95794889D01*
X134129607Y-95959154D01*
X134136321Y-95969415D01*
X134252468Y-96113873D01*
X134261046Y-96122632D01*
X134403039Y-96241778D01*
X134413159Y-96248708D01*
X134575585Y-96338002D01*
X134586858Y-96342834D01*
X134763538Y-96398880D01*
X134775532Y-96401430D01*
X134919761Y-96417607D01*
X134926785Y-96418000D01*
X135046000Y-96418000D01*
X135114121Y-96438002D01*
X135160614Y-96491658D01*
X135172000Y-96544000D01*
X135172000Y-96707885D01*
X135176475Y-96723124D01*
X135177865Y-96724329D01*
X135185548Y-96726000D01*
X136508000Y-96726000D01*
X136576121Y-96746002D01*
X136622614Y-96799658D01*
X136634000Y-96852000D01*
X136634000Y-97108000D01*
X136613998Y-97176121D01*
X136560342Y-97222614D01*
X136508000Y-97234000D01*
X135190116Y-97234000D01*
X135174877Y-97238475D01*
X135173672Y-97239865D01*
X135172001Y-97247548D01*
X135172001Y-97424669D01*
X135172371Y-97431490D01*
X135177895Y-97482350D01*
X135181522Y-97497607D01*
X135210557Y-97575059D01*
X135215740Y-97645866D01*
X135210557Y-97663517D01*
X135201191Y-97688502D01*
X135178255Y-97749684D01*
X135177402Y-97757532D01*
X135177402Y-97757534D01*
X135171869Y-97808469D01*
X135171500Y-97811866D01*
X135171500Y-98608134D01*
X135178255Y-98670316D01*
X135181029Y-98677716D01*
X135182856Y-98685400D01*
X135181035Y-98685833D01*
X135185485Y-98746570D01*
X135181703Y-98759448D01*
X135181028Y-98762287D01*
X135178255Y-98769684D01*
X135171500Y-98831866D01*
X135171500Y-99628134D01*
X135178255Y-99690316D01*
X135181029Y-99697715D01*
X135181775Y-99700854D01*
X135181775Y-99759146D01*
X135181029Y-99762285D01*
X135178255Y-99769684D01*
X135171500Y-99831866D01*
X135171500Y-100628134D01*
X135178255Y-100690316D01*
X135181029Y-100697716D01*
X135182856Y-100705400D01*
X135181035Y-100705833D01*
X135185485Y-100766570D01*
X135181703Y-100779448D01*
X135181028Y-100782287D01*
X135178255Y-100789684D01*
X135171500Y-100851866D01*
X135171500Y-101648134D01*
X135171869Y-101651531D01*
X135176274Y-101692077D01*
X135178255Y-101710316D01*
X135181027Y-101717709D01*
X135181027Y-101717711D01*
X135210557Y-101796483D01*
X135215740Y-101867290D01*
X135210557Y-101884941D01*
X135181520Y-101962398D01*
X135177895Y-101977643D01*
X135172369Y-102028514D01*
X135172000Y-102035328D01*
X135172000Y-102207885D01*
X135176475Y-102223124D01*
X135177865Y-102224329D01*
X135185548Y-102226000D01*
X137569884Y-102226000D01*
X137585123Y-102221525D01*
X137586328Y-102220135D01*
X137587999Y-102212452D01*
X137587999Y-102035331D01*
X137587629Y-102028510D01*
X137582105Y-101977650D01*
X137578478Y-101962393D01*
X137549443Y-101884941D01*
X137544260Y-101814134D01*
X137549443Y-101796483D01*
X137565794Y-101752866D01*
X137594681Y-101708000D01*
X138028911Y-101273770D01*
X138043323Y-101261384D01*
X138054918Y-101252851D01*
X138054923Y-101252846D01*
X138060818Y-101248508D01*
X138065557Y-101242930D01*
X138065560Y-101242927D01*
X138095035Y-101208232D01*
X138101965Y-101200716D01*
X138107661Y-101195020D01*
X138109924Y-101192159D01*
X138109929Y-101192154D01*
X138125285Y-101172744D01*
X138128074Y-101169342D01*
X138170594Y-101119294D01*
X138170597Y-101119290D01*
X138175333Y-101113715D01*
X138176257Y-101114500D01*
X138225108Y-101073600D01*
X138295543Y-101064688D01*
X138359615Y-101095272D01*
X138396981Y-101155640D01*
X138401500Y-101189084D01*
X138401500Y-101993629D01*
X138381498Y-102061750D01*
X138364595Y-102082724D01*
X137734474Y-102712845D01*
X137672162Y-102746871D01*
X137601347Y-102741806D01*
X137596143Y-102738718D01*
X137574452Y-102734000D01*
X135190116Y-102734000D01*
X135174877Y-102738475D01*
X135173672Y-102739865D01*
X135172001Y-102747548D01*
X135172001Y-102916000D01*
X135151999Y-102984121D01*
X135098343Y-103030614D01*
X135046001Y-103042000D01*
X134933343Y-103042000D01*
X134927195Y-103042301D01*
X134789397Y-103055812D01*
X134777362Y-103058195D01*
X134599924Y-103111767D01*
X134588584Y-103116441D01*
X134424923Y-103203460D01*
X134414706Y-103210249D01*
X134271067Y-103327397D01*
X134262363Y-103336041D01*
X134144216Y-103478856D01*
X134137356Y-103489027D01*
X134049196Y-103652076D01*
X134044444Y-103663381D01*
X134008750Y-103778692D01*
X134008544Y-103792795D01*
X134015299Y-103796000D01*
X135508000Y-103796000D01*
X135576121Y-103816002D01*
X135622614Y-103869658D01*
X135634000Y-103922000D01*
X135634000Y-104178000D01*
X135613998Y-104246121D01*
X135560342Y-104292614D01*
X135508000Y-104304000D01*
X134022076Y-104304000D01*
X134008545Y-104307973D01*
X134007425Y-104315768D01*
X134039138Y-104423521D01*
X134043731Y-104434889D01*
X134129607Y-104599154D01*
X134136321Y-104609415D01*
X134252468Y-104753873D01*
X134261046Y-104762632D01*
X134403039Y-104881778D01*
X134413159Y-104888708D01*
X134575585Y-104978002D01*
X134586858Y-104982834D01*
X134763538Y-105038880D01*
X134775532Y-105041430D01*
X134919761Y-105057607D01*
X134926785Y-105058000D01*
X135085129Y-105058000D01*
X135153250Y-105078002D01*
X135199743Y-105131658D01*
X135209847Y-105201932D01*
X135180353Y-105266512D01*
X135174224Y-105273095D01*
X134592724Y-105854595D01*
X134530412Y-105888621D01*
X134503629Y-105891500D01*
X134363168Y-105891500D01*
X134318939Y-105883482D01*
X134269711Y-105865027D01*
X134269709Y-105865027D01*
X134262316Y-105862255D01*
X134254468Y-105861402D01*
X134254466Y-105861402D01*
X134203531Y-105855869D01*
X134200134Y-105855500D01*
X133103866Y-105855500D01*
X133100469Y-105855869D01*
X133049534Y-105861402D01*
X133049532Y-105861402D01*
X133041684Y-105862255D01*
X133034293Y-105865026D01*
X133034292Y-105865026D01*
X133031190Y-105866189D01*
X132951290Y-105896142D01*
X132880485Y-105901325D01*
X132871917Y-105899159D01*
X132817956Y-105883482D01*
X132758431Y-105866188D01*
X132758426Y-105866187D01*
X132752254Y-105864394D01*
X132745849Y-105863890D01*
X132745844Y-105863889D01*
X132717940Y-105861693D01*
X132717932Y-105861693D01*
X132715484Y-105861500D01*
X132244516Y-105861500D01*
X132242068Y-105861693D01*
X132242060Y-105861693D01*
X132214156Y-105863889D01*
X132214151Y-105863890D01*
X132207746Y-105864394D01*
X132114446Y-105891500D01*
X132058016Y-105907894D01*
X132058014Y-105907895D01*
X132050403Y-105910106D01*
X132043581Y-105914141D01*
X132043580Y-105914141D01*
X131916192Y-105989478D01*
X131909371Y-105993512D01*
X131793512Y-106109371D01*
X131789478Y-106116192D01*
X131738380Y-106202595D01*
X131710106Y-106250403D01*
X131707895Y-106258014D01*
X131707894Y-106258016D01*
X131695191Y-106301740D01*
X131664394Y-106407746D01*
X131663890Y-106414151D01*
X131663889Y-106414156D01*
X131661693Y-106442060D01*
X131661500Y-106444516D01*
X131661500Y-106446983D01*
X131661403Y-106449457D01*
X131660679Y-106449429D01*
X131641498Y-106514754D01*
X131587842Y-106561247D01*
X131517568Y-106571351D01*
X131452988Y-106541857D01*
X131441864Y-106530944D01*
X131440761Y-106529719D01*
X131437305Y-106525091D01*
X131359368Y-106453047D01*
X131291943Y-106390719D01*
X131291940Y-106390717D01*
X131287703Y-106386800D01*
X131217384Y-106342432D01*
X131120288Y-106281169D01*
X131120283Y-106281167D01*
X131115404Y-106278088D01*
X130926180Y-106202595D01*
X130726366Y-106162849D01*
X130720592Y-106162773D01*
X130720588Y-106162773D01*
X130617452Y-106161424D01*
X130522655Y-106160183D01*
X130516958Y-106161162D01*
X130516957Y-106161162D01*
X130327567Y-106193705D01*
X130321870Y-106194684D01*
X130130734Y-106265198D01*
X130125773Y-106268150D01*
X130125772Y-106268150D01*
X130061198Y-106306568D01*
X129955649Y-106369363D01*
X129802478Y-106503690D01*
X129798911Y-106508215D01*
X129798906Y-106508220D01*
X129732005Y-106593084D01*
X129676351Y-106663681D01*
X129673662Y-106668792D01*
X129673660Y-106668795D01*
X129663408Y-106688281D01*
X129581492Y-106843978D01*
X129573087Y-106871047D01*
X129564833Y-106897629D01*
X129525530Y-106956754D01*
X129460500Y-106985245D01*
X129390391Y-106974055D01*
X129337461Y-106926738D01*
X129318500Y-106860265D01*
X129318500Y-104315768D01*
X130207425Y-104315768D01*
X130239138Y-104423521D01*
X130243731Y-104434889D01*
X130329607Y-104599154D01*
X130336321Y-104609415D01*
X130452468Y-104753873D01*
X130461046Y-104762632D01*
X130603039Y-104881778D01*
X130613159Y-104888708D01*
X130775585Y-104978002D01*
X130786858Y-104982834D01*
X130963538Y-105038880D01*
X130975532Y-105041430D01*
X131119761Y-105057607D01*
X131126785Y-105058000D01*
X131307885Y-105058000D01*
X131323124Y-105053525D01*
X131324329Y-105052135D01*
X131326000Y-105044452D01*
X131326000Y-105039885D01*
X131834000Y-105039885D01*
X131838475Y-105055124D01*
X131839865Y-105056329D01*
X131847548Y-105058000D01*
X132026657Y-105058000D01*
X132032805Y-105057699D01*
X132170603Y-105044188D01*
X132182638Y-105041805D01*
X132360076Y-104988233D01*
X132371416Y-104983559D01*
X132535077Y-104896540D01*
X132545294Y-104889751D01*
X132688933Y-104772603D01*
X132697637Y-104763959D01*
X132815784Y-104621144D01*
X132822644Y-104610973D01*
X132910804Y-104447924D01*
X132915556Y-104436619D01*
X132951250Y-104321308D01*
X132951456Y-104307205D01*
X132944701Y-104304000D01*
X131852115Y-104304000D01*
X131836876Y-104308475D01*
X131835671Y-104309865D01*
X131834000Y-104317548D01*
X131834000Y-105039885D01*
X131326000Y-105039885D01*
X131326000Y-104322115D01*
X131321525Y-104306876D01*
X131320135Y-104305671D01*
X131312452Y-104304000D01*
X130222076Y-104304000D01*
X130208545Y-104307973D01*
X130207425Y-104315768D01*
X129318500Y-104315768D01*
X129318500Y-103792795D01*
X130208544Y-103792795D01*
X130215299Y-103796000D01*
X131307885Y-103796000D01*
X131323124Y-103791525D01*
X131324329Y-103790135D01*
X131326000Y-103782452D01*
X131326000Y-103777885D01*
X131834000Y-103777885D01*
X131838475Y-103793124D01*
X131839865Y-103794329D01*
X131847548Y-103796000D01*
X132937924Y-103796000D01*
X132951455Y-103792027D01*
X132952575Y-103784232D01*
X132920862Y-103676479D01*
X132916269Y-103665111D01*
X132830393Y-103500846D01*
X132823679Y-103490585D01*
X132707532Y-103346127D01*
X132698954Y-103337368D01*
X132556961Y-103218222D01*
X132546841Y-103211292D01*
X132384415Y-103121998D01*
X132373142Y-103117166D01*
X132196462Y-103061120D01*
X132184468Y-103058570D01*
X132040239Y-103042393D01*
X132033215Y-103042000D01*
X131852115Y-103042000D01*
X131836876Y-103046475D01*
X131835671Y-103047865D01*
X131834000Y-103055548D01*
X131834000Y-103777885D01*
X131326000Y-103777885D01*
X131326000Y-103060115D01*
X131321525Y-103044876D01*
X131320135Y-103043671D01*
X131312452Y-103042000D01*
X131133343Y-103042000D01*
X131127195Y-103042301D01*
X130989397Y-103055812D01*
X130977362Y-103058195D01*
X130799924Y-103111767D01*
X130788584Y-103116441D01*
X130624923Y-103203460D01*
X130614706Y-103210249D01*
X130471067Y-103327397D01*
X130462363Y-103336041D01*
X130344216Y-103478856D01*
X130337356Y-103489027D01*
X130249196Y-103652076D01*
X130244444Y-103663381D01*
X130208750Y-103778692D01*
X130208544Y-103792795D01*
X129318500Y-103792795D01*
X129318500Y-95675768D01*
X130207425Y-95675768D01*
X130239138Y-95783521D01*
X130243731Y-95794889D01*
X130329607Y-95959154D01*
X130336321Y-95969415D01*
X130452468Y-96113873D01*
X130461046Y-96122632D01*
X130603039Y-96241778D01*
X130613159Y-96248708D01*
X130775585Y-96338002D01*
X130786858Y-96342834D01*
X130963538Y-96398880D01*
X130975532Y-96401430D01*
X131119761Y-96417607D01*
X131126785Y-96418000D01*
X131307885Y-96418000D01*
X131323124Y-96413525D01*
X131324329Y-96412135D01*
X131326000Y-96404452D01*
X131326000Y-96399885D01*
X131834000Y-96399885D01*
X131838475Y-96415124D01*
X131839865Y-96416329D01*
X131847548Y-96418000D01*
X132026657Y-96418000D01*
X132032805Y-96417699D01*
X132170603Y-96404188D01*
X132182638Y-96401805D01*
X132360076Y-96348233D01*
X132371416Y-96343559D01*
X132535077Y-96256540D01*
X132545294Y-96249751D01*
X132688933Y-96132603D01*
X132697637Y-96123959D01*
X132815784Y-95981144D01*
X132822644Y-95970973D01*
X132910804Y-95807924D01*
X132915556Y-95796619D01*
X132951250Y-95681308D01*
X132951456Y-95667205D01*
X132944701Y-95664000D01*
X131852115Y-95664000D01*
X131836876Y-95668475D01*
X131835671Y-95669865D01*
X131834000Y-95677548D01*
X131834000Y-96399885D01*
X131326000Y-96399885D01*
X131326000Y-95682115D01*
X131321525Y-95666876D01*
X131320135Y-95665671D01*
X131312452Y-95664000D01*
X130222076Y-95664000D01*
X130208545Y-95667973D01*
X130207425Y-95675768D01*
X129318500Y-95675768D01*
X129318500Y-95152795D01*
X130208544Y-95152795D01*
X130215299Y-95156000D01*
X131307885Y-95156000D01*
X131323124Y-95151525D01*
X131324329Y-95150135D01*
X131326000Y-95142452D01*
X131326000Y-95137885D01*
X131834000Y-95137885D01*
X131838475Y-95153124D01*
X131839865Y-95154329D01*
X131847548Y-95156000D01*
X132937924Y-95156000D01*
X132951455Y-95152027D01*
X132952575Y-95144232D01*
X132920862Y-95036479D01*
X132916269Y-95025111D01*
X132830393Y-94860846D01*
X132823679Y-94850585D01*
X132707532Y-94706127D01*
X132698954Y-94697368D01*
X132556961Y-94578222D01*
X132546841Y-94571292D01*
X132384415Y-94481998D01*
X132373142Y-94477166D01*
X132196462Y-94421120D01*
X132184468Y-94418570D01*
X132040239Y-94402393D01*
X132033215Y-94402000D01*
X131852115Y-94402000D01*
X131836876Y-94406475D01*
X131835671Y-94407865D01*
X131834000Y-94415548D01*
X131834000Y-95137885D01*
X131326000Y-95137885D01*
X131326000Y-94420115D01*
X131321525Y-94404876D01*
X131320135Y-94403671D01*
X131312452Y-94402000D01*
X131133343Y-94402000D01*
X131127195Y-94402301D01*
X130989397Y-94415812D01*
X130977362Y-94418195D01*
X130799924Y-94471767D01*
X130788584Y-94476441D01*
X130624923Y-94563460D01*
X130614706Y-94570249D01*
X130471067Y-94687397D01*
X130462363Y-94696041D01*
X130344216Y-94838856D01*
X130337356Y-94849027D01*
X130249196Y-95012076D01*
X130244444Y-95023381D01*
X130208750Y-95138692D01*
X130208544Y-95152795D01*
X129318500Y-95152795D01*
X129318500Y-92415379D01*
X129319767Y-92397555D01*
X129320368Y-92393349D01*
X129349809Y-92328746D01*
X129409505Y-92290314D01*
X129480501Y-92290257D01*
X129540258Y-92328593D01*
X129567223Y-92380166D01*
X129600605Y-92511610D01*
X129685898Y-92696624D01*
X129803479Y-92862997D01*
X129949410Y-93005157D01*
X129954206Y-93008362D01*
X129954209Y-93008364D01*
X130022149Y-93053760D01*
X130118803Y-93118342D01*
X130124106Y-93120620D01*
X130124109Y-93120622D01*
X130213115Y-93158862D01*
X130305987Y-93198763D01*
X130378817Y-93215243D01*
X130499055Y-93242450D01*
X130499060Y-93242451D01*
X130504692Y-93243725D01*
X130510463Y-93243952D01*
X130510465Y-93243952D01*
X130573470Y-93246427D01*
X130708263Y-93251723D01*
X130909883Y-93222490D01*
X130915347Y-93220635D01*
X130915352Y-93220634D01*
X131097327Y-93158862D01*
X131097332Y-93158860D01*
X131102799Y-93157004D01*
X131280551Y-93057458D01*
X131437186Y-92927186D01*
X131567458Y-92770551D01*
X131667004Y-92592799D01*
X131668860Y-92587332D01*
X131668862Y-92587327D01*
X131730634Y-92405352D01*
X131730635Y-92405347D01*
X131732490Y-92399883D01*
X131761723Y-92198263D01*
X131763249Y-92140000D01*
X131744608Y-91937126D01*
X131742929Y-91931173D01*
X131690875Y-91746606D01*
X131690874Y-91746604D01*
X131689307Y-91741047D01*
X131680421Y-91723026D01*
X131601756Y-91563510D01*
X131599201Y-91558329D01*
X131580796Y-91533681D01*
X131480758Y-91399715D01*
X131480758Y-91399714D01*
X131477305Y-91395091D01*
X131355332Y-91282340D01*
X131331943Y-91260719D01*
X131331940Y-91260717D01*
X131327703Y-91256800D01*
X131234859Y-91198220D01*
X131160288Y-91151169D01*
X131160283Y-91151167D01*
X131155404Y-91148088D01*
X130966180Y-91072595D01*
X130766366Y-91032849D01*
X130760592Y-91032773D01*
X130760588Y-91032773D01*
X130657452Y-91031424D01*
X130562655Y-91030183D01*
X130556958Y-91031162D01*
X130556957Y-91031162D01*
X130367567Y-91063705D01*
X130361870Y-91064684D01*
X130170734Y-91135198D01*
X130165773Y-91138150D01*
X130165772Y-91138150D01*
X130049112Y-91207556D01*
X129995649Y-91239363D01*
X129842478Y-91373690D01*
X129838911Y-91378215D01*
X129838906Y-91378220D01*
X129772875Y-91461981D01*
X129716351Y-91533681D01*
X129713662Y-91538792D01*
X129713660Y-91538795D01*
X129688340Y-91586921D01*
X129638921Y-91637893D01*
X129569788Y-91654056D01*
X129502892Y-91630277D01*
X129459472Y-91574106D01*
X129453312Y-91503377D01*
X129455667Y-91493682D01*
X129464712Y-91461981D01*
X129469537Y-91448169D01*
X129582284Y-91177059D01*
X129588677Y-91163898D01*
X129604742Y-91135198D01*
X129732101Y-90907675D01*
X129739968Y-90895359D01*
X129912137Y-90657479D01*
X129921388Y-90646147D01*
X130119956Y-90429849D01*
X130130460Y-90419663D01*
X130334913Y-90243247D01*
X130352774Y-90227836D01*
X130364385Y-90218939D01*
X130607436Y-90054179D01*
X130619983Y-90046698D01*
X130880514Y-89911217D01*
X130893854Y-89905237D01*
X131168320Y-89800877D01*
X131182276Y-89796480D01*
X131466978Y-89724646D01*
X131481342Y-89721898D01*
X131599550Y-89706328D01*
X131772463Y-89683553D01*
X131787056Y-89682488D01*
X132045737Y-89678666D01*
X132072356Y-89681108D01*
X132072478Y-89681132D01*
X132081482Y-89682937D01*
X132090424Y-89682160D01*
X132090427Y-89682160D01*
X132127087Y-89678973D01*
X132137998Y-89678500D01*
X132797428Y-89678500D01*
X132865549Y-89698502D01*
G37*
%TD.AperFunction*%
%TA.AperFunction,Conductor*%
G36*
X155660741Y-98652252D02*
G01*
X155675982Y-98662047D01*
X155746352Y-98714786D01*
X155761946Y-98723324D01*
X155882394Y-98768478D01*
X155897649Y-98772105D01*
X155948514Y-98777631D01*
X155955328Y-98778000D01*
X156518488Y-98777999D01*
X156586609Y-98798001D01*
X156633102Y-98851657D01*
X156643206Y-98921930D01*
X156628904Y-98964697D01*
X156626698Y-98968710D01*
X156626697Y-98968714D01*
X156622876Y-98975663D01*
X156617541Y-98996441D01*
X156611142Y-99015131D01*
X156602620Y-99034824D01*
X156597240Y-99068794D01*
X156595394Y-99080448D01*
X156592987Y-99092071D01*
X156581500Y-99136812D01*
X156581500Y-99158259D01*
X156579949Y-99177969D01*
X156576594Y-99199152D01*
X156577565Y-99209419D01*
X156580941Y-99245138D01*
X156581500Y-99256996D01*
X156581500Y-99405119D01*
X156561498Y-99473240D01*
X156542205Y-99492588D01*
X156534000Y-99510691D01*
X156534000Y-99788621D01*
X156516454Y-99852760D01*
X156500106Y-99880403D01*
X156454394Y-100037746D01*
X156453890Y-100044151D01*
X156453889Y-100044156D01*
X156451693Y-100072060D01*
X156451500Y-100074516D01*
X156451500Y-100545484D01*
X156451693Y-100547932D01*
X156451693Y-100547940D01*
X156453883Y-100575756D01*
X156454394Y-100582254D01*
X156490171Y-100705400D01*
X156498726Y-100734847D01*
X156498726Y-100805153D01*
X156454394Y-100957746D01*
X156453890Y-100964151D01*
X156453889Y-100964156D01*
X156453191Y-100973031D01*
X156451500Y-100994516D01*
X156451500Y-101358000D01*
X156431498Y-101426121D01*
X156377842Y-101472614D01*
X156325500Y-101484000D01*
X155511576Y-101484000D01*
X155496781Y-101488344D01*
X155494937Y-101498775D01*
X155496688Y-101508359D01*
X155538357Y-101651784D01*
X155544604Y-101666220D01*
X155619876Y-101793499D01*
X155629516Y-101805926D01*
X155734074Y-101910484D01*
X155746501Y-101920124D01*
X155873780Y-101995396D01*
X155888216Y-102001643D01*
X156031641Y-102043312D01*
X156044244Y-102045614D01*
X156072102Y-102047807D01*
X156077031Y-102048000D01*
X156146550Y-102048000D01*
X156214671Y-102068002D01*
X156261164Y-102121658D01*
X156271268Y-102191932D01*
X156241774Y-102256512D01*
X156235645Y-102263095D01*
X155059960Y-103438780D01*
X154997648Y-103472806D01*
X154926833Y-103467741D01*
X154881462Y-103438470D01*
X154858286Y-103415132D01*
X154714608Y-103323951D01*
X154554300Y-103266868D01*
X154533039Y-103264333D01*
X154467766Y-103236406D01*
X154458862Y-103228314D01*
X153252215Y-102021666D01*
X153218189Y-101959354D01*
X153216095Y-101946618D01*
X153215116Y-101937890D01*
X153214331Y-101930892D01*
X153158368Y-101770189D01*
X153147710Y-101753132D01*
X153120955Y-101710316D01*
X153068192Y-101625879D01*
X153061429Y-101619068D01*
X152953248Y-101510129D01*
X152948286Y-101505132D01*
X152921833Y-101488344D01*
X152857042Y-101447227D01*
X152804608Y-101413951D01*
X152644300Y-101356868D01*
X152475329Y-101336720D01*
X152468326Y-101337456D01*
X152468325Y-101337456D01*
X152357670Y-101349086D01*
X152287832Y-101336314D01*
X152235985Y-101287812D01*
X152218500Y-101223776D01*
X152218500Y-98969993D01*
X152238502Y-98901872D01*
X152292158Y-98855379D01*
X152362432Y-98845275D01*
X152408639Y-98861539D01*
X152476839Y-98901872D01*
X152490403Y-98909894D01*
X152498014Y-98912105D01*
X152498016Y-98912106D01*
X152548995Y-98926916D01*
X152647746Y-98955606D01*
X152654151Y-98956110D01*
X152654156Y-98956111D01*
X152682060Y-98958307D01*
X152682068Y-98958307D01*
X152684516Y-98958500D01*
X153155484Y-98958500D01*
X153157932Y-98958307D01*
X153157940Y-98958307D01*
X153185844Y-98956111D01*
X153185849Y-98956110D01*
X153192254Y-98955606D01*
X153291005Y-98926916D01*
X153341984Y-98912106D01*
X153341986Y-98912105D01*
X153349597Y-98909894D01*
X153363162Y-98901872D01*
X153483808Y-98830522D01*
X153490629Y-98826488D01*
X153501712Y-98815405D01*
X153564024Y-98781379D01*
X153590807Y-98778500D01*
X153715500Y-98778500D01*
X153783621Y-98798502D01*
X153830114Y-98852158D01*
X153841500Y-98904500D01*
X153841500Y-99470187D01*
X153835333Y-99509123D01*
X153824145Y-99543558D01*
X153805635Y-99600525D01*
X153804945Y-99607088D01*
X153804945Y-99607089D01*
X153803731Y-99618641D01*
X153786771Y-99780000D01*
X153787461Y-99786565D01*
X153797164Y-99878876D01*
X153805635Y-99959475D01*
X153807675Y-99965753D01*
X153807675Y-99965754D01*
X153833149Y-100044156D01*
X153861401Y-100131107D01*
X153864704Y-100136829D01*
X153864705Y-100136830D01*
X153895102Y-100189478D01*
X153951633Y-100287393D01*
X153956051Y-100292300D01*
X153956052Y-100292301D01*
X154044544Y-100390581D01*
X154072387Y-100421504D01*
X154077729Y-100425385D01*
X154077731Y-100425387D01*
X154183810Y-100502458D01*
X154218385Y-100527578D01*
X154224413Y-100530262D01*
X154224415Y-100530263D01*
X154377217Y-100598295D01*
X154383248Y-100600980D01*
X154471508Y-100619740D01*
X154553311Y-100637128D01*
X154553315Y-100637128D01*
X154559768Y-100638500D01*
X154740232Y-100638500D01*
X154746685Y-100637128D01*
X154746689Y-100637128D01*
X154828492Y-100619740D01*
X154916752Y-100600980D01*
X154922783Y-100598295D01*
X155075585Y-100530263D01*
X155075587Y-100530262D01*
X155081615Y-100527578D01*
X155116190Y-100502458D01*
X155222269Y-100425387D01*
X155222271Y-100425385D01*
X155227613Y-100421504D01*
X155262650Y-100382592D01*
X155272364Y-100371803D01*
X155332810Y-100334563D01*
X155403794Y-100335915D01*
X155462778Y-100375428D01*
X155491036Y-100440559D01*
X155492000Y-100456113D01*
X155492000Y-100542969D01*
X155492193Y-100547898D01*
X155494386Y-100575756D01*
X155496688Y-100588359D01*
X155539247Y-100734847D01*
X155539247Y-100805153D01*
X155496688Y-100951641D01*
X155495232Y-100959609D01*
X155498052Y-100973031D01*
X155509513Y-100976000D01*
X156007885Y-100976000D01*
X156023124Y-100971525D01*
X156024329Y-100970135D01*
X156026000Y-100962452D01*
X156026000Y-99516442D01*
X156022027Y-99502911D01*
X156014129Y-99501776D01*
X155888216Y-99538357D01*
X155873780Y-99544604D01*
X155746501Y-99619876D01*
X155734074Y-99629516D01*
X155704978Y-99658612D01*
X155642666Y-99692638D01*
X155571851Y-99687573D01*
X155515015Y-99645026D01*
X155494762Y-99600396D01*
X155494365Y-99600525D01*
X155493218Y-99596994D01*
X155493217Y-99596992D01*
X155490396Y-99588307D01*
X155440641Y-99435178D01*
X155438599Y-99428893D01*
X155433273Y-99419667D01*
X155391950Y-99348095D01*
X155348367Y-99272607D01*
X155264621Y-99179597D01*
X155232035Y-99143407D01*
X155232034Y-99143406D01*
X155227613Y-99138496D01*
X155214725Y-99129132D01*
X155210438Y-99126017D01*
X155167085Y-99069794D01*
X155158500Y-99024082D01*
X155158500Y-98901291D01*
X155178502Y-98833170D01*
X155232158Y-98786677D01*
X155270892Y-98776028D01*
X155283086Y-98774703D01*
X155310316Y-98771745D01*
X155446705Y-98720615D01*
X155524852Y-98662047D01*
X155591358Y-98637199D01*
X155660741Y-98652252D01*
G37*
%TD.AperFunction*%
%TA.AperFunction,Conductor*%
G36*
X148363621Y-97088502D02*
G01*
X148410114Y-97142158D01*
X148421500Y-97194500D01*
X148421500Y-97208134D01*
X148428255Y-97270316D01*
X148479385Y-97406705D01*
X148566739Y-97523261D01*
X148683295Y-97610615D01*
X148819684Y-97661745D01*
X148881866Y-97668500D01*
X149245500Y-97668500D01*
X149313621Y-97688502D01*
X149360114Y-97742158D01*
X149371500Y-97794500D01*
X149371500Y-97845119D01*
X149351498Y-97913240D01*
X149332205Y-97932588D01*
X149324000Y-97950691D01*
X149324000Y-98228621D01*
X149306454Y-98292760D01*
X149290106Y-98320403D01*
X149244394Y-98477746D01*
X149243890Y-98484151D01*
X149243889Y-98484156D01*
X149243191Y-98493031D01*
X149241500Y-98514516D01*
X149241500Y-98985484D01*
X149241693Y-98987932D01*
X149241693Y-98987940D01*
X149243622Y-99012444D01*
X149244394Y-99022254D01*
X149290106Y-99179597D01*
X149294141Y-99186419D01*
X149294141Y-99186420D01*
X149306454Y-99207240D01*
X149324000Y-99271379D01*
X149324000Y-99543558D01*
X149327973Y-99557089D01*
X149335871Y-99558224D01*
X149461784Y-99521643D01*
X149476222Y-99515395D01*
X149485372Y-99509984D01*
X149554188Y-99492526D01*
X149613647Y-99509985D01*
X149621531Y-99514647D01*
X149630403Y-99519894D01*
X149638014Y-99522105D01*
X149638016Y-99522106D01*
X149686636Y-99536231D01*
X149787746Y-99565606D01*
X149794151Y-99566110D01*
X149794156Y-99566111D01*
X149822060Y-99568307D01*
X149822068Y-99568307D01*
X149824516Y-99568500D01*
X150235484Y-99568500D01*
X150237932Y-99568307D01*
X150237940Y-99568307D01*
X150265844Y-99566111D01*
X150265849Y-99566110D01*
X150272254Y-99565606D01*
X150373364Y-99536231D01*
X150421984Y-99522106D01*
X150421986Y-99522105D01*
X150429597Y-99519894D01*
X150437205Y-99515395D01*
X150563808Y-99440522D01*
X150570629Y-99436488D01*
X150686405Y-99320712D01*
X150748717Y-99286686D01*
X150819532Y-99291751D01*
X150876368Y-99334298D01*
X150901179Y-99400818D01*
X150901500Y-99409807D01*
X150901500Y-100233060D01*
X150881498Y-100301181D01*
X150827842Y-100347674D01*
X150757568Y-100357778D01*
X150692988Y-100328284D01*
X150678840Y-100313349D01*
X150676488Y-100309371D01*
X150560629Y-100193512D01*
X150485769Y-100149240D01*
X150426420Y-100114141D01*
X150426419Y-100114141D01*
X150419597Y-100110106D01*
X150411986Y-100107895D01*
X150411984Y-100107894D01*
X150338144Y-100086442D01*
X150262254Y-100064394D01*
X150255849Y-100063890D01*
X150255844Y-100063889D01*
X150227940Y-100061693D01*
X150227932Y-100061693D01*
X150225484Y-100061500D01*
X149814516Y-100061500D01*
X149812068Y-100061693D01*
X149812060Y-100061693D01*
X149784156Y-100063889D01*
X149784151Y-100063890D01*
X149777746Y-100064394D01*
X149701856Y-100086442D01*
X149628016Y-100107894D01*
X149628014Y-100107895D01*
X149620403Y-100110106D01*
X149613576Y-100114143D01*
X149613577Y-100114143D01*
X149603647Y-100120015D01*
X149534830Y-100137474D01*
X149475372Y-100120016D01*
X149466222Y-100114605D01*
X149451784Y-100108357D01*
X149331395Y-100073381D01*
X149317295Y-100073421D01*
X149314000Y-100080691D01*
X149314000Y-100358621D01*
X149296454Y-100422760D01*
X149280106Y-100450403D01*
X149234394Y-100607746D01*
X149233890Y-100614151D01*
X149233889Y-100614156D01*
X149233191Y-100623031D01*
X149231500Y-100644516D01*
X149231500Y-101008000D01*
X149211498Y-101076121D01*
X149157842Y-101122614D01*
X149105500Y-101134000D01*
X148291576Y-101134000D01*
X148276781Y-101138344D01*
X148274937Y-101148775D01*
X148276688Y-101158359D01*
X148318357Y-101301784D01*
X148324604Y-101316220D01*
X148399876Y-101443499D01*
X148409516Y-101455926D01*
X148514074Y-101560484D01*
X148526501Y-101570124D01*
X148653780Y-101645396D01*
X148668216Y-101651643D01*
X148778697Y-101683741D01*
X148838533Y-101721954D01*
X148868210Y-101786451D01*
X148858306Y-101856753D01*
X148811967Y-101910541D01*
X148787773Y-101922720D01*
X148671705Y-101966232D01*
X148671704Y-101966233D01*
X148663295Y-101969385D01*
X148546739Y-102056739D01*
X148459385Y-102173295D01*
X148408255Y-102309684D01*
X148401500Y-102371866D01*
X148401500Y-102385500D01*
X148381498Y-102453621D01*
X148327842Y-102500114D01*
X148275500Y-102511500D01*
X144948950Y-102511500D01*
X144880829Y-102491498D01*
X144859855Y-102474595D01*
X143652678Y-101267418D01*
X143618652Y-101205106D01*
X143620776Y-101143170D01*
X143623834Y-101132644D01*
X143625629Y-101126466D01*
X143626194Y-101119294D01*
X143628307Y-101092444D01*
X143628307Y-101092438D01*
X143628500Y-101089989D01*
X143628499Y-100609609D01*
X148275232Y-100609609D01*
X148278052Y-100623031D01*
X148289513Y-100626000D01*
X148787885Y-100626000D01*
X148803124Y-100621525D01*
X148804329Y-100620135D01*
X148806000Y-100612452D01*
X148806000Y-100086442D01*
X148802027Y-100072911D01*
X148794129Y-100071776D01*
X148668216Y-100108357D01*
X148653780Y-100114604D01*
X148526501Y-100189876D01*
X148514074Y-100199516D01*
X148409516Y-100304074D01*
X148399876Y-100316501D01*
X148324604Y-100443780D01*
X148318357Y-100458216D01*
X148276688Y-100601641D01*
X148275232Y-100609609D01*
X143628499Y-100609609D01*
X143628499Y-100590012D01*
X143625629Y-100553534D01*
X143595667Y-100450403D01*
X143582481Y-100405017D01*
X143582480Y-100405015D01*
X143580269Y-100397404D01*
X143570864Y-100381500D01*
X143501540Y-100264280D01*
X143497506Y-100257459D01*
X143382541Y-100142494D01*
X143335383Y-100114605D01*
X143249419Y-100063766D01*
X143249418Y-100063766D01*
X143242596Y-100059731D01*
X143234985Y-100057520D01*
X143234983Y-100057519D01*
X143144250Y-100031159D01*
X143086466Y-100014371D01*
X143080059Y-100013867D01*
X143080055Y-100013866D01*
X143052444Y-100011693D01*
X143052438Y-100011693D01*
X143049989Y-100011500D01*
X142850122Y-100011500D01*
X142650012Y-100011501D01*
X142613534Y-100014371D01*
X142516730Y-100042495D01*
X142465017Y-100057519D01*
X142465015Y-100057520D01*
X142457404Y-100059731D01*
X142403647Y-100091523D01*
X142334834Y-100108982D01*
X142275370Y-100091522D01*
X142229220Y-100064229D01*
X142214783Y-100057981D01*
X142101395Y-100025039D01*
X142087295Y-100025079D01*
X142084000Y-100032349D01*
X142084000Y-100502458D01*
X142078997Y-100537610D01*
X142076166Y-100547353D01*
X142076165Y-100547360D01*
X142074371Y-100553534D01*
X142073867Y-100559941D01*
X142073866Y-100559945D01*
X142071693Y-100587556D01*
X142071500Y-100590011D01*
X142071501Y-100805153D01*
X142071501Y-100968000D01*
X142051499Y-101036120D01*
X141997844Y-101082613D01*
X141945501Y-101094000D01*
X141702000Y-101094000D01*
X141633879Y-101073998D01*
X141587386Y-101020342D01*
X141576000Y-100968000D01*
X141576000Y-100038100D01*
X141572027Y-100024569D01*
X141564128Y-100023434D01*
X141517652Y-100036936D01*
X141446656Y-100036733D01*
X141387040Y-99998179D01*
X141357732Y-99933514D01*
X141356500Y-99915939D01*
X141356500Y-99681675D01*
X141376502Y-99613554D01*
X141430158Y-99567061D01*
X141500432Y-99556957D01*
X141517650Y-99560677D01*
X141603534Y-99585629D01*
X141609941Y-99586133D01*
X141609945Y-99586134D01*
X141637556Y-99588307D01*
X141637562Y-99588307D01*
X141640011Y-99588500D01*
X141839878Y-99588500D01*
X142039988Y-99588499D01*
X142076466Y-99585629D01*
X142176457Y-99556579D01*
X142224983Y-99542481D01*
X142224985Y-99542480D01*
X142232596Y-99540269D01*
X142239421Y-99536233D01*
X142239425Y-99536231D01*
X142285861Y-99508769D01*
X142354677Y-99491309D01*
X142414139Y-99508769D01*
X142460575Y-99536231D01*
X142460579Y-99536233D01*
X142467404Y-99540269D01*
X142475015Y-99542480D01*
X142475017Y-99542481D01*
X142529205Y-99558224D01*
X142623534Y-99585629D01*
X142629941Y-99586133D01*
X142629945Y-99586134D01*
X142657556Y-99588307D01*
X142657562Y-99588307D01*
X142660011Y-99588500D01*
X142859878Y-99588500D01*
X143059988Y-99588499D01*
X143096466Y-99585629D01*
X143196457Y-99556579D01*
X143244983Y-99542481D01*
X143244985Y-99542480D01*
X143252596Y-99540269D01*
X143287049Y-99519894D01*
X143385720Y-99461540D01*
X143392541Y-99457506D01*
X143507506Y-99342541D01*
X143537543Y-99291751D01*
X143586234Y-99209419D01*
X143586234Y-99209418D01*
X143590269Y-99202596D01*
X143607078Y-99144741D01*
X143618841Y-99104250D01*
X143635629Y-99046466D01*
X143636546Y-99034824D01*
X143637809Y-99018775D01*
X148284937Y-99018775D01*
X148286688Y-99028359D01*
X148328357Y-99171784D01*
X148334604Y-99186220D01*
X148409876Y-99313499D01*
X148419516Y-99325926D01*
X148524074Y-99430484D01*
X148536501Y-99440124D01*
X148663780Y-99515396D01*
X148678216Y-99521643D01*
X148798605Y-99556619D01*
X148812705Y-99556579D01*
X148816000Y-99549309D01*
X148816000Y-99022115D01*
X148811525Y-99006876D01*
X148810135Y-99005671D01*
X148802452Y-99004000D01*
X148301576Y-99004000D01*
X148286781Y-99008344D01*
X148284937Y-99018775D01*
X143637809Y-99018775D01*
X143638307Y-99012444D01*
X143638307Y-99012438D01*
X143638500Y-99009989D01*
X143638500Y-98964950D01*
X143658502Y-98896829D01*
X143675405Y-98875855D01*
X144071651Y-98479609D01*
X148285232Y-98479609D01*
X148288052Y-98493031D01*
X148299513Y-98496000D01*
X148797885Y-98496000D01*
X148813124Y-98491525D01*
X148814329Y-98490135D01*
X148816000Y-98482452D01*
X148816000Y-97956442D01*
X148812027Y-97942911D01*
X148804129Y-97941776D01*
X148678216Y-97978357D01*
X148663780Y-97984604D01*
X148536501Y-98059876D01*
X148524074Y-98069516D01*
X148419516Y-98174074D01*
X148409876Y-98186501D01*
X148334604Y-98313780D01*
X148328357Y-98328216D01*
X148286688Y-98471641D01*
X148285232Y-98479609D01*
X144071651Y-98479609D01*
X145445855Y-97105405D01*
X145508167Y-97071379D01*
X145534950Y-97068500D01*
X148295500Y-97068500D01*
X148363621Y-97088502D01*
G37*
%TD.AperFunction*%
%TA.AperFunction,Conductor*%
G36*
X147646121Y-90656002D02*
G01*
X147692614Y-90709658D01*
X147704000Y-90762000D01*
X147704000Y-92208517D01*
X147708064Y-92222359D01*
X147721478Y-92224393D01*
X147728184Y-92223534D01*
X147738262Y-92221392D01*
X147942255Y-92160191D01*
X147951842Y-92156433D01*
X148143095Y-92062739D01*
X148151945Y-92057464D01*
X148325328Y-91933792D01*
X148333200Y-91927139D01*
X148484052Y-91776812D01*
X148490730Y-91768965D01*
X148618022Y-91591819D01*
X148619279Y-91592722D01*
X148666373Y-91549362D01*
X148736311Y-91537145D01*
X148801751Y-91564678D01*
X148829579Y-91596511D01*
X148847310Y-91625445D01*
X148889987Y-91695088D01*
X149036250Y-91863938D01*
X149208126Y-92006632D01*
X149309072Y-92065620D01*
X149357794Y-92117258D01*
X149371500Y-92174407D01*
X149371500Y-94534430D01*
X149352751Y-94598129D01*
X149353253Y-94598378D01*
X149351839Y-94601226D01*
X149351409Y-94602688D01*
X149350123Y-94604683D01*
X149350121Y-94604688D01*
X149346304Y-94610610D01*
X149288103Y-94770516D01*
X149266775Y-94939343D01*
X149269408Y-94966196D01*
X149274017Y-95013205D01*
X149260757Y-95082952D01*
X149211895Y-95134459D01*
X149148618Y-95151500D01*
X148881866Y-95151500D01*
X148819684Y-95158255D01*
X148683295Y-95209385D01*
X148566739Y-95296739D01*
X148479385Y-95413295D01*
X148428255Y-95549684D01*
X148421500Y-95611866D01*
X148421500Y-95625500D01*
X148401498Y-95693621D01*
X148347842Y-95740114D01*
X148295500Y-95751500D01*
X145292059Y-95751500D01*
X145280203Y-95750941D01*
X145272463Y-95749211D01*
X145264537Y-95749460D01*
X145264536Y-95749460D01*
X145201611Y-95751438D01*
X145197653Y-95751500D01*
X145168568Y-95751500D01*
X145164637Y-95751997D01*
X145164630Y-95751997D01*
X145164179Y-95752054D01*
X145152343Y-95752986D01*
X145106169Y-95754438D01*
X145085579Y-95760420D01*
X145066218Y-95764430D01*
X145059230Y-95765312D01*
X145052796Y-95766125D01*
X145052795Y-95766125D01*
X145044936Y-95767118D01*
X145037571Y-95770034D01*
X145037567Y-95770035D01*
X145001979Y-95784126D01*
X144990769Y-95787965D01*
X144946400Y-95800855D01*
X144927935Y-95811775D01*
X144910195Y-95820466D01*
X144890244Y-95828365D01*
X144852874Y-95855516D01*
X144842952Y-95862033D01*
X144810023Y-95881507D01*
X144810019Y-95881510D01*
X144803193Y-95885547D01*
X144788029Y-95900711D01*
X144772996Y-95913551D01*
X144755643Y-95926159D01*
X144728347Y-95959154D01*
X144726198Y-95961752D01*
X144718208Y-95970532D01*
X143753095Y-96935645D01*
X143690783Y-96969671D01*
X143619968Y-96964606D01*
X143563132Y-96922059D01*
X143538321Y-96855539D01*
X143538000Y-96846550D01*
X143538000Y-96682115D01*
X143533525Y-96666876D01*
X143532135Y-96665671D01*
X143524452Y-96664000D01*
X142552115Y-96664000D01*
X142536876Y-96668475D01*
X142535671Y-96669865D01*
X142534000Y-96677548D01*
X142534000Y-97649884D01*
X142538475Y-97665123D01*
X142539865Y-97666328D01*
X142547548Y-97667999D01*
X142716551Y-97667999D01*
X142784672Y-97688001D01*
X142831165Y-97741657D01*
X142841269Y-97811931D01*
X142811775Y-97876511D01*
X142805646Y-97883094D01*
X142794144Y-97894596D01*
X142731832Y-97928622D01*
X142705049Y-97931501D01*
X142660012Y-97931501D01*
X142623534Y-97934371D01*
X142547565Y-97956442D01*
X142475017Y-97977519D01*
X142475015Y-97977520D01*
X142467404Y-97979731D01*
X142460579Y-97983767D01*
X142460575Y-97983769D01*
X142414139Y-98011231D01*
X142345323Y-98028691D01*
X142285861Y-98011231D01*
X142239425Y-97983769D01*
X142239421Y-97983767D01*
X142232596Y-97979731D01*
X142224985Y-97977520D01*
X142224983Y-97977519D01*
X142082644Y-97936166D01*
X142082645Y-97936166D01*
X142076466Y-97934371D01*
X142070059Y-97933867D01*
X142070055Y-97933866D01*
X142042444Y-97931693D01*
X142042438Y-97931693D01*
X142039989Y-97931500D01*
X141840122Y-97931500D01*
X141640012Y-97931501D01*
X141603534Y-97934371D01*
X141517652Y-97959322D01*
X141446657Y-97959119D01*
X141387041Y-97920565D01*
X141357732Y-97855901D01*
X141356500Y-97838325D01*
X141356500Y-97794000D01*
X141376502Y-97725879D01*
X141430158Y-97679386D01*
X141482500Y-97668000D01*
X142007885Y-97668000D01*
X142023124Y-97663525D01*
X142024329Y-97662135D01*
X142026000Y-97654452D01*
X142026000Y-96137885D01*
X142534000Y-96137885D01*
X142538475Y-96153124D01*
X142539865Y-96154329D01*
X142547548Y-96156000D01*
X143519884Y-96156000D01*
X143535123Y-96151525D01*
X143536328Y-96150135D01*
X143537999Y-96142452D01*
X143537999Y-95615331D01*
X143537629Y-95608510D01*
X143532105Y-95557648D01*
X143528479Y-95542396D01*
X143483324Y-95421946D01*
X143474786Y-95406351D01*
X143398285Y-95304276D01*
X143385724Y-95291715D01*
X143283649Y-95215214D01*
X143268054Y-95206676D01*
X143147606Y-95161522D01*
X143132351Y-95157895D01*
X143081486Y-95152369D01*
X143074672Y-95152000D01*
X142552115Y-95152000D01*
X142536876Y-95156475D01*
X142535671Y-95157865D01*
X142534000Y-95165548D01*
X142534000Y-96137885D01*
X142026000Y-96137885D01*
X142026000Y-95170116D01*
X142021525Y-95154877D01*
X142020135Y-95153672D01*
X142012452Y-95152001D01*
X141994870Y-95152001D01*
X141926749Y-95131999D01*
X141880256Y-95078343D01*
X141870152Y-95008069D01*
X141899646Y-94943489D01*
X141905775Y-94936906D01*
X144576512Y-92266169D01*
X144638824Y-92232143D01*
X144690728Y-92231794D01*
X144743526Y-92242536D01*
X144743534Y-92242537D01*
X144748597Y-92243567D01*
X144873062Y-92248131D01*
X144966673Y-92251564D01*
X144966677Y-92251564D01*
X144971837Y-92251753D01*
X144976957Y-92251097D01*
X144976959Y-92251097D01*
X145188288Y-92224025D01*
X145188289Y-92224025D01*
X145193416Y-92223368D01*
X145198376Y-92221880D01*
X145402429Y-92160661D01*
X145402434Y-92160659D01*
X145407384Y-92159174D01*
X145607994Y-92060896D01*
X145789860Y-91931173D01*
X145948096Y-91773489D01*
X145967490Y-91746500D01*
X146078453Y-91592077D01*
X146079640Y-91592930D01*
X146126960Y-91549362D01*
X146196897Y-91537145D01*
X146262338Y-91564678D01*
X146290166Y-91596511D01*
X146347694Y-91690388D01*
X146353777Y-91698699D01*
X146493213Y-91859667D01*
X146500580Y-91866883D01*
X146664434Y-92002916D01*
X146672881Y-92008831D01*
X146856756Y-92116279D01*
X146866042Y-92120729D01*
X147065001Y-92196703D01*
X147074899Y-92199579D01*
X147178250Y-92220606D01*
X147192299Y-92219410D01*
X147196000Y-92209065D01*
X147196000Y-90762000D01*
X147216002Y-90693879D01*
X147269658Y-90647386D01*
X147322000Y-90636000D01*
X147578000Y-90636000D01*
X147646121Y-90656002D01*
G37*
%TD.AperFunction*%
%TA.AperFunction,Conductor*%
G36*
X153116121Y-96198502D02*
G01*
X153162614Y-96252158D01*
X153174000Y-96304500D01*
X153174000Y-97255500D01*
X153153998Y-97323621D01*
X153100342Y-97370114D01*
X153048000Y-97381500D01*
X152792000Y-97381500D01*
X152723879Y-97361498D01*
X152677386Y-97307842D01*
X152666000Y-97255500D01*
X152666000Y-96304500D01*
X152686002Y-96236379D01*
X152739658Y-96189886D01*
X152792000Y-96178500D01*
X153048000Y-96178500D01*
X153116121Y-96198502D01*
G37*
%TD.AperFunction*%
%TA.AperFunction,Conductor*%
G36*
X151342026Y-91565144D02*
G01*
X151369875Y-91596994D01*
X151385852Y-91623066D01*
X151429987Y-91695088D01*
X151576250Y-91863938D01*
X151748126Y-92006632D01*
X151941000Y-92119338D01*
X152149692Y-92199030D01*
X152154760Y-92200061D01*
X152154763Y-92200062D01*
X152244387Y-92218296D01*
X152368597Y-92243567D01*
X152373772Y-92243757D01*
X152373774Y-92243757D01*
X152586673Y-92251564D01*
X152586677Y-92251564D01*
X152591837Y-92251753D01*
X152596957Y-92251097D01*
X152596959Y-92251097D01*
X152669961Y-92241745D01*
X152813416Y-92223368D01*
X152818370Y-92221882D01*
X152818378Y-92221880D01*
X152887023Y-92201285D01*
X152958018Y-92200867D01*
X153012326Y-92232875D01*
X153995685Y-93216234D01*
X154006552Y-93228625D01*
X154026013Y-93253987D01*
X154057925Y-93278474D01*
X154057928Y-93278477D01*
X154153124Y-93351524D01*
X154160754Y-93354684D01*
X154160755Y-93354685D01*
X154173865Y-93360115D01*
X154301150Y-93412838D01*
X154420115Y-93428500D01*
X154420120Y-93428500D01*
X154420129Y-93428501D01*
X154451812Y-93432672D01*
X154460000Y-93433750D01*
X154491693Y-93429578D01*
X154508136Y-93428500D01*
X160795761Y-93428500D01*
X160863882Y-93448502D01*
X160884856Y-93465405D01*
X161527250Y-94107799D01*
X161561276Y-94170111D01*
X161556211Y-94240926D01*
X161513664Y-94297762D01*
X161447144Y-94322573D01*
X161438155Y-94322894D01*
X161357369Y-94322894D01*
X161354921Y-94323087D01*
X161354913Y-94323087D01*
X161327009Y-94325283D01*
X161327004Y-94325284D01*
X161320599Y-94325788D01*
X161240241Y-94349134D01*
X161170869Y-94369288D01*
X161170867Y-94369289D01*
X161163256Y-94371500D01*
X161022224Y-94454906D01*
X161019920Y-94457210D01*
X160955768Y-94482400D01*
X160944624Y-94482894D01*
X159696344Y-94482894D01*
X159628223Y-94462892D01*
X159607248Y-94445989D01*
X159402186Y-94240926D01*
X159173651Y-94012391D01*
X159165663Y-94003612D01*
X159161416Y-93996920D01*
X159109741Y-93948394D01*
X159106900Y-93945640D01*
X159086333Y-93925073D01*
X159082826Y-93922353D01*
X159073804Y-93914647D01*
X159062794Y-93904308D01*
X159040133Y-93883028D01*
X159033181Y-93879206D01*
X159021342Y-93872697D01*
X159004818Y-93861843D01*
X158994132Y-93853555D01*
X158987868Y-93848696D01*
X158980596Y-93845549D01*
X158980594Y-93845548D01*
X158945465Y-93830346D01*
X158934805Y-93825124D01*
X158901284Y-93806695D01*
X158901282Y-93806694D01*
X158894337Y-93802876D01*
X158873559Y-93797541D01*
X158854869Y-93791142D01*
X158835176Y-93782620D01*
X158789552Y-93775394D01*
X158777929Y-93772987D01*
X158743661Y-93764189D01*
X158733188Y-93761500D01*
X158711741Y-93761500D01*
X158692031Y-93759949D01*
X158678677Y-93757834D01*
X158670848Y-93756594D01*
X158624859Y-93760941D01*
X158613004Y-93761500D01*
X152612056Y-93761500D01*
X152600200Y-93760941D01*
X152600197Y-93760941D01*
X152592463Y-93759212D01*
X152537446Y-93760941D01*
X152521631Y-93761438D01*
X152517673Y-93761500D01*
X152488568Y-93761500D01*
X152484168Y-93762056D01*
X152472336Y-93762988D01*
X152426169Y-93764438D01*
X152405579Y-93770420D01*
X152386218Y-93774430D01*
X152379230Y-93775312D01*
X152372796Y-93776125D01*
X152372795Y-93776125D01*
X152364936Y-93777118D01*
X152357571Y-93780034D01*
X152357567Y-93780035D01*
X152321979Y-93794126D01*
X152310769Y-93797965D01*
X152266400Y-93810855D01*
X152247935Y-93821775D01*
X152230195Y-93830466D01*
X152210244Y-93838365D01*
X152172874Y-93865516D01*
X152162952Y-93872033D01*
X152130023Y-93891507D01*
X152130019Y-93891510D01*
X152123193Y-93895547D01*
X152108029Y-93910711D01*
X152092996Y-93923551D01*
X152075643Y-93936159D01*
X152065521Y-93948395D01*
X152046198Y-93971752D01*
X152038208Y-93980532D01*
X151152395Y-94866345D01*
X151143615Y-94874335D01*
X151143613Y-94874337D01*
X151136920Y-94878584D01*
X151131494Y-94884362D01*
X151131493Y-94884363D01*
X151088396Y-94930257D01*
X151085641Y-94933099D01*
X151065073Y-94953667D01*
X151062356Y-94957170D01*
X151054648Y-94966195D01*
X151023028Y-94999867D01*
X151019651Y-95006011D01*
X150963751Y-95049116D01*
X150893014Y-95055191D01*
X150830223Y-95022060D01*
X150795311Y-94960239D01*
X150792822Y-94945746D01*
X150775116Y-94787891D01*
X150774331Y-94780892D01*
X150767004Y-94759850D01*
X150731337Y-94657432D01*
X150718368Y-94620189D01*
X150714636Y-94614217D01*
X150714631Y-94614206D01*
X150707646Y-94603028D01*
X150688500Y-94536259D01*
X150688500Y-92125430D01*
X150708502Y-92057309D01*
X150741331Y-92022851D01*
X150869860Y-91931173D01*
X151028096Y-91773489D01*
X151047490Y-91746500D01*
X151158453Y-91592077D01*
X151159776Y-91593028D01*
X151206645Y-91549857D01*
X151276580Y-91537625D01*
X151342026Y-91565144D01*
G37*
%TD.AperFunction*%
%TA.AperFunction,Conductor*%
G36*
X138458742Y-89698502D02*
G01*
X138505235Y-89752158D01*
X138515339Y-89822432D01*
X138508603Y-89848729D01*
X138481029Y-89922282D01*
X138481027Y-89922288D01*
X138478255Y-89929684D01*
X138471500Y-89991866D01*
X138471500Y-90231399D01*
X138451498Y-90299520D01*
X138436972Y-90318052D01*
X138396871Y-90360383D01*
X138394494Y-90362825D01*
X137513095Y-91244224D01*
X137450783Y-91278250D01*
X137379968Y-91273185D01*
X137323132Y-91230638D01*
X137298321Y-91164118D01*
X137298000Y-91155129D01*
X137298000Y-91152115D01*
X137293525Y-91136876D01*
X137292135Y-91135671D01*
X137284452Y-91134000D01*
X136224500Y-91134000D01*
X136156379Y-91113998D01*
X136109886Y-91060342D01*
X136098500Y-91008000D01*
X136098500Y-90752000D01*
X136118502Y-90683879D01*
X136172158Y-90637386D01*
X136224500Y-90626000D01*
X137279885Y-90626000D01*
X137295124Y-90621525D01*
X137296329Y-90620135D01*
X137298000Y-90612452D01*
X137298000Y-90578734D01*
X137297663Y-90572218D01*
X137288196Y-90480979D01*
X137285303Y-90467583D01*
X137236170Y-90320313D01*
X137229996Y-90307134D01*
X137148530Y-90175486D01*
X137139494Y-90164085D01*
X137029920Y-90054702D01*
X137018509Y-90045690D01*
X136886709Y-89964447D01*
X136873532Y-89958303D01*
X136770392Y-89924093D01*
X136712032Y-89883663D01*
X136684795Y-89818098D01*
X136697328Y-89748217D01*
X136745653Y-89696205D01*
X136810059Y-89678500D01*
X138390621Y-89678500D01*
X138458742Y-89698502D01*
G37*
%TD.AperFunction*%
%TA.AperFunction,Conductor*%
G36*
X135962885Y-89698502D02*
G01*
X136009378Y-89752158D01*
X136019482Y-89822432D01*
X135989988Y-89887012D01*
X135934640Y-89924024D01*
X135830313Y-89958830D01*
X135817134Y-89965004D01*
X135685486Y-90046470D01*
X135674085Y-90055506D01*
X135654467Y-90075158D01*
X135592184Y-90109237D01*
X135521364Y-90104234D01*
X135476277Y-90075314D01*
X135455234Y-90054308D01*
X135450053Y-90049136D01*
X135305692Y-89960151D01*
X135196982Y-89924093D01*
X135138623Y-89883662D01*
X135111386Y-89818098D01*
X135123920Y-89748216D01*
X135172245Y-89696204D01*
X135236650Y-89678500D01*
X135894764Y-89678500D01*
X135962885Y-89698502D01*
G37*
%TD.AperFunction*%
%TD*%
M02*
