M48
; DRILL file {KiCad (6.0.8)} date Wed Oct 12 16:14:54 2022
; FORMAT={-:-/ absolute / metric / decimal}
; #@! TF.CreationDate,2022-10-12T16:14:54+08:00
; #@! TF.GenerationSoftware,Kicad,Pcbnew,(6.0.8)
; #@! TF.FileFunction,MixedPlating,1,2
FMAT,2
METRIC
; #@! TA.AperFunction,Plated,PTH,ViaDrill
T1C0.200
; #@! TA.AperFunction,Plated,PTH,ViaDrill
T2C0.300
; #@! TA.AperFunction,Plated,PTH,ViaDrill
T3C0.500
; #@! TA.AperFunction,Plated,PTH,ComponentDrill
T4C0.600
; #@! TA.AperFunction,Plated,PTH,ComponentDrill
T5C1.000
; #@! TA.AperFunction,Plated,PTH,ComponentDrill
T6C1.200
%
G90
G05
T1
X150.01Y-104.41
X150.03Y-94.95
X152.47Y-102.1
X154.38Y-104.01
X158.28Y-104.01
X159.66Y-97.15
X160.29Y-104.43
X160.3Y-102.92
X160.3Y-103.68
X161.12Y-100.76
X161.57Y-100.33
X161.99Y-99.89
X162.47Y-99.46
X162.88Y-99.0
X163.452Y-96.11
X165.84Y-101.81
X168.64Y-100.99
T2
X138.92Y-106.13
X154.395Y-105.04
X154.65Y-99.78
X158.76Y-96.67
T3
X140.598Y-101.938
X143.88Y-99.82
X150.79Y-99.82
X152.765Y-99.825
X154.96Y-101.94
X161.08Y-105.92
X161.17Y-94.03
X162.53Y-105.78
X166.16Y-93.11
X166.98Y-96.07
T5
X139.8Y-108.6
X139.83Y-90.89
X142.34Y-108.6
X142.37Y-90.89
X144.88Y-108.6
X144.91Y-90.89
X147.42Y-108.6
X147.45Y-90.89
X149.96Y-108.6
X149.99Y-90.89
X152.5Y-108.6
X152.53Y-90.89
X155.04Y-108.6
X155.07Y-90.89
X157.58Y-108.6
X157.61Y-90.89
X160.12Y-108.6
X160.15Y-90.89
X162.66Y-108.6
X162.69Y-90.89
X165.2Y-108.6
X165.23Y-90.89
X167.74Y-108.6
X167.77Y-90.89
X170.28Y-108.6
X170.31Y-90.89
X172.82Y-108.6
X172.85Y-90.89
X175.42Y-95.91
X175.42Y-98.45
X175.42Y-100.99
X175.42Y-103.53
T6
X130.61Y-107.27
X130.65Y-92.14
X175.59Y-107.5
X175.62Y-91.96
T4
G00X131.98Y-95.41
M15
G01X131.18Y-95.41
M16
G05
G00X131.98Y-104.05
M15
G01X131.18Y-104.05
M16
G05
G00X135.78Y-95.41
M15
G01X134.98Y-95.41
M16
G05
G00X135.78Y-104.05
M15
G01X134.98Y-104.05
M16
G05
T0
M30
