%TF.GenerationSoftware,KiCad,Pcbnew,(6.0.8)*%
%TF.CreationDate,2022-10-17T00:22:00+08:00*%
%TF.ProjectId,UINIO-MCU-STM32L051K8,55494e49-4f2d-44d4-9355-2d53544d3332,rev?*%
%TF.SameCoordinates,Original*%
%TF.FileFunction,Legend,Bot*%
%TF.FilePolarity,Positive*%
%FSLAX46Y46*%
G04 Gerber Fmt 4.6, Leading zero omitted, Abs format (unit mm)*
G04 Created by KiCad (PCBNEW (6.0.8)) date 2022-10-17 00:22:00*
%MOMM*%
%LPD*%
G01*
G04 APERTURE LIST*
G04 Aperture macros list*
%AMRoundRect*
0 Rectangle with rounded corners*
0 $1 Rounding radius*
0 $2 $3 $4 $5 $6 $7 $8 $9 X,Y pos of 4 corners*
0 Add a 4 corners polygon primitive as box body*
4,1,4,$2,$3,$4,$5,$6,$7,$8,$9,$2,$3,0*
0 Add four circle primitives for the rounded corners*
1,1,$1+$1,$2,$3*
1,1,$1+$1,$4,$5*
1,1,$1+$1,$6,$7*
1,1,$1+$1,$8,$9*
0 Add four rect primitives between the rounded corners*
20,1,$1+$1,$2,$3,$4,$5,0*
20,1,$1+$1,$4,$5,$6,$7,0*
20,1,$1+$1,$6,$7,$8,$9,0*
20,1,$1+$1,$8,$9,$2,$3,0*%
G04 Aperture macros list end*
%ADD10C,0.100000*%
%ADD11C,0.200000*%
%ADD12C,0.300000*%
%ADD13C,0.120000*%
%ADD14C,0.152000*%
%ADD15C,1.200000*%
%ADD16R,1.700000X1.700000*%
%ADD17O,1.700000X1.700000*%
%ADD18O,1.800000X1.000000*%
%ADD19O,0.630000X2.250000*%
%ADD20RoundRect,0.140000X0.170000X-0.140000X0.170000X0.140000X-0.170000X0.140000X-0.170000X-0.140000X0*%
G04 APERTURE END LIST*
D10*
X150373333Y-107036666D02*
X151073333Y-107036666D01*
X151073333Y-106770000D01*
X151040000Y-106703333D01*
X151006666Y-106670000D01*
X150940000Y-106636666D01*
X150840000Y-106636666D01*
X150773333Y-106670000D01*
X150740000Y-106703333D01*
X150706666Y-106770000D01*
X150706666Y-107036666D01*
X150740000Y-106103333D02*
X150706666Y-106003333D01*
X150673333Y-105970000D01*
X150606666Y-105936666D01*
X150506666Y-105936666D01*
X150440000Y-105970000D01*
X150406666Y-106003333D01*
X150373333Y-106070000D01*
X150373333Y-106336666D01*
X151073333Y-106336666D01*
X151073333Y-106103333D01*
X151040000Y-106036666D01*
X151006666Y-106003333D01*
X150940000Y-105970000D01*
X150873333Y-105970000D01*
X150806666Y-106003333D01*
X150773333Y-106036666D01*
X150740000Y-106103333D01*
X150740000Y-106336666D01*
X151073333Y-105703333D02*
X151073333Y-105236666D01*
X150373333Y-105536666D01*
X131614285Y-100378571D02*
X131614285Y-100978571D01*
X131842857Y-100978571D01*
X131900000Y-100950000D01*
X131928571Y-100921428D01*
X131957142Y-100864285D01*
X131957142Y-100778571D01*
X131928571Y-100721428D01*
X131900000Y-100692857D01*
X131842857Y-100664285D01*
X131614285Y-100664285D01*
X132185714Y-100550000D02*
X132471428Y-100550000D01*
X132128571Y-100378571D02*
X132328571Y-100978571D01*
X132528571Y-100378571D01*
X133042857Y-100378571D02*
X132700000Y-100378571D01*
X132871428Y-100378571D02*
X132871428Y-100978571D01*
X132814285Y-100892857D01*
X132757142Y-100835714D01*
X132700000Y-100807142D01*
X133557142Y-100778571D02*
X133557142Y-100378571D01*
X133414285Y-101007142D02*
X133271428Y-100578571D01*
X133642857Y-100578571D01*
D11*
X172772857Y-108570000D02*
X172044285Y-108570000D01*
X171958571Y-108527142D01*
X171915714Y-108484285D01*
X171872857Y-108398571D01*
X171872857Y-108227142D01*
X171915714Y-108141428D01*
X171958571Y-108098571D01*
X172044285Y-108055714D01*
X172772857Y-108055714D01*
X171872857Y-107627142D02*
X172772857Y-107627142D01*
X171872857Y-107198571D02*
X172772857Y-107198571D01*
X171872857Y-106684285D01*
X172772857Y-106684285D01*
X171872857Y-106255714D02*
X172772857Y-106255714D01*
X172772857Y-105655714D02*
X172772857Y-105484285D01*
X172730000Y-105398571D01*
X172644285Y-105312857D01*
X172472857Y-105270000D01*
X172172857Y-105270000D01*
X172001428Y-105312857D01*
X171915714Y-105398571D01*
X171872857Y-105484285D01*
X171872857Y-105655714D01*
X171915714Y-105741428D01*
X172001428Y-105827142D01*
X172172857Y-105870000D01*
X172472857Y-105870000D01*
X172644285Y-105827142D01*
X172730000Y-105741428D01*
X172772857Y-105655714D01*
X172215714Y-104884285D02*
X172215714Y-104198571D01*
X171872857Y-103770000D02*
X172772857Y-103770000D01*
X172130000Y-103470000D01*
X172772857Y-103170000D01*
X171872857Y-103170000D01*
X171958571Y-102227142D02*
X171915714Y-102270000D01*
X171872857Y-102398571D01*
X171872857Y-102484285D01*
X171915714Y-102612857D01*
X172001428Y-102698571D01*
X172087142Y-102741428D01*
X172258571Y-102784285D01*
X172387142Y-102784285D01*
X172558571Y-102741428D01*
X172644285Y-102698571D01*
X172730000Y-102612857D01*
X172772857Y-102484285D01*
X172772857Y-102398571D01*
X172730000Y-102270000D01*
X172687142Y-102227142D01*
X172772857Y-101841428D02*
X172044285Y-101841428D01*
X171958571Y-101798571D01*
X171915714Y-101755714D01*
X171872857Y-101670000D01*
X171872857Y-101498571D01*
X171915714Y-101412857D01*
X171958571Y-101370000D01*
X172044285Y-101327142D01*
X172772857Y-101327142D01*
X172215714Y-100898571D02*
X172215714Y-100212857D01*
X171915714Y-99827142D02*
X171872857Y-99698571D01*
X171872857Y-99484285D01*
X171915714Y-99398571D01*
X171958571Y-99355714D01*
X172044285Y-99312857D01*
X172130000Y-99312857D01*
X172215714Y-99355714D01*
X172258571Y-99398571D01*
X172301428Y-99484285D01*
X172344285Y-99655714D01*
X172387142Y-99741428D01*
X172430000Y-99784285D01*
X172515714Y-99827142D01*
X172601428Y-99827142D01*
X172687142Y-99784285D01*
X172730000Y-99741428D01*
X172772857Y-99655714D01*
X172772857Y-99441428D01*
X172730000Y-99312857D01*
X172772857Y-99055714D02*
X172772857Y-98541428D01*
X171872857Y-98798571D02*
X172772857Y-98798571D01*
X171872857Y-98241428D02*
X172772857Y-98241428D01*
X172130000Y-97941428D01*
X172772857Y-97641428D01*
X171872857Y-97641428D01*
X172772857Y-97298571D02*
X172772857Y-96741428D01*
X172430000Y-97041428D01*
X172430000Y-96912857D01*
X172387142Y-96827142D01*
X172344285Y-96784285D01*
X172258571Y-96741428D01*
X172044285Y-96741428D01*
X171958571Y-96784285D01*
X171915714Y-96827142D01*
X171872857Y-96912857D01*
X171872857Y-97170000D01*
X171915714Y-97255714D01*
X171958571Y-97298571D01*
X172687142Y-96398571D02*
X172730000Y-96355714D01*
X172772857Y-96270000D01*
X172772857Y-96055714D01*
X172730000Y-95970000D01*
X172687142Y-95927142D01*
X172601428Y-95884285D01*
X172515714Y-95884285D01*
X172387142Y-95927142D01*
X171872857Y-96441428D01*
X171872857Y-95884285D01*
X171872857Y-95070000D02*
X171872857Y-95498571D01*
X172772857Y-95498571D01*
X172772857Y-94598571D02*
X172772857Y-94512857D01*
X172730000Y-94427142D01*
X172687142Y-94384285D01*
X172601428Y-94341428D01*
X172430000Y-94298571D01*
X172215714Y-94298571D01*
X172044285Y-94341428D01*
X171958571Y-94384285D01*
X171915714Y-94427142D01*
X171872857Y-94512857D01*
X171872857Y-94598571D01*
X171915714Y-94684285D01*
X171958571Y-94727142D01*
X172044285Y-94770000D01*
X172215714Y-94812857D01*
X172430000Y-94812857D01*
X172601428Y-94770000D01*
X172687142Y-94727142D01*
X172730000Y-94684285D01*
X172772857Y-94598571D01*
X172772857Y-93484285D02*
X172772857Y-93912857D01*
X172344285Y-93955714D01*
X172387142Y-93912857D01*
X172430000Y-93827142D01*
X172430000Y-93612857D01*
X172387142Y-93527142D01*
X172344285Y-93484285D01*
X172258571Y-93441428D01*
X172044285Y-93441428D01*
X171958571Y-93484285D01*
X171915714Y-93527142D01*
X171872857Y-93612857D01*
X171872857Y-93827142D01*
X171915714Y-93912857D01*
X171958571Y-93955714D01*
X171872857Y-92584285D02*
X171872857Y-93098571D01*
X171872857Y-92841428D02*
X172772857Y-92841428D01*
X172644285Y-92927142D01*
X172558571Y-93012857D01*
X172515714Y-93098571D01*
X171872857Y-92198571D02*
X172772857Y-92198571D01*
X171872857Y-91684285D02*
X172387142Y-92070000D01*
X172772857Y-91684285D02*
X172258571Y-92198571D01*
X172387142Y-91170000D02*
X172430000Y-91255714D01*
X172472857Y-91298571D01*
X172558571Y-91341428D01*
X172601428Y-91341428D01*
X172687142Y-91298571D01*
X172730000Y-91255714D01*
X172772857Y-91170000D01*
X172772857Y-90998571D01*
X172730000Y-90912857D01*
X172687142Y-90870000D01*
X172601428Y-90827142D01*
X172558571Y-90827142D01*
X172472857Y-90870000D01*
X172430000Y-90912857D01*
X172387142Y-90998571D01*
X172387142Y-91170000D01*
X172344285Y-91255714D01*
X172301428Y-91298571D01*
X172215714Y-91341428D01*
X172044285Y-91341428D01*
X171958571Y-91298571D01*
X171915714Y-91255714D01*
X171872857Y-91170000D01*
X171872857Y-90998571D01*
X171915714Y-90912857D01*
X171958571Y-90870000D01*
X172044285Y-90827142D01*
X172215714Y-90827142D01*
X172301428Y-90870000D01*
X172344285Y-90912857D01*
X172387142Y-90998571D01*
D10*
X142733333Y-106956666D02*
X143433333Y-106956666D01*
X143433333Y-106690000D01*
X143400000Y-106623333D01*
X143366666Y-106590000D01*
X143300000Y-106556666D01*
X143200000Y-106556666D01*
X143133333Y-106590000D01*
X143100000Y-106623333D01*
X143066666Y-106690000D01*
X143066666Y-106956666D01*
X143100000Y-106023333D02*
X143066666Y-105923333D01*
X143033333Y-105890000D01*
X142966666Y-105856666D01*
X142866666Y-105856666D01*
X142800000Y-105890000D01*
X142766666Y-105923333D01*
X142733333Y-105990000D01*
X142733333Y-106256666D01*
X143433333Y-106256666D01*
X143433333Y-106023333D01*
X143400000Y-105956666D01*
X143366666Y-105923333D01*
X143300000Y-105890000D01*
X143233333Y-105890000D01*
X143166666Y-105923333D01*
X143133333Y-105956666D01*
X143100000Y-106023333D01*
X143100000Y-106256666D01*
X143200000Y-105256666D02*
X142733333Y-105256666D01*
X143466666Y-105423333D02*
X142966666Y-105590000D01*
X142966666Y-105156666D01*
X132593333Y-107036666D02*
X133293333Y-107036666D01*
X133293333Y-106770000D01*
X133260000Y-106703333D01*
X133226666Y-106670000D01*
X133160000Y-106636666D01*
X133060000Y-106636666D01*
X132993333Y-106670000D01*
X132960000Y-106703333D01*
X132926666Y-106770000D01*
X132926666Y-107036666D01*
X132960000Y-106103333D02*
X132926666Y-106003333D01*
X132893333Y-105970000D01*
X132826666Y-105936666D01*
X132726666Y-105936666D01*
X132660000Y-105970000D01*
X132626666Y-106003333D01*
X132593333Y-106070000D01*
X132593333Y-106336666D01*
X133293333Y-106336666D01*
X133293333Y-106103333D01*
X133260000Y-106036666D01*
X133226666Y-106003333D01*
X133160000Y-105970000D01*
X133093333Y-105970000D01*
X133026666Y-106003333D01*
X132993333Y-106036666D01*
X132960000Y-106103333D01*
X132960000Y-106336666D01*
X133293333Y-105503333D02*
X133293333Y-105436666D01*
X133260000Y-105370000D01*
X133226666Y-105336666D01*
X133160000Y-105303333D01*
X133026666Y-105270000D01*
X132860000Y-105270000D01*
X132726666Y-105303333D01*
X132660000Y-105336666D01*
X132626666Y-105370000D01*
X132593333Y-105436666D01*
X132593333Y-105503333D01*
X132626666Y-105570000D01*
X132660000Y-105603333D01*
X132726666Y-105636666D01*
X132860000Y-105670000D01*
X133026666Y-105670000D01*
X133160000Y-105636666D01*
X133226666Y-105603333D01*
X133260000Y-105570000D01*
X133293333Y-105503333D01*
X137733333Y-94730000D02*
X138433333Y-94730000D01*
X138433333Y-94463333D01*
X138400000Y-94396666D01*
X138366666Y-94363333D01*
X138300000Y-94330000D01*
X138200000Y-94330000D01*
X138133333Y-94363333D01*
X138100000Y-94396666D01*
X138066666Y-94463333D01*
X138066666Y-94730000D01*
X137933333Y-94063333D02*
X137933333Y-93730000D01*
X137733333Y-94130000D02*
X138433333Y-93896666D01*
X137733333Y-93663333D01*
X137733333Y-93063333D02*
X137733333Y-93463333D01*
X137733333Y-93263333D02*
X138433333Y-93263333D01*
X138333333Y-93330000D01*
X138266666Y-93396666D01*
X138233333Y-93463333D01*
X137733333Y-92396666D02*
X137733333Y-92796666D01*
X137733333Y-92596666D02*
X138433333Y-92596666D01*
X138333333Y-92663333D01*
X138266666Y-92730000D01*
X138233333Y-92796666D01*
X140243333Y-107036666D02*
X140943333Y-107036666D01*
X140943333Y-106770000D01*
X140910000Y-106703333D01*
X140876666Y-106670000D01*
X140810000Y-106636666D01*
X140710000Y-106636666D01*
X140643333Y-106670000D01*
X140610000Y-106703333D01*
X140576666Y-106770000D01*
X140576666Y-107036666D01*
X140610000Y-106103333D02*
X140576666Y-106003333D01*
X140543333Y-105970000D01*
X140476666Y-105936666D01*
X140376666Y-105936666D01*
X140310000Y-105970000D01*
X140276666Y-106003333D01*
X140243333Y-106070000D01*
X140243333Y-106336666D01*
X140943333Y-106336666D01*
X140943333Y-106103333D01*
X140910000Y-106036666D01*
X140876666Y-106003333D01*
X140810000Y-105970000D01*
X140743333Y-105970000D01*
X140676666Y-106003333D01*
X140643333Y-106036666D01*
X140610000Y-106103333D01*
X140610000Y-106336666D01*
X140943333Y-105703333D02*
X140943333Y-105270000D01*
X140676666Y-105503333D01*
X140676666Y-105403333D01*
X140643333Y-105336666D01*
X140610000Y-105303333D01*
X140543333Y-105270000D01*
X140376666Y-105270000D01*
X140310000Y-105303333D01*
X140276666Y-105336666D01*
X140243333Y-105403333D01*
X140243333Y-105603333D01*
X140276666Y-105670000D01*
X140310000Y-105703333D01*
X155453333Y-107040000D02*
X156153333Y-107040000D01*
X155453333Y-106640000D01*
X156153333Y-106640000D01*
X155453333Y-105906666D02*
X155786666Y-106140000D01*
X155453333Y-106306666D02*
X156153333Y-106306666D01*
X156153333Y-106040000D01*
X156120000Y-105973333D01*
X156086666Y-105940000D01*
X156020000Y-105906666D01*
X155920000Y-105906666D01*
X155853333Y-105940000D01*
X155820000Y-105973333D01*
X155786666Y-106040000D01*
X155786666Y-106306666D01*
X155486666Y-105640000D02*
X155453333Y-105540000D01*
X155453333Y-105373333D01*
X155486666Y-105306666D01*
X155520000Y-105273333D01*
X155586666Y-105240000D01*
X155653333Y-105240000D01*
X155720000Y-105273333D01*
X155753333Y-105306666D01*
X155786666Y-105373333D01*
X155820000Y-105506666D01*
X155853333Y-105573333D01*
X155886666Y-105606666D01*
X155953333Y-105640000D01*
X156020000Y-105640000D01*
X156086666Y-105606666D01*
X156120000Y-105573333D01*
X156153333Y-105506666D01*
X156153333Y-105340000D01*
X156120000Y-105240000D01*
X156153333Y-105040000D02*
X156153333Y-104640000D01*
X155453333Y-104840000D02*
X156153333Y-104840000D01*
X147843333Y-107006666D02*
X148543333Y-107006666D01*
X148543333Y-106740000D01*
X148510000Y-106673333D01*
X148476666Y-106640000D01*
X148410000Y-106606666D01*
X148310000Y-106606666D01*
X148243333Y-106640000D01*
X148210000Y-106673333D01*
X148176666Y-106740000D01*
X148176666Y-107006666D01*
X148210000Y-106073333D02*
X148176666Y-105973333D01*
X148143333Y-105940000D01*
X148076666Y-105906666D01*
X147976666Y-105906666D01*
X147910000Y-105940000D01*
X147876666Y-105973333D01*
X147843333Y-106040000D01*
X147843333Y-106306666D01*
X148543333Y-106306666D01*
X148543333Y-106073333D01*
X148510000Y-106006666D01*
X148476666Y-105973333D01*
X148410000Y-105940000D01*
X148343333Y-105940000D01*
X148276666Y-105973333D01*
X148243333Y-106006666D01*
X148210000Y-106073333D01*
X148210000Y-106306666D01*
X148543333Y-105306666D02*
X148543333Y-105440000D01*
X148510000Y-105506666D01*
X148476666Y-105540000D01*
X148376666Y-105606666D01*
X148243333Y-105640000D01*
X147976666Y-105640000D01*
X147910000Y-105606666D01*
X147876666Y-105573333D01*
X147843333Y-105506666D01*
X147843333Y-105373333D01*
X147876666Y-105306666D01*
X147910000Y-105273333D01*
X147976666Y-105240000D01*
X148143333Y-105240000D01*
X148210000Y-105273333D01*
X148243333Y-105306666D01*
X148276666Y-105373333D01*
X148276666Y-105506666D01*
X148243333Y-105573333D01*
X148210000Y-105606666D01*
X148143333Y-105640000D01*
X135143333Y-94759000D02*
X135843333Y-94759000D01*
X135843333Y-94492333D01*
X135810000Y-94425666D01*
X135776666Y-94392333D01*
X135710000Y-94359000D01*
X135610000Y-94359000D01*
X135543333Y-94392333D01*
X135510000Y-94425666D01*
X135476666Y-94492333D01*
X135476666Y-94759000D01*
X135343333Y-94092333D02*
X135343333Y-93759000D01*
X135143333Y-94159000D02*
X135843333Y-93925666D01*
X135143333Y-93692333D01*
X135143333Y-93092333D02*
X135143333Y-93492333D01*
X135143333Y-93292333D02*
X135843333Y-93292333D01*
X135743333Y-93359000D01*
X135676666Y-93425666D01*
X135643333Y-93492333D01*
X135776666Y-92825666D02*
X135810000Y-92792333D01*
X135843333Y-92725666D01*
X135843333Y-92559000D01*
X135810000Y-92492333D01*
X135776666Y-92459000D01*
X135710000Y-92425666D01*
X135643333Y-92425666D01*
X135543333Y-92459000D01*
X135143333Y-92859000D01*
X135143333Y-92425666D01*
X132623333Y-94740000D02*
X133323333Y-94740000D01*
X133323333Y-94473333D01*
X133290000Y-94406666D01*
X133256666Y-94373333D01*
X133190000Y-94340000D01*
X133090000Y-94340000D01*
X133023333Y-94373333D01*
X132990000Y-94406666D01*
X132956666Y-94473333D01*
X132956666Y-94740000D01*
X132823333Y-94073333D02*
X132823333Y-93740000D01*
X132623333Y-94140000D02*
X133323333Y-93906666D01*
X132623333Y-93673333D01*
X132623333Y-93073333D02*
X132623333Y-93473333D01*
X132623333Y-93273333D02*
X133323333Y-93273333D01*
X133223333Y-93340000D01*
X133156666Y-93406666D01*
X133123333Y-93473333D01*
X133323333Y-92440000D02*
X133323333Y-92773333D01*
X132990000Y-92806666D01*
X133023333Y-92773333D01*
X133056666Y-92706666D01*
X133056666Y-92540000D01*
X133023333Y-92473333D01*
X132990000Y-92440000D01*
X132923333Y-92406666D01*
X132756666Y-92406666D01*
X132690000Y-92440000D01*
X132656666Y-92473333D01*
X132623333Y-92540000D01*
X132623333Y-92706666D01*
X132656666Y-92773333D01*
X132690000Y-92806666D01*
X152913333Y-107036666D02*
X153613333Y-107036666D01*
X153613333Y-106770000D01*
X153580000Y-106703333D01*
X153546666Y-106670000D01*
X153480000Y-106636666D01*
X153380000Y-106636666D01*
X153313333Y-106670000D01*
X153280000Y-106703333D01*
X153246666Y-106770000D01*
X153246666Y-107036666D01*
X153280000Y-106103333D02*
X153246666Y-106003333D01*
X153213333Y-105970000D01*
X153146666Y-105936666D01*
X153046666Y-105936666D01*
X152980000Y-105970000D01*
X152946666Y-106003333D01*
X152913333Y-106070000D01*
X152913333Y-106336666D01*
X153613333Y-106336666D01*
X153613333Y-106103333D01*
X153580000Y-106036666D01*
X153546666Y-106003333D01*
X153480000Y-105970000D01*
X153413333Y-105970000D01*
X153346666Y-106003333D01*
X153313333Y-106036666D01*
X153280000Y-106103333D01*
X153280000Y-106336666D01*
X153313333Y-105536666D02*
X153346666Y-105603333D01*
X153380000Y-105636666D01*
X153446666Y-105670000D01*
X153480000Y-105670000D01*
X153546666Y-105636666D01*
X153580000Y-105603333D01*
X153613333Y-105536666D01*
X153613333Y-105403333D01*
X153580000Y-105336666D01*
X153546666Y-105303333D01*
X153480000Y-105270000D01*
X153446666Y-105270000D01*
X153380000Y-105303333D01*
X153346666Y-105336666D01*
X153313333Y-105403333D01*
X153313333Y-105536666D01*
X153280000Y-105603333D01*
X153246666Y-105636666D01*
X153180000Y-105670000D01*
X153046666Y-105670000D01*
X152980000Y-105636666D01*
X152946666Y-105603333D01*
X152913333Y-105536666D01*
X152913333Y-105403333D01*
X152946666Y-105336666D01*
X152980000Y-105303333D01*
X153046666Y-105270000D01*
X153180000Y-105270000D01*
X153246666Y-105303333D01*
X153280000Y-105336666D01*
X153313333Y-105403333D01*
X140193333Y-94739000D02*
X140893333Y-94739000D01*
X140893333Y-94472333D01*
X140860000Y-94405666D01*
X140826666Y-94372333D01*
X140760000Y-94339000D01*
X140660000Y-94339000D01*
X140593333Y-94372333D01*
X140560000Y-94405666D01*
X140526666Y-94472333D01*
X140526666Y-94739000D01*
X140393333Y-94072333D02*
X140393333Y-93739000D01*
X140193333Y-94139000D02*
X140893333Y-93905666D01*
X140193333Y-93672333D01*
X140193333Y-93072333D02*
X140193333Y-93472333D01*
X140193333Y-93272333D02*
X140893333Y-93272333D01*
X140793333Y-93339000D01*
X140726666Y-93405666D01*
X140693333Y-93472333D01*
X140893333Y-92639000D02*
X140893333Y-92572333D01*
X140860000Y-92505666D01*
X140826666Y-92472333D01*
X140760000Y-92439000D01*
X140626666Y-92405666D01*
X140460000Y-92405666D01*
X140326666Y-92439000D01*
X140260000Y-92472333D01*
X140226666Y-92505666D01*
X140193333Y-92572333D01*
X140193333Y-92639000D01*
X140226666Y-92705666D01*
X140260000Y-92739000D01*
X140326666Y-92772333D01*
X140460000Y-92805666D01*
X140626666Y-92805666D01*
X140760000Y-92772333D01*
X140826666Y-92739000D01*
X140860000Y-92705666D01*
X140893333Y-92639000D01*
X158023333Y-94066666D02*
X158723333Y-94066666D01*
X158723333Y-93800000D01*
X158690000Y-93733333D01*
X158656666Y-93700000D01*
X158590000Y-93666666D01*
X158490000Y-93666666D01*
X158423333Y-93700000D01*
X158390000Y-93733333D01*
X158356666Y-93800000D01*
X158356666Y-94066666D01*
X158223333Y-93400000D02*
X158223333Y-93066666D01*
X158023333Y-93466666D02*
X158723333Y-93233333D01*
X158023333Y-93000000D01*
X158723333Y-92833333D02*
X158723333Y-92400000D01*
X158456666Y-92633333D01*
X158456666Y-92533333D01*
X158423333Y-92466666D01*
X158390000Y-92433333D01*
X158323333Y-92400000D01*
X158156666Y-92400000D01*
X158090000Y-92433333D01*
X158056666Y-92466666D01*
X158023333Y-92533333D01*
X158023333Y-92733333D01*
X158056666Y-92800000D01*
X158090000Y-92833333D01*
X150393333Y-94066666D02*
X151093333Y-94066666D01*
X151093333Y-93800000D01*
X151060000Y-93733333D01*
X151026666Y-93700000D01*
X150960000Y-93666666D01*
X150860000Y-93666666D01*
X150793333Y-93700000D01*
X150760000Y-93733333D01*
X150726666Y-93800000D01*
X150726666Y-94066666D01*
X150593333Y-93400000D02*
X150593333Y-93066666D01*
X150393333Y-93466666D02*
X151093333Y-93233333D01*
X150393333Y-93000000D01*
X151093333Y-92466666D02*
X151093333Y-92600000D01*
X151060000Y-92666666D01*
X151026666Y-92700000D01*
X150926666Y-92766666D01*
X150793333Y-92800000D01*
X150526666Y-92800000D01*
X150460000Y-92766666D01*
X150426666Y-92733333D01*
X150393333Y-92666666D01*
X150393333Y-92533333D01*
X150426666Y-92466666D01*
X150460000Y-92433333D01*
X150526666Y-92400000D01*
X150693333Y-92400000D01*
X150760000Y-92433333D01*
X150793333Y-92466666D01*
X150826666Y-92533333D01*
X150826666Y-92666666D01*
X150793333Y-92733333D01*
X150760000Y-92766666D01*
X150693333Y-92800000D01*
X170758571Y-102702857D02*
X170158571Y-102502857D01*
X170758571Y-102302857D01*
X170187142Y-101874285D02*
X170158571Y-101931428D01*
X170158571Y-102045714D01*
X170187142Y-102102857D01*
X170244285Y-102131428D01*
X170472857Y-102131428D01*
X170530000Y-102102857D01*
X170558571Y-102045714D01*
X170558571Y-101931428D01*
X170530000Y-101874285D01*
X170472857Y-101845714D01*
X170415714Y-101845714D01*
X170358571Y-102131428D01*
X170158571Y-101588571D02*
X170558571Y-101588571D01*
X170444285Y-101588571D02*
X170501428Y-101560000D01*
X170530000Y-101531428D01*
X170558571Y-101474285D01*
X170558571Y-101417142D01*
X170187142Y-101245714D02*
X170158571Y-101188571D01*
X170158571Y-101074285D01*
X170187142Y-101017142D01*
X170244285Y-100988571D01*
X170272857Y-100988571D01*
X170330000Y-101017142D01*
X170358571Y-101074285D01*
X170358571Y-101160000D01*
X170387142Y-101217142D01*
X170444285Y-101245714D01*
X170472857Y-101245714D01*
X170530000Y-101217142D01*
X170558571Y-101160000D01*
X170558571Y-101074285D01*
X170530000Y-101017142D01*
X170158571Y-100731428D02*
X170558571Y-100731428D01*
X170758571Y-100731428D02*
X170730000Y-100760000D01*
X170701428Y-100731428D01*
X170730000Y-100702857D01*
X170758571Y-100731428D01*
X170701428Y-100731428D01*
X170158571Y-100360000D02*
X170187142Y-100417142D01*
X170215714Y-100445714D01*
X170272857Y-100474285D01*
X170444285Y-100474285D01*
X170501428Y-100445714D01*
X170530000Y-100417142D01*
X170558571Y-100360000D01*
X170558571Y-100274285D01*
X170530000Y-100217142D01*
X170501428Y-100188571D01*
X170444285Y-100160000D01*
X170272857Y-100160000D01*
X170215714Y-100188571D01*
X170187142Y-100217142D01*
X170158571Y-100274285D01*
X170158571Y-100360000D01*
X170558571Y-99902857D02*
X170158571Y-99902857D01*
X170501428Y-99902857D02*
X170530000Y-99874285D01*
X170558571Y-99817142D01*
X170558571Y-99731428D01*
X170530000Y-99674285D01*
X170472857Y-99645714D01*
X170158571Y-99645714D01*
X170158571Y-98588571D02*
X170158571Y-98931428D01*
X170158571Y-98760000D02*
X170758571Y-98760000D01*
X170672857Y-98817142D01*
X170615714Y-98874285D01*
X170587142Y-98931428D01*
X170215714Y-98331428D02*
X170187142Y-98302857D01*
X170158571Y-98331428D01*
X170187142Y-98360000D01*
X170215714Y-98331428D01*
X170158571Y-98331428D01*
X170758571Y-97931428D02*
X170758571Y-97874285D01*
X170730000Y-97817142D01*
X170701428Y-97788571D01*
X170644285Y-97760000D01*
X170530000Y-97731428D01*
X170387142Y-97731428D01*
X170272857Y-97760000D01*
X170215714Y-97788571D01*
X170187142Y-97817142D01*
X170158571Y-97874285D01*
X170158571Y-97931428D01*
X170187142Y-97988571D01*
X170215714Y-98017142D01*
X170272857Y-98045714D01*
X170387142Y-98074285D01*
X170530000Y-98074285D01*
X170644285Y-98045714D01*
X170701428Y-98017142D01*
X170730000Y-97988571D01*
X170758571Y-97931428D01*
X170215714Y-97474285D02*
X170187142Y-97445714D01*
X170158571Y-97474285D01*
X170187142Y-97502857D01*
X170215714Y-97474285D01*
X170158571Y-97474285D01*
X170758571Y-97074285D02*
X170758571Y-97017142D01*
X170730000Y-96960000D01*
X170701428Y-96931428D01*
X170644285Y-96902857D01*
X170530000Y-96874285D01*
X170387142Y-96874285D01*
X170272857Y-96902857D01*
X170215714Y-96931428D01*
X170187142Y-96960000D01*
X170158571Y-97017142D01*
X170158571Y-97074285D01*
X170187142Y-97131428D01*
X170215714Y-97160000D01*
X170272857Y-97188571D01*
X170387142Y-97217142D01*
X170530000Y-97217142D01*
X170644285Y-97188571D01*
X170701428Y-97160000D01*
X170730000Y-97131428D01*
X170758571Y-97074285D01*
X131606666Y-96206666D02*
X131706666Y-96173333D01*
X131873333Y-96173333D01*
X131940000Y-96206666D01*
X131973333Y-96240000D01*
X132006666Y-96306666D01*
X132006666Y-96373333D01*
X131973333Y-96440000D01*
X131940000Y-96473333D01*
X131873333Y-96506666D01*
X131740000Y-96540000D01*
X131673333Y-96573333D01*
X131640000Y-96606666D01*
X131606666Y-96673333D01*
X131606666Y-96740000D01*
X131640000Y-96806666D01*
X131673333Y-96840000D01*
X131740000Y-96873333D01*
X131906666Y-96873333D01*
X132006666Y-96840000D01*
X132240000Y-96873333D02*
X132406666Y-96173333D01*
X132540000Y-96673333D01*
X132673333Y-96173333D01*
X132840000Y-96873333D01*
X133106666Y-96173333D02*
X133106666Y-96873333D01*
X133273333Y-96873333D01*
X133373333Y-96840000D01*
X133440000Y-96773333D01*
X133473333Y-96706666D01*
X133506666Y-96573333D01*
X133506666Y-96473333D01*
X133473333Y-96340000D01*
X133440000Y-96273333D01*
X133373333Y-96206666D01*
X133273333Y-96173333D01*
X133106666Y-96173333D01*
X133806666Y-96173333D02*
X133806666Y-96873333D01*
X134273333Y-96873333D02*
X134406666Y-96873333D01*
X134473333Y-96840000D01*
X134540000Y-96773333D01*
X134573333Y-96640000D01*
X134573333Y-96406666D01*
X134540000Y-96273333D01*
X134473333Y-96206666D01*
X134406666Y-96173333D01*
X134273333Y-96173333D01*
X134206666Y-96206666D01*
X134140000Y-96273333D01*
X134106666Y-96406666D01*
X134106666Y-96640000D01*
X134140000Y-96773333D01*
X134206666Y-96840000D01*
X134273333Y-96873333D01*
X131604285Y-95308571D02*
X131604285Y-95908571D01*
X131832857Y-95908571D01*
X131890000Y-95880000D01*
X131918571Y-95851428D01*
X131947142Y-95794285D01*
X131947142Y-95708571D01*
X131918571Y-95651428D01*
X131890000Y-95622857D01*
X131832857Y-95594285D01*
X131604285Y-95594285D01*
X132175714Y-95480000D02*
X132461428Y-95480000D01*
X132118571Y-95308571D02*
X132318571Y-95908571D01*
X132518571Y-95308571D01*
X133032857Y-95308571D02*
X132690000Y-95308571D01*
X132861428Y-95308571D02*
X132861428Y-95908571D01*
X132804285Y-95822857D01*
X132747142Y-95765714D01*
X132690000Y-95737142D01*
X133232857Y-95908571D02*
X133604285Y-95908571D01*
X133404285Y-95680000D01*
X133490000Y-95680000D01*
X133547142Y-95651428D01*
X133575714Y-95622857D01*
X133604285Y-95565714D01*
X133604285Y-95422857D01*
X133575714Y-95365714D01*
X133547142Y-95337142D01*
X133490000Y-95308571D01*
X133318571Y-95308571D01*
X133261428Y-95337142D01*
X133232857Y-95365714D01*
X137753333Y-107036666D02*
X138453333Y-107036666D01*
X138453333Y-106770000D01*
X138420000Y-106703333D01*
X138386666Y-106670000D01*
X138320000Y-106636666D01*
X138220000Y-106636666D01*
X138153333Y-106670000D01*
X138120000Y-106703333D01*
X138086666Y-106770000D01*
X138086666Y-107036666D01*
X138120000Y-106103333D02*
X138086666Y-106003333D01*
X138053333Y-105970000D01*
X137986666Y-105936666D01*
X137886666Y-105936666D01*
X137820000Y-105970000D01*
X137786666Y-106003333D01*
X137753333Y-106070000D01*
X137753333Y-106336666D01*
X138453333Y-106336666D01*
X138453333Y-106103333D01*
X138420000Y-106036666D01*
X138386666Y-106003333D01*
X138320000Y-105970000D01*
X138253333Y-105970000D01*
X138186666Y-106003333D01*
X138153333Y-106036666D01*
X138120000Y-106103333D01*
X138120000Y-106336666D01*
X138386666Y-105670000D02*
X138420000Y-105636666D01*
X138453333Y-105570000D01*
X138453333Y-105403333D01*
X138420000Y-105336666D01*
X138386666Y-105303333D01*
X138320000Y-105270000D01*
X138253333Y-105270000D01*
X138153333Y-105303333D01*
X137753333Y-105703333D01*
X137753333Y-105270000D01*
X152963333Y-94056666D02*
X153663333Y-94056666D01*
X153663333Y-93790000D01*
X153630000Y-93723333D01*
X153596666Y-93690000D01*
X153530000Y-93656666D01*
X153430000Y-93656666D01*
X153363333Y-93690000D01*
X153330000Y-93723333D01*
X153296666Y-93790000D01*
X153296666Y-94056666D01*
X153163333Y-93390000D02*
X153163333Y-93056666D01*
X152963333Y-93456666D02*
X153663333Y-93223333D01*
X152963333Y-92990000D01*
X153663333Y-92423333D02*
X153663333Y-92756666D01*
X153330000Y-92790000D01*
X153363333Y-92756666D01*
X153396666Y-92690000D01*
X153396666Y-92523333D01*
X153363333Y-92456666D01*
X153330000Y-92423333D01*
X153263333Y-92390000D01*
X153096666Y-92390000D01*
X153030000Y-92423333D01*
X152996666Y-92456666D01*
X152963333Y-92523333D01*
X152963333Y-92690000D01*
X152996666Y-92756666D01*
X153030000Y-92790000D01*
X142763333Y-94066666D02*
X143463333Y-94066666D01*
X143463333Y-93800000D01*
X143430000Y-93733333D01*
X143396666Y-93700000D01*
X143330000Y-93666666D01*
X143230000Y-93666666D01*
X143163333Y-93700000D01*
X143130000Y-93733333D01*
X143096666Y-93800000D01*
X143096666Y-94066666D01*
X142963333Y-93400000D02*
X142963333Y-93066666D01*
X142763333Y-93466666D02*
X143463333Y-93233333D01*
X142763333Y-93000000D01*
X142763333Y-92733333D02*
X142763333Y-92600000D01*
X142796666Y-92533333D01*
X142830000Y-92500000D01*
X142930000Y-92433333D01*
X143063333Y-92400000D01*
X143330000Y-92400000D01*
X143396666Y-92433333D01*
X143430000Y-92466666D01*
X143463333Y-92533333D01*
X143463333Y-92666666D01*
X143430000Y-92733333D01*
X143396666Y-92766666D01*
X143330000Y-92800000D01*
X143163333Y-92800000D01*
X143096666Y-92766666D01*
X143063333Y-92733333D01*
X143030000Y-92666666D01*
X143030000Y-92533333D01*
X143063333Y-92466666D01*
X143096666Y-92433333D01*
X143163333Y-92400000D01*
X147843333Y-94106666D02*
X148543333Y-94106666D01*
X148543333Y-93840000D01*
X148510000Y-93773333D01*
X148476666Y-93740000D01*
X148410000Y-93706666D01*
X148310000Y-93706666D01*
X148243333Y-93740000D01*
X148210000Y-93773333D01*
X148176666Y-93840000D01*
X148176666Y-94106666D01*
X148043333Y-93440000D02*
X148043333Y-93106666D01*
X147843333Y-93506666D02*
X148543333Y-93273333D01*
X147843333Y-93040000D01*
X148543333Y-92873333D02*
X148543333Y-92406666D01*
X147843333Y-92706666D01*
X131616666Y-104023333D02*
X132050000Y-104023333D01*
X131816666Y-103756666D01*
X131916666Y-103756666D01*
X131983333Y-103723333D01*
X132016666Y-103690000D01*
X132050000Y-103623333D01*
X132050000Y-103456666D01*
X132016666Y-103390000D01*
X131983333Y-103356666D01*
X131916666Y-103323333D01*
X131716666Y-103323333D01*
X131650000Y-103356666D01*
X131616666Y-103390000D01*
X132350000Y-103390000D02*
X132383333Y-103356666D01*
X132350000Y-103323333D01*
X132316666Y-103356666D01*
X132350000Y-103390000D01*
X132350000Y-103323333D01*
X132616666Y-104023333D02*
X133050000Y-104023333D01*
X132816666Y-103756666D01*
X132916666Y-103756666D01*
X132983333Y-103723333D01*
X133016666Y-103690000D01*
X133050000Y-103623333D01*
X133050000Y-103456666D01*
X133016666Y-103390000D01*
X132983333Y-103356666D01*
X132916666Y-103323333D01*
X132716666Y-103323333D01*
X132650000Y-103356666D01*
X132616666Y-103390000D01*
X133250000Y-104023333D02*
X133483333Y-103323333D01*
X133716666Y-104023333D01*
X160583333Y-94066666D02*
X161283333Y-94066666D01*
X161283333Y-93800000D01*
X161250000Y-93733333D01*
X161216666Y-93700000D01*
X161150000Y-93666666D01*
X161050000Y-93666666D01*
X160983333Y-93700000D01*
X160950000Y-93733333D01*
X160916666Y-93800000D01*
X160916666Y-94066666D01*
X160783333Y-93400000D02*
X160783333Y-93066666D01*
X160583333Y-93466666D02*
X161283333Y-93233333D01*
X160583333Y-93000000D01*
X161216666Y-92800000D02*
X161250000Y-92766666D01*
X161283333Y-92700000D01*
X161283333Y-92533333D01*
X161250000Y-92466666D01*
X161216666Y-92433333D01*
X161150000Y-92400000D01*
X161083333Y-92400000D01*
X160983333Y-92433333D01*
X160583333Y-92833333D01*
X160583333Y-92400000D01*
X132016666Y-98950000D02*
X131950000Y-98983333D01*
X131850000Y-98983333D01*
X131750000Y-98950000D01*
X131683333Y-98883333D01*
X131650000Y-98816666D01*
X131616666Y-98683333D01*
X131616666Y-98583333D01*
X131650000Y-98450000D01*
X131683333Y-98383333D01*
X131750000Y-98316666D01*
X131850000Y-98283333D01*
X131916666Y-98283333D01*
X132016666Y-98316666D01*
X132050000Y-98350000D01*
X132050000Y-98583333D01*
X131916666Y-98583333D01*
X132350000Y-98283333D02*
X132350000Y-98983333D01*
X132750000Y-98283333D01*
X132750000Y-98983333D01*
X133083333Y-98283333D02*
X133083333Y-98983333D01*
X133250000Y-98983333D01*
X133350000Y-98950000D01*
X133416666Y-98883333D01*
X133450000Y-98816666D01*
X133483333Y-98683333D01*
X133483333Y-98583333D01*
X133450000Y-98450000D01*
X133416666Y-98383333D01*
X133350000Y-98316666D01*
X133250000Y-98283333D01*
X133083333Y-98283333D01*
X145343333Y-94066666D02*
X146043333Y-94066666D01*
X146043333Y-93800000D01*
X146010000Y-93733333D01*
X145976666Y-93700000D01*
X145910000Y-93666666D01*
X145810000Y-93666666D01*
X145743333Y-93700000D01*
X145710000Y-93733333D01*
X145676666Y-93800000D01*
X145676666Y-94066666D01*
X145543333Y-93400000D02*
X145543333Y-93066666D01*
X145343333Y-93466666D02*
X146043333Y-93233333D01*
X145343333Y-93000000D01*
X145743333Y-92666666D02*
X145776666Y-92733333D01*
X145810000Y-92766666D01*
X145876666Y-92800000D01*
X145910000Y-92800000D01*
X145976666Y-92766666D01*
X146010000Y-92733333D01*
X146043333Y-92666666D01*
X146043333Y-92533333D01*
X146010000Y-92466666D01*
X145976666Y-92433333D01*
X145910000Y-92400000D01*
X145876666Y-92400000D01*
X145810000Y-92433333D01*
X145776666Y-92466666D01*
X145743333Y-92533333D01*
X145743333Y-92666666D01*
X145710000Y-92733333D01*
X145676666Y-92766666D01*
X145610000Y-92800000D01*
X145476666Y-92800000D01*
X145410000Y-92766666D01*
X145376666Y-92733333D01*
X145343333Y-92666666D01*
X145343333Y-92533333D01*
X145376666Y-92466666D01*
X145410000Y-92433333D01*
X145476666Y-92400000D01*
X145610000Y-92400000D01*
X145676666Y-92433333D01*
X145710000Y-92466666D01*
X145743333Y-92533333D01*
X131616666Y-101276666D02*
X131716666Y-101243333D01*
X131883333Y-101243333D01*
X131950000Y-101276666D01*
X131983333Y-101310000D01*
X132016666Y-101376666D01*
X132016666Y-101443333D01*
X131983333Y-101510000D01*
X131950000Y-101543333D01*
X131883333Y-101576666D01*
X131750000Y-101610000D01*
X131683333Y-101643333D01*
X131650000Y-101676666D01*
X131616666Y-101743333D01*
X131616666Y-101810000D01*
X131650000Y-101876666D01*
X131683333Y-101910000D01*
X131750000Y-101943333D01*
X131916666Y-101943333D01*
X132016666Y-101910000D01*
X132250000Y-101943333D02*
X132416666Y-101243333D01*
X132550000Y-101743333D01*
X132683333Y-101243333D01*
X132850000Y-101943333D01*
X133516666Y-101310000D02*
X133483333Y-101276666D01*
X133383333Y-101243333D01*
X133316666Y-101243333D01*
X133216666Y-101276666D01*
X133150000Y-101343333D01*
X133116666Y-101410000D01*
X133083333Y-101543333D01*
X133083333Y-101643333D01*
X133116666Y-101776666D01*
X133150000Y-101843333D01*
X133216666Y-101910000D01*
X133316666Y-101943333D01*
X133383333Y-101943333D01*
X133483333Y-101910000D01*
X133516666Y-101876666D01*
X134150000Y-101243333D02*
X133816666Y-101243333D01*
X133816666Y-101943333D01*
X134383333Y-101243333D02*
X134383333Y-101943333D01*
X134783333Y-101243333D02*
X134483333Y-101643333D01*
X134783333Y-101943333D02*
X134383333Y-101543333D01*
X145313333Y-107006666D02*
X146013333Y-107006666D01*
X146013333Y-106740000D01*
X145980000Y-106673333D01*
X145946666Y-106640000D01*
X145880000Y-106606666D01*
X145780000Y-106606666D01*
X145713333Y-106640000D01*
X145680000Y-106673333D01*
X145646666Y-106740000D01*
X145646666Y-107006666D01*
X145680000Y-106073333D02*
X145646666Y-105973333D01*
X145613333Y-105940000D01*
X145546666Y-105906666D01*
X145446666Y-105906666D01*
X145380000Y-105940000D01*
X145346666Y-105973333D01*
X145313333Y-106040000D01*
X145313333Y-106306666D01*
X146013333Y-106306666D01*
X146013333Y-106073333D01*
X145980000Y-106006666D01*
X145946666Y-105973333D01*
X145880000Y-105940000D01*
X145813333Y-105940000D01*
X145746666Y-105973333D01*
X145713333Y-106006666D01*
X145680000Y-106073333D01*
X145680000Y-106306666D01*
X146013333Y-105273333D02*
X146013333Y-105606666D01*
X145680000Y-105640000D01*
X145713333Y-105606666D01*
X145746666Y-105540000D01*
X145746666Y-105373333D01*
X145713333Y-105306666D01*
X145680000Y-105273333D01*
X145613333Y-105240000D01*
X145446666Y-105240000D01*
X145380000Y-105273333D01*
X145346666Y-105306666D01*
X145313333Y-105373333D01*
X145313333Y-105540000D01*
X145346666Y-105606666D01*
X145380000Y-105640000D01*
X157313333Y-104283333D02*
X156613333Y-104116666D01*
X157113333Y-103983333D01*
X156613333Y-103850000D01*
X157313333Y-103683333D01*
X157246666Y-103450000D02*
X157280000Y-103416666D01*
X157313333Y-103350000D01*
X157313333Y-103183333D01*
X157280000Y-103116666D01*
X157246666Y-103083333D01*
X157180000Y-103050000D01*
X157113333Y-103050000D01*
X157013333Y-103083333D01*
X156613333Y-103483333D01*
X156613333Y-103050000D01*
X157313333Y-102416666D02*
X157313333Y-102750000D01*
X156980000Y-102783333D01*
X157013333Y-102750000D01*
X157046666Y-102683333D01*
X157046666Y-102516666D01*
X157013333Y-102450000D01*
X156980000Y-102416666D01*
X156913333Y-102383333D01*
X156746666Y-102383333D01*
X156680000Y-102416666D01*
X156646666Y-102450000D01*
X156613333Y-102516666D01*
X156613333Y-102683333D01*
X156646666Y-102750000D01*
X156680000Y-102783333D01*
X156546666Y-101616666D02*
X156580000Y-101683333D01*
X156646666Y-101750000D01*
X156746666Y-101850000D01*
X156780000Y-101916666D01*
X156780000Y-101983333D01*
X156613333Y-101950000D02*
X156646666Y-102016666D01*
X156713333Y-102083333D01*
X156846666Y-102116666D01*
X157080000Y-102116666D01*
X157213333Y-102083333D01*
X157280000Y-102016666D01*
X157313333Y-101950000D01*
X157313333Y-101816666D01*
X157280000Y-101750000D01*
X157213333Y-101683333D01*
X157080000Y-101650000D01*
X156846666Y-101650000D01*
X156713333Y-101683333D01*
X156646666Y-101750000D01*
X156613333Y-101816666D01*
X156613333Y-101950000D01*
X156880000Y-101350000D02*
X156880000Y-100816666D01*
X157313333Y-100550000D02*
X156613333Y-100083333D01*
X157313333Y-100083333D02*
X156613333Y-100550000D01*
X157313333Y-99883333D02*
X156613333Y-99416666D01*
X157313333Y-99416666D02*
X156613333Y-99883333D01*
X156880000Y-99150000D02*
X156880000Y-98616666D01*
X157313333Y-98083333D02*
X156813333Y-98083333D01*
X156713333Y-98116666D01*
X156646666Y-98183333D01*
X156613333Y-98283333D01*
X156613333Y-98350000D01*
X157313333Y-97850000D02*
X156613333Y-97616666D01*
X157313333Y-97383333D01*
X156646666Y-97183333D02*
X156613333Y-97083333D01*
X156613333Y-96916666D01*
X156646666Y-96850000D01*
X156680000Y-96816666D01*
X156746666Y-96783333D01*
X156813333Y-96783333D01*
X156880000Y-96816666D01*
X156913333Y-96850000D01*
X156946666Y-96916666D01*
X156980000Y-97050000D01*
X157013333Y-97116666D01*
X157046666Y-97150000D01*
X157113333Y-97183333D01*
X157180000Y-97183333D01*
X157246666Y-97150000D01*
X157280000Y-97116666D01*
X157313333Y-97050000D01*
X157313333Y-96883333D01*
X157280000Y-96783333D01*
X156646666Y-96516666D02*
X156613333Y-96416666D01*
X156613333Y-96250000D01*
X156646666Y-96183333D01*
X156680000Y-96150000D01*
X156746666Y-96116666D01*
X156813333Y-96116666D01*
X156880000Y-96150000D01*
X156913333Y-96183333D01*
X156946666Y-96250000D01*
X156980000Y-96383333D01*
X157013333Y-96450000D01*
X157046666Y-96483333D01*
X157113333Y-96516666D01*
X157180000Y-96516666D01*
X157246666Y-96483333D01*
X157280000Y-96450000D01*
X157313333Y-96383333D01*
X157313333Y-96216666D01*
X157280000Y-96116666D01*
X156613333Y-95816666D02*
X157313333Y-95816666D01*
X156546666Y-95016666D02*
X156580000Y-95083333D01*
X156646666Y-95150000D01*
X156746666Y-95250000D01*
X156780000Y-95316666D01*
X156780000Y-95383333D01*
X156613333Y-95350000D02*
X156646666Y-95416666D01*
X156713333Y-95483333D01*
X156846666Y-95516666D01*
X157080000Y-95516666D01*
X157213333Y-95483333D01*
X157280000Y-95416666D01*
X157313333Y-95350000D01*
X157313333Y-95216666D01*
X157280000Y-95150000D01*
X157213333Y-95083333D01*
X157080000Y-95050000D01*
X156846666Y-95050000D01*
X156713333Y-95083333D01*
X156646666Y-95150000D01*
X156613333Y-95216666D01*
X156613333Y-95350000D01*
X163133333Y-94066666D02*
X163833333Y-94066666D01*
X163833333Y-93800000D01*
X163800000Y-93733333D01*
X163766666Y-93700000D01*
X163700000Y-93666666D01*
X163600000Y-93666666D01*
X163533333Y-93700000D01*
X163500000Y-93733333D01*
X163466666Y-93800000D01*
X163466666Y-94066666D01*
X163333333Y-93400000D02*
X163333333Y-93066666D01*
X163133333Y-93466666D02*
X163833333Y-93233333D01*
X163133333Y-93000000D01*
X163133333Y-92400000D02*
X163133333Y-92800000D01*
X163133333Y-92600000D02*
X163833333Y-92600000D01*
X163733333Y-92666666D01*
X163666666Y-92733333D01*
X163633333Y-92800000D01*
X155543333Y-94096666D02*
X156243333Y-94096666D01*
X156243333Y-93830000D01*
X156210000Y-93763333D01*
X156176666Y-93730000D01*
X156110000Y-93696666D01*
X156010000Y-93696666D01*
X155943333Y-93730000D01*
X155910000Y-93763333D01*
X155876666Y-93830000D01*
X155876666Y-94096666D01*
X155743333Y-93430000D02*
X155743333Y-93096666D01*
X155543333Y-93496666D02*
X156243333Y-93263333D01*
X155543333Y-93030000D01*
X156010000Y-92496666D02*
X155543333Y-92496666D01*
X156276666Y-92663333D02*
X155776666Y-92830000D01*
X155776666Y-92396666D01*
X166308333Y-106613333D02*
X166308333Y-106946666D01*
X165975000Y-106980000D01*
X166008333Y-106946666D01*
X166041666Y-106880000D01*
X166041666Y-106713333D01*
X166008333Y-106646666D01*
X165975000Y-106613333D01*
X165908333Y-106580000D01*
X165741666Y-106580000D01*
X165675000Y-106613333D01*
X165641666Y-106646666D01*
X165608333Y-106713333D01*
X165608333Y-106880000D01*
X165641666Y-106946666D01*
X165675000Y-106980000D01*
X166308333Y-106380000D02*
X165608333Y-106146666D01*
X166308333Y-105913333D01*
X165653333Y-94066666D02*
X166353333Y-94066666D01*
X166353333Y-93800000D01*
X166320000Y-93733333D01*
X166286666Y-93700000D01*
X166220000Y-93666666D01*
X166120000Y-93666666D01*
X166053333Y-93700000D01*
X166020000Y-93733333D01*
X165986666Y-93800000D01*
X165986666Y-94066666D01*
X165853333Y-93400000D02*
X165853333Y-93066666D01*
X165653333Y-93466666D02*
X166353333Y-93233333D01*
X165653333Y-93000000D01*
X166353333Y-92633333D02*
X166353333Y-92566666D01*
X166320000Y-92500000D01*
X166286666Y-92466666D01*
X166220000Y-92433333D01*
X166086666Y-92400000D01*
X165920000Y-92400000D01*
X165786666Y-92433333D01*
X165720000Y-92466666D01*
X165686666Y-92500000D01*
X165653333Y-92566666D01*
X165653333Y-92633333D01*
X165686666Y-92700000D01*
X165720000Y-92733333D01*
X165786666Y-92766666D01*
X165920000Y-92800000D01*
X166086666Y-92800000D01*
X166220000Y-92766666D01*
X166286666Y-92733333D01*
X166320000Y-92700000D01*
X166353333Y-92633333D01*
X135173333Y-107036666D02*
X135873333Y-107036666D01*
X135873333Y-106770000D01*
X135840000Y-106703333D01*
X135806666Y-106670000D01*
X135740000Y-106636666D01*
X135640000Y-106636666D01*
X135573333Y-106670000D01*
X135540000Y-106703333D01*
X135506666Y-106770000D01*
X135506666Y-107036666D01*
X135540000Y-106103333D02*
X135506666Y-106003333D01*
X135473333Y-105970000D01*
X135406666Y-105936666D01*
X135306666Y-105936666D01*
X135240000Y-105970000D01*
X135206666Y-106003333D01*
X135173333Y-106070000D01*
X135173333Y-106336666D01*
X135873333Y-106336666D01*
X135873333Y-106103333D01*
X135840000Y-106036666D01*
X135806666Y-106003333D01*
X135740000Y-105970000D01*
X135673333Y-105970000D01*
X135606666Y-106003333D01*
X135573333Y-106036666D01*
X135540000Y-106103333D01*
X135540000Y-106336666D01*
X135173333Y-105270000D02*
X135173333Y-105670000D01*
X135173333Y-105470000D02*
X135873333Y-105470000D01*
X135773333Y-105536666D01*
X135706666Y-105603333D01*
X135673333Y-105670000D01*
X161258333Y-107043333D02*
X161258333Y-106610000D01*
X160991666Y-106843333D01*
X160991666Y-106743333D01*
X160958333Y-106676666D01*
X160925000Y-106643333D01*
X160858333Y-106610000D01*
X160691666Y-106610000D01*
X160625000Y-106643333D01*
X160591666Y-106676666D01*
X160558333Y-106743333D01*
X160558333Y-106943333D01*
X160591666Y-107010000D01*
X160625000Y-107043333D01*
X160625000Y-106310000D02*
X160591666Y-106276666D01*
X160558333Y-106310000D01*
X160591666Y-106343333D01*
X160625000Y-106310000D01*
X160558333Y-106310000D01*
X161258333Y-106043333D02*
X161258333Y-105610000D01*
X160991666Y-105843333D01*
X160991666Y-105743333D01*
X160958333Y-105676666D01*
X160925000Y-105643333D01*
X160858333Y-105610000D01*
X160691666Y-105610000D01*
X160625000Y-105643333D01*
X160591666Y-105676666D01*
X160558333Y-105743333D01*
X160558333Y-105943333D01*
X160591666Y-106010000D01*
X160625000Y-106043333D01*
X161258333Y-105410000D02*
X160558333Y-105176666D01*
X161258333Y-104943333D01*
X163750000Y-106638333D02*
X163783333Y-106705000D01*
X163783333Y-106805000D01*
X163750000Y-106905000D01*
X163683333Y-106971666D01*
X163616666Y-107005000D01*
X163483333Y-107038333D01*
X163383333Y-107038333D01*
X163250000Y-107005000D01*
X163183333Y-106971666D01*
X163116666Y-106905000D01*
X163083333Y-106805000D01*
X163083333Y-106738333D01*
X163116666Y-106638333D01*
X163150000Y-106605000D01*
X163383333Y-106605000D01*
X163383333Y-106738333D01*
X163083333Y-106305000D02*
X163783333Y-106305000D01*
X163083333Y-105905000D01*
X163783333Y-105905000D01*
X163083333Y-105571666D02*
X163783333Y-105571666D01*
X163783333Y-105405000D01*
X163750000Y-105305000D01*
X163683333Y-105238333D01*
X163616666Y-105205000D01*
X163483333Y-105171666D01*
X163383333Y-105171666D01*
X163250000Y-105205000D01*
X163183333Y-105238333D01*
X163116666Y-105305000D01*
X163083333Y-105405000D01*
X163083333Y-105571666D01*
X158740000Y-106643333D02*
X158773333Y-106710000D01*
X158773333Y-106810000D01*
X158740000Y-106910000D01*
X158673333Y-106976666D01*
X158606666Y-107010000D01*
X158473333Y-107043333D01*
X158373333Y-107043333D01*
X158240000Y-107010000D01*
X158173333Y-106976666D01*
X158106666Y-106910000D01*
X158073333Y-106810000D01*
X158073333Y-106743333D01*
X158106666Y-106643333D01*
X158140000Y-106610000D01*
X158373333Y-106610000D01*
X158373333Y-106743333D01*
X158073333Y-106310000D02*
X158773333Y-106310000D01*
X158073333Y-105910000D01*
X158773333Y-105910000D01*
X158073333Y-105576666D02*
X158773333Y-105576666D01*
X158773333Y-105410000D01*
X158740000Y-105310000D01*
X158673333Y-105243333D01*
X158606666Y-105210000D01*
X158473333Y-105176666D01*
X158373333Y-105176666D01*
X158240000Y-105210000D01*
X158173333Y-105243333D01*
X158106666Y-105310000D01*
X158073333Y-105410000D01*
X158073333Y-105576666D01*
%TO.C,U2*%
X163431904Y-102605476D02*
X164079523Y-102605476D01*
X164155714Y-102643571D01*
X164193809Y-102681666D01*
X164231904Y-102757857D01*
X164231904Y-102910238D01*
X164193809Y-102986428D01*
X164155714Y-103024523D01*
X164079523Y-103062619D01*
X163431904Y-103062619D01*
X163508095Y-103405476D02*
X163470000Y-103443571D01*
X163431904Y-103519761D01*
X163431904Y-103710238D01*
X163470000Y-103786428D01*
X163508095Y-103824523D01*
X163584285Y-103862619D01*
X163660476Y-103862619D01*
X163774761Y-103824523D01*
X164231904Y-103367380D01*
X164231904Y-103862619D01*
%TO.C,C3*%
X165174285Y-99590000D02*
X165202857Y-99561428D01*
X165231428Y-99475714D01*
X165231428Y-99418571D01*
X165202857Y-99332857D01*
X165145714Y-99275714D01*
X165088571Y-99247142D01*
X164974285Y-99218571D01*
X164888571Y-99218571D01*
X164774285Y-99247142D01*
X164717142Y-99275714D01*
X164660000Y-99332857D01*
X164631428Y-99418571D01*
X164631428Y-99475714D01*
X164660000Y-99561428D01*
X164688571Y-99590000D01*
X164631428Y-99790000D02*
X164631428Y-100161428D01*
X164860000Y-99961428D01*
X164860000Y-100047142D01*
X164888571Y-100104285D01*
X164917142Y-100132857D01*
X164974285Y-100161428D01*
X165117142Y-100161428D01*
X165174285Y-100132857D01*
X165202857Y-100104285D01*
X165231428Y-100047142D01*
X165231428Y-99875714D01*
X165202857Y-99818571D01*
X165174285Y-99790000D01*
D12*
%TO.C,*%
D10*
%TO.C,Hole1*%
X131440000Y-91820000D02*
G75*
G03*
X131440000Y-91820000I-900000J0D01*
G01*
%TO.C,Hole2*%
X131460000Y-107620000D02*
G75*
G03*
X131460000Y-107620000I-900000J0D01*
G01*
%TO.C,Hole3*%
X175870000Y-107580000D02*
G75*
G03*
X175870000Y-107580000I-900000J0D01*
G01*
%TO.C,Hole4*%
X175850000Y-91800000D02*
G75*
G03*
X175850000Y-91800000I-900000J0D01*
G01*
D13*
%TO.C,J2*%
X164710000Y-109830000D02*
X164710000Y-107170000D01*
X131630000Y-109830000D02*
X131630000Y-107170000D01*
X164710000Y-107170000D02*
X131630000Y-107170000D01*
X165980000Y-109830000D02*
X167310000Y-109830000D01*
X167310000Y-109830000D02*
X167310000Y-108500000D01*
X164710000Y-109830000D02*
X131630000Y-109830000D01*
D14*
%TO.C,U2*%
X162989000Y-97504000D02*
X157711000Y-97504000D01*
X157711000Y-101856000D02*
X162989000Y-101856000D01*
X162989000Y-101856000D02*
X162989000Y-97504000D01*
X157711000Y-97504000D02*
X157711000Y-101856000D01*
D12*
X163172000Y-103210000D02*
G75*
G03*
X163172000Y-103210000I-150000J0D01*
G01*
X162405000Y-101104000D02*
G75*
G03*
X162405000Y-101104000I-150000J0D01*
G01*
D13*
%TO.C,C3*%
X164290000Y-99757836D02*
X164290000Y-99542164D01*
X163570000Y-99757836D02*
X163570000Y-99542164D01*
%TO.C,J1*%
X131640000Y-92270000D02*
X131640000Y-89610000D01*
X165990000Y-92270000D02*
X167320000Y-92270000D01*
X164720000Y-92270000D02*
X131640000Y-92270000D01*
X164720000Y-89610000D02*
X131640000Y-89610000D01*
X164720000Y-92270000D02*
X164720000Y-89610000D01*
X167320000Y-92270000D02*
X167320000Y-90940000D01*
%TO.C,*%
G36*
X152880654Y-99846076D02*
G01*
X152887089Y-99857730D01*
X152891776Y-99880724D01*
X152895447Y-99918813D01*
X152898836Y-99975751D01*
X152901978Y-100021449D01*
X152907483Y-100073645D01*
X152914032Y-100115774D01*
X152920796Y-100141570D01*
X152924679Y-100152012D01*
X152927493Y-100192347D01*
X152908460Y-100227099D01*
X152867515Y-100256411D01*
X152857426Y-100261243D01*
X152828935Y-100271331D01*
X152810518Y-100272672D01*
X152805709Y-100270010D01*
X152796651Y-100252516D01*
X152800364Y-100231103D01*
X152815826Y-100216596D01*
X152829620Y-100210170D01*
X152854541Y-100193359D01*
X152859028Y-100189338D01*
X152867148Y-100177246D01*
X152866060Y-100160121D01*
X152855937Y-100130079D01*
X152852910Y-100120664D01*
X152844631Y-100077572D01*
X152839381Y-100022745D01*
X152837501Y-99964429D01*
X152839331Y-99910872D01*
X152845213Y-99870321D01*
X152855236Y-99848057D01*
X152872750Y-99842178D01*
X152880654Y-99846076D01*
G37*
G36*
X153078643Y-101258633D02*
G01*
X153072991Y-101264285D01*
X153067339Y-101258633D01*
X153072991Y-101252981D01*
X153078643Y-101258633D01*
G37*
G36*
X152026552Y-99316933D02*
G01*
X152111063Y-99324412D01*
X152186421Y-99338453D01*
X152259059Y-99360243D01*
X152335408Y-99390969D01*
X152337279Y-99391801D01*
X152382258Y-99414745D01*
X152406668Y-99433993D01*
X152410046Y-99448985D01*
X152391927Y-99459163D01*
X152383856Y-99461033D01*
X152327916Y-99465462D01*
X152263888Y-99459419D01*
X152201530Y-99443696D01*
X152154293Y-99428269D01*
X152081949Y-99407256D01*
X152004651Y-99387108D01*
X151928988Y-99369432D01*
X151861549Y-99355834D01*
X151808921Y-99347923D01*
X151802023Y-99347175D01*
X151762902Y-99341477D01*
X151744205Y-99335140D01*
X151744002Y-99327560D01*
X151760280Y-99322447D01*
X151797036Y-99318477D01*
X151851978Y-99315888D01*
X151922892Y-99314838D01*
X151926456Y-99314830D01*
X152026552Y-99316933D01*
G37*
G36*
X146823055Y-100711669D02*
G01*
X146930217Y-100753240D01*
X147037657Y-100817212D01*
X147110152Y-100867889D01*
X147110152Y-100732999D01*
X147517094Y-100732999D01*
X147517094Y-101999042D01*
X147110152Y-101999042D01*
X147110152Y-101086509D01*
X147039502Y-101054214D01*
X147039042Y-101054004D01*
X146988715Y-101034318D01*
X146939000Y-101023238D01*
X146878421Y-101018199D01*
X146835449Y-101017637D01*
X146780083Y-101023518D01*
X146738876Y-101039708D01*
X146707244Y-101068374D01*
X146680601Y-101111682D01*
X146652341Y-101168201D01*
X146648557Y-101583622D01*
X146644772Y-101999042D01*
X146238025Y-101999042D01*
X146242711Y-101521450D01*
X146243240Y-101468777D01*
X146244585Y-101352491D01*
X146246169Y-101255585D01*
X146248237Y-101175758D01*
X146251037Y-101110707D01*
X146254815Y-101058130D01*
X146259817Y-101015724D01*
X146266289Y-100981188D01*
X146274478Y-100952219D01*
X146284630Y-100926514D01*
X146296992Y-100901772D01*
X146311809Y-100875691D01*
X146358033Y-100812958D01*
X146420671Y-100760691D01*
X146498581Y-100722964D01*
X146593657Y-100698587D01*
X146610453Y-100695961D01*
X146716394Y-100692556D01*
X146823055Y-100711669D01*
G37*
G36*
X152683004Y-101303849D02*
G01*
X152677352Y-101309501D01*
X152671700Y-101303849D01*
X152677352Y-101298197D01*
X152683004Y-101303849D01*
G37*
G36*
X152649093Y-101303849D02*
G01*
X152643441Y-101309501D01*
X152637789Y-101303849D01*
X152643441Y-101298197D01*
X152649093Y-101303849D01*
G37*
G36*
X151869119Y-101953827D02*
G01*
X151868303Y-101959811D01*
X151861583Y-101961363D01*
X151860230Y-101959706D01*
X151861583Y-101946291D01*
X151864983Y-101944522D01*
X151869119Y-101953827D01*
G37*
G36*
X142052567Y-97411992D02*
G01*
X142076418Y-97438406D01*
X142095272Y-97461818D01*
X142102497Y-97474409D01*
X142102190Y-97475351D01*
X142090854Y-97487844D01*
X142065606Y-97510757D01*
X142029760Y-97541178D01*
X141986631Y-97576194D01*
X141938762Y-97614736D01*
X141889183Y-97655475D01*
X141845733Y-97691972D01*
X141814246Y-97719378D01*
X141784911Y-97744925D01*
X141761568Y-97763556D01*
X141749701Y-97770855D01*
X141747770Y-97770305D01*
X141733121Y-97758957D01*
X141710209Y-97736904D01*
X141683907Y-97709370D01*
X141659086Y-97681579D01*
X141640621Y-97658758D01*
X141633383Y-97646131D01*
X141640550Y-97636725D01*
X141662764Y-97616008D01*
X141696735Y-97587010D01*
X141739105Y-97552423D01*
X141786514Y-97514941D01*
X141835605Y-97477254D01*
X141883019Y-97442056D01*
X141925397Y-97412039D01*
X142002637Y-97359147D01*
X142052567Y-97411992D01*
G37*
G36*
X138675427Y-98173763D02*
G01*
X138741353Y-98225810D01*
X138856177Y-98311201D01*
X138803137Y-98363444D01*
X138775986Y-98389008D01*
X138753044Y-98408307D01*
X138740805Y-98415687D01*
X138735987Y-98413887D01*
X138715337Y-98400699D01*
X138682996Y-98377126D01*
X138642606Y-98346046D01*
X138597809Y-98310340D01*
X138552246Y-98272886D01*
X138509561Y-98236566D01*
X138473394Y-98204257D01*
X138405274Y-98141190D01*
X138312430Y-98231491D01*
X138285293Y-98256988D01*
X138233442Y-98302278D01*
X138181212Y-98344396D01*
X138136588Y-98376744D01*
X138053590Y-98431697D01*
X138113981Y-98452350D01*
X138151167Y-98464396D01*
X138243717Y-98490482D01*
X138351717Y-98516755D01*
X138470355Y-98542213D01*
X138594821Y-98565858D01*
X138720306Y-98586688D01*
X138841997Y-98603705D01*
X139000946Y-98623576D01*
X138955037Y-98699692D01*
X138938640Y-98726047D01*
X138917463Y-98755313D01*
X138901117Y-98769362D01*
X138886520Y-98771419D01*
X138872116Y-98768950D01*
X138838289Y-98763601D01*
X138792223Y-98756569D01*
X138739569Y-98748724D01*
X138563526Y-98719299D01*
X138273380Y-98654627D01*
X137995560Y-98571752D01*
X137861964Y-98526495D01*
X137739772Y-98567086D01*
X137691487Y-98582612D01*
X137485605Y-98638256D01*
X137263422Y-98682046D01*
X137023259Y-98714328D01*
X136973122Y-98719879D01*
X136929870Y-98723740D01*
X136899957Y-98722536D01*
X136878353Y-98714098D01*
X136860026Y-98696254D01*
X136839947Y-98666835D01*
X136813084Y-98623671D01*
X136769701Y-98554709D01*
X136952054Y-98547979D01*
X137024481Y-98544592D01*
X137269118Y-98521773D01*
X137501013Y-98481746D01*
X137507928Y-98480258D01*
X137572066Y-98466360D01*
X137615284Y-98455438D01*
X137638549Y-98445364D01*
X137642830Y-98434013D01*
X137629098Y-98419256D01*
X137598320Y-98398969D01*
X137551466Y-98371023D01*
X137478023Y-98324462D01*
X137400824Y-98270166D01*
X137327826Y-98213814D01*
X137264342Y-98159513D01*
X137215686Y-98111373D01*
X137196580Y-98089143D01*
X137181893Y-98065264D01*
X137406918Y-98065264D01*
X137445874Y-98105771D01*
X137453472Y-98113325D01*
X137496034Y-98149320D01*
X137552880Y-98190594D01*
X137618968Y-98233812D01*
X137689255Y-98275637D01*
X137758699Y-98312734D01*
X137779369Y-98322874D01*
X137819498Y-98341485D01*
X137850361Y-98354359D01*
X137866551Y-98359167D01*
X137884986Y-98353811D01*
X137918601Y-98337380D01*
X137962190Y-98312477D01*
X138011514Y-98281748D01*
X138062337Y-98247843D01*
X138110421Y-98213408D01*
X138151527Y-98181093D01*
X138178220Y-98158953D01*
X138208522Y-98133785D01*
X138230899Y-98113550D01*
X138243881Y-98097715D01*
X138246003Y-98085744D01*
X138235795Y-98077104D01*
X138211790Y-98071259D01*
X138172519Y-98067676D01*
X138116516Y-98065819D01*
X138042313Y-98065154D01*
X137948441Y-98065148D01*
X137833432Y-98065264D01*
X137406918Y-98065264D01*
X137181893Y-98065264D01*
X137181635Y-98064844D01*
X137175290Y-98037522D01*
X137173970Y-97997408D01*
X137173970Y-97929617D01*
X137682648Y-97929617D01*
X137723173Y-97929606D01*
X137841965Y-97929400D01*
X137940246Y-97928862D01*
X138019622Y-97927903D01*
X138081699Y-97926432D01*
X138128085Y-97924361D01*
X138160384Y-97921600D01*
X138180204Y-97918059D01*
X138189150Y-97913650D01*
X138188830Y-97908282D01*
X138180848Y-97901867D01*
X138175633Y-97897457D01*
X138158141Y-97878657D01*
X138135916Y-97851890D01*
X138101463Y-97808388D01*
X138178648Y-97774297D01*
X138255832Y-97740205D01*
X138312979Y-97815129D01*
X138337039Y-97845035D01*
X138391112Y-97905752D01*
X138456419Y-97973232D01*
X138528529Y-98043226D01*
X138574921Y-98085744D01*
X138603008Y-98111486D01*
X138675427Y-98173763D01*
G37*
G36*
X152965603Y-101332109D02*
G01*
X152964788Y-101338093D01*
X152958067Y-101339645D01*
X152956715Y-101337988D01*
X152958067Y-101324573D01*
X152961467Y-101322804D01*
X152965603Y-101332109D01*
G37*
G36*
X139570410Y-98833933D02*
G01*
X140712110Y-98833933D01*
X140712110Y-98969581D01*
X139570410Y-98969581D01*
X139570410Y-99253919D01*
X139638436Y-99321945D01*
X139825378Y-99318149D01*
X139886048Y-99316985D01*
X139937850Y-99316408D01*
X139972847Y-99316964D01*
X139994146Y-99318975D01*
X140004857Y-99322763D01*
X140008089Y-99328651D01*
X140006951Y-99336960D01*
X140005164Y-99345308D01*
X139999630Y-99376102D01*
X139993836Y-99413261D01*
X139986089Y-99466955D01*
X139785192Y-99466955D01*
X139773268Y-99466954D01*
X139704092Y-99466790D01*
X139652884Y-99466004D01*
X139615598Y-99464115D01*
X139588188Y-99460638D01*
X139566608Y-99455091D01*
X139546814Y-99446990D01*
X139524758Y-99435853D01*
X139493507Y-99417950D01*
X139465317Y-99395731D01*
X139444893Y-99368754D01*
X139430889Y-99333454D01*
X139421963Y-99286267D01*
X139416770Y-99223626D01*
X139413966Y-99141966D01*
X139410125Y-98969581D01*
X139050428Y-98969581D01*
X139050428Y-98833933D01*
X139412154Y-98833933D01*
X139412154Y-98698286D01*
X139570410Y-98698286D01*
X139570410Y-98833933D01*
G37*
G36*
X153538812Y-99650560D02*
G01*
X153617733Y-99652667D01*
X153705198Y-99656125D01*
X153770888Y-99660311D01*
X153815275Y-99665258D01*
X153838834Y-99670997D01*
X153857671Y-99683529D01*
X153869563Y-99709239D01*
X153860803Y-99741505D01*
X153831487Y-99778945D01*
X153810688Y-99798739D01*
X153788591Y-99814016D01*
X153772227Y-99813997D01*
X153756606Y-99800091D01*
X153750758Y-99791178D01*
X153751744Y-99776135D01*
X153768496Y-99754875D01*
X153794733Y-99726946D01*
X153756025Y-99726822D01*
X153716669Y-99724739D01*
X153676071Y-99719877D01*
X153668363Y-99718654D01*
X153644331Y-99717755D01*
X153629654Y-99727843D01*
X153615437Y-99753913D01*
X153611122Y-99762930D01*
X153599798Y-99785726D01*
X153594511Y-99794940D01*
X153592574Y-99795539D01*
X153575789Y-99801382D01*
X153547757Y-99811400D01*
X153545268Y-99812297D01*
X153513252Y-99823282D01*
X153492380Y-99826886D01*
X153473037Y-99823191D01*
X153445604Y-99812280D01*
X153445321Y-99812161D01*
X153410642Y-99789005D01*
X153382679Y-99755760D01*
X153370524Y-99737285D01*
X153350542Y-99720119D01*
X153324116Y-99715642D01*
X153296237Y-99720862D01*
X153263392Y-99739909D01*
X153252501Y-99749457D01*
X153235631Y-99757251D01*
X153220274Y-99749829D01*
X153215363Y-99745450D01*
X153204385Y-99726634D01*
X153211093Y-99705090D01*
X153236431Y-99676527D01*
X153269875Y-99644485D01*
X153538812Y-99650560D01*
G37*
G36*
X152445621Y-101151245D02*
G01*
X152444805Y-101157230D01*
X152438085Y-101158781D01*
X152436732Y-101157125D01*
X152438085Y-101143709D01*
X152441485Y-101141941D01*
X152445621Y-101151245D01*
G37*
G36*
X152958250Y-100730178D02*
G01*
X152974081Y-100731382D01*
X152981508Y-100736577D01*
X152988211Y-100755874D01*
X152986164Y-100767295D01*
X152974081Y-100782183D01*
X152970438Y-100782989D01*
X152947090Y-100784733D01*
X152907280Y-100785870D01*
X152855450Y-100786307D01*
X152796044Y-100785951D01*
X152767121Y-100785569D01*
X152711551Y-100784535D01*
X152673641Y-100782896D01*
X152649892Y-100780088D01*
X152636803Y-100775548D01*
X152630873Y-100768714D01*
X152628602Y-100759022D01*
X152627924Y-100753125D01*
X152629246Y-100745190D01*
X152636589Y-100739700D01*
X152653271Y-100736084D01*
X152682607Y-100733770D01*
X152727914Y-100732187D01*
X152792509Y-100730762D01*
X152818999Y-100730275D01*
X152876324Y-100729610D01*
X152924203Y-100729583D01*
X152958250Y-100730178D01*
G37*
G36*
X142611175Y-101999042D02*
G01*
X142204233Y-101999042D01*
X142204233Y-101558188D01*
X142611175Y-101558188D01*
X142611175Y-101999042D01*
G37*
G36*
X148308372Y-101999042D02*
G01*
X147901429Y-101999042D01*
X147901429Y-100732999D01*
X148308372Y-100732999D01*
X148308372Y-101999042D01*
G37*
G36*
X142509440Y-97861793D02*
G01*
X143470276Y-97861793D01*
X143470276Y-98020048D01*
X143033864Y-98020048D01*
X143019611Y-98020049D01*
X142911291Y-98020113D01*
X142823287Y-98020350D01*
X142753551Y-98020855D01*
X142700032Y-98021723D01*
X142660683Y-98023048D01*
X142633453Y-98024924D01*
X142616294Y-98027446D01*
X142607157Y-98030708D01*
X142603992Y-98034804D01*
X142604751Y-98039830D01*
X142608700Y-98049214D01*
X142627028Y-98084393D01*
X142655242Y-98132610D01*
X142690910Y-98190076D01*
X142731602Y-98253005D01*
X142774886Y-98317608D01*
X142818330Y-98380099D01*
X142859503Y-98436688D01*
X142895698Y-98483295D01*
X142967219Y-98568800D01*
X143048572Y-98659679D01*
X143135191Y-98751158D01*
X143222506Y-98838465D01*
X143305948Y-98916828D01*
X143380951Y-98981473D01*
X143419293Y-99012612D01*
X143460155Y-99045861D01*
X143493026Y-99072678D01*
X143513120Y-99089162D01*
X143541525Y-99112659D01*
X143482261Y-99188072D01*
X143471680Y-99201411D01*
X143445611Y-99233136D01*
X143426123Y-99255207D01*
X143416809Y-99263484D01*
X143405266Y-99258419D01*
X143378785Y-99239078D01*
X143341178Y-99207460D01*
X143294863Y-99165904D01*
X143242258Y-99116745D01*
X143185781Y-99062320D01*
X143127850Y-99004967D01*
X143070884Y-98947022D01*
X143017300Y-98890822D01*
X142969516Y-98838702D01*
X142929951Y-98793001D01*
X142858409Y-98702607D01*
X142754077Y-98555937D01*
X142656183Y-98400969D01*
X142570267Y-98246127D01*
X142515092Y-98138740D01*
X142512178Y-98825455D01*
X142509265Y-99512171D01*
X142340055Y-99512171D01*
X142337142Y-98825455D01*
X142334228Y-98138740D01*
X142258495Y-98282991D01*
X142186776Y-98412266D01*
X142055500Y-98617335D01*
X141911804Y-98805724D01*
X141757039Y-98975568D01*
X141724064Y-99007603D01*
X141677315Y-99050739D01*
X141627766Y-99094482D01*
X141578643Y-99136165D01*
X141533170Y-99173119D01*
X141494571Y-99202674D01*
X141466071Y-99222164D01*
X141450895Y-99228918D01*
X141447143Y-99226763D01*
X141430904Y-99210994D01*
X141406290Y-99183318D01*
X141376977Y-99147769D01*
X141312739Y-99067273D01*
X141376977Y-99027708D01*
X141497960Y-98946450D01*
X141655903Y-98819189D01*
X141805907Y-98673612D01*
X141945696Y-98511981D01*
X142072990Y-98336559D01*
X142075417Y-98332888D01*
X142108602Y-98281311D01*
X142142620Y-98226244D01*
X142175306Y-98171448D01*
X142204497Y-98120680D01*
X142228027Y-98077699D01*
X142243732Y-98046264D01*
X142249449Y-98030133D01*
X142249333Y-98029888D01*
X142236217Y-98027575D01*
X142202879Y-98025481D01*
X142151481Y-98023657D01*
X142084190Y-98022153D01*
X142003168Y-98021017D01*
X141910582Y-98020299D01*
X141808594Y-98020048D01*
X141367740Y-98020048D01*
X141367740Y-97861793D01*
X142339880Y-97861793D01*
X142339880Y-97319203D01*
X142509440Y-97319203D01*
X142509440Y-97861793D01*
G37*
G36*
X149124613Y-100911036D02*
G01*
X149127909Y-101507320D01*
X149157992Y-101571494D01*
X149186268Y-101619397D01*
X149232927Y-101665792D01*
X149293017Y-101696548D01*
X149368137Y-101712423D01*
X149459889Y-101714171D01*
X149500503Y-101710859D01*
X149579034Y-101694233D01*
X149640785Y-101663708D01*
X149687514Y-101617789D01*
X149720981Y-101554985D01*
X149742946Y-101473800D01*
X149745970Y-101446312D01*
X149748724Y-101396408D01*
X149751026Y-101326004D01*
X149752854Y-101236176D01*
X149754186Y-101128001D01*
X149755002Y-101002556D01*
X149755279Y-100860918D01*
X149755279Y-100314752D01*
X150184829Y-100314752D01*
X150184435Y-100882776D01*
X150184284Y-100986329D01*
X150183810Y-101110543D01*
X150182985Y-101215349D01*
X150181763Y-101302598D01*
X150180098Y-101374144D01*
X150177945Y-101431837D01*
X150175256Y-101477529D01*
X150171986Y-101513072D01*
X150168089Y-101540319D01*
X150167917Y-101541280D01*
X150137642Y-101651873D01*
X150089271Y-101749257D01*
X150023404Y-101832924D01*
X149940644Y-101902368D01*
X149841593Y-101957086D01*
X149726852Y-101996569D01*
X149597023Y-102020314D01*
X149585474Y-102021594D01*
X149418957Y-102029938D01*
X149262746Y-102018203D01*
X149116890Y-101986392D01*
X149064872Y-101969514D01*
X148991187Y-101938105D01*
X148927388Y-101898943D01*
X148865520Y-101847638D01*
X148830963Y-101813127D01*
X148780956Y-101748326D01*
X148743580Y-101674634D01*
X148715067Y-101585482D01*
X148711955Y-101572926D01*
X148707468Y-101552264D01*
X148703735Y-101529883D01*
X148700686Y-101503693D01*
X148698254Y-101471605D01*
X148696370Y-101431531D01*
X148694964Y-101381382D01*
X148693968Y-101319069D01*
X148693313Y-101242503D01*
X148692930Y-101149596D01*
X148692751Y-101038259D01*
X148692706Y-100906402D01*
X148692706Y-100314752D01*
X149121318Y-100314752D01*
X149124613Y-100911036D01*
G37*
G36*
X152731188Y-101232100D02*
G01*
X152733872Y-101241677D01*
X152731555Y-101245097D01*
X152722568Y-101252981D01*
X152720933Y-101252449D01*
X152711264Y-101241677D01*
X152710359Y-101235690D01*
X152722568Y-101230373D01*
X152731188Y-101232100D01*
G37*
G36*
X148319676Y-100540832D02*
G01*
X147890125Y-100540832D01*
X147890125Y-100235625D01*
X148319676Y-100235625D01*
X148319676Y-100540832D01*
G37*
G36*
X138095714Y-100698008D02*
G01*
X138104227Y-100699690D01*
X138169481Y-100719083D01*
X138241858Y-100749645D01*
X138313244Y-100787575D01*
X138375526Y-100829073D01*
X138428710Y-100869682D01*
X138428710Y-100732999D01*
X138835652Y-100732999D01*
X138835652Y-101999042D01*
X138428710Y-101999042D01*
X138428710Y-101086768D01*
X138351506Y-101051183D01*
X138315288Y-101036299D01*
X138240933Y-101017151D01*
X138172130Y-101014428D01*
X138111794Y-101027688D01*
X138062844Y-101056486D01*
X138028195Y-101100378D01*
X138027730Y-101101279D01*
X138021788Y-101113903D01*
X138016936Y-101127896D01*
X138013042Y-101145618D01*
X138009969Y-101169430D01*
X138007584Y-101201690D01*
X138005751Y-101244759D01*
X138004336Y-101300997D01*
X138003205Y-101372763D01*
X138002221Y-101462416D01*
X138001251Y-101572318D01*
X137997691Y-101999042D01*
X137592217Y-101999042D01*
X137592217Y-101085084D01*
X137527219Y-101053195D01*
X137483924Y-101034807D01*
X137436010Y-101023023D01*
X137377441Y-101017878D01*
X137370541Y-101017633D01*
X137304412Y-101020257D01*
X137254908Y-101033828D01*
X137218316Y-101059987D01*
X137190926Y-101100378D01*
X137185541Y-101112087D01*
X137180680Y-101126264D01*
X137176761Y-101144177D01*
X137173652Y-101168184D01*
X137171221Y-101200645D01*
X137169338Y-101243918D01*
X137167871Y-101300363D01*
X137166689Y-101372339D01*
X137165660Y-101462204D01*
X137164653Y-101572318D01*
X137160988Y-101999042D01*
X136753336Y-101999042D01*
X136758789Y-101521450D01*
X136759203Y-101485607D01*
X136760700Y-101367875D01*
X136762343Y-101269767D01*
X136764363Y-101188939D01*
X136766991Y-101123046D01*
X136770460Y-101069744D01*
X136775001Y-101026689D01*
X136780846Y-100991537D01*
X136788227Y-100961944D01*
X136797375Y-100935566D01*
X136808522Y-100910058D01*
X136821900Y-100883077D01*
X136851336Y-100836326D01*
X136909273Y-100777246D01*
X136980965Y-100732412D01*
X137063115Y-100703267D01*
X137152425Y-100691253D01*
X137245596Y-100697812D01*
X137277135Y-100705003D01*
X137346616Y-100729162D01*
X137422666Y-100764361D01*
X137498941Y-100807509D01*
X137569099Y-100855515D01*
X137642064Y-100910985D01*
X137672045Y-100863710D01*
X137692713Y-100834848D01*
X137753435Y-100775994D01*
X137827853Y-100731413D01*
X137912211Y-100702575D01*
X138002751Y-100690950D01*
X138095714Y-100698008D01*
G37*
G36*
X153685813Y-99310471D02*
G01*
X153739486Y-99312269D01*
X153789461Y-99315507D01*
X153831009Y-99319884D01*
X153859405Y-99325097D01*
X153869920Y-99330844D01*
X153867409Y-99333117D01*
X153847980Y-99339127D01*
X153813513Y-99345980D01*
X153769031Y-99352593D01*
X153761061Y-99353694D01*
X153708624Y-99363235D01*
X153643673Y-99377815D01*
X153573703Y-99395654D01*
X153506213Y-99414972D01*
X153438588Y-99434717D01*
X153363277Y-99453414D01*
X153303211Y-99463498D01*
X153255351Y-99465440D01*
X153216654Y-99459710D01*
X153197970Y-99450868D01*
X153197699Y-99437711D01*
X153218193Y-99419979D01*
X153259962Y-99396936D01*
X153305779Y-99376823D01*
X153394496Y-99347365D01*
X153490447Y-99325125D01*
X153584169Y-99312566D01*
X153586275Y-99312407D01*
X153633167Y-99310416D01*
X153685813Y-99310471D01*
G37*
G36*
X152479533Y-101236025D02*
G01*
X152473881Y-101241677D01*
X152468229Y-101236025D01*
X152473881Y-101230373D01*
X152479533Y-101236025D01*
G37*
G36*
X153108787Y-101166317D02*
G01*
X153110555Y-101169717D01*
X153101251Y-101173853D01*
X153095267Y-101173038D01*
X153093715Y-101166317D01*
X153095372Y-101164965D01*
X153108787Y-101166317D01*
G37*
G36*
X152600109Y-101234141D02*
G01*
X152601877Y-101237541D01*
X152592573Y-101241677D01*
X152586588Y-101240861D01*
X152585037Y-101234141D01*
X152586694Y-101232788D01*
X152600109Y-101234141D01*
G37*
G36*
X138440014Y-99500867D02*
G01*
X138440014Y-99398920D01*
X137877642Y-99401852D01*
X137315270Y-99404783D01*
X137308318Y-99500867D01*
X137151362Y-99500867D01*
X137151362Y-99263484D01*
X137309013Y-99263484D01*
X138440014Y-99263484D01*
X138440014Y-98924154D01*
X137877642Y-98927086D01*
X137315270Y-98930017D01*
X137312141Y-99096751D01*
X137309013Y-99263484D01*
X137151362Y-99263484D01*
X137151362Y-98788718D01*
X138598269Y-98788718D01*
X138598269Y-99500867D01*
X138440014Y-99500867D01*
G37*
G36*
X140384295Y-98743502D02*
G01*
X140384295Y-98562638D01*
X139977352Y-98562638D01*
X139977352Y-98709590D01*
X139820176Y-98709590D01*
X139816810Y-98638940D01*
X139813445Y-98568290D01*
X139607148Y-98565209D01*
X139400850Y-98562128D01*
X139400850Y-98698286D01*
X139242595Y-98698286D01*
X139242595Y-98438295D01*
X139400850Y-98438295D01*
X140384295Y-98438295D01*
X140384295Y-98280039D01*
X139977352Y-98280039D01*
X139977352Y-98438295D01*
X139820130Y-98438295D01*
X139816787Y-98361993D01*
X139813445Y-98285691D01*
X139607148Y-98282610D01*
X139400850Y-98279529D01*
X139400850Y-98438295D01*
X139242595Y-98438295D01*
X139242595Y-98155696D01*
X139400850Y-98155696D01*
X140384295Y-98155696D01*
X140384295Y-97997440D01*
X139977352Y-97997440D01*
X139977352Y-98155696D01*
X139819097Y-98155696D01*
X139819097Y-97997440D01*
X139400850Y-97997440D01*
X139400850Y-98155696D01*
X139242595Y-98155696D01*
X139242595Y-97861793D01*
X139819097Y-97861793D01*
X139819097Y-97714841D01*
X139106947Y-97714841D01*
X139106947Y-97579194D01*
X139819097Y-97579194D01*
X139819097Y-97319203D01*
X139977352Y-97319203D01*
X139977352Y-97579194D01*
X140655590Y-97579194D01*
X140655590Y-97714841D01*
X139977352Y-97714841D01*
X139977352Y-97861793D01*
X140542550Y-97861793D01*
X140542550Y-98743502D01*
X140384295Y-98743502D01*
G37*
G36*
X153725946Y-101871594D02*
G01*
X153724879Y-101890031D01*
X153722025Y-101899948D01*
X153717780Y-101906781D01*
X153713803Y-101892840D01*
X153713363Y-101890776D01*
X153707805Y-101878583D01*
X153698355Y-101887188D01*
X153697669Y-101888168D01*
X153690035Y-101897214D01*
X153691635Y-101886991D01*
X153695516Y-101879485D01*
X153713731Y-101868410D01*
X153725946Y-101871594D01*
G37*
G36*
X141028621Y-97940921D02*
G01*
X141254700Y-97940921D01*
X141254700Y-98099176D01*
X141028621Y-98099176D01*
X141028621Y-99500867D01*
X140870365Y-99500867D01*
X140870365Y-98099176D01*
X140655590Y-98099176D01*
X140655590Y-97940921D01*
X140870365Y-97940921D01*
X140870365Y-97319203D01*
X141028621Y-97319203D01*
X141028621Y-97940921D01*
G37*
G36*
X137954896Y-97321827D02*
G01*
X137989029Y-97341979D01*
X138019629Y-97362007D01*
X138033657Y-97378520D01*
X138032408Y-97396684D01*
X138017183Y-97421663D01*
X137989278Y-97458622D01*
X137975763Y-97476071D01*
X137954422Y-97502648D01*
X137937677Y-97524285D01*
X137927165Y-97541483D01*
X137924522Y-97554743D01*
X137931385Y-97564566D01*
X137949392Y-97571454D01*
X137980178Y-97575907D01*
X138025381Y-97578426D01*
X138086638Y-97579514D01*
X138165585Y-97579670D01*
X138263858Y-97579396D01*
X138383096Y-97579194D01*
X138858260Y-97579194D01*
X138858260Y-97997440D01*
X138700005Y-97997440D01*
X138700005Y-97726145D01*
X137038323Y-97726145D01*
X137038323Y-97997440D01*
X136880067Y-97997440D01*
X136880067Y-97579194D01*
X137823544Y-97579194D01*
X137778530Y-97549191D01*
X137763853Y-97539373D01*
X137740328Y-97523451D01*
X137729094Y-97515567D01*
X137732562Y-97506609D01*
X137747551Y-97484021D01*
X137771209Y-97451934D01*
X137800475Y-97414370D01*
X137832285Y-97375354D01*
X137863576Y-97338910D01*
X137904982Y-97292251D01*
X137954896Y-97321827D01*
G37*
G36*
X145482381Y-97771361D02*
G01*
X145776284Y-97771361D01*
X145776284Y-97918313D01*
X145482381Y-97918313D01*
X145482381Y-98401295D01*
X145626507Y-98442993D01*
X145636822Y-98445979D01*
X145690663Y-98461627D01*
X145736506Y-98475048D01*
X145769778Y-98484899D01*
X145785901Y-98489835D01*
X145790357Y-98492517D01*
X145795739Y-98505508D01*
X145796539Y-98532188D01*
X145793112Y-98576851D01*
X145792634Y-98581640D01*
X145788049Y-98621455D01*
X145783617Y-98650887D01*
X145780237Y-98663864D01*
X145777089Y-98663833D01*
X145756953Y-98659178D01*
X145722336Y-98649528D01*
X145677937Y-98636325D01*
X145628456Y-98621011D01*
X145578592Y-98605027D01*
X145533044Y-98589815D01*
X145496511Y-98576817D01*
X145495651Y-98576647D01*
X145491640Y-98581482D01*
X145488471Y-98597363D01*
X145486060Y-98626216D01*
X145484328Y-98669967D01*
X145483192Y-98730544D01*
X145482570Y-98809874D01*
X145482381Y-98909881D01*
X145482381Y-99248239D01*
X145509972Y-99274159D01*
X145511623Y-99275699D01*
X145525619Y-99286904D01*
X145541522Y-99293710D01*
X145564499Y-99296891D01*
X145599714Y-99297220D01*
X145652333Y-99295469D01*
X145767104Y-99290859D01*
X145759279Y-99363921D01*
X145754921Y-99400043D01*
X145749845Y-99433439D01*
X145745704Y-99451969D01*
X145744920Y-99453467D01*
X145733872Y-99459839D01*
X145709029Y-99464002D01*
X145667464Y-99466269D01*
X145606251Y-99466955D01*
X145590691Y-99466917D01*
X145523668Y-99465301D01*
X145473809Y-99460594D01*
X145436632Y-99451820D01*
X145407656Y-99438001D01*
X145382398Y-99418160D01*
X145369982Y-99406430D01*
X145356170Y-99391755D01*
X145345042Y-99375870D01*
X145336267Y-99356398D01*
X145329513Y-99330962D01*
X145324446Y-99297184D01*
X145320736Y-99252686D01*
X145318051Y-99195092D01*
X145316058Y-99122025D01*
X145314426Y-99031106D01*
X145312822Y-98919958D01*
X145307170Y-98514261D01*
X145185652Y-98475918D01*
X145064135Y-98437575D01*
X145064135Y-98270567D01*
X145156588Y-98298959D01*
X145169829Y-98303045D01*
X145215067Y-98317284D01*
X145252823Y-98329569D01*
X145276016Y-98337608D01*
X145294789Y-98344291D01*
X145307906Y-98347863D01*
X145308009Y-98347816D01*
X145309530Y-98335750D01*
X145310851Y-98304772D01*
X145311893Y-98258354D01*
X145312576Y-98199969D01*
X145312822Y-98133088D01*
X145312822Y-97918313D01*
X145052831Y-97918313D01*
X145052831Y-97771361D01*
X145312822Y-97771361D01*
X145312822Y-97330507D01*
X145482381Y-97330507D01*
X145482381Y-97771361D01*
G37*
G36*
X153722969Y-101840787D02*
G01*
X153722153Y-101846771D01*
X153715433Y-101848323D01*
X153714080Y-101846666D01*
X153715433Y-101833251D01*
X153718833Y-101831483D01*
X153722969Y-101840787D01*
G37*
G36*
X152558661Y-101269937D02*
G01*
X152553009Y-101275589D01*
X152547357Y-101269937D01*
X152553009Y-101264285D01*
X152558661Y-101269937D01*
G37*
G36*
X152382344Y-99673946D02*
G01*
X152403856Y-99700336D01*
X152410437Y-99726465D01*
X152396351Y-99748228D01*
X152392615Y-99750934D01*
X152375880Y-99752798D01*
X152352179Y-99738308D01*
X152335603Y-99727051D01*
X152297554Y-99715080D01*
X152264158Y-99724047D01*
X152238162Y-99753585D01*
X152236859Y-99755915D01*
X152212071Y-99786861D01*
X152181897Y-99809762D01*
X152160748Y-99818078D01*
X152112327Y-99822729D01*
X152065251Y-99811036D01*
X152025862Y-99785182D01*
X152000506Y-99747349D01*
X151987811Y-99713635D01*
X151914335Y-99721405D01*
X151877894Y-99725768D01*
X151849004Y-99730257D01*
X151836219Y-99733644D01*
X151837774Y-99741629D01*
X151850349Y-99758853D01*
X151862628Y-99774890D01*
X151867494Y-99796530D01*
X151851344Y-99810476D01*
X151830762Y-99812119D01*
X151799806Y-99796568D01*
X151768170Y-99761962D01*
X151762581Y-99753816D01*
X151747110Y-99721269D01*
X151750572Y-99696387D01*
X151773214Y-99674922D01*
X151784358Y-99669332D01*
X151802249Y-99664389D01*
X151828792Y-99660463D01*
X151866780Y-99657330D01*
X151919003Y-99654764D01*
X151988251Y-99652540D01*
X152077316Y-99650435D01*
X152352979Y-99644580D01*
X152382344Y-99673946D01*
G37*
G36*
X144810077Y-98395200D02*
G01*
X144788355Y-98460088D01*
X144760135Y-98534641D01*
X144728615Y-98611016D01*
X144696994Y-98681367D01*
X144668471Y-98737850D01*
X144644965Y-98778249D01*
X144598764Y-98850574D01*
X144544708Y-98928726D01*
X144487276Y-99006074D01*
X144463496Y-99036915D01*
X144557518Y-99097999D01*
X144591799Y-99119578D01*
X144690007Y-99175908D01*
X144798544Y-99231754D01*
X144909075Y-99282956D01*
X145013267Y-99325358D01*
X145050174Y-99339217D01*
X145090343Y-99354587D01*
X145118346Y-99365652D01*
X145129663Y-99370652D01*
X145129586Y-99371850D01*
X145121497Y-99386056D01*
X145103567Y-99412461D01*
X145078795Y-99446589D01*
X145024571Y-99519361D01*
X144936537Y-99482100D01*
X144868803Y-99452125D01*
X144732927Y-99385285D01*
X144598000Y-99310883D01*
X144474685Y-99234632D01*
X144462030Y-99226289D01*
X144416502Y-99196540D01*
X144379011Y-99172457D01*
X144353150Y-99156329D01*
X144342513Y-99150444D01*
X144340900Y-99151095D01*
X144325490Y-99160904D01*
X144297972Y-99180043D01*
X144262936Y-99205347D01*
X144239167Y-99222543D01*
X144103685Y-99311835D01*
X143957015Y-99393802D01*
X143793455Y-99471678D01*
X143733269Y-99498295D01*
X143665535Y-99417130D01*
X143597801Y-99335964D01*
X143706424Y-99298870D01*
X143724711Y-99292480D01*
X143787798Y-99268864D01*
X143852166Y-99242866D01*
X143906384Y-99219047D01*
X143937389Y-99203795D01*
X143987987Y-99176727D01*
X144041447Y-99146163D01*
X144093189Y-99114894D01*
X144138632Y-99085714D01*
X144173195Y-99061412D01*
X144192297Y-99044783D01*
X144194487Y-99035643D01*
X144186633Y-99017201D01*
X144165708Y-98988280D01*
X144130085Y-98946302D01*
X144112133Y-98925530D01*
X144044576Y-98840137D01*
X143980467Y-98748256D01*
X143921519Y-98653172D01*
X143869446Y-98558171D01*
X143825962Y-98466538D01*
X143792781Y-98381559D01*
X143776900Y-98325255D01*
X143954823Y-98325255D01*
X143962341Y-98350689D01*
X143965763Y-98361577D01*
X143986623Y-98416013D01*
X144015935Y-98480989D01*
X144050409Y-98549854D01*
X144086752Y-98615957D01*
X144121673Y-98672646D01*
X144134632Y-98691579D01*
X144175955Y-98747464D01*
X144220917Y-98803343D01*
X144261853Y-98849544D01*
X144336218Y-98927528D01*
X144393057Y-98855297D01*
X144395957Y-98851604D01*
X144481253Y-98734376D01*
X144549975Y-98620089D01*
X144605758Y-98501983D01*
X144652237Y-98373297D01*
X144667415Y-98325255D01*
X143954823Y-98325255D01*
X143776900Y-98325255D01*
X143771615Y-98306520D01*
X143764179Y-98244707D01*
X143764179Y-98178304D01*
X144238946Y-98178304D01*
X144238946Y-97839185D01*
X143639836Y-97839185D01*
X143639836Y-97680929D01*
X144238946Y-97680929D01*
X144238946Y-97319203D01*
X144408505Y-97319203D01*
X144408505Y-97680929D01*
X144985007Y-97680929D01*
X144985007Y-97839185D01*
X144408505Y-97839185D01*
X144408505Y-98178304D01*
X144985007Y-98178304D01*
X144985007Y-98325255D01*
X144829690Y-98325255D01*
X144814805Y-98378949D01*
X144810077Y-98395200D01*
G37*
G36*
X153112555Y-101236025D02*
G01*
X153106903Y-101241677D01*
X153101251Y-101236025D01*
X153106903Y-101230373D01*
X153112555Y-101236025D01*
G37*
G36*
X139580606Y-97333408D02*
G01*
X139597450Y-97350755D01*
X139616811Y-97378548D01*
X139646001Y-97426590D01*
X139520599Y-97489999D01*
X139517728Y-97491450D01*
X139468927Y-97515700D01*
X139427158Y-97535737D01*
X139396778Y-97549518D01*
X139382143Y-97554997D01*
X139375948Y-97552825D01*
X139360338Y-97536789D01*
X139342724Y-97510985D01*
X139327097Y-97482303D01*
X139317445Y-97457629D01*
X139317761Y-97443852D01*
X139329947Y-97436453D01*
X139358592Y-97422121D01*
X139397984Y-97403694D01*
X139442928Y-97383469D01*
X139488227Y-97363742D01*
X139528685Y-97346808D01*
X139559105Y-97334965D01*
X139574292Y-97330507D01*
X139580606Y-97333408D01*
G37*
G36*
X140508197Y-101506858D02*
G01*
X140478794Y-101625558D01*
X140431639Y-101731258D01*
X140367474Y-101823077D01*
X140287044Y-101900132D01*
X140191091Y-101961543D01*
X140080361Y-102006428D01*
X139955597Y-102033906D01*
X139954094Y-102034114D01*
X139894141Y-102038538D01*
X139820828Y-102038416D01*
X139742587Y-102034196D01*
X139667851Y-102026327D01*
X139605052Y-102015257D01*
X139516079Y-101987845D01*
X139414635Y-101936647D01*
X139326873Y-101868058D01*
X139253874Y-101783150D01*
X139196713Y-101682998D01*
X139156471Y-101568675D01*
X139149804Y-101537159D01*
X139141319Y-101466282D01*
X139137975Y-101390320D01*
X139554293Y-101390320D01*
X139555347Y-101455828D01*
X139558583Y-101505240D01*
X139564449Y-101543488D01*
X139573393Y-101575502D01*
X139578680Y-101589579D01*
X139613098Y-101653329D01*
X139658674Y-101705353D01*
X139710910Y-101740263D01*
X139732054Y-101748659D01*
X139800228Y-101762144D01*
X139870031Y-101758455D01*
X139936247Y-101738914D01*
X139993661Y-101704845D01*
X140037058Y-101657569D01*
X140050602Y-101635544D01*
X140069624Y-101597083D01*
X140082679Y-101555834D01*
X140090765Y-101506862D01*
X140094879Y-101445236D01*
X140096019Y-101366021D01*
X140095669Y-101326130D01*
X140091752Y-101246099D01*
X140082599Y-101182336D01*
X140067105Y-101130601D01*
X140044164Y-101086650D01*
X140012671Y-101046243D01*
X139987747Y-101021182D01*
X139943821Y-100991029D01*
X139892867Y-100975126D01*
X139827938Y-100970630D01*
X139784594Y-100973032D01*
X139716534Y-100989653D01*
X139661261Y-101023379D01*
X139616651Y-101075734D01*
X139580582Y-101148243D01*
X139579060Y-101152172D01*
X139568697Y-101182669D01*
X139561704Y-101213815D01*
X139557421Y-101251098D01*
X139555186Y-101300005D01*
X139554338Y-101366021D01*
X139554293Y-101390320D01*
X139137975Y-101390320D01*
X139137765Y-101385550D01*
X139139140Y-101302877D01*
X139145439Y-101226178D01*
X139156660Y-101163366D01*
X139186353Y-101072743D01*
X139239723Y-100969244D01*
X139309542Y-100881001D01*
X139395111Y-100808705D01*
X139495732Y-100753047D01*
X139610704Y-100714718D01*
X139645370Y-100707836D01*
X139720881Y-100699173D01*
X139805803Y-100695486D01*
X139892271Y-100696782D01*
X139972421Y-100703068D01*
X140038389Y-100714350D01*
X140090793Y-100729211D01*
X140200234Y-100775557D01*
X140294760Y-100838362D01*
X140373673Y-100916677D01*
X140436269Y-101009550D01*
X140481849Y-101116032D01*
X140509711Y-101235172D01*
X140519154Y-101366021D01*
X140519102Y-101376039D01*
X140508197Y-101506858D01*
G37*
G36*
X152999515Y-101236025D02*
G01*
X152993863Y-101241677D01*
X152988211Y-101236025D01*
X152993863Y-101230373D01*
X152999515Y-101236025D01*
G37*
G36*
X151903031Y-101869047D02*
G01*
X151897379Y-101874699D01*
X151891727Y-101869047D01*
X151897379Y-101863395D01*
X151903031Y-101869047D01*
G37*
G36*
X152639908Y-101233955D02*
G01*
X152645140Y-101238024D01*
X152633079Y-101240785D01*
X152621613Y-101239985D01*
X152618242Y-101234848D01*
X152622241Y-101232608D01*
X152639908Y-101233955D01*
G37*
G36*
X152563417Y-101231261D02*
G01*
X152564313Y-101241677D01*
X152561993Y-101245060D01*
X152552342Y-101252981D01*
X152551214Y-101252687D01*
X152547357Y-101241677D01*
X152547817Y-101238579D01*
X152559328Y-101230373D01*
X152563417Y-101231261D01*
G37*
G36*
X153214291Y-101168201D02*
G01*
X153208639Y-101173853D01*
X153202987Y-101168201D01*
X153208639Y-101162549D01*
X153214291Y-101168201D01*
G37*
G36*
X153768185Y-101959479D02*
G01*
X153762533Y-101965131D01*
X153756881Y-101959479D01*
X153762533Y-101953827D01*
X153768185Y-101959479D01*
G37*
G36*
X151914335Y-101818179D02*
G01*
X151913519Y-101824163D01*
X151906799Y-101825715D01*
X151905446Y-101824058D01*
X151906799Y-101810643D01*
X151910199Y-101808875D01*
X151914335Y-101818179D01*
G37*
G36*
X140356453Y-99007743D02*
G01*
X140376667Y-99024977D01*
X140401923Y-99050941D01*
X140444789Y-99098389D01*
X140412923Y-99121591D01*
X140394230Y-99135357D01*
X140360591Y-99160340D01*
X140318337Y-99191854D01*
X140272463Y-99226177D01*
X140272082Y-99226462D01*
X140229560Y-99258008D01*
X140193836Y-99283916D01*
X140168650Y-99301514D01*
X140157743Y-99308130D01*
X140148659Y-99302115D01*
X140128143Y-99283749D01*
X140101224Y-99257258D01*
X140050828Y-99205816D01*
X140079088Y-99183986D01*
X140100179Y-99168158D01*
X140138292Y-99140779D01*
X140182257Y-99110155D01*
X140228023Y-99079005D01*
X140271540Y-99050045D01*
X140308758Y-99025995D01*
X140335625Y-99009571D01*
X140348090Y-99003493D01*
X140356453Y-99007743D01*
G37*
G36*
X152685124Y-101233955D02*
G01*
X152690356Y-101238024D01*
X152678294Y-101240785D01*
X152666829Y-101239985D01*
X152663458Y-101234848D01*
X152667457Y-101232608D01*
X152685124Y-101233955D01*
G37*
G36*
X152445621Y-101179505D02*
G01*
X152439969Y-101185157D01*
X152434317Y-101179505D01*
X152439969Y-101173853D01*
X152445621Y-101179505D01*
G37*
G36*
X152536053Y-101236025D02*
G01*
X152530401Y-101241677D01*
X152524749Y-101236025D01*
X152530401Y-101230373D01*
X152536053Y-101236025D01*
G37*
G36*
X145911932Y-100619959D02*
G01*
X145640637Y-100619959D01*
X145640637Y-101693836D01*
X145911932Y-101693836D01*
X145911932Y-101999042D01*
X144939791Y-101999042D01*
X144939791Y-101693836D01*
X145211086Y-101693836D01*
X145211086Y-100619959D01*
X144939791Y-100619959D01*
X144939791Y-100314752D01*
X145911932Y-100314752D01*
X145911932Y-100619959D01*
G37*
G36*
X144666232Y-101214965D02*
G01*
X144660182Y-101306403D01*
X144649726Y-101389088D01*
X144635084Y-101456268D01*
X144632031Y-101466506D01*
X144582857Y-101590881D01*
X144515923Y-101702250D01*
X144432738Y-101799342D01*
X144334810Y-101880884D01*
X144223647Y-101945603D01*
X144100758Y-101992226D01*
X143967651Y-102019481D01*
X143889333Y-102027718D01*
X143818114Y-102030896D01*
X143747933Y-102028470D01*
X143668096Y-102020475D01*
X143599872Y-102009988D01*
X143465058Y-101974714D01*
X143344460Y-101922106D01*
X143238540Y-101852565D01*
X143147757Y-101766493D01*
X143072573Y-101664291D01*
X143013447Y-101546360D01*
X142970840Y-101413100D01*
X142967020Y-101396292D01*
X142952856Y-101303455D01*
X142946224Y-101199098D01*
X142946300Y-101189904D01*
X143391939Y-101189904D01*
X143394542Y-101264426D01*
X143401719Y-101327666D01*
X143403474Y-101337349D01*
X143430730Y-101434213D01*
X143472758Y-101521050D01*
X143527437Y-101594939D01*
X143592646Y-101652956D01*
X143666265Y-101692180D01*
X143719581Y-101707456D01*
X143805050Y-101716014D01*
X143891082Y-101707753D01*
X143971710Y-101683444D01*
X144040967Y-101643856D01*
X144074132Y-101615152D01*
X144131991Y-101543575D01*
X144176546Y-101455710D01*
X144207191Y-101353308D01*
X144223324Y-101238122D01*
X144224341Y-101111903D01*
X144222648Y-101084795D01*
X144206101Y-100961639D01*
X144176013Y-100856206D01*
X144132493Y-100768638D01*
X144075656Y-100699081D01*
X144005611Y-100647678D01*
X143922472Y-100614575D01*
X143826351Y-100599913D01*
X143797596Y-100598750D01*
X143750798Y-100599826D01*
X143711290Y-100606603D01*
X143669013Y-100620390D01*
X143667563Y-100620940D01*
X143588972Y-100662231D01*
X143522510Y-100721751D01*
X143467662Y-100800083D01*
X143423914Y-100897810D01*
X143420616Y-100907865D01*
X143408249Y-100963082D01*
X143399126Y-101032789D01*
X143393578Y-101110544D01*
X143391939Y-101189904D01*
X142946300Y-101189904D01*
X142947115Y-101091350D01*
X142955521Y-100988343D01*
X142971431Y-100898208D01*
X142976838Y-100876971D01*
X143021780Y-100747838D01*
X143083589Y-100632797D01*
X143161432Y-100532769D01*
X143254478Y-100448677D01*
X143361893Y-100381441D01*
X143482845Y-100331985D01*
X143554129Y-100312617D01*
X143684001Y-100291313D01*
X143817700Y-100285340D01*
X143950807Y-100294296D01*
X144078902Y-100317778D01*
X144197567Y-100355382D01*
X144302382Y-100406707D01*
X144314465Y-100414164D01*
X144410570Y-100488035D01*
X144493741Y-100579125D01*
X144562620Y-100685381D01*
X144615847Y-100804748D01*
X144652063Y-100935172D01*
X144655746Y-100955653D01*
X144664234Y-101032838D01*
X144667285Y-101111903D01*
X144667656Y-101121525D01*
X144666232Y-101214965D01*
G37*
G36*
X152220589Y-100433449D02*
G01*
X152242837Y-100439703D01*
X152251711Y-100461704D01*
X152256422Y-100482070D01*
X152266036Y-100502661D01*
X152274261Y-100509170D01*
X152306282Y-100521173D01*
X152356713Y-100531681D01*
X152422780Y-100540580D01*
X152501707Y-100547756D01*
X152590718Y-100553096D01*
X152687040Y-100556485D01*
X152787897Y-100557810D01*
X152890514Y-100556958D01*
X152992116Y-100553813D01*
X153089928Y-100548263D01*
X153181175Y-100540193D01*
X153240002Y-100532884D01*
X153290843Y-100523306D01*
X153324864Y-100511586D01*
X153345191Y-100496589D01*
X153354951Y-100477182D01*
X153355020Y-100476907D01*
X153366040Y-100455855D01*
X153387076Y-100452492D01*
X153397350Y-100454944D01*
X153409104Y-100467042D01*
X153412110Y-100494396D01*
X153411835Y-100502497D01*
X153405896Y-100527583D01*
X153390543Y-100547998D01*
X153363577Y-100564528D01*
X153322798Y-100577958D01*
X153266008Y-100589074D01*
X153191008Y-100598663D01*
X153095599Y-100607509D01*
X153064154Y-100609857D01*
X152956542Y-100615069D01*
X152839721Y-100617103D01*
X152718973Y-100616110D01*
X152599583Y-100612241D01*
X152486835Y-100605646D01*
X152386013Y-100596477D01*
X152302400Y-100584883D01*
X152252478Y-100572139D01*
X152212800Y-100549527D01*
X152191787Y-100517180D01*
X152187906Y-100473610D01*
X152191044Y-100451230D01*
X152200117Y-100436801D01*
X152219542Y-100433444D01*
X152220589Y-100433449D01*
G37*
G36*
X150049182Y-99003493D02*
G01*
X150049182Y-98845237D01*
X149419536Y-98845237D01*
X149412712Y-99023275D01*
X149411300Y-99055234D01*
X149407444Y-99118274D01*
X149402677Y-99174030D01*
X149397473Y-99217395D01*
X149392305Y-99243264D01*
X149371299Y-99290257D01*
X149326543Y-99344594D01*
X149264787Y-99384883D01*
X149187060Y-99410288D01*
X149178761Y-99411455D01*
X149146154Y-99413665D01*
X149095615Y-99415497D01*
X149030311Y-99416891D01*
X148953410Y-99417790D01*
X148868079Y-99418134D01*
X148777486Y-99417866D01*
X148747806Y-99417671D01*
X148645738Y-99416815D01*
X148562989Y-99415470D01*
X148496944Y-99413191D01*
X148444986Y-99409534D01*
X148404499Y-99404055D01*
X148372867Y-99396308D01*
X148347475Y-99385850D01*
X148325706Y-99372235D01*
X148304944Y-99355019D01*
X148282573Y-99333758D01*
X148259117Y-99306376D01*
X148235417Y-99265123D01*
X148214864Y-99211073D01*
X148196252Y-99140958D01*
X148178375Y-99051508D01*
X148175178Y-99033694D01*
X148166791Y-98987659D01*
X148159830Y-98950379D01*
X148155548Y-98928607D01*
X148154932Y-98925164D01*
X148156613Y-98912963D01*
X148168079Y-98902171D01*
X148193276Y-98890120D01*
X148236152Y-98874145D01*
X148248394Y-98869848D01*
X148286470Y-98857173D01*
X148313846Y-98849128D01*
X148325262Y-98847295D01*
X148327875Y-98858109D01*
X148332950Y-98887045D01*
X148339665Y-98929491D01*
X148347268Y-98980885D01*
X148359689Y-99054633D01*
X148376857Y-99123124D01*
X148397777Y-99173852D01*
X148423561Y-99209408D01*
X148455323Y-99232381D01*
X148455456Y-99232447D01*
X148469364Y-99238282D01*
X148486746Y-99242852D01*
X148510335Y-99246305D01*
X148542864Y-99248788D01*
X148587067Y-99250451D01*
X148645677Y-99251441D01*
X148721427Y-99251906D01*
X148817050Y-99251996D01*
X148876757Y-99251937D01*
X148965491Y-99251513D01*
X149035572Y-99250315D01*
X149089522Y-99247912D01*
X149129862Y-99243877D01*
X149159113Y-99237780D01*
X149179798Y-99229193D01*
X149194438Y-99217686D01*
X149205554Y-99202831D01*
X149215668Y-99184199D01*
X149223479Y-99165649D01*
X149229251Y-99141239D01*
X149232416Y-99108242D01*
X149233399Y-99061995D01*
X149232624Y-98997841D01*
X149229644Y-98850889D01*
X148819876Y-98847922D01*
X148410107Y-98844955D01*
X148410107Y-98686982D01*
X148590971Y-98686982D01*
X150049182Y-98686982D01*
X150049182Y-98313951D01*
X149416160Y-98313951D01*
X149416160Y-98686982D01*
X149235296Y-98686982D01*
X149235296Y-98313951D01*
X148590971Y-98313951D01*
X148590971Y-98686982D01*
X148410107Y-98686982D01*
X148410107Y-98155696D01*
X148590971Y-98155696D01*
X150049182Y-98155696D01*
X150049182Y-97771361D01*
X149416160Y-97771361D01*
X149416160Y-98155696D01*
X149235843Y-98155696D01*
X149232744Y-97966354D01*
X149229644Y-97777013D01*
X148910307Y-97774011D01*
X148590971Y-97771009D01*
X148590971Y-98155696D01*
X148410107Y-98155696D01*
X148410107Y-97613106D01*
X149235296Y-97613106D01*
X149235296Y-97330507D01*
X149416160Y-97330507D01*
X149416160Y-97613106D01*
X150230045Y-97613106D01*
X150230045Y-99003493D01*
X150049182Y-99003493D01*
G37*
G36*
X152622717Y-101301965D02*
G01*
X152624485Y-101305365D01*
X152615181Y-101309501D01*
X152609196Y-101308685D01*
X152607645Y-101301965D01*
X152609301Y-101300612D01*
X152622717Y-101301965D01*
G37*
G36*
X153638858Y-101247923D02*
G01*
X153682982Y-101338114D01*
X153728817Y-101443136D01*
X153775336Y-101560654D01*
X153821515Y-101688331D01*
X153866329Y-101823831D01*
X153873837Y-101847590D01*
X153891170Y-101902362D01*
X153905747Y-101948315D01*
X153916219Y-101981202D01*
X153921239Y-101996776D01*
X153918499Y-102005213D01*
X153900447Y-102008762D01*
X153863572Y-102008080D01*
X153800983Y-102004694D01*
X153773395Y-101925567D01*
X153772142Y-101921981D01*
X153757660Y-101881222D01*
X153745467Y-101848098D01*
X153738089Y-101829483D01*
X153732974Y-101814452D01*
X153727248Y-101785786D01*
X153724009Y-101767847D01*
X153718210Y-101753132D01*
X153713949Y-101752454D01*
X153705640Y-101764502D01*
X153698350Y-101786992D01*
X153694280Y-101812198D01*
X153695632Y-101832392D01*
X153698016Y-101847382D01*
X153688958Y-101846378D01*
X153684528Y-101845238D01*
X153679617Y-101854092D01*
X153678059Y-101879371D01*
X153679489Y-101924090D01*
X153683844Y-102010346D01*
X151925639Y-102010346D01*
X151925639Y-101987071D01*
X151927402Y-101973992D01*
X151934117Y-101969030D01*
X151938902Y-101969029D01*
X151944135Y-101954652D01*
X151945409Y-101926497D01*
X151942947Y-101889943D01*
X151936970Y-101850369D01*
X151927698Y-101813155D01*
X151906588Y-101746497D01*
X151893982Y-101782657D01*
X151893523Y-101784002D01*
X151887099Y-101814291D01*
X151888473Y-101837308D01*
X151890724Y-101847047D01*
X151884360Y-101848872D01*
X151882907Y-101848595D01*
X151873266Y-101859381D01*
X151860144Y-101886657D01*
X151845701Y-101926111D01*
X151818251Y-102010276D01*
X151775100Y-102010311D01*
X151751234Y-102009278D01*
X151737690Y-102003588D01*
X151737662Y-101990565D01*
X151738510Y-101987571D01*
X151744873Y-101964488D01*
X151755509Y-101925487D01*
X151769164Y-101875180D01*
X151784581Y-101818179D01*
X151825009Y-101674466D01*
X151866986Y-101539416D01*
X151907822Y-101423703D01*
X151948141Y-101325691D01*
X151988570Y-101243744D01*
X152029731Y-101176228D01*
X152057794Y-101143137D01*
X152087168Y-101117924D01*
X152382279Y-101117924D01*
X152382726Y-101132332D01*
X152383239Y-101135767D01*
X152391691Y-101164019D01*
X152405956Y-101196386D01*
X152408043Y-101200390D01*
X152420671Y-101221981D01*
X152428198Y-101225543D01*
X152434430Y-101213342D01*
X152439356Y-101202168D01*
X152444364Y-101204287D01*
X152450364Y-101226603D01*
X152450596Y-101227619D01*
X152460979Y-101254107D01*
X152474572Y-101268638D01*
X152481424Y-101270165D01*
X152489586Y-101263781D01*
X152492466Y-101242304D01*
X152490956Y-101202113D01*
X152490850Y-101200413D01*
X152491493Y-101179744D01*
X152495706Y-101175092D01*
X152498176Y-101180504D01*
X152502462Y-101203737D01*
X152505263Y-101237263D01*
X152506419Y-101257355D01*
X152510533Y-101281196D01*
X152520216Y-101292034D01*
X152539071Y-101296140D01*
X152559121Y-101301635D01*
X152563945Y-101310096D01*
X152565020Y-101317912D01*
X152580036Y-101332814D01*
X152604808Y-101348504D01*
X152632587Y-101360915D01*
X152656628Y-101365978D01*
X152672093Y-101368556D01*
X152685399Y-101378857D01*
X152688374Y-101380578D01*
X152695683Y-101369143D01*
X152704455Y-101346404D01*
X152712593Y-101318885D01*
X152718003Y-101293106D01*
X152718304Y-101284067D01*
X152796445Y-101284067D01*
X152803238Y-101293384D01*
X152824304Y-101298197D01*
X152834325Y-101297847D01*
X152849008Y-101292383D01*
X152850542Y-101276469D01*
X152840408Y-101245239D01*
X152828252Y-101213417D01*
X152909084Y-101213417D01*
X152910691Y-101221268D01*
X152923214Y-101230546D01*
X152929899Y-101232437D01*
X152920910Y-101241115D01*
X152918367Y-101242828D01*
X152910300Y-101255843D01*
X152916982Y-101276469D01*
X152917374Y-101277680D01*
X152926408Y-101298116D01*
X152937063Y-101328239D01*
X152940908Y-101338832D01*
X152959631Y-101357261D01*
X152991037Y-101357454D01*
X153000455Y-101352771D01*
X153006924Y-101339515D01*
X153010023Y-101313215D01*
X153010819Y-101269108D01*
X153010789Y-101255136D01*
X153009838Y-101217461D01*
X153007482Y-101202113D01*
X153022123Y-101202113D01*
X153025635Y-101220750D01*
X153036253Y-101230546D01*
X153044078Y-101232232D01*
X153035520Y-101240145D01*
X153035241Y-101240326D01*
X153025437Y-101259513D01*
X153025114Y-101269108D01*
X153024216Y-101295779D01*
X153024465Y-101298939D01*
X153028066Y-101325918D01*
X153034782Y-101335075D01*
X153047557Y-101330835D01*
X153059251Y-101319758D01*
X153068650Y-101294809D01*
X153068843Y-101291516D01*
X153070990Y-101279586D01*
X153075059Y-101289342D01*
X153076311Y-101293614D01*
X153084484Y-101302706D01*
X153102007Y-101295101D01*
X153114351Y-101283266D01*
X153121804Y-101260573D01*
X153123859Y-101222002D01*
X153123899Y-101219069D01*
X153137097Y-101219069D01*
X153138118Y-101234295D01*
X153144022Y-101258857D01*
X153154332Y-101261656D01*
X153168677Y-101242420D01*
X153171651Y-101236497D01*
X153180453Y-101205176D01*
X153175579Y-101182554D01*
X153157852Y-101173853D01*
X153144405Y-101176574D01*
X153137690Y-101189640D01*
X153137097Y-101219069D01*
X153123899Y-101219069D01*
X153124224Y-101194914D01*
X153127257Y-101173168D01*
X153135660Y-101164262D01*
X153152119Y-101162549D01*
X153191683Y-101162549D01*
X153191899Y-101182880D01*
X153192897Y-101205176D01*
X153193063Y-101208894D01*
X153194897Y-101219069D01*
X153195291Y-101218921D01*
X153203593Y-101208361D01*
X153217505Y-101186239D01*
X153226191Y-101169854D01*
X153236358Y-101136832D01*
X153232343Y-101114339D01*
X153214291Y-101106030D01*
X153209061Y-101106271D01*
X153197925Y-101111741D01*
X153197039Y-101114706D01*
X153192873Y-101128649D01*
X153192278Y-101145593D01*
X153191683Y-101162549D01*
X153152119Y-101162549D01*
X153170552Y-101159231D01*
X153180379Y-101145593D01*
X153179007Y-101136823D01*
X153165558Y-101129249D01*
X153137835Y-101139116D01*
X153126160Y-101144806D01*
X153097202Y-101156187D01*
X153089604Y-101159484D01*
X153080364Y-101173571D01*
X153080802Y-101202228D01*
X153080982Y-101203836D01*
X153080671Y-101231563D01*
X153072679Y-101241677D01*
X153064914Y-101232986D01*
X153064928Y-101207765D01*
X153066531Y-101192556D01*
X153062422Y-101177439D01*
X153046014Y-101173853D01*
X153045453Y-101173856D01*
X153027222Y-101180162D01*
X153022123Y-101202113D01*
X153007482Y-101202113D01*
X153006602Y-101196377D01*
X152999816Y-101187178D01*
X152988211Y-101185157D01*
X152973920Y-101188681D01*
X152965603Y-101207098D01*
X152963949Y-101220038D01*
X152955354Y-101235374D01*
X152950276Y-101234383D01*
X152951020Y-101219085D01*
X152951044Y-101218994D01*
X152950591Y-101201242D01*
X152933010Y-101196461D01*
X152918629Y-101199641D01*
X152909084Y-101213417D01*
X152828252Y-101213417D01*
X152827290Y-101215149D01*
X152812549Y-101241677D01*
X152801915Y-101264296D01*
X152796445Y-101284067D01*
X152718304Y-101284067D01*
X152718587Y-101275589D01*
X152717843Y-101267968D01*
X152723207Y-101266940D01*
X152723305Y-101267034D01*
X152733735Y-101264095D01*
X152746889Y-101245866D01*
X152751862Y-101236141D01*
X152760612Y-101215149D01*
X152756796Y-101208188D01*
X152739524Y-101211041D01*
X152725951Y-101212783D01*
X152716916Y-101207990D01*
X152714948Y-101205188D01*
X152697486Y-101197947D01*
X152667831Y-101191667D01*
X152658138Y-101190197D01*
X152619410Y-101184067D01*
X152588703Y-101178859D01*
X152584082Y-101178093D01*
X152563842Y-101179338D01*
X152557534Y-101193414D01*
X152557461Y-101194551D01*
X152554531Y-101200840D01*
X152548546Y-101185157D01*
X152539593Y-101167170D01*
X152518587Y-101156897D01*
X152505479Y-101155432D01*
X152489823Y-101147859D01*
X152485199Y-101144285D01*
X152463393Y-101134244D01*
X152431568Y-101123294D01*
X152407899Y-101116380D01*
X152398808Y-101114735D01*
X152597510Y-101114735D01*
X152598551Y-101115239D01*
X152614909Y-101119470D01*
X152646576Y-101126301D01*
X152687995Y-101134517D01*
X152691210Y-101135126D01*
X152740745Y-101143137D01*
X152787759Y-101148594D01*
X152822472Y-101150347D01*
X152849460Y-101148202D01*
X152894266Y-101141980D01*
X152944322Y-101133283D01*
X152990562Y-101123708D01*
X153023917Y-101114852D01*
X153024124Y-101114706D01*
X153013412Y-101113747D01*
X152983800Y-101112917D01*
X152938525Y-101112263D01*
X152880826Y-101111835D01*
X152813942Y-101111682D01*
X152804965Y-101111684D01*
X152738485Y-101111870D01*
X152681128Y-101112315D01*
X152636266Y-101112973D01*
X152607270Y-101113795D01*
X152597510Y-101114735D01*
X152398808Y-101114735D01*
X152388877Y-101112938D01*
X152382279Y-101117924D01*
X152087168Y-101117924D01*
X152107151Y-101100771D01*
X152164293Y-101063612D01*
X152221239Y-101037447D01*
X152262500Y-101023176D01*
X152176023Y-100978959D01*
X152132138Y-100956160D01*
X152046045Y-100908304D01*
X151973567Y-100862304D01*
X151909341Y-100814301D01*
X151848005Y-100760433D01*
X151784198Y-100696839D01*
X151745292Y-100655520D01*
X151700826Y-100604951D01*
X151665384Y-100558903D01*
X151634324Y-100511201D01*
X151603008Y-100455670D01*
X151578182Y-100409709D01*
X151558119Y-100374737D01*
X151543042Y-100353347D01*
X151529980Y-100342189D01*
X151515968Y-100337911D01*
X151498036Y-100337164D01*
X151469530Y-100335154D01*
X151425698Y-100329169D01*
X151379412Y-100320629D01*
X151324170Y-100305643D01*
X151237572Y-100265316D01*
X151163531Y-100206470D01*
X151100789Y-100128237D01*
X151057074Y-100051312D01*
X151026955Y-99968735D01*
X151015549Y-99885010D01*
X151017072Y-99862594D01*
X151118060Y-99862594D01*
X151118350Y-99899138D01*
X151120387Y-99940863D01*
X151125607Y-99971871D01*
X151135431Y-99999337D01*
X151151280Y-100030439D01*
X151171070Y-100062301D01*
X151224400Y-100124990D01*
X151288163Y-100176983D01*
X151355760Y-100212409D01*
X151381424Y-100220841D01*
X151426331Y-100231470D01*
X151463362Y-100235625D01*
X151463648Y-100235625D01*
X151492278Y-100234185D01*
X151503459Y-100228075D01*
X151502231Y-100214563D01*
X151493230Y-100180837D01*
X151480650Y-100116014D01*
X151468791Y-100034632D01*
X151458150Y-99940246D01*
X151449226Y-99836408D01*
X151444037Y-99765880D01*
X151543484Y-99765880D01*
X151545495Y-99802759D01*
X151549456Y-99851134D01*
X151554898Y-99906439D01*
X151561352Y-99964108D01*
X151568349Y-100019573D01*
X151575420Y-100068269D01*
X151582097Y-100105629D01*
X151613216Y-100228075D01*
X151614153Y-100231760D01*
X151659078Y-100352177D01*
X151717146Y-100460571D01*
X151790902Y-100561631D01*
X151882890Y-100660048D01*
X151960899Y-100728859D01*
X152091921Y-100821097D01*
X152235975Y-100897942D01*
X152389537Y-100957605D01*
X152549081Y-100998297D01*
X152568260Y-101001553D01*
X152617662Y-101007985D01*
X152676117Y-101013786D01*
X152738374Y-101018625D01*
X152799181Y-101022170D01*
X152853286Y-101024091D01*
X152895439Y-101024054D01*
X152920388Y-101021730D01*
X152925823Y-101020620D01*
X152951843Y-101016315D01*
X152991476Y-101010385D01*
X153038553Y-101003768D01*
X153134532Y-100985615D01*
X153260804Y-100948931D01*
X153387816Y-100899308D01*
X153508449Y-100839598D01*
X153615581Y-100772654D01*
X153624335Y-100766296D01*
X153685413Y-100715803D01*
X153751050Y-100652809D01*
X153815474Y-100583472D01*
X153872914Y-100513950D01*
X153917599Y-100450400D01*
X153927822Y-100433465D01*
X153984707Y-100316303D01*
X154011019Y-100235625D01*
X154122255Y-100235625D01*
X154168473Y-100235616D01*
X154187884Y-100234111D01*
X154240554Y-100220353D01*
X154298266Y-100195077D01*
X154353772Y-100161782D01*
X154399827Y-100123965D01*
X154411934Y-100111537D01*
X154451924Y-100062460D01*
X154478209Y-100011624D01*
X154493544Y-99952300D01*
X154500686Y-99877760D01*
X154501825Y-99850554D01*
X154502176Y-99806535D01*
X154498879Y-99773812D01*
X154490848Y-99744790D01*
X154476998Y-99711873D01*
X154454478Y-99670793D01*
X154423711Y-99626637D01*
X154390019Y-99586569D01*
X154357886Y-99555896D01*
X154331793Y-99539926D01*
X154318245Y-99539334D01*
X154293701Y-99550988D01*
X154259612Y-99579059D01*
X154236221Y-99599511D01*
X154221733Y-99610563D01*
X154211906Y-99618060D01*
X154197988Y-99625211D01*
X154197439Y-99625287D01*
X154191658Y-99637622D01*
X154187821Y-99668366D01*
X154186431Y-99713679D01*
X154185915Y-99737380D01*
X154185180Y-99771147D01*
X154179348Y-99865749D01*
X154169609Y-99965264D01*
X154156908Y-100060524D01*
X154142192Y-100142367D01*
X154122255Y-100235625D01*
X154011019Y-100235625D01*
X154028993Y-100180515D01*
X154060638Y-100026257D01*
X154079600Y-99853681D01*
X154087670Y-99737380D01*
X154059386Y-99750267D01*
X154056165Y-99751802D01*
X154039889Y-99764332D01*
X154034888Y-99775796D01*
X154030577Y-99785679D01*
X154024952Y-99822735D01*
X154023657Y-99833522D01*
X154005589Y-99903316D01*
X153973282Y-99961339D01*
X153929043Y-100003248D01*
X153905928Y-100016334D01*
X153867800Y-100031094D01*
X153819938Y-100042442D01*
X153759781Y-100050706D01*
X153684768Y-100056208D01*
X153592339Y-100059275D01*
X153479934Y-100060231D01*
X153421200Y-100060189D01*
X153352998Y-100059816D01*
X153301490Y-100058804D01*
X153263180Y-100056849D01*
X153234572Y-100053649D01*
X153212170Y-100048901D01*
X153192476Y-100042300D01*
X153171995Y-100033546D01*
X153150334Y-100022375D01*
X153108015Y-99994250D01*
X153074451Y-99964457D01*
X153057406Y-99942276D01*
X153032405Y-99899900D01*
X153010196Y-99852399D01*
X152994293Y-99807567D01*
X152988211Y-99773198D01*
X152987556Y-99767326D01*
X152979379Y-99757166D01*
X152958066Y-99750251D01*
X152918886Y-99744631D01*
X152912277Y-99743960D01*
X152864072Y-99741601D01*
X152806399Y-99741797D01*
X152750326Y-99744551D01*
X152651091Y-99752314D01*
X152650905Y-99753315D01*
X152643463Y-99793324D01*
X152625827Y-99858225D01*
X152587368Y-99931728D01*
X152531547Y-99990822D01*
X152458089Y-100035868D01*
X152450132Y-100039454D01*
X152431643Y-100046540D01*
X152411080Y-100051783D01*
X152385020Y-100055458D01*
X152350041Y-100057839D01*
X152302721Y-100059199D01*
X152239638Y-100059813D01*
X152157370Y-100059955D01*
X152109349Y-100059825D01*
X152007593Y-100058322D01*
X151924587Y-100054823D01*
X151857629Y-100048941D01*
X151804021Y-100040288D01*
X151761063Y-100028478D01*
X151726054Y-100013122D01*
X151696295Y-99993836D01*
X151694208Y-99992221D01*
X151649433Y-99943289D01*
X151620527Y-99881198D01*
X151609743Y-99810715D01*
X151607905Y-99784255D01*
X151599207Y-99763966D01*
X151579407Y-99750946D01*
X151557371Y-99742916D01*
X151544799Y-99742292D01*
X151543891Y-99745063D01*
X151543484Y-99765880D01*
X151444037Y-99765880D01*
X151441666Y-99733655D01*
X151645524Y-99733655D01*
X151645748Y-99795943D01*
X151647469Y-99814830D01*
X151661537Y-99879993D01*
X151688651Y-99929910D01*
X151730895Y-99966559D01*
X151790357Y-99991920D01*
X151869119Y-100007972D01*
X151890386Y-100010616D01*
X151960433Y-100017119D01*
X152040127Y-100022035D01*
X152123045Y-100025168D01*
X152202766Y-100026322D01*
X152272868Y-100025301D01*
X152326930Y-100021911D01*
X152367440Y-100016085D01*
X152447483Y-99992419D01*
X152510638Y-99954043D01*
X152557404Y-99900596D01*
X152588273Y-99831719D01*
X152593452Y-99813530D01*
X152604225Y-99753315D01*
X152601621Y-99730184D01*
X153034131Y-99730184D01*
X153036347Y-99785644D01*
X153056151Y-99854656D01*
X153075148Y-99895891D01*
X153113682Y-99946043D01*
X153166042Y-99982762D01*
X153234517Y-100007488D01*
X153321395Y-100021662D01*
X153353574Y-100024575D01*
X153421444Y-100028843D01*
X153486959Y-100029659D01*
X153558348Y-100027004D01*
X153643841Y-100020856D01*
X153740733Y-100011137D01*
X153818453Y-99998613D01*
X153878058Y-99981762D01*
X153921793Y-99958960D01*
X153951904Y-99928586D01*
X153970636Y-99889015D01*
X153980233Y-99838626D01*
X153982942Y-99775796D01*
X153982064Y-99731605D01*
X153977100Y-99692518D01*
X153965505Y-99667170D01*
X153944776Y-99650677D01*
X153912413Y-99638158D01*
X153874007Y-99628710D01*
X153805264Y-99618241D01*
X153722133Y-99610651D01*
X153629214Y-99605942D01*
X153531110Y-99604113D01*
X153432422Y-99605163D01*
X153337751Y-99609094D01*
X153251699Y-99615904D01*
X153178868Y-99625595D01*
X153123859Y-99638165D01*
X153083776Y-99655708D01*
X153049831Y-99687222D01*
X153034131Y-99730184D01*
X152601621Y-99730184D01*
X152599069Y-99707512D01*
X152576476Y-99673485D01*
X152534937Y-99648600D01*
X152472945Y-99630223D01*
X152470334Y-99629656D01*
X152404312Y-99619067D01*
X152322864Y-99611525D01*
X152230725Y-99606974D01*
X152132632Y-99605357D01*
X152033320Y-99606617D01*
X151937524Y-99610697D01*
X151849980Y-99617541D01*
X151775423Y-99627090D01*
X151718590Y-99639289D01*
X151715138Y-99640334D01*
X151678833Y-99658832D01*
X151656090Y-99688945D01*
X151645524Y-99733655D01*
X151441666Y-99733655D01*
X151435241Y-99646314D01*
X151400667Y-99631861D01*
X151371885Y-99616190D01*
X151368969Y-99613765D01*
X151541304Y-99613765D01*
X151541710Y-99640897D01*
X151545018Y-99669276D01*
X151553642Y-99686619D01*
X151569917Y-99699957D01*
X151570431Y-99700293D01*
X151591135Y-99712002D01*
X151601338Y-99714348D01*
X151602407Y-99712391D01*
X151610581Y-99695414D01*
X151623167Y-99668111D01*
X151628209Y-99657892D01*
X151649845Y-99628863D01*
X151681258Y-99607930D01*
X151726709Y-99592888D01*
X151790458Y-99581531D01*
X151854578Y-99573820D01*
X151962936Y-99565218D01*
X152073728Y-99561263D01*
X152183413Y-99561766D01*
X152288446Y-99566536D01*
X152385287Y-99575384D01*
X152470392Y-99588118D01*
X152540219Y-99604550D01*
X152591225Y-99624489D01*
X152591557Y-99624669D01*
X152614059Y-99645002D01*
X152632045Y-99674162D01*
X152646995Y-99709990D01*
X152988217Y-99703206D01*
X153005287Y-99670195D01*
X153012820Y-99657674D01*
X153035303Y-99634121D01*
X153068196Y-99614903D01*
X153113936Y-99599297D01*
X153174961Y-99586576D01*
X153253709Y-99576016D01*
X153352615Y-99566892D01*
X153358523Y-99566440D01*
X153439112Y-99562430D01*
X153527512Y-99561386D01*
X153618664Y-99563075D01*
X153707506Y-99567264D01*
X153788977Y-99573720D01*
X153858016Y-99582211D01*
X153909563Y-99592505D01*
X153923194Y-99596852D01*
X153967696Y-99620422D01*
X154002746Y-99652873D01*
X154021825Y-99688621D01*
X154021862Y-99688771D01*
X154031463Y-99710977D01*
X154045683Y-99712441D01*
X154067349Y-99693466D01*
X154067792Y-99692972D01*
X154075260Y-99682288D01*
X154080351Y-99667450D01*
X154083342Y-99644770D01*
X154084511Y-99610563D01*
X154084138Y-99561142D01*
X154082500Y-99492821D01*
X154081600Y-99461210D01*
X154079457Y-99401250D01*
X154076703Y-99357405D01*
X154072644Y-99325124D01*
X154066581Y-99299859D01*
X154057819Y-99277061D01*
X154045662Y-99252180D01*
X154008292Y-99184193D01*
X153942247Y-99086363D01*
X153870722Y-99008290D01*
X153791697Y-98948255D01*
X153703152Y-98904538D01*
X153603069Y-98875421D01*
X153602551Y-98875313D01*
X153561178Y-98867243D01*
X153536239Y-98864656D01*
X153522280Y-98867591D01*
X153513846Y-98876089D01*
X153495636Y-98902014D01*
X153471991Y-98926616D01*
X153444664Y-98940115D01*
X153405469Y-98947939D01*
X153401350Y-98948501D01*
X153344803Y-98953515D01*
X153272053Y-98956371D01*
X153188872Y-98957144D01*
X153101032Y-98955910D01*
X153014305Y-98952744D01*
X152934461Y-98947720D01*
X152867273Y-98940916D01*
X152768807Y-98925246D01*
X152633168Y-98896063D01*
X152493886Y-98858599D01*
X152357520Y-98814827D01*
X152230635Y-98766719D01*
X152119791Y-98716248D01*
X152100985Y-98706761D01*
X152072077Y-98693057D01*
X152056871Y-98688740D01*
X152050972Y-98693137D01*
X152049983Y-98705578D01*
X152044178Y-98730299D01*
X152028373Y-98768423D01*
X152005477Y-98814259D01*
X151978405Y-98862339D01*
X151950068Y-98907192D01*
X151923379Y-98943347D01*
X151921695Y-98945357D01*
X151886812Y-98982370D01*
X151842904Y-99023121D01*
X151799059Y-99059146D01*
X151789324Y-99066628D01*
X151730072Y-99119227D01*
X151681510Y-99177529D01*
X151641068Y-99245760D01*
X151606179Y-99328145D01*
X151574273Y-99428909D01*
X151571656Y-99438396D01*
X151555707Y-99505154D01*
X151545133Y-99566170D01*
X151541304Y-99613765D01*
X151368969Y-99613765D01*
X151349960Y-99597956D01*
X151330438Y-99580297D01*
X151302110Y-99562102D01*
X151283777Y-99553898D01*
X151268861Y-99554033D01*
X151251617Y-99565478D01*
X151225371Y-99590721D01*
X151208519Y-99609222D01*
X151175747Y-99652282D01*
X151149145Y-99695474D01*
X151140549Y-99712507D01*
X151128636Y-99741503D01*
X151121815Y-99771354D01*
X151118739Y-99809304D01*
X151118060Y-99862594D01*
X151017072Y-99862594D01*
X151021657Y-99795086D01*
X151033426Y-99743678D01*
X151056623Y-99678837D01*
X151086761Y-99615726D01*
X151120486Y-99561232D01*
X151154448Y-99522243D01*
X151162827Y-99514779D01*
X151181926Y-99494657D01*
X151186945Y-99478787D01*
X151180986Y-99459880D01*
X151172110Y-99429365D01*
X151168274Y-99393372D01*
X151166918Y-99376103D01*
X151159175Y-99336444D01*
X151146856Y-99294994D01*
X151143425Y-99285232D01*
X151114476Y-99186869D01*
X151088955Y-99071809D01*
X151067521Y-98945221D01*
X151050837Y-98812275D01*
X151039563Y-98678142D01*
X151034359Y-98547990D01*
X151035888Y-98426991D01*
X151036927Y-98406501D01*
X151050098Y-98270193D01*
X151073297Y-98137904D01*
X151105392Y-98014110D01*
X151145253Y-97903290D01*
X151191749Y-97809919D01*
X151206025Y-97787582D01*
X151254351Y-97724809D01*
X151314822Y-97658904D01*
X151381838Y-97595318D01*
X151449801Y-97539505D01*
X151513113Y-97496918D01*
X151551923Y-97473033D01*
X151598689Y-97437846D01*
X151625520Y-97407351D01*
X151633432Y-97394530D01*
X151687353Y-97326393D01*
X151758923Y-97259210D01*
X151844078Y-97195758D01*
X151938755Y-97138813D01*
X152038888Y-97091153D01*
X152140414Y-97055555D01*
X152206831Y-97039846D01*
X152304837Y-97023890D01*
X152416012Y-97011877D01*
X152535304Y-97004024D01*
X152657658Y-97000552D01*
X152778021Y-97001680D01*
X152891339Y-97007626D01*
X152992558Y-97018610D01*
X153062406Y-97029809D01*
X153279303Y-97078911D01*
X153487027Y-97148537D01*
X153686562Y-97239057D01*
X153878892Y-97350838D01*
X153879512Y-97351240D01*
X153948326Y-97397626D01*
X154009600Y-97443334D01*
X154067543Y-97492125D01*
X154126364Y-97547762D01*
X154190271Y-97614006D01*
X154263474Y-97694619D01*
X154267238Y-97698846D01*
X154336282Y-97775025D01*
X154394015Y-97835592D01*
X154442817Y-97882727D01*
X154485071Y-97918607D01*
X154523159Y-97945411D01*
X154559462Y-97965317D01*
X154575061Y-97973347D01*
X154607902Y-97994109D01*
X154629860Y-98013232D01*
X154646664Y-98047645D01*
X154646496Y-98088661D01*
X154628870Y-98127875D01*
X154595237Y-98159162D01*
X154570620Y-98174503D01*
X154551474Y-98186828D01*
X154547455Y-98192161D01*
X154544386Y-98208474D01*
X154544434Y-98237855D01*
X154547647Y-98283406D01*
X154554075Y-98348227D01*
X154554253Y-98349900D01*
X154560530Y-98422320D01*
X154565723Y-98506714D01*
X154569298Y-98592733D01*
X154570718Y-98670026D01*
X154571034Y-98706269D01*
X154573869Y-98790332D01*
X154579434Y-98858474D01*
X154587496Y-98907409D01*
X154594522Y-98938877D01*
X154601439Y-98976471D01*
X154604275Y-99001536D01*
X154604185Y-99004419D01*
X154593368Y-99032914D01*
X154569577Y-99062069D01*
X154539943Y-99084776D01*
X154511598Y-99093925D01*
X154506665Y-99094113D01*
X154497103Y-99097039D01*
X154488757Y-99106026D01*
X154480337Y-99124261D01*
X154470550Y-99154929D01*
X154458104Y-99201217D01*
X154441709Y-99266310D01*
X154433006Y-99301150D01*
X154418864Y-99357159D01*
X154407012Y-99403336D01*
X154398492Y-99435644D01*
X154394344Y-99450041D01*
X154396939Y-99458290D01*
X154412972Y-99477436D01*
X154439215Y-99500894D01*
X154487697Y-99547610D01*
X154542016Y-99625243D01*
X154582983Y-99717831D01*
X154599808Y-99789103D01*
X154600606Y-99806535D01*
X154604074Y-99882259D01*
X154590851Y-99974973D01*
X154560628Y-100059757D01*
X154519178Y-100131704D01*
X154454943Y-100208611D01*
X154378454Y-100266732D01*
X154288787Y-100306729D01*
X154185019Y-100329266D01*
X154151982Y-100333625D01*
X154114409Y-100339929D01*
X154091703Y-100346840D01*
X154079155Y-100356020D01*
X154072057Y-100369130D01*
X154069307Y-100375972D01*
X154048107Y-100419029D01*
X154017181Y-100472594D01*
X153980249Y-100530757D01*
X153941031Y-100587611D01*
X153903247Y-100637248D01*
X153883310Y-100661254D01*
X153824845Y-100725184D01*
X153762834Y-100782307D01*
X153692817Y-100836158D01*
X153610333Y-100890271D01*
X153510923Y-100948182D01*
X153394962Y-101012851D01*
X153456939Y-101043173D01*
X153482466Y-101057466D01*
X153524156Y-101087075D01*
X153556348Y-101117227D01*
X153559838Y-101121385D01*
X153570699Y-101136832D01*
X153597468Y-101174902D01*
X153638858Y-101247923D01*
G37*
G36*
X141190318Y-100696251D02*
G01*
X141291392Y-100702650D01*
X141379996Y-100717593D01*
X141462520Y-100742388D01*
X141545358Y-100778341D01*
X141623388Y-100823257D01*
X141710901Y-100894759D01*
X141780656Y-100980157D01*
X141832721Y-101079559D01*
X141867161Y-101193073D01*
X141884045Y-101320805D01*
X141885451Y-101402954D01*
X141872141Y-101528411D01*
X141839950Y-101641885D01*
X141789459Y-101742683D01*
X141721253Y-101830116D01*
X141635917Y-101903492D01*
X141534033Y-101962119D01*
X141416186Y-102005306D01*
X141282960Y-102032363D01*
X141187440Y-102039449D01*
X141073036Y-102036241D01*
X140957471Y-102022227D01*
X140848181Y-101998344D01*
X140752603Y-101965529D01*
X140700806Y-101943326D01*
X140700806Y-101773365D01*
X140700837Y-101726528D01*
X140701234Y-101674881D01*
X140702503Y-101640173D01*
X140705152Y-101619037D01*
X140709689Y-101608108D01*
X140716623Y-101604019D01*
X140726462Y-101603404D01*
X140727836Y-101603468D01*
X140750450Y-101611228D01*
X140783280Y-101629407D01*
X140819720Y-101654392D01*
X140829806Y-101661771D01*
X140906562Y-101705671D01*
X140990099Y-101735089D01*
X141076443Y-101749964D01*
X141161623Y-101750236D01*
X141241669Y-101735844D01*
X141312608Y-101706726D01*
X141370469Y-101662822D01*
X141374913Y-101658211D01*
X141411284Y-101614571D01*
X141436724Y-101569181D01*
X141452870Y-101516932D01*
X141461358Y-101452719D01*
X141463823Y-101371435D01*
X141463694Y-101327801D01*
X141462557Y-101281828D01*
X141459342Y-101248098D01*
X141452983Y-101220563D01*
X141442416Y-101193176D01*
X141426575Y-101159888D01*
X141397583Y-101109242D01*
X141347774Y-101051420D01*
X141287169Y-101011783D01*
X141213491Y-100988986D01*
X141124460Y-100981686D01*
X141068828Y-100985580D01*
X140987254Y-101003254D01*
X140908532Y-101032850D01*
X140839118Y-101071781D01*
X140785469Y-101117463D01*
X140764394Y-101132130D01*
X140732966Y-101139941D01*
X140700806Y-101139941D01*
X140700806Y-100791143D01*
X140765804Y-100766676D01*
X140798998Y-100754490D01*
X140886305Y-100726558D01*
X140966572Y-100708587D01*
X141048717Y-100698895D01*
X141141660Y-100695800D01*
X141190318Y-100696251D01*
G37*
G36*
X152963780Y-101268492D02*
G01*
X152965603Y-101286893D01*
X152963685Y-101300024D01*
X152955358Y-101309501D01*
X152950390Y-101304918D01*
X152951024Y-101286893D01*
X152955332Y-101273605D01*
X152961270Y-101264285D01*
X152963780Y-101268492D01*
G37*
G36*
X147822301Y-97601802D02*
G01*
X147110152Y-97601802D01*
X147081956Y-97601808D01*
X146958748Y-97601996D01*
X146842895Y-97602425D01*
X146736304Y-97603072D01*
X146640880Y-97603916D01*
X146558531Y-97604933D01*
X146491164Y-97606100D01*
X146440684Y-97607396D01*
X146408999Y-97608797D01*
X146398015Y-97610280D01*
X146404153Y-97616421D01*
X146426605Y-97634667D01*
X146463547Y-97663287D01*
X146512894Y-97700700D01*
X146572563Y-97745329D01*
X146640469Y-97795595D01*
X146714526Y-97849922D01*
X147031024Y-98081085D01*
X147031024Y-98313951D01*
X148059684Y-98313951D01*
X148059684Y-98472207D01*
X147031024Y-98472207D01*
X147031024Y-98834495D01*
X147031026Y-98853835D01*
X147031192Y-98957613D01*
X147031897Y-99041539D01*
X147033512Y-99107977D01*
X147036411Y-99159290D01*
X147040967Y-99197842D01*
X147047553Y-99225995D01*
X147056542Y-99246114D01*
X147068308Y-99260561D01*
X147083224Y-99271701D01*
X147101662Y-99281895D01*
X147112378Y-99286817D01*
X147131580Y-99292459D01*
X147157264Y-99295780D01*
X147193452Y-99297013D01*
X147244164Y-99296390D01*
X147313420Y-99294144D01*
X147346593Y-99292798D01*
X147405163Y-99289861D01*
X147454248Y-99286682D01*
X147489478Y-99283562D01*
X147506482Y-99280803D01*
X147512029Y-99279352D01*
X147517531Y-99282935D01*
X147518936Y-99297205D01*
X147516394Y-99326038D01*
X147510052Y-99373307D01*
X147507112Y-99394019D01*
X147501256Y-99435056D01*
X147497042Y-99464293D01*
X147495231Y-99476438D01*
X147494601Y-99476701D01*
X147478963Y-99477573D01*
X147444865Y-99477984D01*
X147395684Y-99477931D01*
X147334798Y-99477416D01*
X147265581Y-99476438D01*
X147250307Y-99476179D01*
X147175408Y-99474698D01*
X147118822Y-99472930D01*
X147076894Y-99470480D01*
X147045969Y-99466957D01*
X147022395Y-99461968D01*
X147002515Y-99455118D01*
X146982675Y-99446016D01*
X146947589Y-99425142D01*
X146896719Y-99375292D01*
X146860727Y-99308700D01*
X146860519Y-99308146D01*
X146856103Y-99289876D01*
X146852383Y-99259889D01*
X146849279Y-99216369D01*
X146846713Y-99157503D01*
X146844603Y-99081474D01*
X146842871Y-98986469D01*
X146841435Y-98870671D01*
X146837306Y-98472207D01*
X145866716Y-98472207D01*
X145866716Y-98313951D01*
X146838857Y-98313951D01*
X146838857Y-98158153D01*
X146471478Y-97888578D01*
X146104099Y-97619004D01*
X146104099Y-97443546D01*
X147822301Y-97443546D01*
X147822301Y-97601802D01*
G37*
%TD*%
%LPC*%
D15*
%TO.C,Hole1*%
X130540000Y-91820000D03*
%TD*%
%TO.C,Hole2*%
X130560000Y-107620000D03*
%TD*%
%TO.C,Hole3*%
X174970000Y-107580000D03*
%TD*%
%TO.C,Hole4*%
X174950000Y-91800000D03*
%TD*%
D16*
%TO.C,J3*%
X130090000Y-95970000D03*
D17*
X130090000Y-98510000D03*
X130090000Y-101050000D03*
X130090000Y-103590000D03*
%TD*%
D18*
%TO.C,USB1*%
X170430000Y-104090000D03*
X170430000Y-95450000D03*
X174230000Y-104090000D03*
X174230000Y-95450000D03*
%TD*%
D17*
%TO.C,J2*%
X132960000Y-108500000D03*
X135500000Y-108500000D03*
X138040000Y-108500000D03*
X140580000Y-108500000D03*
X143120000Y-108500000D03*
X145660000Y-108500000D03*
X148200000Y-108500000D03*
X150740000Y-108500000D03*
X153280000Y-108500000D03*
X155820000Y-108500000D03*
X158360000Y-108500000D03*
X160900000Y-108500000D03*
X163440000Y-108500000D03*
D16*
X165980000Y-108500000D03*
%TD*%
D19*
%TO.C,U2*%
X162255000Y-103210000D03*
X160985000Y-103210000D03*
X159715000Y-103210000D03*
X158445000Y-103210000D03*
X158445000Y-96150000D03*
X159715000Y-96150000D03*
X160985000Y-96150000D03*
X162255000Y-96150000D03*
%TD*%
D20*
%TO.C,C3*%
X163930000Y-100130000D03*
X163930000Y-99170000D03*
%TD*%
D17*
%TO.C,J1*%
X132970000Y-90940000D03*
X135510000Y-90940000D03*
X138050000Y-90940000D03*
X140590000Y-90940000D03*
X143130000Y-90940000D03*
X145670000Y-90940000D03*
X148210000Y-90940000D03*
X150750000Y-90940000D03*
X153290000Y-90940000D03*
X155830000Y-90940000D03*
X158370000Y-90940000D03*
X160910000Y-90940000D03*
X163450000Y-90940000D03*
D16*
X165990000Y-90940000D03*
%TD*%
M02*
