%TF.GenerationSoftware,KiCad,Pcbnew,(6.0.7)*%
%TF.CreationDate,2022-09-30T18:15:50+08:00*%
%TF.ProjectId,UINIO-EVB-STM32L051K8,55494e49-4f2d-4455-9642-2d53544d3332,rev?*%
%TF.SameCoordinates,Original*%
%TF.FileFunction,Soldermask,Bot*%
%TF.FilePolarity,Negative*%
%FSLAX46Y46*%
G04 Gerber Fmt 4.6, Leading zero omitted, Abs format (unit mm)*
G04 Created by KiCad (PCBNEW (6.0.7)) date 2022-09-30 18:15:50*
%MOMM*%
%LPD*%
G01*
G04 APERTURE LIST*
G04 Aperture macros list*
%AMRoundRect*
0 Rectangle with rounded corners*
0 $1 Rounding radius*
0 $2 $3 $4 $5 $6 $7 $8 $9 X,Y pos of 4 corners*
0 Add a 4 corners polygon primitive as box body*
4,1,4,$2,$3,$4,$5,$6,$7,$8,$9,$2,$3,0*
0 Add four circle primitives for the rounded corners*
1,1,$1+$1,$2,$3*
1,1,$1+$1,$4,$5*
1,1,$1+$1,$6,$7*
1,1,$1+$1,$8,$9*
0 Add four rect primitives between the rounded corners*
20,1,$1+$1,$2,$3,$4,$5,0*
20,1,$1+$1,$4,$5,$6,$7,0*
20,1,$1+$1,$6,$7,$8,$9,0*
20,1,$1+$1,$8,$9,$2,$3,0*%
G04 Aperture macros list end*
%ADD10O,1.700000X1.700000*%
%ADD11R,1.700000X1.700000*%
%ADD12C,0.650000*%
%ADD13O,1.000000X2.100000*%
%ADD14O,1.000000X1.900000*%
%ADD15O,2.250000X0.630000*%
%ADD16RoundRect,0.140000X-0.140000X-0.170000X0.140000X-0.170000X0.140000X0.170000X-0.140000X0.170000X0*%
G04 APERTURE END LIST*
D10*
%TO.C,J3*%
X151120000Y-129540000D03*
X153660000Y-129540000D03*
X156200000Y-129540000D03*
D11*
X158740000Y-129540000D03*
%TD*%
D12*
%TO.C,USB1*%
X152110000Y-101198000D03*
X157890000Y-101198000D03*
D13*
X159325000Y-101698000D03*
X150675000Y-101698000D03*
D14*
X159325000Y-97498000D03*
X150675000Y-97498000D03*
%TD*%
D11*
%TO.C,J2*%
X170400000Y-96500000D03*
D10*
X170400000Y-99040000D03*
X170400000Y-101580000D03*
X170400000Y-104120000D03*
X170400000Y-106660000D03*
X170400000Y-109200000D03*
X170400000Y-111740000D03*
X170400000Y-114280000D03*
X170400000Y-116820000D03*
X170400000Y-119360000D03*
X170400000Y-121900000D03*
X170400000Y-124440000D03*
X170400000Y-126980000D03*
X170400000Y-129520000D03*
%TD*%
D15*
%TO.C,U2*%
X158450000Y-110053500D03*
X158450000Y-111323500D03*
X158450000Y-112593500D03*
X158450000Y-113863500D03*
X151390000Y-113863500D03*
X151390000Y-112593500D03*
X151390000Y-111323500D03*
X151390000Y-110053500D03*
%TD*%
D16*
%TO.C,C3*%
X148130000Y-110050000D03*
X149090000Y-110050000D03*
%TD*%
D11*
%TO.C,J1*%
X139500000Y-96500000D03*
D10*
X139500000Y-99040000D03*
X139500000Y-101580000D03*
X139500000Y-104120000D03*
X139500000Y-106660000D03*
X139500000Y-109200000D03*
X139500000Y-111740000D03*
X139500000Y-114280000D03*
X139500000Y-116820000D03*
X139500000Y-119360000D03*
X139500000Y-121900000D03*
X139500000Y-124440000D03*
X139500000Y-126980000D03*
X139500000Y-129520000D03*
%TD*%
M02*
