%TF.GenerationSoftware,KiCad,Pcbnew,(6.0.10)*%
%TF.CreationDate,2023-01-11T19:54:21+08:00*%
%TF.ProjectId,UINIO-MCU-STM32L051K8,55494e49-4f2d-44d4-9355-2d53544d3332,Version 3.0.0*%
%TF.SameCoordinates,Original*%
%TF.FileFunction,Copper,L1,Top*%
%TF.FilePolarity,Positive*%
%FSLAX46Y46*%
G04 Gerber Fmt 4.6, Leading zero omitted, Abs format (unit mm)*
G04 Created by KiCad (PCBNEW (6.0.10)) date 2023-01-11 19:54:21*
%MOMM*%
%LPD*%
G01*
G04 APERTURE LIST*
G04 Aperture macros list*
%AMRoundRect*
0 Rectangle with rounded corners*
0 $1 Rounding radius*
0 $2 $3 $4 $5 $6 $7 $8 $9 X,Y pos of 4 corners*
0 Add a 4 corners polygon primitive as box body*
4,1,4,$2,$3,$4,$5,$6,$7,$8,$9,$2,$3,0*
0 Add four circle primitives for the rounded corners*
1,1,$1+$1,$2,$3*
1,1,$1+$1,$4,$5*
1,1,$1+$1,$6,$7*
1,1,$1+$1,$8,$9*
0 Add four rect primitives between the rounded corners*
20,1,$1+$1,$2,$3,$4,$5,0*
20,1,$1+$1,$4,$5,$6,$7,0*
20,1,$1+$1,$6,$7,$8,$9,0*
20,1,$1+$1,$8,$9,$2,$3,0*%
%AMRotRect*
0 Rectangle, with rotation*
0 The origin of the aperture is its center*
0 $1 length*
0 $2 width*
0 $3 Rotation angle, in degrees counterclockwise*
0 Add horizontal line*
21,1,$1,$2,0,0,$3*%
G04 Aperture macros list end*
%TA.AperFunction,SMDPad,CuDef*%
%ADD10RoundRect,0.127000X-0.127000X-0.127000X0.127000X-0.127000X0.127000X0.127000X-0.127000X0.127000X0*%
%TD*%
%TA.AperFunction,SMDPad,CuDef*%
%ADD11RoundRect,0.135000X0.135000X0.185000X-0.135000X0.185000X-0.135000X-0.185000X0.135000X-0.185000X0*%
%TD*%
%TA.AperFunction,SMDPad,CuDef*%
%ADD12RoundRect,0.140000X0.140000X0.170000X-0.140000X0.170000X-0.140000X-0.170000X0.140000X-0.170000X0*%
%TD*%
%TA.AperFunction,SMDPad,CuDef*%
%ADD13RoundRect,0.250000X0.375000X0.625000X-0.375000X0.625000X-0.375000X-0.625000X0.375000X-0.625000X0*%
%TD*%
%TA.AperFunction,ComponentPad*%
%ADD14C,1.200000*%
%TD*%
%TA.AperFunction,SMDPad,CuDef*%
%ADD15RoundRect,0.140000X-0.140000X-0.170000X0.140000X-0.170000X0.140000X0.170000X-0.140000X0.170000X0*%
%TD*%
%TA.AperFunction,SMDPad,CuDef*%
%ADD16RotRect,0.600000X0.300000X135.000000*%
%TD*%
%TA.AperFunction,SMDPad,CuDef*%
%ADD17RotRect,0.600000X0.300000X225.000000*%
%TD*%
%TA.AperFunction,SMDPad,CuDef*%
%ADD18RotRect,0.600000X0.300000X315.000000*%
%TD*%
%TA.AperFunction,SMDPad,CuDef*%
%ADD19RotRect,0.600000X0.300000X45.000000*%
%TD*%
%TA.AperFunction,SMDPad,CuDef*%
%ADD20RotRect,3.450000X3.450000X45.000000*%
%TD*%
%TA.AperFunction,SMDPad,CuDef*%
%ADD21RoundRect,0.135000X0.185000X-0.135000X0.185000X0.135000X-0.185000X0.135000X-0.185000X-0.135000X0*%
%TD*%
%TA.AperFunction,ComponentPad*%
%ADD22R,1.700000X1.700000*%
%TD*%
%TA.AperFunction,ComponentPad*%
%ADD23O,1.700000X1.700000*%
%TD*%
%TA.AperFunction,ComponentPad*%
%ADD24O,1.800000X1.000000*%
%TD*%
%TA.AperFunction,SMDPad,CuDef*%
%ADD25R,1.400000X0.700000*%
%TD*%
%TA.AperFunction,SMDPad,CuDef*%
%ADD26R,1.400000X0.800000*%
%TD*%
%TA.AperFunction,SMDPad,CuDef*%
%ADD27R,1.500000X1.500000*%
%TD*%
%TA.AperFunction,SMDPad,CuDef*%
%ADD28RoundRect,0.218750X-0.218750X-0.256250X0.218750X-0.256250X0.218750X0.256250X-0.218750X0.256250X0*%
%TD*%
%TA.AperFunction,SMDPad,CuDef*%
%ADD29RoundRect,0.140000X-0.170000X0.140000X-0.170000X-0.140000X0.170000X-0.140000X0.170000X0.140000X0*%
%TD*%
%TA.AperFunction,SMDPad,CuDef*%
%ADD30RoundRect,0.140000X0.170000X-0.140000X0.170000X0.140000X-0.170000X0.140000X-0.170000X-0.140000X0*%
%TD*%
%TA.AperFunction,SMDPad,CuDef*%
%ADD31R,1.800000X1.000000*%
%TD*%
%TA.AperFunction,SMDPad,CuDef*%
%ADD32R,1.000000X0.600000*%
%TD*%
%TA.AperFunction,ViaPad*%
%ADD33C,0.500000*%
%TD*%
%TA.AperFunction,ViaPad*%
%ADD34C,0.900000*%
%TD*%
%TA.AperFunction,ViaPad*%
%ADD35C,0.700000*%
%TD*%
%TA.AperFunction,Conductor*%
%ADD36C,0.300000*%
%TD*%
%TA.AperFunction,Conductor*%
%ADD37C,0.500000*%
%TD*%
%TA.AperFunction,Conductor*%
%ADD38C,0.400000*%
%TD*%
%TA.AperFunction,Conductor*%
%ADD39C,0.200000*%
%TD*%
G04 APERTURE END LIST*
D10*
%TO.P,C2,1,1*%
%TO.N,GND*%
X168300000Y-91852000D03*
%TO.P,C2,2,2*%
%TO.N,/VDD_3.3V*%
X168300000Y-92868000D03*
%TD*%
%TO.P,C1,1,1*%
%TO.N,GND*%
X173090000Y-91852000D03*
%TO.P,C1,2,2*%
%TO.N,/VDD_5V*%
X173090000Y-92868000D03*
%TD*%
D11*
%TO.P,R3,1*%
%TO.N,/VDD_3.3V*%
X163970000Y-100740000D03*
%TO.P,R3,2*%
%TO.N,/NRST*%
X162950000Y-100740000D03*
%TD*%
D12*
%TO.P,C5,1*%
%TO.N,GND*%
X156750000Y-98620000D03*
%TO.P,C5,2*%
%TO.N,/BOOT0*%
X155790000Y-98620000D03*
%TD*%
D13*
%TO.P,F1,1*%
%TO.N,Net-(F1-Pad1)*%
X171800000Y-106370000D03*
%TO.P,F1,2*%
%TO.N,/VDD_5V*%
X169000000Y-106370000D03*
%TD*%
D14*
%TO.P,Hole3,*%
%TO.N,*%
X175040000Y-107630000D03*
%TD*%
D15*
%TO.P,C4,1*%
%TO.N,/VDD_3.3V*%
X143277147Y-95098606D03*
%TO.P,C4,2*%
%TO.N,GND*%
X144237147Y-95098606D03*
%TD*%
D16*
%TO.P,U3,1,VDD*%
%TO.N,/VDD_3.3V*%
X144315761Y-102704819D03*
%TO.P,U3,2,PC14-OSC_IN*%
%TO.N,Net-(C10-Pad2)*%
X144669315Y-102351266D03*
%TO.P,U3,3,PC15-OSC_OUT*%
%TO.N,Net-(C11-Pad2)*%
X145022868Y-101997712D03*
%TO.P,U3,4,NRST*%
%TO.N,/NRST*%
X145376422Y-101644159D03*
%TO.P,U3,5,VDDA*%
%TO.N,/VDD_3.3V*%
X145729975Y-101290606D03*
%TO.P,U3,6,PA0*%
%TO.N,/PA0*%
X146083528Y-100937052D03*
%TO.P,U3,7,PA1*%
%TO.N,/PA1*%
X146437082Y-100583499D03*
%TO.P,U3,8,PA2*%
%TO.N,/PA2*%
X146790635Y-100229945D03*
D17*
%TO.P,U3,9,PA3*%
%TO.N,/PA3*%
X146790635Y-99112717D03*
%TO.P,U3,10,PA4*%
%TO.N,/PA4{slash}CS*%
X146437082Y-98759163D03*
%TO.P,U3,11,PA5*%
%TO.N,/PA5{slash}SCLK*%
X146083528Y-98405610D03*
%TO.P,U3,12,PA6*%
%TO.N,/PA6{slash}MISO*%
X145729975Y-98052056D03*
%TO.P,U3,13,PA7*%
%TO.N,/PA7{slash}MOSI*%
X145376422Y-97698503D03*
%TO.P,U3,14,PB0*%
%TO.N,/PB0*%
X145022868Y-97344950D03*
%TO.P,U3,15,PB1*%
%TO.N,/PB1*%
X144669315Y-96991396D03*
%TO.P,U3,16,PB2*%
%TO.N,/PB2*%
X144315761Y-96637843D03*
D18*
%TO.P,U3,17,VDD*%
%TO.N,/VDD_3.3V*%
X143198533Y-96637843D03*
%TO.P,U3,18,PA8*%
%TO.N,/PA8*%
X142844979Y-96991396D03*
%TO.P,U3,19,PA9*%
%TO.N,/PA9*%
X142491426Y-97344950D03*
%TO.P,U3,20,PA10*%
%TO.N,/PA10*%
X142137872Y-97698503D03*
%TO.P,U3,21,PA11*%
%TO.N,/PA11*%
X141784319Y-98052056D03*
%TO.P,U3,22,PA12*%
%TO.N,/PA12*%
X141430766Y-98405610D03*
%TO.P,U3,23,PA13*%
%TO.N,/PA13{slash}SWDIO*%
X141077212Y-98759163D03*
%TO.P,U3,24,PA14*%
%TO.N,/PA14{slash}SWCLK*%
X140723659Y-99112717D03*
D19*
%TO.P,U3,25,PA15*%
%TO.N,/PA15*%
X140723659Y-100229945D03*
%TO.P,U3,26,PB3*%
%TO.N,/PB3*%
X141077212Y-100583499D03*
%TO.P,U3,27,PB4*%
%TO.N,/PB4*%
X141430766Y-100937052D03*
%TO.P,U3,28,PB5*%
%TO.N,/PB5*%
X141784319Y-101290606D03*
%TO.P,U3,29,PB6*%
%TO.N,/PB6*%
X142137872Y-101644159D03*
%TO.P,U3,30,PB7*%
%TO.N,/PB7*%
X142491426Y-101997712D03*
%TO.P,U3,31,BOOT0*%
%TO.N,/BOOT0*%
X142844979Y-102351266D03*
%TO.P,U3,32,PB8*%
%TO.N,/PB8*%
X143198533Y-102704819D03*
D20*
%TO.P,U3,33,PAD*%
%TO.N,GND*%
X143757147Y-99671331D03*
%TD*%
D21*
%TO.P,R1,1*%
%TO.N,Net-(D1-Pad2)*%
X172200000Y-109110000D03*
%TO.P,R1,2*%
%TO.N,/VDD_5V*%
X172200000Y-108090000D03*
%TD*%
D14*
%TO.P,Hole1,*%
%TO.N,*%
X130530000Y-91810000D03*
%TD*%
D22*
%TO.P,J3,1,Pin_1*%
%TO.N,/VDD_3.3V*%
X130090000Y-95970000D03*
D23*
%TO.P,J3,2,Pin_2*%
%TO.N,/PA13{slash}SWDIO*%
X130090000Y-98510000D03*
%TO.P,J3,3,Pin_3*%
%TO.N,/PA14{slash}SWCLK*%
X130090000Y-101050000D03*
%TO.P,J3,4,Pin_4*%
%TO.N,GND*%
X130090000Y-103590000D03*
%TD*%
D12*
%TO.P,C8,1*%
%TO.N,GND*%
X149640000Y-99010000D03*
%TO.P,C8,2*%
%TO.N,/VDD_3.3V*%
X148680000Y-99010000D03*
%TD*%
D15*
%TO.P,C7,1*%
%TO.N,GND*%
X143287147Y-104358606D03*
%TO.P,C7,2*%
%TO.N,/VDD_3.3V*%
X144247147Y-104358606D03*
%TD*%
D24*
%TO.P,USB1,1,GND*%
%TO.N,GND*%
X170560000Y-104080000D03*
%TO.P,USB1,2,GND*%
X170560000Y-95440000D03*
%TO.P,USB1,3,GND*%
X174360000Y-104080000D03*
%TO.P,USB1,4,GND*%
X174360000Y-95440000D03*
D25*
%TO.P,USB1,A5,CC1*%
%TO.N,unconnected-(USB1-PadA5)*%
X169560000Y-100260000D03*
%TO.P,USB1,A9,VBUS*%
%TO.N,Net-(F1-Pad1)*%
X169560000Y-98240000D03*
D26*
%TO.P,USB1,A12,GND*%
%TO.N,GND*%
X169560000Y-97010000D03*
D25*
%TO.P,USB1,B5,CC2*%
%TO.N,unconnected-(USB1-PadB5)*%
X169560000Y-99260000D03*
%TO.P,USB1,B9,VBUS*%
%TO.N,Net-(F1-Pad1)*%
X169560000Y-101280000D03*
D26*
%TO.P,USB1,B12,GND*%
%TO.N,GND*%
X169560000Y-102510000D03*
%TD*%
D15*
%TO.P,C9,1*%
%TO.N,/NRST*%
X155780000Y-100750000D03*
%TO.P,C9,2*%
%TO.N,GND*%
X156740000Y-100750000D03*
%TD*%
D14*
%TO.P,Hole2,*%
%TO.N,*%
X130560000Y-107620000D03*
%TD*%
D27*
%TO.P,SW2,1,1*%
%TO.N,GND*%
X163530000Y-103090000D03*
%TO.P,SW2,2,2*%
%TO.N,/NRST*%
X156130000Y-103090000D03*
%TD*%
D11*
%TO.P,R2,1*%
%TO.N,GND*%
X163980000Y-98660000D03*
%TO.P,R2,2*%
%TO.N,/BOOT0*%
X162960000Y-98660000D03*
%TD*%
D28*
%TO.P,D1,1,K*%
%TO.N,GND*%
X169457500Y-108620000D03*
%TO.P,D1,2,A*%
%TO.N,Net-(D1-Pad2)*%
X171032500Y-108620000D03*
%TD*%
D12*
%TO.P,C6,1*%
%TO.N,GND*%
X149640000Y-100360000D03*
%TO.P,C6,2*%
%TO.N,/VDD_3.3V*%
X148680000Y-100360000D03*
%TD*%
D29*
%TO.P,C11,1*%
%TO.N,GND*%
X151130000Y-101680000D03*
%TO.P,C11,2*%
%TO.N,Net-(C11-Pad2)*%
X151130000Y-102640000D03*
%TD*%
D30*
%TO.P,C10,1*%
%TO.N,GND*%
X151130000Y-104520000D03*
%TO.P,C10,2*%
%TO.N,Net-(C10-Pad2)*%
X151130000Y-103560000D03*
%TD*%
D14*
%TO.P,Hole4,*%
%TO.N,*%
X175040000Y-91810000D03*
%TD*%
D31*
%TO.P,Y1,1,1*%
%TO.N,Net-(C11-Pad2)*%
X149140000Y-101870000D03*
%TO.P,Y1,2,GND*%
%TO.N,Net-(C10-Pad2)*%
X149140000Y-104370000D03*
%TD*%
D27*
%TO.P,SW1,1,1*%
%TO.N,/VDD_3.3V*%
X163550000Y-96330000D03*
%TO.P,SW1,2,2*%
%TO.N,/BOOT0*%
X156150000Y-96330000D03*
%TD*%
D32*
%TO.P,U1,1,Vin*%
%TO.N,/VDD_5V*%
X172000000Y-92830000D03*
%TO.P,U1,2,Vss*%
%TO.N,GND*%
X172000000Y-91880000D03*
%TO.P,U1,3,CE*%
%TO.N,/VDD_5V*%
X172000000Y-90930000D03*
%TO.P,U1,4,NC*%
%TO.N,unconnected-(U1-Pad4)*%
X169400000Y-90930000D03*
%TO.P,U1,5,Vout*%
%TO.N,/VDD_3.3V*%
X169400000Y-92830000D03*
%TD*%
D22*
%TO.P,J2,1,Pin_1*%
%TO.N,/VDD_5V*%
X165980000Y-108500000D03*
D23*
%TO.P,J2,2,Pin_2*%
%TO.N,GND*%
X163440000Y-108500000D03*
%TO.P,J2,3,Pin_3*%
%TO.N,/VDD_3.3V*%
X160900000Y-108500000D03*
%TO.P,J2,4,Pin_4*%
%TO.N,GND*%
X158360000Y-108500000D03*
%TO.P,J2,5,Pin_5*%
%TO.N,/NRST*%
X155820000Y-108500000D03*
%TO.P,J2,6,Pin_6*%
%TO.N,/PB8*%
X153280000Y-108500000D03*
%TO.P,J2,7,Pin_7*%
%TO.N,/PB7*%
X150740000Y-108500000D03*
%TO.P,J2,8,Pin_8*%
%TO.N,/PB6*%
X148200000Y-108500000D03*
%TO.P,J2,9,Pin_9*%
%TO.N,/PB5*%
X145660000Y-108500000D03*
%TO.P,J2,10,Pin_10*%
%TO.N,/PB4*%
X143120000Y-108500000D03*
%TO.P,J2,11,Pin_11*%
%TO.N,/PB3*%
X140580000Y-108500000D03*
%TO.P,J2,12,Pin_12*%
%TO.N,/PB2*%
X138040000Y-108500000D03*
%TO.P,J2,13,Pin_13*%
%TO.N,/PB1*%
X135500000Y-108500000D03*
%TO.P,J2,14,Pin_14*%
%TO.N,/PB0*%
X132960000Y-108500000D03*
%TD*%
D22*
%TO.P,J1,1,Pin_1*%
%TO.N,/PA0*%
X165990000Y-90940000D03*
D23*
%TO.P,J1,2,Pin_2*%
%TO.N,/PA1*%
X163450000Y-90940000D03*
%TO.P,J1,3,Pin_3*%
%TO.N,/PA2*%
X160910000Y-90940000D03*
%TO.P,J1,4,Pin_4*%
%TO.N,/PA3*%
X158370000Y-90940000D03*
%TO.P,J1,5,Pin_5*%
%TO.N,/PA4{slash}CS*%
X155830000Y-90940000D03*
%TO.P,J1,6,Pin_6*%
%TO.N,/PA5{slash}SCLK*%
X153290000Y-90940000D03*
%TO.P,J1,7,Pin_7*%
%TO.N,/PA6{slash}MISO*%
X150750000Y-90940000D03*
%TO.P,J1,8,Pin_8*%
%TO.N,/PA7{slash}MOSI*%
X148210000Y-90940000D03*
%TO.P,J1,9,Pin_9*%
%TO.N,/PA8*%
X145670000Y-90940000D03*
%TO.P,J1,10,Pin_10*%
%TO.N,/PA9*%
X143130000Y-90940000D03*
%TO.P,J1,11,Pin_11*%
%TO.N,/PA10*%
X140590000Y-90940000D03*
%TO.P,J1,12,Pin_12*%
%TO.N,/PA11*%
X138050000Y-90940000D03*
%TO.P,J1,13,Pin_13*%
%TO.N,/PA12*%
X135510000Y-90940000D03*
%TO.P,J1,14,Pin_14*%
%TO.N,/PA15*%
X132970000Y-90940000D03*
%TD*%
D33*
%TO.N,GND*%
X166890000Y-93370000D03*
D34*
X145120000Y-93600000D03*
D33*
X137030000Y-92990000D03*
X135070000Y-99900000D03*
X131560000Y-93460000D03*
D34*
X139850000Y-103590000D03*
X161930000Y-99680000D03*
D33*
X141460000Y-93740000D03*
D34*
X151040000Y-97420000D03*
D33*
X165920000Y-105580000D03*
X134250000Y-94390000D03*
X139420000Y-93730000D03*
D35*
X163520000Y-101870000D03*
D34*
X168260000Y-108030000D03*
D33*
X144240000Y-99170000D03*
X141920000Y-106800000D03*
X143820000Y-99610000D03*
X142930000Y-100500000D03*
X143340000Y-100040000D03*
D34*
X144970000Y-105930000D03*
D33*
X145370000Y-104190000D03*
X144690000Y-98740000D03*
D34*
X139870000Y-106000000D03*
D33*
X141470000Y-95260000D03*
%TO.N,/VDD_3.3V*%
X151330000Y-94540000D03*
D35*
X154630000Y-105099500D03*
D34*
X165212000Y-97562000D03*
X143700000Y-93600000D03*
D35*
X156910000Y-105080000D03*
D33*
%TO.N,/BOOT0*%
X142357647Y-103390000D03*
X155800000Y-95090000D03*
%TO.N,/NRST*%
X146150000Y-102349500D03*
X155780000Y-104390000D03*
%TO.N,/PA4{slash}CS*%
X153490000Y-97520000D03*
X151430000Y-95490000D03*
X147529500Y-95489977D03*
%TO.N,/PA15*%
X135910000Y-97130000D03*
X132960000Y-95130000D03*
X135920000Y-102500000D03*
%TO.N,/PB0*%
X145510000Y-96580000D03*
%TO.N,/PB1*%
X145510000Y-95820000D03*
%TO.N,/PB2*%
X145520000Y-95070000D03*
%TD*%
D36*
%TO.N,GND*%
X161930000Y-99680000D02*
X156830000Y-99680000D01*
X173080000Y-90540000D02*
X173080000Y-91870000D01*
X163980000Y-99200000D02*
X163500000Y-99680000D01*
X152410000Y-99680000D02*
X156830000Y-99680000D01*
X151040000Y-97420000D02*
X151850000Y-97420000D01*
X139870000Y-103610000D02*
X139870000Y-106000000D01*
X156750000Y-99700000D02*
X156750000Y-98620000D01*
D37*
X170560000Y-95440000D02*
X174360000Y-95440000D01*
D36*
X151040000Y-97420000D02*
X150280000Y-97420000D01*
D37*
X172950000Y-104110000D02*
X170450000Y-104110000D01*
D36*
X144237147Y-94492853D02*
X144237147Y-95098606D01*
X145120000Y-93600000D02*
X145120000Y-93610000D01*
X151130000Y-101680000D02*
X152400000Y-100410000D01*
X156830000Y-99680000D02*
X156780000Y-99730000D01*
D37*
X174360000Y-95440000D02*
X174360000Y-104080000D01*
D36*
X156780000Y-99730000D02*
X156750000Y-99760000D01*
X173090000Y-91880000D02*
X172000000Y-91880000D01*
D37*
X168850000Y-108620000D02*
X169457500Y-108620000D01*
D36*
X168300000Y-91880000D02*
X168300000Y-90530000D01*
X149640000Y-98060000D02*
X149640000Y-99010000D01*
X139850000Y-103590000D02*
X130090000Y-103590000D01*
D37*
X170560000Y-95440000D02*
X170560000Y-96010000D01*
D36*
X151130000Y-101680000D02*
X151990000Y-101680000D01*
X149640000Y-99010000D02*
X149640000Y-100360000D01*
X139850000Y-103590000D02*
X139870000Y-103610000D01*
D37*
X170560000Y-104080000D02*
X170560000Y-103510000D01*
D36*
X144850000Y-105930000D02*
X143287147Y-104367147D01*
X172590000Y-90050000D02*
X173080000Y-90540000D01*
D37*
X170560000Y-96010000D02*
X169560000Y-97010000D01*
X163520000Y-101870000D02*
X163530000Y-101880000D01*
X174210000Y-104110000D02*
X172950000Y-104110000D01*
D36*
X152290000Y-104170000D02*
X151950000Y-104510000D01*
X168300000Y-90530000D02*
X168780000Y-90050000D01*
X156780000Y-99730000D02*
X156750000Y-99700000D01*
X152400000Y-100410000D02*
X152400000Y-99690000D01*
D37*
X163530000Y-101880000D02*
X163530000Y-103090000D01*
D36*
X156750000Y-99760000D02*
X156750000Y-100740000D01*
X163500000Y-99680000D02*
X161930000Y-99680000D01*
D37*
X168260000Y-108030000D02*
X168850000Y-108620000D01*
D36*
X151950000Y-104510000D02*
X151140000Y-104510000D01*
D37*
X170560000Y-103510000D02*
X169560000Y-102510000D01*
D36*
X152400000Y-97970000D02*
X152400000Y-99690000D01*
X163980000Y-98660000D02*
X163980000Y-99200000D01*
X152290000Y-101980000D02*
X152290000Y-104170000D01*
X151850000Y-97420000D02*
X152400000Y-97970000D01*
X151990000Y-101680000D02*
X152290000Y-101980000D01*
X145120000Y-93610000D02*
X144237147Y-94492853D01*
X144970000Y-105930000D02*
X144850000Y-105930000D01*
X168780000Y-90050000D02*
X172590000Y-90050000D01*
X152400000Y-99690000D02*
X152410000Y-99680000D01*
X150280000Y-97420000D02*
X149640000Y-98060000D01*
X166890000Y-93370000D02*
X168370000Y-91890000D01*
D37*
%TO.N,/VDD_5V*%
X172006000Y-92836000D02*
X173316000Y-92836000D01*
X167470000Y-106400000D02*
X165980000Y-107890000D01*
X171760000Y-107650000D02*
X170680000Y-107650000D01*
X170940000Y-92850000D02*
X166500000Y-97290000D01*
X171128000Y-92830000D02*
X172000000Y-92830000D01*
X171096000Y-90930000D02*
X170896000Y-91130000D01*
X166500000Y-105130000D02*
X167390000Y-106020000D01*
X168920000Y-106400000D02*
X167470000Y-106400000D01*
X168550000Y-106020000D02*
X168900000Y-106370000D01*
X172000000Y-90930000D02*
X171096000Y-90930000D01*
X166500000Y-97290000D02*
X166500000Y-105130000D01*
X170896000Y-91130000D02*
X170896000Y-92598000D01*
X170896000Y-92598000D02*
X171128000Y-92830000D01*
X172144000Y-92850000D02*
X170940000Y-92850000D01*
X172200000Y-108090000D02*
X171760000Y-107650000D01*
X165980000Y-107890000D02*
X165980000Y-108500000D01*
X169400000Y-106370000D02*
X169000000Y-106370000D01*
X170680000Y-107650000D02*
X169400000Y-106370000D01*
X167390000Y-106020000D02*
X168550000Y-106020000D01*
D38*
%TO.N,/VDD_3.3V*%
X165088000Y-100740000D02*
X165212000Y-100864000D01*
D36*
X169394000Y-92836000D02*
X168394000Y-92836000D01*
D37*
X165212000Y-97562000D02*
X165212000Y-96432000D01*
D36*
X145010000Y-105130000D02*
X144247147Y-104367147D01*
X147320000Y-101740000D02*
X146179369Y-101740000D01*
D38*
X163970000Y-100740000D02*
X165088000Y-100740000D01*
D36*
X166990000Y-94540000D02*
X167047000Y-94597000D01*
D37*
X168300000Y-92840000D02*
X168300000Y-93344000D01*
X164675000Y-104865000D02*
X160930000Y-108610000D01*
X165212000Y-96432000D02*
X165110000Y-96330000D01*
X165212000Y-100864000D02*
X165212000Y-104328000D01*
D36*
X143277147Y-95098606D02*
X143277147Y-96559229D01*
D37*
X167302000Y-94342000D02*
X167047000Y-94597000D01*
D36*
X146179369Y-101740000D02*
X145729975Y-101290606D01*
X167174000Y-94470000D02*
X167302000Y-94342000D01*
X154599500Y-105130000D02*
X145010000Y-105130000D01*
X144315761Y-102704819D02*
X144240000Y-102780580D01*
X144240000Y-102780580D02*
X144240000Y-104214231D01*
D37*
X168300000Y-93344000D02*
X167302000Y-94342000D01*
D36*
X164430000Y-105110000D02*
X164675000Y-104865000D01*
X148610000Y-100450000D02*
X147320000Y-101740000D01*
X154630000Y-105099500D02*
X154599500Y-105130000D01*
X143277147Y-94022853D02*
X143277147Y-95098606D01*
X151330000Y-94540000D02*
X151310000Y-94540000D01*
D37*
X165110000Y-96330000D02*
X163550000Y-96330000D01*
X165212000Y-104328000D02*
X164675000Y-104865000D01*
D36*
X156910000Y-105080000D02*
X156940000Y-105110000D01*
X148680000Y-99010000D02*
X148680000Y-100360000D01*
X148680000Y-97170000D02*
X148680000Y-99010000D01*
X143277147Y-96559229D02*
X143198533Y-96637843D01*
D37*
X165212000Y-97562000D02*
X165212000Y-100864000D01*
D36*
X151330000Y-94540000D02*
X166990000Y-94540000D01*
D37*
X167047000Y-94597000D02*
X165212000Y-96432000D01*
D36*
X151310000Y-94540000D02*
X148680000Y-97170000D01*
X143700000Y-93600000D02*
X143277147Y-94022853D01*
X156940000Y-105110000D02*
X164430000Y-105110000D01*
%TO.N,/BOOT0*%
X155790000Y-95100000D02*
X155790000Y-95970000D01*
X155800000Y-95090000D02*
X155790000Y-95100000D01*
X159880000Y-96330000D02*
X162210000Y-98660000D01*
X155790000Y-98620000D02*
X155790000Y-96690000D01*
D39*
X142357647Y-103390000D02*
X142357647Y-102838598D01*
X142357647Y-102838598D02*
X142844979Y-102351266D01*
D36*
X162210000Y-98660000D02*
X162960000Y-98660000D01*
X156150000Y-96330000D02*
X159880000Y-96330000D01*
D39*
%TO.N,/NRST*%
X146150000Y-102349500D02*
X146081763Y-102349500D01*
D36*
X162190000Y-100740000D02*
X159840000Y-103090000D01*
X162950000Y-100740000D02*
X162190000Y-100740000D01*
X155780000Y-104390000D02*
X155780000Y-103440000D01*
X155780000Y-104390000D02*
X155780000Y-108570000D01*
D39*
X146081763Y-102349500D02*
X145376422Y-101644159D01*
D36*
X159840000Y-103090000D02*
X156130000Y-103090000D01*
X155780000Y-100750000D02*
X155780000Y-102740000D01*
%TO.N,Net-(C10-Pad2)*%
X149140000Y-104370000D02*
X150320000Y-104370000D01*
X144669315Y-102351266D02*
X145708049Y-103390000D01*
X150320000Y-104370000D02*
X151130000Y-103560000D01*
X145708049Y-103390000D02*
X148160000Y-103390000D01*
X148160000Y-103390000D02*
X149140000Y-104370000D01*
%TO.N,Net-(C11-Pad2)*%
X145022868Y-101997712D02*
X145935156Y-102910000D01*
X145935156Y-102910000D02*
X148100000Y-102910000D01*
X148100000Y-102910000D02*
X149140000Y-101870000D01*
X149140000Y-101870000D02*
X150360000Y-101870000D01*
X150360000Y-101870000D02*
X151130000Y-102640000D01*
D37*
%TO.N,Net-(D1-Pad2)*%
X172200000Y-109110000D02*
X171522500Y-109110000D01*
X171522500Y-109110000D02*
X171032500Y-108620000D01*
D39*
%TO.N,/PA0*%
X146486476Y-101340000D02*
X146083528Y-100937052D01*
X166010000Y-91080000D02*
X163180000Y-93910000D01*
X148060000Y-96972792D02*
X148060000Y-100164264D01*
X151122792Y-93910000D02*
X148060000Y-96972792D01*
X146884264Y-101340000D02*
X146486476Y-101340000D01*
X148060000Y-100164264D02*
X146884264Y-101340000D01*
X163180000Y-93910000D02*
X151122792Y-93910000D01*
%TO.N,/PA1*%
X147760000Y-100040000D02*
X147760000Y-96848528D01*
X146773583Y-100920000D02*
X146880000Y-100920000D01*
X147760000Y-96848528D02*
X151108528Y-93500000D01*
X146437082Y-100583499D02*
X146773583Y-100920000D01*
X151108528Y-93500000D02*
X160870000Y-93500000D01*
X160870000Y-93500000D02*
X163430000Y-90940000D01*
X146880000Y-100920000D02*
X147760000Y-100040000D01*
%TO.N,/PA2*%
X146790635Y-100229945D02*
X147460000Y-99560580D01*
X151004264Y-93180000D02*
X158650000Y-93180000D01*
X147460000Y-96724264D02*
X151004264Y-93180000D01*
X158650000Y-93180000D02*
X160890000Y-90940000D01*
X147460000Y-99560580D02*
X147460000Y-96724264D01*
%TO.N,/PA3*%
X156530000Y-92780000D02*
X158370000Y-90940000D01*
X147160000Y-96600000D02*
X150980000Y-92780000D01*
X147160000Y-98743352D02*
X147160000Y-96600000D01*
X150980000Y-92780000D02*
X156530000Y-92780000D01*
X146790635Y-99112717D02*
X147160000Y-98743352D01*
%TO.N,/PA4{slash}CS*%
X147529500Y-95489977D02*
X146860000Y-96159477D01*
X147560023Y-95489977D02*
X150570000Y-92480000D01*
X150570000Y-92480000D02*
X154290000Y-92480000D01*
X147529500Y-95489977D02*
X147560023Y-95489977D01*
X154290000Y-92480000D02*
X155830000Y-90940000D01*
X153490000Y-97520000D02*
X153460000Y-97520000D01*
X146860000Y-96159477D02*
X146860000Y-98336245D01*
X153460000Y-97520000D02*
X151430000Y-95490000D01*
X146860000Y-98336245D02*
X146437082Y-98759163D01*
%TO.N,/PA5{slash}SCLK*%
X146560000Y-95804264D02*
X146560000Y-97929138D01*
X153290000Y-90940000D02*
X152200000Y-92030000D01*
X152200000Y-92030000D02*
X150334264Y-92030000D01*
X150334264Y-92030000D02*
X146560000Y-95804264D01*
X146560000Y-97929138D02*
X146083528Y-98405610D01*
%TO.N,/PA6{slash}MISO*%
X145729975Y-98052056D02*
X146260000Y-97522031D01*
X146260000Y-97522031D02*
X146260000Y-95680000D01*
X146260000Y-95680000D02*
X150770000Y-91170000D01*
%TO.N,/PA7{slash}MOSI*%
X145960000Y-95555736D02*
X145960000Y-97114925D01*
X145960000Y-97114925D02*
X145376422Y-97698503D01*
X148210000Y-90940000D02*
X148210000Y-93305736D01*
X148210000Y-93305736D02*
X145960000Y-95555736D01*
%TO.N,/PA8*%
X142630000Y-93200000D02*
X142630000Y-96776417D01*
X142630000Y-96776417D02*
X142844979Y-96991396D01*
X144890000Y-90940000D02*
X142630000Y-93200000D01*
X145670000Y-90940000D02*
X144890000Y-90940000D01*
%TO.N,/PA9*%
X143130000Y-90940000D02*
X143130000Y-92150000D01*
X142260000Y-97113524D02*
X142491426Y-97344950D01*
X142260000Y-93020000D02*
X142260000Y-97113524D01*
X143130000Y-92150000D02*
X142260000Y-93020000D01*
%TO.N,/PA10*%
X140610000Y-96170631D02*
X140610000Y-90960000D01*
X142137872Y-97698503D02*
X140610000Y-96170631D01*
%TO.N,/PA15*%
X138453604Y-102500000D02*
X140723659Y-100229945D01*
X134960000Y-97130000D02*
X135910000Y-97130000D01*
X135920000Y-102500000D02*
X138453604Y-102500000D01*
X132960000Y-95130000D02*
X134960000Y-97130000D01*
%TO.N,/PA13{slash}SWDIO*%
X130090000Y-98510000D02*
X140828049Y-98510000D01*
X140828049Y-98510000D02*
X141077212Y-98759163D01*
%TO.N,/PA14{slash}SWCLK*%
X138765434Y-101050000D02*
X130090000Y-101050000D01*
X140702717Y-99112717D02*
X138765434Y-101050000D01*
%TO.N,/PB0*%
X145510000Y-96580000D02*
X145510000Y-96857818D01*
X145510000Y-96857818D02*
X145022868Y-97344950D01*
%TO.N,/PB1*%
X144960000Y-96130000D02*
X144960000Y-96700711D01*
X145510000Y-95820000D02*
X145270000Y-95820000D01*
X145270000Y-95820000D02*
X144960000Y-96130000D01*
X144960000Y-96700711D02*
X144669315Y-96991396D01*
%TO.N,/PB2*%
X145405736Y-95070000D02*
X144315761Y-96159975D01*
X144315761Y-96159975D02*
X144315761Y-96637843D01*
X145520000Y-95070000D02*
X145405736Y-95070000D01*
%TO.N,/PB3*%
X140580000Y-108500000D02*
X140580000Y-101080711D01*
X140580000Y-101080711D02*
X141077212Y-100583499D01*
%TO.N,/PB4*%
X141430766Y-100937052D02*
X140910000Y-101457818D01*
X140910000Y-101457818D02*
X140910000Y-104507056D01*
X143120000Y-106717056D02*
X143120000Y-108310000D01*
X140910000Y-104507056D02*
X143120000Y-106717056D01*
%TO.N,/PB5*%
X141210000Y-104382792D02*
X141210000Y-101864925D01*
X141210000Y-101864925D02*
X141784319Y-101290606D01*
X145437208Y-108610000D02*
X141210000Y-104382792D01*
%TO.N,/PB6*%
X146980000Y-107280000D02*
X148200000Y-108500000D01*
X142137872Y-101644159D02*
X141550000Y-102232031D01*
X141550000Y-102232031D02*
X141550000Y-104298528D01*
X144531472Y-107280000D02*
X146980000Y-107280000D01*
X141550000Y-104298528D02*
X144531472Y-107280000D01*
%TO.N,/PB7*%
X144655736Y-106980000D02*
X141850000Y-104174264D01*
X149220000Y-106980000D02*
X144655736Y-106980000D01*
X150740000Y-108500000D02*
X149220000Y-106980000D01*
X141850000Y-102639138D02*
X142491426Y-101997712D01*
X141850000Y-104174264D02*
X141850000Y-102639138D01*
%TO.N,/PB8*%
X143198533Y-102704819D02*
X142807147Y-103096205D01*
X151460000Y-106680000D02*
X153280000Y-108500000D01*
X144780000Y-106680000D02*
X151460000Y-106680000D01*
X142807147Y-104707147D02*
X144780000Y-106680000D01*
X142807147Y-103096205D02*
X142807147Y-104707147D01*
D37*
%TO.N,Net-(F1-Pad1)*%
X167780000Y-98860000D02*
X168400000Y-98240000D01*
X168400000Y-98240000D02*
X169560000Y-98240000D01*
X167780000Y-101300000D02*
X167780000Y-104680000D01*
X169560000Y-101280000D02*
X168100000Y-101280000D01*
X170110000Y-105110000D02*
X171370000Y-106370000D01*
X168210000Y-105110000D02*
X170110000Y-105110000D01*
X171370000Y-106370000D02*
X171800000Y-106370000D01*
X167780000Y-104680000D02*
X168210000Y-105110000D01*
X167840000Y-101240000D02*
X167780000Y-101300000D01*
X167780000Y-101300000D02*
X167780000Y-98860000D01*
D39*
%TO.N,/PA11*%
X138070000Y-94337737D02*
X141784319Y-98052056D01*
X138070000Y-90960000D02*
X138070000Y-94337737D01*
%TO.N,/PA12*%
X135510000Y-90940000D02*
X135510000Y-92484844D01*
X135510000Y-92484844D02*
X141430766Y-98405610D01*
%TD*%
%TA.AperFunction,Conductor*%
%TO.N,/NRST*%
G36*
X156848044Y-102867965D02*
G01*
X156849915Y-102869496D01*
X156854444Y-102874060D01*
X156855379Y-102874498D01*
X156855378Y-102874498D01*
X156874856Y-102883636D01*
X156874859Y-102883637D01*
X156875204Y-102883799D01*
X156906527Y-102893832D01*
X156906727Y-102893881D01*
X156906738Y-102893884D01*
X156935025Y-102900798D01*
X156947202Y-102903774D01*
X156971219Y-102908431D01*
X156995929Y-102913223D01*
X156995939Y-102913225D01*
X156996023Y-102913241D01*
X157051779Y-102921849D01*
X157051895Y-102921863D01*
X157051903Y-102921864D01*
X157113180Y-102929203D01*
X157113183Y-102929203D01*
X157113264Y-102929213D01*
X157158764Y-102933167D01*
X157179185Y-102934942D01*
X157179199Y-102934943D01*
X157179268Y-102934949D01*
X157179329Y-102934952D01*
X157179353Y-102934954D01*
X157248485Y-102938668D01*
X157248498Y-102938668D01*
X157248582Y-102938673D01*
X157248660Y-102938674D01*
X157248675Y-102938675D01*
X157308517Y-102939787D01*
X157316725Y-102943367D01*
X157320000Y-102951485D01*
X157320000Y-103228515D01*
X157316573Y-103236788D01*
X157308517Y-103240213D01*
X157248675Y-103241324D01*
X157248660Y-103241325D01*
X157248582Y-103241326D01*
X157248498Y-103241331D01*
X157248485Y-103241331D01*
X157179353Y-103245045D01*
X157179329Y-103245047D01*
X157179268Y-103245050D01*
X157179199Y-103245056D01*
X157179185Y-103245057D01*
X157158764Y-103246832D01*
X157113264Y-103250786D01*
X157113183Y-103250796D01*
X157113180Y-103250796D01*
X157051903Y-103258135D01*
X157051895Y-103258136D01*
X157051779Y-103258150D01*
X156996023Y-103266758D01*
X156995939Y-103266774D01*
X156995929Y-103266776D01*
X156971219Y-103271568D01*
X156947202Y-103276225D01*
X156935025Y-103279201D01*
X156906738Y-103286115D01*
X156906727Y-103286118D01*
X156906527Y-103286167D01*
X156875204Y-103296200D01*
X156874859Y-103296362D01*
X156874856Y-103296363D01*
X156869247Y-103298994D01*
X156854444Y-103305939D01*
X156853717Y-103306671D01*
X156853715Y-103306673D01*
X156849916Y-103310501D01*
X156841656Y-103313960D01*
X156839247Y-103313719D01*
X155810536Y-103101459D01*
X155803126Y-103096431D01*
X155801441Y-103087636D01*
X155806469Y-103080226D01*
X155810536Y-103078541D01*
X156019414Y-103035442D01*
X156839250Y-102866280D01*
X156848044Y-102867965D01*
G37*
%TD.AperFunction*%
%TD*%
%TA.AperFunction,Conductor*%
%TO.N,/PB5*%
G36*
X144632296Y-107663033D02*
G01*
X144679003Y-107706160D01*
X144679181Y-107706301D01*
X144735622Y-107751061D01*
X144735630Y-107751067D01*
X144735784Y-107751189D01*
X144792869Y-107790316D01*
X144793025Y-107790408D01*
X144793034Y-107790414D01*
X144814945Y-107803371D01*
X144848750Y-107823363D01*
X144901918Y-107850152D01*
X144902098Y-107850227D01*
X144902107Y-107850231D01*
X144936795Y-107864656D01*
X144950865Y-107870507D01*
X144951097Y-107870581D01*
X144951103Y-107870583D01*
X144983176Y-107880782D01*
X144994081Y-107884250D01*
X145016375Y-107888559D01*
X145029504Y-107891097D01*
X145029507Y-107891097D01*
X145030059Y-107891204D01*
X145030622Y-107891204D01*
X145056121Y-107891192D01*
X145056123Y-107891192D01*
X145057289Y-107891191D01*
X145067593Y-107886848D01*
X145076546Y-107886792D01*
X145079757Y-107888751D01*
X145988748Y-108669003D01*
X145992792Y-108676991D01*
X145990004Y-108685501D01*
X145982015Y-108689546D01*
X145977642Y-108689049D01*
X144835217Y-108332683D01*
X144828340Y-108326948D01*
X144827003Y-108321706D01*
X144826751Y-108306363D01*
X144826740Y-108305669D01*
X144817894Y-108271561D01*
X144817756Y-108271215D01*
X144817753Y-108271206D01*
X144801025Y-108229276D01*
X144800931Y-108229040D01*
X144776182Y-108179309D01*
X144743975Y-108123569D01*
X144743901Y-108123455D01*
X144743893Y-108123442D01*
X144728754Y-108100141D01*
X144704640Y-108063024D01*
X144658507Y-107998875D01*
X144605905Y-107932325D01*
X144570241Y-107891191D01*
X144547235Y-107864656D01*
X144547219Y-107864639D01*
X144547164Y-107864575D01*
X144490492Y-107805096D01*
X144487266Y-107796742D01*
X144490690Y-107788752D01*
X144616086Y-107663356D01*
X144624359Y-107659929D01*
X144632296Y-107663033D01*
G37*
%TD.AperFunction*%
%TD*%
%TA.AperFunction,Conductor*%
%TO.N,/PA2*%
G36*
X161183720Y-90678485D02*
G01*
X161185259Y-90687307D01*
X161183508Y-90691344D01*
X160508956Y-91680572D01*
X160501464Y-91685475D01*
X160496853Y-91685422D01*
X160483428Y-91682562D01*
X160452165Y-91685816D01*
X160412156Y-91696607D01*
X160411878Y-91696713D01*
X160411873Y-91696715D01*
X160408215Y-91698115D01*
X160364818Y-91714722D01*
X160311566Y-91739948D01*
X160253814Y-91772073D01*
X160253697Y-91772148D01*
X160253688Y-91772153D01*
X160193100Y-91810806D01*
X160192978Y-91810884D01*
X160130473Y-91856167D01*
X160067715Y-91907712D01*
X160067588Y-91907831D01*
X160067582Y-91907836D01*
X160014382Y-91957577D01*
X160005998Y-91960724D01*
X159998118Y-91957304D01*
X159872704Y-91831890D01*
X159869277Y-91823617D01*
X159872438Y-91815618D01*
X159922997Y-91761646D01*
X159923001Y-91761641D01*
X159923111Y-91761524D01*
X159975478Y-91698115D01*
X160021572Y-91635050D01*
X160061172Y-91573725D01*
X160094055Y-91515537D01*
X160119999Y-91461882D01*
X160138781Y-91414155D01*
X160150178Y-91373754D01*
X160153967Y-91342075D01*
X160151387Y-91328301D01*
X160153232Y-91319538D01*
X160156619Y-91316268D01*
X161167573Y-90674874D01*
X161176395Y-90673335D01*
X161183720Y-90678485D01*
G37*
%TD.AperFunction*%
%TD*%
%TA.AperFunction,Conductor*%
%TO.N,/PB8*%
G36*
X152404381Y-107482410D02*
G01*
X152456546Y-107531107D01*
X152456557Y-107531117D01*
X152456670Y-107531222D01*
X152518393Y-107581681D01*
X152518539Y-107581786D01*
X152579748Y-107625800D01*
X152579760Y-107625808D01*
X152579892Y-107625903D01*
X152639772Y-107663714D01*
X152696639Y-107694943D01*
X152749098Y-107719417D01*
X152749296Y-107719491D01*
X152749302Y-107719494D01*
X152770520Y-107727474D01*
X152795754Y-107736965D01*
X152835212Y-107747415D01*
X152835673Y-107747463D01*
X152835676Y-107747463D01*
X152845256Y-107748449D01*
X152866077Y-107750594D01*
X152866949Y-107750416D01*
X152866950Y-107750416D01*
X152879196Y-107747916D01*
X152887987Y-107749619D01*
X152891308Y-107752947D01*
X153127080Y-108111310D01*
X153549354Y-108753149D01*
X153551039Y-108761944D01*
X153546011Y-108769354D01*
X153537216Y-108771039D01*
X153533149Y-108769354D01*
X153508518Y-108753149D01*
X152532948Y-108111309D01*
X152527921Y-108103900D01*
X152527916Y-108099196D01*
X152530416Y-108086950D01*
X152530416Y-108086949D01*
X152530594Y-108086077D01*
X152527415Y-108055212D01*
X152516965Y-108015754D01*
X152499417Y-107969098D01*
X152474943Y-107916639D01*
X152443714Y-107859772D01*
X152405903Y-107799892D01*
X152405808Y-107799760D01*
X152405800Y-107799748D01*
X152361786Y-107738539D01*
X152361681Y-107738393D01*
X152360430Y-107736862D01*
X152326086Y-107694852D01*
X152311222Y-107676670D01*
X152311117Y-107676557D01*
X152311107Y-107676546D01*
X152262410Y-107624381D01*
X152259270Y-107615995D01*
X152262690Y-107608124D01*
X152388124Y-107482690D01*
X152396397Y-107479263D01*
X152404381Y-107482410D01*
G37*
%TD.AperFunction*%
%TD*%
%TA.AperFunction,Conductor*%
%TO.N,/PA0*%
G36*
X166221664Y-90640590D02*
G01*
X166224501Y-90649084D01*
X166223371Y-90653337D01*
X165705647Y-91728413D01*
X165704014Y-91731803D01*
X165697337Y-91737770D01*
X165692333Y-91738371D01*
X165678281Y-91736995D01*
X165677485Y-91736917D01*
X165676699Y-91737056D01*
X165676698Y-91737056D01*
X165672660Y-91737770D01*
X165644587Y-91742733D01*
X165644191Y-91742863D01*
X165644187Y-91742864D01*
X165610675Y-91753868D01*
X165603090Y-91756359D01*
X165554315Y-91777536D01*
X165499580Y-91806006D01*
X165440205Y-91841512D01*
X165377508Y-91883796D01*
X165312810Y-91932600D01*
X165247430Y-91987666D01*
X165197335Y-92034918D01*
X165190952Y-92040939D01*
X165182582Y-92044123D01*
X165174651Y-92040701D01*
X165049238Y-91915288D01*
X165045811Y-91907015D01*
X165048939Y-91899052D01*
X165095575Y-91848850D01*
X165095585Y-91848838D01*
X165095721Y-91848692D01*
X165095849Y-91848533D01*
X165095857Y-91848524D01*
X165144084Y-91788725D01*
X165144209Y-91788570D01*
X165186543Y-91728413D01*
X165222541Y-91669689D01*
X165252017Y-91613866D01*
X165274790Y-91562409D01*
X165290675Y-91516787D01*
X165299488Y-91478467D01*
X165301047Y-91448915D01*
X165300608Y-91447473D01*
X165297379Y-91436861D01*
X165298249Y-91427949D01*
X165300901Y-91424621D01*
X166203820Y-90640590D01*
X166205160Y-90639427D01*
X166213653Y-90636590D01*
X166221664Y-90640590D01*
G37*
%TD.AperFunction*%
%TD*%
%TA.AperFunction,Conductor*%
%TO.N,/PB7*%
G36*
X149864381Y-107482410D02*
G01*
X149916546Y-107531107D01*
X149916557Y-107531117D01*
X149916670Y-107531222D01*
X149978393Y-107581681D01*
X149978539Y-107581786D01*
X150039748Y-107625800D01*
X150039760Y-107625808D01*
X150039892Y-107625903D01*
X150099772Y-107663714D01*
X150156639Y-107694943D01*
X150209098Y-107719417D01*
X150209296Y-107719491D01*
X150209302Y-107719494D01*
X150230520Y-107727474D01*
X150255754Y-107736965D01*
X150295212Y-107747415D01*
X150295673Y-107747463D01*
X150295676Y-107747463D01*
X150305256Y-107748449D01*
X150326077Y-107750594D01*
X150326949Y-107750416D01*
X150326950Y-107750416D01*
X150339196Y-107747916D01*
X150347987Y-107749619D01*
X150351308Y-107752947D01*
X150587080Y-108111310D01*
X151009354Y-108753149D01*
X151011039Y-108761944D01*
X151006011Y-108769354D01*
X150997216Y-108771039D01*
X150993149Y-108769354D01*
X150968518Y-108753149D01*
X149992948Y-108111309D01*
X149987921Y-108103900D01*
X149987916Y-108099196D01*
X149990416Y-108086950D01*
X149990416Y-108086949D01*
X149990594Y-108086077D01*
X149987415Y-108055212D01*
X149976965Y-108015754D01*
X149959417Y-107969098D01*
X149934943Y-107916639D01*
X149903714Y-107859772D01*
X149865903Y-107799892D01*
X149865808Y-107799760D01*
X149865800Y-107799748D01*
X149821786Y-107738539D01*
X149821681Y-107738393D01*
X149820430Y-107736862D01*
X149786086Y-107694852D01*
X149771222Y-107676670D01*
X149771117Y-107676557D01*
X149771107Y-107676546D01*
X149722410Y-107624381D01*
X149719270Y-107615995D01*
X149722690Y-107608124D01*
X149848124Y-107482690D01*
X149856397Y-107479263D01*
X149864381Y-107482410D01*
G37*
%TD.AperFunction*%
%TD*%
%TA.AperFunction,Conductor*%
%TO.N,/PA8*%
G36*
X146037248Y-90897977D02*
G01*
X146045049Y-90902374D01*
X146047456Y-90910999D01*
X146043059Y-90918800D01*
X146039146Y-90920815D01*
X144888938Y-91259557D01*
X144880034Y-91258607D01*
X144878296Y-91257447D01*
X144873179Y-91253323D01*
X144871381Y-91253201D01*
X144871380Y-91253201D01*
X144854527Y-91252062D01*
X144854526Y-91252062D01*
X144853801Y-91252013D01*
X144826364Y-91257032D01*
X144792306Y-91268055D01*
X144753062Y-91284755D01*
X144752879Y-91284849D01*
X144752868Y-91284854D01*
X144710252Y-91306716D01*
X144710071Y-91306809D01*
X144709902Y-91306910D01*
X144709893Y-91306915D01*
X144667525Y-91332242D01*
X144664770Y-91333889D01*
X144618596Y-91365673D01*
X144618446Y-91365792D01*
X144573156Y-91401697D01*
X144573149Y-91401703D01*
X144572985Y-91401833D01*
X144537635Y-91434430D01*
X144529232Y-91437518D01*
X144521433Y-91434101D01*
X144396164Y-91308832D01*
X144392737Y-91300559D01*
X144396099Y-91292351D01*
X144461193Y-91226231D01*
X144461203Y-91226221D01*
X144461247Y-91226176D01*
X144529974Y-91154079D01*
X144593512Y-91085091D01*
X144651241Y-91019972D01*
X144702540Y-90959482D01*
X144746785Y-90904380D01*
X144783358Y-90855425D01*
X144811634Y-90813377D01*
X144830994Y-90778996D01*
X144837570Y-90761619D01*
X144843704Y-90755094D01*
X144849920Y-90754145D01*
X146037248Y-90897977D01*
G37*
%TD.AperFunction*%
%TD*%
%TA.AperFunction,Conductor*%
%TO.N,/PA6{slash}MISO*%
G36*
X150958684Y-90624145D02*
G01*
X150962147Y-90632404D01*
X150961338Y-90636729D01*
X150559569Y-91660019D01*
X150523923Y-91750807D01*
X150517709Y-91757255D01*
X150512587Y-91758222D01*
X150496957Y-91757624D01*
X150472569Y-91763028D01*
X150463621Y-91765010D01*
X150463619Y-91765011D01*
X150463238Y-91765095D01*
X150462874Y-91765229D01*
X150462867Y-91765231D01*
X150421243Y-91780546D01*
X150421237Y-91780548D01*
X150420991Y-91780639D01*
X150420749Y-91780753D01*
X150371657Y-91803856D01*
X150371647Y-91803861D01*
X150371473Y-91803943D01*
X150371297Y-91804040D01*
X150371294Y-91804042D01*
X150327970Y-91828035D01*
X150322302Y-91829500D01*
X150311661Y-91829500D01*
X150301414Y-91831837D01*
X150300118Y-91832056D01*
X150266630Y-91835783D01*
X150265512Y-91836483D01*
X150265509Y-91836484D01*
X150258282Y-91841008D01*
X150254677Y-91842498D01*
X150251392Y-91843248D01*
X150245079Y-91844688D01*
X150218727Y-91865687D01*
X150217656Y-91866445D01*
X150209159Y-91871764D01*
X150209152Y-91871769D01*
X150208597Y-91872117D01*
X150200977Y-91879737D01*
X150199995Y-91880614D01*
X150173540Y-91901695D01*
X150169297Y-91910492D01*
X150167032Y-91913682D01*
X150000103Y-92080611D01*
X149991830Y-92084038D01*
X149983557Y-92080611D01*
X149858724Y-91955778D01*
X149855297Y-91947505D01*
X149858413Y-91939555D01*
X149903628Y-91890734D01*
X149903630Y-91890731D01*
X149903776Y-91890574D01*
X149950895Y-91831653D01*
X149953408Y-91828035D01*
X149991823Y-91772716D01*
X149991935Y-91772555D01*
X149992029Y-91772399D01*
X149992038Y-91772385D01*
X150026615Y-91714944D01*
X150026617Y-91714941D01*
X150026713Y-91714781D01*
X150055046Y-91659834D01*
X150076750Y-91609215D01*
X150076827Y-91608984D01*
X150076831Y-91608973D01*
X150091540Y-91564740D01*
X150091540Y-91564739D01*
X150091644Y-91564427D01*
X150099543Y-91526971D01*
X150100264Y-91498350D01*
X150099891Y-91497323D01*
X150099890Y-91497316D01*
X150096155Y-91487031D01*
X150096552Y-91478085D01*
X150098841Y-91474804D01*
X150942138Y-90624217D01*
X150950397Y-90620754D01*
X150958684Y-90624145D01*
G37*
%TD.AperFunction*%
%TD*%
%TA.AperFunction,Conductor*%
%TO.N,/PA9*%
G36*
X143139774Y-90566469D02*
G01*
X143141459Y-90570536D01*
X143383600Y-91744064D01*
X143381915Y-91752859D01*
X143379724Y-91755338D01*
X143367577Y-91765675D01*
X143352280Y-91796531D01*
X143352157Y-91796896D01*
X143352154Y-91796904D01*
X143337384Y-91840844D01*
X143337343Y-91840967D01*
X143337315Y-91841062D01*
X143337310Y-91841078D01*
X143321003Y-91896538D01*
X143320973Y-91896636D01*
X143301560Y-91960576D01*
X143301422Y-91961001D01*
X143278934Y-92025864D01*
X143277171Y-92030948D01*
X143276907Y-92031638D01*
X143246102Y-92105128D01*
X143245677Y-92106032D01*
X143206594Y-92180677D01*
X143205956Y-92181752D01*
X143156884Y-92255157D01*
X143155981Y-92256338D01*
X143102877Y-92317323D01*
X143094860Y-92321311D01*
X143085781Y-92317912D01*
X142960363Y-92192494D01*
X142956936Y-92184221D01*
X142959241Y-92177249D01*
X142990138Y-92135628D01*
X143009205Y-92081541D01*
X143009263Y-92080766D01*
X143013343Y-92025864D01*
X143013343Y-92025859D01*
X143013388Y-92025252D01*
X143005654Y-91968918D01*
X142988965Y-91914699D01*
X142980765Y-91896636D01*
X142966425Y-91865052D01*
X142966289Y-91864752D01*
X142940589Y-91821235D01*
X142914831Y-91786307D01*
X142909392Y-91780552D01*
X142892437Y-91762609D01*
X142892434Y-91762606D01*
X142891979Y-91762125D01*
X142891422Y-91761755D01*
X142881583Y-91755220D01*
X142876587Y-91747788D01*
X142876597Y-91743110D01*
X143118541Y-90570536D01*
X143123569Y-90563126D01*
X143132364Y-90561441D01*
X143139774Y-90566469D01*
G37*
%TD.AperFunction*%
%TD*%
%TA.AperFunction,Conductor*%
%TO.N,GND*%
G36*
X167844980Y-107201867D02*
G01*
X167901816Y-107244414D01*
X167920471Y-107280046D01*
X167930571Y-107310318D01*
X167933450Y-107318946D01*
X168026522Y-107469348D01*
X168151697Y-107594305D01*
X168157927Y-107598145D01*
X168157928Y-107598146D01*
X168267482Y-107665676D01*
X168302262Y-107687115D01*
X168356235Y-107705017D01*
X168463611Y-107740632D01*
X168463613Y-107740632D01*
X168470139Y-107742797D01*
X168476977Y-107743498D01*
X168476979Y-107743498D01*
X168507985Y-107746675D01*
X168550262Y-107751006D01*
X168615988Y-107777847D01*
X168656771Y-107835962D01*
X168659659Y-107906900D01*
X168644679Y-107942466D01*
X168579447Y-108048291D01*
X168573303Y-108061468D01*
X168524421Y-108208843D01*
X168521555Y-108222210D01*
X168512328Y-108312270D01*
X168512000Y-108318685D01*
X168512000Y-108347885D01*
X168516475Y-108363124D01*
X168517865Y-108364329D01*
X168525548Y-108366000D01*
X169585500Y-108366000D01*
X169653621Y-108386002D01*
X169700114Y-108439658D01*
X169711500Y-108492000D01*
X169711500Y-108748000D01*
X169691498Y-108816121D01*
X169637842Y-108862614D01*
X169585500Y-108874000D01*
X168530115Y-108874000D01*
X168514876Y-108878475D01*
X168513671Y-108879865D01*
X168512000Y-108887548D01*
X168512000Y-108921266D01*
X168512337Y-108927782D01*
X168521804Y-109019021D01*
X168524697Y-109032417D01*
X168573830Y-109179687D01*
X168580004Y-109192866D01*
X168633427Y-109279197D01*
X168652265Y-109347649D01*
X168631104Y-109415419D01*
X168576663Y-109460990D01*
X168526283Y-109471500D01*
X167464500Y-109471500D01*
X167396379Y-109451498D01*
X167349886Y-109397842D01*
X167338500Y-109345500D01*
X167338500Y-107656371D01*
X167358502Y-107588250D01*
X167375405Y-107567276D01*
X167711853Y-107230828D01*
X167774165Y-107196802D01*
X167844980Y-107201867D01*
G37*
%TD.AperFunction*%
%TA.AperFunction,Conductor*%
G36*
X176305699Y-91809365D02*
G01*
X176365379Y-91847819D01*
X176391102Y-91895232D01*
X176423561Y-92007531D01*
X176423884Y-92008649D01*
X176427123Y-92022908D01*
X176474252Y-92305512D01*
X176475241Y-92311445D01*
X176476805Y-92325980D01*
X176481283Y-92417072D01*
X176489447Y-92583143D01*
X176487921Y-92609822D01*
X176486386Y-92619133D01*
X176487471Y-92628050D01*
X176490577Y-92653577D01*
X176491500Y-92668796D01*
X176491500Y-106584617D01*
X176490233Y-106602439D01*
X176486271Y-106630168D01*
X176487546Y-106639050D01*
X176487546Y-106639056D01*
X176488839Y-106648061D01*
X176489997Y-106671495D01*
X176479443Y-106911681D01*
X176477980Y-106944965D01*
X176476556Y-106959106D01*
X176434349Y-107226013D01*
X176429422Y-107257173D01*
X176426412Y-107271069D01*
X176382711Y-107429132D01*
X176379776Y-107439746D01*
X176342344Y-107500073D01*
X176278239Y-107530587D01*
X176207813Y-107521598D01*
X176153427Y-107475962D01*
X176134895Y-107430249D01*
X176134608Y-107427126D01*
X176111871Y-107346507D01*
X176080875Y-107236606D01*
X176080874Y-107236604D01*
X176079307Y-107231047D01*
X176074665Y-107221632D01*
X175991756Y-107053510D01*
X175989201Y-107048329D01*
X175985603Y-107043510D01*
X175870758Y-106889715D01*
X175870758Y-106889714D01*
X175867305Y-106885091D01*
X175755354Y-106781604D01*
X175721943Y-106750719D01*
X175721940Y-106750717D01*
X175717703Y-106746800D01*
X175669536Y-106716409D01*
X175550288Y-106641169D01*
X175550283Y-106641167D01*
X175545404Y-106638088D01*
X175356180Y-106562595D01*
X175156366Y-106522849D01*
X175150592Y-106522773D01*
X175150588Y-106522773D01*
X175047452Y-106521424D01*
X174952655Y-106520183D01*
X174946958Y-106521162D01*
X174946957Y-106521162D01*
X174770586Y-106551468D01*
X174751870Y-106554684D01*
X174560734Y-106625198D01*
X174555773Y-106628150D01*
X174555772Y-106628150D01*
X174407423Y-106716409D01*
X174385649Y-106729363D01*
X174232478Y-106863690D01*
X174228911Y-106868215D01*
X174228906Y-106868220D01*
X174157087Y-106959323D01*
X174106351Y-107023681D01*
X174103662Y-107028792D01*
X174103660Y-107028795D01*
X174070183Y-107092425D01*
X174011492Y-107203978D01*
X173951078Y-107398543D01*
X173927132Y-107600859D01*
X173940457Y-107804151D01*
X173990605Y-108001610D01*
X174075898Y-108186624D01*
X174193479Y-108352997D01*
X174339410Y-108495157D01*
X174344206Y-108498362D01*
X174344209Y-108498364D01*
X174406947Y-108540284D01*
X174508803Y-108608342D01*
X174514106Y-108610620D01*
X174514109Y-108610622D01*
X174686174Y-108684547D01*
X174695987Y-108688763D01*
X174768817Y-108705243D01*
X174889055Y-108732450D01*
X174889060Y-108732451D01*
X174894692Y-108733725D01*
X174900463Y-108733952D01*
X174900465Y-108733952D01*
X174963470Y-108736427D01*
X175098263Y-108741723D01*
X175218083Y-108724350D01*
X175288368Y-108734370D01*
X175342079Y-108780799D01*
X175362162Y-108848896D01*
X175342241Y-108917040D01*
X175309736Y-108951334D01*
X175201622Y-109029098D01*
X175189628Y-109036737D01*
X174926355Y-109184220D01*
X174913577Y-109190458D01*
X174885920Y-109202077D01*
X174635368Y-109307336D01*
X174621983Y-109312090D01*
X174332354Y-109396881D01*
X174318511Y-109400097D01*
X174021191Y-109451711D01*
X174007081Y-109453347D01*
X173741331Y-109469036D01*
X173714830Y-109467802D01*
X173713863Y-109467654D01*
X173713860Y-109467654D01*
X173704987Y-109466295D01*
X173696091Y-109467481D01*
X173696090Y-109467481D01*
X173689145Y-109468407D01*
X173674231Y-109470395D01*
X173657583Y-109471500D01*
X173152095Y-109471500D01*
X173083974Y-109451498D01*
X173037481Y-109397842D01*
X173026484Y-109335612D01*
X173028306Y-109312467D01*
X173028307Y-109312441D01*
X173028500Y-109309989D01*
X173028499Y-108910012D01*
X173025629Y-108873534D01*
X172987334Y-108741723D01*
X172982481Y-108725017D01*
X172982480Y-108725015D01*
X172980269Y-108717404D01*
X172976233Y-108710579D01*
X172976231Y-108710575D01*
X172948769Y-108664139D01*
X172931309Y-108595323D01*
X172948769Y-108535861D01*
X172976231Y-108489425D01*
X172976233Y-108489421D01*
X172980269Y-108482596D01*
X172999273Y-108417186D01*
X173023835Y-108332641D01*
X173025629Y-108326466D01*
X173026242Y-108318685D01*
X173028307Y-108292444D01*
X173028307Y-108292438D01*
X173028500Y-108289989D01*
X173028499Y-107890012D01*
X173025629Y-107853534D01*
X172980269Y-107697404D01*
X172916239Y-107589134D01*
X172901540Y-107564280D01*
X172897506Y-107557459D01*
X172857715Y-107517668D01*
X172823689Y-107455356D01*
X172828754Y-107384541D01*
X172839550Y-107362457D01*
X172863275Y-107323968D01*
X172863276Y-107323966D01*
X172867115Y-107317738D01*
X172905367Y-107202411D01*
X172920632Y-107156389D01*
X172920632Y-107156387D01*
X172922797Y-107149861D01*
X172923518Y-107142831D01*
X172928148Y-107097636D01*
X172933500Y-107045400D01*
X172933500Y-105694600D01*
X172931272Y-105673128D01*
X172923238Y-105595692D01*
X172923237Y-105595688D01*
X172922526Y-105588834D01*
X172866550Y-105421054D01*
X172773478Y-105270652D01*
X172648303Y-105145695D01*
X172642072Y-105141854D01*
X172503968Y-105056725D01*
X172503966Y-105056724D01*
X172497738Y-105052885D01*
X172379173Y-105013559D01*
X172336389Y-104999368D01*
X172336387Y-104999368D01*
X172329861Y-104997203D01*
X172323025Y-104996503D01*
X172323022Y-104996502D01*
X172279969Y-104992091D01*
X172225400Y-104986500D01*
X171786117Y-104986500D01*
X171717996Y-104966498D01*
X171671503Y-104912842D01*
X171661399Y-104842568D01*
X171689032Y-104780185D01*
X171795784Y-104651144D01*
X171802644Y-104640973D01*
X171890804Y-104477924D01*
X171895556Y-104466619D01*
X171931250Y-104351308D01*
X171931331Y-104345768D01*
X172987425Y-104345768D01*
X173019138Y-104453521D01*
X173023731Y-104464889D01*
X173109607Y-104629154D01*
X173116321Y-104639415D01*
X173232468Y-104783873D01*
X173241046Y-104792632D01*
X173383039Y-104911778D01*
X173393159Y-104918708D01*
X173555585Y-105008002D01*
X173566858Y-105012834D01*
X173743538Y-105068880D01*
X173755532Y-105071430D01*
X173899761Y-105087607D01*
X173906785Y-105088000D01*
X174087885Y-105088000D01*
X174103124Y-105083525D01*
X174104329Y-105082135D01*
X174106000Y-105074452D01*
X174106000Y-105069885D01*
X174614000Y-105069885D01*
X174618475Y-105085124D01*
X174619865Y-105086329D01*
X174627548Y-105088000D01*
X174806657Y-105088000D01*
X174812805Y-105087699D01*
X174950603Y-105074188D01*
X174962638Y-105071805D01*
X175140076Y-105018233D01*
X175151416Y-105013559D01*
X175315077Y-104926540D01*
X175325294Y-104919751D01*
X175468933Y-104802603D01*
X175477637Y-104793959D01*
X175595784Y-104651144D01*
X175602644Y-104640973D01*
X175690804Y-104477924D01*
X175695556Y-104466619D01*
X175731250Y-104351308D01*
X175731456Y-104337205D01*
X175724701Y-104334000D01*
X174632115Y-104334000D01*
X174616876Y-104338475D01*
X174615671Y-104339865D01*
X174614000Y-104347548D01*
X174614000Y-105069885D01*
X174106000Y-105069885D01*
X174106000Y-104352115D01*
X174101525Y-104336876D01*
X174100135Y-104335671D01*
X174092452Y-104334000D01*
X173002076Y-104334000D01*
X172988545Y-104337973D01*
X172987425Y-104345768D01*
X171931331Y-104345768D01*
X171931456Y-104337205D01*
X171924701Y-104334000D01*
X169202076Y-104334000D01*
X169159859Y-104346396D01*
X169124361Y-104351500D01*
X168664500Y-104351500D01*
X168596379Y-104331498D01*
X168549886Y-104277842D01*
X168538500Y-104225500D01*
X168538500Y-103513840D01*
X168558502Y-103445719D01*
X168612158Y-103399226D01*
X168682432Y-103389122D01*
X168708730Y-103395858D01*
X168742394Y-103408478D01*
X168757649Y-103412105D01*
X168808514Y-103417631D01*
X168815328Y-103418000D01*
X169160613Y-103418000D01*
X169228734Y-103438002D01*
X169275227Y-103491658D01*
X169285331Y-103561932D01*
X169271449Y-103603928D01*
X169229198Y-103682071D01*
X169224444Y-103693381D01*
X169188750Y-103808692D01*
X169188544Y-103822795D01*
X169195299Y-103826000D01*
X171917924Y-103826000D01*
X171928839Y-103822795D01*
X172988544Y-103822795D01*
X172995299Y-103826000D01*
X174087885Y-103826000D01*
X174103124Y-103821525D01*
X174104329Y-103820135D01*
X174106000Y-103812452D01*
X174106000Y-103807885D01*
X174614000Y-103807885D01*
X174618475Y-103823124D01*
X174619865Y-103824329D01*
X174627548Y-103826000D01*
X175717924Y-103826000D01*
X175731455Y-103822027D01*
X175732575Y-103814232D01*
X175700862Y-103706479D01*
X175696269Y-103695111D01*
X175610393Y-103530846D01*
X175603679Y-103520585D01*
X175487532Y-103376127D01*
X175478954Y-103367368D01*
X175336961Y-103248222D01*
X175326841Y-103241292D01*
X175164415Y-103151998D01*
X175153142Y-103147166D01*
X174976462Y-103091120D01*
X174964468Y-103088570D01*
X174820239Y-103072393D01*
X174813215Y-103072000D01*
X174632115Y-103072000D01*
X174616876Y-103076475D01*
X174615671Y-103077865D01*
X174614000Y-103085548D01*
X174614000Y-103807885D01*
X174106000Y-103807885D01*
X174106000Y-103090115D01*
X174101525Y-103074876D01*
X174100135Y-103073671D01*
X174092452Y-103072000D01*
X173913343Y-103072000D01*
X173907195Y-103072301D01*
X173769397Y-103085812D01*
X173757362Y-103088195D01*
X173579924Y-103141767D01*
X173568584Y-103146441D01*
X173404923Y-103233460D01*
X173394706Y-103240249D01*
X173251067Y-103357397D01*
X173242363Y-103366041D01*
X173124216Y-103508856D01*
X173117356Y-103519027D01*
X173029196Y-103682076D01*
X173024444Y-103693381D01*
X172988750Y-103808692D01*
X172988544Y-103822795D01*
X171928839Y-103822795D01*
X171931455Y-103822027D01*
X171932575Y-103814232D01*
X171900862Y-103706479D01*
X171896269Y-103695111D01*
X171810393Y-103530846D01*
X171803679Y-103520585D01*
X171687532Y-103376127D01*
X171678954Y-103367368D01*
X171536961Y-103248222D01*
X171526841Y-103241292D01*
X171364415Y-103151998D01*
X171353142Y-103147166D01*
X171176462Y-103091120D01*
X171164468Y-103088570D01*
X171020239Y-103072393D01*
X171013215Y-103072000D01*
X170894000Y-103072000D01*
X170825879Y-103051998D01*
X170779386Y-102998342D01*
X170768000Y-102946000D01*
X170768000Y-102782115D01*
X170763525Y-102766876D01*
X170762135Y-102765671D01*
X170754452Y-102764000D01*
X169432000Y-102764000D01*
X169363879Y-102743998D01*
X169317386Y-102690342D01*
X169306000Y-102638000D01*
X169306000Y-102382000D01*
X169326002Y-102313879D01*
X169379658Y-102267386D01*
X169432000Y-102256000D01*
X170749884Y-102256000D01*
X170765123Y-102251525D01*
X170766328Y-102250135D01*
X170767999Y-102242452D01*
X170767999Y-102065331D01*
X170767629Y-102058510D01*
X170762105Y-102007650D01*
X170758478Y-101992393D01*
X170729443Y-101914941D01*
X170724260Y-101844134D01*
X170729443Y-101826483D01*
X170758973Y-101747711D01*
X170758973Y-101747709D01*
X170761745Y-101740316D01*
X170768500Y-101678134D01*
X170768500Y-100881866D01*
X170761745Y-100819684D01*
X170758971Y-100812284D01*
X170757144Y-100804600D01*
X170758965Y-100804167D01*
X170754515Y-100743430D01*
X170758297Y-100730552D01*
X170758972Y-100727713D01*
X170761745Y-100720316D01*
X170768500Y-100658134D01*
X170768500Y-99861866D01*
X170761745Y-99799684D01*
X170758971Y-99792285D01*
X170758225Y-99789146D01*
X170758225Y-99730854D01*
X170758971Y-99727715D01*
X170761745Y-99720316D01*
X170768500Y-99658134D01*
X170768500Y-98861866D01*
X170761745Y-98799684D01*
X170758971Y-98792284D01*
X170757144Y-98784600D01*
X170758965Y-98784167D01*
X170754515Y-98723430D01*
X170758297Y-98710552D01*
X170758972Y-98707713D01*
X170761745Y-98700316D01*
X170768500Y-98638134D01*
X170768500Y-97841866D01*
X170765181Y-97811310D01*
X170762598Y-97787534D01*
X170762598Y-97787532D01*
X170761745Y-97779684D01*
X170745318Y-97735865D01*
X170729443Y-97693517D01*
X170724260Y-97622710D01*
X170729443Y-97605059D01*
X170758480Y-97527602D01*
X170762105Y-97512357D01*
X170767631Y-97461486D01*
X170768000Y-97454672D01*
X170768000Y-97282115D01*
X170763525Y-97266876D01*
X170762135Y-97265671D01*
X170754452Y-97264000D01*
X168370116Y-97264000D01*
X168354877Y-97268475D01*
X168353672Y-97269865D01*
X168352001Y-97277548D01*
X168352001Y-97368382D01*
X168331999Y-97436503D01*
X168278343Y-97482996D01*
X168254098Y-97490836D01*
X168250363Y-97491140D01*
X168243403Y-97493395D01*
X168237455Y-97494583D01*
X168231583Y-97495971D01*
X168224319Y-97496818D01*
X168155673Y-97521735D01*
X168151545Y-97523152D01*
X168089064Y-97543393D01*
X168089062Y-97543394D01*
X168082101Y-97545649D01*
X168075846Y-97549445D01*
X168070372Y-97551951D01*
X168064942Y-97554670D01*
X168058063Y-97557167D01*
X167997016Y-97597191D01*
X167993327Y-97599518D01*
X167984197Y-97605059D01*
X167935693Y-97634491D01*
X167935688Y-97634495D01*
X167930892Y-97637405D01*
X167926685Y-97641121D01*
X167926682Y-97641123D01*
X167924223Y-97643295D01*
X167922516Y-97644803D01*
X167922493Y-97644777D01*
X167919503Y-97647426D01*
X167916264Y-97650134D01*
X167910148Y-97654144D01*
X167905121Y-97659451D01*
X167905117Y-97659454D01*
X167856872Y-97710383D01*
X167854494Y-97712825D01*
X167473595Y-98093724D01*
X167411283Y-98127750D01*
X167340468Y-98122685D01*
X167283632Y-98080138D01*
X167258821Y-98013618D01*
X167258500Y-98004629D01*
X167258500Y-97656371D01*
X167278502Y-97588250D01*
X167295405Y-97567276D01*
X168150267Y-96712414D01*
X168212579Y-96678388D01*
X168283394Y-96683453D01*
X168340230Y-96726000D01*
X168351765Y-96749043D01*
X168357865Y-96754329D01*
X168365548Y-96756000D01*
X170749884Y-96756000D01*
X170765123Y-96751525D01*
X170766328Y-96750135D01*
X170767999Y-96742452D01*
X170767999Y-96574000D01*
X170788001Y-96505879D01*
X170841657Y-96459386D01*
X170893999Y-96448000D01*
X171006657Y-96448000D01*
X171012805Y-96447699D01*
X171150603Y-96434188D01*
X171162638Y-96431805D01*
X171340076Y-96378233D01*
X171351416Y-96373559D01*
X171515077Y-96286540D01*
X171525294Y-96279751D01*
X171668933Y-96162603D01*
X171677637Y-96153959D01*
X171795784Y-96011144D01*
X171802644Y-96000973D01*
X171890804Y-95837924D01*
X171895556Y-95826619D01*
X171931250Y-95711308D01*
X171931331Y-95705768D01*
X172987425Y-95705768D01*
X173019138Y-95813521D01*
X173023731Y-95824889D01*
X173109607Y-95989154D01*
X173116321Y-95999415D01*
X173232468Y-96143873D01*
X173241046Y-96152632D01*
X173383039Y-96271778D01*
X173393159Y-96278708D01*
X173555585Y-96368002D01*
X173566858Y-96372834D01*
X173743538Y-96428880D01*
X173755532Y-96431430D01*
X173899761Y-96447607D01*
X173906785Y-96448000D01*
X174087885Y-96448000D01*
X174103124Y-96443525D01*
X174104329Y-96442135D01*
X174106000Y-96434452D01*
X174106000Y-96429885D01*
X174614000Y-96429885D01*
X174618475Y-96445124D01*
X174619865Y-96446329D01*
X174627548Y-96448000D01*
X174806657Y-96448000D01*
X174812805Y-96447699D01*
X174950603Y-96434188D01*
X174962638Y-96431805D01*
X175140076Y-96378233D01*
X175151416Y-96373559D01*
X175315077Y-96286540D01*
X175325294Y-96279751D01*
X175468933Y-96162603D01*
X175477637Y-96153959D01*
X175595784Y-96011144D01*
X175602644Y-96000973D01*
X175690804Y-95837924D01*
X175695556Y-95826619D01*
X175731250Y-95711308D01*
X175731456Y-95697205D01*
X175724701Y-95694000D01*
X174632115Y-95694000D01*
X174616876Y-95698475D01*
X174615671Y-95699865D01*
X174614000Y-95707548D01*
X174614000Y-96429885D01*
X174106000Y-96429885D01*
X174106000Y-95712115D01*
X174101525Y-95696876D01*
X174100135Y-95695671D01*
X174092452Y-95694000D01*
X173002076Y-95694000D01*
X172988545Y-95697973D01*
X172987425Y-95705768D01*
X171931331Y-95705768D01*
X171931456Y-95697205D01*
X171924701Y-95694000D01*
X170432000Y-95694000D01*
X170363879Y-95673998D01*
X170317386Y-95620342D01*
X170306000Y-95568000D01*
X170306000Y-95312000D01*
X170326002Y-95243879D01*
X170379658Y-95197386D01*
X170432000Y-95186000D01*
X171917924Y-95186000D01*
X171928839Y-95182795D01*
X172988544Y-95182795D01*
X172995299Y-95186000D01*
X174087885Y-95186000D01*
X174103124Y-95181525D01*
X174104329Y-95180135D01*
X174106000Y-95172452D01*
X174106000Y-95167885D01*
X174614000Y-95167885D01*
X174618475Y-95183124D01*
X174619865Y-95184329D01*
X174627548Y-95186000D01*
X175717924Y-95186000D01*
X175731455Y-95182027D01*
X175732575Y-95174232D01*
X175700862Y-95066479D01*
X175696269Y-95055111D01*
X175610393Y-94890846D01*
X175603679Y-94880585D01*
X175487532Y-94736127D01*
X175478954Y-94727368D01*
X175336961Y-94608222D01*
X175326841Y-94601292D01*
X175164415Y-94511998D01*
X175153142Y-94507166D01*
X174976462Y-94451120D01*
X174964468Y-94448570D01*
X174820239Y-94432393D01*
X174813215Y-94432000D01*
X174632115Y-94432000D01*
X174616876Y-94436475D01*
X174615671Y-94437865D01*
X174614000Y-94445548D01*
X174614000Y-95167885D01*
X174106000Y-95167885D01*
X174106000Y-94450115D01*
X174101525Y-94434876D01*
X174100135Y-94433671D01*
X174092452Y-94432000D01*
X173913343Y-94432000D01*
X173907195Y-94432301D01*
X173769397Y-94445812D01*
X173757362Y-94448195D01*
X173579924Y-94501767D01*
X173568584Y-94506441D01*
X173404923Y-94593460D01*
X173394706Y-94600249D01*
X173251067Y-94717397D01*
X173242363Y-94726041D01*
X173124216Y-94868856D01*
X173117356Y-94879027D01*
X173029196Y-95042076D01*
X173024444Y-95053381D01*
X172988750Y-95168692D01*
X172988544Y-95182795D01*
X171928839Y-95182795D01*
X171931455Y-95182027D01*
X171932575Y-95174232D01*
X171900862Y-95066479D01*
X171896269Y-95055111D01*
X171810393Y-94890846D01*
X171803679Y-94880585D01*
X171687532Y-94736127D01*
X171678954Y-94727368D01*
X171536961Y-94608222D01*
X171526841Y-94601292D01*
X171364415Y-94511998D01*
X171353142Y-94507166D01*
X171176462Y-94451120D01*
X171164468Y-94448570D01*
X171020239Y-94432393D01*
X171013215Y-94432000D01*
X170734871Y-94432000D01*
X170666750Y-94411998D01*
X170620257Y-94358342D01*
X170610153Y-94288068D01*
X170639647Y-94223488D01*
X170645776Y-94216905D01*
X171216858Y-93645823D01*
X171279170Y-93611797D01*
X171350181Y-93616936D01*
X171389684Y-93631745D01*
X171397532Y-93632598D01*
X171397534Y-93632598D01*
X171448469Y-93638131D01*
X171451866Y-93638500D01*
X172548134Y-93638500D01*
X172551531Y-93638131D01*
X172602466Y-93632598D01*
X172602468Y-93632598D01*
X172610316Y-93631745D01*
X172617709Y-93628973D01*
X172617711Y-93628973D01*
X172687493Y-93602813D01*
X172758300Y-93597630D01*
X172766874Y-93599798D01*
X172856616Y-93625870D01*
X172856620Y-93625871D01*
X172862796Y-93627665D01*
X172884419Y-93629367D01*
X172896362Y-93630307D01*
X172896371Y-93630307D01*
X172898819Y-93630500D01*
X173089845Y-93630500D01*
X173281180Y-93630499D01*
X173300578Y-93628973D01*
X173310786Y-93628170D01*
X173310787Y-93628170D01*
X173317204Y-93627665D01*
X173323384Y-93625870D01*
X173323387Y-93625869D01*
X173468885Y-93583598D01*
X173477331Y-93581891D01*
X173477289Y-93581713D01*
X173484410Y-93580030D01*
X173491681Y-93579182D01*
X173498558Y-93576686D01*
X173498561Y-93576685D01*
X173651061Y-93521329D01*
X173651062Y-93521329D01*
X173657937Y-93518833D01*
X173664054Y-93514822D01*
X173664057Y-93514821D01*
X173799733Y-93425868D01*
X173799734Y-93425867D01*
X173805852Y-93421856D01*
X173927490Y-93293453D01*
X174016326Y-93140510D01*
X174037463Y-93070723D01*
X174065473Y-92978239D01*
X174067595Y-92971233D01*
X174078547Y-92794702D01*
X174077307Y-92787487D01*
X174077307Y-92787482D01*
X174067103Y-92728098D01*
X174075280Y-92657574D01*
X174120288Y-92602666D01*
X174187836Y-92580808D01*
X174256478Y-92598939D01*
X174279205Y-92616508D01*
X174335271Y-92671126D01*
X174335276Y-92671130D01*
X174339410Y-92675157D01*
X174344206Y-92678362D01*
X174344209Y-92678364D01*
X174465262Y-92759249D01*
X174508803Y-92788342D01*
X174514106Y-92790620D01*
X174514109Y-92790622D01*
X174603115Y-92828862D01*
X174695987Y-92868763D01*
X174768817Y-92885243D01*
X174889055Y-92912450D01*
X174889060Y-92912451D01*
X174894692Y-92913725D01*
X174900463Y-92913952D01*
X174900465Y-92913952D01*
X174963470Y-92916427D01*
X175098263Y-92921723D01*
X175299883Y-92892490D01*
X175305347Y-92890635D01*
X175305352Y-92890634D01*
X175487327Y-92828862D01*
X175487332Y-92828860D01*
X175492799Y-92827004D01*
X175531287Y-92805450D01*
X175561835Y-92788342D01*
X175670551Y-92727458D01*
X175827186Y-92597186D01*
X175957458Y-92440551D01*
X176030604Y-92309939D01*
X176054180Y-92267842D01*
X176054181Y-92267840D01*
X176057004Y-92262799D01*
X176058860Y-92257332D01*
X176058862Y-92257327D01*
X176120634Y-92075352D01*
X176120635Y-92075347D01*
X176122490Y-92069883D01*
X176123318Y-92064172D01*
X176123319Y-92064168D01*
X176141026Y-91942039D01*
X176145361Y-91912139D01*
X176174930Y-91847594D01*
X176234702Y-91809281D01*
X176305699Y-91809365D01*
G37*
%TD.AperFunction*%
%TA.AperFunction,Conductor*%
G36*
X162462750Y-105788502D02*
G01*
X162509243Y-105842158D01*
X162519347Y-105912432D01*
X162489853Y-105977012D01*
X162483724Y-105983595D01*
X161370772Y-107096547D01*
X161357246Y-107108276D01*
X161336231Y-107124027D01*
X161333063Y-107127198D01*
X161333058Y-107127203D01*
X161320204Y-107140073D01*
X161257912Y-107174135D01*
X161208960Y-107175077D01*
X161033373Y-107143800D01*
X161033367Y-107143799D01*
X161028284Y-107142894D01*
X160954452Y-107141992D01*
X160810081Y-107140228D01*
X160810079Y-107140228D01*
X160804911Y-107140165D01*
X160584091Y-107173955D01*
X160371756Y-107243357D01*
X160173607Y-107346507D01*
X160169474Y-107349610D01*
X160169471Y-107349612D01*
X159999100Y-107477530D01*
X159994965Y-107480635D01*
X159991393Y-107484373D01*
X159861785Y-107620000D01*
X159840629Y-107642138D01*
X159733204Y-107799618D01*
X159732898Y-107800066D01*
X159677987Y-107845069D01*
X159607462Y-107853240D01*
X159543715Y-107821986D01*
X159523018Y-107797502D01*
X159442426Y-107672926D01*
X159436136Y-107664757D01*
X159292806Y-107507240D01*
X159285273Y-107500215D01*
X159118139Y-107368222D01*
X159109552Y-107362517D01*
X158923117Y-107259599D01*
X158913705Y-107255369D01*
X158712959Y-107184280D01*
X158702988Y-107181646D01*
X158631837Y-107168972D01*
X158618540Y-107170432D01*
X158614000Y-107184989D01*
X158614000Y-108628000D01*
X158593998Y-108696121D01*
X158540342Y-108742614D01*
X158488000Y-108754000D01*
X158232000Y-108754000D01*
X158163879Y-108733998D01*
X158117386Y-108680342D01*
X158106000Y-108628000D01*
X158106000Y-107183102D01*
X158102082Y-107169758D01*
X158087806Y-107167771D01*
X158049324Y-107173660D01*
X158039288Y-107176051D01*
X157836868Y-107242212D01*
X157827359Y-107246209D01*
X157638463Y-107344542D01*
X157629738Y-107350036D01*
X157459433Y-107477905D01*
X157451726Y-107484748D01*
X157304590Y-107638717D01*
X157298109Y-107646722D01*
X157193498Y-107800074D01*
X157138587Y-107845076D01*
X157068062Y-107853247D01*
X157004315Y-107821993D01*
X156983618Y-107797509D01*
X156902822Y-107672617D01*
X156902820Y-107672614D01*
X156900014Y-107668277D01*
X156749670Y-107503051D01*
X156745619Y-107499852D01*
X156745615Y-107499848D01*
X156578417Y-107367803D01*
X156574359Y-107364598D01*
X156508805Y-107328410D01*
X156458835Y-107277978D01*
X156443749Y-107221637D01*
X156443617Y-107216934D01*
X156442649Y-107203978D01*
X156441176Y-107184280D01*
X156440057Y-107169315D01*
X156439822Y-107168445D01*
X156438500Y-107152865D01*
X156438500Y-106003844D01*
X156458502Y-105935723D01*
X156512158Y-105889230D01*
X156582432Y-105879126D01*
X156615748Y-105888737D01*
X156637213Y-105898294D01*
X156637221Y-105898297D01*
X156643248Y-105900980D01*
X156731508Y-105919740D01*
X156813311Y-105937128D01*
X156813315Y-105937128D01*
X156819768Y-105938500D01*
X157000232Y-105938500D01*
X157006685Y-105937128D01*
X157006689Y-105937128D01*
X157088492Y-105919740D01*
X157176752Y-105900980D01*
X157182785Y-105898294D01*
X157335585Y-105830263D01*
X157335587Y-105830262D01*
X157341615Y-105827578D01*
X157360810Y-105813632D01*
X157389808Y-105792564D01*
X157463869Y-105768500D01*
X162394629Y-105768500D01*
X162462750Y-105788502D01*
G37*
%TD.AperFunction*%
%TA.AperFunction,Conductor*%
G36*
X154150879Y-105812563D02*
G01*
X154198385Y-105847078D01*
X154204413Y-105849762D01*
X154204415Y-105849763D01*
X154315749Y-105899332D01*
X154363248Y-105920480D01*
X154434962Y-105935723D01*
X154533311Y-105956628D01*
X154533315Y-105956628D01*
X154539768Y-105958000D01*
X154720232Y-105958000D01*
X154726685Y-105956628D01*
X154726689Y-105956628D01*
X154825038Y-105935723D01*
X154896752Y-105920480D01*
X154944251Y-105899332D01*
X155014618Y-105889898D01*
X155078915Y-105920004D01*
X155116729Y-105980093D01*
X155121500Y-106014439D01*
X155121500Y-107176568D01*
X155119668Y-107197975D01*
X155117682Y-107209496D01*
X155116382Y-107217035D01*
X155116256Y-107221534D01*
X155116256Y-107221537D01*
X155115835Y-107236606D01*
X155115123Y-107262127D01*
X155115121Y-107262190D01*
X155114761Y-107268820D01*
X155114014Y-107278066D01*
X155088591Y-107344354D01*
X155064076Y-107368679D01*
X154919100Y-107477530D01*
X154914965Y-107480635D01*
X154911393Y-107484373D01*
X154781785Y-107620000D01*
X154760629Y-107642138D01*
X154653201Y-107799621D01*
X154598293Y-107844621D01*
X154527768Y-107852792D01*
X154464021Y-107821538D01*
X154443324Y-107797054D01*
X154362822Y-107672617D01*
X154362820Y-107672614D01*
X154360014Y-107668277D01*
X154209670Y-107503051D01*
X154205619Y-107499852D01*
X154205615Y-107499848D01*
X154038414Y-107367800D01*
X154038410Y-107367798D01*
X154034359Y-107364598D01*
X154029831Y-107362098D01*
X153963663Y-107325572D01*
X153838789Y-107256638D01*
X153833920Y-107254914D01*
X153833916Y-107254912D01*
X153633087Y-107183795D01*
X153633083Y-107183794D01*
X153628212Y-107182069D01*
X153623119Y-107181162D01*
X153623116Y-107181161D01*
X153413373Y-107143800D01*
X153413367Y-107143799D01*
X153408284Y-107142894D01*
X153334452Y-107141992D01*
X153190081Y-107140228D01*
X153190079Y-107140228D01*
X153184911Y-107140165D01*
X152964091Y-107173955D01*
X152959178Y-107175561D01*
X152959173Y-107175562D01*
X152934512Y-107183623D01*
X152863548Y-107185776D01*
X152815614Y-107161408D01*
X152799382Y-107148137D01*
X152797958Y-107146973D01*
X152791731Y-107141532D01*
X152755810Y-107108001D01*
X152754786Y-107107045D01*
X152737640Y-107092425D01*
X152724153Y-107080925D01*
X152724151Y-107080924D01*
X152719648Y-107077084D01*
X152719419Y-107076954D01*
X152707420Y-107066871D01*
X151924315Y-106283766D01*
X151913448Y-106271375D01*
X151899013Y-106252563D01*
X151893987Y-106246013D01*
X151862075Y-106221526D01*
X151862072Y-106221523D01*
X151766876Y-106148476D01*
X151618851Y-106087162D01*
X151610664Y-106086084D01*
X151610663Y-106086084D01*
X151599458Y-106084609D01*
X151568262Y-106080502D01*
X151499885Y-106071500D01*
X151499882Y-106071500D01*
X151499874Y-106071499D01*
X151468189Y-106067328D01*
X151460000Y-106066250D01*
X151428307Y-106070422D01*
X151411864Y-106071500D01*
X145084239Y-106071500D01*
X145016118Y-106051498D01*
X144995144Y-106034595D01*
X144964144Y-106003595D01*
X144930118Y-105941283D01*
X144935183Y-105870468D01*
X144977730Y-105813632D01*
X145044250Y-105788821D01*
X145053239Y-105788500D01*
X154076819Y-105788500D01*
X154150879Y-105812563D01*
G37*
%TD.AperFunction*%
%TA.AperFunction,Conductor*%
G36*
X141397012Y-105855071D02*
G01*
X141403595Y-105861200D01*
X142474595Y-106932200D01*
X142508621Y-106994512D01*
X142511500Y-107021295D01*
X142511500Y-107094401D01*
X142509547Y-107116498D01*
X142506409Y-107134114D01*
X142506258Y-107138620D01*
X142506258Y-107138621D01*
X142504652Y-107186565D01*
X142504124Y-107194616D01*
X142501046Y-107226077D01*
X142474506Y-107291926D01*
X142433829Y-107325569D01*
X142393607Y-107346507D01*
X142389474Y-107349610D01*
X142389471Y-107349612D01*
X142219100Y-107477530D01*
X142214965Y-107480635D01*
X142211393Y-107484373D01*
X142081785Y-107620000D01*
X142060629Y-107642138D01*
X141953201Y-107799621D01*
X141898293Y-107844621D01*
X141827768Y-107852792D01*
X141764021Y-107821538D01*
X141743324Y-107797054D01*
X141662822Y-107672617D01*
X141662820Y-107672614D01*
X141660014Y-107668277D01*
X141509670Y-107503051D01*
X141505619Y-107499852D01*
X141505615Y-107499848D01*
X141338412Y-107367799D01*
X141334359Y-107364598D01*
X141329844Y-107362105D01*
X141329831Y-107362097D01*
X141262864Y-107325129D01*
X141212893Y-107274696D01*
X141198389Y-107227414D01*
X141197799Y-107221537D01*
X141195877Y-107202402D01*
X141195321Y-107194151D01*
X141194891Y-107181646D01*
X141193585Y-107143653D01*
X141193417Y-107141532D01*
X141190395Y-107103533D01*
X141190395Y-107103532D01*
X141189926Y-107097636D01*
X141189856Y-107097381D01*
X141188500Y-107081763D01*
X141188500Y-105950295D01*
X141208502Y-105882174D01*
X141262158Y-105835681D01*
X141332432Y-105825577D01*
X141397012Y-105855071D01*
G37*
%TD.AperFunction*%
%TA.AperFunction,Conductor*%
G36*
X135463046Y-101678502D02*
G01*
X135509539Y-101732158D01*
X135519643Y-101802432D01*
X135490149Y-101867012D01*
X135460947Y-101891818D01*
X135450066Y-101898512D01*
X135328486Y-102017573D01*
X135324675Y-102023487D01*
X135324673Y-102023489D01*
X135279686Y-102093295D01*
X135236304Y-102160610D01*
X135178103Y-102320516D01*
X135156775Y-102489343D01*
X135173381Y-102658699D01*
X135227094Y-102820167D01*
X135230741Y-102826189D01*
X135230742Y-102826191D01*
X135310858Y-102958477D01*
X135315246Y-102965723D01*
X135433455Y-103088132D01*
X135482802Y-103120424D01*
X135555525Y-103168012D01*
X135575846Y-103181310D01*
X135582450Y-103183766D01*
X135582452Y-103183767D01*
X135618844Y-103197301D01*
X135735341Y-103240626D01*
X135904015Y-103263132D01*
X135911026Y-103262494D01*
X135911030Y-103262494D01*
X136066462Y-103248348D01*
X136073483Y-103247709D01*
X136080185Y-103245531D01*
X136080187Y-103245531D01*
X136228623Y-103197301D01*
X136228626Y-103197300D01*
X136235322Y-103195124D01*
X136350823Y-103126271D01*
X136415341Y-103108500D01*
X138405468Y-103108500D01*
X138421911Y-103109578D01*
X138453604Y-103113750D01*
X138461793Y-103112672D01*
X138493478Y-103108501D01*
X138493488Y-103108500D01*
X138493489Y-103108500D01*
X138558053Y-103100000D01*
X138593061Y-103095391D01*
X138604268Y-103093916D01*
X138604270Y-103093915D01*
X138612455Y-103092838D01*
X138760480Y-103031524D01*
X138803724Y-102998342D01*
X138855676Y-102958477D01*
X138855679Y-102958474D01*
X138881038Y-102939015D01*
X138887591Y-102933987D01*
X138901850Y-102915405D01*
X138907056Y-102908621D01*
X138917923Y-102896230D01*
X139756405Y-102057748D01*
X139818717Y-102023722D01*
X139889532Y-102028787D01*
X139946368Y-102071334D01*
X139971179Y-102137854D01*
X139971500Y-102146843D01*
X139971500Y-107104057D01*
X139969527Y-107126266D01*
X139967220Y-107139152D01*
X139966415Y-107143645D01*
X139964993Y-107184989D01*
X139964678Y-107194153D01*
X139964124Y-107202379D01*
X139961750Y-107226017D01*
X139935043Y-107291794D01*
X139894561Y-107325188D01*
X139853607Y-107346507D01*
X139849472Y-107349612D01*
X139849469Y-107349614D01*
X139681189Y-107475962D01*
X139674965Y-107480635D01*
X139671393Y-107484373D01*
X139541785Y-107620000D01*
X139520629Y-107642138D01*
X139413201Y-107799621D01*
X139358293Y-107844621D01*
X139287768Y-107852792D01*
X139224021Y-107821538D01*
X139203324Y-107797054D01*
X139122822Y-107672617D01*
X139122820Y-107672614D01*
X139120014Y-107668277D01*
X138969670Y-107503051D01*
X138965619Y-107499852D01*
X138965615Y-107499848D01*
X138798414Y-107367800D01*
X138798410Y-107367798D01*
X138794359Y-107364598D01*
X138789831Y-107362098D01*
X138723663Y-107325572D01*
X138598789Y-107256638D01*
X138593920Y-107254914D01*
X138593916Y-107254912D01*
X138393087Y-107183795D01*
X138393083Y-107183794D01*
X138388212Y-107182069D01*
X138383119Y-107181162D01*
X138383116Y-107181161D01*
X138173373Y-107143800D01*
X138173367Y-107143799D01*
X138168284Y-107142894D01*
X138094452Y-107141992D01*
X137950081Y-107140228D01*
X137950079Y-107140228D01*
X137944911Y-107140165D01*
X137724091Y-107173955D01*
X137511756Y-107243357D01*
X137313607Y-107346507D01*
X137309474Y-107349610D01*
X137309471Y-107349612D01*
X137139100Y-107477530D01*
X137134965Y-107480635D01*
X137131393Y-107484373D01*
X137001785Y-107620000D01*
X136980629Y-107642138D01*
X136873201Y-107799621D01*
X136818293Y-107844621D01*
X136747768Y-107852792D01*
X136684021Y-107821538D01*
X136663324Y-107797054D01*
X136582822Y-107672617D01*
X136582820Y-107672614D01*
X136580014Y-107668277D01*
X136429670Y-107503051D01*
X136425619Y-107499852D01*
X136425615Y-107499848D01*
X136258414Y-107367800D01*
X136258410Y-107367798D01*
X136254359Y-107364598D01*
X136249831Y-107362098D01*
X136183663Y-107325572D01*
X136058789Y-107256638D01*
X136053920Y-107254914D01*
X136053916Y-107254912D01*
X135853087Y-107183795D01*
X135853083Y-107183794D01*
X135848212Y-107182069D01*
X135843119Y-107181162D01*
X135843116Y-107181161D01*
X135633373Y-107143800D01*
X135633367Y-107143799D01*
X135628284Y-107142894D01*
X135554452Y-107141992D01*
X135410081Y-107140228D01*
X135410079Y-107140228D01*
X135404911Y-107140165D01*
X135184091Y-107173955D01*
X134971756Y-107243357D01*
X134773607Y-107346507D01*
X134769474Y-107349610D01*
X134769471Y-107349612D01*
X134599100Y-107477530D01*
X134594965Y-107480635D01*
X134591393Y-107484373D01*
X134461785Y-107620000D01*
X134440629Y-107642138D01*
X134333201Y-107799621D01*
X134278293Y-107844621D01*
X134207768Y-107852792D01*
X134144021Y-107821538D01*
X134123324Y-107797054D01*
X134042822Y-107672617D01*
X134042820Y-107672614D01*
X134040014Y-107668277D01*
X133889670Y-107503051D01*
X133885619Y-107499852D01*
X133885615Y-107499848D01*
X133718414Y-107367800D01*
X133718410Y-107367798D01*
X133714359Y-107364598D01*
X133709831Y-107362098D01*
X133643663Y-107325572D01*
X133518789Y-107256638D01*
X133513920Y-107254914D01*
X133513916Y-107254912D01*
X133313087Y-107183795D01*
X133313083Y-107183794D01*
X133308212Y-107182069D01*
X133303119Y-107181162D01*
X133303116Y-107181161D01*
X133093373Y-107143800D01*
X133093367Y-107143799D01*
X133088284Y-107142894D01*
X133014452Y-107141992D01*
X132870081Y-107140228D01*
X132870079Y-107140228D01*
X132864911Y-107140165D01*
X132644091Y-107173955D01*
X132431756Y-107243357D01*
X132233607Y-107346507D01*
X132229474Y-107349610D01*
X132229471Y-107349612D01*
X132059100Y-107477530D01*
X132054965Y-107480635D01*
X132051393Y-107484373D01*
X131921785Y-107620000D01*
X131900629Y-107642138D01*
X131897715Y-107646410D01*
X131894463Y-107650426D01*
X131892915Y-107649173D01*
X131844617Y-107688757D01*
X131774092Y-107696930D01*
X131710345Y-107665676D01*
X131673614Y-107604920D01*
X131669967Y-107584280D01*
X131655137Y-107422880D01*
X131655136Y-107422877D01*
X131654608Y-107417126D01*
X131649367Y-107398543D01*
X131600875Y-107226606D01*
X131600874Y-107226604D01*
X131599307Y-107221047D01*
X131590759Y-107203712D01*
X131511756Y-107043510D01*
X131509201Y-107038329D01*
X131490796Y-107013681D01*
X131390758Y-106879715D01*
X131390758Y-106879714D01*
X131387305Y-106875091D01*
X131258254Y-106755797D01*
X131241943Y-106740719D01*
X131241940Y-106740717D01*
X131237703Y-106736800D01*
X131174364Y-106696836D01*
X131070288Y-106631169D01*
X131070283Y-106631167D01*
X131065404Y-106628088D01*
X130876180Y-106552595D01*
X130676366Y-106512849D01*
X130670592Y-106512773D01*
X130670588Y-106512773D01*
X130567452Y-106511424D01*
X130472655Y-106510183D01*
X130466958Y-106511162D01*
X130466957Y-106511162D01*
X130392384Y-106523976D01*
X130271870Y-106544684D01*
X130080734Y-106615198D01*
X130075773Y-106618150D01*
X130075772Y-106618150D01*
X130042260Y-106638088D01*
X129905649Y-106719363D01*
X129752478Y-106853690D01*
X129748911Y-106858215D01*
X129748906Y-106858220D01*
X129670525Y-106957647D01*
X129626351Y-107013681D01*
X129623662Y-107018792D01*
X129623660Y-107018795D01*
X129618399Y-107028795D01*
X129531492Y-107193978D01*
X129471078Y-107388543D01*
X129469894Y-107398543D01*
X129456558Y-107511219D01*
X129428687Y-107576517D01*
X129369939Y-107616380D01*
X129298964Y-107618154D01*
X129238298Y-107581275D01*
X129208790Y-107525310D01*
X129148383Y-107268977D01*
X129145926Y-107255123D01*
X129111189Y-106966322D01*
X129110291Y-106952279D01*
X129108255Y-106696836D01*
X129110822Y-106670509D01*
X129110997Y-106669654D01*
X129112801Y-106660863D01*
X129110927Y-106638088D01*
X129108925Y-106613774D01*
X129108500Y-106603438D01*
X129108500Y-104807766D01*
X129128502Y-104739645D01*
X129182158Y-104693152D01*
X129252432Y-104683048D01*
X129306771Y-104704553D01*
X129312881Y-104708831D01*
X129496756Y-104816279D01*
X129506042Y-104820729D01*
X129705001Y-104896703D01*
X129714899Y-104899579D01*
X129818250Y-104920606D01*
X129832299Y-104919410D01*
X129836000Y-104909065D01*
X129836000Y-104908517D01*
X130344000Y-104908517D01*
X130348064Y-104922359D01*
X130361478Y-104924393D01*
X130368184Y-104923534D01*
X130378262Y-104921392D01*
X130582255Y-104860191D01*
X130591842Y-104856433D01*
X130783095Y-104762739D01*
X130791945Y-104757464D01*
X130965328Y-104633792D01*
X130973200Y-104627139D01*
X131124052Y-104476812D01*
X131130730Y-104468965D01*
X131255003Y-104296020D01*
X131260313Y-104287183D01*
X131354670Y-104096267D01*
X131358469Y-104086672D01*
X131420377Y-103882910D01*
X131422555Y-103872837D01*
X131423986Y-103861962D01*
X131421775Y-103847778D01*
X131408617Y-103844000D01*
X130362115Y-103844000D01*
X130346876Y-103848475D01*
X130345671Y-103849865D01*
X130344000Y-103857548D01*
X130344000Y-104908517D01*
X129836000Y-104908517D01*
X129836000Y-103462000D01*
X129856002Y-103393879D01*
X129909658Y-103347386D01*
X129962000Y-103336000D01*
X131408344Y-103336000D01*
X131421875Y-103332027D01*
X131423180Y-103322947D01*
X131381214Y-103155875D01*
X131377894Y-103146124D01*
X131292972Y-102950814D01*
X131288105Y-102941739D01*
X131172426Y-102762926D01*
X131166136Y-102754757D01*
X131022806Y-102597240D01*
X131015273Y-102590215D01*
X130848139Y-102458222D01*
X130839556Y-102452520D01*
X130802602Y-102432120D01*
X130752631Y-102381687D01*
X130737859Y-102312245D01*
X130762975Y-102245839D01*
X130790327Y-102219232D01*
X130813797Y-102202491D01*
X130969860Y-102091173D01*
X130974829Y-102086222D01*
X131068986Y-101992393D01*
X131128096Y-101933489D01*
X131138025Y-101919672D01*
X131255435Y-101756277D01*
X131258453Y-101752077D01*
X131265613Y-101737590D01*
X131313727Y-101685383D01*
X131365979Y-101668048D01*
X131387593Y-101665878D01*
X131395844Y-101665321D01*
X131446347Y-101663585D01*
X131447710Y-101663477D01*
X131447721Y-101663476D01*
X131486467Y-101660395D01*
X131486468Y-101660395D01*
X131492364Y-101659926D01*
X131492619Y-101659856D01*
X131508237Y-101658500D01*
X135394925Y-101658500D01*
X135463046Y-101678502D01*
G37*
%TD.AperFunction*%
%TA.AperFunction,Conductor*%
G36*
X165659591Y-105057256D02*
G01*
X165716427Y-105099803D01*
X165741347Y-105167999D01*
X165741500Y-105170630D01*
X165741500Y-105174293D01*
X165741925Y-105177938D01*
X165744789Y-105202507D01*
X165745222Y-105206882D01*
X165751140Y-105279637D01*
X165753396Y-105286601D01*
X165754587Y-105292560D01*
X165755971Y-105298415D01*
X165756818Y-105305681D01*
X165781735Y-105374327D01*
X165783152Y-105378455D01*
X165805649Y-105447899D01*
X165809445Y-105454154D01*
X165811951Y-105459628D01*
X165814670Y-105465058D01*
X165817167Y-105471937D01*
X165821180Y-105478057D01*
X165821180Y-105478058D01*
X165857186Y-105532976D01*
X165859523Y-105536680D01*
X165897405Y-105599107D01*
X165901121Y-105603315D01*
X165901122Y-105603316D01*
X165904803Y-105607484D01*
X165904776Y-105607508D01*
X165907429Y-105610500D01*
X165910132Y-105613733D01*
X165914144Y-105619852D01*
X165919456Y-105624884D01*
X165970383Y-105673128D01*
X165972825Y-105675506D01*
X166458224Y-106160905D01*
X166492250Y-106223217D01*
X166487185Y-106294032D01*
X166458224Y-106339095D01*
X166041522Y-106755797D01*
X166029455Y-106766415D01*
X166006224Y-106784361D01*
X166003086Y-106787595D01*
X166003082Y-106787599D01*
X165944007Y-106848491D01*
X165943726Y-106848781D01*
X165942668Y-106849885D01*
X165939595Y-106853090D01*
X165939379Y-106853318D01*
X165934157Y-106858913D01*
X165919282Y-106875091D01*
X165887419Y-106909744D01*
X165883763Y-106913556D01*
X165692724Y-107104595D01*
X165630412Y-107138621D01*
X165603629Y-107141500D01*
X165081866Y-107141500D01*
X165019684Y-107148255D01*
X164883295Y-107199385D01*
X164766739Y-107286739D01*
X164679385Y-107403295D01*
X164676233Y-107411704D01*
X164676232Y-107411705D01*
X164634722Y-107522433D01*
X164592081Y-107579198D01*
X164525519Y-107603898D01*
X164456170Y-107588691D01*
X164423546Y-107563004D01*
X164372799Y-107507234D01*
X164365273Y-107500215D01*
X164198139Y-107368222D01*
X164189552Y-107362517D01*
X164003117Y-107259599D01*
X163993705Y-107255369D01*
X163792959Y-107184280D01*
X163782998Y-107181649D01*
X163722034Y-107170790D01*
X163658476Y-107139152D01*
X163622113Y-107078175D01*
X163624489Y-107007218D01*
X163655034Y-106957647D01*
X165526464Y-105086217D01*
X165588776Y-105052191D01*
X165659591Y-105057256D01*
G37*
%TD.AperFunction*%
%TA.AperFunction,Conductor*%
G36*
X154886240Y-95218502D02*
G01*
X154932733Y-95272158D01*
X154942837Y-95342432D01*
X154936101Y-95368730D01*
X154898255Y-95469684D01*
X154891500Y-95531866D01*
X154891500Y-97128134D01*
X154898255Y-97190316D01*
X154949385Y-97326705D01*
X155036739Y-97443261D01*
X155081067Y-97476483D01*
X155123580Y-97533342D01*
X155131500Y-97577308D01*
X155131500Y-98018303D01*
X155113953Y-98082442D01*
X155054144Y-98183574D01*
X155054142Y-98183578D01*
X155050106Y-98190403D01*
X155047895Y-98198014D01*
X155047894Y-98198016D01*
X155036174Y-98238357D01*
X155004394Y-98347746D01*
X155001500Y-98384516D01*
X155001500Y-98855484D01*
X155001693Y-98857932D01*
X155001693Y-98857940D01*
X155003419Y-98879865D01*
X155004394Y-98892254D01*
X155050106Y-99049597D01*
X155133512Y-99190629D01*
X155249371Y-99306488D01*
X155256192Y-99310522D01*
X155382796Y-99385395D01*
X155390403Y-99389894D01*
X155398014Y-99392105D01*
X155398016Y-99392106D01*
X155448995Y-99406916D01*
X155547746Y-99435606D01*
X155554151Y-99436110D01*
X155554156Y-99436111D01*
X155582060Y-99438307D01*
X155582068Y-99438307D01*
X155584516Y-99438500D01*
X155995484Y-99438500D01*
X155997932Y-99438307D01*
X155997940Y-99438307D01*
X156025844Y-99436111D01*
X156025849Y-99436110D01*
X156032254Y-99435606D01*
X156131005Y-99406916D01*
X156181984Y-99392106D01*
X156181986Y-99392105D01*
X156189597Y-99389894D01*
X156198469Y-99384647D01*
X156206353Y-99379985D01*
X156275170Y-99362526D01*
X156334628Y-99379984D01*
X156343778Y-99385395D01*
X156358216Y-99391643D01*
X156478605Y-99426619D01*
X156492705Y-99426579D01*
X156496000Y-99419309D01*
X156496000Y-99413558D01*
X157004000Y-99413558D01*
X157007973Y-99427089D01*
X157015871Y-99428224D01*
X157141784Y-99391643D01*
X157156220Y-99385396D01*
X157283499Y-99310124D01*
X157295926Y-99300484D01*
X157400484Y-99195926D01*
X157410124Y-99183499D01*
X157485396Y-99056220D01*
X157491643Y-99041784D01*
X157533312Y-98898359D01*
X157534768Y-98890391D01*
X157531948Y-98876969D01*
X157520487Y-98874000D01*
X157022115Y-98874000D01*
X157006876Y-98878475D01*
X157005671Y-98879865D01*
X157004000Y-98887548D01*
X157004000Y-99413558D01*
X156496000Y-99413558D01*
X156496000Y-99141379D01*
X156513546Y-99077240D01*
X156525859Y-99056420D01*
X156525859Y-99056419D01*
X156529894Y-99049597D01*
X156575606Y-98892254D01*
X156576582Y-98879865D01*
X156578307Y-98857940D01*
X156578307Y-98857932D01*
X156578500Y-98855484D01*
X156578500Y-98492000D01*
X156598502Y-98423879D01*
X156652158Y-98377386D01*
X156704500Y-98366000D01*
X157518424Y-98366000D01*
X157533219Y-98361656D01*
X157535063Y-98351225D01*
X157533312Y-98341641D01*
X157491643Y-98198216D01*
X157485396Y-98183780D01*
X157410124Y-98056501D01*
X157400484Y-98044074D01*
X157295926Y-97939516D01*
X157283499Y-97929876D01*
X157156220Y-97854604D01*
X157141784Y-97848357D01*
X157031303Y-97816259D01*
X156971467Y-97778046D01*
X156941790Y-97713549D01*
X156951694Y-97643247D01*
X156998033Y-97589459D01*
X157022227Y-97577280D01*
X157138295Y-97533768D01*
X157138296Y-97533767D01*
X157146705Y-97530615D01*
X157263261Y-97443261D01*
X157350615Y-97326705D01*
X157401745Y-97190316D01*
X157408500Y-97128134D01*
X157408500Y-97114500D01*
X157428502Y-97046379D01*
X157482158Y-96999886D01*
X157534500Y-96988500D01*
X159555050Y-96988500D01*
X159623171Y-97008502D01*
X159644145Y-97025405D01*
X161686345Y-99067605D01*
X161694335Y-99076385D01*
X161698584Y-99083080D01*
X161704362Y-99088506D01*
X161704363Y-99088507D01*
X161750257Y-99131604D01*
X161753099Y-99134359D01*
X161773667Y-99154927D01*
X161777170Y-99157644D01*
X161786195Y-99165352D01*
X161819867Y-99196972D01*
X161826818Y-99200793D01*
X161826819Y-99200794D01*
X161838658Y-99207303D01*
X161855182Y-99218157D01*
X161865271Y-99225982D01*
X161872132Y-99231304D01*
X161879404Y-99234451D01*
X161879406Y-99234452D01*
X161914535Y-99249654D01*
X161925195Y-99254876D01*
X161947192Y-99266969D01*
X161965663Y-99277124D01*
X161986441Y-99282459D01*
X162005131Y-99288858D01*
X162024824Y-99297380D01*
X162068596Y-99304313D01*
X162070448Y-99304606D01*
X162082071Y-99307013D01*
X162095739Y-99310522D01*
X162126812Y-99318500D01*
X162148259Y-99318500D01*
X162167969Y-99320051D01*
X162189152Y-99323406D01*
X162235141Y-99319059D01*
X162246996Y-99318500D01*
X162336263Y-99318500D01*
X162404384Y-99338502D01*
X162415358Y-99347346D01*
X162415593Y-99347044D01*
X162421853Y-99351900D01*
X162427459Y-99357506D01*
X162434280Y-99361540D01*
X162553057Y-99431784D01*
X162567404Y-99440269D01*
X162575015Y-99442480D01*
X162575017Y-99442481D01*
X162660239Y-99467240D01*
X162723534Y-99485629D01*
X162729941Y-99486133D01*
X162729945Y-99486134D01*
X162757556Y-99488307D01*
X162757562Y-99488307D01*
X162760011Y-99488500D01*
X162959878Y-99488500D01*
X163159988Y-99488499D01*
X163196466Y-99485629D01*
X163312552Y-99451903D01*
X163344983Y-99442481D01*
X163344985Y-99442480D01*
X163352596Y-99440269D01*
X163406353Y-99408477D01*
X163475166Y-99391018D01*
X163534630Y-99408478D01*
X163580780Y-99435771D01*
X163595217Y-99442019D01*
X163708605Y-99474961D01*
X163722705Y-99474921D01*
X163726000Y-99467651D01*
X163726000Y-98997542D01*
X163731003Y-98962390D01*
X163733834Y-98952647D01*
X163733835Y-98952640D01*
X163735629Y-98946466D01*
X163738500Y-98909989D01*
X163738499Y-98531999D01*
X163758501Y-98463880D01*
X163812156Y-98417387D01*
X163864499Y-98406000D01*
X164108000Y-98406000D01*
X164176121Y-98426002D01*
X164222614Y-98479658D01*
X164234000Y-98532000D01*
X164234000Y-99461900D01*
X164237973Y-99475431D01*
X164245872Y-99476566D01*
X164292348Y-99463064D01*
X164363344Y-99463267D01*
X164422960Y-99501821D01*
X164452268Y-99566486D01*
X164453500Y-99584061D01*
X164453500Y-99818325D01*
X164433498Y-99886446D01*
X164379842Y-99932939D01*
X164309568Y-99943043D01*
X164292350Y-99939323D01*
X164206466Y-99914371D01*
X164200059Y-99913867D01*
X164200055Y-99913866D01*
X164172444Y-99911693D01*
X164172438Y-99911693D01*
X164169989Y-99911500D01*
X163970122Y-99911500D01*
X163770012Y-99911501D01*
X163733534Y-99914371D01*
X163651459Y-99938216D01*
X163585017Y-99957519D01*
X163585015Y-99957520D01*
X163577404Y-99959731D01*
X163570579Y-99963767D01*
X163570575Y-99963769D01*
X163524139Y-99991231D01*
X163455323Y-100008691D01*
X163395861Y-99991231D01*
X163349425Y-99963769D01*
X163349421Y-99963767D01*
X163342596Y-99959731D01*
X163334985Y-99957520D01*
X163334983Y-99957519D01*
X163218852Y-99923780D01*
X163186466Y-99914371D01*
X163180059Y-99913867D01*
X163180055Y-99913866D01*
X163152444Y-99911693D01*
X163152438Y-99911693D01*
X163149989Y-99911500D01*
X162950122Y-99911500D01*
X162750012Y-99911501D01*
X162713534Y-99914371D01*
X162631459Y-99938216D01*
X162565017Y-99957519D01*
X162565015Y-99957520D01*
X162557404Y-99959731D01*
X162550582Y-99963766D01*
X162550581Y-99963766D01*
X162424280Y-100038460D01*
X162417459Y-100042494D01*
X162411853Y-100048100D01*
X162405593Y-100052956D01*
X162403943Y-100050828D01*
X162353046Y-100078621D01*
X162326263Y-100081500D01*
X162272059Y-100081500D01*
X162260203Y-100080941D01*
X162252463Y-100079211D01*
X162244537Y-100079460D01*
X162244536Y-100079460D01*
X162181611Y-100081438D01*
X162177653Y-100081500D01*
X162148568Y-100081500D01*
X162144637Y-100081997D01*
X162144630Y-100081997D01*
X162144179Y-100082054D01*
X162132343Y-100082986D01*
X162086169Y-100084438D01*
X162065579Y-100090420D01*
X162046218Y-100094430D01*
X162039230Y-100095312D01*
X162032796Y-100096125D01*
X162032795Y-100096125D01*
X162024936Y-100097118D01*
X162017571Y-100100034D01*
X162017567Y-100100035D01*
X161981979Y-100114126D01*
X161970769Y-100117965D01*
X161926400Y-100130855D01*
X161907935Y-100141775D01*
X161890195Y-100150466D01*
X161870244Y-100158365D01*
X161841332Y-100179371D01*
X161832874Y-100185516D01*
X161822952Y-100192033D01*
X161790023Y-100211507D01*
X161790019Y-100211510D01*
X161783193Y-100215547D01*
X161768029Y-100230711D01*
X161752996Y-100243551D01*
X161735643Y-100256159D01*
X161706198Y-100291752D01*
X161698208Y-100300532D01*
X159604145Y-102394595D01*
X159541833Y-102428621D01*
X159515050Y-102431500D01*
X157514500Y-102431500D01*
X157446379Y-102411498D01*
X157399886Y-102357842D01*
X157388500Y-102305500D01*
X157388500Y-102291866D01*
X157381745Y-102229684D01*
X157330615Y-102093295D01*
X157243261Y-101976739D01*
X157126705Y-101889385D01*
X156990316Y-101838255D01*
X156928134Y-101831500D01*
X156564500Y-101831500D01*
X156496379Y-101811498D01*
X156449886Y-101757842D01*
X156438500Y-101705500D01*
X156438500Y-101654881D01*
X156458502Y-101586760D01*
X156477795Y-101567412D01*
X156486000Y-101549309D01*
X156486000Y-101543558D01*
X156994000Y-101543558D01*
X156997973Y-101557089D01*
X157005871Y-101558224D01*
X157131784Y-101521643D01*
X157146220Y-101515396D01*
X157273499Y-101440124D01*
X157285926Y-101430484D01*
X157390484Y-101325926D01*
X157400124Y-101313499D01*
X157475396Y-101186220D01*
X157481643Y-101171784D01*
X157523312Y-101028359D01*
X157524768Y-101020391D01*
X157521948Y-101006969D01*
X157510487Y-101004000D01*
X157012115Y-101004000D01*
X156996876Y-101008475D01*
X156995671Y-101009865D01*
X156994000Y-101017548D01*
X156994000Y-101543558D01*
X156486000Y-101543558D01*
X156486000Y-101271379D01*
X156503546Y-101207240D01*
X156515859Y-101186420D01*
X156515859Y-101186419D01*
X156519894Y-101179597D01*
X156565606Y-101022254D01*
X156566582Y-101009865D01*
X156568307Y-100987940D01*
X156568307Y-100987932D01*
X156568500Y-100985484D01*
X156568500Y-100514516D01*
X156567043Y-100496000D01*
X156566111Y-100484156D01*
X156566110Y-100484151D01*
X156565617Y-100477885D01*
X156994000Y-100477885D01*
X156998475Y-100493124D01*
X156999865Y-100494329D01*
X157007548Y-100496000D01*
X157508424Y-100496000D01*
X157523219Y-100491656D01*
X157525063Y-100481225D01*
X157523312Y-100471641D01*
X157481643Y-100328216D01*
X157475396Y-100313780D01*
X157400124Y-100186501D01*
X157390484Y-100174074D01*
X157285926Y-100069516D01*
X157273499Y-100059876D01*
X157146220Y-99984604D01*
X157131784Y-99978357D01*
X157011395Y-99943381D01*
X156997295Y-99943421D01*
X156994000Y-99950691D01*
X156994000Y-100477885D01*
X156565617Y-100477885D01*
X156565606Y-100477746D01*
X156519894Y-100320403D01*
X156503546Y-100292760D01*
X156486000Y-100228621D01*
X156486000Y-99956442D01*
X156482027Y-99942911D01*
X156474129Y-99941776D01*
X156348216Y-99978357D01*
X156333778Y-99984605D01*
X156324628Y-99990016D01*
X156255812Y-100007474D01*
X156196353Y-99990015D01*
X156186423Y-99984143D01*
X156186424Y-99984143D01*
X156179597Y-99980106D01*
X156171986Y-99977895D01*
X156171984Y-99977894D01*
X156098144Y-99956442D01*
X156022254Y-99934394D01*
X156015849Y-99933890D01*
X156015844Y-99933889D01*
X155987940Y-99931693D01*
X155987932Y-99931693D01*
X155985484Y-99931500D01*
X155574516Y-99931500D01*
X155572068Y-99931693D01*
X155572060Y-99931693D01*
X155544156Y-99933889D01*
X155544151Y-99933890D01*
X155537746Y-99934394D01*
X155461856Y-99956442D01*
X155388016Y-99977894D01*
X155388014Y-99977895D01*
X155380403Y-99980106D01*
X155373581Y-99984141D01*
X155373580Y-99984141D01*
X155250602Y-100056870D01*
X155239371Y-100063512D01*
X155123512Y-100179371D01*
X155119478Y-100186192D01*
X155085556Y-100243552D01*
X155040106Y-100320403D01*
X154994394Y-100477746D01*
X154993890Y-100484151D01*
X154993889Y-100484156D01*
X154992957Y-100496000D01*
X154991500Y-100514516D01*
X154991500Y-100985484D01*
X154991693Y-100987932D01*
X154991693Y-100987940D01*
X154993419Y-101009865D01*
X154994394Y-101022254D01*
X155040106Y-101179597D01*
X155044141Y-101186420D01*
X155044144Y-101186426D01*
X155103953Y-101287558D01*
X155121500Y-101351697D01*
X155121500Y-101835198D01*
X155101498Y-101903319D01*
X155071065Y-101936024D01*
X155016739Y-101976739D01*
X154929385Y-102093295D01*
X154878255Y-102229684D01*
X154871500Y-102291866D01*
X154871500Y-103888134D01*
X154878255Y-103950316D01*
X154905965Y-104024231D01*
X154929385Y-104086705D01*
X154926000Y-104087974D01*
X154937478Y-104140531D01*
X154912723Y-104207071D01*
X154855922Y-104249665D01*
X154785596Y-104254893D01*
X154740712Y-104245353D01*
X154720232Y-104241000D01*
X154539768Y-104241000D01*
X154533315Y-104242372D01*
X154533311Y-104242372D01*
X154454989Y-104259020D01*
X154363248Y-104278520D01*
X154357219Y-104281204D01*
X154357217Y-104281205D01*
X154204416Y-104349237D01*
X154204414Y-104349238D01*
X154198386Y-104351922D01*
X154093082Y-104428430D01*
X154066922Y-104447436D01*
X153992861Y-104471500D01*
X152074000Y-104471500D01*
X152005879Y-104451498D01*
X151959386Y-104397842D01*
X151948000Y-104345500D01*
X151948000Y-104317031D01*
X151947807Y-104312102D01*
X151945614Y-104284244D01*
X151943312Y-104271641D01*
X151901643Y-104128216D01*
X151895395Y-104113778D01*
X151889984Y-104104628D01*
X151872526Y-104035812D01*
X151889985Y-103976353D01*
X151895857Y-103966423D01*
X151899894Y-103959597D01*
X151902591Y-103950316D01*
X151931774Y-103849865D01*
X151945606Y-103802254D01*
X151948500Y-103765484D01*
X151948500Y-103354516D01*
X151947939Y-103347386D01*
X151946111Y-103324156D01*
X151946110Y-103324151D01*
X151945606Y-103317746D01*
X151910614Y-103197301D01*
X151902105Y-103168012D01*
X151902104Y-103168009D01*
X151899894Y-103160403D01*
X151895862Y-103153585D01*
X151894327Y-103150038D01*
X151885631Y-103079576D01*
X151894327Y-103049962D01*
X151895862Y-103046415D01*
X151899894Y-103039597D01*
X151902106Y-103031986D01*
X151928324Y-102941739D01*
X151945606Y-102882254D01*
X151946434Y-102871745D01*
X151948307Y-102847940D01*
X151948307Y-102847932D01*
X151948500Y-102845484D01*
X151948500Y-102434516D01*
X151948036Y-102428621D01*
X151946111Y-102404156D01*
X151946110Y-102404151D01*
X151945606Y-102397746D01*
X151907733Y-102267386D01*
X151902106Y-102248016D01*
X151902105Y-102248014D01*
X151899894Y-102240403D01*
X151889985Y-102223647D01*
X151872526Y-102154830D01*
X151889984Y-102095372D01*
X151895395Y-102086222D01*
X151901643Y-102071784D01*
X151936619Y-101951395D01*
X151936579Y-101937295D01*
X151929309Y-101934000D01*
X151651379Y-101934000D01*
X151587240Y-101916454D01*
X151566420Y-101904141D01*
X151566419Y-101904141D01*
X151559597Y-101900106D01*
X151551986Y-101897895D01*
X151551984Y-101897894D01*
X151501005Y-101883084D01*
X151402254Y-101854394D01*
X151395849Y-101853890D01*
X151395844Y-101853889D01*
X151367940Y-101851693D01*
X151367932Y-101851693D01*
X151365484Y-101851500D01*
X151324950Y-101851500D01*
X151256829Y-101831498D01*
X151235854Y-101814595D01*
X150912904Y-101491644D01*
X150878879Y-101429332D01*
X150876574Y-101407885D01*
X151384000Y-101407885D01*
X151388475Y-101423124D01*
X151389865Y-101424329D01*
X151397548Y-101426000D01*
X151923558Y-101426000D01*
X151937089Y-101422027D01*
X151938224Y-101414129D01*
X151901643Y-101288216D01*
X151895396Y-101273780D01*
X151820124Y-101146501D01*
X151810484Y-101134074D01*
X151705926Y-101029516D01*
X151693499Y-101019876D01*
X151566220Y-100944604D01*
X151551784Y-100938357D01*
X151408359Y-100896688D01*
X151400391Y-100895232D01*
X151386969Y-100898052D01*
X151384000Y-100909513D01*
X151384000Y-101407885D01*
X150876574Y-101407885D01*
X150876000Y-101402549D01*
X150876000Y-100911576D01*
X150871656Y-100896781D01*
X150861225Y-100894937D01*
X150851641Y-100896688D01*
X150708216Y-100938357D01*
X150693780Y-100944604D01*
X150559680Y-101023910D01*
X150558620Y-101022117D01*
X150502644Y-101044095D01*
X150433021Y-101030195D01*
X150405887Y-101010243D01*
X150403261Y-101006739D01*
X150388075Y-100995358D01*
X150345560Y-100938500D01*
X150340534Y-100867682D01*
X150355187Y-100830393D01*
X150375393Y-100796226D01*
X150381643Y-100781784D01*
X150423312Y-100638359D01*
X150424768Y-100630391D01*
X150421948Y-100616969D01*
X150410487Y-100614000D01*
X149594500Y-100614000D01*
X149526379Y-100593998D01*
X149479886Y-100540342D01*
X149468500Y-100488000D01*
X149468500Y-100124516D01*
X149467855Y-100116312D01*
X149466573Y-100100035D01*
X149465617Y-100087885D01*
X149894000Y-100087885D01*
X149898475Y-100103124D01*
X149899865Y-100104329D01*
X149907548Y-100106000D01*
X150408424Y-100106000D01*
X150423219Y-100101656D01*
X150425063Y-100091225D01*
X150423312Y-100081641D01*
X150381643Y-99938216D01*
X150375396Y-99923780D01*
X150300124Y-99796501D01*
X150290484Y-99784074D01*
X150280505Y-99774095D01*
X150246479Y-99711783D01*
X150251544Y-99640968D01*
X150280505Y-99595905D01*
X150290484Y-99585926D01*
X150300124Y-99573499D01*
X150375396Y-99446220D01*
X150381643Y-99431784D01*
X150423312Y-99288359D01*
X150424768Y-99280391D01*
X150421948Y-99266969D01*
X150410487Y-99264000D01*
X149912115Y-99264000D01*
X149896876Y-99268475D01*
X149895671Y-99269865D01*
X149894000Y-99277548D01*
X149894000Y-100087885D01*
X149465617Y-100087885D01*
X149465606Y-100087746D01*
X149423676Y-99943421D01*
X149422106Y-99938016D01*
X149422105Y-99938014D01*
X149419894Y-99930403D01*
X149411476Y-99916168D01*
X149403546Y-99902760D01*
X149386000Y-99838621D01*
X149386000Y-99531379D01*
X149403546Y-99467240D01*
X149415859Y-99446420D01*
X149415859Y-99446419D01*
X149419894Y-99439597D01*
X149423665Y-99426619D01*
X149446783Y-99347044D01*
X149465606Y-99282254D01*
X149466311Y-99273305D01*
X149468307Y-99247940D01*
X149468307Y-99247932D01*
X149468500Y-99245484D01*
X149468500Y-98774516D01*
X149467043Y-98756000D01*
X149466111Y-98744156D01*
X149466110Y-98744151D01*
X149465617Y-98737885D01*
X149894000Y-98737885D01*
X149898475Y-98753124D01*
X149899865Y-98754329D01*
X149907548Y-98756000D01*
X150408424Y-98756000D01*
X150423219Y-98751656D01*
X150425063Y-98741225D01*
X150423312Y-98731641D01*
X150381643Y-98588216D01*
X150375396Y-98573780D01*
X150300124Y-98446501D01*
X150290484Y-98434074D01*
X150185926Y-98329516D01*
X150173499Y-98319876D01*
X150046220Y-98244604D01*
X150031784Y-98238357D01*
X149911395Y-98203381D01*
X149897295Y-98203421D01*
X149894000Y-98210691D01*
X149894000Y-98737885D01*
X149465617Y-98737885D01*
X149465606Y-98737746D01*
X149419894Y-98580403D01*
X149403546Y-98552760D01*
X149386000Y-98488621D01*
X149386000Y-98216442D01*
X149381353Y-98200616D01*
X149343604Y-98141878D01*
X149338500Y-98106379D01*
X149338500Y-97494950D01*
X149358502Y-97426829D01*
X149375405Y-97405855D01*
X150734725Y-96046535D01*
X150797037Y-96012509D01*
X150867852Y-96017574D01*
X150914456Y-96048103D01*
X150943455Y-96078132D01*
X151085846Y-96171310D01*
X151092450Y-96173766D01*
X151092452Y-96173767D01*
X151238731Y-96228168D01*
X151238733Y-96228169D01*
X151245341Y-96230626D01*
X151252326Y-96231558D01*
X151252330Y-96231559D01*
X151272710Y-96234278D01*
X151277770Y-96234953D01*
X151342648Y-96263788D01*
X151350202Y-96270751D01*
X152714957Y-97635506D01*
X152745420Y-97684829D01*
X152762403Y-97735883D01*
X152797094Y-97840167D01*
X152800741Y-97846189D01*
X152800742Y-97846191D01*
X152851424Y-97929876D01*
X152885246Y-97985723D01*
X153003455Y-98108132D01*
X153033801Y-98127990D01*
X153118743Y-98183574D01*
X153145846Y-98201310D01*
X153152450Y-98203766D01*
X153152452Y-98203767D01*
X153186534Y-98216442D01*
X153305341Y-98260626D01*
X153474015Y-98283132D01*
X153481026Y-98282494D01*
X153481030Y-98282494D01*
X153636462Y-98268348D01*
X153643483Y-98267709D01*
X153650185Y-98265531D01*
X153650187Y-98265531D01*
X153798623Y-98217301D01*
X153798626Y-98217300D01*
X153805322Y-98215124D01*
X153951490Y-98127990D01*
X153956584Y-98123139D01*
X153956588Y-98123136D01*
X154039611Y-98044074D01*
X154074721Y-98010639D01*
X154168891Y-97868902D01*
X154229319Y-97709825D01*
X154253001Y-97541313D01*
X154253299Y-97520000D01*
X154234331Y-97350892D01*
X154226142Y-97327375D01*
X154180686Y-97196846D01*
X154178368Y-97190189D01*
X154173539Y-97182460D01*
X154139591Y-97128134D01*
X154088192Y-97045879D01*
X153968286Y-96925132D01*
X153824608Y-96833951D01*
X153664300Y-96776868D01*
X153657305Y-96776034D01*
X153657301Y-96776033D01*
X153618534Y-96771411D01*
X153608980Y-96770272D01*
X153543706Y-96742345D01*
X153534802Y-96734253D01*
X152214144Y-95413595D01*
X152180118Y-95351283D01*
X152185183Y-95280468D01*
X152227730Y-95223632D01*
X152294250Y-95198821D01*
X152303239Y-95198500D01*
X154818119Y-95198500D01*
X154886240Y-95218502D01*
G37*
%TD.AperFunction*%
%TA.AperFunction,Conductor*%
G36*
X145164254Y-103791597D02*
G01*
X145197835Y-103814208D01*
X145229560Y-103844000D01*
X145248306Y-103861604D01*
X145251148Y-103864359D01*
X145271716Y-103884927D01*
X145275219Y-103887644D01*
X145284244Y-103895352D01*
X145317916Y-103926972D01*
X145324867Y-103930793D01*
X145324868Y-103930794D01*
X145336707Y-103937303D01*
X145353231Y-103948157D01*
X145363320Y-103955982D01*
X145370181Y-103961304D01*
X145377453Y-103964451D01*
X145377455Y-103964452D01*
X145412584Y-103979654D01*
X145423245Y-103984876D01*
X145463712Y-104007124D01*
X145484490Y-104012459D01*
X145503180Y-104018858D01*
X145522873Y-104027380D01*
X145566645Y-104034313D01*
X145568497Y-104034606D01*
X145580120Y-104037013D01*
X145608121Y-104044202D01*
X145624861Y-104048500D01*
X145646308Y-104048500D01*
X145666018Y-104050051D01*
X145687201Y-104053406D01*
X145733190Y-104049059D01*
X145745045Y-104048500D01*
X147605500Y-104048500D01*
X147673621Y-104068502D01*
X147720114Y-104122158D01*
X147731500Y-104174500D01*
X147731500Y-104345500D01*
X147711498Y-104413621D01*
X147657842Y-104460114D01*
X147605500Y-104471500D01*
X145334950Y-104471500D01*
X145266829Y-104451498D01*
X145245855Y-104434595D01*
X145072552Y-104261292D01*
X145038526Y-104198980D01*
X145035647Y-104172197D01*
X145035647Y-104123122D01*
X145034912Y-104113778D01*
X145033258Y-104092762D01*
X145033257Y-104092757D01*
X145032753Y-104086352D01*
X145030413Y-104078297D01*
X144990587Y-103941212D01*
X144990790Y-103870216D01*
X145029344Y-103810600D01*
X145094009Y-103781292D01*
X145164254Y-103791597D01*
G37*
%TD.AperFunction*%
%TA.AperFunction,Conductor*%
G36*
X163524139Y-101488769D02*
G01*
X163570575Y-101516231D01*
X163570579Y-101516233D01*
X163577404Y-101520269D01*
X163585015Y-101522480D01*
X163585017Y-101522481D01*
X163647652Y-101540678D01*
X163733534Y-101565629D01*
X163739941Y-101566133D01*
X163739945Y-101566134D01*
X163767556Y-101568307D01*
X163767562Y-101568307D01*
X163770011Y-101568500D01*
X163969878Y-101568500D01*
X164169988Y-101568499D01*
X164206466Y-101565629D01*
X164292348Y-101540678D01*
X164363343Y-101540881D01*
X164422959Y-101579435D01*
X164452268Y-101644099D01*
X164453500Y-101661675D01*
X164453500Y-101706000D01*
X164433498Y-101774121D01*
X164379842Y-101820614D01*
X164327500Y-101832000D01*
X163802115Y-101832000D01*
X163786876Y-101836475D01*
X163785671Y-101837865D01*
X163784000Y-101845548D01*
X163784000Y-103218000D01*
X163763998Y-103286121D01*
X163710342Y-103332614D01*
X163658000Y-103344000D01*
X162290116Y-103344000D01*
X162274877Y-103348475D01*
X162273672Y-103349865D01*
X162272001Y-103357548D01*
X162272001Y-103884669D01*
X162272371Y-103891490D01*
X162277895Y-103942352D01*
X162281521Y-103957604D01*
X162326676Y-104078054D01*
X162335214Y-104093649D01*
X162411715Y-104195724D01*
X162424275Y-104208284D01*
X162446143Y-104224673D01*
X162488659Y-104281532D01*
X162493685Y-104352351D01*
X162459625Y-104414644D01*
X162397295Y-104448635D01*
X162370579Y-104451500D01*
X157546451Y-104451500D01*
X157478330Y-104431498D01*
X157472390Y-104427436D01*
X157454784Y-104414644D01*
X157368720Y-104352115D01*
X157346957Y-104336303D01*
X157346956Y-104336302D01*
X157341615Y-104332422D01*
X157335585Y-104329737D01*
X157329862Y-104326433D01*
X157331095Y-104324298D01*
X157285500Y-104285529D01*
X157264862Y-104217598D01*
X157284227Y-104149294D01*
X157290031Y-104140856D01*
X157304044Y-104122158D01*
X157330615Y-104086705D01*
X157381745Y-103950316D01*
X157388500Y-103888134D01*
X157388500Y-103874500D01*
X157408502Y-103806379D01*
X157462158Y-103759886D01*
X157514500Y-103748500D01*
X159757944Y-103748500D01*
X159769800Y-103749059D01*
X159769803Y-103749059D01*
X159777537Y-103750788D01*
X159848369Y-103748562D01*
X159852327Y-103748500D01*
X159881432Y-103748500D01*
X159885832Y-103747944D01*
X159897664Y-103747012D01*
X159943831Y-103745562D01*
X159964421Y-103739580D01*
X159983782Y-103735570D01*
X159990770Y-103734688D01*
X159997204Y-103733875D01*
X159997205Y-103733875D01*
X160005064Y-103732882D01*
X160012429Y-103729966D01*
X160012433Y-103729965D01*
X160048021Y-103715874D01*
X160059231Y-103712035D01*
X160103600Y-103699145D01*
X160122065Y-103688225D01*
X160139805Y-103679534D01*
X160159756Y-103671635D01*
X160197129Y-103644482D01*
X160207048Y-103637967D01*
X160239977Y-103618493D01*
X160239981Y-103618490D01*
X160246807Y-103614453D01*
X160261971Y-103599289D01*
X160277005Y-103586448D01*
X160287943Y-103578501D01*
X160294357Y-103573841D01*
X160323803Y-103538247D01*
X160331792Y-103529468D01*
X161043375Y-102817885D01*
X162272000Y-102817885D01*
X162276475Y-102833124D01*
X162277865Y-102834329D01*
X162285548Y-102836000D01*
X163257885Y-102836000D01*
X163273124Y-102831525D01*
X163274329Y-102830135D01*
X163276000Y-102822452D01*
X163276000Y-101850116D01*
X163271525Y-101834877D01*
X163270135Y-101833672D01*
X163262452Y-101832001D01*
X162735331Y-101832001D01*
X162728510Y-101832371D01*
X162677648Y-101837895D01*
X162662396Y-101841521D01*
X162541946Y-101886676D01*
X162526351Y-101895214D01*
X162424276Y-101971715D01*
X162411715Y-101984276D01*
X162335214Y-102086351D01*
X162326676Y-102101946D01*
X162281522Y-102222394D01*
X162277895Y-102237649D01*
X162272369Y-102288514D01*
X162272000Y-102295328D01*
X162272000Y-102817885D01*
X161043375Y-102817885D01*
X162352306Y-101508954D01*
X162414618Y-101474928D01*
X162485433Y-101479993D01*
X162505531Y-101489591D01*
X162557404Y-101520269D01*
X162565015Y-101522480D01*
X162565017Y-101522481D01*
X162627652Y-101540678D01*
X162713534Y-101565629D01*
X162719941Y-101566133D01*
X162719945Y-101566134D01*
X162747556Y-101568307D01*
X162747562Y-101568307D01*
X162750011Y-101568500D01*
X162949878Y-101568500D01*
X163149988Y-101568499D01*
X163186466Y-101565629D01*
X163283270Y-101537505D01*
X163334983Y-101522481D01*
X163334985Y-101522480D01*
X163342596Y-101520269D01*
X163349421Y-101516233D01*
X163349425Y-101516231D01*
X163395861Y-101488769D01*
X163464677Y-101471309D01*
X163524139Y-101488769D01*
G37*
%TD.AperFunction*%
%TA.AperFunction,Conductor*%
G36*
X139600316Y-99138502D02*
G01*
X139646809Y-99192158D01*
X139656913Y-99262432D01*
X139627419Y-99327012D01*
X139621290Y-99333595D01*
X138550290Y-100404595D01*
X138487978Y-100438621D01*
X138461195Y-100441500D01*
X131485943Y-100441500D01*
X131463734Y-100439527D01*
X131450784Y-100437208D01*
X131450783Y-100437208D01*
X131446355Y-100436415D01*
X131395842Y-100434678D01*
X131387591Y-100434121D01*
X131364523Y-100431805D01*
X131298743Y-100405097D01*
X131271322Y-100374876D01*
X131172822Y-100222617D01*
X131172820Y-100222614D01*
X131170014Y-100218277D01*
X131019670Y-100053051D01*
X131015619Y-100049852D01*
X131015615Y-100049848D01*
X130848414Y-99917800D01*
X130848410Y-99917798D01*
X130844359Y-99914598D01*
X130803053Y-99891796D01*
X130753084Y-99841364D01*
X130738312Y-99771921D01*
X130763428Y-99705516D01*
X130790780Y-99678909D01*
X130864070Y-99626632D01*
X130969860Y-99551173D01*
X131128096Y-99393489D01*
X131133912Y-99385396D01*
X131255435Y-99216277D01*
X131258453Y-99212077D01*
X131260813Y-99207303D01*
X131265613Y-99197590D01*
X131313727Y-99145383D01*
X131365979Y-99128048D01*
X131387593Y-99125878D01*
X131395844Y-99125321D01*
X131446347Y-99123585D01*
X131447710Y-99123477D01*
X131447721Y-99123476D01*
X131486467Y-99120395D01*
X131486468Y-99120395D01*
X131492364Y-99119926D01*
X131492619Y-99119856D01*
X131508237Y-99118500D01*
X139532195Y-99118500D01*
X139600316Y-99138502D01*
G37*
%TD.AperFunction*%
%TA.AperFunction,Conductor*%
G36*
X134322026Y-91615144D02*
G01*
X134349875Y-91646994D01*
X134409987Y-91745088D01*
X134556250Y-91913938D01*
X134728126Y-92056632D01*
X134829776Y-92116031D01*
X134878499Y-92167670D01*
X134891574Y-92212227D01*
X134894121Y-92237585D01*
X134894678Y-92245844D01*
X134896414Y-92296347D01*
X134896522Y-92297710D01*
X134896523Y-92297721D01*
X134897912Y-92315182D01*
X134900073Y-92342364D01*
X134900144Y-92342623D01*
X134901500Y-92358242D01*
X134901500Y-92436708D01*
X134900422Y-92453151D01*
X134896250Y-92484844D01*
X134901500Y-92524724D01*
X134901500Y-92524729D01*
X134914093Y-92620386D01*
X134917162Y-92643695D01*
X134978476Y-92791720D01*
X134983503Y-92798271D01*
X134983504Y-92798273D01*
X135051520Y-92886913D01*
X135051526Y-92886919D01*
X135076013Y-92918831D01*
X135082568Y-92923861D01*
X135101379Y-92938296D01*
X135113770Y-92949163D01*
X139851012Y-97686405D01*
X139885038Y-97748717D01*
X139879973Y-97819532D01*
X139837426Y-97876368D01*
X139770906Y-97901179D01*
X139761917Y-97901500D01*
X136514811Y-97901500D01*
X136446690Y-97881498D01*
X136400197Y-97827842D01*
X136390093Y-97757568D01*
X136419587Y-97692988D01*
X136427919Y-97684255D01*
X136489614Y-97625503D01*
X136489617Y-97625500D01*
X136494721Y-97620639D01*
X136500328Y-97612201D01*
X136549211Y-97538625D01*
X136588891Y-97478902D01*
X136649319Y-97319825D01*
X136673001Y-97151313D01*
X136673299Y-97130000D01*
X136654331Y-96960892D01*
X136640948Y-96922460D01*
X136610125Y-96833951D01*
X136598368Y-96800189D01*
X136583274Y-96776033D01*
X136522257Y-96678388D01*
X136508192Y-96655879D01*
X136388286Y-96535132D01*
X136366806Y-96521500D01*
X136333406Y-96500304D01*
X136244608Y-96443951D01*
X136084300Y-96386868D01*
X135915329Y-96366720D01*
X135908326Y-96367456D01*
X135908325Y-96367456D01*
X135753101Y-96383770D01*
X135753097Y-96383771D01*
X135746093Y-96384507D01*
X135739422Y-96386778D01*
X135591673Y-96437075D01*
X135591670Y-96437076D01*
X135585003Y-96439346D01*
X135579005Y-96443036D01*
X135579003Y-96443037D01*
X135481831Y-96502818D01*
X135415809Y-96521500D01*
X135264239Y-96521500D01*
X135196118Y-96501498D01*
X135175144Y-96484595D01*
X133742215Y-95051666D01*
X133708189Y-94989354D01*
X133706095Y-94976618D01*
X133705116Y-94967890D01*
X133704331Y-94960892D01*
X133648368Y-94800189D01*
X133642383Y-94790610D01*
X133602864Y-94727368D01*
X133558192Y-94655879D01*
X133438286Y-94535132D01*
X133429267Y-94529408D01*
X133363249Y-94487512D01*
X133294608Y-94443951D01*
X133134300Y-94386868D01*
X132965329Y-94366720D01*
X132958326Y-94367456D01*
X132958325Y-94367456D01*
X132803101Y-94383770D01*
X132803097Y-94383771D01*
X132796093Y-94384507D01*
X132789422Y-94386778D01*
X132641673Y-94437075D01*
X132641670Y-94437076D01*
X132635003Y-94439346D01*
X132629005Y-94443036D01*
X132629003Y-94443037D01*
X132496065Y-94524821D01*
X132496063Y-94524823D01*
X132490066Y-94528512D01*
X132485033Y-94533441D01*
X132395592Y-94621029D01*
X132368486Y-94647573D01*
X132364675Y-94653487D01*
X132364673Y-94653489D01*
X132293505Y-94763919D01*
X132276304Y-94790610D01*
X132218103Y-94950516D01*
X132196775Y-95119343D01*
X132213381Y-95288699D01*
X132215605Y-95295384D01*
X132215605Y-95295385D01*
X132234200Y-95351283D01*
X132267094Y-95450167D01*
X132270741Y-95456189D01*
X132270742Y-95456191D01*
X132318226Y-95534595D01*
X132355246Y-95595723D01*
X132473455Y-95718132D01*
X132479351Y-95721990D01*
X132582068Y-95789206D01*
X132615846Y-95811310D01*
X132622450Y-95813766D01*
X132622452Y-95813767D01*
X132768731Y-95868168D01*
X132768733Y-95868169D01*
X132775341Y-95870626D01*
X132782326Y-95871558D01*
X132782330Y-95871559D01*
X132802710Y-95874278D01*
X132807770Y-95874953D01*
X132872648Y-95903788D01*
X132880202Y-95910751D01*
X134495685Y-97526234D01*
X134506552Y-97538625D01*
X134526013Y-97563987D01*
X134532563Y-97569013D01*
X134557925Y-97588474D01*
X134557928Y-97588477D01*
X134646409Y-97656371D01*
X134653124Y-97661524D01*
X134660753Y-97664684D01*
X134663694Y-97666382D01*
X134712686Y-97717765D01*
X134726121Y-97787479D01*
X134699733Y-97853390D01*
X134641901Y-97894571D01*
X134600692Y-97901500D01*
X131485943Y-97901500D01*
X131463734Y-97899527D01*
X131450784Y-97897208D01*
X131450783Y-97897208D01*
X131446355Y-97896415D01*
X131395842Y-97894678D01*
X131387591Y-97894121D01*
X131364523Y-97891805D01*
X131298743Y-97865097D01*
X131271322Y-97834876D01*
X131270996Y-97834371D01*
X131205279Y-97732788D01*
X131172822Y-97682617D01*
X131172820Y-97682614D01*
X131170014Y-97678277D01*
X131162997Y-97670565D01*
X131022798Y-97516488D01*
X130991746Y-97452642D01*
X131000141Y-97382143D01*
X131045317Y-97327375D01*
X131071761Y-97313706D01*
X131178297Y-97273767D01*
X131186705Y-97270615D01*
X131303261Y-97183261D01*
X131390615Y-97066705D01*
X131441745Y-96930316D01*
X131448500Y-96868134D01*
X131448500Y-95071866D01*
X131441745Y-95009684D01*
X131390615Y-94873295D01*
X131303261Y-94756739D01*
X131186705Y-94669385D01*
X131050316Y-94618255D01*
X130988134Y-94611500D01*
X129234500Y-94611500D01*
X129166379Y-94591498D01*
X129119886Y-94537842D01*
X129108500Y-94485500D01*
X129108500Y-92667182D01*
X129109347Y-92652601D01*
X129112513Y-92625428D01*
X129112513Y-92625426D01*
X129113552Y-92616508D01*
X129112046Y-92607653D01*
X129110541Y-92598804D01*
X129108778Y-92575325D01*
X129108816Y-92573321D01*
X129112466Y-92377310D01*
X129113468Y-92323545D01*
X129114556Y-92309203D01*
X129151609Y-92031924D01*
X129154325Y-92017799D01*
X129165119Y-91975001D01*
X129179655Y-91917368D01*
X129215709Y-91856208D01*
X129279106Y-91824249D01*
X129349717Y-91831638D01*
X129405124Y-91876029D01*
X129427559Y-91939941D01*
X129427697Y-91942039D01*
X129430457Y-91984151D01*
X129480605Y-92181610D01*
X129565898Y-92366624D01*
X129683479Y-92532997D01*
X129687613Y-92537024D01*
X129813719Y-92659871D01*
X129829410Y-92675157D01*
X129834206Y-92678362D01*
X129834209Y-92678364D01*
X129955262Y-92759249D01*
X129998803Y-92788342D01*
X130004106Y-92790620D01*
X130004109Y-92790622D01*
X130093115Y-92828862D01*
X130185987Y-92868763D01*
X130258817Y-92885243D01*
X130379055Y-92912450D01*
X130379060Y-92912451D01*
X130384692Y-92913725D01*
X130390463Y-92913952D01*
X130390465Y-92913952D01*
X130453470Y-92916427D01*
X130588263Y-92921723D01*
X130789883Y-92892490D01*
X130795347Y-92890635D01*
X130795352Y-92890634D01*
X130977327Y-92828862D01*
X130977332Y-92828860D01*
X130982799Y-92827004D01*
X131021287Y-92805450D01*
X131051835Y-92788342D01*
X131160551Y-92727458D01*
X131317186Y-92597186D01*
X131447458Y-92440551D01*
X131520604Y-92309939D01*
X131544180Y-92267842D01*
X131544181Y-92267840D01*
X131547004Y-92262799D01*
X131548860Y-92257332D01*
X131548862Y-92257327D01*
X131610634Y-92075352D01*
X131610635Y-92075347D01*
X131612490Y-92069883D01*
X131641723Y-91868263D01*
X131643079Y-91816481D01*
X131664858Y-91748908D01*
X131719712Y-91703835D01*
X131790226Y-91695575D01*
X131854013Y-91726748D01*
X131868952Y-91743398D01*
X131869987Y-91745088D01*
X132016250Y-91913938D01*
X132188126Y-92056632D01*
X132381000Y-92169338D01*
X132589692Y-92249030D01*
X132594760Y-92250061D01*
X132594763Y-92250062D01*
X132657368Y-92262799D01*
X132808597Y-92293567D01*
X132813772Y-92293757D01*
X132813774Y-92293757D01*
X133026673Y-92301564D01*
X133026677Y-92301564D01*
X133031837Y-92301753D01*
X133036957Y-92301097D01*
X133036959Y-92301097D01*
X133248288Y-92274025D01*
X133248289Y-92274025D01*
X133253416Y-92273368D01*
X133271835Y-92267842D01*
X133462429Y-92210661D01*
X133462434Y-92210659D01*
X133467384Y-92209174D01*
X133667994Y-92110896D01*
X133849860Y-91981173D01*
X133866587Y-91964505D01*
X133983681Y-91847819D01*
X134008096Y-91823489D01*
X134018306Y-91809281D01*
X134138453Y-91642077D01*
X134139776Y-91643028D01*
X134186645Y-91599857D01*
X134256580Y-91587625D01*
X134322026Y-91615144D01*
G37*
%TD.AperFunction*%
%TA.AperFunction,Conductor*%
G36*
X141942026Y-91615144D02*
G01*
X141969875Y-91646994D01*
X142029987Y-91745088D01*
X142176250Y-91913938D01*
X142243492Y-91969763D01*
X142249801Y-91975001D01*
X142289436Y-92033903D01*
X142290934Y-92104884D01*
X142258411Y-92161040D01*
X141863766Y-92555685D01*
X141851375Y-92566552D01*
X141826013Y-92586013D01*
X141801526Y-92617925D01*
X141801523Y-92617928D01*
X141728476Y-92713124D01*
X141667162Y-92861149D01*
X141666160Y-92868763D01*
X141651500Y-92980115D01*
X141651500Y-92980120D01*
X141646250Y-93020000D01*
X141647328Y-93028188D01*
X141650422Y-93051690D01*
X141651500Y-93068136D01*
X141651500Y-96047392D01*
X141631498Y-96115513D01*
X141577842Y-96162006D01*
X141507568Y-96172110D01*
X141442988Y-96142616D01*
X141436405Y-96136487D01*
X141255405Y-95955487D01*
X141221379Y-95893175D01*
X141218500Y-95866392D01*
X141218500Y-92345322D01*
X141220437Y-92323313D01*
X141222810Y-92309939D01*
X141222811Y-92309934D01*
X141223595Y-92305512D01*
X141225354Y-92251859D01*
X141225861Y-92243961D01*
X141229586Y-92205115D01*
X141255999Y-92139214D01*
X141288087Y-92111026D01*
X141287994Y-92110896D01*
X141289275Y-92109982D01*
X141292206Y-92107892D01*
X141353505Y-92064168D01*
X141469860Y-91981173D01*
X141486587Y-91964505D01*
X141603681Y-91847819D01*
X141628096Y-91823489D01*
X141638306Y-91809281D01*
X141758453Y-91642077D01*
X141759776Y-91643028D01*
X141806645Y-91599857D01*
X141876580Y-91587625D01*
X141942026Y-91615144D01*
G37*
%TD.AperFunction*%
%TA.AperFunction,Conductor*%
G36*
X139402026Y-91615144D02*
G01*
X139429875Y-91646994D01*
X139489987Y-91745088D01*
X139636250Y-91913938D01*
X139808126Y-92056632D01*
X139900988Y-92110896D01*
X139930060Y-92127884D01*
X139978784Y-92179522D01*
X139991870Y-92224184D01*
X139994114Y-92246713D01*
X139994661Y-92254902D01*
X139996267Y-92301933D01*
X139996413Y-92306216D01*
X139996524Y-92307614D01*
X139999572Y-92346046D01*
X140000067Y-92352290D01*
X140000144Y-92352573D01*
X140001500Y-92368194D01*
X140001500Y-95104498D01*
X139981498Y-95172619D01*
X139927842Y-95219112D01*
X139857568Y-95229216D01*
X139792988Y-95199722D01*
X139786405Y-95193593D01*
X138715405Y-94122593D01*
X138681379Y-94060281D01*
X138678500Y-94033498D01*
X138678500Y-92345322D01*
X138680437Y-92323313D01*
X138682810Y-92309939D01*
X138682811Y-92309934D01*
X138683595Y-92305512D01*
X138685354Y-92251859D01*
X138685861Y-92243961D01*
X138689586Y-92205115D01*
X138715999Y-92139214D01*
X138748087Y-92111026D01*
X138747994Y-92110896D01*
X138749275Y-92109982D01*
X138752206Y-92107892D01*
X138813505Y-92064168D01*
X138929860Y-91981173D01*
X138946587Y-91964505D01*
X139063681Y-91847819D01*
X139088096Y-91823489D01*
X139098306Y-91809281D01*
X139218453Y-91642077D01*
X139219776Y-91643028D01*
X139266645Y-91599857D01*
X139336580Y-91587625D01*
X139402026Y-91615144D01*
G37*
%TD.AperFunction*%
%TA.AperFunction,Conductor*%
G36*
X147022026Y-91615144D02*
G01*
X147049875Y-91646994D01*
X147109987Y-91745088D01*
X147256250Y-91913938D01*
X147428126Y-92056632D01*
X147529776Y-92116031D01*
X147578499Y-92167670D01*
X147591574Y-92212227D01*
X147594121Y-92237585D01*
X147594678Y-92245844D01*
X147596414Y-92296347D01*
X147596522Y-92297710D01*
X147596523Y-92297721D01*
X147597912Y-92315182D01*
X147600073Y-92342364D01*
X147600144Y-92342623D01*
X147601500Y-92358242D01*
X147601500Y-93001497D01*
X147581498Y-93069618D01*
X147564595Y-93090592D01*
X146178260Y-94476927D01*
X146115948Y-94510953D01*
X146045133Y-94505888D01*
X146009876Y-94483136D01*
X146008742Y-94484546D01*
X146003248Y-94480129D01*
X145998286Y-94475132D01*
X145982039Y-94464821D01*
X145930321Y-94432000D01*
X145854608Y-94383951D01*
X145694300Y-94326868D01*
X145525329Y-94306720D01*
X145518326Y-94307456D01*
X145518325Y-94307456D01*
X145363101Y-94323770D01*
X145363097Y-94323771D01*
X145356093Y-94324507D01*
X145342210Y-94329233D01*
X145201673Y-94377075D01*
X145201670Y-94377076D01*
X145195003Y-94379346D01*
X145189005Y-94383036D01*
X145189003Y-94383037D01*
X145056065Y-94464821D01*
X145056063Y-94464823D01*
X145050066Y-94468512D01*
X145045033Y-94473441D01*
X145029715Y-94488441D01*
X144967050Y-94521811D01*
X144896291Y-94516005D01*
X144852463Y-94487512D01*
X144783073Y-94418122D01*
X144770646Y-94408482D01*
X144643367Y-94333210D01*
X144628931Y-94326963D01*
X144576574Y-94311752D01*
X144516738Y-94273539D01*
X144487061Y-94209043D01*
X144496964Y-94138740D01*
X144502171Y-94128518D01*
X144576823Y-93997107D01*
X144579870Y-93991744D01*
X144639203Y-93813382D01*
X144662762Y-93626892D01*
X144663138Y-93600000D01*
X144644795Y-93412926D01*
X144630878Y-93366829D01*
X144605114Y-93281498D01*
X144590465Y-93232977D01*
X144502218Y-93067008D01*
X144383415Y-92921340D01*
X144301429Y-92853515D01*
X144243329Y-92805450D01*
X144243324Y-92805447D01*
X144238580Y-92801522D01*
X144160397Y-92759249D01*
X144109988Y-92709254D01*
X144094611Y-92639943D01*
X144119147Y-92573321D01*
X144131231Y-92559318D01*
X144668017Y-92022532D01*
X144730329Y-91988506D01*
X144801144Y-91993571D01*
X144837596Y-92014682D01*
X144872779Y-92043891D01*
X144888126Y-92056632D01*
X144892589Y-92059240D01*
X144901022Y-92064168D01*
X145081000Y-92169338D01*
X145289692Y-92249030D01*
X145294760Y-92250061D01*
X145294763Y-92250062D01*
X145357368Y-92262799D01*
X145508597Y-92293567D01*
X145513772Y-92293757D01*
X145513774Y-92293757D01*
X145726673Y-92301564D01*
X145726677Y-92301564D01*
X145731837Y-92301753D01*
X145736957Y-92301097D01*
X145736959Y-92301097D01*
X145948288Y-92274025D01*
X145948289Y-92274025D01*
X145953416Y-92273368D01*
X145971835Y-92267842D01*
X146162429Y-92210661D01*
X146162434Y-92210659D01*
X146167384Y-92209174D01*
X146367994Y-92110896D01*
X146549860Y-91981173D01*
X146566587Y-91964505D01*
X146683681Y-91847819D01*
X146708096Y-91823489D01*
X146718306Y-91809281D01*
X146838453Y-91642077D01*
X146839776Y-91643028D01*
X146886645Y-91599857D01*
X146956580Y-91587625D01*
X147022026Y-91615144D01*
G37*
%TD.AperFunction*%
%TA.AperFunction,Conductor*%
G36*
X167474114Y-91957246D02*
G01*
X167524233Y-92007531D01*
X167539157Y-92057845D01*
X167540327Y-92072706D01*
X167542627Y-92085302D01*
X167583382Y-92225580D01*
X167589629Y-92240015D01*
X167622365Y-92295369D01*
X167639824Y-92364185D01*
X167622365Y-92423647D01*
X167609739Y-92444997D01*
X167585131Y-92486607D01*
X167582920Y-92494218D01*
X167582919Y-92494220D01*
X167542129Y-92634619D01*
X167542128Y-92634624D01*
X167540335Y-92640796D01*
X167539507Y-92651320D01*
X167537948Y-92671130D01*
X167537500Y-92676819D01*
X167537501Y-92854595D01*
X167537501Y-92981628D01*
X167517499Y-93049748D01*
X167500596Y-93070723D01*
X166726724Y-93844595D01*
X166664412Y-93878621D01*
X166637629Y-93881500D01*
X164373239Y-93881500D01*
X164305118Y-93861498D01*
X164258625Y-93807842D01*
X164248521Y-93737568D01*
X164278015Y-93672988D01*
X164284144Y-93666405D01*
X165511185Y-92439364D01*
X165527747Y-92425430D01*
X165539619Y-92417072D01*
X165543298Y-92414482D01*
X165586693Y-92373550D01*
X165591979Y-92368838D01*
X165619899Y-92345322D01*
X165630482Y-92336409D01*
X165635770Y-92332192D01*
X165639211Y-92329597D01*
X165646753Y-92323907D01*
X165713183Y-92298855D01*
X165722629Y-92298500D01*
X166888134Y-92298500D01*
X166950316Y-92291745D01*
X167086705Y-92240615D01*
X167203261Y-92153261D01*
X167290615Y-92036705D01*
X167295564Y-92023504D01*
X167338204Y-91966740D01*
X167404765Y-91942039D01*
X167474114Y-91957246D01*
G37*
%TD.AperFunction*%
%TA.AperFunction,Conductor*%
G36*
X136862026Y-91615144D02*
G01*
X136889875Y-91646994D01*
X136949987Y-91745088D01*
X137096250Y-91913938D01*
X137268126Y-92056632D01*
X137360988Y-92110896D01*
X137390060Y-92127884D01*
X137438784Y-92179522D01*
X137451870Y-92224184D01*
X137454114Y-92246713D01*
X137454661Y-92254902D01*
X137456267Y-92301933D01*
X137456413Y-92306216D01*
X137456524Y-92307614D01*
X137459572Y-92346046D01*
X137460067Y-92352290D01*
X137460144Y-92352573D01*
X137461500Y-92368194D01*
X137461500Y-93271605D01*
X137441498Y-93339726D01*
X137387842Y-93386219D01*
X137317568Y-93396323D01*
X137252988Y-93366829D01*
X137246405Y-93360700D01*
X136189691Y-92303986D01*
X136155665Y-92241674D01*
X136160730Y-92170859D01*
X136203277Y-92114023D01*
X136207817Y-92110983D01*
X136207994Y-92110896D01*
X136389860Y-91981173D01*
X136406587Y-91964505D01*
X136523681Y-91847819D01*
X136548096Y-91823489D01*
X136558306Y-91809281D01*
X136678453Y-91642077D01*
X136679776Y-91643028D01*
X136726645Y-91599857D01*
X136796580Y-91587625D01*
X136862026Y-91615144D01*
G37*
%TD.AperFunction*%
%TA.AperFunction,Conductor*%
G36*
X168637924Y-89978502D02*
G01*
X168684417Y-90032158D01*
X168694521Y-90102432D01*
X168665027Y-90167012D01*
X168645368Y-90185326D01*
X168536739Y-90266739D01*
X168449385Y-90383295D01*
X168398255Y-90519684D01*
X168391500Y-90581866D01*
X168391500Y-91278134D01*
X168398255Y-91340316D01*
X168449385Y-91476705D01*
X168536739Y-91593261D01*
X168653295Y-91680615D01*
X168789684Y-91731745D01*
X168851866Y-91738500D01*
X169948134Y-91738500D01*
X169951529Y-91738131D01*
X169951533Y-91738131D01*
X169997893Y-91733095D01*
X170067776Y-91745624D01*
X170119791Y-91793945D01*
X170137500Y-91858358D01*
X170137500Y-91901642D01*
X170117498Y-91969763D01*
X170063842Y-92016256D01*
X169997893Y-92026905D01*
X169951533Y-92021869D01*
X169951529Y-92021869D01*
X169948134Y-92021500D01*
X168851866Y-92021500D01*
X168789684Y-92028255D01*
X168653295Y-92079385D01*
X168646109Y-92084771D01*
X168638240Y-92089079D01*
X168636719Y-92086302D01*
X168584857Y-92105675D01*
X168575807Y-92106000D01*
X168511988Y-92106000D01*
X168475464Y-92100590D01*
X168472394Y-92099660D01*
X168435233Y-92088405D01*
X168427924Y-92087952D01*
X168427921Y-92087951D01*
X168353343Y-92083325D01*
X168258702Y-92077453D01*
X168193337Y-92088685D01*
X168122815Y-92080508D01*
X168067906Y-92035502D01*
X168046000Y-91964505D01*
X168046000Y-91118756D01*
X168042027Y-91105225D01*
X168034129Y-91104090D01*
X167926420Y-91135382D01*
X167911981Y-91141631D01*
X167787538Y-91215226D01*
X167775102Y-91224873D01*
X167672873Y-91327102D01*
X167663226Y-91339538D01*
X167585594Y-91470807D01*
X167584180Y-91469971D01*
X167544726Y-91517386D01*
X167477019Y-91538746D01*
X167408512Y-91520110D01*
X167360956Y-91467394D01*
X167348500Y-91412771D01*
X167348500Y-90084500D01*
X167368502Y-90016379D01*
X167422158Y-89969886D01*
X167474500Y-89958500D01*
X168569803Y-89958500D01*
X168637924Y-89978502D01*
G37*
%TD.AperFunction*%
%TA.AperFunction,Conductor*%
G36*
X173875662Y-89959804D02*
G01*
X174023191Y-89961588D01*
X174037762Y-89962611D01*
X174327881Y-90000013D01*
X174342247Y-90002720D01*
X174530388Y-90049626D01*
X174626078Y-90073483D01*
X174640035Y-90077837D01*
X174913755Y-90181007D01*
X174927105Y-90186946D01*
X175187034Y-90321139D01*
X175199601Y-90328580D01*
X175316246Y-90407137D01*
X175442229Y-90491983D01*
X175453862Y-90500841D01*
X175490274Y-90532063D01*
X175528967Y-90591589D01*
X175529336Y-90662585D01*
X175491262Y-90722509D01*
X175426835Y-90752337D01*
X175367365Y-90745419D01*
X175367082Y-90746376D01*
X175361580Y-90744746D01*
X175361570Y-90744745D01*
X175361552Y-90744738D01*
X175361550Y-90744737D01*
X175356180Y-90742595D01*
X175156366Y-90702849D01*
X175150592Y-90702773D01*
X175150588Y-90702773D01*
X175047452Y-90701424D01*
X174952655Y-90700183D01*
X174946958Y-90701162D01*
X174946957Y-90701162D01*
X174757567Y-90733705D01*
X174751870Y-90734684D01*
X174560734Y-90805198D01*
X174385649Y-90909363D01*
X174232478Y-91043690D01*
X174228911Y-91048215D01*
X174228906Y-91048220D01*
X174164815Y-91129520D01*
X174106351Y-91203681D01*
X174011492Y-91383978D01*
X174009778Y-91389498D01*
X174006734Y-91399300D01*
X173967430Y-91458424D01*
X173902400Y-91486913D01*
X173832291Y-91475722D01*
X173777948Y-91426072D01*
X173726769Y-91339533D01*
X173717127Y-91327102D01*
X173614898Y-91224873D01*
X173602462Y-91215226D01*
X173478019Y-91141631D01*
X173463580Y-91135382D01*
X173361395Y-91105695D01*
X173347295Y-91105735D01*
X173344000Y-91113005D01*
X173344000Y-91951500D01*
X173323998Y-92019621D01*
X173270342Y-92066114D01*
X173218000Y-92077500D01*
X172764518Y-92077500D01*
X172720289Y-92069482D01*
X172617711Y-92031027D01*
X172617709Y-92031027D01*
X172610316Y-92028255D01*
X172602468Y-92027402D01*
X172602466Y-92027402D01*
X172551531Y-92021869D01*
X172548134Y-92021500D01*
X171872000Y-92021500D01*
X171803879Y-92001498D01*
X171757386Y-91947842D01*
X171746000Y-91895500D01*
X171746000Y-91864500D01*
X171766002Y-91796379D01*
X171819658Y-91749886D01*
X171872000Y-91738500D01*
X172548134Y-91738500D01*
X172610316Y-91731745D01*
X172746705Y-91680615D01*
X172863261Y-91593261D01*
X172950615Y-91476705D01*
X173001745Y-91340316D01*
X173008500Y-91278134D01*
X173008500Y-90581866D01*
X173001745Y-90519684D01*
X172950615Y-90383295D01*
X172863261Y-90266739D01*
X172754632Y-90185326D01*
X172712117Y-90128467D01*
X172707091Y-90057648D01*
X172741151Y-89995355D01*
X172803482Y-89961365D01*
X172830197Y-89958500D01*
X173665172Y-89958500D01*
X173678815Y-89959241D01*
X173717338Y-89963437D01*
X173734843Y-89960324D01*
X173758423Y-89958387D01*
X173875662Y-89959804D01*
G37*
%TD.AperFunction*%
%TD*%
%TA.AperFunction,Conductor*%
%TO.N,/PA10*%
G36*
X140590985Y-90566341D02*
G01*
X140592764Y-90570366D01*
X140849074Y-91679996D01*
X140862213Y-91736880D01*
X140860736Y-91745712D01*
X140857460Y-91749141D01*
X140851138Y-91753506D01*
X140845990Y-91757060D01*
X140826337Y-91782091D01*
X140805876Y-91818588D01*
X140785439Y-91865418D01*
X140785376Y-91865598D01*
X140785371Y-91865611D01*
X140782692Y-91873279D01*
X140765860Y-91921449D01*
X140747972Y-91985549D01*
X140732609Y-92056586D01*
X140720604Y-92133428D01*
X140712789Y-92214943D01*
X140712784Y-92215104D01*
X140712783Y-92215115D01*
X140710371Y-92288683D01*
X140706675Y-92296840D01*
X140698677Y-92300000D01*
X140521307Y-92300000D01*
X140513034Y-92296573D01*
X140509614Y-92288699D01*
X140509614Y-92288683D01*
X140507151Y-92216540D01*
X140499178Y-92136509D01*
X140486941Y-92061047D01*
X140471301Y-91991296D01*
X140471259Y-91991150D01*
X140471255Y-91991135D01*
X140453173Y-91928591D01*
X140453117Y-91928397D01*
X140433249Y-91873491D01*
X140428817Y-91863686D01*
X140412687Y-91828003D01*
X140412682Y-91827993D01*
X140412558Y-91827719D01*
X140391903Y-91792223D01*
X140372145Y-91768143D01*
X140360751Y-91760850D01*
X140355632Y-91753506D01*
X140355549Y-91748904D01*
X140356328Y-91744625D01*
X140569854Y-90570906D01*
X140574706Y-90563380D01*
X140583459Y-90561489D01*
X140590985Y-90566341D01*
G37*
%TD.AperFunction*%
%TD*%
%TA.AperFunction,Conductor*%
%TO.N,/PA12*%
G36*
X135519774Y-90566469D02*
G01*
X135521459Y-90570536D01*
X135763399Y-91743091D01*
X135761714Y-91751886D01*
X135758390Y-91755216D01*
X135747967Y-91762103D01*
X135747965Y-91762105D01*
X135747222Y-91762596D01*
X135727645Y-91786670D01*
X135727415Y-91787065D01*
X135727412Y-91787070D01*
X135707282Y-91821703D01*
X135707133Y-91821960D01*
X135686550Y-91867359D01*
X135666762Y-91921759D01*
X135648633Y-91984053D01*
X135633028Y-92053131D01*
X135620811Y-92127887D01*
X135612846Y-92207212D01*
X135612840Y-92207391D01*
X135612839Y-92207403D01*
X135610388Y-92278702D01*
X135606679Y-92286853D01*
X135598695Y-92290000D01*
X135421304Y-92290000D01*
X135413031Y-92286573D01*
X135409611Y-92278702D01*
X135407160Y-92207403D01*
X135407159Y-92207391D01*
X135407153Y-92207212D01*
X135399188Y-92127887D01*
X135386971Y-92053131D01*
X135371366Y-91984053D01*
X135353237Y-91921759D01*
X135333449Y-91867359D01*
X135312866Y-91821960D01*
X135312717Y-91821703D01*
X135292587Y-91787070D01*
X135292584Y-91787065D01*
X135292354Y-91786670D01*
X135272777Y-91762596D01*
X135271782Y-91761938D01*
X135261609Y-91755215D01*
X135256596Y-91747794D01*
X135256601Y-91743090D01*
X135498541Y-90570536D01*
X135503569Y-90563126D01*
X135512364Y-90561441D01*
X135519774Y-90566469D01*
G37*
%TD.AperFunction*%
%TD*%
%TA.AperFunction,Conductor*%
%TO.N,/VDD_3.3V*%
G36*
X161716094Y-107486908D02*
G01*
X162053108Y-107823922D01*
X162056535Y-107832195D01*
X162053119Y-107840457D01*
X162006388Y-107887313D01*
X161952672Y-107941443D01*
X161901293Y-107993457D01*
X161853321Y-108042238D01*
X161809827Y-108086671D01*
X161771882Y-108125639D01*
X161740555Y-108158026D01*
X161716918Y-108182715D01*
X161702041Y-108198592D01*
X161701967Y-108198680D01*
X161701952Y-108198696D01*
X161698574Y-108202680D01*
X161694807Y-108205614D01*
X160615080Y-108735494D01*
X160606144Y-108736063D01*
X160599423Y-108730146D01*
X160598854Y-108721209D01*
X160601035Y-108717386D01*
X161383866Y-107802206D01*
X161385074Y-107800987D01*
X161389379Y-107797239D01*
X161389386Y-107797232D01*
X161389498Y-107797135D01*
X161403147Y-107783895D01*
X161424430Y-107762816D01*
X161452400Y-107734886D01*
X161486116Y-107701089D01*
X161524631Y-107662412D01*
X161567003Y-107619841D01*
X161612287Y-107574363D01*
X161659539Y-107526964D01*
X161699543Y-107486913D01*
X161707814Y-107483481D01*
X161716094Y-107486908D01*
G37*
%TD.AperFunction*%
%TD*%
%TA.AperFunction,Conductor*%
%TO.N,/PA4{slash}CS*%
G36*
X156099354Y-90673989D02*
G01*
X156101039Y-90682784D01*
X156099354Y-90686851D01*
X155441309Y-91687051D01*
X155433899Y-91692079D01*
X155429198Y-91692084D01*
X155416077Y-91689405D01*
X155399748Y-91691087D01*
X155385676Y-91692536D01*
X155385673Y-91692536D01*
X155385212Y-91692584D01*
X155345754Y-91703034D01*
X155320520Y-91712525D01*
X155299302Y-91720505D01*
X155299296Y-91720508D01*
X155299098Y-91720582D01*
X155246639Y-91745056D01*
X155189772Y-91776285D01*
X155129892Y-91814096D01*
X155129760Y-91814191D01*
X155129748Y-91814199D01*
X155068539Y-91858213D01*
X155068393Y-91858318D01*
X155006670Y-91908777D01*
X155006557Y-91908882D01*
X155006546Y-91908892D01*
X154954381Y-91957590D01*
X154945995Y-91960730D01*
X154938124Y-91957310D01*
X154812690Y-91831876D01*
X154809263Y-91823603D01*
X154812410Y-91815619D01*
X154861107Y-91763453D01*
X154861117Y-91763442D01*
X154861222Y-91763329D01*
X154896231Y-91720505D01*
X154911562Y-91701752D01*
X154911567Y-91701745D01*
X154911681Y-91701606D01*
X154918083Y-91692703D01*
X154955800Y-91640251D01*
X154955808Y-91640239D01*
X154955903Y-91640107D01*
X154993714Y-91580227D01*
X155024943Y-91523360D01*
X155049417Y-91470901D01*
X155066965Y-91424245D01*
X155077415Y-91384787D01*
X155080594Y-91353922D01*
X155077916Y-91340804D01*
X155079619Y-91332013D01*
X155082947Y-91328692D01*
X156083149Y-90670646D01*
X156091944Y-90668961D01*
X156099354Y-90673989D01*
G37*
%TD.AperFunction*%
%TD*%
%TA.AperFunction,Conductor*%
%TO.N,/NRST*%
G36*
X155926898Y-107223427D02*
G01*
X155930320Y-107231371D01*
X155931954Y-107289468D01*
X155937404Y-107356616D01*
X155945731Y-107420334D01*
X155956316Y-107479510D01*
X155968540Y-107533035D01*
X155981785Y-107579798D01*
X155995431Y-107618687D01*
X155995537Y-107618922D01*
X156005147Y-107640324D01*
X156008860Y-107648594D01*
X156021453Y-107668406D01*
X156027140Y-107672802D01*
X156031590Y-107680571D01*
X156031551Y-107683823D01*
X156029277Y-107698709D01*
X155850610Y-108868372D01*
X155845973Y-108876033D01*
X155837277Y-108878171D01*
X155829616Y-108873534D01*
X155827723Y-108869561D01*
X155525107Y-107710474D01*
X155526333Y-107701603D01*
X155528724Y-107698713D01*
X155534722Y-107693469D01*
X155547740Y-107671979D01*
X155561676Y-107640114D01*
X155575877Y-107598986D01*
X155575927Y-107598809D01*
X155589643Y-107549870D01*
X155589646Y-107549856D01*
X155589688Y-107549708D01*
X155602455Y-107493393D01*
X155613524Y-107431152D01*
X155622241Y-107364098D01*
X155627951Y-107293343D01*
X155628056Y-107289603D01*
X155629682Y-107231373D01*
X155633338Y-107223199D01*
X155641377Y-107220000D01*
X155918625Y-107220000D01*
X155926898Y-107223427D01*
G37*
%TD.AperFunction*%
%TD*%
%TA.AperFunction,Conductor*%
%TO.N,/PA14{slash}SWCLK*%
G36*
X130901885Y-100798286D02*
G01*
X130905215Y-100801609D01*
X130911938Y-100811782D01*
X130912596Y-100812777D01*
X130936670Y-100832354D01*
X130937065Y-100832584D01*
X130937070Y-100832587D01*
X130971703Y-100852717D01*
X130971709Y-100852720D01*
X130971960Y-100852866D01*
X131017359Y-100873449D01*
X131071759Y-100893237D01*
X131071932Y-100893287D01*
X131071937Y-100893289D01*
X131117532Y-100906558D01*
X131134053Y-100911366D01*
X131134224Y-100911405D01*
X131134237Y-100911408D01*
X131202949Y-100926930D01*
X131202953Y-100926931D01*
X131203131Y-100926971D01*
X131250380Y-100934693D01*
X131277708Y-100939159D01*
X131277716Y-100939160D01*
X131277887Y-100939188D01*
X131357212Y-100947153D01*
X131357391Y-100947159D01*
X131357403Y-100947160D01*
X131391440Y-100948330D01*
X131428703Y-100949612D01*
X131436853Y-100953320D01*
X131440000Y-100961304D01*
X131440000Y-101138695D01*
X131436573Y-101146968D01*
X131428702Y-101150388D01*
X131357403Y-101152839D01*
X131357391Y-101152840D01*
X131357212Y-101152846D01*
X131277887Y-101160811D01*
X131277716Y-101160839D01*
X131277708Y-101160840D01*
X131250380Y-101165306D01*
X131203131Y-101173028D01*
X131202953Y-101173068D01*
X131202949Y-101173069D01*
X131134237Y-101188591D01*
X131134224Y-101188594D01*
X131134053Y-101188633D01*
X131133878Y-101188684D01*
X131071937Y-101206710D01*
X131071932Y-101206712D01*
X131071759Y-101206762D01*
X131017359Y-101226550D01*
X130971960Y-101247133D01*
X130971709Y-101247279D01*
X130971703Y-101247282D01*
X130937070Y-101267412D01*
X130937065Y-101267415D01*
X130936670Y-101267645D01*
X130912596Y-101287222D01*
X130912106Y-101287964D01*
X130912103Y-101287967D01*
X130905216Y-101298390D01*
X130897796Y-101303403D01*
X130893091Y-101303399D01*
X129720536Y-101061459D01*
X129713126Y-101056431D01*
X129711441Y-101047636D01*
X129716469Y-101040226D01*
X129720536Y-101038541D01*
X130893090Y-100796601D01*
X130901885Y-100798286D01*
G37*
%TD.AperFunction*%
%TD*%
%TA.AperFunction,Conductor*%
%TO.N,/PB3*%
G36*
X140676968Y-107153427D02*
G01*
X140680388Y-107161298D01*
X140682846Y-107232787D01*
X140690811Y-107312112D01*
X140703028Y-107386868D01*
X140718633Y-107455946D01*
X140736762Y-107518240D01*
X140756550Y-107572640D01*
X140777133Y-107618039D01*
X140777279Y-107618290D01*
X140777282Y-107618296D01*
X140797412Y-107652929D01*
X140797415Y-107652934D01*
X140797645Y-107653329D01*
X140817222Y-107677403D01*
X140817965Y-107677894D01*
X140828391Y-107684785D01*
X140833404Y-107692206D01*
X140833399Y-107696910D01*
X140591459Y-108869464D01*
X140586431Y-108876874D01*
X140577636Y-108878559D01*
X140570226Y-108873531D01*
X140568541Y-108869464D01*
X140326601Y-107696909D01*
X140328286Y-107688114D01*
X140331609Y-107684784D01*
X140342034Y-107677894D01*
X140342777Y-107677403D01*
X140362354Y-107653329D01*
X140362584Y-107652934D01*
X140362587Y-107652929D01*
X140382717Y-107618296D01*
X140382720Y-107618290D01*
X140382866Y-107618039D01*
X140403449Y-107572640D01*
X140423237Y-107518240D01*
X140441366Y-107455946D01*
X140456971Y-107386868D01*
X140469188Y-107312112D01*
X140477153Y-107232787D01*
X140479612Y-107161297D01*
X140483320Y-107153147D01*
X140491304Y-107150000D01*
X140668695Y-107150000D01*
X140676968Y-107153427D01*
G37*
%TD.AperFunction*%
%TD*%
%TA.AperFunction,Conductor*%
%TO.N,/VDD_5V*%
G36*
X166391449Y-107141795D02*
G01*
X166728303Y-107478649D01*
X166731730Y-107486922D01*
X166728275Y-107495222D01*
X166703561Y-107519768D01*
X166691853Y-107531396D01*
X166691804Y-107531445D01*
X166647674Y-107574759D01*
X166647634Y-107574798D01*
X166605067Y-107616183D01*
X166605035Y-107616213D01*
X166565100Y-107654748D01*
X166565077Y-107654771D01*
X166528637Y-107689736D01*
X166496721Y-107720250D01*
X166470302Y-107745486D01*
X166450354Y-107764616D01*
X166437849Y-107776814D01*
X166433763Y-107781252D01*
X166433396Y-107781989D01*
X166433394Y-107781992D01*
X165896652Y-108860124D01*
X165889897Y-108866003D01*
X165880964Y-108865384D01*
X165875085Y-108858629D01*
X165874496Y-108854267D01*
X165940491Y-107654726D01*
X165943123Y-107647953D01*
X165947223Y-107642950D01*
X165947230Y-107642942D01*
X165947276Y-107642885D01*
X165964686Y-107620144D01*
X165992005Y-107584560D01*
X166028268Y-107538063D01*
X166028346Y-107537964D01*
X166072634Y-107482417D01*
X166072732Y-107482296D01*
X166124115Y-107419580D01*
X166124234Y-107419437D01*
X166181791Y-107351418D01*
X166181934Y-107351251D01*
X166244815Y-107279717D01*
X166244990Y-107279523D01*
X166312156Y-107206475D01*
X166312372Y-107206247D01*
X166374779Y-107141921D01*
X166382999Y-107138369D01*
X166391449Y-107141795D01*
G37*
%TD.AperFunction*%
%TD*%
%TA.AperFunction,Conductor*%
%TO.N,/NRST*%
G36*
X155926826Y-101973427D02*
G01*
X155930250Y-101981445D01*
X155931264Y-102027909D01*
X155931272Y-102028041D01*
X155931273Y-102028060D01*
X155934791Y-102084435D01*
X155934798Y-102084545D01*
X155940214Y-102138739D01*
X155947122Y-102189324D01*
X155955134Y-102235133D01*
X155963862Y-102274999D01*
X155963902Y-102275143D01*
X155970163Y-102297788D01*
X155972918Y-102307754D01*
X155981911Y-102332230D01*
X155990455Y-102347261D01*
X155991814Y-102348040D01*
X155991816Y-102348042D01*
X155994034Y-102349313D01*
X155999466Y-102356253D01*
X156288074Y-103367852D01*
X156287048Y-103376748D01*
X156280033Y-103382313D01*
X156271137Y-103381287D01*
X156267761Y-103378463D01*
X155604022Y-102565813D01*
X155601443Y-102557239D01*
X155602550Y-102553321D01*
X155606200Y-102545770D01*
X155606504Y-102545142D01*
X155612516Y-102516999D01*
X155617441Y-102476899D01*
X155621381Y-102426136D01*
X155624437Y-102366001D01*
X155626709Y-102297788D01*
X155627196Y-102274845D01*
X155628301Y-102222804D01*
X155628301Y-102222788D01*
X155629312Y-102142295D01*
X155629335Y-102138739D01*
X155629845Y-102057601D01*
X155629897Y-102028060D01*
X155629979Y-101981678D01*
X155633420Y-101973412D01*
X155641679Y-101970000D01*
X155918553Y-101970000D01*
X155926826Y-101973427D01*
G37*
%TD.AperFunction*%
%TD*%
%TA.AperFunction,Conductor*%
%TO.N,/PA3*%
G36*
X158639354Y-90673989D02*
G01*
X158641039Y-90682784D01*
X158639354Y-90686851D01*
X157981309Y-91687051D01*
X157973899Y-91692079D01*
X157969198Y-91692084D01*
X157956077Y-91689405D01*
X157939748Y-91691087D01*
X157925676Y-91692536D01*
X157925673Y-91692536D01*
X157925212Y-91692584D01*
X157885754Y-91703034D01*
X157860520Y-91712525D01*
X157839302Y-91720505D01*
X157839296Y-91720508D01*
X157839098Y-91720582D01*
X157786639Y-91745056D01*
X157729772Y-91776285D01*
X157669892Y-91814096D01*
X157669760Y-91814191D01*
X157669748Y-91814199D01*
X157608539Y-91858213D01*
X157608393Y-91858318D01*
X157546670Y-91908777D01*
X157546557Y-91908882D01*
X157546546Y-91908892D01*
X157494381Y-91957590D01*
X157485995Y-91960730D01*
X157478124Y-91957310D01*
X157352690Y-91831876D01*
X157349263Y-91823603D01*
X157352410Y-91815619D01*
X157401107Y-91763453D01*
X157401117Y-91763442D01*
X157401222Y-91763329D01*
X157436231Y-91720505D01*
X157451562Y-91701752D01*
X157451567Y-91701745D01*
X157451681Y-91701606D01*
X157458083Y-91692703D01*
X157495800Y-91640251D01*
X157495808Y-91640239D01*
X157495903Y-91640107D01*
X157533714Y-91580227D01*
X157564943Y-91523360D01*
X157589417Y-91470901D01*
X157606965Y-91424245D01*
X157617415Y-91384787D01*
X157620594Y-91353922D01*
X157617916Y-91340804D01*
X157619619Y-91332013D01*
X157622947Y-91328692D01*
X158623149Y-90670646D01*
X158631944Y-90668961D01*
X158639354Y-90673989D01*
G37*
%TD.AperFunction*%
%TD*%
%TA.AperFunction,Conductor*%
%TO.N,/PA7{slash}MOSI*%
G36*
X148219774Y-90566469D02*
G01*
X148221459Y-90570536D01*
X148463399Y-91743091D01*
X148461714Y-91751886D01*
X148458390Y-91755216D01*
X148447967Y-91762103D01*
X148447965Y-91762105D01*
X148447222Y-91762596D01*
X148427645Y-91786670D01*
X148427415Y-91787065D01*
X148427412Y-91787070D01*
X148407282Y-91821703D01*
X148407133Y-91821960D01*
X148386550Y-91867359D01*
X148366762Y-91921759D01*
X148348633Y-91984053D01*
X148333028Y-92053131D01*
X148320811Y-92127887D01*
X148312846Y-92207212D01*
X148312840Y-92207391D01*
X148312839Y-92207403D01*
X148310388Y-92278702D01*
X148306679Y-92286853D01*
X148298695Y-92290000D01*
X148121304Y-92290000D01*
X148113031Y-92286573D01*
X148109611Y-92278702D01*
X148107160Y-92207403D01*
X148107159Y-92207391D01*
X148107153Y-92207212D01*
X148099188Y-92127887D01*
X148086971Y-92053131D01*
X148071366Y-91984053D01*
X148053237Y-91921759D01*
X148033449Y-91867359D01*
X148012866Y-91821960D01*
X148012717Y-91821703D01*
X147992587Y-91787070D01*
X147992584Y-91787065D01*
X147992354Y-91786670D01*
X147972777Y-91762596D01*
X147971782Y-91761938D01*
X147961609Y-91755215D01*
X147956596Y-91747794D01*
X147956601Y-91743090D01*
X148198541Y-90570536D01*
X148203569Y-90563126D01*
X148212364Y-90561441D01*
X148219774Y-90566469D01*
G37*
%TD.AperFunction*%
%TD*%
%TA.AperFunction,Conductor*%
%TO.N,/PB6*%
G36*
X147324381Y-107482410D02*
G01*
X147376546Y-107531107D01*
X147376557Y-107531117D01*
X147376670Y-107531222D01*
X147438393Y-107581681D01*
X147438539Y-107581786D01*
X147499748Y-107625800D01*
X147499760Y-107625808D01*
X147499892Y-107625903D01*
X147559772Y-107663714D01*
X147616639Y-107694943D01*
X147669098Y-107719417D01*
X147669296Y-107719491D01*
X147669302Y-107719494D01*
X147690520Y-107727474D01*
X147715754Y-107736965D01*
X147755212Y-107747415D01*
X147755673Y-107747463D01*
X147755676Y-107747463D01*
X147765256Y-107748449D01*
X147786077Y-107750594D01*
X147786949Y-107750416D01*
X147786950Y-107750416D01*
X147799196Y-107747916D01*
X147807987Y-107749619D01*
X147811308Y-107752947D01*
X148047080Y-108111310D01*
X148469354Y-108753149D01*
X148471039Y-108761944D01*
X148466011Y-108769354D01*
X148457216Y-108771039D01*
X148453149Y-108769354D01*
X148428518Y-108753149D01*
X147452948Y-108111309D01*
X147447921Y-108103900D01*
X147447916Y-108099196D01*
X147450416Y-108086950D01*
X147450416Y-108086949D01*
X147450594Y-108086077D01*
X147447415Y-108055212D01*
X147436965Y-108015754D01*
X147419417Y-107969098D01*
X147394943Y-107916639D01*
X147363714Y-107859772D01*
X147325903Y-107799892D01*
X147325808Y-107799760D01*
X147325800Y-107799748D01*
X147281786Y-107738539D01*
X147281681Y-107738393D01*
X147280430Y-107736862D01*
X147246086Y-107694852D01*
X147231222Y-107676670D01*
X147231117Y-107676557D01*
X147231107Y-107676546D01*
X147182410Y-107624381D01*
X147179270Y-107615995D01*
X147182690Y-107608124D01*
X147308124Y-107482690D01*
X147316397Y-107479263D01*
X147324381Y-107482410D01*
G37*
%TD.AperFunction*%
%TD*%
%TA.AperFunction,Conductor*%
%TO.N,/NRST*%
G36*
X156284224Y-102799876D02*
G01*
X156288464Y-102807764D01*
X156288074Y-102812148D01*
X155999466Y-103823746D01*
X155994035Y-103830686D01*
X155990455Y-103832738D01*
X155981911Y-103847769D01*
X155972918Y-103872245D01*
X155972855Y-103872472D01*
X155972853Y-103872479D01*
X155967312Y-103892522D01*
X155963862Y-103905000D01*
X155955134Y-103944866D01*
X155947122Y-103990675D01*
X155940214Y-104041260D01*
X155934798Y-104095454D01*
X155934792Y-104095556D01*
X155934791Y-104095564D01*
X155933117Y-104122398D01*
X155931264Y-104152090D01*
X155931261Y-104152239D01*
X155930250Y-104198555D01*
X155926644Y-104206752D01*
X155918553Y-104210000D01*
X155641679Y-104210000D01*
X155633406Y-104206573D01*
X155629979Y-104198321D01*
X155629898Y-104152090D01*
X155629845Y-104122398D01*
X155629676Y-104095454D01*
X155629312Y-104037704D01*
X155628302Y-103957296D01*
X155628301Y-103957211D01*
X155628042Y-103944980D01*
X155626709Y-103882211D01*
X155624437Y-103813998D01*
X155621385Y-103753944D01*
X155621381Y-103753863D01*
X155617441Y-103703100D01*
X155612516Y-103663000D01*
X155606504Y-103634857D01*
X155602551Y-103626679D01*
X155602036Y-103617739D01*
X155604023Y-103614186D01*
X156011303Y-103115532D01*
X156267762Y-102801537D01*
X156275649Y-102797297D01*
X156284224Y-102799876D01*
G37*
%TD.AperFunction*%
%TD*%
%TA.AperFunction,Conductor*%
%TO.N,/PA5{slash}SCLK*%
G36*
X153559354Y-90673989D02*
G01*
X153561039Y-90682784D01*
X153559354Y-90686851D01*
X152901309Y-91687051D01*
X152893899Y-91692079D01*
X152889198Y-91692084D01*
X152876077Y-91689405D01*
X152859748Y-91691087D01*
X152845676Y-91692536D01*
X152845673Y-91692536D01*
X152845212Y-91692584D01*
X152805754Y-91703034D01*
X152780520Y-91712525D01*
X152759302Y-91720505D01*
X152759296Y-91720508D01*
X152759098Y-91720582D01*
X152706639Y-91745056D01*
X152649772Y-91776285D01*
X152589892Y-91814096D01*
X152589760Y-91814191D01*
X152589748Y-91814199D01*
X152528539Y-91858213D01*
X152528393Y-91858318D01*
X152466670Y-91908777D01*
X152466557Y-91908882D01*
X152466546Y-91908892D01*
X152414381Y-91957590D01*
X152405995Y-91960730D01*
X152398124Y-91957310D01*
X152272690Y-91831876D01*
X152269263Y-91823603D01*
X152272410Y-91815619D01*
X152321107Y-91763453D01*
X152321117Y-91763442D01*
X152321222Y-91763329D01*
X152356231Y-91720505D01*
X152371562Y-91701752D01*
X152371567Y-91701745D01*
X152371681Y-91701606D01*
X152378083Y-91692703D01*
X152415800Y-91640251D01*
X152415808Y-91640239D01*
X152415903Y-91640107D01*
X152453714Y-91580227D01*
X152484943Y-91523360D01*
X152509417Y-91470901D01*
X152526965Y-91424245D01*
X152537415Y-91384787D01*
X152540594Y-91353922D01*
X152537916Y-91340804D01*
X152539619Y-91332013D01*
X152542947Y-91328692D01*
X153543149Y-90670646D01*
X153551944Y-90668961D01*
X153559354Y-90673989D01*
G37*
%TD.AperFunction*%
%TD*%
%TA.AperFunction,Conductor*%
%TO.N,/BOOT0*%
G36*
X156868044Y-96107965D02*
G01*
X156869915Y-96109496D01*
X156874444Y-96114060D01*
X156875379Y-96114498D01*
X156875378Y-96114498D01*
X156894856Y-96123636D01*
X156894859Y-96123637D01*
X156895204Y-96123799D01*
X156926527Y-96133832D01*
X156926727Y-96133881D01*
X156926738Y-96133884D01*
X156955025Y-96140798D01*
X156967202Y-96143774D01*
X156991219Y-96148431D01*
X157015929Y-96153223D01*
X157015939Y-96153225D01*
X157016023Y-96153241D01*
X157071779Y-96161849D01*
X157071895Y-96161863D01*
X157071903Y-96161864D01*
X157133180Y-96169203D01*
X157133183Y-96169203D01*
X157133264Y-96169213D01*
X157178764Y-96173167D01*
X157199185Y-96174942D01*
X157199199Y-96174943D01*
X157199268Y-96174949D01*
X157199329Y-96174952D01*
X157199353Y-96174954D01*
X157268485Y-96178668D01*
X157268498Y-96178668D01*
X157268582Y-96178673D01*
X157268660Y-96178674D01*
X157268675Y-96178675D01*
X157328517Y-96179787D01*
X157336725Y-96183367D01*
X157340000Y-96191485D01*
X157340000Y-96468515D01*
X157336573Y-96476788D01*
X157328517Y-96480213D01*
X157268675Y-96481324D01*
X157268660Y-96481325D01*
X157268582Y-96481326D01*
X157268498Y-96481331D01*
X157268485Y-96481331D01*
X157199353Y-96485045D01*
X157199329Y-96485047D01*
X157199268Y-96485050D01*
X157199199Y-96485056D01*
X157199185Y-96485057D01*
X157178764Y-96486832D01*
X157133264Y-96490786D01*
X157133183Y-96490796D01*
X157133180Y-96490796D01*
X157071903Y-96498135D01*
X157071895Y-96498136D01*
X157071779Y-96498150D01*
X157016023Y-96506758D01*
X157015939Y-96506774D01*
X157015929Y-96506776D01*
X156991219Y-96511568D01*
X156967202Y-96516225D01*
X156955025Y-96519201D01*
X156926738Y-96526115D01*
X156926727Y-96526118D01*
X156926527Y-96526167D01*
X156895204Y-96536200D01*
X156894859Y-96536362D01*
X156894856Y-96536363D01*
X156889247Y-96538994D01*
X156874444Y-96545939D01*
X156873717Y-96546671D01*
X156873715Y-96546673D01*
X156869916Y-96550501D01*
X156861656Y-96553960D01*
X156859247Y-96553719D01*
X155830536Y-96341459D01*
X155823126Y-96336431D01*
X155821441Y-96327636D01*
X155826469Y-96320226D01*
X155830536Y-96318541D01*
X156039414Y-96275442D01*
X156859250Y-96106280D01*
X156868044Y-96107965D01*
G37*
%TD.AperFunction*%
%TD*%
%TA.AperFunction,Conductor*%
%TO.N,/PA13{slash}SWDIO*%
G36*
X130901885Y-98258286D02*
G01*
X130905215Y-98261609D01*
X130911938Y-98271782D01*
X130912596Y-98272777D01*
X130936670Y-98292354D01*
X130937065Y-98292584D01*
X130937070Y-98292587D01*
X130971703Y-98312717D01*
X130971709Y-98312720D01*
X130971960Y-98312866D01*
X131017359Y-98333449D01*
X131071759Y-98353237D01*
X131071932Y-98353287D01*
X131071937Y-98353289D01*
X131117532Y-98366558D01*
X131134053Y-98371366D01*
X131134224Y-98371405D01*
X131134237Y-98371408D01*
X131202949Y-98386930D01*
X131202953Y-98386931D01*
X131203131Y-98386971D01*
X131250380Y-98394693D01*
X131277708Y-98399159D01*
X131277716Y-98399160D01*
X131277887Y-98399188D01*
X131357212Y-98407153D01*
X131357391Y-98407159D01*
X131357403Y-98407160D01*
X131391440Y-98408330D01*
X131428703Y-98409612D01*
X131436853Y-98413320D01*
X131440000Y-98421304D01*
X131440000Y-98598695D01*
X131436573Y-98606968D01*
X131428702Y-98610388D01*
X131357403Y-98612839D01*
X131357391Y-98612840D01*
X131357212Y-98612846D01*
X131277887Y-98620811D01*
X131277716Y-98620839D01*
X131277708Y-98620840D01*
X131250380Y-98625306D01*
X131203131Y-98633028D01*
X131202953Y-98633068D01*
X131202949Y-98633069D01*
X131134237Y-98648591D01*
X131134224Y-98648594D01*
X131134053Y-98648633D01*
X131133878Y-98648684D01*
X131071937Y-98666710D01*
X131071932Y-98666712D01*
X131071759Y-98666762D01*
X131017359Y-98686550D01*
X130971960Y-98707133D01*
X130971709Y-98707279D01*
X130971703Y-98707282D01*
X130937070Y-98727412D01*
X130937065Y-98727415D01*
X130936670Y-98727645D01*
X130912596Y-98747222D01*
X130912106Y-98747964D01*
X130912103Y-98747967D01*
X130905216Y-98758390D01*
X130897796Y-98763403D01*
X130893091Y-98763399D01*
X129720536Y-98521459D01*
X129713126Y-98516431D01*
X129711441Y-98507636D01*
X129716469Y-98500226D01*
X129720536Y-98498541D01*
X130893090Y-98256601D01*
X130901885Y-98258286D01*
G37*
%TD.AperFunction*%
%TD*%
%TA.AperFunction,Conductor*%
%TO.N,/PA11*%
G36*
X138050985Y-90566341D02*
G01*
X138052764Y-90570366D01*
X138309074Y-91679996D01*
X138322213Y-91736880D01*
X138320736Y-91745712D01*
X138317460Y-91749141D01*
X138311138Y-91753506D01*
X138305990Y-91757060D01*
X138286337Y-91782091D01*
X138265876Y-91818588D01*
X138245439Y-91865418D01*
X138245376Y-91865598D01*
X138245371Y-91865611D01*
X138242692Y-91873279D01*
X138225860Y-91921449D01*
X138207972Y-91985549D01*
X138192609Y-92056586D01*
X138180604Y-92133428D01*
X138172789Y-92214943D01*
X138172784Y-92215104D01*
X138172783Y-92215115D01*
X138170371Y-92288683D01*
X138166675Y-92296840D01*
X138158677Y-92300000D01*
X137981307Y-92300000D01*
X137973034Y-92296573D01*
X137969614Y-92288699D01*
X137969614Y-92288683D01*
X137967151Y-92216540D01*
X137959178Y-92136509D01*
X137946941Y-92061047D01*
X137931301Y-91991296D01*
X137931259Y-91991150D01*
X137931255Y-91991135D01*
X137913173Y-91928591D01*
X137913117Y-91928397D01*
X137893249Y-91873491D01*
X137888817Y-91863686D01*
X137872687Y-91828003D01*
X137872682Y-91827993D01*
X137872558Y-91827719D01*
X137851903Y-91792223D01*
X137832145Y-91768143D01*
X137820751Y-91760850D01*
X137815632Y-91753506D01*
X137815549Y-91748904D01*
X137816328Y-91744625D01*
X138029854Y-90570906D01*
X138034706Y-90563380D01*
X138043459Y-90561489D01*
X138050985Y-90566341D01*
G37*
%TD.AperFunction*%
%TD*%
%TA.AperFunction,Conductor*%
%TO.N,/PA1*%
G36*
X163723720Y-90678485D02*
G01*
X163725259Y-90687307D01*
X163723508Y-90691344D01*
X163048956Y-91680572D01*
X163041464Y-91685475D01*
X163036853Y-91685422D01*
X163023428Y-91682562D01*
X162992165Y-91685816D01*
X162952156Y-91696607D01*
X162951878Y-91696713D01*
X162951873Y-91696715D01*
X162948215Y-91698115D01*
X162904818Y-91714722D01*
X162851566Y-91739948D01*
X162793814Y-91772073D01*
X162793697Y-91772148D01*
X162793688Y-91772153D01*
X162733100Y-91810806D01*
X162732978Y-91810884D01*
X162670473Y-91856167D01*
X162607715Y-91907712D01*
X162607588Y-91907831D01*
X162607582Y-91907836D01*
X162554382Y-91957577D01*
X162545998Y-91960724D01*
X162538118Y-91957304D01*
X162412704Y-91831890D01*
X162409277Y-91823617D01*
X162412438Y-91815618D01*
X162462997Y-91761646D01*
X162463001Y-91761641D01*
X162463111Y-91761524D01*
X162515478Y-91698115D01*
X162561572Y-91635050D01*
X162601172Y-91573725D01*
X162634055Y-91515537D01*
X162659999Y-91461882D01*
X162678781Y-91414155D01*
X162690178Y-91373754D01*
X162693967Y-91342075D01*
X162691387Y-91328301D01*
X162693232Y-91319538D01*
X162696619Y-91316268D01*
X163707573Y-90674874D01*
X163716395Y-90673335D01*
X163723720Y-90678485D01*
G37*
%TD.AperFunction*%
%TD*%
%TA.AperFunction,Conductor*%
%TO.N,/BOOT0*%
G36*
X156309407Y-96042692D02*
G01*
X156313504Y-96050654D01*
X156313036Y-96055030D01*
X156006292Y-97061367D01*
X156000865Y-97068137D01*
X155997453Y-97070069D01*
X155989235Y-97084756D01*
X155980635Y-97108743D01*
X155972014Y-97140872D01*
X155963732Y-97179991D01*
X155963710Y-97180123D01*
X155963708Y-97180132D01*
X155956165Y-97224840D01*
X155956162Y-97224864D01*
X155956148Y-97224944D01*
X155949623Y-97274576D01*
X155944517Y-97327732D01*
X155941189Y-97383258D01*
X155941186Y-97383393D01*
X155941186Y-97383397D01*
X155940240Y-97428545D01*
X155936641Y-97436745D01*
X155928543Y-97440000D01*
X155651680Y-97440000D01*
X155643407Y-97436573D01*
X155639980Y-97428321D01*
X155639847Y-97352472D01*
X155639847Y-97352399D01*
X155639325Y-97267867D01*
X155638795Y-97224944D01*
X155638332Y-97187471D01*
X155636770Y-97112567D01*
X155634539Y-97044438D01*
X155631540Y-96984368D01*
X155627674Y-96933641D01*
X155622840Y-96893540D01*
X155616941Y-96865349D01*
X155616651Y-96864734D01*
X155616648Y-96864724D01*
X155613084Y-96857159D01*
X155612658Y-96848214D01*
X155614741Y-96844610D01*
X156292917Y-96044056D01*
X156300879Y-96039959D01*
X156309407Y-96042692D01*
G37*
%TD.AperFunction*%
%TD*%
%TA.AperFunction,Conductor*%
%TO.N,/PB4*%
G36*
X143216959Y-107143427D02*
G01*
X143220379Y-107151307D01*
X143222821Y-107224227D01*
X143230720Y-107304970D01*
X143242849Y-107381092D01*
X143258360Y-107451458D01*
X143276407Y-107514931D01*
X143296141Y-107570376D01*
X143316715Y-107616656D01*
X143337281Y-107652636D01*
X143356992Y-107677180D01*
X143357744Y-107677680D01*
X143368423Y-107684780D01*
X143373415Y-107692214D01*
X143373404Y-107696887D01*
X143131459Y-108869464D01*
X143126431Y-108876874D01*
X143117636Y-108878559D01*
X143110226Y-108873531D01*
X143108541Y-108869464D01*
X142866596Y-107696886D01*
X142868281Y-107688091D01*
X142871577Y-107684779D01*
X142882255Y-107677680D01*
X142883007Y-107677180D01*
X142902718Y-107652636D01*
X142923284Y-107616656D01*
X142943858Y-107570376D01*
X142963592Y-107514931D01*
X142981639Y-107451458D01*
X142997150Y-107381092D01*
X143009279Y-107304970D01*
X143017178Y-107224227D01*
X143019621Y-107151308D01*
X143023323Y-107143154D01*
X143031314Y-107140000D01*
X143208686Y-107140000D01*
X143216959Y-107143427D01*
G37*
%TD.AperFunction*%
%TD*%
%TA.AperFunction,Conductor*%
%TO.N,/BOOT0*%
G36*
X155936816Y-95223427D02*
G01*
X155940240Y-95231455D01*
X155941189Y-95276741D01*
X155944517Y-95332267D01*
X155949623Y-95385423D01*
X155956148Y-95435055D01*
X155956162Y-95435135D01*
X155956165Y-95435159D01*
X155963708Y-95479867D01*
X155963732Y-95480008D01*
X155972014Y-95519127D01*
X155980635Y-95551256D01*
X155989235Y-95575243D01*
X155997453Y-95589930D01*
X156000868Y-95591864D01*
X156006291Y-95598631D01*
X156069763Y-95806862D01*
X156313036Y-96604970D01*
X156312170Y-96613882D01*
X156305255Y-96619573D01*
X156296343Y-96618707D01*
X156292917Y-96615944D01*
X155614741Y-95815390D01*
X155612008Y-95806862D01*
X155613083Y-95802842D01*
X155616651Y-95795265D01*
X155616941Y-95794650D01*
X155622840Y-95766459D01*
X155627674Y-95726358D01*
X155631540Y-95675631D01*
X155634539Y-95615561D01*
X155636770Y-95547432D01*
X155638332Y-95472528D01*
X155639325Y-95392132D01*
X155639367Y-95385423D01*
X155639847Y-95307528D01*
X155639847Y-95307527D01*
X155639980Y-95231679D01*
X155643421Y-95223412D01*
X155651680Y-95220000D01*
X155928543Y-95220000D01*
X155936816Y-95223427D01*
G37*
%TD.AperFunction*%
%TD*%
M02*
