%TF.GenerationSoftware,KiCad,Pcbnew,7.0.5*%
%TF.CreationDate,2023-07-04T16:10:45+08:00*%
%TF.ProjectId,UINIO-MCU-STM32L051K8,55494e49-4f2d-44d4-9355-2d53544d3332,Version 3.3.0*%
%TF.SameCoordinates,PXa305660PY5939cc0*%
%TF.FileFunction,Soldermask,Bot*%
%TF.FilePolarity,Negative*%
%FSLAX46Y46*%
G04 Gerber Fmt 4.6, Leading zero omitted, Abs format (unit mm)*
G04 Created by KiCad (PCBNEW 7.0.5) date 2023-07-04 16:10:45*
%MOMM*%
%LPD*%
G01*
G04 APERTURE LIST*
G04 Aperture macros list*
%AMRoundRect*
0 Rectangle with rounded corners*
0 $1 Rounding radius*
0 $2 $3 $4 $5 $6 $7 $8 $9 X,Y pos of 4 corners*
0 Add a 4 corners polygon primitive as box body*
4,1,4,$2,$3,$4,$5,$6,$7,$8,$9,$2,$3,0*
0 Add four circle primitives for the rounded corners*
1,1,$1+$1,$2,$3*
1,1,$1+$1,$4,$5*
1,1,$1+$1,$6,$7*
1,1,$1+$1,$8,$9*
0 Add four rect primitives between the rounded corners*
20,1,$1+$1,$2,$3,$4,$5,0*
20,1,$1+$1,$4,$5,$6,$7,0*
20,1,$1+$1,$6,$7,$8,$9,0*
20,1,$1+$1,$8,$9,$2,$3,0*%
G04 Aperture macros list end*
%ADD10C,1.200000*%
%ADD11R,1.700000X1.700000*%
%ADD12O,1.700000X1.700000*%
%ADD13O,1.800000X1.000000*%
%ADD14O,0.630000X2.250000*%
%ADD15RoundRect,0.140000X-0.170000X0.140000X-0.170000X-0.140000X0.170000X-0.140000X0.170000X0.140000X0*%
G04 APERTURE END LIST*
D10*
%TO.C,Hole3*%
X-43420000Y-2300000D03*
%TD*%
%TO.C,Hole1*%
X1090000Y-17980000D03*
%TD*%
D11*
%TO.C,J3*%
X1550000Y-13950000D03*
D12*
X1550000Y-11410000D03*
X1550000Y-8870000D03*
X1550000Y-6330000D03*
%TD*%
D13*
%TO.C,USB1*%
X-39620000Y-5830000D03*
X-39620000Y-14470000D03*
X-43420000Y-5830000D03*
X-43420000Y-14470000D03*
%TD*%
D10*
%TO.C,Hole2*%
X1090000Y-2300000D03*
%TD*%
%TO.C,Hole4*%
X-43420000Y-17980000D03*
%TD*%
D12*
%TO.C,J2*%
X-1330000Y-1340000D03*
X-3870000Y-1340000D03*
X-6410000Y-1340000D03*
X-8950000Y-1340000D03*
X-11490000Y-1340000D03*
X-14030000Y-1340000D03*
X-16570000Y-1340000D03*
X-19110000Y-1340000D03*
X-21650000Y-1340000D03*
X-24190000Y-1340000D03*
X-26730000Y-1340000D03*
X-29270000Y-1340000D03*
X-31810000Y-1340000D03*
D11*
X-34350000Y-1340000D03*
%TD*%
D14*
%TO.C,U2*%
X-30575000Y-6620000D03*
X-29305000Y-6620000D03*
X-28035000Y-6620000D03*
X-26765000Y-6620000D03*
X-26765000Y-13680000D03*
X-28035000Y-13680000D03*
X-29305000Y-13680000D03*
X-30575000Y-13680000D03*
%TD*%
D15*
%TO.C,C3*%
X-31910000Y-9670000D03*
X-31910000Y-10630000D03*
%TD*%
D11*
%TO.C,J1*%
X-34350000Y-18960000D03*
D12*
X-31810000Y-18960000D03*
X-29270000Y-18960000D03*
X-26730000Y-18960000D03*
X-24190000Y-18960000D03*
X-21650000Y-18960000D03*
X-19110000Y-18960000D03*
X-16570000Y-18960000D03*
X-14030000Y-18960000D03*
X-11490000Y-18960000D03*
X-8950000Y-18960000D03*
X-6410000Y-18960000D03*
X-3870000Y-18960000D03*
X-1330000Y-18960000D03*
%TD*%
M02*
