%TF.GenerationSoftware,KiCad,Pcbnew,(6.0.11)*%
%TF.CreationDate,2023-02-01T23:08:24+08:00*%
%TF.ProjectId,UINIO-MCU-STM32L051K8,55494e49-4f2d-44d4-9355-2d53544d3332,Version 3.2.0*%
%TF.SameCoordinates,PXa358680PY592b260*%
%TF.FileFunction,Copper,L2,Bot*%
%TF.FilePolarity,Positive*%
%FSLAX46Y46*%
G04 Gerber Fmt 4.6, Leading zero omitted, Abs format (unit mm)*
G04 Created by KiCad (PCBNEW (6.0.11)) date 2023-02-01 23:08:24*
%MOMM*%
%LPD*%
G01*
G04 APERTURE LIST*
G04 Aperture macros list*
%AMRoundRect*
0 Rectangle with rounded corners*
0 $1 Rounding radius*
0 $2 $3 $4 $5 $6 $7 $8 $9 X,Y pos of 4 corners*
0 Add a 4 corners polygon primitive as box body*
4,1,4,$2,$3,$4,$5,$6,$7,$8,$9,$2,$3,0*
0 Add four circle primitives for the rounded corners*
1,1,$1+$1,$2,$3*
1,1,$1+$1,$4,$5*
1,1,$1+$1,$6,$7*
1,1,$1+$1,$8,$9*
0 Add four rect primitives between the rounded corners*
20,1,$1+$1,$2,$3,$4,$5,0*
20,1,$1+$1,$4,$5,$6,$7,0*
20,1,$1+$1,$6,$7,$8,$9,0*
20,1,$1+$1,$8,$9,$2,$3,0*%
G04 Aperture macros list end*
%TA.AperFunction,ComponentPad*%
%ADD10C,1.200000*%
%TD*%
%TA.AperFunction,ComponentPad*%
%ADD11R,1.700000X1.700000*%
%TD*%
%TA.AperFunction,ComponentPad*%
%ADD12O,1.700000X1.700000*%
%TD*%
%TA.AperFunction,ComponentPad*%
%ADD13O,1.800000X1.000000*%
%TD*%
%TA.AperFunction,SMDPad,CuDef*%
%ADD14O,0.630000X2.250000*%
%TD*%
%TA.AperFunction,SMDPad,CuDef*%
%ADD15RoundRect,0.140000X-0.170000X0.140000X-0.170000X-0.140000X0.170000X-0.140000X0.170000X0.140000X0*%
%TD*%
%TA.AperFunction,ViaPad*%
%ADD16C,0.700000*%
%TD*%
%TA.AperFunction,ViaPad*%
%ADD17C,0.500000*%
%TD*%
%TA.AperFunction,ViaPad*%
%ADD18C,0.900000*%
%TD*%
%TA.AperFunction,Conductor*%
%ADD19C,0.300000*%
%TD*%
%TA.AperFunction,Conductor*%
%ADD20C,0.200000*%
%TD*%
%TA.AperFunction,Conductor*%
%ADD21C,0.500000*%
%TD*%
%TA.AperFunction,Conductor*%
%ADD22C,0.400000*%
%TD*%
G04 APERTURE END LIST*
D10*
%TO.P,Hole3,*%
%TO.N,*%
X-43740000Y-2350000D03*
%TD*%
%TO.P,Hole1,*%
%TO.N,*%
X770000Y-18170000D03*
%TD*%
D11*
%TO.P,J3,1,Pin_1*%
%TO.N,/VDD_3.3V*%
X1210000Y-14010000D03*
D12*
%TO.P,J3,2,Pin_2*%
%TO.N,/PA13{slash}SWDIO*%
X1210000Y-11470000D03*
%TO.P,J3,3,Pin_3*%
%TO.N,/PA14{slash}SWCLK*%
X1210000Y-8930000D03*
%TO.P,J3,4,Pin_4*%
%TO.N,GND*%
X1210000Y-6390000D03*
%TD*%
D13*
%TO.P,USB1,1,GND*%
%TO.N,GND*%
X-39960000Y-5930000D03*
%TO.P,USB1,2,GND*%
X-39960000Y-14570000D03*
%TO.P,USB1,3,GND*%
X-43760000Y-5930000D03*
%TO.P,USB1,4,GND*%
X-43760000Y-14570000D03*
%TD*%
D10*
%TO.P,Hole2,*%
%TO.N,*%
X740000Y-2360000D03*
%TD*%
%TO.P,Hole4,*%
%TO.N,*%
X-43740000Y-18170000D03*
%TD*%
D11*
%TO.P,J2,1,Pin_1*%
%TO.N,/VDD_5V*%
X-34680000Y-1480000D03*
D12*
%TO.P,J2,2,Pin_2*%
%TO.N,GND*%
X-32140000Y-1480000D03*
%TO.P,J2,3,Pin_3*%
%TO.N,/VDD_3.3V*%
X-29600000Y-1480000D03*
%TO.P,J2,4,Pin_4*%
%TO.N,GND*%
X-27060000Y-1480000D03*
%TO.P,J2,5,Pin_5*%
%TO.N,/NRST*%
X-24520000Y-1480000D03*
%TO.P,J2,6,Pin_6*%
%TO.N,/PB8*%
X-21980000Y-1480000D03*
%TO.P,J2,7,Pin_7*%
%TO.N,/PB7*%
X-19440000Y-1480000D03*
%TO.P,J2,8,Pin_8*%
%TO.N,/PB6*%
X-16900000Y-1480000D03*
%TO.P,J2,9,Pin_9*%
%TO.N,/PB5*%
X-14360000Y-1480000D03*
%TO.P,J2,10,Pin_10*%
%TO.N,/PB4*%
X-11820000Y-1480000D03*
%TO.P,J2,11,Pin_11*%
%TO.N,/PB3*%
X-9280000Y-1480000D03*
%TO.P,J2,12,Pin_12*%
%TO.N,/PB2*%
X-6740000Y-1480000D03*
%TO.P,J2,13,Pin_13*%
%TO.N,/PB1*%
X-4200000Y-1480000D03*
%TO.P,J2,14,Pin_14*%
%TO.N,/PB0*%
X-1660000Y-1480000D03*
%TD*%
D14*
%TO.P,U2,1,CS#*%
%TO.N,/PA4{slash}CS*%
X-30915000Y-6770000D03*
%TO.P,U2,2,DO(IO1)*%
%TO.N,/PA6{slash}MISO*%
X-29645000Y-6770000D03*
%TO.P,U2,3,WP#(IO2)*%
%TO.N,GND*%
X-28375000Y-6770000D03*
%TO.P,U2,4,GND*%
X-27105000Y-6770000D03*
%TO.P,U2,5,DI(IO0)*%
%TO.N,/PA7{slash}MOSI*%
X-27105000Y-13830000D03*
%TO.P,U2,6,CLK*%
%TO.N,/PA5{slash}SCLK*%
X-28375000Y-13830000D03*
%TO.P,U2,7,HOLD#/RESET#/(IO3)*%
%TO.N,GND*%
X-29645000Y-13830000D03*
%TO.P,U2,8,VCC*%
%TO.N,/VDD_3.3V*%
X-30915000Y-13830000D03*
%TD*%
D15*
%TO.P,C3,1*%
%TO.N,GND*%
X-32630000Y-9850000D03*
%TO.P,C3,2*%
%TO.N,/VDD_3.3V*%
X-32630000Y-10810000D03*
%TD*%
D11*
%TO.P,J1,1,Pin_1*%
%TO.N,/PA0*%
X-34690000Y-19040000D03*
D12*
%TO.P,J1,2,Pin_2*%
%TO.N,/PA1*%
X-32150000Y-19040000D03*
%TO.P,J1,3,Pin_3*%
%TO.N,/PA2*%
X-29610000Y-19040000D03*
%TO.P,J1,4,Pin_4*%
%TO.N,/PA3*%
X-27070000Y-19040000D03*
%TO.P,J1,5,Pin_5*%
%TO.N,/PA4{slash}CS*%
X-24530000Y-19040000D03*
%TO.P,J1,6,Pin_6*%
%TO.N,/PA5{slash}SCLK*%
X-21990000Y-19040000D03*
%TO.P,J1,7,Pin_7*%
%TO.N,/PA6{slash}MISO*%
X-19450000Y-19040000D03*
%TO.P,J1,8,Pin_8*%
%TO.N,/PA7{slash}MOSI*%
X-16910000Y-19040000D03*
%TO.P,J1,9,Pin_9*%
%TO.N,/PA8*%
X-14370000Y-19040000D03*
%TO.P,J1,10,Pin_10*%
%TO.N,/PA9*%
X-11830000Y-19040000D03*
%TO.P,J1,11,Pin_11*%
%TO.N,/PA10*%
X-9290000Y-19040000D03*
%TO.P,J1,12,Pin_12*%
%TO.N,/PA11*%
X-6750000Y-19040000D03*
%TO.P,J1,13,Pin_13*%
%TO.N,/PA12*%
X-4210000Y-19040000D03*
%TO.P,J1,14,Pin_14*%
%TO.N,/PA15*%
X-1670000Y-19040000D03*
%TD*%
D16*
%TO.N,/VDD_3.3V*%
X-41960000Y-880000D03*
X-36497000Y-16133000D03*
D17*
%TO.N,GND*%
X-35590000Y-16610000D03*
D18*
X-13820000Y-16380000D03*
D17*
X-5730000Y-16990000D03*
X-3770000Y-10080000D03*
X-260000Y-16520000D03*
D18*
X-8550000Y-6390000D03*
X-30630000Y-10300000D03*
D17*
X-16105837Y-7630500D03*
X-10160000Y-16240000D03*
D18*
X-19740000Y-12560000D03*
D17*
X-33690000Y-3550000D03*
X-2740000Y-16510000D03*
X-8120000Y-16250000D03*
D16*
X-32220000Y-8110000D03*
D18*
X-36520000Y-1360000D03*
D17*
X-12940000Y-10810000D03*
X-10510000Y-3430000D03*
X-12520000Y-10370000D03*
X-11630000Y-9480000D03*
X-12040000Y-9940000D03*
D18*
X-13670000Y-4050000D03*
D17*
X-14070000Y-5790000D03*
X-13390000Y-11240000D03*
D18*
X-8570000Y-3980000D03*
D17*
X-10170000Y-14720000D03*
%TO.N,/VDD_3.3V*%
X-20030000Y-15440000D03*
D16*
X-23330000Y-4880500D03*
D18*
X-33912000Y-12418000D03*
X-12400000Y-16380000D03*
D16*
X-25610000Y-4900000D03*
D17*
%TO.N,/BOOT0*%
X-11057647Y-6590000D03*
X-24500000Y-14890000D03*
%TO.N,/NRST*%
X-14850000Y-7630500D03*
X-24480000Y-5590000D03*
%TO.N,/PA4{slash}CS*%
X-22190000Y-12460000D03*
X-20130000Y-14490000D03*
X-16229500Y-14490023D03*
%TO.N,/PA15*%
X-4600000Y-14850000D03*
X-1660000Y-14850000D03*
X-4620000Y-7480000D03*
%TO.N,/PB0*%
X-14210000Y-13400000D03*
%TO.N,/PB1*%
X-14210000Y-14160000D03*
%TO.N,/PB2*%
X-14220000Y-14910000D03*
%TD*%
D19*
%TO.N,/VDD_3.3V*%
X-3940000Y-15440000D02*
X-12470000Y-15440000D01*
X-2510000Y-14010000D02*
X-3940000Y-15440000D01*
X1210000Y-14010000D02*
X-2510000Y-14010000D01*
D20*
%TO.N,/PA15*%
X-4610000Y-7490000D02*
X-4620000Y-7480000D01*
X-4600000Y-14850000D02*
X-4610000Y-14840000D01*
X-4610000Y-14840000D02*
X-4610000Y-7490000D01*
D19*
%TO.N,GND*%
X-35590000Y-12340000D02*
X-35625000Y-12305000D01*
X-35590000Y-16610000D02*
X-35590000Y-12340000D01*
D21*
X-33170000Y-9850000D02*
X-35625000Y-12305000D01*
X-35625000Y-12305000D02*
X-37655000Y-14335000D01*
D19*
%TO.N,/VDD_3.3V*%
X-41960000Y-15340000D02*
X-41960000Y-880000D01*
X-36504000Y-16140000D02*
X-41160000Y-16140000D01*
X-41160000Y-16140000D02*
X-41960000Y-15340000D01*
X-36497000Y-16133000D02*
X-36504000Y-16140000D01*
%TO.N,GND*%
X-31890000Y-3420000D02*
X-31890000Y-1880000D01*
X-30990000Y-4020000D02*
X-27310000Y-4020000D01*
X-21230000Y-15710000D02*
X-21230000Y-14050000D01*
X-13700000Y-4020000D02*
X-26780000Y-4020000D01*
D21*
X-39960000Y-4800000D02*
X-39960000Y-5930000D01*
D19*
X-20540000Y-16400000D02*
X-21230000Y-15710000D01*
X-13840000Y-16400000D02*
X-20540000Y-16400000D01*
D21*
X-32220000Y-8710000D02*
X-30630000Y-10300000D01*
D19*
X-28375000Y-6770000D02*
X-28375000Y-5275000D01*
D21*
X-32220000Y-8110000D02*
X-32220000Y-8710000D01*
D22*
X-13390000Y-11240000D02*
X-11630000Y-9480000D01*
D19*
X-27105000Y-5265000D02*
X-27930000Y-4440000D01*
D22*
X-30610000Y-10300000D02*
X-30630000Y-10300000D01*
D19*
X-27130000Y-4020000D02*
X-27060000Y-3950000D01*
D21*
X-32630000Y-9850000D02*
X-31080000Y-9850000D01*
D20*
X-6470000Y-16250000D02*
X-8120000Y-16250000D01*
D19*
X-30440000Y-4870000D02*
X-32030000Y-3280000D01*
D21*
X-34850000Y-5870000D02*
X-32260000Y-3280000D01*
D19*
X-30870000Y-4440000D02*
X-31890000Y-3420000D01*
D21*
X-31080000Y-9850000D02*
X-30630000Y-10300000D01*
D19*
X-27060000Y-3950000D02*
X-27060000Y-1480000D01*
X-13610000Y-3990000D02*
X-13670000Y-4050000D01*
D22*
X-29645000Y-13830000D02*
X-29645000Y-11265000D01*
X-29645000Y-11265000D02*
X-30610000Y-10300000D01*
X-8550000Y-6390000D02*
X-8550000Y-6400000D01*
D21*
X-37655000Y-14335000D02*
X-37890000Y-14570000D01*
D19*
X-8570000Y-3980000D02*
X-8580000Y-3990000D01*
X-32030000Y-3280000D02*
X-32030000Y-1480000D01*
D21*
X-39110000Y-5870000D02*
X-34850000Y-5870000D01*
D20*
X-5730000Y-16990000D02*
X-6470000Y-16250000D01*
D19*
X-13820000Y-16380000D02*
X-13840000Y-16400000D01*
X-8580000Y-3990000D02*
X-13610000Y-3990000D01*
D21*
X-36520000Y-1360000D02*
X-39960000Y-4800000D01*
X-32260000Y-3280000D02*
X-32260000Y-1600000D01*
X-37890000Y-14570000D02*
X-39960000Y-14570000D01*
D19*
X-27930000Y-4440000D02*
X-30870000Y-4440000D01*
X-27130000Y-4020000D02*
X-27310000Y-4020000D01*
X-26780000Y-4020000D02*
X-27130000Y-4020000D01*
X-32140000Y-1720000D02*
X-32140000Y-2870000D01*
X-27105000Y-6770000D02*
X-27105000Y-5265000D01*
X-13670000Y-4050000D02*
X-13700000Y-4020000D01*
X-28780000Y-4870000D02*
X-30440000Y-4870000D01*
X-28375000Y-5275000D02*
X-28780000Y-4870000D01*
X-32140000Y-2870000D02*
X-30990000Y-4020000D01*
D22*
X-8550000Y-6400000D02*
X-11630000Y-9480000D01*
D21*
X-32630000Y-9850000D02*
X-33170000Y-9850000D01*
D19*
X-21230000Y-14050000D02*
X-19740000Y-12560000D01*
%TO.N,/VDD_3.3V*%
X-32630000Y-10810000D02*
X-31330000Y-10810000D01*
X-12400000Y-16380000D02*
X-12400000Y-15510000D01*
X-25590500Y-4880500D02*
X-25610000Y-4900000D01*
X-30915000Y-11225000D02*
X-30915000Y-13830000D01*
X-12400000Y-15510000D02*
X-12470000Y-15440000D01*
X-31330000Y-10810000D02*
X-30915000Y-11225000D01*
X-32630000Y-10810000D02*
X-33110000Y-10810000D01*
X-33110000Y-10810000D02*
X-33912000Y-11612000D01*
X-23330000Y-4880500D02*
X-25590500Y-4880500D01*
X-33912000Y-11612000D02*
X-33912000Y-12418000D01*
X-20030000Y-15440000D02*
X-12470000Y-15440000D01*
D20*
%TO.N,/BOOT0*%
X-23020000Y-14890000D02*
X-18740000Y-10610000D01*
X-18725026Y-10610000D02*
X-16195026Y-8080000D01*
X-18740000Y-10610000D02*
X-18725026Y-10610000D01*
X-12547647Y-8080000D02*
X-11057647Y-6590000D01*
X-24500000Y-14890000D02*
X-23020000Y-14890000D01*
X-16195026Y-8080000D02*
X-12547647Y-8080000D01*
%TO.N,/NRST*%
X-24480000Y-5590000D02*
X-15700000Y-5590000D01*
X-14850000Y-6440000D02*
X-14850000Y-7630500D01*
X-15700000Y-5590000D02*
X-14850000Y-6440000D01*
%TO.N,/PA4{slash}CS*%
X-29140000Y-5280000D02*
X-30820000Y-5280000D01*
X-30955000Y-5415000D02*
X-30955000Y-6425000D01*
X-26300000Y-12460000D02*
X-29010000Y-9750000D01*
X-29010000Y-9750000D02*
X-29010000Y-5410000D01*
X-29010000Y-5410000D02*
X-29140000Y-5280000D01*
X-30820000Y-5280000D02*
X-30955000Y-5415000D01*
X-16229523Y-14490000D02*
X-16229500Y-14490023D01*
X-22190000Y-12460000D02*
X-26300000Y-12460000D01*
X-20130000Y-14490000D02*
X-16229523Y-14490000D01*
D19*
%TO.N,/PA5{slash}SCLK*%
X-28375000Y-16115000D02*
X-26670000Y-17820000D01*
X-23210000Y-17820000D02*
X-21990000Y-19040000D01*
X-26670000Y-17820000D02*
X-23210000Y-17820000D01*
X-28375000Y-13830000D02*
X-28375000Y-16115000D01*
%TO.N,/PA6{slash}MISO*%
X-29050000Y-10600000D02*
X-29050000Y-16340000D01*
X-28370000Y-17020000D02*
X-28370000Y-19430000D01*
X-29685000Y-6810000D02*
X-29685000Y-9965000D01*
X-20550000Y-20140000D02*
X-19450000Y-19040000D01*
X-27660000Y-20140000D02*
X-20550000Y-20140000D01*
X-28370000Y-19430000D02*
X-27660000Y-20140000D01*
X-29685000Y-9965000D02*
X-29050000Y-10600000D01*
X-29050000Y-16340000D02*
X-28370000Y-17020000D01*
%TO.N,/PA7{slash}MOSI*%
X-18660000Y-17290000D02*
X-16910000Y-19040000D01*
X-27105000Y-13830000D02*
X-27105000Y-16445000D01*
X-27105000Y-16445000D02*
X-26260000Y-17290000D01*
X-26260000Y-17290000D02*
X-18660000Y-17290000D01*
D20*
%TO.N,/PA15*%
X-1660000Y-14850000D02*
X-1670000Y-14860000D01*
X-1670000Y-14860000D02*
X-1670000Y-19040000D01*
%TO.N,/PB0*%
X-14210000Y-13400000D02*
X-14210000Y-13390000D01*
X-14210000Y-13390000D02*
X-2300000Y-1480000D01*
%TO.N,/PB1*%
X-14860000Y-14160000D02*
X-15200000Y-13820000D01*
X-15200000Y-12060000D02*
X-4510000Y-1370000D01*
X-14210000Y-14160000D02*
X-14860000Y-14160000D01*
X-15200000Y-13820000D02*
X-15200000Y-12060000D01*
%TO.N,/PB2*%
X-6740000Y-3175736D02*
X-6740000Y-1480000D01*
X-14710708Y-14910000D02*
X-15590000Y-14030708D01*
X-15590000Y-14030708D02*
X-15590000Y-12025736D01*
X-14220000Y-14910000D02*
X-14710708Y-14910000D01*
X-15590000Y-12025736D02*
X-6740000Y-3175736D01*
%TD*%
%TA.AperFunction,Conductor*%
%TO.N,/VDD_3.3V*%
G36*
X481995Y-13587971D02*
G01*
X1604983Y-13999013D01*
X1611574Y-14005075D01*
X1611948Y-14014022D01*
X1605886Y-14020613D01*
X1604983Y-14020987D01*
X481995Y-14432029D01*
X473048Y-14431655D01*
X468654Y-14428117D01*
X437252Y-14386754D01*
X437251Y-14386753D01*
X436879Y-14386263D01*
X436414Y-14385863D01*
X436411Y-14385860D01*
X385243Y-14341858D01*
X384886Y-14341551D01*
X318656Y-14301126D01*
X238946Y-14265245D01*
X146513Y-14234171D01*
X146294Y-14234116D01*
X146289Y-14234115D01*
X112989Y-14225819D01*
X42114Y-14208163D01*
X27675Y-14205580D01*
X-73334Y-14187510D01*
X-73349Y-14187508D01*
X-73493Y-14187482D01*
X-73643Y-14187464D01*
X-73650Y-14187463D01*
X-199391Y-14172406D01*
X-199406Y-14172405D01*
X-199553Y-14172387D01*
X-335308Y-14163140D01*
X-335458Y-14163137D01*
X-335474Y-14163136D01*
X-468554Y-14160248D01*
X-476751Y-14156643D01*
X-480000Y-14148551D01*
X-480000Y-13871449D01*
X-476573Y-13863176D01*
X-468554Y-13859752D01*
X-335474Y-13856863D01*
X-335458Y-13856862D01*
X-335308Y-13856859D01*
X-199553Y-13847612D01*
X-199406Y-13847594D01*
X-199391Y-13847593D01*
X-73650Y-13832536D01*
X-73643Y-13832535D01*
X-73493Y-13832517D01*
X-73349Y-13832491D01*
X-73334Y-13832489D01*
X41918Y-13811871D01*
X41916Y-13811871D01*
X42114Y-13811836D01*
X112989Y-13794180D01*
X146289Y-13785884D01*
X146294Y-13785883D01*
X146513Y-13785828D01*
X238946Y-13754754D01*
X318656Y-13718873D01*
X384886Y-13678448D01*
X385243Y-13678141D01*
X436411Y-13634139D01*
X436414Y-13634136D01*
X436879Y-13633736D01*
X452975Y-13612534D01*
X468654Y-13591883D01*
X476386Y-13587366D01*
X481995Y-13587971D01*
G37*
%TD.AperFunction*%
%TD*%
%TA.AperFunction,Conductor*%
%TO.N,/PA15*%
G36*
X-4513377Y-14353427D02*
G01*
X-4509950Y-14361649D01*
X-4509823Y-14391518D01*
X-4509253Y-14431682D01*
X-4508234Y-14469861D01*
X-4506709Y-14505427D01*
X-4504621Y-14537750D01*
X-4501914Y-14566199D01*
X-4501899Y-14566304D01*
X-4501898Y-14566314D01*
X-4500908Y-14573315D01*
X-4498530Y-14590145D01*
X-4494414Y-14608959D01*
X-4494269Y-14609344D01*
X-4494269Y-14609345D01*
X-4491168Y-14617592D01*
X-4489507Y-14622011D01*
X-4488832Y-14622792D01*
X-4488049Y-14623699D01*
X-4485234Y-14632200D01*
X-4485764Y-14634926D01*
X-4585225Y-14944467D01*
X-4591018Y-14951295D01*
X-4599943Y-14952027D01*
X-4606771Y-14946234D01*
X-4607182Y-14945345D01*
X-4730982Y-14644902D01*
X-4730965Y-14635948D01*
X-4729441Y-14633316D01*
X-4728526Y-14632125D01*
X-4728525Y-14632123D01*
X-4727936Y-14631357D01*
X-4723269Y-14617592D01*
X-4719468Y-14597995D01*
X-4716449Y-14573189D01*
X-4715905Y-14566314D01*
X-4714126Y-14543800D01*
X-4714124Y-14543764D01*
X-4712415Y-14510454D01*
X-4711232Y-14473776D01*
X-4710491Y-14434390D01*
X-4710109Y-14392923D01*
X-4710030Y-14361670D01*
X-4706582Y-14353406D01*
X-4698330Y-14350000D01*
X-4521650Y-14350000D01*
X-4513377Y-14353427D01*
G37*
%TD.AperFunction*%
%TD*%
%TA.AperFunction,Conductor*%
%TO.N,/PA15*%
G36*
X-4613229Y-7383766D02*
G01*
X-4612818Y-7384655D01*
X-4489018Y-7685098D01*
X-4489035Y-7694052D01*
X-4490561Y-7696687D01*
X-4492065Y-7698642D01*
X-4492376Y-7699559D01*
X-4494661Y-7706300D01*
X-4496732Y-7712407D01*
X-4500533Y-7732004D01*
X-4503552Y-7756810D01*
X-4503560Y-7756915D01*
X-4503561Y-7756922D01*
X-4504689Y-7771190D01*
X-4505875Y-7786199D01*
X-4505876Y-7786227D01*
X-4505877Y-7786235D01*
X-4507586Y-7819545D01*
X-4508769Y-7856223D01*
X-4509510Y-7895609D01*
X-4509892Y-7937076D01*
X-4509892Y-7937077D01*
X-4509971Y-7968330D01*
X-4513419Y-7976594D01*
X-4521671Y-7980000D01*
X-4698350Y-7980000D01*
X-4706623Y-7976573D01*
X-4710050Y-7968350D01*
X-4710178Y-7938481D01*
X-4710747Y-7898391D01*
X-4710748Y-7898317D01*
X-4711767Y-7860138D01*
X-4713292Y-7824572D01*
X-4715380Y-7792249D01*
X-4718087Y-7763800D01*
X-4719059Y-7756922D01*
X-4721441Y-7740063D01*
X-4721443Y-7740051D01*
X-4721471Y-7739854D01*
X-4725587Y-7721040D01*
X-4728687Y-7712795D01*
X-4730131Y-7708953D01*
X-4730132Y-7708952D01*
X-4730494Y-7707988D01*
X-4731167Y-7707209D01*
X-4731168Y-7707207D01*
X-4731952Y-7706300D01*
X-4734766Y-7697799D01*
X-4734236Y-7695074D01*
X-4634775Y-7385533D01*
X-4628982Y-7378705D01*
X-4620057Y-7377973D01*
X-4613229Y-7383766D01*
G37*
%TD.AperFunction*%
%TD*%
%TA.AperFunction,Conductor*%
%TO.N,/VDD_3.3V*%
G36*
X-41949387Y-734114D02*
G01*
X-41949013Y-735017D01*
X-41787062Y-1177476D01*
X-41787436Y-1186423D01*
X-41788369Y-1188069D01*
X-41790258Y-1190851D01*
X-41790260Y-1190856D01*
X-41790800Y-1191651D01*
X-41795659Y-1209387D01*
X-41799655Y-1235382D01*
X-41802866Y-1268699D01*
X-41802870Y-1268765D01*
X-41805370Y-1308403D01*
X-41807244Y-1353560D01*
X-41807247Y-1353654D01*
X-41808567Y-1403233D01*
X-41809415Y-1456488D01*
X-41809867Y-1512388D01*
X-41809973Y-1558327D01*
X-41813419Y-1566592D01*
X-41821673Y-1570000D01*
X-42098327Y-1570000D01*
X-42106600Y-1566573D01*
X-42110027Y-1558327D01*
X-42110134Y-1512388D01*
X-42110586Y-1456488D01*
X-42111434Y-1403233D01*
X-42112757Y-1353560D01*
X-42114631Y-1308403D01*
X-42117131Y-1268765D01*
X-42117135Y-1268699D01*
X-42120346Y-1235382D01*
X-42124342Y-1209387D01*
X-42129201Y-1191651D01*
X-42131632Y-1188069D01*
X-42133444Y-1179301D01*
X-42132939Y-1177477D01*
X-41970987Y-735017D01*
X-41964925Y-728426D01*
X-41955978Y-728052D01*
X-41949387Y-734114D01*
G37*
%TD.AperFunction*%
%TD*%
%TA.AperFunction,Conductor*%
%TO.N,/VDD_3.3V*%
G36*
X-36797964Y-15966076D02*
G01*
X-36352268Y-16119092D01*
X-36345557Y-16125019D01*
X-36345002Y-16133956D01*
X-36350930Y-16140668D01*
X-36351826Y-16141061D01*
X-36790887Y-16311886D01*
X-36799839Y-16311692D01*
X-36801557Y-16310758D01*
X-36805400Y-16308227D01*
X-36806312Y-16307986D01*
X-36806314Y-16307985D01*
X-36814357Y-16305860D01*
X-36823686Y-16303394D01*
X-36824003Y-16303348D01*
X-36824011Y-16303346D01*
X-36850284Y-16299503D01*
X-36850286Y-16299503D01*
X-36850421Y-16299483D01*
X-36850544Y-16299472D01*
X-36850560Y-16299470D01*
X-36884563Y-16296408D01*
X-36884564Y-16296408D01*
X-36884652Y-16296400D01*
X-36884731Y-16296395D01*
X-36884737Y-16296395D01*
X-36892925Y-16295923D01*
X-36925423Y-16294051D01*
X-36971781Y-16292341D01*
X-37022772Y-16291175D01*
X-37077442Y-16290459D01*
X-37134836Y-16290099D01*
X-37182320Y-16290020D01*
X-37190587Y-16286579D01*
X-37194000Y-16278320D01*
X-37194000Y-16001671D01*
X-37190573Y-15993398D01*
X-37182329Y-15989971D01*
X-37135847Y-15989854D01*
X-37079403Y-15989367D01*
X-37025622Y-15988464D01*
X-37025569Y-15988463D01*
X-36975508Y-15987071D01*
X-36975480Y-15987070D01*
X-36975453Y-15987069D01*
X-36929848Y-15985107D01*
X-36908467Y-15983718D01*
X-36889863Y-15982509D01*
X-36889853Y-15982508D01*
X-36889758Y-15982502D01*
X-36889661Y-15982492D01*
X-36889656Y-15982492D01*
X-36856302Y-15979196D01*
X-36856285Y-15979194D01*
X-36856135Y-15979179D01*
X-36855981Y-15979155D01*
X-36855967Y-15979153D01*
X-36830272Y-15975117D01*
X-36830267Y-15975116D01*
X-36829930Y-15975063D01*
X-36812093Y-15970078D01*
X-36811287Y-15969517D01*
X-36811285Y-15969516D01*
X-36808446Y-15967539D01*
X-36799699Y-15965625D01*
X-36797964Y-15966076D01*
G37*
%TD.AperFunction*%
%TD*%
%TA.AperFunction,Conductor*%
%TO.N,/VDD_3.3V*%
G36*
X-23627481Y-4707560D02*
G01*
X-23189812Y-4867758D01*
X-23185017Y-4869513D01*
X-23178426Y-4875575D01*
X-23178052Y-4884522D01*
X-23184114Y-4891113D01*
X-23185017Y-4891487D01*
X-23627477Y-5053439D01*
X-23636424Y-5053065D01*
X-23638061Y-5052137D01*
X-23641652Y-5049700D01*
X-23659388Y-5044841D01*
X-23665729Y-5043866D01*
X-23685205Y-5040872D01*
X-23685217Y-5040871D01*
X-23685383Y-5040845D01*
X-23718700Y-5037634D01*
X-23736606Y-5036505D01*
X-23758385Y-5035131D01*
X-23758400Y-5035130D01*
X-23758410Y-5035130D01*
X-23758425Y-5035129D01*
X-23768933Y-5034693D01*
X-23803561Y-5033256D01*
X-23803584Y-5033255D01*
X-23803593Y-5033255D01*
X-23833853Y-5032449D01*
X-23853234Y-5031933D01*
X-23906489Y-5031085D01*
X-23962389Y-5030633D01*
X-24008327Y-5030527D01*
X-24016592Y-5027081D01*
X-24020000Y-5018827D01*
X-24020000Y-4742173D01*
X-24016573Y-4733900D01*
X-24008327Y-4730473D01*
X-23962389Y-4730366D01*
X-23906489Y-4729914D01*
X-23853234Y-4729066D01*
X-23833853Y-4728550D01*
X-23803593Y-4727744D01*
X-23803584Y-4727744D01*
X-23803561Y-4727743D01*
X-23768933Y-4726306D01*
X-23758425Y-4725870D01*
X-23758410Y-4725869D01*
X-23758400Y-4725869D01*
X-23758385Y-4725868D01*
X-23736606Y-4724494D01*
X-23718700Y-4723365D01*
X-23685383Y-4720154D01*
X-23685217Y-4720128D01*
X-23685205Y-4720127D01*
X-23665729Y-4717133D01*
X-23659388Y-4716158D01*
X-23641652Y-4711299D01*
X-23640857Y-4710759D01*
X-23640854Y-4710758D01*
X-23638069Y-4708867D01*
X-23629299Y-4707056D01*
X-23627481Y-4707560D01*
G37*
%TD.AperFunction*%
%TD*%
%TA.AperFunction,Conductor*%
%TO.N,/VDD_3.3V*%
G36*
X-12307841Y-15391960D02*
G01*
X-12306989Y-15392911D01*
X-12260261Y-15451271D01*
X-12258918Y-15453375D01*
X-12222880Y-15525855D01*
X-12222106Y-15527851D01*
X-12200647Y-15602999D01*
X-12200303Y-15604643D01*
X-12190103Y-15679996D01*
X-12190003Y-15681201D01*
X-12187730Y-15754185D01*
X-12187731Y-15754939D01*
X-12189998Y-15822920D01*
X-12190009Y-15823181D01*
X-12193265Y-15881573D01*
X-12193374Y-15883533D01*
X-12194332Y-15933300D01*
X-12189375Y-15969759D01*
X-12188572Y-15970906D01*
X-12178501Y-15985289D01*
X-12176563Y-15994032D01*
X-12177098Y-15996022D01*
X-12389013Y-16574983D01*
X-12395075Y-16581574D01*
X-12404022Y-16581948D01*
X-12410613Y-16575886D01*
X-12410987Y-16574983D01*
X-12622053Y-15998341D01*
X-12621679Y-15989394D01*
X-12618211Y-15985054D01*
X-12607967Y-15977154D01*
X-12607661Y-15976918D01*
X-12584080Y-15953212D01*
X-12557228Y-15920866D01*
X-12530078Y-15881573D01*
X-12505599Y-15837028D01*
X-12486764Y-15788927D01*
X-12476543Y-15738964D01*
X-12477908Y-15688834D01*
X-12493830Y-15640232D01*
X-12521309Y-15602951D01*
X-12523459Y-15594259D01*
X-12520164Y-15587737D01*
X-12324387Y-15391960D01*
X-12316114Y-15388533D01*
X-12307841Y-15391960D01*
G37*
%TD.AperFunction*%
%TD*%
%TA.AperFunction,Conductor*%
%TO.N,/VDD_3.3V*%
G36*
X-30768422Y-13208427D02*
G01*
X-30764995Y-13216695D01*
X-30764978Y-13257555D01*
X-30764886Y-13308882D01*
X-30764691Y-13357997D01*
X-30764357Y-13403915D01*
X-30763851Y-13445652D01*
X-30763136Y-13482226D01*
X-30762178Y-13512651D01*
X-30760943Y-13535945D01*
X-30759395Y-13551123D01*
X-30759221Y-13551681D01*
X-30759220Y-13551686D01*
X-30758680Y-13553418D01*
X-30758862Y-13560923D01*
X-30904013Y-13957483D01*
X-30910075Y-13964074D01*
X-30919022Y-13964448D01*
X-30925613Y-13958386D01*
X-30925987Y-13957483D01*
X-31071139Y-13560920D01*
X-31071322Y-13553421D01*
X-31070606Y-13551123D01*
X-31069058Y-13535945D01*
X-31067823Y-13512651D01*
X-31066865Y-13482226D01*
X-31066150Y-13445652D01*
X-31065644Y-13403915D01*
X-31065310Y-13357997D01*
X-31065115Y-13308882D01*
X-31065023Y-13257555D01*
X-31065005Y-13216695D01*
X-31061575Y-13208423D01*
X-31053305Y-13205000D01*
X-30776695Y-13205000D01*
X-30768422Y-13208427D01*
G37*
%TD.AperFunction*%
%TD*%
%TA.AperFunction,Conductor*%
%TO.N,/VDD_3.3V*%
G36*
X-25311916Y-4711633D02*
G01*
X-25307838Y-4714181D01*
X-25289020Y-4718865D01*
X-25261620Y-4722555D01*
X-25241120Y-4724204D01*
X-25226692Y-4725364D01*
X-25226685Y-4725364D01*
X-25226604Y-4725371D01*
X-25226555Y-4725373D01*
X-25226532Y-4725375D01*
X-25188066Y-4727275D01*
X-25184933Y-4727430D01*
X-25184893Y-4727431D01*
X-25184874Y-4727432D01*
X-25137643Y-4728848D01*
X-25137634Y-4728848D01*
X-25137573Y-4728850D01*
X-25137539Y-4728851D01*
X-25085485Y-4729748D01*
X-25085435Y-4729748D01*
X-25085419Y-4729749D01*
X-25029635Y-4730244D01*
X-24970986Y-4730455D01*
X-24922190Y-4730491D01*
X-24913921Y-4733924D01*
X-24910500Y-4742191D01*
X-24910500Y-5018837D01*
X-24913927Y-5027110D01*
X-24922162Y-5030537D01*
X-24968196Y-5030681D01*
X-25024221Y-5031265D01*
X-25077621Y-5032314D01*
X-25127439Y-5033889D01*
X-25172720Y-5036052D01*
X-25172745Y-5036054D01*
X-25172767Y-5036055D01*
X-25212411Y-5038858D01*
X-25212419Y-5038859D01*
X-25212508Y-5038865D01*
X-25245847Y-5042389D01*
X-25246006Y-5042415D01*
X-25246011Y-5042416D01*
X-25252550Y-5043499D01*
X-25271782Y-5046685D01*
X-25289356Y-5051815D01*
X-25290174Y-5052412D01*
X-25290176Y-5052413D01*
X-25292898Y-5054400D01*
X-25301601Y-5056510D01*
X-25303199Y-5056144D01*
X-25754145Y-4919046D01*
X-25761064Y-4913361D01*
X-25761936Y-4904449D01*
X-25756251Y-4897530D01*
X-25755369Y-4897106D01*
X-25322740Y-4710811D01*
X-25313786Y-4710686D01*
X-25311916Y-4711633D01*
G37*
%TD.AperFunction*%
%TD*%
%TA.AperFunction,Conductor*%
%TO.N,/VDD_3.3V*%
G36*
X-33943320Y-11447819D02*
G01*
X-33942487Y-11448576D01*
X-33746683Y-11644380D01*
X-33743256Y-11652653D01*
X-33745635Y-11659726D01*
X-33771784Y-11694177D01*
X-33789598Y-11740126D01*
X-33795215Y-11787769D01*
X-33790945Y-11835436D01*
X-33779098Y-11881453D01*
X-33761981Y-11924150D01*
X-33741904Y-11961854D01*
X-33721176Y-11992893D01*
X-33720968Y-11993140D01*
X-33720964Y-11993146D01*
X-33709238Y-12007104D01*
X-33702105Y-12015595D01*
X-33701717Y-12015921D01*
X-33693279Y-12023012D01*
X-33689150Y-12030958D01*
X-33689819Y-12035991D01*
X-33901013Y-12612983D01*
X-33907075Y-12619574D01*
X-33916022Y-12619948D01*
X-33922613Y-12613886D01*
X-33922987Y-12612983D01*
X-34134771Y-12034377D01*
X-34134397Y-12025430D01*
X-34133018Y-12023171D01*
X-34122231Y-12009306D01*
X-34121463Y-12008319D01*
X-34113010Y-11973188D01*
X-34108733Y-11925338D01*
X-34105733Y-11867335D01*
X-34105720Y-11867118D01*
X-34101109Y-11801592D01*
X-34101042Y-11800919D01*
X-34091969Y-11730440D01*
X-34091782Y-11729378D01*
X-34075426Y-11656330D01*
X-34075014Y-11654915D01*
X-34048590Y-11581687D01*
X-34047826Y-11580000D01*
X-34008544Y-11508895D01*
X-34007333Y-11507113D01*
X-33979618Y-11473474D01*
X-33959789Y-11449408D01*
X-33951884Y-11445203D01*
X-33943320Y-11447819D01*
G37*
%TD.AperFunction*%
%TD*%
%TA.AperFunction,Conductor*%
%TO.N,/BOOT0*%
G36*
X-10982715Y-6520756D02*
G01*
X-10982341Y-6529703D01*
X-10982714Y-6530604D01*
X-11111764Y-6808669D01*
X-11119539Y-6825422D01*
X-11126130Y-6831484D01*
X-11128999Y-6832140D01*
X-11131012Y-6832339D01*
X-11143470Y-6838159D01*
X-11159339Y-6848470D01*
X-11178233Y-6862808D01*
X-11199763Y-6880703D01*
X-11223543Y-6901689D01*
X-11249186Y-6925298D01*
X-11276304Y-6951063D01*
X-11276317Y-6951075D01*
X-11289103Y-6963520D01*
X-11304511Y-6978517D01*
X-11304558Y-6978564D01*
X-11304583Y-6978588D01*
X-11325145Y-6998985D01*
X-11333432Y-7002379D01*
X-11341658Y-6998952D01*
X-11466599Y-6874011D01*
X-11470026Y-6865738D01*
X-11466633Y-6857499D01*
X-11446214Y-6836912D01*
X-11446165Y-6836863D01*
X-11430724Y-6820999D01*
X-11418723Y-6808669D01*
X-11418711Y-6808656D01*
X-11392946Y-6781538D01*
X-11369337Y-6755895D01*
X-11348351Y-6732115D01*
X-11330456Y-6710585D01*
X-11316118Y-6691691D01*
X-11305807Y-6675822D01*
X-11299987Y-6663364D01*
X-11299787Y-6661349D01*
X-11295559Y-6653455D01*
X-11293069Y-6651892D01*
X-10998253Y-6515068D01*
X-10989306Y-6514694D01*
X-10982715Y-6520756D01*
G37*
%TD.AperFunction*%
%TD*%
%TA.AperFunction,Conductor*%
%TO.N,/BOOT0*%
G36*
X-24280820Y-14767670D02*
G01*
X-24278328Y-14769234D01*
X-24277532Y-14769887D01*
X-24277530Y-14769888D01*
X-24276764Y-14770516D01*
X-24270895Y-14772647D01*
X-24264228Y-14775069D01*
X-24264224Y-14775070D01*
X-24263839Y-14775210D01*
X-24251034Y-14777928D01*
X-24245525Y-14779098D01*
X-24245519Y-14779099D01*
X-24245326Y-14779140D01*
X-24221829Y-14782362D01*
X-24221733Y-14782371D01*
X-24221715Y-14782373D01*
X-24194028Y-14784925D01*
X-24194018Y-14784926D01*
X-24193950Y-14784932D01*
X-24179584Y-14785829D01*
X-24162398Y-14786902D01*
X-24162360Y-14786904D01*
X-24162296Y-14786908D01*
X-24162240Y-14786910D01*
X-24162208Y-14786912D01*
X-24143857Y-14787669D01*
X-24127469Y-14788345D01*
X-24090075Y-14789302D01*
X-24050717Y-14789835D01*
X-24035614Y-14789896D01*
X-24021652Y-14789953D01*
X-24013393Y-14793414D01*
X-24010000Y-14801653D01*
X-24010000Y-14978347D01*
X-24013427Y-14986620D01*
X-24021653Y-14990047D01*
X-24050717Y-14990164D01*
X-24090075Y-14990697D01*
X-24127469Y-14991654D01*
X-24143857Y-14992330D01*
X-24162208Y-14993087D01*
X-24162240Y-14993089D01*
X-24162296Y-14993091D01*
X-24162360Y-14993095D01*
X-24162398Y-14993097D01*
X-24179584Y-14994170D01*
X-24193950Y-14995067D01*
X-24194018Y-14995073D01*
X-24194028Y-14995074D01*
X-24221715Y-14997626D01*
X-24221733Y-14997628D01*
X-24221829Y-14997637D01*
X-24245326Y-15000859D01*
X-24245519Y-15000900D01*
X-24245525Y-15000901D01*
X-24251034Y-15002071D01*
X-24263839Y-15004789D01*
X-24264224Y-15004929D01*
X-24264228Y-15004930D01*
X-24272438Y-15007912D01*
X-24276764Y-15009483D01*
X-24278330Y-15010767D01*
X-24286899Y-15013360D01*
X-24289767Y-15012704D01*
X-24295061Y-15010766D01*
X-24594983Y-14900987D01*
X-24601574Y-14894925D01*
X-24601948Y-14885978D01*
X-24595886Y-14879387D01*
X-24594983Y-14879013D01*
X-24383632Y-14801653D01*
X-24289767Y-14767296D01*
X-24280820Y-14767670D01*
G37*
%TD.AperFunction*%
%TD*%
%TA.AperFunction,Conductor*%
%TO.N,/NRST*%
G36*
X-24260820Y-5467670D02*
G01*
X-24258328Y-5469234D01*
X-24257532Y-5469887D01*
X-24257530Y-5469888D01*
X-24256764Y-5470516D01*
X-24250895Y-5472647D01*
X-24244228Y-5475069D01*
X-24244224Y-5475070D01*
X-24243839Y-5475210D01*
X-24231034Y-5477928D01*
X-24225525Y-5479098D01*
X-24225519Y-5479099D01*
X-24225326Y-5479140D01*
X-24201829Y-5482362D01*
X-24201733Y-5482371D01*
X-24201715Y-5482373D01*
X-24174028Y-5484925D01*
X-24174018Y-5484926D01*
X-24173950Y-5484932D01*
X-24159584Y-5485829D01*
X-24142398Y-5486902D01*
X-24142360Y-5486904D01*
X-24142296Y-5486908D01*
X-24142240Y-5486910D01*
X-24142208Y-5486912D01*
X-24123857Y-5487669D01*
X-24107469Y-5488345D01*
X-24070075Y-5489302D01*
X-24030717Y-5489835D01*
X-24015614Y-5489896D01*
X-24001652Y-5489953D01*
X-23993393Y-5493414D01*
X-23990000Y-5501653D01*
X-23990000Y-5678347D01*
X-23993427Y-5686620D01*
X-24001653Y-5690047D01*
X-24030717Y-5690164D01*
X-24070075Y-5690697D01*
X-24107469Y-5691654D01*
X-24123857Y-5692330D01*
X-24142208Y-5693087D01*
X-24142240Y-5693089D01*
X-24142296Y-5693091D01*
X-24142360Y-5693095D01*
X-24142398Y-5693097D01*
X-24159584Y-5694170D01*
X-24173950Y-5695067D01*
X-24174018Y-5695073D01*
X-24174028Y-5695074D01*
X-24201715Y-5697626D01*
X-24201733Y-5697628D01*
X-24201829Y-5697637D01*
X-24225326Y-5700859D01*
X-24225519Y-5700900D01*
X-24225525Y-5700901D01*
X-24231034Y-5702071D01*
X-24243839Y-5704789D01*
X-24244224Y-5704929D01*
X-24244228Y-5704930D01*
X-24252438Y-5707912D01*
X-24256764Y-5709483D01*
X-24258330Y-5710767D01*
X-24266899Y-5713360D01*
X-24269767Y-5712704D01*
X-24275061Y-5710766D01*
X-24574983Y-5600987D01*
X-24581574Y-5594925D01*
X-24581948Y-5585978D01*
X-24575886Y-5579387D01*
X-24574983Y-5579013D01*
X-24363632Y-5501653D01*
X-24269767Y-5467296D01*
X-24260820Y-5467670D01*
G37*
%TD.AperFunction*%
%TD*%
%TA.AperFunction,Conductor*%
%TO.N,/NRST*%
G36*
X-14753380Y-7143927D02*
G01*
X-14749953Y-7152152D01*
X-14749836Y-7181216D01*
X-14749303Y-7220574D01*
X-14748346Y-7257968D01*
X-14746909Y-7292795D01*
X-14744933Y-7324449D01*
X-14742363Y-7352328D01*
X-14739141Y-7375825D01*
X-14735211Y-7394338D01*
X-14730517Y-7407263D01*
X-14729889Y-7408029D01*
X-14729888Y-7408031D01*
X-14729235Y-7408827D01*
X-14726640Y-7417398D01*
X-14727296Y-7420267D01*
X-14839013Y-7725483D01*
X-14845075Y-7732074D01*
X-14854022Y-7732448D01*
X-14860613Y-7726386D01*
X-14860987Y-7725483D01*
X-14972704Y-7420266D01*
X-14972330Y-7411319D01*
X-14970768Y-7408830D01*
X-14970113Y-7408031D01*
X-14970112Y-7408030D01*
X-14969484Y-7407263D01*
X-14964790Y-7394338D01*
X-14960860Y-7375825D01*
X-14957638Y-7352328D01*
X-14955068Y-7324449D01*
X-14953092Y-7292795D01*
X-14951655Y-7257968D01*
X-14950698Y-7220574D01*
X-14950165Y-7181216D01*
X-14950047Y-7152152D01*
X-14946586Y-7143893D01*
X-14938347Y-7140500D01*
X-14761653Y-7140500D01*
X-14753380Y-7143927D01*
G37*
%TD.AperFunction*%
%TD*%
%TA.AperFunction,Conductor*%
%TO.N,/PA4{slash}CS*%
G36*
X-22400234Y-12337296D02*
G01*
X-22095017Y-12449013D01*
X-22088426Y-12455075D01*
X-22088052Y-12464022D01*
X-22094114Y-12470613D01*
X-22095017Y-12470987D01*
X-22400233Y-12582704D01*
X-22409180Y-12582330D01*
X-22411673Y-12580765D01*
X-22412469Y-12580112D01*
X-22412471Y-12580111D01*
X-22413237Y-12579483D01*
X-22419106Y-12577352D01*
X-22425773Y-12574930D01*
X-22425777Y-12574929D01*
X-22426162Y-12574789D01*
X-22438967Y-12572071D01*
X-22444476Y-12570901D01*
X-22444482Y-12570900D01*
X-22444675Y-12570859D01*
X-22468172Y-12567637D01*
X-22468268Y-12567628D01*
X-22468286Y-12567626D01*
X-22495973Y-12565074D01*
X-22495983Y-12565073D01*
X-22496051Y-12565067D01*
X-22510417Y-12564170D01*
X-22527603Y-12563097D01*
X-22527641Y-12563095D01*
X-22527705Y-12563091D01*
X-22527761Y-12563089D01*
X-22527793Y-12563087D01*
X-22546144Y-12562330D01*
X-22562532Y-12561654D01*
X-22599926Y-12560697D01*
X-22639284Y-12560164D01*
X-22668347Y-12560047D01*
X-22676606Y-12556587D01*
X-22680000Y-12548347D01*
X-22680000Y-12371653D01*
X-22676573Y-12363380D01*
X-22668348Y-12359953D01*
X-22654348Y-12359896D01*
X-22639284Y-12359835D01*
X-22599926Y-12359302D01*
X-22562532Y-12358345D01*
X-22546144Y-12357669D01*
X-22527793Y-12356912D01*
X-22527761Y-12356910D01*
X-22527705Y-12356908D01*
X-22527641Y-12356904D01*
X-22527603Y-12356902D01*
X-22510417Y-12355829D01*
X-22496051Y-12354932D01*
X-22495983Y-12354926D01*
X-22495973Y-12354925D01*
X-22468286Y-12352373D01*
X-22468268Y-12352371D01*
X-22468172Y-12352362D01*
X-22444675Y-12349140D01*
X-22444482Y-12349099D01*
X-22444476Y-12349098D01*
X-22438967Y-12347928D01*
X-22426162Y-12345210D01*
X-22425777Y-12345070D01*
X-22425773Y-12345069D01*
X-22414170Y-12340855D01*
X-22414169Y-12340855D01*
X-22413237Y-12340516D01*
X-22411670Y-12339232D01*
X-22403099Y-12336640D01*
X-22400234Y-12337296D01*
G37*
%TD.AperFunction*%
%TD*%
%TA.AperFunction,Conductor*%
%TO.N,/PA4{slash}CS*%
G36*
X-19910820Y-14367670D02*
G01*
X-19908328Y-14369234D01*
X-19907532Y-14369887D01*
X-19907530Y-14369888D01*
X-19906764Y-14370516D01*
X-19900895Y-14372647D01*
X-19894228Y-14375069D01*
X-19894224Y-14375070D01*
X-19893839Y-14375210D01*
X-19881034Y-14377928D01*
X-19875525Y-14379098D01*
X-19875519Y-14379099D01*
X-19875326Y-14379140D01*
X-19851829Y-14382362D01*
X-19851733Y-14382371D01*
X-19851715Y-14382373D01*
X-19824028Y-14384925D01*
X-19824018Y-14384926D01*
X-19823950Y-14384932D01*
X-19809584Y-14385829D01*
X-19792398Y-14386902D01*
X-19792360Y-14386904D01*
X-19792296Y-14386908D01*
X-19792240Y-14386910D01*
X-19792208Y-14386912D01*
X-19773857Y-14387669D01*
X-19757469Y-14388345D01*
X-19720075Y-14389302D01*
X-19680717Y-14389835D01*
X-19665614Y-14389896D01*
X-19651652Y-14389953D01*
X-19643393Y-14393414D01*
X-19640000Y-14401653D01*
X-19640000Y-14578347D01*
X-19643427Y-14586620D01*
X-19651653Y-14590047D01*
X-19680717Y-14590164D01*
X-19720075Y-14590697D01*
X-19757469Y-14591654D01*
X-19773857Y-14592330D01*
X-19792208Y-14593087D01*
X-19792240Y-14593089D01*
X-19792296Y-14593091D01*
X-19792360Y-14593095D01*
X-19792398Y-14593097D01*
X-19809584Y-14594170D01*
X-19823950Y-14595067D01*
X-19824018Y-14595073D01*
X-19824028Y-14595074D01*
X-19851715Y-14597626D01*
X-19851733Y-14597628D01*
X-19851829Y-14597637D01*
X-19875326Y-14600859D01*
X-19875519Y-14600900D01*
X-19875525Y-14600901D01*
X-19881034Y-14602071D01*
X-19893839Y-14604789D01*
X-19894224Y-14604929D01*
X-19894228Y-14604930D01*
X-19902438Y-14607912D01*
X-19906764Y-14609483D01*
X-19908330Y-14610767D01*
X-19916899Y-14613360D01*
X-19919767Y-14612704D01*
X-19925061Y-14610766D01*
X-20224983Y-14500987D01*
X-20231574Y-14494925D01*
X-20231948Y-14485978D01*
X-20225886Y-14479387D01*
X-20224983Y-14479013D01*
X-20013632Y-14401653D01*
X-19919767Y-14367296D01*
X-19910820Y-14367670D01*
G37*
%TD.AperFunction*%
%TD*%
%TA.AperFunction,Conductor*%
%TO.N,/PA4{slash}CS*%
G36*
X-16439725Y-14367298D02*
G01*
X-16217778Y-14448560D01*
X-16134518Y-14479044D01*
X-16127928Y-14485107D01*
X-16127554Y-14494054D01*
X-16133617Y-14500644D01*
X-16134511Y-14501015D01*
X-16439746Y-14612707D01*
X-16448693Y-14612331D01*
X-16451185Y-14610767D01*
X-16451983Y-14610113D01*
X-16451982Y-14610113D01*
X-16452749Y-14609485D01*
X-16465674Y-14604790D01*
X-16466063Y-14604707D01*
X-16466068Y-14604706D01*
X-16483988Y-14600902D01*
X-16483994Y-14600901D01*
X-16484187Y-14600860D01*
X-16507686Y-14597638D01*
X-16507782Y-14597629D01*
X-16507800Y-14597627D01*
X-16535489Y-14595074D01*
X-16535494Y-14595074D01*
X-16535566Y-14595067D01*
X-16549932Y-14594170D01*
X-16567120Y-14593097D01*
X-16567157Y-14593095D01*
X-16567222Y-14593091D01*
X-16567278Y-14593089D01*
X-16567310Y-14593087D01*
X-16585661Y-14592330D01*
X-16602050Y-14591654D01*
X-16639445Y-14590697D01*
X-16678805Y-14590164D01*
X-16707870Y-14590047D01*
X-16716129Y-14586587D01*
X-16719523Y-14578347D01*
X-16719523Y-14401653D01*
X-16716096Y-14393380D01*
X-16707870Y-14389953D01*
X-16693963Y-14389896D01*
X-16678801Y-14389835D01*
X-16639439Y-14389303D01*
X-16602040Y-14388346D01*
X-16567209Y-14386909D01*
X-16555885Y-14386203D01*
X-16535645Y-14384940D01*
X-16535632Y-14384939D01*
X-16535551Y-14384934D01*
X-16535505Y-14384930D01*
X-16535481Y-14384928D01*
X-16507783Y-14382375D01*
X-16507764Y-14382373D01*
X-16507669Y-14382364D01*
X-16497523Y-14380973D01*
X-16484376Y-14379172D01*
X-16484363Y-14379170D01*
X-16484168Y-14379143D01*
X-16465653Y-14375214D01*
X-16452727Y-14370519D01*
X-16451962Y-14369892D01*
X-16451958Y-14369890D01*
X-16451160Y-14369236D01*
X-16442589Y-14366643D01*
X-16439725Y-14367298D01*
G37*
%TD.AperFunction*%
%TD*%
%TA.AperFunction,Conductor*%
%TO.N,/PA5{slash}SCLK*%
G36*
X-23070673Y-17746843D02*
G01*
X-22974410Y-17839017D01*
X-22974326Y-17839091D01*
X-22974310Y-17839105D01*
X-22900075Y-17903871D01*
X-22871878Y-17928471D01*
X-22871776Y-17928551D01*
X-22871763Y-17928562D01*
X-22832629Y-17959326D01*
X-22772067Y-18006935D01*
X-22771933Y-18007028D01*
X-22675849Y-18073952D01*
X-22675838Y-18073959D01*
X-22675696Y-18074058D01*
X-22675539Y-18074153D01*
X-22675538Y-18074153D01*
X-22583682Y-18129370D01*
X-22583674Y-18129374D01*
X-22583485Y-18129488D01*
X-22496153Y-18172875D01*
X-22414418Y-18203868D01*
X-22375843Y-18213201D01*
X-22339457Y-18222004D01*
X-22339453Y-18222005D01*
X-22339001Y-18222114D01*
X-22270621Y-18227263D01*
X-22270008Y-18227179D01*
X-22270005Y-18227179D01*
X-22218558Y-18220136D01*
X-22209896Y-18222409D01*
X-22206358Y-18226803D01*
X-22147111Y-18354462D01*
X-21959188Y-18759379D01*
X-21702936Y-19311526D01*
X-21702562Y-19320473D01*
X-21708624Y-19327064D01*
X-21717571Y-19327438D01*
X-21718474Y-19327064D01*
X-21732675Y-19320473D01*
X-22803197Y-18823642D01*
X-22809259Y-18817051D01*
X-22809864Y-18811442D01*
X-22802821Y-18759995D01*
X-22802821Y-18759992D01*
X-22802737Y-18759379D01*
X-22807886Y-18690999D01*
X-22826132Y-18615582D01*
X-22857125Y-18533847D01*
X-22900512Y-18446515D01*
X-22955942Y-18354304D01*
X-22956041Y-18354162D01*
X-22956048Y-18354151D01*
X-23022972Y-18258067D01*
X-23023065Y-18257933D01*
X-23047212Y-18227216D01*
X-23101438Y-18158237D01*
X-23101449Y-18158224D01*
X-23101529Y-18158122D01*
X-23126614Y-18129370D01*
X-23190895Y-18055690D01*
X-23190909Y-18055674D01*
X-23190983Y-18055590D01*
X-23283157Y-17959326D01*
X-23286403Y-17950980D01*
X-23282979Y-17942961D01*
X-23087039Y-17747021D01*
X-23078766Y-17743594D01*
X-23070673Y-17746843D01*
G37*
%TD.AperFunction*%
%TD*%
%TA.AperFunction,Conductor*%
%TO.N,/PA5{slash}SCLK*%
G36*
X-28364387Y-13701614D02*
G01*
X-28364013Y-13702517D01*
X-28218862Y-14099076D01*
X-28218680Y-14106581D01*
X-28219220Y-14108313D01*
X-28219221Y-14108318D01*
X-28219395Y-14108876D01*
X-28220943Y-14124054D01*
X-28222178Y-14147348D01*
X-28222181Y-14147446D01*
X-28223136Y-14177773D01*
X-28223851Y-14214347D01*
X-28224357Y-14256084D01*
X-28224691Y-14302002D01*
X-28224886Y-14351117D01*
X-28224978Y-14402444D01*
X-28224995Y-14443305D01*
X-28228425Y-14451577D01*
X-28236695Y-14455000D01*
X-28513305Y-14455000D01*
X-28521578Y-14451573D01*
X-28525005Y-14443305D01*
X-28525023Y-14402444D01*
X-28525023Y-14402423D01*
X-28525115Y-14351117D01*
X-28525115Y-14351071D01*
X-28525310Y-14302002D01*
X-28525644Y-14256084D01*
X-28526150Y-14214347D01*
X-28526150Y-14214339D01*
X-28526865Y-14177773D01*
X-28527820Y-14147446D01*
X-28527823Y-14147348D01*
X-28529058Y-14124054D01*
X-28530606Y-14108876D01*
X-28530781Y-14108313D01*
X-28530781Y-14108312D01*
X-28531321Y-14106580D01*
X-28531138Y-14099078D01*
X-28385987Y-13702517D01*
X-28379925Y-13695926D01*
X-28370978Y-13695552D01*
X-28364387Y-13701614D01*
G37*
%TD.AperFunction*%
%TD*%
%TA.AperFunction,Conductor*%
%TO.N,/PA6{slash}MISO*%
G36*
X-29624334Y-6637089D02*
G01*
X-29618545Y-6643921D01*
X-29618287Y-6644860D01*
X-29530102Y-7027470D01*
X-29523334Y-7056836D01*
X-29523751Y-7063491D01*
X-29524657Y-7065962D01*
X-29526622Y-7080692D01*
X-29528428Y-7103438D01*
X-29528432Y-7103513D01*
X-29530056Y-7133223D01*
X-29530059Y-7133297D01*
X-29531486Y-7169068D01*
X-29532700Y-7209997D01*
X-29533677Y-7255032D01*
X-29534400Y-7303196D01*
X-29534401Y-7303254D01*
X-29534847Y-7353511D01*
X-29534965Y-7393335D01*
X-29538416Y-7401598D01*
X-29546665Y-7405000D01*
X-29823262Y-7405000D01*
X-29831535Y-7401573D01*
X-29834962Y-7393262D01*
X-29834816Y-7347818D01*
X-29834816Y-7347757D01*
X-29834345Y-7291887D01*
X-29834329Y-7291887D01*
X-29834345Y-7291847D01*
X-29833712Y-7238464D01*
X-29833712Y-7238446D01*
X-29833040Y-7188492D01*
X-29832452Y-7143081D01*
X-29832073Y-7103269D01*
X-29832073Y-7103255D01*
X-29832027Y-7070114D01*
X-29832028Y-7070039D01*
X-29832434Y-7044832D01*
X-29832435Y-7044814D01*
X-29832437Y-7044672D01*
X-29833427Y-7028000D01*
X-29834066Y-7025416D01*
X-29833112Y-7017252D01*
X-29640090Y-6642139D01*
X-29633258Y-6636350D01*
X-29624334Y-6637089D01*
G37*
%TD.AperFunction*%
%TD*%
%TA.AperFunction,Conductor*%
%TO.N,/PA6{slash}MISO*%
G36*
X-19162936Y-18758624D02*
G01*
X-19162562Y-18767571D01*
X-19162936Y-18768474D01*
X-19666760Y-19854063D01*
X-19673351Y-19860125D01*
X-19677679Y-19860834D01*
X-19703152Y-19860163D01*
X-19733808Y-19859355D01*
X-19733811Y-19859355D01*
X-19734889Y-19859327D01*
X-19780795Y-19875661D01*
X-19803599Y-19883775D01*
X-19803601Y-19883776D01*
X-19804138Y-19883967D01*
X-19836178Y-19903091D01*
X-19879029Y-19928669D01*
X-19879037Y-19928674D01*
X-19879236Y-19928793D01*
X-19961682Y-19987640D01*
X-20052809Y-20054228D01*
X-20053150Y-20054467D01*
X-20154210Y-20122487D01*
X-20155000Y-20122974D01*
X-20267456Y-20186338D01*
X-20268665Y-20186931D01*
X-20394045Y-20239636D01*
X-20395659Y-20240180D01*
X-20441381Y-20251964D01*
X-20535498Y-20276222D01*
X-20537413Y-20276547D01*
X-20681667Y-20288912D01*
X-20690201Y-20286204D01*
X-20694322Y-20278254D01*
X-20694365Y-20277255D01*
X-20694365Y-20000181D01*
X-20690938Y-19991908D01*
X-20684282Y-19988593D01*
X-20625335Y-19980370D01*
X-20579697Y-19974004D01*
X-20579696Y-19974004D01*
X-20578824Y-19973882D01*
X-20484198Y-19929450D01*
X-20408745Y-19862580D01*
X-20407037Y-19860125D01*
X-20351034Y-19779598D01*
X-20350722Y-19779150D01*
X-20308388Y-19685039D01*
X-20279998Y-19586125D01*
X-20263810Y-19488286D01*
X-20258083Y-19397399D01*
X-20261072Y-19319343D01*
X-20269559Y-19268791D01*
X-20267549Y-19260065D01*
X-20262945Y-19256241D01*
X-20022721Y-19144753D01*
X-19178474Y-18752936D01*
X-19169527Y-18752562D01*
X-19162936Y-18758624D01*
G37*
%TD.AperFunction*%
%TD*%
%TA.AperFunction,Conductor*%
%TO.N,/PA7{slash}MOSI*%
G36*
X-17990673Y-17746843D02*
G01*
X-17894410Y-17839017D01*
X-17894326Y-17839091D01*
X-17894310Y-17839105D01*
X-17820075Y-17903871D01*
X-17791878Y-17928471D01*
X-17791776Y-17928551D01*
X-17791763Y-17928562D01*
X-17752629Y-17959326D01*
X-17692067Y-18006935D01*
X-17691933Y-18007028D01*
X-17595849Y-18073952D01*
X-17595838Y-18073959D01*
X-17595696Y-18074058D01*
X-17595539Y-18074153D01*
X-17595538Y-18074153D01*
X-17503682Y-18129370D01*
X-17503674Y-18129374D01*
X-17503485Y-18129488D01*
X-17416153Y-18172875D01*
X-17334418Y-18203868D01*
X-17295843Y-18213201D01*
X-17259457Y-18222004D01*
X-17259453Y-18222005D01*
X-17259001Y-18222114D01*
X-17190621Y-18227263D01*
X-17190008Y-18227179D01*
X-17190005Y-18227179D01*
X-17138558Y-18220136D01*
X-17129896Y-18222409D01*
X-17126358Y-18226803D01*
X-17067111Y-18354462D01*
X-16879188Y-18759379D01*
X-16622936Y-19311526D01*
X-16622562Y-19320473D01*
X-16628624Y-19327064D01*
X-16637571Y-19327438D01*
X-16638474Y-19327064D01*
X-16652675Y-19320473D01*
X-17723197Y-18823642D01*
X-17729259Y-18817051D01*
X-17729864Y-18811442D01*
X-17722821Y-18759995D01*
X-17722821Y-18759992D01*
X-17722737Y-18759379D01*
X-17727886Y-18690999D01*
X-17746132Y-18615582D01*
X-17777125Y-18533847D01*
X-17820512Y-18446515D01*
X-17875942Y-18354304D01*
X-17876041Y-18354162D01*
X-17876048Y-18354151D01*
X-17942972Y-18258067D01*
X-17943065Y-18257933D01*
X-17967212Y-18227216D01*
X-18021438Y-18158237D01*
X-18021449Y-18158224D01*
X-18021529Y-18158122D01*
X-18046614Y-18129370D01*
X-18110895Y-18055690D01*
X-18110909Y-18055674D01*
X-18110983Y-18055590D01*
X-18203157Y-17959326D01*
X-18206403Y-17950980D01*
X-18202979Y-17942961D01*
X-18007039Y-17747021D01*
X-17998766Y-17743594D01*
X-17990673Y-17746843D01*
G37*
%TD.AperFunction*%
%TD*%
%TA.AperFunction,Conductor*%
%TO.N,/PA7{slash}MOSI*%
G36*
X-27094387Y-13701614D02*
G01*
X-27094013Y-13702517D01*
X-26948862Y-14099076D01*
X-26948680Y-14106581D01*
X-26949220Y-14108313D01*
X-26949221Y-14108318D01*
X-26949395Y-14108876D01*
X-26950943Y-14124054D01*
X-26952178Y-14147348D01*
X-26952181Y-14147446D01*
X-26953136Y-14177773D01*
X-26953851Y-14214347D01*
X-26954357Y-14256084D01*
X-26954691Y-14302002D01*
X-26954886Y-14351117D01*
X-26954978Y-14402444D01*
X-26954995Y-14443305D01*
X-26958425Y-14451577D01*
X-26966695Y-14455000D01*
X-27243305Y-14455000D01*
X-27251578Y-14451573D01*
X-27255005Y-14443305D01*
X-27255023Y-14402444D01*
X-27255023Y-14402423D01*
X-27255115Y-14351117D01*
X-27255115Y-14351071D01*
X-27255310Y-14302002D01*
X-27255644Y-14256084D01*
X-27256150Y-14214347D01*
X-27256150Y-14214339D01*
X-27256865Y-14177773D01*
X-27257820Y-14147446D01*
X-27257823Y-14147348D01*
X-27259058Y-14124054D01*
X-27260606Y-14108876D01*
X-27260781Y-14108313D01*
X-27260781Y-14108312D01*
X-27261321Y-14106580D01*
X-27261138Y-14099078D01*
X-27115987Y-13702517D01*
X-27109925Y-13695926D01*
X-27100978Y-13695552D01*
X-27094387Y-13701614D01*
G37*
%TD.AperFunction*%
%TD*%
%TA.AperFunction,Conductor*%
%TO.N,/PA15*%
G36*
X-1645563Y-14754615D02*
G01*
X-1645225Y-14755533D01*
X-1545764Y-15065074D01*
X-1546496Y-15073999D01*
X-1548050Y-15076302D01*
X-1549507Y-15077988D01*
X-1554414Y-15091040D01*
X-1558530Y-15109854D01*
X-1558558Y-15110051D01*
X-1558560Y-15110063D01*
X-1560942Y-15126922D01*
X-1561914Y-15133800D01*
X-1564621Y-15162249D01*
X-1566709Y-15194572D01*
X-1568234Y-15230138D01*
X-1569253Y-15268317D01*
X-1569254Y-15268391D01*
X-1569823Y-15308481D01*
X-1569823Y-15308532D01*
X-1569950Y-15338350D01*
X-1573412Y-15346608D01*
X-1581650Y-15350000D01*
X-1758330Y-15350000D01*
X-1766603Y-15346573D01*
X-1770030Y-15338330D01*
X-1770109Y-15307076D01*
X-1770491Y-15265609D01*
X-1771232Y-15226223D01*
X-1772415Y-15189545D01*
X-1774124Y-15156235D01*
X-1774125Y-15156227D01*
X-1774126Y-15156199D01*
X-1775312Y-15141190D01*
X-1776440Y-15126922D01*
X-1776441Y-15126915D01*
X-1776449Y-15126810D01*
X-1779468Y-15102004D01*
X-1783269Y-15082407D01*
X-1785033Y-15077204D01*
X-1787626Y-15069555D01*
X-1787627Y-15069553D01*
X-1787936Y-15068642D01*
X-1789440Y-15066686D01*
X-1791765Y-15058039D01*
X-1790982Y-15055098D01*
X-1667182Y-14754655D01*
X-1660861Y-14748311D01*
X-1651907Y-14748294D01*
X-1645563Y-14754615D01*
G37*
%TD.AperFunction*%
%TD*%
%TA.AperFunction,Conductor*%
%TO.N,/PA15*%
G36*
X-1573112Y-17353427D02*
G01*
X-1569689Y-17361380D01*
X-1566006Y-17496199D01*
X-1554353Y-17632206D01*
X-1535538Y-17757608D01*
X-1510058Y-17871993D01*
X-1478409Y-17974949D01*
X-1441087Y-18066064D01*
X-1398588Y-18144927D01*
X-1398382Y-18145217D01*
X-1398377Y-18145224D01*
X-1351665Y-18210768D01*
X-1351661Y-18210773D01*
X-1351410Y-18211125D01*
X-1351109Y-18211436D01*
X-1351106Y-18211440D01*
X-1300412Y-18263871D01*
X-1300049Y-18264246D01*
X-1299624Y-18264552D01*
X-1252201Y-18298695D01*
X-1247489Y-18306310D01*
X-1248050Y-18312212D01*
X-1659013Y-19434983D01*
X-1665075Y-19441574D01*
X-1674022Y-19441948D01*
X-1680613Y-19435886D01*
X-1680987Y-19434983D01*
X-2091950Y-18312212D01*
X-2091576Y-18303265D01*
X-2087799Y-18298695D01*
X-2040377Y-18264552D01*
X-2039952Y-18264246D01*
X-2039589Y-18263871D01*
X-1988895Y-18211440D01*
X-1988892Y-18211436D01*
X-1988591Y-18211125D01*
X-1988340Y-18210773D01*
X-1988336Y-18210768D01*
X-1941624Y-18145224D01*
X-1941619Y-18145217D01*
X-1941413Y-18144927D01*
X-1898914Y-18066064D01*
X-1861592Y-17974949D01*
X-1829943Y-17871993D01*
X-1804463Y-17757608D01*
X-1785648Y-17632206D01*
X-1773995Y-17496199D01*
X-1770311Y-17361380D01*
X-1766659Y-17353204D01*
X-1758615Y-17350000D01*
X-1581385Y-17350000D01*
X-1573112Y-17353427D01*
G37*
%TD.AperFunction*%
%TD*%
%TA.AperFunction,Conductor*%
%TO.N,/PB0*%
G36*
X-13925981Y-12981056D02*
G01*
X-13801047Y-13105990D01*
X-13797620Y-13114263D01*
X-13801013Y-13122502D01*
X-13821786Y-13143448D01*
X-13821822Y-13143486D01*
X-13821870Y-13143534D01*
X-13849703Y-13172151D01*
X-13875827Y-13199681D01*
X-13899760Y-13225725D01*
X-13921024Y-13249884D01*
X-13939137Y-13271757D01*
X-13939218Y-13271865D01*
X-13939232Y-13271882D01*
X-13949759Y-13285832D01*
X-13953618Y-13290946D01*
X-13963988Y-13307051D01*
X-13969765Y-13319674D01*
X-13969847Y-13320696D01*
X-13969939Y-13321834D01*
X-13974019Y-13329806D01*
X-13976372Y-13331362D01*
X-14267226Y-13476600D01*
X-14276158Y-13477230D01*
X-14282920Y-13471359D01*
X-14283550Y-13462426D01*
X-14283201Y-13461512D01*
X-14154888Y-13162950D01*
X-14148473Y-13156702D01*
X-14145550Y-13155955D01*
X-14144189Y-13155790D01*
X-14144186Y-13155789D01*
X-14143230Y-13155673D01*
X-14130360Y-13149426D01*
X-14114005Y-13138514D01*
X-14094549Y-13123431D01*
X-14073941Y-13105990D01*
X-14072439Y-13104719D01*
X-14072419Y-13104702D01*
X-14072377Y-13104666D01*
X-14047873Y-13082710D01*
X-14021422Y-13058056D01*
X-13993408Y-13031193D01*
X-13964216Y-13002613D01*
X-13942502Y-12981031D01*
X-13934218Y-12977629D01*
X-13925981Y-12981056D01*
G37*
%TD.AperFunction*%
%TD*%
%TA.AperFunction,Conductor*%
%TO.N,/PB0*%
G36*
X-2073462Y-1280801D02*
G01*
X-1277511Y-1380843D01*
X-1269730Y-1385275D01*
X-1267361Y-1393911D01*
X-1271793Y-1401692D01*
X-1272587Y-1402258D01*
X-1964785Y-1852533D01*
X-2275515Y-2054663D01*
X-2284319Y-2056301D01*
X-2288765Y-2054326D01*
X-2322961Y-2029520D01*
X-2322962Y-2029519D01*
X-2323783Y-2028924D01*
X-2377109Y-2013466D01*
X-2377868Y-2013449D01*
X-2439961Y-2012061D01*
X-2439964Y-2012061D01*
X-2440510Y-2012049D01*
X-2441047Y-2012139D01*
X-2441050Y-2012139D01*
X-2471592Y-2017246D01*
X-2512255Y-2024046D01*
X-2559518Y-2038994D01*
X-2590307Y-2048732D01*
X-2590312Y-2048734D01*
X-2590619Y-2048831D01*
X-2673874Y-2085778D01*
X-2760292Y-2134261D01*
X-2848145Y-2193655D01*
X-2935706Y-2263332D01*
X-3012987Y-2335007D01*
X-3021382Y-2338121D01*
X-3029215Y-2334702D01*
X-3154506Y-2209411D01*
X-3157933Y-2201138D01*
X-3154617Y-2192978D01*
X-3043075Y-2078415D01*
X-3043028Y-2078364D01*
X-2936546Y-1962367D01*
X-2936533Y-1962353D01*
X-2936485Y-1962300D01*
X-2906866Y-1927804D01*
X-2842298Y-1852605D01*
X-2842280Y-1852583D01*
X-2842237Y-1852533D01*
X-2759671Y-1748740D01*
X-2688126Y-1650550D01*
X-2626942Y-1557592D01*
X-2575458Y-1469493D01*
X-2533013Y-1385882D01*
X-2532752Y-1385275D01*
X-2499028Y-1306576D01*
X-2499024Y-1306566D01*
X-2498947Y-1306386D01*
X-2475710Y-1239581D01*
X-2469755Y-1232893D01*
X-2463201Y-1231816D01*
X-2073462Y-1280801D01*
G37*
%TD.AperFunction*%
%TD*%
%TA.AperFunction,Conductor*%
%TO.N,/PB1*%
G36*
X-3837125Y-1307933D02*
G01*
X-3833051Y-1315907D01*
X-3835809Y-1324427D01*
X-3836474Y-1325144D01*
X-4685646Y-2167541D01*
X-4693933Y-2170935D01*
X-4699075Y-2169721D01*
X-4743865Y-2147551D01*
X-4764090Y-2143787D01*
X-4805678Y-2136046D01*
X-4805681Y-2136046D01*
X-4806303Y-2135930D01*
X-4877527Y-2138168D01*
X-4956168Y-2153867D01*
X-4956532Y-2153991D01*
X-4956537Y-2153992D01*
X-4996429Y-2167541D01*
X-5040854Y-2182629D01*
X-5130216Y-2224055D01*
X-5130448Y-2224189D01*
X-5130453Y-2224192D01*
X-5222683Y-2277631D01*
X-5222693Y-2277637D01*
X-5222884Y-2277748D01*
X-5223061Y-2277871D01*
X-5223071Y-2277877D01*
X-5277960Y-2315915D01*
X-5317488Y-2343308D01*
X-5412656Y-2420339D01*
X-5498757Y-2500726D01*
X-5507142Y-2503867D01*
X-5515014Y-2500447D01*
X-5640315Y-2375146D01*
X-5643742Y-2366873D01*
X-5640463Y-2358750D01*
X-5594813Y-2311427D01*
X-5534405Y-2248805D01*
X-5433479Y-2135585D01*
X-5345234Y-2027287D01*
X-5328369Y-2004330D01*
X-5269326Y-1923963D01*
X-5269316Y-1923949D01*
X-5269237Y-1923841D01*
X-5205057Y-1825173D01*
X-5152264Y-1731212D01*
X-5110424Y-1641885D01*
X-5079108Y-1557121D01*
X-5079036Y-1556849D01*
X-5057967Y-1477164D01*
X-5057965Y-1477155D01*
X-5057884Y-1476848D01*
X-5047717Y-1410156D01*
X-5043083Y-1402494D01*
X-5037082Y-1400256D01*
X-3845645Y-1305175D01*
X-3837125Y-1307933D01*
G37*
%TD.AperFunction*%
%TD*%
%TA.AperFunction,Conductor*%
%TO.N,/PB1*%
G36*
X-14420234Y-14037296D02*
G01*
X-14115017Y-14149013D01*
X-14108426Y-14155075D01*
X-14108052Y-14164022D01*
X-14114114Y-14170613D01*
X-14115017Y-14170987D01*
X-14420233Y-14282704D01*
X-14429180Y-14282330D01*
X-14431673Y-14280765D01*
X-14432469Y-14280112D01*
X-14432471Y-14280111D01*
X-14433237Y-14279483D01*
X-14439106Y-14277352D01*
X-14445773Y-14274930D01*
X-14445777Y-14274929D01*
X-14446162Y-14274789D01*
X-14458967Y-14272071D01*
X-14464476Y-14270901D01*
X-14464482Y-14270900D01*
X-14464675Y-14270859D01*
X-14488172Y-14267637D01*
X-14488268Y-14267628D01*
X-14488286Y-14267626D01*
X-14515973Y-14265074D01*
X-14515983Y-14265073D01*
X-14516051Y-14265067D01*
X-14530417Y-14264170D01*
X-14547603Y-14263097D01*
X-14547641Y-14263095D01*
X-14547705Y-14263091D01*
X-14547761Y-14263089D01*
X-14547793Y-14263087D01*
X-14566144Y-14262330D01*
X-14582532Y-14261654D01*
X-14619926Y-14260697D01*
X-14659284Y-14260164D01*
X-14688347Y-14260047D01*
X-14696606Y-14256587D01*
X-14700000Y-14248347D01*
X-14700000Y-14071653D01*
X-14696573Y-14063380D01*
X-14688348Y-14059953D01*
X-14674348Y-14059896D01*
X-14659284Y-14059835D01*
X-14619926Y-14059302D01*
X-14582532Y-14058345D01*
X-14566144Y-14057669D01*
X-14547793Y-14056912D01*
X-14547761Y-14056910D01*
X-14547705Y-14056908D01*
X-14547641Y-14056904D01*
X-14547603Y-14056902D01*
X-14530417Y-14055829D01*
X-14516051Y-14054932D01*
X-14515983Y-14054926D01*
X-14515973Y-14054925D01*
X-14488286Y-14052373D01*
X-14488268Y-14052371D01*
X-14488172Y-14052362D01*
X-14464675Y-14049140D01*
X-14464482Y-14049099D01*
X-14464476Y-14049098D01*
X-14458967Y-14047928D01*
X-14446162Y-14045210D01*
X-14445777Y-14045070D01*
X-14445773Y-14045069D01*
X-14434170Y-14040855D01*
X-14434169Y-14040855D01*
X-14433237Y-14040516D01*
X-14431670Y-14039232D01*
X-14423099Y-14036640D01*
X-14420234Y-14037296D01*
G37*
%TD.AperFunction*%
%TD*%
%TA.AperFunction,Conductor*%
%TO.N,/PB2*%
G36*
X-6729387Y-1084114D02*
G01*
X-6729013Y-1085017D01*
X-6317630Y-2208935D01*
X-6318004Y-2217882D01*
X-6320528Y-2221409D01*
X-6364421Y-2263400D01*
X-6364886Y-2264485D01*
X-6387142Y-2316369D01*
X-6393831Y-2331962D01*
X-6393947Y-2332601D01*
X-6393948Y-2332603D01*
X-6409371Y-2417279D01*
X-6409593Y-2418497D01*
X-6409616Y-2418775D01*
X-6418064Y-2519625D01*
X-6418074Y-2519748D01*
X-6425610Y-2632009D01*
X-6425651Y-2632479D01*
X-6438570Y-2752337D01*
X-6438726Y-2753354D01*
X-6463277Y-2877409D01*
X-6463671Y-2878889D01*
X-6469169Y-2895106D01*
X-6506084Y-3003991D01*
X-6506873Y-3005798D01*
X-6573367Y-3128795D01*
X-6574622Y-3130662D01*
X-6664115Y-3239500D01*
X-6672015Y-3243714D01*
X-6680582Y-3241106D01*
X-6681424Y-3240342D01*
X-6806595Y-3115171D01*
X-6810022Y-3106898D01*
X-6807726Y-3099937D01*
X-6736936Y-3004308D01*
X-6736348Y-3003514D01*
X-6702847Y-2895106D01*
X-6706143Y-2785551D01*
X-6739160Y-2677581D01*
X-6794818Y-2573930D01*
X-6866040Y-2477331D01*
X-6920057Y-2418497D01*
X-6945576Y-2390703D01*
X-6945579Y-2390700D01*
X-6945747Y-2390517D01*
X-6945925Y-2390354D01*
X-6945934Y-2390345D01*
X-7026701Y-2316369D01*
X-7026707Y-2316364D01*
X-7026862Y-2316222D01*
X-7102306Y-2257179D01*
X-7102499Y-2257053D01*
X-7102504Y-2257049D01*
X-7142737Y-2230701D01*
X-7157231Y-2221209D01*
X-7162275Y-2213810D01*
X-7161808Y-2207399D01*
X-6750987Y-1085017D01*
X-6744925Y-1078426D01*
X-6735978Y-1078052D01*
X-6729387Y-1084114D01*
G37*
%TD.AperFunction*%
%TD*%
%TA.AperFunction,Conductor*%
%TO.N,/PB2*%
G36*
X-14428791Y-14787824D02*
G01*
X-14125017Y-14899013D01*
X-14118426Y-14905075D01*
X-14118052Y-14914022D01*
X-14124114Y-14920613D01*
X-14125017Y-14920987D01*
X-14432013Y-15033355D01*
X-14440865Y-15033024D01*
X-14445355Y-15030989D01*
X-14446555Y-15030445D01*
X-14447871Y-15030474D01*
X-14447872Y-15030474D01*
X-14455215Y-15030638D01*
X-14466661Y-15030892D01*
X-14466951Y-15030927D01*
X-14466950Y-15030927D01*
X-14495145Y-15034337D01*
X-14530084Y-15038746D01*
X-14530554Y-15038796D01*
X-14570100Y-15042173D01*
X-14570982Y-15042214D01*
X-14594476Y-15042442D01*
X-14613418Y-15042625D01*
X-14614702Y-15042566D01*
X-14640638Y-15039930D01*
X-14658383Y-15038126D01*
X-14660112Y-15037818D01*
X-14703343Y-15026707D01*
X-14705448Y-15025945D01*
X-14724509Y-15016899D01*
X-14746711Y-15006361D01*
X-14748943Y-15004974D01*
X-14777665Y-14982293D01*
X-14782034Y-14974477D01*
X-14779596Y-14965860D01*
X-14778687Y-14964838D01*
X-14653643Y-14839794D01*
X-14645370Y-14836367D01*
X-14638482Y-14838610D01*
X-14622422Y-14850309D01*
X-14596338Y-14858494D01*
X-14595495Y-14858508D01*
X-14595494Y-14858508D01*
X-14584715Y-14858684D01*
X-14569305Y-14858936D01*
X-14542310Y-14853300D01*
X-14541868Y-14853129D01*
X-14541865Y-14853128D01*
X-14530119Y-14848581D01*
X-14516343Y-14843249D01*
X-14492392Y-14830447D01*
X-14471444Y-14816557D01*
X-14454488Y-14803243D01*
X-14442513Y-14792170D01*
X-14442278Y-14791889D01*
X-14442269Y-14791880D01*
X-14441778Y-14791294D01*
X-14433837Y-14787156D01*
X-14428791Y-14787824D01*
G37*
%TD.AperFunction*%
%TD*%
%TA.AperFunction,Conductor*%
%TO.N,GND*%
G36*
X-36096379Y-528502D02*
G01*
X-36049886Y-582158D01*
X-36038500Y-634500D01*
X-36038500Y-2378134D01*
X-36031745Y-2440316D01*
X-35980615Y-2576705D01*
X-35893261Y-2693261D01*
X-35776705Y-2780615D01*
X-35640316Y-2831745D01*
X-35578134Y-2838500D01*
X-33781866Y-2838500D01*
X-33719684Y-2831745D01*
X-33583295Y-2780615D01*
X-33466739Y-2693261D01*
X-33379385Y-2576705D01*
X-33365532Y-2539753D01*
X-33335202Y-2458848D01*
X-33292560Y-2402084D01*
X-33225999Y-2377384D01*
X-33156650Y-2392592D01*
X-33121983Y-2420580D01*
X-33096782Y-2449673D01*
X-33089420Y-2456883D01*
X-32925566Y-2592916D01*
X-32917119Y-2598831D01*
X-32733244Y-2706279D01*
X-32723958Y-2710729D01*
X-32524999Y-2786703D01*
X-32515101Y-2789579D01*
X-32411750Y-2810606D01*
X-32397701Y-2809410D01*
X-32394000Y-2799065D01*
X-32394000Y-1352000D01*
X-32373998Y-1283879D01*
X-32320342Y-1237386D01*
X-32268000Y-1226000D01*
X-32012000Y-1226000D01*
X-31943879Y-1246002D01*
X-31897386Y-1299658D01*
X-31886000Y-1352000D01*
X-31886000Y-2798517D01*
X-31881936Y-2812359D01*
X-31868522Y-2814393D01*
X-31861816Y-2813534D01*
X-31851738Y-2811392D01*
X-31647745Y-2750191D01*
X-31638158Y-2746433D01*
X-31446905Y-2652739D01*
X-31438055Y-2647464D01*
X-31264672Y-2523792D01*
X-31256800Y-2517139D01*
X-31105948Y-2366812D01*
X-31099270Y-2358965D01*
X-30971978Y-2181819D01*
X-30970721Y-2182722D01*
X-30923627Y-2139362D01*
X-30853689Y-2127145D01*
X-30788249Y-2154678D01*
X-30760421Y-2186511D01*
X-30700013Y-2285088D01*
X-30553750Y-2453938D01*
X-30381874Y-2596632D01*
X-30189000Y-2709338D01*
X-30184175Y-2711180D01*
X-30184174Y-2711181D01*
X-30143125Y-2726856D01*
X-29980308Y-2789030D01*
X-29975240Y-2790061D01*
X-29975237Y-2790062D01*
X-29870396Y-2811392D01*
X-29761403Y-2833567D01*
X-29756228Y-2833757D01*
X-29756226Y-2833757D01*
X-29543327Y-2841564D01*
X-29543323Y-2841564D01*
X-29538163Y-2841753D01*
X-29533043Y-2841097D01*
X-29533041Y-2841097D01*
X-29321712Y-2814025D01*
X-29321711Y-2814025D01*
X-29316584Y-2813368D01*
X-29311634Y-2811883D01*
X-29107571Y-2750661D01*
X-29107566Y-2750659D01*
X-29102616Y-2749174D01*
X-28902006Y-2650896D01*
X-28720140Y-2521173D01*
X-28561904Y-2363489D01*
X-28558884Y-2359287D01*
X-28431547Y-2182077D01*
X-28430360Y-2182930D01*
X-28383040Y-2139362D01*
X-28313103Y-2127145D01*
X-28247662Y-2154678D01*
X-28219834Y-2186511D01*
X-28162306Y-2280388D01*
X-28156223Y-2288699D01*
X-28016787Y-2449667D01*
X-28009420Y-2456883D01*
X-27845566Y-2592916D01*
X-27837119Y-2598831D01*
X-27653244Y-2706279D01*
X-27643958Y-2710729D01*
X-27444999Y-2786703D01*
X-27435101Y-2789579D01*
X-27331750Y-2810606D01*
X-27317701Y-2809410D01*
X-27314000Y-2799065D01*
X-27314000Y-1352000D01*
X-27293998Y-1283879D01*
X-27240342Y-1237386D01*
X-27188000Y-1226000D01*
X-26932000Y-1226000D01*
X-26863879Y-1246002D01*
X-26817386Y-1299658D01*
X-26806000Y-1352000D01*
X-26806000Y-2798517D01*
X-26801936Y-2812359D01*
X-26788522Y-2814393D01*
X-26781816Y-2813534D01*
X-26771738Y-2811392D01*
X-26567745Y-2750191D01*
X-26558158Y-2746433D01*
X-26366905Y-2652739D01*
X-26358055Y-2647464D01*
X-26184672Y-2523792D01*
X-26176800Y-2517139D01*
X-26025948Y-2366812D01*
X-26019270Y-2358965D01*
X-25891978Y-2181819D01*
X-25890721Y-2182722D01*
X-25843627Y-2139362D01*
X-25773689Y-2127145D01*
X-25708249Y-2154678D01*
X-25680421Y-2186511D01*
X-25620013Y-2285088D01*
X-25473750Y-2453938D01*
X-25301874Y-2596632D01*
X-25109000Y-2709338D01*
X-25104175Y-2711180D01*
X-25104174Y-2711181D01*
X-25063125Y-2726856D01*
X-24900308Y-2789030D01*
X-24895240Y-2790061D01*
X-24895237Y-2790062D01*
X-24790396Y-2811392D01*
X-24681403Y-2833567D01*
X-24676228Y-2833757D01*
X-24676226Y-2833757D01*
X-24463327Y-2841564D01*
X-24463323Y-2841564D01*
X-24458163Y-2841753D01*
X-24453043Y-2841097D01*
X-24453041Y-2841097D01*
X-24241712Y-2814025D01*
X-24241711Y-2814025D01*
X-24236584Y-2813368D01*
X-24231634Y-2811883D01*
X-24027571Y-2750661D01*
X-24027566Y-2750659D01*
X-24022616Y-2749174D01*
X-23822006Y-2650896D01*
X-23640140Y-2521173D01*
X-23481904Y-2363489D01*
X-23478884Y-2359287D01*
X-23351547Y-2182077D01*
X-23350224Y-2183028D01*
X-23303355Y-2139857D01*
X-23233420Y-2127625D01*
X-23167974Y-2155144D01*
X-23140125Y-2186994D01*
X-23080013Y-2285088D01*
X-22933750Y-2453938D01*
X-22761874Y-2596632D01*
X-22569000Y-2709338D01*
X-22564175Y-2711180D01*
X-22564174Y-2711181D01*
X-22523125Y-2726856D01*
X-22360308Y-2789030D01*
X-22355240Y-2790061D01*
X-22355237Y-2790062D01*
X-22250396Y-2811392D01*
X-22141403Y-2833567D01*
X-22136228Y-2833757D01*
X-22136226Y-2833757D01*
X-21923327Y-2841564D01*
X-21923323Y-2841564D01*
X-21918163Y-2841753D01*
X-21913043Y-2841097D01*
X-21913041Y-2841097D01*
X-21701712Y-2814025D01*
X-21701711Y-2814025D01*
X-21696584Y-2813368D01*
X-21691634Y-2811883D01*
X-21487571Y-2750661D01*
X-21487566Y-2750659D01*
X-21482616Y-2749174D01*
X-21282006Y-2650896D01*
X-21100140Y-2521173D01*
X-20941904Y-2363489D01*
X-20938884Y-2359287D01*
X-20811547Y-2182077D01*
X-20810224Y-2183028D01*
X-20763355Y-2139857D01*
X-20693420Y-2127625D01*
X-20627974Y-2155144D01*
X-20600125Y-2186994D01*
X-20540013Y-2285088D01*
X-20393750Y-2453938D01*
X-20221874Y-2596632D01*
X-20029000Y-2709338D01*
X-20024175Y-2711180D01*
X-20024174Y-2711181D01*
X-19983125Y-2726856D01*
X-19820308Y-2789030D01*
X-19815240Y-2790061D01*
X-19815237Y-2790062D01*
X-19710396Y-2811392D01*
X-19601403Y-2833567D01*
X-19596228Y-2833757D01*
X-19596226Y-2833757D01*
X-19383327Y-2841564D01*
X-19383323Y-2841564D01*
X-19378163Y-2841753D01*
X-19373043Y-2841097D01*
X-19373041Y-2841097D01*
X-19161712Y-2814025D01*
X-19161711Y-2814025D01*
X-19156584Y-2813368D01*
X-19151634Y-2811883D01*
X-18947571Y-2750661D01*
X-18947566Y-2750659D01*
X-18942616Y-2749174D01*
X-18742006Y-2650896D01*
X-18560140Y-2521173D01*
X-18401904Y-2363489D01*
X-18398884Y-2359287D01*
X-18271547Y-2182077D01*
X-18270224Y-2183028D01*
X-18223355Y-2139857D01*
X-18153420Y-2127625D01*
X-18087974Y-2155144D01*
X-18060125Y-2186994D01*
X-18000013Y-2285088D01*
X-17853750Y-2453938D01*
X-17681874Y-2596632D01*
X-17489000Y-2709338D01*
X-17484175Y-2711180D01*
X-17484174Y-2711181D01*
X-17443125Y-2726856D01*
X-17280308Y-2789030D01*
X-17275240Y-2790061D01*
X-17275237Y-2790062D01*
X-17170396Y-2811392D01*
X-17061403Y-2833567D01*
X-17056228Y-2833757D01*
X-17056226Y-2833757D01*
X-16843327Y-2841564D01*
X-16843323Y-2841564D01*
X-16838163Y-2841753D01*
X-16833043Y-2841097D01*
X-16833041Y-2841097D01*
X-16621712Y-2814025D01*
X-16621711Y-2814025D01*
X-16616584Y-2813368D01*
X-16611634Y-2811883D01*
X-16407571Y-2750661D01*
X-16407566Y-2750659D01*
X-16402616Y-2749174D01*
X-16202006Y-2650896D01*
X-16020140Y-2521173D01*
X-15861904Y-2363489D01*
X-15858884Y-2359287D01*
X-15731547Y-2182077D01*
X-15730224Y-2183028D01*
X-15683355Y-2139857D01*
X-15613420Y-2127625D01*
X-15547974Y-2155144D01*
X-15520125Y-2186994D01*
X-15460013Y-2285088D01*
X-15313750Y-2453938D01*
X-15141874Y-2596632D01*
X-14949000Y-2709338D01*
X-14944175Y-2711180D01*
X-14944174Y-2711181D01*
X-14903125Y-2726856D01*
X-14740308Y-2789030D01*
X-14735240Y-2790061D01*
X-14735237Y-2790062D01*
X-14630396Y-2811392D01*
X-14521403Y-2833567D01*
X-14516228Y-2833757D01*
X-14516226Y-2833757D01*
X-14303327Y-2841564D01*
X-14303323Y-2841564D01*
X-14298163Y-2841753D01*
X-14293043Y-2841097D01*
X-14293041Y-2841097D01*
X-14081712Y-2814025D01*
X-14081711Y-2814025D01*
X-14076584Y-2813368D01*
X-14071634Y-2811883D01*
X-13867571Y-2750661D01*
X-13867566Y-2750659D01*
X-13862616Y-2749174D01*
X-13662006Y-2650896D01*
X-13480140Y-2521173D01*
X-13321904Y-2363489D01*
X-13318884Y-2359287D01*
X-13191547Y-2182077D01*
X-13190224Y-2183028D01*
X-13143355Y-2139857D01*
X-13073420Y-2127625D01*
X-13007974Y-2155144D01*
X-12980125Y-2186994D01*
X-12920013Y-2285088D01*
X-12773750Y-2453938D01*
X-12601874Y-2596632D01*
X-12409000Y-2709338D01*
X-12404175Y-2711180D01*
X-12404174Y-2711181D01*
X-12363125Y-2726856D01*
X-12200308Y-2789030D01*
X-12195240Y-2790061D01*
X-12195237Y-2790062D01*
X-12090396Y-2811392D01*
X-11981403Y-2833567D01*
X-11976228Y-2833757D01*
X-11976226Y-2833757D01*
X-11763327Y-2841564D01*
X-11763323Y-2841564D01*
X-11758163Y-2841753D01*
X-11753043Y-2841097D01*
X-11753041Y-2841097D01*
X-11541712Y-2814025D01*
X-11541711Y-2814025D01*
X-11536584Y-2813368D01*
X-11531634Y-2811883D01*
X-11327571Y-2750661D01*
X-11327566Y-2750659D01*
X-11322616Y-2749174D01*
X-11122006Y-2650896D01*
X-10940140Y-2521173D01*
X-10781904Y-2363489D01*
X-10778884Y-2359287D01*
X-10651547Y-2182077D01*
X-10650224Y-2183028D01*
X-10603355Y-2139857D01*
X-10533420Y-2127625D01*
X-10467974Y-2155144D01*
X-10440125Y-2186994D01*
X-10380013Y-2285088D01*
X-10233750Y-2453938D01*
X-10061874Y-2596632D01*
X-9869000Y-2709338D01*
X-9864175Y-2711180D01*
X-9864174Y-2711181D01*
X-9823125Y-2726856D01*
X-9660308Y-2789030D01*
X-9655240Y-2790061D01*
X-9655237Y-2790062D01*
X-9550396Y-2811392D01*
X-9441403Y-2833567D01*
X-9436228Y-2833757D01*
X-9436226Y-2833757D01*
X-9223327Y-2841564D01*
X-9223323Y-2841564D01*
X-9218163Y-2841753D01*
X-9213043Y-2841097D01*
X-9213041Y-2841097D01*
X-9001712Y-2814025D01*
X-9001711Y-2814025D01*
X-8996584Y-2813368D01*
X-8991634Y-2811883D01*
X-8787571Y-2750661D01*
X-8787566Y-2750659D01*
X-8782616Y-2749174D01*
X-8582006Y-2650896D01*
X-8400140Y-2521173D01*
X-8241904Y-2363489D01*
X-8238884Y-2359287D01*
X-8111547Y-2182077D01*
X-8110224Y-2183028D01*
X-8063355Y-2139857D01*
X-7993420Y-2127625D01*
X-7927974Y-2155144D01*
X-7900125Y-2186994D01*
X-7840013Y-2285088D01*
X-7693750Y-2453938D01*
X-7521874Y-2596632D01*
X-7517419Y-2599235D01*
X-7517408Y-2599243D01*
X-7467524Y-2628393D01*
X-7447768Y-2642667D01*
X-7438559Y-2650787D01*
X-7434799Y-2653249D01*
X-7434793Y-2653254D01*
X-7406167Y-2672001D01*
X-7397548Y-2678179D01*
X-7396849Y-2678726D01*
X-7355529Y-2736460D01*
X-7348500Y-2777955D01*
X-7348500Y-2871497D01*
X-7368502Y-2939618D01*
X-7385405Y-2960592D01*
X-10411612Y-5986799D01*
X-10473924Y-6020825D01*
X-10544739Y-6015760D01*
X-10577221Y-5997287D01*
X-10579361Y-5995132D01*
X-10723039Y-5903951D01*
X-10883347Y-5846868D01*
X-11052318Y-5826720D01*
X-11059321Y-5827456D01*
X-11059322Y-5827456D01*
X-11214546Y-5843770D01*
X-11214550Y-5843771D01*
X-11221554Y-5844507D01*
X-11228225Y-5846778D01*
X-11375974Y-5897075D01*
X-11375977Y-5897076D01*
X-11382644Y-5899346D01*
X-11388642Y-5903036D01*
X-11388644Y-5903037D01*
X-11521582Y-5984821D01*
X-11521584Y-5984823D01*
X-11527581Y-5988512D01*
X-11649161Y-6107573D01*
X-11652972Y-6113487D01*
X-11652974Y-6113489D01*
X-11702195Y-6189865D01*
X-11741343Y-6250610D01*
X-11799544Y-6410516D01*
X-11800427Y-6417508D01*
X-11801974Y-6429753D01*
X-11832988Y-6497876D01*
X-11867123Y-6536111D01*
X-11868729Y-6538831D01*
X-11878893Y-6550697D01*
X-12762791Y-7434595D01*
X-12825103Y-7468621D01*
X-12851886Y-7471500D01*
X-14012606Y-7471500D01*
X-14080727Y-7451498D01*
X-14127220Y-7397842D01*
X-14131597Y-7386938D01*
X-14158079Y-7310892D01*
X-14161632Y-7300689D01*
X-14167617Y-7291110D01*
X-14217464Y-7211340D01*
X-14236045Y-7150062D01*
X-14236457Y-7150085D01*
X-14239162Y-7102348D01*
X-14239163Y-7102343D01*
X-14239511Y-7096198D01*
X-14240297Y-7093147D01*
X-14241500Y-7077579D01*
X-14241500Y-6488144D01*
X-14240422Y-6471698D01*
X-14237327Y-6448188D01*
X-14236249Y-6440000D01*
X-14257162Y-6281150D01*
X-14261237Y-6271310D01*
X-14299833Y-6178132D01*
X-14318476Y-6133124D01*
X-14391522Y-6037929D01*
X-14391526Y-6037925D01*
X-14404647Y-6020825D01*
X-14410984Y-6012566D01*
X-14410987Y-6012563D01*
X-14416013Y-6006013D01*
X-14430193Y-5995132D01*
X-14441379Y-5986548D01*
X-14453770Y-5975681D01*
X-15235685Y-5193766D01*
X-15246552Y-5181375D01*
X-15260987Y-5162563D01*
X-15266013Y-5156013D01*
X-15297925Y-5131526D01*
X-15297928Y-5131523D01*
X-15343478Y-5096571D01*
X-15386571Y-5063504D01*
X-15386573Y-5063503D01*
X-15393124Y-5058476D01*
X-15541149Y-4997162D01*
X-15549336Y-4996084D01*
X-15549337Y-4996084D01*
X-15560542Y-4994609D01*
X-15591738Y-4990502D01*
X-15660115Y-4981500D01*
X-15660118Y-4981500D01*
X-15660126Y-4981499D01*
X-15691811Y-4977328D01*
X-15700000Y-4976250D01*
X-15731693Y-4980422D01*
X-15748136Y-4981500D01*
X-22342704Y-4981500D01*
X-22410825Y-4961498D01*
X-22457318Y-4907842D01*
X-22468014Y-4868671D01*
X-22484945Y-4707589D01*
X-22484945Y-4707588D01*
X-22485635Y-4701025D01*
X-22489112Y-4690322D01*
X-22539359Y-4535678D01*
X-22541401Y-4529393D01*
X-22631633Y-4373107D01*
X-22752387Y-4238996D01*
X-22775779Y-4222000D01*
X-22893043Y-4136803D01*
X-22893044Y-4136802D01*
X-22898385Y-4132922D01*
X-22904413Y-4130238D01*
X-22904415Y-4130237D01*
X-23057217Y-4062205D01*
X-23057219Y-4062205D01*
X-23063248Y-4059520D01*
X-23151508Y-4040760D01*
X-23233311Y-4023372D01*
X-23233315Y-4023372D01*
X-23239768Y-4022000D01*
X-23420232Y-4022000D01*
X-23426685Y-4023372D01*
X-23426689Y-4023372D01*
X-23508492Y-4040760D01*
X-23596752Y-4059520D01*
X-23602781Y-4062204D01*
X-23602783Y-4062205D01*
X-23755584Y-4130237D01*
X-23755586Y-4130238D01*
X-23761614Y-4132922D01*
X-23766955Y-4136802D01*
X-23766956Y-4136803D01*
X-23843505Y-4192419D01*
X-23916548Y-4216479D01*
X-23932768Y-4216610D01*
X-23964656Y-4216868D01*
X-23965200Y-4216871D01*
X-23992129Y-4216933D01*
X-24007872Y-4216970D01*
X-24007878Y-4216970D01*
X-24009523Y-4216974D01*
X-24063820Y-4219980D01*
X-24067033Y-4220804D01*
X-24082619Y-4222000D01*
X-24878097Y-4222000D01*
X-24896121Y-4220704D01*
X-24921811Y-4216991D01*
X-24960314Y-4216963D01*
X-24969703Y-4216956D01*
X-24970065Y-4216955D01*
X-25026093Y-4216753D01*
X-25026757Y-4216749D01*
X-25050305Y-4216540D01*
X-25123248Y-4192481D01*
X-25173042Y-4156303D01*
X-25173048Y-4156299D01*
X-25178385Y-4152422D01*
X-25184413Y-4149738D01*
X-25337217Y-4081705D01*
X-25337219Y-4081705D01*
X-25343248Y-4079020D01*
X-25441444Y-4058148D01*
X-25513311Y-4042872D01*
X-25513315Y-4042872D01*
X-25519768Y-4041500D01*
X-25700232Y-4041500D01*
X-25706685Y-4042872D01*
X-25706689Y-4042872D01*
X-25778556Y-4058148D01*
X-25876752Y-4079020D01*
X-25882781Y-4081704D01*
X-25882783Y-4081705D01*
X-26035584Y-4149737D01*
X-26035586Y-4149738D01*
X-26041614Y-4152422D01*
X-26046955Y-4156302D01*
X-26046956Y-4156303D01*
X-26182269Y-4254613D01*
X-26182271Y-4254615D01*
X-26187613Y-4258496D01*
X-26308367Y-4392607D01*
X-26311668Y-4398325D01*
X-26384036Y-4523670D01*
X-26398599Y-4548893D01*
X-26400641Y-4555178D01*
X-26437080Y-4667328D01*
X-26454365Y-4720525D01*
X-26473229Y-4900000D01*
X-26472539Y-4906565D01*
X-26462684Y-5000322D01*
X-26454365Y-5079475D01*
X-26452325Y-5085753D01*
X-26452325Y-5085754D01*
X-26432090Y-5148031D01*
X-26430063Y-5218999D01*
X-26466725Y-5279797D01*
X-26530438Y-5311122D01*
X-26600971Y-5303028D01*
X-26619437Y-5293353D01*
X-26735990Y-5219387D01*
X-26748576Y-5213248D01*
X-26833934Y-5182853D01*
X-26848013Y-5182057D01*
X-26851000Y-5187727D01*
X-26851000Y-6497885D01*
X-26846525Y-6513124D01*
X-26845135Y-6514329D01*
X-26837452Y-6516000D01*
X-26300115Y-6516000D01*
X-26284876Y-6511525D01*
X-26283671Y-6510135D01*
X-26282000Y-6502452D01*
X-26282000Y-5917095D01*
X-26282393Y-5910071D01*
X-26296589Y-5783510D01*
X-26299690Y-5769860D01*
X-26311881Y-5734851D01*
X-26315393Y-5663941D01*
X-26280011Y-5602389D01*
X-26216969Y-5569737D01*
X-26146281Y-5576352D01*
X-26118830Y-5591478D01*
X-26041615Y-5647578D01*
X-26035587Y-5650262D01*
X-26035585Y-5650263D01*
X-25895464Y-5712649D01*
X-25876752Y-5720980D01*
X-25811493Y-5734851D01*
X-25706689Y-5757128D01*
X-25706685Y-5757128D01*
X-25700232Y-5758500D01*
X-25519768Y-5758500D01*
X-25513315Y-5757128D01*
X-25513311Y-5757128D01*
X-25353128Y-5723080D01*
X-25282337Y-5728482D01*
X-25225704Y-5771299D01*
X-25207373Y-5806555D01*
X-25172906Y-5910167D01*
X-25169259Y-5916189D01*
X-25169258Y-5916191D01*
X-25095530Y-6037929D01*
X-25084754Y-6055723D01*
X-24966545Y-6178132D01*
X-24931128Y-6201308D01*
X-24845667Y-6257232D01*
X-24824154Y-6271310D01*
X-24817550Y-6273766D01*
X-24817548Y-6273767D01*
X-24744406Y-6300968D01*
X-24664659Y-6330626D01*
X-24495985Y-6353132D01*
X-24488974Y-6352494D01*
X-24488970Y-6352494D01*
X-24333538Y-6338348D01*
X-24326517Y-6337709D01*
X-24319815Y-6335531D01*
X-24319813Y-6335531D01*
X-24171377Y-6287301D01*
X-24171374Y-6287300D01*
X-24164678Y-6285124D01*
X-24057312Y-6221121D01*
X-23999544Y-6204281D01*
X-23999586Y-6203543D01*
X-23945721Y-6200492D01*
X-23942659Y-6199704D01*
X-23927082Y-6198500D01*
X-16004239Y-6198500D01*
X-15936118Y-6218502D01*
X-15915144Y-6235405D01*
X-15495405Y-6655144D01*
X-15461379Y-6717456D01*
X-15458500Y-6744239D01*
X-15458500Y-7106705D01*
X-15459856Y-7125142D01*
X-15463543Y-7150067D01*
X-15463560Y-7154185D01*
X-15483255Y-7212841D01*
X-15533696Y-7291110D01*
X-15537182Y-7300689D01*
X-15569178Y-7388595D01*
X-15611273Y-7445766D01*
X-15677594Y-7471104D01*
X-15687579Y-7471500D01*
X-16146890Y-7471500D01*
X-16163336Y-7470422D01*
X-16186838Y-7467328D01*
X-16195026Y-7466250D01*
X-16203214Y-7467328D01*
X-16234897Y-7471499D01*
X-16234906Y-7471500D01*
X-16234911Y-7471500D01*
X-16353876Y-7487162D01*
X-16501901Y-7548476D01*
X-16501903Y-7548477D01*
X-16501902Y-7548477D01*
X-16597098Y-7621523D01*
X-16597101Y-7621526D01*
X-16629013Y-7646013D01*
X-16634043Y-7652568D01*
X-16648478Y-7671379D01*
X-16659345Y-7683770D01*
X-19071873Y-10096298D01*
X-19084264Y-10107165D01*
X-19142072Y-10151523D01*
X-19142075Y-10151526D01*
X-19173987Y-10176013D01*
X-19179017Y-10182568D01*
X-19193452Y-10201379D01*
X-19204319Y-10213770D01*
X-21261221Y-12270672D01*
X-21323533Y-12304698D01*
X-21394348Y-12299633D01*
X-21451184Y-12257086D01*
X-21469307Y-12223014D01*
X-21471907Y-12215546D01*
X-21501632Y-12130189D01*
X-21591808Y-11985879D01*
X-21711714Y-11865132D01*
X-21727017Y-11855420D01*
X-21787503Y-11817035D01*
X-21855392Y-11773951D01*
X-22015700Y-11716868D01*
X-22184671Y-11696720D01*
X-22191674Y-11697456D01*
X-22191675Y-11697456D01*
X-22346899Y-11713770D01*
X-22346903Y-11713771D01*
X-22353907Y-11714507D01*
X-22360578Y-11716778D01*
X-22508327Y-11767075D01*
X-22508330Y-11767076D01*
X-22514997Y-11769346D01*
X-22520995Y-11773036D01*
X-22520997Y-11773037D01*
X-22610236Y-11827937D01*
X-22670460Y-11845978D01*
X-22670433Y-11846457D01*
X-22718150Y-11849162D01*
X-22718152Y-11849162D01*
X-22724302Y-11849511D01*
X-22727354Y-11850297D01*
X-22742922Y-11851500D01*
X-25995761Y-11851500D01*
X-26063882Y-11831498D01*
X-26084856Y-11814595D01*
X-28364595Y-9534856D01*
X-28398621Y-9472544D01*
X-28401500Y-9445761D01*
X-28401500Y-8523817D01*
X-28381498Y-8455696D01*
X-28327842Y-8409203D01*
X-28288671Y-8398507D01*
X-28204160Y-8389624D01*
X-28190485Y-8386618D01*
X-28029033Y-8331655D01*
X-28016367Y-8325694D01*
X-27871103Y-8236328D01*
X-27860076Y-8227712D01*
X-27828629Y-8196917D01*
X-27765964Y-8163547D01*
X-27695205Y-8169353D01*
X-27651065Y-8198157D01*
X-27628921Y-8220456D01*
X-27618012Y-8229227D01*
X-27474010Y-8320613D01*
X-27461424Y-8326752D01*
X-27376066Y-8357147D01*
X-27361987Y-8357943D01*
X-27359000Y-8352273D01*
X-27359000Y-8344848D01*
X-26851000Y-8344848D01*
X-26847027Y-8358379D01*
X-26840353Y-8359338D01*
X-26759033Y-8331655D01*
X-26746367Y-8325694D01*
X-26601103Y-8236328D01*
X-26590071Y-8227708D01*
X-26468217Y-8108380D01*
X-26459369Y-8097530D01*
X-26366983Y-7954176D01*
X-26360753Y-7941627D01*
X-26302423Y-7781366D01*
X-26299131Y-7767758D01*
X-26282497Y-7636081D01*
X-26282000Y-7628190D01*
X-26282000Y-7042115D01*
X-26286475Y-7026876D01*
X-26287865Y-7025671D01*
X-26295548Y-7024000D01*
X-26832885Y-7024000D01*
X-26848124Y-7028475D01*
X-26849329Y-7029865D01*
X-26851000Y-7037548D01*
X-26851000Y-8344848D01*
X-27359000Y-8344848D01*
X-27359000Y-7042115D01*
X-27363475Y-7026876D01*
X-27364865Y-7025671D01*
X-27372548Y-7024000D01*
X-28275500Y-7024000D01*
X-28343621Y-7003998D01*
X-28390114Y-6950342D01*
X-28401500Y-6898000D01*
X-28401500Y-6497885D01*
X-28121000Y-6497885D01*
X-28116525Y-6513124D01*
X-28115135Y-6514329D01*
X-28107452Y-6516000D01*
X-27377115Y-6516000D01*
X-27361876Y-6511525D01*
X-27360671Y-6510135D01*
X-27359000Y-6502452D01*
X-27359000Y-5195152D01*
X-27362973Y-5181621D01*
X-27369647Y-5180662D01*
X-27450967Y-5208345D01*
X-27463633Y-5214306D01*
X-27608897Y-5303672D01*
X-27619924Y-5312288D01*
X-27651371Y-5343083D01*
X-27714036Y-5376453D01*
X-27784795Y-5370647D01*
X-27828935Y-5341843D01*
X-27851079Y-5319544D01*
X-27861988Y-5310773D01*
X-28005990Y-5219387D01*
X-28018576Y-5213248D01*
X-28103934Y-5182853D01*
X-28118013Y-5182057D01*
X-28121000Y-5187727D01*
X-28121000Y-6497885D01*
X-28401500Y-6497885D01*
X-28401500Y-5458136D01*
X-28400422Y-5441690D01*
X-28397328Y-5418188D01*
X-28396250Y-5410000D01*
X-28401500Y-5370120D01*
X-28401500Y-5370115D01*
X-28409113Y-5312288D01*
X-28415109Y-5266741D01*
X-28415110Y-5266739D01*
X-28417162Y-5251150D01*
X-28417162Y-5251149D01*
X-28478476Y-5103124D01*
X-28551522Y-5007929D01*
X-28551526Y-5007925D01*
X-28557360Y-5000322D01*
X-28570984Y-4982566D01*
X-28570987Y-4982563D01*
X-28576013Y-4976013D01*
X-28582568Y-4970983D01*
X-28601379Y-4956548D01*
X-28613770Y-4945681D01*
X-28675685Y-4883766D01*
X-28686552Y-4871375D01*
X-28700987Y-4852563D01*
X-28706013Y-4846013D01*
X-28737925Y-4821526D01*
X-28737931Y-4821520D01*
X-28826571Y-4753504D01*
X-28826573Y-4753503D01*
X-28833124Y-4748476D01*
X-28981149Y-4687162D01*
X-28989336Y-4686084D01*
X-28989337Y-4686084D01*
X-29000542Y-4684609D01*
X-29031738Y-4680502D01*
X-29100115Y-4671500D01*
X-29100118Y-4671500D01*
X-29100126Y-4671499D01*
X-29131811Y-4667328D01*
X-29140000Y-4666250D01*
X-29171693Y-4670422D01*
X-29188136Y-4671500D01*
X-30771864Y-4671500D01*
X-30788307Y-4670422D01*
X-30820000Y-4666250D01*
X-30828189Y-4667328D01*
X-30859874Y-4671499D01*
X-30859883Y-4671500D01*
X-30859885Y-4671500D01*
X-30859891Y-4671501D01*
X-30859893Y-4671501D01*
X-30959457Y-4684609D01*
X-30970664Y-4686084D01*
X-30970666Y-4686085D01*
X-30978851Y-4687162D01*
X-31126876Y-4748476D01*
X-31172695Y-4783634D01*
X-31222063Y-4821515D01*
X-31222079Y-4821529D01*
X-31247434Y-4840984D01*
X-31247437Y-4840987D01*
X-31253987Y-4846013D01*
X-31259017Y-4852568D01*
X-31273452Y-4871379D01*
X-31284319Y-4883770D01*
X-31351234Y-4950685D01*
X-31363625Y-4961552D01*
X-31388987Y-4981013D01*
X-31413474Y-5012925D01*
X-31413477Y-5012928D01*
X-31413483Y-5012936D01*
X-31479505Y-5098977D01*
X-31486524Y-5108124D01*
X-31545767Y-5251149D01*
X-31547838Y-5256150D01*
X-31563500Y-5375115D01*
X-31563500Y-5375120D01*
X-31568750Y-5415000D01*
X-31568381Y-5417800D01*
X-31587761Y-5483644D01*
X-31657286Y-5591526D01*
X-31659695Y-5598146D01*
X-31659697Y-5598149D01*
X-31714493Y-5748699D01*
X-31720475Y-5765135D01*
X-31738500Y-5907820D01*
X-31738500Y-7626457D01*
X-31723117Y-7763600D01*
X-31720800Y-7770253D01*
X-31720800Y-7770254D01*
X-31710383Y-7800167D01*
X-31662359Y-7938074D01*
X-31658626Y-7944048D01*
X-31658625Y-7944050D01*
X-31642642Y-7969628D01*
X-31564455Y-8094752D01*
X-31559492Y-8099750D01*
X-31559491Y-8099751D01*
X-31439237Y-8220848D01*
X-31439233Y-8220851D01*
X-31434273Y-8225846D01*
X-31428326Y-8229620D01*
X-31284945Y-8320613D01*
X-31278283Y-8324841D01*
X-31271640Y-8327206D01*
X-31271641Y-8327206D01*
X-31110872Y-8384454D01*
X-31110867Y-8384455D01*
X-31104237Y-8386816D01*
X-31097251Y-8387649D01*
X-31097247Y-8387650D01*
X-30966100Y-8403288D01*
X-30920785Y-8408691D01*
X-30913782Y-8407955D01*
X-30913781Y-8407955D01*
X-30862600Y-8402575D01*
X-30737046Y-8389379D01*
X-30730380Y-8387110D01*
X-30730377Y-8387109D01*
X-30568816Y-8332109D01*
X-30568813Y-8332108D01*
X-30562152Y-8329840D01*
X-30535521Y-8313456D01*
X-30467022Y-8294798D01*
X-30399307Y-8316137D01*
X-30353879Y-8370696D01*
X-30343500Y-8420774D01*
X-30343500Y-9882944D01*
X-30344059Y-9894800D01*
X-30345788Y-9902537D01*
X-30345539Y-9910459D01*
X-30343562Y-9973369D01*
X-30343500Y-9977327D01*
X-30343500Y-10006432D01*
X-30342944Y-10010832D01*
X-30342012Y-10022664D01*
X-30340562Y-10068831D01*
X-30338350Y-10076444D01*
X-30338350Y-10076445D01*
X-30334581Y-10089416D01*
X-30330570Y-10108782D01*
X-30327882Y-10130064D01*
X-30324966Y-10137429D01*
X-30324965Y-10137433D01*
X-30310874Y-10173021D01*
X-30307035Y-10184231D01*
X-30294145Y-10228600D01*
X-30283225Y-10247065D01*
X-30274534Y-10264805D01*
X-30266635Y-10284756D01*
X-30239938Y-10321501D01*
X-30239484Y-10322126D01*
X-30232967Y-10332048D01*
X-30213493Y-10364977D01*
X-30213490Y-10364981D01*
X-30209453Y-10371807D01*
X-30194289Y-10386971D01*
X-30181449Y-10402004D01*
X-30168841Y-10419357D01*
X-30134786Y-10447530D01*
X-30133248Y-10448802D01*
X-30124468Y-10456792D01*
X-29745405Y-10835855D01*
X-29711379Y-10898167D01*
X-29708500Y-10924950D01*
X-29708500Y-12085643D01*
X-29728502Y-12153764D01*
X-29782158Y-12200257D01*
X-29809228Y-12207645D01*
X-29808960Y-12208863D01*
X-29829514Y-12213382D01*
X-29990967Y-12268345D01*
X-30003635Y-12274307D01*
X-30064477Y-12311737D01*
X-30132978Y-12330396D01*
X-30200693Y-12309057D01*
X-30246121Y-12254498D01*
X-30256500Y-12204420D01*
X-30256500Y-11307059D01*
X-30255941Y-11295203D01*
X-30254211Y-11287463D01*
X-30256438Y-11216611D01*
X-30256500Y-11212653D01*
X-30256500Y-11183568D01*
X-30257054Y-11179179D01*
X-30257987Y-11167337D01*
X-30258371Y-11155100D01*
X-30259438Y-11121169D01*
X-30265420Y-11100579D01*
X-30269430Y-11081216D01*
X-30271125Y-11067796D01*
X-30271125Y-11067795D01*
X-30272118Y-11059936D01*
X-30275034Y-11052571D01*
X-30275035Y-11052567D01*
X-30289126Y-11016979D01*
X-30292965Y-11005769D01*
X-30305855Y-10961400D01*
X-30316775Y-10942935D01*
X-30325466Y-10925195D01*
X-30333365Y-10905244D01*
X-30360518Y-10867871D01*
X-30367033Y-10857952D01*
X-30386507Y-10825023D01*
X-30386510Y-10825019D01*
X-30390547Y-10818193D01*
X-30405711Y-10803029D01*
X-30418552Y-10787995D01*
X-30426499Y-10777057D01*
X-30431159Y-10770643D01*
X-30466753Y-10741197D01*
X-30475532Y-10733208D01*
X-30806345Y-10402395D01*
X-30814335Y-10393615D01*
X-30814337Y-10393613D01*
X-30818584Y-10386920D01*
X-30828702Y-10377418D01*
X-30870257Y-10338396D01*
X-30873099Y-10335641D01*
X-30893667Y-10315073D01*
X-30897174Y-10312353D01*
X-30906196Y-10304647D01*
X-30939867Y-10273028D01*
X-30946819Y-10269206D01*
X-30958658Y-10262697D01*
X-30975182Y-10251843D01*
X-30985868Y-10243555D01*
X-30992132Y-10238696D01*
X-30999404Y-10235549D01*
X-30999406Y-10235548D01*
X-31034535Y-10220346D01*
X-31045195Y-10215124D01*
X-31078716Y-10196695D01*
X-31078718Y-10196694D01*
X-31085663Y-10192876D01*
X-31106441Y-10187541D01*
X-31125131Y-10181142D01*
X-31144824Y-10172620D01*
X-31190448Y-10165394D01*
X-31202071Y-10162987D01*
X-31235369Y-10154438D01*
X-31246812Y-10151500D01*
X-31268259Y-10151500D01*
X-31287969Y-10149949D01*
X-31301323Y-10147834D01*
X-31309152Y-10146594D01*
X-31355141Y-10150941D01*
X-31366996Y-10151500D01*
X-31725119Y-10151500D01*
X-31793240Y-10131498D01*
X-31812588Y-10112205D01*
X-31830691Y-10104000D01*
X-32108621Y-10104000D01*
X-32172760Y-10086454D01*
X-32193580Y-10074141D01*
X-32193581Y-10074141D01*
X-32200403Y-10070106D01*
X-32208014Y-10067895D01*
X-32208016Y-10067894D01*
X-32292578Y-10043327D01*
X-32357746Y-10024394D01*
X-32364151Y-10023890D01*
X-32364156Y-10023889D01*
X-32392060Y-10021693D01*
X-32392068Y-10021693D01*
X-32394516Y-10021500D01*
X-32865484Y-10021500D01*
X-32867932Y-10021693D01*
X-32867940Y-10021693D01*
X-32895844Y-10023889D01*
X-32895849Y-10023890D01*
X-32902254Y-10024394D01*
X-32967422Y-10043327D01*
X-33051984Y-10067894D01*
X-33051986Y-10067895D01*
X-33059597Y-10070106D01*
X-33066419Y-10074141D01*
X-33066420Y-10074141D01*
X-33087240Y-10086454D01*
X-33151379Y-10104000D01*
X-33423558Y-10104000D01*
X-33437089Y-10107973D01*
X-33438224Y-10115870D01*
X-33434945Y-10127157D01*
X-33435149Y-10198154D01*
X-33473705Y-10257769D01*
X-33491800Y-10270759D01*
X-33516807Y-10285548D01*
X-33531968Y-10300709D01*
X-33547000Y-10313548D01*
X-33564357Y-10326159D01*
X-33574480Y-10338396D01*
X-33593802Y-10361752D01*
X-33601792Y-10370533D01*
X-34319611Y-11088351D01*
X-34328388Y-11096337D01*
X-34335080Y-11100584D01*
X-34355534Y-11122366D01*
X-34356100Y-11122881D01*
X-34356685Y-11123591D01*
X-34357824Y-11124804D01*
X-34383605Y-11152258D01*
X-34386360Y-11155100D01*
X-34406927Y-11175667D01*
X-34409644Y-11179170D01*
X-34417352Y-11188195D01*
X-34448972Y-11221867D01*
X-34452793Y-11228818D01*
X-34452794Y-11228819D01*
X-34459303Y-11240658D01*
X-34470157Y-11257182D01*
X-34477982Y-11267271D01*
X-34483304Y-11274132D01*
X-34486451Y-11281404D01*
X-34486452Y-11281406D01*
X-34501654Y-11316535D01*
X-34506876Y-11327195D01*
X-34529124Y-11367663D01*
X-34534459Y-11388441D01*
X-34540858Y-11407131D01*
X-34549380Y-11426824D01*
X-34550620Y-11434654D01*
X-34550621Y-11434657D01*
X-34556220Y-11470012D01*
X-34560862Y-11489318D01*
X-34567719Y-11510373D01*
X-34567738Y-11510434D01*
X-34568040Y-11511362D01*
X-34568452Y-11512777D01*
X-34576519Y-11544132D01*
X-34592875Y-11617180D01*
X-34593020Y-11617905D01*
X-34593025Y-11617929D01*
X-34594171Y-11623664D01*
X-34597502Y-11640329D01*
X-34597689Y-11641391D01*
X-34601266Y-11664876D01*
X-34601361Y-11665617D01*
X-34609224Y-11726692D01*
X-34637671Y-11791595D01*
X-34683614Y-11846349D01*
X-34706698Y-11873859D01*
X-34709662Y-11879251D01*
X-34709665Y-11879255D01*
X-34771566Y-11991854D01*
X-34797254Y-12038580D01*
X-34799115Y-12044447D01*
X-34799116Y-12044449D01*
X-34824419Y-12124213D01*
X-34854091Y-12217752D01*
X-34875044Y-12404552D01*
X-34874528Y-12410696D01*
X-34860221Y-12581071D01*
X-34859315Y-12591865D01*
X-34845056Y-12641593D01*
X-34815660Y-12744107D01*
X-34807503Y-12772555D01*
X-34804688Y-12778032D01*
X-34804687Y-12778035D01*
X-34738866Y-12906109D01*
X-34721582Y-12939740D01*
X-34717759Y-12944564D01*
X-34717756Y-12944568D01*
X-34617296Y-13071315D01*
X-34604823Y-13087052D01*
X-34600129Y-13091047D01*
X-34471374Y-13200626D01*
X-34461676Y-13208880D01*
X-34456298Y-13211886D01*
X-34456296Y-13211887D01*
X-34379633Y-13254732D01*
X-34297591Y-13300584D01*
X-34118820Y-13358670D01*
X-33932170Y-13380927D01*
X-33926035Y-13380455D01*
X-33926033Y-13380455D01*
X-33750895Y-13366979D01*
X-33750891Y-13366978D01*
X-33744753Y-13366506D01*
X-33659622Y-13342737D01*
X-33569650Y-13317616D01*
X-33569647Y-13317615D01*
X-33563706Y-13315956D01*
X-33558202Y-13313176D01*
X-33558200Y-13313175D01*
X-33401426Y-13233983D01*
X-33401424Y-13233982D01*
X-33395925Y-13231204D01*
X-33247801Y-13115477D01*
X-33229036Y-13093738D01*
X-33129006Y-12977852D01*
X-33129005Y-12977850D01*
X-33124977Y-12973184D01*
X-33032130Y-12809744D01*
X-32972797Y-12631382D01*
X-32949238Y-12444892D01*
X-32948862Y-12418000D01*
X-32967205Y-12230926D01*
X-32971848Y-12215546D01*
X-32999424Y-12124213D01*
X-33021535Y-12050977D01*
X-33109782Y-11885008D01*
X-33111043Y-11883462D01*
X-33131651Y-11817035D01*
X-33112689Y-11748618D01*
X-33094761Y-11726021D01*
X-33000890Y-11632150D01*
X-32938578Y-11598124D01*
X-32901910Y-11595633D01*
X-32880901Y-11597287D01*
X-32867938Y-11598307D01*
X-32867934Y-11598307D01*
X-32865484Y-11598500D01*
X-32394516Y-11598500D01*
X-32392068Y-11598307D01*
X-32392060Y-11598307D01*
X-32364156Y-11596111D01*
X-32364151Y-11596110D01*
X-32357746Y-11595606D01*
X-32258995Y-11566916D01*
X-32208016Y-11552106D01*
X-32208014Y-11552105D01*
X-32200403Y-11549894D01*
X-32193578Y-11545858D01*
X-32193574Y-11545856D01*
X-32092442Y-11486047D01*
X-32028303Y-11468500D01*
X-31699500Y-11468500D01*
X-31631379Y-11488502D01*
X-31584886Y-11542158D01*
X-31573500Y-11594500D01*
X-31573500Y-12484431D01*
X-31593589Y-12552686D01*
X-31653467Y-12645598D01*
X-31653471Y-12645607D01*
X-31657286Y-12651526D01*
X-31659695Y-12658146D01*
X-31659696Y-12658147D01*
X-31680305Y-12714771D01*
X-31720475Y-12825135D01*
X-31738500Y-12967820D01*
X-31738500Y-14686457D01*
X-31723117Y-14823600D01*
X-31720800Y-14830253D01*
X-31720800Y-14830254D01*
X-31696227Y-14900819D01*
X-31662359Y-14998074D01*
X-31658626Y-15004048D01*
X-31658625Y-15004050D01*
X-31632153Y-15046414D01*
X-31564455Y-15154752D01*
X-31559492Y-15159750D01*
X-31559491Y-15159751D01*
X-31439237Y-15280848D01*
X-31439233Y-15280851D01*
X-31434273Y-15285846D01*
X-31396036Y-15310112D01*
X-31294426Y-15374596D01*
X-31278283Y-15384841D01*
X-31265752Y-15389303D01*
X-31110872Y-15444454D01*
X-31110867Y-15444455D01*
X-31104237Y-15446816D01*
X-31097251Y-15447649D01*
X-31097247Y-15447650D01*
X-30969510Y-15462881D01*
X-30920785Y-15468691D01*
X-30913782Y-15467955D01*
X-30913781Y-15467955D01*
X-30852349Y-15461498D01*
X-30737046Y-15449379D01*
X-30730380Y-15447110D01*
X-30730377Y-15447109D01*
X-30568816Y-15392109D01*
X-30568813Y-15392108D01*
X-30562152Y-15389840D01*
X-30556152Y-15386149D01*
X-30410797Y-15296726D01*
X-30410794Y-15296723D01*
X-30404795Y-15293033D01*
X-30368274Y-15257270D01*
X-30305611Y-15223901D01*
X-30234853Y-15229707D01*
X-30190712Y-15258512D01*
X-30168921Y-15280456D01*
X-30158012Y-15289227D01*
X-30014005Y-15380617D01*
X-30001429Y-15386750D01*
X-29840756Y-15443964D01*
X-29827132Y-15447159D01*
X-29819580Y-15448060D01*
X-29754307Y-15475988D01*
X-29714495Y-15534771D01*
X-29708500Y-15573174D01*
X-29708500Y-16257944D01*
X-29709059Y-16269800D01*
X-29710788Y-16277537D01*
X-29710539Y-16285459D01*
X-29708562Y-16348369D01*
X-29708500Y-16352327D01*
X-29708500Y-16381432D01*
X-29707944Y-16385832D01*
X-29707012Y-16397664D01*
X-29705562Y-16443831D01*
X-29703350Y-16451444D01*
X-29703350Y-16451445D01*
X-29699581Y-16464416D01*
X-29695570Y-16483782D01*
X-29692882Y-16505064D01*
X-29689966Y-16512429D01*
X-29689965Y-16512433D01*
X-29675874Y-16548021D01*
X-29672035Y-16559231D01*
X-29659145Y-16603600D01*
X-29648225Y-16622065D01*
X-29639534Y-16639805D01*
X-29631635Y-16659756D01*
X-29616350Y-16680794D01*
X-29604484Y-16697126D01*
X-29597967Y-16707048D01*
X-29578493Y-16739977D01*
X-29578490Y-16739981D01*
X-29574453Y-16746807D01*
X-29559289Y-16761971D01*
X-29546449Y-16777004D01*
X-29533841Y-16794357D01*
X-29504783Y-16818396D01*
X-29498248Y-16823802D01*
X-29489468Y-16831792D01*
X-29065405Y-17255855D01*
X-29031379Y-17318167D01*
X-29028500Y-17344950D01*
X-29028500Y-17626394D01*
X-29048502Y-17694515D01*
X-29102158Y-17741008D01*
X-29172432Y-17751112D01*
X-29196559Y-17745167D01*
X-29256909Y-17723796D01*
X-29256917Y-17723794D01*
X-29261788Y-17722069D01*
X-29266881Y-17721162D01*
X-29266884Y-17721161D01*
X-29476627Y-17683800D01*
X-29476633Y-17683799D01*
X-29481716Y-17682894D01*
X-29555548Y-17681992D01*
X-29699919Y-17680228D01*
X-29699921Y-17680228D01*
X-29705089Y-17680165D01*
X-29925909Y-17713955D01*
X-30138244Y-17783357D01*
X-30336393Y-17886507D01*
X-30340526Y-17889610D01*
X-30340529Y-17889612D01*
X-30510900Y-18017530D01*
X-30515035Y-18020635D01*
X-30518607Y-18024373D01*
X-30647546Y-18159300D01*
X-30669371Y-18182138D01*
X-30776799Y-18339621D01*
X-30831707Y-18384621D01*
X-30902232Y-18392792D01*
X-30965979Y-18361538D01*
X-30986676Y-18337054D01*
X-31067178Y-18212617D01*
X-31067180Y-18212614D01*
X-31069986Y-18208277D01*
X-31220330Y-18043051D01*
X-31224381Y-18039852D01*
X-31224385Y-18039848D01*
X-31391586Y-17907800D01*
X-31391590Y-17907798D01*
X-31395641Y-17904598D01*
X-31404158Y-17899896D01*
X-31495515Y-17849465D01*
X-31591211Y-17796638D01*
X-31596080Y-17794914D01*
X-31596084Y-17794912D01*
X-31796913Y-17723795D01*
X-31796917Y-17723794D01*
X-31801788Y-17722069D01*
X-31806881Y-17721162D01*
X-31806884Y-17721161D01*
X-32016627Y-17683800D01*
X-32016633Y-17683799D01*
X-32021716Y-17682894D01*
X-32095548Y-17681992D01*
X-32239919Y-17680228D01*
X-32239921Y-17680228D01*
X-32245089Y-17680165D01*
X-32465909Y-17713955D01*
X-32678244Y-17783357D01*
X-32876393Y-17886507D01*
X-32880526Y-17889610D01*
X-32880529Y-17889612D01*
X-33050900Y-18017530D01*
X-33055035Y-18020635D01*
X-33126533Y-18095454D01*
X-33135717Y-18105064D01*
X-33197241Y-18140494D01*
X-33268154Y-18137037D01*
X-33325940Y-18095791D01*
X-33344793Y-18062243D01*
X-33386233Y-17951703D01*
X-33389385Y-17943295D01*
X-33476739Y-17826739D01*
X-33593295Y-17739385D01*
X-33729684Y-17688255D01*
X-33791866Y-17681500D01*
X-35588134Y-17681500D01*
X-35650316Y-17688255D01*
X-35786705Y-17739385D01*
X-35903261Y-17826739D01*
X-35990615Y-17943295D01*
X-36041745Y-18079684D01*
X-36048500Y-18141866D01*
X-36048500Y-19895500D01*
X-36068502Y-19963621D01*
X-36122158Y-20010114D01*
X-36174500Y-20021500D01*
X-42365172Y-20021500D01*
X-42378815Y-20020759D01*
X-42408414Y-20017535D01*
X-42417338Y-20016563D01*
X-42434843Y-20019676D01*
X-42458423Y-20021613D01*
X-42576820Y-20020182D01*
X-42723191Y-20018412D01*
X-42737762Y-20017389D01*
X-43027881Y-19979987D01*
X-43042247Y-19977280D01*
X-43326080Y-19906516D01*
X-43340037Y-19902162D01*
X-43357712Y-19895500D01*
X-43613755Y-19798993D01*
X-43627105Y-19793054D01*
X-43887034Y-19658861D01*
X-43899601Y-19651420D01*
X-44142229Y-19488017D01*
X-44153863Y-19479159D01*
X-44189995Y-19448177D01*
X-44228687Y-19388651D01*
X-44229056Y-19317655D01*
X-44190982Y-19257731D01*
X-44126555Y-19227903D01*
X-44080169Y-19229633D01*
X-43890945Y-19272450D01*
X-43890940Y-19272451D01*
X-43885308Y-19273725D01*
X-43879537Y-19273952D01*
X-43879535Y-19273952D01*
X-43816530Y-19276427D01*
X-43681737Y-19281723D01*
X-43480117Y-19252490D01*
X-43474653Y-19250635D01*
X-43474648Y-19250634D01*
X-43292673Y-19188862D01*
X-43292668Y-19188860D01*
X-43287201Y-19187004D01*
X-43109449Y-19087458D01*
X-42952814Y-18957186D01*
X-42822542Y-18800551D01*
X-42722996Y-18622799D01*
X-42721140Y-18617332D01*
X-42721138Y-18617327D01*
X-42659366Y-18435352D01*
X-42659365Y-18435347D01*
X-42657510Y-18429883D01*
X-42628277Y-18228263D01*
X-42626751Y-18170000D01*
X-42645392Y-17967126D01*
X-42663731Y-17902101D01*
X-42699125Y-17776606D01*
X-42699126Y-17776604D01*
X-42700693Y-17771047D01*
X-42710523Y-17751112D01*
X-42788244Y-17593510D01*
X-42790799Y-17588329D01*
X-42799931Y-17576099D01*
X-42909242Y-17429715D01*
X-42909242Y-17429714D01*
X-42912695Y-17425091D01*
X-43017180Y-17328506D01*
X-43058057Y-17290719D01*
X-43058060Y-17290717D01*
X-43062297Y-17286800D01*
X-43111342Y-17255855D01*
X-43229712Y-17181169D01*
X-43229717Y-17181167D01*
X-43234596Y-17178088D01*
X-43423820Y-17102595D01*
X-43623634Y-17062849D01*
X-43629408Y-17062773D01*
X-43629412Y-17062773D01*
X-43732548Y-17061424D01*
X-43827345Y-17060183D01*
X-43833042Y-17061162D01*
X-43833043Y-17061162D01*
X-43900848Y-17072813D01*
X-44028130Y-17094684D01*
X-44219266Y-17165198D01*
X-44394351Y-17269363D01*
X-44547522Y-17403690D01*
X-44551089Y-17408215D01*
X-44551094Y-17408220D01*
X-44600505Y-17470898D01*
X-44673649Y-17563681D01*
X-44676338Y-17568792D01*
X-44676340Y-17568795D01*
X-44690731Y-17596148D01*
X-44768508Y-17743978D01*
X-44828922Y-17938543D01*
X-44841743Y-18046870D01*
X-44844157Y-18067264D01*
X-44872027Y-18132562D01*
X-44930776Y-18172426D01*
X-45001750Y-18174200D01*
X-45062417Y-18137321D01*
X-45090329Y-18087442D01*
X-45123884Y-17971351D01*
X-45127123Y-17957090D01*
X-45128021Y-17951703D01*
X-45175241Y-17668551D01*
X-45176805Y-17654016D01*
X-45177354Y-17642836D01*
X-45188252Y-17421175D01*
X-45189447Y-17396857D01*
X-45187921Y-17370175D01*
X-45187847Y-17369727D01*
X-45186386Y-17360867D01*
X-45188569Y-17342927D01*
X-45190577Y-17326423D01*
X-45191500Y-17311204D01*
X-45191500Y-15253610D01*
X-45171498Y-15185489D01*
X-45117842Y-15138996D01*
X-45047568Y-15128892D01*
X-44982988Y-15158386D01*
X-44967303Y-15174658D01*
X-44887532Y-15273873D01*
X-44878954Y-15282632D01*
X-44736961Y-15401778D01*
X-44726841Y-15408708D01*
X-44564415Y-15498002D01*
X-44553142Y-15502834D01*
X-44376462Y-15558880D01*
X-44364468Y-15561430D01*
X-44220239Y-15577607D01*
X-44213215Y-15578000D01*
X-44032115Y-15578000D01*
X-44016876Y-15573525D01*
X-44015671Y-15572135D01*
X-44014000Y-15564452D01*
X-44014000Y-13580115D01*
X-44018475Y-13564876D01*
X-44019865Y-13563671D01*
X-44027548Y-13562000D01*
X-44206657Y-13562000D01*
X-44212805Y-13562301D01*
X-44350603Y-13575812D01*
X-44362638Y-13578195D01*
X-44540076Y-13631767D01*
X-44551416Y-13636441D01*
X-44715077Y-13723460D01*
X-44725294Y-13730249D01*
X-44868933Y-13847397D01*
X-44877637Y-13856041D01*
X-44968415Y-13965773D01*
X-45027249Y-14005512D01*
X-45098227Y-14007134D01*
X-45158815Y-13970124D01*
X-45189775Y-13906234D01*
X-45191500Y-13885458D01*
X-45191500Y-6613610D01*
X-45171498Y-6545489D01*
X-45117842Y-6498996D01*
X-45047568Y-6488892D01*
X-44982988Y-6518386D01*
X-44967303Y-6534658D01*
X-44887532Y-6633873D01*
X-44878954Y-6642632D01*
X-44736961Y-6761778D01*
X-44726841Y-6768708D01*
X-44564415Y-6858002D01*
X-44553142Y-6862834D01*
X-44376462Y-6918880D01*
X-44364468Y-6921430D01*
X-44220239Y-6937607D01*
X-44213215Y-6938000D01*
X-44032115Y-6938000D01*
X-44016876Y-6933525D01*
X-44015671Y-6932135D01*
X-44014000Y-6924452D01*
X-44014000Y-4940115D01*
X-44018475Y-4924876D01*
X-44019865Y-4923671D01*
X-44027548Y-4922000D01*
X-44206657Y-4922000D01*
X-44212805Y-4922301D01*
X-44350603Y-4935812D01*
X-44362638Y-4938195D01*
X-44540076Y-4991767D01*
X-44551416Y-4996441D01*
X-44715077Y-5083460D01*
X-44725294Y-5090249D01*
X-44868933Y-5207397D01*
X-44877637Y-5216041D01*
X-44968415Y-5325773D01*
X-45027249Y-5365512D01*
X-45098227Y-5367134D01*
X-45158815Y-5330124D01*
X-45189775Y-5266234D01*
X-45191500Y-5245458D01*
X-45191500Y-3395383D01*
X-45190233Y-3377561D01*
X-45188725Y-3367004D01*
X-45186271Y-3349832D01*
X-45187546Y-3340950D01*
X-45187546Y-3340944D01*
X-45188839Y-3331939D01*
X-45189997Y-3308502D01*
X-45189468Y-3296462D01*
X-45177979Y-3035032D01*
X-45176554Y-3020890D01*
X-45129420Y-2722831D01*
X-45126410Y-2708934D01*
X-45079040Y-2537609D01*
X-45041608Y-2477282D01*
X-44977503Y-2446769D01*
X-44907077Y-2455758D01*
X-44852692Y-2501395D01*
X-44835474Y-2540171D01*
X-44789395Y-2721610D01*
X-44704102Y-2906624D01*
X-44586521Y-3072997D01*
X-44440590Y-3215157D01*
X-44435794Y-3218362D01*
X-44435791Y-3218364D01*
X-44367851Y-3263760D01*
X-44271197Y-3328342D01*
X-44265894Y-3330620D01*
X-44265891Y-3330622D01*
X-44089320Y-3406483D01*
X-44084013Y-3408763D01*
X-44034184Y-3420038D01*
X-43890945Y-3452450D01*
X-43890940Y-3452451D01*
X-43885308Y-3453725D01*
X-43879537Y-3453952D01*
X-43879535Y-3453952D01*
X-43816530Y-3456427D01*
X-43681737Y-3461723D01*
X-43480117Y-3432490D01*
X-43474653Y-3430635D01*
X-43474648Y-3430634D01*
X-43292673Y-3368862D01*
X-43292668Y-3368860D01*
X-43287201Y-3367004D01*
X-43268344Y-3356444D01*
X-43203757Y-3320273D01*
X-43109449Y-3267458D01*
X-42952814Y-3137186D01*
X-42841374Y-3003194D01*
X-42782437Y-2963610D01*
X-42711455Y-2962174D01*
X-42650964Y-2999341D01*
X-42620171Y-3063312D01*
X-42618500Y-3083763D01*
X-42618500Y-4974259D01*
X-42638502Y-5042380D01*
X-42692158Y-5088873D01*
X-42762432Y-5098977D01*
X-42805202Y-5084673D01*
X-42955589Y-5001996D01*
X-42966858Y-4997166D01*
X-43143538Y-4941120D01*
X-43155532Y-4938570D01*
X-43299761Y-4922393D01*
X-43306785Y-4922000D01*
X-43487885Y-4922000D01*
X-43503124Y-4926475D01*
X-43504329Y-4927865D01*
X-43506000Y-4935548D01*
X-43506000Y-6919885D01*
X-43501525Y-6935124D01*
X-43500135Y-6936329D01*
X-43492452Y-6938000D01*
X-43313343Y-6938000D01*
X-43307195Y-6937699D01*
X-43169397Y-6924188D01*
X-43157362Y-6921805D01*
X-42979924Y-6868233D01*
X-42968584Y-6863559D01*
X-42803653Y-6775865D01*
X-42734115Y-6761546D01*
X-42667875Y-6787094D01*
X-42625962Y-6844399D01*
X-42618500Y-6887117D01*
X-42618500Y-13614259D01*
X-42638502Y-13682380D01*
X-42692158Y-13728873D01*
X-42762432Y-13738977D01*
X-42805202Y-13724673D01*
X-42955589Y-13641996D01*
X-42966858Y-13637166D01*
X-43143538Y-13581120D01*
X-43155532Y-13578570D01*
X-43299761Y-13562393D01*
X-43306785Y-13562000D01*
X-43487885Y-13562000D01*
X-43503124Y-13566475D01*
X-43504329Y-13567865D01*
X-43506000Y-13575548D01*
X-43506000Y-15559885D01*
X-43501525Y-15575124D01*
X-43500135Y-15576329D01*
X-43492452Y-15578000D01*
X-43313343Y-15578000D01*
X-43307195Y-15577699D01*
X-43169397Y-15564188D01*
X-43157362Y-15561805D01*
X-42979924Y-15508233D01*
X-42968584Y-15503559D01*
X-42804920Y-15416538D01*
X-42798107Y-15412012D01*
X-42730298Y-15390976D01*
X-42661881Y-15409939D01*
X-42614577Y-15462881D01*
X-42606717Y-15489743D01*
X-42605848Y-15489520D01*
X-42603875Y-15497206D01*
X-42602882Y-15505064D01*
X-42599966Y-15512429D01*
X-42599965Y-15512433D01*
X-42585874Y-15548021D01*
X-42582035Y-15559231D01*
X-42569145Y-15603600D01*
X-42558225Y-15622065D01*
X-42549534Y-15639805D01*
X-42541635Y-15659756D01*
X-42514484Y-15697126D01*
X-42507967Y-15707048D01*
X-42488493Y-15739977D01*
X-42488490Y-15739981D01*
X-42484453Y-15746807D01*
X-42469289Y-15761971D01*
X-42456449Y-15777004D01*
X-42443841Y-15794357D01*
X-42408248Y-15823802D01*
X-42399468Y-15831792D01*
X-41683655Y-16547605D01*
X-41675665Y-16556385D01*
X-41671416Y-16563080D01*
X-41665638Y-16568506D01*
X-41665637Y-16568507D01*
X-41619743Y-16611604D01*
X-41616901Y-16614359D01*
X-41596333Y-16634927D01*
X-41592830Y-16637644D01*
X-41583805Y-16645352D01*
X-41550133Y-16676972D01*
X-41543182Y-16680793D01*
X-41543181Y-16680794D01*
X-41531342Y-16687303D01*
X-41514818Y-16698157D01*
X-41509948Y-16701934D01*
X-41497868Y-16711304D01*
X-41490596Y-16714451D01*
X-41490594Y-16714452D01*
X-41455465Y-16729654D01*
X-41444805Y-16734876D01*
X-41411787Y-16753028D01*
X-41404337Y-16757124D01*
X-41383559Y-16762459D01*
X-41364869Y-16768858D01*
X-41345176Y-16777380D01*
X-41301404Y-16784313D01*
X-41299552Y-16784606D01*
X-41287929Y-16787013D01*
X-41267118Y-16792356D01*
X-41243188Y-16798500D01*
X-41221741Y-16798500D01*
X-41202031Y-16800051D01*
X-41180848Y-16803406D01*
X-41134859Y-16799059D01*
X-41123004Y-16798500D01*
X-37226788Y-16798500D01*
X-37208662Y-16799811D01*
X-37183174Y-16803519D01*
X-37137085Y-16803596D01*
X-37136880Y-16803596D01*
X-37089153Y-16803896D01*
X-37082733Y-16803936D01*
X-37081875Y-16803945D01*
X-37073241Y-16804058D01*
X-37000829Y-16828111D01*
X-36935224Y-16875776D01*
X-36928615Y-16880578D01*
X-36922587Y-16883262D01*
X-36922585Y-16883263D01*
X-36795484Y-16939852D01*
X-36763752Y-16953980D01*
X-36675492Y-16972740D01*
X-36593689Y-16990128D01*
X-36593685Y-16990128D01*
X-36587232Y-16991500D01*
X-36406768Y-16991500D01*
X-36400315Y-16990128D01*
X-36400311Y-16990128D01*
X-36318508Y-16972740D01*
X-36230248Y-16953980D01*
X-36198516Y-16939852D01*
X-36071415Y-16883263D01*
X-36071413Y-16883262D01*
X-36065385Y-16880578D01*
X-36060043Y-16876697D01*
X-35924731Y-16778387D01*
X-35924729Y-16778385D01*
X-35919387Y-16774504D01*
X-35899501Y-16752418D01*
X-35803052Y-16645301D01*
X-35803051Y-16645300D01*
X-35798633Y-16640393D01*
X-35724755Y-16512433D01*
X-35711705Y-16489830D01*
X-35711704Y-16489829D01*
X-35708401Y-16484107D01*
X-35668215Y-16360427D01*
X-35654675Y-16318754D01*
X-35654675Y-16318753D01*
X-35652635Y-16312475D01*
X-35644680Y-16236795D01*
X-35634461Y-16139565D01*
X-35633771Y-16133000D01*
X-35637449Y-16098005D01*
X-35651945Y-15960089D01*
X-35651945Y-15960088D01*
X-35652635Y-15953525D01*
X-35658183Y-15936448D01*
X-35694784Y-15823802D01*
X-35708401Y-15781893D01*
X-35717466Y-15766191D01*
X-35751613Y-15707048D01*
X-35798633Y-15625607D01*
X-35825296Y-15595994D01*
X-35914965Y-15496407D01*
X-35914966Y-15496406D01*
X-35919387Y-15491496D01*
X-35928166Y-15485117D01*
X-36060043Y-15389303D01*
X-36060044Y-15389302D01*
X-36065385Y-15385422D01*
X-36071413Y-15382738D01*
X-36071415Y-15382737D01*
X-36224217Y-15314705D01*
X-36224219Y-15314705D01*
X-36230248Y-15312020D01*
X-36337482Y-15289227D01*
X-36400311Y-15275872D01*
X-36400315Y-15275872D01*
X-36406768Y-15274500D01*
X-36587232Y-15274500D01*
X-36593685Y-15275872D01*
X-36593689Y-15275872D01*
X-36656518Y-15289227D01*
X-36763752Y-15312020D01*
X-36769781Y-15314704D01*
X-36769783Y-15314705D01*
X-36922584Y-15382737D01*
X-36922586Y-15382738D01*
X-36928614Y-15385422D01*
X-36933955Y-15389302D01*
X-36933956Y-15389303D01*
X-37020123Y-15451907D01*
X-37093096Y-15475966D01*
X-37138435Y-15476357D01*
X-37138977Y-15476360D01*
X-37183622Y-15476473D01*
X-37237865Y-15479483D01*
X-37241062Y-15480303D01*
X-37256647Y-15481500D01*
X-38738020Y-15481500D01*
X-38806141Y-15461498D01*
X-38852634Y-15407842D01*
X-38862738Y-15337568D01*
X-38835105Y-15275185D01*
X-38724216Y-15141144D01*
X-38717356Y-15130973D01*
X-38629196Y-14967924D01*
X-38624444Y-14956619D01*
X-38588750Y-14841308D01*
X-38588544Y-14827205D01*
X-38595299Y-14824000D01*
X-40088000Y-14824000D01*
X-40156121Y-14803998D01*
X-40202614Y-14750342D01*
X-40214000Y-14698000D01*
X-40214000Y-14297885D01*
X-39706000Y-14297885D01*
X-39701525Y-14313124D01*
X-39700135Y-14314329D01*
X-39692452Y-14316000D01*
X-38602076Y-14316000D01*
X-38588545Y-14312027D01*
X-38587425Y-14304232D01*
X-38619138Y-14196479D01*
X-38623731Y-14185111D01*
X-38709607Y-14020846D01*
X-38716321Y-14010585D01*
X-38832468Y-13866127D01*
X-38841046Y-13857368D01*
X-38983039Y-13738222D01*
X-38993159Y-13731292D01*
X-39155585Y-13641998D01*
X-39166858Y-13637166D01*
X-39343538Y-13581120D01*
X-39355532Y-13578570D01*
X-39499761Y-13562393D01*
X-39506785Y-13562000D01*
X-39687885Y-13562000D01*
X-39703124Y-13566475D01*
X-39704329Y-13567865D01*
X-39706000Y-13575548D01*
X-39706000Y-14297885D01*
X-40214000Y-14297885D01*
X-40214000Y-13580115D01*
X-40218475Y-13564876D01*
X-40219865Y-13563671D01*
X-40227548Y-13562000D01*
X-40406657Y-13562000D01*
X-40412805Y-13562301D01*
X-40550603Y-13575812D01*
X-40562638Y-13578195D01*
X-40740076Y-13631767D01*
X-40751416Y-13636441D01*
X-40915077Y-13723460D01*
X-40925294Y-13730249D01*
X-41068933Y-13847397D01*
X-41077635Y-13856039D01*
X-41078414Y-13856981D01*
X-41078943Y-13857338D01*
X-41082008Y-13860382D01*
X-41082587Y-13859799D01*
X-41137247Y-13896720D01*
X-41208225Y-13898343D01*
X-41268813Y-13861335D01*
X-41299775Y-13797446D01*
X-41301500Y-13776667D01*
X-41301500Y-9578605D01*
X-33436619Y-9578605D01*
X-33436579Y-9592705D01*
X-33429309Y-9596000D01*
X-32902115Y-9596000D01*
X-32886876Y-9591525D01*
X-32885671Y-9590135D01*
X-32884000Y-9582452D01*
X-32884000Y-9577885D01*
X-32376000Y-9577885D01*
X-32371525Y-9593124D01*
X-32370135Y-9594329D01*
X-32362452Y-9596000D01*
X-31836442Y-9596000D01*
X-31822911Y-9592027D01*
X-31821776Y-9584129D01*
X-31858357Y-9458216D01*
X-31864604Y-9443780D01*
X-31939876Y-9316501D01*
X-31949516Y-9304074D01*
X-32054074Y-9199516D01*
X-32066501Y-9189876D01*
X-32193780Y-9114604D01*
X-32208216Y-9108357D01*
X-32351641Y-9066688D01*
X-32359609Y-9065232D01*
X-32373031Y-9068052D01*
X-32376000Y-9079513D01*
X-32376000Y-9577885D01*
X-32884000Y-9577885D01*
X-32884000Y-9081576D01*
X-32888344Y-9066781D01*
X-32898775Y-9064937D01*
X-32908359Y-9066688D01*
X-33051784Y-9108357D01*
X-33066220Y-9114604D01*
X-33193499Y-9189876D01*
X-33205926Y-9199516D01*
X-33310484Y-9304074D01*
X-33320124Y-9316501D01*
X-33395396Y-9443780D01*
X-33401643Y-9458216D01*
X-33436619Y-9578605D01*
X-41301500Y-9578605D01*
X-41301500Y-6724130D01*
X-41281498Y-6656009D01*
X-41227842Y-6609516D01*
X-41157568Y-6599412D01*
X-41092988Y-6628906D01*
X-41085478Y-6635971D01*
X-41078955Y-6642632D01*
X-40936961Y-6761778D01*
X-40926841Y-6768708D01*
X-40764415Y-6858002D01*
X-40753142Y-6862834D01*
X-40576462Y-6918880D01*
X-40564468Y-6921430D01*
X-40420239Y-6937607D01*
X-40413215Y-6938000D01*
X-40232115Y-6938000D01*
X-40216876Y-6933525D01*
X-40215671Y-6932135D01*
X-40214000Y-6924452D01*
X-40214000Y-6919885D01*
X-39706000Y-6919885D01*
X-39701525Y-6935124D01*
X-39700135Y-6936329D01*
X-39692452Y-6938000D01*
X-39513343Y-6938000D01*
X-39507195Y-6937699D01*
X-39369397Y-6924188D01*
X-39357362Y-6921805D01*
X-39179924Y-6868233D01*
X-39168584Y-6863559D01*
X-39004923Y-6776540D01*
X-38994706Y-6769751D01*
X-38851067Y-6652603D01*
X-38842363Y-6643959D01*
X-38724216Y-6501144D01*
X-38717356Y-6490973D01*
X-38629196Y-6327924D01*
X-38624444Y-6316619D01*
X-38588750Y-6201308D01*
X-38588544Y-6187205D01*
X-38595299Y-6184000D01*
X-39687885Y-6184000D01*
X-39703124Y-6188475D01*
X-39704329Y-6189865D01*
X-39706000Y-6197548D01*
X-39706000Y-6919885D01*
X-40214000Y-6919885D01*
X-40214000Y-5657885D01*
X-39706000Y-5657885D01*
X-39701525Y-5673124D01*
X-39700135Y-5674329D01*
X-39692452Y-5676000D01*
X-38602076Y-5676000D01*
X-38588545Y-5672027D01*
X-38587425Y-5664232D01*
X-38619138Y-5556479D01*
X-38623731Y-5545111D01*
X-38709607Y-5380846D01*
X-38716321Y-5370585D01*
X-38832468Y-5226127D01*
X-38841046Y-5217368D01*
X-38983039Y-5098222D01*
X-38993159Y-5091292D01*
X-39155585Y-5001998D01*
X-39166858Y-4997166D01*
X-39343538Y-4941120D01*
X-39355532Y-4938570D01*
X-39499761Y-4922393D01*
X-39506785Y-4922000D01*
X-39687885Y-4922000D01*
X-39703124Y-4926475D01*
X-39704329Y-4927865D01*
X-39706000Y-4935548D01*
X-39706000Y-5657885D01*
X-40214000Y-5657885D01*
X-40214000Y-4940115D01*
X-40218475Y-4924876D01*
X-40219865Y-4923671D01*
X-40227548Y-4922000D01*
X-40406657Y-4922000D01*
X-40412805Y-4922301D01*
X-40550603Y-4935812D01*
X-40562638Y-4938195D01*
X-40740076Y-4991767D01*
X-40751416Y-4996441D01*
X-40915077Y-5083460D01*
X-40925294Y-5090249D01*
X-41068933Y-5207397D01*
X-41077635Y-5216039D01*
X-41078414Y-5216981D01*
X-41078943Y-5217338D01*
X-41082008Y-5220382D01*
X-41082587Y-5219799D01*
X-41137247Y-5256720D01*
X-41208225Y-5258343D01*
X-41268813Y-5221335D01*
X-41299775Y-5157446D01*
X-41301500Y-5136667D01*
X-41301500Y-1603064D01*
X-41300176Y-1584845D01*
X-41297125Y-1563965D01*
X-41296474Y-1559512D01*
X-41296372Y-1515200D01*
X-41296368Y-1514552D01*
X-41296032Y-1472950D01*
X-41275480Y-1404993D01*
X-41269861Y-1397697D01*
X-41269934Y-1397644D01*
X-41266052Y-1392301D01*
X-41261633Y-1387393D01*
X-41246493Y-1361169D01*
X-41174705Y-1236830D01*
X-41174704Y-1236829D01*
X-41171401Y-1231107D01*
X-41115635Y-1059475D01*
X-41108480Y-991406D01*
X-41097461Y-886565D01*
X-41096771Y-880000D01*
X-41100913Y-840590D01*
X-41114945Y-707089D01*
X-41114945Y-707088D01*
X-41115635Y-700525D01*
X-41124437Y-673435D01*
X-41126465Y-602470D01*
X-41089803Y-541671D01*
X-41026091Y-510346D01*
X-41004604Y-508500D01*
X-36164500Y-508500D01*
X-36096379Y-528502D01*
G37*
%TD.AperFunction*%
%TA.AperFunction,Conductor*%
G36*
X-13349382Y-8708502D02*
G01*
X-13302889Y-8762158D01*
X-13292785Y-8832432D01*
X-13322279Y-8897012D01*
X-13328408Y-8903595D01*
X-15986234Y-11561421D01*
X-15998625Y-11572288D01*
X-16023987Y-11591749D01*
X-16048474Y-11623661D01*
X-16048477Y-11623664D01*
X-16062663Y-11642151D01*
X-16104535Y-11696720D01*
X-16121524Y-11718860D01*
X-16182838Y-11866885D01*
X-16182838Y-11866886D01*
X-16198500Y-11985851D01*
X-16198500Y-11985856D01*
X-16203750Y-12025736D01*
X-16201143Y-12045535D01*
X-16199578Y-12057426D01*
X-16198500Y-12073872D01*
X-16198500Y-13610594D01*
X-16218502Y-13678715D01*
X-16272158Y-13725208D01*
X-16311327Y-13735903D01*
X-16393407Y-13744530D01*
X-16400078Y-13746801D01*
X-16547827Y-13797098D01*
X-16547830Y-13797099D01*
X-16554497Y-13799369D01*
X-16649698Y-13857936D01*
X-16709981Y-13875977D01*
X-16709954Y-13876457D01*
X-16763802Y-13879508D01*
X-16766863Y-13880296D01*
X-16782443Y-13881500D01*
X-19606205Y-13881500D01*
X-19624643Y-13880144D01*
X-19625589Y-13880004D01*
X-19649567Y-13876457D01*
X-19653557Y-13876441D01*
X-19711434Y-13857232D01*
X-19711829Y-13856981D01*
X-19717920Y-13853116D01*
X-19789449Y-13807722D01*
X-19789452Y-13807720D01*
X-19795392Y-13803951D01*
X-19955700Y-13746868D01*
X-20124671Y-13726720D01*
X-20131674Y-13727456D01*
X-20131675Y-13727456D01*
X-20286899Y-13743770D01*
X-20286903Y-13743771D01*
X-20293907Y-13744507D01*
X-20300578Y-13746778D01*
X-20448327Y-13797075D01*
X-20448330Y-13797076D01*
X-20454997Y-13799346D01*
X-20460995Y-13803036D01*
X-20460997Y-13803037D01*
X-20593935Y-13884821D01*
X-20593937Y-13884823D01*
X-20599934Y-13888512D01*
X-20721514Y-14007573D01*
X-20813696Y-14150610D01*
X-20834483Y-14207722D01*
X-20859511Y-14276487D01*
X-20871897Y-14310516D01*
X-20893225Y-14479343D01*
X-20876619Y-14648699D01*
X-20874395Y-14655384D01*
X-20874395Y-14655385D01*
X-20868572Y-14672889D01*
X-20822906Y-14810167D01*
X-20819259Y-14816189D01*
X-20819258Y-14816191D01*
X-20765644Y-14904717D01*
X-20734754Y-14955723D01*
X-20729864Y-14960786D01*
X-20725562Y-14966373D01*
X-20728052Y-14968290D01*
X-20701565Y-15018922D01*
X-20707891Y-15089636D01*
X-20710697Y-15095957D01*
X-20713696Y-15100610D01*
X-20716104Y-15107226D01*
X-20769383Y-15253610D01*
X-20771897Y-15260516D01*
X-20793225Y-15429343D01*
X-20776619Y-15598699D01*
X-20774395Y-15605384D01*
X-20774395Y-15605385D01*
X-20758724Y-15652494D01*
X-20722906Y-15760167D01*
X-20719259Y-15766189D01*
X-20719258Y-15766191D01*
X-20645337Y-15888248D01*
X-20634754Y-15905723D01*
X-20516545Y-16028132D01*
X-20490597Y-16045112D01*
X-20381854Y-16116271D01*
X-20374154Y-16121310D01*
X-20367550Y-16123766D01*
X-20367548Y-16123767D01*
X-20331156Y-16137301D01*
X-20214659Y-16180626D01*
X-20045985Y-16203132D01*
X-20038974Y-16202494D01*
X-20038970Y-16202494D01*
X-19883538Y-16188348D01*
X-19876517Y-16187709D01*
X-19869815Y-16185531D01*
X-19869813Y-16185531D01*
X-19721377Y-16137301D01*
X-19721374Y-16137300D01*
X-19714678Y-16135124D01*
X-19683052Y-16116271D01*
X-19618534Y-16098500D01*
X-13473901Y-16098500D01*
X-13405780Y-16118502D01*
X-13359287Y-16172158D01*
X-13348686Y-16238545D01*
X-13361226Y-16350342D01*
X-13363044Y-16366552D01*
X-13361619Y-16383522D01*
X-13353700Y-16477822D01*
X-13347315Y-16553865D01*
X-13322247Y-16641287D01*
X-13300050Y-16718696D01*
X-13295503Y-16734555D01*
X-13292688Y-16740032D01*
X-13292687Y-16740035D01*
X-13220458Y-16880578D01*
X-13209582Y-16901740D01*
X-13205759Y-16906564D01*
X-13205756Y-16906568D01*
X-13139526Y-16990128D01*
X-13092823Y-17049052D01*
X-13088129Y-17053047D01*
X-12956352Y-17165198D01*
X-12949676Y-17170880D01*
X-12944298Y-17173886D01*
X-12944296Y-17173887D01*
X-12867633Y-17216732D01*
X-12785591Y-17262584D01*
X-12606820Y-17320670D01*
X-12420170Y-17342927D01*
X-12414035Y-17342455D01*
X-12414033Y-17342455D01*
X-12238895Y-17328979D01*
X-12238891Y-17328978D01*
X-12232753Y-17328506D01*
X-12128795Y-17299480D01*
X-12057650Y-17279616D01*
X-12057647Y-17279615D01*
X-12051706Y-17277956D01*
X-12046202Y-17275176D01*
X-12046200Y-17275175D01*
X-11889426Y-17195983D01*
X-11889424Y-17195982D01*
X-11883925Y-17193204D01*
X-11735801Y-17077477D01*
X-11720873Y-17060183D01*
X-11617006Y-16939852D01*
X-11617005Y-16939850D01*
X-11612977Y-16935184D01*
X-11520130Y-16771744D01*
X-11460797Y-16593382D01*
X-11437238Y-16406892D01*
X-11436862Y-16380000D01*
X-11443483Y-16312475D01*
X-11450903Y-16236795D01*
X-11437643Y-16167048D01*
X-11388781Y-16115541D01*
X-11325504Y-16098500D01*
X-4022056Y-16098500D01*
X-4010200Y-16099059D01*
X-4010197Y-16099059D01*
X-4002463Y-16100788D01*
X-3931631Y-16098562D01*
X-3927673Y-16098500D01*
X-3898568Y-16098500D01*
X-3894168Y-16097944D01*
X-3882336Y-16097012D01*
X-3836169Y-16095562D01*
X-3815579Y-16089580D01*
X-3796218Y-16085570D01*
X-3789230Y-16084688D01*
X-3782796Y-16083875D01*
X-3782795Y-16083875D01*
X-3774936Y-16082882D01*
X-3767571Y-16079966D01*
X-3767567Y-16079965D01*
X-3731979Y-16065874D01*
X-3720769Y-16062035D01*
X-3676400Y-16049145D01*
X-3657935Y-16038225D01*
X-3640195Y-16029534D01*
X-3620244Y-16021635D01*
X-3582871Y-15994482D01*
X-3572952Y-15987967D01*
X-3540023Y-15968493D01*
X-3540019Y-15968490D01*
X-3533193Y-15964453D01*
X-3518029Y-15949289D01*
X-3502995Y-15936448D01*
X-3492057Y-15928501D01*
X-3485643Y-15923841D01*
X-3456197Y-15888247D01*
X-3448219Y-15879479D01*
X-2593515Y-15024775D01*
X-2531205Y-14990751D01*
X-2460390Y-14995815D01*
X-2403554Y-15038362D01*
X-2384864Y-15074099D01*
X-2366636Y-15128892D01*
X-2352906Y-15170167D01*
X-2302370Y-15253610D01*
X-2301803Y-15254547D01*
X-2283579Y-15319499D01*
X-2283528Y-15339628D01*
X-2283435Y-15341295D01*
X-2283435Y-15341311D01*
X-2281135Y-15382737D01*
X-2280516Y-15393888D01*
X-2279697Y-15397078D01*
X-2278500Y-15412664D01*
X-2278500Y-17306811D01*
X-2280319Y-17328142D01*
X-2282777Y-17342455D01*
X-2283619Y-17347354D01*
X-2283742Y-17351843D01*
X-2283742Y-17351846D01*
X-2286795Y-17463566D01*
X-2287208Y-17470880D01*
X-2295543Y-17568161D01*
X-2296478Y-17576099D01*
X-2306490Y-17642836D01*
X-2308943Y-17659184D01*
X-2310559Y-17667872D01*
X-2325661Y-17735668D01*
X-2328203Y-17745275D01*
X-2343909Y-17796368D01*
X-2347750Y-17807105D01*
X-2359949Y-17836886D01*
X-2400893Y-17889885D01*
X-2570900Y-18017530D01*
X-2575035Y-18020635D01*
X-2578607Y-18024373D01*
X-2707546Y-18159300D01*
X-2729371Y-18182138D01*
X-2836799Y-18339621D01*
X-2891707Y-18384621D01*
X-2962232Y-18392792D01*
X-3025979Y-18361538D01*
X-3046676Y-18337054D01*
X-3127178Y-18212617D01*
X-3127180Y-18212614D01*
X-3129986Y-18208277D01*
X-3280330Y-18043051D01*
X-3284381Y-18039852D01*
X-3284385Y-18039848D01*
X-3451586Y-17907800D01*
X-3451590Y-17907798D01*
X-3455641Y-17904598D01*
X-3464158Y-17899896D01*
X-3555515Y-17849465D01*
X-3651211Y-17796638D01*
X-3656080Y-17794914D01*
X-3656084Y-17794912D01*
X-3856913Y-17723795D01*
X-3856917Y-17723794D01*
X-3861788Y-17722069D01*
X-3866881Y-17721162D01*
X-3866884Y-17721161D01*
X-4076627Y-17683800D01*
X-4076633Y-17683799D01*
X-4081716Y-17682894D01*
X-4155548Y-17681992D01*
X-4299919Y-17680228D01*
X-4299921Y-17680228D01*
X-4305089Y-17680165D01*
X-4525909Y-17713955D01*
X-4738244Y-17783357D01*
X-4936393Y-17886507D01*
X-4940526Y-17889610D01*
X-4940529Y-17889612D01*
X-5110900Y-18017530D01*
X-5115035Y-18020635D01*
X-5118607Y-18024373D01*
X-5247546Y-18159300D01*
X-5269371Y-18182138D01*
X-5376799Y-18339621D01*
X-5431707Y-18384621D01*
X-5502232Y-18392792D01*
X-5565979Y-18361538D01*
X-5586676Y-18337054D01*
X-5667178Y-18212617D01*
X-5667180Y-18212614D01*
X-5669986Y-18208277D01*
X-5820330Y-18043051D01*
X-5824381Y-18039852D01*
X-5824385Y-18039848D01*
X-5991586Y-17907800D01*
X-5991590Y-17907798D01*
X-5995641Y-17904598D01*
X-6004158Y-17899896D01*
X-6095515Y-17849465D01*
X-6191211Y-17796638D01*
X-6196080Y-17794914D01*
X-6196084Y-17794912D01*
X-6396913Y-17723795D01*
X-6396917Y-17723794D01*
X-6401788Y-17722069D01*
X-6406881Y-17721162D01*
X-6406884Y-17721161D01*
X-6616627Y-17683800D01*
X-6616633Y-17683799D01*
X-6621716Y-17682894D01*
X-6695548Y-17681992D01*
X-6839919Y-17680228D01*
X-6839921Y-17680228D01*
X-6845089Y-17680165D01*
X-7065909Y-17713955D01*
X-7278244Y-17783357D01*
X-7476393Y-17886507D01*
X-7480526Y-17889610D01*
X-7480529Y-17889612D01*
X-7650900Y-18017530D01*
X-7655035Y-18020635D01*
X-7658607Y-18024373D01*
X-7787546Y-18159300D01*
X-7809371Y-18182138D01*
X-7916799Y-18339621D01*
X-7971707Y-18384621D01*
X-8042232Y-18392792D01*
X-8105979Y-18361538D01*
X-8126676Y-18337054D01*
X-8207178Y-18212617D01*
X-8207180Y-18212614D01*
X-8209986Y-18208277D01*
X-8360330Y-18043051D01*
X-8364381Y-18039852D01*
X-8364385Y-18039848D01*
X-8531586Y-17907800D01*
X-8531590Y-17907798D01*
X-8535641Y-17904598D01*
X-8544158Y-17899896D01*
X-8635515Y-17849465D01*
X-8731211Y-17796638D01*
X-8736080Y-17794914D01*
X-8736084Y-17794912D01*
X-8936913Y-17723795D01*
X-8936917Y-17723794D01*
X-8941788Y-17722069D01*
X-8946881Y-17721162D01*
X-8946884Y-17721161D01*
X-9156627Y-17683800D01*
X-9156633Y-17683799D01*
X-9161716Y-17682894D01*
X-9235548Y-17681992D01*
X-9379919Y-17680228D01*
X-9379921Y-17680228D01*
X-9385089Y-17680165D01*
X-9605909Y-17713955D01*
X-9818244Y-17783357D01*
X-10016393Y-17886507D01*
X-10020526Y-17889610D01*
X-10020529Y-17889612D01*
X-10190900Y-18017530D01*
X-10195035Y-18020635D01*
X-10198607Y-18024373D01*
X-10327546Y-18159300D01*
X-10349371Y-18182138D01*
X-10456799Y-18339621D01*
X-10511707Y-18384621D01*
X-10582232Y-18392792D01*
X-10645979Y-18361538D01*
X-10666676Y-18337054D01*
X-10747178Y-18212617D01*
X-10747180Y-18212614D01*
X-10749986Y-18208277D01*
X-10900330Y-18043051D01*
X-10904381Y-18039852D01*
X-10904385Y-18039848D01*
X-11071586Y-17907800D01*
X-11071590Y-17907798D01*
X-11075641Y-17904598D01*
X-11084158Y-17899896D01*
X-11175515Y-17849465D01*
X-11271211Y-17796638D01*
X-11276080Y-17794914D01*
X-11276084Y-17794912D01*
X-11476913Y-17723795D01*
X-11476917Y-17723794D01*
X-11481788Y-17722069D01*
X-11486881Y-17721162D01*
X-11486884Y-17721161D01*
X-11696627Y-17683800D01*
X-11696633Y-17683799D01*
X-11701716Y-17682894D01*
X-11775548Y-17681992D01*
X-11919919Y-17680228D01*
X-11919921Y-17680228D01*
X-11925089Y-17680165D01*
X-12145909Y-17713955D01*
X-12358244Y-17783357D01*
X-12556393Y-17886507D01*
X-12560526Y-17889610D01*
X-12560529Y-17889612D01*
X-12730900Y-18017530D01*
X-12735035Y-18020635D01*
X-12738607Y-18024373D01*
X-12867546Y-18159300D01*
X-12889371Y-18182138D01*
X-12996799Y-18339621D01*
X-13051707Y-18384621D01*
X-13122232Y-18392792D01*
X-13185979Y-18361538D01*
X-13206676Y-18337054D01*
X-13287178Y-18212617D01*
X-13287180Y-18212614D01*
X-13289986Y-18208277D01*
X-13440330Y-18043051D01*
X-13444381Y-18039852D01*
X-13444385Y-18039848D01*
X-13611586Y-17907800D01*
X-13611590Y-17907798D01*
X-13615641Y-17904598D01*
X-13624158Y-17899896D01*
X-13715515Y-17849465D01*
X-13811211Y-17796638D01*
X-13816080Y-17794914D01*
X-13816084Y-17794912D01*
X-14016913Y-17723795D01*
X-14016917Y-17723794D01*
X-14021788Y-17722069D01*
X-14026881Y-17721162D01*
X-14026884Y-17721161D01*
X-14236627Y-17683800D01*
X-14236633Y-17683799D01*
X-14241716Y-17682894D01*
X-14315548Y-17681992D01*
X-14459919Y-17680228D01*
X-14459921Y-17680228D01*
X-14465089Y-17680165D01*
X-14685909Y-17713955D01*
X-14898244Y-17783357D01*
X-15096393Y-17886507D01*
X-15100526Y-17889610D01*
X-15100529Y-17889612D01*
X-15270900Y-18017530D01*
X-15275035Y-18020635D01*
X-15278607Y-18024373D01*
X-15407546Y-18159300D01*
X-15429371Y-18182138D01*
X-15536799Y-18339621D01*
X-15591707Y-18384621D01*
X-15662232Y-18392792D01*
X-15725979Y-18361538D01*
X-15746676Y-18337054D01*
X-15827178Y-18212617D01*
X-15827180Y-18212614D01*
X-15829986Y-18208277D01*
X-15980330Y-18043051D01*
X-15984381Y-18039852D01*
X-15984385Y-18039848D01*
X-16151586Y-17907800D01*
X-16151590Y-17907798D01*
X-16155641Y-17904598D01*
X-16164158Y-17899896D01*
X-16255515Y-17849465D01*
X-16351211Y-17796638D01*
X-16356080Y-17794914D01*
X-16356084Y-17794912D01*
X-16556913Y-17723795D01*
X-16556917Y-17723794D01*
X-16561788Y-17722069D01*
X-16566881Y-17721162D01*
X-16566884Y-17721161D01*
X-16776627Y-17683800D01*
X-16776633Y-17683799D01*
X-16781716Y-17682894D01*
X-16852230Y-17682033D01*
X-16999918Y-17680228D01*
X-16999920Y-17680228D01*
X-17005089Y-17680165D01*
X-17022923Y-17682894D01*
X-17155805Y-17703227D01*
X-17230919Y-17691521D01*
X-17242333Y-17685851D01*
X-17252055Y-17681021D01*
X-17260907Y-17676172D01*
X-17312749Y-17645008D01*
X-17319846Y-17640410D01*
X-17383394Y-17596148D01*
X-17389251Y-17591812D01*
X-17461656Y-17534892D01*
X-17466618Y-17530781D01*
X-17545667Y-17461816D01*
X-17549976Y-17457878D01*
X-17579388Y-17429715D01*
X-17635536Y-17375952D01*
X-17639684Y-17372346D01*
X-17668313Y-17347463D01*
X-17668314Y-17347462D01*
X-17672860Y-17343511D01*
X-17674162Y-17342758D01*
X-17686063Y-17332677D01*
X-18136345Y-16882395D01*
X-18144335Y-16873615D01*
X-18144337Y-16873613D01*
X-18148584Y-16866920D01*
X-18189911Y-16828111D01*
X-18200257Y-16818396D01*
X-18203099Y-16815641D01*
X-18223667Y-16795073D01*
X-18227174Y-16792353D01*
X-18236196Y-16784647D01*
X-18247288Y-16774231D01*
X-18269867Y-16753028D01*
X-18276819Y-16749206D01*
X-18288658Y-16742697D01*
X-18305182Y-16731843D01*
X-18315868Y-16723555D01*
X-18322132Y-16718696D01*
X-18329404Y-16715549D01*
X-18329406Y-16715548D01*
X-18364535Y-16700346D01*
X-18375195Y-16695124D01*
X-18408716Y-16676695D01*
X-18408718Y-16676694D01*
X-18415663Y-16672876D01*
X-18436441Y-16667541D01*
X-18455131Y-16661142D01*
X-18474824Y-16652620D01*
X-18520448Y-16645394D01*
X-18532071Y-16642987D01*
X-18564446Y-16634675D01*
X-18576812Y-16631500D01*
X-18598259Y-16631500D01*
X-18617969Y-16629949D01*
X-18631323Y-16627834D01*
X-18639152Y-16626594D01*
X-18685141Y-16630941D01*
X-18696996Y-16631500D01*
X-25935050Y-16631500D01*
X-26003171Y-16611498D01*
X-26024146Y-16594595D01*
X-26409596Y-16209144D01*
X-26443621Y-16146832D01*
X-26446500Y-16120049D01*
X-26446500Y-15175569D01*
X-26426411Y-15107314D01*
X-26366533Y-15014402D01*
X-26366529Y-15014393D01*
X-26362714Y-15008474D01*
X-26356263Y-14990751D01*
X-26301934Y-14841484D01*
X-26301934Y-14841483D01*
X-26299525Y-14834865D01*
X-26281500Y-14692180D01*
X-26281500Y-13194500D01*
X-26261498Y-13126379D01*
X-26207842Y-13079886D01*
X-26155500Y-13068500D01*
X-22713778Y-13068500D01*
X-22695344Y-13069856D01*
X-22670414Y-13073543D01*
X-22666257Y-13073560D01*
X-22606852Y-13093738D01*
X-22573927Y-13115283D01*
X-22534154Y-13141310D01*
X-22527550Y-13143766D01*
X-22527548Y-13143767D01*
X-22424869Y-13181953D01*
X-22367993Y-13224445D01*
X-22343119Y-13290942D01*
X-22358144Y-13360330D01*
X-22379694Y-13389145D01*
X-23235144Y-14244595D01*
X-23297456Y-14278621D01*
X-23324239Y-14281500D01*
X-23976205Y-14281500D01*
X-23994643Y-14280144D01*
X-24019567Y-14276457D01*
X-24023557Y-14276441D01*
X-24081434Y-14257232D01*
X-24159449Y-14207722D01*
X-24159452Y-14207720D01*
X-24165392Y-14203951D01*
X-24325700Y-14146868D01*
X-24494671Y-14126720D01*
X-24501674Y-14127456D01*
X-24501675Y-14127456D01*
X-24656899Y-14143770D01*
X-24656903Y-14143771D01*
X-24663907Y-14144507D01*
X-24670578Y-14146778D01*
X-24818327Y-14197075D01*
X-24818330Y-14197076D01*
X-24824997Y-14199346D01*
X-24830995Y-14203036D01*
X-24830997Y-14203037D01*
X-24963935Y-14284821D01*
X-24963937Y-14284823D01*
X-24969934Y-14288512D01*
X-25091514Y-14407573D01*
X-25095325Y-14413487D01*
X-25095327Y-14413489D01*
X-25161467Y-14516117D01*
X-25183696Y-14550610D01*
X-25241897Y-14710516D01*
X-25263225Y-14879343D01*
X-25246619Y-15048699D01*
X-25244395Y-15055384D01*
X-25244395Y-15055385D01*
X-25224933Y-15113891D01*
X-25192906Y-15210167D01*
X-25189259Y-15216189D01*
X-25189258Y-15216191D01*
X-25109142Y-15348477D01*
X-25104754Y-15355723D01*
X-24986545Y-15478132D01*
X-24920849Y-15521122D01*
X-24859252Y-15561430D01*
X-24844154Y-15571310D01*
X-24837550Y-15573766D01*
X-24837548Y-15573767D01*
X-24801156Y-15587301D01*
X-24684659Y-15630626D01*
X-24515985Y-15653132D01*
X-24508974Y-15652494D01*
X-24508970Y-15652494D01*
X-24353538Y-15638348D01*
X-24346517Y-15637709D01*
X-24339815Y-15635531D01*
X-24339813Y-15635531D01*
X-24191377Y-15587301D01*
X-24191374Y-15587300D01*
X-24184678Y-15585124D01*
X-24077312Y-15521121D01*
X-24019544Y-15504281D01*
X-24019586Y-15503543D01*
X-23965721Y-15500492D01*
X-23962659Y-15499704D01*
X-23947082Y-15498500D01*
X-23068136Y-15498500D01*
X-23051693Y-15499578D01*
X-23020000Y-15503750D01*
X-23011811Y-15502672D01*
X-22980126Y-15498501D01*
X-22980116Y-15498500D01*
X-22980115Y-15498500D01*
X-22878461Y-15485117D01*
X-22869336Y-15483916D01*
X-22869334Y-15483916D01*
X-22861149Y-15482838D01*
X-22713124Y-15421524D01*
X-22701577Y-15412664D01*
X-22617928Y-15348477D01*
X-22617925Y-15348474D01*
X-22592566Y-15329015D01*
X-22586013Y-15323987D01*
X-22580983Y-15317432D01*
X-22566548Y-15298621D01*
X-22555681Y-15286230D01*
X-18393153Y-11123702D01*
X-18380762Y-11112835D01*
X-18322954Y-11068477D01*
X-18322951Y-11068474D01*
X-18297589Y-11049013D01*
X-18291039Y-11043987D01*
X-18271568Y-11018613D01*
X-18260710Y-11006233D01*
X-15979882Y-8725405D01*
X-15917570Y-8691379D01*
X-15890787Y-8688500D01*
X-13417503Y-8688500D01*
X-13349382Y-8708502D01*
G37*
%TD.AperFunction*%
%TA.AperFunction,Conductor*%
G36*
X-500334Y-14670201D02*
G01*
X-479696Y-14673627D01*
X-475190Y-14673725D01*
X-475188Y-14673725D01*
X-441373Y-14674459D01*
X-361260Y-14676198D01*
X-355463Y-14676457D01*
X-309770Y-14679570D01*
X-265936Y-14682556D01*
X-199332Y-14707142D01*
X-156594Y-14763834D01*
X-148500Y-14808265D01*
X-148500Y-14908134D01*
X-141745Y-14970316D01*
X-90615Y-15106705D01*
X-3261Y-15223261D01*
X113295Y-15310615D01*
X249684Y-15361745D01*
X311866Y-15368500D01*
X2065500Y-15368500D01*
X2133621Y-15388502D01*
X2180114Y-15442158D01*
X2191500Y-15494500D01*
X2191500Y-17312819D01*
X2190653Y-17327400D01*
X2188316Y-17347463D01*
X2186448Y-17363493D01*
X2187954Y-17372346D01*
X2189459Y-17381195D01*
X2191222Y-17404672D01*
X2190125Y-17463566D01*
X2186532Y-17656450D01*
X2185444Y-17670792D01*
X2148391Y-17948065D01*
X2145675Y-17962191D01*
X2119546Y-18065785D01*
X2083491Y-18126946D01*
X2020094Y-18158904D01*
X1949483Y-18151515D01*
X1894077Y-18107123D01*
X1871901Y-18046499D01*
X1865137Y-17972880D01*
X1865136Y-17972877D01*
X1864608Y-17967126D01*
X1846269Y-17902101D01*
X1810875Y-17776606D01*
X1810874Y-17776604D01*
X1809307Y-17771047D01*
X1799477Y-17751112D01*
X1721756Y-17593510D01*
X1719201Y-17588329D01*
X1710069Y-17576099D01*
X1600758Y-17429715D01*
X1600758Y-17429714D01*
X1597305Y-17425091D01*
X1492820Y-17328506D01*
X1451943Y-17290719D01*
X1451940Y-17290717D01*
X1447703Y-17286800D01*
X1398658Y-17255855D01*
X1280288Y-17181169D01*
X1280283Y-17181167D01*
X1275404Y-17178088D01*
X1086180Y-17102595D01*
X886366Y-17062849D01*
X880592Y-17062773D01*
X880588Y-17062773D01*
X777452Y-17061424D01*
X682655Y-17060183D01*
X676958Y-17061162D01*
X676957Y-17061162D01*
X609152Y-17072813D01*
X481870Y-17094684D01*
X290734Y-17165198D01*
X115649Y-17269363D01*
X-37522Y-17403690D01*
X-41089Y-17408215D01*
X-41094Y-17408220D01*
X-90505Y-17470898D01*
X-163649Y-17563681D01*
X-166338Y-17568792D01*
X-166340Y-17568795D01*
X-180731Y-17596148D01*
X-258508Y-17743978D01*
X-318922Y-17938543D01*
X-342868Y-18140859D01*
X-342169Y-18151515D01*
X-341785Y-18157375D01*
X-357287Y-18226658D01*
X-407786Y-18276562D01*
X-477249Y-18291241D01*
X-543621Y-18266037D01*
X-573306Y-18234059D01*
X-587175Y-18212621D01*
X-587180Y-18212615D01*
X-589986Y-18208277D01*
X-740330Y-18043051D01*
X-744381Y-18039852D01*
X-744385Y-18039848D01*
X-911588Y-17907799D01*
X-915641Y-17904598D01*
X-920154Y-17902107D01*
X-920164Y-17902100D01*
X-924158Y-17899896D01*
X-974130Y-17849465D01*
X-979865Y-17837344D01*
X-992252Y-17807102D01*
X-996092Y-17796368D01*
X-1011798Y-17745275D01*
X-1014340Y-17735668D01*
X-1029442Y-17667872D01*
X-1031058Y-17659184D01*
X-1033510Y-17642836D01*
X-1043523Y-17576099D01*
X-1044458Y-17568163D01*
X-1052792Y-17470898D01*
X-1053205Y-17463582D01*
X-1056339Y-17348841D01*
X-1056340Y-17348821D01*
X-1056380Y-17347357D01*
X-1056524Y-17345408D01*
X-1059492Y-17305436D01*
X-1059934Y-17299480D01*
X-1060183Y-17298558D01*
X-1061500Y-17282995D01*
X-1061500Y-15383877D01*
X-1060140Y-15365415D01*
X-1057115Y-15344995D01*
X-1057115Y-15344990D01*
X-1056455Y-15340537D01*
X-1056383Y-15340548D01*
X-1036199Y-15281819D01*
X-981109Y-15198902D01*
X-920681Y-15039825D01*
X-896999Y-14871313D01*
X-896701Y-14850000D01*
X-901351Y-14808544D01*
X-889067Y-14738619D01*
X-840928Y-14686435D01*
X-776136Y-14668500D01*
X-520968Y-14668500D01*
X-500334Y-14670201D01*
G37*
%TD.AperFunction*%
%TA.AperFunction,Conductor*%
G36*
X-407132Y-2311252D02*
G01*
X-371897Y-2372888D01*
X-368741Y-2393828D01*
X-364608Y-2456883D01*
X-359543Y-2534151D01*
X-309395Y-2731610D01*
X-224102Y-2916624D01*
X-106521Y-3082997D01*
X39410Y-3225157D01*
X44206Y-3228362D01*
X44209Y-3228364D01*
X166904Y-3310346D01*
X208803Y-3338342D01*
X214106Y-3340620D01*
X214109Y-3340622D01*
X372711Y-3408763D01*
X395987Y-3418763D01*
X468817Y-3435243D01*
X589055Y-3462450D01*
X589060Y-3462451D01*
X594692Y-3463725D01*
X600463Y-3463952D01*
X600465Y-3463952D01*
X663470Y-3466427D01*
X798263Y-3471723D01*
X999883Y-3442490D01*
X1005347Y-3440635D01*
X1005352Y-3440634D01*
X1187327Y-3378862D01*
X1187332Y-3378860D01*
X1192799Y-3377004D01*
X1202826Y-3371389D01*
X1315118Y-3308502D01*
X1370551Y-3277458D01*
X1527186Y-3147186D01*
X1657458Y-2990551D01*
X1742611Y-2838500D01*
X1754180Y-2817842D01*
X1754181Y-2817840D01*
X1757004Y-2812799D01*
X1758860Y-2807332D01*
X1758862Y-2807327D01*
X1820634Y-2625352D01*
X1820635Y-2625347D01*
X1822490Y-2619883D01*
X1823318Y-2614175D01*
X1823319Y-2614169D01*
X1844492Y-2468137D01*
X1874062Y-2403591D01*
X1933833Y-2365279D01*
X2004830Y-2365363D01*
X2064511Y-2403818D01*
X2091829Y-2457316D01*
X2151617Y-2711023D01*
X2154074Y-2724877D01*
X2188811Y-3013678D01*
X2189709Y-3027721D01*
X2191745Y-3283164D01*
X2189178Y-3309491D01*
X2187199Y-3319137D01*
X2187935Y-3328080D01*
X2187935Y-3328082D01*
X2191075Y-3366226D01*
X2191500Y-3376562D01*
X2191500Y-5174557D01*
X2171498Y-5242678D01*
X2117842Y-5289171D01*
X2047568Y-5299275D01*
X1987409Y-5273440D01*
X1968138Y-5258221D01*
X1959552Y-5252517D01*
X1773117Y-5149599D01*
X1763705Y-5145369D01*
X1562959Y-5074280D01*
X1552988Y-5071646D01*
X1481837Y-5058972D01*
X1468540Y-5060432D01*
X1464000Y-5074989D01*
X1464000Y-6518000D01*
X1443998Y-6586121D01*
X1390342Y-6632614D01*
X1338000Y-6644000D01*
X-106775Y-6644000D01*
X-120306Y-6647973D01*
X-121743Y-6657966D01*
X-91435Y-6792446D01*
X-88355Y-6802275D01*
X-8230Y-6999603D01*
X-3587Y-7008794D01*
X107694Y-7190388D01*
X113777Y-7198699D01*
X253213Y-7359667D01*
X260580Y-7366883D01*
X424434Y-7502916D01*
X432881Y-7508831D01*
X501969Y-7549203D01*
X550693Y-7600842D01*
X563764Y-7670625D01*
X537033Y-7736396D01*
X496584Y-7769752D01*
X483607Y-7776507D01*
X479474Y-7779610D01*
X479471Y-7779612D01*
X345142Y-7880469D01*
X304965Y-7910635D01*
X241874Y-7976656D01*
X188926Y-8032063D01*
X150629Y-8072138D01*
X24743Y-8256680D01*
X-5143Y-8321064D01*
X-34567Y-8384454D01*
X-69312Y-8459305D01*
X-129011Y-8674570D01*
X-152749Y-8896695D01*
X-152452Y-8901848D01*
X-152452Y-8901851D01*
X-142942Y-9066781D01*
X-139890Y-9119715D01*
X-138753Y-9124761D01*
X-138752Y-9124767D01*
X-121906Y-9199516D01*
X-90778Y-9337639D01*
X-6734Y-9544616D01*
X109987Y-9735088D01*
X256250Y-9903938D01*
X428126Y-10046632D01*
X452553Y-10060906D01*
X501445Y-10089476D01*
X550169Y-10141114D01*
X563240Y-10210897D01*
X536509Y-10276669D01*
X496055Y-10310027D01*
X483607Y-10316507D01*
X479474Y-10319610D01*
X479471Y-10319612D01*
X355166Y-10412943D01*
X304965Y-10450635D01*
X150629Y-10612138D01*
X24743Y-10796680D01*
X22564Y-10801375D01*
X-48552Y-10954582D01*
X-69312Y-10999305D01*
X-129011Y-11214570D01*
X-152749Y-11436695D01*
X-152452Y-11441848D01*
X-152452Y-11441851D01*
X-143585Y-11595633D01*
X-139890Y-11659715D01*
X-138753Y-11664761D01*
X-138752Y-11664767D01*
X-124796Y-11726692D01*
X-90778Y-11877639D01*
X-6734Y-12084616D01*
X35640Y-12153764D01*
X94334Y-12249544D01*
X109987Y-12275088D01*
X256250Y-12443938D01*
X260230Y-12447242D01*
X264981Y-12451187D01*
X304616Y-12510090D01*
X306113Y-12581071D01*
X268997Y-12641593D01*
X228725Y-12666112D01*
X213379Y-12671865D01*
X113295Y-12709385D01*
X-3261Y-12796739D01*
X-90615Y-12913295D01*
X-141745Y-13049684D01*
X-148500Y-13111866D01*
X-148500Y-13211734D01*
X-168502Y-13279855D01*
X-222158Y-13326348D01*
X-265936Y-13337443D01*
X-309770Y-13340429D01*
X-355463Y-13343542D01*
X-361259Y-13343801D01*
X-422935Y-13345140D01*
X-478195Y-13346340D01*
X-478208Y-13346341D01*
X-479700Y-13346373D01*
X-481175Y-13346476D01*
X-481193Y-13346477D01*
X-522978Y-13349400D01*
X-522979Y-13349400D01*
X-528982Y-13349820D01*
X-530448Y-13350211D01*
X-546003Y-13351500D01*
X-2427944Y-13351500D01*
X-2439800Y-13350941D01*
X-2439803Y-13350941D01*
X-2447537Y-13349212D01*
X-2502554Y-13350941D01*
X-2518369Y-13351438D01*
X-2522327Y-13351500D01*
X-2551432Y-13351500D01*
X-2555832Y-13352056D01*
X-2567664Y-13352988D01*
X-2613831Y-13354438D01*
X-2634421Y-13360420D01*
X-2653782Y-13364430D01*
X-2660770Y-13365312D01*
X-2667204Y-13366125D01*
X-2667205Y-13366125D01*
X-2675064Y-13367118D01*
X-2682429Y-13370034D01*
X-2682433Y-13370035D01*
X-2718021Y-13384126D01*
X-2729231Y-13387965D01*
X-2773600Y-13400855D01*
X-2792057Y-13411771D01*
X-2809807Y-13420466D01*
X-2829756Y-13428365D01*
X-2836167Y-13433023D01*
X-2836169Y-13433024D01*
X-2867136Y-13455523D01*
X-2877054Y-13462038D01*
X-2916807Y-13485548D01*
X-2931968Y-13500709D01*
X-2947000Y-13513548D01*
X-2964357Y-13526159D01*
X-2969410Y-13532267D01*
X-2993806Y-13561757D01*
X-3001796Y-13570537D01*
X-3786405Y-14355146D01*
X-3848717Y-14389172D01*
X-3919532Y-14384107D01*
X-3976368Y-14341560D01*
X-4001179Y-14275040D01*
X-4001500Y-14266051D01*
X-4001500Y-8013148D01*
X-4000172Y-7994901D01*
X-3997125Y-7974080D01*
X-3996473Y-7969628D01*
X-3996423Y-7949877D01*
X-3975372Y-7880472D01*
X-3941109Y-7828902D01*
X-3880681Y-7669825D01*
X-3856999Y-7501313D01*
X-3856701Y-7480000D01*
X-3875669Y-7310892D01*
X-3931632Y-7150189D01*
X-3937617Y-7140610D01*
X-3970198Y-7088472D01*
X-4021808Y-7005879D01*
X-4141714Y-6885132D01*
X-4157961Y-6874821D01*
X-4205899Y-6844399D01*
X-4285392Y-6793951D01*
X-4445700Y-6736868D01*
X-4614671Y-6716720D01*
X-4621674Y-6717456D01*
X-4621675Y-6717456D01*
X-4776899Y-6733770D01*
X-4776903Y-6733771D01*
X-4783907Y-6734507D01*
X-4790578Y-6736778D01*
X-4938327Y-6787075D01*
X-4938330Y-6787076D01*
X-4944997Y-6789346D01*
X-4950995Y-6793036D01*
X-4950997Y-6793037D01*
X-5083935Y-6874821D01*
X-5083937Y-6874823D01*
X-5089934Y-6878512D01*
X-5211514Y-6997573D01*
X-5215325Y-7003487D01*
X-5215327Y-7003489D01*
X-5287820Y-7115976D01*
X-5303696Y-7140610D01*
X-5307182Y-7150189D01*
X-5358473Y-7291110D01*
X-5361897Y-7300516D01*
X-5383225Y-7469343D01*
X-5366619Y-7638699D01*
X-5364395Y-7645384D01*
X-5364395Y-7645385D01*
X-5358587Y-7662845D01*
X-5312906Y-7800167D01*
X-5241218Y-7918537D01*
X-5223198Y-7976656D01*
X-5220487Y-8024348D01*
X-5219706Y-8027382D01*
X-5218500Y-8042959D01*
X-5218500Y-14316845D01*
X-5219828Y-14335091D01*
X-5223528Y-14360372D01*
X-5223539Y-14364870D01*
X-5223579Y-14380562D01*
X-5243668Y-14448500D01*
X-5277403Y-14500846D01*
X-5283696Y-14510610D01*
X-5341897Y-14670516D01*
X-5342780Y-14677505D01*
X-5344436Y-14684351D01*
X-5347380Y-14683639D01*
X-5370373Y-14736365D01*
X-5429432Y-14775769D01*
X-5467001Y-14781500D01*
X-12408259Y-14781500D01*
X-12427969Y-14779949D01*
X-12441323Y-14777834D01*
X-12449152Y-14776594D01*
X-12495141Y-14780941D01*
X-12506996Y-14781500D01*
X-13371985Y-14781500D01*
X-13440106Y-14761498D01*
X-13486599Y-14707842D01*
X-13490976Y-14696937D01*
X-13491450Y-14695574D01*
X-13529251Y-14587026D01*
X-13532765Y-14516117D01*
X-13528048Y-14500846D01*
X-13473185Y-14356417D01*
X-13473185Y-14356416D01*
X-13470681Y-14349825D01*
X-13446999Y-14181313D01*
X-13446701Y-14160000D01*
X-13465669Y-13990892D01*
X-13521632Y-13830189D01*
X-13521639Y-13830178D01*
X-13532587Y-13762849D01*
X-13525349Y-13733739D01*
X-13473181Y-13596407D01*
X-13473180Y-13596405D01*
X-13470681Y-13589825D01*
X-13469701Y-13582853D01*
X-13464768Y-13547754D01*
X-13433992Y-13481384D01*
X-13404622Y-13448482D01*
X-13404622Y-13448481D01*
X-13400523Y-13443890D01*
X-13398915Y-13441168D01*
X-13388744Y-13429293D01*
X-6083634Y-6124183D01*
X-125611Y-6124183D01*
X-124088Y-6132607D01*
X-111708Y-6136000D01*
X937885Y-6136000D01*
X953124Y-6131525D01*
X954329Y-6130135D01*
X956000Y-6122452D01*
X956000Y-5073102D01*
X952082Y-5059758D01*
X937806Y-5057771D01*
X899324Y-5063660D01*
X889288Y-5066051D01*
X686868Y-5132212D01*
X677359Y-5136209D01*
X488463Y-5234542D01*
X479738Y-5240036D01*
X309433Y-5367905D01*
X301726Y-5374748D01*
X154590Y-5528717D01*
X148104Y-5536727D01*
X28098Y-5712649D01*
X23000Y-5721623D01*
X-66662Y-5914783D01*
X-70225Y-5924470D01*
X-125611Y-6124183D01*
X-6083634Y-6124183D01*
X-2695057Y-2735606D01*
X-2677624Y-2721065D01*
X-2667505Y-2714068D01*
X-2667495Y-2714060D01*
X-2663800Y-2711505D01*
X-2634468Y-2684301D01*
X-2604258Y-2656283D01*
X-2597034Y-2650075D01*
X-2560138Y-2620714D01*
X-2494381Y-2593948D01*
X-2424591Y-2606982D01*
X-2418111Y-2610518D01*
X-2392725Y-2625352D01*
X-2249000Y-2709338D01*
X-2244175Y-2711180D01*
X-2244174Y-2711181D01*
X-2203125Y-2726856D01*
X-2040308Y-2789030D01*
X-2035240Y-2790061D01*
X-2035237Y-2790062D01*
X-1930396Y-2811392D01*
X-1821403Y-2833567D01*
X-1816228Y-2833757D01*
X-1816226Y-2833757D01*
X-1603327Y-2841564D01*
X-1603323Y-2841564D01*
X-1598163Y-2841753D01*
X-1593043Y-2841097D01*
X-1593041Y-2841097D01*
X-1381712Y-2814025D01*
X-1381711Y-2814025D01*
X-1376584Y-2813368D01*
X-1371634Y-2811883D01*
X-1167571Y-2750661D01*
X-1167566Y-2750659D01*
X-1162616Y-2749174D01*
X-962006Y-2650896D01*
X-780140Y-2521173D01*
X-621904Y-2363489D01*
X-618888Y-2359291D01*
X-618884Y-2359287D01*
X-596794Y-2328545D01*
X-540800Y-2284897D01*
X-470097Y-2278450D01*
X-407132Y-2311252D01*
G37*
%TD.AperFunction*%
%TA.AperFunction,Conductor*%
G36*
X-4802620Y-2701380D02*
G01*
X-4793467Y-2706728D01*
X-4793464Y-2706729D01*
X-4789000Y-2709338D01*
X-4691858Y-2746433D01*
X-4681781Y-2750281D01*
X-4625278Y-2793269D01*
X-4600985Y-2859980D01*
X-4616615Y-2929234D01*
X-4637635Y-2957086D01*
X-14270194Y-12589645D01*
X-14284088Y-12601648D01*
X-14304493Y-12616826D01*
X-14307688Y-12620002D01*
X-14308505Y-12620814D01*
X-14308849Y-12621002D01*
X-14311095Y-12622936D01*
X-14311510Y-12622454D01*
X-14369397Y-12654033D01*
X-14373907Y-12654507D01*
X-14424897Y-12671865D01*
X-14495826Y-12674883D01*
X-14557130Y-12639073D01*
X-14589342Y-12575805D01*
X-14591500Y-12552587D01*
X-14591500Y-12364239D01*
X-14571498Y-12296118D01*
X-14554595Y-12275144D01*
X-5179924Y-2900473D01*
X-5162833Y-2886169D01*
X-5152025Y-2878643D01*
X-5152015Y-2878635D01*
X-5148326Y-2876066D01*
X-5080090Y-2812359D01*
X-5078746Y-2811104D01*
X-5072031Y-2805265D01*
X-5012929Y-2757427D01*
X-5005426Y-2751803D01*
X-4951663Y-2714545D01*
X-4943064Y-2709086D01*
X-4929359Y-2701146D01*
X-4860392Y-2684301D01*
X-4802620Y-2701380D01*
G37*
%TD.AperFunction*%
%TD*%
M02*
