%TF.GenerationSoftware,KiCad,Pcbnew,(6.0.7)*%
%TF.CreationDate,2022-10-08T18:54:48+08:00*%
%TF.ProjectId,UINIO-MCU-STM32L051K8,55494e49-4f2d-44d4-9355-2d53544d3332,rev?*%
%TF.SameCoordinates,Original*%
%TF.FileFunction,Paste,Top*%
%TF.FilePolarity,Positive*%
%FSLAX46Y46*%
G04 Gerber Fmt 4.6, Leading zero omitted, Abs format (unit mm)*
G04 Created by KiCad (PCBNEW (6.0.7)) date 2022-10-08 18:54:48*
%MOMM*%
%LPD*%
G01*
G04 APERTURE LIST*
G04 Aperture macros list*
%AMRoundRect*
0 Rectangle with rounded corners*
0 $1 Rounding radius*
0 $2 $3 $4 $5 $6 $7 $8 $9 X,Y pos of 4 corners*
0 Add a 4 corners polygon primitive as box body*
4,1,4,$2,$3,$4,$5,$6,$7,$8,$9,$2,$3,0*
0 Add four circle primitives for the rounded corners*
1,1,$1+$1,$2,$3*
1,1,$1+$1,$4,$5*
1,1,$1+$1,$6,$7*
1,1,$1+$1,$8,$9*
0 Add four rect primitives between the rounded corners*
20,1,$1+$1,$2,$3,$4,$5,0*
20,1,$1+$1,$4,$5,$6,$7,0*
20,1,$1+$1,$6,$7,$8,$9,0*
20,1,$1+$1,$8,$9,$2,$3,0*%
%AMRotRect*
0 Rectangle, with rotation*
0 The origin of the aperture is its center*
0 $1 length*
0 $2 width*
0 $3 Rotation angle, in degrees counterclockwise*
0 Add horizontal line*
21,1,$1,$2,0,0,$3*%
G04 Aperture macros list end*
%ADD10C,0.120000*%
%ADD11RoundRect,0.135000X-0.185000X0.135000X-0.185000X-0.135000X0.185000X-0.135000X0.185000X0.135000X0*%
%ADD12RoundRect,0.140000X-0.170000X0.140000X-0.170000X-0.140000X0.170000X-0.140000X0.170000X0.140000X0*%
%ADD13RoundRect,0.250000X-0.625000X0.375000X-0.625000X-0.375000X0.625000X-0.375000X0.625000X0.375000X0*%
%ADD14RoundRect,0.140000X0.170000X-0.140000X0.170000X0.140000X-0.170000X0.140000X-0.170000X-0.140000X0*%
%ADD15RotRect,0.600000X0.300000X225.000000*%
%ADD16RotRect,0.600000X0.300000X315.000000*%
%ADD17RotRect,0.600000X0.300000X45.000000*%
%ADD18RotRect,0.600000X0.300000X135.000000*%
%ADD19RotRect,3.450000X3.450000X135.000000*%
%ADD20RoundRect,0.135000X0.135000X0.185000X-0.135000X0.185000X-0.135000X-0.185000X0.135000X-0.185000X0*%
%ADD21R,0.700000X1.400000*%
%ADD22R,0.800000X1.400000*%
%ADD23R,1.500000X1.500000*%
%ADD24RoundRect,0.218750X0.256250X-0.218750X0.256250X0.218750X-0.256250X0.218750X-0.256250X-0.218750X0*%
%ADD25RoundRect,0.140000X-0.140000X-0.170000X0.140000X-0.170000X0.140000X0.170000X-0.140000X0.170000X0*%
%ADD26RoundRect,0.140000X0.140000X0.170000X-0.140000X0.170000X-0.140000X-0.170000X0.140000X-0.170000X0*%
%ADD27R,1.200000X1.400000*%
%ADD28R,0.600000X1.000000*%
G04 APERTURE END LIST*
%TO.C,USB1*%
G36*
X155470000Y-90970000D02*
G01*
X154770000Y-90970000D01*
X154770000Y-89570000D01*
X155470000Y-89570000D01*
X155470000Y-90970000D01*
G37*
D10*
X155470000Y-90970000D02*
X154770000Y-90970000D01*
X154770000Y-89570000D01*
X155470000Y-89570000D01*
X155470000Y-90970000D01*
G36*
X158510000Y-90970000D02*
G01*
X157810000Y-90970000D01*
X157810000Y-89570000D01*
X158510000Y-89570000D01*
X158510000Y-90970000D01*
G37*
X158510000Y-90970000D02*
X157810000Y-90970000D01*
X157810000Y-89570000D01*
X158510000Y-89570000D01*
X158510000Y-90970000D01*
G36*
X161058000Y-84580000D02*
G01*
X161151000Y-84608000D01*
X161238000Y-84654000D01*
X161314000Y-84716000D01*
X161376000Y-84792000D01*
X161422000Y-84879000D01*
X161450000Y-84972000D01*
X161460000Y-85070000D01*
X161460000Y-85870000D01*
X161450000Y-85968000D01*
X161422000Y-86061000D01*
X161376000Y-86148000D01*
X161314000Y-86224000D01*
X161238000Y-86286000D01*
X161151000Y-86332000D01*
X161058000Y-86360000D01*
X160960000Y-86370000D01*
X160862000Y-86360000D01*
X160769000Y-86332000D01*
X160682000Y-86286000D01*
X160606000Y-86224000D01*
X160544000Y-86148000D01*
X160498000Y-86061000D01*
X160470000Y-85968000D01*
X160460000Y-85870000D01*
X160460000Y-85070000D01*
X160470000Y-84972000D01*
X160498000Y-84879000D01*
X160544000Y-84792000D01*
X160606000Y-84716000D01*
X160682000Y-84654000D01*
X160769000Y-84608000D01*
X160862000Y-84580000D01*
X160960000Y-84570000D01*
X161058000Y-84580000D01*
G37*
X161058000Y-84580000D02*
X161151000Y-84608000D01*
X161238000Y-84654000D01*
X161314000Y-84716000D01*
X161376000Y-84792000D01*
X161422000Y-84879000D01*
X161450000Y-84972000D01*
X161460000Y-85070000D01*
X161460000Y-85870000D01*
X161450000Y-85968000D01*
X161422000Y-86061000D01*
X161376000Y-86148000D01*
X161314000Y-86224000D01*
X161238000Y-86286000D01*
X161151000Y-86332000D01*
X161058000Y-86360000D01*
X160960000Y-86370000D01*
X160862000Y-86360000D01*
X160769000Y-86332000D01*
X160682000Y-86286000D01*
X160606000Y-86224000D01*
X160544000Y-86148000D01*
X160498000Y-86061000D01*
X160470000Y-85968000D01*
X160460000Y-85870000D01*
X160460000Y-85070000D01*
X160470000Y-84972000D01*
X160498000Y-84879000D01*
X160544000Y-84792000D01*
X160606000Y-84716000D01*
X160682000Y-84654000D01*
X160769000Y-84608000D01*
X160862000Y-84580000D01*
X160960000Y-84570000D01*
X161058000Y-84580000D01*
G36*
X159790000Y-90970000D02*
G01*
X158990000Y-90970000D01*
X158990000Y-89570000D01*
X159790000Y-89570000D01*
X159790000Y-90970000D01*
G37*
X159790000Y-90970000D02*
X158990000Y-90970000D01*
X158990000Y-89570000D01*
X159790000Y-89570000D01*
X159790000Y-90970000D01*
G36*
X152417000Y-84580000D02*
G01*
X152511000Y-84608000D01*
X152598000Y-84654000D01*
X152673000Y-84716000D01*
X152736000Y-84792000D01*
X152782000Y-84879000D01*
X152810000Y-84972000D01*
X152820000Y-85070000D01*
X152820000Y-85870000D01*
X152810000Y-85968000D01*
X152782000Y-86061000D01*
X152736000Y-86148000D01*
X152673000Y-86224000D01*
X152598000Y-86286000D01*
X152511000Y-86332000D01*
X152417000Y-86360000D01*
X152320000Y-86370000D01*
X152222000Y-86360000D01*
X152129000Y-86332000D01*
X152042000Y-86286000D01*
X151966000Y-86224000D01*
X151904000Y-86148000D01*
X151858000Y-86061000D01*
X151830000Y-85968000D01*
X151820000Y-85870000D01*
X151820000Y-85070000D01*
X151830000Y-84972000D01*
X151858000Y-84879000D01*
X151904000Y-84792000D01*
X151966000Y-84716000D01*
X152042000Y-84654000D01*
X152129000Y-84608000D01*
X152222000Y-84580000D01*
X152320000Y-84570000D01*
X152417000Y-84580000D01*
G37*
X152417000Y-84580000D02*
X152511000Y-84608000D01*
X152598000Y-84654000D01*
X152673000Y-84716000D01*
X152736000Y-84792000D01*
X152782000Y-84879000D01*
X152810000Y-84972000D01*
X152820000Y-85070000D01*
X152820000Y-85870000D01*
X152810000Y-85968000D01*
X152782000Y-86061000D01*
X152736000Y-86148000D01*
X152673000Y-86224000D01*
X152598000Y-86286000D01*
X152511000Y-86332000D01*
X152417000Y-86360000D01*
X152320000Y-86370000D01*
X152222000Y-86360000D01*
X152129000Y-86332000D01*
X152042000Y-86286000D01*
X151966000Y-86224000D01*
X151904000Y-86148000D01*
X151858000Y-86061000D01*
X151830000Y-85968000D01*
X151820000Y-85870000D01*
X151820000Y-85070000D01*
X151830000Y-84972000D01*
X151858000Y-84879000D01*
X151904000Y-84792000D01*
X151966000Y-84716000D01*
X152042000Y-84654000D01*
X152129000Y-84608000D01*
X152222000Y-84580000D01*
X152320000Y-84570000D01*
X152417000Y-84580000D01*
G36*
X152417000Y-88380000D02*
G01*
X152511000Y-88408000D01*
X152598000Y-88454000D01*
X152673000Y-88517000D01*
X152736000Y-88592000D01*
X152782000Y-88679000D01*
X152810000Y-88773000D01*
X152820000Y-88870000D01*
X152820000Y-89670000D01*
X152810000Y-89768000D01*
X152782000Y-89861000D01*
X152736000Y-89948000D01*
X152673000Y-90024000D01*
X152598000Y-90086000D01*
X152511000Y-90132000D01*
X152417000Y-90161000D01*
X152320000Y-90170000D01*
X152222000Y-90161000D01*
X152129000Y-90132000D01*
X152042000Y-90086000D01*
X151966000Y-90024000D01*
X151904000Y-89948000D01*
X151858000Y-89861000D01*
X151830000Y-89768000D01*
X151820000Y-89670000D01*
X151820000Y-88870000D01*
X151830000Y-88773000D01*
X151858000Y-88679000D01*
X151904000Y-88592000D01*
X151966000Y-88517000D01*
X152042000Y-88454000D01*
X152129000Y-88408000D01*
X152222000Y-88380000D01*
X152320000Y-88370000D01*
X152417000Y-88380000D01*
G37*
X152417000Y-88380000D02*
X152511000Y-88408000D01*
X152598000Y-88454000D01*
X152673000Y-88517000D01*
X152736000Y-88592000D01*
X152782000Y-88679000D01*
X152810000Y-88773000D01*
X152820000Y-88870000D01*
X152820000Y-89670000D01*
X152810000Y-89768000D01*
X152782000Y-89861000D01*
X152736000Y-89948000D01*
X152673000Y-90024000D01*
X152598000Y-90086000D01*
X152511000Y-90132000D01*
X152417000Y-90161000D01*
X152320000Y-90170000D01*
X152222000Y-90161000D01*
X152129000Y-90132000D01*
X152042000Y-90086000D01*
X151966000Y-90024000D01*
X151904000Y-89948000D01*
X151858000Y-89861000D01*
X151830000Y-89768000D01*
X151820000Y-89670000D01*
X151820000Y-88870000D01*
X151830000Y-88773000D01*
X151858000Y-88679000D01*
X151904000Y-88592000D01*
X151966000Y-88517000D01*
X152042000Y-88454000D01*
X152129000Y-88408000D01*
X152222000Y-88380000D01*
X152320000Y-88370000D01*
X152417000Y-88380000D01*
G36*
X157490000Y-90970000D02*
G01*
X156790000Y-90970000D01*
X156790000Y-89570000D01*
X157490000Y-89570000D01*
X157490000Y-90970000D01*
G37*
X157490000Y-90970000D02*
X156790000Y-90970000D01*
X156790000Y-89570000D01*
X157490000Y-89570000D01*
X157490000Y-90970000D01*
G36*
X154290000Y-90970000D02*
G01*
X153490000Y-90970000D01*
X153490000Y-89570000D01*
X154290000Y-89570000D01*
X154290000Y-90970000D01*
G37*
X154290000Y-90970000D02*
X153490000Y-90970000D01*
X153490000Y-89570000D01*
X154290000Y-89570000D01*
X154290000Y-90970000D01*
G36*
X161058000Y-88380000D02*
G01*
X161151000Y-88408000D01*
X161238000Y-88454000D01*
X161314000Y-88517000D01*
X161376000Y-88592000D01*
X161422000Y-88679000D01*
X161450000Y-88773000D01*
X161460000Y-88870000D01*
X161460000Y-89670000D01*
X161450000Y-89768000D01*
X161422000Y-89861000D01*
X161376000Y-89948000D01*
X161314000Y-90024000D01*
X161238000Y-90086000D01*
X161151000Y-90132000D01*
X161058000Y-90161000D01*
X160960000Y-90170000D01*
X160862000Y-90161000D01*
X160769000Y-90132000D01*
X160682000Y-90086000D01*
X160606000Y-90024000D01*
X160544000Y-89948000D01*
X160498000Y-89861000D01*
X160470000Y-89768000D01*
X160460000Y-89670000D01*
X160460000Y-88870000D01*
X160470000Y-88773000D01*
X160498000Y-88679000D01*
X160544000Y-88592000D01*
X160606000Y-88517000D01*
X160682000Y-88454000D01*
X160769000Y-88408000D01*
X160862000Y-88380000D01*
X160960000Y-88370000D01*
X161058000Y-88380000D01*
G37*
X161058000Y-88380000D02*
X161151000Y-88408000D01*
X161238000Y-88454000D01*
X161314000Y-88517000D01*
X161376000Y-88592000D01*
X161422000Y-88679000D01*
X161450000Y-88773000D01*
X161460000Y-88870000D01*
X161460000Y-89670000D01*
X161450000Y-89768000D01*
X161422000Y-89861000D01*
X161376000Y-89948000D01*
X161314000Y-90024000D01*
X161238000Y-90086000D01*
X161151000Y-90132000D01*
X161058000Y-90161000D01*
X160960000Y-90170000D01*
X160862000Y-90161000D01*
X160769000Y-90132000D01*
X160682000Y-90086000D01*
X160606000Y-90024000D01*
X160544000Y-89948000D01*
X160498000Y-89861000D01*
X160470000Y-89768000D01*
X160460000Y-89670000D01*
X160460000Y-88870000D01*
X160470000Y-88773000D01*
X160498000Y-88679000D01*
X160544000Y-88592000D01*
X160606000Y-88517000D01*
X160682000Y-88454000D01*
X160769000Y-88408000D01*
X160862000Y-88380000D01*
X160960000Y-88370000D01*
X161058000Y-88380000D01*
G36*
X156490000Y-90970000D02*
G01*
X155790000Y-90970000D01*
X155790000Y-89570000D01*
X156490000Y-89570000D01*
X156490000Y-90970000D01*
G37*
X156490000Y-90970000D02*
X155790000Y-90970000D01*
X155790000Y-89570000D01*
X156490000Y-89570000D01*
X156490000Y-90970000D01*
%TD*%
D11*
%TO.C,R3*%
X157610000Y-95730000D03*
X157610000Y-96750000D03*
%TD*%
D12*
%TO.C,C5*%
X155490000Y-102950000D03*
X155490000Y-103910000D03*
%TD*%
D13*
%TO.C,F1*%
X163240000Y-87900000D03*
X163240000Y-90700000D03*
%TD*%
D14*
%TO.C,C4*%
X151968606Y-116422853D03*
X151968606Y-115462853D03*
%TD*%
D15*
%TO.C,U3*%
X159574819Y-115384239D03*
X159221266Y-115030685D03*
X158867712Y-114677132D03*
X158514159Y-114323578D03*
X158160606Y-113970025D03*
X157807052Y-113616472D03*
X157453499Y-113262918D03*
X157099945Y-112909365D03*
D16*
X155982717Y-112909365D03*
X155629163Y-113262918D03*
X155275610Y-113616472D03*
X154922056Y-113970025D03*
X154568503Y-114323578D03*
X154214950Y-114677132D03*
X153861396Y-115030685D03*
X153507843Y-115384239D03*
D17*
X153507843Y-116501467D03*
X153861396Y-116855021D03*
X154214950Y-117208574D03*
X154568503Y-117562128D03*
X154922056Y-117915681D03*
X155275610Y-118269234D03*
X155629163Y-118622788D03*
X155982717Y-118976341D03*
D18*
X157099945Y-118976341D03*
X157453499Y-118622788D03*
X157807052Y-118269234D03*
X158160606Y-117915681D03*
X158514159Y-117562128D03*
X158867712Y-117208574D03*
X159221266Y-116855021D03*
X159574819Y-116501467D03*
D19*
X156541331Y-115942853D03*
%TD*%
D20*
%TO.C,R1*%
X165980000Y-87500000D03*
X164960000Y-87500000D03*
%TD*%
D12*
%TO.C,C8*%
X155140000Y-110170000D03*
X155140000Y-111130000D03*
%TD*%
D14*
%TO.C,C7*%
X161228606Y-116412853D03*
X161228606Y-115452853D03*
%TD*%
D21*
%TO.C,USB1*%
X157140000Y-90270000D03*
X155120000Y-90270000D03*
D22*
X153890000Y-90270000D03*
D21*
X156140000Y-90270000D03*
X158160000Y-90270000D03*
D22*
X159390000Y-90270000D03*
%TD*%
D14*
%TO.C,C9*%
X157620000Y-103920000D03*
X157620000Y-102960000D03*
%TD*%
D23*
%TO.C,SW2*%
X159960000Y-96170000D03*
X159960000Y-103570000D03*
%TD*%
D11*
%TO.C,R2*%
X155530000Y-95720000D03*
X155530000Y-96740000D03*
%TD*%
D24*
%TO.C,D1*%
X165490000Y-90242500D03*
X165490000Y-88667500D03*
%TD*%
D25*
%TO.C,C2*%
X148760000Y-91320000D03*
X149720000Y-91320000D03*
%TD*%
D12*
%TO.C,C6*%
X156060000Y-110170000D03*
X156060000Y-111130000D03*
%TD*%
D26*
%TO.C,C11*%
X159160000Y-106810000D03*
X158200000Y-106810000D03*
%TD*%
D27*
%TO.C,Y1*%
X158700000Y-108390000D03*
X158700000Y-110590000D03*
X160400000Y-110590000D03*
X160400000Y-108390000D03*
%TD*%
D25*
%TO.C,C10*%
X160020000Y-106810000D03*
X160980000Y-106810000D03*
%TD*%
%TO.C,C1*%
X148760000Y-86370000D03*
X149720000Y-86370000D03*
%TD*%
D23*
%TO.C,SW1*%
X153200000Y-96150000D03*
X153200000Y-103550000D03*
%TD*%
D28*
%TO.C,U1*%
X149706000Y-87542000D03*
X148756000Y-87542000D03*
X147806000Y-87542000D03*
X147806000Y-90142000D03*
X149706000Y-90142000D03*
%TD*%
M02*
