%TF.GenerationSoftware,KiCad,Pcbnew,(6.0.10)*%
%TF.CreationDate,2023-01-11T23:50:31+08:00*%
%TF.ProjectId,UINIO-MCU-STM32L051K8,55494e49-4f2d-44d4-9355-2d53544d3332,Version 3.0.0*%
%TF.SameCoordinates,Original*%
%TF.FileFunction,Soldermask,Bot*%
%TF.FilePolarity,Negative*%
%FSLAX46Y46*%
G04 Gerber Fmt 4.6, Leading zero omitted, Abs format (unit mm)*
G04 Created by KiCad (PCBNEW (6.0.10)) date 2023-01-11 23:50:31*
%MOMM*%
%LPD*%
G01*
G04 APERTURE LIST*
G04 Aperture macros list*
%AMRoundRect*
0 Rectangle with rounded corners*
0 $1 Rounding radius*
0 $2 $3 $4 $5 $6 $7 $8 $9 X,Y pos of 4 corners*
0 Add a 4 corners polygon primitive as box body*
4,1,4,$2,$3,$4,$5,$6,$7,$8,$9,$2,$3,0*
0 Add four circle primitives for the rounded corners*
1,1,$1+$1,$2,$3*
1,1,$1+$1,$4,$5*
1,1,$1+$1,$6,$7*
1,1,$1+$1,$8,$9*
0 Add four rect primitives between the rounded corners*
20,1,$1+$1,$2,$3,$4,$5,0*
20,1,$1+$1,$4,$5,$6,$7,0*
20,1,$1+$1,$6,$7,$8,$9,0*
20,1,$1+$1,$8,$9,$2,$3,0*%
G04 Aperture macros list end*
%ADD10C,1.200000*%
%ADD11R,1.700000X1.700000*%
%ADD12O,1.700000X1.700000*%
%ADD13O,1.800000X1.000000*%
%ADD14O,0.630000X2.250000*%
%ADD15RoundRect,0.140000X0.170000X-0.140000X0.170000X0.140000X-0.170000X0.140000X-0.170000X-0.140000X0*%
G04 APERTURE END LIST*
D10*
%TO.C,Hole3*%
X175040000Y-107630000D03*
%TD*%
%TO.C,Hole1*%
X130530000Y-91810000D03*
%TD*%
D11*
%TO.C,J3*%
X130090000Y-95970000D03*
D12*
X130090000Y-98510000D03*
X130090000Y-101050000D03*
X130090000Y-103590000D03*
%TD*%
D13*
%TO.C,USB1*%
X171260000Y-104050000D03*
X171260000Y-95410000D03*
X175060000Y-104050000D03*
X175060000Y-95410000D03*
%TD*%
D10*
%TO.C,Hole2*%
X130560000Y-107620000D03*
%TD*%
%TO.C,Hole4*%
X175040000Y-91810000D03*
%TD*%
D11*
%TO.C,J2*%
X165980000Y-108500000D03*
D12*
X163440000Y-108500000D03*
X160900000Y-108500000D03*
X158360000Y-108500000D03*
X155820000Y-108500000D03*
X153280000Y-108500000D03*
X150740000Y-108500000D03*
X148200000Y-108500000D03*
X145660000Y-108500000D03*
X143120000Y-108500000D03*
X140580000Y-108500000D03*
X138040000Y-108500000D03*
X135500000Y-108500000D03*
X132960000Y-108500000D03*
%TD*%
D14*
%TO.C,U2*%
X162215000Y-103210000D03*
X160945000Y-103210000D03*
X159675000Y-103210000D03*
X158405000Y-103210000D03*
X158405000Y-96150000D03*
X159675000Y-96150000D03*
X160945000Y-96150000D03*
X162215000Y-96150000D03*
%TD*%
D15*
%TO.C,C3*%
X163930000Y-100130000D03*
X163930000Y-99170000D03*
%TD*%
D11*
%TO.C,J1*%
X165990000Y-90940000D03*
D12*
X163450000Y-90940000D03*
X160910000Y-90940000D03*
X158370000Y-90940000D03*
X155830000Y-90940000D03*
X153290000Y-90940000D03*
X150750000Y-90940000D03*
X148210000Y-90940000D03*
X145670000Y-90940000D03*
X143130000Y-90940000D03*
X140590000Y-90940000D03*
X138050000Y-90940000D03*
X135510000Y-90940000D03*
X132970000Y-90940000D03*
%TD*%
M02*
