%TF.GenerationSoftware,KiCad,Pcbnew,(6.0.10)*%
%TF.CreationDate,2023-01-24T21:43:39+08:00*%
%TF.ProjectId,UINIO-MCU-STM32L051K8,55494e49-4f2d-44d4-9355-2d53544d3332,Version 3.1.0*%
%TF.SameCoordinates,PX7d37aa0PY554e610*%
%TF.FileFunction,Legend,Bot*%
%TF.FilePolarity,Positive*%
%FSLAX46Y46*%
G04 Gerber Fmt 4.6, Leading zero omitted, Abs format (unit mm)*
G04 Created by KiCad (PCBNEW (6.0.10)) date 2023-01-24 21:43:39*
%MOMM*%
%LPD*%
G01*
G04 APERTURE LIST*
G04 Aperture macros list*
%AMRoundRect*
0 Rectangle with rounded corners*
0 $1 Rounding radius*
0 $2 $3 $4 $5 $6 $7 $8 $9 X,Y pos of 4 corners*
0 Add a 4 corners polygon primitive as box body*
4,1,4,$2,$3,$4,$5,$6,$7,$8,$9,$2,$3,0*
0 Add four circle primitives for the rounded corners*
1,1,$1+$1,$2,$3*
1,1,$1+$1,$4,$5*
1,1,$1+$1,$6,$7*
1,1,$1+$1,$8,$9*
0 Add four rect primitives between the rounded corners*
20,1,$1+$1,$2,$3,$4,$5,0*
20,1,$1+$1,$4,$5,$6,$7,0*
20,1,$1+$1,$6,$7,$8,$9,0*
20,1,$1+$1,$8,$9,$2,$3,0*%
G04 Aperture macros list end*
%ADD10C,0.100000*%
%ADD11C,0.200000*%
%ADD12C,0.300000*%
%ADD13C,0.120000*%
%ADD14C,0.152000*%
%ADD15C,1.200000*%
%ADD16R,1.700000X1.700000*%
%ADD17O,1.700000X1.700000*%
%ADD18O,1.800000X1.000000*%
%ADD19O,0.630000X2.250000*%
%ADD20RoundRect,0.140000X0.170000X-0.140000X0.170000X0.140000X-0.170000X0.140000X-0.170000X-0.140000X0*%
G04 APERTURE END LIST*
D10*
X19073333Y-17586666D02*
X19773333Y-17586666D01*
X19773333Y-17320000D01*
X19740000Y-17253333D01*
X19706666Y-17220000D01*
X19640000Y-17186666D01*
X19540000Y-17186666D01*
X19473333Y-17220000D01*
X19440000Y-17253333D01*
X19406666Y-17320000D01*
X19406666Y-17586666D01*
X19440000Y-16653333D02*
X19406666Y-16553333D01*
X19373333Y-16520000D01*
X19306666Y-16486666D01*
X19206666Y-16486666D01*
X19140000Y-16520000D01*
X19106666Y-16553333D01*
X19073333Y-16620000D01*
X19073333Y-16886666D01*
X19773333Y-16886666D01*
X19773333Y-16653333D01*
X19740000Y-16586666D01*
X19706666Y-16553333D01*
X19640000Y-16520000D01*
X19573333Y-16520000D01*
X19506666Y-16553333D01*
X19473333Y-16586666D01*
X19440000Y-16653333D01*
X19440000Y-16886666D01*
X19773333Y-16253333D02*
X19773333Y-15786666D01*
X19073333Y-16086666D01*
X344285Y-10768571D02*
X344285Y-11368571D01*
X572857Y-11368571D01*
X630000Y-11340000D01*
X658571Y-11311428D01*
X687142Y-11254285D01*
X687142Y-11168571D01*
X658571Y-11111428D01*
X630000Y-11082857D01*
X572857Y-11054285D01*
X344285Y-11054285D01*
X915714Y-10940000D02*
X1201428Y-10940000D01*
X858571Y-10768571D02*
X1058571Y-11368571D01*
X1258571Y-10768571D01*
X1772857Y-10768571D02*
X1430000Y-10768571D01*
X1601428Y-10768571D02*
X1601428Y-11368571D01*
X1544285Y-11282857D01*
X1487142Y-11225714D01*
X1430000Y-11197142D01*
X2287142Y-11168571D02*
X2287142Y-10768571D01*
X2144285Y-11397142D02*
X2001428Y-10968571D01*
X2372857Y-10968571D01*
D11*
X42312857Y-19110000D02*
X41584285Y-19110000D01*
X41498571Y-19067142D01*
X41455714Y-19024285D01*
X41412857Y-18938571D01*
X41412857Y-18767142D01*
X41455714Y-18681428D01*
X41498571Y-18638571D01*
X41584285Y-18595714D01*
X42312857Y-18595714D01*
X41412857Y-18167142D02*
X42312857Y-18167142D01*
X41412857Y-17738571D02*
X42312857Y-17738571D01*
X41412857Y-17224285D01*
X42312857Y-17224285D01*
X41412857Y-16795714D02*
X42312857Y-16795714D01*
X42312857Y-16195714D02*
X42312857Y-16024285D01*
X42270000Y-15938571D01*
X42184285Y-15852857D01*
X42012857Y-15810000D01*
X41712857Y-15810000D01*
X41541428Y-15852857D01*
X41455714Y-15938571D01*
X41412857Y-16024285D01*
X41412857Y-16195714D01*
X41455714Y-16281428D01*
X41541428Y-16367142D01*
X41712857Y-16410000D01*
X42012857Y-16410000D01*
X42184285Y-16367142D01*
X42270000Y-16281428D01*
X42312857Y-16195714D01*
X41755714Y-15424285D02*
X41755714Y-14738571D01*
X41412857Y-14310000D02*
X42312857Y-14310000D01*
X41670000Y-14010000D01*
X42312857Y-13710000D01*
X41412857Y-13710000D01*
X41498571Y-12767142D02*
X41455714Y-12810000D01*
X41412857Y-12938571D01*
X41412857Y-13024285D01*
X41455714Y-13152857D01*
X41541428Y-13238571D01*
X41627142Y-13281428D01*
X41798571Y-13324285D01*
X41927142Y-13324285D01*
X42098571Y-13281428D01*
X42184285Y-13238571D01*
X42270000Y-13152857D01*
X42312857Y-13024285D01*
X42312857Y-12938571D01*
X42270000Y-12810000D01*
X42227142Y-12767142D01*
X42312857Y-12381428D02*
X41584285Y-12381428D01*
X41498571Y-12338571D01*
X41455714Y-12295714D01*
X41412857Y-12210000D01*
X41412857Y-12038571D01*
X41455714Y-11952857D01*
X41498571Y-11910000D01*
X41584285Y-11867142D01*
X42312857Y-11867142D01*
X41755714Y-11438571D02*
X41755714Y-10752857D01*
X41455714Y-10367142D02*
X41412857Y-10238571D01*
X41412857Y-10024285D01*
X41455714Y-9938571D01*
X41498571Y-9895714D01*
X41584285Y-9852857D01*
X41670000Y-9852857D01*
X41755714Y-9895714D01*
X41798571Y-9938571D01*
X41841428Y-10024285D01*
X41884285Y-10195714D01*
X41927142Y-10281428D01*
X41970000Y-10324285D01*
X42055714Y-10367142D01*
X42141428Y-10367142D01*
X42227142Y-10324285D01*
X42270000Y-10281428D01*
X42312857Y-10195714D01*
X42312857Y-9981428D01*
X42270000Y-9852857D01*
X42312857Y-9595714D02*
X42312857Y-9081428D01*
X41412857Y-9338571D02*
X42312857Y-9338571D01*
X41412857Y-8781428D02*
X42312857Y-8781428D01*
X41670000Y-8481428D01*
X42312857Y-8181428D01*
X41412857Y-8181428D01*
X42312857Y-7838571D02*
X42312857Y-7281428D01*
X41970000Y-7581428D01*
X41970000Y-7452857D01*
X41927142Y-7367142D01*
X41884285Y-7324285D01*
X41798571Y-7281428D01*
X41584285Y-7281428D01*
X41498571Y-7324285D01*
X41455714Y-7367142D01*
X41412857Y-7452857D01*
X41412857Y-7710000D01*
X41455714Y-7795714D01*
X41498571Y-7838571D01*
X42227142Y-6938571D02*
X42270000Y-6895714D01*
X42312857Y-6810000D01*
X42312857Y-6595714D01*
X42270000Y-6510000D01*
X42227142Y-6467142D01*
X42141428Y-6424285D01*
X42055714Y-6424285D01*
X41927142Y-6467142D01*
X41412857Y-6981428D01*
X41412857Y-6424285D01*
X41412857Y-5610000D02*
X41412857Y-6038571D01*
X42312857Y-6038571D01*
X42312857Y-5138571D02*
X42312857Y-5052857D01*
X42270000Y-4967142D01*
X42227142Y-4924285D01*
X42141428Y-4881428D01*
X41970000Y-4838571D01*
X41755714Y-4838571D01*
X41584285Y-4881428D01*
X41498571Y-4924285D01*
X41455714Y-4967142D01*
X41412857Y-5052857D01*
X41412857Y-5138571D01*
X41455714Y-5224285D01*
X41498571Y-5267142D01*
X41584285Y-5310000D01*
X41755714Y-5352857D01*
X41970000Y-5352857D01*
X42141428Y-5310000D01*
X42227142Y-5267142D01*
X42270000Y-5224285D01*
X42312857Y-5138571D01*
X42312857Y-4024285D02*
X42312857Y-4452857D01*
X41884285Y-4495714D01*
X41927142Y-4452857D01*
X41970000Y-4367142D01*
X41970000Y-4152857D01*
X41927142Y-4067142D01*
X41884285Y-4024285D01*
X41798571Y-3981428D01*
X41584285Y-3981428D01*
X41498571Y-4024285D01*
X41455714Y-4067142D01*
X41412857Y-4152857D01*
X41412857Y-4367142D01*
X41455714Y-4452857D01*
X41498571Y-4495714D01*
X41412857Y-3124285D02*
X41412857Y-3638571D01*
X41412857Y-3381428D02*
X42312857Y-3381428D01*
X42184285Y-3467142D01*
X42098571Y-3552857D01*
X42055714Y-3638571D01*
X41412857Y-2738571D02*
X42312857Y-2738571D01*
X41412857Y-2224285D02*
X41927142Y-2610000D01*
X42312857Y-2224285D02*
X41798571Y-2738571D01*
X41927142Y-1710000D02*
X41970000Y-1795714D01*
X42012857Y-1838571D01*
X42098571Y-1881428D01*
X42141428Y-1881428D01*
X42227142Y-1838571D01*
X42270000Y-1795714D01*
X42312857Y-1710000D01*
X42312857Y-1538571D01*
X42270000Y-1452857D01*
X42227142Y-1410000D01*
X42141428Y-1367142D01*
X42098571Y-1367142D01*
X42012857Y-1410000D01*
X41970000Y-1452857D01*
X41927142Y-1538571D01*
X41927142Y-1710000D01*
X41884285Y-1795714D01*
X41841428Y-1838571D01*
X41755714Y-1881428D01*
X41584285Y-1881428D01*
X41498571Y-1838571D01*
X41455714Y-1795714D01*
X41412857Y-1710000D01*
X41412857Y-1538571D01*
X41455714Y-1452857D01*
X41498571Y-1410000D01*
X41584285Y-1367142D01*
X41755714Y-1367142D01*
X41841428Y-1410000D01*
X41884285Y-1452857D01*
X41927142Y-1538571D01*
D10*
X11433333Y-17506666D02*
X12133333Y-17506666D01*
X12133333Y-17240000D01*
X12100000Y-17173333D01*
X12066666Y-17140000D01*
X12000000Y-17106666D01*
X11900000Y-17106666D01*
X11833333Y-17140000D01*
X11800000Y-17173333D01*
X11766666Y-17240000D01*
X11766666Y-17506666D01*
X11800000Y-16573333D02*
X11766666Y-16473333D01*
X11733333Y-16440000D01*
X11666666Y-16406666D01*
X11566666Y-16406666D01*
X11500000Y-16440000D01*
X11466666Y-16473333D01*
X11433333Y-16540000D01*
X11433333Y-16806666D01*
X12133333Y-16806666D01*
X12133333Y-16573333D01*
X12100000Y-16506666D01*
X12066666Y-16473333D01*
X12000000Y-16440000D01*
X11933333Y-16440000D01*
X11866666Y-16473333D01*
X11833333Y-16506666D01*
X11800000Y-16573333D01*
X11800000Y-16806666D01*
X11900000Y-15806666D02*
X11433333Y-15806666D01*
X12166666Y-15973333D02*
X11666666Y-16140000D01*
X11666666Y-15706666D01*
X1293333Y-17586666D02*
X1993333Y-17586666D01*
X1993333Y-17320000D01*
X1960000Y-17253333D01*
X1926666Y-17220000D01*
X1860000Y-17186666D01*
X1760000Y-17186666D01*
X1693333Y-17220000D01*
X1660000Y-17253333D01*
X1626666Y-17320000D01*
X1626666Y-17586666D01*
X1660000Y-16653333D02*
X1626666Y-16553333D01*
X1593333Y-16520000D01*
X1526666Y-16486666D01*
X1426666Y-16486666D01*
X1360000Y-16520000D01*
X1326666Y-16553333D01*
X1293333Y-16620000D01*
X1293333Y-16886666D01*
X1993333Y-16886666D01*
X1993333Y-16653333D01*
X1960000Y-16586666D01*
X1926666Y-16553333D01*
X1860000Y-16520000D01*
X1793333Y-16520000D01*
X1726666Y-16553333D01*
X1693333Y-16586666D01*
X1660000Y-16653333D01*
X1660000Y-16886666D01*
X1993333Y-16053333D02*
X1993333Y-15986666D01*
X1960000Y-15920000D01*
X1926666Y-15886666D01*
X1860000Y-15853333D01*
X1726666Y-15820000D01*
X1560000Y-15820000D01*
X1426666Y-15853333D01*
X1360000Y-15886666D01*
X1326666Y-15920000D01*
X1293333Y-15986666D01*
X1293333Y-16053333D01*
X1326666Y-16120000D01*
X1360000Y-16153333D01*
X1426666Y-16186666D01*
X1560000Y-16220000D01*
X1726666Y-16220000D01*
X1860000Y-16186666D01*
X1926666Y-16153333D01*
X1960000Y-16120000D01*
X1993333Y-16053333D01*
X6433333Y-5280000D02*
X7133333Y-5280000D01*
X7133333Y-5013333D01*
X7100000Y-4946666D01*
X7066666Y-4913333D01*
X7000000Y-4880000D01*
X6900000Y-4880000D01*
X6833333Y-4913333D01*
X6800000Y-4946666D01*
X6766666Y-5013333D01*
X6766666Y-5280000D01*
X6633333Y-4613333D02*
X6633333Y-4280000D01*
X6433333Y-4680000D02*
X7133333Y-4446666D01*
X6433333Y-4213333D01*
X6433333Y-3613333D02*
X6433333Y-4013333D01*
X6433333Y-3813333D02*
X7133333Y-3813333D01*
X7033333Y-3880000D01*
X6966666Y-3946666D01*
X6933333Y-4013333D01*
X6433333Y-2946666D02*
X6433333Y-3346666D01*
X6433333Y-3146666D02*
X7133333Y-3146666D01*
X7033333Y-3213333D01*
X6966666Y-3280000D01*
X6933333Y-3346666D01*
X8943333Y-17586666D02*
X9643333Y-17586666D01*
X9643333Y-17320000D01*
X9610000Y-17253333D01*
X9576666Y-17220000D01*
X9510000Y-17186666D01*
X9410000Y-17186666D01*
X9343333Y-17220000D01*
X9310000Y-17253333D01*
X9276666Y-17320000D01*
X9276666Y-17586666D01*
X9310000Y-16653333D02*
X9276666Y-16553333D01*
X9243333Y-16520000D01*
X9176666Y-16486666D01*
X9076666Y-16486666D01*
X9010000Y-16520000D01*
X8976666Y-16553333D01*
X8943333Y-16620000D01*
X8943333Y-16886666D01*
X9643333Y-16886666D01*
X9643333Y-16653333D01*
X9610000Y-16586666D01*
X9576666Y-16553333D01*
X9510000Y-16520000D01*
X9443333Y-16520000D01*
X9376666Y-16553333D01*
X9343333Y-16586666D01*
X9310000Y-16653333D01*
X9310000Y-16886666D01*
X9643333Y-16253333D02*
X9643333Y-15820000D01*
X9376666Y-16053333D01*
X9376666Y-15953333D01*
X9343333Y-15886666D01*
X9310000Y-15853333D01*
X9243333Y-15820000D01*
X9076666Y-15820000D01*
X9010000Y-15853333D01*
X8976666Y-15886666D01*
X8943333Y-15953333D01*
X8943333Y-16153333D01*
X8976666Y-16220000D01*
X9010000Y-16253333D01*
X24153333Y-17590000D02*
X24853333Y-17590000D01*
X24153333Y-17190000D01*
X24853333Y-17190000D01*
X24153333Y-16456666D02*
X24486666Y-16690000D01*
X24153333Y-16856666D02*
X24853333Y-16856666D01*
X24853333Y-16590000D01*
X24820000Y-16523333D01*
X24786666Y-16490000D01*
X24720000Y-16456666D01*
X24620000Y-16456666D01*
X24553333Y-16490000D01*
X24520000Y-16523333D01*
X24486666Y-16590000D01*
X24486666Y-16856666D01*
X24186666Y-16190000D02*
X24153333Y-16090000D01*
X24153333Y-15923333D01*
X24186666Y-15856666D01*
X24220000Y-15823333D01*
X24286666Y-15790000D01*
X24353333Y-15790000D01*
X24420000Y-15823333D01*
X24453333Y-15856666D01*
X24486666Y-15923333D01*
X24520000Y-16056666D01*
X24553333Y-16123333D01*
X24586666Y-16156666D01*
X24653333Y-16190000D01*
X24720000Y-16190000D01*
X24786666Y-16156666D01*
X24820000Y-16123333D01*
X24853333Y-16056666D01*
X24853333Y-15890000D01*
X24820000Y-15790000D01*
X24853333Y-15590000D02*
X24853333Y-15190000D01*
X24153333Y-15390000D02*
X24853333Y-15390000D01*
X16543333Y-17556666D02*
X17243333Y-17556666D01*
X17243333Y-17290000D01*
X17210000Y-17223333D01*
X17176666Y-17190000D01*
X17110000Y-17156666D01*
X17010000Y-17156666D01*
X16943333Y-17190000D01*
X16910000Y-17223333D01*
X16876666Y-17290000D01*
X16876666Y-17556666D01*
X16910000Y-16623333D02*
X16876666Y-16523333D01*
X16843333Y-16490000D01*
X16776666Y-16456666D01*
X16676666Y-16456666D01*
X16610000Y-16490000D01*
X16576666Y-16523333D01*
X16543333Y-16590000D01*
X16543333Y-16856666D01*
X17243333Y-16856666D01*
X17243333Y-16623333D01*
X17210000Y-16556666D01*
X17176666Y-16523333D01*
X17110000Y-16490000D01*
X17043333Y-16490000D01*
X16976666Y-16523333D01*
X16943333Y-16556666D01*
X16910000Y-16623333D01*
X16910000Y-16856666D01*
X17243333Y-15856666D02*
X17243333Y-15990000D01*
X17210000Y-16056666D01*
X17176666Y-16090000D01*
X17076666Y-16156666D01*
X16943333Y-16190000D01*
X16676666Y-16190000D01*
X16610000Y-16156666D01*
X16576666Y-16123333D01*
X16543333Y-16056666D01*
X16543333Y-15923333D01*
X16576666Y-15856666D01*
X16610000Y-15823333D01*
X16676666Y-15790000D01*
X16843333Y-15790000D01*
X16910000Y-15823333D01*
X16943333Y-15856666D01*
X16976666Y-15923333D01*
X16976666Y-16056666D01*
X16943333Y-16123333D01*
X16910000Y-16156666D01*
X16843333Y-16190000D01*
X3843333Y-5309000D02*
X4543333Y-5309000D01*
X4543333Y-5042333D01*
X4510000Y-4975666D01*
X4476666Y-4942333D01*
X4410000Y-4909000D01*
X4310000Y-4909000D01*
X4243333Y-4942333D01*
X4210000Y-4975666D01*
X4176666Y-5042333D01*
X4176666Y-5309000D01*
X4043333Y-4642333D02*
X4043333Y-4309000D01*
X3843333Y-4709000D02*
X4543333Y-4475666D01*
X3843333Y-4242333D01*
X3843333Y-3642333D02*
X3843333Y-4042333D01*
X3843333Y-3842333D02*
X4543333Y-3842333D01*
X4443333Y-3909000D01*
X4376666Y-3975666D01*
X4343333Y-4042333D01*
X4476666Y-3375666D02*
X4510000Y-3342333D01*
X4543333Y-3275666D01*
X4543333Y-3109000D01*
X4510000Y-3042333D01*
X4476666Y-3009000D01*
X4410000Y-2975666D01*
X4343333Y-2975666D01*
X4243333Y-3009000D01*
X3843333Y-3409000D01*
X3843333Y-2975666D01*
X1323333Y-5290000D02*
X2023333Y-5290000D01*
X2023333Y-5023333D01*
X1990000Y-4956666D01*
X1956666Y-4923333D01*
X1890000Y-4890000D01*
X1790000Y-4890000D01*
X1723333Y-4923333D01*
X1690000Y-4956666D01*
X1656666Y-5023333D01*
X1656666Y-5290000D01*
X1523333Y-4623333D02*
X1523333Y-4290000D01*
X1323333Y-4690000D02*
X2023333Y-4456666D01*
X1323333Y-4223333D01*
X1323333Y-3623333D02*
X1323333Y-4023333D01*
X1323333Y-3823333D02*
X2023333Y-3823333D01*
X1923333Y-3890000D01*
X1856666Y-3956666D01*
X1823333Y-4023333D01*
X2023333Y-2990000D02*
X2023333Y-3323333D01*
X1690000Y-3356666D01*
X1723333Y-3323333D01*
X1756666Y-3256666D01*
X1756666Y-3090000D01*
X1723333Y-3023333D01*
X1690000Y-2990000D01*
X1623333Y-2956666D01*
X1456666Y-2956666D01*
X1390000Y-2990000D01*
X1356666Y-3023333D01*
X1323333Y-3090000D01*
X1323333Y-3256666D01*
X1356666Y-3323333D01*
X1390000Y-3356666D01*
X21613333Y-17586666D02*
X22313333Y-17586666D01*
X22313333Y-17320000D01*
X22280000Y-17253333D01*
X22246666Y-17220000D01*
X22180000Y-17186666D01*
X22080000Y-17186666D01*
X22013333Y-17220000D01*
X21980000Y-17253333D01*
X21946666Y-17320000D01*
X21946666Y-17586666D01*
X21980000Y-16653333D02*
X21946666Y-16553333D01*
X21913333Y-16520000D01*
X21846666Y-16486666D01*
X21746666Y-16486666D01*
X21680000Y-16520000D01*
X21646666Y-16553333D01*
X21613333Y-16620000D01*
X21613333Y-16886666D01*
X22313333Y-16886666D01*
X22313333Y-16653333D01*
X22280000Y-16586666D01*
X22246666Y-16553333D01*
X22180000Y-16520000D01*
X22113333Y-16520000D01*
X22046666Y-16553333D01*
X22013333Y-16586666D01*
X21980000Y-16653333D01*
X21980000Y-16886666D01*
X22013333Y-16086666D02*
X22046666Y-16153333D01*
X22080000Y-16186666D01*
X22146666Y-16220000D01*
X22180000Y-16220000D01*
X22246666Y-16186666D01*
X22280000Y-16153333D01*
X22313333Y-16086666D01*
X22313333Y-15953333D01*
X22280000Y-15886666D01*
X22246666Y-15853333D01*
X22180000Y-15820000D01*
X22146666Y-15820000D01*
X22080000Y-15853333D01*
X22046666Y-15886666D01*
X22013333Y-15953333D01*
X22013333Y-16086666D01*
X21980000Y-16153333D01*
X21946666Y-16186666D01*
X21880000Y-16220000D01*
X21746666Y-16220000D01*
X21680000Y-16186666D01*
X21646666Y-16153333D01*
X21613333Y-16086666D01*
X21613333Y-15953333D01*
X21646666Y-15886666D01*
X21680000Y-15853333D01*
X21746666Y-15820000D01*
X21880000Y-15820000D01*
X21946666Y-15853333D01*
X21980000Y-15886666D01*
X22013333Y-15953333D01*
X8893333Y-5289000D02*
X9593333Y-5289000D01*
X9593333Y-5022333D01*
X9560000Y-4955666D01*
X9526666Y-4922333D01*
X9460000Y-4889000D01*
X9360000Y-4889000D01*
X9293333Y-4922333D01*
X9260000Y-4955666D01*
X9226666Y-5022333D01*
X9226666Y-5289000D01*
X9093333Y-4622333D02*
X9093333Y-4289000D01*
X8893333Y-4689000D02*
X9593333Y-4455666D01*
X8893333Y-4222333D01*
X8893333Y-3622333D02*
X8893333Y-4022333D01*
X8893333Y-3822333D02*
X9593333Y-3822333D01*
X9493333Y-3889000D01*
X9426666Y-3955666D01*
X9393333Y-4022333D01*
X9593333Y-3189000D02*
X9593333Y-3122333D01*
X9560000Y-3055666D01*
X9526666Y-3022333D01*
X9460000Y-2989000D01*
X9326666Y-2955666D01*
X9160000Y-2955666D01*
X9026666Y-2989000D01*
X8960000Y-3022333D01*
X8926666Y-3055666D01*
X8893333Y-3122333D01*
X8893333Y-3189000D01*
X8926666Y-3255666D01*
X8960000Y-3289000D01*
X9026666Y-3322333D01*
X9160000Y-3355666D01*
X9326666Y-3355666D01*
X9460000Y-3322333D01*
X9526666Y-3289000D01*
X9560000Y-3255666D01*
X9593333Y-3189000D01*
X26723333Y-4616666D02*
X27423333Y-4616666D01*
X27423333Y-4350000D01*
X27390000Y-4283333D01*
X27356666Y-4250000D01*
X27290000Y-4216666D01*
X27190000Y-4216666D01*
X27123333Y-4250000D01*
X27090000Y-4283333D01*
X27056666Y-4350000D01*
X27056666Y-4616666D01*
X26923333Y-3950000D02*
X26923333Y-3616666D01*
X26723333Y-4016666D02*
X27423333Y-3783333D01*
X26723333Y-3550000D01*
X27423333Y-3383333D02*
X27423333Y-2950000D01*
X27156666Y-3183333D01*
X27156666Y-3083333D01*
X27123333Y-3016666D01*
X27090000Y-2983333D01*
X27023333Y-2950000D01*
X26856666Y-2950000D01*
X26790000Y-2983333D01*
X26756666Y-3016666D01*
X26723333Y-3083333D01*
X26723333Y-3283333D01*
X26756666Y-3350000D01*
X26790000Y-3383333D01*
X19093333Y-4616666D02*
X19793333Y-4616666D01*
X19793333Y-4350000D01*
X19760000Y-4283333D01*
X19726666Y-4250000D01*
X19660000Y-4216666D01*
X19560000Y-4216666D01*
X19493333Y-4250000D01*
X19460000Y-4283333D01*
X19426666Y-4350000D01*
X19426666Y-4616666D01*
X19293333Y-3950000D02*
X19293333Y-3616666D01*
X19093333Y-4016666D02*
X19793333Y-3783333D01*
X19093333Y-3550000D01*
X19793333Y-3016666D02*
X19793333Y-3150000D01*
X19760000Y-3216666D01*
X19726666Y-3250000D01*
X19626666Y-3316666D01*
X19493333Y-3350000D01*
X19226666Y-3350000D01*
X19160000Y-3316666D01*
X19126666Y-3283333D01*
X19093333Y-3216666D01*
X19093333Y-3083333D01*
X19126666Y-3016666D01*
X19160000Y-2983333D01*
X19226666Y-2950000D01*
X19393333Y-2950000D01*
X19460000Y-2983333D01*
X19493333Y-3016666D01*
X19526666Y-3083333D01*
X19526666Y-3216666D01*
X19493333Y-3283333D01*
X19460000Y-3316666D01*
X19393333Y-3350000D01*
X40353333Y-13693333D02*
X39653333Y-13460000D01*
X40353333Y-13226666D01*
X39686666Y-12726666D02*
X39653333Y-12793333D01*
X39653333Y-12926666D01*
X39686666Y-12993333D01*
X39753333Y-13026666D01*
X40020000Y-13026666D01*
X40086666Y-12993333D01*
X40120000Y-12926666D01*
X40120000Y-12793333D01*
X40086666Y-12726666D01*
X40020000Y-12693333D01*
X39953333Y-12693333D01*
X39886666Y-13026666D01*
X39653333Y-12393333D02*
X40120000Y-12393333D01*
X39986666Y-12393333D02*
X40053333Y-12360000D01*
X40086666Y-12326666D01*
X40120000Y-12260000D01*
X40120000Y-12193333D01*
X39686666Y-11993333D02*
X39653333Y-11926666D01*
X39653333Y-11793333D01*
X39686666Y-11726666D01*
X39753333Y-11693333D01*
X39786666Y-11693333D01*
X39853333Y-11726666D01*
X39886666Y-11793333D01*
X39886666Y-11893333D01*
X39920000Y-11960000D01*
X39986666Y-11993333D01*
X40020000Y-11993333D01*
X40086666Y-11960000D01*
X40120000Y-11893333D01*
X40120000Y-11793333D01*
X40086666Y-11726666D01*
X39653333Y-11393333D02*
X40120000Y-11393333D01*
X40353333Y-11393333D02*
X40320000Y-11426666D01*
X40286666Y-11393333D01*
X40320000Y-11360000D01*
X40353333Y-11393333D01*
X40286666Y-11393333D01*
X39653333Y-10960000D02*
X39686666Y-11026666D01*
X39720000Y-11060000D01*
X39786666Y-11093333D01*
X39986666Y-11093333D01*
X40053333Y-11060000D01*
X40086666Y-11026666D01*
X40120000Y-10960000D01*
X40120000Y-10860000D01*
X40086666Y-10793333D01*
X40053333Y-10760000D01*
X39986666Y-10726666D01*
X39786666Y-10726666D01*
X39720000Y-10760000D01*
X39686666Y-10793333D01*
X39653333Y-10860000D01*
X39653333Y-10960000D01*
X40120000Y-10426666D02*
X39653333Y-10426666D01*
X40053333Y-10426666D02*
X40086666Y-10393333D01*
X40120000Y-10326666D01*
X40120000Y-10226666D01*
X40086666Y-10160000D01*
X40020000Y-10126666D01*
X39653333Y-10126666D01*
X40353333Y-9326666D02*
X40353333Y-8893333D01*
X40086666Y-9126666D01*
X40086666Y-9026666D01*
X40053333Y-8960000D01*
X40020000Y-8926666D01*
X39953333Y-8893333D01*
X39786666Y-8893333D01*
X39720000Y-8926666D01*
X39686666Y-8960000D01*
X39653333Y-9026666D01*
X39653333Y-9226666D01*
X39686666Y-9293333D01*
X39720000Y-9326666D01*
X39720000Y-8593333D02*
X39686666Y-8560000D01*
X39653333Y-8593333D01*
X39686666Y-8626666D01*
X39720000Y-8593333D01*
X39653333Y-8593333D01*
X39653333Y-7893333D02*
X39653333Y-8293333D01*
X39653333Y-8093333D02*
X40353333Y-8093333D01*
X40253333Y-8160000D01*
X40186666Y-8226666D01*
X40153333Y-8293333D01*
X39720000Y-7593333D02*
X39686666Y-7560000D01*
X39653333Y-7593333D01*
X39686666Y-7626666D01*
X39720000Y-7593333D01*
X39653333Y-7593333D01*
X40353333Y-7126666D02*
X40353333Y-7060000D01*
X40320000Y-6993333D01*
X40286666Y-6960000D01*
X40220000Y-6926666D01*
X40086666Y-6893333D01*
X39920000Y-6893333D01*
X39786666Y-6926666D01*
X39720000Y-6960000D01*
X39686666Y-6993333D01*
X39653333Y-7060000D01*
X39653333Y-7126666D01*
X39686666Y-7193333D01*
X39720000Y-7226666D01*
X39786666Y-7260000D01*
X39920000Y-7293333D01*
X40086666Y-7293333D01*
X40220000Y-7260000D01*
X40286666Y-7226666D01*
X40320000Y-7193333D01*
X40353333Y-7126666D01*
X334761Y-9166190D02*
X449047Y-9128095D01*
X639523Y-9128095D01*
X715714Y-9166190D01*
X753809Y-9204285D01*
X791904Y-9280476D01*
X791904Y-9356666D01*
X753809Y-9432857D01*
X715714Y-9470952D01*
X639523Y-9509047D01*
X487142Y-9547142D01*
X410952Y-9585238D01*
X372857Y-9623333D01*
X334761Y-9699523D01*
X334761Y-9775714D01*
X372857Y-9851904D01*
X410952Y-9890000D01*
X487142Y-9928095D01*
X677619Y-9928095D01*
X791904Y-9890000D01*
X1058571Y-9928095D02*
X1249047Y-9128095D01*
X1401428Y-9699523D01*
X1553809Y-9128095D01*
X1744285Y-9928095D01*
X2049047Y-9128095D02*
X2049047Y-9928095D01*
X2239523Y-9928095D01*
X2353809Y-9890000D01*
X2430000Y-9813809D01*
X2468095Y-9737619D01*
X2506190Y-9585238D01*
X2506190Y-9470952D01*
X2468095Y-9318571D01*
X2430000Y-9242380D01*
X2353809Y-9166190D01*
X2239523Y-9128095D01*
X2049047Y-9128095D01*
X2849047Y-9128095D02*
X2849047Y-9928095D01*
X3382380Y-9928095D02*
X3534761Y-9928095D01*
X3610952Y-9890000D01*
X3687142Y-9813809D01*
X3725238Y-9661428D01*
X3725238Y-9394761D01*
X3687142Y-9242380D01*
X3610952Y-9166190D01*
X3534761Y-9128095D01*
X3382380Y-9128095D01*
X3306190Y-9166190D01*
X3230000Y-9242380D01*
X3191904Y-9394761D01*
X3191904Y-9661428D01*
X3230000Y-9813809D01*
X3306190Y-9890000D01*
X3382380Y-9928095D01*
X344285Y-8158571D02*
X344285Y-8758571D01*
X572857Y-8758571D01*
X630000Y-8730000D01*
X658571Y-8701428D01*
X687142Y-8644285D01*
X687142Y-8558571D01*
X658571Y-8501428D01*
X630000Y-8472857D01*
X572857Y-8444285D01*
X344285Y-8444285D01*
X915714Y-8330000D02*
X1201428Y-8330000D01*
X858571Y-8158571D02*
X1058571Y-8758571D01*
X1258571Y-8158571D01*
X1772857Y-8158571D02*
X1430000Y-8158571D01*
X1601428Y-8158571D02*
X1601428Y-8758571D01*
X1544285Y-8672857D01*
X1487142Y-8615714D01*
X1430000Y-8587142D01*
X1972857Y-8758571D02*
X2344285Y-8758571D01*
X2144285Y-8530000D01*
X2230000Y-8530000D01*
X2287142Y-8501428D01*
X2315714Y-8472857D01*
X2344285Y-8415714D01*
X2344285Y-8272857D01*
X2315714Y-8215714D01*
X2287142Y-8187142D01*
X2230000Y-8158571D01*
X2058571Y-8158571D01*
X2001428Y-8187142D01*
X1972857Y-8215714D01*
X6453333Y-17586666D02*
X7153333Y-17586666D01*
X7153333Y-17320000D01*
X7120000Y-17253333D01*
X7086666Y-17220000D01*
X7020000Y-17186666D01*
X6920000Y-17186666D01*
X6853333Y-17220000D01*
X6820000Y-17253333D01*
X6786666Y-17320000D01*
X6786666Y-17586666D01*
X6820000Y-16653333D02*
X6786666Y-16553333D01*
X6753333Y-16520000D01*
X6686666Y-16486666D01*
X6586666Y-16486666D01*
X6520000Y-16520000D01*
X6486666Y-16553333D01*
X6453333Y-16620000D01*
X6453333Y-16886666D01*
X7153333Y-16886666D01*
X7153333Y-16653333D01*
X7120000Y-16586666D01*
X7086666Y-16553333D01*
X7020000Y-16520000D01*
X6953333Y-16520000D01*
X6886666Y-16553333D01*
X6853333Y-16586666D01*
X6820000Y-16653333D01*
X6820000Y-16886666D01*
X7086666Y-16220000D02*
X7120000Y-16186666D01*
X7153333Y-16120000D01*
X7153333Y-15953333D01*
X7120000Y-15886666D01*
X7086666Y-15853333D01*
X7020000Y-15820000D01*
X6953333Y-15820000D01*
X6853333Y-15853333D01*
X6453333Y-16253333D01*
X6453333Y-15820000D01*
X21663333Y-4606666D02*
X22363333Y-4606666D01*
X22363333Y-4340000D01*
X22330000Y-4273333D01*
X22296666Y-4240000D01*
X22230000Y-4206666D01*
X22130000Y-4206666D01*
X22063333Y-4240000D01*
X22030000Y-4273333D01*
X21996666Y-4340000D01*
X21996666Y-4606666D01*
X21863333Y-3940000D02*
X21863333Y-3606666D01*
X21663333Y-4006666D02*
X22363333Y-3773333D01*
X21663333Y-3540000D01*
X22363333Y-2973333D02*
X22363333Y-3306666D01*
X22030000Y-3340000D01*
X22063333Y-3306666D01*
X22096666Y-3240000D01*
X22096666Y-3073333D01*
X22063333Y-3006666D01*
X22030000Y-2973333D01*
X21963333Y-2940000D01*
X21796666Y-2940000D01*
X21730000Y-2973333D01*
X21696666Y-3006666D01*
X21663333Y-3073333D01*
X21663333Y-3240000D01*
X21696666Y-3306666D01*
X21730000Y-3340000D01*
X11463333Y-4616666D02*
X12163333Y-4616666D01*
X12163333Y-4350000D01*
X12130000Y-4283333D01*
X12096666Y-4250000D01*
X12030000Y-4216666D01*
X11930000Y-4216666D01*
X11863333Y-4250000D01*
X11830000Y-4283333D01*
X11796666Y-4350000D01*
X11796666Y-4616666D01*
X11663333Y-3950000D02*
X11663333Y-3616666D01*
X11463333Y-4016666D02*
X12163333Y-3783333D01*
X11463333Y-3550000D01*
X11463333Y-3283333D02*
X11463333Y-3150000D01*
X11496666Y-3083333D01*
X11530000Y-3050000D01*
X11630000Y-2983333D01*
X11763333Y-2950000D01*
X12030000Y-2950000D01*
X12096666Y-2983333D01*
X12130000Y-3016666D01*
X12163333Y-3083333D01*
X12163333Y-3216666D01*
X12130000Y-3283333D01*
X12096666Y-3316666D01*
X12030000Y-3350000D01*
X11863333Y-3350000D01*
X11796666Y-3316666D01*
X11763333Y-3283333D01*
X11730000Y-3216666D01*
X11730000Y-3083333D01*
X11763333Y-3016666D01*
X11796666Y-2983333D01*
X11863333Y-2950000D01*
X16543333Y-4656666D02*
X17243333Y-4656666D01*
X17243333Y-4390000D01*
X17210000Y-4323333D01*
X17176666Y-4290000D01*
X17110000Y-4256666D01*
X17010000Y-4256666D01*
X16943333Y-4290000D01*
X16910000Y-4323333D01*
X16876666Y-4390000D01*
X16876666Y-4656666D01*
X16743333Y-3990000D02*
X16743333Y-3656666D01*
X16543333Y-4056666D02*
X17243333Y-3823333D01*
X16543333Y-3590000D01*
X17243333Y-3423333D02*
X17243333Y-2956666D01*
X16543333Y-3256666D01*
X349523Y-6988095D02*
X844761Y-6988095D01*
X578095Y-6683333D01*
X692380Y-6683333D01*
X768571Y-6645238D01*
X806666Y-6607142D01*
X844761Y-6530952D01*
X844761Y-6340476D01*
X806666Y-6264285D01*
X768571Y-6226190D01*
X692380Y-6188095D01*
X463809Y-6188095D01*
X387619Y-6226190D01*
X349523Y-6264285D01*
X1073333Y-6988095D02*
X1340000Y-6188095D01*
X1606666Y-6988095D01*
X1797142Y-6988095D02*
X2292380Y-6988095D01*
X2025714Y-6683333D01*
X2140000Y-6683333D01*
X2216190Y-6645238D01*
X2254285Y-6607142D01*
X2292380Y-6530952D01*
X2292380Y-6340476D01*
X2254285Y-6264285D01*
X2216190Y-6226190D01*
X2140000Y-6188095D01*
X1911428Y-6188095D01*
X1835238Y-6226190D01*
X1797142Y-6264285D01*
X29283333Y-4616666D02*
X29983333Y-4616666D01*
X29983333Y-4350000D01*
X29950000Y-4283333D01*
X29916666Y-4250000D01*
X29850000Y-4216666D01*
X29750000Y-4216666D01*
X29683333Y-4250000D01*
X29650000Y-4283333D01*
X29616666Y-4350000D01*
X29616666Y-4616666D01*
X29483333Y-3950000D02*
X29483333Y-3616666D01*
X29283333Y-4016666D02*
X29983333Y-3783333D01*
X29283333Y-3550000D01*
X29916666Y-3350000D02*
X29950000Y-3316666D01*
X29983333Y-3250000D01*
X29983333Y-3083333D01*
X29950000Y-3016666D01*
X29916666Y-2983333D01*
X29850000Y-2950000D01*
X29783333Y-2950000D01*
X29683333Y-2983333D01*
X29283333Y-3383333D01*
X29283333Y-2950000D01*
X800476Y-14520000D02*
X724285Y-14558095D01*
X610000Y-14558095D01*
X495714Y-14520000D01*
X419523Y-14443809D01*
X381428Y-14367619D01*
X343333Y-14215238D01*
X343333Y-14100952D01*
X381428Y-13948571D01*
X419523Y-13872380D01*
X495714Y-13796190D01*
X610000Y-13758095D01*
X686190Y-13758095D01*
X800476Y-13796190D01*
X838571Y-13834285D01*
X838571Y-14100952D01*
X686190Y-14100952D01*
X1181428Y-13758095D02*
X1181428Y-14558095D01*
X1638571Y-13758095D01*
X1638571Y-14558095D01*
X2019523Y-13758095D02*
X2019523Y-14558095D01*
X2210000Y-14558095D01*
X2324285Y-14520000D01*
X2400476Y-14443809D01*
X2438571Y-14367619D01*
X2476666Y-14215238D01*
X2476666Y-14100952D01*
X2438571Y-13948571D01*
X2400476Y-13872380D01*
X2324285Y-13796190D01*
X2210000Y-13758095D01*
X2019523Y-13758095D01*
X14043333Y-4616666D02*
X14743333Y-4616666D01*
X14743333Y-4350000D01*
X14710000Y-4283333D01*
X14676666Y-4250000D01*
X14610000Y-4216666D01*
X14510000Y-4216666D01*
X14443333Y-4250000D01*
X14410000Y-4283333D01*
X14376666Y-4350000D01*
X14376666Y-4616666D01*
X14243333Y-3950000D02*
X14243333Y-3616666D01*
X14043333Y-4016666D02*
X14743333Y-3783333D01*
X14043333Y-3550000D01*
X14443333Y-3216666D02*
X14476666Y-3283333D01*
X14510000Y-3316666D01*
X14576666Y-3350000D01*
X14610000Y-3350000D01*
X14676666Y-3316666D01*
X14710000Y-3283333D01*
X14743333Y-3216666D01*
X14743333Y-3083333D01*
X14710000Y-3016666D01*
X14676666Y-2983333D01*
X14610000Y-2950000D01*
X14576666Y-2950000D01*
X14510000Y-2983333D01*
X14476666Y-3016666D01*
X14443333Y-3083333D01*
X14443333Y-3216666D01*
X14410000Y-3283333D01*
X14376666Y-3316666D01*
X14310000Y-3350000D01*
X14176666Y-3350000D01*
X14110000Y-3316666D01*
X14076666Y-3283333D01*
X14043333Y-3216666D01*
X14043333Y-3083333D01*
X14076666Y-3016666D01*
X14110000Y-2983333D01*
X14176666Y-2950000D01*
X14310000Y-2950000D01*
X14376666Y-2983333D01*
X14410000Y-3016666D01*
X14443333Y-3083333D01*
X350476Y-11716190D02*
X464761Y-11678095D01*
X655238Y-11678095D01*
X731428Y-11716190D01*
X769523Y-11754285D01*
X807619Y-11830476D01*
X807619Y-11906666D01*
X769523Y-11982857D01*
X731428Y-12020952D01*
X655238Y-12059047D01*
X502857Y-12097142D01*
X426666Y-12135238D01*
X388571Y-12173333D01*
X350476Y-12249523D01*
X350476Y-12325714D01*
X388571Y-12401904D01*
X426666Y-12440000D01*
X502857Y-12478095D01*
X693333Y-12478095D01*
X807619Y-12440000D01*
X1074285Y-12478095D02*
X1264761Y-11678095D01*
X1417142Y-12249523D01*
X1569523Y-11678095D01*
X1760000Y-12478095D01*
X2521904Y-11754285D02*
X2483809Y-11716190D01*
X2369523Y-11678095D01*
X2293333Y-11678095D01*
X2179047Y-11716190D01*
X2102857Y-11792380D01*
X2064761Y-11868571D01*
X2026666Y-12020952D01*
X2026666Y-12135238D01*
X2064761Y-12287619D01*
X2102857Y-12363809D01*
X2179047Y-12440000D01*
X2293333Y-12478095D01*
X2369523Y-12478095D01*
X2483809Y-12440000D01*
X2521904Y-12401904D01*
X3245714Y-11678095D02*
X2864761Y-11678095D01*
X2864761Y-12478095D01*
X3512380Y-11678095D02*
X3512380Y-12478095D01*
X3969523Y-11678095D02*
X3626666Y-12135238D01*
X3969523Y-12478095D02*
X3512380Y-12020952D01*
X14013333Y-17556666D02*
X14713333Y-17556666D01*
X14713333Y-17290000D01*
X14680000Y-17223333D01*
X14646666Y-17190000D01*
X14580000Y-17156666D01*
X14480000Y-17156666D01*
X14413333Y-17190000D01*
X14380000Y-17223333D01*
X14346666Y-17290000D01*
X14346666Y-17556666D01*
X14380000Y-16623333D02*
X14346666Y-16523333D01*
X14313333Y-16490000D01*
X14246666Y-16456666D01*
X14146666Y-16456666D01*
X14080000Y-16490000D01*
X14046666Y-16523333D01*
X14013333Y-16590000D01*
X14013333Y-16856666D01*
X14713333Y-16856666D01*
X14713333Y-16623333D01*
X14680000Y-16556666D01*
X14646666Y-16523333D01*
X14580000Y-16490000D01*
X14513333Y-16490000D01*
X14446666Y-16523333D01*
X14413333Y-16556666D01*
X14380000Y-16623333D01*
X14380000Y-16856666D01*
X14713333Y-15823333D02*
X14713333Y-16156666D01*
X14380000Y-16190000D01*
X14413333Y-16156666D01*
X14446666Y-16090000D01*
X14446666Y-15923333D01*
X14413333Y-15856666D01*
X14380000Y-15823333D01*
X14313333Y-15790000D01*
X14146666Y-15790000D01*
X14080000Y-15823333D01*
X14046666Y-15856666D01*
X14013333Y-15923333D01*
X14013333Y-16090000D01*
X14046666Y-16156666D01*
X14080000Y-16190000D01*
X31833333Y-4616666D02*
X32533333Y-4616666D01*
X32533333Y-4350000D01*
X32500000Y-4283333D01*
X32466666Y-4250000D01*
X32400000Y-4216666D01*
X32300000Y-4216666D01*
X32233333Y-4250000D01*
X32200000Y-4283333D01*
X32166666Y-4350000D01*
X32166666Y-4616666D01*
X32033333Y-3950000D02*
X32033333Y-3616666D01*
X31833333Y-4016666D02*
X32533333Y-3783333D01*
X31833333Y-3550000D01*
X31833333Y-2950000D02*
X31833333Y-3350000D01*
X31833333Y-3150000D02*
X32533333Y-3150000D01*
X32433333Y-3216666D01*
X32366666Y-3283333D01*
X32333333Y-3350000D01*
X24243333Y-4646666D02*
X24943333Y-4646666D01*
X24943333Y-4380000D01*
X24910000Y-4313333D01*
X24876666Y-4280000D01*
X24810000Y-4246666D01*
X24710000Y-4246666D01*
X24643333Y-4280000D01*
X24610000Y-4313333D01*
X24576666Y-4380000D01*
X24576666Y-4646666D01*
X24443333Y-3980000D02*
X24443333Y-3646666D01*
X24243333Y-4046666D02*
X24943333Y-3813333D01*
X24243333Y-3580000D01*
X24710000Y-3046666D02*
X24243333Y-3046666D01*
X24976666Y-3213333D02*
X24476666Y-3380000D01*
X24476666Y-2946666D01*
X35008333Y-17163333D02*
X35008333Y-17496666D01*
X34675000Y-17530000D01*
X34708333Y-17496666D01*
X34741666Y-17430000D01*
X34741666Y-17263333D01*
X34708333Y-17196666D01*
X34675000Y-17163333D01*
X34608333Y-17130000D01*
X34441666Y-17130000D01*
X34375000Y-17163333D01*
X34341666Y-17196666D01*
X34308333Y-17263333D01*
X34308333Y-17430000D01*
X34341666Y-17496666D01*
X34375000Y-17530000D01*
X35008333Y-16930000D02*
X34308333Y-16696666D01*
X35008333Y-16463333D01*
X34353333Y-4616666D02*
X35053333Y-4616666D01*
X35053333Y-4350000D01*
X35020000Y-4283333D01*
X34986666Y-4250000D01*
X34920000Y-4216666D01*
X34820000Y-4216666D01*
X34753333Y-4250000D01*
X34720000Y-4283333D01*
X34686666Y-4350000D01*
X34686666Y-4616666D01*
X34553333Y-3950000D02*
X34553333Y-3616666D01*
X34353333Y-4016666D02*
X35053333Y-3783333D01*
X34353333Y-3550000D01*
X35053333Y-3183333D02*
X35053333Y-3116666D01*
X35020000Y-3050000D01*
X34986666Y-3016666D01*
X34920000Y-2983333D01*
X34786666Y-2950000D01*
X34620000Y-2950000D01*
X34486666Y-2983333D01*
X34420000Y-3016666D01*
X34386666Y-3050000D01*
X34353333Y-3116666D01*
X34353333Y-3183333D01*
X34386666Y-3250000D01*
X34420000Y-3283333D01*
X34486666Y-3316666D01*
X34620000Y-3350000D01*
X34786666Y-3350000D01*
X34920000Y-3316666D01*
X34986666Y-3283333D01*
X35020000Y-3250000D01*
X35053333Y-3183333D01*
X3873333Y-17586666D02*
X4573333Y-17586666D01*
X4573333Y-17320000D01*
X4540000Y-17253333D01*
X4506666Y-17220000D01*
X4440000Y-17186666D01*
X4340000Y-17186666D01*
X4273333Y-17220000D01*
X4240000Y-17253333D01*
X4206666Y-17320000D01*
X4206666Y-17586666D01*
X4240000Y-16653333D02*
X4206666Y-16553333D01*
X4173333Y-16520000D01*
X4106666Y-16486666D01*
X4006666Y-16486666D01*
X3940000Y-16520000D01*
X3906666Y-16553333D01*
X3873333Y-16620000D01*
X3873333Y-16886666D01*
X4573333Y-16886666D01*
X4573333Y-16653333D01*
X4540000Y-16586666D01*
X4506666Y-16553333D01*
X4440000Y-16520000D01*
X4373333Y-16520000D01*
X4306666Y-16553333D01*
X4273333Y-16586666D01*
X4240000Y-16653333D01*
X4240000Y-16886666D01*
X3873333Y-15820000D02*
X3873333Y-16220000D01*
X3873333Y-16020000D02*
X4573333Y-16020000D01*
X4473333Y-16086666D01*
X4406666Y-16153333D01*
X4373333Y-16220000D01*
X29953333Y-17586666D02*
X29953333Y-17153333D01*
X29686666Y-17386666D01*
X29686666Y-17286666D01*
X29653333Y-17220000D01*
X29620000Y-17186666D01*
X29553333Y-17153333D01*
X29386666Y-17153333D01*
X29320000Y-17186666D01*
X29286666Y-17220000D01*
X29253333Y-17286666D01*
X29253333Y-17486666D01*
X29286666Y-17553333D01*
X29320000Y-17586666D01*
X29953333Y-16953333D02*
X29253333Y-16720000D01*
X29953333Y-16486666D01*
X29953333Y-16320000D02*
X29953333Y-15886666D01*
X29686666Y-16120000D01*
X29686666Y-16020000D01*
X29653333Y-15953333D01*
X29620000Y-15920000D01*
X29553333Y-15886666D01*
X29386666Y-15886666D01*
X29320000Y-15920000D01*
X29286666Y-15953333D01*
X29253333Y-16020000D01*
X29253333Y-16220000D01*
X29286666Y-16286666D01*
X29320000Y-16320000D01*
X32450000Y-17188333D02*
X32483333Y-17255000D01*
X32483333Y-17355000D01*
X32450000Y-17455000D01*
X32383333Y-17521666D01*
X32316666Y-17555000D01*
X32183333Y-17588333D01*
X32083333Y-17588333D01*
X31950000Y-17555000D01*
X31883333Y-17521666D01*
X31816666Y-17455000D01*
X31783333Y-17355000D01*
X31783333Y-17288333D01*
X31816666Y-17188333D01*
X31850000Y-17155000D01*
X32083333Y-17155000D01*
X32083333Y-17288333D01*
X31783333Y-16855000D02*
X32483333Y-16855000D01*
X31783333Y-16455000D01*
X32483333Y-16455000D01*
X31783333Y-16121666D02*
X32483333Y-16121666D01*
X32483333Y-15955000D01*
X32450000Y-15855000D01*
X32383333Y-15788333D01*
X32316666Y-15755000D01*
X32183333Y-15721666D01*
X32083333Y-15721666D01*
X31950000Y-15755000D01*
X31883333Y-15788333D01*
X31816666Y-15855000D01*
X31783333Y-15955000D01*
X31783333Y-16121666D01*
X27400000Y-17183333D02*
X27433333Y-17250000D01*
X27433333Y-17350000D01*
X27400000Y-17450000D01*
X27333333Y-17516666D01*
X27266666Y-17550000D01*
X27133333Y-17583333D01*
X27033333Y-17583333D01*
X26900000Y-17550000D01*
X26833333Y-17516666D01*
X26766666Y-17450000D01*
X26733333Y-17350000D01*
X26733333Y-17283333D01*
X26766666Y-17183333D01*
X26800000Y-17150000D01*
X27033333Y-17150000D01*
X27033333Y-17283333D01*
X26733333Y-16850000D02*
X27433333Y-16850000D01*
X26733333Y-16450000D01*
X27433333Y-16450000D01*
X26733333Y-16116666D02*
X27433333Y-16116666D01*
X27433333Y-15950000D01*
X27400000Y-15850000D01*
X27333333Y-15783333D01*
X27266666Y-15750000D01*
X27133333Y-15716666D01*
X27033333Y-15716666D01*
X26900000Y-15750000D01*
X26833333Y-15783333D01*
X26766666Y-15850000D01*
X26733333Y-15950000D01*
X26733333Y-16116666D01*
%TO.C,U2*%
X29368571Y-10662142D02*
X28882857Y-10662142D01*
X28825714Y-10633571D01*
X28797142Y-10605000D01*
X28768571Y-10547857D01*
X28768571Y-10433571D01*
X28797142Y-10376428D01*
X28825714Y-10347857D01*
X28882857Y-10319285D01*
X29368571Y-10319285D01*
X29311428Y-10062142D02*
X29340000Y-10033571D01*
X29368571Y-9976428D01*
X29368571Y-9833571D01*
X29340000Y-9776428D01*
X29311428Y-9747857D01*
X29254285Y-9719285D01*
X29197142Y-9719285D01*
X29111428Y-9747857D01*
X28768571Y-10090714D01*
X28768571Y-9719285D01*
%TO.C,C3*%
X32415714Y-8740000D02*
X32387142Y-8768571D01*
X32358571Y-8854285D01*
X32358571Y-8911428D01*
X32387142Y-8997142D01*
X32444285Y-9054285D01*
X32501428Y-9082857D01*
X32615714Y-9111428D01*
X32701428Y-9111428D01*
X32815714Y-9082857D01*
X32872857Y-9054285D01*
X32930000Y-8997142D01*
X32958571Y-8911428D01*
X32958571Y-8854285D01*
X32930000Y-8768571D01*
X32901428Y-8740000D01*
X32958571Y-8540000D02*
X32958571Y-8168571D01*
X32730000Y-8368571D01*
X32730000Y-8282857D01*
X32701428Y-8225714D01*
X32672857Y-8197142D01*
X32615714Y-8168571D01*
X32472857Y-8168571D01*
X32415714Y-8197142D01*
X32387142Y-8225714D01*
X32358571Y-8282857D01*
X32358571Y-8454285D01*
X32387142Y-8511428D01*
X32415714Y-8540000D01*
D12*
%TO.C,*%
D10*
%TO.C,Hole3*%
X44640000Y-18180000D02*
G75*
G03*
X44640000Y-18180000I-900000J0D01*
G01*
%TO.C,Hole1*%
X130000Y-2360000D02*
G75*
G03*
X130000Y-2360000I-900000J0D01*
G01*
%TO.C,Hole2*%
X160000Y-18170000D02*
G75*
G03*
X160000Y-18170000I-900000J0D01*
G01*
%TO.C,Hole4*%
X44640000Y-2360000D02*
G75*
G03*
X44640000Y-2360000I-900000J0D01*
G01*
D13*
%TO.C,J2*%
X36010000Y-20380000D02*
X36010000Y-19050000D01*
X34680000Y-20380000D02*
X36010000Y-20380000D01*
X33410000Y-20380000D02*
X33410000Y-17720000D01*
X33410000Y-20380000D02*
X330000Y-20380000D01*
X330000Y-20380000D02*
X330000Y-17720000D01*
X33410000Y-17720000D02*
X330000Y-17720000D01*
D14*
%TO.C,U2*%
X26371000Y-8054000D02*
X26371000Y-12406000D01*
X26371000Y-12406000D02*
X31649000Y-12406000D01*
X31649000Y-12406000D02*
X31649000Y-8054000D01*
X31649000Y-8054000D02*
X26371000Y-8054000D01*
D12*
X31065000Y-11654000D02*
G75*
G03*
X31065000Y-11654000I-150000J0D01*
G01*
X31832000Y-13760000D02*
G75*
G03*
X31832000Y-13760000I-150000J0D01*
G01*
D13*
%TO.C,C3*%
X32990000Y-10307836D02*
X32990000Y-10092164D01*
X32270000Y-10307836D02*
X32270000Y-10092164D01*
%TO.C,J1*%
X33420000Y-2820000D02*
X33420000Y-160000D01*
X33420000Y-2820000D02*
X340000Y-2820000D01*
X340000Y-2820000D02*
X340000Y-160000D01*
X33420000Y-160000D02*
X340000Y-160000D01*
X36020000Y-2820000D02*
X36020000Y-1490000D01*
X34690000Y-2820000D02*
X36020000Y-2820000D01*
%TO.C,*%
G36*
X35055473Y-12693169D02*
G01*
X34899631Y-12691860D01*
X34770433Y-12689666D01*
X34665132Y-12686368D01*
X34580984Y-12681744D01*
X34515240Y-12675574D01*
X34465156Y-12667636D01*
X34427985Y-12657709D01*
X34400981Y-12645573D01*
X34381398Y-12631007D01*
X34366488Y-12613789D01*
X34353507Y-12593699D01*
X34339708Y-12570515D01*
X34335227Y-12562749D01*
X34329738Y-12550766D01*
X34324877Y-12535067D01*
X34320606Y-12513431D01*
X34316887Y-12483639D01*
X34313682Y-12443471D01*
X34310952Y-12390709D01*
X34308658Y-12323133D01*
X34306764Y-12238523D01*
X34305230Y-12134660D01*
X34304018Y-12009324D01*
X34303091Y-11860297D01*
X34302409Y-11685358D01*
X34301934Y-11482289D01*
X34301629Y-11248869D01*
X34301455Y-10982880D01*
X34301420Y-10852284D01*
X35360425Y-10852284D01*
X35360425Y-11120112D01*
X35458494Y-11162300D01*
X35556564Y-11204488D01*
X35556564Y-11630964D01*
X35458494Y-11666229D01*
X35360425Y-11701495D01*
X35360425Y-11967768D01*
X35453591Y-11930841D01*
X35457253Y-11929387D01*
X35507939Y-11909076D01*
X35586814Y-11877276D01*
X35686561Y-11836943D01*
X35799868Y-11791036D01*
X35919421Y-11742510D01*
X35945557Y-11731893D01*
X36057330Y-11686505D01*
X36156174Y-11646398D01*
X36236236Y-11613944D01*
X36291663Y-11591516D01*
X36316602Y-11581486D01*
X36327345Y-11568566D01*
X36337696Y-11518129D01*
X36341120Y-11429806D01*
X36341120Y-11287748D01*
X36071429Y-11168372D01*
X36063180Y-11164721D01*
X35942101Y-11111067D01*
X35811246Y-11052997D01*
X35685833Y-10997269D01*
X35581081Y-10950640D01*
X35360425Y-10852284D01*
X34301420Y-10852284D01*
X34301409Y-10811120D01*
X35360425Y-10811120D01*
X36341120Y-10811120D01*
X36341120Y-10557416D01*
X36340395Y-10465217D01*
X36336063Y-10362758D01*
X36326332Y-10286512D01*
X36309509Y-10228896D01*
X36283902Y-10182326D01*
X36247821Y-10139220D01*
X36185262Y-10091227D01*
X36100094Y-10061569D01*
X36011936Y-10060741D01*
X35930814Y-10088590D01*
X35866753Y-10144967D01*
X35856207Y-10159147D01*
X35831001Y-10187478D01*
X35811256Y-10188420D01*
X35783359Y-10165292D01*
X35762406Y-10149893D01*
X35708543Y-10118075D01*
X35635097Y-10079357D01*
X35551660Y-10038967D01*
X35360425Y-9950383D01*
X35360425Y-10223693D01*
X35512290Y-10292901D01*
X35563040Y-10316755D01*
X35652873Y-10365372D01*
X35711381Y-10409604D01*
X35743134Y-10453402D01*
X35752703Y-10500717D01*
X35752703Y-10556139D01*
X35360425Y-10556139D01*
X35360425Y-10811120D01*
X34301409Y-10811120D01*
X34301374Y-10682102D01*
X34301347Y-10344316D01*
X34301315Y-10097938D01*
X34301269Y-9889267D01*
X35360425Y-9889267D01*
X36341120Y-9889267D01*
X36341120Y-9678598D01*
X36164595Y-9526410D01*
X36164526Y-9526351D01*
X36096009Y-9467006D01*
X36039901Y-9417890D01*
X36001992Y-9384108D01*
X35988070Y-9370761D01*
X35988070Y-9370757D01*
X36002060Y-9357324D01*
X36039997Y-9323438D01*
X36096101Y-9274206D01*
X36164595Y-9214738D01*
X36341120Y-9062175D01*
X36341120Y-8849730D01*
X35360425Y-8849730D01*
X35360425Y-9084101D01*
X35662686Y-9089502D01*
X35964947Y-9094904D01*
X35819597Y-9218739D01*
X35781640Y-9252011D01*
X35726379Y-9304441D01*
X35688381Y-9345850D01*
X35674247Y-9369394D01*
X35680084Y-9381935D01*
X35709930Y-9417946D01*
X35759378Y-9467918D01*
X35821978Y-9525057D01*
X35969709Y-9653900D01*
X35360425Y-9653900D01*
X35360425Y-9889267D01*
X34301269Y-9889267D01*
X34301245Y-9779816D01*
X34301249Y-9497224D01*
X34301445Y-9247988D01*
X34301946Y-9029939D01*
X34302869Y-8840904D01*
X34304330Y-8678713D01*
X34306444Y-8541195D01*
X34309326Y-8426179D01*
X34313092Y-8331493D01*
X34317858Y-8254966D01*
X34323740Y-8194427D01*
X34330852Y-8147705D01*
X34339311Y-8112629D01*
X34349232Y-8087028D01*
X34360731Y-8068730D01*
X34373922Y-8055565D01*
X34388923Y-8045361D01*
X34405848Y-8035947D01*
X34424813Y-8025152D01*
X34425348Y-8024827D01*
X34438640Y-8017492D01*
X34454480Y-8011168D01*
X34475691Y-8005779D01*
X34505093Y-8001251D01*
X34545509Y-7997509D01*
X34599760Y-7994478D01*
X34670666Y-7992083D01*
X34761050Y-7990251D01*
X34873734Y-7988905D01*
X35011537Y-7987971D01*
X35177283Y-7987375D01*
X35373792Y-7987042D01*
X35603886Y-7986897D01*
X35870386Y-7986865D01*
X35882140Y-7986865D01*
X36147082Y-7986900D01*
X36375734Y-7987051D01*
X36570918Y-7987394D01*
X36735455Y-7988003D01*
X36872166Y-7988952D01*
X36983873Y-7990316D01*
X37073398Y-7992171D01*
X37143561Y-7994590D01*
X37197185Y-7997649D01*
X37237091Y-8001422D01*
X37266099Y-8005984D01*
X37287033Y-8011410D01*
X37302712Y-8017775D01*
X37315959Y-8025152D01*
X37329189Y-8032807D01*
X37346757Y-8042434D01*
X37362361Y-8052171D01*
X37376116Y-8064191D01*
X37388140Y-8080668D01*
X37398547Y-8103775D01*
X37407455Y-8135685D01*
X37414978Y-8178571D01*
X37421233Y-8234607D01*
X37426336Y-8305965D01*
X37430402Y-8394818D01*
X37433548Y-8503341D01*
X37435889Y-8633706D01*
X37437543Y-8788086D01*
X37438623Y-8968655D01*
X37439247Y-9177585D01*
X37439531Y-9417050D01*
X37439590Y-9689223D01*
X37439540Y-9996278D01*
X37439498Y-10340386D01*
X37439521Y-10580250D01*
X37439581Y-10898737D01*
X37439568Y-11181658D01*
X37439368Y-11431187D01*
X37438864Y-11649497D01*
X37437939Y-11838761D01*
X37436479Y-12001153D01*
X37434366Y-12138844D01*
X37431486Y-12254010D01*
X37427722Y-12348822D01*
X37422958Y-12425454D01*
X37417079Y-12486079D01*
X37409967Y-12532871D01*
X37401508Y-12568003D01*
X37391586Y-12593647D01*
X37380083Y-12611977D01*
X37366885Y-12625166D01*
X37351876Y-12635388D01*
X37334939Y-12644815D01*
X37315959Y-12655621D01*
X37315707Y-12655774D01*
X37302420Y-12663141D01*
X37286641Y-12669494D01*
X37265544Y-12674907D01*
X37236304Y-12679457D01*
X37196094Y-12683218D01*
X37142089Y-12686266D01*
X37071462Y-12688675D01*
X36981389Y-12690521D01*
X36869043Y-12691879D01*
X36731598Y-12692824D01*
X36566229Y-12693432D01*
X36370109Y-12693777D01*
X36140413Y-12693935D01*
X35874316Y-12693981D01*
X35710327Y-12694005D01*
X35458075Y-12694021D01*
X35360425Y-12693929D01*
X35240706Y-12693816D01*
X35055473Y-12693169D01*
G37*
G36*
X36081927Y-10316899D02*
G01*
X36125044Y-10351118D01*
X36154005Y-10413610D01*
X36164595Y-10500224D01*
X36162692Y-10531555D01*
X36150511Y-10548547D01*
X36118403Y-10555075D01*
X36056718Y-10556139D01*
X35948842Y-10556139D01*
X35948842Y-10458522D01*
X35952105Y-10396670D01*
X35965402Y-10357823D01*
X35993413Y-10331701D01*
X36028868Y-10315100D01*
X36081927Y-10316899D01*
G37*
G36*
X35766685Y-11290601D02*
G01*
X35805671Y-11306434D01*
X35867195Y-11331769D01*
X35940706Y-11362267D01*
X36092426Y-11425429D01*
X35947082Y-11481311D01*
X35932894Y-11486756D01*
X35860559Y-11514197D01*
X35801520Y-11536102D01*
X35767413Y-11548143D01*
X35764887Y-11548909D01*
X35748020Y-11549012D01*
X35738412Y-11532256D01*
X35734091Y-11491193D01*
X35733089Y-11418374D01*
X35733727Y-11363599D01*
X35737598Y-11312712D01*
X35746229Y-11289840D01*
X35761037Y-11288381D01*
X35766685Y-11290601D01*
G37*
G36*
X22480654Y-10486076D02*
G01*
X22487089Y-10497730D01*
X22491776Y-10520724D01*
X22495447Y-10558813D01*
X22498836Y-10615751D01*
X22501978Y-10661449D01*
X22507483Y-10713645D01*
X22514032Y-10755774D01*
X22520796Y-10781570D01*
X22524679Y-10792012D01*
X22527493Y-10832347D01*
X22508460Y-10867099D01*
X22467515Y-10896411D01*
X22457426Y-10901243D01*
X22428935Y-10911331D01*
X22410518Y-10912672D01*
X22405709Y-10910010D01*
X22396651Y-10892516D01*
X22400364Y-10871103D01*
X22415826Y-10856596D01*
X22429620Y-10850170D01*
X22454541Y-10833359D01*
X22459028Y-10829338D01*
X22467148Y-10817246D01*
X22466060Y-10800121D01*
X22455937Y-10770079D01*
X22452910Y-10760664D01*
X22444631Y-10717572D01*
X22439381Y-10662745D01*
X22437501Y-10604429D01*
X22439331Y-10550872D01*
X22445213Y-10510321D01*
X22455236Y-10488057D01*
X22472750Y-10482178D01*
X22480654Y-10486076D01*
G37*
G36*
X22678643Y-11898633D02*
G01*
X22672991Y-11904285D01*
X22667339Y-11898633D01*
X22672991Y-11892981D01*
X22678643Y-11898633D01*
G37*
G36*
X21626552Y-9956933D02*
G01*
X21711063Y-9964412D01*
X21786421Y-9978453D01*
X21859059Y-10000243D01*
X21935408Y-10030969D01*
X21937279Y-10031801D01*
X21982258Y-10054745D01*
X22006668Y-10073993D01*
X22010046Y-10088985D01*
X21991927Y-10099163D01*
X21983856Y-10101033D01*
X21927916Y-10105462D01*
X21863888Y-10099419D01*
X21801530Y-10083696D01*
X21754293Y-10068269D01*
X21681949Y-10047256D01*
X21604651Y-10027108D01*
X21528988Y-10009432D01*
X21461549Y-9995834D01*
X21408921Y-9987923D01*
X21402023Y-9987175D01*
X21362902Y-9981477D01*
X21344205Y-9975140D01*
X21344002Y-9967560D01*
X21360280Y-9962447D01*
X21397036Y-9958477D01*
X21451978Y-9955888D01*
X21522892Y-9954838D01*
X21526456Y-9954830D01*
X21626552Y-9956933D01*
G37*
G36*
X16423055Y-11351669D02*
G01*
X16530217Y-11393240D01*
X16637657Y-11457212D01*
X16710152Y-11507889D01*
X16710152Y-11372999D01*
X17117094Y-11372999D01*
X17117094Y-12639042D01*
X16710152Y-12639042D01*
X16710152Y-11726509D01*
X16639502Y-11694214D01*
X16639042Y-11694004D01*
X16588715Y-11674318D01*
X16539000Y-11663238D01*
X16478421Y-11658199D01*
X16435449Y-11657637D01*
X16380083Y-11663518D01*
X16338876Y-11679708D01*
X16307244Y-11708374D01*
X16280601Y-11751682D01*
X16252341Y-11808201D01*
X16248557Y-12223622D01*
X16244772Y-12639042D01*
X15838025Y-12639042D01*
X15842711Y-12161450D01*
X15843240Y-12108777D01*
X15844585Y-11992491D01*
X15846169Y-11895585D01*
X15848237Y-11815758D01*
X15851037Y-11750707D01*
X15854815Y-11698130D01*
X15859817Y-11655724D01*
X15866289Y-11621188D01*
X15874478Y-11592219D01*
X15884630Y-11566514D01*
X15896992Y-11541772D01*
X15911809Y-11515691D01*
X15958033Y-11452958D01*
X16020671Y-11400691D01*
X16098581Y-11362964D01*
X16193657Y-11338587D01*
X16210453Y-11335961D01*
X16316394Y-11332556D01*
X16423055Y-11351669D01*
G37*
G36*
X22283004Y-11943849D02*
G01*
X22277352Y-11949501D01*
X22271700Y-11943849D01*
X22277352Y-11938197D01*
X22283004Y-11943849D01*
G37*
G36*
X22249093Y-11943849D02*
G01*
X22243441Y-11949501D01*
X22237789Y-11943849D01*
X22243441Y-11938197D01*
X22249093Y-11943849D01*
G37*
G36*
X21469119Y-12593827D02*
G01*
X21468303Y-12599811D01*
X21461583Y-12601363D01*
X21460230Y-12599706D01*
X21461583Y-12586291D01*
X21464983Y-12584522D01*
X21469119Y-12593827D01*
G37*
G36*
X11652567Y-8051992D02*
G01*
X11676418Y-8078406D01*
X11695272Y-8101818D01*
X11702497Y-8114409D01*
X11702190Y-8115351D01*
X11690854Y-8127844D01*
X11665606Y-8150757D01*
X11629760Y-8181178D01*
X11586631Y-8216194D01*
X11538762Y-8254736D01*
X11489183Y-8295475D01*
X11445733Y-8331972D01*
X11414246Y-8359378D01*
X11384911Y-8384925D01*
X11361568Y-8403556D01*
X11349701Y-8410855D01*
X11347770Y-8410305D01*
X11333121Y-8398957D01*
X11310209Y-8376904D01*
X11283907Y-8349370D01*
X11259086Y-8321579D01*
X11240621Y-8298758D01*
X11233383Y-8286131D01*
X11240550Y-8276725D01*
X11262764Y-8256008D01*
X11296735Y-8227010D01*
X11339105Y-8192423D01*
X11386514Y-8154941D01*
X11435605Y-8117254D01*
X11483019Y-8082056D01*
X11525397Y-8052039D01*
X11602637Y-7999147D01*
X11652567Y-8051992D01*
G37*
G36*
X8275427Y-8813763D02*
G01*
X8341353Y-8865810D01*
X8456177Y-8951201D01*
X8403137Y-9003444D01*
X8375986Y-9029008D01*
X8353044Y-9048307D01*
X8340805Y-9055687D01*
X8335987Y-9053887D01*
X8315337Y-9040699D01*
X8282996Y-9017126D01*
X8242606Y-8986046D01*
X8197809Y-8950340D01*
X8152246Y-8912886D01*
X8109561Y-8876566D01*
X8073394Y-8844257D01*
X8005274Y-8781190D01*
X7912430Y-8871491D01*
X7885293Y-8896988D01*
X7833442Y-8942278D01*
X7781212Y-8984396D01*
X7736588Y-9016744D01*
X7653590Y-9071697D01*
X7713981Y-9092350D01*
X7751167Y-9104396D01*
X7843717Y-9130482D01*
X7951717Y-9156755D01*
X8070355Y-9182213D01*
X8194821Y-9205858D01*
X8320306Y-9226688D01*
X8441997Y-9243705D01*
X8600946Y-9263576D01*
X8555037Y-9339692D01*
X8538640Y-9366047D01*
X8517463Y-9395313D01*
X8501117Y-9409362D01*
X8486520Y-9411419D01*
X8472116Y-9408950D01*
X8438289Y-9403601D01*
X8392223Y-9396569D01*
X8339569Y-9388724D01*
X8163526Y-9359299D01*
X7873380Y-9294627D01*
X7595560Y-9211752D01*
X7461964Y-9166495D01*
X7339772Y-9207086D01*
X7291487Y-9222612D01*
X7085605Y-9278256D01*
X6863422Y-9322046D01*
X6623259Y-9354328D01*
X6573122Y-9359879D01*
X6529870Y-9363740D01*
X6499957Y-9362536D01*
X6478353Y-9354098D01*
X6460026Y-9336254D01*
X6439947Y-9306835D01*
X6413084Y-9263671D01*
X6369701Y-9194709D01*
X6552054Y-9187979D01*
X6624481Y-9184592D01*
X6869118Y-9161773D01*
X7101013Y-9121746D01*
X7107928Y-9120258D01*
X7172066Y-9106360D01*
X7215284Y-9095438D01*
X7238549Y-9085364D01*
X7242830Y-9074013D01*
X7229098Y-9059256D01*
X7198320Y-9038969D01*
X7151466Y-9011023D01*
X7078023Y-8964462D01*
X7000824Y-8910166D01*
X6927826Y-8853814D01*
X6864342Y-8799513D01*
X6815686Y-8751373D01*
X6796580Y-8729143D01*
X6781893Y-8705264D01*
X7006918Y-8705264D01*
X7045874Y-8745771D01*
X7053472Y-8753325D01*
X7096034Y-8789320D01*
X7152880Y-8830594D01*
X7218968Y-8873812D01*
X7289255Y-8915637D01*
X7358699Y-8952734D01*
X7379369Y-8962874D01*
X7419498Y-8981485D01*
X7450361Y-8994359D01*
X7466551Y-8999167D01*
X7484986Y-8993811D01*
X7518601Y-8977380D01*
X7562190Y-8952477D01*
X7611514Y-8921748D01*
X7662337Y-8887843D01*
X7710421Y-8853408D01*
X7751527Y-8821093D01*
X7778220Y-8798953D01*
X7808522Y-8773785D01*
X7830899Y-8753550D01*
X7843881Y-8737715D01*
X7846003Y-8725744D01*
X7835795Y-8717104D01*
X7811790Y-8711259D01*
X7772519Y-8707676D01*
X7716516Y-8705819D01*
X7642313Y-8705154D01*
X7548441Y-8705148D01*
X7433432Y-8705264D01*
X7006918Y-8705264D01*
X6781893Y-8705264D01*
X6781635Y-8704844D01*
X6775290Y-8677522D01*
X6773970Y-8637408D01*
X6773970Y-8569617D01*
X7282648Y-8569617D01*
X7323173Y-8569606D01*
X7441965Y-8569400D01*
X7540246Y-8568862D01*
X7619622Y-8567903D01*
X7681699Y-8566432D01*
X7728085Y-8564361D01*
X7760384Y-8561600D01*
X7780204Y-8558059D01*
X7789150Y-8553650D01*
X7788830Y-8548282D01*
X7780848Y-8541867D01*
X7775633Y-8537457D01*
X7758141Y-8518657D01*
X7735916Y-8491890D01*
X7701463Y-8448388D01*
X7778648Y-8414297D01*
X7855832Y-8380205D01*
X7912979Y-8455129D01*
X7937039Y-8485035D01*
X7991112Y-8545752D01*
X8056419Y-8613232D01*
X8128529Y-8683226D01*
X8174921Y-8725744D01*
X8203008Y-8751486D01*
X8275427Y-8813763D01*
G37*
G36*
X22565603Y-11972109D02*
G01*
X22564788Y-11978093D01*
X22558067Y-11979645D01*
X22556715Y-11977988D01*
X22558067Y-11964573D01*
X22561467Y-11962804D01*
X22565603Y-11972109D01*
G37*
G36*
X9170410Y-9473933D02*
G01*
X10312110Y-9473933D01*
X10312110Y-9609581D01*
X9170410Y-9609581D01*
X9170410Y-9893919D01*
X9238436Y-9961945D01*
X9425378Y-9958149D01*
X9486048Y-9956985D01*
X9537850Y-9956408D01*
X9572847Y-9956964D01*
X9594146Y-9958975D01*
X9604857Y-9962763D01*
X9608089Y-9968651D01*
X9606951Y-9976960D01*
X9605164Y-9985308D01*
X9599630Y-10016102D01*
X9593836Y-10053261D01*
X9586089Y-10106955D01*
X9385192Y-10106955D01*
X9373268Y-10106954D01*
X9304092Y-10106790D01*
X9252884Y-10106004D01*
X9215598Y-10104115D01*
X9188188Y-10100638D01*
X9166608Y-10095091D01*
X9146814Y-10086990D01*
X9124758Y-10075853D01*
X9093507Y-10057950D01*
X9065317Y-10035731D01*
X9044893Y-10008754D01*
X9030889Y-9973454D01*
X9021963Y-9926267D01*
X9016770Y-9863626D01*
X9013966Y-9781966D01*
X9010125Y-9609581D01*
X8650428Y-9609581D01*
X8650428Y-9473933D01*
X9012154Y-9473933D01*
X9012154Y-9338286D01*
X9170410Y-9338286D01*
X9170410Y-9473933D01*
G37*
G36*
X23138812Y-10290560D02*
G01*
X23217733Y-10292667D01*
X23305198Y-10296125D01*
X23370888Y-10300311D01*
X23415275Y-10305258D01*
X23438834Y-10310997D01*
X23457671Y-10323529D01*
X23469563Y-10349239D01*
X23460803Y-10381505D01*
X23431487Y-10418945D01*
X23410688Y-10438739D01*
X23388591Y-10454016D01*
X23372227Y-10453997D01*
X23356606Y-10440091D01*
X23350758Y-10431178D01*
X23351744Y-10416135D01*
X23368496Y-10394875D01*
X23394733Y-10366946D01*
X23356025Y-10366822D01*
X23316669Y-10364739D01*
X23276071Y-10359877D01*
X23268363Y-10358654D01*
X23244331Y-10357755D01*
X23229654Y-10367843D01*
X23215437Y-10393913D01*
X23211122Y-10402930D01*
X23199798Y-10425726D01*
X23194511Y-10434940D01*
X23192574Y-10435539D01*
X23175789Y-10441382D01*
X23147757Y-10451400D01*
X23145268Y-10452297D01*
X23113252Y-10463282D01*
X23092380Y-10466886D01*
X23073037Y-10463191D01*
X23045604Y-10452280D01*
X23045321Y-10452161D01*
X23010642Y-10429005D01*
X22982679Y-10395760D01*
X22970524Y-10377285D01*
X22950542Y-10360119D01*
X22924116Y-10355642D01*
X22896237Y-10360862D01*
X22863392Y-10379909D01*
X22852501Y-10389457D01*
X22835631Y-10397251D01*
X22820274Y-10389829D01*
X22815363Y-10385450D01*
X22804385Y-10366634D01*
X22811093Y-10345090D01*
X22836431Y-10316527D01*
X22869875Y-10284485D01*
X23138812Y-10290560D01*
G37*
G36*
X22045621Y-11791245D02*
G01*
X22044805Y-11797230D01*
X22038085Y-11798781D01*
X22036732Y-11797125D01*
X22038085Y-11783709D01*
X22041485Y-11781941D01*
X22045621Y-11791245D01*
G37*
G36*
X22558250Y-11370178D02*
G01*
X22574081Y-11371382D01*
X22581508Y-11376577D01*
X22588211Y-11395874D01*
X22586164Y-11407295D01*
X22574081Y-11422183D01*
X22570438Y-11422989D01*
X22547090Y-11424733D01*
X22507280Y-11425870D01*
X22455450Y-11426307D01*
X22396044Y-11425951D01*
X22367121Y-11425569D01*
X22311551Y-11424535D01*
X22273641Y-11422896D01*
X22249892Y-11420088D01*
X22236803Y-11415548D01*
X22230873Y-11408714D01*
X22228602Y-11399022D01*
X22227924Y-11393125D01*
X22229246Y-11385190D01*
X22236589Y-11379700D01*
X22253271Y-11376084D01*
X22282607Y-11373770D01*
X22327914Y-11372187D01*
X22392509Y-11370762D01*
X22418999Y-11370275D01*
X22476324Y-11369610D01*
X22524203Y-11369583D01*
X22558250Y-11370178D01*
G37*
G36*
X12211175Y-12639042D02*
G01*
X11804233Y-12639042D01*
X11804233Y-12198188D01*
X12211175Y-12198188D01*
X12211175Y-12639042D01*
G37*
G36*
X17908372Y-12639042D02*
G01*
X17501429Y-12639042D01*
X17501429Y-11372999D01*
X17908372Y-11372999D01*
X17908372Y-12639042D01*
G37*
G36*
X12109440Y-8501793D02*
G01*
X13070276Y-8501793D01*
X13070276Y-8660048D01*
X12633864Y-8660048D01*
X12619611Y-8660049D01*
X12511291Y-8660113D01*
X12423287Y-8660350D01*
X12353551Y-8660855D01*
X12300032Y-8661723D01*
X12260683Y-8663048D01*
X12233453Y-8664924D01*
X12216294Y-8667446D01*
X12207157Y-8670708D01*
X12203992Y-8674804D01*
X12204751Y-8679830D01*
X12208700Y-8689214D01*
X12227028Y-8724393D01*
X12255242Y-8772610D01*
X12290910Y-8830076D01*
X12331602Y-8893005D01*
X12374886Y-8957608D01*
X12418330Y-9020099D01*
X12459503Y-9076688D01*
X12495698Y-9123295D01*
X12567219Y-9208800D01*
X12648572Y-9299679D01*
X12735191Y-9391158D01*
X12822506Y-9478465D01*
X12905948Y-9556828D01*
X12980951Y-9621473D01*
X13019293Y-9652612D01*
X13060155Y-9685861D01*
X13093026Y-9712678D01*
X13113120Y-9729162D01*
X13141525Y-9752659D01*
X13082261Y-9828072D01*
X13071680Y-9841411D01*
X13045611Y-9873136D01*
X13026123Y-9895207D01*
X13016809Y-9903484D01*
X13005266Y-9898419D01*
X12978785Y-9879078D01*
X12941178Y-9847460D01*
X12894863Y-9805904D01*
X12842258Y-9756745D01*
X12785781Y-9702320D01*
X12727850Y-9644967D01*
X12670884Y-9587022D01*
X12617300Y-9530822D01*
X12569516Y-9478702D01*
X12529951Y-9433001D01*
X12458409Y-9342607D01*
X12354077Y-9195937D01*
X12256183Y-9040969D01*
X12170267Y-8886127D01*
X12115092Y-8778740D01*
X12112178Y-9465455D01*
X12109265Y-10152171D01*
X11940055Y-10152171D01*
X11937142Y-9465455D01*
X11934228Y-8778740D01*
X11858495Y-8922991D01*
X11786776Y-9052266D01*
X11655500Y-9257335D01*
X11511804Y-9445724D01*
X11357039Y-9615568D01*
X11324064Y-9647603D01*
X11277315Y-9690739D01*
X11227766Y-9734482D01*
X11178643Y-9776165D01*
X11133170Y-9813119D01*
X11094571Y-9842674D01*
X11066071Y-9862164D01*
X11050895Y-9868918D01*
X11047143Y-9866763D01*
X11030904Y-9850994D01*
X11006290Y-9823318D01*
X10976977Y-9787769D01*
X10912739Y-9707273D01*
X10976977Y-9667708D01*
X11097960Y-9586450D01*
X11255903Y-9459189D01*
X11405907Y-9313612D01*
X11545696Y-9151981D01*
X11672990Y-8976559D01*
X11675417Y-8972888D01*
X11708602Y-8921311D01*
X11742620Y-8866244D01*
X11775306Y-8811448D01*
X11804497Y-8760680D01*
X11828027Y-8717699D01*
X11843732Y-8686264D01*
X11849449Y-8670133D01*
X11849333Y-8669888D01*
X11836217Y-8667575D01*
X11802879Y-8665481D01*
X11751481Y-8663657D01*
X11684190Y-8662153D01*
X11603168Y-8661017D01*
X11510582Y-8660299D01*
X11408594Y-8660048D01*
X10967740Y-8660048D01*
X10967740Y-8501793D01*
X11939880Y-8501793D01*
X11939880Y-7959203D01*
X12109440Y-7959203D01*
X12109440Y-8501793D01*
G37*
G36*
X18724613Y-11551036D02*
G01*
X18727909Y-12147320D01*
X18757992Y-12211494D01*
X18786268Y-12259397D01*
X18832927Y-12305792D01*
X18893017Y-12336548D01*
X18968137Y-12352423D01*
X19059889Y-12354171D01*
X19100503Y-12350859D01*
X19179034Y-12334233D01*
X19240785Y-12303708D01*
X19287514Y-12257789D01*
X19320981Y-12194985D01*
X19342946Y-12113800D01*
X19345970Y-12086312D01*
X19348724Y-12036408D01*
X19351026Y-11966004D01*
X19352854Y-11876176D01*
X19354186Y-11768001D01*
X19355002Y-11642556D01*
X19355279Y-11500918D01*
X19355279Y-10954752D01*
X19784829Y-10954752D01*
X19784435Y-11522776D01*
X19784284Y-11626329D01*
X19783810Y-11750543D01*
X19782985Y-11855349D01*
X19781763Y-11942598D01*
X19780098Y-12014144D01*
X19777945Y-12071837D01*
X19775256Y-12117529D01*
X19771986Y-12153072D01*
X19768089Y-12180319D01*
X19767917Y-12181280D01*
X19737642Y-12291873D01*
X19689271Y-12389257D01*
X19623404Y-12472924D01*
X19540644Y-12542368D01*
X19441593Y-12597086D01*
X19326852Y-12636569D01*
X19197023Y-12660314D01*
X19185474Y-12661594D01*
X19018957Y-12669938D01*
X18862746Y-12658203D01*
X18716890Y-12626392D01*
X18664872Y-12609514D01*
X18591187Y-12578105D01*
X18527388Y-12538943D01*
X18465520Y-12487638D01*
X18430963Y-12453127D01*
X18380956Y-12388326D01*
X18343580Y-12314634D01*
X18315067Y-12225482D01*
X18311955Y-12212926D01*
X18307468Y-12192264D01*
X18303735Y-12169883D01*
X18300686Y-12143693D01*
X18298254Y-12111605D01*
X18296370Y-12071531D01*
X18294964Y-12021382D01*
X18293968Y-11959069D01*
X18293313Y-11882503D01*
X18292930Y-11789596D01*
X18292751Y-11678259D01*
X18292706Y-11546402D01*
X18292706Y-10954752D01*
X18721318Y-10954752D01*
X18724613Y-11551036D01*
G37*
G36*
X22331188Y-11872100D02*
G01*
X22333872Y-11881677D01*
X22331555Y-11885097D01*
X22322568Y-11892981D01*
X22320933Y-11892449D01*
X22311264Y-11881677D01*
X22310359Y-11875690D01*
X22322568Y-11870373D01*
X22331188Y-11872100D01*
G37*
G36*
X17919676Y-11180832D02*
G01*
X17490125Y-11180832D01*
X17490125Y-10875625D01*
X17919676Y-10875625D01*
X17919676Y-11180832D01*
G37*
G36*
X7695714Y-11338008D02*
G01*
X7704227Y-11339690D01*
X7769481Y-11359083D01*
X7841858Y-11389645D01*
X7913244Y-11427575D01*
X7975526Y-11469073D01*
X8028710Y-11509682D01*
X8028710Y-11372999D01*
X8435652Y-11372999D01*
X8435652Y-12639042D01*
X8028710Y-12639042D01*
X8028710Y-11726768D01*
X7951506Y-11691183D01*
X7915288Y-11676299D01*
X7840933Y-11657151D01*
X7772130Y-11654428D01*
X7711794Y-11667688D01*
X7662844Y-11696486D01*
X7628195Y-11740378D01*
X7627730Y-11741279D01*
X7621788Y-11753903D01*
X7616936Y-11767896D01*
X7613042Y-11785618D01*
X7609969Y-11809430D01*
X7607584Y-11841690D01*
X7605751Y-11884759D01*
X7604336Y-11940997D01*
X7603205Y-12012763D01*
X7602221Y-12102416D01*
X7601251Y-12212318D01*
X7597691Y-12639042D01*
X7192217Y-12639042D01*
X7192217Y-11725084D01*
X7127219Y-11693195D01*
X7083924Y-11674807D01*
X7036010Y-11663023D01*
X6977441Y-11657878D01*
X6970541Y-11657633D01*
X6904412Y-11660257D01*
X6854908Y-11673828D01*
X6818316Y-11699987D01*
X6790926Y-11740378D01*
X6785541Y-11752087D01*
X6780680Y-11766264D01*
X6776761Y-11784177D01*
X6773652Y-11808184D01*
X6771221Y-11840645D01*
X6769338Y-11883918D01*
X6767871Y-11940363D01*
X6766689Y-12012339D01*
X6765660Y-12102204D01*
X6764653Y-12212318D01*
X6760988Y-12639042D01*
X6353336Y-12639042D01*
X6358789Y-12161450D01*
X6359203Y-12125607D01*
X6360700Y-12007875D01*
X6362343Y-11909767D01*
X6364363Y-11828939D01*
X6366991Y-11763046D01*
X6370460Y-11709744D01*
X6375001Y-11666689D01*
X6380846Y-11631537D01*
X6388227Y-11601944D01*
X6397375Y-11575566D01*
X6408522Y-11550058D01*
X6421900Y-11523077D01*
X6451336Y-11476326D01*
X6509273Y-11417246D01*
X6580965Y-11372412D01*
X6663115Y-11343267D01*
X6752425Y-11331253D01*
X6845596Y-11337812D01*
X6877135Y-11345003D01*
X6946616Y-11369162D01*
X7022666Y-11404361D01*
X7098941Y-11447509D01*
X7169099Y-11495515D01*
X7242064Y-11550985D01*
X7272045Y-11503710D01*
X7292713Y-11474848D01*
X7353435Y-11415994D01*
X7427853Y-11371413D01*
X7512211Y-11342575D01*
X7602751Y-11330950D01*
X7695714Y-11338008D01*
G37*
G36*
X23285813Y-9950471D02*
G01*
X23339486Y-9952269D01*
X23389461Y-9955507D01*
X23431009Y-9959884D01*
X23459405Y-9965097D01*
X23469920Y-9970844D01*
X23467409Y-9973117D01*
X23447980Y-9979127D01*
X23413513Y-9985980D01*
X23369031Y-9992593D01*
X23361061Y-9993694D01*
X23308624Y-10003235D01*
X23243673Y-10017815D01*
X23173703Y-10035654D01*
X23106213Y-10054972D01*
X23038588Y-10074717D01*
X22963277Y-10093414D01*
X22903211Y-10103498D01*
X22855351Y-10105440D01*
X22816654Y-10099710D01*
X22797970Y-10090868D01*
X22797699Y-10077711D01*
X22818193Y-10059979D01*
X22859962Y-10036936D01*
X22905779Y-10016823D01*
X22994496Y-9987365D01*
X23090447Y-9965125D01*
X23184169Y-9952566D01*
X23186275Y-9952407D01*
X23233167Y-9950416D01*
X23285813Y-9950471D01*
G37*
G36*
X22079533Y-11876025D02*
G01*
X22073881Y-11881677D01*
X22068229Y-11876025D01*
X22073881Y-11870373D01*
X22079533Y-11876025D01*
G37*
G36*
X22708787Y-11806317D02*
G01*
X22710555Y-11809717D01*
X22701251Y-11813853D01*
X22695267Y-11813038D01*
X22693715Y-11806317D01*
X22695372Y-11804965D01*
X22708787Y-11806317D01*
G37*
G36*
X22200109Y-11874141D02*
G01*
X22201877Y-11877541D01*
X22192573Y-11881677D01*
X22186588Y-11880861D01*
X22185037Y-11874141D01*
X22186694Y-11872788D01*
X22200109Y-11874141D01*
G37*
G36*
X8040014Y-10140867D02*
G01*
X8040014Y-10038920D01*
X7477642Y-10041852D01*
X6915270Y-10044783D01*
X6908318Y-10140867D01*
X6751362Y-10140867D01*
X6751362Y-9903484D01*
X6909013Y-9903484D01*
X8040014Y-9903484D01*
X8040014Y-9564154D01*
X7477642Y-9567086D01*
X6915270Y-9570017D01*
X6912141Y-9736751D01*
X6909013Y-9903484D01*
X6751362Y-9903484D01*
X6751362Y-9428718D01*
X8198269Y-9428718D01*
X8198269Y-10140867D01*
X8040014Y-10140867D01*
G37*
G36*
X9984295Y-9383502D02*
G01*
X9984295Y-9202638D01*
X9577352Y-9202638D01*
X9577352Y-9349590D01*
X9420176Y-9349590D01*
X9416810Y-9278940D01*
X9413445Y-9208290D01*
X9207148Y-9205209D01*
X9000850Y-9202128D01*
X9000850Y-9338286D01*
X8842595Y-9338286D01*
X8842595Y-9078295D01*
X9000850Y-9078295D01*
X9984295Y-9078295D01*
X9984295Y-8920039D01*
X9577352Y-8920039D01*
X9577352Y-9078295D01*
X9420130Y-9078295D01*
X9416787Y-9001993D01*
X9413445Y-8925691D01*
X9207148Y-8922610D01*
X9000850Y-8919529D01*
X9000850Y-9078295D01*
X8842595Y-9078295D01*
X8842595Y-8795696D01*
X9000850Y-8795696D01*
X9984295Y-8795696D01*
X9984295Y-8637440D01*
X9577352Y-8637440D01*
X9577352Y-8795696D01*
X9419097Y-8795696D01*
X9419097Y-8637440D01*
X9000850Y-8637440D01*
X9000850Y-8795696D01*
X8842595Y-8795696D01*
X8842595Y-8501793D01*
X9419097Y-8501793D01*
X9419097Y-8354841D01*
X8706947Y-8354841D01*
X8706947Y-8219194D01*
X9419097Y-8219194D01*
X9419097Y-7959203D01*
X9577352Y-7959203D01*
X9577352Y-8219194D01*
X10255590Y-8219194D01*
X10255590Y-8354841D01*
X9577352Y-8354841D01*
X9577352Y-8501793D01*
X10142550Y-8501793D01*
X10142550Y-9383502D01*
X9984295Y-9383502D01*
G37*
G36*
X23325946Y-12511594D02*
G01*
X23324879Y-12530031D01*
X23322025Y-12539948D01*
X23317780Y-12546781D01*
X23313803Y-12532840D01*
X23313363Y-12530776D01*
X23307805Y-12518583D01*
X23298355Y-12527188D01*
X23297669Y-12528168D01*
X23290035Y-12537214D01*
X23291635Y-12526991D01*
X23295516Y-12519485D01*
X23313731Y-12508410D01*
X23325946Y-12511594D01*
G37*
G36*
X10628621Y-8580921D02*
G01*
X10854700Y-8580921D01*
X10854700Y-8739176D01*
X10628621Y-8739176D01*
X10628621Y-10140867D01*
X10470365Y-10140867D01*
X10470365Y-8739176D01*
X10255590Y-8739176D01*
X10255590Y-8580921D01*
X10470365Y-8580921D01*
X10470365Y-7959203D01*
X10628621Y-7959203D01*
X10628621Y-8580921D01*
G37*
G36*
X7554896Y-7961827D02*
G01*
X7589029Y-7981979D01*
X7619629Y-8002007D01*
X7633657Y-8018520D01*
X7632408Y-8036684D01*
X7617183Y-8061663D01*
X7589278Y-8098622D01*
X7575763Y-8116071D01*
X7554422Y-8142648D01*
X7537677Y-8164285D01*
X7527165Y-8181483D01*
X7524522Y-8194743D01*
X7531385Y-8204566D01*
X7549392Y-8211454D01*
X7580178Y-8215907D01*
X7625381Y-8218426D01*
X7686638Y-8219514D01*
X7765585Y-8219670D01*
X7863858Y-8219396D01*
X7983096Y-8219194D01*
X8458260Y-8219194D01*
X8458260Y-8637440D01*
X8300005Y-8637440D01*
X8300005Y-8366145D01*
X6638323Y-8366145D01*
X6638323Y-8637440D01*
X6480067Y-8637440D01*
X6480067Y-8219194D01*
X7423544Y-8219194D01*
X7378530Y-8189191D01*
X7363853Y-8179373D01*
X7340328Y-8163451D01*
X7329094Y-8155567D01*
X7332562Y-8146609D01*
X7347551Y-8124021D01*
X7371209Y-8091934D01*
X7400475Y-8054370D01*
X7432285Y-8015354D01*
X7463576Y-7978910D01*
X7504982Y-7932251D01*
X7554896Y-7961827D01*
G37*
G36*
X15082381Y-8411361D02*
G01*
X15376284Y-8411361D01*
X15376284Y-8558313D01*
X15082381Y-8558313D01*
X15082381Y-9041295D01*
X15226507Y-9082993D01*
X15236822Y-9085979D01*
X15290663Y-9101627D01*
X15336506Y-9115048D01*
X15369778Y-9124899D01*
X15385901Y-9129835D01*
X15390357Y-9132517D01*
X15395739Y-9145508D01*
X15396539Y-9172188D01*
X15393112Y-9216851D01*
X15392634Y-9221640D01*
X15388049Y-9261455D01*
X15383617Y-9290887D01*
X15380237Y-9303864D01*
X15377089Y-9303833D01*
X15356953Y-9299178D01*
X15322336Y-9289528D01*
X15277937Y-9276325D01*
X15228456Y-9261011D01*
X15178592Y-9245027D01*
X15133044Y-9229815D01*
X15096511Y-9216817D01*
X15095651Y-9216647D01*
X15091640Y-9221482D01*
X15088471Y-9237363D01*
X15086060Y-9266216D01*
X15084328Y-9309967D01*
X15083192Y-9370544D01*
X15082570Y-9449874D01*
X15082381Y-9549881D01*
X15082381Y-9888239D01*
X15109972Y-9914159D01*
X15111623Y-9915699D01*
X15125619Y-9926904D01*
X15141522Y-9933710D01*
X15164499Y-9936891D01*
X15199714Y-9937220D01*
X15252333Y-9935469D01*
X15367104Y-9930859D01*
X15359279Y-10003921D01*
X15354921Y-10040043D01*
X15349845Y-10073439D01*
X15345704Y-10091969D01*
X15344920Y-10093467D01*
X15333872Y-10099839D01*
X15309029Y-10104002D01*
X15267464Y-10106269D01*
X15206251Y-10106955D01*
X15190691Y-10106917D01*
X15123668Y-10105301D01*
X15073809Y-10100594D01*
X15036632Y-10091820D01*
X15007656Y-10078001D01*
X14982398Y-10058160D01*
X14969982Y-10046430D01*
X14956170Y-10031755D01*
X14945042Y-10015870D01*
X14936267Y-9996398D01*
X14929513Y-9970962D01*
X14924446Y-9937184D01*
X14920736Y-9892686D01*
X14918051Y-9835092D01*
X14916058Y-9762025D01*
X14914426Y-9671106D01*
X14912822Y-9559958D01*
X14907170Y-9154261D01*
X14785652Y-9115918D01*
X14664135Y-9077575D01*
X14664135Y-8910567D01*
X14756588Y-8938959D01*
X14769829Y-8943045D01*
X14815067Y-8957284D01*
X14852823Y-8969569D01*
X14876016Y-8977608D01*
X14894789Y-8984291D01*
X14907906Y-8987863D01*
X14908009Y-8987816D01*
X14909530Y-8975750D01*
X14910851Y-8944772D01*
X14911893Y-8898354D01*
X14912576Y-8839969D01*
X14912822Y-8773088D01*
X14912822Y-8558313D01*
X14652831Y-8558313D01*
X14652831Y-8411361D01*
X14912822Y-8411361D01*
X14912822Y-7970507D01*
X15082381Y-7970507D01*
X15082381Y-8411361D01*
G37*
G36*
X23322969Y-12480787D02*
G01*
X23322153Y-12486771D01*
X23315433Y-12488323D01*
X23314080Y-12486666D01*
X23315433Y-12473251D01*
X23318833Y-12471483D01*
X23322969Y-12480787D01*
G37*
G36*
X22158661Y-11909937D02*
G01*
X22153009Y-11915589D01*
X22147357Y-11909937D01*
X22153009Y-11904285D01*
X22158661Y-11909937D01*
G37*
G36*
X21982344Y-10313946D02*
G01*
X22003856Y-10340336D01*
X22010437Y-10366465D01*
X21996351Y-10388228D01*
X21992615Y-10390934D01*
X21975880Y-10392798D01*
X21952179Y-10378308D01*
X21935603Y-10367051D01*
X21897554Y-10355080D01*
X21864158Y-10364047D01*
X21838162Y-10393585D01*
X21836859Y-10395915D01*
X21812071Y-10426861D01*
X21781897Y-10449762D01*
X21760748Y-10458078D01*
X21712327Y-10462729D01*
X21665251Y-10451036D01*
X21625862Y-10425182D01*
X21600506Y-10387349D01*
X21587811Y-10353635D01*
X21514335Y-10361405D01*
X21477894Y-10365768D01*
X21449004Y-10370257D01*
X21436219Y-10373644D01*
X21437774Y-10381629D01*
X21450349Y-10398853D01*
X21462628Y-10414890D01*
X21467494Y-10436530D01*
X21451344Y-10450476D01*
X21430762Y-10452119D01*
X21399806Y-10436568D01*
X21368170Y-10401962D01*
X21362581Y-10393816D01*
X21347110Y-10361269D01*
X21350572Y-10336387D01*
X21373214Y-10314922D01*
X21384358Y-10309332D01*
X21402249Y-10304389D01*
X21428792Y-10300463D01*
X21466780Y-10297330D01*
X21519003Y-10294764D01*
X21588251Y-10292540D01*
X21677316Y-10290435D01*
X21952979Y-10284580D01*
X21982344Y-10313946D01*
G37*
G36*
X14410077Y-9035200D02*
G01*
X14388355Y-9100088D01*
X14360135Y-9174641D01*
X14328615Y-9251016D01*
X14296994Y-9321367D01*
X14268471Y-9377850D01*
X14244965Y-9418249D01*
X14198764Y-9490574D01*
X14144708Y-9568726D01*
X14087276Y-9646074D01*
X14063496Y-9676915D01*
X14157518Y-9737999D01*
X14191799Y-9759578D01*
X14290007Y-9815908D01*
X14398544Y-9871754D01*
X14509075Y-9922956D01*
X14613267Y-9965358D01*
X14650174Y-9979217D01*
X14690343Y-9994587D01*
X14718346Y-10005652D01*
X14729663Y-10010652D01*
X14729586Y-10011850D01*
X14721497Y-10026056D01*
X14703567Y-10052461D01*
X14678795Y-10086589D01*
X14624571Y-10159361D01*
X14536537Y-10122100D01*
X14468803Y-10092125D01*
X14332927Y-10025285D01*
X14198000Y-9950883D01*
X14074685Y-9874632D01*
X14062030Y-9866289D01*
X14016502Y-9836540D01*
X13979011Y-9812457D01*
X13953150Y-9796329D01*
X13942513Y-9790444D01*
X13940900Y-9791095D01*
X13925490Y-9800904D01*
X13897972Y-9820043D01*
X13862936Y-9845347D01*
X13839167Y-9862543D01*
X13703685Y-9951835D01*
X13557015Y-10033802D01*
X13393455Y-10111678D01*
X13333269Y-10138295D01*
X13265535Y-10057130D01*
X13197801Y-9975964D01*
X13306424Y-9938870D01*
X13324711Y-9932480D01*
X13387798Y-9908864D01*
X13452166Y-9882866D01*
X13506384Y-9859047D01*
X13537389Y-9843795D01*
X13587987Y-9816727D01*
X13641447Y-9786163D01*
X13693189Y-9754894D01*
X13738632Y-9725714D01*
X13773195Y-9701412D01*
X13792297Y-9684783D01*
X13794487Y-9675643D01*
X13786633Y-9657201D01*
X13765708Y-9628280D01*
X13730085Y-9586302D01*
X13712133Y-9565530D01*
X13644576Y-9480137D01*
X13580467Y-9388256D01*
X13521519Y-9293172D01*
X13469446Y-9198171D01*
X13425962Y-9106538D01*
X13392781Y-9021559D01*
X13376900Y-8965255D01*
X13554823Y-8965255D01*
X13562341Y-8990689D01*
X13565763Y-9001577D01*
X13586623Y-9056013D01*
X13615935Y-9120989D01*
X13650409Y-9189854D01*
X13686752Y-9255957D01*
X13721673Y-9312646D01*
X13734632Y-9331579D01*
X13775955Y-9387464D01*
X13820917Y-9443343D01*
X13861853Y-9489544D01*
X13936218Y-9567528D01*
X13993057Y-9495297D01*
X13995957Y-9491604D01*
X14081253Y-9374376D01*
X14149975Y-9260089D01*
X14205758Y-9141983D01*
X14252237Y-9013297D01*
X14267415Y-8965255D01*
X13554823Y-8965255D01*
X13376900Y-8965255D01*
X13371615Y-8946520D01*
X13364179Y-8884707D01*
X13364179Y-8818304D01*
X13838946Y-8818304D01*
X13838946Y-8479185D01*
X13239836Y-8479185D01*
X13239836Y-8320929D01*
X13838946Y-8320929D01*
X13838946Y-7959203D01*
X14008505Y-7959203D01*
X14008505Y-8320929D01*
X14585007Y-8320929D01*
X14585007Y-8479185D01*
X14008505Y-8479185D01*
X14008505Y-8818304D01*
X14585007Y-8818304D01*
X14585007Y-8965255D01*
X14429690Y-8965255D01*
X14414805Y-9018949D01*
X14410077Y-9035200D01*
G37*
G36*
X22712555Y-11876025D02*
G01*
X22706903Y-11881677D01*
X22701251Y-11876025D01*
X22706903Y-11870373D01*
X22712555Y-11876025D01*
G37*
G36*
X9180606Y-7973408D02*
G01*
X9197450Y-7990755D01*
X9216811Y-8018548D01*
X9246001Y-8066590D01*
X9120599Y-8129999D01*
X9117728Y-8131450D01*
X9068927Y-8155700D01*
X9027158Y-8175737D01*
X8996778Y-8189518D01*
X8982143Y-8194997D01*
X8975948Y-8192825D01*
X8960338Y-8176789D01*
X8942724Y-8150985D01*
X8927097Y-8122303D01*
X8917445Y-8097629D01*
X8917761Y-8083852D01*
X8929947Y-8076453D01*
X8958592Y-8062121D01*
X8997984Y-8043694D01*
X9042928Y-8023469D01*
X9088227Y-8003742D01*
X9128685Y-7986808D01*
X9159105Y-7974965D01*
X9174292Y-7970507D01*
X9180606Y-7973408D01*
G37*
G36*
X10108197Y-12146858D02*
G01*
X10078794Y-12265558D01*
X10031639Y-12371258D01*
X9967474Y-12463077D01*
X9887044Y-12540132D01*
X9791091Y-12601543D01*
X9680361Y-12646428D01*
X9555597Y-12673906D01*
X9554094Y-12674114D01*
X9494141Y-12678538D01*
X9420828Y-12678416D01*
X9342587Y-12674196D01*
X9267851Y-12666327D01*
X9205052Y-12655257D01*
X9116079Y-12627845D01*
X9014635Y-12576647D01*
X8926873Y-12508058D01*
X8853874Y-12423150D01*
X8796713Y-12322998D01*
X8756471Y-12208675D01*
X8749804Y-12177159D01*
X8741319Y-12106282D01*
X8737975Y-12030320D01*
X9154293Y-12030320D01*
X9155347Y-12095828D01*
X9158583Y-12145240D01*
X9164449Y-12183488D01*
X9173393Y-12215502D01*
X9178680Y-12229579D01*
X9213098Y-12293329D01*
X9258674Y-12345353D01*
X9310910Y-12380263D01*
X9332054Y-12388659D01*
X9400228Y-12402144D01*
X9470031Y-12398455D01*
X9536247Y-12378914D01*
X9593661Y-12344845D01*
X9637058Y-12297569D01*
X9650602Y-12275544D01*
X9669624Y-12237083D01*
X9682679Y-12195834D01*
X9690765Y-12146862D01*
X9694879Y-12085236D01*
X9696019Y-12006021D01*
X9695669Y-11966130D01*
X9691752Y-11886099D01*
X9682599Y-11822336D01*
X9667105Y-11770601D01*
X9644164Y-11726650D01*
X9612671Y-11686243D01*
X9587747Y-11661182D01*
X9543821Y-11631029D01*
X9492867Y-11615126D01*
X9427938Y-11610630D01*
X9384594Y-11613032D01*
X9316534Y-11629653D01*
X9261261Y-11663379D01*
X9216651Y-11715734D01*
X9180582Y-11788243D01*
X9179060Y-11792172D01*
X9168697Y-11822669D01*
X9161704Y-11853815D01*
X9157421Y-11891098D01*
X9155186Y-11940005D01*
X9154338Y-12006021D01*
X9154293Y-12030320D01*
X8737975Y-12030320D01*
X8737765Y-12025550D01*
X8739140Y-11942877D01*
X8745439Y-11866178D01*
X8756660Y-11803366D01*
X8786353Y-11712743D01*
X8839723Y-11609244D01*
X8909542Y-11521001D01*
X8995111Y-11448705D01*
X9095732Y-11393047D01*
X9210704Y-11354718D01*
X9245370Y-11347836D01*
X9320881Y-11339173D01*
X9405803Y-11335486D01*
X9492271Y-11336782D01*
X9572421Y-11343068D01*
X9638389Y-11354350D01*
X9690793Y-11369211D01*
X9800234Y-11415557D01*
X9894760Y-11478362D01*
X9973673Y-11556677D01*
X10036269Y-11649550D01*
X10081849Y-11756032D01*
X10109711Y-11875172D01*
X10119154Y-12006021D01*
X10119102Y-12016039D01*
X10108197Y-12146858D01*
G37*
G36*
X22599515Y-11876025D02*
G01*
X22593863Y-11881677D01*
X22588211Y-11876025D01*
X22593863Y-11870373D01*
X22599515Y-11876025D01*
G37*
G36*
X21503031Y-12509047D02*
G01*
X21497379Y-12514699D01*
X21491727Y-12509047D01*
X21497379Y-12503395D01*
X21503031Y-12509047D01*
G37*
G36*
X22239908Y-11873955D02*
G01*
X22245140Y-11878024D01*
X22233079Y-11880785D01*
X22221613Y-11879985D01*
X22218242Y-11874848D01*
X22222241Y-11872608D01*
X22239908Y-11873955D01*
G37*
G36*
X22163417Y-11871261D02*
G01*
X22164313Y-11881677D01*
X22161993Y-11885060D01*
X22152342Y-11892981D01*
X22151214Y-11892687D01*
X22147357Y-11881677D01*
X22147817Y-11878579D01*
X22159328Y-11870373D01*
X22163417Y-11871261D01*
G37*
G36*
X22814291Y-11808201D02*
G01*
X22808639Y-11813853D01*
X22802987Y-11808201D01*
X22808639Y-11802549D01*
X22814291Y-11808201D01*
G37*
G36*
X23368185Y-12599479D02*
G01*
X23362533Y-12605131D01*
X23356881Y-12599479D01*
X23362533Y-12593827D01*
X23368185Y-12599479D01*
G37*
G36*
X21514335Y-12458179D02*
G01*
X21513519Y-12464163D01*
X21506799Y-12465715D01*
X21505446Y-12464058D01*
X21506799Y-12450643D01*
X21510199Y-12448875D01*
X21514335Y-12458179D01*
G37*
G36*
X9956453Y-9647743D02*
G01*
X9976667Y-9664977D01*
X10001923Y-9690941D01*
X10044789Y-9738389D01*
X10012923Y-9761591D01*
X9994230Y-9775357D01*
X9960591Y-9800340D01*
X9918337Y-9831854D01*
X9872463Y-9866177D01*
X9872082Y-9866462D01*
X9829560Y-9898008D01*
X9793836Y-9923916D01*
X9768650Y-9941514D01*
X9757743Y-9948130D01*
X9748659Y-9942115D01*
X9728143Y-9923749D01*
X9701224Y-9897258D01*
X9650828Y-9845816D01*
X9679088Y-9823986D01*
X9700179Y-9808158D01*
X9738292Y-9780779D01*
X9782257Y-9750155D01*
X9828023Y-9719005D01*
X9871540Y-9690045D01*
X9908758Y-9665995D01*
X9935625Y-9649571D01*
X9948090Y-9643493D01*
X9956453Y-9647743D01*
G37*
G36*
X22285124Y-11873955D02*
G01*
X22290356Y-11878024D01*
X22278294Y-11880785D01*
X22266829Y-11879985D01*
X22263458Y-11874848D01*
X22267457Y-11872608D01*
X22285124Y-11873955D01*
G37*
G36*
X22045621Y-11819505D02*
G01*
X22039969Y-11825157D01*
X22034317Y-11819505D01*
X22039969Y-11813853D01*
X22045621Y-11819505D01*
G37*
G36*
X22136053Y-11876025D02*
G01*
X22130401Y-11881677D01*
X22124749Y-11876025D01*
X22130401Y-11870373D01*
X22136053Y-11876025D01*
G37*
G36*
X15511932Y-11259959D02*
G01*
X15240637Y-11259959D01*
X15240637Y-12333836D01*
X15511932Y-12333836D01*
X15511932Y-12639042D01*
X14539791Y-12639042D01*
X14539791Y-12333836D01*
X14811086Y-12333836D01*
X14811086Y-11259959D01*
X14539791Y-11259959D01*
X14539791Y-10954752D01*
X15511932Y-10954752D01*
X15511932Y-11259959D01*
G37*
G36*
X14266232Y-11854965D02*
G01*
X14260182Y-11946403D01*
X14249726Y-12029088D01*
X14235084Y-12096268D01*
X14232031Y-12106506D01*
X14182857Y-12230881D01*
X14115923Y-12342250D01*
X14032738Y-12439342D01*
X13934810Y-12520884D01*
X13823647Y-12585603D01*
X13700758Y-12632226D01*
X13567651Y-12659481D01*
X13489333Y-12667718D01*
X13418114Y-12670896D01*
X13347933Y-12668470D01*
X13268096Y-12660475D01*
X13199872Y-12649988D01*
X13065058Y-12614714D01*
X12944460Y-12562106D01*
X12838540Y-12492565D01*
X12747757Y-12406493D01*
X12672573Y-12304291D01*
X12613447Y-12186360D01*
X12570840Y-12053100D01*
X12567020Y-12036292D01*
X12552856Y-11943455D01*
X12546224Y-11839098D01*
X12546300Y-11829904D01*
X12991939Y-11829904D01*
X12994542Y-11904426D01*
X13001719Y-11967666D01*
X13003474Y-11977349D01*
X13030730Y-12074213D01*
X13072758Y-12161050D01*
X13127437Y-12234939D01*
X13192646Y-12292956D01*
X13266265Y-12332180D01*
X13319581Y-12347456D01*
X13405050Y-12356014D01*
X13491082Y-12347753D01*
X13571710Y-12323444D01*
X13640967Y-12283856D01*
X13674132Y-12255152D01*
X13731991Y-12183575D01*
X13776546Y-12095710D01*
X13807191Y-11993308D01*
X13823324Y-11878122D01*
X13824341Y-11751903D01*
X13822648Y-11724795D01*
X13806101Y-11601639D01*
X13776013Y-11496206D01*
X13732493Y-11408638D01*
X13675656Y-11339081D01*
X13605611Y-11287678D01*
X13522472Y-11254575D01*
X13426351Y-11239913D01*
X13397596Y-11238750D01*
X13350798Y-11239826D01*
X13311290Y-11246603D01*
X13269013Y-11260390D01*
X13267563Y-11260940D01*
X13188972Y-11302231D01*
X13122510Y-11361751D01*
X13067662Y-11440083D01*
X13023914Y-11537810D01*
X13020616Y-11547865D01*
X13008249Y-11603082D01*
X12999126Y-11672789D01*
X12993578Y-11750544D01*
X12991939Y-11829904D01*
X12546300Y-11829904D01*
X12547115Y-11731350D01*
X12555521Y-11628343D01*
X12571431Y-11538208D01*
X12576838Y-11516971D01*
X12621780Y-11387838D01*
X12683589Y-11272797D01*
X12761432Y-11172769D01*
X12854478Y-11088677D01*
X12961893Y-11021441D01*
X13082845Y-10971985D01*
X13154129Y-10952617D01*
X13284001Y-10931313D01*
X13417700Y-10925340D01*
X13550807Y-10934296D01*
X13678902Y-10957778D01*
X13797567Y-10995382D01*
X13902382Y-11046707D01*
X13914465Y-11054164D01*
X14010570Y-11128035D01*
X14093741Y-11219125D01*
X14162620Y-11325381D01*
X14215847Y-11444748D01*
X14252063Y-11575172D01*
X14255746Y-11595653D01*
X14264234Y-11672838D01*
X14267285Y-11751903D01*
X14267656Y-11761525D01*
X14266232Y-11854965D01*
G37*
G36*
X21820589Y-11073449D02*
G01*
X21842837Y-11079703D01*
X21851711Y-11101704D01*
X21856422Y-11122070D01*
X21866036Y-11142661D01*
X21874261Y-11149170D01*
X21906282Y-11161173D01*
X21956713Y-11171681D01*
X22022780Y-11180580D01*
X22101707Y-11187756D01*
X22190718Y-11193096D01*
X22287040Y-11196485D01*
X22387897Y-11197810D01*
X22490514Y-11196958D01*
X22592116Y-11193813D01*
X22689928Y-11188263D01*
X22781175Y-11180193D01*
X22840002Y-11172884D01*
X22890843Y-11163306D01*
X22924864Y-11151586D01*
X22945191Y-11136589D01*
X22954951Y-11117182D01*
X22955020Y-11116907D01*
X22966040Y-11095855D01*
X22987076Y-11092492D01*
X22997350Y-11094944D01*
X23009104Y-11107042D01*
X23012110Y-11134396D01*
X23011835Y-11142497D01*
X23005896Y-11167583D01*
X22990543Y-11187998D01*
X22963577Y-11204528D01*
X22922798Y-11217958D01*
X22866008Y-11229074D01*
X22791008Y-11238663D01*
X22695599Y-11247509D01*
X22664154Y-11249857D01*
X22556542Y-11255069D01*
X22439721Y-11257103D01*
X22318973Y-11256110D01*
X22199583Y-11252241D01*
X22086835Y-11245646D01*
X21986013Y-11236477D01*
X21902400Y-11224883D01*
X21852478Y-11212139D01*
X21812800Y-11189527D01*
X21791787Y-11157180D01*
X21787906Y-11113610D01*
X21791044Y-11091230D01*
X21800117Y-11076801D01*
X21819542Y-11073444D01*
X21820589Y-11073449D01*
G37*
G36*
X19649182Y-9643493D02*
G01*
X19649182Y-9485237D01*
X19019536Y-9485237D01*
X19012712Y-9663275D01*
X19011300Y-9695234D01*
X19007444Y-9758274D01*
X19002677Y-9814030D01*
X18997473Y-9857395D01*
X18992305Y-9883264D01*
X18971299Y-9930257D01*
X18926543Y-9984594D01*
X18864787Y-10024883D01*
X18787060Y-10050288D01*
X18778761Y-10051455D01*
X18746154Y-10053665D01*
X18695615Y-10055497D01*
X18630311Y-10056891D01*
X18553410Y-10057790D01*
X18468079Y-10058134D01*
X18377486Y-10057866D01*
X18347806Y-10057671D01*
X18245738Y-10056815D01*
X18162989Y-10055470D01*
X18096944Y-10053191D01*
X18044986Y-10049534D01*
X18004499Y-10044055D01*
X17972867Y-10036308D01*
X17947475Y-10025850D01*
X17925706Y-10012235D01*
X17904944Y-9995019D01*
X17882573Y-9973758D01*
X17859117Y-9946376D01*
X17835417Y-9905123D01*
X17814864Y-9851073D01*
X17796252Y-9780958D01*
X17778375Y-9691508D01*
X17775178Y-9673694D01*
X17766791Y-9627659D01*
X17759830Y-9590379D01*
X17755548Y-9568607D01*
X17754932Y-9565164D01*
X17756613Y-9552963D01*
X17768079Y-9542171D01*
X17793276Y-9530120D01*
X17836152Y-9514145D01*
X17848394Y-9509848D01*
X17886470Y-9497173D01*
X17913846Y-9489128D01*
X17925262Y-9487295D01*
X17927875Y-9498109D01*
X17932950Y-9527045D01*
X17939665Y-9569491D01*
X17947268Y-9620885D01*
X17959689Y-9694633D01*
X17976857Y-9763124D01*
X17997777Y-9813852D01*
X18023561Y-9849408D01*
X18055323Y-9872381D01*
X18055456Y-9872447D01*
X18069364Y-9878282D01*
X18086746Y-9882852D01*
X18110335Y-9886305D01*
X18142864Y-9888788D01*
X18187067Y-9890451D01*
X18245677Y-9891441D01*
X18321427Y-9891906D01*
X18417050Y-9891996D01*
X18476757Y-9891937D01*
X18565491Y-9891513D01*
X18635572Y-9890315D01*
X18689522Y-9887912D01*
X18729862Y-9883877D01*
X18759113Y-9877780D01*
X18779798Y-9869193D01*
X18794438Y-9857686D01*
X18805554Y-9842831D01*
X18815668Y-9824199D01*
X18823479Y-9805649D01*
X18829251Y-9781239D01*
X18832416Y-9748242D01*
X18833399Y-9701995D01*
X18832624Y-9637841D01*
X18829644Y-9490889D01*
X18419876Y-9487922D01*
X18010107Y-9484955D01*
X18010107Y-9326982D01*
X18190971Y-9326982D01*
X19649182Y-9326982D01*
X19649182Y-8953951D01*
X19016160Y-8953951D01*
X19016160Y-9326982D01*
X18835296Y-9326982D01*
X18835296Y-8953951D01*
X18190971Y-8953951D01*
X18190971Y-9326982D01*
X18010107Y-9326982D01*
X18010107Y-8795696D01*
X18190971Y-8795696D01*
X19649182Y-8795696D01*
X19649182Y-8411361D01*
X19016160Y-8411361D01*
X19016160Y-8795696D01*
X18835843Y-8795696D01*
X18832744Y-8606354D01*
X18829644Y-8417013D01*
X18510307Y-8414011D01*
X18190971Y-8411009D01*
X18190971Y-8795696D01*
X18010107Y-8795696D01*
X18010107Y-8253106D01*
X18835296Y-8253106D01*
X18835296Y-7970507D01*
X19016160Y-7970507D01*
X19016160Y-8253106D01*
X19830045Y-8253106D01*
X19830045Y-9643493D01*
X19649182Y-9643493D01*
G37*
G36*
X22222717Y-11941965D02*
G01*
X22224485Y-11945365D01*
X22215181Y-11949501D01*
X22209196Y-11948685D01*
X22207645Y-11941965D01*
X22209301Y-11940612D01*
X22222717Y-11941965D01*
G37*
G36*
X23238858Y-11887923D02*
G01*
X23282982Y-11978114D01*
X23328817Y-12083136D01*
X23375336Y-12200654D01*
X23421515Y-12328331D01*
X23466329Y-12463831D01*
X23473837Y-12487590D01*
X23491170Y-12542362D01*
X23505747Y-12588315D01*
X23516219Y-12621202D01*
X23521239Y-12636776D01*
X23518499Y-12645213D01*
X23500447Y-12648762D01*
X23463572Y-12648080D01*
X23400983Y-12644694D01*
X23373395Y-12565567D01*
X23372142Y-12561981D01*
X23357660Y-12521222D01*
X23345467Y-12488098D01*
X23338089Y-12469483D01*
X23332974Y-12454452D01*
X23327248Y-12425786D01*
X23324009Y-12407847D01*
X23318210Y-12393132D01*
X23313949Y-12392454D01*
X23305640Y-12404502D01*
X23298350Y-12426992D01*
X23294280Y-12452198D01*
X23295632Y-12472392D01*
X23298016Y-12487382D01*
X23288958Y-12486378D01*
X23284528Y-12485238D01*
X23279617Y-12494092D01*
X23278059Y-12519371D01*
X23279489Y-12564090D01*
X23283844Y-12650346D01*
X21525639Y-12650346D01*
X21525639Y-12627071D01*
X21527402Y-12613992D01*
X21534117Y-12609030D01*
X21538902Y-12609029D01*
X21544135Y-12594652D01*
X21545409Y-12566497D01*
X21542947Y-12529943D01*
X21536970Y-12490369D01*
X21527698Y-12453155D01*
X21506588Y-12386497D01*
X21493982Y-12422657D01*
X21493523Y-12424002D01*
X21487099Y-12454291D01*
X21488473Y-12477308D01*
X21490724Y-12487047D01*
X21484360Y-12488872D01*
X21482907Y-12488595D01*
X21473266Y-12499381D01*
X21460144Y-12526657D01*
X21445701Y-12566111D01*
X21418251Y-12650276D01*
X21375100Y-12650311D01*
X21351234Y-12649278D01*
X21337690Y-12643588D01*
X21337662Y-12630565D01*
X21338510Y-12627571D01*
X21344873Y-12604488D01*
X21355509Y-12565487D01*
X21369164Y-12515180D01*
X21384581Y-12458179D01*
X21425009Y-12314466D01*
X21466986Y-12179416D01*
X21507822Y-12063703D01*
X21548141Y-11965691D01*
X21588570Y-11883744D01*
X21629731Y-11816228D01*
X21657794Y-11783137D01*
X21687168Y-11757924D01*
X21982279Y-11757924D01*
X21982726Y-11772332D01*
X21983239Y-11775767D01*
X21991691Y-11804019D01*
X22005956Y-11836386D01*
X22008043Y-11840390D01*
X22020671Y-11861981D01*
X22028198Y-11865543D01*
X22034430Y-11853342D01*
X22039356Y-11842168D01*
X22044364Y-11844287D01*
X22050364Y-11866603D01*
X22050596Y-11867619D01*
X22060979Y-11894107D01*
X22074572Y-11908638D01*
X22081424Y-11910165D01*
X22089586Y-11903781D01*
X22092466Y-11882304D01*
X22090956Y-11842113D01*
X22090850Y-11840413D01*
X22091493Y-11819744D01*
X22095706Y-11815092D01*
X22098176Y-11820504D01*
X22102462Y-11843737D01*
X22105263Y-11877263D01*
X22106419Y-11897355D01*
X22110533Y-11921196D01*
X22120216Y-11932034D01*
X22139071Y-11936140D01*
X22159121Y-11941635D01*
X22163945Y-11950096D01*
X22165020Y-11957912D01*
X22180036Y-11972814D01*
X22204808Y-11988504D01*
X22232587Y-12000915D01*
X22256628Y-12005978D01*
X22272093Y-12008556D01*
X22285399Y-12018857D01*
X22288374Y-12020578D01*
X22295683Y-12009143D01*
X22304455Y-11986404D01*
X22312593Y-11958885D01*
X22318003Y-11933106D01*
X22318304Y-11924067D01*
X22396445Y-11924067D01*
X22403238Y-11933384D01*
X22424304Y-11938197D01*
X22434325Y-11937847D01*
X22449008Y-11932383D01*
X22450542Y-11916469D01*
X22440408Y-11885239D01*
X22428252Y-11853417D01*
X22509084Y-11853417D01*
X22510691Y-11861268D01*
X22523214Y-11870546D01*
X22529899Y-11872437D01*
X22520910Y-11881115D01*
X22518367Y-11882828D01*
X22510300Y-11895843D01*
X22516982Y-11916469D01*
X22517374Y-11917680D01*
X22526408Y-11938116D01*
X22537063Y-11968239D01*
X22540908Y-11978832D01*
X22559631Y-11997261D01*
X22591037Y-11997454D01*
X22600455Y-11992771D01*
X22606924Y-11979515D01*
X22610023Y-11953215D01*
X22610819Y-11909108D01*
X22610789Y-11895136D01*
X22609838Y-11857461D01*
X22607482Y-11842113D01*
X22622123Y-11842113D01*
X22625635Y-11860750D01*
X22636253Y-11870546D01*
X22644078Y-11872232D01*
X22635520Y-11880145D01*
X22635241Y-11880326D01*
X22625437Y-11899513D01*
X22625114Y-11909108D01*
X22624216Y-11935779D01*
X22624465Y-11938939D01*
X22628066Y-11965918D01*
X22634782Y-11975075D01*
X22647557Y-11970835D01*
X22659251Y-11959758D01*
X22668650Y-11934809D01*
X22668843Y-11931516D01*
X22670990Y-11919586D01*
X22675059Y-11929342D01*
X22676311Y-11933614D01*
X22684484Y-11942706D01*
X22702007Y-11935101D01*
X22714351Y-11923266D01*
X22721804Y-11900573D01*
X22723859Y-11862002D01*
X22723899Y-11859069D01*
X22737097Y-11859069D01*
X22738118Y-11874295D01*
X22744022Y-11898857D01*
X22754332Y-11901656D01*
X22768677Y-11882420D01*
X22771651Y-11876497D01*
X22780453Y-11845176D01*
X22775579Y-11822554D01*
X22757852Y-11813853D01*
X22744405Y-11816574D01*
X22737690Y-11829640D01*
X22737097Y-11859069D01*
X22723899Y-11859069D01*
X22724224Y-11834914D01*
X22727257Y-11813168D01*
X22735660Y-11804262D01*
X22752119Y-11802549D01*
X22791683Y-11802549D01*
X22791899Y-11822880D01*
X22792897Y-11845176D01*
X22793063Y-11848894D01*
X22794897Y-11859069D01*
X22795291Y-11858921D01*
X22803593Y-11848361D01*
X22817505Y-11826239D01*
X22826191Y-11809854D01*
X22836358Y-11776832D01*
X22832343Y-11754339D01*
X22814291Y-11746030D01*
X22809061Y-11746271D01*
X22797925Y-11751741D01*
X22797039Y-11754706D01*
X22792873Y-11768649D01*
X22792278Y-11785593D01*
X22791683Y-11802549D01*
X22752119Y-11802549D01*
X22770552Y-11799231D01*
X22780379Y-11785593D01*
X22779007Y-11776823D01*
X22765558Y-11769249D01*
X22737835Y-11779116D01*
X22726160Y-11784806D01*
X22697202Y-11796187D01*
X22689604Y-11799484D01*
X22680364Y-11813571D01*
X22680802Y-11842228D01*
X22680982Y-11843836D01*
X22680671Y-11871563D01*
X22672679Y-11881677D01*
X22664914Y-11872986D01*
X22664928Y-11847765D01*
X22666531Y-11832556D01*
X22662422Y-11817439D01*
X22646014Y-11813853D01*
X22645453Y-11813856D01*
X22627222Y-11820162D01*
X22622123Y-11842113D01*
X22607482Y-11842113D01*
X22606602Y-11836377D01*
X22599816Y-11827178D01*
X22588211Y-11825157D01*
X22573920Y-11828681D01*
X22565603Y-11847098D01*
X22563949Y-11860038D01*
X22555354Y-11875374D01*
X22550276Y-11874383D01*
X22551020Y-11859085D01*
X22551044Y-11858994D01*
X22550591Y-11841242D01*
X22533010Y-11836461D01*
X22518629Y-11839641D01*
X22509084Y-11853417D01*
X22428252Y-11853417D01*
X22427290Y-11855149D01*
X22412549Y-11881677D01*
X22401915Y-11904296D01*
X22396445Y-11924067D01*
X22318304Y-11924067D01*
X22318587Y-11915589D01*
X22317843Y-11907968D01*
X22323207Y-11906940D01*
X22323305Y-11907034D01*
X22333735Y-11904095D01*
X22346889Y-11885866D01*
X22351862Y-11876141D01*
X22360612Y-11855149D01*
X22356796Y-11848188D01*
X22339524Y-11851041D01*
X22325951Y-11852783D01*
X22316916Y-11847990D01*
X22314948Y-11845188D01*
X22297486Y-11837947D01*
X22267831Y-11831667D01*
X22258138Y-11830197D01*
X22219410Y-11824067D01*
X22188703Y-11818859D01*
X22184082Y-11818093D01*
X22163842Y-11819338D01*
X22157534Y-11833414D01*
X22157461Y-11834551D01*
X22154531Y-11840840D01*
X22148546Y-11825157D01*
X22139593Y-11807170D01*
X22118587Y-11796897D01*
X22105479Y-11795432D01*
X22089823Y-11787859D01*
X22085199Y-11784285D01*
X22063393Y-11774244D01*
X22031568Y-11763294D01*
X22007899Y-11756380D01*
X21998808Y-11754735D01*
X22197510Y-11754735D01*
X22198551Y-11755239D01*
X22214909Y-11759470D01*
X22246576Y-11766301D01*
X22287995Y-11774517D01*
X22291210Y-11775126D01*
X22340745Y-11783137D01*
X22387759Y-11788594D01*
X22422472Y-11790347D01*
X22449460Y-11788202D01*
X22494266Y-11781980D01*
X22544322Y-11773283D01*
X22590562Y-11763708D01*
X22623917Y-11754852D01*
X22624124Y-11754706D01*
X22613412Y-11753747D01*
X22583800Y-11752917D01*
X22538525Y-11752263D01*
X22480826Y-11751835D01*
X22413942Y-11751682D01*
X22404965Y-11751684D01*
X22338485Y-11751870D01*
X22281128Y-11752315D01*
X22236266Y-11752973D01*
X22207270Y-11753795D01*
X22197510Y-11754735D01*
X21998808Y-11754735D01*
X21988877Y-11752938D01*
X21982279Y-11757924D01*
X21687168Y-11757924D01*
X21707151Y-11740771D01*
X21764293Y-11703612D01*
X21821239Y-11677447D01*
X21862500Y-11663176D01*
X21776023Y-11618959D01*
X21732138Y-11596160D01*
X21646045Y-11548304D01*
X21573567Y-11502304D01*
X21509341Y-11454301D01*
X21448005Y-11400433D01*
X21384198Y-11336839D01*
X21345292Y-11295520D01*
X21300826Y-11244951D01*
X21265384Y-11198903D01*
X21234324Y-11151201D01*
X21203008Y-11095670D01*
X21178182Y-11049709D01*
X21158119Y-11014737D01*
X21143042Y-10993347D01*
X21129980Y-10982189D01*
X21115968Y-10977911D01*
X21098036Y-10977164D01*
X21069530Y-10975154D01*
X21025698Y-10969169D01*
X20979412Y-10960629D01*
X20924170Y-10945643D01*
X20837572Y-10905316D01*
X20763531Y-10846470D01*
X20700789Y-10768237D01*
X20657074Y-10691312D01*
X20626955Y-10608735D01*
X20615549Y-10525010D01*
X20617072Y-10502594D01*
X20718060Y-10502594D01*
X20718350Y-10539138D01*
X20720387Y-10580863D01*
X20725607Y-10611871D01*
X20735431Y-10639337D01*
X20751280Y-10670439D01*
X20771070Y-10702301D01*
X20824400Y-10764990D01*
X20888163Y-10816983D01*
X20955760Y-10852409D01*
X20981424Y-10860841D01*
X21026331Y-10871470D01*
X21063362Y-10875625D01*
X21063648Y-10875625D01*
X21092278Y-10874185D01*
X21103459Y-10868075D01*
X21102231Y-10854563D01*
X21093230Y-10820837D01*
X21080650Y-10756014D01*
X21068791Y-10674632D01*
X21058150Y-10580246D01*
X21049226Y-10476408D01*
X21044037Y-10405880D01*
X21143484Y-10405880D01*
X21145495Y-10442759D01*
X21149456Y-10491134D01*
X21154898Y-10546439D01*
X21161352Y-10604108D01*
X21168349Y-10659573D01*
X21175420Y-10708269D01*
X21182097Y-10745629D01*
X21213216Y-10868075D01*
X21214153Y-10871760D01*
X21259078Y-10992177D01*
X21317146Y-11100571D01*
X21390902Y-11201631D01*
X21482890Y-11300048D01*
X21560899Y-11368859D01*
X21691921Y-11461097D01*
X21835975Y-11537942D01*
X21989537Y-11597605D01*
X22149081Y-11638297D01*
X22168260Y-11641553D01*
X22217662Y-11647985D01*
X22276117Y-11653786D01*
X22338374Y-11658625D01*
X22399181Y-11662170D01*
X22453286Y-11664091D01*
X22495439Y-11664054D01*
X22520388Y-11661730D01*
X22525823Y-11660620D01*
X22551843Y-11656315D01*
X22591476Y-11650385D01*
X22638553Y-11643768D01*
X22734532Y-11625615D01*
X22860804Y-11588931D01*
X22987816Y-11539308D01*
X23108449Y-11479598D01*
X23215581Y-11412654D01*
X23224335Y-11406296D01*
X23285413Y-11355803D01*
X23351050Y-11292809D01*
X23415474Y-11223472D01*
X23472914Y-11153950D01*
X23517599Y-11090400D01*
X23527822Y-11073465D01*
X23584707Y-10956303D01*
X23611019Y-10875625D01*
X23722255Y-10875625D01*
X23768473Y-10875616D01*
X23787884Y-10874111D01*
X23840554Y-10860353D01*
X23898266Y-10835077D01*
X23953772Y-10801782D01*
X23999827Y-10763965D01*
X24011934Y-10751537D01*
X24051924Y-10702460D01*
X24078209Y-10651624D01*
X24093544Y-10592300D01*
X24100686Y-10517760D01*
X24101825Y-10490554D01*
X24102176Y-10446535D01*
X24098879Y-10413812D01*
X24090848Y-10384790D01*
X24076998Y-10351873D01*
X24054478Y-10310793D01*
X24023711Y-10266637D01*
X23990019Y-10226569D01*
X23957886Y-10195896D01*
X23931793Y-10179926D01*
X23918245Y-10179334D01*
X23893701Y-10190988D01*
X23859612Y-10219059D01*
X23836221Y-10239511D01*
X23821733Y-10250563D01*
X23811906Y-10258060D01*
X23797988Y-10265211D01*
X23797439Y-10265287D01*
X23791658Y-10277622D01*
X23787821Y-10308366D01*
X23786431Y-10353679D01*
X23785915Y-10377380D01*
X23785180Y-10411147D01*
X23779348Y-10505749D01*
X23769609Y-10605264D01*
X23756908Y-10700524D01*
X23742192Y-10782367D01*
X23722255Y-10875625D01*
X23611019Y-10875625D01*
X23628993Y-10820515D01*
X23660638Y-10666257D01*
X23679600Y-10493681D01*
X23687670Y-10377380D01*
X23659386Y-10390267D01*
X23656165Y-10391802D01*
X23639889Y-10404332D01*
X23634888Y-10415796D01*
X23630577Y-10425679D01*
X23624952Y-10462735D01*
X23623657Y-10473522D01*
X23605589Y-10543316D01*
X23573282Y-10601339D01*
X23529043Y-10643248D01*
X23505928Y-10656334D01*
X23467800Y-10671094D01*
X23419938Y-10682442D01*
X23359781Y-10690706D01*
X23284768Y-10696208D01*
X23192339Y-10699275D01*
X23079934Y-10700231D01*
X23021200Y-10700189D01*
X22952998Y-10699816D01*
X22901490Y-10698804D01*
X22863180Y-10696849D01*
X22834572Y-10693649D01*
X22812170Y-10688901D01*
X22792476Y-10682300D01*
X22771995Y-10673546D01*
X22750334Y-10662375D01*
X22708015Y-10634250D01*
X22674451Y-10604457D01*
X22657406Y-10582276D01*
X22632405Y-10539900D01*
X22610196Y-10492399D01*
X22594293Y-10447567D01*
X22588211Y-10413198D01*
X22587556Y-10407326D01*
X22579379Y-10397166D01*
X22558066Y-10390251D01*
X22518886Y-10384631D01*
X22512277Y-10383960D01*
X22464072Y-10381601D01*
X22406399Y-10381797D01*
X22350326Y-10384551D01*
X22251091Y-10392314D01*
X22250905Y-10393315D01*
X22243463Y-10433324D01*
X22225827Y-10498225D01*
X22187368Y-10571728D01*
X22131547Y-10630822D01*
X22058089Y-10675868D01*
X22050132Y-10679454D01*
X22031643Y-10686540D01*
X22011080Y-10691783D01*
X21985020Y-10695458D01*
X21950041Y-10697839D01*
X21902721Y-10699199D01*
X21839638Y-10699813D01*
X21757370Y-10699955D01*
X21709349Y-10699825D01*
X21607593Y-10698322D01*
X21524587Y-10694823D01*
X21457629Y-10688941D01*
X21404021Y-10680288D01*
X21361063Y-10668478D01*
X21326054Y-10653122D01*
X21296295Y-10633836D01*
X21294208Y-10632221D01*
X21249433Y-10583289D01*
X21220527Y-10521198D01*
X21209743Y-10450715D01*
X21207905Y-10424255D01*
X21199207Y-10403966D01*
X21179407Y-10390946D01*
X21157371Y-10382916D01*
X21144799Y-10382292D01*
X21143891Y-10385063D01*
X21143484Y-10405880D01*
X21044037Y-10405880D01*
X21041666Y-10373655D01*
X21245524Y-10373655D01*
X21245748Y-10435943D01*
X21247469Y-10454830D01*
X21261537Y-10519993D01*
X21288651Y-10569910D01*
X21330895Y-10606559D01*
X21390357Y-10631920D01*
X21469119Y-10647972D01*
X21490386Y-10650616D01*
X21560433Y-10657119D01*
X21640127Y-10662035D01*
X21723045Y-10665168D01*
X21802766Y-10666322D01*
X21872868Y-10665301D01*
X21926930Y-10661911D01*
X21967440Y-10656085D01*
X22047483Y-10632419D01*
X22110638Y-10594043D01*
X22157404Y-10540596D01*
X22188273Y-10471719D01*
X22193452Y-10453530D01*
X22204225Y-10393315D01*
X22201621Y-10370184D01*
X22634131Y-10370184D01*
X22636347Y-10425644D01*
X22656151Y-10494656D01*
X22675148Y-10535891D01*
X22713682Y-10586043D01*
X22766042Y-10622762D01*
X22834517Y-10647488D01*
X22921395Y-10661662D01*
X22953574Y-10664575D01*
X23021444Y-10668843D01*
X23086959Y-10669659D01*
X23158348Y-10667004D01*
X23243841Y-10660856D01*
X23340733Y-10651137D01*
X23418453Y-10638613D01*
X23478058Y-10621762D01*
X23521793Y-10598960D01*
X23551904Y-10568586D01*
X23570636Y-10529015D01*
X23580233Y-10478626D01*
X23582942Y-10415796D01*
X23582064Y-10371605D01*
X23577100Y-10332518D01*
X23565505Y-10307170D01*
X23544776Y-10290677D01*
X23512413Y-10278158D01*
X23474007Y-10268710D01*
X23405264Y-10258241D01*
X23322133Y-10250651D01*
X23229214Y-10245942D01*
X23131110Y-10244113D01*
X23032422Y-10245163D01*
X22937751Y-10249094D01*
X22851699Y-10255904D01*
X22778868Y-10265595D01*
X22723859Y-10278165D01*
X22683776Y-10295708D01*
X22649831Y-10327222D01*
X22634131Y-10370184D01*
X22201621Y-10370184D01*
X22199069Y-10347512D01*
X22176476Y-10313485D01*
X22134937Y-10288600D01*
X22072945Y-10270223D01*
X22070334Y-10269656D01*
X22004312Y-10259067D01*
X21922864Y-10251525D01*
X21830725Y-10246974D01*
X21732632Y-10245357D01*
X21633320Y-10246617D01*
X21537524Y-10250697D01*
X21449980Y-10257541D01*
X21375423Y-10267090D01*
X21318590Y-10279289D01*
X21315138Y-10280334D01*
X21278833Y-10298832D01*
X21256090Y-10328945D01*
X21245524Y-10373655D01*
X21041666Y-10373655D01*
X21035241Y-10286314D01*
X21000667Y-10271861D01*
X20971885Y-10256190D01*
X20968969Y-10253765D01*
X21141304Y-10253765D01*
X21141710Y-10280897D01*
X21145018Y-10309276D01*
X21153642Y-10326619D01*
X21169917Y-10339957D01*
X21170431Y-10340293D01*
X21191135Y-10352002D01*
X21201338Y-10354348D01*
X21202407Y-10352391D01*
X21210581Y-10335414D01*
X21223167Y-10308111D01*
X21228209Y-10297892D01*
X21249845Y-10268863D01*
X21281258Y-10247930D01*
X21326709Y-10232888D01*
X21390458Y-10221531D01*
X21454578Y-10213820D01*
X21562936Y-10205218D01*
X21673728Y-10201263D01*
X21783413Y-10201766D01*
X21888446Y-10206536D01*
X21985287Y-10215384D01*
X22070392Y-10228118D01*
X22140219Y-10244550D01*
X22191225Y-10264489D01*
X22191557Y-10264669D01*
X22214059Y-10285002D01*
X22232045Y-10314162D01*
X22246995Y-10349990D01*
X22588217Y-10343206D01*
X22605287Y-10310195D01*
X22612820Y-10297674D01*
X22635303Y-10274121D01*
X22668196Y-10254903D01*
X22713936Y-10239297D01*
X22774961Y-10226576D01*
X22853709Y-10216016D01*
X22952615Y-10206892D01*
X22958523Y-10206440D01*
X23039112Y-10202430D01*
X23127512Y-10201386D01*
X23218664Y-10203075D01*
X23307506Y-10207264D01*
X23388977Y-10213720D01*
X23458016Y-10222211D01*
X23509563Y-10232505D01*
X23523194Y-10236852D01*
X23567696Y-10260422D01*
X23602746Y-10292873D01*
X23621825Y-10328621D01*
X23621862Y-10328771D01*
X23631463Y-10350977D01*
X23645683Y-10352441D01*
X23667349Y-10333466D01*
X23667792Y-10332972D01*
X23675260Y-10322288D01*
X23680351Y-10307450D01*
X23683342Y-10284770D01*
X23684511Y-10250563D01*
X23684138Y-10201142D01*
X23682500Y-10132821D01*
X23681600Y-10101210D01*
X23679457Y-10041250D01*
X23676703Y-9997405D01*
X23672644Y-9965124D01*
X23666581Y-9939859D01*
X23657819Y-9917061D01*
X23645662Y-9892180D01*
X23608292Y-9824193D01*
X23542247Y-9726363D01*
X23470722Y-9648290D01*
X23391697Y-9588255D01*
X23303152Y-9544538D01*
X23203069Y-9515421D01*
X23202551Y-9515313D01*
X23161178Y-9507243D01*
X23136239Y-9504656D01*
X23122280Y-9507591D01*
X23113846Y-9516089D01*
X23095636Y-9542014D01*
X23071991Y-9566616D01*
X23044664Y-9580115D01*
X23005469Y-9587939D01*
X23001350Y-9588501D01*
X22944803Y-9593515D01*
X22872053Y-9596371D01*
X22788872Y-9597144D01*
X22701032Y-9595910D01*
X22614305Y-9592744D01*
X22534461Y-9587720D01*
X22467273Y-9580916D01*
X22368807Y-9565246D01*
X22233168Y-9536063D01*
X22093886Y-9498599D01*
X21957520Y-9454827D01*
X21830635Y-9406719D01*
X21719791Y-9356248D01*
X21700985Y-9346761D01*
X21672077Y-9333057D01*
X21656871Y-9328740D01*
X21650972Y-9333137D01*
X21649983Y-9345578D01*
X21644178Y-9370299D01*
X21628373Y-9408423D01*
X21605477Y-9454259D01*
X21578405Y-9502339D01*
X21550068Y-9547192D01*
X21523379Y-9583347D01*
X21521695Y-9585357D01*
X21486812Y-9622370D01*
X21442904Y-9663121D01*
X21399059Y-9699146D01*
X21389324Y-9706628D01*
X21330072Y-9759227D01*
X21281510Y-9817529D01*
X21241068Y-9885760D01*
X21206179Y-9968145D01*
X21174273Y-10068909D01*
X21171656Y-10078396D01*
X21155707Y-10145154D01*
X21145133Y-10206170D01*
X21141304Y-10253765D01*
X20968969Y-10253765D01*
X20949960Y-10237956D01*
X20930438Y-10220297D01*
X20902110Y-10202102D01*
X20883777Y-10193898D01*
X20868861Y-10194033D01*
X20851617Y-10205478D01*
X20825371Y-10230721D01*
X20808519Y-10249222D01*
X20775747Y-10292282D01*
X20749145Y-10335474D01*
X20740549Y-10352507D01*
X20728636Y-10381503D01*
X20721815Y-10411354D01*
X20718739Y-10449304D01*
X20718060Y-10502594D01*
X20617072Y-10502594D01*
X20621657Y-10435086D01*
X20633426Y-10383678D01*
X20656623Y-10318837D01*
X20686761Y-10255726D01*
X20720486Y-10201232D01*
X20754448Y-10162243D01*
X20762827Y-10154779D01*
X20781926Y-10134657D01*
X20786945Y-10118787D01*
X20780986Y-10099880D01*
X20772110Y-10069365D01*
X20768274Y-10033372D01*
X20766918Y-10016103D01*
X20759175Y-9976444D01*
X20746856Y-9934994D01*
X20743425Y-9925232D01*
X20714476Y-9826869D01*
X20688955Y-9711809D01*
X20667521Y-9585221D01*
X20650837Y-9452275D01*
X20639563Y-9318142D01*
X20634359Y-9187990D01*
X20635888Y-9066991D01*
X20636927Y-9046501D01*
X20650098Y-8910193D01*
X20673297Y-8777904D01*
X20705392Y-8654110D01*
X20745253Y-8543290D01*
X20791749Y-8449919D01*
X20806025Y-8427582D01*
X20854351Y-8364809D01*
X20914822Y-8298904D01*
X20981838Y-8235318D01*
X21049801Y-8179505D01*
X21113113Y-8136918D01*
X21151923Y-8113033D01*
X21198689Y-8077846D01*
X21225520Y-8047351D01*
X21233432Y-8034530D01*
X21287353Y-7966393D01*
X21358923Y-7899210D01*
X21444078Y-7835758D01*
X21538755Y-7778813D01*
X21638888Y-7731153D01*
X21740414Y-7695555D01*
X21806831Y-7679846D01*
X21904837Y-7663890D01*
X22016012Y-7651877D01*
X22135304Y-7644024D01*
X22257658Y-7640552D01*
X22378021Y-7641680D01*
X22491339Y-7647626D01*
X22592558Y-7658610D01*
X22662406Y-7669809D01*
X22879303Y-7718911D01*
X23087027Y-7788537D01*
X23286562Y-7879057D01*
X23478892Y-7990838D01*
X23479512Y-7991240D01*
X23548326Y-8037626D01*
X23609600Y-8083334D01*
X23667543Y-8132125D01*
X23726364Y-8187762D01*
X23790271Y-8254006D01*
X23863474Y-8334619D01*
X23867238Y-8338846D01*
X23936282Y-8415025D01*
X23994015Y-8475592D01*
X24042817Y-8522727D01*
X24085071Y-8558607D01*
X24123159Y-8585411D01*
X24159462Y-8605317D01*
X24175061Y-8613347D01*
X24207902Y-8634109D01*
X24229860Y-8653232D01*
X24246664Y-8687645D01*
X24246496Y-8728661D01*
X24228870Y-8767875D01*
X24195237Y-8799162D01*
X24170620Y-8814503D01*
X24151474Y-8826828D01*
X24147455Y-8832161D01*
X24144386Y-8848474D01*
X24144434Y-8877855D01*
X24147647Y-8923406D01*
X24154075Y-8988227D01*
X24154253Y-8989900D01*
X24160530Y-9062320D01*
X24165723Y-9146714D01*
X24169298Y-9232733D01*
X24170718Y-9310026D01*
X24171034Y-9346269D01*
X24173869Y-9430332D01*
X24179434Y-9498474D01*
X24187496Y-9547409D01*
X24194522Y-9578877D01*
X24201439Y-9616471D01*
X24204275Y-9641536D01*
X24204185Y-9644419D01*
X24193368Y-9672914D01*
X24169577Y-9702069D01*
X24139943Y-9724776D01*
X24111598Y-9733925D01*
X24106665Y-9734113D01*
X24097103Y-9737039D01*
X24088757Y-9746026D01*
X24080337Y-9764261D01*
X24070550Y-9794929D01*
X24058104Y-9841217D01*
X24041709Y-9906310D01*
X24033006Y-9941150D01*
X24018864Y-9997159D01*
X24007012Y-10043336D01*
X23998492Y-10075644D01*
X23994344Y-10090041D01*
X23996939Y-10098290D01*
X24012972Y-10117436D01*
X24039215Y-10140894D01*
X24087697Y-10187610D01*
X24142016Y-10265243D01*
X24182983Y-10357831D01*
X24199808Y-10429103D01*
X24200606Y-10446535D01*
X24204074Y-10522259D01*
X24190851Y-10614973D01*
X24160628Y-10699757D01*
X24119178Y-10771704D01*
X24054943Y-10848611D01*
X23978454Y-10906732D01*
X23888787Y-10946729D01*
X23785019Y-10969266D01*
X23751982Y-10973625D01*
X23714409Y-10979929D01*
X23691703Y-10986840D01*
X23679155Y-10996020D01*
X23672057Y-11009130D01*
X23669307Y-11015972D01*
X23648107Y-11059029D01*
X23617181Y-11112594D01*
X23580249Y-11170757D01*
X23541031Y-11227611D01*
X23503247Y-11277248D01*
X23483310Y-11301254D01*
X23424845Y-11365184D01*
X23362834Y-11422307D01*
X23292817Y-11476158D01*
X23210333Y-11530271D01*
X23110923Y-11588182D01*
X22994962Y-11652851D01*
X23056939Y-11683173D01*
X23082466Y-11697466D01*
X23124156Y-11727075D01*
X23156348Y-11757227D01*
X23159838Y-11761385D01*
X23170699Y-11776832D01*
X23197468Y-11814902D01*
X23238858Y-11887923D01*
G37*
G36*
X10790318Y-11336251D02*
G01*
X10891392Y-11342650D01*
X10979996Y-11357593D01*
X11062520Y-11382388D01*
X11145358Y-11418341D01*
X11223388Y-11463257D01*
X11310901Y-11534759D01*
X11380656Y-11620157D01*
X11432721Y-11719559D01*
X11467161Y-11833073D01*
X11484045Y-11960805D01*
X11485451Y-12042954D01*
X11472141Y-12168411D01*
X11439950Y-12281885D01*
X11389459Y-12382683D01*
X11321253Y-12470116D01*
X11235917Y-12543492D01*
X11134033Y-12602119D01*
X11016186Y-12645306D01*
X10882960Y-12672363D01*
X10787440Y-12679449D01*
X10673036Y-12676241D01*
X10557471Y-12662227D01*
X10448181Y-12638344D01*
X10352603Y-12605529D01*
X10300806Y-12583326D01*
X10300806Y-12413365D01*
X10300837Y-12366528D01*
X10301234Y-12314881D01*
X10302503Y-12280173D01*
X10305152Y-12259037D01*
X10309689Y-12248108D01*
X10316623Y-12244019D01*
X10326462Y-12243404D01*
X10327836Y-12243468D01*
X10350450Y-12251228D01*
X10383280Y-12269407D01*
X10419720Y-12294392D01*
X10429806Y-12301771D01*
X10506562Y-12345671D01*
X10590099Y-12375089D01*
X10676443Y-12389964D01*
X10761623Y-12390236D01*
X10841669Y-12375844D01*
X10912608Y-12346726D01*
X10970469Y-12302822D01*
X10974913Y-12298211D01*
X11011284Y-12254571D01*
X11036724Y-12209181D01*
X11052870Y-12156932D01*
X11061358Y-12092719D01*
X11063823Y-12011435D01*
X11063694Y-11967801D01*
X11062557Y-11921828D01*
X11059342Y-11888098D01*
X11052983Y-11860563D01*
X11042416Y-11833176D01*
X11026575Y-11799888D01*
X10997583Y-11749242D01*
X10947774Y-11691420D01*
X10887169Y-11651783D01*
X10813491Y-11628986D01*
X10724460Y-11621686D01*
X10668828Y-11625580D01*
X10587254Y-11643254D01*
X10508532Y-11672850D01*
X10439118Y-11711781D01*
X10385469Y-11757463D01*
X10364394Y-11772130D01*
X10332966Y-11779941D01*
X10300806Y-11779941D01*
X10300806Y-11431143D01*
X10365804Y-11406676D01*
X10398998Y-11394490D01*
X10486305Y-11366558D01*
X10566572Y-11348587D01*
X10648717Y-11338895D01*
X10741660Y-11335800D01*
X10790318Y-11336251D01*
G37*
G36*
X22563780Y-11908492D02*
G01*
X22565603Y-11926893D01*
X22563685Y-11940024D01*
X22555358Y-11949501D01*
X22550390Y-11944918D01*
X22551024Y-11926893D01*
X22555332Y-11913605D01*
X22561270Y-11904285D01*
X22563780Y-11908492D01*
G37*
G36*
X17422301Y-8241802D02*
G01*
X16710152Y-8241802D01*
X16681956Y-8241808D01*
X16558748Y-8241996D01*
X16442895Y-8242425D01*
X16336304Y-8243072D01*
X16240880Y-8243916D01*
X16158531Y-8244933D01*
X16091164Y-8246100D01*
X16040684Y-8247396D01*
X16008999Y-8248797D01*
X15998015Y-8250280D01*
X16004153Y-8256421D01*
X16026605Y-8274667D01*
X16063547Y-8303287D01*
X16112894Y-8340700D01*
X16172563Y-8385329D01*
X16240469Y-8435595D01*
X16314526Y-8489922D01*
X16631024Y-8721085D01*
X16631024Y-8953951D01*
X17659684Y-8953951D01*
X17659684Y-9112207D01*
X16631024Y-9112207D01*
X16631024Y-9474495D01*
X16631026Y-9493835D01*
X16631192Y-9597613D01*
X16631897Y-9681539D01*
X16633512Y-9747977D01*
X16636411Y-9799290D01*
X16640967Y-9837842D01*
X16647553Y-9865995D01*
X16656542Y-9886114D01*
X16668308Y-9900561D01*
X16683224Y-9911701D01*
X16701662Y-9921895D01*
X16712378Y-9926817D01*
X16731580Y-9932459D01*
X16757264Y-9935780D01*
X16793452Y-9937013D01*
X16844164Y-9936390D01*
X16913420Y-9934144D01*
X16946593Y-9932798D01*
X17005163Y-9929861D01*
X17054248Y-9926682D01*
X17089478Y-9923562D01*
X17106482Y-9920803D01*
X17112029Y-9919352D01*
X17117531Y-9922935D01*
X17118936Y-9937205D01*
X17116394Y-9966038D01*
X17110052Y-10013307D01*
X17107112Y-10034019D01*
X17101256Y-10075056D01*
X17097042Y-10104293D01*
X17095231Y-10116438D01*
X17094601Y-10116701D01*
X17078963Y-10117573D01*
X17044865Y-10117984D01*
X16995684Y-10117931D01*
X16934798Y-10117416D01*
X16865581Y-10116438D01*
X16850307Y-10116179D01*
X16775408Y-10114698D01*
X16718822Y-10112930D01*
X16676894Y-10110480D01*
X16645969Y-10106957D01*
X16622395Y-10101968D01*
X16602515Y-10095118D01*
X16582675Y-10086016D01*
X16547589Y-10065142D01*
X16496719Y-10015292D01*
X16460727Y-9948700D01*
X16460519Y-9948146D01*
X16456103Y-9929876D01*
X16452383Y-9899889D01*
X16449279Y-9856369D01*
X16446713Y-9797503D01*
X16444603Y-9721474D01*
X16442871Y-9626469D01*
X16441435Y-9510671D01*
X16437306Y-9112207D01*
X15466716Y-9112207D01*
X15466716Y-8953951D01*
X16438857Y-8953951D01*
X16438857Y-8798153D01*
X16071478Y-8528578D01*
X15704099Y-8259004D01*
X15704099Y-8083546D01*
X17422301Y-8083546D01*
X17422301Y-8241802D01*
G37*
%TD*%
%LPC*%
D15*
%TO.C,Hole3*%
X43740000Y-18180000D03*
%TD*%
%TO.C,Hole1*%
X-770000Y-2360000D03*
%TD*%
D16*
%TO.C,J3*%
X-1210000Y-6520000D03*
D17*
X-1210000Y-9060000D03*
X-1210000Y-11600000D03*
X-1210000Y-14140000D03*
%TD*%
D18*
%TO.C,USB1*%
X39960000Y-14600000D03*
X39960000Y-5960000D03*
X43760000Y-14600000D03*
X43760000Y-5960000D03*
%TD*%
D15*
%TO.C,Hole2*%
X-740000Y-18170000D03*
%TD*%
%TO.C,Hole4*%
X43740000Y-2360000D03*
%TD*%
D16*
%TO.C,J2*%
X34680000Y-19050000D03*
D17*
X32140000Y-19050000D03*
X29600000Y-19050000D03*
X27060000Y-19050000D03*
X24520000Y-19050000D03*
X21980000Y-19050000D03*
X19440000Y-19050000D03*
X16900000Y-19050000D03*
X14360000Y-19050000D03*
X11820000Y-19050000D03*
X9280000Y-19050000D03*
X6740000Y-19050000D03*
X4200000Y-19050000D03*
X1660000Y-19050000D03*
%TD*%
D19*
%TO.C,U2*%
X30915000Y-13760000D03*
X29645000Y-13760000D03*
X28375000Y-13760000D03*
X27105000Y-13760000D03*
X27105000Y-6700000D03*
X28375000Y-6700000D03*
X29645000Y-6700000D03*
X30915000Y-6700000D03*
%TD*%
D20*
%TO.C,C3*%
X32630000Y-10680000D03*
X32630000Y-9720000D03*
%TD*%
D16*
%TO.C,J1*%
X34690000Y-1490000D03*
D17*
X32150000Y-1490000D03*
X29610000Y-1490000D03*
X27070000Y-1490000D03*
X24530000Y-1490000D03*
X21990000Y-1490000D03*
X19450000Y-1490000D03*
X16910000Y-1490000D03*
X14370000Y-1490000D03*
X11830000Y-1490000D03*
X9290000Y-1490000D03*
X6750000Y-1490000D03*
X4210000Y-1490000D03*
X1670000Y-1490000D03*
%TD*%
M02*
