%TF.GenerationSoftware,KiCad,Pcbnew,(6.0.7)*%
%TF.CreationDate,2022-10-08T18:54:48+08:00*%
%TF.ProjectId,UINIO-MCU-STM32L051K8,55494e49-4f2d-44d4-9355-2d53544d3332,rev?*%
%TF.SameCoordinates,Original*%
%TF.FileFunction,Copper,L1,Top*%
%TF.FilePolarity,Positive*%
%FSLAX46Y46*%
G04 Gerber Fmt 4.6, Leading zero omitted, Abs format (unit mm)*
G04 Created by KiCad (PCBNEW (6.0.7)) date 2022-10-08 18:54:48*
%MOMM*%
%LPD*%
G01*
G04 APERTURE LIST*
G04 Aperture macros list*
%AMRoundRect*
0 Rectangle with rounded corners*
0 $1 Rounding radius*
0 $2 $3 $4 $5 $6 $7 $8 $9 X,Y pos of 4 corners*
0 Add a 4 corners polygon primitive as box body*
4,1,4,$2,$3,$4,$5,$6,$7,$8,$9,$2,$3,0*
0 Add four circle primitives for the rounded corners*
1,1,$1+$1,$2,$3*
1,1,$1+$1,$4,$5*
1,1,$1+$1,$6,$7*
1,1,$1+$1,$8,$9*
0 Add four rect primitives between the rounded corners*
20,1,$1+$1,$2,$3,$4,$5,0*
20,1,$1+$1,$4,$5,$6,$7,0*
20,1,$1+$1,$6,$7,$8,$9,0*
20,1,$1+$1,$8,$9,$2,$3,0*%
%AMRotRect*
0 Rectangle, with rotation*
0 The origin of the aperture is its center*
0 $1 length*
0 $2 width*
0 $3 Rotation angle, in degrees counterclockwise*
0 Add horizontal line*
21,1,$1,$2,0,0,$3*%
G04 Aperture macros list end*
%TA.AperFunction,SMDPad,CuDef*%
%ADD10RoundRect,0.135000X-0.185000X0.135000X-0.185000X-0.135000X0.185000X-0.135000X0.185000X0.135000X0*%
%TD*%
%TA.AperFunction,SMDPad,CuDef*%
%ADD11RoundRect,0.140000X-0.170000X0.140000X-0.170000X-0.140000X0.170000X-0.140000X0.170000X0.140000X0*%
%TD*%
%TA.AperFunction,SMDPad,CuDef*%
%ADD12RoundRect,0.250000X-0.625000X0.375000X-0.625000X-0.375000X0.625000X-0.375000X0.625000X0.375000X0*%
%TD*%
%TA.AperFunction,SMDPad,CuDef*%
%ADD13RoundRect,0.140000X0.170000X-0.140000X0.170000X0.140000X-0.170000X0.140000X-0.170000X-0.140000X0*%
%TD*%
%TA.AperFunction,SMDPad,CuDef*%
%ADD14RotRect,0.600000X0.300000X225.000000*%
%TD*%
%TA.AperFunction,SMDPad,CuDef*%
%ADD15RotRect,0.600000X0.300000X315.000000*%
%TD*%
%TA.AperFunction,SMDPad,CuDef*%
%ADD16RotRect,0.600000X0.300000X45.000000*%
%TD*%
%TA.AperFunction,SMDPad,CuDef*%
%ADD17RotRect,0.600000X0.300000X135.000000*%
%TD*%
%TA.AperFunction,SMDPad,CuDef*%
%ADD18RotRect,3.450000X3.450000X135.000000*%
%TD*%
%TA.AperFunction,SMDPad,CuDef*%
%ADD19RoundRect,0.135000X0.135000X0.185000X-0.135000X0.185000X-0.135000X-0.185000X0.135000X-0.185000X0*%
%TD*%
%TA.AperFunction,ComponentPad*%
%ADD20R,1.700000X1.700000*%
%TD*%
%TA.AperFunction,ComponentPad*%
%ADD21O,1.700000X1.700000*%
%TD*%
%TA.AperFunction,ComponentPad*%
%ADD22O,1.000000X1.800000*%
%TD*%
%TA.AperFunction,SMDPad,CuDef*%
%ADD23R,0.700000X1.400000*%
%TD*%
%TA.AperFunction,SMDPad,CuDef*%
%ADD24R,0.800000X1.400000*%
%TD*%
%TA.AperFunction,SMDPad,CuDef*%
%ADD25R,1.500000X1.500000*%
%TD*%
%TA.AperFunction,SMDPad,CuDef*%
%ADD26RoundRect,0.218750X0.256250X-0.218750X0.256250X0.218750X-0.256250X0.218750X-0.256250X-0.218750X0*%
%TD*%
%TA.AperFunction,SMDPad,CuDef*%
%ADD27RoundRect,0.140000X-0.140000X-0.170000X0.140000X-0.170000X0.140000X0.170000X-0.140000X0.170000X0*%
%TD*%
%TA.AperFunction,SMDPad,CuDef*%
%ADD28RoundRect,0.140000X0.140000X0.170000X-0.140000X0.170000X-0.140000X-0.170000X0.140000X-0.170000X0*%
%TD*%
%TA.AperFunction,SMDPad,CuDef*%
%ADD29R,1.200000X1.400000*%
%TD*%
%TA.AperFunction,SMDPad,CuDef*%
%ADD30R,0.600000X1.000000*%
%TD*%
%TA.AperFunction,ViaPad*%
%ADD31C,1.500000*%
%TD*%
%TA.AperFunction,ViaPad*%
%ADD32C,0.900000*%
%TD*%
%TA.AperFunction,ViaPad*%
%ADD33C,0.500000*%
%TD*%
%TA.AperFunction,ViaPad*%
%ADD34C,0.700000*%
%TD*%
%TA.AperFunction,Conductor*%
%ADD35C,0.300000*%
%TD*%
%TA.AperFunction,Conductor*%
%ADD36C,0.500000*%
%TD*%
%TA.AperFunction,Conductor*%
%ADD37C,0.400000*%
%TD*%
%TA.AperFunction,Conductor*%
%ADD38C,0.200000*%
%TD*%
G04 APERTURE END LIST*
D10*
%TO.P,R3,1*%
%TO.N,/VDD_3.3V*%
X157610000Y-95730000D03*
%TO.P,R3,2*%
%TO.N,/NRST*%
X157610000Y-96750000D03*
%TD*%
D11*
%TO.P,C5,1*%
%TO.N,GND*%
X155490000Y-102950000D03*
%TO.P,C5,2*%
%TO.N,/BOOT0*%
X155490000Y-103910000D03*
%TD*%
D12*
%TO.P,F1,1*%
%TO.N,Net-(F1-Pad1)*%
X163240000Y-87900000D03*
%TO.P,F1,2*%
%TO.N,/VDD_5V*%
X163240000Y-90700000D03*
%TD*%
D13*
%TO.P,C4,1*%
%TO.N,/VDD_3.3V*%
X151968606Y-116422853D03*
%TO.P,C4,2*%
%TO.N,GND*%
X151968606Y-115462853D03*
%TD*%
D14*
%TO.P,U3,1,VDD*%
%TO.N,/VDD_3.3V*%
X159574819Y-115384239D03*
%TO.P,U3,2,PC14-OSC_IN*%
%TO.N,Net-(C10-Pad2)*%
X159221266Y-115030685D03*
%TO.P,U3,3,PC15-OSC_OUT*%
%TO.N,Net-(C11-Pad2)*%
X158867712Y-114677132D03*
%TO.P,U3,4,NRST*%
%TO.N,/NRST*%
X158514159Y-114323578D03*
%TO.P,U3,5,VDDA*%
%TO.N,/VDD_3.3V*%
X158160606Y-113970025D03*
%TO.P,U3,6,PA0*%
%TO.N,/PA0*%
X157807052Y-113616472D03*
%TO.P,U3,7,PA1*%
%TO.N,/PA1*%
X157453499Y-113262918D03*
%TO.P,U3,8,PA2*%
%TO.N,/PA2*%
X157099945Y-112909365D03*
D15*
%TO.P,U3,9,PA3*%
%TO.N,/PA3*%
X155982717Y-112909365D03*
%TO.P,U3,10,PA4*%
%TO.N,/PA4{slash}CS*%
X155629163Y-113262918D03*
%TO.P,U3,11,PA5*%
%TO.N,/PA5{slash}SCLK*%
X155275610Y-113616472D03*
%TO.P,U3,12,PA6*%
%TO.N,/PA6{slash}MISO*%
X154922056Y-113970025D03*
%TO.P,U3,13,PA7*%
%TO.N,/PA7{slash}MOSI*%
X154568503Y-114323578D03*
%TO.P,U3,14,PB0*%
%TO.N,/PB0*%
X154214950Y-114677132D03*
%TO.P,U3,15,PB1*%
%TO.N,/PB1*%
X153861396Y-115030685D03*
%TO.P,U3,16,PB2*%
%TO.N,/PB2*%
X153507843Y-115384239D03*
D16*
%TO.P,U3,17,VDD*%
%TO.N,/VDD_3.3V*%
X153507843Y-116501467D03*
%TO.P,U3,18,PA8*%
%TO.N,/PA8*%
X153861396Y-116855021D03*
%TO.P,U3,19,PA9*%
%TO.N,/PA9*%
X154214950Y-117208574D03*
%TO.P,U3,20,PA10*%
%TO.N,/PA10*%
X154568503Y-117562128D03*
%TO.P,U3,21,PA11*%
%TO.N,/PA11*%
X154922056Y-117915681D03*
%TO.P,U3,22,PA12*%
%TO.N,/PA12*%
X155275610Y-118269234D03*
%TO.P,U3,23,PA13*%
%TO.N,/PA13{slash}SWDIO*%
X155629163Y-118622788D03*
%TO.P,U3,24,PA14*%
%TO.N,/PA14{slash}SWCLK*%
X155982717Y-118976341D03*
D17*
%TO.P,U3,25,PA15*%
%TO.N,/PA15*%
X157099945Y-118976341D03*
%TO.P,U3,26,PB3*%
%TO.N,/PB3*%
X157453499Y-118622788D03*
%TO.P,U3,27,PB4*%
%TO.N,/PB4*%
X157807052Y-118269234D03*
%TO.P,U3,28,PB5*%
%TO.N,/PB5*%
X158160606Y-117915681D03*
%TO.P,U3,29,PB6*%
%TO.N,/PB6*%
X158514159Y-117562128D03*
%TO.P,U3,30,PB7*%
%TO.N,/PB7*%
X158867712Y-117208574D03*
%TO.P,U3,31,BOOT0*%
%TO.N,/BOOT0*%
X159221266Y-116855021D03*
%TO.P,U3,32,PB8*%
%TO.N,/PB8*%
X159574819Y-116501467D03*
D18*
%TO.P,U3,33,PAD*%
%TO.N,GND*%
X156541331Y-115942853D03*
%TD*%
D19*
%TO.P,R1,1*%
%TO.N,Net-(D1-Pad2)*%
X165980000Y-87500000D03*
%TO.P,R1,2*%
%TO.N,/VDD_5V*%
X164960000Y-87500000D03*
%TD*%
D20*
%TO.P,J3,1,Pin_1*%
%TO.N,/PA13{slash}SWDIO*%
X160460000Y-129310000D03*
D21*
%TO.P,J3,2,Pin_2*%
%TO.N,GND*%
X157920000Y-129310000D03*
%TO.P,J3,3,Pin_3*%
%TO.N,/PA14{slash}SWCLK*%
X155380000Y-129310000D03*
%TO.P,J3,4,Pin_4*%
%TO.N,/VDD_3.3V*%
X152840000Y-129310000D03*
%TD*%
D11*
%TO.P,C8,1*%
%TO.N,GND*%
X155140000Y-110170000D03*
%TO.P,C8,2*%
%TO.N,/VDD_3.3V*%
X155140000Y-111130000D03*
%TD*%
D13*
%TO.P,C7,1*%
%TO.N,GND*%
X161228606Y-116412853D03*
%TO.P,C7,2*%
%TO.N,/VDD_3.3V*%
X161228606Y-115452853D03*
%TD*%
D22*
%TO.P,USB1,1,GND*%
%TO.N,GND*%
X160960000Y-89270000D03*
%TO.P,USB1,2,GND*%
X152320000Y-89270000D03*
%TO.P,USB1,3,GND*%
X160960000Y-85470000D03*
%TO.P,USB1,4,GND*%
X152320000Y-85470000D03*
D23*
%TO.P,USB1,A5,CC1*%
%TO.N,unconnected-(USB1-PadA5)*%
X157140000Y-90270000D03*
%TO.P,USB1,A9,VBUS*%
%TO.N,Net-(F1-Pad1)*%
X155120000Y-90270000D03*
D24*
%TO.P,USB1,A12,GND*%
%TO.N,GND*%
X153890000Y-90270000D03*
D23*
%TO.P,USB1,B5,CC2*%
%TO.N,unconnected-(USB1-PadB5)*%
X156140000Y-90270000D03*
%TO.P,USB1,B9,VBUS*%
%TO.N,Net-(F1-Pad1)*%
X158160000Y-90270000D03*
D24*
%TO.P,USB1,B12,GND*%
%TO.N,GND*%
X159390000Y-90270000D03*
%TD*%
D13*
%TO.P,C9,1*%
%TO.N,/NRST*%
X157620000Y-103920000D03*
%TO.P,C9,2*%
%TO.N,GND*%
X157620000Y-102960000D03*
%TD*%
D25*
%TO.P,SW2,1,1*%
%TO.N,GND*%
X159960000Y-96170000D03*
%TO.P,SW2,2,2*%
%TO.N,/NRST*%
X159960000Y-103570000D03*
%TD*%
D10*
%TO.P,R2,1*%
%TO.N,GND*%
X155530000Y-95720000D03*
%TO.P,R2,2*%
%TO.N,/BOOT0*%
X155530000Y-96740000D03*
%TD*%
D26*
%TO.P,D1,1,K*%
%TO.N,GND*%
X165490000Y-90242500D03*
%TO.P,D1,2,A*%
%TO.N,Net-(D1-Pad2)*%
X165490000Y-88667500D03*
%TD*%
D27*
%TO.P,C2,1,1*%
%TO.N,GND*%
X148760000Y-91320000D03*
%TO.P,C2,2,2*%
%TO.N,/VDD_3.3V*%
X149720000Y-91320000D03*
%TD*%
D11*
%TO.P,C6,1*%
%TO.N,GND*%
X156060000Y-110170000D03*
%TO.P,C6,2*%
%TO.N,/VDD_3.3V*%
X156060000Y-111130000D03*
%TD*%
D28*
%TO.P,C11,1*%
%TO.N,GND*%
X159160000Y-106810000D03*
%TO.P,C11,2*%
%TO.N,Net-(C11-Pad2)*%
X158200000Y-106810000D03*
%TD*%
D29*
%TO.P,Y1,1,1*%
%TO.N,Net-(C11-Pad2)*%
X158700000Y-108390000D03*
%TO.P,Y1,2,2*%
%TO.N,GND*%
X158700000Y-110590000D03*
%TO.P,Y1,3,3*%
%TO.N,Net-(C10-Pad2)*%
X160400000Y-110590000D03*
%TO.P,Y1,4,4*%
%TO.N,GND*%
X160400000Y-108390000D03*
%TD*%
D27*
%TO.P,C10,1*%
%TO.N,GND*%
X160020000Y-106810000D03*
%TO.P,C10,2*%
%TO.N,Net-(C10-Pad2)*%
X160980000Y-106810000D03*
%TD*%
%TO.P,C1,1,1*%
%TO.N,GND*%
X148760000Y-86370000D03*
%TO.P,C1,2,2*%
%TO.N,/VDD_5V*%
X149720000Y-86370000D03*
%TD*%
D25*
%TO.P,SW1,1,1*%
%TO.N,/VDD_3.3V*%
X153200000Y-96150000D03*
%TO.P,SW1,2,2*%
%TO.N,/BOOT0*%
X153200000Y-103550000D03*
%TD*%
D30*
%TO.P,U1,1,Vin*%
%TO.N,/VDD_5V*%
X149706000Y-87542000D03*
%TO.P,U1,2,Vss*%
%TO.N,GND*%
X148756000Y-87542000D03*
%TO.P,U1,3,CE*%
%TO.N,/VDD_5V*%
X147806000Y-87542000D03*
%TO.P,U1,4,NC*%
%TO.N,unconnected-(U1-Pad4)*%
X147806000Y-90142000D03*
%TO.P,U1,5,Vout*%
%TO.N,/VDD_3.3V*%
X149706000Y-90142000D03*
%TD*%
D20*
%TO.P,J2,1,Pin_1*%
%TO.N,/VDD_5V*%
X165480000Y-93720000D03*
D21*
%TO.P,J2,2,Pin_2*%
%TO.N,GND*%
X165480000Y-96260000D03*
%TO.P,J2,3,Pin_3*%
%TO.N,/VDD_3.3V*%
X165480000Y-98800000D03*
%TO.P,J2,4,Pin_4*%
%TO.N,GND*%
X165480000Y-101340000D03*
%TO.P,J2,5,Pin_5*%
%TO.N,/NRST*%
X165480000Y-103880000D03*
%TO.P,J2,6,Pin_6*%
%TO.N,/PB8*%
X165480000Y-106420000D03*
%TO.P,J2,7,Pin_7*%
%TO.N,/PB7*%
X165480000Y-108960000D03*
%TO.P,J2,8,Pin_8*%
%TO.N,/PB6*%
X165480000Y-111500000D03*
%TO.P,J2,9,Pin_9*%
%TO.N,/PB5*%
X165480000Y-114040000D03*
%TO.P,J2,10,Pin_10*%
%TO.N,/PB4*%
X165480000Y-116580000D03*
%TO.P,J2,11,Pin_11*%
%TO.N,/PB3*%
X165480000Y-119120000D03*
%TO.P,J2,12,Pin_12*%
%TO.N,/PB2*%
X165480000Y-121660000D03*
%TO.P,J2,13,Pin_13*%
%TO.N,/PB1*%
X165480000Y-124200000D03*
%TO.P,J2,14,Pin_14*%
%TO.N,/PB0*%
X165480000Y-126740000D03*
%TD*%
D20*
%TO.P,J1,1,Pin_1*%
%TO.N,/PA0*%
X147770000Y-93690000D03*
D21*
%TO.P,J1,2,Pin_2*%
%TO.N,/PA1*%
X147770000Y-96230000D03*
%TO.P,J1,3,Pin_3*%
%TO.N,/PA2*%
X147770000Y-98770000D03*
%TO.P,J1,4,Pin_4*%
%TO.N,/PA3*%
X147770000Y-101310000D03*
%TO.P,J1,5,Pin_5*%
%TO.N,/PA4{slash}CS*%
X147770000Y-103850000D03*
%TO.P,J1,6,Pin_6*%
%TO.N,/PA5{slash}SCLK*%
X147770000Y-106390000D03*
%TO.P,J1,7,Pin_7*%
%TO.N,/PA6{slash}MISO*%
X147770000Y-108930000D03*
%TO.P,J1,8,Pin_8*%
%TO.N,/PA7{slash}MOSI*%
X147770000Y-111470000D03*
%TO.P,J1,9,Pin_9*%
%TO.N,/PA8*%
X147770000Y-114010000D03*
%TO.P,J1,10,Pin_10*%
%TO.N,/PA9*%
X147770000Y-116550000D03*
%TO.P,J1,11,Pin_11*%
%TO.N,/PA10*%
X147770000Y-119090000D03*
%TO.P,J1,12,Pin_12*%
%TO.N,/PA11*%
X147770000Y-121630000D03*
%TO.P,J1,13,Pin_13*%
%TO.N,/PA12*%
X147770000Y-124170000D03*
%TO.P,J1,14,Pin_14*%
%TO.N,/PA15*%
X147770000Y-126710000D03*
%TD*%
D31*
%TO.N,GND*%
X164230000Y-84540000D03*
D32*
X150450000Y-114970000D03*
D31*
X149100000Y-84500000D03*
D32*
X156550000Y-97770000D03*
X154430000Y-108850000D03*
D31*
X148870000Y-129480000D03*
D33*
X156040000Y-115460000D03*
X156480000Y-115880000D03*
X157370000Y-116770000D03*
X156910000Y-116360000D03*
D32*
X162340000Y-115060000D03*
D33*
X155610000Y-115010000D03*
D31*
X164410000Y-129510000D03*
D32*
%TO.N,/VDD_3.3V*%
X154432000Y-94488000D03*
X150590000Y-116420500D03*
D34*
X151329500Y-108285048D03*
D33*
%TO.N,/BOOT0*%
X160260000Y-117342353D03*
X151960000Y-103900000D03*
%TO.N,/NRST*%
X159219500Y-113550000D03*
X161420000Y-103920000D03*
D34*
%TO.N,Net-(C11-Pad2)*%
X159700000Y-112650000D03*
X156590000Y-108540000D03*
D33*
%TO.N,/PA4{slash}CS*%
X154270000Y-106360000D03*
X152360000Y-108270000D03*
X152359977Y-112170500D03*
%TO.N,/PA13{slash}SWDIO*%
X154560000Y-119730000D03*
%TO.N,/PA14{slash}SWCLK*%
X155380000Y-122530000D03*
%TO.N,/PB0*%
X153450000Y-114190000D03*
%TO.N,/PB1*%
X152690000Y-114190000D03*
%TO.N,/PB2*%
X151940000Y-114180000D03*
%TD*%
D35*
%TO.N,GND*%
X156550000Y-97770000D02*
X156550000Y-102870000D01*
X148356000Y-86792000D02*
X147378000Y-86792000D01*
D36*
X160390000Y-89270000D02*
X159390000Y-90270000D01*
X166600000Y-86910000D02*
X166600000Y-89132500D01*
X160960000Y-89270000D02*
X160390000Y-89270000D01*
D35*
X154430000Y-108770000D02*
X157270000Y-105930000D01*
X159160000Y-106810000D02*
X160020000Y-106810000D01*
D36*
X164230000Y-86710000D02*
X164270000Y-86750000D01*
D35*
X156570000Y-102950000D02*
X155490000Y-102950000D01*
D36*
X160980000Y-86750000D02*
X160980000Y-89250000D01*
D35*
X159950000Y-106880000D02*
X159950000Y-107940000D01*
X156550000Y-102870000D02*
X156600000Y-102920000D01*
D36*
X163300000Y-85470000D02*
X164230000Y-84540000D01*
D35*
X154430000Y-108850000D02*
X154430000Y-108770000D01*
X156600000Y-102920000D02*
X156630000Y-102950000D01*
X157270000Y-105930000D02*
X158780000Y-105930000D01*
X146920000Y-87250000D02*
X146920000Y-90790000D01*
D36*
X150070000Y-85470000D02*
X149100000Y-84500000D01*
D35*
X155530000Y-95720000D02*
X156550000Y-96740000D01*
D36*
X152320000Y-85470000D02*
X150070000Y-85470000D01*
D35*
X162280000Y-115670000D02*
X162340000Y-115610000D01*
X150720000Y-127630000D02*
X156220000Y-127630000D01*
D36*
X166440000Y-86750000D02*
X166600000Y-86910000D01*
D35*
X151968606Y-115462853D02*
X150942853Y-115462853D01*
X150942853Y-115462853D02*
X150450000Y-114970000D01*
X159590000Y-127640000D02*
X162540000Y-127640000D01*
X156220000Y-127630000D02*
X157900000Y-129310000D01*
X146920000Y-90790000D02*
X147450000Y-91320000D01*
X156550000Y-96740000D02*
X156550000Y-97770000D01*
D36*
X164270000Y-86750000D02*
X164340000Y-86750000D01*
X160980000Y-85490000D02*
X160980000Y-86750000D01*
X160980000Y-86750000D02*
X164340000Y-86750000D01*
D35*
X156600000Y-102920000D02*
X156570000Y-102950000D01*
X161537147Y-116412853D02*
X162280000Y-115670000D01*
X147450000Y-91320000D02*
X148760000Y-91320000D01*
X162540000Y-127640000D02*
X164410000Y-129510000D01*
D36*
X152320000Y-85470000D02*
X160960000Y-85470000D01*
D35*
X147378000Y-86792000D02*
X146920000Y-87250000D01*
X148870000Y-129480000D02*
X150720000Y-127630000D01*
X156630000Y-102950000D02*
X157610000Y-102950000D01*
X161228606Y-116412853D02*
X161537147Y-116412853D01*
X157920000Y-129310000D02*
X159590000Y-127640000D01*
D36*
X152320000Y-89270000D02*
X152320000Y-85470000D01*
X160960000Y-85470000D02*
X163300000Y-85470000D01*
D35*
X158700000Y-110350000D02*
X160400000Y-108650000D01*
X159160000Y-106310000D02*
X159160000Y-106810000D01*
D36*
X164230000Y-84540000D02*
X164230000Y-86710000D01*
X166600000Y-89132500D02*
X165490000Y-90242500D01*
X152320000Y-89270000D02*
X152890000Y-89270000D01*
X152890000Y-89270000D02*
X153890000Y-90270000D01*
D35*
X155140000Y-109560000D02*
X155140000Y-110170000D01*
X158780000Y-105930000D02*
X159160000Y-106310000D01*
X154430000Y-108850000D02*
X155140000Y-109560000D01*
X148756000Y-87192000D02*
X148356000Y-86792000D01*
X162340000Y-115610000D02*
X162340000Y-115060000D01*
D36*
X164340000Y-86750000D02*
X166440000Y-86750000D01*
%TO.N,/VDD_5V*%
X149706000Y-88414000D02*
X149706000Y-87542000D01*
X149474000Y-88646000D02*
X149706000Y-88414000D01*
X149720000Y-88760000D02*
X154010000Y-93050000D01*
X149720000Y-87556000D02*
X149720000Y-88760000D01*
X147806000Y-87542000D02*
X147806000Y-88446000D01*
X163350000Y-90700000D02*
X165480000Y-92830000D01*
X165480000Y-92830000D02*
X165480000Y-93720000D01*
X164960000Y-87500000D02*
X164520000Y-87940000D01*
X149706000Y-87542000D02*
X149706000Y-86384000D01*
X160990000Y-93050000D02*
X163240000Y-90800000D01*
X154010000Y-93050000D02*
X160990000Y-93050000D01*
X164520000Y-87940000D02*
X164520000Y-89420000D01*
X147806000Y-88446000D02*
X148006000Y-88646000D01*
X149706000Y-87542000D02*
X149720000Y-87556000D01*
X164520000Y-89420000D02*
X163240000Y-90700000D01*
X148006000Y-88646000D02*
X149474000Y-88646000D01*
D35*
%TO.N,/VDD_3.3V*%
X153200000Y-94800000D02*
X153200000Y-96150000D01*
D36*
X154432000Y-94488000D02*
X152888000Y-94488000D01*
D35*
X151330000Y-108284548D02*
X151330000Y-92970000D01*
D37*
X157610000Y-94612000D02*
X157734000Y-94488000D01*
D36*
X149720000Y-91320000D02*
X151350000Y-92950000D01*
D35*
X161950000Y-106420000D02*
X161950000Y-112540000D01*
X161228606Y-113261394D02*
X161228606Y-115452853D01*
X151975000Y-93575000D02*
X153200000Y-94800000D01*
D37*
X157610000Y-95730000D02*
X157610000Y-94612000D01*
D35*
X149706000Y-90142000D02*
X149706000Y-91306000D01*
D36*
X158852000Y-94488000D02*
X157734000Y-94488000D01*
D35*
X159574819Y-115384239D02*
X161159992Y-115384239D01*
X151329500Y-108285048D02*
X151330000Y-108284548D01*
D36*
X152888000Y-94488000D02*
X151975000Y-93575000D01*
X158852000Y-94488000D02*
X161198000Y-94488000D01*
D35*
X151968606Y-116422853D02*
X153429229Y-116422853D01*
X156060000Y-111130000D02*
X157150000Y-111130000D01*
X150592353Y-116422853D02*
X150590000Y-116420500D01*
X151329500Y-108285048D02*
X151329500Y-108258500D01*
X155140000Y-111130000D02*
X156060000Y-111130000D01*
D36*
X157734000Y-94488000D02*
X155956000Y-94488000D01*
D35*
X154138000Y-105450000D02*
X160980000Y-105450000D01*
D36*
X151350000Y-92950000D02*
X151975000Y-93575000D01*
D35*
X151335048Y-108285048D02*
X154180000Y-111130000D01*
X158610000Y-113520631D02*
X158160606Y-113970025D01*
X153429229Y-116422853D02*
X153507843Y-116501467D01*
D36*
X154432000Y-94488000D02*
X155956000Y-94488000D01*
D35*
X151968606Y-116422853D02*
X150592353Y-116422853D01*
X151329500Y-108285048D02*
X151335048Y-108285048D01*
X158610000Y-112590000D02*
X158610000Y-113520631D01*
X161950000Y-112540000D02*
X161228606Y-113261394D01*
X151330000Y-92970000D02*
X151350000Y-92950000D01*
X154180000Y-111130000D02*
X155140000Y-111130000D01*
X157150000Y-111130000D02*
X158610000Y-112590000D01*
X160980000Y-105450000D02*
X161950000Y-106420000D01*
D36*
X161198000Y-94488000D02*
X165480000Y-98770000D01*
D35*
X151329500Y-108258500D02*
X154138000Y-105450000D01*
%TO.N,/BOOT0*%
X151970000Y-103910000D02*
X152840000Y-103910000D01*
X154974000Y-96740000D02*
X155530000Y-96740000D01*
X151960000Y-103900000D02*
X151970000Y-103910000D01*
X153200000Y-103550000D02*
X153200000Y-98514000D01*
X155490000Y-103910000D02*
X153560000Y-103910000D01*
D38*
X160260000Y-117342353D02*
X159708598Y-117342353D01*
D35*
X153200000Y-98514000D02*
X154974000Y-96740000D01*
D38*
X159708598Y-117342353D02*
X159221266Y-116855021D01*
%TO.N,/NRST*%
X159219500Y-113550000D02*
X159219500Y-113618237D01*
D35*
X161420000Y-103920000D02*
X160310000Y-103920000D01*
X161420000Y-103920000D02*
X165440000Y-103920000D01*
X157610000Y-96750000D02*
X159960000Y-99100000D01*
X159960000Y-99100000D02*
X159960000Y-103570000D01*
D38*
X159219500Y-113618237D02*
X158514159Y-114323578D01*
D35*
X157620000Y-103920000D02*
X159610000Y-103920000D01*
%TO.N,Net-(C10-Pad2)*%
X160400000Y-113851951D02*
X159221266Y-115030685D01*
X161340000Y-107170000D02*
X161340000Y-109650000D01*
X160400000Y-110590000D02*
X160400000Y-113851951D01*
X161340000Y-109650000D02*
X160400000Y-110590000D01*
X160980000Y-106810000D02*
X161340000Y-107170000D01*
%TO.N,Net-(C11-Pad2)*%
X156740000Y-108390000D02*
X158700000Y-108390000D01*
X158250000Y-106860000D02*
X158250000Y-107940000D01*
X159720000Y-112670000D02*
X159720000Y-113824844D01*
X159700000Y-112650000D02*
X159720000Y-112670000D01*
X156590000Y-108540000D02*
X156740000Y-108390000D01*
X159720000Y-113824844D02*
X158867712Y-114677132D01*
D36*
%TO.N,Net-(D1-Pad2)*%
X165980000Y-87500000D02*
X165980000Y-88177500D01*
X165980000Y-88177500D02*
X165490000Y-88667500D01*
D38*
%TO.N,/PA0*%
X158210000Y-113213524D02*
X157807052Y-113616472D01*
X158210000Y-112815736D02*
X158210000Y-113213524D01*
X147950000Y-93690000D02*
X150780000Y-96520000D01*
X157034264Y-111640000D02*
X158210000Y-112815736D01*
X150780000Y-96520000D02*
X150780000Y-108657208D01*
X153762792Y-111640000D02*
X157034264Y-111640000D01*
X150780000Y-108657208D02*
X153762792Y-111640000D01*
%TO.N,/PA1*%
X157790000Y-112820000D02*
X156910000Y-111940000D01*
X150370000Y-108671472D02*
X150370000Y-98830000D01*
X156910000Y-111940000D02*
X153638528Y-111940000D01*
X150370000Y-98830000D02*
X147770000Y-96230000D01*
X153638528Y-111940000D02*
X150370000Y-108671472D01*
X157790000Y-112926417D02*
X157790000Y-112820000D01*
X157453499Y-113262918D02*
X157790000Y-112926417D01*
%TO.N,/PA2*%
X153514264Y-112240000D02*
X150050000Y-108775736D01*
X150050000Y-108775736D02*
X150050000Y-101050000D01*
X150050000Y-101050000D02*
X147770000Y-98770000D01*
X156430580Y-112240000D02*
X153514264Y-112240000D01*
X157099945Y-112909365D02*
X156430580Y-112240000D01*
%TO.N,/PA3*%
X155613352Y-112540000D02*
X153390000Y-112540000D01*
X149650000Y-103190000D02*
X147770000Y-101310000D01*
X155982717Y-112909365D02*
X155613352Y-112540000D01*
X153390000Y-112540000D02*
X149650000Y-108800000D01*
X149650000Y-108800000D02*
X149650000Y-103190000D01*
%TO.N,/PA4{slash}CS*%
X149230000Y-109010000D02*
X149230000Y-105310000D01*
X152359977Y-112170500D02*
X153029477Y-112840000D01*
X152359977Y-112170500D02*
X152359977Y-112139977D01*
X152360000Y-108270000D02*
X154270000Y-106360000D01*
X153029477Y-112840000D02*
X155206245Y-112840000D01*
X155206245Y-112840000D02*
X155629163Y-113262918D01*
X152359977Y-112139977D02*
X149230000Y-109010000D01*
X149230000Y-105310000D02*
X147770000Y-103850000D01*
%TO.N,/PA5{slash}SCLK*%
X147770000Y-106390000D02*
X148820000Y-107440000D01*
X148820000Y-107440000D02*
X148820000Y-109285736D01*
X154799138Y-113140000D02*
X155275610Y-113616472D01*
X148820000Y-109285736D02*
X152674264Y-113140000D01*
X152674264Y-113140000D02*
X154799138Y-113140000D01*
%TO.N,/PA6{slash}MISO*%
X154922056Y-113970025D02*
X154392031Y-113440000D01*
X154392031Y-113440000D02*
X152550000Y-113440000D01*
X152550000Y-113440000D02*
X148040000Y-108930000D01*
%TO.N,/PA7{slash}MOSI*%
X147770000Y-111470000D02*
X150155736Y-111470000D01*
X150155736Y-111470000D02*
X152425736Y-113740000D01*
X153984925Y-113740000D02*
X154568503Y-114323578D01*
X152425736Y-113740000D02*
X153984925Y-113740000D01*
%TO.N,/PA8*%
X149970000Y-117070000D02*
X153646417Y-117070000D01*
X153646417Y-117070000D02*
X153861396Y-116855021D01*
X147770000Y-114870000D02*
X149970000Y-117070000D01*
X147770000Y-114010000D02*
X147770000Y-114870000D01*
%TO.N,/PA9*%
X148660000Y-117440000D02*
X153983524Y-117440000D01*
X153983524Y-117440000D02*
X154214950Y-117208574D01*
X147770000Y-116550000D02*
X148660000Y-117440000D01*
%TO.N,/PA10*%
X151310631Y-120820000D02*
X149500000Y-120820000D01*
X154568503Y-117562128D02*
X151310631Y-120820000D01*
X149500000Y-120820000D02*
X147770000Y-119090000D01*
%TO.N,/PA15*%
X157099945Y-121920055D02*
X157099945Y-118976341D01*
X152310000Y-126710000D02*
X157099945Y-121920055D01*
X147770000Y-126710000D02*
X152310000Y-126710000D01*
%TO.N,/PA13{slash}SWDIO*%
X154560000Y-119691951D02*
X155629163Y-118622788D01*
X154560000Y-119730000D02*
X154560000Y-119691951D01*
%TO.N,/PA14{slash}SWCLK*%
X155380000Y-119600000D02*
X155982717Y-118997283D01*
X155380000Y-122470000D02*
X155380000Y-119600000D01*
%TO.N,/PB0*%
X153450000Y-114190000D02*
X153727818Y-114190000D01*
X153727818Y-114190000D02*
X154214950Y-114677132D01*
%TO.N,/PB1*%
X153000000Y-114740000D02*
X153570711Y-114740000D01*
X152690000Y-114190000D02*
X152690000Y-114430000D01*
X152690000Y-114430000D02*
X153000000Y-114740000D01*
X153570711Y-114740000D02*
X153861396Y-115030685D01*
%TO.N,/PB2*%
X151940000Y-114294264D02*
X153029975Y-115384239D01*
X153029975Y-115384239D02*
X153507843Y-115384239D01*
X151940000Y-114180000D02*
X151940000Y-114294264D01*
%TO.N,/PB3*%
X165480000Y-119120000D02*
X157950711Y-119120000D01*
X157950711Y-119120000D02*
X157453499Y-118622788D01*
%TO.N,/PB4*%
X157807052Y-118269234D02*
X158327818Y-118790000D01*
X162970000Y-118790000D02*
X165180000Y-116580000D01*
X158327818Y-118790000D02*
X162970000Y-118790000D01*
%TO.N,/PB5*%
X162000000Y-118490000D02*
X158734925Y-118490000D01*
X158734925Y-118490000D02*
X158160606Y-117915681D01*
X165480000Y-114040000D02*
X165480000Y-115010000D01*
X165480000Y-115010000D02*
X162000000Y-118490000D01*
%TO.N,/PB6*%
X158514159Y-117562128D02*
X159102031Y-118150000D01*
X161480000Y-118150000D02*
X164430000Y-115200000D01*
X164430000Y-112550000D02*
X165480000Y-111500000D01*
X159102031Y-118150000D02*
X161480000Y-118150000D01*
X164430000Y-115200000D02*
X164430000Y-112550000D01*
%TO.N,/PB7*%
X163850000Y-110590000D02*
X163850000Y-115260000D01*
X163850000Y-115260000D02*
X161260000Y-117850000D01*
X159509138Y-117850000D02*
X158867712Y-117208574D01*
X165480000Y-108960000D02*
X163850000Y-110590000D01*
X161260000Y-117850000D02*
X159509138Y-117850000D01*
%TO.N,/PB8*%
X159574819Y-116501467D02*
X159966205Y-116892853D01*
X163550000Y-108350000D02*
X165480000Y-106420000D01*
X163550000Y-114990000D02*
X163550000Y-108350000D01*
X161647147Y-116892853D02*
X163550000Y-114990000D01*
X159966205Y-116892853D02*
X161647147Y-116892853D01*
D36*
%TO.N,Net-(F1-Pad1)*%
X155680000Y-91430000D02*
X155120000Y-90870000D01*
X158160000Y-90870000D02*
X157600000Y-91430000D01*
X158160000Y-90270000D02*
X158160000Y-90870000D01*
X157600000Y-91430000D02*
X156920000Y-91430000D01*
X156920000Y-91430000D02*
X160661472Y-91430000D01*
X156920000Y-91430000D02*
X155680000Y-91430000D01*
X163240000Y-88851472D02*
X163240000Y-87900000D01*
X155120000Y-90870000D02*
X155120000Y-90270000D01*
X160661472Y-91430000D02*
X163240000Y-88851472D01*
D38*
%TO.N,/PA11*%
X151207737Y-121630000D02*
X154922056Y-117915681D01*
X147770000Y-121630000D02*
X151207737Y-121630000D01*
%TO.N,/PA12*%
X149374844Y-124170000D02*
X155275610Y-118269234D01*
X147770000Y-124170000D02*
X149374844Y-124170000D01*
%TD*%
%TA.AperFunction,Conductor*%
%TO.N,GND*%
G36*
X157889609Y-119725707D02*
G01*
X157910824Y-119728500D01*
X157910837Y-119728501D01*
X157942522Y-119732672D01*
X157950711Y-119733750D01*
X157982404Y-119729578D01*
X157998847Y-119728500D01*
X164188954Y-119728500D01*
X164257075Y-119748502D01*
X164296387Y-119788665D01*
X164379987Y-119925088D01*
X164526250Y-120093938D01*
X164698126Y-120236632D01*
X164720106Y-120249476D01*
X164771445Y-120279476D01*
X164820169Y-120331114D01*
X164833240Y-120400897D01*
X164806509Y-120466669D01*
X164766055Y-120500027D01*
X164753607Y-120506507D01*
X164749474Y-120509610D01*
X164749471Y-120509612D01*
X164579100Y-120637530D01*
X164574965Y-120640635D01*
X164547451Y-120669427D01*
X164433709Y-120788451D01*
X164420629Y-120802138D01*
X164294743Y-120986680D01*
X164270376Y-121039174D01*
X164232426Y-121120932D01*
X164200688Y-121189305D01*
X164140989Y-121404570D01*
X164117251Y-121626695D01*
X164130110Y-121849715D01*
X164131247Y-121854761D01*
X164131248Y-121854767D01*
X164138820Y-121888365D01*
X164179222Y-122067639D01*
X164226750Y-122184687D01*
X164255897Y-122256467D01*
X164263266Y-122274616D01*
X164298478Y-122332077D01*
X164329336Y-122382432D01*
X164379987Y-122465088D01*
X164526250Y-122633938D01*
X164698126Y-122776632D01*
X164720106Y-122789476D01*
X164771445Y-122819476D01*
X164820169Y-122871114D01*
X164833240Y-122940897D01*
X164806509Y-123006669D01*
X164766055Y-123040027D01*
X164753607Y-123046507D01*
X164749474Y-123049610D01*
X164749471Y-123049612D01*
X164579100Y-123177530D01*
X164574965Y-123180635D01*
X164547451Y-123209427D01*
X164424319Y-123338277D01*
X164420629Y-123342138D01*
X164294743Y-123526680D01*
X164279917Y-123558621D01*
X164232426Y-123660932D01*
X164200688Y-123729305D01*
X164140989Y-123944570D01*
X164117251Y-124166695D01*
X164130110Y-124389715D01*
X164131247Y-124394761D01*
X164131248Y-124394767D01*
X164155304Y-124501508D01*
X164179222Y-124607639D01*
X164218628Y-124704684D01*
X164255897Y-124796467D01*
X164263266Y-124814616D01*
X164379987Y-125005088D01*
X164526250Y-125173938D01*
X164698126Y-125316632D01*
X164720106Y-125329476D01*
X164771445Y-125359476D01*
X164820169Y-125411114D01*
X164833240Y-125480897D01*
X164806509Y-125546669D01*
X164766055Y-125580027D01*
X164753607Y-125586507D01*
X164749474Y-125589610D01*
X164749471Y-125589612D01*
X164579100Y-125717530D01*
X164574965Y-125720635D01*
X164547451Y-125749427D01*
X164424319Y-125878277D01*
X164420629Y-125882138D01*
X164294743Y-126066680D01*
X164279917Y-126098621D01*
X164232426Y-126200932D01*
X164200688Y-126269305D01*
X164140989Y-126484570D01*
X164117251Y-126706695D01*
X164130110Y-126929715D01*
X164131247Y-126934761D01*
X164131248Y-126934767D01*
X164155304Y-127041508D01*
X164179222Y-127147639D01*
X164218628Y-127244684D01*
X164255897Y-127336467D01*
X164263266Y-127354616D01*
X164379987Y-127545088D01*
X164526250Y-127713938D01*
X164698126Y-127856632D01*
X164891000Y-127969338D01*
X164895825Y-127971180D01*
X164895826Y-127971181D01*
X164955046Y-127993795D01*
X165099692Y-128049030D01*
X165104760Y-128050061D01*
X165104763Y-128050062D01*
X165198520Y-128069137D01*
X165318597Y-128093567D01*
X165323772Y-128093757D01*
X165323774Y-128093757D01*
X165536673Y-128101564D01*
X165536677Y-128101564D01*
X165541837Y-128101753D01*
X165546957Y-128101097D01*
X165546959Y-128101097D01*
X165758288Y-128074025D01*
X165758289Y-128074025D01*
X165763416Y-128073368D01*
X165795451Y-128063757D01*
X165972429Y-128010661D01*
X165972434Y-128010659D01*
X165977384Y-128009174D01*
X166177994Y-127910896D01*
X166359860Y-127781173D01*
X166476560Y-127664880D01*
X166538932Y-127630964D01*
X166609739Y-127636152D01*
X166666500Y-127678798D01*
X166691194Y-127745362D01*
X166691500Y-127754131D01*
X166691500Y-128328731D01*
X166690940Y-128339748D01*
X166688925Y-128347841D01*
X166689289Y-128356809D01*
X166689288Y-128356815D01*
X166689630Y-128365236D01*
X166688328Y-128389109D01*
X166674242Y-128482617D01*
X166650566Y-128639776D01*
X166647421Y-128654563D01*
X166621418Y-128748671D01*
X166572617Y-128925281D01*
X166567723Y-128939586D01*
X166461025Y-129199406D01*
X166454455Y-129213018D01*
X166415976Y-129281851D01*
X166317408Y-129458177D01*
X166309252Y-129470908D01*
X166249704Y-129552614D01*
X166143824Y-129697892D01*
X166134207Y-129709547D01*
X165942777Y-129915083D01*
X165931827Y-129925509D01*
X165717167Y-130106627D01*
X165705047Y-130115666D01*
X165470241Y-130269766D01*
X165457126Y-130277289D01*
X165205537Y-130402162D01*
X165191617Y-130408058D01*
X164926882Y-130501896D01*
X164912365Y-130506079D01*
X164638296Y-130567530D01*
X164623384Y-130569945D01*
X164343928Y-130598126D01*
X164328826Y-130598738D01*
X164082543Y-130593917D01*
X164055996Y-130590531D01*
X164055831Y-130590516D01*
X164047105Y-130588435D01*
X164038144Y-130588887D01*
X164038142Y-130588887D01*
X163989539Y-130591340D01*
X163983189Y-130591500D01*
X161870623Y-130591500D01*
X161802502Y-130571498D01*
X161756009Y-130517842D01*
X161745905Y-130447568D01*
X161758662Y-130409311D01*
X161760615Y-130406705D01*
X161811745Y-130270316D01*
X161818500Y-130208134D01*
X161818500Y-128411866D01*
X161811745Y-128349684D01*
X161760615Y-128213295D01*
X161673261Y-128096739D01*
X161556705Y-128009385D01*
X161420316Y-127958255D01*
X161358134Y-127951500D01*
X159561866Y-127951500D01*
X159499684Y-127958255D01*
X159363295Y-128009385D01*
X159246739Y-128096739D01*
X159159385Y-128213295D01*
X159156233Y-128221703D01*
X159156232Y-128221705D01*
X159114722Y-128332433D01*
X159072081Y-128389198D01*
X159005519Y-128413898D01*
X158936170Y-128398691D01*
X158903546Y-128373004D01*
X158852799Y-128317234D01*
X158845273Y-128310215D01*
X158678139Y-128178222D01*
X158669552Y-128172517D01*
X158483117Y-128069599D01*
X158473705Y-128065369D01*
X158272959Y-127994280D01*
X158262988Y-127991646D01*
X158191837Y-127978972D01*
X158178540Y-127980432D01*
X158174000Y-127994989D01*
X158174000Y-129438000D01*
X158153998Y-129506121D01*
X158100342Y-129552614D01*
X158048000Y-129564000D01*
X157792000Y-129564000D01*
X157723879Y-129543998D01*
X157677386Y-129490342D01*
X157666000Y-129438000D01*
X157666000Y-127993102D01*
X157662082Y-127979758D01*
X157647806Y-127977771D01*
X157609324Y-127983660D01*
X157599288Y-127986051D01*
X157396868Y-128052212D01*
X157387359Y-128056209D01*
X157198463Y-128154542D01*
X157189738Y-128160036D01*
X157019433Y-128287905D01*
X157011726Y-128294748D01*
X156864590Y-128448717D01*
X156858109Y-128456722D01*
X156753498Y-128610074D01*
X156698587Y-128655076D01*
X156628062Y-128663247D01*
X156564315Y-128631993D01*
X156543618Y-128607509D01*
X156462822Y-128482617D01*
X156462820Y-128482614D01*
X156460014Y-128478277D01*
X156309670Y-128313051D01*
X156305619Y-128309852D01*
X156305615Y-128309848D01*
X156138414Y-128177800D01*
X156138410Y-128177798D01*
X156134359Y-128174598D01*
X156098028Y-128154542D01*
X156082136Y-128145769D01*
X155938789Y-128066638D01*
X155933920Y-128064914D01*
X155933916Y-128064912D01*
X155733087Y-127993795D01*
X155733083Y-127993794D01*
X155728212Y-127992069D01*
X155723119Y-127991162D01*
X155723116Y-127991161D01*
X155513373Y-127953800D01*
X155513367Y-127953799D01*
X155508284Y-127952894D01*
X155434452Y-127951992D01*
X155290081Y-127950228D01*
X155290079Y-127950228D01*
X155284911Y-127950165D01*
X155064091Y-127983955D01*
X154851756Y-128053357D01*
X154653607Y-128156507D01*
X154649474Y-128159610D01*
X154649471Y-128159612D01*
X154566771Y-128221705D01*
X154474965Y-128290635D01*
X154320629Y-128452138D01*
X154213201Y-128609621D01*
X154158293Y-128654621D01*
X154087768Y-128662792D01*
X154024021Y-128631538D01*
X154003324Y-128607054D01*
X153922822Y-128482617D01*
X153922820Y-128482614D01*
X153920014Y-128478277D01*
X153769670Y-128313051D01*
X153765619Y-128309852D01*
X153765615Y-128309848D01*
X153598414Y-128177800D01*
X153598410Y-128177798D01*
X153594359Y-128174598D01*
X153558028Y-128154542D01*
X153542136Y-128145769D01*
X153398789Y-128066638D01*
X153393920Y-128064914D01*
X153393916Y-128064912D01*
X153193087Y-127993795D01*
X153193083Y-127993794D01*
X153188212Y-127992069D01*
X153183119Y-127991162D01*
X153183116Y-127991161D01*
X152973373Y-127953800D01*
X152973367Y-127953799D01*
X152968284Y-127952894D01*
X152894452Y-127951992D01*
X152750081Y-127950228D01*
X152750079Y-127950228D01*
X152744911Y-127950165D01*
X152524091Y-127983955D01*
X152311756Y-128053357D01*
X152113607Y-128156507D01*
X152109474Y-128159610D01*
X152109471Y-128159612D01*
X152026771Y-128221705D01*
X151934965Y-128290635D01*
X151780629Y-128452138D01*
X151654743Y-128636680D01*
X151560688Y-128839305D01*
X151500989Y-129054570D01*
X151477251Y-129276695D01*
X151477548Y-129281848D01*
X151477548Y-129281851D01*
X151486109Y-129430325D01*
X151490110Y-129499715D01*
X151491247Y-129504761D01*
X151491248Y-129504767D01*
X151502031Y-129552614D01*
X151539222Y-129717639D01*
X151571723Y-129797680D01*
X151605489Y-129880835D01*
X151623266Y-129924616D01*
X151674942Y-130008944D01*
X151737291Y-130110688D01*
X151739987Y-130115088D01*
X151886250Y-130283938D01*
X151962383Y-130347145D01*
X151988173Y-130368556D01*
X152027808Y-130427458D01*
X152029306Y-130498439D01*
X151992191Y-130558962D01*
X151928247Y-130589811D01*
X151907688Y-130591500D01*
X149039862Y-130591500D01*
X149024219Y-130590525D01*
X148990866Y-130586352D01*
X148982007Y-130587782D01*
X148982005Y-130587782D01*
X148973427Y-130589167D01*
X148949734Y-130590725D01*
X148917878Y-130589811D01*
X148709352Y-130583828D01*
X148694631Y-130582539D01*
X148429370Y-130543523D01*
X148414900Y-130540519D01*
X148156034Y-130470714D01*
X148142015Y-130466036D01*
X147893096Y-130366398D01*
X147879728Y-130360114D01*
X147644192Y-130232018D01*
X147631658Y-130224216D01*
X147412734Y-130069418D01*
X147401189Y-130060193D01*
X147201904Y-129880835D01*
X147191518Y-129870321D01*
X147014609Y-129668868D01*
X147005525Y-129657211D01*
X146853413Y-129436418D01*
X146845757Y-129423777D01*
X146730955Y-129206407D01*
X146720542Y-129186691D01*
X146714427Y-129173257D01*
X146621480Y-128932585D01*
X146617835Y-128923146D01*
X146613328Y-128909071D01*
X146546685Y-128649368D01*
X146543858Y-128634863D01*
X146519830Y-128456403D01*
X146512719Y-128403590D01*
X146511988Y-128376792D01*
X146512712Y-128367687D01*
X146510883Y-128358897D01*
X146510675Y-128355601D01*
X146508500Y-128334476D01*
X146508500Y-127666563D01*
X146528502Y-127598442D01*
X146582158Y-127551949D01*
X146652432Y-127541845D01*
X146717012Y-127571339D01*
X146729737Y-127584065D01*
X146816250Y-127683938D01*
X146988126Y-127826632D01*
X147181000Y-127939338D01*
X147185825Y-127941180D01*
X147185826Y-127941181D01*
X147237803Y-127961029D01*
X147389692Y-128019030D01*
X147394760Y-128020061D01*
X147394763Y-128020062D01*
X147502017Y-128041883D01*
X147608597Y-128063567D01*
X147613772Y-128063757D01*
X147613774Y-128063757D01*
X147826673Y-128071564D01*
X147826677Y-128071564D01*
X147831837Y-128071753D01*
X147836957Y-128071097D01*
X147836959Y-128071097D01*
X148048288Y-128044025D01*
X148048289Y-128044025D01*
X148053416Y-128043368D01*
X148058366Y-128041883D01*
X148262429Y-127980661D01*
X148262434Y-127980659D01*
X148267384Y-127979174D01*
X148467994Y-127880896D01*
X148649860Y-127751173D01*
X148655692Y-127745362D01*
X148777991Y-127623489D01*
X148808096Y-127593489D01*
X148842876Y-127545088D01*
X148935435Y-127416277D01*
X148938453Y-127412077D01*
X148950019Y-127388675D01*
X148998132Y-127336467D01*
X149062977Y-127318500D01*
X152261864Y-127318500D01*
X152278307Y-127319578D01*
X152310000Y-127323750D01*
X152318189Y-127322672D01*
X152349874Y-127318501D01*
X152349884Y-127318500D01*
X152349885Y-127318500D01*
X152449457Y-127305391D01*
X152460664Y-127303916D01*
X152460666Y-127303915D01*
X152468851Y-127302838D01*
X152616876Y-127241524D01*
X152712072Y-127168477D01*
X152712075Y-127168474D01*
X152743987Y-127143987D01*
X152749017Y-127137432D01*
X152763452Y-127118621D01*
X152774319Y-127106230D01*
X157496179Y-122384370D01*
X157508570Y-122373503D01*
X157527382Y-122359068D01*
X157533932Y-122354042D01*
X157558419Y-122322130D01*
X157558425Y-122322124D01*
X157626441Y-122233484D01*
X157626442Y-122233482D01*
X157631469Y-122226931D01*
X157643771Y-122197232D01*
X157661376Y-122154727D01*
X157661377Y-122154725D01*
X157689624Y-122086531D01*
X157692783Y-122078905D01*
X157708445Y-121959940D01*
X157708445Y-121959933D01*
X157713695Y-121920055D01*
X157709523Y-121888362D01*
X157708445Y-121871919D01*
X157708445Y-119845531D01*
X157728447Y-119777410D01*
X157782103Y-119730917D01*
X157850890Y-119720609D01*
X157889609Y-119725707D01*
G37*
%TD.AperFunction*%
%TA.AperFunction,Conductor*%
G36*
X149919618Y-112098502D02*
G01*
X149940592Y-112115405D01*
X151346826Y-113521639D01*
X151380852Y-113583951D01*
X151375787Y-113654766D01*
X151355374Y-113690370D01*
X151353520Y-113692643D01*
X151348486Y-113697573D01*
X151256304Y-113840610D01*
X151198103Y-114000516D01*
X151176775Y-114169343D01*
X151193381Y-114338699D01*
X151247094Y-114500167D01*
X151250741Y-114506189D01*
X151250742Y-114506191D01*
X151315492Y-114613105D01*
X151335246Y-114645723D01*
X151340136Y-114650787D01*
X151340137Y-114650788D01*
X151359319Y-114670652D01*
X151392251Y-114733549D01*
X151385950Y-114804266D01*
X151357776Y-114847273D01*
X151288122Y-114916927D01*
X151278482Y-114929354D01*
X151203210Y-115056633D01*
X151196963Y-115071069D01*
X151161987Y-115191458D01*
X151162027Y-115205558D01*
X151169297Y-115208853D01*
X151941850Y-115208853D01*
X152009971Y-115228855D01*
X152030945Y-115245758D01*
X152185701Y-115400514D01*
X152219727Y-115462826D01*
X152222606Y-115489609D01*
X152222606Y-115508353D01*
X152202604Y-115576474D01*
X152148948Y-115622967D01*
X152096606Y-115634353D01*
X151733122Y-115634353D01*
X151730674Y-115634546D01*
X151730666Y-115634546D01*
X151702762Y-115636742D01*
X151702757Y-115636743D01*
X151696352Y-115637247D01*
X151597601Y-115665937D01*
X151546622Y-115680747D01*
X151546620Y-115680748D01*
X151539009Y-115682959D01*
X151532187Y-115686994D01*
X151532186Y-115686994D01*
X151511366Y-115699307D01*
X151447227Y-115716853D01*
X151288574Y-115716853D01*
X151220453Y-115696851D01*
X151208259Y-115687938D01*
X151133329Y-115625950D01*
X151133324Y-115625947D01*
X151128580Y-115622022D01*
X151123161Y-115619092D01*
X151123158Y-115619090D01*
X151026979Y-115567087D01*
X150963231Y-115532619D01*
X150783666Y-115477034D01*
X150777541Y-115476390D01*
X150777540Y-115476390D01*
X150602852Y-115458029D01*
X150602851Y-115458029D01*
X150596724Y-115457385D01*
X150536940Y-115462826D01*
X150415665Y-115473863D01*
X150415662Y-115473864D01*
X150409526Y-115474422D01*
X150403620Y-115476160D01*
X150403616Y-115476161D01*
X150294238Y-115508353D01*
X150229202Y-115527494D01*
X150223742Y-115530348D01*
X150223743Y-115530348D01*
X150129058Y-115579848D01*
X150062621Y-115614580D01*
X149916128Y-115732364D01*
X149889286Y-115764353D01*
X149811420Y-115857150D01*
X149752310Y-115896477D01*
X149681322Y-115897603D01*
X149625803Y-115865254D01*
X148819179Y-115058630D01*
X148785153Y-114996318D01*
X148790218Y-114925503D01*
X148808748Y-114893957D01*
X148808096Y-114893489D01*
X148935435Y-114716277D01*
X148938453Y-114712077D01*
X148953406Y-114681823D01*
X149035136Y-114516453D01*
X149035137Y-114516451D01*
X149037430Y-114511811D01*
X149102370Y-114298069D01*
X149131529Y-114076590D01*
X149133156Y-114010000D01*
X149114852Y-113787361D01*
X149060431Y-113570702D01*
X148971354Y-113365840D01*
X148850014Y-113178277D01*
X148699670Y-113013051D01*
X148695619Y-113009852D01*
X148695615Y-113009848D01*
X148528414Y-112877800D01*
X148528410Y-112877798D01*
X148524359Y-112874598D01*
X148483053Y-112851796D01*
X148433084Y-112801364D01*
X148418312Y-112731921D01*
X148443428Y-112665516D01*
X148470780Y-112638909D01*
X148536789Y-112591825D01*
X148649860Y-112511173D01*
X148655692Y-112505362D01*
X148777991Y-112383489D01*
X148808096Y-112353489D01*
X148938453Y-112172077D01*
X148950019Y-112148675D01*
X148998132Y-112096467D01*
X149062977Y-112078500D01*
X149851497Y-112078500D01*
X149919618Y-112098502D01*
G37*
%TD.AperFunction*%
%TA.AperFunction,Conductor*%
G36*
X164312227Y-104598502D02*
G01*
X164351539Y-104638665D01*
X164379987Y-104685088D01*
X164526250Y-104853938D01*
X164698126Y-104996632D01*
X164740671Y-105021493D01*
X164771445Y-105039476D01*
X164820169Y-105091114D01*
X164833240Y-105160897D01*
X164806509Y-105226669D01*
X164766055Y-105260027D01*
X164753607Y-105266507D01*
X164749474Y-105269610D01*
X164749471Y-105269612D01*
X164579100Y-105397530D01*
X164574965Y-105400635D01*
X164547451Y-105429427D01*
X164433709Y-105548451D01*
X164420629Y-105562138D01*
X164294743Y-105746680D01*
X164270376Y-105799174D01*
X164208529Y-105932414D01*
X164200688Y-105949305D01*
X164140989Y-106164570D01*
X164117251Y-106386695D01*
X164117548Y-106391848D01*
X164117548Y-106391851D01*
X164125604Y-106531569D01*
X164130110Y-106609715D01*
X164131247Y-106614762D01*
X164131248Y-106614766D01*
X164169956Y-106786521D01*
X164165420Y-106857372D01*
X164136134Y-106903317D01*
X163153766Y-107885685D01*
X163141375Y-107896552D01*
X163116013Y-107916013D01*
X163091526Y-107947925D01*
X163091523Y-107947928D01*
X163091517Y-107947936D01*
X163027099Y-108031887D01*
X163018476Y-108043124D01*
X162957162Y-108191149D01*
X162957162Y-108191150D01*
X162941500Y-108310115D01*
X162941500Y-108310120D01*
X162936250Y-108350000D01*
X162937328Y-108358188D01*
X162940422Y-108381690D01*
X162941500Y-108398136D01*
X162941500Y-114685761D01*
X162921498Y-114753882D01*
X162904595Y-114774856D01*
X162262201Y-115417250D01*
X162199889Y-115451276D01*
X162129074Y-115446211D01*
X162072238Y-115403664D01*
X162047427Y-115337144D01*
X162047106Y-115328155D01*
X162047106Y-115247369D01*
X162044212Y-115210599D01*
X162003675Y-115071069D01*
X162000712Y-115060869D01*
X162000711Y-115060867D01*
X161998500Y-115053256D01*
X161957506Y-114983938D01*
X161919128Y-114919045D01*
X161915094Y-114912224D01*
X161912790Y-114909920D01*
X161887600Y-114845768D01*
X161887106Y-114834624D01*
X161887106Y-113586344D01*
X161907108Y-113518223D01*
X161924011Y-113497249D01*
X162357605Y-113063655D01*
X162366385Y-113055665D01*
X162366387Y-113055663D01*
X162373080Y-113051416D01*
X162421605Y-112999742D01*
X162424359Y-112996901D01*
X162444927Y-112976333D01*
X162447647Y-112972826D01*
X162455353Y-112963804D01*
X162481544Y-112935913D01*
X162486972Y-112930133D01*
X162490794Y-112923181D01*
X162497303Y-112911342D01*
X162508157Y-112894818D01*
X162516443Y-112884135D01*
X162516444Y-112884134D01*
X162521304Y-112877868D01*
X162539654Y-112835464D01*
X162544869Y-112824819D01*
X162567124Y-112784337D01*
X162569094Y-112776663D01*
X162569097Y-112776656D01*
X162572455Y-112763574D01*
X162578861Y-112744862D01*
X162587380Y-112725177D01*
X162594608Y-112679541D01*
X162597012Y-112667930D01*
X162608500Y-112623188D01*
X162608500Y-112601742D01*
X162610051Y-112582032D01*
X162612166Y-112568678D01*
X162612166Y-112568677D01*
X162613406Y-112560848D01*
X162609059Y-112514859D01*
X162608500Y-112503004D01*
X162608500Y-106502056D01*
X162609059Y-106490200D01*
X162609059Y-106490197D01*
X162610788Y-106482463D01*
X162608562Y-106411631D01*
X162608500Y-106407673D01*
X162608500Y-106378568D01*
X162607944Y-106374168D01*
X162607012Y-106362330D01*
X162605811Y-106324094D01*
X162605562Y-106316169D01*
X162599580Y-106295579D01*
X162595570Y-106276216D01*
X162593875Y-106262796D01*
X162593875Y-106262795D01*
X162592882Y-106254936D01*
X162589966Y-106247571D01*
X162589965Y-106247567D01*
X162575874Y-106211979D01*
X162572035Y-106200769D01*
X162559145Y-106156400D01*
X162548225Y-106137935D01*
X162539534Y-106120195D01*
X162531635Y-106100244D01*
X162504482Y-106062871D01*
X162497967Y-106052952D01*
X162478493Y-106020023D01*
X162478490Y-106020019D01*
X162474453Y-106013193D01*
X162459289Y-105998029D01*
X162446448Y-105982995D01*
X162438501Y-105972057D01*
X162433841Y-105965643D01*
X162398247Y-105936197D01*
X162389468Y-105928208D01*
X161503655Y-105042395D01*
X161495665Y-105033615D01*
X161495663Y-105033613D01*
X161491416Y-105026920D01*
X161459163Y-104996632D01*
X161439743Y-104978396D01*
X161436901Y-104975641D01*
X161416333Y-104955073D01*
X161412826Y-104952353D01*
X161403804Y-104944647D01*
X161375910Y-104918453D01*
X161370133Y-104913028D01*
X161363187Y-104909209D01*
X161362399Y-104908637D01*
X161319044Y-104852416D01*
X161312967Y-104781680D01*
X161346098Y-104718887D01*
X161407917Y-104683975D01*
X161425038Y-104681219D01*
X161540426Y-104670718D01*
X161573483Y-104667709D01*
X161580185Y-104665531D01*
X161580187Y-104665531D01*
X161728623Y-104617301D01*
X161728626Y-104617300D01*
X161735322Y-104615124D01*
X161766948Y-104596271D01*
X161831466Y-104578500D01*
X164244106Y-104578500D01*
X164312227Y-104598502D01*
G37*
%TD.AperFunction*%
%TA.AperFunction,Conductor*%
G36*
X157468128Y-106128502D02*
G01*
X157514621Y-106182158D01*
X157524725Y-106252432D01*
X157508461Y-106298639D01*
X157460106Y-106380403D01*
X157457895Y-106388014D01*
X157457894Y-106388016D01*
X157443084Y-106438995D01*
X157414394Y-106537746D01*
X157413890Y-106544151D01*
X157413889Y-106544156D01*
X157412061Y-106567386D01*
X157411500Y-106574516D01*
X157411500Y-107045484D01*
X157411693Y-107047932D01*
X157411693Y-107047940D01*
X157412259Y-107055124D01*
X157414394Y-107082254D01*
X157425964Y-107122077D01*
X157454949Y-107221845D01*
X157460106Y-107239597D01*
X157464141Y-107246419D01*
X157464141Y-107246420D01*
X157522370Y-107344880D01*
X157543512Y-107380629D01*
X157554595Y-107391712D01*
X157588621Y-107454024D01*
X157591500Y-107480807D01*
X157591500Y-107605500D01*
X157571498Y-107673621D01*
X157517842Y-107720114D01*
X157465500Y-107731500D01*
X156911564Y-107731500D01*
X156869451Y-107722548D01*
X156869062Y-107723746D01*
X156862785Y-107721706D01*
X156856752Y-107719020D01*
X156850297Y-107717648D01*
X156850294Y-107717647D01*
X156686689Y-107682872D01*
X156686685Y-107682872D01*
X156680232Y-107681500D01*
X156499768Y-107681500D01*
X156493315Y-107682872D01*
X156493311Y-107682872D01*
X156411508Y-107700260D01*
X156323248Y-107719020D01*
X156317219Y-107721704D01*
X156317217Y-107721705D01*
X156164416Y-107789737D01*
X156164414Y-107789738D01*
X156158386Y-107792422D01*
X156153045Y-107796302D01*
X156153044Y-107796303D01*
X156017731Y-107894613D01*
X156017729Y-107894615D01*
X156012387Y-107898496D01*
X156007966Y-107903406D01*
X156007965Y-107903407D01*
X155937862Y-107981265D01*
X155891633Y-108032607D01*
X155801401Y-108188893D01*
X155745635Y-108360525D01*
X155726771Y-108540000D01*
X155745635Y-108719475D01*
X155801401Y-108891107D01*
X155891633Y-109047393D01*
X155896051Y-109052300D01*
X155896052Y-109052301D01*
X156003550Y-109171690D01*
X156034268Y-109235697D01*
X156025503Y-109306151D01*
X155980040Y-109360682D01*
X155909914Y-109382000D01*
X155827031Y-109382000D01*
X155822102Y-109382193D01*
X155794244Y-109384386D01*
X155781641Y-109386688D01*
X155635153Y-109429247D01*
X155564847Y-109429247D01*
X155418359Y-109386688D01*
X155410391Y-109385232D01*
X155396969Y-109388052D01*
X155394000Y-109399513D01*
X155394000Y-109897885D01*
X155398475Y-109913124D01*
X155399865Y-109914329D01*
X155407548Y-109916000D01*
X156853558Y-109916000D01*
X156867089Y-109912027D01*
X156868224Y-109904129D01*
X156831643Y-109778216D01*
X156825396Y-109763780D01*
X156750124Y-109636501D01*
X156740484Y-109624074D01*
X156707984Y-109591574D01*
X156673958Y-109529262D01*
X156679023Y-109458447D01*
X156721570Y-109401611D01*
X156770882Y-109379232D01*
X156771503Y-109379100D01*
X156856752Y-109360980D01*
X156862783Y-109358295D01*
X157015585Y-109290263D01*
X157015587Y-109290262D01*
X157021615Y-109287578D01*
X157026957Y-109283697D01*
X157162269Y-109185387D01*
X157162271Y-109185385D01*
X157167613Y-109181504D01*
X157249834Y-109090188D01*
X157310277Y-109052950D01*
X157343468Y-109048500D01*
X157468709Y-109048500D01*
X157536830Y-109068502D01*
X157583323Y-109122158D01*
X157593972Y-109160892D01*
X157598255Y-109200316D01*
X157649385Y-109336705D01*
X157689940Y-109390817D01*
X157707953Y-109414852D01*
X157732801Y-109481358D01*
X157717748Y-109550741D01*
X157707953Y-109565982D01*
X157655214Y-109636352D01*
X157646676Y-109651946D01*
X157601522Y-109772394D01*
X157597895Y-109787649D01*
X157592369Y-109838514D01*
X157592000Y-109845328D01*
X157592001Y-110408488D01*
X157571999Y-110476609D01*
X157518343Y-110523102D01*
X157448070Y-110533206D01*
X157405303Y-110518904D01*
X157401290Y-110516698D01*
X157401286Y-110516697D01*
X157394337Y-110512876D01*
X157373559Y-110507541D01*
X157354869Y-110501142D01*
X157335176Y-110492620D01*
X157289552Y-110485394D01*
X157277929Y-110482987D01*
X157249928Y-110475798D01*
X157233188Y-110471500D01*
X157211741Y-110471500D01*
X157192031Y-110469949D01*
X157178677Y-110467834D01*
X157170848Y-110466594D01*
X157124859Y-110470941D01*
X157113004Y-110471500D01*
X156964881Y-110471500D01*
X156896760Y-110451498D01*
X156877412Y-110432205D01*
X156859309Y-110424000D01*
X156581379Y-110424000D01*
X156517240Y-110406454D01*
X156496420Y-110394141D01*
X156496419Y-110394141D01*
X156489597Y-110390106D01*
X156481986Y-110387895D01*
X156481984Y-110387894D01*
X156431005Y-110373084D01*
X156332254Y-110344394D01*
X156325849Y-110343890D01*
X156325844Y-110343889D01*
X156297940Y-110341693D01*
X156297932Y-110341693D01*
X156295484Y-110341500D01*
X155824516Y-110341500D01*
X155822068Y-110341693D01*
X155822060Y-110341693D01*
X155794156Y-110343889D01*
X155794151Y-110343890D01*
X155787746Y-110344394D01*
X155635153Y-110388726D01*
X155564847Y-110388726D01*
X155412254Y-110344394D01*
X155405849Y-110343890D01*
X155405844Y-110343889D01*
X155377940Y-110341693D01*
X155377932Y-110341693D01*
X155375484Y-110341500D01*
X155012000Y-110341500D01*
X154943879Y-110321498D01*
X154897386Y-110267842D01*
X154886000Y-110215500D01*
X154886000Y-109401576D01*
X154881656Y-109386781D01*
X154871225Y-109384937D01*
X154861641Y-109386688D01*
X154718216Y-109428357D01*
X154703780Y-109434604D01*
X154576501Y-109509876D01*
X154564074Y-109519516D01*
X154459516Y-109624074D01*
X154449876Y-109636501D01*
X154374604Y-109763780D01*
X154368357Y-109778216D01*
X154326688Y-109921641D01*
X154324386Y-109934244D01*
X154322193Y-109962102D01*
X154322000Y-109967031D01*
X154322000Y-110036550D01*
X154301998Y-110104671D01*
X154248342Y-110151164D01*
X154178068Y-110161268D01*
X154113488Y-110131774D01*
X154106905Y-110125645D01*
X152932131Y-108950871D01*
X152898105Y-108888559D01*
X152903170Y-108817744D01*
X152934336Y-108770529D01*
X152939615Y-108765502D01*
X152939618Y-108765499D01*
X152944721Y-108760639D01*
X152976432Y-108712911D01*
X153034990Y-108624773D01*
X153038891Y-108618902D01*
X153099319Y-108459825D01*
X153104668Y-108421762D01*
X153133955Y-108357087D01*
X153140347Y-108350201D01*
X154346620Y-107143928D01*
X154410382Y-107109596D01*
X154416465Y-107108348D01*
X154423483Y-107107709D01*
X154430180Y-107105533D01*
X154430185Y-107105532D01*
X154578623Y-107057301D01*
X154578626Y-107057300D01*
X154585322Y-107055124D01*
X154731490Y-106967990D01*
X154736584Y-106963139D01*
X154736588Y-106963136D01*
X154808799Y-106894370D01*
X154854721Y-106850639D01*
X154948891Y-106708902D01*
X155009319Y-106549825D01*
X155033001Y-106381313D01*
X155033118Y-106372964D01*
X155033244Y-106363961D01*
X155033244Y-106363955D01*
X155033299Y-106360000D01*
X155027529Y-106308555D01*
X155020798Y-106248544D01*
X155033083Y-106178619D01*
X155081222Y-106126435D01*
X155146013Y-106108500D01*
X157400007Y-106108500D01*
X157468128Y-106128502D01*
G37*
%TD.AperFunction*%
%TA.AperFunction,Conductor*%
G36*
X160133621Y-106576002D02*
G01*
X160180114Y-106629658D01*
X160191500Y-106682000D01*
X160191500Y-106938000D01*
X160171498Y-107006121D01*
X160117842Y-107052614D01*
X160065500Y-107064000D01*
X159114500Y-107064000D01*
X159046379Y-107043998D01*
X158999886Y-106990342D01*
X158988500Y-106938000D01*
X158988500Y-106682000D01*
X159008502Y-106613879D01*
X159062158Y-106567386D01*
X159114500Y-106556000D01*
X160065500Y-106556000D01*
X160133621Y-106576002D01*
G37*
%TD.AperFunction*%
%TA.AperFunction,Conductor*%
G36*
X156756446Y-95266502D02*
G01*
X156802939Y-95320158D01*
X156813043Y-95390432D01*
X156809323Y-95407650D01*
X156784371Y-95493534D01*
X156783867Y-95499941D01*
X156783866Y-95499945D01*
X156781693Y-95527556D01*
X156781500Y-95530011D01*
X156781501Y-95929988D01*
X156784371Y-95966466D01*
X156786168Y-95972650D01*
X156820986Y-96092494D01*
X156829731Y-96122596D01*
X156833767Y-96129421D01*
X156833769Y-96129425D01*
X156861231Y-96175861D01*
X156878691Y-96244677D01*
X156861231Y-96304139D01*
X156833769Y-96350575D01*
X156833767Y-96350579D01*
X156829731Y-96357404D01*
X156784371Y-96513534D01*
X156783867Y-96519941D01*
X156783866Y-96519945D01*
X156781693Y-96547556D01*
X156781500Y-96550011D01*
X156781501Y-96949988D01*
X156784371Y-96986466D01*
X156786168Y-96992650D01*
X156822714Y-97118442D01*
X156829731Y-97142596D01*
X156912494Y-97282541D01*
X157027459Y-97397506D01*
X157034280Y-97401540D01*
X157132012Y-97459338D01*
X157167404Y-97480269D01*
X157175015Y-97482480D01*
X157175017Y-97482481D01*
X157232372Y-97499144D01*
X157323534Y-97525629D01*
X157329941Y-97526133D01*
X157329945Y-97526134D01*
X157357556Y-97528307D01*
X157357562Y-97528307D01*
X157360011Y-97528500D01*
X157405050Y-97528500D01*
X157473171Y-97548502D01*
X157494145Y-97565405D01*
X159264595Y-99335855D01*
X159298621Y-99398167D01*
X159301500Y-99424950D01*
X159301500Y-102185500D01*
X159281498Y-102253621D01*
X159227842Y-102300114D01*
X159175500Y-102311500D01*
X159161866Y-102311500D01*
X159099684Y-102318255D01*
X158963295Y-102369385D01*
X158846739Y-102456739D01*
X158759385Y-102573295D01*
X158708255Y-102709684D01*
X158701500Y-102771866D01*
X158701500Y-103135500D01*
X158681498Y-103203621D01*
X158627842Y-103250114D01*
X158575500Y-103261500D01*
X158524881Y-103261500D01*
X158456760Y-103241498D01*
X158437412Y-103222205D01*
X158419309Y-103214000D01*
X158141379Y-103214000D01*
X158077240Y-103196454D01*
X158056420Y-103184141D01*
X158056419Y-103184141D01*
X158049597Y-103180106D01*
X158041986Y-103177895D01*
X158041984Y-103177894D01*
X157971972Y-103157554D01*
X157892254Y-103134394D01*
X157885849Y-103133890D01*
X157885844Y-103133889D01*
X157857940Y-103131693D01*
X157857932Y-103131693D01*
X157855484Y-103131500D01*
X157384516Y-103131500D01*
X157382068Y-103131693D01*
X157382060Y-103131693D01*
X157354156Y-103133889D01*
X157354151Y-103133890D01*
X157347746Y-103134394D01*
X157268028Y-103157554D01*
X157198016Y-103177894D01*
X157198014Y-103177895D01*
X157190403Y-103180106D01*
X157183581Y-103184141D01*
X157183580Y-103184141D01*
X157162760Y-103196454D01*
X157098621Y-103214000D01*
X156826442Y-103214000D01*
X156812911Y-103217973D01*
X156811776Y-103225871D01*
X156848357Y-103351784D01*
X156854605Y-103366222D01*
X156860016Y-103375372D01*
X156877474Y-103444188D01*
X156860015Y-103503647D01*
X156850106Y-103520403D01*
X156804394Y-103677746D01*
X156803890Y-103684151D01*
X156803889Y-103684156D01*
X156801693Y-103712060D01*
X156801500Y-103714516D01*
X156801500Y-104125484D01*
X156801693Y-104127932D01*
X156801693Y-104127940D01*
X156803607Y-104152254D01*
X156804394Y-104162254D01*
X156850106Y-104319597D01*
X156933512Y-104460629D01*
X157049288Y-104576405D01*
X157083314Y-104638717D01*
X157078249Y-104709532D01*
X157035702Y-104766368D01*
X156969182Y-104791179D01*
X156960193Y-104791500D01*
X156136940Y-104791500D01*
X156068819Y-104771498D01*
X156022326Y-104717842D01*
X156012222Y-104647568D01*
X156041716Y-104582988D01*
X156056651Y-104568840D01*
X156060629Y-104566488D01*
X156176488Y-104450629D01*
X156259894Y-104309597D01*
X156305606Y-104152254D01*
X156307908Y-104123015D01*
X156308307Y-104117940D01*
X156308307Y-104117932D01*
X156308500Y-104115484D01*
X156308500Y-103704516D01*
X156306898Y-103684156D01*
X156306111Y-103674156D01*
X156306110Y-103674151D01*
X156305606Y-103667746D01*
X156259894Y-103510403D01*
X156249985Y-103493647D01*
X156232526Y-103424830D01*
X156249984Y-103365372D01*
X156255395Y-103356222D01*
X156261643Y-103341784D01*
X156296619Y-103221395D01*
X156296579Y-103207295D01*
X156289309Y-103204000D01*
X156011379Y-103204000D01*
X155947240Y-103186454D01*
X155926420Y-103174141D01*
X155926419Y-103174141D01*
X155919597Y-103170106D01*
X155911986Y-103167895D01*
X155911984Y-103167894D01*
X155854036Y-103151059D01*
X155762254Y-103124394D01*
X155755849Y-103123890D01*
X155755844Y-103123889D01*
X155727940Y-103121693D01*
X155727932Y-103121693D01*
X155725484Y-103121500D01*
X155362000Y-103121500D01*
X155293879Y-103101498D01*
X155247386Y-103047842D01*
X155236000Y-102995500D01*
X155236000Y-102677885D01*
X155744000Y-102677885D01*
X155748475Y-102693124D01*
X155749865Y-102694329D01*
X155757548Y-102696000D01*
X156283558Y-102696000D01*
X156297089Y-102692027D01*
X156297581Y-102688605D01*
X156813381Y-102688605D01*
X156813421Y-102702705D01*
X156820691Y-102706000D01*
X157347885Y-102706000D01*
X157363124Y-102701525D01*
X157364329Y-102700135D01*
X157366000Y-102692452D01*
X157366000Y-102687885D01*
X157874000Y-102687885D01*
X157878475Y-102703124D01*
X157879865Y-102704329D01*
X157887548Y-102706000D01*
X158413558Y-102706000D01*
X158427089Y-102702027D01*
X158428224Y-102694129D01*
X158391643Y-102568216D01*
X158385396Y-102553780D01*
X158310124Y-102426501D01*
X158300484Y-102414074D01*
X158195926Y-102309516D01*
X158183499Y-102299876D01*
X158056220Y-102224604D01*
X158041784Y-102218357D01*
X157898359Y-102176688D01*
X157890391Y-102175232D01*
X157876969Y-102178052D01*
X157874000Y-102189513D01*
X157874000Y-102687885D01*
X157366000Y-102687885D01*
X157366000Y-102191576D01*
X157361656Y-102176781D01*
X157351225Y-102174937D01*
X157341641Y-102176688D01*
X157198216Y-102218357D01*
X157183780Y-102224604D01*
X157056501Y-102299876D01*
X157044074Y-102309516D01*
X156939516Y-102414074D01*
X156929876Y-102426501D01*
X156854604Y-102553780D01*
X156848357Y-102568216D01*
X156813381Y-102688605D01*
X156297581Y-102688605D01*
X156298224Y-102684129D01*
X156261643Y-102558216D01*
X156255396Y-102543780D01*
X156180124Y-102416501D01*
X156170484Y-102404074D01*
X156065926Y-102299516D01*
X156053499Y-102289876D01*
X155926220Y-102214604D01*
X155911784Y-102208357D01*
X155768359Y-102166688D01*
X155760391Y-102165232D01*
X155746969Y-102168052D01*
X155744000Y-102179513D01*
X155744000Y-102677885D01*
X155236000Y-102677885D01*
X155236000Y-102181576D01*
X155231656Y-102166781D01*
X155221225Y-102164937D01*
X155211641Y-102166688D01*
X155068216Y-102208357D01*
X155053780Y-102214604D01*
X154926501Y-102289876D01*
X154914074Y-102299516D01*
X154809516Y-102404074D01*
X154799876Y-102416501D01*
X154724604Y-102543780D01*
X154718357Y-102558216D01*
X154686259Y-102668697D01*
X154648046Y-102728533D01*
X154583549Y-102758210D01*
X154513247Y-102748306D01*
X154459459Y-102701967D01*
X154447280Y-102677773D01*
X154403768Y-102561705D01*
X154403767Y-102561704D01*
X154400615Y-102553295D01*
X154313261Y-102436739D01*
X154196705Y-102349385D01*
X154060316Y-102298255D01*
X153998134Y-102291500D01*
X153984500Y-102291500D01*
X153916379Y-102271498D01*
X153869886Y-102217842D01*
X153858500Y-102165500D01*
X153858500Y-98838950D01*
X153878502Y-98770829D01*
X153895405Y-98749855D01*
X155102582Y-97542678D01*
X155164894Y-97508652D01*
X155226830Y-97510776D01*
X155243534Y-97515629D01*
X155249941Y-97516133D01*
X155249945Y-97516134D01*
X155277556Y-97518307D01*
X155277562Y-97518307D01*
X155280011Y-97518500D01*
X155529848Y-97518500D01*
X155779988Y-97518499D01*
X155816466Y-97515629D01*
X155938176Y-97480269D01*
X155964983Y-97472481D01*
X155964985Y-97472480D01*
X155972596Y-97470269D01*
X155991080Y-97459338D01*
X156105720Y-97391540D01*
X156112541Y-97387506D01*
X156227506Y-97272541D01*
X156310269Y-97132596D01*
X156355629Y-96976466D01*
X156356558Y-96964672D01*
X156358307Y-96942444D01*
X156358307Y-96942438D01*
X156358500Y-96939989D01*
X156358499Y-96540012D01*
X156355629Y-96503534D01*
X156310269Y-96347404D01*
X156278477Y-96293647D01*
X156261018Y-96224834D01*
X156278478Y-96165370D01*
X156305771Y-96119220D01*
X156312019Y-96104783D01*
X156344961Y-95991395D01*
X156344921Y-95977295D01*
X156337651Y-95974000D01*
X155867542Y-95974000D01*
X155832390Y-95968997D01*
X155822647Y-95966166D01*
X155822640Y-95966165D01*
X155816466Y-95964371D01*
X155810059Y-95963867D01*
X155810055Y-95963866D01*
X155782444Y-95961693D01*
X155782438Y-95961693D01*
X155779989Y-95961500D01*
X155770070Y-95961500D01*
X155401999Y-95961501D01*
X155333880Y-95941499D01*
X155287387Y-95887844D01*
X155276000Y-95835501D01*
X155276000Y-95592000D01*
X155296002Y-95523879D01*
X155349658Y-95477386D01*
X155402000Y-95466000D01*
X156331900Y-95466000D01*
X156345431Y-95462027D01*
X156346566Y-95454128D01*
X156333064Y-95407652D01*
X156333267Y-95336656D01*
X156371821Y-95277040D01*
X156436486Y-95247732D01*
X156454061Y-95246500D01*
X156688325Y-95246500D01*
X156756446Y-95266502D01*
G37*
%TD.AperFunction*%
%TA.AperFunction,Conductor*%
G36*
X158644121Y-95266502D02*
G01*
X158690614Y-95320158D01*
X158702000Y-95372500D01*
X158702000Y-95897885D01*
X158706475Y-95913124D01*
X158707865Y-95914329D01*
X158715548Y-95916000D01*
X161199884Y-95916000D01*
X161215123Y-95911525D01*
X161216328Y-95910135D01*
X161217999Y-95902452D01*
X161217999Y-95884870D01*
X161238001Y-95816749D01*
X161291657Y-95770256D01*
X161361931Y-95760152D01*
X161426511Y-95789646D01*
X161433094Y-95795775D01*
X164102345Y-98465026D01*
X164136371Y-98527338D01*
X164138537Y-98567510D01*
X164130006Y-98647345D01*
X164117251Y-98766695D01*
X164117548Y-98771848D01*
X164117548Y-98771851D01*
X164127405Y-98942796D01*
X164130110Y-98989715D01*
X164131247Y-98994761D01*
X164131248Y-98994767D01*
X164150919Y-99082049D01*
X164179222Y-99207639D01*
X164263266Y-99414616D01*
X164379987Y-99605088D01*
X164526250Y-99773938D01*
X164698126Y-99916632D01*
X164720106Y-99929476D01*
X164771955Y-99959774D01*
X164820679Y-100011412D01*
X164833750Y-100081195D01*
X164807019Y-100146967D01*
X164766562Y-100180327D01*
X164758457Y-100184546D01*
X164749738Y-100190036D01*
X164579433Y-100317905D01*
X164571726Y-100324748D01*
X164424590Y-100478717D01*
X164418104Y-100486727D01*
X164298098Y-100662649D01*
X164293000Y-100671623D01*
X164203338Y-100864783D01*
X164199775Y-100874470D01*
X164144389Y-101074183D01*
X164145912Y-101082607D01*
X164158292Y-101086000D01*
X165608000Y-101086000D01*
X165676121Y-101106002D01*
X165722614Y-101159658D01*
X165734000Y-101212000D01*
X165734000Y-101468000D01*
X165713998Y-101536121D01*
X165660342Y-101582614D01*
X165608000Y-101594000D01*
X164163225Y-101594000D01*
X164149694Y-101597973D01*
X164148257Y-101607966D01*
X164178565Y-101742446D01*
X164181645Y-101752275D01*
X164261770Y-101949603D01*
X164266413Y-101958794D01*
X164377694Y-102140388D01*
X164383777Y-102148699D01*
X164523213Y-102309667D01*
X164530580Y-102316883D01*
X164694434Y-102452916D01*
X164702881Y-102458831D01*
X164771969Y-102499203D01*
X164820693Y-102550842D01*
X164833764Y-102620625D01*
X164807033Y-102686396D01*
X164766584Y-102719752D01*
X164753607Y-102726507D01*
X164749474Y-102729610D01*
X164749471Y-102729612D01*
X164579100Y-102857530D01*
X164574965Y-102860635D01*
X164547451Y-102889427D01*
X164433709Y-103008451D01*
X164420629Y-103022138D01*
X164417715Y-103026410D01*
X164417714Y-103026411D01*
X164294863Y-103206504D01*
X164239952Y-103251507D01*
X164190775Y-103261500D01*
X161834624Y-103261500D01*
X161767110Y-103241885D01*
X161766330Y-103241390D01*
X161754608Y-103233951D01*
X161594300Y-103176868D01*
X161425329Y-103156720D01*
X161418326Y-103157456D01*
X161418325Y-103157456D01*
X161357670Y-103163831D01*
X161287832Y-103151059D01*
X161235985Y-103102557D01*
X161218500Y-103038521D01*
X161218500Y-102771866D01*
X161211745Y-102709684D01*
X161160615Y-102573295D01*
X161073261Y-102456739D01*
X160956705Y-102369385D01*
X160820316Y-102318255D01*
X160758134Y-102311500D01*
X160744500Y-102311500D01*
X160676379Y-102291498D01*
X160629886Y-102237842D01*
X160618500Y-102185500D01*
X160618500Y-99182059D01*
X160619059Y-99170203D01*
X160620789Y-99162463D01*
X160618562Y-99091611D01*
X160618500Y-99087653D01*
X160618500Y-99058568D01*
X160617946Y-99054179D01*
X160617013Y-99042337D01*
X160615811Y-99004094D01*
X160615562Y-98996169D01*
X160609580Y-98975579D01*
X160605570Y-98956216D01*
X160603875Y-98942796D01*
X160603875Y-98942795D01*
X160602882Y-98934936D01*
X160599966Y-98927571D01*
X160599965Y-98927567D01*
X160585874Y-98891979D01*
X160582035Y-98880769D01*
X160569145Y-98836400D01*
X160558225Y-98817935D01*
X160549534Y-98800195D01*
X160541635Y-98780244D01*
X160514482Y-98742871D01*
X160507967Y-98732952D01*
X160488493Y-98700023D01*
X160488490Y-98700019D01*
X160484453Y-98693193D01*
X160469289Y-98678029D01*
X160456448Y-98662995D01*
X160448501Y-98652057D01*
X160443841Y-98645643D01*
X160408247Y-98616197D01*
X160399468Y-98608208D01*
X159434355Y-97643095D01*
X159400329Y-97580783D01*
X159405394Y-97509968D01*
X159447941Y-97453132D01*
X159514461Y-97428321D01*
X159523450Y-97428000D01*
X159687885Y-97428000D01*
X159703124Y-97423525D01*
X159704329Y-97422135D01*
X159706000Y-97414452D01*
X159706000Y-97409884D01*
X160214000Y-97409884D01*
X160218475Y-97425123D01*
X160219865Y-97426328D01*
X160227548Y-97427999D01*
X160754669Y-97427999D01*
X160761490Y-97427629D01*
X160812352Y-97422105D01*
X160827604Y-97418479D01*
X160948054Y-97373324D01*
X160963649Y-97364786D01*
X161065724Y-97288285D01*
X161078285Y-97275724D01*
X161154786Y-97173649D01*
X161163324Y-97158054D01*
X161208478Y-97037606D01*
X161212105Y-97022351D01*
X161217631Y-96971486D01*
X161218000Y-96964672D01*
X161218000Y-96442115D01*
X161213525Y-96426876D01*
X161212135Y-96425671D01*
X161204452Y-96424000D01*
X160232115Y-96424000D01*
X160216876Y-96428475D01*
X160215671Y-96429865D01*
X160214000Y-96437548D01*
X160214000Y-97409884D01*
X159706000Y-97409884D01*
X159706000Y-96442115D01*
X159701525Y-96426876D01*
X159700135Y-96425671D01*
X159692452Y-96424000D01*
X158720116Y-96424000D01*
X158704877Y-96428475D01*
X158703672Y-96429865D01*
X158702001Y-96437548D01*
X158702001Y-96606551D01*
X158681999Y-96674672D01*
X158628343Y-96721165D01*
X158558069Y-96731269D01*
X158493489Y-96701775D01*
X158486906Y-96695646D01*
X158475404Y-96684144D01*
X158441378Y-96621832D01*
X158438499Y-96595049D01*
X158438499Y-96550012D01*
X158435629Y-96513534D01*
X158390269Y-96357404D01*
X158386233Y-96350579D01*
X158386231Y-96350575D01*
X158358769Y-96304139D01*
X158341309Y-96235323D01*
X158358769Y-96175861D01*
X158386231Y-96129425D01*
X158386233Y-96129421D01*
X158390269Y-96122596D01*
X158399015Y-96092494D01*
X158433834Y-95972644D01*
X158435629Y-95966466D01*
X158436135Y-95960047D01*
X158438307Y-95932444D01*
X158438307Y-95932438D01*
X158438500Y-95929989D01*
X158438499Y-95530012D01*
X158435629Y-95493534D01*
X158410678Y-95407652D01*
X158410881Y-95336657D01*
X158449435Y-95277041D01*
X158514099Y-95247732D01*
X158531675Y-95246500D01*
X158576000Y-95246500D01*
X158644121Y-95266502D01*
G37*
%TD.AperFunction*%
%TA.AperFunction,Conductor*%
G36*
X165686121Y-90008502D02*
G01*
X165732614Y-90062158D01*
X165744000Y-90114500D01*
X165744000Y-91169885D01*
X165748475Y-91185124D01*
X165749865Y-91186329D01*
X165757548Y-91188000D01*
X165791266Y-91188000D01*
X165797782Y-91187663D01*
X165889021Y-91178196D01*
X165902417Y-91175303D01*
X166049687Y-91126170D01*
X166062866Y-91119996D01*
X166194514Y-91038530D01*
X166205915Y-91029494D01*
X166315298Y-90919920D01*
X166324310Y-90908509D01*
X166405553Y-90776709D01*
X166411697Y-90763532D01*
X166445907Y-90660392D01*
X166486337Y-90602032D01*
X166551902Y-90574795D01*
X166621783Y-90587328D01*
X166673795Y-90635653D01*
X166691500Y-90700059D01*
X166691500Y-92280621D01*
X166671498Y-92348742D01*
X166617842Y-92395235D01*
X166547568Y-92405339D01*
X166521271Y-92398603D01*
X166447718Y-92371029D01*
X166447712Y-92371027D01*
X166440316Y-92368255D01*
X166378134Y-92361500D01*
X166138601Y-92361500D01*
X166070480Y-92341498D01*
X166051948Y-92326972D01*
X166009617Y-92286871D01*
X166007175Y-92284494D01*
X165125776Y-91403095D01*
X165091750Y-91340783D01*
X165096815Y-91269968D01*
X165139362Y-91213132D01*
X165205882Y-91188321D01*
X165214871Y-91188000D01*
X165217885Y-91188000D01*
X165233124Y-91183525D01*
X165234329Y-91182135D01*
X165236000Y-91174452D01*
X165236000Y-90114500D01*
X165256002Y-90046379D01*
X165309658Y-89999886D01*
X165362000Y-89988500D01*
X165618000Y-89988500D01*
X165686121Y-90008502D01*
G37*
%TD.AperFunction*%
%TA.AperFunction,Conductor*%
G36*
X163978160Y-83209289D02*
G01*
X164015563Y-83213494D01*
X164033424Y-83210381D01*
X164056775Y-83208523D01*
X164192387Y-83210382D01*
X164303194Y-83211901D01*
X164317319Y-83212890D01*
X164589661Y-83247427D01*
X164603586Y-83249995D01*
X164870327Y-83314871D01*
X164883876Y-83318985D01*
X165141661Y-83413382D01*
X165154663Y-83418991D01*
X165400216Y-83541710D01*
X165412506Y-83548741D01*
X165642753Y-83698246D01*
X165654177Y-83706613D01*
X165866184Y-83880999D01*
X165876597Y-83890594D01*
X165926932Y-83942501D01*
X166067713Y-84087681D01*
X166076972Y-84098371D01*
X166160870Y-84207014D01*
X166244761Y-84315650D01*
X166252772Y-84327325D01*
X166395121Y-84562054D01*
X166401772Y-84574555D01*
X166516888Y-84823783D01*
X166522093Y-84836951D01*
X166527595Y-84853538D01*
X166599275Y-85069647D01*
X166608514Y-85097503D01*
X166612209Y-85111169D01*
X166666206Y-85367240D01*
X166668852Y-85379790D01*
X166670990Y-85393787D01*
X166697134Y-85667051D01*
X166697689Y-85681200D01*
X166693612Y-85920216D01*
X166690377Y-85946511D01*
X166688147Y-85956134D01*
X166688656Y-85965097D01*
X166688656Y-85965100D01*
X166691297Y-86011579D01*
X166691500Y-86018726D01*
X166691500Y-86687428D01*
X166671498Y-86755549D01*
X166617842Y-86802042D01*
X166547568Y-86812146D01*
X166501361Y-86795882D01*
X166379419Y-86723766D01*
X166379418Y-86723766D01*
X166372596Y-86719731D01*
X166364985Y-86717520D01*
X166364983Y-86717519D01*
X166256214Y-86685919D01*
X166216466Y-86674371D01*
X166210059Y-86673867D01*
X166210055Y-86673866D01*
X166182444Y-86671693D01*
X166182438Y-86671693D01*
X166179989Y-86671500D01*
X165980122Y-86671500D01*
X165780012Y-86671501D01*
X165743534Y-86674371D01*
X165646730Y-86702495D01*
X165595017Y-86717519D01*
X165595015Y-86717520D01*
X165587404Y-86719731D01*
X165580583Y-86723765D01*
X165580576Y-86723768D01*
X165534139Y-86751231D01*
X165465323Y-86768691D01*
X165405861Y-86751231D01*
X165359424Y-86723768D01*
X165359417Y-86723765D01*
X165352596Y-86719731D01*
X165344985Y-86717520D01*
X165344983Y-86717519D01*
X165236214Y-86685919D01*
X165196466Y-86674371D01*
X165190059Y-86673867D01*
X165190055Y-86673866D01*
X165162444Y-86671693D01*
X165162438Y-86671693D01*
X165159989Y-86671500D01*
X164960122Y-86671500D01*
X164760012Y-86671501D01*
X164723534Y-86674371D01*
X164626730Y-86702495D01*
X164575017Y-86717519D01*
X164575015Y-86717520D01*
X164567404Y-86719731D01*
X164560582Y-86723766D01*
X164560581Y-86723766D01*
X164442689Y-86793487D01*
X164427459Y-86802494D01*
X164387668Y-86842285D01*
X164325356Y-86876311D01*
X164254541Y-86871246D01*
X164232457Y-86860450D01*
X164193968Y-86836725D01*
X164193966Y-86836724D01*
X164187738Y-86832885D01*
X164105343Y-86805556D01*
X164026389Y-86779368D01*
X164026387Y-86779368D01*
X164019861Y-86777203D01*
X164013025Y-86776503D01*
X164013022Y-86776502D01*
X163969969Y-86772091D01*
X163915400Y-86766500D01*
X162564600Y-86766500D01*
X162561354Y-86766837D01*
X162561350Y-86766837D01*
X162465692Y-86776762D01*
X162465688Y-86776763D01*
X162458834Y-86777474D01*
X162452298Y-86779655D01*
X162452296Y-86779655D01*
X162342375Y-86816328D01*
X162291054Y-86833450D01*
X162140652Y-86926522D01*
X162015695Y-87051697D01*
X161922885Y-87202262D01*
X161867203Y-87370139D01*
X161856500Y-87474600D01*
X161856500Y-88035611D01*
X161836498Y-88103732D01*
X161782842Y-88150225D01*
X161712568Y-88160329D01*
X161650184Y-88132696D01*
X161531138Y-88034213D01*
X161520973Y-88027356D01*
X161357924Y-87939196D01*
X161346619Y-87934444D01*
X161231308Y-87898750D01*
X161217205Y-87898544D01*
X161214000Y-87905299D01*
X161214000Y-89398000D01*
X161193998Y-89466121D01*
X161140342Y-89512614D01*
X161088000Y-89524000D01*
X160832000Y-89524000D01*
X160763879Y-89503998D01*
X160717386Y-89450342D01*
X160706000Y-89398000D01*
X160706000Y-87912076D01*
X160702027Y-87898545D01*
X160694232Y-87897425D01*
X160586479Y-87929138D01*
X160575111Y-87933731D01*
X160410846Y-88019607D01*
X160400585Y-88026321D01*
X160256127Y-88142468D01*
X160247368Y-88151046D01*
X160128222Y-88293039D01*
X160121292Y-88303159D01*
X160031998Y-88465585D01*
X160027166Y-88476858D01*
X159971120Y-88653538D01*
X159968570Y-88665532D01*
X159952393Y-88809761D01*
X159952000Y-88816785D01*
X159952000Y-88936000D01*
X159931998Y-89004121D01*
X159878342Y-89050614D01*
X159826000Y-89062000D01*
X159662115Y-89062000D01*
X159646876Y-89066475D01*
X159645671Y-89067865D01*
X159644000Y-89075548D01*
X159644000Y-90398000D01*
X159623998Y-90466121D01*
X159570342Y-90512614D01*
X159518000Y-90524000D01*
X159262000Y-90524000D01*
X159193879Y-90503998D01*
X159147386Y-90450342D01*
X159136000Y-90398000D01*
X159136000Y-89080116D01*
X159131525Y-89064877D01*
X159130135Y-89063672D01*
X159122452Y-89062001D01*
X158945331Y-89062001D01*
X158938510Y-89062371D01*
X158887650Y-89067895D01*
X158872393Y-89071522D01*
X158794941Y-89100557D01*
X158724134Y-89105740D01*
X158706483Y-89100557D01*
X158627711Y-89071027D01*
X158627709Y-89071027D01*
X158620316Y-89068255D01*
X158612468Y-89067402D01*
X158612466Y-89067402D01*
X158561531Y-89061869D01*
X158558134Y-89061500D01*
X157761866Y-89061500D01*
X157699684Y-89068255D01*
X157692284Y-89071029D01*
X157684600Y-89072856D01*
X157684167Y-89071035D01*
X157623430Y-89075485D01*
X157610552Y-89071703D01*
X157607713Y-89071028D01*
X157600316Y-89068255D01*
X157538134Y-89061500D01*
X156741866Y-89061500D01*
X156679684Y-89068255D01*
X156672285Y-89071029D01*
X156669146Y-89071775D01*
X156610854Y-89071775D01*
X156607715Y-89071029D01*
X156600316Y-89068255D01*
X156538134Y-89061500D01*
X155741866Y-89061500D01*
X155679684Y-89068255D01*
X155672284Y-89071029D01*
X155664600Y-89072856D01*
X155664167Y-89071035D01*
X155603430Y-89075485D01*
X155590552Y-89071703D01*
X155587713Y-89071028D01*
X155580316Y-89068255D01*
X155518134Y-89061500D01*
X154721866Y-89061500D01*
X154718469Y-89061869D01*
X154667534Y-89067402D01*
X154667532Y-89067402D01*
X154659684Y-89068255D01*
X154652291Y-89071027D01*
X154652289Y-89071027D01*
X154573517Y-89100557D01*
X154502710Y-89105740D01*
X154485059Y-89100557D01*
X154407602Y-89071520D01*
X154392357Y-89067895D01*
X154341486Y-89062369D01*
X154334672Y-89062000D01*
X154162115Y-89062000D01*
X154146876Y-89066475D01*
X154145671Y-89067865D01*
X154144000Y-89075548D01*
X154144000Y-91459884D01*
X154148475Y-91475123D01*
X154149865Y-91476328D01*
X154157548Y-91477999D01*
X154334669Y-91477999D01*
X154341490Y-91477629D01*
X154392350Y-91472105D01*
X154407607Y-91468478D01*
X154485059Y-91439443D01*
X154555866Y-91434260D01*
X154573517Y-91439443D01*
X154617134Y-91455794D01*
X154662000Y-91484681D01*
X155096230Y-91918911D01*
X155108616Y-91933323D01*
X155117149Y-91944918D01*
X155117154Y-91944923D01*
X155121492Y-91950818D01*
X155127070Y-91955557D01*
X155127073Y-91955560D01*
X155161768Y-91985035D01*
X155169284Y-91991965D01*
X155174980Y-91997661D01*
X155177841Y-91999924D01*
X155177846Y-91999929D01*
X155197256Y-92015285D01*
X155200658Y-92018074D01*
X155250706Y-92060594D01*
X155250710Y-92060597D01*
X155250886Y-92060746D01*
X155256285Y-92065333D01*
X155255500Y-92066257D01*
X155296400Y-92115108D01*
X155305312Y-92185543D01*
X155274728Y-92249615D01*
X155214360Y-92286981D01*
X155180916Y-92291500D01*
X154376371Y-92291500D01*
X154308250Y-92271498D01*
X154287276Y-92254595D01*
X153657155Y-91624474D01*
X153623129Y-91562162D01*
X153628194Y-91491347D01*
X153631282Y-91486143D01*
X153636000Y-91464452D01*
X153636000Y-89080116D01*
X153631525Y-89064877D01*
X153630135Y-89063672D01*
X153622452Y-89062001D01*
X153454000Y-89062001D01*
X153385879Y-89041999D01*
X153339386Y-88988343D01*
X153328000Y-88936001D01*
X153328000Y-88823343D01*
X153327699Y-88817195D01*
X153314188Y-88679397D01*
X153311805Y-88667362D01*
X153258233Y-88489924D01*
X153253559Y-88478584D01*
X153166540Y-88314923D01*
X153159751Y-88304706D01*
X153042603Y-88161067D01*
X153033959Y-88152363D01*
X152891144Y-88034216D01*
X152880973Y-88027356D01*
X152717924Y-87939196D01*
X152706619Y-87934444D01*
X152591308Y-87898750D01*
X152577205Y-87898544D01*
X152574000Y-87905299D01*
X152574000Y-89398000D01*
X152553998Y-89466121D01*
X152500342Y-89512614D01*
X152448000Y-89524000D01*
X152192000Y-89524000D01*
X152123879Y-89503998D01*
X152077386Y-89450342D01*
X152066000Y-89398000D01*
X152066000Y-87912076D01*
X152062027Y-87898545D01*
X152054232Y-87897425D01*
X151946479Y-87929138D01*
X151935111Y-87933731D01*
X151770846Y-88019607D01*
X151760585Y-88026321D01*
X151616127Y-88142468D01*
X151607368Y-88151046D01*
X151488222Y-88293039D01*
X151481292Y-88303159D01*
X151391998Y-88465585D01*
X151387166Y-88476858D01*
X151331120Y-88653538D01*
X151328570Y-88665532D01*
X151312393Y-88809761D01*
X151312000Y-88816785D01*
X151312000Y-88975129D01*
X151291998Y-89043250D01*
X151238342Y-89089743D01*
X151168068Y-89099847D01*
X151103488Y-89070353D01*
X151096905Y-89064224D01*
X150515405Y-88482724D01*
X150481379Y-88420412D01*
X150478500Y-88393629D01*
X150478500Y-88253168D01*
X150486518Y-88208939D01*
X150504973Y-88159711D01*
X150504973Y-88159709D01*
X150507745Y-88152316D01*
X150509877Y-88132696D01*
X150514131Y-88093531D01*
X150514500Y-88090134D01*
X150514500Y-86993866D01*
X150514131Y-86990469D01*
X150508598Y-86939534D01*
X150508598Y-86939532D01*
X150507745Y-86931684D01*
X150473858Y-86841290D01*
X150468675Y-86770485D01*
X150470843Y-86761909D01*
X150472557Y-86756012D01*
X150487149Y-86705784D01*
X150503812Y-86648431D01*
X150503813Y-86648426D01*
X150505606Y-86642254D01*
X150506817Y-86626876D01*
X150508307Y-86607940D01*
X150508307Y-86607932D01*
X150508500Y-86605484D01*
X150508500Y-86134516D01*
X150506809Y-86113031D01*
X150506111Y-86104156D01*
X150506110Y-86104151D01*
X150505606Y-86097746D01*
X150459894Y-85940403D01*
X150447956Y-85920216D01*
X150445851Y-85916657D01*
X151312000Y-85916657D01*
X151312301Y-85922805D01*
X151325812Y-86060603D01*
X151328195Y-86072638D01*
X151381767Y-86250076D01*
X151386441Y-86261416D01*
X151473460Y-86425077D01*
X151480249Y-86435294D01*
X151597397Y-86578933D01*
X151606041Y-86587637D01*
X151748856Y-86705784D01*
X151759027Y-86712644D01*
X151922076Y-86800804D01*
X151933381Y-86805556D01*
X152048692Y-86841250D01*
X152062795Y-86841456D01*
X152066000Y-86834701D01*
X152066000Y-86827924D01*
X152574000Y-86827924D01*
X152577973Y-86841455D01*
X152585768Y-86842575D01*
X152693521Y-86810862D01*
X152704889Y-86806269D01*
X152869154Y-86720393D01*
X152879415Y-86713679D01*
X153023873Y-86597532D01*
X153032632Y-86588954D01*
X153151778Y-86446961D01*
X153158708Y-86436841D01*
X153248002Y-86274415D01*
X153252834Y-86263142D01*
X153308880Y-86086462D01*
X153311430Y-86074468D01*
X153327607Y-85930239D01*
X153328000Y-85923215D01*
X153328000Y-85916657D01*
X159952000Y-85916657D01*
X159952301Y-85922805D01*
X159965812Y-86060603D01*
X159968195Y-86072638D01*
X160021767Y-86250076D01*
X160026441Y-86261416D01*
X160113460Y-86425077D01*
X160120249Y-86435294D01*
X160237397Y-86578933D01*
X160246041Y-86587637D01*
X160388856Y-86705784D01*
X160399027Y-86712644D01*
X160562076Y-86800804D01*
X160573381Y-86805556D01*
X160688692Y-86841250D01*
X160702795Y-86841456D01*
X160706000Y-86834701D01*
X160706000Y-86827924D01*
X161214000Y-86827924D01*
X161217973Y-86841455D01*
X161225768Y-86842575D01*
X161333521Y-86810862D01*
X161344889Y-86806269D01*
X161509154Y-86720393D01*
X161519415Y-86713679D01*
X161663873Y-86597532D01*
X161672632Y-86588954D01*
X161791778Y-86446961D01*
X161798708Y-86436841D01*
X161888002Y-86274415D01*
X161892834Y-86263142D01*
X161948880Y-86086462D01*
X161951430Y-86074468D01*
X161967607Y-85930239D01*
X161968000Y-85923215D01*
X161968000Y-85742115D01*
X161963525Y-85726876D01*
X161962135Y-85725671D01*
X161954452Y-85724000D01*
X161232115Y-85724000D01*
X161216876Y-85728475D01*
X161215671Y-85729865D01*
X161214000Y-85737548D01*
X161214000Y-86827924D01*
X160706000Y-86827924D01*
X160706000Y-85742115D01*
X160701525Y-85726876D01*
X160700135Y-85725671D01*
X160692452Y-85724000D01*
X159970115Y-85724000D01*
X159954876Y-85728475D01*
X159953671Y-85729865D01*
X159952000Y-85737548D01*
X159952000Y-85916657D01*
X153328000Y-85916657D01*
X153328000Y-85742115D01*
X153323525Y-85726876D01*
X153322135Y-85725671D01*
X153314452Y-85724000D01*
X152592115Y-85724000D01*
X152576876Y-85728475D01*
X152575671Y-85729865D01*
X152574000Y-85737548D01*
X152574000Y-86827924D01*
X152066000Y-86827924D01*
X152066000Y-85742115D01*
X152061525Y-85726876D01*
X152060135Y-85725671D01*
X152052452Y-85724000D01*
X151330115Y-85724000D01*
X151314876Y-85728475D01*
X151313671Y-85729865D01*
X151312000Y-85737548D01*
X151312000Y-85916657D01*
X150445851Y-85916657D01*
X150380522Y-85806192D01*
X150376488Y-85799371D01*
X150260629Y-85683512D01*
X150226353Y-85663241D01*
X150126420Y-85604141D01*
X150126419Y-85604141D01*
X150119597Y-85600106D01*
X150111986Y-85597895D01*
X150111984Y-85597894D01*
X150038144Y-85576442D01*
X149962254Y-85554394D01*
X149955849Y-85553890D01*
X149955844Y-85553889D01*
X149927940Y-85551693D01*
X149927932Y-85551693D01*
X149925484Y-85551500D01*
X149514516Y-85551500D01*
X149512068Y-85551693D01*
X149512060Y-85551693D01*
X149484156Y-85553889D01*
X149484151Y-85553890D01*
X149477746Y-85554394D01*
X149401856Y-85576442D01*
X149328016Y-85597894D01*
X149328014Y-85597895D01*
X149320403Y-85600106D01*
X149313576Y-85604143D01*
X149313577Y-85604143D01*
X149303647Y-85610015D01*
X149234830Y-85627474D01*
X149175372Y-85610016D01*
X149166222Y-85604605D01*
X149151784Y-85598357D01*
X149031395Y-85563381D01*
X149017295Y-85563421D01*
X149014000Y-85570691D01*
X149014000Y-85848621D01*
X148996454Y-85912760D01*
X148980106Y-85940403D01*
X148934394Y-86097746D01*
X148933890Y-86104151D01*
X148933889Y-86104156D01*
X148933191Y-86113031D01*
X148931500Y-86134516D01*
X148931500Y-86605484D01*
X148931693Y-86607932D01*
X148931693Y-86607940D01*
X148933889Y-86635841D01*
X148934394Y-86642254D01*
X148936189Y-86648431D01*
X148942497Y-86670144D01*
X148947500Y-86705297D01*
X148947500Y-86793487D01*
X148939482Y-86837716D01*
X148907029Y-86924285D01*
X148904255Y-86931684D01*
X148903402Y-86939532D01*
X148903402Y-86939534D01*
X148897869Y-86990469D01*
X148897500Y-86993866D01*
X148897500Y-87670000D01*
X148877498Y-87738121D01*
X148823842Y-87784614D01*
X148771500Y-87796000D01*
X148740500Y-87796000D01*
X148672379Y-87775998D01*
X148625886Y-87722342D01*
X148614500Y-87670000D01*
X148614500Y-86993866D01*
X148607745Y-86931684D01*
X148556615Y-86795295D01*
X148527174Y-86756012D01*
X148502326Y-86689506D01*
X148502000Y-86680447D01*
X148502000Y-86642115D01*
X148497525Y-86626876D01*
X148496135Y-86625671D01*
X148488452Y-86624000D01*
X148438198Y-86624000D01*
X148370077Y-86603998D01*
X148362631Y-86598824D01*
X148359893Y-86596772D01*
X148359892Y-86596772D01*
X148352705Y-86591385D01*
X148216316Y-86540255D01*
X148154134Y-86533500D01*
X147457866Y-86533500D01*
X147395684Y-86540255D01*
X147259295Y-86591385D01*
X147142739Y-86678739D01*
X147055385Y-86795295D01*
X147004255Y-86931684D01*
X146997500Y-86993866D01*
X146997500Y-88090134D01*
X146997869Y-88093531D01*
X147002124Y-88132696D01*
X147004255Y-88152316D01*
X147007027Y-88159709D01*
X147007027Y-88159711D01*
X147039482Y-88246284D01*
X147047500Y-88290513D01*
X147047500Y-88378930D01*
X147046067Y-88397880D01*
X147042801Y-88419349D01*
X147043394Y-88426641D01*
X147043394Y-88426644D01*
X147047085Y-88472018D01*
X147047500Y-88482233D01*
X147047500Y-88490293D01*
X147047925Y-88493937D01*
X147050789Y-88518507D01*
X147051222Y-88522882D01*
X147057140Y-88595637D01*
X147059396Y-88602601D01*
X147060587Y-88608560D01*
X147061971Y-88614415D01*
X147062818Y-88621681D01*
X147087735Y-88690327D01*
X147089152Y-88694455D01*
X147109311Y-88756681D01*
X147111649Y-88763899D01*
X147115445Y-88770154D01*
X147117951Y-88775628D01*
X147120670Y-88781058D01*
X147123167Y-88787937D01*
X147127180Y-88794057D01*
X147127180Y-88794058D01*
X147163186Y-88848976D01*
X147165523Y-88852680D01*
X147203405Y-88915107D01*
X147207121Y-88919315D01*
X147207122Y-88919316D01*
X147210803Y-88923484D01*
X147210776Y-88923508D01*
X147213429Y-88926500D01*
X147216132Y-88929733D01*
X147220144Y-88935852D01*
X147225456Y-88940884D01*
X147276383Y-88989128D01*
X147278825Y-88991506D01*
X147283137Y-88995818D01*
X147317163Y-89058130D01*
X147312098Y-89128945D01*
X147269551Y-89185781D01*
X147263002Y-89189995D01*
X147259295Y-89191385D01*
X147142739Y-89278739D01*
X147055385Y-89395295D01*
X147004255Y-89531684D01*
X146997500Y-89593866D01*
X146997500Y-90690134D01*
X147004255Y-90752316D01*
X147055385Y-90888705D01*
X147142739Y-91005261D01*
X147259295Y-91092615D01*
X147395684Y-91143745D01*
X147457866Y-91150500D01*
X148154134Y-91150500D01*
X148216316Y-91143745D01*
X148352705Y-91092615D01*
X148359892Y-91087229D01*
X148367760Y-91082921D01*
X148369281Y-91085698D01*
X148421143Y-91066325D01*
X148430193Y-91066000D01*
X148487885Y-91066000D01*
X148503124Y-91061525D01*
X148504329Y-91060135D01*
X148506000Y-91052452D01*
X148506000Y-90998216D01*
X148526002Y-90930095D01*
X148531174Y-90922651D01*
X148551229Y-90895892D01*
X148551230Y-90895890D01*
X148556615Y-90888705D01*
X148607745Y-90752316D01*
X148614500Y-90690134D01*
X148614500Y-89593866D01*
X148614131Y-89590467D01*
X148609095Y-89544107D01*
X148621624Y-89474224D01*
X148669945Y-89422209D01*
X148734358Y-89404500D01*
X148777642Y-89404500D01*
X148845763Y-89424502D01*
X148892256Y-89478158D01*
X148902905Y-89544107D01*
X148897869Y-89590467D01*
X148897500Y-89593866D01*
X148897500Y-90690134D01*
X148904255Y-90752316D01*
X148939121Y-90845321D01*
X148954899Y-90887408D01*
X148960082Y-90958215D01*
X148957914Y-90966791D01*
X148937072Y-91038530D01*
X148934394Y-91047746D01*
X148933890Y-91054151D01*
X148933889Y-91054156D01*
X148931693Y-91082060D01*
X148931500Y-91084516D01*
X148931500Y-91448000D01*
X148911498Y-91516121D01*
X148857842Y-91562614D01*
X148805500Y-91574000D01*
X147991576Y-91574000D01*
X147976781Y-91578344D01*
X147974937Y-91588775D01*
X147976688Y-91598359D01*
X148018357Y-91741784D01*
X148024604Y-91756220D01*
X148099876Y-91883499D01*
X148109516Y-91895926D01*
X148214074Y-92000484D01*
X148226501Y-92010124D01*
X148353780Y-92085396D01*
X148364101Y-92089862D01*
X148418676Y-92135272D01*
X148440037Y-92202979D01*
X148421402Y-92271486D01*
X148368687Y-92319043D01*
X148314062Y-92331500D01*
X146871866Y-92331500D01*
X146809684Y-92338255D01*
X146678728Y-92387348D01*
X146607923Y-92392531D01*
X146545554Y-92358610D01*
X146511424Y-92296355D01*
X146508500Y-92269366D01*
X146508500Y-86099609D01*
X147975232Y-86099609D01*
X147978052Y-86113031D01*
X147989513Y-86116000D01*
X148487885Y-86116000D01*
X148503124Y-86111525D01*
X148504329Y-86110135D01*
X148506000Y-86102452D01*
X148506000Y-85576442D01*
X148502027Y-85562911D01*
X148494129Y-85561776D01*
X148368216Y-85598357D01*
X148353780Y-85604604D01*
X148226501Y-85679876D01*
X148214074Y-85689516D01*
X148109516Y-85794074D01*
X148099876Y-85806501D01*
X148024604Y-85933780D01*
X148018357Y-85948216D01*
X147976688Y-86091641D01*
X147975232Y-86099609D01*
X146508500Y-86099609D01*
X146508500Y-86024930D01*
X146508872Y-86015252D01*
X146511942Y-85975396D01*
X146512632Y-85966445D01*
X146508975Y-85949083D01*
X146506293Y-85925548D01*
X146501362Y-85670590D01*
X146501932Y-85655933D01*
X146529354Y-85374550D01*
X146531623Y-85360062D01*
X146563847Y-85211525D01*
X146566806Y-85197885D01*
X151312000Y-85197885D01*
X151316475Y-85213124D01*
X151317865Y-85214329D01*
X151325548Y-85216000D01*
X152047885Y-85216000D01*
X152063124Y-85211525D01*
X152064329Y-85210135D01*
X152066000Y-85202452D01*
X152066000Y-85197885D01*
X152574000Y-85197885D01*
X152578475Y-85213124D01*
X152579865Y-85214329D01*
X152587548Y-85216000D01*
X153309885Y-85216000D01*
X153325124Y-85211525D01*
X153326329Y-85210135D01*
X153328000Y-85202452D01*
X153328000Y-85197885D01*
X159952000Y-85197885D01*
X159956475Y-85213124D01*
X159957865Y-85214329D01*
X159965548Y-85216000D01*
X160687885Y-85216000D01*
X160703124Y-85211525D01*
X160704329Y-85210135D01*
X160706000Y-85202452D01*
X160706000Y-85197885D01*
X161214000Y-85197885D01*
X161218475Y-85213124D01*
X161219865Y-85214329D01*
X161227548Y-85216000D01*
X161949885Y-85216000D01*
X161965124Y-85211525D01*
X161966329Y-85210135D01*
X161968000Y-85202452D01*
X161968000Y-85023343D01*
X161967699Y-85017195D01*
X161954188Y-84879397D01*
X161951805Y-84867362D01*
X161898233Y-84689924D01*
X161893559Y-84678584D01*
X161806540Y-84514923D01*
X161799751Y-84504706D01*
X161682603Y-84361067D01*
X161673959Y-84352363D01*
X161531144Y-84234216D01*
X161520973Y-84227356D01*
X161357924Y-84139196D01*
X161346619Y-84134444D01*
X161231308Y-84098750D01*
X161217205Y-84098544D01*
X161214000Y-84105299D01*
X161214000Y-85197885D01*
X160706000Y-85197885D01*
X160706000Y-84112076D01*
X160702027Y-84098545D01*
X160694232Y-84097425D01*
X160586479Y-84129138D01*
X160575111Y-84133731D01*
X160410846Y-84219607D01*
X160400585Y-84226321D01*
X160256127Y-84342468D01*
X160247368Y-84351046D01*
X160128222Y-84493039D01*
X160121292Y-84503159D01*
X160031998Y-84665585D01*
X160027166Y-84676858D01*
X159971120Y-84853538D01*
X159968570Y-84865532D01*
X159952393Y-85009761D01*
X159952000Y-85016785D01*
X159952000Y-85197885D01*
X153328000Y-85197885D01*
X153328000Y-85023343D01*
X153327699Y-85017195D01*
X153314188Y-84879397D01*
X153311805Y-84867362D01*
X153258233Y-84689924D01*
X153253559Y-84678584D01*
X153166540Y-84514923D01*
X153159751Y-84504706D01*
X153042603Y-84361067D01*
X153033959Y-84352363D01*
X152891144Y-84234216D01*
X152880973Y-84227356D01*
X152717924Y-84139196D01*
X152706619Y-84134444D01*
X152591308Y-84098750D01*
X152577205Y-84098544D01*
X152574000Y-84105299D01*
X152574000Y-85197885D01*
X152066000Y-85197885D01*
X152066000Y-84112076D01*
X152062027Y-84098545D01*
X152054232Y-84097425D01*
X151946479Y-84129138D01*
X151935111Y-84133731D01*
X151770846Y-84219607D01*
X151760585Y-84226321D01*
X151616127Y-84342468D01*
X151607368Y-84351046D01*
X151488222Y-84493039D01*
X151481292Y-84503159D01*
X151391998Y-84665585D01*
X151387166Y-84676858D01*
X151331120Y-84853538D01*
X151328570Y-84865532D01*
X151312393Y-85009761D01*
X151312000Y-85016785D01*
X151312000Y-85197885D01*
X146566806Y-85197885D01*
X146591561Y-85083774D01*
X146595499Y-85069647D01*
X146687142Y-84802197D01*
X146692697Y-84788621D01*
X146814798Y-84533642D01*
X146821893Y-84520803D01*
X146972800Y-84281743D01*
X146981339Y-84269815D01*
X147159012Y-84049908D01*
X147168879Y-84039054D01*
X147370905Y-83841288D01*
X147381966Y-83831655D01*
X147605606Y-83658708D01*
X147617713Y-83650425D01*
X147859934Y-83504645D01*
X147872921Y-83497825D01*
X148130451Y-83381181D01*
X148144143Y-83375917D01*
X148413479Y-83289995D01*
X148427689Y-83286358D01*
X148614422Y-83249995D01*
X148705190Y-83232320D01*
X148719721Y-83230360D01*
X148966569Y-83211603D01*
X148993303Y-83212419D01*
X149002764Y-83213722D01*
X149011640Y-83212402D01*
X149011646Y-83212402D01*
X149028667Y-83209871D01*
X149047200Y-83208500D01*
X163964083Y-83208500D01*
X163978160Y-83209289D01*
G37*
%TD.AperFunction*%
%TA.AperFunction,Conductor*%
G36*
X166621784Y-89013920D02*
G01*
X166673796Y-89062245D01*
X166691500Y-89126650D01*
X166691500Y-89784764D01*
X166671498Y-89852885D01*
X166617842Y-89899378D01*
X166547568Y-89909482D01*
X166482988Y-89879988D01*
X166445976Y-89824640D01*
X166411170Y-89720313D01*
X166404996Y-89707134D01*
X166323530Y-89575486D01*
X166314494Y-89564085D01*
X166294842Y-89544467D01*
X166260763Y-89482184D01*
X166265766Y-89411364D01*
X166294686Y-89366277D01*
X166315692Y-89345234D01*
X166320864Y-89340053D01*
X166409849Y-89195692D01*
X166432750Y-89126650D01*
X166445907Y-89086982D01*
X166486338Y-89028623D01*
X166551902Y-89001386D01*
X166621784Y-89013920D01*
G37*
%TD.AperFunction*%
%TD*%
M02*
