%TF.GenerationSoftware,KiCad,Pcbnew,(6.0.8)*%
%TF.CreationDate,2022-10-12T16:14:51+08:00*%
%TF.ProjectId,UINIO-MCU-STM32L051K8,55494e49-4f2d-44d4-9355-2d53544d3332,rev?*%
%TF.SameCoordinates,Original*%
%TF.FileFunction,Legend,Top*%
%TF.FilePolarity,Positive*%
%FSLAX46Y46*%
G04 Gerber Fmt 4.6, Leading zero omitted, Abs format (unit mm)*
G04 Created by KiCad (PCBNEW (6.0.8)) date 2022-10-12 16:14:51*
%MOMM*%
%LPD*%
G01*
G04 APERTURE LIST*
G04 Aperture macros list*
%AMRoundRect*
0 Rectangle with rounded corners*
0 $1 Rounding radius*
0 $2 $3 $4 $5 $6 $7 $8 $9 X,Y pos of 4 corners*
0 Add a 4 corners polygon primitive as box body*
4,1,4,$2,$3,$4,$5,$6,$7,$8,$9,$2,$3,0*
0 Add four circle primitives for the rounded corners*
1,1,$1+$1,$2,$3*
1,1,$1+$1,$4,$5*
1,1,$1+$1,$6,$7*
1,1,$1+$1,$8,$9*
0 Add four rect primitives between the rounded corners*
20,1,$1+$1,$2,$3,$4,$5,0*
20,1,$1+$1,$4,$5,$6,$7,0*
20,1,$1+$1,$6,$7,$8,$9,0*
20,1,$1+$1,$8,$9,$2,$3,0*%
%AMRotRect*
0 Rectangle, with rotation*
0 The origin of the aperture is its center*
0 $1 length*
0 $2 width*
0 $3 Rotation angle, in degrees counterclockwise*
0 Add horizontal line*
21,1,$1,$2,0,0,$3*%
G04 Aperture macros list end*
%ADD10C,0.100000*%
%ADD11C,0.150000*%
%ADD12C,0.137500*%
%ADD13C,0.120000*%
%ADD14C,0.254000*%
%ADD15RoundRect,0.135000X-0.135000X-0.185000X0.135000X-0.185000X0.135000X0.185000X-0.135000X0.185000X0*%
%ADD16RoundRect,0.140000X-0.140000X-0.170000X0.140000X-0.170000X0.140000X0.170000X-0.140000X0.170000X0*%
%ADD17RoundRect,0.250000X-0.375000X-0.625000X0.375000X-0.625000X0.375000X0.625000X-0.375000X0.625000X0*%
%ADD18RoundRect,0.140000X0.140000X0.170000X-0.140000X0.170000X-0.140000X-0.170000X0.140000X-0.170000X0*%
%ADD19C,1.200000*%
%ADD20RotRect,0.600000X0.300000X315.000000*%
%ADD21RotRect,0.600000X0.300000X45.000000*%
%ADD22RotRect,0.600000X0.300000X135.000000*%
%ADD23RotRect,0.600000X0.300000X225.000000*%
%ADD24RotRect,3.450000X3.450000X225.000000*%
%ADD25RoundRect,0.135000X-0.185000X0.135000X-0.185000X-0.135000X0.185000X-0.135000X0.185000X0.135000X0*%
%ADD26R,1.700000X1.700000*%
%ADD27O,1.700000X1.700000*%
%ADD28O,1.800000X1.000000*%
%ADD29R,1.400000X0.700000*%
%ADD30R,1.400000X0.800000*%
%ADD31R,1.500000X1.500000*%
%ADD32RoundRect,0.218750X0.218750X0.256250X-0.218750X0.256250X-0.218750X-0.256250X0.218750X-0.256250X0*%
%ADD33RoundRect,0.140000X0.170000X-0.140000X0.170000X0.140000X-0.170000X0.140000X-0.170000X-0.140000X0*%
%ADD34RoundRect,0.140000X-0.170000X0.140000X-0.170000X-0.140000X0.170000X-0.140000X0.170000X0.140000X0*%
%ADD35R,1.400000X1.200000*%
%ADD36R,1.000000X0.600000*%
G04 APERTURE END LIST*
D10*
X157841428Y-94062857D02*
X157241428Y-94062857D01*
X157241428Y-93834285D01*
X157270000Y-93777142D01*
X157298571Y-93748571D01*
X157355714Y-93720000D01*
X157441428Y-93720000D01*
X157498571Y-93748571D01*
X157527142Y-93777142D01*
X157555714Y-93834285D01*
X157555714Y-94062857D01*
X157527142Y-93262857D02*
X157555714Y-93177142D01*
X157584285Y-93148571D01*
X157641428Y-93120000D01*
X157727142Y-93120000D01*
X157784285Y-93148571D01*
X157812857Y-93177142D01*
X157841428Y-93234285D01*
X157841428Y-93462857D01*
X157241428Y-93462857D01*
X157241428Y-93262857D01*
X157270000Y-93205714D01*
X157298571Y-93177142D01*
X157355714Y-93148571D01*
X157412857Y-93148571D01*
X157470000Y-93177142D01*
X157498571Y-93205714D01*
X157527142Y-93262857D01*
X157527142Y-93462857D01*
X157241428Y-92605714D02*
X157241428Y-92720000D01*
X157270000Y-92777142D01*
X157298571Y-92805714D01*
X157384285Y-92862857D01*
X157498571Y-92891428D01*
X157727142Y-92891428D01*
X157784285Y-92862857D01*
X157812857Y-92834285D01*
X157841428Y-92777142D01*
X157841428Y-92662857D01*
X157812857Y-92605714D01*
X157784285Y-92577142D01*
X157727142Y-92548571D01*
X157584285Y-92548571D01*
X157527142Y-92577142D01*
X157498571Y-92605714D01*
X157470000Y-92662857D01*
X157470000Y-92777142D01*
X157498571Y-92834285D01*
X157527142Y-92862857D01*
X157584285Y-92891428D01*
D11*
X173813333Y-103893333D02*
X173580000Y-103193333D01*
X173346666Y-103893333D01*
X173113333Y-103193333D02*
X173113333Y-103893333D01*
X172946666Y-103893333D01*
X172846666Y-103860000D01*
X172780000Y-103793333D01*
X172746666Y-103726666D01*
X172713333Y-103593333D01*
X172713333Y-103493333D01*
X172746666Y-103360000D01*
X172780000Y-103293333D01*
X172846666Y-103226666D01*
X172946666Y-103193333D01*
X173113333Y-103193333D01*
X172413333Y-103193333D02*
X172413333Y-103893333D01*
X172246666Y-103893333D01*
X172146666Y-103860000D01*
X172080000Y-103793333D01*
X172046666Y-103726666D01*
X172013333Y-103593333D01*
X172013333Y-103493333D01*
X172046666Y-103360000D01*
X172080000Y-103293333D01*
X172146666Y-103226666D01*
X172246666Y-103193333D01*
X172413333Y-103193333D01*
X171880000Y-103126666D02*
X171346666Y-103126666D01*
X171246666Y-103893333D02*
X170813333Y-103893333D01*
X171046666Y-103626666D01*
X170946666Y-103626666D01*
X170880000Y-103593333D01*
X170846666Y-103560000D01*
X170813333Y-103493333D01*
X170813333Y-103326666D01*
X170846666Y-103260000D01*
X170880000Y-103226666D01*
X170946666Y-103193333D01*
X171146666Y-103193333D01*
X171213333Y-103226666D01*
X171246666Y-103260000D01*
X170513333Y-103260000D02*
X170480000Y-103226666D01*
X170513333Y-103193333D01*
X170546666Y-103226666D01*
X170513333Y-103260000D01*
X170513333Y-103193333D01*
X170246666Y-103893333D02*
X169813333Y-103893333D01*
X170046666Y-103626666D01*
X169946666Y-103626666D01*
X169880000Y-103593333D01*
X169846666Y-103560000D01*
X169813333Y-103493333D01*
X169813333Y-103326666D01*
X169846666Y-103260000D01*
X169880000Y-103226666D01*
X169946666Y-103193333D01*
X170146666Y-103193333D01*
X170213333Y-103226666D01*
X170246666Y-103260000D01*
X169613333Y-103893333D02*
X169380000Y-103193333D01*
X169146666Y-103893333D01*
D10*
X150211428Y-107010000D02*
X149611428Y-107010000D01*
X149611428Y-106781428D01*
X149640000Y-106724285D01*
X149668571Y-106695714D01*
X149725714Y-106667142D01*
X149811428Y-106667142D01*
X149868571Y-106695714D01*
X149897142Y-106724285D01*
X149925714Y-106781428D01*
X149925714Y-107010000D01*
X150040000Y-106438571D02*
X150040000Y-106152857D01*
X150211428Y-106495714D02*
X149611428Y-106295714D01*
X150211428Y-106095714D01*
X149811428Y-105638571D02*
X150211428Y-105638571D01*
X149582857Y-105781428D02*
X150011428Y-105924285D01*
X150011428Y-105552857D01*
D12*
X166208809Y-104958333D02*
X166654047Y-104958333D01*
X166706428Y-104932142D01*
X166732619Y-104905952D01*
X166758809Y-104853571D01*
X166758809Y-104748809D01*
X166732619Y-104696428D01*
X166706428Y-104670238D01*
X166654047Y-104644047D01*
X166208809Y-104644047D01*
X166758809Y-104382142D02*
X166208809Y-104382142D01*
X166758809Y-104120238D02*
X166208809Y-104120238D01*
X166758809Y-103805952D01*
X166208809Y-103805952D01*
X166758809Y-103544047D02*
X166208809Y-103544047D01*
X166208809Y-103177380D02*
X166208809Y-103072619D01*
X166235000Y-103020238D01*
X166287380Y-102967857D01*
X166392142Y-102941666D01*
X166575476Y-102941666D01*
X166680238Y-102967857D01*
X166732619Y-103020238D01*
X166758809Y-103072619D01*
X166758809Y-103177380D01*
X166732619Y-103229761D01*
X166680238Y-103282142D01*
X166575476Y-103308333D01*
X166392142Y-103308333D01*
X166287380Y-103282142D01*
X166235000Y-103229761D01*
X166208809Y-103177380D01*
X166549285Y-102705952D02*
X166549285Y-102286904D01*
X166758809Y-102025000D02*
X166208809Y-102025000D01*
X166601666Y-101841666D01*
X166208809Y-101658333D01*
X166758809Y-101658333D01*
X166706428Y-101082142D02*
X166732619Y-101108333D01*
X166758809Y-101186904D01*
X166758809Y-101239285D01*
X166732619Y-101317857D01*
X166680238Y-101370238D01*
X166627857Y-101396428D01*
X166523095Y-101422619D01*
X166444523Y-101422619D01*
X166339761Y-101396428D01*
X166287380Y-101370238D01*
X166235000Y-101317857D01*
X166208809Y-101239285D01*
X166208809Y-101186904D01*
X166235000Y-101108333D01*
X166261190Y-101082142D01*
X166208809Y-100846428D02*
X166654047Y-100846428D01*
X166706428Y-100820238D01*
X166732619Y-100794047D01*
X166758809Y-100741666D01*
X166758809Y-100636904D01*
X166732619Y-100584523D01*
X166706428Y-100558333D01*
X166654047Y-100532142D01*
X166208809Y-100532142D01*
X166549285Y-100270238D02*
X166549285Y-99851190D01*
X166732619Y-99615476D02*
X166758809Y-99536904D01*
X166758809Y-99405952D01*
X166732619Y-99353571D01*
X166706428Y-99327380D01*
X166654047Y-99301190D01*
X166601666Y-99301190D01*
X166549285Y-99327380D01*
X166523095Y-99353571D01*
X166496904Y-99405952D01*
X166470714Y-99510714D01*
X166444523Y-99563095D01*
X166418333Y-99589285D01*
X166365952Y-99615476D01*
X166313571Y-99615476D01*
X166261190Y-99589285D01*
X166235000Y-99563095D01*
X166208809Y-99510714D01*
X166208809Y-99379761D01*
X166235000Y-99301190D01*
X166208809Y-99144047D02*
X166208809Y-98829761D01*
X166758809Y-98986904D02*
X166208809Y-98986904D01*
X166758809Y-98646428D02*
X166208809Y-98646428D01*
X166601666Y-98463095D01*
X166208809Y-98279761D01*
X166758809Y-98279761D01*
X166208809Y-98070238D02*
X166208809Y-97729761D01*
X166418333Y-97913095D01*
X166418333Y-97834523D01*
X166444523Y-97782142D01*
X166470714Y-97755952D01*
X166523095Y-97729761D01*
X166654047Y-97729761D01*
X166706428Y-97755952D01*
X166732619Y-97782142D01*
X166758809Y-97834523D01*
X166758809Y-97991666D01*
X166732619Y-98044047D01*
X166706428Y-98070238D01*
X166261190Y-97520238D02*
X166235000Y-97494047D01*
X166208809Y-97441666D01*
X166208809Y-97310714D01*
X166235000Y-97258333D01*
X166261190Y-97232142D01*
X166313571Y-97205952D01*
X166365952Y-97205952D01*
X166444523Y-97232142D01*
X166758809Y-97546428D01*
X166758809Y-97205952D01*
X166758809Y-96708333D02*
X166758809Y-96970238D01*
X166208809Y-96970238D01*
X166208809Y-96420238D02*
X166208809Y-96367857D01*
X166235000Y-96315476D01*
X166261190Y-96289285D01*
X166313571Y-96263095D01*
X166418333Y-96236904D01*
X166549285Y-96236904D01*
X166654047Y-96263095D01*
X166706428Y-96289285D01*
X166732619Y-96315476D01*
X166758809Y-96367857D01*
X166758809Y-96420238D01*
X166732619Y-96472619D01*
X166706428Y-96498809D01*
X166654047Y-96525000D01*
X166549285Y-96551190D01*
X166418333Y-96551190D01*
X166313571Y-96525000D01*
X166261190Y-96498809D01*
X166235000Y-96472619D01*
X166208809Y-96420238D01*
X166208809Y-95739285D02*
X166208809Y-96001190D01*
X166470714Y-96027380D01*
X166444523Y-96001190D01*
X166418333Y-95948809D01*
X166418333Y-95817857D01*
X166444523Y-95765476D01*
X166470714Y-95739285D01*
X166523095Y-95713095D01*
X166654047Y-95713095D01*
X166706428Y-95739285D01*
X166732619Y-95765476D01*
X166758809Y-95817857D01*
X166758809Y-95948809D01*
X166732619Y-96001190D01*
X166706428Y-96027380D01*
X166758809Y-95189285D02*
X166758809Y-95503571D01*
X166758809Y-95346428D02*
X166208809Y-95346428D01*
X166287380Y-95398809D01*
X166339761Y-95451190D01*
X166365952Y-95503571D01*
X166758809Y-94953571D02*
X166208809Y-94953571D01*
X166758809Y-94639285D02*
X166444523Y-94875000D01*
X166208809Y-94639285D02*
X166523095Y-94953571D01*
X166444523Y-94325000D02*
X166418333Y-94377380D01*
X166392142Y-94403571D01*
X166339761Y-94429761D01*
X166313571Y-94429761D01*
X166261190Y-94403571D01*
X166235000Y-94377380D01*
X166208809Y-94325000D01*
X166208809Y-94220238D01*
X166235000Y-94167857D01*
X166261190Y-94141666D01*
X166313571Y-94115476D01*
X166339761Y-94115476D01*
X166392142Y-94141666D01*
X166418333Y-94167857D01*
X166444523Y-94220238D01*
X166444523Y-94325000D01*
X166470714Y-94377380D01*
X166496904Y-94403571D01*
X166549285Y-94429761D01*
X166654047Y-94429761D01*
X166706428Y-94403571D01*
X166732619Y-94377380D01*
X166758809Y-94325000D01*
X166758809Y-94220238D01*
X166732619Y-94167857D01*
X166706428Y-94141666D01*
X166654047Y-94115476D01*
X166549285Y-94115476D01*
X166496904Y-94141666D01*
X166470714Y-94167857D01*
X166444523Y-94220238D01*
D11*
X173099523Y-98780000D02*
X173175714Y-98818095D01*
X173290000Y-98818095D01*
X173404285Y-98780000D01*
X173480476Y-98703809D01*
X173518571Y-98627619D01*
X173556666Y-98475238D01*
X173556666Y-98360952D01*
X173518571Y-98208571D01*
X173480476Y-98132380D01*
X173404285Y-98056190D01*
X173290000Y-98018095D01*
X173213809Y-98018095D01*
X173099523Y-98056190D01*
X173061428Y-98094285D01*
X173061428Y-98360952D01*
X173213809Y-98360952D01*
X172718571Y-98018095D02*
X172718571Y-98818095D01*
X172261428Y-98018095D01*
X172261428Y-98818095D01*
X171880476Y-98018095D02*
X171880476Y-98818095D01*
X171690000Y-98818095D01*
X171575714Y-98780000D01*
X171499523Y-98703809D01*
X171461428Y-98627619D01*
X171423333Y-98475238D01*
X171423333Y-98360952D01*
X171461428Y-98208571D01*
X171499523Y-98132380D01*
X171575714Y-98056190D01*
X171690000Y-98018095D01*
X171880476Y-98018095D01*
D10*
X140051428Y-107010000D02*
X139451428Y-107010000D01*
X139451428Y-106781428D01*
X139480000Y-106724285D01*
X139508571Y-106695714D01*
X139565714Y-106667142D01*
X139651428Y-106667142D01*
X139708571Y-106695714D01*
X139737142Y-106724285D01*
X139765714Y-106781428D01*
X139765714Y-107010000D01*
X139880000Y-106438571D02*
X139880000Y-106152857D01*
X140051428Y-106495714D02*
X139451428Y-106295714D01*
X140051428Y-106095714D01*
X139451428Y-105781428D02*
X139451428Y-105724285D01*
X139480000Y-105667142D01*
X139508571Y-105638571D01*
X139565714Y-105610000D01*
X139680000Y-105581428D01*
X139822857Y-105581428D01*
X139937142Y-105610000D01*
X139994285Y-105638571D01*
X140022857Y-105667142D01*
X140051428Y-105724285D01*
X140051428Y-105781428D01*
X140022857Y-105838571D01*
X139994285Y-105867142D01*
X139937142Y-105895714D01*
X139822857Y-105924285D01*
X139680000Y-105924285D01*
X139565714Y-105895714D01*
X139508571Y-105867142D01*
X139480000Y-105838571D01*
X139451428Y-105781428D01*
X142591428Y-107070000D02*
X141991428Y-107070000D01*
X141991428Y-106841428D01*
X142020000Y-106784285D01*
X142048571Y-106755714D01*
X142105714Y-106727142D01*
X142191428Y-106727142D01*
X142248571Y-106755714D01*
X142277142Y-106784285D01*
X142305714Y-106841428D01*
X142305714Y-107070000D01*
X142420000Y-106498571D02*
X142420000Y-106212857D01*
X142591428Y-106555714D02*
X141991428Y-106355714D01*
X142591428Y-106155714D01*
X142591428Y-105641428D02*
X142591428Y-105984285D01*
X142591428Y-105812857D02*
X141991428Y-105812857D01*
X142077142Y-105870000D01*
X142134285Y-105927142D01*
X142162857Y-105984285D01*
X173071428Y-106914714D02*
X172471428Y-106914714D01*
X172471428Y-106686142D01*
X172500000Y-106629000D01*
X172528571Y-106600428D01*
X172585714Y-106571857D01*
X172671428Y-106571857D01*
X172728571Y-106600428D01*
X172757142Y-106629000D01*
X172785714Y-106686142D01*
X172785714Y-106914714D01*
X172900000Y-106343285D02*
X172900000Y-106057571D01*
X173071428Y-106400428D02*
X172471428Y-106200428D01*
X173071428Y-106000428D01*
X173071428Y-105486142D02*
X173071428Y-105829000D01*
X173071428Y-105657571D02*
X172471428Y-105657571D01*
X172557142Y-105714714D01*
X172614285Y-105771857D01*
X172642857Y-105829000D01*
X172471428Y-104943285D02*
X172471428Y-105229000D01*
X172757142Y-105257571D01*
X172728571Y-105229000D01*
X172700000Y-105171857D01*
X172700000Y-105029000D01*
X172728571Y-104971857D01*
X172757142Y-104943285D01*
X172814285Y-104914714D01*
X172957142Y-104914714D01*
X173014285Y-104943285D01*
X173042857Y-104971857D01*
X173071428Y-105029000D01*
X173071428Y-105171857D01*
X173042857Y-105229000D01*
X173014285Y-105257571D01*
X150181428Y-94445714D02*
X149581428Y-94445714D01*
X150181428Y-94102857D01*
X149581428Y-94102857D01*
X150181428Y-93474285D02*
X149895714Y-93674285D01*
X150181428Y-93817142D02*
X149581428Y-93817142D01*
X149581428Y-93588571D01*
X149610000Y-93531428D01*
X149638571Y-93502857D01*
X149695714Y-93474285D01*
X149781428Y-93474285D01*
X149838571Y-93502857D01*
X149867142Y-93531428D01*
X149895714Y-93588571D01*
X149895714Y-93817142D01*
X150152857Y-93245714D02*
X150181428Y-93160000D01*
X150181428Y-93017142D01*
X150152857Y-92960000D01*
X150124285Y-92931428D01*
X150067142Y-92902857D01*
X150010000Y-92902857D01*
X149952857Y-92931428D01*
X149924285Y-92960000D01*
X149895714Y-93017142D01*
X149867142Y-93131428D01*
X149838571Y-93188571D01*
X149810000Y-93217142D01*
X149752857Y-93245714D01*
X149695714Y-93245714D01*
X149638571Y-93217142D01*
X149610000Y-93188571D01*
X149581428Y-93131428D01*
X149581428Y-92988571D01*
X149610000Y-92902857D01*
X149581428Y-92731428D02*
X149581428Y-92388571D01*
X150181428Y-92560000D02*
X149581428Y-92560000D01*
X147671428Y-107010000D02*
X147071428Y-107010000D01*
X147071428Y-106781428D01*
X147100000Y-106724285D01*
X147128571Y-106695714D01*
X147185714Y-106667142D01*
X147271428Y-106667142D01*
X147328571Y-106695714D01*
X147357142Y-106724285D01*
X147385714Y-106781428D01*
X147385714Y-107010000D01*
X147500000Y-106438571D02*
X147500000Y-106152857D01*
X147671428Y-106495714D02*
X147071428Y-106295714D01*
X147671428Y-106095714D01*
X147071428Y-105952857D02*
X147071428Y-105581428D01*
X147300000Y-105781428D01*
X147300000Y-105695714D01*
X147328571Y-105638571D01*
X147357142Y-105610000D01*
X147414285Y-105581428D01*
X147557142Y-105581428D01*
X147614285Y-105610000D01*
X147642857Y-105638571D01*
X147671428Y-105695714D01*
X147671428Y-105867142D01*
X147642857Y-105924285D01*
X147614285Y-105952857D01*
X147110000Y-93777142D02*
X147081428Y-93834285D01*
X147081428Y-93920000D01*
X147110000Y-94005714D01*
X147167142Y-94062857D01*
X147224285Y-94091428D01*
X147338571Y-94120000D01*
X147424285Y-94120000D01*
X147538571Y-94091428D01*
X147595714Y-94062857D01*
X147652857Y-94005714D01*
X147681428Y-93920000D01*
X147681428Y-93862857D01*
X147652857Y-93777142D01*
X147624285Y-93748571D01*
X147424285Y-93748571D01*
X147424285Y-93862857D01*
X147681428Y-93491428D02*
X147081428Y-93491428D01*
X147681428Y-93148571D01*
X147081428Y-93148571D01*
X147681428Y-92862857D02*
X147081428Y-92862857D01*
X147081428Y-92720000D01*
X147110000Y-92634285D01*
X147167142Y-92577142D01*
X147224285Y-92548571D01*
X147338571Y-92520000D01*
X147424285Y-92520000D01*
X147538571Y-92548571D01*
X147595714Y-92577142D01*
X147652857Y-92634285D01*
X147681428Y-92720000D01*
X147681428Y-92862857D01*
D11*
X173805238Y-94966190D02*
X173690952Y-94928095D01*
X173500476Y-94928095D01*
X173424285Y-94966190D01*
X173386190Y-95004285D01*
X173348095Y-95080476D01*
X173348095Y-95156666D01*
X173386190Y-95232857D01*
X173424285Y-95270952D01*
X173500476Y-95309047D01*
X173652857Y-95347142D01*
X173729047Y-95385238D01*
X173767142Y-95423333D01*
X173805238Y-95499523D01*
X173805238Y-95575714D01*
X173767142Y-95651904D01*
X173729047Y-95690000D01*
X173652857Y-95728095D01*
X173462380Y-95728095D01*
X173348095Y-95690000D01*
X173081428Y-95728095D02*
X172890952Y-94928095D01*
X172738571Y-95499523D01*
X172586190Y-94928095D01*
X172395714Y-95728095D01*
X172090952Y-94928095D02*
X172090952Y-95728095D01*
X171900476Y-95728095D01*
X171786190Y-95690000D01*
X171710000Y-95613809D01*
X171671904Y-95537619D01*
X171633809Y-95385238D01*
X171633809Y-95270952D01*
X171671904Y-95118571D01*
X171710000Y-95042380D01*
X171786190Y-94966190D01*
X171900476Y-94928095D01*
X172090952Y-94928095D01*
X171290952Y-94928095D02*
X171290952Y-95728095D01*
X170757619Y-95728095D02*
X170605238Y-95728095D01*
X170529047Y-95690000D01*
X170452857Y-95613809D01*
X170414761Y-95461428D01*
X170414761Y-95194761D01*
X170452857Y-95042380D01*
X170529047Y-94966190D01*
X170605238Y-94928095D01*
X170757619Y-94928095D01*
X170833809Y-94966190D01*
X170910000Y-95042380D01*
X170948095Y-95194761D01*
X170948095Y-95461428D01*
X170910000Y-95613809D01*
X170833809Y-95690000D01*
X170757619Y-95728095D01*
D10*
X170541428Y-94062857D02*
X169941428Y-94062857D01*
X169941428Y-93834285D01*
X169970000Y-93777142D01*
X169998571Y-93748571D01*
X170055714Y-93720000D01*
X170141428Y-93720000D01*
X170198571Y-93748571D01*
X170227142Y-93777142D01*
X170255714Y-93834285D01*
X170255714Y-94062857D01*
X170227142Y-93262857D02*
X170255714Y-93177142D01*
X170284285Y-93148571D01*
X170341428Y-93120000D01*
X170427142Y-93120000D01*
X170484285Y-93148571D01*
X170512857Y-93177142D01*
X170541428Y-93234285D01*
X170541428Y-93462857D01*
X169941428Y-93462857D01*
X169941428Y-93262857D01*
X169970000Y-93205714D01*
X169998571Y-93177142D01*
X170055714Y-93148571D01*
X170112857Y-93148571D01*
X170170000Y-93177142D01*
X170198571Y-93205714D01*
X170227142Y-93262857D01*
X170227142Y-93462857D01*
X170541428Y-92548571D02*
X170541428Y-92891428D01*
X170541428Y-92720000D02*
X169941428Y-92720000D01*
X170027142Y-92777142D01*
X170084285Y-92834285D01*
X170112857Y-92891428D01*
X155291428Y-107010000D02*
X154691428Y-107010000D01*
X154691428Y-106781428D01*
X154720000Y-106724285D01*
X154748571Y-106695714D01*
X154805714Y-106667142D01*
X154891428Y-106667142D01*
X154948571Y-106695714D01*
X154977142Y-106724285D01*
X155005714Y-106781428D01*
X155005714Y-107010000D01*
X155120000Y-106438571D02*
X155120000Y-106152857D01*
X155291428Y-106495714D02*
X154691428Y-106295714D01*
X155291428Y-106095714D01*
X154691428Y-105638571D02*
X154691428Y-105752857D01*
X154720000Y-105810000D01*
X154748571Y-105838571D01*
X154834285Y-105895714D01*
X154948571Y-105924285D01*
X155177142Y-105924285D01*
X155234285Y-105895714D01*
X155262857Y-105867142D01*
X155291428Y-105810000D01*
X155291428Y-105695714D01*
X155262857Y-105638571D01*
X155234285Y-105610000D01*
X155177142Y-105581428D01*
X155034285Y-105581428D01*
X154977142Y-105610000D01*
X154948571Y-105638571D01*
X154920000Y-105695714D01*
X154920000Y-105810000D01*
X154948571Y-105867142D01*
X154977142Y-105895714D01*
X155034285Y-105924285D01*
X152761428Y-94062857D02*
X152161428Y-94062857D01*
X152161428Y-93834285D01*
X152190000Y-93777142D01*
X152218571Y-93748571D01*
X152275714Y-93720000D01*
X152361428Y-93720000D01*
X152418571Y-93748571D01*
X152447142Y-93777142D01*
X152475714Y-93834285D01*
X152475714Y-94062857D01*
X152447142Y-93262857D02*
X152475714Y-93177142D01*
X152504285Y-93148571D01*
X152561428Y-93120000D01*
X152647142Y-93120000D01*
X152704285Y-93148571D01*
X152732857Y-93177142D01*
X152761428Y-93234285D01*
X152761428Y-93462857D01*
X152161428Y-93462857D01*
X152161428Y-93262857D01*
X152190000Y-93205714D01*
X152218571Y-93177142D01*
X152275714Y-93148571D01*
X152332857Y-93148571D01*
X152390000Y-93177142D01*
X152418571Y-93205714D01*
X152447142Y-93262857D01*
X152447142Y-93462857D01*
X152418571Y-92777142D02*
X152390000Y-92834285D01*
X152361428Y-92862857D01*
X152304285Y-92891428D01*
X152275714Y-92891428D01*
X152218571Y-92862857D01*
X152190000Y-92834285D01*
X152161428Y-92777142D01*
X152161428Y-92662857D01*
X152190000Y-92605714D01*
X152218571Y-92577142D01*
X152275714Y-92548571D01*
X152304285Y-92548571D01*
X152361428Y-92577142D01*
X152390000Y-92605714D01*
X152418571Y-92662857D01*
X152418571Y-92777142D01*
X152447142Y-92834285D01*
X152475714Y-92862857D01*
X152532857Y-92891428D01*
X152647142Y-92891428D01*
X152704285Y-92862857D01*
X152732857Y-92834285D01*
X152761428Y-92777142D01*
X152761428Y-92662857D01*
X152732857Y-92605714D01*
X152704285Y-92577142D01*
X152647142Y-92548571D01*
X152532857Y-92548571D01*
X152475714Y-92577142D01*
X152447142Y-92605714D01*
X152418571Y-92662857D01*
X168001428Y-94062857D02*
X167401428Y-94062857D01*
X167401428Y-93834285D01*
X167430000Y-93777142D01*
X167458571Y-93748571D01*
X167515714Y-93720000D01*
X167601428Y-93720000D01*
X167658571Y-93748571D01*
X167687142Y-93777142D01*
X167715714Y-93834285D01*
X167715714Y-94062857D01*
X167687142Y-93262857D02*
X167715714Y-93177142D01*
X167744285Y-93148571D01*
X167801428Y-93120000D01*
X167887142Y-93120000D01*
X167944285Y-93148571D01*
X167972857Y-93177142D01*
X168001428Y-93234285D01*
X168001428Y-93462857D01*
X167401428Y-93462857D01*
X167401428Y-93262857D01*
X167430000Y-93205714D01*
X167458571Y-93177142D01*
X167515714Y-93148571D01*
X167572857Y-93148571D01*
X167630000Y-93177142D01*
X167658571Y-93205714D01*
X167687142Y-93262857D01*
X167687142Y-93462857D01*
X167458571Y-92891428D02*
X167430000Y-92862857D01*
X167401428Y-92805714D01*
X167401428Y-92662857D01*
X167430000Y-92605714D01*
X167458571Y-92577142D01*
X167515714Y-92548571D01*
X167572857Y-92548571D01*
X167658571Y-92577142D01*
X168001428Y-92920000D01*
X168001428Y-92548571D01*
X139461428Y-92944285D02*
X139461428Y-93230000D01*
X139747142Y-93258571D01*
X139718571Y-93230000D01*
X139690000Y-93172857D01*
X139690000Y-93030000D01*
X139718571Y-92972857D01*
X139747142Y-92944285D01*
X139804285Y-92915714D01*
X139947142Y-92915714D01*
X140004285Y-92944285D01*
X140032857Y-92972857D01*
X140061428Y-93030000D01*
X140061428Y-93172857D01*
X140032857Y-93230000D01*
X140004285Y-93258571D01*
X139461428Y-92744285D02*
X140061428Y-92544285D01*
X139461428Y-92344285D01*
X167576190Y-102252380D02*
X168076190Y-102085714D01*
X167576190Y-101919047D01*
X168052380Y-101561904D02*
X168076190Y-101609523D01*
X168076190Y-101704761D01*
X168052380Y-101752380D01*
X168004761Y-101776190D01*
X167814285Y-101776190D01*
X167766666Y-101752380D01*
X167742857Y-101704761D01*
X167742857Y-101609523D01*
X167766666Y-101561904D01*
X167814285Y-101538095D01*
X167861904Y-101538095D01*
X167909523Y-101776190D01*
X168076190Y-101323809D02*
X167742857Y-101323809D01*
X167838095Y-101323809D02*
X167790476Y-101300000D01*
X167766666Y-101276190D01*
X167742857Y-101228571D01*
X167742857Y-101180952D01*
X168052380Y-101038095D02*
X168076190Y-100990476D01*
X168076190Y-100895238D01*
X168052380Y-100847619D01*
X168004761Y-100823809D01*
X167980952Y-100823809D01*
X167933333Y-100847619D01*
X167909523Y-100895238D01*
X167909523Y-100966666D01*
X167885714Y-101014285D01*
X167838095Y-101038095D01*
X167814285Y-101038095D01*
X167766666Y-101014285D01*
X167742857Y-100966666D01*
X167742857Y-100895238D01*
X167766666Y-100847619D01*
X168076190Y-100609523D02*
X167742857Y-100609523D01*
X167576190Y-100609523D02*
X167600000Y-100633333D01*
X167623809Y-100609523D01*
X167600000Y-100585714D01*
X167576190Y-100609523D01*
X167623809Y-100609523D01*
X168076190Y-100300000D02*
X168052380Y-100347619D01*
X168028571Y-100371428D01*
X167980952Y-100395238D01*
X167838095Y-100395238D01*
X167790476Y-100371428D01*
X167766666Y-100347619D01*
X167742857Y-100300000D01*
X167742857Y-100228571D01*
X167766666Y-100180952D01*
X167790476Y-100157142D01*
X167838095Y-100133333D01*
X167980952Y-100133333D01*
X168028571Y-100157142D01*
X168052380Y-100180952D01*
X168076190Y-100228571D01*
X168076190Y-100300000D01*
X167742857Y-99919047D02*
X168076190Y-99919047D01*
X167790476Y-99919047D02*
X167766666Y-99895238D01*
X167742857Y-99847619D01*
X167742857Y-99776190D01*
X167766666Y-99728571D01*
X167814285Y-99704761D01*
X168076190Y-99704761D01*
X168076190Y-98823809D02*
X168076190Y-99109523D01*
X168076190Y-98966666D02*
X167576190Y-98966666D01*
X167647619Y-99014285D01*
X167695238Y-99061904D01*
X167719047Y-99109523D01*
X168028571Y-98609523D02*
X168052380Y-98585714D01*
X168076190Y-98609523D01*
X168052380Y-98633333D01*
X168028571Y-98609523D01*
X168076190Y-98609523D01*
X167576190Y-98276190D02*
X167576190Y-98228571D01*
X167600000Y-98180952D01*
X167623809Y-98157142D01*
X167671428Y-98133333D01*
X167766666Y-98109523D01*
X167885714Y-98109523D01*
X167980952Y-98133333D01*
X168028571Y-98157142D01*
X168052380Y-98180952D01*
X168076190Y-98228571D01*
X168076190Y-98276190D01*
X168052380Y-98323809D01*
X168028571Y-98347619D01*
X167980952Y-98371428D01*
X167885714Y-98395238D01*
X167766666Y-98395238D01*
X167671428Y-98371428D01*
X167623809Y-98347619D01*
X167600000Y-98323809D01*
X167576190Y-98276190D01*
X168028571Y-97895238D02*
X168052380Y-97871428D01*
X168076190Y-97895238D01*
X168052380Y-97919047D01*
X168028571Y-97895238D01*
X168076190Y-97895238D01*
X167576190Y-97561904D02*
X167576190Y-97514285D01*
X167600000Y-97466666D01*
X167623809Y-97442857D01*
X167671428Y-97419047D01*
X167766666Y-97395238D01*
X167885714Y-97395238D01*
X167980952Y-97419047D01*
X168028571Y-97442857D01*
X168052380Y-97466666D01*
X168076190Y-97514285D01*
X168076190Y-97561904D01*
X168052380Y-97609523D01*
X168028571Y-97633333D01*
X167980952Y-97657142D01*
X167885714Y-97680952D01*
X167766666Y-97680952D01*
X167671428Y-97657142D01*
X167623809Y-97633333D01*
X167600000Y-97609523D01*
X167576190Y-97561904D01*
X141360000Y-96353333D02*
X140560000Y-96353333D01*
X140926666Y-96353333D02*
X140926666Y-96053333D01*
X140726666Y-96253333D02*
X140660000Y-96220000D01*
X140493333Y-96086666D01*
X140693333Y-96486666D02*
X140526666Y-96286666D01*
X141160000Y-96253333D02*
X141326666Y-96086666D01*
X140560000Y-96820000D02*
X140993333Y-96753333D01*
X141293333Y-96753333D01*
X141026666Y-96753333D02*
X141193333Y-96553333D01*
X140993333Y-96486666D01*
X140760000Y-96686666D02*
X141093333Y-96353333D01*
X139960000Y-96686666D02*
X139460000Y-96686666D01*
X139760000Y-96453333D02*
X139526666Y-96453333D01*
X139960000Y-96453333D02*
X139660000Y-96453333D01*
X139660000Y-96053333D02*
X139460000Y-96053333D01*
X139626666Y-96420000D02*
X139626666Y-96053333D01*
X139460000Y-96153333D02*
X139493333Y-96053333D01*
X139626666Y-96586666D02*
X139493333Y-96486666D01*
X140226666Y-96653333D02*
X140293333Y-96520000D01*
X140060000Y-96620000D02*
X140126666Y-96520000D01*
X140326666Y-96320000D01*
X139726666Y-96686666D02*
X139826666Y-96586666D01*
X139960000Y-96453333D01*
X139760000Y-96853333D02*
X139726666Y-96720000D01*
X140126666Y-96853333D02*
X140260000Y-96586666D01*
X139926666Y-96120000D02*
X140060000Y-96053333D01*
X139860000Y-96386666D02*
X139893333Y-96153333D01*
X140093333Y-96553333D02*
X140326666Y-96520000D01*
X140060000Y-96353333D02*
X140326666Y-96320000D01*
X140060000Y-96186666D02*
X140326666Y-96120000D01*
X139126666Y-96720000D02*
X138493333Y-96720000D01*
X139126666Y-96520000D02*
X138560000Y-96520000D01*
X139126666Y-96420000D02*
X138560000Y-96420000D01*
X139060000Y-96286666D02*
X138593333Y-96286666D01*
X139126666Y-96653333D02*
X139126666Y-96420000D01*
X139126666Y-96653333D02*
X138593333Y-96653333D01*
X138593333Y-96420000D01*
X139026666Y-96853333D02*
X139260000Y-96620000D01*
X138960000Y-96420000D02*
X139060000Y-96320000D01*
X139293333Y-96220000D01*
X139060000Y-96253333D02*
X138826666Y-96153333D01*
X138493333Y-96053333D01*
X138860000Y-96153333D02*
X138426666Y-96053333D01*
X138626666Y-96286666D02*
X138826666Y-96153333D01*
X138993333Y-96120000D01*
X139260000Y-96053333D01*
X137993333Y-96653333D02*
X137426666Y-96653333D01*
X138026666Y-96086666D02*
X137393333Y-96086666D01*
X138093333Y-96686666D02*
X138093333Y-96053333D01*
X137693333Y-96853333D02*
X137693333Y-96653333D01*
X137526666Y-96553333D02*
X137660000Y-96086666D01*
X137860000Y-96553333D02*
X137826666Y-96186666D01*
X138026666Y-96820000D02*
X138126666Y-96620000D01*
X138260000Y-96486666D01*
X145131428Y-107010000D02*
X144531428Y-107010000D01*
X144531428Y-106781428D01*
X144560000Y-106724285D01*
X144588571Y-106695714D01*
X144645714Y-106667142D01*
X144731428Y-106667142D01*
X144788571Y-106695714D01*
X144817142Y-106724285D01*
X144845714Y-106781428D01*
X144845714Y-107010000D01*
X144960000Y-106438571D02*
X144960000Y-106152857D01*
X145131428Y-106495714D02*
X144531428Y-106295714D01*
X145131428Y-106095714D01*
X144588571Y-105924285D02*
X144560000Y-105895714D01*
X144531428Y-105838571D01*
X144531428Y-105695714D01*
X144560000Y-105638571D01*
X144588571Y-105610000D01*
X144645714Y-105581428D01*
X144702857Y-105581428D01*
X144788571Y-105610000D01*
X145131428Y-105952857D01*
X145131428Y-105581428D01*
X157831428Y-107010000D02*
X157231428Y-107010000D01*
X157231428Y-106781428D01*
X157260000Y-106724285D01*
X157288571Y-106695714D01*
X157345714Y-106667142D01*
X157431428Y-106667142D01*
X157488571Y-106695714D01*
X157517142Y-106724285D01*
X157545714Y-106781428D01*
X157545714Y-107010000D01*
X157660000Y-106438571D02*
X157660000Y-106152857D01*
X157831428Y-106495714D02*
X157231428Y-106295714D01*
X157831428Y-106095714D01*
X157231428Y-105952857D02*
X157231428Y-105552857D01*
X157831428Y-105810000D01*
X155301428Y-94062857D02*
X154701428Y-94062857D01*
X154701428Y-93834285D01*
X154730000Y-93777142D01*
X154758571Y-93748571D01*
X154815714Y-93720000D01*
X154901428Y-93720000D01*
X154958571Y-93748571D01*
X154987142Y-93777142D01*
X155015714Y-93834285D01*
X155015714Y-94062857D01*
X154987142Y-93262857D02*
X155015714Y-93177142D01*
X155044285Y-93148571D01*
X155101428Y-93120000D01*
X155187142Y-93120000D01*
X155244285Y-93148571D01*
X155272857Y-93177142D01*
X155301428Y-93234285D01*
X155301428Y-93462857D01*
X154701428Y-93462857D01*
X154701428Y-93262857D01*
X154730000Y-93205714D01*
X154758571Y-93177142D01*
X154815714Y-93148571D01*
X154872857Y-93148571D01*
X154930000Y-93177142D01*
X154958571Y-93205714D01*
X154987142Y-93262857D01*
X154987142Y-93462857D01*
X154701428Y-92920000D02*
X154701428Y-92520000D01*
X155301428Y-92777142D01*
X144531428Y-94185714D02*
X144531428Y-93814285D01*
X144760000Y-94014285D01*
X144760000Y-93928571D01*
X144788571Y-93871428D01*
X144817142Y-93842857D01*
X144874285Y-93814285D01*
X145017142Y-93814285D01*
X145074285Y-93842857D01*
X145102857Y-93871428D01*
X145131428Y-93928571D01*
X145131428Y-94100000D01*
X145102857Y-94157142D01*
X145074285Y-94185714D01*
X145074285Y-93557142D02*
X145102857Y-93528571D01*
X145131428Y-93557142D01*
X145102857Y-93585714D01*
X145074285Y-93557142D01*
X145131428Y-93557142D01*
X144531428Y-93328571D02*
X144531428Y-92957142D01*
X144760000Y-93157142D01*
X144760000Y-93071428D01*
X144788571Y-93014285D01*
X144817142Y-92985714D01*
X144874285Y-92957142D01*
X145017142Y-92957142D01*
X145074285Y-92985714D01*
X145102857Y-93014285D01*
X145131428Y-93071428D01*
X145131428Y-93242857D01*
X145102857Y-93300000D01*
X145074285Y-93328571D01*
X144531428Y-92785714D02*
X145131428Y-92585714D01*
X144531428Y-92385714D01*
X162911428Y-107010000D02*
X162311428Y-107010000D01*
X162311428Y-106781428D01*
X162340000Y-106724285D01*
X162368571Y-106695714D01*
X162425714Y-106667142D01*
X162511428Y-106667142D01*
X162568571Y-106695714D01*
X162597142Y-106724285D01*
X162625714Y-106781428D01*
X162625714Y-107010000D01*
X162740000Y-106438571D02*
X162740000Y-106152857D01*
X162911428Y-106495714D02*
X162311428Y-106295714D01*
X162911428Y-106095714D01*
X162911428Y-105867142D02*
X162911428Y-105752857D01*
X162882857Y-105695714D01*
X162854285Y-105667142D01*
X162768571Y-105610000D01*
X162654285Y-105581428D01*
X162425714Y-105581428D01*
X162368571Y-105610000D01*
X162340000Y-105638571D01*
X162311428Y-105695714D01*
X162311428Y-105810000D01*
X162340000Y-105867142D01*
X162368571Y-105895714D01*
X162425714Y-105924285D01*
X162568571Y-105924285D01*
X162625714Y-105895714D01*
X162654285Y-105867142D01*
X162682857Y-105810000D01*
X162682857Y-105695714D01*
X162654285Y-105638571D01*
X162625714Y-105610000D01*
X162568571Y-105581428D01*
X173081428Y-94062857D02*
X172481428Y-94062857D01*
X172481428Y-93834285D01*
X172510000Y-93777142D01*
X172538571Y-93748571D01*
X172595714Y-93720000D01*
X172681428Y-93720000D01*
X172738571Y-93748571D01*
X172767142Y-93777142D01*
X172795714Y-93834285D01*
X172795714Y-94062857D01*
X172767142Y-93262857D02*
X172795714Y-93177142D01*
X172824285Y-93148571D01*
X172881428Y-93120000D01*
X172967142Y-93120000D01*
X173024285Y-93148571D01*
X173052857Y-93177142D01*
X173081428Y-93234285D01*
X173081428Y-93462857D01*
X172481428Y-93462857D01*
X172481428Y-93262857D01*
X172510000Y-93205714D01*
X172538571Y-93177142D01*
X172595714Y-93148571D01*
X172652857Y-93148571D01*
X172710000Y-93177142D01*
X172738571Y-93205714D01*
X172767142Y-93262857D01*
X172767142Y-93462857D01*
X172481428Y-92748571D02*
X172481428Y-92691428D01*
X172510000Y-92634285D01*
X172538571Y-92605714D01*
X172595714Y-92577142D01*
X172710000Y-92548571D01*
X172852857Y-92548571D01*
X172967142Y-92577142D01*
X173024285Y-92605714D01*
X173052857Y-92634285D01*
X173081428Y-92691428D01*
X173081428Y-92748571D01*
X173052857Y-92805714D01*
X173024285Y-92834285D01*
X172967142Y-92862857D01*
X172852857Y-92891428D01*
X172710000Y-92891428D01*
X172595714Y-92862857D01*
X172538571Y-92834285D01*
X172510000Y-92805714D01*
X172481428Y-92748571D01*
X167991428Y-106914714D02*
X167391428Y-106914714D01*
X167391428Y-106686142D01*
X167420000Y-106629000D01*
X167448571Y-106600428D01*
X167505714Y-106571857D01*
X167591428Y-106571857D01*
X167648571Y-106600428D01*
X167677142Y-106629000D01*
X167705714Y-106686142D01*
X167705714Y-106914714D01*
X167820000Y-106343285D02*
X167820000Y-106057571D01*
X167991428Y-106400428D02*
X167391428Y-106200428D01*
X167991428Y-106000428D01*
X167991428Y-105486142D02*
X167991428Y-105829000D01*
X167991428Y-105657571D02*
X167391428Y-105657571D01*
X167477142Y-105714714D01*
X167534285Y-105771857D01*
X167562857Y-105829000D01*
X167991428Y-104914714D02*
X167991428Y-105257571D01*
X167991428Y-105086142D02*
X167391428Y-105086142D01*
X167477142Y-105143285D01*
X167534285Y-105200428D01*
X167562857Y-105257571D01*
X152797472Y-107034413D02*
X152197472Y-107034413D01*
X152197472Y-106805841D01*
X152226044Y-106748698D01*
X152254615Y-106720127D01*
X152311758Y-106691555D01*
X152397472Y-106691555D01*
X152454615Y-106720127D01*
X152483186Y-106748698D01*
X152511758Y-106805841D01*
X152511758Y-107034413D01*
X152626044Y-106462984D02*
X152626044Y-106177270D01*
X152797472Y-106520127D02*
X152197472Y-106320127D01*
X152797472Y-106120127D01*
X152197472Y-105634413D02*
X152197472Y-105920127D01*
X152483186Y-105948698D01*
X152454615Y-105920127D01*
X152426044Y-105862984D01*
X152426044Y-105720127D01*
X152454615Y-105662984D01*
X152483186Y-105634413D01*
X152540329Y-105605841D01*
X152683186Y-105605841D01*
X152740329Y-105634413D01*
X152768901Y-105662984D01*
X152797472Y-105720127D01*
X152797472Y-105862984D01*
X152768901Y-105920127D01*
X152740329Y-105948698D01*
X170531428Y-106914714D02*
X169931428Y-106914714D01*
X169931428Y-106686142D01*
X169960000Y-106629000D01*
X169988571Y-106600428D01*
X170045714Y-106571857D01*
X170131428Y-106571857D01*
X170188571Y-106600428D01*
X170217142Y-106629000D01*
X170245714Y-106686142D01*
X170245714Y-106914714D01*
X170360000Y-106343285D02*
X170360000Y-106057571D01*
X170531428Y-106400428D02*
X169931428Y-106200428D01*
X170531428Y-106000428D01*
X170531428Y-105486142D02*
X170531428Y-105829000D01*
X170531428Y-105657571D02*
X169931428Y-105657571D01*
X170017142Y-105714714D01*
X170074285Y-105771857D01*
X170102857Y-105829000D01*
X169988571Y-105257571D02*
X169960000Y-105229000D01*
X169931428Y-105171857D01*
X169931428Y-105029000D01*
X169960000Y-104971857D01*
X169988571Y-104943285D01*
X170045714Y-104914714D01*
X170102857Y-104914714D01*
X170188571Y-104943285D01*
X170531428Y-105286142D01*
X170531428Y-104914714D01*
X173860000Y-96133333D02*
X173860000Y-96833333D01*
X173593333Y-96833333D01*
X173526666Y-96800000D01*
X173493333Y-96766666D01*
X173460000Y-96700000D01*
X173460000Y-96600000D01*
X173493333Y-96533333D01*
X173526666Y-96500000D01*
X173593333Y-96466666D01*
X173860000Y-96466666D01*
X173193333Y-96333333D02*
X172860000Y-96333333D01*
X173260000Y-96133333D02*
X173026666Y-96833333D01*
X172793333Y-96133333D01*
X172193333Y-96133333D02*
X172593333Y-96133333D01*
X172393333Y-96133333D02*
X172393333Y-96833333D01*
X172460000Y-96733333D01*
X172526666Y-96666666D01*
X172593333Y-96633333D01*
X171960000Y-96833333D02*
X171526666Y-96833333D01*
X171760000Y-96566666D01*
X171660000Y-96566666D01*
X171593333Y-96533333D01*
X171560000Y-96500000D01*
X171526666Y-96433333D01*
X171526666Y-96266666D01*
X171560000Y-96200000D01*
X171593333Y-96166666D01*
X171660000Y-96133333D01*
X171860000Y-96133333D01*
X171926666Y-96166666D01*
X171960000Y-96200000D01*
D11*
X173779523Y-99966190D02*
X173665238Y-99928095D01*
X173474761Y-99928095D01*
X173398571Y-99966190D01*
X173360476Y-100004285D01*
X173322380Y-100080476D01*
X173322380Y-100156666D01*
X173360476Y-100232857D01*
X173398571Y-100270952D01*
X173474761Y-100309047D01*
X173627142Y-100347142D01*
X173703333Y-100385238D01*
X173741428Y-100423333D01*
X173779523Y-100499523D01*
X173779523Y-100575714D01*
X173741428Y-100651904D01*
X173703333Y-100690000D01*
X173627142Y-100728095D01*
X173436666Y-100728095D01*
X173322380Y-100690000D01*
X173055714Y-100728095D02*
X172865238Y-99928095D01*
X172712857Y-100499523D01*
X172560476Y-99928095D01*
X172370000Y-100728095D01*
X171608095Y-100004285D02*
X171646190Y-99966190D01*
X171760476Y-99928095D01*
X171836666Y-99928095D01*
X171950952Y-99966190D01*
X172027142Y-100042380D01*
X172065238Y-100118571D01*
X172103333Y-100270952D01*
X172103333Y-100385238D01*
X172065238Y-100537619D01*
X172027142Y-100613809D01*
X171950952Y-100690000D01*
X171836666Y-100728095D01*
X171760476Y-100728095D01*
X171646190Y-100690000D01*
X171608095Y-100651904D01*
X170884285Y-99928095D02*
X171265238Y-99928095D01*
X171265238Y-100728095D01*
X170617619Y-99928095D02*
X170617619Y-100728095D01*
X170160476Y-99928095D02*
X170503333Y-100385238D01*
X170160476Y-100728095D02*
X170617619Y-100270952D01*
D10*
X165461428Y-94062857D02*
X164861428Y-94062857D01*
X164861428Y-93834285D01*
X164890000Y-93777142D01*
X164918571Y-93748571D01*
X164975714Y-93720000D01*
X165061428Y-93720000D01*
X165118571Y-93748571D01*
X165147142Y-93777142D01*
X165175714Y-93834285D01*
X165175714Y-94062857D01*
X165147142Y-93262857D02*
X165175714Y-93177142D01*
X165204285Y-93148571D01*
X165261428Y-93120000D01*
X165347142Y-93120000D01*
X165404285Y-93148571D01*
X165432857Y-93177142D01*
X165461428Y-93234285D01*
X165461428Y-93462857D01*
X164861428Y-93462857D01*
X164861428Y-93262857D01*
X164890000Y-93205714D01*
X164918571Y-93177142D01*
X164975714Y-93148571D01*
X165032857Y-93148571D01*
X165090000Y-93177142D01*
X165118571Y-93205714D01*
X165147142Y-93262857D01*
X165147142Y-93462857D01*
X164861428Y-92920000D02*
X164861428Y-92548571D01*
X165090000Y-92748571D01*
X165090000Y-92662857D01*
X165118571Y-92605714D01*
X165147142Y-92577142D01*
X165204285Y-92548571D01*
X165347142Y-92548571D01*
X165404285Y-92577142D01*
X165432857Y-92605714D01*
X165461428Y-92662857D01*
X165461428Y-92834285D01*
X165432857Y-92891428D01*
X165404285Y-92920000D01*
X162921428Y-94062857D02*
X162321428Y-94062857D01*
X162321428Y-93834285D01*
X162350000Y-93777142D01*
X162378571Y-93748571D01*
X162435714Y-93720000D01*
X162521428Y-93720000D01*
X162578571Y-93748571D01*
X162607142Y-93777142D01*
X162635714Y-93834285D01*
X162635714Y-94062857D01*
X162607142Y-93262857D02*
X162635714Y-93177142D01*
X162664285Y-93148571D01*
X162721428Y-93120000D01*
X162807142Y-93120000D01*
X162864285Y-93148571D01*
X162892857Y-93177142D01*
X162921428Y-93234285D01*
X162921428Y-93462857D01*
X162321428Y-93462857D01*
X162321428Y-93262857D01*
X162350000Y-93205714D01*
X162378571Y-93177142D01*
X162435714Y-93148571D01*
X162492857Y-93148571D01*
X162550000Y-93177142D01*
X162578571Y-93205714D01*
X162607142Y-93262857D01*
X162607142Y-93462857D01*
X162521428Y-92605714D02*
X162921428Y-92605714D01*
X162292857Y-92748571D02*
X162721428Y-92891428D01*
X162721428Y-92520000D01*
X141266666Y-103493333D02*
X141033333Y-103493333D01*
X141266666Y-103193333D02*
X140533333Y-103193333D01*
X141166666Y-102826666D02*
X140533333Y-102826666D01*
X141166666Y-103060000D02*
X141166666Y-102793333D01*
X141266666Y-103393333D02*
X140533333Y-103393333D01*
X140533333Y-103193333D01*
X141166666Y-103060000D02*
X140533333Y-103060000D01*
X140533333Y-102793333D01*
X141266666Y-103526666D02*
X141266666Y-103126666D01*
X141333333Y-102860000D01*
X140933333Y-103526666D02*
X141100000Y-103526666D01*
X140600000Y-103593333D02*
X140933333Y-103526666D01*
X140333333Y-103493333D02*
X139966666Y-103493333D01*
X140366666Y-103293333D02*
X139966666Y-103293333D01*
X139733333Y-102793333D02*
X139566666Y-102793333D01*
X139766666Y-103093333D02*
X139900000Y-102826666D01*
X140233333Y-103293333D02*
X140333333Y-102926666D01*
X139900000Y-103360000D02*
X139500000Y-103360000D01*
X139500000Y-103060000D01*
X139566666Y-102793333D01*
X139733333Y-103560000D02*
X139733333Y-103293333D01*
X139800000Y-102960000D01*
X140066666Y-103160000D02*
X139966666Y-102960000D01*
X140366666Y-102926666D01*
X138966666Y-103426666D02*
X138533333Y-103426666D01*
X139066666Y-103260000D02*
X138466666Y-103260000D01*
X138700000Y-102926666D02*
X138500000Y-102926666D01*
X139033333Y-102793333D02*
X138466666Y-102793333D01*
X138766666Y-103593333D02*
X138766666Y-103260000D01*
X138666666Y-103260000D02*
X138666666Y-102926666D01*
X138466666Y-103060000D02*
X138500000Y-102926666D01*
X139300000Y-103560000D02*
X139166666Y-103426666D01*
X139333333Y-103226666D02*
X139200000Y-103226666D01*
X139200000Y-102893333D01*
X139333333Y-102826666D01*
X138900000Y-103060000D02*
X139033333Y-102960000D01*
X138933333Y-103560000D02*
X139033333Y-103360000D01*
X138866666Y-103260000D02*
X138933333Y-103026666D01*
X139200000Y-102893333D02*
X139033333Y-102826666D01*
X138833333Y-102793333D01*
X138300000Y-103393333D02*
X138033333Y-103393333D01*
X137933333Y-103093333D02*
X137533333Y-103093333D01*
X138000000Y-102960000D02*
X137433333Y-102960000D01*
X138266666Y-102793333D02*
X138166666Y-102793333D01*
X138133333Y-103593333D02*
X138133333Y-102793333D01*
X137700000Y-103193333D02*
X137700000Y-102793333D01*
X137900000Y-103526666D02*
X137733333Y-103360000D01*
X137466666Y-103226666D01*
X137966666Y-103526666D02*
X137500000Y-103526666D01*
X137666666Y-103360000D01*
X137966666Y-103226666D01*
X138033333Y-103193333D02*
X138300000Y-103126666D01*
X160371428Y-107010000D02*
X159771428Y-107010000D01*
X159771428Y-106781428D01*
X159800000Y-106724285D01*
X159828571Y-106695714D01*
X159885714Y-106667142D01*
X159971428Y-106667142D01*
X160028571Y-106695714D01*
X160057142Y-106724285D01*
X160085714Y-106781428D01*
X160085714Y-107010000D01*
X160200000Y-106438571D02*
X160200000Y-106152857D01*
X160371428Y-106495714D02*
X159771428Y-106295714D01*
X160371428Y-106095714D01*
X160028571Y-105810000D02*
X160000000Y-105867142D01*
X159971428Y-105895714D01*
X159914285Y-105924285D01*
X159885714Y-105924285D01*
X159828571Y-105895714D01*
X159800000Y-105867142D01*
X159771428Y-105810000D01*
X159771428Y-105695714D01*
X159800000Y-105638571D01*
X159828571Y-105610000D01*
X159885714Y-105581428D01*
X159914285Y-105581428D01*
X159971428Y-105610000D01*
X160000000Y-105638571D01*
X160028571Y-105695714D01*
X160028571Y-105810000D01*
X160057142Y-105867142D01*
X160085714Y-105895714D01*
X160142857Y-105924285D01*
X160257142Y-105924285D01*
X160314285Y-105895714D01*
X160342857Y-105867142D01*
X160371428Y-105810000D01*
X160371428Y-105695714D01*
X160342857Y-105638571D01*
X160314285Y-105610000D01*
X160257142Y-105581428D01*
X160142857Y-105581428D01*
X160085714Y-105610000D01*
X160057142Y-105638571D01*
X160028571Y-105695714D01*
X160381428Y-94062857D02*
X159781428Y-94062857D01*
X159781428Y-93834285D01*
X159810000Y-93777142D01*
X159838571Y-93748571D01*
X159895714Y-93720000D01*
X159981428Y-93720000D01*
X160038571Y-93748571D01*
X160067142Y-93777142D01*
X160095714Y-93834285D01*
X160095714Y-94062857D01*
X160067142Y-93262857D02*
X160095714Y-93177142D01*
X160124285Y-93148571D01*
X160181428Y-93120000D01*
X160267142Y-93120000D01*
X160324285Y-93148571D01*
X160352857Y-93177142D01*
X160381428Y-93234285D01*
X160381428Y-93462857D01*
X159781428Y-93462857D01*
X159781428Y-93262857D01*
X159810000Y-93205714D01*
X159838571Y-93177142D01*
X159895714Y-93148571D01*
X159952857Y-93148571D01*
X160010000Y-93177142D01*
X160038571Y-93205714D01*
X160067142Y-93262857D01*
X160067142Y-93462857D01*
X159781428Y-92577142D02*
X159781428Y-92862857D01*
X160067142Y-92891428D01*
X160038571Y-92862857D01*
X160010000Y-92805714D01*
X160010000Y-92662857D01*
X160038571Y-92605714D01*
X160067142Y-92577142D01*
X160124285Y-92548571D01*
X160267142Y-92548571D01*
X160324285Y-92577142D01*
X160352857Y-92605714D01*
X160381428Y-92662857D01*
X160381428Y-92805714D01*
X160352857Y-92862857D01*
X160324285Y-92891428D01*
X173810000Y-101173333D02*
X173810000Y-101873333D01*
X173543333Y-101873333D01*
X173476666Y-101840000D01*
X173443333Y-101806666D01*
X173410000Y-101740000D01*
X173410000Y-101640000D01*
X173443333Y-101573333D01*
X173476666Y-101540000D01*
X173543333Y-101506666D01*
X173810000Y-101506666D01*
X173143333Y-101373333D02*
X172810000Y-101373333D01*
X173210000Y-101173333D02*
X172976666Y-101873333D01*
X172743333Y-101173333D01*
X172143333Y-101173333D02*
X172543333Y-101173333D01*
X172343333Y-101173333D02*
X172343333Y-101873333D01*
X172410000Y-101773333D01*
X172476666Y-101706666D01*
X172543333Y-101673333D01*
X171543333Y-101640000D02*
X171543333Y-101173333D01*
X171710000Y-101906666D02*
X171876666Y-101406666D01*
X171443333Y-101406666D01*
X142010000Y-93697142D02*
X141981428Y-93754285D01*
X141981428Y-93840000D01*
X142010000Y-93925714D01*
X142067142Y-93982857D01*
X142124285Y-94011428D01*
X142238571Y-94040000D01*
X142324285Y-94040000D01*
X142438571Y-94011428D01*
X142495714Y-93982857D01*
X142552857Y-93925714D01*
X142581428Y-93840000D01*
X142581428Y-93782857D01*
X142552857Y-93697142D01*
X142524285Y-93668571D01*
X142324285Y-93668571D01*
X142324285Y-93782857D01*
X142581428Y-93411428D02*
X141981428Y-93411428D01*
X142581428Y-93068571D01*
X141981428Y-93068571D01*
X142581428Y-92782857D02*
X141981428Y-92782857D01*
X141981428Y-92640000D01*
X142010000Y-92554285D01*
X142067142Y-92497142D01*
X142124285Y-92468571D01*
X142238571Y-92440000D01*
X142324285Y-92440000D01*
X142438571Y-92468571D01*
X142495714Y-92497142D01*
X142552857Y-92554285D01*
X142581428Y-92640000D01*
X142581428Y-92782857D01*
X165451428Y-106914714D02*
X164851428Y-106914714D01*
X164851428Y-106686142D01*
X164880000Y-106629000D01*
X164908571Y-106600428D01*
X164965714Y-106571857D01*
X165051428Y-106571857D01*
X165108571Y-106600428D01*
X165137142Y-106629000D01*
X165165714Y-106686142D01*
X165165714Y-106914714D01*
X165280000Y-106343285D02*
X165280000Y-106057571D01*
X165451428Y-106400428D02*
X164851428Y-106200428D01*
X165451428Y-106000428D01*
X165451428Y-105486142D02*
X165451428Y-105829000D01*
X165451428Y-105657571D02*
X164851428Y-105657571D01*
X164937142Y-105714714D01*
X164994285Y-105771857D01*
X165022857Y-105829000D01*
X164851428Y-105114714D02*
X164851428Y-105057571D01*
X164880000Y-105000428D01*
X164908571Y-104971857D01*
X164965714Y-104943285D01*
X165080000Y-104914714D01*
X165222857Y-104914714D01*
X165337142Y-104943285D01*
X165394285Y-104971857D01*
X165422857Y-105000428D01*
X165451428Y-105057571D01*
X165451428Y-105114714D01*
X165422857Y-105171857D01*
X165394285Y-105200428D01*
X165337142Y-105229000D01*
X165222857Y-105257571D01*
X165080000Y-105257571D01*
X164965714Y-105229000D01*
X164908571Y-105200428D01*
X164880000Y-105171857D01*
X164851428Y-105114714D01*
%TO.C,R3*%
X143760000Y-98991428D02*
X143560000Y-98705714D01*
X143417142Y-98991428D02*
X143417142Y-98391428D01*
X143645714Y-98391428D01*
X143702857Y-98420000D01*
X143731428Y-98448571D01*
X143760000Y-98505714D01*
X143760000Y-98591428D01*
X143731428Y-98648571D01*
X143702857Y-98677142D01*
X143645714Y-98705714D01*
X143417142Y-98705714D01*
X143960000Y-98391428D02*
X144331428Y-98391428D01*
X144131428Y-98620000D01*
X144217142Y-98620000D01*
X144274285Y-98648571D01*
X144302857Y-98677142D01*
X144331428Y-98734285D01*
X144331428Y-98877142D01*
X144302857Y-98934285D01*
X144274285Y-98962857D01*
X144217142Y-98991428D01*
X144045714Y-98991428D01*
X143988571Y-98962857D01*
X143960000Y-98934285D01*
%TO.C,C5*%
X147950000Y-101074285D02*
X147921428Y-101102857D01*
X147835714Y-101131428D01*
X147778571Y-101131428D01*
X147692857Y-101102857D01*
X147635714Y-101045714D01*
X147607142Y-100988571D01*
X147578571Y-100874285D01*
X147578571Y-100788571D01*
X147607142Y-100674285D01*
X147635714Y-100617142D01*
X147692857Y-100560000D01*
X147778571Y-100531428D01*
X147835714Y-100531428D01*
X147921428Y-100560000D01*
X147950000Y-100588571D01*
X148492857Y-100531428D02*
X148207142Y-100531428D01*
X148178571Y-100817142D01*
X148207142Y-100788571D01*
X148264285Y-100760000D01*
X148407142Y-100760000D01*
X148464285Y-100788571D01*
X148492857Y-100817142D01*
X148521428Y-100874285D01*
X148521428Y-101017142D01*
X148492857Y-101074285D01*
X148464285Y-101102857D01*
X148407142Y-101131428D01*
X148264285Y-101131428D01*
X148207142Y-101102857D01*
X148178571Y-101074285D01*
%TO.C,F1*%
X132637142Y-93310000D02*
X132637142Y-93510000D01*
X132951428Y-93510000D02*
X132351428Y-93510000D01*
X132351428Y-93224285D01*
X132951428Y-92681428D02*
X132951428Y-93024285D01*
X132951428Y-92852857D02*
X132351428Y-92852857D01*
X132437142Y-92910000D01*
X132494285Y-92967142D01*
X132522857Y-93024285D01*
%TO.C,C4*%
X163482853Y-104595679D02*
X163454281Y-104624251D01*
X163368567Y-104652822D01*
X163311424Y-104652822D01*
X163225710Y-104624251D01*
X163168567Y-104567108D01*
X163139995Y-104509965D01*
X163111424Y-104395679D01*
X163111424Y-104309965D01*
X163139995Y-104195679D01*
X163168567Y-104138536D01*
X163225710Y-104081394D01*
X163311424Y-104052822D01*
X163368567Y-104052822D01*
X163454281Y-104081394D01*
X163482853Y-104109965D01*
X163997138Y-104252822D02*
X163997138Y-104652822D01*
X163854281Y-104024251D02*
X163711424Y-104452822D01*
X164082853Y-104452822D01*
%TO.C,U3*%
X159154281Y-103423536D02*
X159639995Y-103423536D01*
X159697138Y-103394965D01*
X159725710Y-103366394D01*
X159754281Y-103309251D01*
X159754281Y-103194965D01*
X159725710Y-103137822D01*
X159697138Y-103109251D01*
X159639995Y-103080679D01*
X159154281Y-103080679D01*
X159154281Y-102852108D02*
X159154281Y-102480679D01*
X159382853Y-102680679D01*
X159382853Y-102594965D01*
X159411424Y-102537822D01*
X159439995Y-102509251D01*
X159497138Y-102480679D01*
X159639995Y-102480679D01*
X159697138Y-102509251D01*
X159725710Y-102537822D01*
X159754281Y-102594965D01*
X159754281Y-102766394D01*
X159725710Y-102823536D01*
X159697138Y-102852108D01*
%TO.C,R1*%
X132971428Y-90990000D02*
X132685714Y-91190000D01*
X132971428Y-91332857D02*
X132371428Y-91332857D01*
X132371428Y-91104285D01*
X132400000Y-91047142D01*
X132428571Y-91018571D01*
X132485714Y-90990000D01*
X132571428Y-90990000D01*
X132628571Y-91018571D01*
X132657142Y-91047142D01*
X132685714Y-91104285D01*
X132685714Y-91332857D01*
X132971428Y-90418571D02*
X132971428Y-90761428D01*
X132971428Y-90590000D02*
X132371428Y-90590000D01*
X132457142Y-90647142D01*
X132514285Y-90704285D01*
X132542857Y-90761428D01*
%TO.C,C8*%
X155040000Y-101414285D02*
X155011428Y-101442857D01*
X154925714Y-101471428D01*
X154868571Y-101471428D01*
X154782857Y-101442857D01*
X154725714Y-101385714D01*
X154697142Y-101328571D01*
X154668571Y-101214285D01*
X154668571Y-101128571D01*
X154697142Y-101014285D01*
X154725714Y-100957142D01*
X154782857Y-100900000D01*
X154868571Y-100871428D01*
X154925714Y-100871428D01*
X155011428Y-100900000D01*
X155040000Y-100928571D01*
X155382857Y-101128571D02*
X155325714Y-101100000D01*
X155297142Y-101071428D01*
X155268571Y-101014285D01*
X155268571Y-100985714D01*
X155297142Y-100928571D01*
X155325714Y-100900000D01*
X155382857Y-100871428D01*
X155497142Y-100871428D01*
X155554285Y-100900000D01*
X155582857Y-100928571D01*
X155611428Y-100985714D01*
X155611428Y-101014285D01*
X155582857Y-101071428D01*
X155554285Y-101100000D01*
X155497142Y-101128571D01*
X155382857Y-101128571D01*
X155325714Y-101157142D01*
X155297142Y-101185714D01*
X155268571Y-101242857D01*
X155268571Y-101357142D01*
X155297142Y-101414285D01*
X155325714Y-101442857D01*
X155382857Y-101471428D01*
X155497142Y-101471428D01*
X155554285Y-101442857D01*
X155582857Y-101414285D01*
X155611428Y-101357142D01*
X155611428Y-101242857D01*
X155582857Y-101185714D01*
X155554285Y-101157142D01*
X155497142Y-101128571D01*
%TO.C,C7*%
X163472853Y-95295679D02*
X163444281Y-95324251D01*
X163358567Y-95352822D01*
X163301424Y-95352822D01*
X163215710Y-95324251D01*
X163158567Y-95267108D01*
X163129995Y-95209965D01*
X163101424Y-95095679D01*
X163101424Y-95009965D01*
X163129995Y-94895679D01*
X163158567Y-94838536D01*
X163215710Y-94781394D01*
X163301424Y-94752822D01*
X163358567Y-94752822D01*
X163444281Y-94781394D01*
X163472853Y-94809965D01*
X163672853Y-94752822D02*
X164072853Y-94752822D01*
X163815710Y-95352822D01*
%TO.C,USB1*%
X137491428Y-100173571D02*
X137977142Y-100173571D01*
X138034285Y-100145000D01*
X138062857Y-100116428D01*
X138091428Y-100059285D01*
X138091428Y-99945000D01*
X138062857Y-99887857D01*
X138034285Y-99859285D01*
X137977142Y-99830714D01*
X137491428Y-99830714D01*
X138062857Y-99573571D02*
X138091428Y-99487857D01*
X138091428Y-99345000D01*
X138062857Y-99287857D01*
X138034285Y-99259285D01*
X137977142Y-99230714D01*
X137920000Y-99230714D01*
X137862857Y-99259285D01*
X137834285Y-99287857D01*
X137805714Y-99345000D01*
X137777142Y-99459285D01*
X137748571Y-99516428D01*
X137720000Y-99545000D01*
X137662857Y-99573571D01*
X137605714Y-99573571D01*
X137548571Y-99545000D01*
X137520000Y-99516428D01*
X137491428Y-99459285D01*
X137491428Y-99316428D01*
X137520000Y-99230714D01*
X137777142Y-98773571D02*
X137805714Y-98687857D01*
X137834285Y-98659285D01*
X137891428Y-98630714D01*
X137977142Y-98630714D01*
X138034285Y-98659285D01*
X138062857Y-98687857D01*
X138091428Y-98745000D01*
X138091428Y-98973571D01*
X137491428Y-98973571D01*
X137491428Y-98773571D01*
X137520000Y-98716428D01*
X137548571Y-98687857D01*
X137605714Y-98659285D01*
X137662857Y-98659285D01*
X137720000Y-98687857D01*
X137748571Y-98716428D01*
X137777142Y-98773571D01*
X137777142Y-98973571D01*
X138091428Y-98059285D02*
X138091428Y-98402142D01*
X138091428Y-98230714D02*
X137491428Y-98230714D01*
X137577142Y-98287857D01*
X137634285Y-98345000D01*
X137662857Y-98402142D01*
%TO.C,*%
%TO.C,C9*%
X147960000Y-98934285D02*
X147931428Y-98962857D01*
X147845714Y-98991428D01*
X147788571Y-98991428D01*
X147702857Y-98962857D01*
X147645714Y-98905714D01*
X147617142Y-98848571D01*
X147588571Y-98734285D01*
X147588571Y-98648571D01*
X147617142Y-98534285D01*
X147645714Y-98477142D01*
X147702857Y-98420000D01*
X147788571Y-98391428D01*
X147845714Y-98391428D01*
X147931428Y-98420000D01*
X147960000Y-98448571D01*
X148245714Y-98991428D02*
X148360000Y-98991428D01*
X148417142Y-98962857D01*
X148445714Y-98934285D01*
X148502857Y-98848571D01*
X148531428Y-98734285D01*
X148531428Y-98505714D01*
X148502857Y-98448571D01*
X148474285Y-98420000D01*
X148417142Y-98391428D01*
X148302857Y-98391428D01*
X148245714Y-98420000D01*
X148217142Y-98448571D01*
X148188571Y-98505714D01*
X148188571Y-98648571D01*
X148217142Y-98705714D01*
X148245714Y-98734285D01*
X148302857Y-98762857D01*
X148417142Y-98762857D01*
X148474285Y-98734285D01*
X148502857Y-98705714D01*
X148531428Y-98648571D01*
%TO.C,R2*%
X143760000Y-101071428D02*
X143560000Y-100785714D01*
X143417142Y-101071428D02*
X143417142Y-100471428D01*
X143645714Y-100471428D01*
X143702857Y-100500000D01*
X143731428Y-100528571D01*
X143760000Y-100585714D01*
X143760000Y-100671428D01*
X143731428Y-100728571D01*
X143702857Y-100757142D01*
X143645714Y-100785714D01*
X143417142Y-100785714D01*
X143988571Y-100528571D02*
X144017142Y-100500000D01*
X144074285Y-100471428D01*
X144217142Y-100471428D01*
X144274285Y-100500000D01*
X144302857Y-100528571D01*
X144331428Y-100585714D01*
X144331428Y-100642857D01*
X144302857Y-100728571D01*
X143960000Y-101071428D01*
X144331428Y-101071428D01*
%TO.C,D1*%
X137781428Y-91282857D02*
X137181428Y-91282857D01*
X137181428Y-91140000D01*
X137210000Y-91054285D01*
X137267142Y-90997142D01*
X137324285Y-90968571D01*
X137438571Y-90940000D01*
X137524285Y-90940000D01*
X137638571Y-90968571D01*
X137695714Y-90997142D01*
X137752857Y-91054285D01*
X137781428Y-91140000D01*
X137781428Y-91282857D01*
X137781428Y-90368571D02*
X137781428Y-90711428D01*
X137781428Y-90540000D02*
X137181428Y-90540000D01*
X137267142Y-90597142D01*
X137324285Y-90654285D01*
X137352857Y-90711428D01*
%TO.C,C2*%
X137684285Y-108760000D02*
X137712857Y-108788571D01*
X137741428Y-108874285D01*
X137741428Y-108931428D01*
X137712857Y-109017142D01*
X137655714Y-109074285D01*
X137598571Y-109102857D01*
X137484285Y-109131428D01*
X137398571Y-109131428D01*
X137284285Y-109102857D01*
X137227142Y-109074285D01*
X137170000Y-109017142D01*
X137141428Y-108931428D01*
X137141428Y-108874285D01*
X137170000Y-108788571D01*
X137198571Y-108760000D01*
X137198571Y-108531428D02*
X137170000Y-108502857D01*
X137141428Y-108445714D01*
X137141428Y-108302857D01*
X137170000Y-108245714D01*
X137198571Y-108217142D01*
X137255714Y-108188571D01*
X137312857Y-108188571D01*
X137398571Y-108217142D01*
X137741428Y-108560000D01*
X137741428Y-108188571D01*
%TO.C,C6*%
X155050000Y-100514285D02*
X155021428Y-100542857D01*
X154935714Y-100571428D01*
X154878571Y-100571428D01*
X154792857Y-100542857D01*
X154735714Y-100485714D01*
X154707142Y-100428571D01*
X154678571Y-100314285D01*
X154678571Y-100228571D01*
X154707142Y-100114285D01*
X154735714Y-100057142D01*
X154792857Y-100000000D01*
X154878571Y-99971428D01*
X154935714Y-99971428D01*
X155021428Y-100000000D01*
X155050000Y-100028571D01*
X155564285Y-99971428D02*
X155450000Y-99971428D01*
X155392857Y-100000000D01*
X155364285Y-100028571D01*
X155307142Y-100114285D01*
X155278571Y-100228571D01*
X155278571Y-100457142D01*
X155307142Y-100514285D01*
X155335714Y-100542857D01*
X155392857Y-100571428D01*
X155507142Y-100571428D01*
X155564285Y-100542857D01*
X155592857Y-100514285D01*
X155621428Y-100457142D01*
X155621428Y-100314285D01*
X155592857Y-100257142D01*
X155564285Y-100228571D01*
X155507142Y-100200000D01*
X155392857Y-100200000D01*
X155335714Y-100228571D01*
X155307142Y-100257142D01*
X155278571Y-100314285D01*
%TO.C,C11*%
X152234285Y-98145714D02*
X152262857Y-98174285D01*
X152291428Y-98260000D01*
X152291428Y-98317142D01*
X152262857Y-98402857D01*
X152205714Y-98460000D01*
X152148571Y-98488571D01*
X152034285Y-98517142D01*
X151948571Y-98517142D01*
X151834285Y-98488571D01*
X151777142Y-98460000D01*
X151720000Y-98402857D01*
X151691428Y-98317142D01*
X151691428Y-98260000D01*
X151720000Y-98174285D01*
X151748571Y-98145714D01*
X152291428Y-97574285D02*
X152291428Y-97917142D01*
X152291428Y-97745714D02*
X151691428Y-97745714D01*
X151777142Y-97802857D01*
X151834285Y-97860000D01*
X151862857Y-97917142D01*
X152291428Y-97002857D02*
X152291428Y-97345714D01*
X152291428Y-97174285D02*
X151691428Y-97174285D01*
X151777142Y-97231428D01*
X151834285Y-97288571D01*
X151862857Y-97345714D01*
%TO.C,Y1*%
X158135714Y-97025714D02*
X158421428Y-97025714D01*
X157821428Y-97225714D02*
X158135714Y-97025714D01*
X157821428Y-96825714D01*
X158421428Y-96311428D02*
X158421428Y-96654285D01*
X158421428Y-96482857D02*
X157821428Y-96482857D01*
X157907142Y-96540000D01*
X157964285Y-96597142D01*
X157992857Y-96654285D01*
%TO.C,C10*%
X152244285Y-96275714D02*
X152272857Y-96304285D01*
X152301428Y-96390000D01*
X152301428Y-96447142D01*
X152272857Y-96532857D01*
X152215714Y-96590000D01*
X152158571Y-96618571D01*
X152044285Y-96647142D01*
X151958571Y-96647142D01*
X151844285Y-96618571D01*
X151787142Y-96590000D01*
X151730000Y-96532857D01*
X151701428Y-96447142D01*
X151701428Y-96390000D01*
X151730000Y-96304285D01*
X151758571Y-96275714D01*
X152301428Y-95704285D02*
X152301428Y-96047142D01*
X152301428Y-95875714D02*
X151701428Y-95875714D01*
X151787142Y-95932857D01*
X151844285Y-95990000D01*
X151872857Y-96047142D01*
X151701428Y-95332857D02*
X151701428Y-95275714D01*
X151730000Y-95218571D01*
X151758571Y-95190000D01*
X151815714Y-95161428D01*
X151930000Y-95132857D01*
X152072857Y-95132857D01*
X152187142Y-95161428D01*
X152244285Y-95190000D01*
X152272857Y-95218571D01*
X152301428Y-95275714D01*
X152301428Y-95332857D01*
X152272857Y-95390000D01*
X152244285Y-95418571D01*
X152187142Y-95447142D01*
X152072857Y-95475714D01*
X151930000Y-95475714D01*
X151815714Y-95447142D01*
X151758571Y-95418571D01*
X151730000Y-95390000D01*
X151701428Y-95332857D01*
%TO.C,C1*%
X132714285Y-108740000D02*
X132742857Y-108768571D01*
X132771428Y-108854285D01*
X132771428Y-108911428D01*
X132742857Y-108997142D01*
X132685714Y-109054285D01*
X132628571Y-109082857D01*
X132514285Y-109111428D01*
X132428571Y-109111428D01*
X132314285Y-109082857D01*
X132257142Y-109054285D01*
X132200000Y-108997142D01*
X132171428Y-108911428D01*
X132171428Y-108854285D01*
X132200000Y-108768571D01*
X132228571Y-108740000D01*
X132771428Y-108168571D02*
X132771428Y-108511428D01*
X132771428Y-108340000D02*
X132171428Y-108340000D01*
X132257142Y-108397142D01*
X132314285Y-108454285D01*
X132342857Y-108511428D01*
%TO.C,U1*%
X134623428Y-107860142D02*
X135109142Y-107860142D01*
X135166285Y-107831571D01*
X135194857Y-107803000D01*
X135223428Y-107745857D01*
X135223428Y-107631571D01*
X135194857Y-107574428D01*
X135166285Y-107545857D01*
X135109142Y-107517285D01*
X134623428Y-107517285D01*
X135223428Y-106917285D02*
X135223428Y-107260142D01*
X135223428Y-107088714D02*
X134623428Y-107088714D01*
X134709142Y-107145857D01*
X134766285Y-107203000D01*
X134794857Y-107260142D01*
D13*
%TO.C,R3*%
X142196359Y-99140000D02*
X142503641Y-99140000D01*
X142196359Y-98380000D02*
X142503641Y-98380000D01*
%TO.C,C5*%
X149432164Y-101240000D02*
X149647836Y-101240000D01*
X149432164Y-100520000D02*
X149647836Y-100520000D01*
%TO.C,F1*%
X134807936Y-94040000D02*
X136012064Y-94040000D01*
X134807936Y-92220000D02*
X136012064Y-92220000D01*
%TO.C,C4*%
X162160689Y-104041394D02*
X161945017Y-104041394D01*
X162160689Y-104761394D02*
X161945017Y-104761394D01*
D10*
%TO.C,HOLE1*%
X131550000Y-92140000D02*
G75*
G03*
X131550000Y-92140000I-900000J0D01*
G01*
D14*
%TO.C,U3*%
X165644955Y-99828669D02*
X165375548Y-100098077D01*
X158730158Y-100098077D02*
X158460751Y-99828669D01*
X158460751Y-99828669D02*
X158730158Y-99559261D01*
X165375548Y-99559261D02*
X165644955Y-99828669D01*
X162052853Y-103420771D02*
X161783445Y-103151364D01*
X162322261Y-103151364D02*
X162052853Y-103420771D01*
X162052853Y-96236567D02*
X162322261Y-96505974D01*
X161783445Y-96505974D02*
X162052853Y-96236567D01*
X162179854Y-96056961D02*
G75*
G03*
X162179854Y-96056961I-127001J0D01*
G01*
D13*
%TO.C,R1*%
X133990000Y-90746359D02*
X133990000Y-91053641D01*
X133230000Y-90746359D02*
X133230000Y-91053641D01*
%TO.C,J3*%
X174090000Y-94580000D02*
X175420000Y-94580000D01*
X174090000Y-104860000D02*
X176750000Y-104860000D01*
X174090000Y-95910000D02*
X174090000Y-94580000D01*
X176750000Y-97180000D02*
X176750000Y-104860000D01*
X174090000Y-97180000D02*
X174090000Y-104860000D01*
X174090000Y-97180000D02*
X176750000Y-97180000D01*
%TO.C,C8*%
X156652164Y-101590000D02*
X156867836Y-101590000D01*
X156652164Y-100870000D02*
X156867836Y-100870000D01*
%TO.C,C7*%
X162150689Y-95501394D02*
X161935017Y-95501394D01*
X162150689Y-94781394D02*
X161935017Y-94781394D01*
D14*
%TO.C,USB1*%
X128970000Y-95260000D02*
X130464000Y-95260000D01*
X134265000Y-104200000D02*
X132696000Y-104200000D01*
X135770000Y-96141000D02*
X135770000Y-96349000D01*
X135770000Y-101831000D02*
X135770000Y-101849000D01*
X132696000Y-95260000D02*
X134265000Y-95260000D01*
X135770000Y-103111000D02*
X135770000Y-103319000D01*
X128970000Y-104200000D02*
X128970000Y-95260000D01*
X130464000Y-104200000D02*
X128970000Y-104200000D01*
X135770000Y-97611000D02*
X135770000Y-97629000D01*
X136810000Y-96040000D02*
G75*
G03*
X136810000Y-96040000I-250000J0D01*
G01*
%TO.C,*%
G36*
X133975927Y-99499398D02*
G01*
X133976712Y-99505154D01*
X133972734Y-99514104D01*
X133969463Y-99512403D01*
X133968162Y-99499499D01*
X133969463Y-99497906D01*
X133975927Y-99499398D01*
G37*
D10*
X133975927Y-99499398D02*
X133976712Y-99505154D01*
X133972734Y-99514104D01*
X133969463Y-99512403D01*
X133968162Y-99499499D01*
X133969463Y-99497906D01*
X133975927Y-99499398D01*
G36*
X132472251Y-100082471D02*
G01*
X132476463Y-100087194D01*
X132483602Y-100101966D01*
X132476105Y-100118193D01*
X132466921Y-100128670D01*
X132448599Y-100160263D01*
X132443578Y-100187080D01*
X132447884Y-100212499D01*
X132464397Y-100231720D01*
X132482168Y-100243412D01*
X132514146Y-100270309D01*
X132536420Y-100303667D01*
X132536534Y-100303940D01*
X132547029Y-100330327D01*
X132550584Y-100348933D01*
X132547117Y-100369010D01*
X132536551Y-100399806D01*
X132535688Y-100402201D01*
X132526052Y-100429164D01*
X132520431Y-100445310D01*
X132519855Y-100447173D01*
X132510992Y-100452259D01*
X132489065Y-100463151D01*
X132480391Y-100467302D01*
X132455314Y-100480977D01*
X132445610Y-100495095D01*
X132446475Y-100518212D01*
X132447651Y-100525626D01*
X132452328Y-100564677D01*
X132454332Y-100602534D01*
X132454452Y-100639767D01*
X132481316Y-100614529D01*
X132501767Y-100598415D01*
X132516236Y-100597467D01*
X132524809Y-100603092D01*
X132538186Y-100618118D01*
X132538204Y-100633858D01*
X132523509Y-100655114D01*
X132504469Y-100675120D01*
X132468456Y-100703320D01*
X132437419Y-100711746D01*
X132412689Y-100700307D01*
X132400634Y-100682188D01*
X132395113Y-100659526D01*
X132390355Y-100616830D01*
X132386328Y-100553643D01*
X132383002Y-100469510D01*
X132380975Y-100393596D01*
X132375132Y-100134905D01*
X132405953Y-100102735D01*
X132433428Y-100078363D01*
X132454151Y-100071911D01*
X132472251Y-100082471D01*
G37*
X132472251Y-100082471D02*
X132476463Y-100087194D01*
X132483602Y-100101966D01*
X132476105Y-100118193D01*
X132466921Y-100128670D01*
X132448599Y-100160263D01*
X132443578Y-100187080D01*
X132447884Y-100212499D01*
X132464397Y-100231720D01*
X132482168Y-100243412D01*
X132514146Y-100270309D01*
X132536420Y-100303667D01*
X132536534Y-100303940D01*
X132547029Y-100330327D01*
X132550584Y-100348933D01*
X132547117Y-100369010D01*
X132536551Y-100399806D01*
X132535688Y-100402201D01*
X132526052Y-100429164D01*
X132520431Y-100445310D01*
X132519855Y-100447173D01*
X132510992Y-100452259D01*
X132489065Y-100463151D01*
X132480391Y-100467302D01*
X132455314Y-100480977D01*
X132445610Y-100495095D01*
X132446475Y-100518212D01*
X132447651Y-100525626D01*
X132452328Y-100564677D01*
X132454332Y-100602534D01*
X132454452Y-100639767D01*
X132481316Y-100614529D01*
X132501767Y-100598415D01*
X132516236Y-100597467D01*
X132524809Y-100603092D01*
X132538186Y-100618118D01*
X132538204Y-100633858D01*
X132523509Y-100655114D01*
X132504469Y-100675120D01*
X132468456Y-100703320D01*
X132437419Y-100711746D01*
X132412689Y-100700307D01*
X132400634Y-100682188D01*
X132395113Y-100659526D01*
X132390355Y-100616830D01*
X132386328Y-100553643D01*
X132383002Y-100469510D01*
X132380975Y-100393596D01*
X132375132Y-100134905D01*
X132405953Y-100102735D01*
X132433428Y-100078363D01*
X132454151Y-100071911D01*
X132472251Y-100082471D01*
G36*
X133845448Y-99966950D02*
G01*
X133846233Y-99972706D01*
X133842254Y-99981656D01*
X133838984Y-99979955D01*
X133837682Y-99967051D01*
X133838984Y-99965457D01*
X133845448Y-99966950D01*
G37*
X133845448Y-99966950D02*
X133846233Y-99972706D01*
X133842254Y-99981656D01*
X133838984Y-99979955D01*
X133837682Y-99967051D01*
X133838984Y-99965457D01*
X133845448Y-99966950D01*
G36*
X133911472Y-99869410D02*
G01*
X133906036Y-99874846D01*
X133900599Y-99869410D01*
X133906036Y-99863973D01*
X133911472Y-99869410D01*
G37*
X133911472Y-99869410D02*
X133906036Y-99874846D01*
X133900599Y-99869410D01*
X133906036Y-99863973D01*
X133911472Y-99869410D01*
G36*
X133911472Y-99597577D02*
G01*
X133921834Y-99606878D01*
X133922346Y-99608451D01*
X133914762Y-99617095D01*
X133911472Y-99619324D01*
X133902260Y-99616742D01*
X133900599Y-99608451D01*
X133905713Y-99596707D01*
X133911472Y-99597577D01*
G37*
X133911472Y-99597577D02*
X133921834Y-99606878D01*
X133922346Y-99608451D01*
X133914762Y-99617095D01*
X133911472Y-99619324D01*
X133902260Y-99616742D01*
X133900599Y-99608451D01*
X133905713Y-99596707D01*
X133911472Y-99597577D01*
G36*
X133846233Y-100076002D02*
G01*
X133840796Y-100081439D01*
X133835359Y-100076002D01*
X133840796Y-100070565D01*
X133846233Y-100076002D01*
G37*
X133846233Y-100076002D02*
X133840796Y-100081439D01*
X133835359Y-100076002D01*
X133840796Y-100070565D01*
X133846233Y-100076002D01*
G36*
X133857106Y-99336618D02*
G01*
X133851669Y-99342055D01*
X133846233Y-99336618D01*
X133851669Y-99331182D01*
X133857106Y-99336618D01*
G37*
X133857106Y-99336618D02*
X133851669Y-99342055D01*
X133846233Y-99336618D01*
X133851669Y-99331182D01*
X133857106Y-99336618D01*
G36*
X133791764Y-100410464D02*
G01*
X133762761Y-100379498D01*
X133734280Y-100339397D01*
X133720531Y-100314842D01*
X133691364Y-100255227D01*
X133629159Y-100366770D01*
X133573455Y-100462392D01*
X133521403Y-100541733D01*
X133469604Y-100609083D01*
X133414657Y-100668731D01*
X133353163Y-100724969D01*
X133330071Y-100744146D01*
X133282326Y-100780491D01*
X133227638Y-100818215D01*
X133171690Y-100853740D01*
X133120167Y-100883487D01*
X133078750Y-100903880D01*
X133072169Y-100906525D01*
X133059558Y-100913352D01*
X133050728Y-100925422D01*
X133044080Y-100947263D01*
X133038016Y-100983405D01*
X133033823Y-101015183D01*
X133012145Y-101114998D01*
X132973672Y-101201249D01*
X132917766Y-101274823D01*
X132843789Y-101336611D01*
X132774582Y-101376482D01*
X132693028Y-101405553D01*
X132603847Y-101418272D01*
X132531009Y-101414937D01*
X132514240Y-101414169D01*
X132445684Y-101397985D01*
X132356623Y-101358578D01*
X132281948Y-101306329D01*
X132237012Y-101259695D01*
X132214447Y-101234451D01*
X132196031Y-101219029D01*
X132188096Y-101216533D01*
X132174248Y-101220522D01*
X132143171Y-101228718D01*
X132098753Y-101240118D01*
X132044878Y-101253722D01*
X132011365Y-101262093D01*
X131948752Y-101277864D01*
X131904228Y-101289835D01*
X131874728Y-101299249D01*
X131857188Y-101307349D01*
X131848543Y-101315377D01*
X131845729Y-101324575D01*
X131845548Y-101329320D01*
X131836747Y-101356585D01*
X131814906Y-101385089D01*
X131786861Y-101407974D01*
X131759452Y-101418379D01*
X131756679Y-101418466D01*
X131732569Y-101415738D01*
X131696407Y-101409084D01*
X131666138Y-101402326D01*
X131619068Y-101394571D01*
X131553522Y-101389219D01*
X131472661Y-101386491D01*
X131437799Y-101386187D01*
X131363451Y-101384821D01*
X131280709Y-101381383D01*
X131199530Y-101376387D01*
X131129870Y-101370349D01*
X131128261Y-101370179D01*
X131065909Y-101363995D01*
X131022094Y-101360904D01*
X130993832Y-101360859D01*
X130978141Y-101363810D01*
X130973011Y-101367676D01*
X130961155Y-101386093D01*
X130946399Y-101409772D01*
X130916304Y-101442123D01*
X130878584Y-101459078D01*
X130839131Y-101459239D01*
X130806029Y-101443076D01*
X130787634Y-101421954D01*
X130767663Y-101390365D01*
X130759939Y-101375360D01*
X130740792Y-101340440D01*
X130715009Y-101303803D01*
X130680496Y-101263159D01*
X130635157Y-101216216D01*
X130576897Y-101160683D01*
X130557754Y-101143333D01*
X132273987Y-101143333D01*
X132274557Y-101156365D01*
X132289918Y-101181464D01*
X132319422Y-101212373D01*
X132357964Y-101244781D01*
X132400438Y-101274376D01*
X132439952Y-101296038D01*
X132471615Y-101309360D01*
X132499532Y-101317085D01*
X132531009Y-101320257D01*
X132573350Y-101319919D01*
X132599519Y-101318823D01*
X132671220Y-101311953D01*
X132728283Y-101297203D01*
X132777183Y-101271919D01*
X132824389Y-101233453D01*
X132836344Y-101221807D01*
X132872721Y-101177507D01*
X132904747Y-101124115D01*
X132929060Y-101068602D01*
X132942294Y-101017939D01*
X132943741Y-100999268D01*
X132943750Y-100954810D01*
X132854045Y-100973988D01*
X132775320Y-100988143D01*
X132683689Y-101000360D01*
X132587967Y-101009728D01*
X132496968Y-101015338D01*
X132464488Y-101016045D01*
X132441690Y-101016541D01*
X132398103Y-101017879D01*
X132368531Y-101021569D01*
X132356666Y-101027130D01*
X132356592Y-101027658D01*
X132349714Y-101041045D01*
X132342502Y-101050499D01*
X132331872Y-101064434D01*
X132312199Y-101086935D01*
X132285198Y-101119725D01*
X132273987Y-101143333D01*
X130557754Y-101143333D01*
X130503620Y-101094269D01*
X130499555Y-101090649D01*
X130422013Y-101020235D01*
X130358292Y-100958763D01*
X130323088Y-100921543D01*
X132464488Y-100921543D01*
X132576358Y-100913780D01*
X132742358Y-100895541D01*
X132890740Y-100865101D01*
X133021354Y-100822503D01*
X133134052Y-100767785D01*
X133150342Y-100757952D01*
X133211471Y-100714969D01*
X133278344Y-100659717D01*
X133345040Y-100597748D01*
X133405633Y-100534612D01*
X133454203Y-100475860D01*
X133460318Y-100467440D01*
X133524712Y-100364390D01*
X133582147Y-100248353D01*
X133629880Y-100126180D01*
X133642878Y-100081439D01*
X133780993Y-100081439D01*
X133788986Y-100098803D01*
X133810622Y-100102666D01*
X133842385Y-100092886D01*
X133858146Y-100084531D01*
X133879426Y-100071149D01*
X133889583Y-100063163D01*
X133889726Y-100062784D01*
X133879938Y-100061020D01*
X133876362Y-100060860D01*
X133854915Y-100059900D01*
X133835359Y-100059692D01*
X133819049Y-100060265D01*
X133802750Y-100060837D01*
X133789338Y-100064845D01*
X133786487Y-100065697D01*
X133781225Y-100076409D01*
X133780993Y-100081439D01*
X133642878Y-100081439D01*
X133656496Y-100034563D01*
X133803328Y-100034563D01*
X133810613Y-100047500D01*
X133819049Y-100048819D01*
X133832167Y-100039367D01*
X133834366Y-100027151D01*
X133846233Y-100027151D01*
X133854602Y-100044202D01*
X133876362Y-100048891D01*
X133906490Y-100040424D01*
X133912187Y-100037563D01*
X133930690Y-100023764D01*
X133927997Y-100013848D01*
X133904372Y-100008169D01*
X133889726Y-100007186D01*
X133861418Y-100007756D01*
X133848850Y-100014216D01*
X133846233Y-100027151D01*
X133834366Y-100027151D01*
X133835359Y-100021636D01*
X133837007Y-100005804D01*
X133845573Y-99997721D01*
X133866491Y-99994804D01*
X133892547Y-99994452D01*
X133929648Y-99992476D01*
X133951477Y-99985307D01*
X133962861Y-99973433D01*
X133970176Y-99956577D01*
X133961430Y-99948716D01*
X133957322Y-99947511D01*
X133948046Y-99943599D01*
X133959657Y-99941526D01*
X133962738Y-99941347D01*
X133987032Y-99931506D01*
X133998072Y-99919061D01*
X134003145Y-99903488D01*
X133992663Y-99896048D01*
X133979427Y-99893507D01*
X133960687Y-99890341D01*
X133961915Y-99888679D01*
X133983992Y-99887352D01*
X133984070Y-99887349D01*
X134011841Y-99878578D01*
X134025653Y-99859967D01*
X134024526Y-99838197D01*
X134007477Y-99819949D01*
X133994736Y-99814774D01*
X133965761Y-99804525D01*
X133946103Y-99795834D01*
X133944938Y-99795457D01*
X133925099Y-99789030D01*
X133912579Y-99796790D01*
X133910932Y-99799236D01*
X133902584Y-99807882D01*
X133900765Y-99801452D01*
X133891841Y-99789406D01*
X133884289Y-99787860D01*
X133871037Y-99797042D01*
X133867979Y-99810875D01*
X133872578Y-99827786D01*
X133889654Y-99828221D01*
X133889741Y-99828199D01*
X133904456Y-99827483D01*
X133905409Y-99832367D01*
X133890657Y-99840635D01*
X133878211Y-99842226D01*
X133860495Y-99850226D01*
X133857106Y-99863973D01*
X133860656Y-99877969D01*
X133875030Y-99884607D01*
X133903317Y-99886578D01*
X133927491Y-99888300D01*
X133935988Y-99891683D01*
X133933219Y-99893645D01*
X133913661Y-99906339D01*
X133908920Y-99911815D01*
X133901940Y-99917015D01*
X133900765Y-99910184D01*
X133891343Y-99899970D01*
X133873416Y-99896593D01*
X133852301Y-99901497D01*
X133846235Y-99919034D01*
X133846233Y-99919573D01*
X133849681Y-99935356D01*
X133864223Y-99939308D01*
X133878852Y-99937767D01*
X133903113Y-99937753D01*
X133911472Y-99945222D01*
X133901743Y-99952910D01*
X133875073Y-99953210D01*
X133873526Y-99953036D01*
X133845961Y-99952615D01*
X133832410Y-99961502D01*
X133829239Y-99968811D01*
X133818292Y-99996666D01*
X133812819Y-100007896D01*
X133803328Y-100034563D01*
X133656496Y-100034563D01*
X133665166Y-100004718D01*
X133682627Y-99912397D01*
X133688992Y-99867114D01*
X133694696Y-99828990D01*
X133698837Y-99803961D01*
X133699905Y-99798733D01*
X133702141Y-99774735D01*
X133702176Y-99734189D01*
X133700833Y-99696343D01*
X133786429Y-99696343D01*
X133786577Y-99760679D01*
X133786989Y-99816179D01*
X133787618Y-99859729D01*
X133788416Y-99888214D01*
X133789338Y-99898517D01*
X133789479Y-99898318D01*
X133797997Y-99866234D01*
X133807208Y-99821756D01*
X133815574Y-99773607D01*
X133821558Y-99730508D01*
X133823180Y-99710108D01*
X133884289Y-99710108D01*
X133914898Y-99721801D01*
X133944938Y-99731549D01*
X133960246Y-99730073D01*
X133965502Y-99715950D01*
X133965839Y-99706310D01*
X133961209Y-99686047D01*
X133952247Y-99679512D01*
X133933230Y-99684774D01*
X133911472Y-99695003D01*
X133885954Y-99709183D01*
X133884289Y-99710108D01*
X133823180Y-99710108D01*
X133823622Y-99704548D01*
X133821936Y-99671158D01*
X133816686Y-99625935D01*
X133808981Y-99578287D01*
X133808395Y-99575194D01*
X133800492Y-99535354D01*
X133793921Y-99504893D01*
X133789851Y-99489158D01*
X133789367Y-99488157D01*
X133788463Y-99497545D01*
X133787672Y-99525437D01*
X133787039Y-99568589D01*
X133786610Y-99623761D01*
X133786432Y-99687708D01*
X133786429Y-99696343D01*
X133700833Y-99696343D01*
X133700329Y-99682145D01*
X133696919Y-99623654D01*
X133692264Y-99563770D01*
X133686684Y-99507541D01*
X133680497Y-99460021D01*
X133677364Y-99441573D01*
X133638223Y-99288107D01*
X133637977Y-99287473D01*
X133787638Y-99287473D01*
X133790948Y-99305771D01*
X133797599Y-99328538D01*
X133808132Y-99359150D01*
X133817791Y-99380125D01*
X133821228Y-99384573D01*
X133828513Y-99399633D01*
X133829923Y-99412241D01*
X133839803Y-99432446D01*
X133857106Y-99441059D01*
X133872191Y-99446816D01*
X133866142Y-99449634D01*
X133865048Y-99449704D01*
X133851508Y-99455772D01*
X133850311Y-99475241D01*
X133851047Y-99479686D01*
X133856057Y-99509223D01*
X133861954Y-99546475D01*
X133863368Y-99555799D01*
X133869408Y-99584324D01*
X133876373Y-99601121D01*
X133879069Y-99603014D01*
X133883679Y-99611705D01*
X133882003Y-99624761D01*
X133879259Y-99641375D01*
X133885954Y-99645045D01*
X133906147Y-99636629D01*
X133915501Y-99631845D01*
X133933036Y-99619192D01*
X133935863Y-99609159D01*
X133935773Y-99609065D01*
X133936761Y-99603905D01*
X133944092Y-99604621D01*
X133960942Y-99604059D01*
X133985739Y-99598856D01*
X134012210Y-99591027D01*
X134034081Y-99582590D01*
X134045082Y-99575560D01*
X134043426Y-99572698D01*
X134033517Y-99559898D01*
X134031038Y-99545023D01*
X134026167Y-99521898D01*
X134014229Y-99495177D01*
X133999137Y-99471349D01*
X133984803Y-99456905D01*
X133977285Y-99455871D01*
X133969145Y-99451230D01*
X133963860Y-99431944D01*
X133959910Y-99413808D01*
X133949486Y-99404493D01*
X133926553Y-99400536D01*
X133907227Y-99399425D01*
X133874977Y-99396730D01*
X133852630Y-99392607D01*
X133847424Y-99390232D01*
X133851898Y-99386179D01*
X133871780Y-99385561D01*
X133873416Y-99385662D01*
X133912075Y-99387115D01*
X133932734Y-99384345D01*
X133938875Y-99376494D01*
X133937406Y-99369903D01*
X133923429Y-99356827D01*
X133897950Y-99346840D01*
X133896972Y-99346617D01*
X133875507Y-99340845D01*
X133873468Y-99336029D01*
X133884217Y-99331291D01*
X133895953Y-99325296D01*
X133892526Y-99318055D01*
X133871758Y-99305909D01*
X133867907Y-99303901D01*
X133836773Y-99290179D01*
X133809598Y-99282050D01*
X133806294Y-99281556D01*
X133792434Y-99281126D01*
X133787638Y-99287473D01*
X133637977Y-99287473D01*
X133580833Y-99140397D01*
X133506916Y-99001831D01*
X133418192Y-98875800D01*
X133352003Y-98800764D01*
X133257336Y-98712280D01*
X133160125Y-98641334D01*
X133055861Y-98585478D01*
X132940032Y-98542265D01*
X132936488Y-98541364D01*
X132818707Y-98511431D01*
X132782770Y-98505008D01*
X132735930Y-98498206D01*
X132682578Y-98491476D01*
X132627106Y-98485268D01*
X132573908Y-98480033D01*
X132527376Y-98476223D01*
X132491902Y-98474288D01*
X132471878Y-98474680D01*
X132469213Y-98475553D01*
X132469813Y-98487647D01*
X132477537Y-98508844D01*
X132490061Y-98527889D01*
X132509577Y-98536255D01*
X132535028Y-98538023D01*
X132602827Y-98548396D01*
X132662552Y-98576201D01*
X132709620Y-98619271D01*
X132711173Y-98621278D01*
X132729725Y-98649903D01*
X132744495Y-98683578D01*
X132755855Y-98724900D01*
X132764178Y-98776465D01*
X132769837Y-98840872D01*
X132773203Y-98920716D01*
X132774648Y-99018595D01*
X132774773Y-99064786D01*
X132774636Y-99143920D01*
X132774046Y-99204599D01*
X132772738Y-99250116D01*
X132770448Y-99283762D01*
X132766913Y-99308830D01*
X132761869Y-99328610D01*
X132755053Y-99346394D01*
X132751604Y-99354048D01*
X132708274Y-99424707D01*
X132651431Y-99478401D01*
X132580729Y-99515395D01*
X132518300Y-99532359D01*
X132479816Y-99539517D01*
X132478853Y-99539696D01*
X132471386Y-99635151D01*
X132468736Y-99689087D01*
X132468548Y-99744563D01*
X132470817Y-99790931D01*
X132471463Y-99797289D01*
X132476868Y-99834977D01*
X132483520Y-99855477D01*
X132493293Y-99863342D01*
X132498941Y-99863973D01*
X132532001Y-99869823D01*
X132575125Y-99885120D01*
X132620816Y-99906482D01*
X132661577Y-99930531D01*
X132682913Y-99946927D01*
X132711571Y-99979212D01*
X132738625Y-100019919D01*
X132749370Y-100040755D01*
X132757791Y-100060455D01*
X132764140Y-100079399D01*
X132768707Y-100100948D01*
X132771786Y-100128466D01*
X132773666Y-100165316D01*
X132774639Y-100214861D01*
X132774998Y-100280465D01*
X132775038Y-100336961D01*
X132774119Y-100445084D01*
X132771169Y-100533991D01*
X132765876Y-100606146D01*
X132757928Y-100664011D01*
X132747011Y-100710050D01*
X132732814Y-100746725D01*
X132720226Y-100768959D01*
X132679914Y-100811513D01*
X132624101Y-100842589D01*
X132556966Y-100859969D01*
X132546591Y-100861215D01*
X132510947Y-100866625D01*
X132501440Y-100870772D01*
X132490413Y-100875582D01*
X132478360Y-100891238D01*
X132476884Y-100894336D01*
X132464488Y-100921543D01*
X130323088Y-100921543D01*
X130304776Y-100902183D01*
X130257844Y-100846447D01*
X130213877Y-100787507D01*
X130169258Y-100721315D01*
X130168872Y-100720720D01*
X130061349Y-100535717D01*
X129974278Y-100343784D01*
X129907305Y-100143975D01*
X129860073Y-99935341D01*
X129849301Y-99868154D01*
X129838736Y-99770791D01*
X129833016Y-99661791D01*
X129831931Y-99546014D01*
X129835271Y-99428321D01*
X129842824Y-99313574D01*
X129854380Y-99206634D01*
X129869728Y-99112363D01*
X129884838Y-99048476D01*
X129913016Y-98968116D01*
X131455800Y-98968116D01*
X131459953Y-98982743D01*
X131473135Y-99010550D01*
X131482260Y-99028639D01*
X131530808Y-99135259D01*
X131577083Y-99257311D01*
X131619188Y-99388481D01*
X131655224Y-99522457D01*
X131683295Y-99652927D01*
X131698368Y-99747642D01*
X131704914Y-99812270D01*
X131709745Y-99889072D01*
X131712791Y-99972496D01*
X131713978Y-100056989D01*
X131713235Y-100137001D01*
X131710488Y-100206979D01*
X131705665Y-100261371D01*
X131705124Y-100265333D01*
X131697598Y-100303035D01*
X131684613Y-100329321D01*
X131660949Y-100352065D01*
X131636011Y-100369581D01*
X131627837Y-100377694D01*
X131625014Y-100391121D01*
X131627503Y-100415110D01*
X131635265Y-100454906D01*
X131635369Y-100455404D01*
X131663377Y-100551675D01*
X131705428Y-100636846D01*
X131763176Y-100712861D01*
X131838274Y-100781661D01*
X131932377Y-100845190D01*
X131997774Y-100881135D01*
X132021707Y-100892830D01*
X132043636Y-100901258D01*
X132067939Y-100907089D01*
X132098989Y-100910994D01*
X132141165Y-100913643D01*
X132198840Y-100915704D01*
X132229246Y-100916570D01*
X132294964Y-100918146D01*
X132342502Y-100918504D01*
X132375406Y-100917379D01*
X132397222Y-100914503D01*
X132411495Y-100909606D01*
X132421772Y-100902422D01*
X132422247Y-100901996D01*
X132440499Y-100881156D01*
X132439091Y-100867478D01*
X132417731Y-100858243D01*
X132417587Y-100858206D01*
X132383200Y-100839855D01*
X132351986Y-100806140D01*
X132329314Y-100763333D01*
X132325132Y-100750221D01*
X132315231Y-100700638D01*
X132307063Y-100634230D01*
X132300853Y-100555863D01*
X132296824Y-100470406D01*
X132295263Y-100386188D01*
X132336298Y-100386188D01*
X132338057Y-100480554D01*
X132342587Y-100569933D01*
X132349888Y-100649897D01*
X132359958Y-100716020D01*
X132369046Y-100752964D01*
X132381088Y-100784093D01*
X132396952Y-100804032D01*
X132421335Y-100815186D01*
X132458933Y-100819961D01*
X132501440Y-100820805D01*
X132561876Y-100818199D01*
X132610345Y-100808967D01*
X132648409Y-100790950D01*
X132677626Y-100761986D01*
X132699559Y-100719917D01*
X132715768Y-100662583D01*
X132727815Y-100587824D01*
X132737164Y-100494624D01*
X132743077Y-100412388D01*
X132745632Y-100343719D01*
X132744846Y-100280700D01*
X132740741Y-100215415D01*
X132737939Y-100184462D01*
X132724305Y-100100895D01*
X132700521Y-100035028D01*
X132665201Y-99984663D01*
X132616960Y-99947598D01*
X132577296Y-99929324D01*
X132510913Y-99910275D01*
X132457566Y-99908143D01*
X132416241Y-99923245D01*
X132385927Y-99955896D01*
X132369053Y-99994452D01*
X132356962Y-100047366D01*
X132347640Y-100117422D01*
X132341089Y-100200195D01*
X132337309Y-100291259D01*
X132336298Y-100386188D01*
X132295263Y-100386188D01*
X132295199Y-100382727D01*
X132296204Y-100297694D01*
X132300061Y-100220176D01*
X132300496Y-100214493D01*
X132309272Y-100119355D01*
X132319429Y-100043608D01*
X132331665Y-99984907D01*
X132346677Y-99940910D01*
X132365163Y-99909270D01*
X132387818Y-99887644D01*
X132399863Y-99880398D01*
X132431615Y-99863978D01*
X132434879Y-99699867D01*
X132438142Y-99535757D01*
X132403679Y-99521376D01*
X132375629Y-99504076D01*
X132356072Y-99482431D01*
X132355898Y-99482112D01*
X132336719Y-99433049D01*
X132320913Y-99365882D01*
X132308663Y-99284020D01*
X132300153Y-99190869D01*
X132295564Y-99089836D01*
X132295340Y-99040991D01*
X132337495Y-99040991D01*
X132339050Y-99135346D01*
X132343428Y-99223974D01*
X132350682Y-99302319D01*
X132360868Y-99365826D01*
X132361413Y-99368338D01*
X132379091Y-99427968D01*
X132403027Y-99467924D01*
X132435758Y-99489657D01*
X132479816Y-99494616D01*
X132537737Y-99484253D01*
X132555232Y-99479272D01*
X132621486Y-99449579D01*
X132672896Y-99404595D01*
X132709810Y-99343846D01*
X132732574Y-99266853D01*
X132738179Y-99227886D01*
X132741440Y-99175884D01*
X132742421Y-99108452D01*
X132741311Y-99031769D01*
X132738298Y-98952010D01*
X132733569Y-98875353D01*
X132727314Y-98807974D01*
X132724770Y-98787517D01*
X132709330Y-98711756D01*
X132684935Y-98654560D01*
X132649683Y-98613925D01*
X132601668Y-98587844D01*
X132538987Y-98574312D01*
X132520819Y-98572656D01*
X132460905Y-98572441D01*
X132417898Y-98582605D01*
X132388932Y-98604481D01*
X132371139Y-98639403D01*
X132370134Y-98642724D01*
X132358400Y-98697391D01*
X132349214Y-98769107D01*
X132342632Y-98853316D01*
X132338707Y-98945462D01*
X132337495Y-99040991D01*
X132295340Y-99040991D01*
X132295081Y-98984331D01*
X132298885Y-98877760D01*
X132307159Y-98773530D01*
X132314576Y-98711853D01*
X132325501Y-98650533D01*
X132339970Y-98606814D01*
X132360105Y-98576598D01*
X132388028Y-98555785D01*
X132397858Y-98550936D01*
X132424121Y-98538830D01*
X132440451Y-98530967D01*
X132442333Y-98529939D01*
X132440077Y-98520125D01*
X132428814Y-98500209D01*
X132428491Y-98499715D01*
X132415661Y-98484060D01*
X132398979Y-98475764D01*
X132371681Y-98472582D01*
X132345583Y-98472192D01*
X132299801Y-98475875D01*
X132241110Y-98486046D01*
X132176895Y-98501387D01*
X132167769Y-98503905D01*
X132070844Y-98534595D01*
X131991598Y-98568155D01*
X131925967Y-98607056D01*
X131869886Y-98653768D01*
X131819291Y-98710762D01*
X131812094Y-98720126D01*
X131777441Y-98762301D01*
X131738243Y-98804536D01*
X131702640Y-98838090D01*
X131700707Y-98839710D01*
X131665930Y-98865382D01*
X131622786Y-98892639D01*
X131576537Y-98918680D01*
X131532447Y-98940704D01*
X131495776Y-98955907D01*
X131471997Y-98961490D01*
X131460030Y-98962442D01*
X131455800Y-98968116D01*
X129913016Y-98968116D01*
X129919081Y-98950818D01*
X129964925Y-98854500D01*
X130019700Y-98763431D01*
X130080734Y-98681520D01*
X130145357Y-98612676D01*
X130210898Y-98560810D01*
X130223231Y-98553199D01*
X130252564Y-98527390D01*
X130286411Y-98482406D01*
X130309386Y-98445075D01*
X130350350Y-98384175D01*
X130404037Y-98318801D01*
X130465200Y-98254338D01*
X130497747Y-98224476D01*
X132287997Y-98224476D01*
X132295888Y-98242111D01*
X132313389Y-98269359D01*
X132330376Y-98288138D01*
X132347915Y-98309227D01*
X132362989Y-98336913D01*
X132376891Y-98370170D01*
X132559743Y-98383622D01*
X132659625Y-98392206D01*
X132750415Y-98402441D01*
X132828696Y-98413849D01*
X132891050Y-98425950D01*
X132923491Y-98434608D01*
X132936488Y-98435789D01*
X132942365Y-98425034D01*
X132943750Y-98397494D01*
X132943750Y-98397220D01*
X132939753Y-98361599D01*
X132929529Y-98318403D01*
X132921419Y-98293717D01*
X132887342Y-98228695D01*
X132837330Y-98167362D01*
X132777030Y-98116063D01*
X132746382Y-98097027D01*
X132716464Y-98081782D01*
X132690044Y-98072333D01*
X132660219Y-98067311D01*
X132620083Y-98065352D01*
X132584931Y-98065073D01*
X132533671Y-98065726D01*
X132497168Y-98068685D01*
X132468454Y-98075247D01*
X132440562Y-98086706D01*
X132424179Y-98094974D01*
X132382632Y-98120562D01*
X132341213Y-98152085D01*
X132323417Y-98168295D01*
X132299135Y-98193542D01*
X132288126Y-98210129D01*
X132287997Y-98224476D01*
X130497747Y-98224476D01*
X130528595Y-98196172D01*
X130588976Y-98149687D01*
X130610462Y-98135954D01*
X130700275Y-98091230D01*
X130806874Y-98052888D01*
X130925951Y-98022015D01*
X131053200Y-97999701D01*
X131184314Y-97987031D01*
X131204024Y-97986031D01*
X131320413Y-97984561D01*
X131445606Y-97989566D01*
X131574629Y-98000411D01*
X131702509Y-98016460D01*
X131824274Y-98037077D01*
X131934951Y-98061626D01*
X132029566Y-98089471D01*
X132038956Y-98092772D01*
X132078827Y-98104621D01*
X132116975Y-98112069D01*
X132133586Y-98113374D01*
X132168208Y-98117064D01*
X132197561Y-98125602D01*
X132215747Y-98131333D01*
X132231013Y-98126505D01*
X132250368Y-98108134D01*
X132257548Y-98100075D01*
X132295051Y-98067407D01*
X132347469Y-98034966D01*
X132408175Y-98005977D01*
X132470546Y-97983663D01*
X132519995Y-97972343D01*
X132606493Y-97966468D01*
X132687028Y-97977439D01*
X132766460Y-98006411D01*
X132840453Y-98048460D01*
X132915706Y-98108812D01*
X132972310Y-98180032D01*
X133011100Y-98263330D01*
X133025515Y-98316468D01*
X133033730Y-98360990D01*
X133039487Y-98403152D01*
X133041420Y-98430572D01*
X133042139Y-98447821D01*
X133046254Y-98461300D01*
X133056987Y-98473863D01*
X133077562Y-98488367D01*
X133111202Y-98507664D01*
X133155411Y-98531545D01*
X133208827Y-98561668D01*
X133254711Y-98591544D01*
X133299005Y-98625636D01*
X133347647Y-98668408D01*
X133387392Y-98705831D01*
X133448563Y-98767208D01*
X133500379Y-98826207D01*
X133546553Y-98887985D01*
X133590800Y-98957702D01*
X133636833Y-99040515D01*
X133658763Y-99082729D01*
X133701296Y-99165911D01*
X133715023Y-99126222D01*
X133740192Y-99071446D01*
X133775934Y-99016480D01*
X133816687Y-98969003D01*
X133848517Y-98942010D01*
X133913461Y-98902417D01*
X133992285Y-98863529D01*
X134086563Y-98824745D01*
X134197868Y-98785465D01*
X134327772Y-98745088D01*
X134466010Y-98706200D01*
X134520839Y-98691370D01*
X134569229Y-98678236D01*
X134606744Y-98668005D01*
X134628948Y-98661884D01*
X134631828Y-98661068D01*
X134644355Y-98661096D01*
X134649828Y-98674124D01*
X134650822Y-98697080D01*
X134650788Y-98738588D01*
X134569829Y-98764992D01*
X134531879Y-98778885D01*
X134505642Y-98791506D01*
X134495267Y-98800780D01*
X134495534Y-98802178D01*
X134493778Y-98808300D01*
X134484410Y-98806134D01*
X134462270Y-98804812D01*
X134433135Y-98810991D01*
X134431841Y-98811433D01*
X134397059Y-98823558D01*
X134461177Y-98843865D01*
X134496974Y-98852783D01*
X134535040Y-98858533D01*
X134570201Y-98860901D01*
X134597284Y-98859675D01*
X134611113Y-98854641D01*
X134611114Y-98850039D01*
X134615887Y-98843580D01*
X134628468Y-98841884D01*
X134650856Y-98841884D01*
X134650856Y-100533103D01*
X134567886Y-100528913D01*
X134524870Y-100527538D01*
X134500555Y-100529036D01*
X134492038Y-100533760D01*
X134493134Y-100538021D01*
X134494100Y-100546734D01*
X134479681Y-100544441D01*
X134460256Y-100543141D01*
X134436011Y-100547055D01*
X134414377Y-100554068D01*
X134402789Y-100562060D01*
X134403441Y-100566159D01*
X134417596Y-100571737D01*
X134434851Y-100574852D01*
X134462425Y-100580361D01*
X134476883Y-100585281D01*
X134494789Y-100592377D01*
X134526651Y-100604106D01*
X134565857Y-100618037D01*
X134569306Y-100619241D01*
X134645419Y-100645779D01*
X134648676Y-100705983D01*
X134649331Y-100741453D01*
X134645918Y-100758817D01*
X134637803Y-100761453D01*
X134622822Y-100756625D01*
X134591188Y-100746551D01*
X134546985Y-100732529D01*
X134494300Y-100715857D01*
X134471447Y-100708635D01*
X134341109Y-100665528D01*
X134218296Y-100621109D01*
X134105256Y-100576362D01*
X134004235Y-100532274D01*
X133917481Y-100489830D01*
X133847241Y-100450017D01*
X133810622Y-100424268D01*
X133795764Y-100413821D01*
X133791764Y-100410464D01*
G37*
X133791764Y-100410464D02*
X133762761Y-100379498D01*
X133734280Y-100339397D01*
X133720531Y-100314842D01*
X133691364Y-100255227D01*
X133629159Y-100366770D01*
X133573455Y-100462392D01*
X133521403Y-100541733D01*
X133469604Y-100609083D01*
X133414657Y-100668731D01*
X133353163Y-100724969D01*
X133330071Y-100744146D01*
X133282326Y-100780491D01*
X133227638Y-100818215D01*
X133171690Y-100853740D01*
X133120167Y-100883487D01*
X133078750Y-100903880D01*
X133072169Y-100906525D01*
X133059558Y-100913352D01*
X133050728Y-100925422D01*
X133044080Y-100947263D01*
X133038016Y-100983405D01*
X133033823Y-101015183D01*
X133012145Y-101114998D01*
X132973672Y-101201249D01*
X132917766Y-101274823D01*
X132843789Y-101336611D01*
X132774582Y-101376482D01*
X132693028Y-101405553D01*
X132603847Y-101418272D01*
X132531009Y-101414937D01*
X132514240Y-101414169D01*
X132445684Y-101397985D01*
X132356623Y-101358578D01*
X132281948Y-101306329D01*
X132237012Y-101259695D01*
X132214447Y-101234451D01*
X132196031Y-101219029D01*
X132188096Y-101216533D01*
X132174248Y-101220522D01*
X132143171Y-101228718D01*
X132098753Y-101240118D01*
X132044878Y-101253722D01*
X132011365Y-101262093D01*
X131948752Y-101277864D01*
X131904228Y-101289835D01*
X131874728Y-101299249D01*
X131857188Y-101307349D01*
X131848543Y-101315377D01*
X131845729Y-101324575D01*
X131845548Y-101329320D01*
X131836747Y-101356585D01*
X131814906Y-101385089D01*
X131786861Y-101407974D01*
X131759452Y-101418379D01*
X131756679Y-101418466D01*
X131732569Y-101415738D01*
X131696407Y-101409084D01*
X131666138Y-101402326D01*
X131619068Y-101394571D01*
X131553522Y-101389219D01*
X131472661Y-101386491D01*
X131437799Y-101386187D01*
X131363451Y-101384821D01*
X131280709Y-101381383D01*
X131199530Y-101376387D01*
X131129870Y-101370349D01*
X131128261Y-101370179D01*
X131065909Y-101363995D01*
X131022094Y-101360904D01*
X130993832Y-101360859D01*
X130978141Y-101363810D01*
X130973011Y-101367676D01*
X130961155Y-101386093D01*
X130946399Y-101409772D01*
X130916304Y-101442123D01*
X130878584Y-101459078D01*
X130839131Y-101459239D01*
X130806029Y-101443076D01*
X130787634Y-101421954D01*
X130767663Y-101390365D01*
X130759939Y-101375360D01*
X130740792Y-101340440D01*
X130715009Y-101303803D01*
X130680496Y-101263159D01*
X130635157Y-101216216D01*
X130576897Y-101160683D01*
X130557754Y-101143333D01*
X132273987Y-101143333D01*
X132274557Y-101156365D01*
X132289918Y-101181464D01*
X132319422Y-101212373D01*
X132357964Y-101244781D01*
X132400438Y-101274376D01*
X132439952Y-101296038D01*
X132471615Y-101309360D01*
X132499532Y-101317085D01*
X132531009Y-101320257D01*
X132573350Y-101319919D01*
X132599519Y-101318823D01*
X132671220Y-101311953D01*
X132728283Y-101297203D01*
X132777183Y-101271919D01*
X132824389Y-101233453D01*
X132836344Y-101221807D01*
X132872721Y-101177507D01*
X132904747Y-101124115D01*
X132929060Y-101068602D01*
X132942294Y-101017939D01*
X132943741Y-100999268D01*
X132943750Y-100954810D01*
X132854045Y-100973988D01*
X132775320Y-100988143D01*
X132683689Y-101000360D01*
X132587967Y-101009728D01*
X132496968Y-101015338D01*
X132464488Y-101016045D01*
X132441690Y-101016541D01*
X132398103Y-101017879D01*
X132368531Y-101021569D01*
X132356666Y-101027130D01*
X132356592Y-101027658D01*
X132349714Y-101041045D01*
X132342502Y-101050499D01*
X132331872Y-101064434D01*
X132312199Y-101086935D01*
X132285198Y-101119725D01*
X132273987Y-101143333D01*
X130557754Y-101143333D01*
X130503620Y-101094269D01*
X130499555Y-101090649D01*
X130422013Y-101020235D01*
X130358292Y-100958763D01*
X130323088Y-100921543D01*
X132464488Y-100921543D01*
X132576358Y-100913780D01*
X132742358Y-100895541D01*
X132890740Y-100865101D01*
X133021354Y-100822503D01*
X133134052Y-100767785D01*
X133150342Y-100757952D01*
X133211471Y-100714969D01*
X133278344Y-100659717D01*
X133345040Y-100597748D01*
X133405633Y-100534612D01*
X133454203Y-100475860D01*
X133460318Y-100467440D01*
X133524712Y-100364390D01*
X133582147Y-100248353D01*
X133629880Y-100126180D01*
X133642878Y-100081439D01*
X133780993Y-100081439D01*
X133788986Y-100098803D01*
X133810622Y-100102666D01*
X133842385Y-100092886D01*
X133858146Y-100084531D01*
X133879426Y-100071149D01*
X133889583Y-100063163D01*
X133889726Y-100062784D01*
X133879938Y-100061020D01*
X133876362Y-100060860D01*
X133854915Y-100059900D01*
X133835359Y-100059692D01*
X133819049Y-100060265D01*
X133802750Y-100060837D01*
X133789338Y-100064845D01*
X133786487Y-100065697D01*
X133781225Y-100076409D01*
X133780993Y-100081439D01*
X133642878Y-100081439D01*
X133656496Y-100034563D01*
X133803328Y-100034563D01*
X133810613Y-100047500D01*
X133819049Y-100048819D01*
X133832167Y-100039367D01*
X133834366Y-100027151D01*
X133846233Y-100027151D01*
X133854602Y-100044202D01*
X133876362Y-100048891D01*
X133906490Y-100040424D01*
X133912187Y-100037563D01*
X133930690Y-100023764D01*
X133927997Y-100013848D01*
X133904372Y-100008169D01*
X133889726Y-100007186D01*
X133861418Y-100007756D01*
X133848850Y-100014216D01*
X133846233Y-100027151D01*
X133834366Y-100027151D01*
X133835359Y-100021636D01*
X133837007Y-100005804D01*
X133845573Y-99997721D01*
X133866491Y-99994804D01*
X133892547Y-99994452D01*
X133929648Y-99992476D01*
X133951477Y-99985307D01*
X133962861Y-99973433D01*
X133970176Y-99956577D01*
X133961430Y-99948716D01*
X133957322Y-99947511D01*
X133948046Y-99943599D01*
X133959657Y-99941526D01*
X133962738Y-99941347D01*
X133987032Y-99931506D01*
X133998072Y-99919061D01*
X134003145Y-99903488D01*
X133992663Y-99896048D01*
X133979427Y-99893507D01*
X133960687Y-99890341D01*
X133961915Y-99888679D01*
X133983992Y-99887352D01*
X133984070Y-99887349D01*
X134011841Y-99878578D01*
X134025653Y-99859967D01*
X134024526Y-99838197D01*
X134007477Y-99819949D01*
X133994736Y-99814774D01*
X133965761Y-99804525D01*
X133946103Y-99795834D01*
X133944938Y-99795457D01*
X133925099Y-99789030D01*
X133912579Y-99796790D01*
X133910932Y-99799236D01*
X133902584Y-99807882D01*
X133900765Y-99801452D01*
X133891841Y-99789406D01*
X133884289Y-99787860D01*
X133871037Y-99797042D01*
X133867979Y-99810875D01*
X133872578Y-99827786D01*
X133889654Y-99828221D01*
X133889741Y-99828199D01*
X133904456Y-99827483D01*
X133905409Y-99832367D01*
X133890657Y-99840635D01*
X133878211Y-99842226D01*
X133860495Y-99850226D01*
X133857106Y-99863973D01*
X133860656Y-99877969D01*
X133875030Y-99884607D01*
X133903317Y-99886578D01*
X133927491Y-99888300D01*
X133935988Y-99891683D01*
X133933219Y-99893645D01*
X133913661Y-99906339D01*
X133908920Y-99911815D01*
X133901940Y-99917015D01*
X133900765Y-99910184D01*
X133891343Y-99899970D01*
X133873416Y-99896593D01*
X133852301Y-99901497D01*
X133846235Y-99919034D01*
X133846233Y-99919573D01*
X133849681Y-99935356D01*
X133864223Y-99939308D01*
X133878852Y-99937767D01*
X133903113Y-99937753D01*
X133911472Y-99945222D01*
X133901743Y-99952910D01*
X133875073Y-99953210D01*
X133873526Y-99953036D01*
X133845961Y-99952615D01*
X133832410Y-99961502D01*
X133829239Y-99968811D01*
X133818292Y-99996666D01*
X133812819Y-100007896D01*
X133803328Y-100034563D01*
X133656496Y-100034563D01*
X133665166Y-100004718D01*
X133682627Y-99912397D01*
X133688992Y-99867114D01*
X133694696Y-99828990D01*
X133698837Y-99803961D01*
X133699905Y-99798733D01*
X133702141Y-99774735D01*
X133702176Y-99734189D01*
X133700833Y-99696343D01*
X133786429Y-99696343D01*
X133786577Y-99760679D01*
X133786989Y-99816179D01*
X133787618Y-99859729D01*
X133788416Y-99888214D01*
X133789338Y-99898517D01*
X133789479Y-99898318D01*
X133797997Y-99866234D01*
X133807208Y-99821756D01*
X133815574Y-99773607D01*
X133821558Y-99730508D01*
X133823180Y-99710108D01*
X133884289Y-99710108D01*
X133914898Y-99721801D01*
X133944938Y-99731549D01*
X133960246Y-99730073D01*
X133965502Y-99715950D01*
X133965839Y-99706310D01*
X133961209Y-99686047D01*
X133952247Y-99679512D01*
X133933230Y-99684774D01*
X133911472Y-99695003D01*
X133885954Y-99709183D01*
X133884289Y-99710108D01*
X133823180Y-99710108D01*
X133823622Y-99704548D01*
X133821936Y-99671158D01*
X133816686Y-99625935D01*
X133808981Y-99578287D01*
X133808395Y-99575194D01*
X133800492Y-99535354D01*
X133793921Y-99504893D01*
X133789851Y-99489158D01*
X133789367Y-99488157D01*
X133788463Y-99497545D01*
X133787672Y-99525437D01*
X133787039Y-99568589D01*
X133786610Y-99623761D01*
X133786432Y-99687708D01*
X133786429Y-99696343D01*
X133700833Y-99696343D01*
X133700329Y-99682145D01*
X133696919Y-99623654D01*
X133692264Y-99563770D01*
X133686684Y-99507541D01*
X133680497Y-99460021D01*
X133677364Y-99441573D01*
X133638223Y-99288107D01*
X133637977Y-99287473D01*
X133787638Y-99287473D01*
X133790948Y-99305771D01*
X133797599Y-99328538D01*
X133808132Y-99359150D01*
X133817791Y-99380125D01*
X133821228Y-99384573D01*
X133828513Y-99399633D01*
X133829923Y-99412241D01*
X133839803Y-99432446D01*
X133857106Y-99441059D01*
X133872191Y-99446816D01*
X133866142Y-99449634D01*
X133865048Y-99449704D01*
X133851508Y-99455772D01*
X133850311Y-99475241D01*
X133851047Y-99479686D01*
X133856057Y-99509223D01*
X133861954Y-99546475D01*
X133863368Y-99555799D01*
X133869408Y-99584324D01*
X133876373Y-99601121D01*
X133879069Y-99603014D01*
X133883679Y-99611705D01*
X133882003Y-99624761D01*
X133879259Y-99641375D01*
X133885954Y-99645045D01*
X133906147Y-99636629D01*
X133915501Y-99631845D01*
X133933036Y-99619192D01*
X133935863Y-99609159D01*
X133935773Y-99609065D01*
X133936761Y-99603905D01*
X133944092Y-99604621D01*
X133960942Y-99604059D01*
X133985739Y-99598856D01*
X134012210Y-99591027D01*
X134034081Y-99582590D01*
X134045082Y-99575560D01*
X134043426Y-99572698D01*
X134033517Y-99559898D01*
X134031038Y-99545023D01*
X134026167Y-99521898D01*
X134014229Y-99495177D01*
X133999137Y-99471349D01*
X133984803Y-99456905D01*
X133977285Y-99455871D01*
X133969145Y-99451230D01*
X133963860Y-99431944D01*
X133959910Y-99413808D01*
X133949486Y-99404493D01*
X133926553Y-99400536D01*
X133907227Y-99399425D01*
X133874977Y-99396730D01*
X133852630Y-99392607D01*
X133847424Y-99390232D01*
X133851898Y-99386179D01*
X133871780Y-99385561D01*
X133873416Y-99385662D01*
X133912075Y-99387115D01*
X133932734Y-99384345D01*
X133938875Y-99376494D01*
X133937406Y-99369903D01*
X133923429Y-99356827D01*
X133897950Y-99346840D01*
X133896972Y-99346617D01*
X133875507Y-99340845D01*
X133873468Y-99336029D01*
X133884217Y-99331291D01*
X133895953Y-99325296D01*
X133892526Y-99318055D01*
X133871758Y-99305909D01*
X133867907Y-99303901D01*
X133836773Y-99290179D01*
X133809598Y-99282050D01*
X133806294Y-99281556D01*
X133792434Y-99281126D01*
X133787638Y-99287473D01*
X133637977Y-99287473D01*
X133580833Y-99140397D01*
X133506916Y-99001831D01*
X133418192Y-98875800D01*
X133352003Y-98800764D01*
X133257336Y-98712280D01*
X133160125Y-98641334D01*
X133055861Y-98585478D01*
X132940032Y-98542265D01*
X132936488Y-98541364D01*
X132818707Y-98511431D01*
X132782770Y-98505008D01*
X132735930Y-98498206D01*
X132682578Y-98491476D01*
X132627106Y-98485268D01*
X132573908Y-98480033D01*
X132527376Y-98476223D01*
X132491902Y-98474288D01*
X132471878Y-98474680D01*
X132469213Y-98475553D01*
X132469813Y-98487647D01*
X132477537Y-98508844D01*
X132490061Y-98527889D01*
X132509577Y-98536255D01*
X132535028Y-98538023D01*
X132602827Y-98548396D01*
X132662552Y-98576201D01*
X132709620Y-98619271D01*
X132711173Y-98621278D01*
X132729725Y-98649903D01*
X132744495Y-98683578D01*
X132755855Y-98724900D01*
X132764178Y-98776465D01*
X132769837Y-98840872D01*
X132773203Y-98920716D01*
X132774648Y-99018595D01*
X132774773Y-99064786D01*
X132774636Y-99143920D01*
X132774046Y-99204599D01*
X132772738Y-99250116D01*
X132770448Y-99283762D01*
X132766913Y-99308830D01*
X132761869Y-99328610D01*
X132755053Y-99346394D01*
X132751604Y-99354048D01*
X132708274Y-99424707D01*
X132651431Y-99478401D01*
X132580729Y-99515395D01*
X132518300Y-99532359D01*
X132479816Y-99539517D01*
X132478853Y-99539696D01*
X132471386Y-99635151D01*
X132468736Y-99689087D01*
X132468548Y-99744563D01*
X132470817Y-99790931D01*
X132471463Y-99797289D01*
X132476868Y-99834977D01*
X132483520Y-99855477D01*
X132493293Y-99863342D01*
X132498941Y-99863973D01*
X132532001Y-99869823D01*
X132575125Y-99885120D01*
X132620816Y-99906482D01*
X132661577Y-99930531D01*
X132682913Y-99946927D01*
X132711571Y-99979212D01*
X132738625Y-100019919D01*
X132749370Y-100040755D01*
X132757791Y-100060455D01*
X132764140Y-100079399D01*
X132768707Y-100100948D01*
X132771786Y-100128466D01*
X132773666Y-100165316D01*
X132774639Y-100214861D01*
X132774998Y-100280465D01*
X132775038Y-100336961D01*
X132774119Y-100445084D01*
X132771169Y-100533991D01*
X132765876Y-100606146D01*
X132757928Y-100664011D01*
X132747011Y-100710050D01*
X132732814Y-100746725D01*
X132720226Y-100768959D01*
X132679914Y-100811513D01*
X132624101Y-100842589D01*
X132556966Y-100859969D01*
X132546591Y-100861215D01*
X132510947Y-100866625D01*
X132501440Y-100870772D01*
X132490413Y-100875582D01*
X132478360Y-100891238D01*
X132476884Y-100894336D01*
X132464488Y-100921543D01*
X130323088Y-100921543D01*
X130304776Y-100902183D01*
X130257844Y-100846447D01*
X130213877Y-100787507D01*
X130169258Y-100721315D01*
X130168872Y-100720720D01*
X130061349Y-100535717D01*
X129974278Y-100343784D01*
X129907305Y-100143975D01*
X129860073Y-99935341D01*
X129849301Y-99868154D01*
X129838736Y-99770791D01*
X129833016Y-99661791D01*
X129831931Y-99546014D01*
X129835271Y-99428321D01*
X129842824Y-99313574D01*
X129854380Y-99206634D01*
X129869728Y-99112363D01*
X129884838Y-99048476D01*
X129913016Y-98968116D01*
X131455800Y-98968116D01*
X131459953Y-98982743D01*
X131473135Y-99010550D01*
X131482260Y-99028639D01*
X131530808Y-99135259D01*
X131577083Y-99257311D01*
X131619188Y-99388481D01*
X131655224Y-99522457D01*
X131683295Y-99652927D01*
X131698368Y-99747642D01*
X131704914Y-99812270D01*
X131709745Y-99889072D01*
X131712791Y-99972496D01*
X131713978Y-100056989D01*
X131713235Y-100137001D01*
X131710488Y-100206979D01*
X131705665Y-100261371D01*
X131705124Y-100265333D01*
X131697598Y-100303035D01*
X131684613Y-100329321D01*
X131660949Y-100352065D01*
X131636011Y-100369581D01*
X131627837Y-100377694D01*
X131625014Y-100391121D01*
X131627503Y-100415110D01*
X131635265Y-100454906D01*
X131635369Y-100455404D01*
X131663377Y-100551675D01*
X131705428Y-100636846D01*
X131763176Y-100712861D01*
X131838274Y-100781661D01*
X131932377Y-100845190D01*
X131997774Y-100881135D01*
X132021707Y-100892830D01*
X132043636Y-100901258D01*
X132067939Y-100907089D01*
X132098989Y-100910994D01*
X132141165Y-100913643D01*
X132198840Y-100915704D01*
X132229246Y-100916570D01*
X132294964Y-100918146D01*
X132342502Y-100918504D01*
X132375406Y-100917379D01*
X132397222Y-100914503D01*
X132411495Y-100909606D01*
X132421772Y-100902422D01*
X132422247Y-100901996D01*
X132440499Y-100881156D01*
X132439091Y-100867478D01*
X132417731Y-100858243D01*
X132417587Y-100858206D01*
X132383200Y-100839855D01*
X132351986Y-100806140D01*
X132329314Y-100763333D01*
X132325132Y-100750221D01*
X132315231Y-100700638D01*
X132307063Y-100634230D01*
X132300853Y-100555863D01*
X132296824Y-100470406D01*
X132295263Y-100386188D01*
X132336298Y-100386188D01*
X132338057Y-100480554D01*
X132342587Y-100569933D01*
X132349888Y-100649897D01*
X132359958Y-100716020D01*
X132369046Y-100752964D01*
X132381088Y-100784093D01*
X132396952Y-100804032D01*
X132421335Y-100815186D01*
X132458933Y-100819961D01*
X132501440Y-100820805D01*
X132561876Y-100818199D01*
X132610345Y-100808967D01*
X132648409Y-100790950D01*
X132677626Y-100761986D01*
X132699559Y-100719917D01*
X132715768Y-100662583D01*
X132727815Y-100587824D01*
X132737164Y-100494624D01*
X132743077Y-100412388D01*
X132745632Y-100343719D01*
X132744846Y-100280700D01*
X132740741Y-100215415D01*
X132737939Y-100184462D01*
X132724305Y-100100895D01*
X132700521Y-100035028D01*
X132665201Y-99984663D01*
X132616960Y-99947598D01*
X132577296Y-99929324D01*
X132510913Y-99910275D01*
X132457566Y-99908143D01*
X132416241Y-99923245D01*
X132385927Y-99955896D01*
X132369053Y-99994452D01*
X132356962Y-100047366D01*
X132347640Y-100117422D01*
X132341089Y-100200195D01*
X132337309Y-100291259D01*
X132336298Y-100386188D01*
X132295263Y-100386188D01*
X132295199Y-100382727D01*
X132296204Y-100297694D01*
X132300061Y-100220176D01*
X132300496Y-100214493D01*
X132309272Y-100119355D01*
X132319429Y-100043608D01*
X132331665Y-99984907D01*
X132346677Y-99940910D01*
X132365163Y-99909270D01*
X132387818Y-99887644D01*
X132399863Y-99880398D01*
X132431615Y-99863978D01*
X132434879Y-99699867D01*
X132438142Y-99535757D01*
X132403679Y-99521376D01*
X132375629Y-99504076D01*
X132356072Y-99482431D01*
X132355898Y-99482112D01*
X132336719Y-99433049D01*
X132320913Y-99365882D01*
X132308663Y-99284020D01*
X132300153Y-99190869D01*
X132295564Y-99089836D01*
X132295340Y-99040991D01*
X132337495Y-99040991D01*
X132339050Y-99135346D01*
X132343428Y-99223974D01*
X132350682Y-99302319D01*
X132360868Y-99365826D01*
X132361413Y-99368338D01*
X132379091Y-99427968D01*
X132403027Y-99467924D01*
X132435758Y-99489657D01*
X132479816Y-99494616D01*
X132537737Y-99484253D01*
X132555232Y-99479272D01*
X132621486Y-99449579D01*
X132672896Y-99404595D01*
X132709810Y-99343846D01*
X132732574Y-99266853D01*
X132738179Y-99227886D01*
X132741440Y-99175884D01*
X132742421Y-99108452D01*
X132741311Y-99031769D01*
X132738298Y-98952010D01*
X132733569Y-98875353D01*
X132727314Y-98807974D01*
X132724770Y-98787517D01*
X132709330Y-98711756D01*
X132684935Y-98654560D01*
X132649683Y-98613925D01*
X132601668Y-98587844D01*
X132538987Y-98574312D01*
X132520819Y-98572656D01*
X132460905Y-98572441D01*
X132417898Y-98582605D01*
X132388932Y-98604481D01*
X132371139Y-98639403D01*
X132370134Y-98642724D01*
X132358400Y-98697391D01*
X132349214Y-98769107D01*
X132342632Y-98853316D01*
X132338707Y-98945462D01*
X132337495Y-99040991D01*
X132295340Y-99040991D01*
X132295081Y-98984331D01*
X132298885Y-98877760D01*
X132307159Y-98773530D01*
X132314576Y-98711853D01*
X132325501Y-98650533D01*
X132339970Y-98606814D01*
X132360105Y-98576598D01*
X132388028Y-98555785D01*
X132397858Y-98550936D01*
X132424121Y-98538830D01*
X132440451Y-98530967D01*
X132442333Y-98529939D01*
X132440077Y-98520125D01*
X132428814Y-98500209D01*
X132428491Y-98499715D01*
X132415661Y-98484060D01*
X132398979Y-98475764D01*
X132371681Y-98472582D01*
X132345583Y-98472192D01*
X132299801Y-98475875D01*
X132241110Y-98486046D01*
X132176895Y-98501387D01*
X132167769Y-98503905D01*
X132070844Y-98534595D01*
X131991598Y-98568155D01*
X131925967Y-98607056D01*
X131869886Y-98653768D01*
X131819291Y-98710762D01*
X131812094Y-98720126D01*
X131777441Y-98762301D01*
X131738243Y-98804536D01*
X131702640Y-98838090D01*
X131700707Y-98839710D01*
X131665930Y-98865382D01*
X131622786Y-98892639D01*
X131576537Y-98918680D01*
X131532447Y-98940704D01*
X131495776Y-98955907D01*
X131471997Y-98961490D01*
X131460030Y-98962442D01*
X131455800Y-98968116D01*
X129913016Y-98968116D01*
X129919081Y-98950818D01*
X129964925Y-98854500D01*
X130019700Y-98763431D01*
X130080734Y-98681520D01*
X130145357Y-98612676D01*
X130210898Y-98560810D01*
X130223231Y-98553199D01*
X130252564Y-98527390D01*
X130286411Y-98482406D01*
X130309386Y-98445075D01*
X130350350Y-98384175D01*
X130404037Y-98318801D01*
X130465200Y-98254338D01*
X130497747Y-98224476D01*
X132287997Y-98224476D01*
X132295888Y-98242111D01*
X132313389Y-98269359D01*
X132330376Y-98288138D01*
X132347915Y-98309227D01*
X132362989Y-98336913D01*
X132376891Y-98370170D01*
X132559743Y-98383622D01*
X132659625Y-98392206D01*
X132750415Y-98402441D01*
X132828696Y-98413849D01*
X132891050Y-98425950D01*
X132923491Y-98434608D01*
X132936488Y-98435789D01*
X132942365Y-98425034D01*
X132943750Y-98397494D01*
X132943750Y-98397220D01*
X132939753Y-98361599D01*
X132929529Y-98318403D01*
X132921419Y-98293717D01*
X132887342Y-98228695D01*
X132837330Y-98167362D01*
X132777030Y-98116063D01*
X132746382Y-98097027D01*
X132716464Y-98081782D01*
X132690044Y-98072333D01*
X132660219Y-98067311D01*
X132620083Y-98065352D01*
X132584931Y-98065073D01*
X132533671Y-98065726D01*
X132497168Y-98068685D01*
X132468454Y-98075247D01*
X132440562Y-98086706D01*
X132424179Y-98094974D01*
X132382632Y-98120562D01*
X132341213Y-98152085D01*
X132323417Y-98168295D01*
X132299135Y-98193542D01*
X132288126Y-98210129D01*
X132287997Y-98224476D01*
X130497747Y-98224476D01*
X130528595Y-98196172D01*
X130588976Y-98149687D01*
X130610462Y-98135954D01*
X130700275Y-98091230D01*
X130806874Y-98052888D01*
X130925951Y-98022015D01*
X131053200Y-97999701D01*
X131184314Y-97987031D01*
X131204024Y-97986031D01*
X131320413Y-97984561D01*
X131445606Y-97989566D01*
X131574629Y-98000411D01*
X131702509Y-98016460D01*
X131824274Y-98037077D01*
X131934951Y-98061626D01*
X132029566Y-98089471D01*
X132038956Y-98092772D01*
X132078827Y-98104621D01*
X132116975Y-98112069D01*
X132133586Y-98113374D01*
X132168208Y-98117064D01*
X132197561Y-98125602D01*
X132215747Y-98131333D01*
X132231013Y-98126505D01*
X132250368Y-98108134D01*
X132257548Y-98100075D01*
X132295051Y-98067407D01*
X132347469Y-98034966D01*
X132408175Y-98005977D01*
X132470546Y-97983663D01*
X132519995Y-97972343D01*
X132606493Y-97966468D01*
X132687028Y-97977439D01*
X132766460Y-98006411D01*
X132840453Y-98048460D01*
X132915706Y-98108812D01*
X132972310Y-98180032D01*
X133011100Y-98263330D01*
X133025515Y-98316468D01*
X133033730Y-98360990D01*
X133039487Y-98403152D01*
X133041420Y-98430572D01*
X133042139Y-98447821D01*
X133046254Y-98461300D01*
X133056987Y-98473863D01*
X133077562Y-98488367D01*
X133111202Y-98507664D01*
X133155411Y-98531545D01*
X133208827Y-98561668D01*
X133254711Y-98591544D01*
X133299005Y-98625636D01*
X133347647Y-98668408D01*
X133387392Y-98705831D01*
X133448563Y-98767208D01*
X133500379Y-98826207D01*
X133546553Y-98887985D01*
X133590800Y-98957702D01*
X133636833Y-99040515D01*
X133658763Y-99082729D01*
X133701296Y-99165911D01*
X133715023Y-99126222D01*
X133740192Y-99071446D01*
X133775934Y-99016480D01*
X133816687Y-98969003D01*
X133848517Y-98942010D01*
X133913461Y-98902417D01*
X133992285Y-98863529D01*
X134086563Y-98824745D01*
X134197868Y-98785465D01*
X134327772Y-98745088D01*
X134466010Y-98706200D01*
X134520839Y-98691370D01*
X134569229Y-98678236D01*
X134606744Y-98668005D01*
X134628948Y-98661884D01*
X134631828Y-98661068D01*
X134644355Y-98661096D01*
X134649828Y-98674124D01*
X134650822Y-98697080D01*
X134650788Y-98738588D01*
X134569829Y-98764992D01*
X134531879Y-98778885D01*
X134505642Y-98791506D01*
X134495267Y-98800780D01*
X134495534Y-98802178D01*
X134493778Y-98808300D01*
X134484410Y-98806134D01*
X134462270Y-98804812D01*
X134433135Y-98810991D01*
X134431841Y-98811433D01*
X134397059Y-98823558D01*
X134461177Y-98843865D01*
X134496974Y-98852783D01*
X134535040Y-98858533D01*
X134570201Y-98860901D01*
X134597284Y-98859675D01*
X134611113Y-98854641D01*
X134611114Y-98850039D01*
X134615887Y-98843580D01*
X134628468Y-98841884D01*
X134650856Y-98841884D01*
X134650856Y-100533103D01*
X134567886Y-100528913D01*
X134524870Y-100527538D01*
X134500555Y-100529036D01*
X134492038Y-100533760D01*
X134493134Y-100538021D01*
X134494100Y-100546734D01*
X134479681Y-100544441D01*
X134460256Y-100543141D01*
X134436011Y-100547055D01*
X134414377Y-100554068D01*
X134402789Y-100562060D01*
X134403441Y-100566159D01*
X134417596Y-100571737D01*
X134434851Y-100574852D01*
X134462425Y-100580361D01*
X134476883Y-100585281D01*
X134494789Y-100592377D01*
X134526651Y-100604106D01*
X134565857Y-100618037D01*
X134569306Y-100619241D01*
X134645419Y-100645779D01*
X134648676Y-100705983D01*
X134649331Y-100741453D01*
X134645918Y-100758817D01*
X134637803Y-100761453D01*
X134622822Y-100756625D01*
X134591188Y-100746551D01*
X134546985Y-100732529D01*
X134494300Y-100715857D01*
X134471447Y-100708635D01*
X134341109Y-100665528D01*
X134218296Y-100621109D01*
X134105256Y-100576362D01*
X134004235Y-100532274D01*
X133917481Y-100489830D01*
X133847241Y-100450017D01*
X133810622Y-100424268D01*
X133795764Y-100413821D01*
X133791764Y-100410464D01*
G36*
X134005707Y-99834978D02*
G01*
X134004215Y-99841442D01*
X133998459Y-99842226D01*
X133989509Y-99838248D01*
X133991210Y-99834978D01*
X134004114Y-99833676D01*
X134005707Y-99834978D01*
G37*
X134005707Y-99834978D02*
X134004215Y-99841442D01*
X133998459Y-99842226D01*
X133989509Y-99838248D01*
X133991210Y-99834978D01*
X134004114Y-99833676D01*
X134005707Y-99834978D01*
G36*
X132976825Y-99688424D02*
G01*
X132979385Y-99693050D01*
X132978095Y-99710765D01*
X132968392Y-99738170D01*
X132963744Y-99747875D01*
X132935549Y-99787260D01*
X132902120Y-99805567D01*
X132863322Y-99802861D01*
X132853279Y-99799126D01*
X132828466Y-99792620D01*
X132787942Y-99786320D01*
X132737734Y-99781025D01*
X132693777Y-99778003D01*
X132639009Y-99774743D01*
X132602371Y-99771212D01*
X132580253Y-99766704D01*
X132569043Y-99760514D01*
X132565294Y-99752910D01*
X132570948Y-99736064D01*
X132592364Y-99726423D01*
X132631370Y-99720765D01*
X132682886Y-99719004D01*
X132738980Y-99720813D01*
X132791719Y-99725863D01*
X132833169Y-99733827D01*
X132842225Y-99736738D01*
X132871123Y-99746475D01*
X132887596Y-99747522D01*
X132899226Y-99739712D01*
X132903094Y-99735396D01*
X132919265Y-99711424D01*
X132925446Y-99698155D01*
X132939400Y-99683283D01*
X132959998Y-99679711D01*
X132976825Y-99688424D01*
G37*
X132976825Y-99688424D02*
X132979385Y-99693050D01*
X132978095Y-99710765D01*
X132968392Y-99738170D01*
X132963744Y-99747875D01*
X132935549Y-99787260D01*
X132902120Y-99805567D01*
X132863322Y-99802861D01*
X132853279Y-99799126D01*
X132828466Y-99792620D01*
X132787942Y-99786320D01*
X132737734Y-99781025D01*
X132693777Y-99778003D01*
X132639009Y-99774743D01*
X132602371Y-99771212D01*
X132580253Y-99766704D01*
X132569043Y-99760514D01*
X132565294Y-99752910D01*
X132570948Y-99736064D01*
X132592364Y-99726423D01*
X132631370Y-99720765D01*
X132682886Y-99719004D01*
X132738980Y-99720813D01*
X132791719Y-99725863D01*
X132833169Y-99733827D01*
X132842225Y-99736738D01*
X132871123Y-99746475D01*
X132887596Y-99747522D01*
X132899226Y-99739712D01*
X132903094Y-99735396D01*
X132919265Y-99711424D01*
X132925446Y-99698155D01*
X132939400Y-99683283D01*
X132959998Y-99679711D01*
X132976825Y-99688424D01*
G36*
X134607363Y-100608793D02*
G01*
X134601926Y-100614230D01*
X134596489Y-100608793D01*
X134601926Y-100603356D01*
X134607363Y-100608793D01*
G37*
X134607363Y-100608793D02*
X134601926Y-100614230D01*
X134596489Y-100608793D01*
X134601926Y-100603356D01*
X134607363Y-100608793D01*
G36*
X134473259Y-98823762D02*
G01*
X134471766Y-98830226D01*
X134466010Y-98831011D01*
X134457060Y-98827032D01*
X134458761Y-98823762D01*
X134471665Y-98822460D01*
X134473259Y-98823762D01*
G37*
X134473259Y-98823762D02*
X134471766Y-98830226D01*
X134466010Y-98831011D01*
X134457060Y-98827032D01*
X134458761Y-98823762D01*
X134471665Y-98822460D01*
X134473259Y-98823762D01*
G36*
X132077573Y-98667362D02*
G01*
X132083668Y-98685347D01*
X132089150Y-98722977D01*
X132089869Y-98729613D01*
X132097479Y-98780236D01*
X132110558Y-98845106D01*
X132127561Y-98917886D01*
X132146942Y-98992238D01*
X132167154Y-99061827D01*
X132181993Y-99107263D01*
X132197117Y-99167245D01*
X132202930Y-99228835D01*
X132198669Y-99282643D01*
X132196871Y-99290407D01*
X132187081Y-99307835D01*
X132172659Y-99304586D01*
X132154145Y-99281106D01*
X132132075Y-99237841D01*
X132131275Y-99236041D01*
X132101719Y-99162601D01*
X132080759Y-99092730D01*
X132067253Y-99020243D01*
X132060060Y-98938952D01*
X132058036Y-98842670D01*
X132058044Y-98839242D01*
X132059054Y-98771030D01*
X132061544Y-98718181D01*
X132065363Y-98682825D01*
X132070281Y-98667167D01*
X132077573Y-98667362D01*
G37*
X132077573Y-98667362D02*
X132083668Y-98685347D01*
X132089150Y-98722977D01*
X132089869Y-98729613D01*
X132097479Y-98780236D01*
X132110558Y-98845106D01*
X132127561Y-98917886D01*
X132146942Y-98992238D01*
X132167154Y-99061827D01*
X132181993Y-99107263D01*
X132197117Y-99167245D01*
X132202930Y-99228835D01*
X132198669Y-99282643D01*
X132196871Y-99290407D01*
X132187081Y-99307835D01*
X132172659Y-99304586D01*
X132154145Y-99281106D01*
X132132075Y-99237841D01*
X132131275Y-99236041D01*
X132101719Y-99162601D01*
X132080759Y-99092730D01*
X132067253Y-99020243D01*
X132060060Y-98938952D01*
X132058036Y-98842670D01*
X132058044Y-98839242D01*
X132059054Y-98771030D01*
X132061544Y-98718181D01*
X132065363Y-98682825D01*
X132070281Y-98667167D01*
X132077573Y-98667362D01*
G36*
X133976712Y-99832371D02*
G01*
X133967596Y-99840381D01*
X133954965Y-99842226D01*
X133937266Y-99840472D01*
X133933219Y-99838058D01*
X133942184Y-99832346D01*
X133954965Y-99828203D01*
X133972304Y-99827593D01*
X133976712Y-99832371D01*
G37*
X133976712Y-99832371D02*
X133967596Y-99840381D01*
X133954965Y-99842226D01*
X133937266Y-99840472D01*
X133933219Y-99838058D01*
X133942184Y-99832346D01*
X133954965Y-99828203D01*
X133972304Y-99827593D01*
X133976712Y-99832371D01*
G36*
X133933219Y-99945523D02*
G01*
X133927782Y-99950959D01*
X133922346Y-99945523D01*
X133927782Y-99940086D01*
X133933219Y-99945523D01*
G37*
X133933219Y-99945523D02*
X133927782Y-99950959D01*
X133922346Y-99945523D01*
X133927782Y-99940086D01*
X133933219Y-99945523D01*
G36*
X133910688Y-99477652D02*
G01*
X133911472Y-99483408D01*
X133907494Y-99492358D01*
X133904223Y-99490657D01*
X133902922Y-99477753D01*
X133904223Y-99476159D01*
X133910688Y-99477652D01*
G37*
X133910688Y-99477652D02*
X133911472Y-99483408D01*
X133907494Y-99492358D01*
X133904223Y-99490657D01*
X133902922Y-99477753D01*
X133904223Y-99476159D01*
X133910688Y-99477652D01*
G36*
X133976712Y-99564958D02*
G01*
X133971275Y-99570394D01*
X133965839Y-99564958D01*
X133971275Y-99559521D01*
X133976712Y-99564958D01*
G37*
X133976712Y-99564958D02*
X133971275Y-99570394D01*
X133965839Y-99564958D01*
X133971275Y-99559521D01*
X133976712Y-99564958D01*
G36*
X133976712Y-99532338D02*
G01*
X133971275Y-99537774D01*
X133965839Y-99532338D01*
X133971275Y-99526901D01*
X133976712Y-99532338D01*
G37*
X133976712Y-99532338D02*
X133971275Y-99537774D01*
X133965839Y-99532338D01*
X133971275Y-99526901D01*
X133976712Y-99532338D01*
G36*
X133831735Y-99334806D02*
G01*
X133830242Y-99341270D01*
X133824486Y-99342055D01*
X133815536Y-99338077D01*
X133817237Y-99334806D01*
X133830141Y-99333505D01*
X133831735Y-99334806D01*
G37*
X133831735Y-99334806D02*
X133830242Y-99341270D01*
X133824486Y-99342055D01*
X133815536Y-99338077D01*
X133817237Y-99334806D01*
X133830141Y-99333505D01*
X133831735Y-99334806D01*
G36*
X133922063Y-99443625D02*
G01*
X133922346Y-99444710D01*
X133914726Y-99453993D01*
X133911472Y-99456225D01*
X133901453Y-99455363D01*
X133900599Y-99451430D01*
X133908492Y-99440357D01*
X133911472Y-99439915D01*
X133922063Y-99443625D01*
G37*
X133922063Y-99443625D02*
X133922346Y-99444710D01*
X133914726Y-99453993D01*
X133911472Y-99456225D01*
X133901453Y-99455363D01*
X133900599Y-99451430D01*
X133908492Y-99440357D01*
X133911472Y-99439915D01*
X133922063Y-99443625D01*
G36*
X134520376Y-98814701D02*
G01*
X134514940Y-98820137D01*
X134509503Y-98814701D01*
X134514940Y-98809264D01*
X134520376Y-98814701D01*
G37*
X134520376Y-98814701D02*
X134514940Y-98820137D01*
X134509503Y-98814701D01*
X134514940Y-98809264D01*
X134520376Y-98814701D01*
G36*
X133447206Y-99518064D02*
G01*
X133456528Y-99520249D01*
X133463102Y-99525953D01*
X133467469Y-99538544D01*
X133470170Y-99561388D01*
X133471747Y-99597853D01*
X133472741Y-99651306D01*
X133473109Y-99679127D01*
X133473452Y-99736270D01*
X133473031Y-99786125D01*
X133471937Y-99824418D01*
X133470260Y-99846876D01*
X133469484Y-99850381D01*
X133455163Y-99862004D01*
X133444178Y-99863973D01*
X133425616Y-99857525D01*
X133420619Y-99850381D01*
X133419461Y-99835153D01*
X133418888Y-99802403D01*
X133418914Y-99756349D01*
X133419554Y-99701208D01*
X133420022Y-99675727D01*
X133421393Y-99613593D01*
X133422916Y-99570012D01*
X133425142Y-99541793D01*
X133428620Y-99525747D01*
X133433901Y-99518683D01*
X133441534Y-99517412D01*
X133447206Y-99518064D01*
G37*
X133447206Y-99518064D02*
X133456528Y-99520249D01*
X133463102Y-99525953D01*
X133467469Y-99538544D01*
X133470170Y-99561388D01*
X133471747Y-99597853D01*
X133472741Y-99651306D01*
X133473109Y-99679127D01*
X133473452Y-99736270D01*
X133473031Y-99786125D01*
X133471937Y-99824418D01*
X133470260Y-99846876D01*
X133469484Y-99850381D01*
X133455163Y-99862004D01*
X133444178Y-99863973D01*
X133425616Y-99857525D01*
X133420619Y-99850381D01*
X133419461Y-99835153D01*
X133418888Y-99802403D01*
X133418914Y-99756349D01*
X133419554Y-99701208D01*
X133420022Y-99675727D01*
X133421393Y-99613593D01*
X133422916Y-99570012D01*
X133425142Y-99541793D01*
X133428620Y-99525747D01*
X133433901Y-99518683D01*
X133441534Y-99517412D01*
X133447206Y-99518064D01*
G36*
X133909845Y-99511342D02*
G01*
X133910614Y-99522370D01*
X133907958Y-99533973D01*
X133904045Y-99528940D01*
X133902748Y-99511946D01*
X133904903Y-99508099D01*
X133909845Y-99511342D01*
G37*
X133909845Y-99511342D02*
X133910614Y-99522370D01*
X133907958Y-99533973D01*
X133904045Y-99528940D01*
X133902748Y-99511946D01*
X133904903Y-99508099D01*
X133909845Y-99511342D01*
G36*
X134603738Y-98780269D02*
G01*
X134602246Y-98786733D01*
X134596489Y-98787517D01*
X134587539Y-98783539D01*
X134589241Y-98780269D01*
X134602145Y-98778967D01*
X134603738Y-98780269D01*
G37*
X134603738Y-98780269D02*
X134602246Y-98786733D01*
X134596489Y-98787517D01*
X134587539Y-98783539D01*
X134589241Y-98780269D01*
X134602145Y-98778967D01*
X134603738Y-98780269D01*
G36*
X133911472Y-99423605D02*
G01*
X133906036Y-99429041D01*
X133900599Y-99423605D01*
X133906036Y-99418168D01*
X133911472Y-99423605D01*
G37*
X133911472Y-99423605D02*
X133906036Y-99429041D01*
X133900599Y-99423605D01*
X133906036Y-99418168D01*
X133911472Y-99423605D01*
G36*
X133909845Y-99554835D02*
G01*
X133910614Y-99565864D01*
X133907958Y-99577466D01*
X133904045Y-99572433D01*
X133902748Y-99555439D01*
X133904903Y-99551592D01*
X133909845Y-99554835D01*
G37*
X133909845Y-99554835D02*
X133910614Y-99565864D01*
X133907958Y-99577466D01*
X133904045Y-99572433D01*
X133902748Y-99555439D01*
X133904903Y-99551592D01*
X133909845Y-99554835D01*
G36*
X132188891Y-100065740D02*
G01*
X132197397Y-100083712D01*
X132202909Y-100120935D01*
X132201041Y-100166972D01*
X132191340Y-100224748D01*
X132173356Y-100297191D01*
X132154363Y-100362239D01*
X132135781Y-100427158D01*
X132118622Y-100494462D01*
X132104598Y-100556939D01*
X132095420Y-100607377D01*
X132094361Y-100615043D01*
X132088000Y-100657831D01*
X132081408Y-100690985D01*
X132075627Y-100709674D01*
X132073440Y-100712089D01*
X132067913Y-100701974D01*
X132062898Y-100674661D01*
X132058688Y-100634695D01*
X132055573Y-100586625D01*
X132053844Y-100534996D01*
X132053791Y-100484356D01*
X132055706Y-100439251D01*
X132055859Y-100437225D01*
X132067939Y-100347073D01*
X132089332Y-100254779D01*
X132117668Y-100169441D01*
X132137014Y-100125370D01*
X132159180Y-100085193D01*
X132176236Y-100065479D01*
X132188891Y-100065740D01*
G37*
X132188891Y-100065740D02*
X132197397Y-100083712D01*
X132202909Y-100120935D01*
X132201041Y-100166972D01*
X132191340Y-100224748D01*
X132173356Y-100297191D01*
X132154363Y-100362239D01*
X132135781Y-100427158D01*
X132118622Y-100494462D01*
X132104598Y-100556939D01*
X132095420Y-100607377D01*
X132094361Y-100615043D01*
X132088000Y-100657831D01*
X132081408Y-100690985D01*
X132075627Y-100709674D01*
X132073440Y-100712089D01*
X132067913Y-100701974D01*
X132062898Y-100674661D01*
X132058688Y-100634695D01*
X132055573Y-100586625D01*
X132053844Y-100534996D01*
X132053791Y-100484356D01*
X132055706Y-100439251D01*
X132055859Y-100437225D01*
X132067939Y-100347073D01*
X132089332Y-100254779D01*
X132117668Y-100169441D01*
X132137014Y-100125370D01*
X132159180Y-100085193D01*
X132176236Y-100065479D01*
X132188891Y-100065740D01*
G36*
X132480298Y-98685039D02*
G01*
X132488134Y-98690414D01*
X132521421Y-98720845D01*
X132536379Y-98750622D01*
X132534799Y-98770420D01*
X132521385Y-98785954D01*
X132500569Y-98781274D01*
X132485143Y-98769462D01*
X132468575Y-98757366D01*
X132460894Y-98755870D01*
X132457637Y-98768168D01*
X132453318Y-98795958D01*
X132449122Y-98831011D01*
X132441647Y-98901687D01*
X132474077Y-98913898D01*
X132510469Y-98938289D01*
X132535338Y-98976177D01*
X132546585Y-99021460D01*
X132542112Y-99068035D01*
X132534113Y-99088379D01*
X132512084Y-99117403D01*
X132482316Y-99141247D01*
X132480075Y-99142500D01*
X132451663Y-99167505D01*
X132443037Y-99199630D01*
X132454552Y-99236229D01*
X132465381Y-99252173D01*
X132479319Y-99274971D01*
X132477526Y-99291068D01*
X132474923Y-99294662D01*
X132453989Y-99308211D01*
X132428856Y-99301881D01*
X132403470Y-99281189D01*
X132375224Y-99252943D01*
X132380855Y-98987782D01*
X132382880Y-98902110D01*
X132385019Y-98835500D01*
X132387488Y-98785267D01*
X132390502Y-98748727D01*
X132394278Y-98723195D01*
X132399032Y-98705985D01*
X132404410Y-98695266D01*
X132425057Y-98673487D01*
X132448991Y-98670157D01*
X132480298Y-98685039D01*
G37*
X132480298Y-98685039D02*
X132488134Y-98690414D01*
X132521421Y-98720845D01*
X132536379Y-98750622D01*
X132534799Y-98770420D01*
X132521385Y-98785954D01*
X132500569Y-98781274D01*
X132485143Y-98769462D01*
X132468575Y-98757366D01*
X132460894Y-98755870D01*
X132457637Y-98768168D01*
X132453318Y-98795958D01*
X132449122Y-98831011D01*
X132441647Y-98901687D01*
X132474077Y-98913898D01*
X132510469Y-98938289D01*
X132535338Y-98976177D01*
X132546585Y-99021460D01*
X132542112Y-99068035D01*
X132534113Y-99088379D01*
X132512084Y-99117403D01*
X132482316Y-99141247D01*
X132480075Y-99142500D01*
X132451663Y-99167505D01*
X132443037Y-99199630D01*
X132454552Y-99236229D01*
X132465381Y-99252173D01*
X132479319Y-99274971D01*
X132477526Y-99291068D01*
X132474923Y-99294662D01*
X132453989Y-99308211D01*
X132428856Y-99301881D01*
X132403470Y-99281189D01*
X132375224Y-99252943D01*
X132380855Y-98987782D01*
X132382880Y-98902110D01*
X132385019Y-98835500D01*
X132387488Y-98785267D01*
X132390502Y-98748727D01*
X132394278Y-98723195D01*
X132399032Y-98705985D01*
X132404410Y-98695266D01*
X132425057Y-98673487D01*
X132448991Y-98670157D01*
X132480298Y-98685039D01*
G36*
X134533332Y-100546401D02*
G01*
X134532390Y-100547061D01*
X134524113Y-100556150D01*
X134535841Y-100561496D01*
X134537826Y-100561920D01*
X134551237Y-100565745D01*
X134544664Y-100569829D01*
X134535124Y-100572574D01*
X134517390Y-100573600D01*
X134514327Y-100561851D01*
X134524980Y-100544330D01*
X134532200Y-100540597D01*
X134542033Y-100539058D01*
X134533332Y-100546401D01*
G37*
X134533332Y-100546401D02*
X134532390Y-100547061D01*
X134524113Y-100556150D01*
X134535841Y-100561496D01*
X134537826Y-100561920D01*
X134551237Y-100565745D01*
X134544664Y-100569829D01*
X134535124Y-100572574D01*
X134517390Y-100573600D01*
X134514327Y-100561851D01*
X134524980Y-100544330D01*
X134532200Y-100540597D01*
X134542033Y-100539058D01*
X134533332Y-100546401D01*
G36*
X133214578Y-99097892D02*
G01*
X133245692Y-99118105D01*
X133267443Y-99156271D01*
X133279702Y-99204291D01*
X133290854Y-99284718D01*
X133299674Y-99381699D01*
X133306017Y-99490151D01*
X133309739Y-99604992D01*
X133310694Y-99721140D01*
X133308738Y-99833511D01*
X133303724Y-99937023D01*
X133301465Y-99967269D01*
X133292956Y-100059043D01*
X133283733Y-100131186D01*
X133273041Y-100185812D01*
X133260122Y-100225037D01*
X133244222Y-100250976D01*
X133224585Y-100265744D01*
X133200454Y-100271457D01*
X133192662Y-100271721D01*
X133166350Y-100268830D01*
X133154713Y-100257523D01*
X133152355Y-100247641D01*
X133155589Y-100227407D01*
X133175840Y-100216807D01*
X133176104Y-100216740D01*
X133194772Y-100207352D01*
X133209197Y-100187799D01*
X133220471Y-100155075D01*
X133229684Y-100106171D01*
X133236714Y-100049585D01*
X133244476Y-99961815D01*
X133249815Y-99867729D01*
X133252840Y-99769998D01*
X133253660Y-99671291D01*
X133252386Y-99574276D01*
X133249125Y-99481624D01*
X133243989Y-99396004D01*
X133237086Y-99320084D01*
X133228526Y-99256535D01*
X133218419Y-99208025D01*
X133206873Y-99177224D01*
X133200613Y-99169312D01*
X133180806Y-99160065D01*
X133161215Y-99155533D01*
X133140053Y-99146997D01*
X133134037Y-99125597D01*
X133134032Y-99124589D01*
X133137262Y-99105905D01*
X133151141Y-99097177D01*
X133172668Y-99094159D01*
X133214578Y-99097892D01*
G37*
X133214578Y-99097892D02*
X133245692Y-99118105D01*
X133267443Y-99156271D01*
X133279702Y-99204291D01*
X133290854Y-99284718D01*
X133299674Y-99381699D01*
X133306017Y-99490151D01*
X133309739Y-99604992D01*
X133310694Y-99721140D01*
X133308738Y-99833511D01*
X133303724Y-99937023D01*
X133301465Y-99967269D01*
X133292956Y-100059043D01*
X133283733Y-100131186D01*
X133273041Y-100185812D01*
X133260122Y-100225037D01*
X133244222Y-100250976D01*
X133224585Y-100265744D01*
X133200454Y-100271457D01*
X133192662Y-100271721D01*
X133166350Y-100268830D01*
X133154713Y-100257523D01*
X133152355Y-100247641D01*
X133155589Y-100227407D01*
X133175840Y-100216807D01*
X133176104Y-100216740D01*
X133194772Y-100207352D01*
X133209197Y-100187799D01*
X133220471Y-100155075D01*
X133229684Y-100106171D01*
X133236714Y-100049585D01*
X133244476Y-99961815D01*
X133249815Y-99867729D01*
X133252840Y-99769998D01*
X133253660Y-99671291D01*
X133252386Y-99574276D01*
X133249125Y-99481624D01*
X133243989Y-99396004D01*
X133237086Y-99320084D01*
X133228526Y-99256535D01*
X133218419Y-99208025D01*
X133206873Y-99177224D01*
X133200613Y-99169312D01*
X133180806Y-99160065D01*
X133161215Y-99155533D01*
X133140053Y-99146997D01*
X133134037Y-99125597D01*
X133134032Y-99124589D01*
X133137262Y-99105905D01*
X133151141Y-99097177D01*
X133172668Y-99094159D01*
X133214578Y-99097892D01*
G36*
X133944092Y-99445351D02*
G01*
X133938655Y-99450788D01*
X133933219Y-99445351D01*
X133938655Y-99439915D01*
X133944092Y-99445351D01*
G37*
X133944092Y-99445351D02*
X133938655Y-99450788D01*
X133933219Y-99445351D01*
X133938655Y-99439915D01*
X133944092Y-99445351D01*
G36*
X133911472Y-99369238D02*
G01*
X133906036Y-99374675D01*
X133900599Y-99369238D01*
X133906036Y-99363802D01*
X133911472Y-99369238D01*
G37*
X133911472Y-99369238D02*
X133906036Y-99374675D01*
X133900599Y-99369238D01*
X133906036Y-99363802D01*
X133911472Y-99369238D01*
G36*
X134495005Y-100563488D02*
G01*
X134493513Y-100569952D01*
X134487757Y-100570737D01*
X134478807Y-100566758D01*
X134480508Y-100563488D01*
X134493412Y-100562186D01*
X134495005Y-100563488D01*
G37*
X134495005Y-100563488D02*
X134493513Y-100569952D01*
X134487757Y-100570737D01*
X134478807Y-100566758D01*
X134480508Y-100563488D01*
X134493412Y-100562186D01*
X134495005Y-100563488D01*
G36*
X133911472Y-99978142D02*
G01*
X133906036Y-99983579D01*
X133900599Y-99978142D01*
X133906036Y-99972706D01*
X133911472Y-99978142D01*
G37*
X133911472Y-99978142D02*
X133906036Y-99983579D01*
X133900599Y-99978142D01*
X133906036Y-99972706D01*
X133911472Y-99978142D01*
D13*
%TO.C,C9*%
X149657836Y-98390000D02*
X149442164Y-98390000D01*
X149657836Y-99110000D02*
X149442164Y-99110000D01*
D10*
%TO.C,HOLE2*%
X131510000Y-107270000D02*
G75*
G03*
X131510000Y-107270000I-900000J0D01*
G01*
%TO.C,HOLE4*%
X176490000Y-107500000D02*
G75*
G03*
X176490000Y-107500000I-900000J0D01*
G01*
D14*
%TO.C,SW2*%
X148843000Y-98078000D02*
X142843000Y-98078000D01*
X142843000Y-97391000D02*
X142843000Y-98078000D01*
X146859000Y-97190000D02*
X144827000Y-97190000D01*
X144827000Y-97190000D02*
X144827000Y-95666000D01*
X146859000Y-95666000D02*
X146859000Y-97190000D01*
X144827000Y-95666000D02*
X146859000Y-95666000D01*
X142843000Y-94778000D02*
X142843000Y-95429000D01*
X148843000Y-98078000D02*
X148843000Y-97345000D01*
X142843000Y-94778000D02*
X148843000Y-94778000D01*
X148843000Y-95475000D02*
X148843000Y-94778000D01*
D13*
%TO.C,R2*%
X142186359Y-100460000D02*
X142493641Y-100460000D01*
X142186359Y-101220000D02*
X142493641Y-101220000D01*
%TO.C,D1*%
X134765000Y-91615000D02*
X137050000Y-91615000D01*
X137050000Y-91615000D02*
X137050000Y-90145000D01*
X137050000Y-90145000D02*
X134765000Y-90145000D01*
%TO.C,C2*%
X137790000Y-107237836D02*
X137790000Y-107022164D01*
X137070000Y-107237836D02*
X137070000Y-107022164D01*
%TO.C,C6*%
X156652164Y-99950000D02*
X156867836Y-99950000D01*
X156652164Y-100670000D02*
X156867836Y-100670000D01*
%TO.C,C11*%
X152560000Y-97582164D02*
X152560000Y-97797836D01*
X153280000Y-97582164D02*
X153280000Y-97797836D01*
%TO.C,Y1*%
X153600000Y-95170000D02*
X153600000Y-98470000D01*
X153600000Y-98470000D02*
X157600000Y-98470000D01*
D10*
%TO.C,HOLE3*%
X176520000Y-91960000D02*
G75*
G03*
X176520000Y-91960000I-900000J0D01*
G01*
D13*
%TO.C,C10*%
X153280000Y-95977836D02*
X153280000Y-95762164D01*
X152560000Y-95977836D02*
X152560000Y-95762164D01*
%TO.C,C1*%
X132120000Y-107237836D02*
X132120000Y-107022164D01*
X132840000Y-107237836D02*
X132840000Y-107022164D01*
D14*
%TO.C,SW1*%
X146839000Y-103950000D02*
X144807000Y-103950000D01*
X144807000Y-103950000D02*
X144807000Y-102426000D01*
X148823000Y-104838000D02*
X142823000Y-104838000D01*
X142823000Y-104151000D02*
X142823000Y-104838000D01*
X146839000Y-102426000D02*
X146839000Y-103950000D01*
X148823000Y-102235000D02*
X148823000Y-101538000D01*
X144807000Y-102426000D02*
X146839000Y-102426000D01*
X142823000Y-101538000D02*
X148823000Y-101538000D01*
X148823000Y-104838000D02*
X148823000Y-104105000D01*
X142823000Y-101538000D02*
X142823000Y-102189000D01*
%TO.C,U1*%
X135852000Y-109164000D02*
X134052000Y-109164000D01*
X135852000Y-106064000D02*
X134052000Y-106064000D01*
X135852000Y-107214000D02*
X135852000Y-108014000D01*
X133555000Y-105963000D02*
G75*
G03*
X133555000Y-105963000I-127000J0D01*
G01*
%TD*%
%LPC*%
D15*
%TO.C,R3*%
X141840000Y-98760000D03*
X142860000Y-98760000D03*
%TD*%
D16*
%TO.C,C5*%
X149060000Y-100880000D03*
X150020000Y-100880000D03*
%TD*%
D17*
%TO.C,F1*%
X134010000Y-93130000D03*
X136810000Y-93130000D03*
%TD*%
D18*
%TO.C,C4*%
X162532853Y-104401394D03*
X161572853Y-104401394D03*
%TD*%
D19*
%TO.C,HOLE1*%
X130650000Y-92140000D03*
%TD*%
D20*
%TO.C,U3*%
X161494239Y-96795181D03*
X161140685Y-97148734D03*
X160787132Y-97502288D03*
X160433578Y-97855841D03*
X160080025Y-98209394D03*
X159726472Y-98562948D03*
X159372918Y-98916501D03*
X159019365Y-99270055D03*
D21*
X159019365Y-100387283D03*
X159372918Y-100740837D03*
X159726472Y-101094390D03*
X160080025Y-101447944D03*
X160433578Y-101801497D03*
X160787132Y-102155050D03*
X161140685Y-102508604D03*
X161494239Y-102862157D03*
D22*
X162611467Y-102862157D03*
X162965021Y-102508604D03*
X163318574Y-102155050D03*
X163672128Y-101801497D03*
X164025681Y-101447944D03*
X164379234Y-101094390D03*
X164732788Y-100740837D03*
X165086341Y-100387283D03*
D23*
X165086341Y-99270055D03*
X164732788Y-98916501D03*
X164379234Y-98562948D03*
X164025681Y-98209394D03*
X163672128Y-97855841D03*
X163318574Y-97502288D03*
X162965021Y-97148734D03*
X162611467Y-96795181D03*
D24*
X162052853Y-99828669D03*
%TD*%
D25*
%TO.C,R1*%
X133610000Y-90390000D03*
X133610000Y-91410000D03*
%TD*%
D26*
%TO.C,J3*%
X175420000Y-95910000D03*
D27*
X175420000Y-98450000D03*
X175420000Y-100990000D03*
X175420000Y-103530000D03*
%TD*%
D16*
%TO.C,C8*%
X156280000Y-101230000D03*
X157240000Y-101230000D03*
%TD*%
D18*
%TO.C,C7*%
X162522853Y-95141394D03*
X161562853Y-95141394D03*
%TD*%
D28*
%TO.C,USB1*%
X135380000Y-95410000D03*
X135380000Y-104050000D03*
X131580000Y-95410000D03*
X131580000Y-104050000D03*
D29*
X136380000Y-99230000D03*
X136380000Y-101250000D03*
D30*
X136380000Y-102480000D03*
D29*
X136380000Y-100230000D03*
X136380000Y-98210000D03*
D30*
X136380000Y-96980000D03*
%TD*%
D18*
%TO.C,C9*%
X150030000Y-98750000D03*
X149070000Y-98750000D03*
%TD*%
D19*
%TO.C,HOLE2*%
X130610000Y-107270000D03*
%TD*%
%TO.C,HOLE4*%
X175590000Y-107500000D03*
%TD*%
D31*
%TO.C,SW2*%
X142280000Y-96410000D03*
X149680000Y-96410000D03*
%TD*%
D15*
%TO.C,R2*%
X141830000Y-100840000D03*
X142850000Y-100840000D03*
%TD*%
D32*
%TO.C,D1*%
X136352500Y-90880000D03*
X134777500Y-90880000D03*
%TD*%
D33*
%TO.C,C2*%
X137430000Y-107610000D03*
X137430000Y-106650000D03*
%TD*%
D16*
%TO.C,C6*%
X156280000Y-100310000D03*
X157240000Y-100310000D03*
%TD*%
D34*
%TO.C,C11*%
X152920000Y-97210000D03*
X152920000Y-98170000D03*
%TD*%
D35*
%TO.C,Y1*%
X154500000Y-97670000D03*
X156700000Y-97670000D03*
X156700000Y-95970000D03*
X154500000Y-95970000D03*
%TD*%
D19*
%TO.C,HOLE3*%
X175620000Y-91960000D03*
%TD*%
D33*
%TO.C,C10*%
X152920000Y-96350000D03*
X152920000Y-95390000D03*
%TD*%
%TO.C,C1*%
X132480000Y-107610000D03*
X132480000Y-106650000D03*
%TD*%
D31*
%TO.C,SW1*%
X142260000Y-103170000D03*
X149660000Y-103170000D03*
%TD*%
D36*
%TO.C,U1*%
X133652000Y-106664000D03*
X133652000Y-107614000D03*
X133652000Y-108564000D03*
X136252000Y-108564000D03*
X136252000Y-106664000D03*
%TD*%
D26*
%TO.C,J2*%
X139830000Y-90890000D03*
D27*
X142370000Y-90890000D03*
X144910000Y-90890000D03*
X147450000Y-90890000D03*
X149990000Y-90890000D03*
X152530000Y-90890000D03*
X155070000Y-90890000D03*
X157610000Y-90890000D03*
X160150000Y-90890000D03*
X162690000Y-90890000D03*
X165230000Y-90890000D03*
X167770000Y-90890000D03*
X170310000Y-90890000D03*
X172850000Y-90890000D03*
%TD*%
D26*
%TO.C,J1*%
X139800000Y-108600000D03*
D27*
X142340000Y-108600000D03*
X144880000Y-108600000D03*
X147420000Y-108600000D03*
X149960000Y-108600000D03*
X152500000Y-108600000D03*
X155040000Y-108600000D03*
X157580000Y-108600000D03*
X160120000Y-108600000D03*
X162660000Y-108600000D03*
X165200000Y-108600000D03*
X167740000Y-108600000D03*
X170280000Y-108600000D03*
X172820000Y-108600000D03*
%TD*%
M02*
