%TF.GenerationSoftware,KiCad,Pcbnew,(6.0.8)*%
%TF.CreationDate,2022-10-13T16:24:43+08:00*%
%TF.ProjectId,UINIO-MCU-STM32L051K8,55494e49-4f2d-44d4-9355-2d53544d3332,rev?*%
%TF.SameCoordinates,Original*%
%TF.FileFunction,Legend,Top*%
%TF.FilePolarity,Positive*%
%FSLAX46Y46*%
G04 Gerber Fmt 4.6, Leading zero omitted, Abs format (unit mm)*
G04 Created by KiCad (PCBNEW (6.0.8)) date 2022-10-13 16:24:43*
%MOMM*%
%LPD*%
G01*
G04 APERTURE LIST*
G04 Aperture macros list*
%AMRoundRect*
0 Rectangle with rounded corners*
0 $1 Rounding radius*
0 $2 $3 $4 $5 $6 $7 $8 $9 X,Y pos of 4 corners*
0 Add a 4 corners polygon primitive as box body*
4,1,4,$2,$3,$4,$5,$6,$7,$8,$9,$2,$3,0*
0 Add four circle primitives for the rounded corners*
1,1,$1+$1,$2,$3*
1,1,$1+$1,$4,$5*
1,1,$1+$1,$6,$7*
1,1,$1+$1,$8,$9*
0 Add four rect primitives between the rounded corners*
20,1,$1+$1,$2,$3,$4,$5,0*
20,1,$1+$1,$4,$5,$6,$7,0*
20,1,$1+$1,$6,$7,$8,$9,0*
20,1,$1+$1,$8,$9,$2,$3,0*%
%AMRotRect*
0 Rectangle, with rotation*
0 The origin of the aperture is its center*
0 $1 length*
0 $2 width*
0 $3 Rotation angle, in degrees counterclockwise*
0 Add horizontal line*
21,1,$1,$2,0,0,$3*%
G04 Aperture macros list end*
%ADD10C,0.100000*%
%ADD11C,0.150000*%
%ADD12C,0.137500*%
%ADD13C,0.120000*%
%ADD14C,0.254000*%
%ADD15RoundRect,0.135000X0.135000X0.185000X-0.135000X0.185000X-0.135000X-0.185000X0.135000X-0.185000X0*%
%ADD16RoundRect,0.140000X0.140000X0.170000X-0.140000X0.170000X-0.140000X-0.170000X0.140000X-0.170000X0*%
%ADD17RoundRect,0.250000X0.375000X0.625000X-0.375000X0.625000X-0.375000X-0.625000X0.375000X-0.625000X0*%
%ADD18RoundRect,0.140000X-0.140000X-0.170000X0.140000X-0.170000X0.140000X0.170000X-0.140000X0.170000X0*%
%ADD19C,1.200000*%
%ADD20RotRect,0.600000X0.300000X135.000000*%
%ADD21RotRect,0.600000X0.300000X225.000000*%
%ADD22RotRect,0.600000X0.300000X315.000000*%
%ADD23RotRect,0.600000X0.300000X45.000000*%
%ADD24RotRect,3.450000X3.450000X45.000000*%
%ADD25RoundRect,0.135000X0.185000X-0.135000X0.185000X0.135000X-0.185000X0.135000X-0.185000X-0.135000X0*%
%ADD26R,1.700000X1.700000*%
%ADD27O,1.700000X1.700000*%
%ADD28O,1.800000X1.000000*%
%ADD29R,1.400000X0.700000*%
%ADD30R,1.400000X0.800000*%
%ADD31R,1.500000X1.500000*%
%ADD32RoundRect,0.218750X-0.218750X-0.256250X0.218750X-0.256250X0.218750X0.256250X-0.218750X0.256250X0*%
%ADD33RoundRect,0.140000X-0.170000X0.140000X-0.170000X-0.140000X0.170000X-0.140000X0.170000X0.140000X0*%
%ADD34R,1.400000X1.200000*%
%ADD35RoundRect,0.140000X0.170000X-0.140000X0.170000X0.140000X-0.170000X0.140000X-0.170000X-0.140000X0*%
%ADD36R,1.000000X0.600000*%
G04 APERTURE END LIST*
D10*
X147968571Y-105437142D02*
X148568571Y-105437142D01*
X148568571Y-105665714D01*
X148540000Y-105722857D01*
X148511428Y-105751428D01*
X148454285Y-105780000D01*
X148368571Y-105780000D01*
X148311428Y-105751428D01*
X148282857Y-105722857D01*
X148254285Y-105665714D01*
X148254285Y-105437142D01*
X148282857Y-106237142D02*
X148254285Y-106322857D01*
X148225714Y-106351428D01*
X148168571Y-106380000D01*
X148082857Y-106380000D01*
X148025714Y-106351428D01*
X147997142Y-106322857D01*
X147968571Y-106265714D01*
X147968571Y-106037142D01*
X148568571Y-106037142D01*
X148568571Y-106237142D01*
X148540000Y-106294285D01*
X148511428Y-106322857D01*
X148454285Y-106351428D01*
X148397142Y-106351428D01*
X148340000Y-106322857D01*
X148311428Y-106294285D01*
X148282857Y-106237142D01*
X148282857Y-106037142D01*
X148568571Y-106894285D02*
X148568571Y-106780000D01*
X148540000Y-106722857D01*
X148511428Y-106694285D01*
X148425714Y-106637142D01*
X148311428Y-106608571D01*
X148082857Y-106608571D01*
X148025714Y-106637142D01*
X147997142Y-106665714D01*
X147968571Y-106722857D01*
X147968571Y-106837142D01*
X147997142Y-106894285D01*
X148025714Y-106922857D01*
X148082857Y-106951428D01*
X148225714Y-106951428D01*
X148282857Y-106922857D01*
X148311428Y-106894285D01*
X148340000Y-106837142D01*
X148340000Y-106722857D01*
X148311428Y-106665714D01*
X148282857Y-106637142D01*
X148225714Y-106608571D01*
D11*
X131976666Y-95606666D02*
X132410000Y-95606666D01*
X132176666Y-95873333D01*
X132276666Y-95873333D01*
X132343333Y-95906666D01*
X132376666Y-95940000D01*
X132410000Y-96006666D01*
X132410000Y-96173333D01*
X132376666Y-96240000D01*
X132343333Y-96273333D01*
X132276666Y-96306666D01*
X132076666Y-96306666D01*
X132010000Y-96273333D01*
X131976666Y-96240000D01*
X132710000Y-96240000D02*
X132743333Y-96273333D01*
X132710000Y-96306666D01*
X132676666Y-96273333D01*
X132710000Y-96240000D01*
X132710000Y-96306666D01*
X132976666Y-95606666D02*
X133410000Y-95606666D01*
X133176666Y-95873333D01*
X133276666Y-95873333D01*
X133343333Y-95906666D01*
X133376666Y-95940000D01*
X133410000Y-96006666D01*
X133410000Y-96173333D01*
X133376666Y-96240000D01*
X133343333Y-96273333D01*
X133276666Y-96306666D01*
X133076666Y-96306666D01*
X133010000Y-96273333D01*
X132976666Y-96240000D01*
X133610000Y-95606666D02*
X133843333Y-96306666D01*
X134076666Y-95606666D01*
D10*
X155598571Y-92490000D02*
X156198571Y-92490000D01*
X156198571Y-92718571D01*
X156170000Y-92775714D01*
X156141428Y-92804285D01*
X156084285Y-92832857D01*
X155998571Y-92832857D01*
X155941428Y-92804285D01*
X155912857Y-92775714D01*
X155884285Y-92718571D01*
X155884285Y-92490000D01*
X155770000Y-93061428D02*
X155770000Y-93347142D01*
X155598571Y-93004285D02*
X156198571Y-93204285D01*
X155598571Y-93404285D01*
X155998571Y-93861428D02*
X155598571Y-93861428D01*
X156227142Y-93718571D02*
X155798571Y-93575714D01*
X155798571Y-93947142D01*
D12*
X139601190Y-94541666D02*
X139155952Y-94541666D01*
X139103571Y-94567857D01*
X139077380Y-94594047D01*
X139051190Y-94646428D01*
X139051190Y-94751190D01*
X139077380Y-94803571D01*
X139103571Y-94829761D01*
X139155952Y-94855952D01*
X139601190Y-94855952D01*
X139051190Y-95117857D02*
X139601190Y-95117857D01*
X139051190Y-95379761D02*
X139601190Y-95379761D01*
X139051190Y-95694047D01*
X139601190Y-95694047D01*
X139051190Y-95955952D02*
X139601190Y-95955952D01*
X139601190Y-96322619D02*
X139601190Y-96427380D01*
X139575000Y-96479761D01*
X139522619Y-96532142D01*
X139417857Y-96558333D01*
X139234523Y-96558333D01*
X139129761Y-96532142D01*
X139077380Y-96479761D01*
X139051190Y-96427380D01*
X139051190Y-96322619D01*
X139077380Y-96270238D01*
X139129761Y-96217857D01*
X139234523Y-96191666D01*
X139417857Y-96191666D01*
X139522619Y-96217857D01*
X139575000Y-96270238D01*
X139601190Y-96322619D01*
X139260714Y-96794047D02*
X139260714Y-97213095D01*
X139051190Y-97475000D02*
X139601190Y-97475000D01*
X139208333Y-97658333D01*
X139601190Y-97841666D01*
X139051190Y-97841666D01*
X139103571Y-98417857D02*
X139077380Y-98391666D01*
X139051190Y-98313095D01*
X139051190Y-98260714D01*
X139077380Y-98182142D01*
X139129761Y-98129761D01*
X139182142Y-98103571D01*
X139286904Y-98077380D01*
X139365476Y-98077380D01*
X139470238Y-98103571D01*
X139522619Y-98129761D01*
X139575000Y-98182142D01*
X139601190Y-98260714D01*
X139601190Y-98313095D01*
X139575000Y-98391666D01*
X139548809Y-98417857D01*
X139601190Y-98653571D02*
X139155952Y-98653571D01*
X139103571Y-98679761D01*
X139077380Y-98705952D01*
X139051190Y-98758333D01*
X139051190Y-98863095D01*
X139077380Y-98915476D01*
X139103571Y-98941666D01*
X139155952Y-98967857D01*
X139601190Y-98967857D01*
X139260714Y-99229761D02*
X139260714Y-99648809D01*
X139077380Y-99884523D02*
X139051190Y-99963095D01*
X139051190Y-100094047D01*
X139077380Y-100146428D01*
X139103571Y-100172619D01*
X139155952Y-100198809D01*
X139208333Y-100198809D01*
X139260714Y-100172619D01*
X139286904Y-100146428D01*
X139313095Y-100094047D01*
X139339285Y-99989285D01*
X139365476Y-99936904D01*
X139391666Y-99910714D01*
X139444047Y-99884523D01*
X139496428Y-99884523D01*
X139548809Y-99910714D01*
X139575000Y-99936904D01*
X139601190Y-99989285D01*
X139601190Y-100120238D01*
X139575000Y-100198809D01*
X139601190Y-100355952D02*
X139601190Y-100670238D01*
X139051190Y-100513095D02*
X139601190Y-100513095D01*
X139051190Y-100853571D02*
X139601190Y-100853571D01*
X139208333Y-101036904D01*
X139601190Y-101220238D01*
X139051190Y-101220238D01*
X139601190Y-101429761D02*
X139601190Y-101770238D01*
X139391666Y-101586904D01*
X139391666Y-101665476D01*
X139365476Y-101717857D01*
X139339285Y-101744047D01*
X139286904Y-101770238D01*
X139155952Y-101770238D01*
X139103571Y-101744047D01*
X139077380Y-101717857D01*
X139051190Y-101665476D01*
X139051190Y-101508333D01*
X139077380Y-101455952D01*
X139103571Y-101429761D01*
X139548809Y-101979761D02*
X139575000Y-102005952D01*
X139601190Y-102058333D01*
X139601190Y-102189285D01*
X139575000Y-102241666D01*
X139548809Y-102267857D01*
X139496428Y-102294047D01*
X139444047Y-102294047D01*
X139365476Y-102267857D01*
X139051190Y-101953571D01*
X139051190Y-102294047D01*
X139051190Y-102791666D02*
X139051190Y-102529761D01*
X139601190Y-102529761D01*
X139601190Y-103079761D02*
X139601190Y-103132142D01*
X139575000Y-103184523D01*
X139548809Y-103210714D01*
X139496428Y-103236904D01*
X139391666Y-103263095D01*
X139260714Y-103263095D01*
X139155952Y-103236904D01*
X139103571Y-103210714D01*
X139077380Y-103184523D01*
X139051190Y-103132142D01*
X139051190Y-103079761D01*
X139077380Y-103027380D01*
X139103571Y-103001190D01*
X139155952Y-102975000D01*
X139260714Y-102948809D01*
X139391666Y-102948809D01*
X139496428Y-102975000D01*
X139548809Y-103001190D01*
X139575000Y-103027380D01*
X139601190Y-103079761D01*
X139601190Y-103760714D02*
X139601190Y-103498809D01*
X139339285Y-103472619D01*
X139365476Y-103498809D01*
X139391666Y-103551190D01*
X139391666Y-103682142D01*
X139365476Y-103734523D01*
X139339285Y-103760714D01*
X139286904Y-103786904D01*
X139155952Y-103786904D01*
X139103571Y-103760714D01*
X139077380Y-103734523D01*
X139051190Y-103682142D01*
X139051190Y-103551190D01*
X139077380Y-103498809D01*
X139103571Y-103472619D01*
X139051190Y-104310714D02*
X139051190Y-103996428D01*
X139051190Y-104153571D02*
X139601190Y-104153571D01*
X139522619Y-104101190D01*
X139470238Y-104048809D01*
X139444047Y-103996428D01*
X139051190Y-104546428D02*
X139601190Y-104546428D01*
X139051190Y-104860714D02*
X139365476Y-104625000D01*
X139601190Y-104860714D02*
X139286904Y-104546428D01*
X139365476Y-105175000D02*
X139391666Y-105122619D01*
X139417857Y-105096428D01*
X139470238Y-105070238D01*
X139496428Y-105070238D01*
X139548809Y-105096428D01*
X139575000Y-105122619D01*
X139601190Y-105175000D01*
X139601190Y-105279761D01*
X139575000Y-105332142D01*
X139548809Y-105358333D01*
X139496428Y-105384523D01*
X139470238Y-105384523D01*
X139417857Y-105358333D01*
X139391666Y-105332142D01*
X139365476Y-105279761D01*
X139365476Y-105175000D01*
X139339285Y-105122619D01*
X139313095Y-105096428D01*
X139260714Y-105070238D01*
X139155952Y-105070238D01*
X139103571Y-105096428D01*
X139077380Y-105122619D01*
X139051190Y-105175000D01*
X139051190Y-105279761D01*
X139077380Y-105332142D01*
X139103571Y-105358333D01*
X139155952Y-105384523D01*
X139260714Y-105384523D01*
X139313095Y-105358333D01*
X139339285Y-105332142D01*
X139365476Y-105279761D01*
D11*
X132470476Y-100720000D02*
X132394285Y-100681904D01*
X132280000Y-100681904D01*
X132165714Y-100720000D01*
X132089523Y-100796190D01*
X132051428Y-100872380D01*
X132013333Y-101024761D01*
X132013333Y-101139047D01*
X132051428Y-101291428D01*
X132089523Y-101367619D01*
X132165714Y-101443809D01*
X132280000Y-101481904D01*
X132356190Y-101481904D01*
X132470476Y-101443809D01*
X132508571Y-101405714D01*
X132508571Y-101139047D01*
X132356190Y-101139047D01*
X132851428Y-101481904D02*
X132851428Y-100681904D01*
X133308571Y-101481904D01*
X133308571Y-100681904D01*
X133689523Y-101481904D02*
X133689523Y-100681904D01*
X133880000Y-100681904D01*
X133994285Y-100720000D01*
X134070476Y-100796190D01*
X134108571Y-100872380D01*
X134146666Y-101024761D01*
X134146666Y-101139047D01*
X134108571Y-101291428D01*
X134070476Y-101367619D01*
X133994285Y-101443809D01*
X133880000Y-101481904D01*
X133689523Y-101481904D01*
D10*
X165758571Y-92490000D02*
X166358571Y-92490000D01*
X166358571Y-92718571D01*
X166330000Y-92775714D01*
X166301428Y-92804285D01*
X166244285Y-92832857D01*
X166158571Y-92832857D01*
X166101428Y-92804285D01*
X166072857Y-92775714D01*
X166044285Y-92718571D01*
X166044285Y-92490000D01*
X165930000Y-93061428D02*
X165930000Y-93347142D01*
X165758571Y-93004285D02*
X166358571Y-93204285D01*
X165758571Y-93404285D01*
X166358571Y-93718571D02*
X166358571Y-93775714D01*
X166330000Y-93832857D01*
X166301428Y-93861428D01*
X166244285Y-93890000D01*
X166130000Y-93918571D01*
X165987142Y-93918571D01*
X165872857Y-93890000D01*
X165815714Y-93861428D01*
X165787142Y-93832857D01*
X165758571Y-93775714D01*
X165758571Y-93718571D01*
X165787142Y-93661428D01*
X165815714Y-93632857D01*
X165872857Y-93604285D01*
X165987142Y-93575714D01*
X166130000Y-93575714D01*
X166244285Y-93604285D01*
X166301428Y-93632857D01*
X166330000Y-93661428D01*
X166358571Y-93718571D01*
X163218571Y-92430000D02*
X163818571Y-92430000D01*
X163818571Y-92658571D01*
X163790000Y-92715714D01*
X163761428Y-92744285D01*
X163704285Y-92772857D01*
X163618571Y-92772857D01*
X163561428Y-92744285D01*
X163532857Y-92715714D01*
X163504285Y-92658571D01*
X163504285Y-92430000D01*
X163390000Y-93001428D02*
X163390000Y-93287142D01*
X163218571Y-92944285D02*
X163818571Y-93144285D01*
X163218571Y-93344285D01*
X163218571Y-93858571D02*
X163218571Y-93515714D01*
X163218571Y-93687142D02*
X163818571Y-93687142D01*
X163732857Y-93630000D01*
X163675714Y-93572857D01*
X163647142Y-93515714D01*
X132738571Y-92585285D02*
X133338571Y-92585285D01*
X133338571Y-92813857D01*
X133310000Y-92871000D01*
X133281428Y-92899571D01*
X133224285Y-92928142D01*
X133138571Y-92928142D01*
X133081428Y-92899571D01*
X133052857Y-92871000D01*
X133024285Y-92813857D01*
X133024285Y-92585285D01*
X132910000Y-93156714D02*
X132910000Y-93442428D01*
X132738571Y-93099571D02*
X133338571Y-93299571D01*
X132738571Y-93499571D01*
X132738571Y-94013857D02*
X132738571Y-93671000D01*
X132738571Y-93842428D02*
X133338571Y-93842428D01*
X133252857Y-93785285D01*
X133195714Y-93728142D01*
X133167142Y-93671000D01*
X133338571Y-94556714D02*
X133338571Y-94271000D01*
X133052857Y-94242428D01*
X133081428Y-94271000D01*
X133110000Y-94328142D01*
X133110000Y-94471000D01*
X133081428Y-94528142D01*
X133052857Y-94556714D01*
X132995714Y-94585285D01*
X132852857Y-94585285D01*
X132795714Y-94556714D01*
X132767142Y-94528142D01*
X132738571Y-94471000D01*
X132738571Y-94328142D01*
X132767142Y-94271000D01*
X132795714Y-94242428D01*
X155628571Y-105054285D02*
X156228571Y-105054285D01*
X155628571Y-105397142D01*
X156228571Y-105397142D01*
X155628571Y-106025714D02*
X155914285Y-105825714D01*
X155628571Y-105682857D02*
X156228571Y-105682857D01*
X156228571Y-105911428D01*
X156200000Y-105968571D01*
X156171428Y-105997142D01*
X156114285Y-106025714D01*
X156028571Y-106025714D01*
X155971428Y-105997142D01*
X155942857Y-105968571D01*
X155914285Y-105911428D01*
X155914285Y-105682857D01*
X155657142Y-106254285D02*
X155628571Y-106340000D01*
X155628571Y-106482857D01*
X155657142Y-106540000D01*
X155685714Y-106568571D01*
X155742857Y-106597142D01*
X155800000Y-106597142D01*
X155857142Y-106568571D01*
X155885714Y-106540000D01*
X155914285Y-106482857D01*
X155942857Y-106368571D01*
X155971428Y-106311428D01*
X156000000Y-106282857D01*
X156057142Y-106254285D01*
X156114285Y-106254285D01*
X156171428Y-106282857D01*
X156200000Y-106311428D01*
X156228571Y-106368571D01*
X156228571Y-106511428D01*
X156200000Y-106597142D01*
X156228571Y-106768571D02*
X156228571Y-107111428D01*
X155628571Y-106940000D02*
X156228571Y-106940000D01*
X158138571Y-92490000D02*
X158738571Y-92490000D01*
X158738571Y-92718571D01*
X158710000Y-92775714D01*
X158681428Y-92804285D01*
X158624285Y-92832857D01*
X158538571Y-92832857D01*
X158481428Y-92804285D01*
X158452857Y-92775714D01*
X158424285Y-92718571D01*
X158424285Y-92490000D01*
X158310000Y-93061428D02*
X158310000Y-93347142D01*
X158138571Y-93004285D02*
X158738571Y-93204285D01*
X158138571Y-93404285D01*
X158738571Y-93547142D02*
X158738571Y-93918571D01*
X158510000Y-93718571D01*
X158510000Y-93804285D01*
X158481428Y-93861428D01*
X158452857Y-93890000D01*
X158395714Y-93918571D01*
X158252857Y-93918571D01*
X158195714Y-93890000D01*
X158167142Y-93861428D01*
X158138571Y-93804285D01*
X158138571Y-93632857D01*
X158167142Y-93575714D01*
X158195714Y-93547142D01*
X158700000Y-105722857D02*
X158728571Y-105665714D01*
X158728571Y-105580000D01*
X158700000Y-105494285D01*
X158642857Y-105437142D01*
X158585714Y-105408571D01*
X158471428Y-105380000D01*
X158385714Y-105380000D01*
X158271428Y-105408571D01*
X158214285Y-105437142D01*
X158157142Y-105494285D01*
X158128571Y-105580000D01*
X158128571Y-105637142D01*
X158157142Y-105722857D01*
X158185714Y-105751428D01*
X158385714Y-105751428D01*
X158385714Y-105637142D01*
X158128571Y-106008571D02*
X158728571Y-106008571D01*
X158128571Y-106351428D01*
X158728571Y-106351428D01*
X158128571Y-106637142D02*
X158728571Y-106637142D01*
X158728571Y-106780000D01*
X158700000Y-106865714D01*
X158642857Y-106922857D01*
X158585714Y-106951428D01*
X158471428Y-106980000D01*
X158385714Y-106980000D01*
X158271428Y-106951428D01*
X158214285Y-106922857D01*
X158157142Y-106865714D01*
X158128571Y-106780000D01*
X158128571Y-106637142D01*
D11*
X132004761Y-104533809D02*
X132119047Y-104571904D01*
X132309523Y-104571904D01*
X132385714Y-104533809D01*
X132423809Y-104495714D01*
X132461904Y-104419523D01*
X132461904Y-104343333D01*
X132423809Y-104267142D01*
X132385714Y-104229047D01*
X132309523Y-104190952D01*
X132157142Y-104152857D01*
X132080952Y-104114761D01*
X132042857Y-104076666D01*
X132004761Y-104000476D01*
X132004761Y-103924285D01*
X132042857Y-103848095D01*
X132080952Y-103810000D01*
X132157142Y-103771904D01*
X132347619Y-103771904D01*
X132461904Y-103810000D01*
X132728571Y-103771904D02*
X132919047Y-104571904D01*
X133071428Y-104000476D01*
X133223809Y-104571904D01*
X133414285Y-103771904D01*
X133719047Y-104571904D02*
X133719047Y-103771904D01*
X133909523Y-103771904D01*
X134023809Y-103810000D01*
X134100000Y-103886190D01*
X134138095Y-103962380D01*
X134176190Y-104114761D01*
X134176190Y-104229047D01*
X134138095Y-104381428D01*
X134100000Y-104457619D01*
X134023809Y-104533809D01*
X133909523Y-104571904D01*
X133719047Y-104571904D01*
X134519047Y-104571904D02*
X134519047Y-103771904D01*
X135052380Y-103771904D02*
X135204761Y-103771904D01*
X135280952Y-103810000D01*
X135357142Y-103886190D01*
X135395238Y-104038571D01*
X135395238Y-104305238D01*
X135357142Y-104457619D01*
X135280952Y-104533809D01*
X135204761Y-104571904D01*
X135052380Y-104571904D01*
X134976190Y-104533809D01*
X134900000Y-104457619D01*
X134861904Y-104305238D01*
X134861904Y-104038571D01*
X134900000Y-103886190D01*
X134976190Y-103810000D01*
X135052380Y-103771904D01*
D10*
X135268571Y-105437142D02*
X135868571Y-105437142D01*
X135868571Y-105665714D01*
X135840000Y-105722857D01*
X135811428Y-105751428D01*
X135754285Y-105780000D01*
X135668571Y-105780000D01*
X135611428Y-105751428D01*
X135582857Y-105722857D01*
X135554285Y-105665714D01*
X135554285Y-105437142D01*
X135582857Y-106237142D02*
X135554285Y-106322857D01*
X135525714Y-106351428D01*
X135468571Y-106380000D01*
X135382857Y-106380000D01*
X135325714Y-106351428D01*
X135297142Y-106322857D01*
X135268571Y-106265714D01*
X135268571Y-106037142D01*
X135868571Y-106037142D01*
X135868571Y-106237142D01*
X135840000Y-106294285D01*
X135811428Y-106322857D01*
X135754285Y-106351428D01*
X135697142Y-106351428D01*
X135640000Y-106322857D01*
X135611428Y-106294285D01*
X135582857Y-106237142D01*
X135582857Y-106037142D01*
X135268571Y-106951428D02*
X135268571Y-106608571D01*
X135268571Y-106780000D02*
X135868571Y-106780000D01*
X135782857Y-106722857D01*
X135725714Y-106665714D01*
X135697142Y-106608571D01*
X150518571Y-92490000D02*
X151118571Y-92490000D01*
X151118571Y-92718571D01*
X151090000Y-92775714D01*
X151061428Y-92804285D01*
X151004285Y-92832857D01*
X150918571Y-92832857D01*
X150861428Y-92804285D01*
X150832857Y-92775714D01*
X150804285Y-92718571D01*
X150804285Y-92490000D01*
X150690000Y-93061428D02*
X150690000Y-93347142D01*
X150518571Y-93004285D02*
X151118571Y-93204285D01*
X150518571Y-93404285D01*
X151118571Y-93861428D02*
X151118571Y-93747142D01*
X151090000Y-93690000D01*
X151061428Y-93661428D01*
X150975714Y-93604285D01*
X150861428Y-93575714D01*
X150632857Y-93575714D01*
X150575714Y-93604285D01*
X150547142Y-93632857D01*
X150518571Y-93690000D01*
X150518571Y-93804285D01*
X150547142Y-93861428D01*
X150575714Y-93890000D01*
X150632857Y-93918571D01*
X150775714Y-93918571D01*
X150832857Y-93890000D01*
X150861428Y-93861428D01*
X150890000Y-93804285D01*
X150890000Y-93690000D01*
X150861428Y-93632857D01*
X150832857Y-93604285D01*
X150775714Y-93575714D01*
X153048571Y-105437142D02*
X153648571Y-105437142D01*
X153648571Y-105665714D01*
X153620000Y-105722857D01*
X153591428Y-105751428D01*
X153534285Y-105780000D01*
X153448571Y-105780000D01*
X153391428Y-105751428D01*
X153362857Y-105722857D01*
X153334285Y-105665714D01*
X153334285Y-105437142D01*
X153362857Y-106237142D02*
X153334285Y-106322857D01*
X153305714Y-106351428D01*
X153248571Y-106380000D01*
X153162857Y-106380000D01*
X153105714Y-106351428D01*
X153077142Y-106322857D01*
X153048571Y-106265714D01*
X153048571Y-106037142D01*
X153648571Y-106037142D01*
X153648571Y-106237142D01*
X153620000Y-106294285D01*
X153591428Y-106322857D01*
X153534285Y-106351428D01*
X153477142Y-106351428D01*
X153420000Y-106322857D01*
X153391428Y-106294285D01*
X153362857Y-106237142D01*
X153362857Y-106037142D01*
X153391428Y-106722857D02*
X153420000Y-106665714D01*
X153448571Y-106637142D01*
X153505714Y-106608571D01*
X153534285Y-106608571D01*
X153591428Y-106637142D01*
X153620000Y-106665714D01*
X153648571Y-106722857D01*
X153648571Y-106837142D01*
X153620000Y-106894285D01*
X153591428Y-106922857D01*
X153534285Y-106951428D01*
X153505714Y-106951428D01*
X153448571Y-106922857D01*
X153420000Y-106894285D01*
X153391428Y-106837142D01*
X153391428Y-106722857D01*
X153362857Y-106665714D01*
X153334285Y-106637142D01*
X153277142Y-106608571D01*
X153162857Y-106608571D01*
X153105714Y-106637142D01*
X153077142Y-106665714D01*
X153048571Y-106722857D01*
X153048571Y-106837142D01*
X153077142Y-106894285D01*
X153105714Y-106922857D01*
X153162857Y-106951428D01*
X153277142Y-106951428D01*
X153334285Y-106922857D01*
X153362857Y-106894285D01*
X153391428Y-106837142D01*
X137808571Y-105437142D02*
X138408571Y-105437142D01*
X138408571Y-105665714D01*
X138380000Y-105722857D01*
X138351428Y-105751428D01*
X138294285Y-105780000D01*
X138208571Y-105780000D01*
X138151428Y-105751428D01*
X138122857Y-105722857D01*
X138094285Y-105665714D01*
X138094285Y-105437142D01*
X138122857Y-106237142D02*
X138094285Y-106322857D01*
X138065714Y-106351428D01*
X138008571Y-106380000D01*
X137922857Y-106380000D01*
X137865714Y-106351428D01*
X137837142Y-106322857D01*
X137808571Y-106265714D01*
X137808571Y-106037142D01*
X138408571Y-106037142D01*
X138408571Y-106237142D01*
X138380000Y-106294285D01*
X138351428Y-106322857D01*
X138294285Y-106351428D01*
X138237142Y-106351428D01*
X138180000Y-106322857D01*
X138151428Y-106294285D01*
X138122857Y-106237142D01*
X138122857Y-106037142D01*
X138351428Y-106608571D02*
X138380000Y-106637142D01*
X138408571Y-106694285D01*
X138408571Y-106837142D01*
X138380000Y-106894285D01*
X138351428Y-106922857D01*
X138294285Y-106951428D01*
X138237142Y-106951428D01*
X138151428Y-106922857D01*
X137808571Y-106580000D01*
X137808571Y-106951428D01*
X166348571Y-106555714D02*
X166348571Y-106270000D01*
X166062857Y-106241428D01*
X166091428Y-106270000D01*
X166120000Y-106327142D01*
X166120000Y-106470000D01*
X166091428Y-106527142D01*
X166062857Y-106555714D01*
X166005714Y-106584285D01*
X165862857Y-106584285D01*
X165805714Y-106555714D01*
X165777142Y-106527142D01*
X165748571Y-106470000D01*
X165748571Y-106327142D01*
X165777142Y-106270000D01*
X165805714Y-106241428D01*
X166348571Y-106755714D02*
X165748571Y-106955714D01*
X166348571Y-107155714D01*
X138233809Y-97247619D02*
X137733809Y-97414285D01*
X138233809Y-97580952D01*
X137757619Y-97938095D02*
X137733809Y-97890476D01*
X137733809Y-97795238D01*
X137757619Y-97747619D01*
X137805238Y-97723809D01*
X137995714Y-97723809D01*
X138043333Y-97747619D01*
X138067142Y-97795238D01*
X138067142Y-97890476D01*
X138043333Y-97938095D01*
X137995714Y-97961904D01*
X137948095Y-97961904D01*
X137900476Y-97723809D01*
X137733809Y-98176190D02*
X138067142Y-98176190D01*
X137971904Y-98176190D02*
X138019523Y-98200000D01*
X138043333Y-98223809D01*
X138067142Y-98271428D01*
X138067142Y-98319047D01*
X137757619Y-98461904D02*
X137733809Y-98509523D01*
X137733809Y-98604761D01*
X137757619Y-98652380D01*
X137805238Y-98676190D01*
X137829047Y-98676190D01*
X137876666Y-98652380D01*
X137900476Y-98604761D01*
X137900476Y-98533333D01*
X137924285Y-98485714D01*
X137971904Y-98461904D01*
X137995714Y-98461904D01*
X138043333Y-98485714D01*
X138067142Y-98533333D01*
X138067142Y-98604761D01*
X138043333Y-98652380D01*
X137733809Y-98890476D02*
X138067142Y-98890476D01*
X138233809Y-98890476D02*
X138210000Y-98866666D01*
X138186190Y-98890476D01*
X138210000Y-98914285D01*
X138233809Y-98890476D01*
X138186190Y-98890476D01*
X137733809Y-99200000D02*
X137757619Y-99152380D01*
X137781428Y-99128571D01*
X137829047Y-99104761D01*
X137971904Y-99104761D01*
X138019523Y-99128571D01*
X138043333Y-99152380D01*
X138067142Y-99200000D01*
X138067142Y-99271428D01*
X138043333Y-99319047D01*
X138019523Y-99342857D01*
X137971904Y-99366666D01*
X137829047Y-99366666D01*
X137781428Y-99342857D01*
X137757619Y-99319047D01*
X137733809Y-99271428D01*
X137733809Y-99200000D01*
X138067142Y-99580952D02*
X137733809Y-99580952D01*
X138019523Y-99580952D02*
X138043333Y-99604761D01*
X138067142Y-99652380D01*
X138067142Y-99723809D01*
X138043333Y-99771428D01*
X137995714Y-99795238D01*
X137733809Y-99795238D01*
X137733809Y-100676190D02*
X137733809Y-100390476D01*
X137733809Y-100533333D02*
X138233809Y-100533333D01*
X138162380Y-100485714D01*
X138114761Y-100438095D01*
X138090952Y-100390476D01*
X137781428Y-100890476D02*
X137757619Y-100914285D01*
X137733809Y-100890476D01*
X137757619Y-100866666D01*
X137781428Y-100890476D01*
X137733809Y-100890476D01*
X138233809Y-101223809D02*
X138233809Y-101271428D01*
X138210000Y-101319047D01*
X138186190Y-101342857D01*
X138138571Y-101366666D01*
X138043333Y-101390476D01*
X137924285Y-101390476D01*
X137829047Y-101366666D01*
X137781428Y-101342857D01*
X137757619Y-101319047D01*
X137733809Y-101271428D01*
X137733809Y-101223809D01*
X137757619Y-101176190D01*
X137781428Y-101152380D01*
X137829047Y-101128571D01*
X137924285Y-101104761D01*
X138043333Y-101104761D01*
X138138571Y-101128571D01*
X138186190Y-101152380D01*
X138210000Y-101176190D01*
X138233809Y-101223809D01*
X137781428Y-101604761D02*
X137757619Y-101628571D01*
X137733809Y-101604761D01*
X137757619Y-101580952D01*
X137781428Y-101604761D01*
X137733809Y-101604761D01*
X138233809Y-101938095D02*
X138233809Y-101985714D01*
X138210000Y-102033333D01*
X138186190Y-102057142D01*
X138138571Y-102080952D01*
X138043333Y-102104761D01*
X137924285Y-102104761D01*
X137829047Y-102080952D01*
X137781428Y-102057142D01*
X137757619Y-102033333D01*
X137733809Y-101985714D01*
X137733809Y-101938095D01*
X137757619Y-101890476D01*
X137781428Y-101866666D01*
X137829047Y-101842857D01*
X137924285Y-101819047D01*
X138043333Y-101819047D01*
X138138571Y-101842857D01*
X138186190Y-101866666D01*
X138210000Y-101890476D01*
X138233809Y-101938095D01*
X164450000Y-103146666D02*
X165250000Y-103146666D01*
X164883333Y-103146666D02*
X164883333Y-103446666D01*
X165083333Y-103246666D02*
X165150000Y-103280000D01*
X165316666Y-103413333D01*
X165116666Y-103013333D02*
X165283333Y-103213333D01*
X164650000Y-103246666D02*
X164483333Y-103413333D01*
X165250000Y-102680000D02*
X164816666Y-102746666D01*
X164516666Y-102746666D01*
X164783333Y-102746666D02*
X164616666Y-102946666D01*
X164816666Y-103013333D01*
X165050000Y-102813333D02*
X164716666Y-103146666D01*
X165850000Y-102813333D02*
X166350000Y-102813333D01*
X166050000Y-103046666D02*
X166283333Y-103046666D01*
X165850000Y-103046666D02*
X166150000Y-103046666D01*
X166150000Y-103446666D02*
X166350000Y-103446666D01*
X166183333Y-103080000D02*
X166183333Y-103446666D01*
X166350000Y-103346666D02*
X166316666Y-103446666D01*
X166183333Y-102913333D02*
X166316666Y-103013333D01*
X165583333Y-102846666D02*
X165516666Y-102980000D01*
X165750000Y-102880000D02*
X165683333Y-102980000D01*
X165483333Y-103180000D01*
X166083333Y-102813333D02*
X165983333Y-102913333D01*
X165850000Y-103046666D01*
X166050000Y-102646666D02*
X166083333Y-102780000D01*
X165683333Y-102646666D02*
X165550000Y-102913333D01*
X165883333Y-103380000D02*
X165750000Y-103446666D01*
X165950000Y-103113333D02*
X165916666Y-103346666D01*
X165716666Y-102946666D02*
X165483333Y-102980000D01*
X165750000Y-103146666D02*
X165483333Y-103180000D01*
X165750000Y-103313333D02*
X165483333Y-103380000D01*
X166683333Y-102780000D02*
X167316666Y-102780000D01*
X166683333Y-102980000D02*
X167250000Y-102980000D01*
X166683333Y-103080000D02*
X167250000Y-103080000D01*
X166750000Y-103213333D02*
X167216666Y-103213333D01*
X166683333Y-102846666D02*
X166683333Y-103080000D01*
X166683333Y-102846666D02*
X167216666Y-102846666D01*
X167216666Y-103080000D01*
X166783333Y-102646666D02*
X166550000Y-102880000D01*
X166850000Y-103080000D02*
X166750000Y-103180000D01*
X166516666Y-103280000D01*
X166750000Y-103246666D02*
X166983333Y-103346666D01*
X167316666Y-103446666D01*
X166950000Y-103346666D02*
X167383333Y-103446666D01*
X167183333Y-103213333D02*
X166983333Y-103346666D01*
X166816666Y-103380000D01*
X166550000Y-103446666D01*
X167816666Y-102846666D02*
X168383333Y-102846666D01*
X167783333Y-103413333D02*
X168416666Y-103413333D01*
X167716666Y-102813333D02*
X167716666Y-103446666D01*
X168116666Y-102646666D02*
X168116666Y-102846666D01*
X168283333Y-102946666D02*
X168150000Y-103413333D01*
X167950000Y-102946666D02*
X167983333Y-103313333D01*
X167783333Y-102680000D02*
X167683333Y-102880000D01*
X167550000Y-103013333D01*
X160678571Y-92490000D02*
X161278571Y-92490000D01*
X161278571Y-92718571D01*
X161250000Y-92775714D01*
X161221428Y-92804285D01*
X161164285Y-92832857D01*
X161078571Y-92832857D01*
X161021428Y-92804285D01*
X160992857Y-92775714D01*
X160964285Y-92718571D01*
X160964285Y-92490000D01*
X160850000Y-93061428D02*
X160850000Y-93347142D01*
X160678571Y-93004285D02*
X161278571Y-93204285D01*
X160678571Y-93404285D01*
X161221428Y-93575714D02*
X161250000Y-93604285D01*
X161278571Y-93661428D01*
X161278571Y-93804285D01*
X161250000Y-93861428D01*
X161221428Y-93890000D01*
X161164285Y-93918571D01*
X161107142Y-93918571D01*
X161021428Y-93890000D01*
X160678571Y-93547142D01*
X160678571Y-93918571D01*
X147978571Y-92490000D02*
X148578571Y-92490000D01*
X148578571Y-92718571D01*
X148550000Y-92775714D01*
X148521428Y-92804285D01*
X148464285Y-92832857D01*
X148378571Y-92832857D01*
X148321428Y-92804285D01*
X148292857Y-92775714D01*
X148264285Y-92718571D01*
X148264285Y-92490000D01*
X148150000Y-93061428D02*
X148150000Y-93347142D01*
X147978571Y-93004285D02*
X148578571Y-93204285D01*
X147978571Y-93404285D01*
X148578571Y-93547142D02*
X148578571Y-93947142D01*
X147978571Y-93690000D01*
X150508571Y-105437142D02*
X151108571Y-105437142D01*
X151108571Y-105665714D01*
X151080000Y-105722857D01*
X151051428Y-105751428D01*
X150994285Y-105780000D01*
X150908571Y-105780000D01*
X150851428Y-105751428D01*
X150822857Y-105722857D01*
X150794285Y-105665714D01*
X150794285Y-105437142D01*
X150822857Y-106237142D02*
X150794285Y-106322857D01*
X150765714Y-106351428D01*
X150708571Y-106380000D01*
X150622857Y-106380000D01*
X150565714Y-106351428D01*
X150537142Y-106322857D01*
X150508571Y-106265714D01*
X150508571Y-106037142D01*
X151108571Y-106037142D01*
X151108571Y-106237142D01*
X151080000Y-106294285D01*
X151051428Y-106322857D01*
X150994285Y-106351428D01*
X150937142Y-106351428D01*
X150880000Y-106322857D01*
X150851428Y-106294285D01*
X150822857Y-106237142D01*
X150822857Y-106037142D01*
X151108571Y-106580000D02*
X151108571Y-106980000D01*
X150508571Y-106722857D01*
X161278571Y-105314285D02*
X161278571Y-105685714D01*
X161050000Y-105485714D01*
X161050000Y-105571428D01*
X161021428Y-105628571D01*
X160992857Y-105657142D01*
X160935714Y-105685714D01*
X160792857Y-105685714D01*
X160735714Y-105657142D01*
X160707142Y-105628571D01*
X160678571Y-105571428D01*
X160678571Y-105400000D01*
X160707142Y-105342857D01*
X160735714Y-105314285D01*
X160735714Y-105942857D02*
X160707142Y-105971428D01*
X160678571Y-105942857D01*
X160707142Y-105914285D01*
X160735714Y-105942857D01*
X160678571Y-105942857D01*
X161278571Y-106171428D02*
X161278571Y-106542857D01*
X161050000Y-106342857D01*
X161050000Y-106428571D01*
X161021428Y-106485714D01*
X160992857Y-106514285D01*
X160935714Y-106542857D01*
X160792857Y-106542857D01*
X160735714Y-106514285D01*
X160707142Y-106485714D01*
X160678571Y-106428571D01*
X160678571Y-106257142D01*
X160707142Y-106200000D01*
X160735714Y-106171428D01*
X161278571Y-106714285D02*
X160678571Y-106914285D01*
X161278571Y-107114285D01*
X142898571Y-92490000D02*
X143498571Y-92490000D01*
X143498571Y-92718571D01*
X143470000Y-92775714D01*
X143441428Y-92804285D01*
X143384285Y-92832857D01*
X143298571Y-92832857D01*
X143241428Y-92804285D01*
X143212857Y-92775714D01*
X143184285Y-92718571D01*
X143184285Y-92490000D01*
X143070000Y-93061428D02*
X143070000Y-93347142D01*
X142898571Y-93004285D02*
X143498571Y-93204285D01*
X142898571Y-93404285D01*
X142898571Y-93632857D02*
X142898571Y-93747142D01*
X142927142Y-93804285D01*
X142955714Y-93832857D01*
X143041428Y-93890000D01*
X143155714Y-93918571D01*
X143384285Y-93918571D01*
X143441428Y-93890000D01*
X143470000Y-93861428D01*
X143498571Y-93804285D01*
X143498571Y-93690000D01*
X143470000Y-93632857D01*
X143441428Y-93604285D01*
X143384285Y-93575714D01*
X143241428Y-93575714D01*
X143184285Y-93604285D01*
X143155714Y-93632857D01*
X143127142Y-93690000D01*
X143127142Y-93804285D01*
X143155714Y-93861428D01*
X143184285Y-93890000D01*
X143241428Y-93918571D01*
X132728571Y-105437142D02*
X133328571Y-105437142D01*
X133328571Y-105665714D01*
X133300000Y-105722857D01*
X133271428Y-105751428D01*
X133214285Y-105780000D01*
X133128571Y-105780000D01*
X133071428Y-105751428D01*
X133042857Y-105722857D01*
X133014285Y-105665714D01*
X133014285Y-105437142D01*
X133042857Y-106237142D02*
X133014285Y-106322857D01*
X132985714Y-106351428D01*
X132928571Y-106380000D01*
X132842857Y-106380000D01*
X132785714Y-106351428D01*
X132757142Y-106322857D01*
X132728571Y-106265714D01*
X132728571Y-106037142D01*
X133328571Y-106037142D01*
X133328571Y-106237142D01*
X133300000Y-106294285D01*
X133271428Y-106322857D01*
X133214285Y-106351428D01*
X133157142Y-106351428D01*
X133100000Y-106322857D01*
X133071428Y-106294285D01*
X133042857Y-106237142D01*
X133042857Y-106037142D01*
X133328571Y-106751428D02*
X133328571Y-106808571D01*
X133300000Y-106865714D01*
X133271428Y-106894285D01*
X133214285Y-106922857D01*
X133100000Y-106951428D01*
X132957142Y-106951428D01*
X132842857Y-106922857D01*
X132785714Y-106894285D01*
X132757142Y-106865714D01*
X132728571Y-106808571D01*
X132728571Y-106751428D01*
X132757142Y-106694285D01*
X132785714Y-106665714D01*
X132842857Y-106637142D01*
X132957142Y-106608571D01*
X133100000Y-106608571D01*
X133214285Y-106637142D01*
X133271428Y-106665714D01*
X133300000Y-106694285D01*
X133328571Y-106751428D01*
X137818571Y-92585285D02*
X138418571Y-92585285D01*
X138418571Y-92813857D01*
X138390000Y-92871000D01*
X138361428Y-92899571D01*
X138304285Y-92928142D01*
X138218571Y-92928142D01*
X138161428Y-92899571D01*
X138132857Y-92871000D01*
X138104285Y-92813857D01*
X138104285Y-92585285D01*
X137990000Y-93156714D02*
X137990000Y-93442428D01*
X137818571Y-93099571D02*
X138418571Y-93299571D01*
X137818571Y-93499571D01*
X137818571Y-94013857D02*
X137818571Y-93671000D01*
X137818571Y-93842428D02*
X138418571Y-93842428D01*
X138332857Y-93785285D01*
X138275714Y-93728142D01*
X138247142Y-93671000D01*
X137818571Y-94585285D02*
X137818571Y-94242428D01*
X137818571Y-94413857D02*
X138418571Y-94413857D01*
X138332857Y-94356714D01*
X138275714Y-94299571D01*
X138247142Y-94242428D01*
X153012527Y-92465587D02*
X153612527Y-92465587D01*
X153612527Y-92694158D01*
X153583956Y-92751301D01*
X153555384Y-92779872D01*
X153498241Y-92808444D01*
X153412527Y-92808444D01*
X153355384Y-92779872D01*
X153326813Y-92751301D01*
X153298241Y-92694158D01*
X153298241Y-92465587D01*
X153183956Y-93037015D02*
X153183956Y-93322729D01*
X153012527Y-92979872D02*
X153612527Y-93179872D01*
X153012527Y-93379872D01*
X153612527Y-93865587D02*
X153612527Y-93579872D01*
X153326813Y-93551301D01*
X153355384Y-93579872D01*
X153383956Y-93637015D01*
X153383956Y-93779872D01*
X153355384Y-93837015D01*
X153326813Y-93865587D01*
X153269670Y-93894158D01*
X153126813Y-93894158D01*
X153069670Y-93865587D01*
X153041098Y-93837015D01*
X153012527Y-93779872D01*
X153012527Y-93637015D01*
X153041098Y-93579872D01*
X153069670Y-93551301D01*
X135278571Y-92585285D02*
X135878571Y-92585285D01*
X135878571Y-92813857D01*
X135850000Y-92871000D01*
X135821428Y-92899571D01*
X135764285Y-92928142D01*
X135678571Y-92928142D01*
X135621428Y-92899571D01*
X135592857Y-92871000D01*
X135564285Y-92813857D01*
X135564285Y-92585285D01*
X135450000Y-93156714D02*
X135450000Y-93442428D01*
X135278571Y-93099571D02*
X135878571Y-93299571D01*
X135278571Y-93499571D01*
X135278571Y-94013857D02*
X135278571Y-93671000D01*
X135278571Y-93842428D02*
X135878571Y-93842428D01*
X135792857Y-93785285D01*
X135735714Y-93728142D01*
X135707142Y-93671000D01*
X135821428Y-94242428D02*
X135850000Y-94271000D01*
X135878571Y-94328142D01*
X135878571Y-94471000D01*
X135850000Y-94528142D01*
X135821428Y-94556714D01*
X135764285Y-94585285D01*
X135707142Y-94585285D01*
X135621428Y-94556714D01*
X135278571Y-94213857D01*
X135278571Y-94585285D01*
X132000000Y-103366666D02*
X132000000Y-102666666D01*
X132266666Y-102666666D01*
X132333333Y-102700000D01*
X132366666Y-102733333D01*
X132400000Y-102800000D01*
X132400000Y-102900000D01*
X132366666Y-102966666D01*
X132333333Y-103000000D01*
X132266666Y-103033333D01*
X132000000Y-103033333D01*
X132666666Y-103166666D02*
X133000000Y-103166666D01*
X132600000Y-103366666D02*
X132833333Y-102666666D01*
X133066666Y-103366666D01*
X133666666Y-103366666D02*
X133266666Y-103366666D01*
X133466666Y-103366666D02*
X133466666Y-102666666D01*
X133400000Y-102766666D01*
X133333333Y-102833333D01*
X133266666Y-102866666D01*
X133900000Y-102666666D02*
X134333333Y-102666666D01*
X134100000Y-102933333D01*
X134200000Y-102933333D01*
X134266666Y-102966666D01*
X134300000Y-103000000D01*
X134333333Y-103066666D01*
X134333333Y-103233333D01*
X134300000Y-103300000D01*
X134266666Y-103333333D01*
X134200000Y-103366666D01*
X134000000Y-103366666D01*
X133933333Y-103333333D01*
X133900000Y-103300000D01*
D11*
X132030476Y-99533809D02*
X132144761Y-99571904D01*
X132335238Y-99571904D01*
X132411428Y-99533809D01*
X132449523Y-99495714D01*
X132487619Y-99419523D01*
X132487619Y-99343333D01*
X132449523Y-99267142D01*
X132411428Y-99229047D01*
X132335238Y-99190952D01*
X132182857Y-99152857D01*
X132106666Y-99114761D01*
X132068571Y-99076666D01*
X132030476Y-99000476D01*
X132030476Y-98924285D01*
X132068571Y-98848095D01*
X132106666Y-98810000D01*
X132182857Y-98771904D01*
X132373333Y-98771904D01*
X132487619Y-98810000D01*
X132754285Y-98771904D02*
X132944761Y-99571904D01*
X133097142Y-99000476D01*
X133249523Y-99571904D01*
X133440000Y-98771904D01*
X134201904Y-99495714D02*
X134163809Y-99533809D01*
X134049523Y-99571904D01*
X133973333Y-99571904D01*
X133859047Y-99533809D01*
X133782857Y-99457619D01*
X133744761Y-99381428D01*
X133706666Y-99229047D01*
X133706666Y-99114761D01*
X133744761Y-98962380D01*
X133782857Y-98886190D01*
X133859047Y-98810000D01*
X133973333Y-98771904D01*
X134049523Y-98771904D01*
X134163809Y-98810000D01*
X134201904Y-98848095D01*
X134925714Y-99571904D02*
X134544761Y-99571904D01*
X134544761Y-98771904D01*
X135192380Y-99571904D02*
X135192380Y-98771904D01*
X135649523Y-99571904D02*
X135306666Y-99114761D01*
X135649523Y-98771904D02*
X135192380Y-99229047D01*
D10*
X140348571Y-105437142D02*
X140948571Y-105437142D01*
X140948571Y-105665714D01*
X140920000Y-105722857D01*
X140891428Y-105751428D01*
X140834285Y-105780000D01*
X140748571Y-105780000D01*
X140691428Y-105751428D01*
X140662857Y-105722857D01*
X140634285Y-105665714D01*
X140634285Y-105437142D01*
X140662857Y-106237142D02*
X140634285Y-106322857D01*
X140605714Y-106351428D01*
X140548571Y-106380000D01*
X140462857Y-106380000D01*
X140405714Y-106351428D01*
X140377142Y-106322857D01*
X140348571Y-106265714D01*
X140348571Y-106037142D01*
X140948571Y-106037142D01*
X140948571Y-106237142D01*
X140920000Y-106294285D01*
X140891428Y-106322857D01*
X140834285Y-106351428D01*
X140777142Y-106351428D01*
X140720000Y-106322857D01*
X140691428Y-106294285D01*
X140662857Y-106237142D01*
X140662857Y-106037142D01*
X140948571Y-106580000D02*
X140948571Y-106951428D01*
X140720000Y-106751428D01*
X140720000Y-106837142D01*
X140691428Y-106894285D01*
X140662857Y-106922857D01*
X140605714Y-106951428D01*
X140462857Y-106951428D01*
X140405714Y-106922857D01*
X140377142Y-106894285D01*
X140348571Y-106837142D01*
X140348571Y-106665714D01*
X140377142Y-106608571D01*
X140405714Y-106580000D01*
X142888571Y-105437142D02*
X143488571Y-105437142D01*
X143488571Y-105665714D01*
X143460000Y-105722857D01*
X143431428Y-105751428D01*
X143374285Y-105780000D01*
X143288571Y-105780000D01*
X143231428Y-105751428D01*
X143202857Y-105722857D01*
X143174285Y-105665714D01*
X143174285Y-105437142D01*
X143202857Y-106237142D02*
X143174285Y-106322857D01*
X143145714Y-106351428D01*
X143088571Y-106380000D01*
X143002857Y-106380000D01*
X142945714Y-106351428D01*
X142917142Y-106322857D01*
X142888571Y-106265714D01*
X142888571Y-106037142D01*
X143488571Y-106037142D01*
X143488571Y-106237142D01*
X143460000Y-106294285D01*
X143431428Y-106322857D01*
X143374285Y-106351428D01*
X143317142Y-106351428D01*
X143260000Y-106322857D01*
X143231428Y-106294285D01*
X143202857Y-106237142D01*
X143202857Y-106037142D01*
X143288571Y-106894285D02*
X142888571Y-106894285D01*
X143517142Y-106751428D02*
X143088571Y-106608571D01*
X143088571Y-106980000D01*
X164543333Y-96006666D02*
X164776666Y-96006666D01*
X164543333Y-96306666D02*
X165276666Y-96306666D01*
X164643333Y-96673333D02*
X165276666Y-96673333D01*
X164643333Y-96440000D02*
X164643333Y-96706666D01*
X164543333Y-96106666D02*
X165276666Y-96106666D01*
X165276666Y-96306666D01*
X164643333Y-96440000D02*
X165276666Y-96440000D01*
X165276666Y-96706666D01*
X164543333Y-95973333D02*
X164543333Y-96373333D01*
X164476666Y-96640000D01*
X164876666Y-95973333D02*
X164710000Y-95973333D01*
X165210000Y-95906666D02*
X164876666Y-95973333D01*
X165476666Y-96006666D02*
X165843333Y-96006666D01*
X165443333Y-96206666D02*
X165843333Y-96206666D01*
X166076666Y-96706666D02*
X166243333Y-96706666D01*
X166043333Y-96406666D02*
X165910000Y-96673333D01*
X165576666Y-96206666D02*
X165476666Y-96573333D01*
X165910000Y-96140000D02*
X166310000Y-96140000D01*
X166310000Y-96440000D01*
X166243333Y-96706666D01*
X166076666Y-95940000D02*
X166076666Y-96206666D01*
X166010000Y-96540000D01*
X165743333Y-96340000D02*
X165843333Y-96540000D01*
X165443333Y-96573333D01*
X166843333Y-96073333D02*
X167276666Y-96073333D01*
X166743333Y-96240000D02*
X167343333Y-96240000D01*
X167110000Y-96573333D02*
X167310000Y-96573333D01*
X166776666Y-96706666D02*
X167343333Y-96706666D01*
X167043333Y-95906666D02*
X167043333Y-96240000D01*
X167143333Y-96240000D02*
X167143333Y-96573333D01*
X167343333Y-96440000D02*
X167310000Y-96573333D01*
X166510000Y-95940000D02*
X166643333Y-96073333D01*
X166476666Y-96273333D02*
X166610000Y-96273333D01*
X166610000Y-96606666D01*
X166476666Y-96673333D01*
X166910000Y-96440000D02*
X166776666Y-96540000D01*
X166876666Y-95940000D02*
X166776666Y-96140000D01*
X166943333Y-96240000D02*
X166876666Y-96473333D01*
X166610000Y-96606666D02*
X166776666Y-96673333D01*
X166976666Y-96706666D01*
X167510000Y-96106666D02*
X167776666Y-96106666D01*
X167876666Y-96406666D02*
X168276666Y-96406666D01*
X167810000Y-96540000D02*
X168376666Y-96540000D01*
X167543333Y-96706666D02*
X167643333Y-96706666D01*
X167676666Y-95906666D02*
X167676666Y-96706666D01*
X168110000Y-96306666D02*
X168110000Y-96706666D01*
X167910000Y-95973333D02*
X168076666Y-96140000D01*
X168343333Y-96273333D01*
X167843333Y-95973333D02*
X168310000Y-95973333D01*
X168143333Y-96140000D01*
X167843333Y-96273333D01*
X167776666Y-96306666D02*
X167510000Y-96373333D01*
X145438571Y-92490000D02*
X146038571Y-92490000D01*
X146038571Y-92718571D01*
X146010000Y-92775714D01*
X145981428Y-92804285D01*
X145924285Y-92832857D01*
X145838571Y-92832857D01*
X145781428Y-92804285D01*
X145752857Y-92775714D01*
X145724285Y-92718571D01*
X145724285Y-92490000D01*
X145610000Y-93061428D02*
X145610000Y-93347142D01*
X145438571Y-93004285D02*
X146038571Y-93204285D01*
X145438571Y-93404285D01*
X145781428Y-93690000D02*
X145810000Y-93632857D01*
X145838571Y-93604285D01*
X145895714Y-93575714D01*
X145924285Y-93575714D01*
X145981428Y-93604285D01*
X146010000Y-93632857D01*
X146038571Y-93690000D01*
X146038571Y-93804285D01*
X146010000Y-93861428D01*
X145981428Y-93890000D01*
X145924285Y-93918571D01*
X145895714Y-93918571D01*
X145838571Y-93890000D01*
X145810000Y-93861428D01*
X145781428Y-93804285D01*
X145781428Y-93690000D01*
X145752857Y-93632857D01*
X145724285Y-93604285D01*
X145667142Y-93575714D01*
X145552857Y-93575714D01*
X145495714Y-93604285D01*
X145467142Y-93632857D01*
X145438571Y-93690000D01*
X145438571Y-93804285D01*
X145467142Y-93861428D01*
X145495714Y-93890000D01*
X145552857Y-93918571D01*
X145667142Y-93918571D01*
X145724285Y-93890000D01*
X145752857Y-93861428D01*
X145781428Y-93804285D01*
X145428571Y-105437142D02*
X146028571Y-105437142D01*
X146028571Y-105665714D01*
X146000000Y-105722857D01*
X145971428Y-105751428D01*
X145914285Y-105780000D01*
X145828571Y-105780000D01*
X145771428Y-105751428D01*
X145742857Y-105722857D01*
X145714285Y-105665714D01*
X145714285Y-105437142D01*
X145742857Y-106237142D02*
X145714285Y-106322857D01*
X145685714Y-106351428D01*
X145628571Y-106380000D01*
X145542857Y-106380000D01*
X145485714Y-106351428D01*
X145457142Y-106322857D01*
X145428571Y-106265714D01*
X145428571Y-106037142D01*
X146028571Y-106037142D01*
X146028571Y-106237142D01*
X146000000Y-106294285D01*
X145971428Y-106322857D01*
X145914285Y-106351428D01*
X145857142Y-106351428D01*
X145800000Y-106322857D01*
X145771428Y-106294285D01*
X145742857Y-106237142D01*
X145742857Y-106037142D01*
X146028571Y-106922857D02*
X146028571Y-106637142D01*
X145742857Y-106608571D01*
X145771428Y-106637142D01*
X145800000Y-106694285D01*
X145800000Y-106837142D01*
X145771428Y-106894285D01*
X145742857Y-106922857D01*
X145685714Y-106951428D01*
X145542857Y-106951428D01*
X145485714Y-106922857D01*
X145457142Y-106894285D01*
X145428571Y-106837142D01*
X145428571Y-106694285D01*
X145457142Y-106637142D01*
X145485714Y-106608571D01*
X132040000Y-98416666D02*
X132040000Y-97716666D01*
X132306666Y-97716666D01*
X132373333Y-97750000D01*
X132406666Y-97783333D01*
X132440000Y-97850000D01*
X132440000Y-97950000D01*
X132406666Y-98016666D01*
X132373333Y-98050000D01*
X132306666Y-98083333D01*
X132040000Y-98083333D01*
X132706666Y-98216666D02*
X133040000Y-98216666D01*
X132640000Y-98416666D02*
X132873333Y-97716666D01*
X133106666Y-98416666D01*
X133706666Y-98416666D02*
X133306666Y-98416666D01*
X133506666Y-98416666D02*
X133506666Y-97716666D01*
X133440000Y-97816666D01*
X133373333Y-97883333D01*
X133306666Y-97916666D01*
X134306666Y-97950000D02*
X134306666Y-98416666D01*
X134140000Y-97683333D02*
X133973333Y-98183333D01*
X134406666Y-98183333D01*
X163800000Y-105802857D02*
X163828571Y-105745714D01*
X163828571Y-105660000D01*
X163800000Y-105574285D01*
X163742857Y-105517142D01*
X163685714Y-105488571D01*
X163571428Y-105460000D01*
X163485714Y-105460000D01*
X163371428Y-105488571D01*
X163314285Y-105517142D01*
X163257142Y-105574285D01*
X163228571Y-105660000D01*
X163228571Y-105717142D01*
X163257142Y-105802857D01*
X163285714Y-105831428D01*
X163485714Y-105831428D01*
X163485714Y-105717142D01*
X163228571Y-106088571D02*
X163828571Y-106088571D01*
X163228571Y-106431428D01*
X163828571Y-106431428D01*
X163228571Y-106717142D02*
X163828571Y-106717142D01*
X163828571Y-106860000D01*
X163800000Y-106945714D01*
X163742857Y-107002857D01*
X163685714Y-107031428D01*
X163571428Y-107060000D01*
X163485714Y-107060000D01*
X163371428Y-107031428D01*
X163314285Y-107002857D01*
X163257142Y-106945714D01*
X163228571Y-106860000D01*
X163228571Y-106717142D01*
X140358571Y-92585285D02*
X140958571Y-92585285D01*
X140958571Y-92813857D01*
X140930000Y-92871000D01*
X140901428Y-92899571D01*
X140844285Y-92928142D01*
X140758571Y-92928142D01*
X140701428Y-92899571D01*
X140672857Y-92871000D01*
X140644285Y-92813857D01*
X140644285Y-92585285D01*
X140530000Y-93156714D02*
X140530000Y-93442428D01*
X140358571Y-93099571D02*
X140958571Y-93299571D01*
X140358571Y-93499571D01*
X140358571Y-94013857D02*
X140358571Y-93671000D01*
X140358571Y-93842428D02*
X140958571Y-93842428D01*
X140872857Y-93785285D01*
X140815714Y-93728142D01*
X140787142Y-93671000D01*
X140958571Y-94385285D02*
X140958571Y-94442428D01*
X140930000Y-94499571D01*
X140901428Y-94528142D01*
X140844285Y-94556714D01*
X140730000Y-94585285D01*
X140587142Y-94585285D01*
X140472857Y-94556714D01*
X140415714Y-94528142D01*
X140387142Y-94499571D01*
X140358571Y-94442428D01*
X140358571Y-94385285D01*
X140387142Y-94328142D01*
X140415714Y-94299571D01*
X140472857Y-94271000D01*
X140587142Y-94242428D01*
X140730000Y-94242428D01*
X140844285Y-94271000D01*
X140901428Y-94299571D01*
X140930000Y-94328142D01*
X140958571Y-94385285D01*
%TO.C,R3*%
X161850000Y-101051428D02*
X161650000Y-100765714D01*
X161507142Y-101051428D02*
X161507142Y-100451428D01*
X161735714Y-100451428D01*
X161792857Y-100480000D01*
X161821428Y-100508571D01*
X161850000Y-100565714D01*
X161850000Y-100651428D01*
X161821428Y-100708571D01*
X161792857Y-100737142D01*
X161735714Y-100765714D01*
X161507142Y-100765714D01*
X162050000Y-100451428D02*
X162421428Y-100451428D01*
X162221428Y-100680000D01*
X162307142Y-100680000D01*
X162364285Y-100708571D01*
X162392857Y-100737142D01*
X162421428Y-100794285D01*
X162421428Y-100937142D01*
X162392857Y-100994285D01*
X162364285Y-101022857D01*
X162307142Y-101051428D01*
X162135714Y-101051428D01*
X162078571Y-101022857D01*
X162050000Y-100994285D01*
%TO.C,C5*%
X157660000Y-98854285D02*
X157631428Y-98882857D01*
X157545714Y-98911428D01*
X157488571Y-98911428D01*
X157402857Y-98882857D01*
X157345714Y-98825714D01*
X157317142Y-98768571D01*
X157288571Y-98654285D01*
X157288571Y-98568571D01*
X157317142Y-98454285D01*
X157345714Y-98397142D01*
X157402857Y-98340000D01*
X157488571Y-98311428D01*
X157545714Y-98311428D01*
X157631428Y-98340000D01*
X157660000Y-98368571D01*
X158202857Y-98311428D02*
X157917142Y-98311428D01*
X157888571Y-98597142D01*
X157917142Y-98568571D01*
X157974285Y-98540000D01*
X158117142Y-98540000D01*
X158174285Y-98568571D01*
X158202857Y-98597142D01*
X158231428Y-98654285D01*
X158231428Y-98797142D01*
X158202857Y-98854285D01*
X158174285Y-98882857D01*
X158117142Y-98911428D01*
X157974285Y-98911428D01*
X157917142Y-98882857D01*
X157888571Y-98854285D01*
%TO.C,F1*%
X173087142Y-106590000D02*
X173087142Y-106790000D01*
X173401428Y-106790000D02*
X172801428Y-106790000D01*
X172801428Y-106504285D01*
X173401428Y-105961428D02*
X173401428Y-106304285D01*
X173401428Y-106132857D02*
X172801428Y-106132857D01*
X172887142Y-106190000D01*
X172944285Y-106247142D01*
X172972857Y-106304285D01*
%TO.C,C4*%
X142127147Y-95332891D02*
X142098575Y-95361463D01*
X142012861Y-95390034D01*
X141955718Y-95390034D01*
X141870004Y-95361463D01*
X141812861Y-95304320D01*
X141784289Y-95247177D01*
X141755718Y-95132891D01*
X141755718Y-95047177D01*
X141784289Y-94932891D01*
X141812861Y-94875748D01*
X141870004Y-94818606D01*
X141955718Y-94790034D01*
X142012861Y-94790034D01*
X142098575Y-94818606D01*
X142127147Y-94847177D01*
X142641432Y-94990034D02*
X142641432Y-95390034D01*
X142498575Y-94761463D02*
X142355718Y-95190034D01*
X142727147Y-95190034D01*
%TO.C,U3*%
X145998575Y-96990748D02*
X146484289Y-96990748D01*
X146541432Y-96962177D01*
X146570004Y-96933606D01*
X146598575Y-96876463D01*
X146598575Y-96762177D01*
X146570004Y-96705034D01*
X146541432Y-96676463D01*
X146484289Y-96647891D01*
X145998575Y-96647891D01*
X145998575Y-96419320D02*
X145998575Y-96047891D01*
X146227147Y-96247891D01*
X146227147Y-96162177D01*
X146255718Y-96105034D01*
X146284289Y-96076463D01*
X146341432Y-96047891D01*
X146484289Y-96047891D01*
X146541432Y-96076463D01*
X146570004Y-96105034D01*
X146598575Y-96162177D01*
X146598575Y-96333606D01*
X146570004Y-96390748D01*
X146541432Y-96419320D01*
%TO.C,R1*%
X173381428Y-108710000D02*
X173095714Y-108910000D01*
X173381428Y-109052857D02*
X172781428Y-109052857D01*
X172781428Y-108824285D01*
X172810000Y-108767142D01*
X172838571Y-108738571D01*
X172895714Y-108710000D01*
X172981428Y-108710000D01*
X173038571Y-108738571D01*
X173067142Y-108767142D01*
X173095714Y-108824285D01*
X173095714Y-109052857D01*
X173381428Y-108138571D02*
X173381428Y-108481428D01*
X173381428Y-108310000D02*
X172781428Y-108310000D01*
X172867142Y-108367142D01*
X172924285Y-108424285D01*
X172952857Y-108481428D01*
%TO.C,C8*%
X150680000Y-99504285D02*
X150651428Y-99532857D01*
X150565714Y-99561428D01*
X150508571Y-99561428D01*
X150422857Y-99532857D01*
X150365714Y-99475714D01*
X150337142Y-99418571D01*
X150308571Y-99304285D01*
X150308571Y-99218571D01*
X150337142Y-99104285D01*
X150365714Y-99047142D01*
X150422857Y-98990000D01*
X150508571Y-98961428D01*
X150565714Y-98961428D01*
X150651428Y-98990000D01*
X150680000Y-99018571D01*
X151022857Y-99218571D02*
X150965714Y-99190000D01*
X150937142Y-99161428D01*
X150908571Y-99104285D01*
X150908571Y-99075714D01*
X150937142Y-99018571D01*
X150965714Y-98990000D01*
X151022857Y-98961428D01*
X151137142Y-98961428D01*
X151194285Y-98990000D01*
X151222857Y-99018571D01*
X151251428Y-99075714D01*
X151251428Y-99104285D01*
X151222857Y-99161428D01*
X151194285Y-99190000D01*
X151137142Y-99218571D01*
X151022857Y-99218571D01*
X150965714Y-99247142D01*
X150937142Y-99275714D01*
X150908571Y-99332857D01*
X150908571Y-99447142D01*
X150937142Y-99504285D01*
X150965714Y-99532857D01*
X151022857Y-99561428D01*
X151137142Y-99561428D01*
X151194285Y-99532857D01*
X151222857Y-99504285D01*
X151251428Y-99447142D01*
X151251428Y-99332857D01*
X151222857Y-99275714D01*
X151194285Y-99247142D01*
X151137142Y-99218571D01*
%TO.C,C7*%
X142137147Y-104632891D02*
X142108575Y-104661463D01*
X142022861Y-104690034D01*
X141965718Y-104690034D01*
X141880004Y-104661463D01*
X141822861Y-104604320D01*
X141794289Y-104547177D01*
X141765718Y-104432891D01*
X141765718Y-104347177D01*
X141794289Y-104232891D01*
X141822861Y-104175748D01*
X141880004Y-104118606D01*
X141965718Y-104090034D01*
X142022861Y-104090034D01*
X142108575Y-104118606D01*
X142137147Y-104147177D01*
X142337147Y-104090034D02*
X142737147Y-104090034D01*
X142480004Y-104690034D01*
%TO.C,USB1*%
X172781428Y-100662142D02*
X173267142Y-100662142D01*
X173324285Y-100633571D01*
X173352857Y-100605000D01*
X173381428Y-100547857D01*
X173381428Y-100433571D01*
X173352857Y-100376428D01*
X173324285Y-100347857D01*
X173267142Y-100319285D01*
X172781428Y-100319285D01*
X173352857Y-100062142D02*
X173381428Y-99976428D01*
X173381428Y-99833571D01*
X173352857Y-99776428D01*
X173324285Y-99747857D01*
X173267142Y-99719285D01*
X173210000Y-99719285D01*
X173152857Y-99747857D01*
X173124285Y-99776428D01*
X173095714Y-99833571D01*
X173067142Y-99947857D01*
X173038571Y-100005000D01*
X173010000Y-100033571D01*
X172952857Y-100062142D01*
X172895714Y-100062142D01*
X172838571Y-100033571D01*
X172810000Y-100005000D01*
X172781428Y-99947857D01*
X172781428Y-99805000D01*
X172810000Y-99719285D01*
X173067142Y-99262142D02*
X173095714Y-99176428D01*
X173124285Y-99147857D01*
X173181428Y-99119285D01*
X173267142Y-99119285D01*
X173324285Y-99147857D01*
X173352857Y-99176428D01*
X173381428Y-99233571D01*
X173381428Y-99462142D01*
X172781428Y-99462142D01*
X172781428Y-99262142D01*
X172810000Y-99205000D01*
X172838571Y-99176428D01*
X172895714Y-99147857D01*
X172952857Y-99147857D01*
X173010000Y-99176428D01*
X173038571Y-99205000D01*
X173067142Y-99262142D01*
X173067142Y-99462142D01*
X173381428Y-98547857D02*
X173381428Y-98890714D01*
X173381428Y-98719285D02*
X172781428Y-98719285D01*
X172867142Y-98776428D01*
X172924285Y-98833571D01*
X172952857Y-98890714D01*
%TO.C,C9*%
X157650000Y-100994285D02*
X157621428Y-101022857D01*
X157535714Y-101051428D01*
X157478571Y-101051428D01*
X157392857Y-101022857D01*
X157335714Y-100965714D01*
X157307142Y-100908571D01*
X157278571Y-100794285D01*
X157278571Y-100708571D01*
X157307142Y-100594285D01*
X157335714Y-100537142D01*
X157392857Y-100480000D01*
X157478571Y-100451428D01*
X157535714Y-100451428D01*
X157621428Y-100480000D01*
X157650000Y-100508571D01*
X157935714Y-101051428D02*
X158050000Y-101051428D01*
X158107142Y-101022857D01*
X158135714Y-100994285D01*
X158192857Y-100908571D01*
X158221428Y-100794285D01*
X158221428Y-100565714D01*
X158192857Y-100508571D01*
X158164285Y-100480000D01*
X158107142Y-100451428D01*
X157992857Y-100451428D01*
X157935714Y-100480000D01*
X157907142Y-100508571D01*
X157878571Y-100565714D01*
X157878571Y-100708571D01*
X157907142Y-100765714D01*
X157935714Y-100794285D01*
X157992857Y-100822857D01*
X158107142Y-100822857D01*
X158164285Y-100794285D01*
X158192857Y-100765714D01*
X158221428Y-100708571D01*
%TO.C,R2*%
X161850000Y-98971428D02*
X161650000Y-98685714D01*
X161507142Y-98971428D02*
X161507142Y-98371428D01*
X161735714Y-98371428D01*
X161792857Y-98400000D01*
X161821428Y-98428571D01*
X161850000Y-98485714D01*
X161850000Y-98571428D01*
X161821428Y-98628571D01*
X161792857Y-98657142D01*
X161735714Y-98685714D01*
X161507142Y-98685714D01*
X162078571Y-98428571D02*
X162107142Y-98400000D01*
X162164285Y-98371428D01*
X162307142Y-98371428D01*
X162364285Y-98400000D01*
X162392857Y-98428571D01*
X162421428Y-98485714D01*
X162421428Y-98542857D01*
X162392857Y-98628571D01*
X162050000Y-98971428D01*
X162421428Y-98971428D01*
%TO.C,D1*%
X168571428Y-109102857D02*
X167971428Y-109102857D01*
X167971428Y-108960000D01*
X168000000Y-108874285D01*
X168057142Y-108817142D01*
X168114285Y-108788571D01*
X168228571Y-108760000D01*
X168314285Y-108760000D01*
X168428571Y-108788571D01*
X168485714Y-108817142D01*
X168542857Y-108874285D01*
X168571428Y-108960000D01*
X168571428Y-109102857D01*
X168571428Y-108188571D02*
X168571428Y-108531428D01*
X168571428Y-108360000D02*
X167971428Y-108360000D01*
X168057142Y-108417142D01*
X168114285Y-108474285D01*
X168142857Y-108531428D01*
%TO.C,C2*%
X168554285Y-90940000D02*
X168582857Y-90968571D01*
X168611428Y-91054285D01*
X168611428Y-91111428D01*
X168582857Y-91197142D01*
X168525714Y-91254285D01*
X168468571Y-91282857D01*
X168354285Y-91311428D01*
X168268571Y-91311428D01*
X168154285Y-91282857D01*
X168097142Y-91254285D01*
X168040000Y-91197142D01*
X168011428Y-91111428D01*
X168011428Y-91054285D01*
X168040000Y-90968571D01*
X168068571Y-90940000D01*
X168068571Y-90711428D02*
X168040000Y-90682857D01*
X168011428Y-90625714D01*
X168011428Y-90482857D01*
X168040000Y-90425714D01*
X168068571Y-90397142D01*
X168125714Y-90368571D01*
X168182857Y-90368571D01*
X168268571Y-90397142D01*
X168611428Y-90740000D01*
X168611428Y-90368571D01*
%TO.C,C6*%
X150670000Y-100464285D02*
X150641428Y-100492857D01*
X150555714Y-100521428D01*
X150498571Y-100521428D01*
X150412857Y-100492857D01*
X150355714Y-100435714D01*
X150327142Y-100378571D01*
X150298571Y-100264285D01*
X150298571Y-100178571D01*
X150327142Y-100064285D01*
X150355714Y-100007142D01*
X150412857Y-99950000D01*
X150498571Y-99921428D01*
X150555714Y-99921428D01*
X150641428Y-99950000D01*
X150670000Y-99978571D01*
X151184285Y-99921428D02*
X151070000Y-99921428D01*
X151012857Y-99950000D01*
X150984285Y-99978571D01*
X150927142Y-100064285D01*
X150898571Y-100178571D01*
X150898571Y-100407142D01*
X150927142Y-100464285D01*
X150955714Y-100492857D01*
X151012857Y-100521428D01*
X151127142Y-100521428D01*
X151184285Y-100492857D01*
X151212857Y-100464285D01*
X151241428Y-100407142D01*
X151241428Y-100264285D01*
X151212857Y-100207142D01*
X151184285Y-100178571D01*
X151127142Y-100150000D01*
X151012857Y-100150000D01*
X150955714Y-100178571D01*
X150927142Y-100207142D01*
X150898571Y-100264285D01*
%TO.C,C11*%
X153534285Y-102375714D02*
X153562857Y-102404285D01*
X153591428Y-102490000D01*
X153591428Y-102547142D01*
X153562857Y-102632857D01*
X153505714Y-102690000D01*
X153448571Y-102718571D01*
X153334285Y-102747142D01*
X153248571Y-102747142D01*
X153134285Y-102718571D01*
X153077142Y-102690000D01*
X153020000Y-102632857D01*
X152991428Y-102547142D01*
X152991428Y-102490000D01*
X153020000Y-102404285D01*
X153048571Y-102375714D01*
X153591428Y-101804285D02*
X153591428Y-102147142D01*
X153591428Y-101975714D02*
X152991428Y-101975714D01*
X153077142Y-102032857D01*
X153134285Y-102090000D01*
X153162857Y-102147142D01*
X153591428Y-101232857D02*
X153591428Y-101575714D01*
X153591428Y-101404285D02*
X152991428Y-101404285D01*
X153077142Y-101461428D01*
X153134285Y-101518571D01*
X153162857Y-101575714D01*
%TO.C,Y1*%
X147175714Y-104295714D02*
X147461428Y-104295714D01*
X146861428Y-104495714D02*
X147175714Y-104295714D01*
X146861428Y-104095714D01*
X147461428Y-103581428D02*
X147461428Y-103924285D01*
X147461428Y-103752857D02*
X146861428Y-103752857D01*
X146947142Y-103810000D01*
X147004285Y-103867142D01*
X147032857Y-103924285D01*
%TO.C,C10*%
X153524285Y-104245714D02*
X153552857Y-104274285D01*
X153581428Y-104360000D01*
X153581428Y-104417142D01*
X153552857Y-104502857D01*
X153495714Y-104560000D01*
X153438571Y-104588571D01*
X153324285Y-104617142D01*
X153238571Y-104617142D01*
X153124285Y-104588571D01*
X153067142Y-104560000D01*
X153010000Y-104502857D01*
X152981428Y-104417142D01*
X152981428Y-104360000D01*
X153010000Y-104274285D01*
X153038571Y-104245714D01*
X153581428Y-103674285D02*
X153581428Y-104017142D01*
X153581428Y-103845714D02*
X152981428Y-103845714D01*
X153067142Y-103902857D01*
X153124285Y-103960000D01*
X153152857Y-104017142D01*
X152981428Y-103302857D02*
X152981428Y-103245714D01*
X153010000Y-103188571D01*
X153038571Y-103160000D01*
X153095714Y-103131428D01*
X153210000Y-103102857D01*
X153352857Y-103102857D01*
X153467142Y-103131428D01*
X153524285Y-103160000D01*
X153552857Y-103188571D01*
X153581428Y-103245714D01*
X153581428Y-103302857D01*
X153552857Y-103360000D01*
X153524285Y-103388571D01*
X153467142Y-103417142D01*
X153352857Y-103445714D01*
X153210000Y-103445714D01*
X153095714Y-103417142D01*
X153038571Y-103388571D01*
X153010000Y-103360000D01*
X152981428Y-103302857D01*
%TO.C,C1*%
X173524285Y-90960000D02*
X173552857Y-90988571D01*
X173581428Y-91074285D01*
X173581428Y-91131428D01*
X173552857Y-91217142D01*
X173495714Y-91274285D01*
X173438571Y-91302857D01*
X173324285Y-91331428D01*
X173238571Y-91331428D01*
X173124285Y-91302857D01*
X173067142Y-91274285D01*
X173010000Y-91217142D01*
X172981428Y-91131428D01*
X172981428Y-91074285D01*
X173010000Y-90988571D01*
X173038571Y-90960000D01*
X173581428Y-90388571D02*
X173581428Y-90731428D01*
X173581428Y-90560000D02*
X172981428Y-90560000D01*
X173067142Y-90617142D01*
X173124285Y-90674285D01*
X173152857Y-90731428D01*
%TO.C,U1*%
X170529428Y-92554142D02*
X171015142Y-92554142D01*
X171072285Y-92525571D01*
X171100857Y-92497000D01*
X171129428Y-92439857D01*
X171129428Y-92325571D01*
X171100857Y-92268428D01*
X171072285Y-92239857D01*
X171015142Y-92211285D01*
X170529428Y-92211285D01*
X171129428Y-91611285D02*
X171129428Y-91954142D01*
X171129428Y-91782714D02*
X170529428Y-91782714D01*
X170615142Y-91839857D01*
X170672285Y-91897000D01*
X170700857Y-91954142D01*
D13*
%TO.C,R3*%
X163613641Y-100360000D02*
X163306359Y-100360000D01*
X163613641Y-101120000D02*
X163306359Y-101120000D01*
%TO.C,C5*%
X156377836Y-98260000D02*
X156162164Y-98260000D01*
X156377836Y-98980000D02*
X156162164Y-98980000D01*
%TO.C,F1*%
X171002064Y-105460000D02*
X169797936Y-105460000D01*
X171002064Y-107280000D02*
X169797936Y-107280000D01*
%TO.C,C4*%
X143649311Y-95458606D02*
X143864983Y-95458606D01*
X143649311Y-94738606D02*
X143864983Y-94738606D01*
D10*
%TO.C,HOLE1*%
X176060000Y-107360000D02*
G75*
G03*
X176060000Y-107360000I-900000J0D01*
G01*
D14*
%TO.C,U3*%
X140165045Y-99671331D02*
X140434452Y-99401923D01*
X147079842Y-99401923D02*
X147349249Y-99671331D01*
X147349249Y-99671331D02*
X147079842Y-99940739D01*
X140434452Y-99940739D02*
X140165045Y-99671331D01*
X143757147Y-96079229D02*
X144026555Y-96348636D01*
X143487739Y-96348636D02*
X143757147Y-96079229D01*
X143757147Y-103263433D02*
X143487739Y-102994026D01*
X144026555Y-102994026D02*
X143757147Y-103263433D01*
X143884148Y-103443039D02*
G75*
G03*
X143884148Y-103443039I-127001J0D01*
G01*
D13*
%TO.C,R1*%
X171820000Y-108753641D02*
X171820000Y-108446359D01*
X172580000Y-108753641D02*
X172580000Y-108446359D01*
%TO.C,J3*%
X131720000Y-104920000D02*
X130390000Y-104920000D01*
X131720000Y-94640000D02*
X129060000Y-94640000D01*
X131720000Y-103590000D02*
X131720000Y-104920000D01*
X129060000Y-102320000D02*
X129060000Y-94640000D01*
X131720000Y-102320000D02*
X131720000Y-94640000D01*
X131720000Y-102320000D02*
X129060000Y-102320000D01*
%TO.C,C8*%
X149267836Y-98900000D02*
X149052164Y-98900000D01*
X149267836Y-99620000D02*
X149052164Y-99620000D01*
%TO.C,C7*%
X143659311Y-103998606D02*
X143874983Y-103998606D01*
X143659311Y-104718606D02*
X143874983Y-104718606D01*
D14*
%TO.C,USB1*%
X176840000Y-104240000D02*
X175346000Y-104240000D01*
X171545000Y-95300000D02*
X173114000Y-95300000D01*
X170040000Y-103359000D02*
X170040000Y-103151000D01*
X170040000Y-97669000D02*
X170040000Y-97651000D01*
X173114000Y-104240000D02*
X171545000Y-104240000D01*
X170040000Y-96389000D02*
X170040000Y-96181000D01*
X176840000Y-95300000D02*
X176840000Y-104240000D01*
X175346000Y-95300000D02*
X176840000Y-95300000D01*
X170040000Y-101889000D02*
X170040000Y-101871000D01*
X169500000Y-103460000D02*
G75*
G03*
X169500000Y-103460000I-250000J0D01*
G01*
D13*
%TO.C,C9*%
X156152164Y-101110000D02*
X156367836Y-101110000D01*
X156152164Y-100390000D02*
X156367836Y-100390000D01*
D10*
%TO.C,HOLE2*%
X176100000Y-92230000D02*
G75*
G03*
X176100000Y-92230000I-900000J0D01*
G01*
%TO.C,HOLE4*%
X131120000Y-92000000D02*
G75*
G03*
X131120000Y-92000000I-900000J0D01*
G01*
D14*
%TO.C,SW2*%
X156967000Y-101422000D02*
X162967000Y-101422000D01*
X162967000Y-102109000D02*
X162967000Y-101422000D01*
X158951000Y-102310000D02*
X160983000Y-102310000D01*
X160983000Y-102310000D02*
X160983000Y-103834000D01*
X158951000Y-103834000D02*
X158951000Y-102310000D01*
X160983000Y-103834000D02*
X158951000Y-103834000D01*
X162967000Y-104722000D02*
X162967000Y-104071000D01*
X156967000Y-101422000D02*
X156967000Y-102155000D01*
X162967000Y-104722000D02*
X156967000Y-104722000D01*
X156967000Y-104025000D02*
X156967000Y-104722000D01*
D13*
%TO.C,R2*%
X163623641Y-99040000D02*
X163316359Y-99040000D01*
X163623641Y-98280000D02*
X163316359Y-98280000D01*
%TO.C,D1*%
X171045000Y-107885000D02*
X168760000Y-107885000D01*
X168760000Y-107885000D02*
X168760000Y-109355000D01*
X168760000Y-109355000D02*
X171045000Y-109355000D01*
%TO.C,C2*%
X168020000Y-92262164D02*
X168020000Y-92477836D01*
X168740000Y-92262164D02*
X168740000Y-92477836D01*
%TO.C,C6*%
X149267836Y-100600000D02*
X149052164Y-100600000D01*
X149267836Y-99880000D02*
X149052164Y-99880000D01*
%TO.C,C11*%
X152040000Y-101882164D02*
X152040000Y-102097836D01*
X152760000Y-101882164D02*
X152760000Y-102097836D01*
%TO.C,Y1*%
X151670000Y-104760000D02*
X151670000Y-101460000D01*
X151670000Y-101460000D02*
X147670000Y-101460000D01*
D10*
%TO.C,HOLE3*%
X131090000Y-107540000D02*
G75*
G03*
X131090000Y-107540000I-900000J0D01*
G01*
D13*
%TO.C,C10*%
X152750000Y-103977836D02*
X152750000Y-103762164D01*
X152030000Y-103977836D02*
X152030000Y-103762164D01*
%TO.C,C1*%
X173690000Y-92262164D02*
X173690000Y-92477836D01*
X172970000Y-92262164D02*
X172970000Y-92477836D01*
D14*
%TO.C,SW1*%
X158971000Y-95550000D02*
X161003000Y-95550000D01*
X161003000Y-95550000D02*
X161003000Y-97074000D01*
X156987000Y-94662000D02*
X162987000Y-94662000D01*
X162987000Y-95349000D02*
X162987000Y-94662000D01*
X158971000Y-97074000D02*
X158971000Y-95550000D01*
X156987000Y-97265000D02*
X156987000Y-97962000D01*
X161003000Y-97074000D02*
X158971000Y-97074000D01*
X162987000Y-97962000D02*
X156987000Y-97962000D01*
X156987000Y-94662000D02*
X156987000Y-95395000D01*
X162987000Y-97962000D02*
X162987000Y-97311000D01*
%TO.C,U1*%
X169958000Y-90336000D02*
X171758000Y-90336000D01*
X169958000Y-93436000D02*
X171758000Y-93436000D01*
X169958000Y-92286000D02*
X169958000Y-91486000D01*
X172509000Y-93537000D02*
G75*
G03*
X172509000Y-93537000I-127000J0D01*
G01*
%TD*%
%LPC*%
D15*
%TO.C,R3*%
X163970000Y-100740000D03*
X162950000Y-100740000D03*
%TD*%
D16*
%TO.C,C5*%
X156750000Y-98620000D03*
X155790000Y-98620000D03*
%TD*%
D17*
%TO.C,F1*%
X171800000Y-106370000D03*
X169000000Y-106370000D03*
%TD*%
D18*
%TO.C,C4*%
X143277147Y-95098606D03*
X144237147Y-95098606D03*
%TD*%
D19*
%TO.C,HOLE1*%
X175160000Y-107360000D03*
%TD*%
D20*
%TO.C,U3*%
X144315761Y-102704819D03*
X144669315Y-102351266D03*
X145022868Y-101997712D03*
X145376422Y-101644159D03*
X145729975Y-101290606D03*
X146083528Y-100937052D03*
X146437082Y-100583499D03*
X146790635Y-100229945D03*
D21*
X146790635Y-99112717D03*
X146437082Y-98759163D03*
X146083528Y-98405610D03*
X145729975Y-98052056D03*
X145376422Y-97698503D03*
X145022868Y-97344950D03*
X144669315Y-96991396D03*
X144315761Y-96637843D03*
D22*
X143198533Y-96637843D03*
X142844979Y-96991396D03*
X142491426Y-97344950D03*
X142137872Y-97698503D03*
X141784319Y-98052056D03*
X141430766Y-98405610D03*
X141077212Y-98759163D03*
X140723659Y-99112717D03*
D23*
X140723659Y-100229945D03*
X141077212Y-100583499D03*
X141430766Y-100937052D03*
X141784319Y-101290606D03*
X142137872Y-101644159D03*
X142491426Y-101997712D03*
X142844979Y-102351266D03*
X143198533Y-102704819D03*
D24*
X143757147Y-99671331D03*
%TD*%
D25*
%TO.C,R1*%
X172200000Y-109110000D03*
X172200000Y-108090000D03*
%TD*%
D26*
%TO.C,J3*%
X130390000Y-103590000D03*
D27*
X130390000Y-101050000D03*
X130390000Y-98510000D03*
X130390000Y-95970000D03*
%TD*%
D16*
%TO.C,C8*%
X149640000Y-99260000D03*
X148680000Y-99260000D03*
%TD*%
D18*
%TO.C,C7*%
X143287147Y-104358606D03*
X144247147Y-104358606D03*
%TD*%
D28*
%TO.C,USB1*%
X170430000Y-104090000D03*
X170430000Y-95450000D03*
X174230000Y-104090000D03*
X174230000Y-95450000D03*
D29*
X169430000Y-100270000D03*
X169430000Y-98250000D03*
D30*
X169430000Y-97020000D03*
D29*
X169430000Y-99270000D03*
X169430000Y-101290000D03*
D30*
X169430000Y-102520000D03*
%TD*%
D18*
%TO.C,C9*%
X155780000Y-100750000D03*
X156740000Y-100750000D03*
%TD*%
D19*
%TO.C,HOLE2*%
X175200000Y-92230000D03*
%TD*%
%TO.C,HOLE4*%
X130220000Y-92000000D03*
%TD*%
D31*
%TO.C,SW2*%
X163530000Y-103090000D03*
X156130000Y-103090000D03*
%TD*%
D15*
%TO.C,R2*%
X163980000Y-98660000D03*
X162960000Y-98660000D03*
%TD*%
D32*
%TO.C,D1*%
X169457500Y-108620000D03*
X171032500Y-108620000D03*
%TD*%
D33*
%TO.C,C2*%
X168380000Y-91890000D03*
X168380000Y-92850000D03*
%TD*%
D16*
%TO.C,C6*%
X149640000Y-100240000D03*
X148680000Y-100240000D03*
%TD*%
D33*
%TO.C,C11*%
X152400000Y-101510000D03*
X152400000Y-102470000D03*
%TD*%
D34*
%TO.C,Y1*%
X150770000Y-102260000D03*
X148570000Y-102260000D03*
X148570000Y-103960000D03*
X150770000Y-103960000D03*
%TD*%
D19*
%TO.C,HOLE3*%
X130190000Y-107540000D03*
%TD*%
D35*
%TO.C,C10*%
X152390000Y-104350000D03*
X152390000Y-103390000D03*
%TD*%
D33*
%TO.C,C1*%
X173330000Y-91890000D03*
X173330000Y-92850000D03*
%TD*%
D31*
%TO.C,SW1*%
X163550000Y-96330000D03*
X156150000Y-96330000D03*
%TD*%
D36*
%TO.C,U1*%
X172158000Y-92836000D03*
X172158000Y-91886000D03*
X172158000Y-90936000D03*
X169558000Y-90936000D03*
X169558000Y-92836000D03*
%TD*%
D26*
%TO.C,J2*%
X165980000Y-108610000D03*
D27*
X163440000Y-108610000D03*
X160900000Y-108610000D03*
X158360000Y-108610000D03*
X155820000Y-108610000D03*
X153280000Y-108610000D03*
X150740000Y-108610000D03*
X148200000Y-108610000D03*
X145660000Y-108610000D03*
X143120000Y-108610000D03*
X140580000Y-108610000D03*
X138040000Y-108610000D03*
X135500000Y-108610000D03*
X132960000Y-108610000D03*
%TD*%
D26*
%TO.C,J1*%
X166010000Y-90900000D03*
D27*
X163470000Y-90900000D03*
X160930000Y-90900000D03*
X158390000Y-90900000D03*
X155850000Y-90900000D03*
X153310000Y-90900000D03*
X150770000Y-90900000D03*
X148230000Y-90900000D03*
X145690000Y-90900000D03*
X143150000Y-90900000D03*
X140610000Y-90900000D03*
X138070000Y-90900000D03*
X135530000Y-90900000D03*
X132990000Y-90900000D03*
%TD*%
M02*
