%TF.GenerationSoftware,KiCad,Pcbnew,(6.0.8)*%
%TF.CreationDate,2022-10-12T15:52:37+08:00*%
%TF.ProjectId,UINIO-MCU-STM32L051K8,55494e49-4f2d-44d4-9355-2d53544d3332,rev?*%
%TF.SameCoordinates,Original*%
%TF.FileFunction,Legend,Bot*%
%TF.FilePolarity,Positive*%
%FSLAX46Y46*%
G04 Gerber Fmt 4.6, Leading zero omitted, Abs format (unit mm)*
G04 Created by KiCad (PCBNEW (6.0.8)) date 2022-10-12 15:52:37*
%MOMM*%
%LPD*%
G01*
G04 APERTURE LIST*
G04 Aperture macros list*
%AMRoundRect*
0 Rectangle with rounded corners*
0 $1 Rounding radius*
0 $2 $3 $4 $5 $6 $7 $8 $9 X,Y pos of 4 corners*
0 Add a 4 corners polygon primitive as box body*
4,1,4,$2,$3,$4,$5,$6,$7,$8,$9,$2,$3,0*
0 Add four circle primitives for the rounded corners*
1,1,$1+$1,$2,$3*
1,1,$1+$1,$4,$5*
1,1,$1+$1,$6,$7*
1,1,$1+$1,$8,$9*
0 Add four rect primitives between the rounded corners*
20,1,$1+$1,$2,$3,$4,$5,0*
20,1,$1+$1,$4,$5,$6,$7,0*
20,1,$1+$1,$6,$7,$8,$9,0*
20,1,$1+$1,$8,$9,$2,$3,0*%
G04 Aperture macros list end*
%ADD10C,0.100000*%
%ADD11C,0.150000*%
%ADD12C,0.300000*%
%ADD13C,0.120000*%
%ADD14C,0.152000*%
%ADD15C,1.200000*%
%ADD16R,1.700000X1.700000*%
%ADD17O,1.700000X1.700000*%
%ADD18O,1.800000X1.000000*%
%ADD19O,0.630000X2.250000*%
%ADD20RoundRect,0.140000X-0.170000X0.140000X-0.170000X-0.140000X0.170000X-0.140000X0.170000X0.140000X0*%
G04 APERTURE END LIST*
D10*
X155311428Y-92577142D02*
X154711428Y-92577142D01*
X154711428Y-92805714D01*
X154740000Y-92862857D01*
X154768571Y-92891428D01*
X154825714Y-92920000D01*
X154911428Y-92920000D01*
X154968571Y-92891428D01*
X154997142Y-92862857D01*
X155025714Y-92805714D01*
X155025714Y-92577142D01*
X154997142Y-93377142D02*
X155025714Y-93462857D01*
X155054285Y-93491428D01*
X155111428Y-93520000D01*
X155197142Y-93520000D01*
X155254285Y-93491428D01*
X155282857Y-93462857D01*
X155311428Y-93405714D01*
X155311428Y-93177142D01*
X154711428Y-93177142D01*
X154711428Y-93377142D01*
X154740000Y-93434285D01*
X154768571Y-93462857D01*
X154825714Y-93491428D01*
X154882857Y-93491428D01*
X154940000Y-93462857D01*
X154968571Y-93434285D01*
X154997142Y-93377142D01*
X154997142Y-93177142D01*
X154711428Y-93720000D02*
X154711428Y-94120000D01*
X155311428Y-93862857D01*
X173770000Y-101776666D02*
X173770000Y-101076666D01*
X173503333Y-101076666D01*
X173436666Y-101110000D01*
X173403333Y-101143333D01*
X173370000Y-101210000D01*
X173370000Y-101310000D01*
X173403333Y-101376666D01*
X173436666Y-101410000D01*
X173503333Y-101443333D01*
X173770000Y-101443333D01*
X173103333Y-101576666D02*
X172770000Y-101576666D01*
X173170000Y-101776666D02*
X172936666Y-101076666D01*
X172703333Y-101776666D01*
X172103333Y-101776666D02*
X172503333Y-101776666D01*
X172303333Y-101776666D02*
X172303333Y-101076666D01*
X172370000Y-101176666D01*
X172436666Y-101243333D01*
X172503333Y-101276666D01*
X171503333Y-101310000D02*
X171503333Y-101776666D01*
X171670000Y-101043333D02*
X171836666Y-101543333D01*
X171403333Y-101543333D01*
X162931428Y-92577142D02*
X162331428Y-92577142D01*
X162331428Y-92805714D01*
X162360000Y-92862857D01*
X162388571Y-92891428D01*
X162445714Y-92920000D01*
X162531428Y-92920000D01*
X162588571Y-92891428D01*
X162617142Y-92862857D01*
X162645714Y-92805714D01*
X162645714Y-92577142D01*
X162617142Y-93377142D02*
X162645714Y-93462857D01*
X162674285Y-93491428D01*
X162731428Y-93520000D01*
X162817142Y-93520000D01*
X162874285Y-93491428D01*
X162902857Y-93462857D01*
X162931428Y-93405714D01*
X162931428Y-93177142D01*
X162331428Y-93177142D01*
X162331428Y-93377142D01*
X162360000Y-93434285D01*
X162388571Y-93462857D01*
X162445714Y-93491428D01*
X162502857Y-93491428D01*
X162560000Y-93462857D01*
X162588571Y-93434285D01*
X162617142Y-93377142D01*
X162617142Y-93177142D01*
X162531428Y-94034285D02*
X162931428Y-94034285D01*
X162302857Y-93891428D02*
X162731428Y-93748571D01*
X162731428Y-94120000D01*
X173091428Y-92577142D02*
X172491428Y-92577142D01*
X172491428Y-92805714D01*
X172520000Y-92862857D01*
X172548571Y-92891428D01*
X172605714Y-92920000D01*
X172691428Y-92920000D01*
X172748571Y-92891428D01*
X172777142Y-92862857D01*
X172805714Y-92805714D01*
X172805714Y-92577142D01*
X172777142Y-93377142D02*
X172805714Y-93462857D01*
X172834285Y-93491428D01*
X172891428Y-93520000D01*
X172977142Y-93520000D01*
X173034285Y-93491428D01*
X173062857Y-93462857D01*
X173091428Y-93405714D01*
X173091428Y-93177142D01*
X172491428Y-93177142D01*
X172491428Y-93377142D01*
X172520000Y-93434285D01*
X172548571Y-93462857D01*
X172605714Y-93491428D01*
X172662857Y-93491428D01*
X172720000Y-93462857D01*
X172748571Y-93434285D01*
X172777142Y-93377142D01*
X172777142Y-93177142D01*
X172491428Y-93891428D02*
X172491428Y-93948571D01*
X172520000Y-94005714D01*
X172548571Y-94034285D01*
X172605714Y-94062857D01*
X172720000Y-94091428D01*
X172862857Y-94091428D01*
X172977142Y-94062857D01*
X173034285Y-94034285D01*
X173062857Y-94005714D01*
X173091428Y-93948571D01*
X173091428Y-93891428D01*
X173062857Y-93834285D01*
X173034285Y-93805714D01*
X172977142Y-93777142D01*
X172862857Y-93748571D01*
X172720000Y-93748571D01*
X172605714Y-93777142D01*
X172548571Y-93805714D01*
X172520000Y-93834285D01*
X172491428Y-93891428D01*
X168001428Y-104904285D02*
X167401428Y-104904285D01*
X167401428Y-105132857D01*
X167430000Y-105190000D01*
X167458571Y-105218571D01*
X167515714Y-105247142D01*
X167601428Y-105247142D01*
X167658571Y-105218571D01*
X167687142Y-105190000D01*
X167715714Y-105132857D01*
X167715714Y-104904285D01*
X167830000Y-105475714D02*
X167830000Y-105761428D01*
X168001428Y-105418571D02*
X167401428Y-105618571D01*
X168001428Y-105818571D01*
X168001428Y-106332857D02*
X168001428Y-105990000D01*
X168001428Y-106161428D02*
X167401428Y-106161428D01*
X167487142Y-106104285D01*
X167544285Y-106047142D01*
X167572857Y-105990000D01*
X168001428Y-106904285D02*
X168001428Y-106561428D01*
X168001428Y-106732857D02*
X167401428Y-106732857D01*
X167487142Y-106675714D01*
X167544285Y-106618571D01*
X167572857Y-106561428D01*
X165471428Y-92577142D02*
X164871428Y-92577142D01*
X164871428Y-92805714D01*
X164900000Y-92862857D01*
X164928571Y-92891428D01*
X164985714Y-92920000D01*
X165071428Y-92920000D01*
X165128571Y-92891428D01*
X165157142Y-92862857D01*
X165185714Y-92805714D01*
X165185714Y-92577142D01*
X165157142Y-93377142D02*
X165185714Y-93462857D01*
X165214285Y-93491428D01*
X165271428Y-93520000D01*
X165357142Y-93520000D01*
X165414285Y-93491428D01*
X165442857Y-93462857D01*
X165471428Y-93405714D01*
X165471428Y-93177142D01*
X164871428Y-93177142D01*
X164871428Y-93377142D01*
X164900000Y-93434285D01*
X164928571Y-93462857D01*
X164985714Y-93491428D01*
X165042857Y-93491428D01*
X165100000Y-93462857D01*
X165128571Y-93434285D01*
X165157142Y-93377142D01*
X165157142Y-93177142D01*
X164871428Y-93720000D02*
X164871428Y-94091428D01*
X165100000Y-93891428D01*
X165100000Y-93977142D01*
X165128571Y-94034285D01*
X165157142Y-94062857D01*
X165214285Y-94091428D01*
X165357142Y-94091428D01*
X165414285Y-94062857D01*
X165442857Y-94034285D01*
X165471428Y-93977142D01*
X165471428Y-93805714D01*
X165442857Y-93748571D01*
X165414285Y-93720000D01*
X150191428Y-92413285D02*
X149591428Y-92413285D01*
X150191428Y-92756142D01*
X149591428Y-92756142D01*
X150191428Y-93384714D02*
X149905714Y-93184714D01*
X150191428Y-93041857D02*
X149591428Y-93041857D01*
X149591428Y-93270428D01*
X149620000Y-93327571D01*
X149648571Y-93356142D01*
X149705714Y-93384714D01*
X149791428Y-93384714D01*
X149848571Y-93356142D01*
X149877142Y-93327571D01*
X149905714Y-93270428D01*
X149905714Y-93041857D01*
X150162857Y-93613285D02*
X150191428Y-93699000D01*
X150191428Y-93841857D01*
X150162857Y-93899000D01*
X150134285Y-93927571D01*
X150077142Y-93956142D01*
X150020000Y-93956142D01*
X149962857Y-93927571D01*
X149934285Y-93899000D01*
X149905714Y-93841857D01*
X149877142Y-93727571D01*
X149848571Y-93670428D01*
X149820000Y-93641857D01*
X149762857Y-93613285D01*
X149705714Y-93613285D01*
X149648571Y-93641857D01*
X149620000Y-93670428D01*
X149591428Y-93727571D01*
X149591428Y-93870428D01*
X149620000Y-93956142D01*
X149591428Y-94127571D02*
X149591428Y-94470428D01*
X150191428Y-94299000D02*
X149591428Y-94299000D01*
X157851428Y-92577142D02*
X157251428Y-92577142D01*
X157251428Y-92805714D01*
X157280000Y-92862857D01*
X157308571Y-92891428D01*
X157365714Y-92920000D01*
X157451428Y-92920000D01*
X157508571Y-92891428D01*
X157537142Y-92862857D01*
X157565714Y-92805714D01*
X157565714Y-92577142D01*
X157537142Y-93377142D02*
X157565714Y-93462857D01*
X157594285Y-93491428D01*
X157651428Y-93520000D01*
X157737142Y-93520000D01*
X157794285Y-93491428D01*
X157822857Y-93462857D01*
X157851428Y-93405714D01*
X157851428Y-93177142D01*
X157251428Y-93177142D01*
X157251428Y-93377142D01*
X157280000Y-93434285D01*
X157308571Y-93462857D01*
X157365714Y-93491428D01*
X157422857Y-93491428D01*
X157480000Y-93462857D01*
X157508571Y-93434285D01*
X157537142Y-93377142D01*
X157537142Y-93177142D01*
X157251428Y-94034285D02*
X157251428Y-93920000D01*
X157280000Y-93862857D01*
X157308571Y-93834285D01*
X157394285Y-93777142D01*
X157508571Y-93748571D01*
X157737142Y-93748571D01*
X157794285Y-93777142D01*
X157822857Y-93805714D01*
X157851428Y-93862857D01*
X157851428Y-93977142D01*
X157822857Y-94034285D01*
X157794285Y-94062857D01*
X157737142Y-94091428D01*
X157594285Y-94091428D01*
X157537142Y-94062857D01*
X157508571Y-94034285D01*
X157480000Y-93977142D01*
X157480000Y-93862857D01*
X157508571Y-93805714D01*
X157537142Y-93777142D01*
X157594285Y-93748571D01*
X170541428Y-104884285D02*
X169941428Y-104884285D01*
X169941428Y-105112857D01*
X169970000Y-105170000D01*
X169998571Y-105198571D01*
X170055714Y-105227142D01*
X170141428Y-105227142D01*
X170198571Y-105198571D01*
X170227142Y-105170000D01*
X170255714Y-105112857D01*
X170255714Y-104884285D01*
X170370000Y-105455714D02*
X170370000Y-105741428D01*
X170541428Y-105398571D02*
X169941428Y-105598571D01*
X170541428Y-105798571D01*
X170541428Y-106312857D02*
X170541428Y-105970000D01*
X170541428Y-106141428D02*
X169941428Y-106141428D01*
X170027142Y-106084285D01*
X170084285Y-106027142D01*
X170112857Y-105970000D01*
X169998571Y-106541428D02*
X169970000Y-106570000D01*
X169941428Y-106627142D01*
X169941428Y-106770000D01*
X169970000Y-106827142D01*
X169998571Y-106855714D01*
X170055714Y-106884285D01*
X170112857Y-106884285D01*
X170198571Y-106855714D01*
X170541428Y-106512857D01*
X170541428Y-106884285D01*
X173071428Y-104894285D02*
X172471428Y-104894285D01*
X172471428Y-105122857D01*
X172500000Y-105180000D01*
X172528571Y-105208571D01*
X172585714Y-105237142D01*
X172671428Y-105237142D01*
X172728571Y-105208571D01*
X172757142Y-105180000D01*
X172785714Y-105122857D01*
X172785714Y-104894285D01*
X172900000Y-105465714D02*
X172900000Y-105751428D01*
X173071428Y-105408571D02*
X172471428Y-105608571D01*
X173071428Y-105808571D01*
X173071428Y-106322857D02*
X173071428Y-105980000D01*
X173071428Y-106151428D02*
X172471428Y-106151428D01*
X172557142Y-106094285D01*
X172614285Y-106037142D01*
X172642857Y-105980000D01*
X172471428Y-106865714D02*
X172471428Y-106580000D01*
X172757142Y-106551428D01*
X172728571Y-106580000D01*
X172700000Y-106637142D01*
X172700000Y-106780000D01*
X172728571Y-106837142D01*
X172757142Y-106865714D01*
X172814285Y-106894285D01*
X172957142Y-106894285D01*
X173014285Y-106865714D01*
X173042857Y-106837142D01*
X173071428Y-106780000D01*
X173071428Y-106637142D01*
X173042857Y-106580000D01*
X173014285Y-106551428D01*
X152771428Y-92577142D02*
X152171428Y-92577142D01*
X152171428Y-92805714D01*
X152200000Y-92862857D01*
X152228571Y-92891428D01*
X152285714Y-92920000D01*
X152371428Y-92920000D01*
X152428571Y-92891428D01*
X152457142Y-92862857D01*
X152485714Y-92805714D01*
X152485714Y-92577142D01*
X152457142Y-93377142D02*
X152485714Y-93462857D01*
X152514285Y-93491428D01*
X152571428Y-93520000D01*
X152657142Y-93520000D01*
X152714285Y-93491428D01*
X152742857Y-93462857D01*
X152771428Y-93405714D01*
X152771428Y-93177142D01*
X152171428Y-93177142D01*
X152171428Y-93377142D01*
X152200000Y-93434285D01*
X152228571Y-93462857D01*
X152285714Y-93491428D01*
X152342857Y-93491428D01*
X152400000Y-93462857D01*
X152428571Y-93434285D01*
X152457142Y-93377142D01*
X152457142Y-93177142D01*
X152428571Y-93862857D02*
X152400000Y-93805714D01*
X152371428Y-93777142D01*
X152314285Y-93748571D01*
X152285714Y-93748571D01*
X152228571Y-93777142D01*
X152200000Y-93805714D01*
X152171428Y-93862857D01*
X152171428Y-93977142D01*
X152200000Y-94034285D01*
X152228571Y-94062857D01*
X152285714Y-94091428D01*
X152314285Y-94091428D01*
X152371428Y-94062857D01*
X152400000Y-94034285D01*
X152428571Y-93977142D01*
X152428571Y-93862857D01*
X152457142Y-93805714D01*
X152485714Y-93777142D01*
X152542857Y-93748571D01*
X152657142Y-93748571D01*
X152714285Y-93777142D01*
X152742857Y-93805714D01*
X152771428Y-93862857D01*
X152771428Y-93977142D01*
X152742857Y-94034285D01*
X152714285Y-94062857D01*
X152657142Y-94091428D01*
X152542857Y-94091428D01*
X152485714Y-94062857D01*
X152457142Y-94034285D01*
X152428571Y-93977142D01*
X165461428Y-104904285D02*
X164861428Y-104904285D01*
X164861428Y-105132857D01*
X164890000Y-105190000D01*
X164918571Y-105218571D01*
X164975714Y-105247142D01*
X165061428Y-105247142D01*
X165118571Y-105218571D01*
X165147142Y-105190000D01*
X165175714Y-105132857D01*
X165175714Y-104904285D01*
X165290000Y-105475714D02*
X165290000Y-105761428D01*
X165461428Y-105418571D02*
X164861428Y-105618571D01*
X165461428Y-105818571D01*
X165461428Y-106332857D02*
X165461428Y-105990000D01*
X165461428Y-106161428D02*
X164861428Y-106161428D01*
X164947142Y-106104285D01*
X165004285Y-106047142D01*
X165032857Y-105990000D01*
X164861428Y-106704285D02*
X164861428Y-106761428D01*
X164890000Y-106818571D01*
X164918571Y-106847142D01*
X164975714Y-106875714D01*
X165090000Y-106904285D01*
X165232857Y-106904285D01*
X165347142Y-106875714D01*
X165404285Y-106847142D01*
X165432857Y-106818571D01*
X165461428Y-106761428D01*
X165461428Y-106704285D01*
X165432857Y-106647142D01*
X165404285Y-106618571D01*
X165347142Y-106590000D01*
X165232857Y-106561428D01*
X165090000Y-106561428D01*
X164975714Y-106590000D01*
X164918571Y-106618571D01*
X164890000Y-106647142D01*
X164861428Y-106704285D01*
X147681428Y-105580000D02*
X147081428Y-105580000D01*
X147081428Y-105808571D01*
X147110000Y-105865714D01*
X147138571Y-105894285D01*
X147195714Y-105922857D01*
X147281428Y-105922857D01*
X147338571Y-105894285D01*
X147367142Y-105865714D01*
X147395714Y-105808571D01*
X147395714Y-105580000D01*
X147510000Y-106151428D02*
X147510000Y-106437142D01*
X147681428Y-106094285D02*
X147081428Y-106294285D01*
X147681428Y-106494285D01*
X147081428Y-106637142D02*
X147081428Y-107008571D01*
X147310000Y-106808571D01*
X147310000Y-106894285D01*
X147338571Y-106951428D01*
X147367142Y-106980000D01*
X147424285Y-107008571D01*
X147567142Y-107008571D01*
X147624285Y-106980000D01*
X147652857Y-106951428D01*
X147681428Y-106894285D01*
X147681428Y-106722857D01*
X147652857Y-106665714D01*
X147624285Y-106637142D01*
X155301428Y-105580000D02*
X154701428Y-105580000D01*
X154701428Y-105808571D01*
X154730000Y-105865714D01*
X154758571Y-105894285D01*
X154815714Y-105922857D01*
X154901428Y-105922857D01*
X154958571Y-105894285D01*
X154987142Y-105865714D01*
X155015714Y-105808571D01*
X155015714Y-105580000D01*
X155130000Y-106151428D02*
X155130000Y-106437142D01*
X155301428Y-106094285D02*
X154701428Y-106294285D01*
X155301428Y-106494285D01*
X154701428Y-106951428D02*
X154701428Y-106837142D01*
X154730000Y-106780000D01*
X154758571Y-106751428D01*
X154844285Y-106694285D01*
X154958571Y-106665714D01*
X155187142Y-106665714D01*
X155244285Y-106694285D01*
X155272857Y-106722857D01*
X155301428Y-106780000D01*
X155301428Y-106894285D01*
X155272857Y-106951428D01*
X155244285Y-106980000D01*
X155187142Y-107008571D01*
X155044285Y-107008571D01*
X154987142Y-106980000D01*
X154958571Y-106951428D01*
X154930000Y-106894285D01*
X154930000Y-106780000D01*
X154958571Y-106722857D01*
X154987142Y-106694285D01*
X155044285Y-106665714D01*
X161970480Y-98921939D02*
X160875242Y-98921939D01*
X161970480Y-99207653D02*
X160875242Y-99207653D01*
X161399051Y-99540986D02*
X160780004Y-99540986D01*
X161970480Y-98588606D02*
X161970480Y-99302891D01*
X161399051Y-98398129D02*
X161399051Y-99540986D01*
X161970480Y-98588606D02*
X160875242Y-98588606D01*
X160875242Y-99207653D01*
X160732385Y-99302891D02*
X160780004Y-99540986D01*
X160494289Y-99017177D02*
X159256194Y-99017177D01*
X160160956Y-99540986D02*
X159875242Y-99540986D01*
X159875242Y-98779082D02*
X159875242Y-99540986D01*
X160351432Y-98540986D02*
X159399051Y-98540986D01*
X159541908Y-98636225D01*
X159875242Y-98779082D01*
X158541908Y-98636225D02*
X157827623Y-98636225D01*
X159018099Y-98683844D02*
X158637147Y-98683844D01*
X158970480Y-99540986D02*
X158827623Y-99540986D01*
X158780004Y-98398129D02*
X158780004Y-99540986D01*
X158208575Y-98398129D02*
X158208575Y-98921939D01*
X158446670Y-98921939D02*
X158351432Y-99160034D01*
X158113337Y-99398129D01*
X157780004Y-99540986D01*
X158541908Y-98921939D02*
X157875242Y-98921939D01*
X157970480Y-99112415D01*
X158208575Y-99350510D01*
X158637147Y-99540986D01*
X158589527Y-99017177D02*
X159018099Y-99112415D01*
X157494289Y-98731463D02*
X156351432Y-98731463D01*
X156922861Y-98398129D02*
X156922861Y-99540986D01*
X156875242Y-98826701D02*
X156399051Y-99350510D01*
X156970480Y-98731463D02*
X156732385Y-98969558D01*
X157351432Y-99255272D02*
X157541908Y-99350510D01*
X156922861Y-98683844D02*
X157018099Y-98921939D01*
X157399051Y-99302891D01*
X156732385Y-98445748D02*
X156541908Y-98540986D01*
X155684766Y-98588606D02*
X154827623Y-98588606D01*
X156065718Y-98779082D02*
X155684766Y-98779082D01*
X155589527Y-98874320D02*
X154922861Y-98874320D01*
X155589527Y-99064796D02*
X154922861Y-99064796D01*
X155684766Y-99207653D02*
X154827623Y-99207653D01*
X155256194Y-99540986D02*
X155065718Y-99540986D01*
X155875242Y-98398129D02*
X155875242Y-99540986D01*
X155589527Y-98731463D02*
X155589527Y-99064796D01*
X155256194Y-98398129D02*
X155256194Y-99064796D01*
X155065718Y-99064796D02*
X155065718Y-99540986D01*
X155589527Y-98731463D02*
X154922861Y-98731463D01*
X154922861Y-99064796D01*
X155494289Y-99302891D02*
X155351432Y-99445748D01*
X155113337Y-98445748D02*
X154922861Y-98493367D01*
X154303813Y-99493367D02*
X153589527Y-99493367D01*
X154541908Y-98540986D02*
X154541908Y-98683844D01*
X154303813Y-99160034D02*
X154303813Y-99540986D01*
X153970480Y-98398129D02*
X153970480Y-98540986D01*
X154446670Y-99207653D02*
X153589527Y-99207653D01*
X153589527Y-99540986D01*
X154541908Y-98540986D02*
X153399051Y-98540986D01*
X153399051Y-98683844D01*
X154160956Y-98636225D02*
X154351432Y-98826701D01*
X154541908Y-98921939D01*
X154208575Y-98731463D02*
X154065718Y-98921939D01*
X153827623Y-99064796D01*
X153351432Y-99207653D01*
X154208575Y-98731463D02*
X153637147Y-98731463D01*
X153827623Y-98921939D01*
X154160956Y-99112415D01*
X154589527Y-99207653D01*
D11*
X173795238Y-95693809D02*
X173680952Y-95731904D01*
X173490476Y-95731904D01*
X173414285Y-95693809D01*
X173376190Y-95655714D01*
X173338095Y-95579523D01*
X173338095Y-95503333D01*
X173376190Y-95427142D01*
X173414285Y-95389047D01*
X173490476Y-95350952D01*
X173642857Y-95312857D01*
X173719047Y-95274761D01*
X173757142Y-95236666D01*
X173795238Y-95160476D01*
X173795238Y-95084285D01*
X173757142Y-95008095D01*
X173719047Y-94970000D01*
X173642857Y-94931904D01*
X173452380Y-94931904D01*
X173338095Y-94970000D01*
X173071428Y-94931904D02*
X172880952Y-95731904D01*
X172728571Y-95160476D01*
X172576190Y-95731904D01*
X172385714Y-94931904D01*
X172080952Y-95731904D02*
X172080952Y-94931904D01*
X171890476Y-94931904D01*
X171776190Y-94970000D01*
X171700000Y-95046190D01*
X171661904Y-95122380D01*
X171623809Y-95274761D01*
X171623809Y-95389047D01*
X171661904Y-95541428D01*
X171700000Y-95617619D01*
X171776190Y-95693809D01*
X171890476Y-95731904D01*
X172080952Y-95731904D01*
X171280952Y-95731904D02*
X171280952Y-94931904D01*
X170747619Y-94931904D02*
X170595238Y-94931904D01*
X170519047Y-94970000D01*
X170442857Y-95046190D01*
X170404761Y-95198571D01*
X170404761Y-95465238D01*
X170442857Y-95617619D01*
X170519047Y-95693809D01*
X170595238Y-95731904D01*
X170747619Y-95731904D01*
X170823809Y-95693809D01*
X170900000Y-95617619D01*
X170938095Y-95465238D01*
X170938095Y-95198571D01*
X170900000Y-95046190D01*
X170823809Y-94970000D01*
X170747619Y-94931904D01*
D10*
X173830000Y-96836666D02*
X173830000Y-96136666D01*
X173563333Y-96136666D01*
X173496666Y-96170000D01*
X173463333Y-96203333D01*
X173430000Y-96270000D01*
X173430000Y-96370000D01*
X173463333Y-96436666D01*
X173496666Y-96470000D01*
X173563333Y-96503333D01*
X173830000Y-96503333D01*
X173163333Y-96636666D02*
X172830000Y-96636666D01*
X173230000Y-96836666D02*
X172996666Y-96136666D01*
X172763333Y-96836666D01*
X172163333Y-96836666D02*
X172563333Y-96836666D01*
X172363333Y-96836666D02*
X172363333Y-96136666D01*
X172430000Y-96236666D01*
X172496666Y-96303333D01*
X172563333Y-96336666D01*
X171930000Y-96136666D02*
X171496666Y-96136666D01*
X171730000Y-96403333D01*
X171630000Y-96403333D01*
X171563333Y-96436666D01*
X171530000Y-96470000D01*
X171496666Y-96536666D01*
X171496666Y-96703333D01*
X171530000Y-96770000D01*
X171563333Y-96803333D01*
X171630000Y-96836666D01*
X171830000Y-96836666D01*
X171896666Y-96803333D01*
X171930000Y-96770000D01*
X168011428Y-92577142D02*
X167411428Y-92577142D01*
X167411428Y-92805714D01*
X167440000Y-92862857D01*
X167468571Y-92891428D01*
X167525714Y-92920000D01*
X167611428Y-92920000D01*
X167668571Y-92891428D01*
X167697142Y-92862857D01*
X167725714Y-92805714D01*
X167725714Y-92577142D01*
X167697142Y-93377142D02*
X167725714Y-93462857D01*
X167754285Y-93491428D01*
X167811428Y-93520000D01*
X167897142Y-93520000D01*
X167954285Y-93491428D01*
X167982857Y-93462857D01*
X168011428Y-93405714D01*
X168011428Y-93177142D01*
X167411428Y-93177142D01*
X167411428Y-93377142D01*
X167440000Y-93434285D01*
X167468571Y-93462857D01*
X167525714Y-93491428D01*
X167582857Y-93491428D01*
X167640000Y-93462857D01*
X167668571Y-93434285D01*
X167697142Y-93377142D01*
X167697142Y-93177142D01*
X167468571Y-93748571D02*
X167440000Y-93777142D01*
X167411428Y-93834285D01*
X167411428Y-93977142D01*
X167440000Y-94034285D01*
X167468571Y-94062857D01*
X167525714Y-94091428D01*
X167582857Y-94091428D01*
X167668571Y-94062857D01*
X168011428Y-93720000D01*
X168011428Y-94091428D01*
X152807472Y-105555587D02*
X152207472Y-105555587D01*
X152207472Y-105784158D01*
X152236044Y-105841301D01*
X152264615Y-105869872D01*
X152321758Y-105898444D01*
X152407472Y-105898444D01*
X152464615Y-105869872D01*
X152493186Y-105841301D01*
X152521758Y-105784158D01*
X152521758Y-105555587D01*
X152636044Y-106127015D02*
X152636044Y-106412729D01*
X152807472Y-106069872D02*
X152207472Y-106269872D01*
X152807472Y-106469872D01*
X152207472Y-106955587D02*
X152207472Y-106669872D01*
X152493186Y-106641301D01*
X152464615Y-106669872D01*
X152436044Y-106727015D01*
X152436044Y-106869872D01*
X152464615Y-106927015D01*
X152493186Y-106955587D01*
X152550329Y-106984158D01*
X152693186Y-106984158D01*
X152750329Y-106955587D01*
X152778901Y-106927015D01*
X152807472Y-106869872D01*
X152807472Y-106727015D01*
X152778901Y-106669872D01*
X152750329Y-106641301D01*
X162921428Y-105580000D02*
X162321428Y-105580000D01*
X162321428Y-105808571D01*
X162350000Y-105865714D01*
X162378571Y-105894285D01*
X162435714Y-105922857D01*
X162521428Y-105922857D01*
X162578571Y-105894285D01*
X162607142Y-105865714D01*
X162635714Y-105808571D01*
X162635714Y-105580000D01*
X162750000Y-106151428D02*
X162750000Y-106437142D01*
X162921428Y-106094285D02*
X162321428Y-106294285D01*
X162921428Y-106494285D01*
X162921428Y-106722857D02*
X162921428Y-106837142D01*
X162892857Y-106894285D01*
X162864285Y-106922857D01*
X162778571Y-106980000D01*
X162664285Y-107008571D01*
X162435714Y-107008571D01*
X162378571Y-106980000D01*
X162350000Y-106951428D01*
X162321428Y-106894285D01*
X162321428Y-106780000D01*
X162350000Y-106722857D01*
X162378571Y-106694285D01*
X162435714Y-106665714D01*
X162578571Y-106665714D01*
X162635714Y-106694285D01*
X162664285Y-106722857D01*
X162692857Y-106780000D01*
X162692857Y-106894285D01*
X162664285Y-106951428D01*
X162635714Y-106980000D01*
X162578571Y-107008571D01*
X157841428Y-105580000D02*
X157241428Y-105580000D01*
X157241428Y-105808571D01*
X157270000Y-105865714D01*
X157298571Y-105894285D01*
X157355714Y-105922857D01*
X157441428Y-105922857D01*
X157498571Y-105894285D01*
X157527142Y-105865714D01*
X157555714Y-105808571D01*
X157555714Y-105580000D01*
X157670000Y-106151428D02*
X157670000Y-106437142D01*
X157841428Y-106094285D02*
X157241428Y-106294285D01*
X157841428Y-106494285D01*
X157241428Y-106637142D02*
X157241428Y-107037142D01*
X157841428Y-106780000D01*
D11*
X173813333Y-103126666D02*
X173580000Y-103826666D01*
X173346666Y-103126666D01*
X173113333Y-103826666D02*
X173113333Y-103126666D01*
X172946666Y-103126666D01*
X172846666Y-103160000D01*
X172780000Y-103226666D01*
X172746666Y-103293333D01*
X172713333Y-103426666D01*
X172713333Y-103526666D01*
X172746666Y-103660000D01*
X172780000Y-103726666D01*
X172846666Y-103793333D01*
X172946666Y-103826666D01*
X173113333Y-103826666D01*
X172413333Y-103826666D02*
X172413333Y-103126666D01*
X172246666Y-103126666D01*
X172146666Y-103160000D01*
X172080000Y-103226666D01*
X172046666Y-103293333D01*
X172013333Y-103426666D01*
X172013333Y-103526666D01*
X172046666Y-103660000D01*
X172080000Y-103726666D01*
X172146666Y-103793333D01*
X172246666Y-103826666D01*
X172413333Y-103826666D01*
X171880000Y-103893333D02*
X171346666Y-103893333D01*
X171246666Y-103126666D02*
X170813333Y-103126666D01*
X171046666Y-103393333D01*
X170946666Y-103393333D01*
X170880000Y-103426666D01*
X170846666Y-103460000D01*
X170813333Y-103526666D01*
X170813333Y-103693333D01*
X170846666Y-103760000D01*
X170880000Y-103793333D01*
X170946666Y-103826666D01*
X171146666Y-103826666D01*
X171213333Y-103793333D01*
X171246666Y-103760000D01*
X170513333Y-103760000D02*
X170480000Y-103793333D01*
X170513333Y-103826666D01*
X170546666Y-103793333D01*
X170513333Y-103760000D01*
X170513333Y-103826666D01*
X170246666Y-103126666D02*
X169813333Y-103126666D01*
X170046666Y-103393333D01*
X169946666Y-103393333D01*
X169880000Y-103426666D01*
X169846666Y-103460000D01*
X169813333Y-103526666D01*
X169813333Y-103693333D01*
X169846666Y-103760000D01*
X169880000Y-103793333D01*
X169946666Y-103826666D01*
X170146666Y-103826666D01*
X170213333Y-103793333D01*
X170246666Y-103760000D01*
X169613333Y-103126666D02*
X169380000Y-103826666D01*
X169146666Y-103126666D01*
D12*
X161905718Y-100351463D02*
X161905718Y-101322891D01*
X161848575Y-101437177D01*
X161791432Y-101494320D01*
X161677147Y-101551463D01*
X161448575Y-101551463D01*
X161334289Y-101494320D01*
X161277147Y-101437177D01*
X161220004Y-101322891D01*
X161220004Y-100351463D01*
X160648575Y-101551463D02*
X160648575Y-100751463D01*
X160648575Y-100351463D02*
X160705718Y-100408606D01*
X160648575Y-100465748D01*
X160591432Y-100408606D01*
X160648575Y-100351463D01*
X160648575Y-100465748D01*
X160077147Y-100751463D02*
X160077147Y-101551463D01*
X160077147Y-100865748D02*
X160020004Y-100808606D01*
X159905718Y-100751463D01*
X159734289Y-100751463D01*
X159620004Y-100808606D01*
X159562861Y-100922891D01*
X159562861Y-101551463D01*
X158991432Y-101551463D02*
X158991432Y-100351463D01*
X158191432Y-100351463D02*
X157962861Y-100351463D01*
X157848575Y-100408606D01*
X157734289Y-100522891D01*
X157677147Y-100751463D01*
X157677147Y-101151463D01*
X157734289Y-101380034D01*
X157848575Y-101494320D01*
X157962861Y-101551463D01*
X158191432Y-101551463D01*
X158305718Y-101494320D01*
X158420004Y-101380034D01*
X158477147Y-101151463D01*
X158477147Y-100751463D01*
X158420004Y-100522891D01*
X158305718Y-100408606D01*
X158191432Y-100351463D01*
X157162861Y-101437177D02*
X157105718Y-101494320D01*
X157162861Y-101551463D01*
X157220004Y-101494320D01*
X157162861Y-101437177D01*
X157162861Y-101551463D01*
X156077147Y-101494320D02*
X156191432Y-101551463D01*
X156420004Y-101551463D01*
X156534289Y-101494320D01*
X156591432Y-101437177D01*
X156648575Y-101322891D01*
X156648575Y-100980034D01*
X156591432Y-100865748D01*
X156534289Y-100808606D01*
X156420004Y-100751463D01*
X156191432Y-100751463D01*
X156077147Y-100808606D01*
X155391432Y-101551463D02*
X155505718Y-101494320D01*
X155562861Y-101437177D01*
X155620004Y-101322891D01*
X155620004Y-100980034D01*
X155562861Y-100865748D01*
X155505718Y-100808606D01*
X155391432Y-100751463D01*
X155220004Y-100751463D01*
X155105718Y-100808606D01*
X155048575Y-100865748D01*
X154991432Y-100980034D01*
X154991432Y-101322891D01*
X155048575Y-101437177D01*
X155105718Y-101494320D01*
X155220004Y-101551463D01*
X155391432Y-101551463D01*
X154477147Y-101551463D02*
X154477147Y-100751463D01*
X154477147Y-100865748D02*
X154420004Y-100808606D01*
X154305718Y-100751463D01*
X154134289Y-100751463D01*
X154020004Y-100808606D01*
X153962861Y-100922891D01*
X153962861Y-101551463D01*
X153962861Y-100922891D02*
X153905718Y-100808606D01*
X153791432Y-100751463D01*
X153620004Y-100751463D01*
X153505718Y-100808606D01*
X153448575Y-100922891D01*
X153448575Y-101551463D01*
D10*
X145141428Y-105580000D02*
X144541428Y-105580000D01*
X144541428Y-105808571D01*
X144570000Y-105865714D01*
X144598571Y-105894285D01*
X144655714Y-105922857D01*
X144741428Y-105922857D01*
X144798571Y-105894285D01*
X144827142Y-105865714D01*
X144855714Y-105808571D01*
X144855714Y-105580000D01*
X144970000Y-106151428D02*
X144970000Y-106437142D01*
X145141428Y-106094285D02*
X144541428Y-106294285D01*
X145141428Y-106494285D01*
X144598571Y-106665714D02*
X144570000Y-106694285D01*
X144541428Y-106751428D01*
X144541428Y-106894285D01*
X144570000Y-106951428D01*
X144598571Y-106980000D01*
X144655714Y-107008571D01*
X144712857Y-107008571D01*
X144798571Y-106980000D01*
X145141428Y-106637142D01*
X145141428Y-107008571D01*
D11*
X173099523Y-98060000D02*
X173175714Y-98021904D01*
X173290000Y-98021904D01*
X173404285Y-98060000D01*
X173480476Y-98136190D01*
X173518571Y-98212380D01*
X173556666Y-98364761D01*
X173556666Y-98479047D01*
X173518571Y-98631428D01*
X173480476Y-98707619D01*
X173404285Y-98783809D01*
X173290000Y-98821904D01*
X173213809Y-98821904D01*
X173099523Y-98783809D01*
X173061428Y-98745714D01*
X173061428Y-98479047D01*
X173213809Y-98479047D01*
X172718571Y-98821904D02*
X172718571Y-98021904D01*
X172261428Y-98821904D01*
X172261428Y-98021904D01*
X171880476Y-98821904D02*
X171880476Y-98021904D01*
X171690000Y-98021904D01*
X171575714Y-98060000D01*
X171499523Y-98136190D01*
X171461428Y-98212380D01*
X171423333Y-98364761D01*
X171423333Y-98479047D01*
X171461428Y-98631428D01*
X171499523Y-98707619D01*
X171575714Y-98783809D01*
X171690000Y-98821904D01*
X171880476Y-98821904D01*
D10*
X160381428Y-105580000D02*
X159781428Y-105580000D01*
X159781428Y-105808571D01*
X159810000Y-105865714D01*
X159838571Y-105894285D01*
X159895714Y-105922857D01*
X159981428Y-105922857D01*
X160038571Y-105894285D01*
X160067142Y-105865714D01*
X160095714Y-105808571D01*
X160095714Y-105580000D01*
X160210000Y-106151428D02*
X160210000Y-106437142D01*
X160381428Y-106094285D02*
X159781428Y-106294285D01*
X160381428Y-106494285D01*
X160038571Y-106780000D02*
X160010000Y-106722857D01*
X159981428Y-106694285D01*
X159924285Y-106665714D01*
X159895714Y-106665714D01*
X159838571Y-106694285D01*
X159810000Y-106722857D01*
X159781428Y-106780000D01*
X159781428Y-106894285D01*
X159810000Y-106951428D01*
X159838571Y-106980000D01*
X159895714Y-107008571D01*
X159924285Y-107008571D01*
X159981428Y-106980000D01*
X160010000Y-106951428D01*
X160038571Y-106894285D01*
X160038571Y-106780000D01*
X160067142Y-106722857D01*
X160095714Y-106694285D01*
X160152857Y-106665714D01*
X160267142Y-106665714D01*
X160324285Y-106694285D01*
X160352857Y-106722857D01*
X160381428Y-106780000D01*
X160381428Y-106894285D01*
X160352857Y-106951428D01*
X160324285Y-106980000D01*
X160267142Y-107008571D01*
X160152857Y-107008571D01*
X160095714Y-106980000D01*
X160067142Y-106951428D01*
X160038571Y-106894285D01*
D11*
X173779523Y-100693809D02*
X173665238Y-100731904D01*
X173474761Y-100731904D01*
X173398571Y-100693809D01*
X173360476Y-100655714D01*
X173322380Y-100579523D01*
X173322380Y-100503333D01*
X173360476Y-100427142D01*
X173398571Y-100389047D01*
X173474761Y-100350952D01*
X173627142Y-100312857D01*
X173703333Y-100274761D01*
X173741428Y-100236666D01*
X173779523Y-100160476D01*
X173779523Y-100084285D01*
X173741428Y-100008095D01*
X173703333Y-99970000D01*
X173627142Y-99931904D01*
X173436666Y-99931904D01*
X173322380Y-99970000D01*
X173055714Y-99931904D02*
X172865238Y-100731904D01*
X172712857Y-100160476D01*
X172560476Y-100731904D01*
X172370000Y-99931904D01*
X171608095Y-100655714D02*
X171646190Y-100693809D01*
X171760476Y-100731904D01*
X171836666Y-100731904D01*
X171950952Y-100693809D01*
X172027142Y-100617619D01*
X172065238Y-100541428D01*
X172103333Y-100389047D01*
X172103333Y-100274761D01*
X172065238Y-100122380D01*
X172027142Y-100046190D01*
X171950952Y-99970000D01*
X171836666Y-99931904D01*
X171760476Y-99931904D01*
X171646190Y-99970000D01*
X171608095Y-100008095D01*
X170884285Y-100731904D02*
X171265238Y-100731904D01*
X171265238Y-99931904D01*
X170617619Y-100731904D02*
X170617619Y-99931904D01*
X170160476Y-100731904D02*
X170503333Y-100274761D01*
X170160476Y-99931904D02*
X170617619Y-100389047D01*
D10*
X160391428Y-92577142D02*
X159791428Y-92577142D01*
X159791428Y-92805714D01*
X159820000Y-92862857D01*
X159848571Y-92891428D01*
X159905714Y-92920000D01*
X159991428Y-92920000D01*
X160048571Y-92891428D01*
X160077142Y-92862857D01*
X160105714Y-92805714D01*
X160105714Y-92577142D01*
X160077142Y-93377142D02*
X160105714Y-93462857D01*
X160134285Y-93491428D01*
X160191428Y-93520000D01*
X160277142Y-93520000D01*
X160334285Y-93491428D01*
X160362857Y-93462857D01*
X160391428Y-93405714D01*
X160391428Y-93177142D01*
X159791428Y-93177142D01*
X159791428Y-93377142D01*
X159820000Y-93434285D01*
X159848571Y-93462857D01*
X159905714Y-93491428D01*
X159962857Y-93491428D01*
X160020000Y-93462857D01*
X160048571Y-93434285D01*
X160077142Y-93377142D01*
X160077142Y-93177142D01*
X159791428Y-94062857D02*
X159791428Y-93777142D01*
X160077142Y-93748571D01*
X160048571Y-93777142D01*
X160020000Y-93834285D01*
X160020000Y-93977142D01*
X160048571Y-94034285D01*
X160077142Y-94062857D01*
X160134285Y-94091428D01*
X160277142Y-94091428D01*
X160334285Y-94062857D01*
X160362857Y-94034285D01*
X160391428Y-93977142D01*
X160391428Y-93834285D01*
X160362857Y-93777142D01*
X160334285Y-93748571D01*
X149021428Y-95798571D02*
X149621428Y-95941428D01*
X149192857Y-96055714D01*
X149621428Y-96170000D01*
X149021428Y-96312857D01*
X149078571Y-96512857D02*
X149050000Y-96541428D01*
X149021428Y-96598571D01*
X149021428Y-96741428D01*
X149050000Y-96798571D01*
X149078571Y-96827142D01*
X149135714Y-96855714D01*
X149192857Y-96855714D01*
X149278571Y-96827142D01*
X149621428Y-96484285D01*
X149621428Y-96855714D01*
X149021428Y-97398571D02*
X149021428Y-97112857D01*
X149307142Y-97084285D01*
X149278571Y-97112857D01*
X149250000Y-97170000D01*
X149250000Y-97312857D01*
X149278571Y-97370000D01*
X149307142Y-97398571D01*
X149364285Y-97427142D01*
X149507142Y-97427142D01*
X149564285Y-97398571D01*
X149592857Y-97370000D01*
X149621428Y-97312857D01*
X149621428Y-97170000D01*
X149592857Y-97112857D01*
X149564285Y-97084285D01*
X149678571Y-98084285D02*
X149650000Y-98027142D01*
X149592857Y-97970000D01*
X149507142Y-97884285D01*
X149478571Y-97827142D01*
X149478571Y-97770000D01*
X149621428Y-97798571D02*
X149592857Y-97741428D01*
X149535714Y-97684285D01*
X149421428Y-97655714D01*
X149221428Y-97655714D01*
X149107142Y-97684285D01*
X149050000Y-97741428D01*
X149021428Y-97798571D01*
X149021428Y-97912857D01*
X149050000Y-97970000D01*
X149107142Y-98027142D01*
X149221428Y-98055714D01*
X149421428Y-98055714D01*
X149535714Y-98027142D01*
X149592857Y-97970000D01*
X149621428Y-97912857D01*
X149621428Y-97798571D01*
X149392857Y-98312857D02*
X149392857Y-98770000D01*
X149021428Y-98998571D02*
X149621428Y-99398571D01*
X149021428Y-99398571D02*
X149621428Y-98998571D01*
X149021428Y-99570000D02*
X149621428Y-99970000D01*
X149021428Y-99970000D02*
X149621428Y-99570000D01*
X149392857Y-100198571D02*
X149392857Y-100655714D01*
X149021428Y-101112857D02*
X149450000Y-101112857D01*
X149535714Y-101084285D01*
X149592857Y-101027142D01*
X149621428Y-100941428D01*
X149621428Y-100884285D01*
X149021428Y-101312857D02*
X149621428Y-101512857D01*
X149021428Y-101712857D01*
X149592857Y-101884285D02*
X149621428Y-101970000D01*
X149621428Y-102112857D01*
X149592857Y-102170000D01*
X149564285Y-102198571D01*
X149507142Y-102227142D01*
X149450000Y-102227142D01*
X149392857Y-102198571D01*
X149364285Y-102170000D01*
X149335714Y-102112857D01*
X149307142Y-101998571D01*
X149278571Y-101941428D01*
X149250000Y-101912857D01*
X149192857Y-101884285D01*
X149135714Y-101884285D01*
X149078571Y-101912857D01*
X149050000Y-101941428D01*
X149021428Y-101998571D01*
X149021428Y-102141428D01*
X149050000Y-102227142D01*
X149592857Y-102455714D02*
X149621428Y-102541428D01*
X149621428Y-102684285D01*
X149592857Y-102741428D01*
X149564285Y-102770000D01*
X149507142Y-102798571D01*
X149450000Y-102798571D01*
X149392857Y-102770000D01*
X149364285Y-102741428D01*
X149335714Y-102684285D01*
X149307142Y-102570000D01*
X149278571Y-102512857D01*
X149250000Y-102484285D01*
X149192857Y-102455714D01*
X149135714Y-102455714D01*
X149078571Y-102484285D01*
X149050000Y-102512857D01*
X149021428Y-102570000D01*
X149021428Y-102712857D01*
X149050000Y-102798571D01*
X149621428Y-103055714D02*
X149021428Y-103055714D01*
X149678571Y-103741428D02*
X149650000Y-103684285D01*
X149592857Y-103627142D01*
X149507142Y-103541428D01*
X149478571Y-103484285D01*
X149478571Y-103427142D01*
X149621428Y-103455714D02*
X149592857Y-103398571D01*
X149535714Y-103341428D01*
X149421428Y-103312857D01*
X149221428Y-103312857D01*
X149107142Y-103341428D01*
X149050000Y-103398571D01*
X149021428Y-103455714D01*
X149021428Y-103570000D01*
X149050000Y-103627142D01*
X149107142Y-103684285D01*
X149221428Y-103712857D01*
X149421428Y-103712857D01*
X149535714Y-103684285D01*
X149592857Y-103627142D01*
X149621428Y-103570000D01*
X149621428Y-103455714D01*
X142601428Y-105520000D02*
X142001428Y-105520000D01*
X142001428Y-105748571D01*
X142030000Y-105805714D01*
X142058571Y-105834285D01*
X142115714Y-105862857D01*
X142201428Y-105862857D01*
X142258571Y-105834285D01*
X142287142Y-105805714D01*
X142315714Y-105748571D01*
X142315714Y-105520000D01*
X142430000Y-106091428D02*
X142430000Y-106377142D01*
X142601428Y-106034285D02*
X142001428Y-106234285D01*
X142601428Y-106434285D01*
X142601428Y-106948571D02*
X142601428Y-106605714D01*
X142601428Y-106777142D02*
X142001428Y-106777142D01*
X142087142Y-106720000D01*
X142144285Y-106662857D01*
X142172857Y-106605714D01*
X150221428Y-105580000D02*
X149621428Y-105580000D01*
X149621428Y-105808571D01*
X149650000Y-105865714D01*
X149678571Y-105894285D01*
X149735714Y-105922857D01*
X149821428Y-105922857D01*
X149878571Y-105894285D01*
X149907142Y-105865714D01*
X149935714Y-105808571D01*
X149935714Y-105580000D01*
X150050000Y-106151428D02*
X150050000Y-106437142D01*
X150221428Y-106094285D02*
X149621428Y-106294285D01*
X150221428Y-106494285D01*
X149821428Y-106951428D02*
X150221428Y-106951428D01*
X149592857Y-106808571D02*
X150021428Y-106665714D01*
X150021428Y-107037142D01*
X139491428Y-92655714D02*
X139491428Y-92370000D01*
X139777142Y-92341428D01*
X139748571Y-92370000D01*
X139720000Y-92427142D01*
X139720000Y-92570000D01*
X139748571Y-92627142D01*
X139777142Y-92655714D01*
X139834285Y-92684285D01*
X139977142Y-92684285D01*
X140034285Y-92655714D01*
X140062857Y-92627142D01*
X140091428Y-92570000D01*
X140091428Y-92427142D01*
X140062857Y-92370000D01*
X140034285Y-92341428D01*
X139491428Y-92855714D02*
X140091428Y-93055714D01*
X139491428Y-93255714D01*
X140061428Y-105580000D02*
X139461428Y-105580000D01*
X139461428Y-105808571D01*
X139490000Y-105865714D01*
X139518571Y-105894285D01*
X139575714Y-105922857D01*
X139661428Y-105922857D01*
X139718571Y-105894285D01*
X139747142Y-105865714D01*
X139775714Y-105808571D01*
X139775714Y-105580000D01*
X139890000Y-106151428D02*
X139890000Y-106437142D01*
X140061428Y-106094285D02*
X139461428Y-106294285D01*
X140061428Y-106494285D01*
X139461428Y-106808571D02*
X139461428Y-106865714D01*
X139490000Y-106922857D01*
X139518571Y-106951428D01*
X139575714Y-106980000D01*
X139690000Y-107008571D01*
X139832857Y-107008571D01*
X139947142Y-106980000D01*
X140004285Y-106951428D01*
X140032857Y-106922857D01*
X140061428Y-106865714D01*
X140061428Y-106808571D01*
X140032857Y-106751428D01*
X140004285Y-106722857D01*
X139947142Y-106694285D01*
X139832857Y-106665714D01*
X139690000Y-106665714D01*
X139575714Y-106694285D01*
X139518571Y-106722857D01*
X139490000Y-106751428D01*
X139461428Y-106808571D01*
X170551428Y-92577142D02*
X169951428Y-92577142D01*
X169951428Y-92805714D01*
X169980000Y-92862857D01*
X170008571Y-92891428D01*
X170065714Y-92920000D01*
X170151428Y-92920000D01*
X170208571Y-92891428D01*
X170237142Y-92862857D01*
X170265714Y-92805714D01*
X170265714Y-92577142D01*
X170237142Y-93377142D02*
X170265714Y-93462857D01*
X170294285Y-93491428D01*
X170351428Y-93520000D01*
X170437142Y-93520000D01*
X170494285Y-93491428D01*
X170522857Y-93462857D01*
X170551428Y-93405714D01*
X170551428Y-93177142D01*
X169951428Y-93177142D01*
X169951428Y-93377142D01*
X169980000Y-93434285D01*
X170008571Y-93462857D01*
X170065714Y-93491428D01*
X170122857Y-93491428D01*
X170180000Y-93462857D01*
X170208571Y-93434285D01*
X170237142Y-93377142D01*
X170237142Y-93177142D01*
X170551428Y-94091428D02*
X170551428Y-93748571D01*
X170551428Y-93920000D02*
X169951428Y-93920000D01*
X170037142Y-93862857D01*
X170094285Y-93805714D01*
X170122857Y-93748571D01*
X144531428Y-92374285D02*
X144531428Y-92745714D01*
X144760000Y-92545714D01*
X144760000Y-92631428D01*
X144788571Y-92688571D01*
X144817142Y-92717142D01*
X144874285Y-92745714D01*
X145017142Y-92745714D01*
X145074285Y-92717142D01*
X145102857Y-92688571D01*
X145131428Y-92631428D01*
X145131428Y-92460000D01*
X145102857Y-92402857D01*
X145074285Y-92374285D01*
X145074285Y-93002857D02*
X145102857Y-93031428D01*
X145131428Y-93002857D01*
X145102857Y-92974285D01*
X145074285Y-93002857D01*
X145131428Y-93002857D01*
X144531428Y-93231428D02*
X144531428Y-93602857D01*
X144760000Y-93402857D01*
X144760000Y-93488571D01*
X144788571Y-93545714D01*
X144817142Y-93574285D01*
X144874285Y-93602857D01*
X145017142Y-93602857D01*
X145074285Y-93574285D01*
X145102857Y-93545714D01*
X145131428Y-93488571D01*
X145131428Y-93317142D01*
X145102857Y-93260000D01*
X145074285Y-93231428D01*
X144531428Y-93774285D02*
X145131428Y-93974285D01*
X144531428Y-94174285D01*
X142010000Y-92782857D02*
X141981428Y-92725714D01*
X141981428Y-92640000D01*
X142010000Y-92554285D01*
X142067142Y-92497142D01*
X142124285Y-92468571D01*
X142238571Y-92440000D01*
X142324285Y-92440000D01*
X142438571Y-92468571D01*
X142495714Y-92497142D01*
X142552857Y-92554285D01*
X142581428Y-92640000D01*
X142581428Y-92697142D01*
X142552857Y-92782857D01*
X142524285Y-92811428D01*
X142324285Y-92811428D01*
X142324285Y-92697142D01*
X142581428Y-93068571D02*
X141981428Y-93068571D01*
X142581428Y-93411428D01*
X141981428Y-93411428D01*
X142581428Y-93697142D02*
X141981428Y-93697142D01*
X141981428Y-93840000D01*
X142010000Y-93925714D01*
X142067142Y-93982857D01*
X142124285Y-94011428D01*
X142238571Y-94040000D01*
X142324285Y-94040000D01*
X142438571Y-94011428D01*
X142495714Y-93982857D01*
X142552857Y-93925714D01*
X142581428Y-93840000D01*
X142581428Y-93697142D01*
X147120000Y-92862857D02*
X147091428Y-92805714D01*
X147091428Y-92720000D01*
X147120000Y-92634285D01*
X147177142Y-92577142D01*
X147234285Y-92548571D01*
X147348571Y-92520000D01*
X147434285Y-92520000D01*
X147548571Y-92548571D01*
X147605714Y-92577142D01*
X147662857Y-92634285D01*
X147691428Y-92720000D01*
X147691428Y-92777142D01*
X147662857Y-92862857D01*
X147634285Y-92891428D01*
X147434285Y-92891428D01*
X147434285Y-92777142D01*
X147691428Y-93148571D02*
X147091428Y-93148571D01*
X147691428Y-93491428D01*
X147091428Y-93491428D01*
X147691428Y-93777142D02*
X147091428Y-93777142D01*
X147091428Y-93920000D01*
X147120000Y-94005714D01*
X147177142Y-94062857D01*
X147234285Y-94091428D01*
X147348571Y-94120000D01*
X147434285Y-94120000D01*
X147548571Y-94091428D01*
X147605714Y-94062857D01*
X147662857Y-94005714D01*
X147691428Y-93920000D01*
X147691428Y-93777142D01*
%TO.C,U2*%
X141501904Y-95675476D02*
X142149523Y-95675476D01*
X142225714Y-95713571D01*
X142263809Y-95751666D01*
X142301904Y-95827857D01*
X142301904Y-95980238D01*
X142263809Y-96056428D01*
X142225714Y-96094523D01*
X142149523Y-96132619D01*
X141501904Y-96132619D01*
X141578095Y-96475476D02*
X141540000Y-96513571D01*
X141501904Y-96589761D01*
X141501904Y-96780238D01*
X141540000Y-96856428D01*
X141578095Y-96894523D01*
X141654285Y-96932619D01*
X141730476Y-96932619D01*
X141844761Y-96894523D01*
X142301904Y-96437380D01*
X142301904Y-96932619D01*
%TO.C,C3*%
X141064285Y-99710000D02*
X141092857Y-99681428D01*
X141121428Y-99595714D01*
X141121428Y-99538571D01*
X141092857Y-99452857D01*
X141035714Y-99395714D01*
X140978571Y-99367142D01*
X140864285Y-99338571D01*
X140778571Y-99338571D01*
X140664285Y-99367142D01*
X140607142Y-99395714D01*
X140550000Y-99452857D01*
X140521428Y-99538571D01*
X140521428Y-99595714D01*
X140550000Y-99681428D01*
X140578571Y-99710000D01*
X140521428Y-99910000D02*
X140521428Y-100281428D01*
X140750000Y-100081428D01*
X140750000Y-100167142D01*
X140778571Y-100224285D01*
X140807142Y-100252857D01*
X140864285Y-100281428D01*
X141007142Y-100281428D01*
X141064285Y-100252857D01*
X141092857Y-100224285D01*
X141121428Y-100167142D01*
X141121428Y-99995714D01*
X141092857Y-99938571D01*
X141064285Y-99910000D01*
D12*
%TO.C,*%
D10*
%TO.C,HOLE4*%
X176490000Y-107500000D02*
G75*
G03*
X176490000Y-107500000I-900000J0D01*
G01*
%TO.C,HOLE3*%
X176520000Y-91960000D02*
G75*
G03*
X176520000Y-91960000I-900000J0D01*
G01*
%TO.C,HOLE2*%
X131510000Y-107270000D02*
G75*
G03*
X131510000Y-107270000I-900000J0D01*
G01*
%TO.C,HOLE1*%
X131550000Y-92140000D02*
G75*
G03*
X131550000Y-92140000I-900000J0D01*
G01*
D13*
%TO.C,J2*%
X141100000Y-89560000D02*
X174180000Y-89560000D01*
X138500000Y-89560000D02*
X138500000Y-90890000D01*
X139830000Y-89560000D02*
X138500000Y-89560000D01*
X141100000Y-92220000D02*
X174180000Y-92220000D01*
X174180000Y-89560000D02*
X174180000Y-92220000D01*
X141100000Y-89560000D02*
X141100000Y-92220000D01*
D14*
%TO.C,U2*%
X142821000Y-101996000D02*
X148099000Y-101996000D01*
X148099000Y-97644000D02*
X142821000Y-97644000D01*
X142821000Y-97644000D02*
X142821000Y-101996000D01*
X148099000Y-101996000D02*
X148099000Y-97644000D01*
D12*
X142938000Y-96290000D02*
G75*
G03*
X142938000Y-96290000I-150000J0D01*
G01*
X143705000Y-98396000D02*
G75*
G03*
X143705000Y-98396000I-150000J0D01*
G01*
D13*
%TO.C,C3*%
X141520000Y-99742164D02*
X141520000Y-99957836D01*
X142240000Y-99742164D02*
X142240000Y-99957836D01*
%TO.C,*%
G36*
X163717284Y-101553546D02*
G01*
X163711848Y-101558982D01*
X163706411Y-101553546D01*
X163711848Y-101548109D01*
X163717284Y-101553546D01*
G37*
G36*
X164877102Y-100877590D02*
G01*
X164878803Y-100880860D01*
X164869853Y-100884839D01*
X164864097Y-100884054D01*
X164862604Y-100877590D01*
X164864198Y-100876288D01*
X164877102Y-100877590D01*
G37*
G36*
X164409550Y-101008069D02*
G01*
X164411251Y-101011340D01*
X164402301Y-101015318D01*
X164396545Y-101014533D01*
X164395053Y-101008069D01*
X164396646Y-101006768D01*
X164409550Y-101008069D01*
G37*
G36*
X164737619Y-100975872D02*
G01*
X164739373Y-100993571D01*
X164737528Y-101006202D01*
X164729518Y-101015318D01*
X164724740Y-101010910D01*
X164725350Y-100993571D01*
X164729493Y-100980790D01*
X164735205Y-100971825D01*
X164737619Y-100975872D01*
G37*
G36*
X164434921Y-101009881D02*
G01*
X164429485Y-101015318D01*
X164424048Y-101009881D01*
X164429485Y-101004445D01*
X164434921Y-101009881D01*
G37*
G36*
X164739373Y-101037065D02*
G01*
X164738589Y-101042821D01*
X164732125Y-101044313D01*
X164730823Y-101042720D01*
X164732125Y-101029816D01*
X164735395Y-101028115D01*
X164739373Y-101037065D01*
G37*
G36*
X165511377Y-101640532D02*
G01*
X165505940Y-101645969D01*
X165500503Y-101640532D01*
X165505940Y-101635095D01*
X165511377Y-101640532D01*
G37*
G36*
X164732300Y-100458067D02*
G01*
X164747528Y-100459225D01*
X164754672Y-100464222D01*
X164761120Y-100482784D01*
X164759151Y-100493769D01*
X164747528Y-100508090D01*
X164744023Y-100508866D01*
X164721565Y-100510543D01*
X164683272Y-100511637D01*
X164633417Y-100512058D01*
X164576274Y-100511715D01*
X164548453Y-100511347D01*
X164495000Y-100510353D01*
X164458535Y-100508776D01*
X164435691Y-100506075D01*
X164423100Y-100501708D01*
X164417396Y-100495134D01*
X164415211Y-100485812D01*
X164414559Y-100480140D01*
X164415830Y-100472507D01*
X164422894Y-100467226D01*
X164438940Y-100463748D01*
X164467159Y-100461522D01*
X164510740Y-100459999D01*
X164572874Y-100458628D01*
X164598355Y-100458160D01*
X164653496Y-100457520D01*
X164699550Y-100457494D01*
X164732300Y-100458067D01*
G37*
G36*
X165432143Y-99092450D02*
G01*
X165483772Y-99094179D01*
X165531842Y-99097294D01*
X165571808Y-99101504D01*
X165599121Y-99106519D01*
X165609236Y-99112046D01*
X165606821Y-99114233D01*
X165588132Y-99120014D01*
X165554978Y-99126606D01*
X165512190Y-99132967D01*
X165504524Y-99134026D01*
X165454086Y-99143204D01*
X165391609Y-99157228D01*
X165324305Y-99174387D01*
X165259386Y-99192969D01*
X165194338Y-99211962D01*
X165121895Y-99229946D01*
X165064119Y-99239647D01*
X165018082Y-99241515D01*
X164980859Y-99236003D01*
X164962887Y-99227497D01*
X164962626Y-99214842D01*
X164982340Y-99197786D01*
X165022517Y-99175620D01*
X165066588Y-99156274D01*
X165151926Y-99127938D01*
X165244220Y-99106545D01*
X165334372Y-99094465D01*
X165336398Y-99094312D01*
X165381503Y-99092397D01*
X165432143Y-99092450D01*
G37*
G36*
X164178336Y-99442076D02*
G01*
X164199028Y-99467462D01*
X164205358Y-99492595D01*
X164191809Y-99513529D01*
X164188215Y-99516132D01*
X164172118Y-99517925D01*
X164149320Y-99503987D01*
X164133376Y-99493158D01*
X164096777Y-99481643D01*
X164064652Y-99490269D01*
X164039647Y-99518681D01*
X164038394Y-99520922D01*
X164014550Y-99550690D01*
X163985526Y-99572719D01*
X163965182Y-99580718D01*
X163918607Y-99585191D01*
X163873324Y-99573944D01*
X163835436Y-99549075D01*
X163811045Y-99512683D01*
X163798834Y-99480253D01*
X163728158Y-99487728D01*
X163693105Y-99491924D01*
X163665315Y-99496243D01*
X163653017Y-99499500D01*
X163654513Y-99507181D01*
X163666609Y-99523749D01*
X163678421Y-99539175D01*
X163683101Y-99559991D01*
X163667567Y-99573405D01*
X163647769Y-99574985D01*
X163617992Y-99560027D01*
X163587561Y-99526740D01*
X163582186Y-99518904D01*
X163567304Y-99487597D01*
X163570634Y-99463663D01*
X163592413Y-99443016D01*
X163603132Y-99437638D01*
X163620342Y-99432884D01*
X163645874Y-99429108D01*
X163682414Y-99426094D01*
X163732647Y-99423625D01*
X163799257Y-99421486D01*
X163884929Y-99419461D01*
X164150090Y-99413830D01*
X164178336Y-99442076D01*
G37*
G36*
X164771993Y-100944642D02*
G01*
X164766557Y-100950078D01*
X164761120Y-100944642D01*
X164766557Y-100939205D01*
X164771993Y-100944642D01*
G37*
G36*
X164978586Y-100879402D02*
G01*
X164973149Y-100884839D01*
X164967712Y-100879402D01*
X164973149Y-100873965D01*
X164978586Y-100879402D01*
G37*
G36*
X164880726Y-100944642D02*
G01*
X164875289Y-100950078D01*
X164869853Y-100944642D01*
X164875289Y-100939205D01*
X164880726Y-100944642D01*
G37*
G36*
X164326188Y-100944642D02*
G01*
X164320752Y-100950078D01*
X164315315Y-100944642D01*
X164320752Y-100939205D01*
X164326188Y-100944642D01*
G37*
G36*
X165467884Y-101526363D02*
G01*
X165467099Y-101532119D01*
X165460635Y-101533611D01*
X165459333Y-101532018D01*
X165460635Y-101519114D01*
X165463905Y-101517413D01*
X165467884Y-101526363D01*
G37*
G36*
X164347935Y-100977261D02*
G01*
X164342498Y-100982698D01*
X164337062Y-100977261D01*
X164342498Y-100971825D01*
X164347935Y-100977261D01*
G37*
G36*
X164022744Y-100172643D02*
G01*
X164044144Y-100178659D01*
X164052680Y-100199821D01*
X164057212Y-100219412D01*
X164066459Y-100239219D01*
X164074371Y-100245479D01*
X164105172Y-100257025D01*
X164153682Y-100267132D01*
X164217231Y-100275692D01*
X164293151Y-100282595D01*
X164378771Y-100287731D01*
X164471423Y-100290992D01*
X164568438Y-100292266D01*
X164667145Y-100291446D01*
X164764876Y-100288421D01*
X164858962Y-100283082D01*
X164946732Y-100275320D01*
X165003318Y-100268290D01*
X165052222Y-100259077D01*
X165084946Y-100247803D01*
X165104499Y-100233378D01*
X165113887Y-100214710D01*
X165113954Y-100214446D01*
X165124554Y-100194195D01*
X165144788Y-100190961D01*
X165154670Y-100193319D01*
X165165977Y-100204956D01*
X165168868Y-100231268D01*
X165168604Y-100239060D01*
X165162891Y-100263191D01*
X165148123Y-100282828D01*
X165122184Y-100298728D01*
X165082959Y-100311647D01*
X165028333Y-100322339D01*
X164956190Y-100331562D01*
X164864416Y-100340071D01*
X164834170Y-100342330D01*
X164730658Y-100347344D01*
X164618287Y-100349300D01*
X164502139Y-100348345D01*
X164387298Y-100344623D01*
X164278846Y-100338280D01*
X164181865Y-100329460D01*
X164101438Y-100318308D01*
X164053418Y-100306049D01*
X164015252Y-100284298D01*
X163995039Y-100253184D01*
X163991306Y-100211274D01*
X163994324Y-100189747D01*
X164003052Y-100175868D01*
X164021736Y-100172638D01*
X164022744Y-100172643D01*
G37*
G36*
X165386977Y-100956087D02*
G01*
X165429421Y-101042841D01*
X165473509Y-101143862D01*
X165518256Y-101256902D01*
X165562675Y-101379715D01*
X165605782Y-101510053D01*
X165613004Y-101532906D01*
X165629676Y-101585591D01*
X165643698Y-101629794D01*
X165653772Y-101661428D01*
X165658600Y-101676409D01*
X165655964Y-101684524D01*
X165638600Y-101687937D01*
X165603130Y-101687282D01*
X165542926Y-101684025D01*
X165516388Y-101607912D01*
X165515184Y-101604463D01*
X165501253Y-101565257D01*
X165489524Y-101533395D01*
X165482428Y-101515489D01*
X165477508Y-101501031D01*
X165471999Y-101473457D01*
X165468884Y-101456202D01*
X165463306Y-101442047D01*
X165459207Y-101441395D01*
X165451215Y-101452983D01*
X165444202Y-101474617D01*
X165440288Y-101498862D01*
X165441588Y-101518287D01*
X165443881Y-101532706D01*
X165435168Y-101531740D01*
X165430907Y-101530644D01*
X165426183Y-101539161D01*
X165424685Y-101563476D01*
X165426060Y-101606492D01*
X165430250Y-101689462D01*
X163739031Y-101689462D01*
X163739031Y-101667074D01*
X163740727Y-101654493D01*
X163747186Y-101649720D01*
X163751788Y-101649719D01*
X163756822Y-101635890D01*
X163758048Y-101608807D01*
X163755680Y-101573646D01*
X163749930Y-101535580D01*
X163741012Y-101499783D01*
X163720705Y-101435665D01*
X163708580Y-101470447D01*
X163708138Y-101471741D01*
X163701959Y-101500876D01*
X163703281Y-101523016D01*
X163705447Y-101532384D01*
X163699325Y-101534140D01*
X163697927Y-101533873D01*
X163688653Y-101544248D01*
X163676032Y-101570485D01*
X163662139Y-101608435D01*
X163635735Y-101689394D01*
X163594227Y-101689428D01*
X163571271Y-101688434D01*
X163558243Y-101682961D01*
X163558215Y-101670434D01*
X163559031Y-101667554D01*
X163565152Y-101645350D01*
X163575383Y-101607835D01*
X163588517Y-101559445D01*
X163603347Y-101504616D01*
X163642235Y-101366378D01*
X163682612Y-101236474D01*
X163721892Y-101125169D01*
X163760676Y-101030891D01*
X163799564Y-100952067D01*
X163839157Y-100887123D01*
X163866150Y-100855293D01*
X163894405Y-100831040D01*
X164178273Y-100831040D01*
X164178703Y-100844900D01*
X164179197Y-100848204D01*
X164187326Y-100875379D01*
X164201048Y-100906513D01*
X164203056Y-100910364D01*
X164215202Y-100931132D01*
X164222443Y-100934559D01*
X164228438Y-100922823D01*
X164233176Y-100912074D01*
X164237992Y-100914113D01*
X164243764Y-100935578D01*
X164243987Y-100936556D01*
X164253974Y-100962035D01*
X164267050Y-100976012D01*
X164273641Y-100977481D01*
X164281492Y-100971340D01*
X164284262Y-100950681D01*
X164282809Y-100912022D01*
X164282708Y-100910386D01*
X164283326Y-100890504D01*
X164287379Y-100886030D01*
X164289754Y-100891236D01*
X164293877Y-100913583D01*
X164296572Y-100945833D01*
X164297683Y-100965159D01*
X164301640Y-100988092D01*
X164310955Y-100998516D01*
X164329091Y-101002466D01*
X164348377Y-101007751D01*
X164353018Y-101015891D01*
X164354052Y-101023409D01*
X164368496Y-101037743D01*
X164392324Y-101052835D01*
X164419045Y-101064773D01*
X164442170Y-101069644D01*
X164457045Y-101072123D01*
X164469845Y-101082032D01*
X164472707Y-101083688D01*
X164479737Y-101072687D01*
X164488174Y-101050816D01*
X164496003Y-101024345D01*
X164501206Y-100999548D01*
X164501496Y-100990853D01*
X164576659Y-100990853D01*
X164583194Y-100999815D01*
X164603457Y-101004445D01*
X164613097Y-101004108D01*
X164627220Y-100998852D01*
X164628696Y-100983544D01*
X164618948Y-100953504D01*
X164607255Y-100922895D01*
X164685007Y-100922895D01*
X164686553Y-100930447D01*
X164698599Y-100939371D01*
X164705029Y-100941190D01*
X164696383Y-100949538D01*
X164693937Y-100951185D01*
X164686177Y-100963705D01*
X164692604Y-100983544D01*
X164692981Y-100984709D01*
X164701672Y-101004367D01*
X164711921Y-101033342D01*
X164717096Y-101046083D01*
X164735344Y-101063132D01*
X164757114Y-101064259D01*
X164775725Y-101050447D01*
X164784496Y-101022676D01*
X164784499Y-101022598D01*
X164785826Y-101000521D01*
X164787488Y-100999293D01*
X164790654Y-101018033D01*
X164793195Y-101031269D01*
X164800635Y-101041751D01*
X164816208Y-101036678D01*
X164828653Y-101025638D01*
X164838494Y-101001344D01*
X164838673Y-100998263D01*
X164840746Y-100986652D01*
X164844658Y-100995928D01*
X164845863Y-101000036D01*
X164853724Y-101008782D01*
X164870580Y-101001467D01*
X164882454Y-100990083D01*
X164889623Y-100968254D01*
X164891599Y-100931153D01*
X164891637Y-100928332D01*
X164904333Y-100928332D01*
X164905316Y-100942978D01*
X164910995Y-100966603D01*
X164920911Y-100969296D01*
X164934710Y-100950793D01*
X164937571Y-100945096D01*
X164946038Y-100914968D01*
X164941349Y-100893208D01*
X164924298Y-100884839D01*
X164911363Y-100887456D01*
X164904903Y-100900024D01*
X164904333Y-100928332D01*
X164891637Y-100928332D01*
X164891951Y-100905097D01*
X164894868Y-100884179D01*
X164902951Y-100875613D01*
X164918783Y-100873965D01*
X164956839Y-100873965D01*
X164957047Y-100893521D01*
X164958007Y-100914968D01*
X164958167Y-100918544D01*
X164959931Y-100928332D01*
X164960310Y-100928189D01*
X164968296Y-100918032D01*
X164981678Y-100896752D01*
X164990033Y-100880991D01*
X164999813Y-100849228D01*
X164995950Y-100827592D01*
X164978586Y-100819599D01*
X164973556Y-100819831D01*
X164962844Y-100825093D01*
X164961992Y-100827944D01*
X164957984Y-100841356D01*
X164957412Y-100857655D01*
X164956839Y-100873965D01*
X164918783Y-100873965D01*
X164936514Y-100870773D01*
X164945966Y-100857655D01*
X164944647Y-100849219D01*
X164931710Y-100841934D01*
X164905043Y-100851425D01*
X164893813Y-100856898D01*
X164865958Y-100867845D01*
X164858649Y-100871016D01*
X164849762Y-100884567D01*
X164850183Y-100912132D01*
X164850357Y-100913679D01*
X164850057Y-100940349D01*
X164842369Y-100950078D01*
X164834900Y-100941719D01*
X164834914Y-100917458D01*
X164836455Y-100902829D01*
X164832503Y-100888287D01*
X164816720Y-100884839D01*
X164816181Y-100884841D01*
X164798644Y-100890907D01*
X164793740Y-100912022D01*
X164797117Y-100929949D01*
X164807331Y-100939371D01*
X164814162Y-100940546D01*
X164808962Y-100947526D01*
X164803486Y-100952267D01*
X164790792Y-100971825D01*
X164788830Y-100974594D01*
X164785447Y-100966097D01*
X164783725Y-100941923D01*
X164781754Y-100913636D01*
X164775116Y-100899262D01*
X164761120Y-100895712D01*
X164747373Y-100899101D01*
X164739373Y-100916817D01*
X164737782Y-100929263D01*
X164729514Y-100944015D01*
X164724630Y-100943062D01*
X164725346Y-100928347D01*
X164725368Y-100928260D01*
X164724933Y-100911184D01*
X164708022Y-100906585D01*
X164694189Y-100909643D01*
X164685007Y-100922895D01*
X164607255Y-100922895D01*
X164606330Y-100924560D01*
X164592150Y-100950078D01*
X164581921Y-100971836D01*
X164576659Y-100990853D01*
X164501496Y-100990853D01*
X164501768Y-100982698D01*
X164501052Y-100975367D01*
X164506212Y-100974379D01*
X164506306Y-100974469D01*
X164516339Y-100971642D01*
X164528992Y-100954107D01*
X164533776Y-100944753D01*
X164542192Y-100924560D01*
X164538522Y-100917865D01*
X164521908Y-100920609D01*
X164508852Y-100922285D01*
X164500161Y-100917675D01*
X164498268Y-100914979D01*
X164481471Y-100908014D01*
X164452946Y-100901974D01*
X164443622Y-100900560D01*
X164406370Y-100894663D01*
X164376833Y-100889653D01*
X164372388Y-100888917D01*
X164352919Y-100890114D01*
X164346851Y-100903654D01*
X164346781Y-100904748D01*
X164343963Y-100910797D01*
X164338206Y-100895712D01*
X164329593Y-100878409D01*
X164309388Y-100868529D01*
X164296780Y-100867119D01*
X164281720Y-100859834D01*
X164277272Y-100856397D01*
X164256297Y-100846738D01*
X164225685Y-100836205D01*
X164202918Y-100829554D01*
X164194178Y-100827973D01*
X164385304Y-100827973D01*
X164386305Y-100828457D01*
X164402040Y-100832527D01*
X164432501Y-100839098D01*
X164472341Y-100847001D01*
X164475434Y-100847587D01*
X164523082Y-100855292D01*
X164568305Y-100860542D01*
X164601695Y-100862228D01*
X164627655Y-100860164D01*
X164670754Y-100854180D01*
X164718903Y-100845814D01*
X164763381Y-100836603D01*
X164795465Y-100828085D01*
X164795664Y-100827944D01*
X164785361Y-100827022D01*
X164756876Y-100826224D01*
X164713326Y-100825595D01*
X164657826Y-100825183D01*
X164593490Y-100825035D01*
X164584855Y-100825038D01*
X164520908Y-100825216D01*
X164465736Y-100825645D01*
X164422584Y-100826278D01*
X164394692Y-100827069D01*
X164385304Y-100827973D01*
X164194178Y-100827973D01*
X164184620Y-100826244D01*
X164178273Y-100831040D01*
X163894405Y-100831040D01*
X163913627Y-100814540D01*
X163968593Y-100778798D01*
X164023369Y-100753629D01*
X164063058Y-100739902D01*
X163979876Y-100697369D01*
X163937662Y-100675439D01*
X163854849Y-100629406D01*
X163785132Y-100585159D01*
X163723354Y-100538985D01*
X163664355Y-100487169D01*
X163602978Y-100425998D01*
X163565555Y-100386253D01*
X163522783Y-100337611D01*
X163488691Y-100293317D01*
X163458815Y-100247433D01*
X163428692Y-100194017D01*
X163404811Y-100149808D01*
X163385514Y-100116168D01*
X163371010Y-100095593D01*
X163358447Y-100084860D01*
X163344968Y-100080745D01*
X163327719Y-100080026D01*
X163300299Y-100078093D01*
X163258137Y-100072336D01*
X163213615Y-100064121D01*
X163160477Y-100049706D01*
X163077179Y-100010916D01*
X163005959Y-99954312D01*
X162945607Y-99879059D01*
X162903558Y-99805066D01*
X162874586Y-99725634D01*
X162863615Y-99645099D01*
X162865080Y-99623537D01*
X162962220Y-99623537D01*
X162962499Y-99658689D01*
X162964458Y-99698825D01*
X162969480Y-99728650D01*
X162978929Y-99755070D01*
X162994174Y-99784988D01*
X163013210Y-99815636D01*
X163064509Y-99875936D01*
X163125842Y-99925948D01*
X163190864Y-99960025D01*
X163215550Y-99968135D01*
X163258746Y-99978359D01*
X163294367Y-99982356D01*
X163294641Y-99982356D01*
X163322181Y-99980971D01*
X163332936Y-99975094D01*
X163331755Y-99962097D01*
X163323097Y-99929656D01*
X163310996Y-99867302D01*
X163299588Y-99789021D01*
X163289353Y-99698231D01*
X163280769Y-99598349D01*
X163275778Y-99530508D01*
X163371435Y-99530508D01*
X163373370Y-99565982D01*
X163377180Y-99612514D01*
X163382415Y-99665712D01*
X163388623Y-99721184D01*
X163395353Y-99774536D01*
X163402155Y-99821376D01*
X163408578Y-99857313D01*
X163438511Y-99975094D01*
X163439412Y-99978638D01*
X163482625Y-100094467D01*
X163538481Y-100198731D01*
X163609427Y-100295942D01*
X163697911Y-100390609D01*
X163772947Y-100456798D01*
X163898978Y-100545522D01*
X164037544Y-100619439D01*
X164185254Y-100676829D01*
X164338720Y-100715970D01*
X164357168Y-100719103D01*
X164404688Y-100725290D01*
X164460917Y-100730870D01*
X164520801Y-100735525D01*
X164579292Y-100738935D01*
X164631336Y-100740782D01*
X164671882Y-100740747D01*
X164695880Y-100738511D01*
X164701108Y-100737443D01*
X164726137Y-100733302D01*
X164764261Y-100727598D01*
X164809544Y-100721233D01*
X164901865Y-100703772D01*
X165023327Y-100668486D01*
X165145500Y-100620753D01*
X165261537Y-100563318D01*
X165364587Y-100498924D01*
X165373007Y-100492809D01*
X165431759Y-100444239D01*
X165494895Y-100383646D01*
X165556864Y-100316950D01*
X165612116Y-100250077D01*
X165655099Y-100188948D01*
X165664932Y-100172658D01*
X165719650Y-100059960D01*
X165744960Y-99982356D01*
X165851957Y-99982356D01*
X165896415Y-99982347D01*
X165915086Y-99980900D01*
X165965749Y-99967666D01*
X166021262Y-99943353D01*
X166074654Y-99911327D01*
X166118954Y-99874950D01*
X166130600Y-99862995D01*
X166169066Y-99815789D01*
X166194350Y-99766889D01*
X166209100Y-99709826D01*
X166215970Y-99638125D01*
X166217066Y-99611956D01*
X166217404Y-99569615D01*
X166214232Y-99538138D01*
X166206507Y-99510221D01*
X166193185Y-99478558D01*
X166171523Y-99439044D01*
X166141928Y-99396570D01*
X166109520Y-99358028D01*
X166078611Y-99328524D01*
X166053512Y-99313163D01*
X166040480Y-99312593D01*
X166016872Y-99323804D01*
X165984082Y-99350805D01*
X165961581Y-99370478D01*
X165947646Y-99381108D01*
X165938192Y-99388320D01*
X165924805Y-99395198D01*
X165924277Y-99395272D01*
X165918716Y-99407137D01*
X165915026Y-99436709D01*
X165913688Y-99480296D01*
X165913192Y-99503094D01*
X165912485Y-99535574D01*
X165906875Y-99626573D01*
X165897507Y-99722295D01*
X165885290Y-99813926D01*
X165871135Y-99892651D01*
X165851957Y-99982356D01*
X165744960Y-99982356D01*
X165762248Y-99929346D01*
X165792688Y-99780964D01*
X165810927Y-99614964D01*
X165818690Y-99503094D01*
X165791483Y-99515490D01*
X165788385Y-99516966D01*
X165772729Y-99529019D01*
X165767919Y-99540046D01*
X165763772Y-99549553D01*
X165758362Y-99585197D01*
X165757116Y-99595572D01*
X165739736Y-99662707D01*
X165708660Y-99718520D01*
X165666106Y-99758832D01*
X165643872Y-99771420D01*
X165607197Y-99785617D01*
X165561158Y-99796534D01*
X165503293Y-99804482D01*
X165431138Y-99809775D01*
X165342231Y-99812725D01*
X165234108Y-99813644D01*
X165177612Y-99813604D01*
X165112008Y-99813245D01*
X165062463Y-99812272D01*
X165025613Y-99810392D01*
X164998095Y-99807313D01*
X164976546Y-99802746D01*
X164957602Y-99796397D01*
X164937902Y-99787976D01*
X164917066Y-99777231D01*
X164876359Y-99750177D01*
X164844074Y-99721519D01*
X164827678Y-99700183D01*
X164803629Y-99659422D01*
X164782267Y-99613731D01*
X164766970Y-99570607D01*
X164761120Y-99537547D01*
X164760489Y-99531899D01*
X164752624Y-99522126D01*
X164732124Y-99515474D01*
X164694436Y-99510069D01*
X164688078Y-99509423D01*
X164641710Y-99507154D01*
X164586234Y-99507342D01*
X164532298Y-99509992D01*
X164436843Y-99517459D01*
X164436664Y-99518422D01*
X164429506Y-99556906D01*
X164412542Y-99619335D01*
X164375548Y-99690037D01*
X164321854Y-99746880D01*
X164251195Y-99790210D01*
X164243541Y-99793659D01*
X164225757Y-99800475D01*
X164205977Y-99805519D01*
X164180909Y-99809054D01*
X164147263Y-99811344D01*
X164101746Y-99812652D01*
X164041067Y-99813242D01*
X163961933Y-99813379D01*
X163915742Y-99813254D01*
X163817863Y-99811809D01*
X163738019Y-99808443D01*
X163673612Y-99802784D01*
X163622047Y-99794461D01*
X163580725Y-99783101D01*
X163547050Y-99768331D01*
X163518425Y-99749779D01*
X163516418Y-99748226D01*
X163473348Y-99701158D01*
X163445543Y-99641433D01*
X163435170Y-99573634D01*
X163433402Y-99548183D01*
X163425036Y-99528667D01*
X163405991Y-99516143D01*
X163384794Y-99508419D01*
X163372700Y-99507819D01*
X163371827Y-99510484D01*
X163371435Y-99530508D01*
X163275778Y-99530508D01*
X163273498Y-99499511D01*
X163469588Y-99499511D01*
X163469803Y-99559425D01*
X163471459Y-99577593D01*
X163484991Y-99640274D01*
X163511072Y-99688289D01*
X163551707Y-99723541D01*
X163608903Y-99747936D01*
X163684664Y-99763376D01*
X163705121Y-99765920D01*
X163772500Y-99772175D01*
X163849157Y-99776904D01*
X163928916Y-99779917D01*
X164005599Y-99781027D01*
X164073031Y-99780046D01*
X164125033Y-99776785D01*
X164164000Y-99771180D01*
X164240993Y-99748416D01*
X164301742Y-99711502D01*
X164346726Y-99660092D01*
X164376419Y-99593838D01*
X164381400Y-99576343D01*
X164391763Y-99518422D01*
X164389259Y-99496172D01*
X164805290Y-99496172D01*
X164807422Y-99549519D01*
X164826471Y-99615902D01*
X164844745Y-99655566D01*
X164881810Y-99703807D01*
X164932175Y-99739127D01*
X164998042Y-99762911D01*
X165081609Y-99776545D01*
X165112562Y-99779347D01*
X165177847Y-99783452D01*
X165240866Y-99784238D01*
X165309535Y-99781683D01*
X165391771Y-99775770D01*
X165484971Y-99766421D01*
X165559730Y-99754374D01*
X165617064Y-99738165D01*
X165659133Y-99716232D01*
X165688097Y-99687015D01*
X165706114Y-99648951D01*
X165715346Y-99600482D01*
X165717952Y-99540046D01*
X165717108Y-99497539D01*
X165712333Y-99459941D01*
X165701179Y-99435558D01*
X165681240Y-99419694D01*
X165650111Y-99407652D01*
X165613167Y-99398564D01*
X165547044Y-99388494D01*
X165467080Y-99381193D01*
X165377701Y-99376663D01*
X165283335Y-99374904D01*
X165188406Y-99375915D01*
X165097342Y-99379695D01*
X165014569Y-99386246D01*
X164944513Y-99395568D01*
X164891599Y-99407659D01*
X164853043Y-99424533D01*
X164820392Y-99454847D01*
X164805290Y-99496172D01*
X164389259Y-99496172D01*
X164386804Y-99474364D01*
X164365071Y-99441633D01*
X164325115Y-99417697D01*
X164265485Y-99400019D01*
X164262973Y-99399474D01*
X164199466Y-99389288D01*
X164121121Y-99382034D01*
X164032493Y-99377656D01*
X163938138Y-99376101D01*
X163842609Y-99377313D01*
X163750463Y-99381238D01*
X163666254Y-99387820D01*
X163594538Y-99397006D01*
X163539871Y-99408740D01*
X163536550Y-99409745D01*
X163501628Y-99427538D01*
X163479752Y-99456504D01*
X163469588Y-99499511D01*
X163273498Y-99499511D01*
X163267317Y-99415497D01*
X163234060Y-99401595D01*
X163206374Y-99386521D01*
X163203570Y-99384189D01*
X163369339Y-99384189D01*
X163369729Y-99410287D01*
X163372911Y-99437585D01*
X163381207Y-99454267D01*
X163396862Y-99467097D01*
X163397356Y-99467420D01*
X163417272Y-99478683D01*
X163427086Y-99480939D01*
X163428114Y-99479057D01*
X163435977Y-99462727D01*
X163448083Y-99436464D01*
X163452932Y-99426634D01*
X163473745Y-99398711D01*
X163503961Y-99378576D01*
X163547680Y-99364107D01*
X163609000Y-99353182D01*
X163670677Y-99345765D01*
X163774907Y-99337491D01*
X163881478Y-99333687D01*
X163986983Y-99334170D01*
X164088016Y-99338759D01*
X164181167Y-99347269D01*
X164263029Y-99359519D01*
X164330196Y-99375325D01*
X164379259Y-99394504D01*
X164379578Y-99394678D01*
X164401223Y-99414235D01*
X164418523Y-99442285D01*
X164432904Y-99476748D01*
X164597014Y-99473485D01*
X164761125Y-99470221D01*
X164777545Y-99438469D01*
X164784791Y-99426424D01*
X164806417Y-99403769D01*
X164838057Y-99385283D01*
X164882054Y-99370271D01*
X164940755Y-99358035D01*
X165016502Y-99347878D01*
X165111640Y-99339102D01*
X165117323Y-99338667D01*
X165194841Y-99334810D01*
X165279874Y-99333805D01*
X165367553Y-99335430D01*
X165453010Y-99339459D01*
X165531377Y-99345669D01*
X165597785Y-99353837D01*
X165647368Y-99363738D01*
X165660480Y-99367920D01*
X165703287Y-99390592D01*
X165737002Y-99421806D01*
X165755353Y-99456193D01*
X165755390Y-99456337D01*
X165764625Y-99477697D01*
X165778303Y-99479105D01*
X165799143Y-99460853D01*
X165799569Y-99460378D01*
X165806753Y-99450101D01*
X165811650Y-99435828D01*
X165814526Y-99414012D01*
X165815651Y-99381108D01*
X165815293Y-99333570D01*
X165813717Y-99267852D01*
X165812851Y-99237446D01*
X165810790Y-99179771D01*
X165808141Y-99137595D01*
X165804236Y-99106545D01*
X165798405Y-99082242D01*
X165789977Y-99060313D01*
X165778282Y-99036380D01*
X165742337Y-98970983D01*
X165678808Y-98876880D01*
X165610008Y-98801782D01*
X165533993Y-98744034D01*
X165448822Y-98701983D01*
X165352551Y-98673975D01*
X165352053Y-98673871D01*
X165312257Y-98666109D01*
X165288268Y-98663620D01*
X165274841Y-98666443D01*
X165266728Y-98674617D01*
X165249212Y-98699555D01*
X165226468Y-98723219D01*
X165200182Y-98736204D01*
X165162480Y-98743730D01*
X165158518Y-98744271D01*
X165104126Y-98749094D01*
X165034148Y-98751841D01*
X164954136Y-98752584D01*
X164869643Y-98751397D01*
X164786219Y-98748351D01*
X164709417Y-98743520D01*
X164644789Y-98736974D01*
X164550074Y-98721901D01*
X164419604Y-98693830D01*
X164285628Y-98657794D01*
X164154458Y-98615689D01*
X164032406Y-98569414D01*
X163925786Y-98520866D01*
X163907697Y-98511741D01*
X163879890Y-98498559D01*
X163865263Y-98494406D01*
X163859589Y-98498636D01*
X163858637Y-98510603D01*
X163853054Y-98534382D01*
X163837851Y-98571053D01*
X163815827Y-98615143D01*
X163789786Y-98661392D01*
X163762529Y-98704536D01*
X163736857Y-98739313D01*
X163735237Y-98741246D01*
X163701683Y-98776849D01*
X163659448Y-98816047D01*
X163617273Y-98850700D01*
X163607909Y-98857897D01*
X163550915Y-98908492D01*
X163504203Y-98964573D01*
X163465302Y-99030204D01*
X163431742Y-99109450D01*
X163401052Y-99206375D01*
X163398534Y-99215501D01*
X163383193Y-99279716D01*
X163373022Y-99338407D01*
X163369339Y-99384189D01*
X163203570Y-99384189D01*
X163185285Y-99368982D01*
X163166506Y-99351995D01*
X163139258Y-99334494D01*
X163121623Y-99326603D01*
X163107276Y-99326732D01*
X163090689Y-99337741D01*
X163065442Y-99362023D01*
X163049232Y-99379819D01*
X163017709Y-99421238D01*
X162992121Y-99462785D01*
X162983853Y-99479168D01*
X162972394Y-99507060D01*
X162965832Y-99535774D01*
X162962873Y-99572277D01*
X162962220Y-99623537D01*
X162865080Y-99623537D01*
X162869490Y-99558601D01*
X162880810Y-99509152D01*
X162903124Y-99446781D01*
X162932113Y-99386075D01*
X162964554Y-99333657D01*
X162997222Y-99296154D01*
X163005281Y-99288974D01*
X163023652Y-99269619D01*
X163028480Y-99254353D01*
X163022749Y-99236167D01*
X163014211Y-99206814D01*
X163010521Y-99172192D01*
X163009216Y-99155581D01*
X163001768Y-99117433D01*
X162989919Y-99077562D01*
X162986618Y-99068172D01*
X162958773Y-98973557D01*
X162934224Y-98862880D01*
X162913607Y-98741115D01*
X162897558Y-98613235D01*
X162886713Y-98484212D01*
X162881708Y-98359019D01*
X162883178Y-98242630D01*
X162884178Y-98222920D01*
X162896848Y-98091806D01*
X162919162Y-97964557D01*
X162950035Y-97845480D01*
X162988377Y-97738881D01*
X163033101Y-97649068D01*
X163046834Y-97627582D01*
X163093319Y-97567201D01*
X163151485Y-97503806D01*
X163215948Y-97442643D01*
X163281322Y-97388956D01*
X163342222Y-97347992D01*
X163379553Y-97325017D01*
X163424537Y-97291170D01*
X163450346Y-97261837D01*
X163457957Y-97249504D01*
X163509823Y-97183963D01*
X163578667Y-97119340D01*
X163660578Y-97058306D01*
X163751647Y-97003531D01*
X163847965Y-96957687D01*
X163945623Y-96923444D01*
X164009510Y-96908334D01*
X164103781Y-96892986D01*
X164210721Y-96881430D01*
X164325468Y-96873877D01*
X164443161Y-96870537D01*
X164558938Y-96871622D01*
X164667938Y-96877342D01*
X164765301Y-96887907D01*
X164832488Y-96898679D01*
X165041122Y-96945911D01*
X165240931Y-97012884D01*
X165432864Y-97099955D01*
X165617867Y-97207478D01*
X165618462Y-97207864D01*
X165684654Y-97252483D01*
X165743594Y-97296450D01*
X165799330Y-97343382D01*
X165855910Y-97396898D01*
X165917382Y-97460619D01*
X165987796Y-97538161D01*
X165991416Y-97542226D01*
X166057830Y-97615503D01*
X166113363Y-97673763D01*
X166160306Y-97719102D01*
X166200950Y-97753615D01*
X166237587Y-97779398D01*
X166272507Y-97798545D01*
X166287512Y-97806269D01*
X166319101Y-97826240D01*
X166340223Y-97844635D01*
X166356386Y-97877737D01*
X166356225Y-97917190D01*
X166339270Y-97954910D01*
X166306919Y-97985005D01*
X166283240Y-97999761D01*
X166264823Y-98011617D01*
X166260957Y-98016747D01*
X166258006Y-98032438D01*
X166258051Y-98060700D01*
X166261142Y-98104515D01*
X166267326Y-98166867D01*
X166267496Y-98168476D01*
X166273534Y-98238136D01*
X166278530Y-98319315D01*
X166281968Y-98402057D01*
X166283334Y-98476405D01*
X166283638Y-98511267D01*
X166286366Y-98592128D01*
X166291718Y-98657674D01*
X166299473Y-98704744D01*
X166306231Y-98735013D01*
X166312885Y-98771175D01*
X166315613Y-98795285D01*
X166315526Y-98798058D01*
X166305121Y-98825467D01*
X166282236Y-98853512D01*
X166253732Y-98875353D01*
X166226467Y-98884154D01*
X166221722Y-98884335D01*
X166212524Y-98887149D01*
X166204496Y-98895794D01*
X166196396Y-98913334D01*
X166186982Y-98942834D01*
X166175011Y-98987358D01*
X166159240Y-99049971D01*
X166150869Y-99083484D01*
X166137265Y-99137359D01*
X166125865Y-99181777D01*
X166117669Y-99212854D01*
X166113680Y-99226702D01*
X166116176Y-99234637D01*
X166131598Y-99253053D01*
X166156842Y-99275618D01*
X166203476Y-99320554D01*
X166255725Y-99395229D01*
X166295132Y-99484290D01*
X166311316Y-99552846D01*
X166312084Y-99569615D01*
X166315419Y-99642453D01*
X166302700Y-99731634D01*
X166273629Y-99813188D01*
X166233758Y-99882395D01*
X166171970Y-99956372D01*
X166098396Y-100012278D01*
X166012145Y-100050751D01*
X165912330Y-100072429D01*
X165880552Y-100076622D01*
X165844410Y-100082686D01*
X165822569Y-100089334D01*
X165810499Y-100098164D01*
X165803672Y-100110775D01*
X165801027Y-100117356D01*
X165780634Y-100158773D01*
X165750887Y-100210296D01*
X165715362Y-100266244D01*
X165677638Y-100320932D01*
X165641293Y-100368677D01*
X165622116Y-100391769D01*
X165565878Y-100453263D01*
X165506230Y-100508210D01*
X165438880Y-100560009D01*
X165359539Y-100612061D01*
X165263917Y-100667765D01*
X165152374Y-100729970D01*
X165211989Y-100759137D01*
X165236544Y-100772886D01*
X165276645Y-100801367D01*
X165307611Y-100830370D01*
X165310968Y-100834370D01*
X165321415Y-100849228D01*
X165347164Y-100885847D01*
X165386977Y-100956087D01*
G37*
G36*
X164657661Y-99607649D02*
G01*
X164663851Y-99618859D01*
X164668359Y-99640977D01*
X164671890Y-99677615D01*
X164675150Y-99732383D01*
X164678172Y-99776340D01*
X164683467Y-99826548D01*
X164689767Y-99867072D01*
X164696273Y-99891885D01*
X164700008Y-99901928D01*
X164702714Y-99940726D01*
X164684407Y-99974155D01*
X164645022Y-100002350D01*
X164635317Y-100006998D01*
X164607912Y-100016701D01*
X164590197Y-100017991D01*
X164585571Y-100015431D01*
X164576858Y-99998604D01*
X164580430Y-99978006D01*
X164595302Y-99964052D01*
X164608571Y-99957871D01*
X164632543Y-99941700D01*
X164636859Y-99937832D01*
X164644669Y-99926202D01*
X164643622Y-99909729D01*
X164633885Y-99880831D01*
X164630974Y-99871775D01*
X164623010Y-99830325D01*
X164617960Y-99777586D01*
X164616151Y-99721492D01*
X164617912Y-99669976D01*
X164623570Y-99630970D01*
X164633211Y-99609554D01*
X164650057Y-99603900D01*
X164657661Y-99607649D01*
G37*
G36*
X164848106Y-100966388D02*
G01*
X164842670Y-100971825D01*
X164837233Y-100966388D01*
X164842670Y-100960952D01*
X164848106Y-100966388D01*
G37*
G36*
X163836099Y-99098666D02*
G01*
X163917390Y-99105859D01*
X163989877Y-99119365D01*
X164059748Y-99140325D01*
X164133188Y-99169881D01*
X164134988Y-99170681D01*
X164178253Y-99192751D01*
X164201733Y-99211265D01*
X164204982Y-99225687D01*
X164187554Y-99235477D01*
X164179790Y-99237275D01*
X164125982Y-99241536D01*
X164064392Y-99235723D01*
X164004410Y-99220599D01*
X163958974Y-99205760D01*
X163889385Y-99185548D01*
X163815033Y-99166167D01*
X163742253Y-99149164D01*
X163677383Y-99136085D01*
X163626760Y-99128475D01*
X163620124Y-99127756D01*
X163582494Y-99122274D01*
X163564509Y-99116179D01*
X163564314Y-99108887D01*
X163579972Y-99103969D01*
X163615328Y-99100150D01*
X163668177Y-99097660D01*
X163736389Y-99096650D01*
X163739817Y-99096642D01*
X163836099Y-99098666D01*
G37*
G36*
X164352510Y-100940059D02*
G01*
X164353372Y-100950078D01*
X164351140Y-100953332D01*
X164341857Y-100960952D01*
X164340772Y-100960669D01*
X164337062Y-100950078D01*
X164337504Y-100947098D01*
X164348577Y-100939205D01*
X164352510Y-100940059D01*
G37*
G36*
X164467541Y-101009881D02*
G01*
X164462105Y-101015318D01*
X164456668Y-101009881D01*
X164462105Y-101004445D01*
X164467541Y-101009881D01*
G37*
G36*
X164271822Y-100944642D02*
G01*
X164266385Y-100950078D01*
X164260949Y-100944642D01*
X164266385Y-100939205D01*
X164271822Y-100944642D01*
G37*
G36*
X164426087Y-100942651D02*
G01*
X164431120Y-100946564D01*
X164419517Y-100949220D01*
X164408489Y-100948451D01*
X164405246Y-100943509D01*
X164409093Y-100941354D01*
X164426087Y-100942651D01*
G37*
G36*
X163728158Y-101504616D02*
G01*
X163727373Y-101510372D01*
X163720909Y-101511865D01*
X163719607Y-101510271D01*
X163720909Y-101497367D01*
X163724179Y-101495666D01*
X163728158Y-101504616D01*
G37*
G36*
X165470747Y-101555996D02*
G01*
X165469721Y-101573730D01*
X165466976Y-101583270D01*
X165462892Y-101589843D01*
X165459067Y-101576432D01*
X165458643Y-101574447D01*
X165453297Y-101562719D01*
X165444208Y-101570996D01*
X165443548Y-101571938D01*
X165436205Y-101580639D01*
X165437744Y-101570806D01*
X165441477Y-101563586D01*
X165458998Y-101552933D01*
X165470747Y-101555996D01*
G37*
G36*
X164513889Y-100940866D02*
G01*
X164516471Y-100950078D01*
X164514242Y-100953368D01*
X164505598Y-100960952D01*
X164504025Y-100960440D01*
X164494724Y-100950078D01*
X164493854Y-100944319D01*
X164505598Y-100939205D01*
X164513889Y-100940866D01*
G37*
G36*
X164469580Y-100942651D02*
G01*
X164474613Y-100946564D01*
X164463011Y-100949220D01*
X164451982Y-100948451D01*
X164448739Y-100943509D01*
X164452586Y-100941354D01*
X164469580Y-100942651D01*
G37*
G36*
X164239202Y-100863092D02*
G01*
X164238417Y-100868848D01*
X164231953Y-100870341D01*
X164230652Y-100868747D01*
X164231953Y-100855843D01*
X164235224Y-100854142D01*
X164239202Y-100863092D01*
G37*
G36*
X164239202Y-100890275D02*
G01*
X164233765Y-100895712D01*
X164228329Y-100890275D01*
X164233765Y-100884839D01*
X164239202Y-100890275D01*
G37*
G36*
X165290743Y-99419581D02*
G01*
X165366657Y-99421608D01*
X165450790Y-99424934D01*
X165513977Y-99428961D01*
X165556673Y-99433719D01*
X165579335Y-99439240D01*
X165597454Y-99451295D01*
X165608893Y-99476025D01*
X165600467Y-99507062D01*
X165572267Y-99543075D01*
X165552261Y-99562115D01*
X165531005Y-99576810D01*
X165515265Y-99576792D01*
X165500239Y-99563415D01*
X165494614Y-99554842D01*
X165495562Y-99540373D01*
X165511676Y-99519922D01*
X165536914Y-99493058D01*
X165499681Y-99492938D01*
X165461824Y-99490934D01*
X165422773Y-99486257D01*
X165415359Y-99485081D01*
X165392242Y-99484216D01*
X165378124Y-99493920D01*
X165364449Y-99518997D01*
X165360298Y-99527671D01*
X165349406Y-99549598D01*
X165344320Y-99558461D01*
X165342457Y-99559037D01*
X165326311Y-99564658D01*
X165299348Y-99574294D01*
X165296953Y-99575157D01*
X165266157Y-99585723D01*
X165246080Y-99589190D01*
X165227474Y-99585635D01*
X165201087Y-99575140D01*
X165200814Y-99575026D01*
X165167456Y-99552752D01*
X165140559Y-99520774D01*
X165128867Y-99503003D01*
X165109646Y-99486490D01*
X165084227Y-99482184D01*
X165057410Y-99487205D01*
X165025817Y-99505527D01*
X165015340Y-99514711D01*
X164999113Y-99522208D01*
X164984341Y-99515069D01*
X164979618Y-99510857D01*
X164969058Y-99492757D01*
X164975510Y-99472034D01*
X164999882Y-99444559D01*
X165032052Y-99413738D01*
X165290743Y-99419581D01*
G37*
G36*
X163684664Y-101635095D02*
G01*
X163683880Y-101640852D01*
X163677416Y-101642344D01*
X163676114Y-101640751D01*
X163677416Y-101627847D01*
X163680686Y-101626145D01*
X163684664Y-101635095D01*
G37*
G36*
X164387804Y-100942829D02*
G01*
X164389505Y-100946100D01*
X164380555Y-100950078D01*
X164374799Y-100949294D01*
X164373306Y-100942829D01*
X164374900Y-100941528D01*
X164387804Y-100942829D01*
G37*
%TO.C,J1*%
X138470000Y-107270000D02*
X138470000Y-108600000D01*
X141070000Y-107270000D02*
X141070000Y-109930000D01*
X141070000Y-109930000D02*
X174150000Y-109930000D01*
X141070000Y-107270000D02*
X174150000Y-107270000D01*
X139800000Y-107270000D02*
X138470000Y-107270000D01*
X174150000Y-107270000D02*
X174150000Y-109930000D01*
%TD*%
%LPC*%
D15*
%TO.C,HOLE4*%
X175590000Y-107500000D03*
%TD*%
%TO.C,HOLE3*%
X175620000Y-91960000D03*
%TD*%
%TO.C,HOLE2*%
X130610000Y-107270000D03*
%TD*%
%TO.C,HOLE1*%
X130650000Y-92140000D03*
%TD*%
D16*
%TO.C,J3*%
X175420000Y-95910000D03*
D17*
X175420000Y-98450000D03*
X175420000Y-100990000D03*
X175420000Y-103530000D03*
%TD*%
D18*
%TO.C,USB1*%
X135380000Y-95410000D03*
X135380000Y-104050000D03*
X131580000Y-95410000D03*
X131580000Y-104050000D03*
%TD*%
D16*
%TO.C,J2*%
X139830000Y-90890000D03*
D17*
X142370000Y-90890000D03*
X144910000Y-90890000D03*
X147450000Y-90890000D03*
X149990000Y-90890000D03*
X152530000Y-90890000D03*
X155070000Y-90890000D03*
X157610000Y-90890000D03*
X160150000Y-90890000D03*
X162690000Y-90890000D03*
X165230000Y-90890000D03*
X167770000Y-90890000D03*
X170310000Y-90890000D03*
X172850000Y-90890000D03*
%TD*%
D19*
%TO.C,U2*%
X143555000Y-96290000D03*
X144825000Y-96290000D03*
X146095000Y-96290000D03*
X147365000Y-96290000D03*
X147365000Y-103350000D03*
X146095000Y-103350000D03*
X144825000Y-103350000D03*
X143555000Y-103350000D03*
%TD*%
D20*
%TO.C,C3*%
X141880000Y-99370000D03*
X141880000Y-100330000D03*
%TD*%
D16*
%TO.C,J1*%
X139800000Y-108600000D03*
D17*
X142340000Y-108600000D03*
X144880000Y-108600000D03*
X147420000Y-108600000D03*
X149960000Y-108600000D03*
X152500000Y-108600000D03*
X155040000Y-108600000D03*
X157580000Y-108600000D03*
X160120000Y-108600000D03*
X162660000Y-108600000D03*
X165200000Y-108600000D03*
X167740000Y-108600000D03*
X170280000Y-108600000D03*
X172820000Y-108600000D03*
%TD*%
M02*
