%TF.GenerationSoftware,KiCad,Pcbnew,(6.0.10)*%
%TF.CreationDate,2023-01-24T04:26:28+08:00*%
%TF.ProjectId,UINIO-MCU-STM32L051K8,55494e49-4f2d-44d4-9355-2d53544d3332,Version 3.1.0*%
%TF.SameCoordinates,PX7d37aa0PY554e610*%
%TF.FileFunction,Soldermask,Bot*%
%TF.FilePolarity,Negative*%
%FSLAX46Y46*%
G04 Gerber Fmt 4.6, Leading zero omitted, Abs format (unit mm)*
G04 Created by KiCad (PCBNEW (6.0.10)) date 2023-01-24 04:26:28*
%MOMM*%
%LPD*%
G01*
G04 APERTURE LIST*
G04 Aperture macros list*
%AMRoundRect*
0 Rectangle with rounded corners*
0 $1 Rounding radius*
0 $2 $3 $4 $5 $6 $7 $8 $9 X,Y pos of 4 corners*
0 Add a 4 corners polygon primitive as box body*
4,1,4,$2,$3,$4,$5,$6,$7,$8,$9,$2,$3,0*
0 Add four circle primitives for the rounded corners*
1,1,$1+$1,$2,$3*
1,1,$1+$1,$4,$5*
1,1,$1+$1,$6,$7*
1,1,$1+$1,$8,$9*
0 Add four rect primitives between the rounded corners*
20,1,$1+$1,$2,$3,$4,$5,0*
20,1,$1+$1,$4,$5,$6,$7,0*
20,1,$1+$1,$6,$7,$8,$9,0*
20,1,$1+$1,$8,$9,$2,$3,0*%
G04 Aperture macros list end*
%ADD10C,1.200000*%
%ADD11R,1.700000X1.700000*%
%ADD12O,1.700000X1.700000*%
%ADD13O,1.800000X1.000000*%
%ADD14O,0.630000X2.250000*%
%ADD15RoundRect,0.140000X0.170000X-0.140000X0.170000X0.140000X-0.170000X0.140000X-0.170000X-0.140000X0*%
G04 APERTURE END LIST*
D10*
%TO.C,Hole3*%
X43740000Y-18180000D03*
%TD*%
%TO.C,Hole1*%
X-770000Y-2360000D03*
%TD*%
D11*
%TO.C,J3*%
X-1210000Y-6520000D03*
D12*
X-1210000Y-9060000D03*
X-1210000Y-11600000D03*
X-1210000Y-14140000D03*
%TD*%
D13*
%TO.C,USB1*%
X39960000Y-14600000D03*
X39960000Y-5960000D03*
X43760000Y-14600000D03*
X43760000Y-5960000D03*
%TD*%
D10*
%TO.C,Hole2*%
X-740000Y-18170000D03*
%TD*%
%TO.C,Hole4*%
X43740000Y-2360000D03*
%TD*%
D11*
%TO.C,J2*%
X34680000Y-19050000D03*
D12*
X32140000Y-19050000D03*
X29600000Y-19050000D03*
X27060000Y-19050000D03*
X24520000Y-19050000D03*
X21980000Y-19050000D03*
X19440000Y-19050000D03*
X16900000Y-19050000D03*
X14360000Y-19050000D03*
X11820000Y-19050000D03*
X9280000Y-19050000D03*
X6740000Y-19050000D03*
X4200000Y-19050000D03*
X1660000Y-19050000D03*
%TD*%
D14*
%TO.C,U2*%
X30915000Y-13760000D03*
X29645000Y-13760000D03*
X28375000Y-13760000D03*
X27105000Y-13760000D03*
X27105000Y-6700000D03*
X28375000Y-6700000D03*
X29645000Y-6700000D03*
X30915000Y-6700000D03*
%TD*%
D15*
%TO.C,C3*%
X32630000Y-10680000D03*
X32630000Y-9720000D03*
%TD*%
D11*
%TO.C,J1*%
X34690000Y-1490000D03*
D12*
X32150000Y-1490000D03*
X29610000Y-1490000D03*
X27070000Y-1490000D03*
X24530000Y-1490000D03*
X21990000Y-1490000D03*
X19450000Y-1490000D03*
X16910000Y-1490000D03*
X14370000Y-1490000D03*
X11830000Y-1490000D03*
X9290000Y-1490000D03*
X6750000Y-1490000D03*
X4210000Y-1490000D03*
X1670000Y-1490000D03*
%TD*%
M02*
