%TF.GenerationSoftware,KiCad,Pcbnew,7.0.11*%
%TF.CreationDate,2024-04-18T22:15:37+08:00*%
%TF.ProjectId,UINIO-MCU-STM32L051K8U6,55494e49-4f2d-44d4-9355-2d53544d3332,Version 3.3.2*%
%TF.SameCoordinates,PX7aae400PY5939cc0*%
%TF.FileFunction,Copper,L1,Top*%
%TF.FilePolarity,Positive*%
%FSLAX46Y46*%
G04 Gerber Fmt 4.6, Leading zero omitted, Abs format (unit mm)*
G04 Created by KiCad (PCBNEW 7.0.11) date 2024-04-18 22:15:37*
%MOMM*%
%LPD*%
G01*
G04 APERTURE LIST*
G04 Aperture macros list*
%AMRoundRect*
0 Rectangle with rounded corners*
0 $1 Rounding radius*
0 $2 $3 $4 $5 $6 $7 $8 $9 X,Y pos of 4 corners*
0 Add a 4 corners polygon primitive as box body*
4,1,4,$2,$3,$4,$5,$6,$7,$8,$9,$2,$3,0*
0 Add four circle primitives for the rounded corners*
1,1,$1+$1,$2,$3*
1,1,$1+$1,$4,$5*
1,1,$1+$1,$6,$7*
1,1,$1+$1,$8,$9*
0 Add four rect primitives between the rounded corners*
20,1,$1+$1,$2,$3,$4,$5,0*
20,1,$1+$1,$4,$5,$6,$7,0*
20,1,$1+$1,$6,$7,$8,$9,0*
20,1,$1+$1,$8,$9,$2,$3,0*%
%AMRotRect*
0 Rectangle, with rotation*
0 The origin of the aperture is its center*
0 $1 length*
0 $2 width*
0 $3 Rotation angle, in degrees counterclockwise*
0 Add horizontal line*
21,1,$1,$2,0,0,$3*%
G04 Aperture macros list end*
%TA.AperFunction,SMDPad,CuDef*%
%ADD10RoundRect,0.135000X-0.135000X-0.185000X0.135000X-0.185000X0.135000X0.185000X-0.135000X0.185000X0*%
%TD*%
%TA.AperFunction,SMDPad,CuDef*%
%ADD11RoundRect,0.140000X-0.140000X-0.170000X0.140000X-0.170000X0.140000X0.170000X-0.140000X0.170000X0*%
%TD*%
%TA.AperFunction,SMDPad,CuDef*%
%ADD12RoundRect,0.250000X-0.375000X-0.625000X0.375000X-0.625000X0.375000X0.625000X-0.375000X0.625000X0*%
%TD*%
%TA.AperFunction,ComponentPad*%
%ADD13C,1.200000*%
%TD*%
%TA.AperFunction,SMDPad,CuDef*%
%ADD14RoundRect,0.140000X0.140000X0.170000X-0.140000X0.170000X-0.140000X-0.170000X0.140000X-0.170000X0*%
%TD*%
%TA.AperFunction,SMDPad,CuDef*%
%ADD15RotRect,0.600000X0.300000X315.000000*%
%TD*%
%TA.AperFunction,SMDPad,CuDef*%
%ADD16RotRect,0.600000X0.300000X45.000000*%
%TD*%
%TA.AperFunction,SMDPad,CuDef*%
%ADD17RotRect,0.600000X0.300000X135.000000*%
%TD*%
%TA.AperFunction,SMDPad,CuDef*%
%ADD18RotRect,0.600000X0.300000X225.000000*%
%TD*%
%TA.AperFunction,SMDPad,CuDef*%
%ADD19RotRect,3.450000X3.450000X225.000000*%
%TD*%
%TA.AperFunction,SMDPad,CuDef*%
%ADD20RoundRect,0.135000X0.185000X-0.135000X0.185000X0.135000X-0.185000X0.135000X-0.185000X-0.135000X0*%
%TD*%
%TA.AperFunction,ComponentPad*%
%ADD21R,1.700000X1.700000*%
%TD*%
%TA.AperFunction,ComponentPad*%
%ADD22O,1.700000X1.700000*%
%TD*%
%TA.AperFunction,ComponentPad*%
%ADD23O,1.800000X1.000000*%
%TD*%
%TA.AperFunction,SMDPad,CuDef*%
%ADD24R,1.400000X0.700000*%
%TD*%
%TA.AperFunction,SMDPad,CuDef*%
%ADD25R,1.400000X0.800000*%
%TD*%
%TA.AperFunction,SMDPad,CuDef*%
%ADD26R,1.200000X0.650000*%
%TD*%
%TA.AperFunction,SMDPad,CuDef*%
%ADD27RoundRect,0.218750X0.218750X0.256250X-0.218750X0.256250X-0.218750X-0.256250X0.218750X-0.256250X0*%
%TD*%
%TA.AperFunction,SMDPad,CuDef*%
%ADD28RoundRect,0.140000X0.170000X-0.140000X0.170000X0.140000X-0.170000X0.140000X-0.170000X-0.140000X0*%
%TD*%
%TA.AperFunction,SMDPad,CuDef*%
%ADD29RoundRect,0.140000X-0.170000X0.140000X-0.170000X-0.140000X0.170000X-0.140000X0.170000X0.140000X0*%
%TD*%
%TA.AperFunction,SMDPad,CuDef*%
%ADD30R,1.800000X1.000000*%
%TD*%
%TA.AperFunction,SMDPad,CuDef*%
%ADD31R,1.000000X0.600000*%
%TD*%
%TA.AperFunction,ViaPad*%
%ADD32C,0.700000*%
%TD*%
%TA.AperFunction,ViaPad*%
%ADD33C,0.500000*%
%TD*%
%TA.AperFunction,ViaPad*%
%ADD34C,0.900000*%
%TD*%
%TA.AperFunction,Conductor*%
%ADD35C,0.300000*%
%TD*%
%TA.AperFunction,Conductor*%
%ADD36C,0.200000*%
%TD*%
%TA.AperFunction,Conductor*%
%ADD37C,0.500000*%
%TD*%
%TA.AperFunction,Conductor*%
%ADD38C,0.150000*%
%TD*%
G04 APERTURE END LIST*
D10*
%TO.P,R3,1*%
%TO.N,/VDD_3.3V*%
X9970000Y-9180000D03*
%TO.P,R3,2*%
%TO.N,/NRST*%
X10990000Y-9180000D03*
%TD*%
D11*
%TO.P,C5,1*%
%TO.N,GND*%
X17190000Y-11300000D03*
%TO.P,C5,2*%
%TO.N,/BOOT0*%
X18150000Y-11300000D03*
%TD*%
D12*
%TO.P,F1,1*%
%TO.N,Net-(F1-Pad1)*%
X2140000Y-3550000D03*
%TO.P,F1,2*%
%TO.N,/VDD_5V*%
X4940000Y-3550000D03*
%TD*%
D13*
%TO.P,Hole3,*%
%TO.N,*%
X-1120000Y-2300000D03*
%TD*%
D14*
%TO.P,C4,1*%
%TO.N,/VDD_3.3V*%
X30660000Y-14770000D03*
%TO.P,C4,2*%
%TO.N,GND*%
X29700000Y-14770000D03*
%TD*%
D15*
%TO.P,U3,1,VDD*%
%TO.N,/VDD_3.3V*%
X29624239Y-7173788D03*
%TO.P,U3,2,PC14-OSC_IN*%
%TO.N,Net-(U3-PC14-OSC_IN)*%
X29270685Y-7527341D03*
%TO.P,U3,3,PC15-OSC_OUT*%
%TO.N,Net-(U3-PC15-OSC_OUT)*%
X28917132Y-7880895D03*
%TO.P,U3,4,NRST*%
%TO.N,/NRST*%
X28563578Y-8234448D03*
%TO.P,U3,5,VDDA*%
%TO.N,/VDD_3.3V*%
X28210025Y-8588001D03*
%TO.P,U3,6,PA0*%
%TO.N,/PA0*%
X27856472Y-8941555D03*
%TO.P,U3,7,PA1*%
%TO.N,/PA1*%
X27502918Y-9295108D03*
%TO.P,U3,8,PA2*%
%TO.N,/PA2*%
X27149365Y-9648662D03*
D16*
%TO.P,U3,9,PA3*%
%TO.N,/PA3*%
X27149365Y-10765890D03*
%TO.P,U3,10,PA4*%
%TO.N,/PA4{slash}CS*%
X27502918Y-11119444D03*
%TO.P,U3,11,PA5*%
%TO.N,/PA5{slash}SCLK*%
X27856472Y-11472997D03*
%TO.P,U3,12,PA6*%
%TO.N,/PA6{slash}MISO*%
X28210025Y-11826551D03*
%TO.P,U3,13,PA7*%
%TO.N,/PA7{slash}MOSI*%
X28563578Y-12180104D03*
%TO.P,U3,14,PB0*%
%TO.N,/PB0*%
X28917132Y-12533657D03*
%TO.P,U3,15,PB1*%
%TO.N,/PB1*%
X29270685Y-12887211D03*
%TO.P,U3,16,PB2*%
%TO.N,/PB2*%
X29624239Y-13240764D03*
D17*
%TO.P,U3,17,VDD*%
%TO.N,/VDD_3.3V*%
X30741467Y-13240764D03*
%TO.P,U3,18,PA8*%
%TO.N,/PA8*%
X31095021Y-12887211D03*
%TO.P,U3,19,PA9*%
%TO.N,/PA9*%
X31448574Y-12533657D03*
%TO.P,U3,20,PA10*%
%TO.N,/PA10*%
X31802128Y-12180104D03*
%TO.P,U3,21,PA11*%
%TO.N,/PA11*%
X32155681Y-11826551D03*
%TO.P,U3,22,PA12*%
%TO.N,/PA12*%
X32509234Y-11472997D03*
%TO.P,U3,23,PA13*%
%TO.N,/PA13{slash}SWDIO*%
X32862788Y-11119444D03*
%TO.P,U3,24,PA14*%
%TO.N,/PA14{slash}SWCLK*%
X33216341Y-10765890D03*
D18*
%TO.P,U3,25,PA15*%
%TO.N,/PA15*%
X33216341Y-9648662D03*
%TO.P,U3,26,PB3*%
%TO.N,/PB3*%
X32862788Y-9295108D03*
%TO.P,U3,27,PB4*%
%TO.N,/PB4*%
X32509234Y-8941555D03*
%TO.P,U3,28,PB5*%
%TO.N,/PB5*%
X32155681Y-8588001D03*
%TO.P,U3,29,PB6*%
%TO.N,/PB6*%
X31802128Y-8234448D03*
%TO.P,U3,30,PB7*%
%TO.N,/PB7*%
X31448574Y-7880895D03*
%TO.P,U3,31,BOOT0*%
%TO.N,/BOOT0*%
X31095021Y-7527341D03*
%TO.P,U3,32,PB8*%
%TO.N,/PB8*%
X30741467Y-7173788D03*
D19*
%TO.P,U3,33,PAD*%
%TO.N,GND*%
X30182853Y-10207276D03*
%TD*%
D20*
%TO.P,R1,1*%
%TO.N,Net-(D1-A)*%
X1740000Y-1830000D03*
%TO.P,R1,2*%
%TO.N,/VDD_3.3V*%
X1740000Y-810000D03*
%TD*%
D13*
%TO.P,Hole1,*%
%TO.N,*%
X43390000Y-17980000D03*
%TD*%
D21*
%TO.P,J3,1,Pin_1*%
%TO.N,/VDD_3.3V*%
X43850000Y-13950000D03*
D22*
%TO.P,J3,2,Pin_2*%
%TO.N,/PA13{slash}SWDIO*%
X43850000Y-11410000D03*
%TO.P,J3,3,Pin_3*%
%TO.N,/PA14{slash}SWCLK*%
X43850000Y-8870000D03*
%TO.P,J3,4,Pin_4*%
%TO.N,GND*%
X43850000Y-6330000D03*
%TD*%
D11*
%TO.P,C8,1*%
%TO.N,GND*%
X24300000Y-10910000D03*
%TO.P,C8,2*%
%TO.N,/VDD_3.3V*%
X25260000Y-10910000D03*
%TD*%
D14*
%TO.P,C7,1*%
%TO.N,GND*%
X30650000Y-5530000D03*
%TO.P,C7,2*%
%TO.N,/VDD_3.3V*%
X29690000Y-5530000D03*
%TD*%
D23*
%TO.P,USB1,1,GND*%
%TO.N,GND*%
X2680000Y-5830000D03*
%TO.P,USB1,2,GND*%
X2680000Y-14470000D03*
%TO.P,USB1,3,GND*%
X-1120000Y-5830000D03*
%TO.P,USB1,4,GND*%
X-1120000Y-14470000D03*
D24*
%TO.P,USB1,A5,CC1*%
%TO.N,unconnected-(USB1-CC1-PadA5)*%
X3680000Y-9650000D03*
%TO.P,USB1,A9,VBUS*%
%TO.N,Net-(F1-Pad1)*%
X3680000Y-11670000D03*
D25*
%TO.P,USB1,A12,GND*%
%TO.N,GND*%
X3680000Y-12900000D03*
D24*
%TO.P,USB1,B5,CC2*%
%TO.N,unconnected-(USB1-CC2-PadB5)*%
X3680000Y-10650000D03*
%TO.P,USB1,B9,VBUS*%
%TO.N,Net-(F1-Pad1)*%
X3680000Y-8630000D03*
D25*
%TO.P,USB1,B12,GND*%
%TO.N,GND*%
X3680000Y-7400000D03*
%TD*%
D14*
%TO.P,C9,1*%
%TO.N,/NRST*%
X18160000Y-9170000D03*
%TO.P,C9,2*%
%TO.N,GND*%
X17200000Y-9170000D03*
%TD*%
D13*
%TO.P,Hole2,*%
%TO.N,*%
X43390000Y-2300000D03*
%TD*%
D26*
%TO.P,SW2,1,1*%
%TO.N,GND*%
X11960000Y-5755000D03*
%TO.P,SW2,2,2*%
X16260000Y-5755000D03*
%TO.P,SW2,3,3*%
%TO.N,/NRST*%
X11960000Y-7905000D03*
%TO.P,SW2,4,4*%
X16260000Y-7905000D03*
%TD*%
D10*
%TO.P,R2,1*%
%TO.N,GND*%
X9960000Y-11260000D03*
%TO.P,R2,2*%
%TO.N,/BOOT0*%
X10980000Y-11260000D03*
%TD*%
D27*
%TO.P,D1,1,K*%
%TO.N,GND*%
X4482500Y-1300000D03*
%TO.P,D1,2,A*%
%TO.N,Net-(D1-A)*%
X2907500Y-1300000D03*
%TD*%
D28*
%TO.P,C2,1,1*%
%TO.N,GND*%
X5640000Y-18040000D03*
%TO.P,C2,2,2*%
%TO.N,/VDD_3.3V*%
X5640000Y-17080000D03*
%TD*%
D11*
%TO.P,C6,1*%
%TO.N,GND*%
X24300000Y-9560000D03*
%TO.P,C6,2*%
%TO.N,/VDD_3.3V*%
X25260000Y-9560000D03*
%TD*%
D28*
%TO.P,C11,2*%
%TO.N,Net-(U3-PC15-OSC_OUT)*%
X22810000Y-7280000D03*
%TO.P,C11,1*%
%TO.N,GND*%
X22810000Y-8240000D03*
%TD*%
D29*
%TO.P,C10,1*%
%TO.N,GND*%
X22810000Y-5400000D03*
%TO.P,C10,2*%
%TO.N,Net-(U3-PC14-OSC_IN)*%
X22810000Y-6360000D03*
%TD*%
D28*
%TO.P,C1,1,1*%
%TO.N,GND*%
X850000Y-18040000D03*
%TO.P,C1,2,2*%
%TO.N,/VDD_5V*%
X850000Y-17080000D03*
%TD*%
D13*
%TO.P,Hole4,*%
%TO.N,*%
X-1120000Y-17980000D03*
%TD*%
D30*
%TO.P,Y1,1,1*%
%TO.N,Net-(U3-PC15-OSC_OUT)*%
X24800000Y-8050000D03*
%TO.P,Y1,2,GND*%
%TO.N,Net-(U3-PC14-OSC_IN)*%
X24800000Y-5550000D03*
%TD*%
D26*
%TO.P,SW1,1,1*%
%TO.N,/VDD_3.3V*%
X11960000Y-12515000D03*
%TO.P,SW1,2,2*%
X16260000Y-12515000D03*
%TO.P,SW1,3,3*%
%TO.N,/BOOT0*%
X11960000Y-14665000D03*
%TO.P,SW1,4,4*%
X16260000Y-14665000D03*
%TD*%
D31*
%TO.P,U1,1,Vin*%
%TO.N,/VDD_5V*%
X1940000Y-17090000D03*
%TO.P,U1,2,Vss*%
%TO.N,GND*%
X1940000Y-18040000D03*
%TO.P,U1,3,CE*%
%TO.N,/VDD_5V*%
X1940000Y-18990000D03*
%TO.P,U1,4,NC*%
%TO.N,unconnected-(U1-NC-Pad4)*%
X4540000Y-18990000D03*
%TO.P,U1,5,Vout*%
%TO.N,/VDD_3.3V*%
X4540000Y-17090000D03*
%TD*%
D21*
%TO.P,J2,1,Pin_1*%
%TO.N,/VDD_5V*%
X7950000Y-1340000D03*
D22*
%TO.P,J2,2,Pin_2*%
%TO.N,GND*%
X10490000Y-1340000D03*
%TO.P,J2,3,Pin_3*%
%TO.N,/VDD_3.3V*%
X13030000Y-1340000D03*
%TO.P,J2,4,Pin_4*%
%TO.N,GND*%
X15570000Y-1340000D03*
%TO.P,J2,5,Pin_5*%
%TO.N,/NRST*%
X18110000Y-1340000D03*
%TO.P,J2,6,Pin_6*%
%TO.N,/PB8*%
X20650000Y-1340000D03*
%TO.P,J2,7,Pin_7*%
%TO.N,/PB7*%
X23190000Y-1340000D03*
%TO.P,J2,8,Pin_8*%
%TO.N,/PB6*%
X25730000Y-1340000D03*
%TO.P,J2,9,Pin_9*%
%TO.N,/PB5*%
X28270000Y-1340000D03*
%TO.P,J2,10,Pin_10*%
%TO.N,/PB4*%
X30810000Y-1340000D03*
%TO.P,J2,11,Pin_11*%
%TO.N,/PB3*%
X33350000Y-1340000D03*
%TO.P,J2,12,Pin_12*%
%TO.N,/PB2*%
X35890000Y-1340000D03*
%TO.P,J2,13,Pin_13*%
%TO.N,/PB1*%
X38430000Y-1340000D03*
%TO.P,J2,14,Pin_14*%
%TO.N,/PB0*%
X40970000Y-1340000D03*
%TD*%
D21*
%TO.P,J1,1,Pin_1*%
%TO.N,/PA0*%
X7950000Y-18960000D03*
D22*
%TO.P,J1,2,Pin_2*%
%TO.N,/PA1*%
X10490000Y-18960000D03*
%TO.P,J1,3,Pin_3*%
%TO.N,/PA2*%
X13030000Y-18960000D03*
%TO.P,J1,4,Pin_4*%
%TO.N,/PA3*%
X15570000Y-18960000D03*
%TO.P,J1,5,Pin_5*%
%TO.N,/PA4{slash}CS*%
X18110000Y-18960000D03*
%TO.P,J1,6,Pin_6*%
%TO.N,/PA5{slash}SCLK*%
X20650000Y-18960000D03*
%TO.P,J1,7,Pin_7*%
%TO.N,/PA6{slash}MISO*%
X23190000Y-18960000D03*
%TO.P,J1,8,Pin_8*%
%TO.N,/PA7{slash}MOSI*%
X25730000Y-18960000D03*
%TO.P,J1,9,Pin_9*%
%TO.N,/PA8*%
X28270000Y-18960000D03*
%TO.P,J1,10,Pin_10*%
%TO.N,/PA9*%
X30810000Y-18960000D03*
%TO.P,J1,11,Pin_11*%
%TO.N,/PA10*%
X33350000Y-18960000D03*
%TO.P,J1,12,Pin_12*%
%TO.N,/PA11*%
X35890000Y-18960000D03*
%TO.P,J1,13,Pin_13*%
%TO.N,/PA12*%
X38430000Y-18960000D03*
%TO.P,J1,14,Pin_14*%
%TO.N,/PA15*%
X40970000Y-18960000D03*
%TD*%
D32*
%TO.N,GND*%
X7050000Y-17090000D03*
D33*
X13390000Y-16920000D03*
X36260000Y-10160000D03*
D32*
X27390000Y-16080000D03*
D33*
X41773334Y-12720000D03*
X38970000Y-10150000D03*
X36710000Y-16460000D03*
X39903333Y-10150000D03*
X9800000Y-13740000D03*
X40840000Y-12720000D03*
X42380000Y-16460000D03*
D34*
X34110000Y-6310000D03*
X12010000Y-10240000D03*
D33*
X40836666Y-10150000D03*
X26534163Y-7570500D03*
X38973334Y-12720000D03*
X38950000Y-7410000D03*
X32480000Y-16460000D03*
D32*
X24300000Y-12090000D03*
D33*
X27940000Y-5540000D03*
X37200000Y-12720000D03*
X36266667Y-12720000D03*
X8950000Y-3490000D03*
X34520000Y-16460000D03*
X14310000Y-11320000D03*
D32*
X10420000Y-8050000D03*
D33*
X39906667Y-12720000D03*
D34*
X6120000Y-1300000D03*
D33*
X41750000Y-7410000D03*
X29700000Y-10750000D03*
X32130000Y-3370000D03*
X39883333Y-7410000D03*
X40816666Y-7410000D03*
X30120000Y-10310000D03*
X31010000Y-9420000D03*
X30600000Y-9880000D03*
X41770000Y-10150000D03*
D34*
X28970000Y-3990000D03*
D33*
X28760000Y-5540000D03*
X11330000Y-16920000D03*
X29250000Y-11180000D03*
D34*
X34113602Y-3983602D03*
D33*
X32470000Y-14660000D03*
D32*
%TO.N,/VDD_3.3V*%
X6143000Y-16073000D03*
D33*
X22610000Y-15380000D03*
D32*
X19310000Y-4820500D03*
D34*
X8728000Y-12510000D03*
D32*
X29980000Y-16070000D03*
X17030000Y-4840000D03*
X680000Y-820000D03*
D33*
%TO.N,/BOOT0*%
X31582853Y-6640000D03*
X10980000Y-11930000D03*
X10980000Y-14670000D03*
X18150000Y-14660000D03*
%TO.N,/NRST*%
X27360000Y-7570500D03*
X18160000Y-5530000D03*
%TO.N,/PA4{slash}CS*%
X20590000Y-12400000D03*
X22620000Y-14430000D03*
X26410500Y-14430023D03*
%TO.N,/PA6{slash}MISO*%
X21279500Y-17600000D03*
X19370000Y-17600000D03*
%TO.N,/PA15*%
X38030000Y-14770000D03*
X40040000Y-16780000D03*
X38020000Y-7420000D03*
%TO.N,/PB0*%
X28430000Y-13340000D03*
%TO.N,/PB1*%
X28430000Y-14100000D03*
%TO.N,/PB2*%
X28420000Y-14850000D03*
%TD*%
D35*
%TO.N,GND*%
X12010000Y-10240000D02*
X17110000Y-10240000D01*
D36*
X23430000Y-8860000D02*
X22810000Y-8240000D01*
D35*
X860000Y-19380000D02*
X860000Y-18050000D01*
X9960000Y-10720000D02*
X10440000Y-10240000D01*
X22810000Y-10230000D02*
X21540000Y-10230000D01*
D37*
X3680000Y-6840000D02*
X3680000Y-7440000D01*
D35*
X21530000Y-10240000D02*
X17110000Y-10240000D01*
X29050000Y-16080000D02*
X29700000Y-15430000D01*
D37*
X-1120000Y-14510000D02*
X-1120000Y-5870000D01*
D36*
X26534163Y-8045837D02*
X25720000Y-8860000D01*
D37*
X2710000Y-5870000D02*
X3680000Y-6840000D01*
D36*
X26534163Y-7570500D02*
X26534163Y-8045837D01*
D35*
X27390000Y-16080000D02*
X29050000Y-16080000D01*
D37*
X3680000Y-13460000D02*
X2680000Y-14460000D01*
D35*
X17190000Y-10220000D02*
X17190000Y-11300000D01*
D37*
X990000Y-5810000D02*
X3490000Y-5810000D01*
D35*
X24300000Y-10910000D02*
X23620000Y-10230000D01*
X28970000Y-3990000D02*
X29118541Y-3990000D01*
D37*
X10410000Y-8040000D02*
X10410000Y-6230000D01*
D35*
X17110000Y-10240000D02*
X17160000Y-10190000D01*
D37*
X6120000Y-1300000D02*
X4482500Y-1300000D01*
D35*
X17160000Y-10190000D02*
X17190000Y-10160000D01*
D37*
X2680000Y-14510000D02*
X-1120000Y-14510000D01*
X11960000Y-5755000D02*
X16260000Y-5755000D01*
D35*
X850000Y-18040000D02*
X1940000Y-18040000D01*
D37*
X10420000Y-8050000D02*
X10410000Y-8040000D01*
D35*
X7050000Y-17090000D02*
X6110000Y-18030000D01*
X5640000Y-18040000D02*
X5640000Y-19390000D01*
X22810000Y-8240000D02*
X21950000Y-8240000D01*
X24300000Y-10910000D02*
X24300000Y-9560000D01*
X6110000Y-18030000D02*
X5570000Y-18030000D01*
X1350000Y-19870000D02*
X860000Y-19380000D01*
X34110000Y-3987204D02*
X34113602Y-3983602D01*
X34130000Y-6330000D02*
X43850000Y-6330000D01*
X23620000Y-10230000D02*
X21540000Y-10230000D01*
D37*
X-270000Y-5810000D02*
X990000Y-5810000D01*
D35*
X21650000Y-5750000D02*
X21990000Y-5410000D01*
X5640000Y-19390000D02*
X5160000Y-19870000D01*
X17160000Y-10190000D02*
X17190000Y-10220000D01*
D37*
X10885000Y-5755000D02*
X11960000Y-5755000D01*
D35*
X22810000Y-8240000D02*
X22810000Y-10230000D01*
D37*
X10410000Y-6230000D02*
X10885000Y-5755000D01*
D35*
X17190000Y-10160000D02*
X17190000Y-9180000D01*
X34110000Y-6310000D02*
X34110000Y-3987204D01*
D36*
X25720000Y-8860000D02*
X23430000Y-8860000D01*
D35*
X10440000Y-10240000D02*
X12010000Y-10240000D01*
X21990000Y-5410000D02*
X22800000Y-5410000D01*
X24300000Y-12090000D02*
X24300000Y-10910000D01*
D37*
X3680000Y-12940000D02*
X3680000Y-13460000D01*
D35*
X9960000Y-11260000D02*
X9960000Y-10720000D01*
X29118541Y-3990000D02*
X30650000Y-5521459D01*
X34110000Y-6310000D02*
X34130000Y-6330000D01*
X21650000Y-7940000D02*
X21650000Y-5750000D01*
X21950000Y-8240000D02*
X21650000Y-7940000D01*
X29700000Y-15430000D02*
X29700000Y-14770000D01*
X5160000Y-19870000D02*
X1350000Y-19870000D01*
X21540000Y-10230000D02*
X21530000Y-10240000D01*
D37*
%TO.N,/VDD_5V*%
X3570000Y-15920000D02*
X6320000Y-13170000D01*
X5020000Y-3520000D02*
X7150000Y-3520000D01*
X1934000Y-17084000D02*
X624000Y-17084000D01*
X1940000Y-18990000D02*
X2942000Y-18990000D01*
X6320000Y-3550000D02*
X5040000Y-3550000D01*
X2400000Y-15920000D02*
X3570000Y-15920000D01*
X1940000Y-17090000D02*
X1940000Y-16380000D01*
X3260000Y-17460000D02*
X2890000Y-17090000D01*
X7150000Y-3520000D02*
X7950000Y-2720000D01*
X1940000Y-16380000D02*
X2400000Y-15920000D01*
X2942000Y-18990000D02*
X3260000Y-18672000D01*
X6320000Y-13170000D02*
X6320000Y-3550000D01*
X3260000Y-18672000D02*
X3260000Y-17460000D01*
X7950000Y-2720000D02*
X7950000Y-1340000D01*
X2890000Y-17090000D02*
X1940000Y-17090000D01*
D35*
%TO.N,/VDD_3.3V*%
X26904974Y-8180000D02*
X27802024Y-8180000D01*
D36*
X8852000Y-9180000D02*
X8728000Y-9056000D01*
D35*
X4546000Y-17084000D02*
X5546000Y-17084000D01*
X29980000Y-16070000D02*
X30660000Y-15390000D01*
X17000000Y-4810000D02*
X9510000Y-4810000D01*
X9510000Y-4800000D02*
X12970000Y-1340000D01*
D36*
X9970000Y-9180000D02*
X8852000Y-9180000D01*
D38*
X8728000Y-12510000D02*
X8733000Y-12515000D01*
X6950000Y-15380000D02*
X6893000Y-15323000D01*
D35*
X5640000Y-17080000D02*
X5640000Y-16576000D01*
X8728000Y-9056000D02*
X8728000Y-5582000D01*
X30660000Y-15390000D02*
X30660000Y-14770000D01*
X25260000Y-9560000D02*
X25524974Y-9560000D01*
X6638000Y-15578000D02*
X6893000Y-15323000D01*
X8728000Y-5582000D02*
X9720000Y-4590000D01*
X29690000Y-7108027D02*
X29624239Y-7173788D01*
D38*
X6766000Y-15450000D02*
X6638000Y-15578000D01*
D35*
X29690000Y-5530000D02*
X29690000Y-7108027D01*
X19340500Y-4790000D02*
X28958541Y-4790000D01*
X1740000Y-810000D02*
X690000Y-810000D01*
X29624239Y-7215181D02*
X29700000Y-7139420D01*
X690000Y-810000D02*
X680000Y-820000D01*
X8728000Y-12510000D02*
X8728000Y-9056000D01*
X8733000Y-12515000D02*
X11960000Y-12515000D01*
X9510000Y-4810000D02*
X9510000Y-4800000D01*
X27802024Y-8180000D02*
X28210025Y-8588001D01*
X8728000Y-12510000D02*
X8728000Y-13488000D01*
D38*
X22610000Y-15380000D02*
X22630000Y-15380000D01*
D35*
X5640000Y-16576000D02*
X6638000Y-15578000D01*
X28958541Y-4790000D02*
X29690000Y-5521459D01*
X16260000Y-12515000D02*
X11960000Y-12515000D01*
D38*
X17030000Y-4840000D02*
X17000000Y-4810000D01*
D35*
X30660000Y-14770000D02*
X30660000Y-13322231D01*
X25260000Y-10910000D02*
X25260000Y-9560000D01*
X25260000Y-12750000D02*
X25260000Y-10910000D01*
X25524974Y-9560000D02*
X26904974Y-8180000D01*
X22610000Y-15380000D02*
X6950000Y-15380000D01*
X22630000Y-15380000D02*
X25260000Y-12750000D01*
D38*
X19310000Y-4820500D02*
X19340500Y-4790000D01*
D35*
X8728000Y-13488000D02*
X6893000Y-15323000D01*
X30660000Y-13322231D02*
X30741467Y-13240764D01*
%TO.N,/BOOT0*%
X18150000Y-14660000D02*
X18150000Y-11300000D01*
D36*
X31582853Y-7039509D02*
X31095021Y-7527341D01*
X10980000Y-11930000D02*
X10980000Y-11260000D01*
X10985000Y-14665000D02*
X10980000Y-14670000D01*
X18150000Y-14660000D02*
X18145000Y-14665000D01*
X31582853Y-6640000D02*
X31582853Y-7039509D01*
X11960000Y-14665000D02*
X10985000Y-14665000D01*
X16260000Y-14665000D02*
X11960000Y-14665000D01*
X18145000Y-14665000D02*
X16260000Y-14665000D01*
D35*
%TO.N,/NRST*%
X11960000Y-7905000D02*
X11960000Y-8210000D01*
X16260000Y-7905000D02*
X11960000Y-7905000D01*
D36*
X18160000Y-9170000D02*
X18160000Y-7860000D01*
X18115000Y-7905000D02*
X16260000Y-7905000D01*
D35*
X11960000Y-8210000D02*
X10990000Y-9180000D01*
D36*
X18160000Y-5530000D02*
X18160000Y-1390000D01*
X27900500Y-7570500D02*
X28563578Y-8233578D01*
X27360000Y-7570500D02*
X27900500Y-7570500D01*
X18160000Y-7860000D02*
X18160000Y-5530000D01*
D35*
%TO.N,Net-(U3-PC14-OSC_IN)*%
X24800000Y-5550000D02*
X23620000Y-5550000D01*
X23620000Y-5550000D02*
X22810000Y-6360000D01*
X28273344Y-6530000D02*
X29270685Y-7527341D01*
X25780000Y-6530000D02*
X28273344Y-6530000D01*
X24800000Y-5550000D02*
X25780000Y-6530000D01*
%TO.N,Net-(U3-PC15-OSC_OUT)*%
X24800000Y-8050000D02*
X25840000Y-7010000D01*
X25840000Y-7010000D02*
X28046237Y-7010000D01*
X24800000Y-8050000D02*
X23580000Y-8050000D01*
X28046237Y-7010000D02*
X28917132Y-7880895D01*
X23580000Y-8050000D02*
X22810000Y-7280000D01*
D36*
%TO.N,/PA0*%
X7950000Y-18960000D02*
X10960000Y-15950000D01*
X22877208Y-15950000D02*
X25880000Y-12947208D01*
X27494917Y-8580000D02*
X27856472Y-8941555D01*
X27055736Y-8580000D02*
X27494917Y-8580000D01*
X25880000Y-12947208D02*
X25880000Y-9755736D01*
X10960000Y-15950000D02*
X22877208Y-15950000D01*
X25880000Y-9755736D02*
X27055736Y-8580000D01*
%TO.N,/PA1*%
X27502918Y-9295108D02*
X27207810Y-9000000D01*
X27207810Y-9000000D02*
X27060000Y-9000000D01*
X13200000Y-16250000D02*
X10490000Y-18960000D01*
X26180000Y-9880000D02*
X26180000Y-13071472D01*
X26180000Y-13071472D02*
X23001472Y-16250000D01*
X27060000Y-9000000D02*
X26180000Y-9880000D01*
X23001472Y-16250000D02*
X13200000Y-16250000D01*
%TO.N,/PA2*%
X23125736Y-16550000D02*
X15440000Y-16550000D01*
X15440000Y-16550000D02*
X13030000Y-18960000D01*
X26480000Y-13195736D02*
X23125736Y-16550000D01*
X27149365Y-9648662D02*
X26480000Y-10318027D01*
X26480000Y-10318027D02*
X26480000Y-13195736D01*
%TO.N,/PA3*%
X26780000Y-13320000D02*
X23250000Y-16850000D01*
X27149365Y-10765890D02*
X26780000Y-11135255D01*
X17680000Y-16850000D02*
X15570000Y-18960000D01*
X26780000Y-11135255D02*
X26780000Y-13320000D01*
X23250000Y-16850000D02*
X17680000Y-16850000D01*
%TO.N,/PA4{slash}CS*%
X18110000Y-17760000D02*
X18110000Y-18960000D01*
X26410500Y-14430023D02*
X27080000Y-13760523D01*
X26379977Y-14430023D02*
X23660000Y-17150000D01*
X26410500Y-14430023D02*
X26379977Y-14430023D01*
X27080000Y-13760523D02*
X27080000Y-11542362D01*
X20590000Y-12400000D02*
X22620000Y-14430000D01*
X18720000Y-17150000D02*
X18110000Y-17760000D01*
X27080000Y-11542362D02*
X27502918Y-11119444D01*
X23660000Y-17150000D02*
X18720000Y-17150000D01*
%TO.N,/PA5{slash}SCLK*%
X21985000Y-17710000D02*
X20735000Y-18960000D01*
X21985000Y-17710000D02*
X23785736Y-17710000D01*
X23785736Y-17710000D02*
X27380000Y-14115736D01*
X27380000Y-11949469D02*
X27856472Y-11472997D01*
X27380000Y-14115736D02*
X27380000Y-11949469D01*
%TO.N,/PA6{slash}MISO*%
X27680000Y-14240000D02*
X27680000Y-12356576D01*
X27680000Y-14240000D02*
X23190000Y-18730000D01*
X21279500Y-17600000D02*
X19370000Y-17600000D01*
X27680000Y-12356576D02*
X28210025Y-11826551D01*
%TO.N,/PA7{slash}MOSI*%
X27980000Y-14364264D02*
X25730000Y-16614264D01*
X28563578Y-12180104D02*
X27980000Y-12763682D01*
X27980000Y-12763682D02*
X27980000Y-14364264D01*
X25730000Y-16614264D02*
X25730000Y-18960000D01*
%TO.N,/PA8*%
X31310000Y-15920000D02*
X31310000Y-13102190D01*
X28270000Y-18960000D02*
X31310000Y-15920000D01*
X31310000Y-13102190D02*
X31095021Y-12887211D01*
%TO.N,/PA9*%
X31860000Y-17910000D02*
X31860000Y-12945083D01*
X31860000Y-12945083D02*
X31448574Y-12533657D01*
X30810000Y-18960000D02*
X31860000Y-17910000D01*
%TO.N,/PA10*%
X33330000Y-13707976D02*
X31802128Y-12180104D01*
X33330000Y-19020000D02*
X33330000Y-13707976D01*
%TO.N,/PA15*%
X38020000Y-7420000D02*
X35445003Y-7420000D01*
X35445003Y-7420000D02*
X33216341Y-9648662D01*
X38030000Y-14770000D02*
X40040000Y-16780000D01*
%TO.N,/PA13{slash}SWDIO*%
X43850000Y-11410000D02*
X33153344Y-11410000D01*
X33153344Y-11410000D02*
X32862788Y-11119444D01*
%TO.N,/PA14{slash}SWCLK*%
X35112231Y-8870000D02*
X33216341Y-10765890D01*
X43850000Y-8870000D02*
X35112231Y-8870000D01*
%TO.N,/PB0*%
X28430000Y-13340000D02*
X28430000Y-13020789D01*
X28430000Y-13020789D02*
X28917132Y-12533657D01*
%TO.N,/PB1*%
X28430000Y-14100000D02*
X28440000Y-14100000D01*
X28880000Y-13660000D02*
X28880000Y-13277896D01*
X28440000Y-14100000D02*
X28880000Y-13660000D01*
X28880000Y-13277896D02*
X29270685Y-12887211D01*
%TO.N,/PB2*%
X29340000Y-13930000D02*
X29340000Y-13525003D01*
X29340000Y-13525003D02*
X29624239Y-13240764D01*
X28420000Y-14850000D02*
X29340000Y-13930000D01*
%TO.N,/PB3*%
X33350000Y-1340000D02*
X33350000Y-8807896D01*
X33350000Y-8807896D02*
X32862788Y-9295108D01*
%TO.N,/PB4*%
X30810000Y-1340000D02*
X30810000Y-3192944D01*
X33030000Y-8420789D02*
X32509234Y-8941555D01*
X33030000Y-5412944D02*
X33030000Y-8420789D01*
X30810000Y-3192944D02*
X33030000Y-5412944D01*
%TO.N,/PB5*%
X32730000Y-8013682D02*
X32155681Y-8588001D01*
X32730000Y-5537208D02*
X32730000Y-8013682D01*
X32730000Y-5537208D02*
X28532792Y-1340000D01*
%TO.N,/PB6*%
X32390000Y-5621472D02*
X32390000Y-7646576D01*
X29408528Y-2640000D02*
X32390000Y-5621472D01*
X27030000Y-2640000D02*
X29408528Y-2640000D01*
X32390000Y-7646576D02*
X31802128Y-8234448D01*
X25730000Y-1340000D02*
X27030000Y-2640000D01*
%TO.N,/PB7*%
X32032353Y-7297116D02*
X31448574Y-7880895D01*
X32032353Y-5688089D02*
X32032353Y-7297116D01*
X24790000Y-2940000D02*
X29284264Y-2940000D01*
X29284264Y-2940000D02*
X32032353Y-5688089D01*
X23190000Y-1340000D02*
X24790000Y-2940000D01*
%TO.N,/PB8*%
X31132853Y-5212853D02*
X31132853Y-6782402D01*
X31132853Y-6782402D02*
X30741467Y-7173788D01*
X22550000Y-3240000D02*
X29160000Y-3240000D01*
X29160000Y-3240000D02*
X31132853Y-5212853D01*
X20650000Y-1340000D02*
X22550000Y-3240000D01*
D35*
%TO.N,Net-(D1-A)*%
X2377500Y-1830000D02*
X1740000Y-1830000D01*
X2907500Y-1300000D02*
X2377500Y-1830000D01*
D37*
%TO.N,Net-(F1-Pad1)*%
X5290000Y-8640000D02*
X5310000Y-8620000D01*
X5310000Y-6220000D02*
X2640000Y-3550000D01*
X5310000Y-11120000D02*
X5310000Y-6220000D01*
X4720000Y-11710000D02*
X5310000Y-11120000D01*
X3710000Y-8640000D02*
X5290000Y-8640000D01*
X2640000Y-3550000D02*
X2140000Y-3550000D01*
X3680000Y-11710000D02*
X4720000Y-11710000D01*
D36*
%TO.N,/PA11*%
X32155681Y-11826551D02*
X35890000Y-15560870D01*
X35890000Y-15560870D02*
X35890000Y-18960000D01*
%TO.N,/PA12*%
X38430000Y-17393763D02*
X38430000Y-18960000D01*
X32509234Y-11472997D02*
X38430000Y-17393763D01*
%TD*%
%TA.AperFunction,Conductor*%
%TO.N,GND*%
G36*
X-140597Y-274207D02*
G01*
X-91953Y-324362D01*
X-78148Y-392854D01*
X-94294Y-444115D01*
X-108599Y-468893D01*
X-164365Y-640523D01*
X-183229Y-820000D01*
X-164365Y-999476D01*
X-116445Y-1146961D01*
X-108599Y-1171107D01*
X-18367Y-1327393D01*
X12665Y-1361857D01*
X102381Y-1461499D01*
X102384Y-1461501D01*
X102387Y-1461504D01*
X224210Y-1550014D01*
X248385Y-1567578D01*
X413242Y-1640978D01*
X413248Y-1640980D01*
X589768Y-1678500D01*
X589769Y-1678500D01*
X770230Y-1678500D01*
X770232Y-1678500D01*
X770233Y-1678499D01*
X774526Y-1678048D01*
X843257Y-1690610D01*
X894285Y-1738336D01*
X911500Y-1801366D01*
X911500Y-2029976D01*
X911501Y-2029999D01*
X914371Y-2066466D01*
X914371Y-2066467D01*
X959729Y-2222591D01*
X959730Y-2222594D01*
X959731Y-2222596D01*
X976343Y-2250686D01*
X1042492Y-2362538D01*
X1042498Y-2362546D01*
X1083413Y-2403460D01*
X1116899Y-2464783D01*
X1111915Y-2534474D01*
X1101273Y-2556237D01*
X1072883Y-2602265D01*
X1072881Y-2602269D01*
X1017113Y-2770570D01*
X1017113Y-2770571D01*
X1006500Y-2874447D01*
X1006500Y-4225537D01*
X1006501Y-4225553D01*
X1017113Y-4329427D01*
X1041236Y-4402225D01*
X1072885Y-4497738D01*
X1165970Y-4648652D01*
X1291348Y-4774030D01*
X1442262Y-4867115D01*
X1540147Y-4899550D01*
X1597592Y-4939322D01*
X1624416Y-5003838D01*
X1612101Y-5072614D01*
X1581916Y-5111340D01*
X1551472Y-5137476D01*
X1551468Y-5137479D01*
X1426981Y-5298304D01*
X1337411Y-5480906D01*
X1311754Y-5580000D01*
X2113889Y-5580000D01*
X2074390Y-5604457D01*
X2006799Y-5693962D01*
X1976105Y-5801840D01*
X1986454Y-5913521D01*
X2036448Y-6013922D01*
X2108931Y-6080000D01*
X1306634Y-6080000D01*
X1306931Y-6081946D01*
X1306933Y-6081952D01*
X1377562Y-6272657D01*
X1377565Y-6272664D01*
X1485149Y-6445267D01*
X1625264Y-6592668D01*
X1625266Y-6592669D01*
X1792195Y-6708856D01*
X1979092Y-6789059D01*
X2178310Y-6830000D01*
X2356000Y-6830000D01*
X2423039Y-6849685D01*
X2468794Y-6902489D01*
X2480000Y-6954000D01*
X2480000Y-7150000D01*
X3806000Y-7150000D01*
X3873039Y-7169685D01*
X3918794Y-7222489D01*
X3930000Y-7274000D01*
X3930000Y-7526000D01*
X3910315Y-7593039D01*
X3857511Y-7638794D01*
X3806000Y-7650000D01*
X2480000Y-7650000D01*
X2480000Y-7847844D01*
X2486401Y-7907372D01*
X2486403Y-7907380D01*
X2515169Y-7984506D01*
X2520153Y-8054198D01*
X2515169Y-8071172D01*
X2478011Y-8170796D01*
X2478011Y-8170797D01*
X2471500Y-8231345D01*
X2471500Y-9028654D01*
X2478010Y-9089197D01*
X2478012Y-9089207D01*
X2480796Y-9096670D01*
X2485778Y-9166362D01*
X2480796Y-9183330D01*
X2478012Y-9190792D01*
X2478010Y-9190802D01*
X2471500Y-9251345D01*
X2471500Y-10048654D01*
X2478010Y-10109197D01*
X2479796Y-10116755D01*
X2477822Y-10117221D01*
X2482046Y-10176374D01*
X2478839Y-10187291D01*
X2478010Y-10190802D01*
X2471500Y-10251345D01*
X2471500Y-11048654D01*
X2478010Y-11109197D01*
X2478012Y-11109207D01*
X2480796Y-11116670D01*
X2485778Y-11186362D01*
X2480796Y-11203330D01*
X2478012Y-11210792D01*
X2478010Y-11210802D01*
X2471500Y-11271345D01*
X2471500Y-12068654D01*
X2478010Y-12129201D01*
X2515169Y-12228826D01*
X2520153Y-12298518D01*
X2515169Y-12315492D01*
X2486403Y-12392616D01*
X2486401Y-12392627D01*
X2480000Y-12452155D01*
X2480000Y-12650000D01*
X4880000Y-12650000D01*
X4880000Y-12545769D01*
X4899685Y-12478730D01*
X4952489Y-12432975D01*
X4961571Y-12429254D01*
X4963521Y-12428543D01*
X4967409Y-12427128D01*
X4970709Y-12425981D01*
X5042738Y-12402114D01*
X5042744Y-12402110D01*
X5049284Y-12399061D01*
X5049305Y-12399106D01*
X5056302Y-12395719D01*
X5056280Y-12395675D01*
X5062728Y-12392436D01*
X5062732Y-12392435D01*
X5126103Y-12350753D01*
X5129110Y-12348837D01*
X5193651Y-12309030D01*
X5193656Y-12309024D01*
X5199319Y-12304548D01*
X5199350Y-12304587D01*
X5205374Y-12299680D01*
X5205342Y-12299642D01*
X5210864Y-12295006D01*
X5210874Y-12295001D01*
X5262963Y-12239788D01*
X5265374Y-12237305D01*
X5349821Y-12152858D01*
X5411143Y-12119376D01*
X5480834Y-12124360D01*
X5536768Y-12166232D01*
X5561184Y-12231697D01*
X5561500Y-12240542D01*
X5561500Y-12804456D01*
X5541815Y-12871495D01*
X5525181Y-12892137D01*
X5091681Y-13325637D01*
X5030358Y-13359122D01*
X4960666Y-13354138D01*
X4904733Y-13312266D01*
X4880316Y-13246802D01*
X4880000Y-13237956D01*
X4880000Y-13150000D01*
X2480000Y-13150000D01*
X2480000Y-13346000D01*
X2460315Y-13413039D01*
X2407511Y-13458794D01*
X2356000Y-13470000D01*
X2229287Y-13470000D01*
X2077661Y-13485418D01*
X1883618Y-13546299D01*
X1883608Y-13546304D01*
X1705784Y-13645005D01*
X1705783Y-13645005D01*
X1551469Y-13777478D01*
X1551468Y-13777479D01*
X1426981Y-13938304D01*
X1337411Y-14120906D01*
X1311754Y-14220000D01*
X2113889Y-14220000D01*
X2074390Y-14244457D01*
X2006799Y-14333962D01*
X1976105Y-14441840D01*
X1986454Y-14553521D01*
X2036448Y-14653922D01*
X2108931Y-14720000D01*
X1306634Y-14720000D01*
X1306931Y-14721946D01*
X1306933Y-14721952D01*
X1377562Y-14912657D01*
X1377565Y-14912664D01*
X1485149Y-15085267D01*
X1625264Y-15232668D01*
X1625266Y-15232669D01*
X1733214Y-15307803D01*
X1776992Y-15362257D01*
X1784381Y-15431735D01*
X1753035Y-15494178D01*
X1750058Y-15497259D01*
X1449122Y-15798195D01*
X1435495Y-15809973D01*
X1415941Y-15824531D01*
X1383713Y-15862938D01*
X1376421Y-15870897D01*
X1372420Y-15874898D01*
X1352983Y-15899479D01*
X1350710Y-15902269D01*
X1301967Y-15960360D01*
X1298001Y-15966391D01*
X1297963Y-15966366D01*
X1293782Y-15972928D01*
X1293821Y-15972952D01*
X1290035Y-15979088D01*
X1281693Y-15996978D01*
X1257967Y-16047855D01*
X1256412Y-16051068D01*
X1222391Y-16118810D01*
X1219923Y-16125593D01*
X1219878Y-16125576D01*
X1217322Y-16132932D01*
X1217366Y-16132947D01*
X1215096Y-16139793D01*
X1204463Y-16191289D01*
X1171627Y-16252962D01*
X1110661Y-16287093D01*
X1075888Y-16289636D01*
X1075887Y-16289862D01*
X1075866Y-16289861D01*
X1075863Y-16289948D01*
X1073568Y-16289851D01*
X999013Y-16289520D01*
X996988Y-16289512D01*
X996987Y-16289512D01*
X996982Y-16289512D01*
X993526Y-16289755D01*
X993519Y-16289755D01*
X993518Y-16289756D01*
X993516Y-16289756D01*
X989562Y-16290291D01*
X989496Y-16289806D01*
X972497Y-16291500D01*
X614510Y-16291500D01*
X577747Y-16294393D01*
X577741Y-16294394D01*
X420407Y-16340104D01*
X420397Y-16340108D01*
X382734Y-16362382D01*
X362026Y-16372171D01*
X281269Y-16401564D01*
X133125Y-16498999D01*
X11448Y-16627969D01*
X11444Y-16627974D01*
X-77208Y-16781525D01*
X-128062Y-16951389D01*
X-128063Y-16951395D01*
X-136882Y-17102817D01*
X-160431Y-17168599D01*
X-215806Y-17211206D01*
X-285426Y-17217111D01*
X-344207Y-17187247D01*
X-354148Y-17178185D01*
X-363050Y-17170070D01*
X-364999Y-17168253D01*
X-431654Y-17104697D01*
X-431657Y-17104694D01*
X-433399Y-17103575D01*
X-444520Y-17095029D01*
X-444544Y-17095062D01*
X-449123Y-17091604D01*
X-527673Y-17042967D01*
X-529433Y-17041857D01*
X-609742Y-16990246D01*
X-615001Y-16987535D01*
X-614968Y-16987470D01*
X-618488Y-16985692D01*
X-618649Y-16986016D01*
X-623787Y-16983457D01*
X-713117Y-16948851D01*
X-714409Y-16948343D01*
X-806278Y-16911564D01*
X-808239Y-16910988D01*
X-814320Y-16909540D01*
X-815340Y-16909250D01*
X-912983Y-16890996D01*
X-913663Y-16890867D01*
X-1014150Y-16871500D01*
X-1014151Y-16871500D01*
X-1017282Y-16871500D01*
X-1222718Y-16871500D01*
X-1222724Y-16871500D01*
X-1269386Y-16880222D01*
X-1280378Y-16881771D01*
X-1330735Y-16886580D01*
X-1330739Y-16886580D01*
X-1330739Y-16886581D01*
X-1358796Y-16894819D01*
X-1372654Y-16898888D01*
X-1384800Y-16901798D01*
X-1424649Y-16909247D01*
X-1424662Y-16909251D01*
X-1472134Y-16927641D01*
X-1481989Y-16930991D01*
X-1533860Y-16946222D01*
X-1569611Y-16964652D01*
X-1581629Y-16970059D01*
X-1616219Y-16983460D01*
X-1616220Y-16983460D01*
X-1662460Y-17012091D01*
X-1670915Y-17016878D01*
X-1722023Y-17043226D01*
X-1750918Y-17065949D01*
X-1762286Y-17073901D01*
X-1790885Y-17091609D01*
X-1833625Y-17130571D01*
X-1840506Y-17136400D01*
X-1888435Y-17174093D01*
X-1910237Y-17199253D01*
X-1920402Y-17209678D01*
X-1942699Y-17230006D01*
X-1979634Y-17278915D01*
X-1984873Y-17285387D01*
X-2027064Y-17334079D01*
X-2041986Y-17359925D01*
X-2050413Y-17372641D01*
X-2066503Y-17393950D01*
X-2066504Y-17393951D01*
X-2066504Y-17393952D01*
X-2066509Y-17393960D01*
X-2095368Y-17451914D01*
X-2098978Y-17458637D01*
X-2132912Y-17517414D01*
X-2141536Y-17542331D01*
X-2147712Y-17557036D01*
X-2158072Y-17577842D01*
X-2158077Y-17577856D01*
X-2176744Y-17643459D01*
X-2178828Y-17650077D01*
X-2202154Y-17717475D01*
X-2205413Y-17740137D01*
X-2208881Y-17756409D01*
X-2214294Y-17775437D01*
X-2220907Y-17846796D01*
X-2221640Y-17852999D01*
X-2232281Y-17927010D01*
X-2232281Y-17927015D01*
X-2231357Y-17946434D01*
X-2231745Y-17963766D01*
X-2233249Y-17980003D01*
X-2226321Y-18054776D01*
X-2225933Y-18060313D01*
X-2222209Y-18138470D01*
X-2222208Y-18138475D01*
X-2218445Y-18153986D01*
X-2215479Y-18171774D01*
X-2214294Y-18184559D01*
X-2197799Y-18242535D01*
X-2192800Y-18260102D01*
X-2191562Y-18264802D01*
X-2172299Y-18344201D01*
X-2172298Y-18344206D01*
X-2167109Y-18355568D01*
X-2160641Y-18373134D01*
X-2158078Y-18382141D01*
X-2158072Y-18382157D01*
X-2121524Y-18455554D01*
X-2119730Y-18459314D01*
X-2084359Y-18536765D01*
X-2084353Y-18536776D01*
X-2079121Y-18544123D01*
X-2069132Y-18560771D01*
X-2066504Y-18566048D01*
X-2066502Y-18566052D01*
X-2015011Y-18634236D01*
X-2012958Y-18637035D01*
X-1961557Y-18709218D01*
X-1961555Y-18709219D01*
X-1957541Y-18713047D01*
X-1944163Y-18728057D01*
X-1942708Y-18729983D01*
X-1942705Y-18729987D01*
X-1942702Y-18729989D01*
X-1942701Y-18729991D01*
X-1876960Y-18789922D01*
X-1874967Y-18791780D01*
X-1808346Y-18855303D01*
X-1806602Y-18856424D01*
X-1795481Y-18864970D01*
X-1795456Y-18864938D01*
X-1790881Y-18868393D01*
X-1712315Y-18917039D01*
X-1710598Y-18918122D01*
X-1630254Y-18969756D01*
X-1630252Y-18969757D01*
X-1625000Y-18972465D01*
X-1625034Y-18972529D01*
X-1621512Y-18974308D01*
X-1621350Y-18973984D01*
X-1616227Y-18976534D01*
X-1616218Y-18976540D01*
X-1567667Y-18995348D01*
X-1526840Y-19011164D01*
X-1525612Y-19011647D01*
X-1499813Y-19021976D01*
X-1433722Y-19048436D01*
X-1431753Y-19049013D01*
X-1425660Y-19050465D01*
X-1424661Y-19050749D01*
X-1424660Y-19050749D01*
X-1424655Y-19050751D01*
X-1326828Y-19069037D01*
X-1326717Y-19069058D01*
X-1225849Y-19088500D01*
X-1225844Y-19088500D01*
X-1017284Y-19088500D01*
X-1017282Y-19088500D01*
X-970603Y-19079773D01*
X-959651Y-19078229D01*
X-909261Y-19073419D01*
X-867349Y-19061112D01*
X-855214Y-19058203D01*
X-815345Y-19050751D01*
X-767873Y-19032360D01*
X-758014Y-19029009D01*
X-716383Y-19016785D01*
X-706138Y-19013777D01*
X-693606Y-19007315D01*
X-670391Y-18995348D01*
X-658366Y-18989937D01*
X-623782Y-18976540D01*
X-577543Y-18947909D01*
X-569081Y-18943118D01*
X-520651Y-18918151D01*
X-517974Y-18916771D01*
X-489078Y-18894046D01*
X-477718Y-18886099D01*
X-449118Y-18868392D01*
X-406367Y-18829417D01*
X-399506Y-18823606D01*
X-351568Y-18785908D01*
X-329769Y-18760749D01*
X-319595Y-18750316D01*
X-313556Y-18744809D01*
X-297299Y-18729991D01*
X-260346Y-18681055D01*
X-255136Y-18674618D01*
X-212935Y-18625918D01*
X-198011Y-18600066D01*
X-189592Y-18587361D01*
X-173497Y-18566050D01*
X-144636Y-18508088D01*
X-141023Y-18501360D01*
X-137618Y-18495463D01*
X-114966Y-18456227D01*
X-64399Y-18408012D01*
X4208Y-18394789D01*
X69073Y-18420757D01*
X99153Y-18455107D01*
X170278Y-18575374D01*
X170285Y-18575383D01*
X284616Y-18689714D01*
X284625Y-18689721D01*
X423804Y-18772031D01*
X579089Y-18817145D01*
X600000Y-18818789D01*
X600000Y-17992500D01*
X619685Y-17925461D01*
X672489Y-17879706D01*
X724000Y-17868500D01*
X1009582Y-17868500D01*
X1019611Y-17868906D01*
X1022141Y-17869111D01*
X1058761Y-17872083D01*
X1175514Y-17864855D01*
X1204443Y-17866456D01*
X1301781Y-17883411D01*
X1323831Y-17889389D01*
X1330799Y-17891989D01*
X1391345Y-17898499D01*
X1391362Y-17898500D01*
X2066000Y-17898500D01*
X2133039Y-17918185D01*
X2178794Y-17970989D01*
X2190000Y-18022500D01*
X2190000Y-18057500D01*
X2170315Y-18124539D01*
X2117511Y-18170294D01*
X2066000Y-18181500D01*
X1391345Y-18181500D01*
X1330797Y-18188011D01*
X1330795Y-18188011D01*
X1193795Y-18239111D01*
X1158856Y-18265267D01*
X1104434Y-18285565D01*
X1085198Y-18304801D01*
X1080315Y-18321433D01*
X1075267Y-18328704D01*
X989112Y-18443793D01*
X989111Y-18443793D01*
X938011Y-18580795D01*
X938011Y-18580797D01*
X931500Y-18641345D01*
X931500Y-19338654D01*
X938011Y-19399202D01*
X938011Y-19399204D01*
X970478Y-19486248D01*
X989111Y-19536204D01*
X1076739Y-19653261D01*
X1193796Y-19740889D01*
X1330799Y-19791989D01*
X1358050Y-19794918D01*
X1391345Y-19798499D01*
X1391362Y-19798500D01*
X2369793Y-19798500D01*
X2377939Y-19798768D01*
X2382528Y-19799069D01*
X2382540Y-19799071D01*
X2406190Y-19798542D01*
X2406701Y-19798531D01*
X2409471Y-19798500D01*
X2488638Y-19798500D01*
X2488649Y-19798499D01*
X2504555Y-19796789D01*
X2515037Y-19796109D01*
X2528661Y-19795805D01*
X2802371Y-19750187D01*
X2822756Y-19748500D01*
X2877706Y-19748500D01*
X2895676Y-19749809D01*
X2898174Y-19750174D01*
X2919789Y-19753341D01*
X2969727Y-19748971D01*
X2980534Y-19748500D01*
X2986175Y-19748500D01*
X2986180Y-19748500D01*
X3017370Y-19744853D01*
X3020851Y-19744498D01*
X3071822Y-19740039D01*
X3096418Y-19737888D01*
X3096420Y-19737887D01*
X3096426Y-19737887D01*
X3096431Y-19737885D01*
X3103493Y-19736427D01*
X3103502Y-19736474D01*
X3111097Y-19734790D01*
X3111087Y-19734744D01*
X3118108Y-19733079D01*
X3118113Y-19733079D01*
X3189414Y-19707126D01*
X3192708Y-19705981D01*
X3264738Y-19682114D01*
X3264744Y-19682110D01*
X3271284Y-19679061D01*
X3271305Y-19679106D01*
X3278302Y-19675719D01*
X3278280Y-19675675D01*
X3284728Y-19672436D01*
X3284732Y-19672435D01*
X3348103Y-19630753D01*
X3351110Y-19628837D01*
X3415651Y-19589030D01*
X3415656Y-19589024D01*
X3421319Y-19584548D01*
X3421350Y-19584587D01*
X3427374Y-19579680D01*
X3427342Y-19579642D01*
X3432862Y-19575008D01*
X3432874Y-19575001D01*
X3435039Y-19572705D01*
X3436917Y-19571607D01*
X3438411Y-19570355D01*
X3438624Y-19570609D01*
X3495360Y-19537448D01*
X3565167Y-19540400D01*
X3622297Y-19580623D01*
X3624486Y-19583460D01*
X3676739Y-19653261D01*
X3793796Y-19740889D01*
X3930799Y-19791989D01*
X3958050Y-19794918D01*
X3991345Y-19798499D01*
X3991362Y-19798500D01*
X5088638Y-19798500D01*
X5088654Y-19798499D01*
X5115692Y-19795591D01*
X5149201Y-19791989D01*
X5286204Y-19740889D01*
X5403261Y-19653261D01*
X5490889Y-19536204D01*
X5541989Y-19399201D01*
X5545591Y-19365692D01*
X5548499Y-19338654D01*
X5548500Y-19338637D01*
X5548500Y-18641362D01*
X5548499Y-18641345D01*
X5544062Y-18600082D01*
X5541989Y-18580799D01*
X5537621Y-18569089D01*
X5513594Y-18504670D01*
X5490889Y-18443796D01*
X5414732Y-18342063D01*
X5398475Y-18298475D01*
X5387732Y-18287732D01*
X5328416Y-18270315D01*
X5321144Y-18265267D01*
X5314244Y-18260102D01*
X5286204Y-18239111D01*
X5267056Y-18231969D01*
X5149203Y-18188011D01*
X5088654Y-18181500D01*
X5088638Y-18181500D01*
X4142500Y-18181500D01*
X4075461Y-18161815D01*
X4029706Y-18109011D01*
X4018500Y-18057500D01*
X4018500Y-18022500D01*
X4038185Y-17955461D01*
X4090989Y-17909706D01*
X4142500Y-17898500D01*
X5088638Y-17898500D01*
X5088654Y-17898499D01*
X5126560Y-17894423D01*
X5149201Y-17891989D01*
X5246171Y-17855819D01*
X5315860Y-17850834D01*
X5324082Y-17852920D01*
X5367746Y-17865606D01*
X5404516Y-17868500D01*
X5404522Y-17868500D01*
X5766000Y-17868500D01*
X5833039Y-17888185D01*
X5878794Y-17940989D01*
X5890000Y-17992500D01*
X5890000Y-18818789D01*
X5910910Y-18817145D01*
X6066195Y-18772031D01*
X6205374Y-18689721D01*
X6205383Y-18689714D01*
X6319714Y-18575383D01*
X6319721Y-18575374D01*
X6360768Y-18505968D01*
X6411837Y-18458285D01*
X6480579Y-18445781D01*
X6545168Y-18472426D01*
X6585098Y-18529762D01*
X6591500Y-18569089D01*
X6591500Y-19858651D01*
X6597532Y-19914743D01*
X6585128Y-19983503D01*
X6537518Y-20034641D01*
X6474243Y-20052000D01*
X-21519Y-20052000D01*
X-28472Y-20051805D01*
X-325894Y-20035102D01*
X-339712Y-20033545D01*
X-629954Y-19984230D01*
X-643511Y-19981136D01*
X-926414Y-19899633D01*
X-939538Y-19895040D01*
X-1211528Y-19782379D01*
X-1224057Y-19776346D01*
X-1481727Y-19633936D01*
X-1493501Y-19626538D01*
X-1733605Y-19456176D01*
X-1744477Y-19447506D01*
X-1963998Y-19251330D01*
X-1973831Y-19241497D01*
X-2024885Y-19184368D01*
X-2170007Y-19021976D01*
X-2178677Y-19011104D01*
X-2349039Y-18771000D01*
X-2356437Y-18759226D01*
X-2416839Y-18649938D01*
X-2498851Y-18501549D01*
X-2504880Y-18489027D01*
X-2617541Y-18217037D01*
X-2622134Y-18203913D01*
X-2691319Y-17963766D01*
X-2703638Y-17921008D01*
X-2706731Y-17907453D01*
X-2707110Y-17905222D01*
X-2756047Y-17617203D01*
X-2757603Y-17603400D01*
X-2774305Y-17305971D01*
X-2774500Y-17299019D01*
X-2774500Y-14720000D01*
X-2493366Y-14720000D01*
X-2493069Y-14721946D01*
X-2493067Y-14721952D01*
X-2422438Y-14912657D01*
X-2422435Y-14912664D01*
X-2314851Y-15085267D01*
X-2174736Y-15232668D01*
X-2174734Y-15232669D01*
X-2007805Y-15348856D01*
X-1820908Y-15429059D01*
X-1621690Y-15470000D01*
X-1370000Y-15470000D01*
X-1370000Y-14770000D01*
X-870000Y-14770000D01*
X-870000Y-15470000D01*
X-669287Y-15470000D01*
X-517662Y-15454581D01*
X-323619Y-15393700D01*
X-323609Y-15393695D01*
X-145785Y-15294994D01*
X-145784Y-15294994D01*
X8530Y-15162521D01*
X8531Y-15162520D01*
X133018Y-15001695D01*
X222588Y-14819093D01*
X248246Y-14720000D01*
X-553889Y-14720000D01*
X-514390Y-14695543D01*
X-446799Y-14606038D01*
X-416105Y-14498160D01*
X-426454Y-14386479D01*
X-476448Y-14286078D01*
X-548931Y-14220000D01*
X253366Y-14220000D01*
X253068Y-14218053D01*
X253066Y-14218047D01*
X182437Y-14027342D01*
X182434Y-14027335D01*
X74850Y-13854732D01*
X-65265Y-13707331D01*
X-65267Y-13707330D01*
X-232196Y-13591143D01*
X-419093Y-13510940D01*
X-618310Y-13470000D01*
X-870000Y-13470000D01*
X-870000Y-14170000D01*
X-1370000Y-14170000D01*
X-1370000Y-13470000D01*
X-1570713Y-13470000D01*
X-1722339Y-13485418D01*
X-1916382Y-13546299D01*
X-1916392Y-13546304D01*
X-2094216Y-13645005D01*
X-2094217Y-13645005D01*
X-2248531Y-13777478D01*
X-2248532Y-13777479D01*
X-2373019Y-13938304D01*
X-2462589Y-14120906D01*
X-2488246Y-14220000D01*
X-1686111Y-14220000D01*
X-1725610Y-14244457D01*
X-1793201Y-14333962D01*
X-1823895Y-14441840D01*
X-1813546Y-14553521D01*
X-1763552Y-14653922D01*
X-1691069Y-14720000D01*
X-2493366Y-14720000D01*
X-2774500Y-14720000D01*
X-2774500Y-6080000D01*
X-2493366Y-6080000D01*
X-2493069Y-6081946D01*
X-2493067Y-6081952D01*
X-2422438Y-6272657D01*
X-2422435Y-6272664D01*
X-2314851Y-6445267D01*
X-2174736Y-6592668D01*
X-2174734Y-6592669D01*
X-2007805Y-6708856D01*
X-1820908Y-6789059D01*
X-1621690Y-6830000D01*
X-1370000Y-6830000D01*
X-1370000Y-6130000D01*
X-870000Y-6130000D01*
X-870000Y-6830000D01*
X-669287Y-6830000D01*
X-517662Y-6814581D01*
X-323619Y-6753700D01*
X-323609Y-6753695D01*
X-145785Y-6654994D01*
X-145784Y-6654994D01*
X8530Y-6522521D01*
X8531Y-6522520D01*
X133018Y-6361695D01*
X222588Y-6179093D01*
X248246Y-6080000D01*
X-553889Y-6080000D01*
X-514390Y-6055543D01*
X-446799Y-5966038D01*
X-416105Y-5858160D01*
X-426454Y-5746479D01*
X-476448Y-5646078D01*
X-548931Y-5580000D01*
X253366Y-5580000D01*
X253068Y-5578053D01*
X253066Y-5578047D01*
X182437Y-5387342D01*
X182434Y-5387335D01*
X74850Y-5214732D01*
X-65265Y-5067331D01*
X-65267Y-5067330D01*
X-232196Y-4951143D01*
X-419093Y-4870940D01*
X-618310Y-4830000D01*
X-870000Y-4830000D01*
X-870000Y-5530000D01*
X-1370000Y-5530000D01*
X-1370000Y-4830000D01*
X-1570713Y-4830000D01*
X-1722339Y-4845418D01*
X-1916382Y-4906299D01*
X-1916392Y-4906304D01*
X-2094216Y-5005005D01*
X-2094217Y-5005005D01*
X-2248531Y-5137478D01*
X-2248532Y-5137479D01*
X-2373019Y-5298304D01*
X-2462589Y-5480906D01*
X-2488246Y-5580000D01*
X-1686111Y-5580000D01*
X-1725610Y-5604457D01*
X-1793201Y-5693962D01*
X-1823895Y-5801840D01*
X-1813546Y-5913521D01*
X-1763552Y-6013922D01*
X-1691069Y-6080000D01*
X-2493366Y-6080000D01*
X-2774500Y-6080000D01*
X-2774500Y-3000980D01*
X-2774305Y-2994028D01*
X-2772070Y-2954236D01*
X-2757602Y-2696597D01*
X-2756048Y-2682798D01*
X-2706731Y-2392541D01*
X-2703637Y-2378989D01*
X-2698897Y-2362538D01*
X-2680881Y-2300003D01*
X-2233249Y-2300003D01*
X-2226321Y-2374776D01*
X-2225933Y-2380313D01*
X-2222209Y-2458470D01*
X-2222208Y-2458475D01*
X-2218445Y-2473986D01*
X-2215479Y-2491774D01*
X-2214294Y-2504559D01*
X-2194836Y-2572949D01*
X-2192800Y-2580102D01*
X-2191562Y-2584802D01*
X-2172299Y-2664201D01*
X-2172298Y-2664206D01*
X-2167109Y-2675568D01*
X-2160641Y-2693134D01*
X-2158078Y-2702141D01*
X-2158072Y-2702157D01*
X-2121524Y-2775554D01*
X-2119730Y-2779314D01*
X-2084359Y-2856765D01*
X-2084353Y-2856776D01*
X-2079121Y-2864123D01*
X-2069132Y-2880771D01*
X-2066504Y-2886048D01*
X-2066502Y-2886052D01*
X-2045806Y-2913457D01*
X-2027626Y-2937532D01*
X-2015011Y-2954236D01*
X-2012958Y-2957035D01*
X-1961557Y-3029218D01*
X-1961555Y-3029219D01*
X-1957541Y-3033047D01*
X-1944163Y-3048057D01*
X-1942708Y-3049983D01*
X-1942705Y-3049987D01*
X-1942702Y-3049989D01*
X-1942701Y-3049991D01*
X-1876960Y-3109922D01*
X-1874967Y-3111780D01*
X-1808346Y-3175303D01*
X-1806602Y-3176424D01*
X-1795481Y-3184970D01*
X-1795456Y-3184938D01*
X-1790881Y-3188393D01*
X-1712315Y-3237039D01*
X-1710598Y-3238122D01*
X-1630254Y-3289756D01*
X-1630252Y-3289757D01*
X-1625000Y-3292465D01*
X-1625034Y-3292529D01*
X-1621512Y-3294308D01*
X-1621350Y-3293984D01*
X-1616227Y-3296534D01*
X-1616218Y-3296540D01*
X-1567667Y-3315348D01*
X-1526840Y-3331164D01*
X-1525612Y-3331647D01*
X-1482246Y-3349009D01*
X-1433722Y-3368436D01*
X-1431753Y-3369013D01*
X-1425660Y-3370465D01*
X-1424661Y-3370749D01*
X-1424660Y-3370749D01*
X-1424655Y-3370751D01*
X-1326828Y-3389037D01*
X-1326717Y-3389058D01*
X-1225849Y-3408500D01*
X-1225844Y-3408500D01*
X-1017284Y-3408500D01*
X-1017282Y-3408500D01*
X-970603Y-3399773D01*
X-959651Y-3398229D01*
X-909261Y-3393419D01*
X-867349Y-3381112D01*
X-855214Y-3378203D01*
X-815345Y-3370751D01*
X-767873Y-3352360D01*
X-758014Y-3349009D01*
X-727128Y-3339939D01*
X-706138Y-3333777D01*
X-693606Y-3327315D01*
X-670391Y-3315348D01*
X-658366Y-3309937D01*
X-623782Y-3296540D01*
X-577543Y-3267909D01*
X-569081Y-3263118D01*
X-520651Y-3238151D01*
X-517974Y-3236771D01*
X-489078Y-3214046D01*
X-477718Y-3206099D01*
X-449118Y-3188392D01*
X-406367Y-3149417D01*
X-399506Y-3143606D01*
X-351568Y-3105908D01*
X-329769Y-3080749D01*
X-319595Y-3070316D01*
X-313556Y-3064809D01*
X-297299Y-3049991D01*
X-260346Y-3001055D01*
X-255136Y-2994618D01*
X-212935Y-2945918D01*
X-198011Y-2920066D01*
X-189592Y-2907361D01*
X-173497Y-2886050D01*
X-144636Y-2828088D01*
X-141023Y-2821360D01*
X-107087Y-2762582D01*
X-98463Y-2737661D01*
X-92291Y-2722965D01*
X-81926Y-2702152D01*
X-63255Y-2636527D01*
X-61173Y-2629921D01*
X-54228Y-2609854D01*
X-37847Y-2562527D01*
X-34588Y-2539857D01*
X-31122Y-2523590D01*
X-25706Y-2504559D01*
X-19094Y-2433199D01*
X-18362Y-2427003D01*
X-14513Y-2400239D01*
X-7719Y-2352984D01*
X-8644Y-2333576D01*
X-8257Y-2316238D01*
X-6751Y-2300000D01*
X-13682Y-2225214D01*
X-14070Y-2219679D01*
X-14480Y-2211078D01*
X-17792Y-2141526D01*
X-21559Y-2126002D01*
X-24522Y-2108229D01*
X-25706Y-2095441D01*
X-47217Y-2019840D01*
X-48444Y-2015182D01*
X-48622Y-2014447D01*
X-67702Y-1935796D01*
X-72893Y-1924430D01*
X-79364Y-1906853D01*
X-81924Y-1897856D01*
X-81926Y-1897848D01*
X-118489Y-1824421D01*
X-120284Y-1820659D01*
X-129095Y-1801366D01*
X-155644Y-1743229D01*
X-160879Y-1735877D01*
X-170871Y-1719224D01*
X-173497Y-1713950D01*
X-224998Y-1645752D01*
X-227044Y-1642963D01*
X-228456Y-1640980D01*
X-278441Y-1570785D01*
X-281804Y-1567578D01*
X-282454Y-1566958D01*
X-295847Y-1551931D01*
X-297292Y-1550018D01*
X-297295Y-1550014D01*
X-297296Y-1550013D01*
X-297299Y-1550009D01*
X-363087Y-1490036D01*
X-364998Y-1488253D01*
X-431654Y-1424697D01*
X-431657Y-1424694D01*
X-433399Y-1423575D01*
X-444520Y-1415029D01*
X-444544Y-1415062D01*
X-449123Y-1411604D01*
X-527673Y-1362967D01*
X-529433Y-1361857D01*
X-609742Y-1310246D01*
X-615001Y-1307535D01*
X-614968Y-1307470D01*
X-618488Y-1305692D01*
X-618649Y-1306016D01*
X-623787Y-1303457D01*
X-713117Y-1268851D01*
X-714409Y-1268343D01*
X-806278Y-1231564D01*
X-808239Y-1230988D01*
X-814320Y-1229540D01*
X-815340Y-1229250D01*
X-912983Y-1210996D01*
X-913663Y-1210867D01*
X-1014150Y-1191500D01*
X-1014151Y-1191500D01*
X-1017282Y-1191500D01*
X-1222718Y-1191500D01*
X-1222724Y-1191500D01*
X-1269386Y-1200222D01*
X-1280378Y-1201771D01*
X-1330735Y-1206580D01*
X-1330739Y-1206580D01*
X-1330739Y-1206581D01*
X-1372654Y-1218888D01*
X-1384800Y-1221798D01*
X-1424649Y-1229247D01*
X-1424662Y-1229251D01*
X-1472134Y-1247641D01*
X-1481989Y-1250991D01*
X-1533860Y-1266222D01*
X-1569611Y-1284652D01*
X-1581629Y-1290059D01*
X-1616219Y-1303460D01*
X-1616220Y-1303460D01*
X-1662460Y-1332091D01*
X-1670915Y-1336878D01*
X-1722023Y-1363226D01*
X-1750918Y-1385949D01*
X-1762286Y-1393901D01*
X-1790885Y-1411609D01*
X-1833625Y-1450571D01*
X-1840506Y-1456400D01*
X-1888435Y-1494093D01*
X-1910237Y-1519253D01*
X-1920402Y-1529678D01*
X-1942699Y-1550006D01*
X-1979634Y-1598915D01*
X-1984873Y-1605387D01*
X-2027064Y-1654079D01*
X-2041986Y-1679925D01*
X-2050413Y-1692641D01*
X-2066503Y-1713950D01*
X-2066504Y-1713951D01*
X-2066504Y-1713952D01*
X-2066509Y-1713960D01*
X-2095368Y-1771914D01*
X-2098978Y-1778637D01*
X-2132912Y-1837414D01*
X-2132913Y-1837418D01*
X-2141446Y-1862072D01*
X-2141536Y-1862331D01*
X-2147712Y-1877036D01*
X-2158072Y-1897842D01*
X-2158077Y-1897856D01*
X-2176744Y-1963459D01*
X-2178828Y-1970077D01*
X-2202154Y-2037475D01*
X-2205413Y-2060137D01*
X-2208881Y-2076409D01*
X-2214294Y-2095437D01*
X-2220907Y-2166796D01*
X-2221640Y-2172999D01*
X-2232281Y-2247010D01*
X-2232281Y-2247015D01*
X-2231357Y-2266434D01*
X-2231746Y-2283766D01*
X-2233174Y-2299198D01*
X-2233249Y-2300003D01*
X-2680881Y-2300003D01*
X-2622133Y-2096082D01*
X-2617541Y-2082962D01*
X-2581385Y-1995673D01*
X-2504877Y-1810963D01*
X-2498855Y-1798457D01*
X-2356434Y-1540767D01*
X-2349039Y-1528999D01*
X-2342497Y-1519779D01*
X-2178670Y-1288885D01*
X-2170015Y-1278031D01*
X-1973821Y-1058491D01*
X-1964009Y-1048679D01*
X-1744469Y-852485D01*
X-1733615Y-843830D01*
X-1493496Y-673457D01*
X-1481733Y-666066D01*
X-1224043Y-523645D01*
X-1211537Y-517623D01*
X-939538Y-404959D01*
X-926418Y-400367D01*
X-643506Y-318861D01*
X-629959Y-315769D01*
X-339702Y-266452D01*
X-325905Y-264898D01*
X-208634Y-258312D01*
X-140597Y-274207D01*
G37*
%TD.AperFunction*%
%TA.AperFunction,Conductor*%
G36*
X42045198Y-12031523D02*
G01*
X42801609Y-12408594D01*
X42852822Y-12456117D01*
X42870213Y-12523788D01*
X42848258Y-12590119D01*
X42793927Y-12634049D01*
X42789622Y-12635747D01*
X42753796Y-12649110D01*
X42636739Y-12736739D01*
X42549111Y-12853795D01*
X42498011Y-12990795D01*
X42498011Y-12990797D01*
X42491500Y-13051345D01*
X42491500Y-14848654D01*
X42498011Y-14909202D01*
X42498011Y-14909204D01*
X42533923Y-15005484D01*
X42549111Y-15046204D01*
X42636739Y-15163261D01*
X42753796Y-15250889D01*
X42890799Y-15301989D01*
X42918050Y-15304918D01*
X42951345Y-15308499D01*
X42951362Y-15308500D01*
X44748638Y-15308500D01*
X44748654Y-15308499D01*
X44809201Y-15301989D01*
X44809204Y-15301988D01*
X44877166Y-15276638D01*
X44946856Y-15271653D01*
X45008180Y-15305137D01*
X45041666Y-15366460D01*
X45044500Y-15392820D01*
X45044500Y-17299019D01*
X45044305Y-17305972D01*
X45027602Y-17603393D01*
X45026045Y-17617211D01*
X44976730Y-17907453D01*
X44973636Y-17921010D01*
X44892133Y-18203913D01*
X44887540Y-18217037D01*
X44774879Y-18489027D01*
X44768846Y-18501556D01*
X44626436Y-18759226D01*
X44619038Y-18771000D01*
X44448676Y-19011104D01*
X44440006Y-19021976D01*
X44243830Y-19241497D01*
X44233997Y-19251330D01*
X44014476Y-19447506D01*
X44003604Y-19456176D01*
X43763500Y-19626538D01*
X43751726Y-19633936D01*
X43494056Y-19776346D01*
X43481527Y-19782379D01*
X43209537Y-19895040D01*
X43196413Y-19899633D01*
X42913510Y-19981136D01*
X42899953Y-19984230D01*
X42609711Y-20033545D01*
X42595893Y-20035102D01*
X42298472Y-20051805D01*
X42291519Y-20052000D01*
X42093916Y-20052000D01*
X42026877Y-20032315D01*
X41981122Y-19979511D01*
X41971178Y-19910353D01*
X42000203Y-19846797D01*
X42002686Y-19844017D01*
X42013675Y-19832080D01*
X42045722Y-19797268D01*
X42168860Y-19608791D01*
X42259296Y-19402616D01*
X42314564Y-19184368D01*
X42323231Y-19079778D01*
X42333156Y-18960005D01*
X42333156Y-18959994D01*
X42319138Y-18790833D01*
X42318568Y-18783953D01*
X42332648Y-18715518D01*
X42381493Y-18665559D01*
X42449595Y-18649938D01*
X42515330Y-18673615D01*
X42543147Y-18701781D01*
X42548441Y-18709215D01*
X42548442Y-18709216D01*
X42548443Y-18709217D01*
X42548445Y-18709219D01*
X42552459Y-18713047D01*
X42565837Y-18728057D01*
X42567292Y-18729983D01*
X42567295Y-18729987D01*
X42567298Y-18729989D01*
X42567299Y-18729991D01*
X42633040Y-18789922D01*
X42635033Y-18791780D01*
X42701654Y-18855303D01*
X42703398Y-18856424D01*
X42714519Y-18864970D01*
X42714544Y-18864938D01*
X42719119Y-18868393D01*
X42797685Y-18917039D01*
X42799402Y-18918122D01*
X42879746Y-18969756D01*
X42879748Y-18969757D01*
X42885000Y-18972465D01*
X42884966Y-18972529D01*
X42888488Y-18974308D01*
X42888650Y-18973984D01*
X42893773Y-18976534D01*
X42893782Y-18976540D01*
X42942333Y-18995348D01*
X42983160Y-19011164D01*
X42984388Y-19011647D01*
X43010187Y-19021976D01*
X43076278Y-19048436D01*
X43078247Y-19049013D01*
X43084340Y-19050465D01*
X43085339Y-19050749D01*
X43085340Y-19050749D01*
X43085345Y-19050751D01*
X43183172Y-19069037D01*
X43183283Y-19069058D01*
X43284151Y-19088500D01*
X43284156Y-19088500D01*
X43492716Y-19088500D01*
X43492718Y-19088500D01*
X43539397Y-19079773D01*
X43550349Y-19078229D01*
X43600739Y-19073419D01*
X43642651Y-19061112D01*
X43654786Y-19058203D01*
X43694655Y-19050751D01*
X43742127Y-19032360D01*
X43751986Y-19029009D01*
X43793617Y-19016785D01*
X43803862Y-19013777D01*
X43816394Y-19007315D01*
X43839609Y-18995348D01*
X43851634Y-18989937D01*
X43886218Y-18976540D01*
X43932457Y-18947909D01*
X43940919Y-18943118D01*
X43989349Y-18918151D01*
X43992026Y-18916771D01*
X44020922Y-18894046D01*
X44032282Y-18886099D01*
X44060882Y-18868392D01*
X44103633Y-18829417D01*
X44110494Y-18823606D01*
X44158432Y-18785908D01*
X44180231Y-18760749D01*
X44190405Y-18750316D01*
X44196444Y-18744809D01*
X44212701Y-18729991D01*
X44249654Y-18681055D01*
X44254864Y-18674618D01*
X44297065Y-18625918D01*
X44311989Y-18600066D01*
X44320408Y-18587361D01*
X44336503Y-18566050D01*
X44365364Y-18508088D01*
X44368977Y-18501360D01*
X44372382Y-18495463D01*
X44402913Y-18442582D01*
X44411537Y-18417661D01*
X44417709Y-18402965D01*
X44428074Y-18382152D01*
X44446745Y-18316527D01*
X44448827Y-18309921D01*
X44472150Y-18242535D01*
X44472153Y-18242527D01*
X44475412Y-18219857D01*
X44478878Y-18203590D01*
X44484294Y-18184559D01*
X44490906Y-18113199D01*
X44491638Y-18107003D01*
X44498201Y-18061362D01*
X44502281Y-18032984D01*
X44501356Y-18013578D01*
X44501743Y-17996238D01*
X44503249Y-17980000D01*
X44496318Y-17905214D01*
X44495930Y-17899679D01*
X44494464Y-17868906D01*
X44492208Y-17821526D01*
X44488441Y-17806002D01*
X44485478Y-17788229D01*
X44484294Y-17775441D01*
X44462783Y-17699840D01*
X44461556Y-17695182D01*
X44442298Y-17615796D01*
X44437107Y-17604430D01*
X44430636Y-17586853D01*
X44428076Y-17577856D01*
X44428074Y-17577848D01*
X44391511Y-17504421D01*
X44389716Y-17500659D01*
X44373811Y-17465832D01*
X44354356Y-17423229D01*
X44349121Y-17415877D01*
X44339129Y-17399224D01*
X44336503Y-17393950D01*
X44314299Y-17364548D01*
X44285010Y-17325763D01*
X44282956Y-17322963D01*
X44270856Y-17305971D01*
X44231559Y-17250785D01*
X44231554Y-17250780D01*
X44227546Y-17246958D01*
X44214153Y-17231931D01*
X44212708Y-17230018D01*
X44212705Y-17230014D01*
X44212704Y-17230013D01*
X44212701Y-17230009D01*
X44146913Y-17170036D01*
X44145002Y-17168253D01*
X44078346Y-17104697D01*
X44078343Y-17104694D01*
X44076601Y-17103575D01*
X44065480Y-17095029D01*
X44065456Y-17095062D01*
X44060877Y-17091604D01*
X43982327Y-17042967D01*
X43980567Y-17041857D01*
X43900258Y-16990246D01*
X43894999Y-16987535D01*
X43895032Y-16987470D01*
X43891512Y-16985692D01*
X43891351Y-16986016D01*
X43886213Y-16983457D01*
X43796883Y-16948851D01*
X43795591Y-16948343D01*
X43703722Y-16911564D01*
X43701761Y-16910988D01*
X43695680Y-16909540D01*
X43694660Y-16909250D01*
X43597017Y-16890996D01*
X43596337Y-16890867D01*
X43495850Y-16871500D01*
X43495849Y-16871500D01*
X43492718Y-16871500D01*
X43287282Y-16871500D01*
X43287276Y-16871500D01*
X43240614Y-16880222D01*
X43229622Y-16881771D01*
X43179265Y-16886580D01*
X43179261Y-16886580D01*
X43179261Y-16886581D01*
X43151204Y-16894819D01*
X43137346Y-16898888D01*
X43125200Y-16901798D01*
X43085351Y-16909247D01*
X43085338Y-16909251D01*
X43037866Y-16927641D01*
X43028011Y-16930991D01*
X42976140Y-16946222D01*
X42940389Y-16964652D01*
X42928371Y-16970059D01*
X42893781Y-16983460D01*
X42893780Y-16983460D01*
X42847540Y-17012091D01*
X42839085Y-17016878D01*
X42787977Y-17043226D01*
X42759082Y-17065949D01*
X42747714Y-17073901D01*
X42719115Y-17091609D01*
X42676375Y-17130571D01*
X42669494Y-17136400D01*
X42621565Y-17174093D01*
X42599763Y-17199253D01*
X42589598Y-17209678D01*
X42567301Y-17230006D01*
X42530366Y-17278915D01*
X42525127Y-17285387D01*
X42482936Y-17334079D01*
X42468014Y-17359925D01*
X42459587Y-17372641D01*
X42443497Y-17393950D01*
X42443496Y-17393951D01*
X42443496Y-17393952D01*
X42443491Y-17393960D01*
X42414632Y-17451914D01*
X42411022Y-17458637D01*
X42377088Y-17517414D01*
X42368464Y-17542331D01*
X42362288Y-17557036D01*
X42351928Y-17577842D01*
X42351923Y-17577856D01*
X42333256Y-17643459D01*
X42331172Y-17650077D01*
X42307846Y-17717475D01*
X42304587Y-17740137D01*
X42301119Y-17756409D01*
X42295706Y-17775437D01*
X42289093Y-17846796D01*
X42288360Y-17852999D01*
X42277719Y-17927010D01*
X42277719Y-17927015D01*
X42278643Y-17946434D01*
X42278255Y-17963766D01*
X42276751Y-17980003D01*
X42283679Y-18054776D01*
X42284067Y-18060314D01*
X42284326Y-18065749D01*
X42267855Y-18133649D01*
X42217289Y-18181866D01*
X42148682Y-18195090D01*
X42083817Y-18169123D01*
X42056660Y-18139474D01*
X42045722Y-18122732D01*
X42045719Y-18122729D01*
X42045715Y-18122723D01*
X41893243Y-17957097D01*
X41893238Y-17957092D01*
X41715577Y-17818812D01*
X41715572Y-17818808D01*
X41517580Y-17711661D01*
X41517577Y-17711659D01*
X41517574Y-17711658D01*
X41517571Y-17711657D01*
X41517569Y-17711656D01*
X41304637Y-17638556D01*
X41082569Y-17601500D01*
X40857431Y-17601500D01*
X40635362Y-17638556D01*
X40463465Y-17697569D01*
X40441860Y-17698544D01*
X40439865Y-17701099D01*
X40426613Y-17709392D01*
X40224422Y-17818812D01*
X40046761Y-17957092D01*
X40046756Y-17957097D01*
X39894284Y-18122723D01*
X39894276Y-18122734D01*
X39803807Y-18261206D01*
X39750660Y-18306563D01*
X39681429Y-18315986D01*
X39618093Y-18286483D01*
X39596191Y-18261206D01*
X39569808Y-18220824D01*
X39566139Y-18214846D01*
X39271692Y-17703129D01*
X39041192Y-17302547D01*
X39025730Y-17256887D01*
X39022838Y-17234912D01*
X38979341Y-17129901D01*
X38961526Y-17086891D01*
X38961523Y-17086886D01*
X38886022Y-16988491D01*
X38886001Y-16988465D01*
X38871877Y-16970059D01*
X38863987Y-16959776D01*
X38863985Y-16959774D01*
X38863984Y-16959773D01*
X38838520Y-16940234D01*
X38826325Y-16929539D01*
X37550561Y-15653775D01*
X37517076Y-15592452D01*
X37522060Y-15522760D01*
X37563932Y-15466827D01*
X37629396Y-15442410D01*
X37691906Y-15456008D01*
X37692543Y-15454687D01*
X37698813Y-15457706D01*
X37698817Y-15457709D01*
X37698820Y-15457710D01*
X37705089Y-15460729D01*
X37705058Y-15460792D01*
X37708964Y-15462464D01*
X37710374Y-15463184D01*
X37710377Y-15463186D01*
X38004097Y-15613178D01*
X38035381Y-15635930D01*
X39174066Y-16774615D01*
X39196819Y-16805901D01*
X39347537Y-17101040D01*
X39349210Y-17104946D01*
X39349273Y-17104916D01*
X39352292Y-17111185D01*
X39358014Y-17120292D01*
X39361534Y-17126258D01*
X39363085Y-17129063D01*
X39366134Y-17133590D01*
X39366048Y-17133647D01*
X39369005Y-17137784D01*
X39443227Y-17255907D01*
X39443228Y-17255908D01*
X39443229Y-17255909D01*
X39564091Y-17376771D01*
X39708817Y-17467709D01*
X39850877Y-17517418D01*
X39870150Y-17524162D01*
X39870155Y-17524163D01*
X40039996Y-17543299D01*
X40040000Y-17543299D01*
X40040004Y-17543299D01*
X40209844Y-17524163D01*
X40209846Y-17524162D01*
X40209850Y-17524162D01*
X40209853Y-17524160D01*
X40209857Y-17524160D01*
X40326640Y-17483296D01*
X40349119Y-17482148D01*
X40351528Y-17479101D01*
X40369401Y-17468568D01*
X40371179Y-17467711D01*
X40371181Y-17467709D01*
X40371183Y-17467709D01*
X40515909Y-17376771D01*
X40636771Y-17255909D01*
X40727709Y-17111183D01*
X40784162Y-16949850D01*
X40784571Y-16946222D01*
X40803299Y-16780003D01*
X40803299Y-16779996D01*
X40784163Y-16610155D01*
X40784162Y-16610150D01*
X40778797Y-16594819D01*
X40727709Y-16448817D01*
X40636771Y-16304091D01*
X40515909Y-16183229D01*
X40515908Y-16183228D01*
X40371183Y-16092290D01*
X40364910Y-16089270D01*
X40364940Y-16089206D01*
X40361038Y-16087536D01*
X40065901Y-15936819D01*
X40034615Y-15914066D01*
X38895930Y-14775381D01*
X38873177Y-14744095D01*
X38722464Y-14448963D01*
X38720797Y-14445066D01*
X38720734Y-14445097D01*
X38717711Y-14438821D01*
X38717709Y-14438818D01*
X38717709Y-14438817D01*
X38711977Y-14429696D01*
X38708448Y-14423712D01*
X38706910Y-14420929D01*
X38703871Y-14416416D01*
X38703955Y-14416359D01*
X38701000Y-14412224D01*
X38626771Y-14294091D01*
X38505908Y-14173228D01*
X38361183Y-14082291D01*
X38199849Y-14025837D01*
X38199844Y-14025836D01*
X38030004Y-14006701D01*
X38029996Y-14006701D01*
X37860155Y-14025836D01*
X37860150Y-14025837D01*
X37698816Y-14082291D01*
X37554091Y-14173228D01*
X37433228Y-14294091D01*
X37342291Y-14438816D01*
X37285837Y-14600150D01*
X37285836Y-14600155D01*
X37266701Y-14769996D01*
X37266701Y-14770003D01*
X37285836Y-14939844D01*
X37285837Y-14939849D01*
X37342293Y-15101190D01*
X37345311Y-15107456D01*
X37342577Y-15108772D01*
X37357897Y-15163072D01*
X37337502Y-15229899D01*
X37284216Y-15275091D01*
X37214955Y-15284300D01*
X37151711Y-15254602D01*
X37146223Y-15249437D01*
X34126967Y-12230181D01*
X34093482Y-12168858D01*
X34098466Y-12099166D01*
X34140338Y-12043233D01*
X34205802Y-12018816D01*
X34214648Y-12018500D01*
X41989881Y-12018500D01*
X42045198Y-12031523D01*
G37*
%TD.AperFunction*%
%TA.AperFunction,Conductor*%
G36*
X29072123Y-15373068D02*
G01*
X29116473Y-15401570D01*
X29164616Y-15449714D01*
X29164628Y-15449723D01*
X29194814Y-15467575D01*
X29242498Y-15518643D01*
X29255002Y-15587385D01*
X29239082Y-15636306D01*
X29191400Y-15718895D01*
X29135635Y-15890523D01*
X29116771Y-16070000D01*
X29135635Y-16249476D01*
X29174222Y-16368237D01*
X29191401Y-16421107D01*
X29281633Y-16577393D01*
X29402387Y-16711504D01*
X29432949Y-16733708D01*
X29475613Y-16789036D01*
X29481592Y-16858650D01*
X29448987Y-16920445D01*
X29447743Y-16921706D01*
X29155030Y-17214419D01*
X29106703Y-17244328D01*
X27793593Y-17683784D01*
X27776336Y-17689904D01*
X27775632Y-17690168D01*
X27775623Y-17690171D01*
X27775620Y-17690173D01*
X27775616Y-17690175D01*
X27752791Y-17700605D01*
X27741525Y-17705100D01*
X27722433Y-17711655D01*
X27722423Y-17711659D01*
X27524427Y-17818809D01*
X27524422Y-17818812D01*
X27346761Y-17957092D01*
X27346756Y-17957097D01*
X27194284Y-18122723D01*
X27194276Y-18122734D01*
X27108125Y-18254598D01*
X27054979Y-18299955D01*
X26985747Y-18309378D01*
X26922412Y-18279876D01*
X26893344Y-18242101D01*
X26351523Y-17155197D01*
X26338500Y-17099880D01*
X26338500Y-16917674D01*
X26358185Y-16850635D01*
X26374814Y-16829998D01*
X27763385Y-15441426D01*
X27824708Y-15407942D01*
X27894400Y-15412926D01*
X27938747Y-15441427D01*
X27944091Y-15446771D01*
X28088817Y-15537709D01*
X28245263Y-15592452D01*
X28250150Y-15594162D01*
X28250155Y-15594163D01*
X28419996Y-15613299D01*
X28420000Y-15613299D01*
X28420004Y-15613299D01*
X28589844Y-15594163D01*
X28589847Y-15594162D01*
X28589850Y-15594162D01*
X28751183Y-15537709D01*
X28895909Y-15446771D01*
X28941111Y-15401568D01*
X29002432Y-15368084D01*
X29072123Y-15373068D01*
G37*
%TD.AperFunction*%
%TA.AperFunction,Conductor*%
G36*
X34143703Y-14675568D02*
G01*
X34150181Y-14681600D01*
X35245181Y-15776600D01*
X35278666Y-15837923D01*
X35281500Y-15864281D01*
X35281500Y-17099880D01*
X35268475Y-17155201D01*
X34729643Y-18236103D01*
X34682117Y-18287319D01*
X34614447Y-18304710D01*
X34548116Y-18282755D01*
X34508409Y-18237516D01*
X34101598Y-17446881D01*
X33952240Y-17156604D01*
X33938500Y-17099871D01*
X33938500Y-14769281D01*
X33958185Y-14702242D01*
X34010989Y-14656487D01*
X34080147Y-14646543D01*
X34143703Y-14675568D01*
G37*
%TD.AperFunction*%
%TA.AperFunction,Conductor*%
G36*
X36703703Y-16528461D02*
G01*
X36710181Y-16534493D01*
X37581717Y-17406029D01*
X37615202Y-17467352D01*
X37610218Y-17537044D01*
X37605379Y-17548289D01*
X37270611Y-18231227D01*
X37223428Y-18282759D01*
X37155875Y-18300602D01*
X37089399Y-18279090D01*
X37048295Y-18231973D01*
X36511523Y-17155197D01*
X36498500Y-17099880D01*
X36498500Y-16622174D01*
X36518185Y-16555135D01*
X36570989Y-16509380D01*
X36640147Y-16499436D01*
X36703703Y-16528461D01*
G37*
%TD.AperFunction*%
%TA.AperFunction,Conductor*%
G36*
X9778628Y-16058185D02*
G01*
X9824383Y-16110989D01*
X9834327Y-16180147D01*
X9805302Y-16243703D01*
X9799270Y-16250181D01*
X9073798Y-16975651D01*
X9030946Y-17003583D01*
X7857386Y-17458637D01*
X7549948Y-17577848D01*
X7510580Y-17593113D01*
X7465751Y-17601500D01*
X7051345Y-17601500D01*
X6990797Y-17608011D01*
X6990795Y-17608011D01*
X6853795Y-17659111D01*
X6736736Y-17746741D01*
X6666139Y-17841047D01*
X6610205Y-17882918D01*
X6540514Y-17887902D01*
X6479191Y-17854416D01*
X6447796Y-17801330D01*
X6402032Y-17643805D01*
X6394738Y-17631473D01*
X6377553Y-17563749D01*
X6394736Y-17505227D01*
X6409894Y-17479597D01*
X6455606Y-17322254D01*
X6458500Y-17285484D01*
X6458500Y-16952802D01*
X6478185Y-16885763D01*
X6530989Y-16840008D01*
X6532066Y-16839522D01*
X6574611Y-16820580D01*
X6574611Y-16820579D01*
X6574615Y-16820578D01*
X6720613Y-16714504D01*
X6723315Y-16711504D01*
X6746775Y-16685447D01*
X6841367Y-16580393D01*
X6931599Y-16424107D01*
X6987365Y-16252475D01*
X6993648Y-16192691D01*
X7020232Y-16128077D01*
X7029290Y-16117969D01*
X7072444Y-16074817D01*
X7133768Y-16041333D01*
X7160123Y-16038500D01*
X9711589Y-16038500D01*
X9778628Y-16058185D01*
G37*
%TD.AperFunction*%
%TA.AperFunction,Conductor*%
G36*
X11798628Y-16578185D02*
G01*
X11844383Y-16630989D01*
X11854327Y-16700147D01*
X11825302Y-16763703D01*
X11819270Y-16770181D01*
X11375030Y-17214419D01*
X11326702Y-17244328D01*
X10623027Y-17479825D01*
X10553206Y-17482434D01*
X10493059Y-17446881D01*
X10461681Y-17384453D01*
X10469035Y-17314972D01*
X10495990Y-17274558D01*
X11175730Y-16594819D01*
X11237053Y-16561334D01*
X11263411Y-16558500D01*
X11731589Y-16558500D01*
X11798628Y-16578185D01*
G37*
%TD.AperFunction*%
%TA.AperFunction,Conductor*%
G36*
X14038627Y-16878185D02*
G01*
X14084382Y-16930989D01*
X14094326Y-17000147D01*
X14065301Y-17063703D01*
X14059276Y-17070173D01*
X13974249Y-17155201D01*
X13915030Y-17214420D01*
X13866702Y-17244328D01*
X13163027Y-17479825D01*
X13093206Y-17482434D01*
X13033059Y-17446881D01*
X13001681Y-17384453D01*
X13009035Y-17314972D01*
X13035990Y-17274558D01*
X13415730Y-16894819D01*
X13477053Y-16861334D01*
X13503411Y-16858500D01*
X13971588Y-16858500D01*
X14038627Y-16878185D01*
G37*
%TD.AperFunction*%
%TA.AperFunction,Conductor*%
G36*
X32673703Y-13912674D02*
G01*
X32680181Y-13918706D01*
X32685181Y-13923706D01*
X32718666Y-13985029D01*
X32721500Y-14011387D01*
X32721500Y-17107140D01*
X32709055Y-17161283D01*
X32704055Y-17171585D01*
X32657075Y-17223301D01*
X32589592Y-17241408D01*
X32523033Y-17220157D01*
X32478529Y-17166294D01*
X32468500Y-17117442D01*
X32468500Y-14006387D01*
X32488185Y-13939348D01*
X32540989Y-13893593D01*
X32610147Y-13883649D01*
X32673703Y-13912674D01*
G37*
%TD.AperFunction*%
%TA.AperFunction,Conductor*%
G36*
X10740000Y-2587377D02*
G01*
X10720315Y-2654416D01*
X10703681Y-2675058D01*
X10008275Y-3370465D01*
X9313193Y-4065547D01*
X9153202Y-4225537D01*
X9105454Y-4273285D01*
X9092786Y-4283435D01*
X9092931Y-4283611D01*
X9086920Y-4288584D01*
X9038378Y-4340274D01*
X9035669Y-4343069D01*
X8323453Y-5055285D01*
X8310785Y-5065435D01*
X8310931Y-5065611D01*
X8304920Y-5070584D01*
X8256378Y-5122274D01*
X8253671Y-5125067D01*
X8233078Y-5145660D01*
X8233072Y-5145667D01*
X8230278Y-5149268D01*
X8222714Y-5158122D01*
X8191029Y-5191865D01*
X8191024Y-5191872D01*
X8180618Y-5210800D01*
X8169942Y-5227054D01*
X8156694Y-5244133D01*
X8138310Y-5286616D01*
X8133173Y-5297102D01*
X8110876Y-5337661D01*
X8105502Y-5358589D01*
X8099203Y-5376987D01*
X8090619Y-5396825D01*
X8083380Y-5442534D01*
X8081012Y-5453973D01*
X8069500Y-5498809D01*
X8069500Y-5520413D01*
X8067974Y-5539808D01*
X8064594Y-5561152D01*
X8068706Y-5604649D01*
X8068950Y-5607234D01*
X8069500Y-5618903D01*
X8069500Y-11483556D01*
X8061978Y-11526087D01*
X7833736Y-12151165D01*
X7820570Y-12192590D01*
X7820569Y-12192593D01*
X7820449Y-12193572D01*
X7816043Y-12214384D01*
X7783367Y-12322102D01*
X7764862Y-12510000D01*
X7783368Y-12697901D01*
X7828813Y-12847711D01*
X7831497Y-12858182D01*
X7833736Y-12868829D01*
X7833740Y-12868842D01*
X7913108Y-13086204D01*
X7961047Y-13217496D01*
X7962326Y-13220997D01*
X7966829Y-13290722D01*
X7933529Y-13351209D01*
X6398073Y-14886667D01*
X6398067Y-14886671D01*
X6213752Y-15070986D01*
X6213750Y-15070989D01*
X6100928Y-15183811D01*
X6039605Y-15217296D01*
X6039028Y-15217420D01*
X5876248Y-15252019D01*
X5876242Y-15252021D01*
X5711386Y-15325421D01*
X5711381Y-15325424D01*
X5565388Y-15431494D01*
X5565381Y-15431500D01*
X5444632Y-15565608D01*
X5354400Y-15721894D01*
X5298634Y-15893527D01*
X5292350Y-15953310D01*
X5265765Y-16017924D01*
X5256711Y-16028027D01*
X5235453Y-16049285D01*
X5222785Y-16059435D01*
X5222931Y-16059611D01*
X5216920Y-16064584D01*
X5168378Y-16116274D01*
X5165671Y-16119067D01*
X5145078Y-16139660D01*
X5145072Y-16139667D01*
X5142278Y-16143268D01*
X5134714Y-16152122D01*
X5103029Y-16185865D01*
X5103024Y-16185872D01*
X5092618Y-16204800D01*
X5081942Y-16221054D01*
X5072292Y-16233496D01*
X5015651Y-16274405D01*
X4974309Y-16281500D01*
X4580543Y-16281500D01*
X4513504Y-16261815D01*
X4467749Y-16209011D01*
X4457805Y-16139853D01*
X4486830Y-16076297D01*
X4492862Y-16069819D01*
X5068503Y-15494178D01*
X6810880Y-13751799D01*
X6824506Y-13740023D01*
X6844058Y-13725469D01*
X6844060Y-13725467D01*
X6876274Y-13687075D01*
X6883590Y-13679090D01*
X6887580Y-13675101D01*
X6907043Y-13650485D01*
X6909245Y-13647781D01*
X6958032Y-13589640D01*
X6958033Y-13589636D01*
X6958036Y-13589634D01*
X6962003Y-13583603D01*
X6962044Y-13583630D01*
X6966219Y-13577076D01*
X6966177Y-13577050D01*
X6969963Y-13570910D01*
X6969967Y-13570906D01*
X7002008Y-13502189D01*
X7003563Y-13498975D01*
X7037609Y-13431188D01*
X7037611Y-13431179D01*
X7040080Y-13424399D01*
X7040126Y-13424416D01*
X7042678Y-13417075D01*
X7042631Y-13417060D01*
X7044898Y-13410214D01*
X7044902Y-13410207D01*
X7060252Y-13335861D01*
X7060997Y-13332499D01*
X7078500Y-13258656D01*
X7078500Y-13258652D01*
X7078501Y-13258648D01*
X7079339Y-13251483D01*
X7079386Y-13251488D01*
X7080176Y-13243757D01*
X7080129Y-13243753D01*
X7080758Y-13236562D01*
X7079354Y-13188322D01*
X7078552Y-13160741D01*
X7078500Y-13157135D01*
X7078500Y-4402225D01*
X7098185Y-4335186D01*
X7150989Y-4289431D01*
X7190670Y-4279583D01*
X7190593Y-4278919D01*
X7194176Y-4278500D01*
X7194180Y-4278500D01*
X7225370Y-4274853D01*
X7228851Y-4274498D01*
X7279822Y-4270039D01*
X7304418Y-4267888D01*
X7304420Y-4267887D01*
X7304426Y-4267887D01*
X7304431Y-4267885D01*
X7311493Y-4266427D01*
X7311502Y-4266474D01*
X7319097Y-4264790D01*
X7319087Y-4264744D01*
X7326108Y-4263079D01*
X7326113Y-4263079D01*
X7397414Y-4237126D01*
X7400708Y-4235981D01*
X7472738Y-4212114D01*
X7472744Y-4212110D01*
X7479284Y-4209061D01*
X7479305Y-4209106D01*
X7486302Y-4205719D01*
X7486280Y-4205675D01*
X7492728Y-4202436D01*
X7492732Y-4202435D01*
X7556103Y-4160753D01*
X7559110Y-4158837D01*
X7623651Y-4119030D01*
X7623656Y-4119024D01*
X7629319Y-4114548D01*
X7629350Y-4114587D01*
X7635374Y-4109680D01*
X7635342Y-4109642D01*
X7640864Y-4105006D01*
X7640874Y-4105001D01*
X7692962Y-4049789D01*
X7695409Y-4047270D01*
X8271301Y-3471378D01*
X8276590Y-3466392D01*
X8300926Y-3444773D01*
X8314046Y-3429245D01*
X8321053Y-3421626D01*
X8440880Y-3301799D01*
X8454506Y-3290023D01*
X8474058Y-3275469D01*
X8474060Y-3275467D01*
X8506274Y-3237075D01*
X8513590Y-3229090D01*
X8517581Y-3225100D01*
X8537047Y-3200479D01*
X8539295Y-3197721D01*
X8547123Y-3188393D01*
X8588032Y-3139640D01*
X8588033Y-3139637D01*
X8592004Y-3133601D01*
X8592045Y-3133628D01*
X8596219Y-3127076D01*
X8596176Y-3127050D01*
X8599961Y-3120912D01*
X8599967Y-3120905D01*
X8624191Y-3068955D01*
X8641854Y-3041333D01*
X8928945Y-2701604D01*
X8980321Y-2665462D01*
X9046199Y-2640891D01*
X9046199Y-2640890D01*
X9046204Y-2640889D01*
X9163261Y-2553261D01*
X9250889Y-2436204D01*
X9299223Y-2306615D01*
X9341093Y-2250686D01*
X9406557Y-2226269D01*
X9474830Y-2241121D01*
X9503084Y-2262272D01*
X9618917Y-2378105D01*
X9812421Y-2513600D01*
X10026507Y-2613429D01*
X10026516Y-2613433D01*
X10240000Y-2670634D01*
X10240000Y-1775501D01*
X10347685Y-1824680D01*
X10454237Y-1840000D01*
X10525763Y-1840000D01*
X10632315Y-1824680D01*
X10740000Y-1775501D01*
X10740000Y-2587377D01*
G37*
%TD.AperFunction*%
%TA.AperFunction,Conductor*%
G36*
X17455182Y-13129815D02*
G01*
X17488666Y-13191138D01*
X17491500Y-13217496D01*
X17491500Y-13915979D01*
X17471815Y-13983018D01*
X17419011Y-14028773D01*
X17349853Y-14038717D01*
X17296918Y-14017931D01*
X17158188Y-13921887D01*
X17158187Y-13921886D01*
X17134349Y-13908030D01*
X17127722Y-13904178D01*
X17115734Y-13896245D01*
X17106204Y-13889111D01*
X17103390Y-13888061D01*
X17090357Y-13882210D01*
X17090349Y-13882229D01*
X17089623Y-13881880D01*
X17088722Y-13881476D01*
X17088153Y-13881175D01*
X17084829Y-13879579D01*
X17084818Y-13879574D01*
X17054126Y-13869570D01*
X17049224Y-13867858D01*
X16982408Y-13842937D01*
X16969201Y-13838011D01*
X16969200Y-13838010D01*
X16969199Y-13838010D01*
X16908654Y-13831500D01*
X16908638Y-13831500D01*
X15719914Y-13831500D01*
X15708768Y-13830352D01*
X15708749Y-13830637D01*
X15700228Y-13830059D01*
X15683997Y-13831197D01*
X15675332Y-13831500D01*
X15611345Y-13831500D01*
X15550802Y-13838010D01*
X15550792Y-13838012D01*
X15528558Y-13846305D01*
X15517870Y-13849749D01*
X15492591Y-13856646D01*
X15474030Y-13865905D01*
X15462020Y-13871122D01*
X15413800Y-13889108D01*
X15413794Y-13889111D01*
X15395332Y-13902931D01*
X15376389Y-13914615D01*
X15361807Y-13921890D01*
X15199218Y-14034452D01*
X15132894Y-14056427D01*
X15128636Y-14056500D01*
X13091363Y-14056500D01*
X13024324Y-14036815D01*
X13020781Y-14034452D01*
X12858187Y-13921886D01*
X12834349Y-13908030D01*
X12827722Y-13904178D01*
X12815734Y-13896245D01*
X12806204Y-13889111D01*
X12803390Y-13888061D01*
X12790357Y-13882210D01*
X12790349Y-13882229D01*
X12789623Y-13881880D01*
X12788722Y-13881476D01*
X12788153Y-13881175D01*
X12784829Y-13879579D01*
X12784818Y-13879574D01*
X12754126Y-13869570D01*
X12749224Y-13867858D01*
X12682408Y-13842937D01*
X12669201Y-13838011D01*
X12669200Y-13838010D01*
X12669199Y-13838010D01*
X12608654Y-13831500D01*
X12608638Y-13831500D01*
X11419914Y-13831500D01*
X11408768Y-13830352D01*
X11408749Y-13830637D01*
X11400228Y-13830059D01*
X11383997Y-13831197D01*
X11375332Y-13831500D01*
X11311345Y-13831500D01*
X11250802Y-13838010D01*
X11250792Y-13838012D01*
X11228558Y-13846305D01*
X11217870Y-13849749D01*
X11192591Y-13856646D01*
X11174030Y-13865905D01*
X11162020Y-13871122D01*
X11113800Y-13889108D01*
X11106015Y-13893360D01*
X11105163Y-13891800D01*
X11049733Y-13912464D01*
X11027027Y-13911999D01*
X11005980Y-13909628D01*
X10980000Y-13906701D01*
X10979998Y-13906701D01*
X10979997Y-13906701D01*
X10979996Y-13906701D01*
X10810155Y-13925836D01*
X10810150Y-13925837D01*
X10648816Y-13982291D01*
X10504091Y-14073228D01*
X10383228Y-14194091D01*
X10292291Y-14338816D01*
X10235837Y-14500150D01*
X10235836Y-14500155D01*
X10223305Y-14611383D01*
X10196239Y-14675797D01*
X10138644Y-14715352D01*
X10100085Y-14721500D01*
X8725122Y-14721500D01*
X8658083Y-14701815D01*
X8612328Y-14649011D01*
X8602384Y-14579853D01*
X8631409Y-14516297D01*
X8637441Y-14509819D01*
X8760781Y-14386479D01*
X9132543Y-14014715D01*
X9145214Y-14004566D01*
X9145068Y-14004389D01*
X9151074Y-13999419D01*
X9151080Y-13999416D01*
X9199653Y-13947689D01*
X9202270Y-13944988D01*
X9222927Y-13924333D01*
X9225701Y-13920756D01*
X9233284Y-13911875D01*
X9264972Y-13878133D01*
X9275380Y-13859200D01*
X9286059Y-13842942D01*
X9299304Y-13825868D01*
X9317691Y-13783374D01*
X9322822Y-13772902D01*
X9345124Y-13732337D01*
X9350495Y-13711413D01*
X9356796Y-13693009D01*
X9365380Y-13673176D01*
X9372621Y-13627449D01*
X9374990Y-13616013D01*
X9386500Y-13571188D01*
X9386500Y-13549580D01*
X9388025Y-13530193D01*
X9391406Y-13508848D01*
X9391405Y-13508844D01*
X9391701Y-13506979D01*
X9397695Y-13483849D01*
X9458042Y-13318580D01*
X9499524Y-13262362D01*
X9532642Y-13244399D01*
X9709964Y-13180784D01*
X9751837Y-13173500D01*
X10864992Y-13173500D01*
X10923779Y-13188321D01*
X11104463Y-13285612D01*
X11106377Y-13286836D01*
X11113793Y-13290887D01*
X11113796Y-13290889D01*
X11113798Y-13290889D01*
X11114097Y-13291053D01*
X11122864Y-13294759D01*
X11158356Y-13311593D01*
X11158361Y-13311595D01*
X11158363Y-13311596D01*
X11160568Y-13312507D01*
X11205025Y-13325637D01*
X11210158Y-13327153D01*
X11218369Y-13329893D01*
X11250799Y-13341989D01*
X11267779Y-13343814D01*
X11311345Y-13348499D01*
X11311362Y-13348500D01*
X11402119Y-13348500D01*
X11407048Y-13348598D01*
X11409461Y-13348694D01*
X11409461Y-13348693D01*
X11409462Y-13348694D01*
X11413637Y-13348562D01*
X11417557Y-13348500D01*
X12599185Y-13348500D01*
X12604335Y-13348606D01*
X12608545Y-13348782D01*
X12608545Y-13348781D01*
X12608546Y-13348782D01*
X12612673Y-13348362D01*
X12617454Y-13347877D01*
X12621241Y-13347285D01*
X12627067Y-13346517D01*
X12669201Y-13341989D01*
X12806204Y-13290889D01*
X12806207Y-13290886D01*
X12806209Y-13290886D01*
X12813583Y-13286859D01*
X12815522Y-13285620D01*
X12942041Y-13217496D01*
X12996224Y-13188321D01*
X13055011Y-13173500D01*
X15164992Y-13173500D01*
X15223779Y-13188321D01*
X15404463Y-13285612D01*
X15406377Y-13286836D01*
X15413793Y-13290887D01*
X15413796Y-13290889D01*
X15413798Y-13290889D01*
X15414097Y-13291053D01*
X15422864Y-13294759D01*
X15458356Y-13311593D01*
X15458361Y-13311595D01*
X15458363Y-13311596D01*
X15460568Y-13312507D01*
X15505025Y-13325637D01*
X15510158Y-13327153D01*
X15518369Y-13329893D01*
X15550799Y-13341989D01*
X15567779Y-13343814D01*
X15611345Y-13348499D01*
X15611362Y-13348500D01*
X15702119Y-13348500D01*
X15707048Y-13348598D01*
X15709461Y-13348694D01*
X15709461Y-13348693D01*
X15709462Y-13348694D01*
X15713637Y-13348562D01*
X15717557Y-13348500D01*
X16908638Y-13348500D01*
X16908654Y-13348499D01*
X16935692Y-13345591D01*
X16969201Y-13341989D01*
X16969207Y-13341987D01*
X16985470Y-13335921D01*
X17106204Y-13290889D01*
X17223261Y-13203261D01*
X17268234Y-13143184D01*
X17324167Y-13101314D01*
X17393859Y-13096330D01*
X17455182Y-13129815D01*
G37*
%TD.AperFunction*%
%TA.AperFunction,Conductor*%
G36*
X21943040Y-5468185D02*
G01*
X21988795Y-5520989D01*
X22000001Y-5572500D01*
X22000001Y-5604649D01*
X22002854Y-5640911D01*
X22047968Y-5796194D01*
X22055263Y-5808530D01*
X22072446Y-5876254D01*
X22055264Y-5934771D01*
X22040106Y-5960401D01*
X22040105Y-5960404D01*
X21994394Y-6117741D01*
X21994393Y-6117747D01*
X21991500Y-6154510D01*
X21991500Y-6565489D01*
X21994393Y-6602252D01*
X21994394Y-6602258D01*
X22040104Y-6759592D01*
X22043204Y-6766755D01*
X22041225Y-6767611D01*
X22055680Y-6824622D01*
X22041606Y-6872553D01*
X22043204Y-6873245D01*
X22040104Y-6880407D01*
X21994394Y-7037741D01*
X21994393Y-7037747D01*
X21991500Y-7074510D01*
X21991500Y-7485489D01*
X21994393Y-7522252D01*
X21994394Y-7522258D01*
X22040104Y-7679592D01*
X22040107Y-7679599D01*
X22055264Y-7705229D01*
X22072445Y-7772953D01*
X22055265Y-7831466D01*
X22047968Y-7843804D01*
X22005496Y-7990000D01*
X22295933Y-7990000D01*
X22359053Y-8007267D01*
X22380403Y-8019894D01*
X22524292Y-8061697D01*
X22553440Y-8074413D01*
X22832729Y-8241815D01*
X22839148Y-8245662D01*
X22863080Y-8264339D01*
X23023681Y-8424940D01*
X23057166Y-8486263D01*
X23060000Y-8512621D01*
X23060000Y-9018789D01*
X23080910Y-9017145D01*
X23236195Y-8972031D01*
X23379273Y-8887415D01*
X23446996Y-8870232D01*
X23513259Y-8892392D01*
X23529442Y-8908015D01*
X23530468Y-8906990D01*
X23536740Y-8913262D01*
X23559752Y-8930489D01*
X23601623Y-8986423D01*
X23606607Y-9056114D01*
X23592174Y-9092875D01*
X23567967Y-9133806D01*
X23567966Y-9133809D01*
X23522855Y-9289081D01*
X23522854Y-9289087D01*
X23521209Y-9309999D01*
X23521210Y-9310000D01*
X24347500Y-9310000D01*
X24414539Y-9329685D01*
X24460294Y-9382489D01*
X24471500Y-9434000D01*
X24471500Y-9795489D01*
X24474393Y-9832248D01*
X24474394Y-9832254D01*
X24497302Y-9911105D01*
X24500394Y-9924468D01*
X24504853Y-9950128D01*
X24504855Y-9950137D01*
X24543904Y-10070028D01*
X24550000Y-10108429D01*
X24550000Y-10361568D01*
X24543904Y-10399969D01*
X24504854Y-10519864D01*
X24494634Y-10567009D01*
X24492526Y-10575329D01*
X24474393Y-10637746D01*
X24471500Y-10674510D01*
X24471500Y-11145489D01*
X24474393Y-11182248D01*
X24474394Y-11182254D01*
X24497302Y-11261105D01*
X24500394Y-11274468D01*
X24504852Y-11300126D01*
X24504854Y-11300131D01*
X24535854Y-11395313D01*
X24543904Y-11420027D01*
X24550000Y-11458428D01*
X24550000Y-11714504D01*
X24551952Y-11715970D01*
X24593743Y-11771963D01*
X24601500Y-11815131D01*
X24601500Y-12425878D01*
X24581815Y-12492917D01*
X24565181Y-12513559D01*
X23257495Y-13821244D01*
X23196172Y-13854729D01*
X23126480Y-13849745D01*
X23102340Y-13836083D01*
X23101806Y-13836934D01*
X22951183Y-13742290D01*
X22944910Y-13739270D01*
X22944940Y-13739206D01*
X22941038Y-13737536D01*
X22645901Y-13586819D01*
X22614615Y-13564066D01*
X21455930Y-12405381D01*
X21433177Y-12374095D01*
X21282464Y-12078963D01*
X21280797Y-12075066D01*
X21280734Y-12075097D01*
X21277711Y-12068821D01*
X21277709Y-12068818D01*
X21277709Y-12068817D01*
X21271977Y-12059696D01*
X21268448Y-12053712D01*
X21266910Y-12050929D01*
X21263871Y-12046416D01*
X21263955Y-12046359D01*
X21261000Y-12042224D01*
X21186771Y-11924091D01*
X21065908Y-11803228D01*
X20921183Y-11712291D01*
X20759849Y-11655837D01*
X20759844Y-11655836D01*
X20590004Y-11636701D01*
X20589996Y-11636701D01*
X20420155Y-11655836D01*
X20420150Y-11655837D01*
X20258816Y-11712291D01*
X20114091Y-11803228D01*
X19993228Y-11924091D01*
X19902291Y-12068816D01*
X19845837Y-12230150D01*
X19845836Y-12230155D01*
X19826701Y-12399996D01*
X19826701Y-12400003D01*
X19845836Y-12569844D01*
X19845837Y-12569849D01*
X19902291Y-12731183D01*
X19988787Y-12868841D01*
X19993229Y-12875909D01*
X20114091Y-12996771D01*
X20258817Y-13087709D01*
X20258821Y-13087710D01*
X20265089Y-13090729D01*
X20265058Y-13090792D01*
X20268964Y-13092464D01*
X20270374Y-13093184D01*
X20270377Y-13093186D01*
X20564097Y-13243178D01*
X20595381Y-13265930D01*
X21754066Y-14424615D01*
X21776819Y-14455901D01*
X21820330Y-14541105D01*
X21833288Y-14609762D01*
X21807071Y-14674527D01*
X21750001Y-14714835D01*
X21709896Y-14721500D01*
X19031042Y-14721500D01*
X18964003Y-14701815D01*
X18918248Y-14649011D01*
X18907822Y-14611383D01*
X18894163Y-14490152D01*
X18894162Y-14490150D01*
X18886837Y-14469217D01*
X18882293Y-14452615D01*
X18810914Y-14096176D01*
X18808500Y-14071828D01*
X18808500Y-12006551D01*
X18814596Y-11968150D01*
X18855787Y-11841678D01*
X18905145Y-11690133D01*
X18915375Y-11642943D01*
X18917475Y-11634657D01*
X18935606Y-11572254D01*
X18938500Y-11535484D01*
X18938500Y-11160000D01*
X23521210Y-11160000D01*
X23522854Y-11180910D01*
X23567968Y-11336195D01*
X23650278Y-11475374D01*
X23650285Y-11475383D01*
X23764616Y-11589714D01*
X23764625Y-11589721D01*
X23903804Y-11672031D01*
X24050000Y-11714504D01*
X24050000Y-11160000D01*
X23521210Y-11160000D01*
X18938500Y-11160000D01*
X18938500Y-11064516D01*
X18935606Y-11027746D01*
X18930455Y-11010017D01*
X18901948Y-10911895D01*
X18889894Y-10870403D01*
X18806488Y-10729371D01*
X18806486Y-10729369D01*
X18806483Y-10729365D01*
X18737117Y-10659999D01*
X23521209Y-10659999D01*
X23521210Y-10660000D01*
X24050000Y-10660000D01*
X24050000Y-9810000D01*
X23521210Y-9810000D01*
X23522854Y-9830910D01*
X23567968Y-9986195D01*
X23650278Y-10125374D01*
X23650285Y-10125383D01*
X23672221Y-10147319D01*
X23705706Y-10208642D01*
X23700722Y-10278334D01*
X23672221Y-10322681D01*
X23650285Y-10344616D01*
X23650278Y-10344625D01*
X23567968Y-10483804D01*
X23567966Y-10483809D01*
X23522855Y-10639081D01*
X23522854Y-10639087D01*
X23521209Y-10659999D01*
X18737117Y-10659999D01*
X18690634Y-10613516D01*
X18690626Y-10613510D01*
X18549597Y-10530106D01*
X18549592Y-10530104D01*
X18392258Y-10484394D01*
X18392252Y-10484393D01*
X18355489Y-10481500D01*
X18355484Y-10481500D01*
X17944516Y-10481500D01*
X17944510Y-10481500D01*
X17907747Y-10484393D01*
X17907741Y-10484394D01*
X17750404Y-10530105D01*
X17750401Y-10530106D01*
X17724771Y-10545264D01*
X17657047Y-10562446D01*
X17598528Y-10545262D01*
X17586194Y-10537967D01*
X17586190Y-10537966D01*
X17440001Y-10495493D01*
X17440000Y-10495494D01*
X17440000Y-10785931D01*
X17422733Y-10849050D01*
X17410108Y-10870397D01*
X17410104Y-10870407D01*
X17364394Y-11027741D01*
X17364393Y-11027747D01*
X17361500Y-11064510D01*
X17361500Y-11426000D01*
X17341815Y-11493039D01*
X17289011Y-11538794D01*
X17237500Y-11550000D01*
X16411210Y-11550000D01*
X16410379Y-11550898D01*
X16396668Y-11616153D01*
X16347614Y-11665908D01*
X16287417Y-11681500D01*
X15621021Y-11681500D01*
X15615853Y-11681392D01*
X15615410Y-11681373D01*
X15611507Y-11681210D01*
X15602611Y-11682113D01*
X15602610Y-11682113D01*
X15598765Y-11682713D01*
X15592928Y-11683481D01*
X15550802Y-11688010D01*
X15550799Y-11688010D01*
X15550799Y-11688011D01*
X15545126Y-11690127D01*
X15413795Y-11739111D01*
X15406457Y-11743116D01*
X15404500Y-11744365D01*
X15223777Y-11841678D01*
X15164989Y-11856500D01*
X13055011Y-11856500D01*
X12996222Y-11841678D01*
X12815513Y-11744372D01*
X12813580Y-11743138D01*
X12805907Y-11738949D01*
X12797158Y-11735251D01*
X12761561Y-11718372D01*
X12761532Y-11718360D01*
X12759361Y-11717463D01*
X12759338Y-11717455D01*
X12709741Y-11702808D01*
X12701530Y-11700068D01*
X12669208Y-11688012D01*
X12669197Y-11688010D01*
X12608654Y-11681500D01*
X12608638Y-11681500D01*
X12518098Y-11681500D01*
X12513154Y-11681401D01*
X12512810Y-11681387D01*
X12510587Y-11681298D01*
X12506166Y-11681438D01*
X12502260Y-11681500D01*
X11879144Y-11681500D01*
X11812105Y-11661815D01*
X11766350Y-11609011D01*
X11755526Y-11547770D01*
X11755629Y-11546466D01*
X11758500Y-11509989D01*
X11758499Y-11049999D01*
X16411209Y-11049999D01*
X16411210Y-11050000D01*
X16940000Y-11050000D01*
X16940000Y-10495494D01*
X16939998Y-10495493D01*
X16793809Y-10537965D01*
X16793806Y-10537967D01*
X16654625Y-10620278D01*
X16654616Y-10620285D01*
X16540285Y-10734616D01*
X16540278Y-10734625D01*
X16457968Y-10873804D01*
X16457966Y-10873809D01*
X16412855Y-11029081D01*
X16412854Y-11029087D01*
X16411209Y-11049999D01*
X11758499Y-11049999D01*
X11758499Y-11010012D01*
X11755629Y-10973534D01*
X11710269Y-10817404D01*
X11627506Y-10677459D01*
X11627504Y-10677457D01*
X11627501Y-10677453D01*
X11512546Y-10562498D01*
X11512538Y-10562492D01*
X11385893Y-10487595D01*
X11372596Y-10479731D01*
X11372595Y-10479730D01*
X11372594Y-10479730D01*
X11372591Y-10479729D01*
X11216473Y-10434372D01*
X11216461Y-10434370D01*
X11184177Y-10431829D01*
X11179989Y-10431500D01*
X11179988Y-10431500D01*
X10780022Y-10431500D01*
X10780000Y-10431501D01*
X10743533Y-10434371D01*
X10587408Y-10479729D01*
X10587404Y-10479730D01*
X10524770Y-10516772D01*
X10457045Y-10533953D01*
X10398530Y-10516771D01*
X10349195Y-10487595D01*
X10349188Y-10487591D01*
X10210001Y-10447153D01*
X10210000Y-10447154D01*
X10210000Y-10936511D01*
X10205077Y-10971103D01*
X10204372Y-10973527D01*
X10204370Y-10973539D01*
X10201500Y-11010005D01*
X10201500Y-11010011D01*
X10201500Y-11210802D01*
X10201501Y-11386000D01*
X10181817Y-11453039D01*
X10129013Y-11498794D01*
X10077501Y-11510000D01*
X9834000Y-11510000D01*
X9766961Y-11490315D01*
X9721206Y-11437511D01*
X9710000Y-11386000D01*
X9710000Y-10447154D01*
X9709998Y-10447153D01*
X9570811Y-10487591D01*
X9563651Y-10490691D01*
X9562781Y-10488680D01*
X9505896Y-10503113D01*
X9439634Y-10480952D01*
X9395871Y-10426486D01*
X9386500Y-10379198D01*
X9386500Y-10064763D01*
X9406185Y-9997724D01*
X9458989Y-9951969D01*
X9528147Y-9942025D01*
X9573620Y-9958031D01*
X9577404Y-9960269D01*
X9577407Y-9960269D01*
X9577409Y-9960271D01*
X9733526Y-10005627D01*
X9733528Y-10005627D01*
X9733534Y-10005629D01*
X9770011Y-10008500D01*
X10169988Y-10008499D01*
X10206466Y-10005629D01*
X10362596Y-9960269D01*
X10416879Y-9928165D01*
X10484601Y-9910982D01*
X10543120Y-9928165D01*
X10597404Y-9960269D01*
X10597411Y-9960271D01*
X10753526Y-10005627D01*
X10753528Y-10005627D01*
X10753534Y-10005629D01*
X10790011Y-10008500D01*
X11189988Y-10008499D01*
X11226466Y-10005629D01*
X11382596Y-9960269D01*
X11522541Y-9877506D01*
X11637506Y-9762541D01*
X11720269Y-9622596D01*
X11744356Y-9539685D01*
X11767397Y-9460382D01*
X11768109Y-9460588D01*
X11782053Y-9424420D01*
X11784796Y-9420000D01*
X16421210Y-9420000D01*
X16422854Y-9440910D01*
X16467968Y-9596195D01*
X16550278Y-9735374D01*
X16550285Y-9735383D01*
X16664616Y-9849714D01*
X16664625Y-9849721D01*
X16803804Y-9932031D01*
X16950000Y-9974504D01*
X16950000Y-9420000D01*
X16421210Y-9420000D01*
X11784796Y-9420000D01*
X11946532Y-9159343D01*
X11964208Y-9137050D01*
X12145661Y-8955597D01*
X12161670Y-8942091D01*
X12177916Y-8930587D01*
X12319585Y-8796204D01*
X12344537Y-8772536D01*
X12406722Y-8740680D01*
X12429874Y-8738500D01*
X12599185Y-8738500D01*
X12604335Y-8738606D01*
X12608545Y-8738782D01*
X12608545Y-8738781D01*
X12608546Y-8738782D01*
X12612673Y-8738362D01*
X12617454Y-8737877D01*
X12621241Y-8737285D01*
X12627067Y-8736517D01*
X12669201Y-8731989D01*
X12806204Y-8680889D01*
X12806207Y-8680886D01*
X12806209Y-8680886D01*
X12813583Y-8676859D01*
X12815522Y-8675620D01*
X12968871Y-8593049D01*
X12996224Y-8578321D01*
X13055011Y-8563500D01*
X15164992Y-8563500D01*
X15223779Y-8578321D01*
X15404463Y-8675612D01*
X15406377Y-8676836D01*
X15413793Y-8680887D01*
X15413796Y-8680889D01*
X15413798Y-8680889D01*
X15414097Y-8681053D01*
X15422864Y-8684759D01*
X15458356Y-8701593D01*
X15458361Y-8701595D01*
X15458363Y-8701596D01*
X15460568Y-8702507D01*
X15510158Y-8717153D01*
X15518369Y-8719893D01*
X15550799Y-8731989D01*
X15567779Y-8733814D01*
X15611345Y-8738499D01*
X15611362Y-8738500D01*
X15702119Y-8738500D01*
X15707048Y-8738598D01*
X15709461Y-8738694D01*
X15709461Y-8738693D01*
X15709462Y-8738694D01*
X15713637Y-8738562D01*
X15717557Y-8738500D01*
X16304357Y-8738500D01*
X16371396Y-8758185D01*
X16417151Y-8810989D01*
X16427095Y-8880147D01*
X16423433Y-8897095D01*
X16422855Y-8899081D01*
X16422854Y-8899087D01*
X16421209Y-8919999D01*
X16421210Y-8920000D01*
X17247500Y-8920000D01*
X17314539Y-8939685D01*
X17360294Y-8992489D01*
X17371500Y-9044000D01*
X17371500Y-9405489D01*
X17374393Y-9442252D01*
X17374394Y-9442258D01*
X17420104Y-9599592D01*
X17420106Y-9599597D01*
X17432732Y-9620946D01*
X17450000Y-9684067D01*
X17450000Y-9974503D01*
X17596194Y-9932032D01*
X17608527Y-9924738D01*
X17676251Y-9907553D01*
X17734770Y-9924734D01*
X17760403Y-9939894D01*
X17760405Y-9939894D01*
X17760406Y-9939895D01*
X17917741Y-9985605D01*
X17917744Y-9985605D01*
X17917746Y-9985606D01*
X17954516Y-9988500D01*
X17954522Y-9988500D01*
X18365478Y-9988500D01*
X18365484Y-9988500D01*
X18402254Y-9985606D01*
X18402256Y-9985605D01*
X18402258Y-9985605D01*
X18489458Y-9960271D01*
X18559597Y-9939894D01*
X18700629Y-9856488D01*
X18816488Y-9740629D01*
X18899894Y-9599597D01*
X18940339Y-9460382D01*
X18945605Y-9442258D01*
X18945606Y-9442252D01*
X18945712Y-9440910D01*
X18948500Y-9405484D01*
X18948500Y-8934516D01*
X18945606Y-8897746D01*
X18899894Y-8740403D01*
X18899891Y-8740398D01*
X18897920Y-8735842D01*
X18893604Y-8726856D01*
X18893565Y-8726875D01*
X18892349Y-8724245D01*
X18891801Y-8723103D01*
X18891707Y-8722855D01*
X18784093Y-8490000D01*
X22005496Y-8490000D01*
X22047968Y-8636195D01*
X22130278Y-8775374D01*
X22130285Y-8775383D01*
X22244616Y-8889714D01*
X22244625Y-8889721D01*
X22383804Y-8972031D01*
X22539089Y-9017145D01*
X22560000Y-9018789D01*
X22560000Y-8490000D01*
X22005496Y-8490000D01*
X18784093Y-8490000D01*
X18779939Y-8481011D01*
X18768500Y-8428991D01*
X18768500Y-6146108D01*
X18774534Y-6107897D01*
X18876163Y-5794149D01*
X18885480Y-5761805D01*
X18885480Y-5761798D01*
X18886522Y-5756460D01*
X18886913Y-5756536D01*
X18891534Y-5735936D01*
X18896749Y-5721031D01*
X18937470Y-5664258D01*
X19002423Y-5638510D01*
X19039571Y-5640698D01*
X19043246Y-5641479D01*
X19043248Y-5641480D01*
X19219768Y-5679000D01*
X19219769Y-5679000D01*
X19400232Y-5679000D01*
X19576752Y-5641480D01*
X19597556Y-5632217D01*
X19622583Y-5624129D01*
X19630091Y-5622558D01*
X19630097Y-5622555D01*
X19630100Y-5622555D01*
X20087676Y-5455981D01*
X20130093Y-5448500D01*
X21876001Y-5448500D01*
X21943040Y-5468185D01*
G37*
%TD.AperFunction*%
%TA.AperFunction,Conductor*%
G36*
X42045202Y-9491525D02*
G01*
X43123434Y-10029024D01*
X43174650Y-10076549D01*
X43192041Y-10144220D01*
X43170086Y-10210551D01*
X43123434Y-10250974D01*
X42045200Y-10788475D01*
X41989879Y-10801500D01*
X34340642Y-10801500D01*
X34273603Y-10781815D01*
X34227848Y-10729011D01*
X34217904Y-10659853D01*
X34246929Y-10596297D01*
X34252961Y-10589819D01*
X35327961Y-9514819D01*
X35389284Y-9481334D01*
X35415642Y-9478500D01*
X41989881Y-9478500D01*
X42045202Y-9491525D01*
G37*
%TD.AperFunction*%
%TA.AperFunction,Conductor*%
G36*
X10839177Y-5488185D02*
G01*
X10859819Y-5504819D01*
X10860000Y-5505000D01*
X13060000Y-5505000D01*
X13060181Y-5504819D01*
X13121504Y-5471334D01*
X13147862Y-5468500D01*
X15072138Y-5468500D01*
X15139177Y-5488185D01*
X15159819Y-5504819D01*
X15160000Y-5505000D01*
X16310579Y-5505000D01*
X16352890Y-5512442D01*
X16428323Y-5539830D01*
X16484615Y-5581209D01*
X16509602Y-5646458D01*
X16510000Y-5656383D01*
X16510000Y-6580000D01*
X16907828Y-6580000D01*
X16907844Y-6579999D01*
X16967372Y-6573598D01*
X16967379Y-6573596D01*
X17102086Y-6523354D01*
X17102093Y-6523350D01*
X17217187Y-6437190D01*
X17217190Y-6437187D01*
X17303350Y-6322093D01*
X17303355Y-6322084D01*
X17311318Y-6300735D01*
X17353188Y-6244801D01*
X17418652Y-6220383D01*
X17486925Y-6235234D01*
X17536331Y-6284639D01*
X17551500Y-6344067D01*
X17551500Y-7172500D01*
X17531815Y-7239539D01*
X17479011Y-7285294D01*
X17427500Y-7296500D01*
X17391363Y-7296500D01*
X17324324Y-7276815D01*
X17320781Y-7274452D01*
X17158187Y-7161886D01*
X17134831Y-7148310D01*
X17127722Y-7144178D01*
X17115734Y-7136245D01*
X17106204Y-7129111D01*
X17103390Y-7128061D01*
X17090357Y-7122210D01*
X17090349Y-7122229D01*
X17089623Y-7121880D01*
X17088722Y-7121476D01*
X17088153Y-7121175D01*
X17084829Y-7119579D01*
X17084818Y-7119574D01*
X17054126Y-7109570D01*
X17049224Y-7107858D01*
X16988416Y-7085178D01*
X16969201Y-7078011D01*
X16969200Y-7078010D01*
X16969199Y-7078010D01*
X16908654Y-7071500D01*
X16908638Y-7071500D01*
X15621021Y-7071500D01*
X15615853Y-7071392D01*
X15615410Y-7071373D01*
X15611507Y-7071210D01*
X15602611Y-7072113D01*
X15602610Y-7072113D01*
X15598765Y-7072713D01*
X15592928Y-7073481D01*
X15550802Y-7078010D01*
X15550799Y-7078010D01*
X15550799Y-7078011D01*
X15531332Y-7085272D01*
X15413795Y-7129111D01*
X15406457Y-7133116D01*
X15404500Y-7134365D01*
X15223777Y-7231678D01*
X15164989Y-7246500D01*
X13055011Y-7246500D01*
X12996222Y-7231678D01*
X12989146Y-7227868D01*
X12968478Y-7216739D01*
X12815513Y-7134372D01*
X12813580Y-7133138D01*
X12805907Y-7128949D01*
X12797158Y-7125251D01*
X12761561Y-7108372D01*
X12761532Y-7108360D01*
X12759361Y-7107463D01*
X12759338Y-7107455D01*
X12709741Y-7092808D01*
X12701530Y-7090068D01*
X12669208Y-7078012D01*
X12669197Y-7078010D01*
X12608654Y-7071500D01*
X12608638Y-7071500D01*
X12518098Y-7071500D01*
X12513154Y-7071401D01*
X12512810Y-7071387D01*
X12510587Y-7071298D01*
X12506166Y-7071438D01*
X12502260Y-7071500D01*
X11311345Y-7071500D01*
X11250797Y-7078011D01*
X11250795Y-7078011D01*
X11113795Y-7129111D01*
X10996739Y-7216739D01*
X10909111Y-7333795D01*
X10858011Y-7470795D01*
X10858011Y-7470797D01*
X10851500Y-7531345D01*
X10851500Y-8233074D01*
X10831815Y-8300113D01*
X10779011Y-8345868D01*
X10759449Y-8352019D01*
X10759619Y-8352603D01*
X10597408Y-8399729D01*
X10597405Y-8399730D01*
X10543120Y-8431834D01*
X10475396Y-8449015D01*
X10416880Y-8431834D01*
X10367826Y-8402824D01*
X10362596Y-8399731D01*
X10362595Y-8399730D01*
X10362594Y-8399730D01*
X10362591Y-8399729D01*
X10206472Y-8354372D01*
X10206461Y-8354370D01*
X10174177Y-8351829D01*
X10169989Y-8351500D01*
X10169988Y-8351500D01*
X9770022Y-8351500D01*
X9770000Y-8351501D01*
X9733533Y-8354371D01*
X9733532Y-8354371D01*
X9577408Y-8399729D01*
X9577401Y-8399732D01*
X9573617Y-8401970D01*
X9570266Y-8402819D01*
X9570248Y-8402828D01*
X9570246Y-8402824D01*
X9505893Y-8419150D01*
X9439631Y-8396989D01*
X9395870Y-8342521D01*
X9386500Y-8295236D01*
X9386500Y-6005000D01*
X10860000Y-6005000D01*
X10860000Y-6127844D01*
X10866401Y-6187372D01*
X10866403Y-6187379D01*
X10916645Y-6322086D01*
X10916649Y-6322093D01*
X11002809Y-6437187D01*
X11002812Y-6437190D01*
X11117906Y-6523350D01*
X11117913Y-6523354D01*
X11252620Y-6573596D01*
X11252627Y-6573598D01*
X11312155Y-6579999D01*
X11312172Y-6580000D01*
X11710000Y-6580000D01*
X11710000Y-6005000D01*
X12210000Y-6005000D01*
X12210000Y-6580000D01*
X12607828Y-6580000D01*
X12607844Y-6579999D01*
X12667372Y-6573598D01*
X12667379Y-6573596D01*
X12802086Y-6523354D01*
X12802093Y-6523350D01*
X12917187Y-6437190D01*
X12917190Y-6437187D01*
X13003350Y-6322093D01*
X13003354Y-6322086D01*
X13053596Y-6187379D01*
X13053598Y-6187372D01*
X13059999Y-6127844D01*
X13060000Y-6127827D01*
X13060000Y-6005000D01*
X15160000Y-6005000D01*
X15160000Y-6127844D01*
X15166401Y-6187372D01*
X15166403Y-6187379D01*
X15216645Y-6322086D01*
X15216649Y-6322093D01*
X15302809Y-6437187D01*
X15302812Y-6437190D01*
X15417906Y-6523350D01*
X15417913Y-6523354D01*
X15552620Y-6573596D01*
X15552627Y-6573598D01*
X15612155Y-6579999D01*
X15612172Y-6580000D01*
X16010000Y-6580000D01*
X16010000Y-6005000D01*
X15160000Y-6005000D01*
X13060000Y-6005000D01*
X12210000Y-6005000D01*
X11710000Y-6005000D01*
X10860000Y-6005000D01*
X9386500Y-6005000D01*
X9386500Y-5906122D01*
X9406185Y-5839083D01*
X9422819Y-5818441D01*
X9736441Y-5504819D01*
X9797764Y-5471334D01*
X9824122Y-5468500D01*
X10772138Y-5468500D01*
X10839177Y-5488185D01*
G37*
%TD.AperFunction*%
%TA.AperFunction,Conductor*%
G36*
X42298471Y-248195D02*
G01*
X42339188Y-250481D01*
X42595900Y-264897D01*
X42609703Y-266453D01*
X42881343Y-312607D01*
X42899953Y-315769D01*
X42913508Y-318862D01*
X42947537Y-328666D01*
X43196413Y-400366D01*
X43209537Y-404959D01*
X43481527Y-517620D01*
X43494049Y-523649D01*
X43613401Y-589613D01*
X43751726Y-666063D01*
X43763500Y-673461D01*
X43914011Y-780254D01*
X43947578Y-804071D01*
X44003604Y-843823D01*
X44014476Y-852493D01*
X44233997Y-1048669D01*
X44243830Y-1058502D01*
X44440006Y-1278023D01*
X44448676Y-1288895D01*
X44619038Y-1528999D01*
X44626436Y-1540773D01*
X44768846Y-1798443D01*
X44774879Y-1810972D01*
X44887540Y-2082962D01*
X44892133Y-2096086D01*
X44973636Y-2378989D01*
X44976730Y-2392546D01*
X45026045Y-2682788D01*
X45027602Y-2696606D01*
X45044305Y-2994027D01*
X45044500Y-3000980D01*
X45044500Y-5315950D01*
X45024815Y-5382989D01*
X44972011Y-5428744D01*
X44902853Y-5438688D01*
X44839297Y-5409663D01*
X44832819Y-5403631D01*
X44721082Y-5291894D01*
X44527578Y-5156399D01*
X44313492Y-5056570D01*
X44313486Y-5056567D01*
X44100000Y-4999364D01*
X44100000Y-5894498D01*
X43992315Y-5845320D01*
X43885763Y-5830000D01*
X43814237Y-5830000D01*
X43707685Y-5845320D01*
X43600000Y-5894498D01*
X43600000Y-4999364D01*
X43599999Y-4999364D01*
X43386513Y-5056567D01*
X43386507Y-5056570D01*
X43172422Y-5156399D01*
X43172420Y-5156400D01*
X42978926Y-5291886D01*
X42978920Y-5291891D01*
X42811891Y-5458920D01*
X42811886Y-5458926D01*
X42676400Y-5652420D01*
X42676399Y-5652422D01*
X42576570Y-5866507D01*
X42576567Y-5866513D01*
X42519364Y-6079999D01*
X42519364Y-6080000D01*
X43416314Y-6080000D01*
X43390507Y-6120156D01*
X43350000Y-6258111D01*
X43350000Y-6401889D01*
X43390507Y-6539844D01*
X43416314Y-6580000D01*
X42519364Y-6580000D01*
X42576567Y-6793486D01*
X42576570Y-6793492D01*
X42676399Y-7007578D01*
X42811894Y-7201082D01*
X42978917Y-7368105D01*
X43154303Y-7490913D01*
X43197928Y-7545491D01*
X43205120Y-7614989D01*
X43173598Y-7677344D01*
X43138500Y-7703463D01*
X42045200Y-8248475D01*
X41989879Y-8261500D01*
X38536840Y-8261500D01*
X38469801Y-8241815D01*
X38424046Y-8189011D01*
X38414102Y-8119853D01*
X38443127Y-8056297D01*
X38470867Y-8032507D01*
X38487180Y-8022255D01*
X38495909Y-8016771D01*
X38616771Y-7895909D01*
X38707709Y-7751183D01*
X38764162Y-7589850D01*
X38764163Y-7589844D01*
X38783299Y-7420003D01*
X38783299Y-7419996D01*
X38764163Y-7250155D01*
X38764162Y-7250150D01*
X38729118Y-7150000D01*
X38707709Y-7088817D01*
X38616771Y-6944091D01*
X38495909Y-6823229D01*
X38495908Y-6823228D01*
X38351183Y-6732291D01*
X38189849Y-6675837D01*
X38189844Y-6675836D01*
X38020004Y-6656701D01*
X38019996Y-6656701D01*
X37850151Y-6675837D01*
X37850150Y-6675837D01*
X37793709Y-6695586D01*
X37773800Y-6700745D01*
X37755857Y-6703834D01*
X37755850Y-6703836D01*
X37442098Y-6805466D01*
X37403887Y-6811500D01*
X35493008Y-6811500D01*
X35476823Y-6810439D01*
X35445004Y-6806250D01*
X35445002Y-6806250D01*
X35409156Y-6810969D01*
X35409125Y-6810972D01*
X35305547Y-6824607D01*
X35305546Y-6824608D01*
X35292616Y-6826310D01*
X35286151Y-6827162D01*
X35138129Y-6888474D01*
X35138126Y-6888476D01*
X35044564Y-6960268D01*
X35044565Y-6960269D01*
X35011013Y-6986015D01*
X34991470Y-7011483D01*
X34980778Y-7023674D01*
X34170181Y-7834272D01*
X34108858Y-7867757D01*
X34039167Y-7862773D01*
X33983233Y-7820901D01*
X33958816Y-7755437D01*
X33958500Y-7746591D01*
X33958500Y-3200117D01*
X33971522Y-3144800D01*
X34513343Y-2057897D01*
X34560866Y-2006686D01*
X34628537Y-1989295D01*
X34694868Y-2011250D01*
X34728124Y-2045401D01*
X34814276Y-2177265D01*
X34814284Y-2177276D01*
X34966756Y-2342902D01*
X34966760Y-2342906D01*
X35144424Y-2481189D01*
X35144425Y-2481189D01*
X35144427Y-2481191D01*
X35237581Y-2531603D01*
X35342426Y-2588342D01*
X35555365Y-2661444D01*
X35777431Y-2698500D01*
X36002569Y-2698500D01*
X36224635Y-2661444D01*
X36437574Y-2588342D01*
X36635576Y-2481189D01*
X36813240Y-2342906D01*
X36934594Y-2211082D01*
X36965715Y-2177276D01*
X36965715Y-2177275D01*
X36965722Y-2177268D01*
X37056193Y-2038790D01*
X37109338Y-1993437D01*
X37178569Y-1984013D01*
X37241905Y-2013515D01*
X37263804Y-2038787D01*
X37354278Y-2177268D01*
X37354282Y-2177272D01*
X37354283Y-2177273D01*
X37354284Y-2177276D01*
X37506756Y-2342902D01*
X37506760Y-2342906D01*
X37684424Y-2481189D01*
X37684425Y-2481189D01*
X37684427Y-2481191D01*
X37777581Y-2531603D01*
X37882426Y-2588342D01*
X38095365Y-2661444D01*
X38317431Y-2698500D01*
X38542569Y-2698500D01*
X38764635Y-2661444D01*
X38977574Y-2588342D01*
X39175576Y-2481189D01*
X39353240Y-2342906D01*
X39474594Y-2211082D01*
X39505715Y-2177276D01*
X39505715Y-2177275D01*
X39505722Y-2177268D01*
X39596193Y-2038790D01*
X39649338Y-1993437D01*
X39718569Y-1984013D01*
X39781905Y-2013515D01*
X39803804Y-2038787D01*
X39894278Y-2177268D01*
X39894282Y-2177272D01*
X39894283Y-2177273D01*
X39894284Y-2177276D01*
X40046756Y-2342902D01*
X40046760Y-2342906D01*
X40224424Y-2481189D01*
X40224425Y-2481189D01*
X40224427Y-2481191D01*
X40317581Y-2531603D01*
X40422426Y-2588342D01*
X40635365Y-2661444D01*
X40857431Y-2698500D01*
X41082569Y-2698500D01*
X41304635Y-2661444D01*
X41517574Y-2588342D01*
X41715576Y-2481189D01*
X41893240Y-2342906D01*
X42014594Y-2211082D01*
X42045715Y-2177276D01*
X42045718Y-2177272D01*
X42045722Y-2177268D01*
X42050187Y-2170432D01*
X42103331Y-2125078D01*
X42172562Y-2115653D01*
X42235898Y-2145154D01*
X42273231Y-2204213D01*
X42277855Y-2244151D01*
X42277718Y-2247015D01*
X42278643Y-2266434D01*
X42278254Y-2283766D01*
X42276826Y-2299198D01*
X42276751Y-2300003D01*
X42283679Y-2374776D01*
X42284067Y-2380313D01*
X42287791Y-2458470D01*
X42287792Y-2458475D01*
X42291555Y-2473986D01*
X42294521Y-2491774D01*
X42295706Y-2504559D01*
X42315164Y-2572949D01*
X42317200Y-2580102D01*
X42318438Y-2584802D01*
X42337701Y-2664201D01*
X42337702Y-2664206D01*
X42342891Y-2675568D01*
X42349359Y-2693134D01*
X42351922Y-2702141D01*
X42351928Y-2702157D01*
X42388476Y-2775554D01*
X42390270Y-2779314D01*
X42425641Y-2856765D01*
X42425647Y-2856776D01*
X42430879Y-2864123D01*
X42440868Y-2880771D01*
X42443496Y-2886048D01*
X42443498Y-2886052D01*
X42464194Y-2913457D01*
X42482374Y-2937532D01*
X42494989Y-2954236D01*
X42497042Y-2957035D01*
X42548443Y-3029218D01*
X42548445Y-3029219D01*
X42552459Y-3033047D01*
X42565837Y-3048057D01*
X42567292Y-3049983D01*
X42567295Y-3049987D01*
X42567298Y-3049989D01*
X42567299Y-3049991D01*
X42633040Y-3109922D01*
X42635033Y-3111780D01*
X42701654Y-3175303D01*
X42703398Y-3176424D01*
X42714519Y-3184970D01*
X42714544Y-3184938D01*
X42719119Y-3188393D01*
X42797685Y-3237039D01*
X42799402Y-3238122D01*
X42879746Y-3289756D01*
X42879748Y-3289757D01*
X42885000Y-3292465D01*
X42884966Y-3292529D01*
X42888488Y-3294308D01*
X42888650Y-3293984D01*
X42893773Y-3296534D01*
X42893782Y-3296540D01*
X42942333Y-3315348D01*
X42983160Y-3331164D01*
X42984388Y-3331647D01*
X43027754Y-3349009D01*
X43076278Y-3368436D01*
X43078247Y-3369013D01*
X43084340Y-3370465D01*
X43085339Y-3370749D01*
X43085340Y-3370749D01*
X43085345Y-3370751D01*
X43183172Y-3389037D01*
X43183283Y-3389058D01*
X43284151Y-3408500D01*
X43284156Y-3408500D01*
X43492716Y-3408500D01*
X43492718Y-3408500D01*
X43539397Y-3399773D01*
X43550349Y-3398229D01*
X43600739Y-3393419D01*
X43642651Y-3381112D01*
X43654786Y-3378203D01*
X43694655Y-3370751D01*
X43742127Y-3352360D01*
X43751986Y-3349009D01*
X43782872Y-3339939D01*
X43803862Y-3333777D01*
X43816394Y-3327315D01*
X43839609Y-3315348D01*
X43851634Y-3309937D01*
X43886218Y-3296540D01*
X43932457Y-3267909D01*
X43940919Y-3263118D01*
X43989349Y-3238151D01*
X43992026Y-3236771D01*
X44020922Y-3214046D01*
X44032282Y-3206099D01*
X44060882Y-3188392D01*
X44103633Y-3149417D01*
X44110494Y-3143606D01*
X44158432Y-3105908D01*
X44180231Y-3080749D01*
X44190405Y-3070316D01*
X44196444Y-3064809D01*
X44212701Y-3049991D01*
X44249654Y-3001055D01*
X44254864Y-2994618D01*
X44297065Y-2945918D01*
X44311989Y-2920066D01*
X44320408Y-2907361D01*
X44336503Y-2886050D01*
X44365364Y-2828088D01*
X44368977Y-2821360D01*
X44402913Y-2762582D01*
X44411537Y-2737661D01*
X44417709Y-2722965D01*
X44428074Y-2702152D01*
X44446745Y-2636527D01*
X44448827Y-2629921D01*
X44455772Y-2609854D01*
X44472153Y-2562527D01*
X44475412Y-2539857D01*
X44478878Y-2523590D01*
X44484294Y-2504559D01*
X44490906Y-2433199D01*
X44491638Y-2427003D01*
X44495487Y-2400239D01*
X44502281Y-2352984D01*
X44501356Y-2333576D01*
X44501743Y-2316238D01*
X44503249Y-2300000D01*
X44496318Y-2225214D01*
X44495930Y-2219679D01*
X44495520Y-2211078D01*
X44492208Y-2141526D01*
X44488441Y-2126002D01*
X44485478Y-2108229D01*
X44484294Y-2095441D01*
X44462783Y-2019840D01*
X44461556Y-2015182D01*
X44461378Y-2014447D01*
X44442298Y-1935796D01*
X44437107Y-1924430D01*
X44430636Y-1906853D01*
X44428076Y-1897856D01*
X44428074Y-1897848D01*
X44391511Y-1824421D01*
X44389716Y-1820659D01*
X44380905Y-1801366D01*
X44354356Y-1743229D01*
X44349121Y-1735877D01*
X44339129Y-1719224D01*
X44336503Y-1713950D01*
X44285002Y-1645752D01*
X44282956Y-1642963D01*
X44281544Y-1640980D01*
X44231559Y-1570785D01*
X44228196Y-1567578D01*
X44227546Y-1566958D01*
X44214153Y-1551931D01*
X44212708Y-1550018D01*
X44212705Y-1550014D01*
X44212704Y-1550013D01*
X44212701Y-1550009D01*
X44146913Y-1490036D01*
X44145002Y-1488253D01*
X44078346Y-1424697D01*
X44078343Y-1424694D01*
X44076601Y-1423575D01*
X44065480Y-1415029D01*
X44065456Y-1415062D01*
X44060877Y-1411604D01*
X43982327Y-1362967D01*
X43980567Y-1361857D01*
X43900258Y-1310246D01*
X43894999Y-1307535D01*
X43895032Y-1307470D01*
X43891512Y-1305692D01*
X43891351Y-1306016D01*
X43886213Y-1303457D01*
X43796883Y-1268851D01*
X43795591Y-1268343D01*
X43703722Y-1231564D01*
X43701761Y-1230988D01*
X43695680Y-1229540D01*
X43694660Y-1229250D01*
X43597017Y-1210996D01*
X43596337Y-1210867D01*
X43495850Y-1191500D01*
X43495849Y-1191500D01*
X43492718Y-1191500D01*
X43287282Y-1191500D01*
X43287276Y-1191500D01*
X43240614Y-1200222D01*
X43229622Y-1201771D01*
X43179265Y-1206580D01*
X43179261Y-1206580D01*
X43179261Y-1206581D01*
X43137346Y-1218888D01*
X43125200Y-1221798D01*
X43085351Y-1229247D01*
X43085338Y-1229251D01*
X43037866Y-1247641D01*
X43028011Y-1250991D01*
X42976140Y-1266222D01*
X42940389Y-1284652D01*
X42928371Y-1290059D01*
X42893781Y-1303460D01*
X42893780Y-1303460D01*
X42847540Y-1332091D01*
X42839085Y-1336878D01*
X42787977Y-1363226D01*
X42759082Y-1385949D01*
X42747714Y-1393901D01*
X42719115Y-1411609D01*
X42676375Y-1450571D01*
X42669494Y-1456400D01*
X42621565Y-1494093D01*
X42599763Y-1519253D01*
X42589598Y-1529678D01*
X42567298Y-1550008D01*
X42567297Y-1550009D01*
X42542614Y-1582695D01*
X42486505Y-1624330D01*
X42416793Y-1629020D01*
X42355611Y-1595276D01*
X42322386Y-1533812D01*
X42320086Y-1497725D01*
X42320796Y-1489166D01*
X42328993Y-1390244D01*
X42333156Y-1340004D01*
X42333156Y-1339994D01*
X42314565Y-1115640D01*
X42314563Y-1115628D01*
X42285149Y-999475D01*
X42259296Y-897384D01*
X42168860Y-691209D01*
X42154632Y-669432D01*
X42059390Y-523653D01*
X42045722Y-502732D01*
X42002685Y-455982D01*
X41971764Y-393329D01*
X41979624Y-323903D01*
X42023771Y-269747D01*
X42090188Y-248056D01*
X42093916Y-248000D01*
X42250830Y-248000D01*
X42291519Y-248000D01*
X42298471Y-248195D01*
G37*
%TD.AperFunction*%
%TA.AperFunction,Conductor*%
G36*
X28695458Y-5468185D02*
G01*
X28735339Y-5509698D01*
X28893827Y-5779521D01*
X28905983Y-5807728D01*
X28927301Y-5881104D01*
X28930394Y-5894468D01*
X28934853Y-5920128D01*
X28934855Y-5920138D01*
X28938848Y-5932397D01*
X28940890Y-6002237D01*
X28904850Y-6062094D01*
X28842170Y-6092965D01*
X28772750Y-6085047D01*
X28736056Y-6061184D01*
X28733066Y-6058376D01*
X28730272Y-6055668D01*
X28709676Y-6035072D01*
X28706092Y-6032292D01*
X28697218Y-6024713D01*
X28663477Y-5993028D01*
X28663475Y-5993026D01*
X28644544Y-5982619D01*
X28628292Y-5971944D01*
X28611212Y-5958696D01*
X28611208Y-5958694D01*
X28568728Y-5940311D01*
X28558239Y-5935172D01*
X28517682Y-5912875D01*
X28496755Y-5907502D01*
X28478350Y-5901201D01*
X28458518Y-5892619D01*
X28412799Y-5885378D01*
X28401361Y-5883010D01*
X28400956Y-5882906D01*
X28356532Y-5871500D01*
X28356530Y-5871500D01*
X28334925Y-5871500D01*
X28315527Y-5869973D01*
X28306947Y-5868614D01*
X28294193Y-5866594D01*
X28294192Y-5866594D01*
X28248108Y-5870950D01*
X28236441Y-5871500D01*
X26341668Y-5871500D01*
X26274629Y-5851815D01*
X26228874Y-5799011D01*
X26218378Y-5760754D01*
X26216843Y-5746479D01*
X26211462Y-5696419D01*
X26211460Y-5696413D01*
X26211460Y-5696406D01*
X26210866Y-5692846D01*
X26211121Y-5692803D01*
X26208500Y-5669471D01*
X26208500Y-5572500D01*
X26228185Y-5505461D01*
X26280989Y-5459706D01*
X26332500Y-5448500D01*
X28628419Y-5448500D01*
X28695458Y-5468185D01*
G37*
%TD.AperFunction*%
%TA.AperFunction,Conductor*%
G36*
X15820000Y-2670633D02*
G01*
X16033483Y-2613433D01*
X16033492Y-2613429D01*
X16247578Y-2513600D01*
X16441082Y-2378105D01*
X16608105Y-2211082D01*
X16734284Y-2030882D01*
X16788861Y-1987257D01*
X16858360Y-1980065D01*
X16920714Y-2011587D01*
X16945022Y-2043191D01*
X17532517Y-3133628D01*
X17536664Y-3141325D01*
X17551500Y-3200139D01*
X17551500Y-3941498D01*
X17531815Y-4008537D01*
X17479011Y-4054292D01*
X17409853Y-4064236D01*
X17377064Y-4054777D01*
X17296757Y-4019021D01*
X17296751Y-4019019D01*
X17157751Y-3989474D01*
X17120232Y-3981500D01*
X16939768Y-3981500D01*
X16763253Y-4019017D01*
X16757725Y-4020813D01*
X16744863Y-4025286D01*
X16329894Y-4131500D01*
X16279245Y-4144464D01*
X16266887Y-4147627D01*
X16236140Y-4151500D01*
X11389122Y-4151500D01*
X11322083Y-4131815D01*
X11276328Y-4079011D01*
X11266384Y-4009853D01*
X11295409Y-3946297D01*
X11301441Y-3939819D01*
X11469737Y-3771523D01*
X12156730Y-3084528D01*
X12204821Y-3054699D01*
X13507356Y-2615921D01*
X13523657Y-2610122D01*
X13524388Y-2609848D01*
X13547411Y-2599325D01*
X13558685Y-2594825D01*
X13577574Y-2588342D01*
X13775576Y-2481189D01*
X13953240Y-2342906D01*
X14074594Y-2211082D01*
X14105715Y-2177276D01*
X14105715Y-2177275D01*
X14105722Y-2177268D01*
X14199749Y-2033347D01*
X14252894Y-1987994D01*
X14322125Y-1978570D01*
X14385461Y-2008072D01*
X14405130Y-2030048D01*
X14531890Y-2211078D01*
X14698917Y-2378105D01*
X14892421Y-2513600D01*
X15106507Y-2613429D01*
X15106516Y-2613433D01*
X15320000Y-2670634D01*
X15320000Y-1775501D01*
X15427685Y-1824680D01*
X15534237Y-1840000D01*
X15605763Y-1840000D01*
X15712315Y-1824680D01*
X15820000Y-1775501D01*
X15820000Y-2670633D01*
G37*
%TD.AperFunction*%
%TA.AperFunction,Conductor*%
G36*
X19455412Y-2014447D02*
G01*
X19491424Y-2050451D01*
X19574276Y-2177265D01*
X19574284Y-2177276D01*
X19726756Y-2342902D01*
X19726760Y-2342906D01*
X19904424Y-2481189D01*
X19904425Y-2481189D01*
X19904427Y-2481191D01*
X19997581Y-2531603D01*
X20102426Y-2588342D01*
X20144112Y-2602652D01*
X20159526Y-2609137D01*
X20173635Y-2616229D01*
X21486702Y-3055670D01*
X21535030Y-3085579D01*
X22085777Y-3636326D01*
X22096472Y-3648521D01*
X22116010Y-3673984D01*
X22116011Y-3673985D01*
X22116013Y-3673987D01*
X22141073Y-3693216D01*
X22144702Y-3696001D01*
X22144728Y-3696022D01*
X22147929Y-3698478D01*
X22243124Y-3771524D01*
X22243126Y-3771524D01*
X22243128Y-3771526D01*
X22317136Y-3802181D01*
X22391149Y-3832838D01*
X22410536Y-3835390D01*
X22410543Y-3835393D01*
X22410543Y-3835391D01*
X22510115Y-3848500D01*
X22510117Y-3848500D01*
X22514128Y-3849028D01*
X22514154Y-3849031D01*
X22549999Y-3853750D01*
X22550000Y-3853750D01*
X22550001Y-3853750D01*
X22581820Y-3849561D01*
X22598005Y-3848500D01*
X28856589Y-3848500D01*
X28923628Y-3868185D01*
X28944270Y-3884819D01*
X28979270Y-3919819D01*
X29012755Y-3981142D01*
X29007771Y-4050834D01*
X28965899Y-4106767D01*
X28900435Y-4131184D01*
X28891589Y-4131500D01*
X20103569Y-4131500D01*
X20072917Y-4127652D01*
X19595120Y-4005762D01*
X19582876Y-4001510D01*
X19576745Y-3999517D01*
X19400232Y-3962000D01*
X19219768Y-3962000D01*
X19207047Y-3964704D01*
X19043248Y-3999519D01*
X19043242Y-3999521D01*
X18942936Y-4044182D01*
X18873686Y-4053467D01*
X18810409Y-4023839D01*
X18773196Y-3964704D01*
X18768500Y-3930903D01*
X18768500Y-3181903D01*
X18780083Y-3129573D01*
X18781246Y-3127076D01*
X19275199Y-2065942D01*
X19321336Y-2013473D01*
X19388517Y-1994276D01*
X19455412Y-2014447D01*
G37*
%TD.AperFunction*%
%TA.AperFunction,Conductor*%
G36*
X32150551Y-2019911D02*
G01*
X32190973Y-2066562D01*
X32728474Y-3144796D01*
X32728475Y-3144797D01*
X32741500Y-3200118D01*
X32741500Y-3964533D01*
X32721815Y-4031572D01*
X32669011Y-4077327D01*
X32599853Y-4087271D01*
X32536297Y-4058246D01*
X32529819Y-4052214D01*
X31558139Y-3080534D01*
X31524654Y-3019211D01*
X31529638Y-2949519D01*
X31534837Y-2937550D01*
X31969024Y-2066562D01*
X32016550Y-2015347D01*
X32084220Y-1997956D01*
X32150551Y-2019911D01*
G37*
%TD.AperFunction*%
%TA.AperFunction,Conductor*%
G36*
X6541282Y-267685D02*
G01*
X6587037Y-320489D01*
X6597532Y-385257D01*
X6591500Y-441348D01*
X6591500Y-2162682D01*
X6590686Y-2172571D01*
X6590559Y-2178558D01*
X6590586Y-2178779D01*
X6591500Y-2193810D01*
X6591500Y-2238654D01*
X6598010Y-2299198D01*
X6611709Y-2335928D01*
X6613315Y-2340506D01*
X6627786Y-2384492D01*
X6627788Y-2384496D01*
X6628984Y-2386613D01*
X6637194Y-2404255D01*
X6647994Y-2433210D01*
X6649111Y-2436203D01*
X6649111Y-2436204D01*
X6676460Y-2472739D01*
X6685158Y-2486062D01*
X6699664Y-2511743D01*
X6699665Y-2511745D01*
X6699668Y-2511750D01*
X6699670Y-2511752D01*
X6738248Y-2561771D01*
X6763603Y-2626877D01*
X6749734Y-2695356D01*
X6701044Y-2745467D01*
X6640059Y-2761500D01*
X6368532Y-2761500D01*
X6306848Y-2745069D01*
X6006690Y-2572948D01*
X5962838Y-2530478D01*
X5914030Y-2451348D01*
X5788652Y-2325970D01*
X5637738Y-2232885D01*
X5551210Y-2204213D01*
X5469427Y-2177113D01*
X5377728Y-2167744D01*
X5313037Y-2141347D01*
X5272886Y-2084166D01*
X5270024Y-2014355D01*
X5284794Y-1979288D01*
X5357090Y-1862079D01*
X5357093Y-1862072D01*
X5409942Y-1702583D01*
X5419999Y-1604150D01*
X5420000Y-1604137D01*
X5420000Y-1550000D01*
X4356500Y-1550000D01*
X4289461Y-1530315D01*
X4243706Y-1477511D01*
X4232500Y-1426000D01*
X4232500Y-1174000D01*
X4252185Y-1106961D01*
X4304989Y-1061206D01*
X4356500Y-1050000D01*
X5419999Y-1050000D01*
X5419999Y-995864D01*
X5419998Y-995847D01*
X5409943Y-897416D01*
X5357093Y-737927D01*
X5357091Y-737922D01*
X5268885Y-594919D01*
X5150079Y-476113D01*
X5144412Y-471632D01*
X5145659Y-470054D01*
X5105666Y-425592D01*
X5094443Y-356630D01*
X5122286Y-292547D01*
X5180354Y-253690D01*
X5217487Y-248000D01*
X6474243Y-248000D01*
X6541282Y-267685D01*
G37*
%TD.AperFunction*%
%TD*%
%TA.AperFunction,Conductor*%
%TO.N,/VDD_5V*%
G36*
X5569865Y-2914395D02*
G01*
X6184120Y-3266628D01*
X6189592Y-3273717D01*
X6190000Y-3276778D01*
X6190000Y-3763510D01*
X6186573Y-3771783D01*
X6184496Y-3773435D01*
X5572787Y-4155305D01*
X5563954Y-4156779D01*
X5558425Y-4153758D01*
X4947370Y-3558158D01*
X4943839Y-3549932D01*
X4947152Y-3541623D01*
X5555661Y-2916384D01*
X5563886Y-2912846D01*
X5569865Y-2914395D01*
G37*
%TD.AperFunction*%
%TD*%
%TA.AperFunction,Conductor*%
%TO.N,/VDD_5V*%
G36*
X1429224Y-16833146D02*
G01*
X1437201Y-16837215D01*
X1440000Y-16844809D01*
X1440000Y-17323001D01*
X1436573Y-17331274D01*
X1429023Y-17334679D01*
X1027034Y-17359564D01*
X1018565Y-17356655D01*
X1016326Y-17353984D01*
X852797Y-17086217D01*
X851409Y-17077370D01*
X852902Y-17073852D01*
X1022211Y-16807139D01*
X1029537Y-16801991D01*
X1033007Y-16801747D01*
X1429224Y-16833146D01*
G37*
%TD.AperFunction*%
%TD*%
%TA.AperFunction,Conductor*%
%TO.N,/VDD_5V*%
G36*
X1443579Y-16792143D02*
G01*
X1924131Y-17079899D01*
X1929468Y-17087089D01*
X1928158Y-17095948D01*
X1924075Y-17100008D01*
X1443712Y-17384060D01*
X1435749Y-17385515D01*
X1149692Y-17335688D01*
X1142130Y-17330893D01*
X1140000Y-17324162D01*
X1140000Y-16844109D01*
X1143427Y-16835836D01*
X1150002Y-16832533D01*
X1435872Y-16790605D01*
X1443579Y-16792143D01*
G37*
%TD.AperFunction*%
%TD*%
%TA.AperFunction,Conductor*%
%TO.N,/VDD_5V*%
G36*
X2730224Y-18738370D02*
G01*
X2737821Y-18743111D01*
X2740000Y-18749911D01*
X2740000Y-19230088D01*
X2736573Y-19238361D01*
X2730223Y-19241629D01*
X2444243Y-19289292D01*
X2436309Y-19287789D01*
X1955763Y-19000038D01*
X1950426Y-18992848D01*
X1951736Y-18983989D01*
X1955763Y-18979962D01*
X2339949Y-18749911D01*
X2436309Y-18692209D01*
X2444242Y-18690707D01*
X2730224Y-18738370D01*
G37*
%TD.AperFunction*%
%TD*%
%TA.AperFunction,Conductor*%
%TO.N,/VDD_5V*%
G36*
X5572826Y-2929695D02*
G01*
X6184320Y-3296592D01*
X6189651Y-3303787D01*
X6190000Y-3306625D01*
X6190000Y-3793375D01*
X6186573Y-3801648D01*
X6184320Y-3803408D01*
X5572827Y-4170303D01*
X5563969Y-4171621D01*
X5558540Y-4168550D01*
X4947293Y-3558280D01*
X4943860Y-3550009D01*
X4947280Y-3541733D01*
X4947293Y-3541720D01*
X5192813Y-3296592D01*
X5558541Y-2931448D01*
X5566816Y-2928029D01*
X5572826Y-2929695D01*
G37*
%TD.AperFunction*%
%TD*%
%TA.AperFunction,Conductor*%
%TO.N,/VDD_5V*%
G36*
X2188362Y-16493427D02*
G01*
X2191630Y-16499777D01*
X2239012Y-16784073D01*
X2236992Y-16792797D01*
X2235758Y-16794255D01*
X1948287Y-17082685D01*
X1940019Y-17086126D01*
X1931741Y-17082713D01*
X1931713Y-17082685D01*
X1644241Y-16794255D01*
X1640828Y-16785977D01*
X1640986Y-16784083D01*
X1688370Y-16499775D01*
X1693111Y-16492179D01*
X1699911Y-16490000D01*
X2180089Y-16490000D01*
X2188362Y-16493427D01*
G37*
%TD.AperFunction*%
%TD*%
%TA.AperFunction,Conductor*%
%TO.N,/VDD_5V*%
G36*
X7958373Y-1348172D02*
G01*
X7958936Y-1348776D01*
X8682417Y-2182432D01*
X8685252Y-2190927D01*
X8682517Y-2197653D01*
X7908715Y-3113332D01*
X7900758Y-3117439D01*
X7892227Y-3114716D01*
X7891506Y-3114053D01*
X7547483Y-2770030D01*
X7546491Y-2768902D01*
X7106281Y-2198144D01*
X7103942Y-2189501D01*
X7107272Y-2182727D01*
X7941828Y-1348171D01*
X7950100Y-1344745D01*
X7958373Y-1348172D01*
G37*
%TD.AperFunction*%
%TD*%
%TA.AperFunction,Conductor*%
%TO.N,/VDD_5V*%
G36*
X2730224Y-16838370D02*
G01*
X2737821Y-16843111D01*
X2740000Y-16849911D01*
X2740000Y-17330088D01*
X2736573Y-17338361D01*
X2730223Y-17341629D01*
X2444243Y-17389292D01*
X2436309Y-17387789D01*
X1955763Y-17100038D01*
X1950426Y-17092848D01*
X1951736Y-17083989D01*
X1955763Y-17079962D01*
X2339949Y-16849911D01*
X2436309Y-16792209D01*
X2444242Y-16790707D01*
X2730224Y-16838370D01*
G37*
%TD.AperFunction*%
%TD*%
%TA.AperFunction,Conductor*%
%TO.N,/VDD_3.3V*%
G36*
X5417768Y-16813821D02*
G01*
X5421552Y-16816808D01*
X5634752Y-17072507D01*
X5637418Y-17081056D01*
X5634752Y-17087493D01*
X5421444Y-17343321D01*
X5413514Y-17347480D01*
X5408945Y-17346988D01*
X5058187Y-17236577D01*
X5051325Y-17230824D01*
X5050000Y-17225417D01*
X5050000Y-16942407D01*
X5053427Y-16934134D01*
X5057966Y-16931318D01*
X5408833Y-16813212D01*
X5417768Y-16813821D01*
G37*
%TD.AperFunction*%
%TD*%
%TA.AperFunction,Conductor*%
%TO.N,/VDD_3.3V*%
G36*
X5045669Y-16792721D02*
G01*
X5333363Y-16930814D01*
X5339338Y-16937484D01*
X5340000Y-16941362D01*
X5340000Y-17226817D01*
X5336573Y-17235090D01*
X5333595Y-17237250D01*
X5045724Y-17383350D01*
X5036796Y-17384039D01*
X5034474Y-17382988D01*
X4770372Y-17226817D01*
X4555923Y-17100007D01*
X4550547Y-17092847D01*
X4551808Y-17083982D01*
X4555867Y-17079899D01*
X5034601Y-16793232D01*
X5043459Y-16791923D01*
X5045669Y-16792721D01*
G37*
%TD.AperFunction*%
%TD*%
%TA.AperFunction,Conductor*%
%TO.N,/VDD_3.3V*%
G36*
X30375026Y-15475078D02*
G01*
X30574921Y-15674973D01*
X30578348Y-15683246D01*
X30576981Y-15688734D01*
X30308331Y-16194573D01*
X30301424Y-16200272D01*
X30293549Y-16199906D01*
X29983808Y-16072563D01*
X29977460Y-16066249D01*
X29850093Y-15756449D01*
X29850116Y-15747495D01*
X29855425Y-15741668D01*
X30361267Y-15473017D01*
X30370179Y-15472164D01*
X30375026Y-15475078D01*
G37*
%TD.AperFunction*%
%TD*%
%TA.AperFunction,Conductor*%
%TO.N,/VDD_3.3V*%
G36*
X16895122Y-4520419D02*
G01*
X16899957Y-4525979D01*
X17029119Y-4835494D01*
X17029142Y-4844449D01*
X17029119Y-4844506D01*
X16900359Y-5153056D01*
X16894010Y-5159371D01*
X16885568Y-5159548D01*
X16343674Y-4962798D01*
X16337067Y-4956753D01*
X16335967Y-4951800D01*
X16335967Y-4669082D01*
X16339394Y-4660809D01*
X16344763Y-4657748D01*
X16886260Y-4519150D01*
X16895122Y-4520419D01*
G37*
%TD.AperFunction*%
%TD*%
%TA.AperFunction,Conductor*%
%TO.N,/VDD_3.3V*%
G36*
X12255664Y-1019245D02*
G01*
X13026215Y-1337438D01*
X13032552Y-1343761D01*
X13032562Y-1343785D01*
X13350506Y-2113736D01*
X13350497Y-2122691D01*
X13344158Y-2129016D01*
X13343427Y-2129290D01*
X11916828Y-2609863D01*
X11907894Y-2609256D01*
X11904820Y-2607048D01*
X11703248Y-2405476D01*
X11699821Y-2397203D01*
X11700637Y-2392912D01*
X12240338Y-1025772D01*
X12246564Y-1019336D01*
X12255517Y-1019186D01*
X12255664Y-1019245D01*
G37*
%TD.AperFunction*%
%TD*%
%TA.AperFunction,Conductor*%
%TO.N,/VDD_3.3V*%
G36*
X9738810Y-8917086D02*
G01*
X9964160Y-9172255D01*
X9967068Y-9180725D01*
X9964160Y-9187745D01*
X9738810Y-9442913D01*
X9730765Y-9446846D01*
X9724309Y-9445368D01*
X9435969Y-9283353D01*
X9430435Y-9276313D01*
X9430000Y-9273153D01*
X9430000Y-9086846D01*
X9433427Y-9078573D01*
X9435969Y-9076646D01*
X9724310Y-8914630D01*
X9733200Y-8913566D01*
X9738810Y-8917086D01*
G37*
%TD.AperFunction*%
%TD*%
%TA.AperFunction,Conductor*%
%TO.N,/VDD_3.3V*%
G36*
X5581991Y-16439714D02*
G01*
X5585167Y-16441972D01*
X5784731Y-16641536D01*
X5786362Y-16643580D01*
X5928922Y-16870266D01*
X5930426Y-16879094D01*
X5925594Y-16886172D01*
X5646992Y-17075475D01*
X5638223Y-17077291D01*
X5632465Y-17074381D01*
X5421665Y-16879094D01*
X5382901Y-16843183D01*
X5379162Y-16835048D01*
X5380321Y-16829507D01*
X5566363Y-16445147D01*
X5573052Y-16439194D01*
X5581991Y-16439714D01*
G37*
%TD.AperFunction*%
%TD*%
%TA.AperFunction,Conductor*%
%TO.N,/VDD_3.3V*%
G36*
X30667491Y-14775246D02*
G01*
X30923257Y-14988501D01*
X30927416Y-14996431D01*
X30926889Y-15001110D01*
X30812631Y-15351923D01*
X30806810Y-15358728D01*
X30801506Y-15360000D01*
X30518494Y-15360000D01*
X30510221Y-15356573D01*
X30507369Y-15351923D01*
X30393110Y-15001108D01*
X30393806Y-14992183D01*
X30396738Y-14988505D01*
X30652508Y-14775246D01*
X30661056Y-14772581D01*
X30667491Y-14775246D01*
G37*
%TD.AperFunction*%
%TD*%
%TA.AperFunction,Conductor*%
%TO.N,/VDD_3.3V*%
G36*
X29697491Y-5535246D02*
G01*
X29953257Y-5748501D01*
X29957416Y-5756431D01*
X29956889Y-5761110D01*
X29842631Y-6111923D01*
X29836810Y-6118728D01*
X29831506Y-6120000D01*
X29548494Y-6120000D01*
X29540221Y-6116573D01*
X29537369Y-6111923D01*
X29423110Y-5761108D01*
X29423806Y-5752183D01*
X29426738Y-5748505D01*
X29682508Y-5535246D01*
X29691056Y-5532581D01*
X29697491Y-5535246D01*
G37*
%TD.AperFunction*%
%TD*%
%TA.AperFunction,Conductor*%
%TO.N,/VDD_3.3V*%
G36*
X19995125Y-4637753D02*
G01*
X20002294Y-4643119D01*
X20003933Y-4649090D01*
X20003933Y-4931808D01*
X20000506Y-4940081D01*
X19996235Y-4942802D01*
X19454436Y-5140036D01*
X19445490Y-5139646D01*
X19439637Y-5133549D01*
X19310879Y-4825005D01*
X19310857Y-4816051D01*
X19310880Y-4815994D01*
X19383022Y-4643119D01*
X19440045Y-4506471D01*
X19446394Y-4500157D01*
X19453735Y-4499641D01*
X19995125Y-4637753D01*
G37*
%TD.AperFunction*%
%TD*%
%TA.AperFunction,Conductor*%
%TO.N,/VDD_3.3V*%
G36*
X1369566Y-657554D02*
G01*
X1376559Y-663147D01*
X1378011Y-668792D01*
X1378011Y-951500D01*
X1374584Y-959773D01*
X1369928Y-962627D01*
X824199Y-1140022D01*
X815272Y-1139320D01*
X809784Y-1133401D01*
X737328Y-959773D01*
X680879Y-824505D01*
X680857Y-815551D01*
X680880Y-815494D01*
X809917Y-506278D01*
X816266Y-499964D01*
X823970Y-499547D01*
X1369566Y-657554D01*
G37*
%TD.AperFunction*%
%TD*%
%TA.AperFunction,Conductor*%
%TO.N,/VDD_3.3V*%
G36*
X1505165Y-553297D02*
G01*
X1508350Y-555753D01*
X1733772Y-802102D01*
X1736829Y-810518D01*
X1733772Y-817898D01*
X1508350Y-1064246D01*
X1500236Y-1068037D01*
X1496248Y-1067522D01*
X1158230Y-962555D01*
X1151346Y-956828D01*
X1150000Y-951381D01*
X1150000Y-668618D01*
X1153427Y-660345D01*
X1158229Y-657444D01*
X1496249Y-552477D01*
X1505165Y-553297D01*
G37*
%TD.AperFunction*%
%TD*%
%TA.AperFunction,Conductor*%
%TO.N,/VDD_3.3V*%
G36*
X8878090Y-11613427D02*
G01*
X8880807Y-11617687D01*
X9139908Y-12327281D01*
X9139527Y-12336228D01*
X9133418Y-12342094D01*
X8732500Y-12509125D01*
X8723545Y-12509144D01*
X8723500Y-12509125D01*
X8322581Y-12342094D01*
X8316262Y-12335749D01*
X8316091Y-12327283D01*
X8575193Y-11617686D01*
X8581249Y-11611091D01*
X8586183Y-11610000D01*
X8869817Y-11610000D01*
X8878090Y-11613427D01*
G37*
%TD.AperFunction*%
%TD*%
%TA.AperFunction,Conductor*%
%TO.N,/VDD_3.3V*%
G36*
X9619390Y-12362163D02*
G01*
X9625946Y-12368261D01*
X9627005Y-12373126D01*
X9627005Y-12656767D01*
X9623578Y-12665040D01*
X9619256Y-12667780D01*
X8910680Y-12921988D01*
X8901736Y-12921556D01*
X8895929Y-12915475D01*
X8792734Y-12667780D01*
X8728873Y-12514498D01*
X8728855Y-12505547D01*
X8895877Y-12104648D01*
X8902222Y-12098330D01*
X8910760Y-12098185D01*
X9619390Y-12362163D01*
G37*
%TD.AperFunction*%
%TD*%
%TA.AperFunction,Conductor*%
%TO.N,/VDD_3.3V*%
G36*
X11365553Y-12193003D02*
G01*
X11941967Y-12504708D01*
X11947615Y-12511658D01*
X11946694Y-12520565D01*
X11941967Y-12525292D01*
X11365553Y-12836996D01*
X11356646Y-12837917D01*
X11354441Y-12837006D01*
X11041153Y-12668313D01*
X11035493Y-12661373D01*
X11035000Y-12658011D01*
X11035000Y-12371988D01*
X11038427Y-12363715D01*
X11041148Y-12361689D01*
X11354441Y-12192992D01*
X11363350Y-12192088D01*
X11365553Y-12193003D01*
G37*
%TD.AperFunction*%
%TD*%
%TA.AperFunction,Conductor*%
%TO.N,/VDD_3.3V*%
G36*
X9133418Y-12677905D02*
G01*
X9139737Y-12684250D01*
X9139908Y-12692718D01*
X8880807Y-13402313D01*
X8874751Y-13408909D01*
X8869817Y-13410000D01*
X8586183Y-13410000D01*
X8577910Y-13406573D01*
X8575193Y-13402313D01*
X8316091Y-12692716D01*
X8316472Y-12683771D01*
X8322579Y-12677906D01*
X8723501Y-12510873D01*
X8732452Y-12510855D01*
X9133418Y-12677905D01*
G37*
%TD.AperFunction*%
%TD*%
%TA.AperFunction,Conductor*%
%TO.N,/VDD_3.3V*%
G36*
X29358281Y-4974374D02*
G01*
X29770312Y-5215435D01*
X29775722Y-5222570D01*
X29775666Y-5228701D01*
X29692260Y-5525184D01*
X29686721Y-5532220D01*
X29685390Y-5532860D01*
X29419364Y-5640620D01*
X29410409Y-5640550D01*
X29404883Y-5635702D01*
X29142937Y-5189747D01*
X29141701Y-5180878D01*
X29144750Y-5175550D01*
X29344101Y-4976199D01*
X29352373Y-4972773D01*
X29358281Y-4974374D01*
G37*
%TD.AperFunction*%
%TD*%
%TA.AperFunction,Conductor*%
%TO.N,/VDD_3.3V*%
G36*
X12565559Y-12192993D02*
G01*
X12878848Y-12361687D01*
X12884507Y-12368626D01*
X12885000Y-12371988D01*
X12885000Y-12658011D01*
X12881573Y-12666284D01*
X12878847Y-12668313D01*
X12565558Y-12837006D01*
X12556649Y-12837911D01*
X12554446Y-12836996D01*
X11978032Y-12525292D01*
X11972384Y-12518342D01*
X11973305Y-12509435D01*
X11978032Y-12504708D01*
X12229679Y-12368626D01*
X12554446Y-12193002D01*
X12563353Y-12192082D01*
X12565559Y-12192993D01*
G37*
%TD.AperFunction*%
%TD*%
%TA.AperFunction,Conductor*%
%TO.N,/VDD_3.3V*%
G36*
X15665553Y-12193003D02*
G01*
X16241967Y-12504708D01*
X16247615Y-12511658D01*
X16246694Y-12520565D01*
X16241967Y-12525292D01*
X15665553Y-12836996D01*
X15656646Y-12837917D01*
X15654441Y-12837006D01*
X15341153Y-12668313D01*
X15335493Y-12661373D01*
X15335000Y-12658011D01*
X15335000Y-12371988D01*
X15338427Y-12363715D01*
X15341148Y-12361689D01*
X15654441Y-12192992D01*
X15663350Y-12192088D01*
X15665553Y-12193003D01*
G37*
%TD.AperFunction*%
%TD*%
%TA.AperFunction,Conductor*%
%TO.N,/VDD_3.3V*%
G36*
X30809779Y-14183427D02*
G01*
X30812631Y-14188077D01*
X30926889Y-14538889D01*
X30926193Y-14547816D01*
X30923257Y-14551498D01*
X30667493Y-14764752D01*
X30658944Y-14767418D01*
X30652507Y-14764752D01*
X30396742Y-14551498D01*
X30392583Y-14543568D01*
X30393109Y-14538894D01*
X30507369Y-14188076D01*
X30513190Y-14181271D01*
X30518494Y-14180000D01*
X30801506Y-14180000D01*
X30809779Y-14183427D01*
G37*
%TD.AperFunction*%
%TD*%
%TA.AperFunction,Conductor*%
%TO.N,/VDD_3.3V*%
G36*
X25409779Y-10323427D02*
G01*
X25412631Y-10328077D01*
X25526889Y-10678889D01*
X25526193Y-10687816D01*
X25523257Y-10691498D01*
X25267493Y-10904752D01*
X25258944Y-10907418D01*
X25252507Y-10904752D01*
X24996742Y-10691498D01*
X24992583Y-10683568D01*
X24993109Y-10678894D01*
X25107369Y-10328076D01*
X25113190Y-10321271D01*
X25118494Y-10320000D01*
X25401506Y-10320000D01*
X25409779Y-10323427D01*
G37*
%TD.AperFunction*%
%TD*%
%TA.AperFunction,Conductor*%
%TO.N,/VDD_3.3V*%
G36*
X25267491Y-9565246D02*
G01*
X25523257Y-9778501D01*
X25527416Y-9786431D01*
X25526889Y-9791110D01*
X25412631Y-10141923D01*
X25406810Y-10148728D01*
X25401506Y-10150000D01*
X25118494Y-10150000D01*
X25110221Y-10146573D01*
X25107369Y-10141923D01*
X24993110Y-9791108D01*
X24993806Y-9782183D01*
X24996738Y-9778505D01*
X25252508Y-9565246D01*
X25261056Y-9562581D01*
X25267491Y-9565246D01*
G37*
%TD.AperFunction*%
%TD*%
%TA.AperFunction,Conductor*%
%TO.N,/VDD_3.3V*%
G36*
X25267491Y-10915246D02*
G01*
X25523257Y-11128501D01*
X25527416Y-11136431D01*
X25526889Y-11141110D01*
X25412631Y-11491923D01*
X25406810Y-11498728D01*
X25401506Y-11500000D01*
X25118494Y-11500000D01*
X25110221Y-11496573D01*
X25107369Y-11491923D01*
X24993110Y-11141108D01*
X24993806Y-11132183D01*
X24996738Y-11128505D01*
X25252508Y-10915246D01*
X25261056Y-10912581D01*
X25267491Y-10915246D01*
G37*
%TD.AperFunction*%
%TD*%
%TA.AperFunction,Conductor*%
%TO.N,/VDD_3.3V*%
G36*
X25635262Y-9244263D02*
G01*
X25635471Y-9244467D01*
X25835549Y-9444545D01*
X25838976Y-9452818D01*
X25835549Y-9461091D01*
X25835317Y-9461317D01*
X25544098Y-9736830D01*
X25535733Y-9740027D01*
X25529638Y-9738113D01*
X25459004Y-9691761D01*
X25264759Y-9564294D01*
X25259723Y-9556891D01*
X25259484Y-9554175D01*
X25268079Y-9261075D01*
X25271747Y-9252907D01*
X25279481Y-9249723D01*
X25626906Y-9241044D01*
X25635262Y-9244263D01*
G37*
%TD.AperFunction*%
%TD*%
%TA.AperFunction,Conductor*%
%TO.N,/VDD_3.3V*%
G36*
X22513722Y-15152645D02*
G01*
X22518027Y-15157865D01*
X22609109Y-15375483D01*
X22609142Y-15384438D01*
X22609109Y-15384517D01*
X22518027Y-15602134D01*
X22511671Y-15608443D01*
X22504937Y-15609089D01*
X22119403Y-15531883D01*
X22111963Y-15526899D01*
X22110000Y-15520411D01*
X22110000Y-15239588D01*
X22113427Y-15231315D01*
X22119400Y-15228117D01*
X22504939Y-15150910D01*
X22513722Y-15152645D01*
G37*
%TD.AperFunction*%
%TD*%
%TA.AperFunction,Conductor*%
%TO.N,/VDD_3.3V*%
G36*
X22872040Y-14938912D02*
G01*
X23070663Y-15137535D01*
X23074090Y-15145808D01*
X23071950Y-15152553D01*
X22794753Y-15545470D01*
X22787184Y-15550254D01*
X22778448Y-15548285D01*
X22776953Y-15547031D01*
X22610978Y-15382379D01*
X22608394Y-15378514D01*
X22518092Y-15158210D01*
X22518125Y-15149258D01*
X22522773Y-15143820D01*
X22857624Y-14937227D01*
X22866464Y-14935800D01*
X22872040Y-14938912D01*
G37*
%TD.AperFunction*%
%TD*%
%TA.AperFunction,Conductor*%
%TO.N,/BOOT0*%
G36*
X18298684Y-14163427D02*
G01*
X18301883Y-14169403D01*
X18379089Y-14554937D01*
X18377354Y-14563722D01*
X18372134Y-14568027D01*
X18154517Y-14659109D01*
X18145563Y-14659142D01*
X18145483Y-14659109D01*
X17927865Y-14568027D01*
X17921556Y-14561672D01*
X17920910Y-14554939D01*
X17998117Y-14169403D01*
X18003101Y-14161963D01*
X18009589Y-14160000D01*
X18290411Y-14160000D01*
X18298684Y-14163427D01*
G37*
%TD.AperFunction*%
%TD*%
%TA.AperFunction,Conductor*%
%TO.N,/BOOT0*%
G36*
X18157491Y-11305246D02*
G01*
X18413257Y-11518501D01*
X18417416Y-11526431D01*
X18416889Y-11531110D01*
X18302631Y-11881923D01*
X18296810Y-11888728D01*
X18291506Y-11890000D01*
X18008494Y-11890000D01*
X18000221Y-11886573D01*
X17997369Y-11881923D01*
X17883110Y-11531108D01*
X17883806Y-11522183D01*
X17886738Y-11518505D01*
X18142508Y-11305246D01*
X18151056Y-11302581D01*
X18157491Y-11305246D01*
G37*
%TD.AperFunction*%
%TD*%
%TA.AperFunction,Conductor*%
%TO.N,/BOOT0*%
G36*
X31348470Y-7144395D02*
G01*
X31477966Y-7273891D01*
X31481393Y-7282164D01*
X31480158Y-7287396D01*
X31415382Y-7416947D01*
X31408632Y-7422810D01*
X31116578Y-7520593D01*
X31107645Y-7519970D01*
X31101768Y-7513213D01*
X31101768Y-7505784D01*
X31199551Y-7213727D01*
X31205413Y-7206979D01*
X31334968Y-7142202D01*
X31343897Y-7141568D01*
X31348470Y-7144395D01*
G37*
%TD.AperFunction*%
%TD*%
%TA.AperFunction,Conductor*%
%TO.N,/BOOT0*%
G36*
X11079764Y-11433427D02*
G01*
X11082622Y-11438095D01*
X11207652Y-11824087D01*
X11206941Y-11833013D01*
X11201038Y-11838485D01*
X10984517Y-11929109D01*
X10975563Y-11929142D01*
X10975483Y-11929109D01*
X10758961Y-11838485D01*
X10752652Y-11832129D01*
X10752347Y-11824088D01*
X10877378Y-11438095D01*
X10883188Y-11431280D01*
X10888509Y-11430000D01*
X11071491Y-11430000D01*
X11079764Y-11433427D01*
G37*
%TD.AperFunction*%
%TD*%
%TA.AperFunction,Conductor*%
%TO.N,/BOOT0*%
G36*
X10987898Y-11266227D02*
G01*
X11233468Y-11490937D01*
X11237259Y-11499051D01*
X11236231Y-11504388D01*
X11083111Y-11843119D01*
X11076581Y-11849246D01*
X11072450Y-11850000D01*
X10887550Y-11850000D01*
X10879277Y-11846573D01*
X10876889Y-11843119D01*
X10723768Y-11504388D01*
X10723483Y-11495438D01*
X10726528Y-11490940D01*
X10972102Y-11266226D01*
X10980518Y-11263170D01*
X10987898Y-11266227D01*
G37*
%TD.AperFunction*%
%TD*%
%TA.AperFunction,Conductor*%
%TO.N,/BOOT0*%
G36*
X31588063Y-6641178D02*
G01*
X31643890Y-6664544D01*
X31802102Y-6730765D01*
X31808410Y-6737120D01*
X31808377Y-6746074D01*
X31807968Y-6746948D01*
X31589866Y-7167098D01*
X31583013Y-7172861D01*
X31574091Y-7172091D01*
X31571209Y-7169980D01*
X31443197Y-7041968D01*
X31440244Y-7036989D01*
X31354834Y-6745734D01*
X31355794Y-6736834D01*
X31361566Y-6731642D01*
X31579052Y-6641167D01*
X31588007Y-6641155D01*
X31588063Y-6641178D01*
G37*
%TD.AperFunction*%
%TD*%
%TA.AperFunction,Conductor*%
%TO.N,/BOOT0*%
G36*
X11470793Y-14562435D02*
G01*
X11477668Y-14568172D01*
X11479005Y-14573603D01*
X11479005Y-14756597D01*
X11475578Y-14764870D01*
X11471043Y-14767684D01*
X11085995Y-14897489D01*
X11077060Y-14896885D01*
X11071464Y-14890919D01*
X11019885Y-14767684D01*
X10980889Y-14674515D01*
X10980857Y-14665563D01*
X11071558Y-14448855D01*
X11077914Y-14442547D01*
X11085837Y-14442205D01*
X11470793Y-14562435D01*
G37*
%TD.AperFunction*%
%TD*%
%TA.AperFunction,Conductor*%
%TO.N,/BOOT0*%
G36*
X11366315Y-14343414D02*
G01*
X11705412Y-14526787D01*
X11941967Y-14654708D01*
X11947615Y-14661658D01*
X11946694Y-14670565D01*
X11941967Y-14675292D01*
X11366318Y-14986583D01*
X11357411Y-14987504D01*
X11354095Y-14985912D01*
X11040040Y-14768489D01*
X11035189Y-14760962D01*
X11035000Y-14758869D01*
X11035000Y-14571130D01*
X11038427Y-14562857D01*
X11040034Y-14561514D01*
X11354096Y-14344087D01*
X11362846Y-14342197D01*
X11366315Y-14343414D01*
G37*
%TD.AperFunction*%
%TD*%
%TA.AperFunction,Conductor*%
%TO.N,/BOOT0*%
G36*
X12565902Y-14344086D02*
G01*
X12879960Y-14561511D01*
X12884811Y-14569037D01*
X12885000Y-14571130D01*
X12885000Y-14758869D01*
X12881573Y-14767142D01*
X12879960Y-14768489D01*
X12565906Y-14985911D01*
X12557153Y-14987802D01*
X12553681Y-14986583D01*
X11978032Y-14675292D01*
X11972384Y-14668342D01*
X11973305Y-14659435D01*
X11978032Y-14654708D01*
X12132587Y-14571130D01*
X12553683Y-14343415D01*
X12562588Y-14342495D01*
X12565902Y-14344086D01*
G37*
%TD.AperFunction*%
%TD*%
%TA.AperFunction,Conductor*%
%TO.N,/BOOT0*%
G36*
X15666315Y-14343414D02*
G01*
X16005412Y-14526787D01*
X16241967Y-14654708D01*
X16247615Y-14661658D01*
X16246694Y-14670565D01*
X16241967Y-14675292D01*
X15666318Y-14986583D01*
X15657411Y-14987504D01*
X15654095Y-14985912D01*
X15340040Y-14768489D01*
X15335189Y-14760962D01*
X15335000Y-14758869D01*
X15335000Y-14571130D01*
X15338427Y-14562857D01*
X15340034Y-14561514D01*
X15654096Y-14344087D01*
X15662846Y-14342197D01*
X15666315Y-14343414D01*
G37*
%TD.AperFunction*%
%TD*%
%TA.AperFunction,Conductor*%
%TO.N,/BOOT0*%
G36*
X18052939Y-14433114D02*
G01*
X18058535Y-14439080D01*
X18149109Y-14655483D01*
X18149142Y-14664437D01*
X18149109Y-14664517D01*
X18058441Y-14881143D01*
X18052085Y-14887452D01*
X18044160Y-14887794D01*
X17659207Y-14767564D01*
X17652332Y-14761827D01*
X17650995Y-14756396D01*
X17650995Y-14573402D01*
X17654422Y-14565129D01*
X17658953Y-14562316D01*
X18044005Y-14432510D01*
X18052939Y-14433114D01*
G37*
%TD.AperFunction*%
%TD*%
%TA.AperFunction,Conductor*%
%TO.N,/BOOT0*%
G36*
X16865902Y-14344086D02*
G01*
X17179960Y-14561511D01*
X17184811Y-14569037D01*
X17185000Y-14571130D01*
X17185000Y-14758869D01*
X17181573Y-14767142D01*
X17179960Y-14768489D01*
X16865906Y-14985911D01*
X16857153Y-14987802D01*
X16853681Y-14986583D01*
X16278032Y-14675292D01*
X16272384Y-14668342D01*
X16273305Y-14659435D01*
X16278032Y-14654708D01*
X16432587Y-14571130D01*
X16853683Y-14343415D01*
X16862588Y-14342495D01*
X16865902Y-14344086D01*
G37*
%TD.AperFunction*%
%TD*%
%TA.AperFunction,Conductor*%
%TO.N,/NRST*%
G36*
X12565559Y-7582993D02*
G01*
X12878848Y-7751687D01*
X12884507Y-7758626D01*
X12885000Y-7761988D01*
X12885000Y-8048011D01*
X12881573Y-8056284D01*
X12878847Y-8058313D01*
X12565558Y-8227006D01*
X12556649Y-8227911D01*
X12554446Y-8226996D01*
X11978032Y-7915292D01*
X11972384Y-7908342D01*
X11973305Y-7899435D01*
X11978032Y-7894708D01*
X12229679Y-7758626D01*
X12554446Y-7583002D01*
X12563353Y-7582082D01*
X12565559Y-7582993D01*
G37*
%TD.AperFunction*%
%TD*%
%TA.AperFunction,Conductor*%
%TO.N,/NRST*%
G36*
X15665553Y-7583003D02*
G01*
X16241967Y-7894708D01*
X16247615Y-7901658D01*
X16246694Y-7910565D01*
X16241967Y-7915292D01*
X15665553Y-8226996D01*
X15656646Y-8227917D01*
X15654441Y-8227006D01*
X15341153Y-8058313D01*
X15335493Y-8051373D01*
X15335000Y-8048011D01*
X15335000Y-7761988D01*
X15338427Y-7753715D01*
X15341148Y-7751689D01*
X15654441Y-7582992D01*
X15663350Y-7582088D01*
X15665553Y-7583003D01*
G37*
%TD.AperFunction*%
%TD*%
%TA.AperFunction,Conductor*%
%TO.N,/NRST*%
G36*
X18260791Y-8583427D02*
G01*
X18263139Y-8586792D01*
X18425578Y-8938277D01*
X18425938Y-8947224D01*
X18422450Y-8952171D01*
X18167493Y-9164752D01*
X18158944Y-9167418D01*
X18152507Y-9164752D01*
X18040383Y-9071264D01*
X17897548Y-8952170D01*
X17893390Y-8944241D01*
X17894420Y-8938280D01*
X18056861Y-8586791D01*
X18063443Y-8580719D01*
X18067482Y-8580000D01*
X18252518Y-8580000D01*
X18260791Y-8583427D01*
G37*
%TD.AperFunction*%
%TD*%
%TA.AperFunction,Conductor*%
%TO.N,/NRST*%
G36*
X16865902Y-7584086D02*
G01*
X17179960Y-7801511D01*
X17184811Y-7809037D01*
X17185000Y-7811130D01*
X17185000Y-7998869D01*
X17181573Y-8007142D01*
X17179960Y-8008489D01*
X16865906Y-8225911D01*
X16857153Y-8227802D01*
X16853681Y-8226583D01*
X16278032Y-7915292D01*
X16272384Y-7908342D01*
X16273305Y-7899435D01*
X16278032Y-7894708D01*
X16432587Y-7811130D01*
X16853683Y-7583415D01*
X16862588Y-7582495D01*
X16865902Y-7584086D01*
G37*
%TD.AperFunction*%
%TD*%
%TA.AperFunction,Conductor*%
%TO.N,/NRST*%
G36*
X11331664Y-8638854D02*
G01*
X11530911Y-8838101D01*
X11534338Y-8846374D01*
X11532580Y-8852543D01*
X11265221Y-9283421D01*
X11257947Y-9288644D01*
X11250836Y-9288075D01*
X10995156Y-9183114D01*
X10988804Y-9176803D01*
X10988106Y-9174482D01*
X10929725Y-8868197D01*
X10931542Y-8859428D01*
X10935401Y-8855854D01*
X11317578Y-8636973D01*
X11326458Y-8635836D01*
X11331664Y-8638854D01*
G37*
%TD.AperFunction*%
%TD*%
%TA.AperFunction,Conductor*%
%TO.N,/NRST*%
G36*
X11967038Y-7914129D02*
G01*
X11967054Y-7914154D01*
X12165098Y-8221849D01*
X12166694Y-8230660D01*
X12163312Y-8236670D01*
X11824524Y-8558033D01*
X11816163Y-8561240D01*
X11808199Y-8557817D01*
X11604117Y-8353735D01*
X11469390Y-8240184D01*
X11465272Y-8232232D01*
X11467984Y-8223698D01*
X11470569Y-8221418D01*
X11950862Y-7910662D01*
X11959668Y-7909046D01*
X11967038Y-7914129D01*
G37*
%TD.AperFunction*%
%TD*%
%TA.AperFunction,Conductor*%
%TO.N,/NRST*%
G36*
X18259764Y-5033427D02*
G01*
X18262622Y-5038095D01*
X18387652Y-5424087D01*
X18386941Y-5433013D01*
X18381038Y-5438485D01*
X18164517Y-5529109D01*
X18155563Y-5529142D01*
X18155483Y-5529109D01*
X17938961Y-5438485D01*
X17932652Y-5432129D01*
X17932347Y-5424088D01*
X18057378Y-5038095D01*
X18063188Y-5031280D01*
X18068509Y-5030000D01*
X18251491Y-5030000D01*
X18259764Y-5033427D01*
G37*
%TD.AperFunction*%
%TD*%
%TA.AperFunction,Conductor*%
%TO.N,/NRST*%
G36*
X18114484Y-1340863D02*
G01*
X18884030Y-1660599D01*
X18890355Y-1666938D01*
X18890346Y-1675893D01*
X18890148Y-1676342D01*
X18263148Y-3023292D01*
X18256550Y-3029346D01*
X18252541Y-3030054D01*
X18066986Y-3030054D01*
X18058713Y-3026627D01*
X18056686Y-3023903D01*
X17330838Y-1676670D01*
X17329931Y-1667762D01*
X17335589Y-1660821D01*
X17336629Y-1660325D01*
X18105511Y-1340864D01*
X18114466Y-1340856D01*
X18114484Y-1340863D01*
G37*
%TD.AperFunction*%
%TD*%
%TA.AperFunction,Conductor*%
%TO.N,/NRST*%
G36*
X28324080Y-7848917D02*
G01*
X28453215Y-7914082D01*
X28459039Y-7920811D01*
X28556820Y-8212860D01*
X28556197Y-8221793D01*
X28549440Y-8227670D01*
X28541998Y-8227666D01*
X28250255Y-8129631D01*
X28243511Y-8123760D01*
X28178862Y-7994063D01*
X28178238Y-7985129D01*
X28181058Y-7980572D01*
X28310541Y-7851089D01*
X28318813Y-7847663D01*
X28324080Y-7848917D01*
G37*
%TD.AperFunction*%
%TD*%
%TA.AperFunction,Conductor*%
%TO.N,/NRST*%
G36*
X27851906Y-7467878D02*
G01*
X27858720Y-7473687D01*
X27860000Y-7479008D01*
X27860000Y-7661991D01*
X27856573Y-7670264D01*
X27851905Y-7673122D01*
X27465912Y-7798152D01*
X27456986Y-7797441D01*
X27451514Y-7791538D01*
X27360889Y-7575015D01*
X27360857Y-7566063D01*
X27451514Y-7349460D01*
X27457870Y-7343152D01*
X27465911Y-7342847D01*
X27851906Y-7467878D01*
G37*
%TD.AperFunction*%
%TD*%
%TA.AperFunction,Conductor*%
%TO.N,/NRST*%
G36*
X18381038Y-5621514D02*
G01*
X18387347Y-5627870D01*
X18387652Y-5635912D01*
X18262622Y-6021905D01*
X18256812Y-6028720D01*
X18251491Y-6030000D01*
X18068509Y-6030000D01*
X18060236Y-6026573D01*
X18057378Y-6021905D01*
X17932347Y-5635912D01*
X17933058Y-5626986D01*
X17938960Y-5621514D01*
X18155484Y-5530889D01*
X18164437Y-5530857D01*
X18381038Y-5621514D01*
G37*
%TD.AperFunction*%
%TD*%
%TA.AperFunction,Conductor*%
%TO.N,Net-(U3-PC14-OSC_IN)*%
G36*
X23906614Y-5154141D02*
G01*
X24779203Y-5539789D01*
X24785384Y-5546267D01*
X24785174Y-5555220D01*
X24780158Y-5560716D01*
X23906508Y-6046381D01*
X23897612Y-6047406D01*
X23893965Y-6045634D01*
X23571258Y-5812175D01*
X23569843Y-5810969D01*
X23367460Y-5608586D01*
X23364033Y-5600313D01*
X23367460Y-5592040D01*
X23368253Y-5591317D01*
X23894427Y-5155829D01*
X23902985Y-5153195D01*
X23906614Y-5154141D01*
G37*
%TD.AperFunction*%
%TD*%
%TA.AperFunction,Conductor*%
%TO.N,Net-(U3-PC14-OSC_IN)*%
G36*
X23159390Y-5811390D02*
G01*
X23358747Y-6010747D01*
X23362174Y-6019020D01*
X23360633Y-6024824D01*
X23124503Y-6438097D01*
X23117423Y-6443581D01*
X23111248Y-6443576D01*
X22814836Y-6362228D01*
X22807764Y-6356734D01*
X22807109Y-6355389D01*
X22697842Y-6089306D01*
X22697869Y-6080352D01*
X22702648Y-6074828D01*
X23145102Y-5809627D01*
X23153960Y-5808314D01*
X23159390Y-5811390D01*
G37*
%TD.AperFunction*%
%TD*%
%TA.AperFunction,Conductor*%
%TO.N,Net-(U3-PC14-OSC_IN)*%
G36*
X25691730Y-5741116D02*
G01*
X25699098Y-5746205D01*
X25700904Y-5751304D01*
X25759020Y-6291921D01*
X25756497Y-6300513D01*
X25755660Y-6301445D01*
X25553357Y-6503748D01*
X25545084Y-6507175D01*
X25540008Y-6506017D01*
X24602843Y-6054790D01*
X24596876Y-6048113D01*
X24597101Y-6039791D01*
X24795569Y-5558325D01*
X24801890Y-5551983D01*
X24808844Y-5551346D01*
X25691730Y-5741116D01*
G37*
%TD.AperFunction*%
%TD*%
%TA.AperFunction,Conductor*%
%TO.N,Net-(U3-PC15-OSC_OUT)*%
G36*
X25553357Y-7096251D02*
G01*
X25755660Y-7298554D01*
X25759087Y-7306827D01*
X25759020Y-7308078D01*
X25700904Y-7848695D01*
X25696612Y-7856554D01*
X25691730Y-7858883D01*
X24808845Y-8048653D01*
X24800036Y-8047041D01*
X24795569Y-8041673D01*
X24720220Y-7858883D01*
X24597102Y-7560208D01*
X24597117Y-7551255D01*
X24602841Y-7545210D01*
X25540008Y-7093981D01*
X25548949Y-7093481D01*
X25553357Y-7096251D01*
G37*
%TD.AperFunction*%
%TD*%
%TA.AperFunction,Conductor*%
%TO.N,Net-(U3-PC15-OSC_OUT)*%
G36*
X23906778Y-7553768D02*
G01*
X24780592Y-8039525D01*
X24786158Y-8046540D01*
X24785133Y-8055436D01*
X24779820Y-8060370D01*
X23906536Y-8464411D01*
X23897588Y-8464774D01*
X23894355Y-8462961D01*
X23836550Y-8417137D01*
X23356943Y-8036942D01*
X23352589Y-8029119D01*
X23355043Y-8020507D01*
X23355930Y-8019511D01*
X23558288Y-7817153D01*
X23559341Y-7816221D01*
X23893890Y-7554774D01*
X23902517Y-7552381D01*
X23906778Y-7553768D01*
G37*
%TD.AperFunction*%
%TD*%
%TA.AperFunction,Conductor*%
%TO.N,Net-(U3-PC15-OSC_OUT)*%
G36*
X23120133Y-7197537D02*
G01*
X23124503Y-7201901D01*
X23360633Y-7615175D01*
X23361762Y-7624058D01*
X23358747Y-7629252D01*
X23159390Y-7828609D01*
X23151117Y-7832036D01*
X23145102Y-7830371D01*
X22702650Y-7565172D01*
X22697316Y-7557980D01*
X22697841Y-7550695D01*
X22807109Y-7284609D01*
X22813422Y-7278258D01*
X22814820Y-7277775D01*
X23111247Y-7196422D01*
X23120133Y-7197537D01*
G37*
%TD.AperFunction*%
%TD*%
%TA.AperFunction,Conductor*%
%TO.N,/PA0*%
G36*
X9332172Y-17441209D02*
G01*
X9335722Y-17443641D01*
X9466358Y-17574277D01*
X9469785Y-17582550D01*
X9468994Y-17586780D01*
X8804323Y-19300932D01*
X8798137Y-19307407D01*
X8789184Y-19307611D01*
X8788947Y-19307516D01*
X7953784Y-18962562D01*
X7947446Y-18956236D01*
X7602483Y-18121052D01*
X7602492Y-18112097D01*
X7608830Y-18105771D01*
X7608996Y-18105704D01*
X9323222Y-17441005D01*
X9332172Y-17441209D01*
G37*
%TD.AperFunction*%
%TD*%
%TA.AperFunction,Conductor*%
%TO.N,/PA0*%
G36*
X27616523Y-8556416D02*
G01*
X27746078Y-8621193D01*
X27751941Y-8627943D01*
X27849724Y-8919997D01*
X27849101Y-8928930D01*
X27842344Y-8934807D01*
X27834914Y-8934807D01*
X27542860Y-8837024D01*
X27536110Y-8831161D01*
X27471333Y-8701607D01*
X27470699Y-8692678D01*
X27473524Y-8688107D01*
X27603023Y-8558608D01*
X27611295Y-8555182D01*
X27616523Y-8556416D01*
G37*
%TD.AperFunction*%
%TD*%
%TA.AperFunction,Conductor*%
%TO.N,/PA1*%
G36*
X27191345Y-8906735D02*
G01*
X27381401Y-8985798D01*
X27387723Y-8992140D01*
X27387831Y-8992411D01*
X27495062Y-9272016D01*
X27494825Y-9280968D01*
X27488328Y-9287130D01*
X27480449Y-9287309D01*
X27191860Y-9191414D01*
X27185089Y-9185553D01*
X27183916Y-9181561D01*
X27175222Y-9100623D01*
X27175155Y-9099373D01*
X27175155Y-8917539D01*
X27178582Y-8909266D01*
X27186855Y-8905839D01*
X27191345Y-8906735D01*
G37*
%TD.AperFunction*%
%TD*%
%TA.AperFunction,Conductor*%
%TO.N,/PA1*%
G36*
X11623437Y-17690129D02*
G01*
X11626490Y-17692327D01*
X11757672Y-17823509D01*
X11761099Y-17831782D01*
X11760494Y-17835495D01*
X11279275Y-19273396D01*
X11273400Y-19280154D01*
X11264467Y-19280778D01*
X11263714Y-19280497D01*
X10493785Y-18962562D01*
X10487447Y-18956238D01*
X10169502Y-18186284D01*
X10169511Y-18177330D01*
X10175850Y-18171005D01*
X10176581Y-18170731D01*
X11614506Y-17689505D01*
X11623437Y-17690129D01*
G37*
%TD.AperFunction*%
%TD*%
%TA.AperFunction,Conductor*%
%TO.N,/PA2*%
G36*
X14163437Y-17690129D02*
G01*
X14166490Y-17692327D01*
X14297672Y-17823509D01*
X14301099Y-17831782D01*
X14300494Y-17835495D01*
X13819275Y-19273396D01*
X13813400Y-19280154D01*
X13804467Y-19280778D01*
X13803714Y-19280497D01*
X13033785Y-18962562D01*
X13027447Y-18956238D01*
X12709502Y-18186284D01*
X12709511Y-18177330D01*
X12715850Y-18171005D01*
X12716581Y-18170731D01*
X14154506Y-17689505D01*
X14163437Y-17690129D01*
G37*
%TD.AperFunction*%
%TD*%
%TA.AperFunction,Conductor*%
%TO.N,/PA2*%
G36*
X27146578Y-9651393D02*
G01*
X27150032Y-9659655D01*
X27150032Y-9659733D01*
X27149388Y-9853590D01*
X27145934Y-9861852D01*
X27142920Y-9864016D01*
X27015486Y-9927733D01*
X27006554Y-9928368D01*
X27001981Y-9925541D01*
X26872485Y-9796045D01*
X26869058Y-9787772D01*
X26870291Y-9782545D01*
X26934011Y-9655104D01*
X26940775Y-9649238D01*
X26944435Y-9648638D01*
X27138293Y-9647994D01*
X27146578Y-9651393D01*
G37*
%TD.AperFunction*%
%TD*%
%TA.AperFunction,Conductor*%
%TO.N,/PA3*%
G36*
X27136740Y-10773260D02*
G01*
X27142617Y-10780017D01*
X27142617Y-10787447D01*
X27044834Y-11079501D01*
X27038971Y-11086251D01*
X26909420Y-11151027D01*
X26900488Y-11151662D01*
X26895915Y-11148835D01*
X26766419Y-11019339D01*
X26762992Y-11011066D01*
X26764225Y-11005839D01*
X26829003Y-10876282D01*
X26835751Y-10870420D01*
X27127808Y-10772637D01*
X27136740Y-10773260D01*
G37*
%TD.AperFunction*%
%TD*%
%TA.AperFunction,Conductor*%
%TO.N,/PA3*%
G36*
X16703437Y-17690129D02*
G01*
X16706490Y-17692327D01*
X16837672Y-17823509D01*
X16841099Y-17831782D01*
X16840494Y-17835495D01*
X16359275Y-19273396D01*
X16353400Y-19280154D01*
X16344467Y-19280778D01*
X16343714Y-19280497D01*
X15573785Y-18962562D01*
X15567447Y-18956238D01*
X15249502Y-18186284D01*
X15249511Y-18177330D01*
X15255850Y-18171005D01*
X15256581Y-18170731D01*
X16694506Y-17689505D01*
X16703437Y-17690129D01*
G37*
%TD.AperFunction*%
%TD*%
%TA.AperFunction,Conductor*%
%TO.N,/PA4{slash}CS*%
G36*
X18401116Y-17344054D02*
G01*
X18401741Y-17344635D01*
X18532226Y-17475120D01*
X18535122Y-17479909D01*
X18892117Y-18624520D01*
X18891309Y-18633439D01*
X18885430Y-18638811D01*
X18116526Y-18957706D01*
X18107571Y-18957710D01*
X18103761Y-18955162D01*
X17516631Y-18366649D01*
X17513214Y-18358372D01*
X17516060Y-18350738D01*
X18384615Y-17345259D01*
X18392615Y-17341239D01*
X18401116Y-17344054D01*
G37*
%TD.AperFunction*%
%TD*%
%TA.AperFunction,Conductor*%
%TO.N,/PA4{slash}CS*%
G36*
X26699359Y-14011775D02*
G01*
X26828747Y-14141163D01*
X26832174Y-14149436D01*
X26830894Y-14154757D01*
X26646366Y-14516106D01*
X26639551Y-14521916D01*
X26631509Y-14521611D01*
X26414322Y-14432586D01*
X26407968Y-14426278D01*
X26318911Y-14209011D01*
X26318944Y-14200059D01*
X26324413Y-14194158D01*
X26685766Y-14009627D01*
X26694691Y-14008917D01*
X26699359Y-14011775D01*
G37*
%TD.AperFunction*%
%TD*%
%TA.AperFunction,Conductor*%
%TO.N,/PA4{slash}CS*%
G36*
X26189034Y-14338247D02*
G01*
X26406675Y-14427458D01*
X26413031Y-14433767D01*
X26413064Y-14433847D01*
X26501873Y-14650509D01*
X26501840Y-14659463D01*
X26495829Y-14665624D01*
X26122786Y-14832695D01*
X26113835Y-14832949D01*
X26109731Y-14830290D01*
X25980324Y-14700883D01*
X25976897Y-14692610D01*
X25978434Y-14686814D01*
X26174439Y-14343273D01*
X26181513Y-14337788D01*
X26189034Y-14338247D01*
G37*
%TD.AperFunction*%
%TD*%
%TA.AperFunction,Conductor*%
%TO.N,/PA4{slash}CS*%
G36*
X20819963Y-12308444D02*
G01*
X20825866Y-12313916D01*
X21010394Y-12675265D01*
X21011105Y-12684191D01*
X21008247Y-12688859D01*
X20878859Y-12818247D01*
X20870586Y-12821674D01*
X20865265Y-12820394D01*
X20595908Y-12682843D01*
X20503915Y-12635865D01*
X20498106Y-12629051D01*
X20498410Y-12621011D01*
X20587436Y-12403821D01*
X20593743Y-12397468D01*
X20811011Y-12308411D01*
X20819963Y-12308444D01*
G37*
%TD.AperFunction*%
%TD*%
%TA.AperFunction,Conductor*%
%TO.N,/PA4{slash}CS*%
G36*
X22344732Y-14009604D02*
G01*
X22706084Y-14194134D01*
X22711893Y-14200948D01*
X22711588Y-14208991D01*
X22622564Y-14426176D01*
X22616255Y-14432531D01*
X22616176Y-14432564D01*
X22398991Y-14521588D01*
X22390036Y-14521555D01*
X22384134Y-14516084D01*
X22199604Y-14154733D01*
X22198894Y-14145808D01*
X22201750Y-14141142D01*
X22331141Y-14011751D01*
X22339413Y-14008325D01*
X22344732Y-14009604D01*
G37*
%TD.AperFunction*%
%TD*%
%TA.AperFunction,Conductor*%
%TO.N,/PA4{slash}CS*%
G36*
X27490293Y-11126814D02*
G01*
X27496170Y-11133571D01*
X27496170Y-11141001D01*
X27398387Y-11433055D01*
X27392524Y-11439805D01*
X27262973Y-11504581D01*
X27254041Y-11505216D01*
X27249468Y-11502389D01*
X27119972Y-11372893D01*
X27116545Y-11364620D01*
X27117778Y-11359393D01*
X27182556Y-11229836D01*
X27189304Y-11223974D01*
X27481361Y-11126191D01*
X27490293Y-11126814D01*
G37*
%TD.AperFunction*%
%TD*%
%TA.AperFunction,Conductor*%
%TO.N,/PA5{slash}SCLK*%
G36*
X21817663Y-17741074D02*
G01*
X21820321Y-17743066D01*
X21951531Y-17874276D01*
X21954958Y-17882549D01*
X21954227Y-17886619D01*
X21439518Y-19273906D01*
X21433428Y-19280470D01*
X21424479Y-19280805D01*
X21424083Y-19280650D01*
X21407751Y-19273906D01*
X20653784Y-18962561D01*
X20647447Y-18956238D01*
X20329688Y-18186735D01*
X20329697Y-18177781D01*
X20336036Y-18171456D01*
X20337198Y-18171047D01*
X21152561Y-17932274D01*
X21161158Y-17933076D01*
X21169839Y-17937500D01*
X21279500Y-17954869D01*
X21389161Y-17937500D01*
X21488087Y-17887095D01*
X21561032Y-17814149D01*
X21566009Y-17811199D01*
X21808761Y-17740111D01*
X21817663Y-17741074D01*
G37*
%TD.AperFunction*%
%TD*%
%TA.AperFunction,Conductor*%
%TO.N,/PA5{slash}SCLK*%
G36*
X27843847Y-11480367D02*
G01*
X27849724Y-11487124D01*
X27849724Y-11494554D01*
X27751941Y-11786608D01*
X27746078Y-11793358D01*
X27616527Y-11858134D01*
X27607595Y-11858769D01*
X27603022Y-11855942D01*
X27473526Y-11726446D01*
X27470099Y-11718173D01*
X27471332Y-11712946D01*
X27536110Y-11583389D01*
X27542858Y-11577527D01*
X27834915Y-11479744D01*
X27843847Y-11480367D01*
G37*
%TD.AperFunction*%
%TD*%
%TA.AperFunction,Conductor*%
%TO.N,/PA6{slash}MISO*%
G36*
X24192121Y-17603708D02*
G01*
X24320357Y-17731944D01*
X24323784Y-17740217D01*
X24323497Y-17742793D01*
X23978353Y-19271747D01*
X23973188Y-19279063D01*
X23964364Y-19280584D01*
X23962474Y-19279985D01*
X23193785Y-18962562D01*
X23187447Y-18956238D01*
X22869085Y-18185274D01*
X22869094Y-18176321D01*
X22875190Y-18170099D01*
X23463594Y-17911489D01*
X23468302Y-17910500D01*
X23749686Y-17910500D01*
X23753550Y-17911156D01*
X23762710Y-17914362D01*
X23762711Y-17914361D01*
X23762713Y-17914362D01*
X23796335Y-17910574D01*
X23797645Y-17910500D01*
X23808323Y-17910500D01*
X23808326Y-17910500D01*
X23812504Y-17909546D01*
X23818739Y-17908123D01*
X23820007Y-17907906D01*
X23853660Y-17904116D01*
X23861887Y-17898945D01*
X23865495Y-17897451D01*
X23874967Y-17895290D01*
X23901436Y-17874180D01*
X23902486Y-17873434D01*
X23911537Y-17867748D01*
X23919090Y-17860193D01*
X23920050Y-17859335D01*
X23946524Y-17838224D01*
X23950736Y-17829475D01*
X23953002Y-17826281D01*
X24175576Y-17603707D01*
X24183848Y-17600281D01*
X24192121Y-17603708D01*
G37*
%TD.AperFunction*%
%TD*%
%TA.AperFunction,Conductor*%
%TO.N,/PA6{slash}MISO*%
G36*
X21182513Y-17373058D02*
G01*
X21187985Y-17378961D01*
X21278609Y-17595483D01*
X21278642Y-17604437D01*
X21278609Y-17604517D01*
X21187985Y-17821038D01*
X21181629Y-17827347D01*
X21173587Y-17827652D01*
X20787595Y-17702622D01*
X20780780Y-17696812D01*
X20779500Y-17691491D01*
X20779500Y-17508508D01*
X20782927Y-17500235D01*
X20787591Y-17497378D01*
X21173588Y-17372347D01*
X21182513Y-17373058D01*
G37*
%TD.AperFunction*%
%TD*%
%TA.AperFunction,Conductor*%
%TO.N,/PA6{slash}MISO*%
G36*
X19861906Y-17497378D02*
G01*
X19868720Y-17503187D01*
X19870000Y-17508508D01*
X19870000Y-17691491D01*
X19866573Y-17699764D01*
X19861905Y-17702622D01*
X19475912Y-17827652D01*
X19466986Y-17826941D01*
X19461514Y-17821038D01*
X19370889Y-17604515D01*
X19370857Y-17595563D01*
X19461514Y-17378960D01*
X19467870Y-17372652D01*
X19475911Y-17372347D01*
X19861906Y-17497378D01*
G37*
%TD.AperFunction*%
%TD*%
%TA.AperFunction,Conductor*%
%TO.N,/PA6{slash}MISO*%
G36*
X28197400Y-11833921D02*
G01*
X28203277Y-11840678D01*
X28203277Y-11848108D01*
X28105494Y-12140162D01*
X28099631Y-12146912D01*
X27970080Y-12211688D01*
X27961148Y-12212323D01*
X27956575Y-12209496D01*
X27827079Y-12080000D01*
X27823652Y-12071727D01*
X27824885Y-12066500D01*
X27889663Y-11936943D01*
X27896411Y-11931081D01*
X28188468Y-11833298D01*
X28197400Y-11833921D01*
G37*
%TD.AperFunction*%
%TD*%
%TA.AperFunction,Conductor*%
%TO.N,/PA7{slash}MOSI*%
G36*
X28550953Y-12187474D02*
G01*
X28556830Y-12194231D01*
X28556830Y-12201661D01*
X28459047Y-12493715D01*
X28453184Y-12500465D01*
X28323633Y-12565241D01*
X28314701Y-12565876D01*
X28310128Y-12563049D01*
X28180632Y-12433553D01*
X28177205Y-12425280D01*
X28178438Y-12420053D01*
X28243216Y-12290496D01*
X28249964Y-12284634D01*
X28542021Y-12186851D01*
X28550953Y-12187474D01*
G37*
%TD.AperFunction*%
%TD*%
%TA.AperFunction,Conductor*%
%TO.N,/PA7{slash}MOSI*%
G36*
X25831032Y-17263427D02*
G01*
X25833230Y-17266480D01*
X26509706Y-18623502D01*
X26510330Y-18632435D01*
X26504455Y-18639193D01*
X26503724Y-18639527D01*
X25734489Y-18959134D01*
X25725534Y-18959143D01*
X25725511Y-18959134D01*
X24956275Y-18639527D01*
X24949950Y-18633188D01*
X24949959Y-18624233D01*
X24950285Y-18623518D01*
X25626770Y-17266480D01*
X25633528Y-17260605D01*
X25637241Y-17260000D01*
X25822759Y-17260000D01*
X25831032Y-17263427D01*
G37*
%TD.AperFunction*%
%TD*%
%TA.AperFunction,Conductor*%
%TO.N,/PA8*%
G36*
X29403437Y-17690129D02*
G01*
X29406490Y-17692327D01*
X29537672Y-17823509D01*
X29541099Y-17831782D01*
X29540494Y-17835495D01*
X29059275Y-19273396D01*
X29053400Y-19280154D01*
X29044467Y-19280778D01*
X29043714Y-19280497D01*
X28273785Y-18962562D01*
X28267447Y-18956238D01*
X27949502Y-18186284D01*
X27949511Y-18177330D01*
X27955850Y-18171005D01*
X27956581Y-18170731D01*
X29394506Y-17689505D01*
X29403437Y-17690129D01*
G37*
%TD.AperFunction*%
%TD*%
%TA.AperFunction,Conductor*%
%TO.N,/PA8*%
G36*
X31102000Y-12890310D02*
G01*
X31358591Y-13041004D01*
X31363990Y-13048149D01*
X31364068Y-13048470D01*
X31406706Y-13233841D01*
X31405221Y-13242672D01*
X31397927Y-13247866D01*
X31395304Y-13248164D01*
X31215316Y-13248164D01*
X31207043Y-13244737D01*
X31206503Y-13244159D01*
X30985116Y-12990600D01*
X30982256Y-12982114D01*
X30986234Y-12974092D01*
X30986577Y-12973803D01*
X31088724Y-12891296D01*
X31097312Y-12888765D01*
X31102000Y-12890310D01*
G37*
%TD.AperFunction*%
%TD*%
%TA.AperFunction,Conductor*%
%TO.N,/PA9*%
G36*
X31762185Y-12638187D02*
G01*
X31768935Y-12644050D01*
X31833711Y-12773601D01*
X31834346Y-12782533D01*
X31831519Y-12787106D01*
X31702023Y-12916602D01*
X31693750Y-12920029D01*
X31688519Y-12918794D01*
X31624511Y-12886790D01*
X31558967Y-12854018D01*
X31553104Y-12847268D01*
X31530965Y-12781144D01*
X31455321Y-12555213D01*
X31455944Y-12546281D01*
X31462701Y-12540404D01*
X31470130Y-12540404D01*
X31762185Y-12638187D01*
G37*
%TD.AperFunction*%
%TD*%
%TA.AperFunction,Conductor*%
%TO.N,/PA9*%
G36*
X31953586Y-17698350D02*
G01*
X31957013Y-17706623D01*
X31956717Y-17709238D01*
X31598388Y-19271804D01*
X31593199Y-19279102D01*
X31584369Y-19280593D01*
X31582518Y-19280003D01*
X30814488Y-18962853D01*
X30808150Y-18956529D01*
X30489339Y-18185869D01*
X30489343Y-18176915D01*
X30495677Y-18170586D01*
X30495998Y-18170458D01*
X31758009Y-17695671D01*
X31762129Y-17694923D01*
X31945313Y-17694923D01*
X31953586Y-17698350D01*
G37*
%TD.AperFunction*%
%TD*%
%TA.AperFunction,Conductor*%
%TO.N,/PA10*%
G36*
X32115739Y-12284634D02*
G01*
X32122489Y-12290497D01*
X32187265Y-12420048D01*
X32187900Y-12428980D01*
X32185073Y-12433553D01*
X32055577Y-12563049D01*
X32047304Y-12566476D01*
X32042073Y-12565241D01*
X31978065Y-12533237D01*
X31912521Y-12500465D01*
X31906658Y-12493715D01*
X31884519Y-12427591D01*
X31808875Y-12201660D01*
X31809498Y-12192728D01*
X31816255Y-12186851D01*
X31823684Y-12186851D01*
X32115739Y-12284634D01*
G37*
%TD.AperFunction*%
%TD*%
%TA.AperFunction,Conductor*%
%TO.N,/PA10*%
G36*
X33431135Y-17267405D02*
G01*
X33433265Y-17270323D01*
X34129490Y-18623431D01*
X34130228Y-18632355D01*
X34124439Y-18639188D01*
X34123575Y-18639589D01*
X33354489Y-18959134D01*
X33345534Y-18959143D01*
X33345511Y-18959134D01*
X32576423Y-18639589D01*
X32576152Y-18639476D01*
X32569828Y-18633138D01*
X32569837Y-18624183D01*
X32570107Y-18623581D01*
X33226801Y-17270568D01*
X33233497Y-17264623D01*
X33237327Y-17263978D01*
X33422862Y-17263978D01*
X33431135Y-17267405D01*
G37*
%TD.AperFunction*%
%TD*%
%TA.AperFunction,Conductor*%
%TO.N,/PA15*%
G36*
X37923013Y-7193058D02*
G01*
X37928485Y-7198961D01*
X38019109Y-7415483D01*
X38019142Y-7424437D01*
X38019109Y-7424517D01*
X37928485Y-7641038D01*
X37922129Y-7647347D01*
X37914087Y-7647652D01*
X37528095Y-7522622D01*
X37521280Y-7516812D01*
X37520000Y-7511491D01*
X37520000Y-7328508D01*
X37523427Y-7320235D01*
X37528091Y-7317378D01*
X37914088Y-7192347D01*
X37923013Y-7193058D01*
G37*
%TD.AperFunction*%
%TD*%
%TA.AperFunction,Conductor*%
%TO.N,/PA15*%
G36*
X33469790Y-9265716D02*
G01*
X33599286Y-9395212D01*
X33602713Y-9403485D01*
X33601478Y-9408717D01*
X33536702Y-9538268D01*
X33529952Y-9544131D01*
X33237898Y-9641914D01*
X33228965Y-9641291D01*
X33223088Y-9634534D01*
X33223088Y-9627105D01*
X33320871Y-9335048D01*
X33326733Y-9328300D01*
X33456288Y-9263523D01*
X33465217Y-9262889D01*
X33469790Y-9265716D01*
G37*
%TD.AperFunction*%
%TD*%
%TA.AperFunction,Conductor*%
%TO.N,/PA15*%
G36*
X38259963Y-14678444D02*
G01*
X38265866Y-14683916D01*
X38450394Y-15045265D01*
X38451105Y-15054191D01*
X38448247Y-15058859D01*
X38318859Y-15188247D01*
X38310586Y-15191674D01*
X38305265Y-15190394D01*
X38035908Y-15052843D01*
X37943915Y-15005865D01*
X37938106Y-14999051D01*
X37938410Y-14991011D01*
X38027436Y-14773821D01*
X38033743Y-14767468D01*
X38251011Y-14678411D01*
X38259963Y-14678444D01*
G37*
%TD.AperFunction*%
%TD*%
%TA.AperFunction,Conductor*%
%TO.N,/PA15*%
G36*
X39764732Y-16359604D02*
G01*
X40126084Y-16544134D01*
X40131893Y-16550948D01*
X40131588Y-16558991D01*
X40042564Y-16776176D01*
X40036255Y-16782531D01*
X40036176Y-16782564D01*
X39818991Y-16871588D01*
X39810036Y-16871555D01*
X39804134Y-16866084D01*
X39619604Y-16504733D01*
X39618894Y-16495808D01*
X39621750Y-16491142D01*
X39751141Y-16361751D01*
X39759413Y-16358325D01*
X39764732Y-16359604D01*
G37*
%TD.AperFunction*%
%TD*%
%TA.AperFunction,Conductor*%
%TO.N,/PA13{slash}SWDIO*%
G36*
X43529193Y-10635544D02*
G01*
X43529527Y-10636275D01*
X43849134Y-11405511D01*
X43849143Y-11414466D01*
X43849134Y-11414489D01*
X43529527Y-12183724D01*
X43523188Y-12190049D01*
X43514233Y-12190040D01*
X43513502Y-12189706D01*
X42156480Y-11513230D01*
X42150605Y-11506472D01*
X42150000Y-11502759D01*
X42150000Y-11317240D01*
X42153427Y-11308967D01*
X42156476Y-11306771D01*
X43513503Y-10630292D01*
X43522435Y-10629669D01*
X43529193Y-10635544D01*
G37*
%TD.AperFunction*%
%TD*%
%TA.AperFunction,Conductor*%
%TO.N,/PA13{slash}SWDIO*%
G36*
X33174061Y-11223208D02*
G01*
X33180831Y-11229069D01*
X33181965Y-11232740D01*
X33192330Y-11309217D01*
X33192436Y-11310788D01*
X33192436Y-11492632D01*
X33189009Y-11500905D01*
X33180736Y-11504332D01*
X33176341Y-11503475D01*
X32986510Y-11426525D01*
X32980130Y-11420241D01*
X32980017Y-11419965D01*
X32904916Y-11229069D01*
X32870943Y-11142714D01*
X32871103Y-11133763D01*
X32877548Y-11127545D01*
X32885520Y-11127330D01*
X33174061Y-11223208D01*
G37*
%TD.AperFunction*%
%TD*%
%TA.AperFunction,Conductor*%
%TO.N,/PA14{slash}SWCLK*%
G36*
X33363724Y-10489010D02*
G01*
X33493220Y-10618506D01*
X33496647Y-10626779D01*
X33495412Y-10632011D01*
X33431695Y-10759445D01*
X33424930Y-10765313D01*
X33421269Y-10765913D01*
X33227412Y-10766557D01*
X33219127Y-10763158D01*
X33215673Y-10754896D01*
X33215673Y-10754818D01*
X33216317Y-10560961D01*
X33219771Y-10552699D01*
X33222780Y-10550538D01*
X33350222Y-10486817D01*
X33359151Y-10486183D01*
X33363724Y-10489010D01*
G37*
%TD.AperFunction*%
%TD*%
%TA.AperFunction,Conductor*%
%TO.N,/PA14{slash}SWCLK*%
G36*
X43529193Y-8095544D02*
G01*
X43529527Y-8096275D01*
X43849134Y-8865511D01*
X43849143Y-8874466D01*
X43849134Y-8874489D01*
X43529527Y-9643724D01*
X43523188Y-9650049D01*
X43514233Y-9650040D01*
X43513502Y-9649706D01*
X42156480Y-8973230D01*
X42150605Y-8966472D01*
X42150000Y-8962759D01*
X42150000Y-8777240D01*
X42153427Y-8768967D01*
X42156476Y-8766771D01*
X43513503Y-8090292D01*
X43522435Y-8089669D01*
X43529193Y-8095544D01*
G37*
%TD.AperFunction*%
%TD*%
%TA.AperFunction,Conductor*%
%TO.N,/PB0*%
G36*
X28495427Y-12830823D02*
G01*
X28497082Y-12832198D01*
X28625761Y-12960877D01*
X28629080Y-12967565D01*
X28678188Y-13326752D01*
X28675914Y-13335413D01*
X28668181Y-13339929D01*
X28666629Y-13340037D01*
X28434185Y-13340693D01*
X28425902Y-13337289D01*
X28260040Y-13170095D01*
X28256647Y-13161809D01*
X28258697Y-13155241D01*
X28479161Y-12833852D01*
X28486667Y-12828969D01*
X28495427Y-12830823D01*
G37*
%TD.AperFunction*%
%TD*%
%TA.AperFunction,Conductor*%
%TO.N,/PB0*%
G36*
X28904507Y-12541027D02*
G01*
X28910384Y-12547784D01*
X28910384Y-12555214D01*
X28812601Y-12847268D01*
X28806738Y-12854018D01*
X28677187Y-12918794D01*
X28668255Y-12919429D01*
X28663682Y-12916602D01*
X28534186Y-12787106D01*
X28530759Y-12778833D01*
X28531992Y-12773606D01*
X28596770Y-12644049D01*
X28603518Y-12638187D01*
X28895575Y-12540404D01*
X28904507Y-12541027D01*
G37*
%TD.AperFunction*%
%TD*%
%TA.AperFunction,Conductor*%
%TO.N,/PB1*%
G36*
X28722758Y-13687641D02*
G01*
X28852157Y-13817040D01*
X28855584Y-13825313D01*
X28854223Y-13830789D01*
X28665933Y-14186298D01*
X28659033Y-14192005D01*
X28651157Y-14191648D01*
X28433824Y-14102564D01*
X28427468Y-14096255D01*
X28427435Y-14096175D01*
X28338481Y-13879160D01*
X28338514Y-13870206D01*
X28344161Y-13864215D01*
X28709342Y-13685405D01*
X28718277Y-13684846D01*
X28722758Y-13687641D01*
G37*
%TD.AperFunction*%
%TD*%
%TA.AperFunction,Conductor*%
%TO.N,/PB1*%
G36*
X29258060Y-12894581D02*
G01*
X29263937Y-12901338D01*
X29263937Y-12908768D01*
X29166154Y-13200822D01*
X29160291Y-13207572D01*
X29030740Y-13272348D01*
X29021808Y-13272983D01*
X29017235Y-13270156D01*
X28887739Y-13140660D01*
X28884312Y-13132387D01*
X28885545Y-13127160D01*
X28950323Y-12997603D01*
X28957071Y-12991741D01*
X29249128Y-12893958D01*
X29258060Y-12894581D01*
G37*
%TD.AperFunction*%
%TD*%
%TA.AperFunction,Conductor*%
%TO.N,/PB2*%
G36*
X29609664Y-13249403D02*
G01*
X29615959Y-13255771D01*
X29616227Y-13263875D01*
X29520364Y-13552366D01*
X29514503Y-13559137D01*
X29511333Y-13560192D01*
X29441028Y-13572844D01*
X29438956Y-13573029D01*
X29257131Y-13573029D01*
X29248858Y-13569602D01*
X29245431Y-13561329D01*
X29246233Y-13557072D01*
X29248071Y-13552366D01*
X29320259Y-13367557D01*
X29326461Y-13361099D01*
X29326698Y-13360998D01*
X29600710Y-13249351D01*
X29609664Y-13249403D01*
G37*
%TD.AperFunction*%
%TD*%
%TA.AperFunction,Conductor*%
%TO.N,/PB2*%
G36*
X28708859Y-14431752D02*
G01*
X28838247Y-14561140D01*
X28841674Y-14569413D01*
X28840394Y-14574734D01*
X28655866Y-14936083D01*
X28649051Y-14941893D01*
X28641009Y-14941588D01*
X28423822Y-14852563D01*
X28417468Y-14846255D01*
X28328411Y-14628988D01*
X28328444Y-14620036D01*
X28333913Y-14614135D01*
X28695266Y-14429604D01*
X28704191Y-14428894D01*
X28708859Y-14431752D01*
G37*
%TD.AperFunction*%
%TD*%
%TA.AperFunction,Conductor*%
%TO.N,/PB3*%
G36*
X33354489Y-1340865D02*
G01*
X34123724Y-1660472D01*
X34130049Y-1666811D01*
X34130040Y-1675766D01*
X34129706Y-1676497D01*
X33453230Y-3033520D01*
X33446472Y-3039395D01*
X33442759Y-3040000D01*
X33257241Y-3040000D01*
X33248968Y-3036573D01*
X33246770Y-3033520D01*
X32570293Y-1676497D01*
X32569669Y-1667564D01*
X32575544Y-1660806D01*
X32576261Y-1660478D01*
X33345511Y-1340864D01*
X33354466Y-1340856D01*
X33354489Y-1340865D01*
G37*
%TD.AperFunction*%
%TD*%
%TA.AperFunction,Conductor*%
%TO.N,/PB3*%
G36*
X33116237Y-8912162D02*
G01*
X33245733Y-9041658D01*
X33249160Y-9049931D01*
X33247925Y-9055163D01*
X33183149Y-9184714D01*
X33176399Y-9190577D01*
X32884345Y-9288360D01*
X32875412Y-9287737D01*
X32869535Y-9280980D01*
X32869535Y-9273551D01*
X32967318Y-8981494D01*
X32973180Y-8974746D01*
X33102735Y-8909969D01*
X33111664Y-8909335D01*
X33116237Y-8912162D01*
G37*
%TD.AperFunction*%
%TD*%
%TA.AperFunction,Conductor*%
%TO.N,/PB4*%
G36*
X30814489Y-1340865D02*
G01*
X31583724Y-1660472D01*
X31590049Y-1666811D01*
X31590040Y-1675766D01*
X31589706Y-1676497D01*
X30913230Y-3033520D01*
X30906472Y-3039395D01*
X30902759Y-3040000D01*
X30717241Y-3040000D01*
X30708968Y-3036573D01*
X30706770Y-3033520D01*
X30030293Y-1676497D01*
X30029669Y-1667564D01*
X30035544Y-1660806D01*
X30036261Y-1660478D01*
X30805511Y-1340864D01*
X30814466Y-1340856D01*
X30814489Y-1340865D01*
G37*
%TD.AperFunction*%
%TD*%
%TA.AperFunction,Conductor*%
%TO.N,/PB4*%
G36*
X32762683Y-8558609D02*
G01*
X32892179Y-8688105D01*
X32895606Y-8696378D01*
X32894371Y-8701610D01*
X32829595Y-8831161D01*
X32822845Y-8837024D01*
X32530791Y-8934807D01*
X32521858Y-8934184D01*
X32515981Y-8927427D01*
X32515981Y-8919998D01*
X32613764Y-8627941D01*
X32619626Y-8621193D01*
X32749181Y-8556416D01*
X32758110Y-8555782D01*
X32762683Y-8558609D01*
G37*
%TD.AperFunction*%
%TD*%
%TA.AperFunction,Conductor*%
%TO.N,/PB5*%
G36*
X32409130Y-8205055D02*
G01*
X32538626Y-8334551D01*
X32542053Y-8342824D01*
X32540818Y-8348056D01*
X32476042Y-8477607D01*
X32469292Y-8483470D01*
X32177238Y-8581253D01*
X32168305Y-8580630D01*
X32162428Y-8573873D01*
X32162428Y-8566444D01*
X32260211Y-8274387D01*
X32266073Y-8267639D01*
X32395628Y-8202862D01*
X32404557Y-8202228D01*
X32409130Y-8205055D01*
G37*
%TD.AperFunction*%
%TD*%
%TA.AperFunction,Conductor*%
%TO.N,/PB5*%
G36*
X29053825Y-1019033D02*
G01*
X29059980Y-1024981D01*
X29205442Y-1343785D01*
X29561042Y-2123143D01*
X29644681Y-2306450D01*
X29644998Y-2315399D01*
X29642310Y-2319580D01*
X29511116Y-2450774D01*
X29502843Y-2454201D01*
X29500425Y-2453948D01*
X29485687Y-2450835D01*
X29481881Y-2449295D01*
X29476452Y-2445884D01*
X29476448Y-2445883D01*
X29446575Y-2442517D01*
X29445467Y-2442338D01*
X27958485Y-2128206D01*
X27951099Y-2123143D01*
X27949456Y-2114341D01*
X27950089Y-2112293D01*
X28267438Y-1343783D01*
X28273759Y-1337448D01*
X29044872Y-1019024D01*
X29053825Y-1019033D01*
G37*
%TD.AperFunction*%
%TD*%
%TA.AperFunction,Conductor*%
%TO.N,/PB6*%
G36*
X32055577Y-7851502D02*
G01*
X32185073Y-7980998D01*
X32188500Y-7989271D01*
X32187265Y-7994503D01*
X32122489Y-8124054D01*
X32115739Y-8129917D01*
X31823685Y-8227700D01*
X31814752Y-8227077D01*
X31808875Y-8220320D01*
X31808875Y-8212891D01*
X31906658Y-7920834D01*
X31912520Y-7914086D01*
X32042075Y-7849309D01*
X32051004Y-7848675D01*
X32055577Y-7851502D01*
G37*
%TD.AperFunction*%
%TD*%
%TA.AperFunction,Conductor*%
%TO.N,/PB6*%
G36*
X26512669Y-1019511D02*
G01*
X26518994Y-1025850D01*
X26519275Y-1026603D01*
X26886337Y-2123400D01*
X27000494Y-2464504D01*
X26999870Y-2473437D01*
X26997672Y-2476490D01*
X26866490Y-2607672D01*
X26858217Y-2611099D01*
X26854504Y-2610494D01*
X26444972Y-2473437D01*
X26190235Y-2388184D01*
X25416603Y-2129275D01*
X25409845Y-2123400D01*
X25409221Y-2114467D01*
X25409497Y-2113726D01*
X25727438Y-1343783D01*
X25733759Y-1337448D01*
X26503715Y-1019502D01*
X26512669Y-1019511D01*
G37*
%TD.AperFunction*%
%TD*%
%TA.AperFunction,Conductor*%
%TO.N,/PB7*%
G36*
X31702023Y-7497949D02*
G01*
X31831519Y-7627445D01*
X31834946Y-7635718D01*
X31833711Y-7640950D01*
X31768935Y-7770501D01*
X31762185Y-7776364D01*
X31470131Y-7874147D01*
X31461198Y-7873524D01*
X31455321Y-7866767D01*
X31455321Y-7859338D01*
X31553104Y-7567281D01*
X31558966Y-7560533D01*
X31688521Y-7495756D01*
X31697450Y-7495122D01*
X31702023Y-7497949D01*
G37*
%TD.AperFunction*%
%TD*%
%TA.AperFunction,Conductor*%
%TO.N,/PB7*%
G36*
X23972669Y-1019511D02*
G01*
X23978994Y-1025850D01*
X23979275Y-1026603D01*
X24346337Y-2123400D01*
X24460494Y-2464504D01*
X24459870Y-2473437D01*
X24457672Y-2476490D01*
X24326490Y-2607672D01*
X24318217Y-2611099D01*
X24314504Y-2610494D01*
X23904972Y-2473437D01*
X23650235Y-2388184D01*
X22876603Y-2129275D01*
X22869845Y-2123400D01*
X22869221Y-2114467D01*
X22869497Y-2113726D01*
X23187438Y-1343783D01*
X23193759Y-1337448D01*
X23963715Y-1019502D01*
X23972669Y-1019511D01*
G37*
%TD.AperFunction*%
%TD*%
%TA.AperFunction,Conductor*%
%TO.N,/PB8*%
G36*
X30994916Y-6790842D02*
G01*
X31124412Y-6920338D01*
X31127839Y-6928611D01*
X31126604Y-6933843D01*
X31061828Y-7063394D01*
X31055078Y-7069257D01*
X30763024Y-7167040D01*
X30754091Y-7166417D01*
X30748214Y-7159660D01*
X30748214Y-7152231D01*
X30845997Y-6860174D01*
X30851859Y-6853426D01*
X30981414Y-6788649D01*
X30990343Y-6788015D01*
X30994916Y-6790842D01*
G37*
%TD.AperFunction*%
%TD*%
%TA.AperFunction,Conductor*%
%TO.N,/PB8*%
G36*
X21432669Y-1019511D02*
G01*
X21438994Y-1025850D01*
X21439275Y-1026603D01*
X21806337Y-2123400D01*
X21920494Y-2464504D01*
X21919870Y-2473437D01*
X21917672Y-2476490D01*
X21786490Y-2607672D01*
X21778217Y-2611099D01*
X21774504Y-2610494D01*
X21364972Y-2473437D01*
X21110235Y-2388184D01*
X20336603Y-2129275D01*
X20329845Y-2123400D01*
X20329221Y-2114467D01*
X20329497Y-2113726D01*
X20647438Y-1343783D01*
X20653759Y-1337448D01*
X21423715Y-1019502D01*
X21432669Y-1019511D01*
G37*
%TD.AperFunction*%
%TD*%
%TA.AperFunction,Conductor*%
%TO.N,Net-(D1-A)*%
G36*
X1983748Y-1572476D02*
G01*
X2321770Y-1677444D01*
X2328654Y-1683171D01*
X2330000Y-1688618D01*
X2330000Y-1971381D01*
X2326573Y-1979654D01*
X2321770Y-1982555D01*
X1983751Y-2087522D01*
X1974834Y-2086702D01*
X1971649Y-2084246D01*
X1868371Y-1971381D01*
X1746226Y-1837897D01*
X1743170Y-1829482D01*
X1746227Y-1822102D01*
X1868372Y-1688618D01*
X1971651Y-1575751D01*
X1979763Y-1571962D01*
X1983748Y-1572476D01*
G37*
%TD.AperFunction*%
%TD*%
%TA.AperFunction,Conductor*%
%TO.N,Net-(D1-A)*%
G36*
X2480215Y-1076325D02*
G01*
X2903369Y-1297320D01*
X2909116Y-1304188D01*
X2909483Y-1305703D01*
X2988536Y-1764205D01*
X2986565Y-1772940D01*
X2979748Y-1777567D01*
X2154623Y-1976517D01*
X2145778Y-1975125D01*
X2140507Y-1967885D01*
X2140181Y-1965143D01*
X2140181Y-1682964D01*
X2141593Y-1677392D01*
X2342887Y-1305703D01*
X2464512Y-1081122D01*
X2471464Y-1075481D01*
X2480215Y-1076325D01*
G37*
%TD.AperFunction*%
%TD*%
%TA.AperFunction,Conductor*%
%TO.N,Net-(F1-Pad1)*%
G36*
X2771392Y-3182036D02*
G01*
X3377107Y-3931980D01*
X3379639Y-3940569D01*
X3376278Y-3947604D01*
X3032382Y-4291500D01*
X3027133Y-4294529D01*
X2619526Y-4403600D01*
X2610649Y-4402429D01*
X2606251Y-4397938D01*
X2549351Y-4294529D01*
X2144726Y-3559168D01*
X2143741Y-3550269D01*
X2148959Y-3543497D01*
X2756274Y-3179352D01*
X2765131Y-3178037D01*
X2771392Y-3182036D01*
G37*
%TD.AperFunction*%
%TD*%
%TA.AperFunction,Conductor*%
%TO.N,Net-(F1-Pad1)*%
G36*
X4721614Y-8387523D02*
G01*
X4728577Y-8393152D01*
X4730000Y-8398744D01*
X4730000Y-8880928D01*
X4726573Y-8889201D01*
X4721214Y-8892259D01*
X4384231Y-8978911D01*
X4376091Y-8978048D01*
X3700166Y-8640568D01*
X3694295Y-8633806D01*
X3694924Y-8624874D01*
X3700244Y-8619594D01*
X4375911Y-8288656D01*
X4384365Y-8287943D01*
X4721614Y-8387523D01*
G37*
%TD.AperFunction*%
%TD*%
%TA.AperFunction,Conductor*%
%TO.N,Net-(F1-Pad1)*%
G36*
X4385809Y-11348368D02*
G01*
X4550300Y-11526158D01*
X4889515Y-11865373D01*
X4892942Y-11873646D01*
X4889515Y-11881919D01*
X4884269Y-11884948D01*
X4384280Y-12018853D01*
X4376033Y-12018022D01*
X3700943Y-11681499D01*
X3695068Y-11674741D01*
X3695692Y-11665808D01*
X3701194Y-11660435D01*
X4372255Y-11345720D01*
X4381199Y-11345311D01*
X4385809Y-11348368D01*
G37*
%TD.AperFunction*%
%TD*%
%TA.AperFunction,Conductor*%
%TO.N,/PA11*%
G36*
X32469292Y-11931081D02*
G01*
X32476042Y-11936944D01*
X32540818Y-12066495D01*
X32541453Y-12075427D01*
X32538626Y-12080000D01*
X32409130Y-12209496D01*
X32400857Y-12212923D01*
X32395626Y-12211688D01*
X32331618Y-12179684D01*
X32266074Y-12146912D01*
X32260211Y-12140162D01*
X32238072Y-12074038D01*
X32162428Y-11848107D01*
X32163051Y-11839175D01*
X32169808Y-11833298D01*
X32177237Y-11833298D01*
X32469292Y-11931081D01*
G37*
%TD.AperFunction*%
%TD*%
%TA.AperFunction,Conductor*%
%TO.N,/PA11*%
G36*
X35991032Y-17263427D02*
G01*
X35993230Y-17266480D01*
X36669706Y-18623502D01*
X36670330Y-18632435D01*
X36664455Y-18639193D01*
X36663724Y-18639527D01*
X35894489Y-18959134D01*
X35885534Y-18959143D01*
X35885511Y-18959134D01*
X35116275Y-18639527D01*
X35109950Y-18633188D01*
X35109959Y-18624233D01*
X35110285Y-18623518D01*
X35786770Y-17266480D01*
X35793528Y-17260605D01*
X35797241Y-17260000D01*
X35982759Y-17260000D01*
X35991032Y-17263427D01*
G37*
%TD.AperFunction*%
%TD*%
%TA.AperFunction,Conductor*%
%TO.N,/PA12*%
G36*
X38411874Y-17239265D02*
G01*
X38413740Y-17241700D01*
X39208661Y-18623184D01*
X39209817Y-18632064D01*
X39204355Y-18639160D01*
X39203009Y-18639824D01*
X38435190Y-18958844D01*
X38426236Y-18958852D01*
X37656208Y-18639491D01*
X37649879Y-18633157D01*
X37649883Y-18624202D01*
X37650175Y-18623552D01*
X38263850Y-17371631D01*
X38266079Y-17368514D01*
X38395329Y-17239264D01*
X38403601Y-17235838D01*
X38411874Y-17239265D01*
G37*
%TD.AperFunction*%
%TD*%
%TA.AperFunction,Conductor*%
%TO.N,/PA12*%
G36*
X32822845Y-11577527D02*
G01*
X32829595Y-11583390D01*
X32894371Y-11712941D01*
X32895006Y-11721873D01*
X32892179Y-11726446D01*
X32762683Y-11855942D01*
X32754410Y-11859369D01*
X32749179Y-11858134D01*
X32685171Y-11826130D01*
X32619627Y-11793358D01*
X32613764Y-11786608D01*
X32591625Y-11720484D01*
X32515981Y-11494553D01*
X32516604Y-11485621D01*
X32523361Y-11479744D01*
X32530790Y-11479744D01*
X32822845Y-11577527D01*
G37*
%TD.AperFunction*%
%TD*%
M02*
