%TF.GenerationSoftware,KiCad,Pcbnew,(6.0.7)*%
%TF.CreationDate,2022-10-08T18:54:48+08:00*%
%TF.ProjectId,UINIO-MCU-STM32L051K8,55494e49-4f2d-44d4-9355-2d53544d3332,rev?*%
%TF.SameCoordinates,Original*%
%TF.FileFunction,Legend,Bot*%
%TF.FilePolarity,Positive*%
%FSLAX46Y46*%
G04 Gerber Fmt 4.6, Leading zero omitted, Abs format (unit mm)*
G04 Created by KiCad (PCBNEW (6.0.7)) date 2022-10-08 18:54:48*
%MOMM*%
%LPD*%
G01*
G04 APERTURE LIST*
G04 Aperture macros list*
%AMRoundRect*
0 Rectangle with rounded corners*
0 $1 Rounding radius*
0 $2 $3 $4 $5 $6 $7 $8 $9 X,Y pos of 4 corners*
0 Add a 4 corners polygon primitive as box body*
4,1,4,$2,$3,$4,$5,$6,$7,$8,$9,$2,$3,0*
0 Add four circle primitives for the rounded corners*
1,1,$1+$1,$2,$3*
1,1,$1+$1,$4,$5*
1,1,$1+$1,$6,$7*
1,1,$1+$1,$8,$9*
0 Add four rect primitives between the rounded corners*
20,1,$1+$1,$2,$3,$4,$5,0*
20,1,$1+$1,$4,$5,$6,$7,0*
20,1,$1+$1,$6,$7,$8,$9,0*
20,1,$1+$1,$8,$9,$2,$3,0*%
G04 Aperture macros list end*
%ADD10C,0.100000*%
%ADD11C,0.150000*%
%ADD12C,0.300000*%
%ADD13C,0.120000*%
%ADD14C,0.152000*%
%ADD15R,1.700000X1.700000*%
%ADD16O,1.700000X1.700000*%
%ADD17O,1.000000X1.800000*%
%ADD18O,2.250000X0.630000*%
%ADD19RoundRect,0.140000X0.140000X0.170000X-0.140000X0.170000X-0.140000X-0.170000X0.140000X-0.170000X0*%
G04 APERTURE END LIST*
D10*
X163792857Y-109201428D02*
X163792857Y-108601428D01*
X163564285Y-108601428D01*
X163507142Y-108630000D01*
X163478571Y-108658571D01*
X163450000Y-108715714D01*
X163450000Y-108801428D01*
X163478571Y-108858571D01*
X163507142Y-108887142D01*
X163564285Y-108915714D01*
X163792857Y-108915714D01*
X162992857Y-108887142D02*
X162907142Y-108915714D01*
X162878571Y-108944285D01*
X162850000Y-109001428D01*
X162850000Y-109087142D01*
X162878571Y-109144285D01*
X162907142Y-109172857D01*
X162964285Y-109201428D01*
X163192857Y-109201428D01*
X163192857Y-108601428D01*
X162992857Y-108601428D01*
X162935714Y-108630000D01*
X162907142Y-108658571D01*
X162878571Y-108715714D01*
X162878571Y-108772857D01*
X162907142Y-108830000D01*
X162935714Y-108858571D01*
X162992857Y-108887142D01*
X163192857Y-108887142D01*
X162650000Y-108601428D02*
X162250000Y-108601428D01*
X162507142Y-109201428D01*
X154593333Y-127660000D02*
X155293333Y-127660000D01*
X155293333Y-127393333D01*
X155260000Y-127326666D01*
X155226666Y-127293333D01*
X155160000Y-127260000D01*
X155060000Y-127260000D01*
X154993333Y-127293333D01*
X154960000Y-127326666D01*
X154926666Y-127393333D01*
X154926666Y-127660000D01*
X154793333Y-126993333D02*
X154793333Y-126660000D01*
X154593333Y-127060000D02*
X155293333Y-126826666D01*
X154593333Y-126593333D01*
X154593333Y-125993333D02*
X154593333Y-126393333D01*
X154593333Y-126193333D02*
X155293333Y-126193333D01*
X155193333Y-126260000D01*
X155126666Y-126326666D01*
X155093333Y-126393333D01*
X155060000Y-125393333D02*
X154593333Y-125393333D01*
X155326666Y-125560000D02*
X154826666Y-125726666D01*
X154826666Y-125293333D01*
X163792857Y-116821428D02*
X163792857Y-116221428D01*
X163564285Y-116221428D01*
X163507142Y-116250000D01*
X163478571Y-116278571D01*
X163450000Y-116335714D01*
X163450000Y-116421428D01*
X163478571Y-116478571D01*
X163507142Y-116507142D01*
X163564285Y-116535714D01*
X163792857Y-116535714D01*
X162992857Y-116507142D02*
X162907142Y-116535714D01*
X162878571Y-116564285D01*
X162850000Y-116621428D01*
X162850000Y-116707142D01*
X162878571Y-116764285D01*
X162907142Y-116792857D01*
X162964285Y-116821428D01*
X163192857Y-116821428D01*
X163192857Y-116221428D01*
X162992857Y-116221428D01*
X162935714Y-116250000D01*
X162907142Y-116278571D01*
X162878571Y-116335714D01*
X162878571Y-116392857D01*
X162907142Y-116450000D01*
X162935714Y-116478571D01*
X162992857Y-116507142D01*
X163192857Y-116507142D01*
X162335714Y-116421428D02*
X162335714Y-116821428D01*
X162478571Y-116192857D02*
X162621428Y-116621428D01*
X162250000Y-116621428D01*
X163792857Y-126981428D02*
X163792857Y-126381428D01*
X163564285Y-126381428D01*
X163507142Y-126410000D01*
X163478571Y-126438571D01*
X163450000Y-126495714D01*
X163450000Y-126581428D01*
X163478571Y-126638571D01*
X163507142Y-126667142D01*
X163564285Y-126695714D01*
X163792857Y-126695714D01*
X162992857Y-126667142D02*
X162907142Y-126695714D01*
X162878571Y-126724285D01*
X162850000Y-126781428D01*
X162850000Y-126867142D01*
X162878571Y-126924285D01*
X162907142Y-126952857D01*
X162964285Y-126981428D01*
X163192857Y-126981428D01*
X163192857Y-126381428D01*
X162992857Y-126381428D01*
X162935714Y-126410000D01*
X162907142Y-126438571D01*
X162878571Y-126495714D01*
X162878571Y-126552857D01*
X162907142Y-126610000D01*
X162935714Y-126638571D01*
X162992857Y-126667142D01*
X163192857Y-126667142D01*
X162478571Y-126381428D02*
X162421428Y-126381428D01*
X162364285Y-126410000D01*
X162335714Y-126438571D01*
X162307142Y-126495714D01*
X162278571Y-126610000D01*
X162278571Y-126752857D01*
X162307142Y-126867142D01*
X162335714Y-126924285D01*
X162364285Y-126952857D01*
X162421428Y-126981428D01*
X162478571Y-126981428D01*
X162535714Y-126952857D01*
X162564285Y-126924285D01*
X162592857Y-126867142D01*
X162621428Y-126752857D01*
X162621428Y-126610000D01*
X162592857Y-126495714D01*
X162564285Y-126438571D01*
X162535714Y-126410000D01*
X162478571Y-126381428D01*
X151465714Y-121891428D02*
X151465714Y-121291428D01*
X151237142Y-121291428D01*
X151180000Y-121320000D01*
X151151428Y-121348571D01*
X151122857Y-121405714D01*
X151122857Y-121491428D01*
X151151428Y-121548571D01*
X151180000Y-121577142D01*
X151237142Y-121605714D01*
X151465714Y-121605714D01*
X150894285Y-121720000D02*
X150608571Y-121720000D01*
X150951428Y-121891428D02*
X150751428Y-121291428D01*
X150551428Y-121891428D01*
X150037142Y-121891428D02*
X150380000Y-121891428D01*
X150208571Y-121891428D02*
X150208571Y-121291428D01*
X150265714Y-121377142D01*
X150322857Y-121434285D01*
X150380000Y-121462857D01*
X149465714Y-121891428D02*
X149808571Y-121891428D01*
X149637142Y-121891428D02*
X149637142Y-121291428D01*
X149694285Y-121377142D01*
X149751428Y-121434285D01*
X149808571Y-121462857D01*
X163792857Y-119361428D02*
X163792857Y-118761428D01*
X163564285Y-118761428D01*
X163507142Y-118790000D01*
X163478571Y-118818571D01*
X163450000Y-118875714D01*
X163450000Y-118961428D01*
X163478571Y-119018571D01*
X163507142Y-119047142D01*
X163564285Y-119075714D01*
X163792857Y-119075714D01*
X162992857Y-119047142D02*
X162907142Y-119075714D01*
X162878571Y-119104285D01*
X162850000Y-119161428D01*
X162850000Y-119247142D01*
X162878571Y-119304285D01*
X162907142Y-119332857D01*
X162964285Y-119361428D01*
X163192857Y-119361428D01*
X163192857Y-118761428D01*
X162992857Y-118761428D01*
X162935714Y-118790000D01*
X162907142Y-118818571D01*
X162878571Y-118875714D01*
X162878571Y-118932857D01*
X162907142Y-118990000D01*
X162935714Y-119018571D01*
X162992857Y-119047142D01*
X163192857Y-119047142D01*
X162650000Y-118761428D02*
X162278571Y-118761428D01*
X162478571Y-118990000D01*
X162392857Y-118990000D01*
X162335714Y-119018571D01*
X162307142Y-119047142D01*
X162278571Y-119104285D01*
X162278571Y-119247142D01*
X162307142Y-119304285D01*
X162335714Y-119332857D01*
X162392857Y-119361428D01*
X162564285Y-119361428D01*
X162621428Y-119332857D01*
X162650000Y-119304285D01*
X163956714Y-104081428D02*
X163956714Y-103481428D01*
X163613857Y-104081428D01*
X163613857Y-103481428D01*
X162985285Y-104081428D02*
X163185285Y-103795714D01*
X163328142Y-104081428D02*
X163328142Y-103481428D01*
X163099571Y-103481428D01*
X163042428Y-103510000D01*
X163013857Y-103538571D01*
X162985285Y-103595714D01*
X162985285Y-103681428D01*
X163013857Y-103738571D01*
X163042428Y-103767142D01*
X163099571Y-103795714D01*
X163328142Y-103795714D01*
X162756714Y-104052857D02*
X162671000Y-104081428D01*
X162528142Y-104081428D01*
X162471000Y-104052857D01*
X162442428Y-104024285D01*
X162413857Y-103967142D01*
X162413857Y-103910000D01*
X162442428Y-103852857D01*
X162471000Y-103824285D01*
X162528142Y-103795714D01*
X162642428Y-103767142D01*
X162699571Y-103738571D01*
X162728142Y-103710000D01*
X162756714Y-103652857D01*
X162756714Y-103595714D01*
X162728142Y-103538571D01*
X162699571Y-103510000D01*
X162642428Y-103481428D01*
X162499571Y-103481428D01*
X162413857Y-103510000D01*
X162242428Y-103481428D02*
X161899571Y-103481428D01*
X162071000Y-104081428D02*
X162071000Y-103481428D01*
X163792857Y-111741428D02*
X163792857Y-111141428D01*
X163564285Y-111141428D01*
X163507142Y-111170000D01*
X163478571Y-111198571D01*
X163450000Y-111255714D01*
X163450000Y-111341428D01*
X163478571Y-111398571D01*
X163507142Y-111427142D01*
X163564285Y-111455714D01*
X163792857Y-111455714D01*
X162992857Y-111427142D02*
X162907142Y-111455714D01*
X162878571Y-111484285D01*
X162850000Y-111541428D01*
X162850000Y-111627142D01*
X162878571Y-111684285D01*
X162907142Y-111712857D01*
X162964285Y-111741428D01*
X163192857Y-111741428D01*
X163192857Y-111141428D01*
X162992857Y-111141428D01*
X162935714Y-111170000D01*
X162907142Y-111198571D01*
X162878571Y-111255714D01*
X162878571Y-111312857D01*
X162907142Y-111370000D01*
X162935714Y-111398571D01*
X162992857Y-111427142D01*
X163192857Y-111427142D01*
X162335714Y-111141428D02*
X162450000Y-111141428D01*
X162507142Y-111170000D01*
X162535714Y-111198571D01*
X162592857Y-111284285D01*
X162621428Y-111398571D01*
X162621428Y-111627142D01*
X162592857Y-111684285D01*
X162564285Y-111712857D01*
X162507142Y-111741428D01*
X162392857Y-111741428D01*
X162335714Y-111712857D01*
X162307142Y-111684285D01*
X162278571Y-111627142D01*
X162278571Y-111484285D01*
X162307142Y-111427142D01*
X162335714Y-111398571D01*
X162392857Y-111370000D01*
X162507142Y-111370000D01*
X162564285Y-111398571D01*
X162592857Y-111427142D01*
X162621428Y-111484285D01*
X151485714Y-124431428D02*
X151485714Y-123831428D01*
X151257142Y-123831428D01*
X151200000Y-123860000D01*
X151171428Y-123888571D01*
X151142857Y-123945714D01*
X151142857Y-124031428D01*
X151171428Y-124088571D01*
X151200000Y-124117142D01*
X151257142Y-124145714D01*
X151485714Y-124145714D01*
X150914285Y-124260000D02*
X150628571Y-124260000D01*
X150971428Y-124431428D02*
X150771428Y-123831428D01*
X150571428Y-124431428D01*
X150057142Y-124431428D02*
X150400000Y-124431428D01*
X150228571Y-124431428D02*
X150228571Y-123831428D01*
X150285714Y-123917142D01*
X150342857Y-123974285D01*
X150400000Y-124002857D01*
X149828571Y-123888571D02*
X149800000Y-123860000D01*
X149742857Y-123831428D01*
X149600000Y-123831428D01*
X149542857Y-123860000D01*
X149514285Y-123888571D01*
X149485714Y-123945714D01*
X149485714Y-124002857D01*
X149514285Y-124088571D01*
X149857142Y-124431428D01*
X149485714Y-124431428D01*
X151475714Y-126961428D02*
X151475714Y-126361428D01*
X151247142Y-126361428D01*
X151190000Y-126390000D01*
X151161428Y-126418571D01*
X151132857Y-126475714D01*
X151132857Y-126561428D01*
X151161428Y-126618571D01*
X151190000Y-126647142D01*
X151247142Y-126675714D01*
X151475714Y-126675714D01*
X150904285Y-126790000D02*
X150618571Y-126790000D01*
X150961428Y-126961428D02*
X150761428Y-126361428D01*
X150561428Y-126961428D01*
X150047142Y-126961428D02*
X150390000Y-126961428D01*
X150218571Y-126961428D02*
X150218571Y-126361428D01*
X150275714Y-126447142D01*
X150332857Y-126504285D01*
X150390000Y-126532857D01*
X149504285Y-126361428D02*
X149790000Y-126361428D01*
X149818571Y-126647142D01*
X149790000Y-126618571D01*
X149732857Y-126590000D01*
X149590000Y-126590000D01*
X149532857Y-126618571D01*
X149504285Y-126647142D01*
X149475714Y-126704285D01*
X149475714Y-126847142D01*
X149504285Y-126904285D01*
X149532857Y-126932857D01*
X149590000Y-126961428D01*
X149732857Y-126961428D01*
X149790000Y-126932857D01*
X149818571Y-126904285D01*
X163792857Y-106661428D02*
X163792857Y-106061428D01*
X163564285Y-106061428D01*
X163507142Y-106090000D01*
X163478571Y-106118571D01*
X163450000Y-106175714D01*
X163450000Y-106261428D01*
X163478571Y-106318571D01*
X163507142Y-106347142D01*
X163564285Y-106375714D01*
X163792857Y-106375714D01*
X162992857Y-106347142D02*
X162907142Y-106375714D01*
X162878571Y-106404285D01*
X162850000Y-106461428D01*
X162850000Y-106547142D01*
X162878571Y-106604285D01*
X162907142Y-106632857D01*
X162964285Y-106661428D01*
X163192857Y-106661428D01*
X163192857Y-106061428D01*
X162992857Y-106061428D01*
X162935714Y-106090000D01*
X162907142Y-106118571D01*
X162878571Y-106175714D01*
X162878571Y-106232857D01*
X162907142Y-106290000D01*
X162935714Y-106318571D01*
X162992857Y-106347142D01*
X163192857Y-106347142D01*
X162507142Y-106318571D02*
X162564285Y-106290000D01*
X162592857Y-106261428D01*
X162621428Y-106204285D01*
X162621428Y-106175714D01*
X162592857Y-106118571D01*
X162564285Y-106090000D01*
X162507142Y-106061428D01*
X162392857Y-106061428D01*
X162335714Y-106090000D01*
X162307142Y-106118571D01*
X162278571Y-106175714D01*
X162278571Y-106204285D01*
X162307142Y-106261428D01*
X162335714Y-106290000D01*
X162392857Y-106318571D01*
X162507142Y-106318571D01*
X162564285Y-106347142D01*
X162592857Y-106375714D01*
X162621428Y-106432857D01*
X162621428Y-106547142D01*
X162592857Y-106604285D01*
X162564285Y-106632857D01*
X162507142Y-106661428D01*
X162392857Y-106661428D01*
X162335714Y-106632857D01*
X162307142Y-106604285D01*
X162278571Y-106547142D01*
X162278571Y-106432857D01*
X162307142Y-106375714D01*
X162335714Y-106347142D01*
X162392857Y-106318571D01*
X151465714Y-119351428D02*
X151465714Y-118751428D01*
X151237142Y-118751428D01*
X151180000Y-118780000D01*
X151151428Y-118808571D01*
X151122857Y-118865714D01*
X151122857Y-118951428D01*
X151151428Y-119008571D01*
X151180000Y-119037142D01*
X151237142Y-119065714D01*
X151465714Y-119065714D01*
X150894285Y-119180000D02*
X150608571Y-119180000D01*
X150951428Y-119351428D02*
X150751428Y-118751428D01*
X150551428Y-119351428D01*
X150037142Y-119351428D02*
X150380000Y-119351428D01*
X150208571Y-119351428D02*
X150208571Y-118751428D01*
X150265714Y-118837142D01*
X150322857Y-118894285D01*
X150380000Y-118922857D01*
X149665714Y-118751428D02*
X149608571Y-118751428D01*
X149551428Y-118780000D01*
X149522857Y-118808571D01*
X149494285Y-118865714D01*
X149465714Y-118980000D01*
X149465714Y-119122857D01*
X149494285Y-119237142D01*
X149522857Y-119294285D01*
X149551428Y-119322857D01*
X149608571Y-119351428D01*
X149665714Y-119351428D01*
X149722857Y-119322857D01*
X149751428Y-119294285D01*
X149780000Y-119237142D01*
X149808571Y-119122857D01*
X149808571Y-118980000D01*
X149780000Y-118865714D01*
X149751428Y-118808571D01*
X149722857Y-118780000D01*
X149665714Y-118751428D01*
X150790000Y-101571428D02*
X150790000Y-100971428D01*
X150561428Y-100971428D01*
X150504285Y-101000000D01*
X150475714Y-101028571D01*
X150447142Y-101085714D01*
X150447142Y-101171428D01*
X150475714Y-101228571D01*
X150504285Y-101257142D01*
X150561428Y-101285714D01*
X150790000Y-101285714D01*
X150218571Y-101400000D02*
X149932857Y-101400000D01*
X150275714Y-101571428D02*
X150075714Y-100971428D01*
X149875714Y-101571428D01*
X149732857Y-100971428D02*
X149361428Y-100971428D01*
X149561428Y-101200000D01*
X149475714Y-101200000D01*
X149418571Y-101228571D01*
X149390000Y-101257142D01*
X149361428Y-101314285D01*
X149361428Y-101457142D01*
X149390000Y-101514285D01*
X149418571Y-101542857D01*
X149475714Y-101571428D01*
X149647142Y-101571428D01*
X149704285Y-101542857D01*
X149732857Y-101514285D01*
X150790000Y-109191428D02*
X150790000Y-108591428D01*
X150561428Y-108591428D01*
X150504285Y-108620000D01*
X150475714Y-108648571D01*
X150447142Y-108705714D01*
X150447142Y-108791428D01*
X150475714Y-108848571D01*
X150504285Y-108877142D01*
X150561428Y-108905714D01*
X150790000Y-108905714D01*
X150218571Y-109020000D02*
X149932857Y-109020000D01*
X150275714Y-109191428D02*
X150075714Y-108591428D01*
X149875714Y-109191428D01*
X149418571Y-108591428D02*
X149532857Y-108591428D01*
X149590000Y-108620000D01*
X149618571Y-108648571D01*
X149675714Y-108734285D01*
X149704285Y-108848571D01*
X149704285Y-109077142D01*
X149675714Y-109134285D01*
X149647142Y-109162857D01*
X149590000Y-109191428D01*
X149475714Y-109191428D01*
X149418571Y-109162857D01*
X149390000Y-109134285D01*
X149361428Y-109077142D01*
X149361428Y-108934285D01*
X149390000Y-108877142D01*
X149418571Y-108848571D01*
X149475714Y-108820000D01*
X149590000Y-108820000D01*
X149647142Y-108848571D01*
X149675714Y-108877142D01*
X149704285Y-108934285D01*
X157448060Y-115860480D02*
X157448060Y-114765242D01*
X157162346Y-115860480D02*
X157162346Y-114765242D01*
X156829013Y-115289051D02*
X156829013Y-114670004D01*
X157781394Y-115860480D02*
X157067108Y-115860480D01*
X157971870Y-115289051D02*
X156829013Y-115289051D01*
X157781394Y-115860480D02*
X157781394Y-114765242D01*
X157162346Y-114765242D01*
X157067108Y-114622385D02*
X156829013Y-114670004D01*
X157352822Y-114384289D02*
X157352822Y-113146194D01*
X156829013Y-114050956D02*
X156829013Y-113765242D01*
X157590917Y-113765242D02*
X156829013Y-113765242D01*
X157829013Y-114241432D02*
X157829013Y-113289051D01*
X157733774Y-113431908D01*
X157590917Y-113765242D01*
X157733774Y-112431908D02*
X157733774Y-111717623D01*
X157686155Y-112908099D02*
X157686155Y-112527147D01*
X156829013Y-112860480D02*
X156829013Y-112717623D01*
X157971870Y-112670004D02*
X156829013Y-112670004D01*
X157971870Y-112098575D02*
X157448060Y-112098575D01*
X157448060Y-112336670D02*
X157209965Y-112241432D01*
X156971870Y-112003337D01*
X156829013Y-111670004D01*
X157448060Y-112431908D02*
X157448060Y-111765242D01*
X157257584Y-111860480D01*
X157019489Y-112098575D01*
X156829013Y-112527147D01*
X157352822Y-112479527D02*
X157257584Y-112908099D01*
X157638536Y-111384289D02*
X157638536Y-110241432D01*
X157971870Y-110812861D02*
X156829013Y-110812861D01*
X157543298Y-110765242D02*
X157019489Y-110289051D01*
X157638536Y-110860480D02*
X157400441Y-110622385D01*
X157114727Y-111241432D02*
X157019489Y-111431908D01*
X157686155Y-110812861D02*
X157448060Y-110908099D01*
X157067108Y-111289051D01*
X157924251Y-110622385D02*
X157829013Y-110431908D01*
X157781394Y-109574766D02*
X157781394Y-108717623D01*
X157590917Y-109955718D02*
X157590917Y-109574766D01*
X157495679Y-109479527D02*
X157495679Y-108812861D01*
X157305203Y-109479527D02*
X157305203Y-108812861D01*
X157162346Y-109574766D02*
X157162346Y-108717623D01*
X156829013Y-109146194D02*
X156829013Y-108955718D01*
X157971870Y-109765242D02*
X156829013Y-109765242D01*
X157638536Y-109479527D02*
X157305203Y-109479527D01*
X157971870Y-109146194D02*
X157305203Y-109146194D01*
X157305203Y-108955718D02*
X156829013Y-108955718D01*
X157638536Y-109479527D02*
X157638536Y-108812861D01*
X157305203Y-108812861D01*
X157067108Y-109384289D02*
X156924251Y-109241432D01*
X157924251Y-109003337D02*
X157876632Y-108812861D01*
X156876632Y-108193813D02*
X156876632Y-107479527D01*
X157829013Y-108431908D02*
X157686155Y-108431908D01*
X157209965Y-108193813D02*
X156829013Y-108193813D01*
X157971870Y-107860480D02*
X157829013Y-107860480D01*
X157162346Y-108336670D02*
X157162346Y-107479527D01*
X156829013Y-107479527D01*
X157829013Y-108431908D02*
X157829013Y-107289051D01*
X157686155Y-107289051D01*
X157733774Y-108050956D02*
X157543298Y-108241432D01*
X157448060Y-108431908D01*
X157638536Y-108098575D02*
X157448060Y-107955718D01*
X157305203Y-107717623D01*
X157162346Y-107241432D01*
X157638536Y-108098575D02*
X157638536Y-107527147D01*
X157448060Y-107717623D01*
X157257584Y-108050956D01*
X157162346Y-108479527D01*
D11*
X160676190Y-127685238D02*
X160638095Y-127570952D01*
X160638095Y-127380476D01*
X160676190Y-127304285D01*
X160714285Y-127266190D01*
X160790476Y-127228095D01*
X160866666Y-127228095D01*
X160942857Y-127266190D01*
X160980952Y-127304285D01*
X161019047Y-127380476D01*
X161057142Y-127532857D01*
X161095238Y-127609047D01*
X161133333Y-127647142D01*
X161209523Y-127685238D01*
X161285714Y-127685238D01*
X161361904Y-127647142D01*
X161400000Y-127609047D01*
X161438095Y-127532857D01*
X161438095Y-127342380D01*
X161400000Y-127228095D01*
X161438095Y-126961428D02*
X160638095Y-126770952D01*
X161209523Y-126618571D01*
X160638095Y-126466190D01*
X161438095Y-126275714D01*
X160638095Y-125970952D02*
X161438095Y-125970952D01*
X161438095Y-125780476D01*
X161400000Y-125666190D01*
X161323809Y-125590000D01*
X161247619Y-125551904D01*
X161095238Y-125513809D01*
X160980952Y-125513809D01*
X160828571Y-125551904D01*
X160752380Y-125590000D01*
X160676190Y-125666190D01*
X160638095Y-125780476D01*
X160638095Y-125970952D01*
X160638095Y-125170952D02*
X161438095Y-125170952D01*
X161438095Y-124637619D02*
X161438095Y-124485238D01*
X161400000Y-124409047D01*
X161323809Y-124332857D01*
X161171428Y-124294761D01*
X160904761Y-124294761D01*
X160752380Y-124332857D01*
X160676190Y-124409047D01*
X160638095Y-124485238D01*
X160638095Y-124637619D01*
X160676190Y-124713809D01*
X160752380Y-124790000D01*
X160904761Y-124828095D01*
X161171428Y-124828095D01*
X161323809Y-124790000D01*
X161400000Y-124713809D01*
X161438095Y-124637619D01*
D10*
X159533333Y-127720000D02*
X160233333Y-127720000D01*
X160233333Y-127453333D01*
X160200000Y-127386666D01*
X160166666Y-127353333D01*
X160100000Y-127320000D01*
X160000000Y-127320000D01*
X159933333Y-127353333D01*
X159900000Y-127386666D01*
X159866666Y-127453333D01*
X159866666Y-127720000D01*
X159733333Y-127053333D02*
X159733333Y-126720000D01*
X159533333Y-127120000D02*
X160233333Y-126886666D01*
X159533333Y-126653333D01*
X159533333Y-126053333D02*
X159533333Y-126453333D01*
X159533333Y-126253333D02*
X160233333Y-126253333D01*
X160133333Y-126320000D01*
X160066666Y-126386666D01*
X160033333Y-126453333D01*
X160233333Y-125820000D02*
X160233333Y-125386666D01*
X159966666Y-125620000D01*
X159966666Y-125520000D01*
X159933333Y-125453333D01*
X159900000Y-125420000D01*
X159833333Y-125386666D01*
X159666666Y-125386666D01*
X159600000Y-125420000D01*
X159566666Y-125453333D01*
X159533333Y-125520000D01*
X159533333Y-125720000D01*
X159566666Y-125786666D01*
X159600000Y-125820000D01*
X163792857Y-121901428D02*
X163792857Y-121301428D01*
X163564285Y-121301428D01*
X163507142Y-121330000D01*
X163478571Y-121358571D01*
X163450000Y-121415714D01*
X163450000Y-121501428D01*
X163478571Y-121558571D01*
X163507142Y-121587142D01*
X163564285Y-121615714D01*
X163792857Y-121615714D01*
X162992857Y-121587142D02*
X162907142Y-121615714D01*
X162878571Y-121644285D01*
X162850000Y-121701428D01*
X162850000Y-121787142D01*
X162878571Y-121844285D01*
X162907142Y-121872857D01*
X162964285Y-121901428D01*
X163192857Y-121901428D01*
X163192857Y-121301428D01*
X162992857Y-121301428D01*
X162935714Y-121330000D01*
X162907142Y-121358571D01*
X162878571Y-121415714D01*
X162878571Y-121472857D01*
X162907142Y-121530000D01*
X162935714Y-121558571D01*
X162992857Y-121587142D01*
X163192857Y-121587142D01*
X162621428Y-121358571D02*
X162592857Y-121330000D01*
X162535714Y-121301428D01*
X162392857Y-121301428D01*
X162335714Y-121330000D01*
X162307142Y-121358571D01*
X162278571Y-121415714D01*
X162278571Y-121472857D01*
X162307142Y-121558571D01*
X162650000Y-121901428D01*
X162278571Y-121901428D01*
X150814413Y-106697472D02*
X150814413Y-106097472D01*
X150585841Y-106097472D01*
X150528698Y-106126044D01*
X150500127Y-106154615D01*
X150471555Y-106211758D01*
X150471555Y-106297472D01*
X150500127Y-106354615D01*
X150528698Y-106383186D01*
X150585841Y-106411758D01*
X150814413Y-106411758D01*
X150242984Y-106526044D02*
X149957270Y-106526044D01*
X150300127Y-106697472D02*
X150100127Y-106097472D01*
X149900127Y-106697472D01*
X149414413Y-106097472D02*
X149700127Y-106097472D01*
X149728698Y-106383186D01*
X149700127Y-106354615D01*
X149642984Y-106326044D01*
X149500127Y-106326044D01*
X149442984Y-106354615D01*
X149414413Y-106383186D01*
X149385841Y-106440329D01*
X149385841Y-106583186D01*
X149414413Y-106640329D01*
X149442984Y-106668901D01*
X149500127Y-106697472D01*
X149642984Y-106697472D01*
X149700127Y-106668901D01*
X149728698Y-106640329D01*
X150790000Y-116811428D02*
X150790000Y-116211428D01*
X150561428Y-116211428D01*
X150504285Y-116240000D01*
X150475714Y-116268571D01*
X150447142Y-116325714D01*
X150447142Y-116411428D01*
X150475714Y-116468571D01*
X150504285Y-116497142D01*
X150561428Y-116525714D01*
X150790000Y-116525714D01*
X150218571Y-116640000D02*
X149932857Y-116640000D01*
X150275714Y-116811428D02*
X150075714Y-116211428D01*
X149875714Y-116811428D01*
X149647142Y-116811428D02*
X149532857Y-116811428D01*
X149475714Y-116782857D01*
X149447142Y-116754285D01*
X149390000Y-116668571D01*
X149361428Y-116554285D01*
X149361428Y-116325714D01*
X149390000Y-116268571D01*
X149418571Y-116240000D01*
X149475714Y-116211428D01*
X149590000Y-116211428D01*
X149647142Y-116240000D01*
X149675714Y-116268571D01*
X149704285Y-116325714D01*
X149704285Y-116468571D01*
X149675714Y-116525714D01*
X149647142Y-116554285D01*
X149590000Y-116582857D01*
X149475714Y-116582857D01*
X149418571Y-116554285D01*
X149390000Y-116525714D01*
X149361428Y-116468571D01*
X150790000Y-111731428D02*
X150790000Y-111131428D01*
X150561428Y-111131428D01*
X150504285Y-111160000D01*
X150475714Y-111188571D01*
X150447142Y-111245714D01*
X150447142Y-111331428D01*
X150475714Y-111388571D01*
X150504285Y-111417142D01*
X150561428Y-111445714D01*
X150790000Y-111445714D01*
X150218571Y-111560000D02*
X149932857Y-111560000D01*
X150275714Y-111731428D02*
X150075714Y-111131428D01*
X149875714Y-111731428D01*
X149732857Y-111131428D02*
X149332857Y-111131428D01*
X149590000Y-111731428D01*
D11*
X153243333Y-127703333D02*
X152543333Y-127470000D01*
X153243333Y-127236666D01*
X152543333Y-127003333D02*
X153243333Y-127003333D01*
X153243333Y-126836666D01*
X153210000Y-126736666D01*
X153143333Y-126670000D01*
X153076666Y-126636666D01*
X152943333Y-126603333D01*
X152843333Y-126603333D01*
X152710000Y-126636666D01*
X152643333Y-126670000D01*
X152576666Y-126736666D01*
X152543333Y-126836666D01*
X152543333Y-127003333D01*
X152543333Y-126303333D02*
X153243333Y-126303333D01*
X153243333Y-126136666D01*
X153210000Y-126036666D01*
X153143333Y-125970000D01*
X153076666Y-125936666D01*
X152943333Y-125903333D01*
X152843333Y-125903333D01*
X152710000Y-125936666D01*
X152643333Y-125970000D01*
X152576666Y-126036666D01*
X152543333Y-126136666D01*
X152543333Y-126303333D01*
X152476666Y-125770000D02*
X152476666Y-125236666D01*
X153243333Y-125136666D02*
X153243333Y-124703333D01*
X152976666Y-124936666D01*
X152976666Y-124836666D01*
X152943333Y-124770000D01*
X152910000Y-124736666D01*
X152843333Y-124703333D01*
X152676666Y-124703333D01*
X152610000Y-124736666D01*
X152576666Y-124770000D01*
X152543333Y-124836666D01*
X152543333Y-125036666D01*
X152576666Y-125103333D01*
X152610000Y-125136666D01*
X152610000Y-124403333D02*
X152576666Y-124370000D01*
X152543333Y-124403333D01*
X152576666Y-124436666D01*
X152610000Y-124403333D01*
X152543333Y-124403333D01*
X153243333Y-124136666D02*
X153243333Y-123703333D01*
X152976666Y-123936666D01*
X152976666Y-123836666D01*
X152943333Y-123770000D01*
X152910000Y-123736666D01*
X152843333Y-123703333D01*
X152676666Y-123703333D01*
X152610000Y-123736666D01*
X152576666Y-123770000D01*
X152543333Y-123836666D01*
X152543333Y-124036666D01*
X152576666Y-124103333D01*
X152610000Y-124136666D01*
X153243333Y-123503333D02*
X152543333Y-123270000D01*
X153243333Y-123036666D01*
D12*
X156018536Y-115795718D02*
X155047108Y-115795718D01*
X154932822Y-115738575D01*
X154875679Y-115681432D01*
X154818536Y-115567147D01*
X154818536Y-115338575D01*
X154875679Y-115224289D01*
X154932822Y-115167147D01*
X155047108Y-115110004D01*
X156018536Y-115110004D01*
X154818536Y-114538575D02*
X155618536Y-114538575D01*
X156018536Y-114538575D02*
X155961394Y-114595718D01*
X155904251Y-114538575D01*
X155961394Y-114481432D01*
X156018536Y-114538575D01*
X155904251Y-114538575D01*
X155618536Y-113967147D02*
X154818536Y-113967147D01*
X155504251Y-113967147D02*
X155561394Y-113910004D01*
X155618536Y-113795718D01*
X155618536Y-113624289D01*
X155561394Y-113510004D01*
X155447108Y-113452861D01*
X154818536Y-113452861D01*
X154818536Y-112881432D02*
X156018536Y-112881432D01*
X156018536Y-112081432D02*
X156018536Y-111852861D01*
X155961394Y-111738575D01*
X155847108Y-111624289D01*
X155618536Y-111567147D01*
X155218536Y-111567147D01*
X154989965Y-111624289D01*
X154875679Y-111738575D01*
X154818536Y-111852861D01*
X154818536Y-112081432D01*
X154875679Y-112195718D01*
X154989965Y-112310004D01*
X155218536Y-112367147D01*
X155618536Y-112367147D01*
X155847108Y-112310004D01*
X155961394Y-112195718D01*
X156018536Y-112081432D01*
X154932822Y-111052861D02*
X154875679Y-110995718D01*
X154818536Y-111052861D01*
X154875679Y-111110004D01*
X154932822Y-111052861D01*
X154818536Y-111052861D01*
X154875679Y-109967147D02*
X154818536Y-110081432D01*
X154818536Y-110310004D01*
X154875679Y-110424289D01*
X154932822Y-110481432D01*
X155047108Y-110538575D01*
X155389965Y-110538575D01*
X155504251Y-110481432D01*
X155561394Y-110424289D01*
X155618536Y-110310004D01*
X155618536Y-110081432D01*
X155561394Y-109967147D01*
X154818536Y-109281432D02*
X154875679Y-109395718D01*
X154932822Y-109452861D01*
X155047108Y-109510004D01*
X155389965Y-109510004D01*
X155504251Y-109452861D01*
X155561394Y-109395718D01*
X155618536Y-109281432D01*
X155618536Y-109110004D01*
X155561394Y-108995718D01*
X155504251Y-108938575D01*
X155389965Y-108881432D01*
X155047108Y-108881432D01*
X154932822Y-108938575D01*
X154875679Y-108995718D01*
X154818536Y-109110004D01*
X154818536Y-109281432D01*
X154818536Y-108367147D02*
X155618536Y-108367147D01*
X155504251Y-108367147D02*
X155561394Y-108310004D01*
X155618536Y-108195718D01*
X155618536Y-108024289D01*
X155561394Y-107910004D01*
X155447108Y-107852861D01*
X154818536Y-107852861D01*
X155447108Y-107852861D02*
X155561394Y-107795718D01*
X155618536Y-107681432D01*
X155618536Y-107510004D01*
X155561394Y-107395718D01*
X155447108Y-107338575D01*
X154818536Y-107338575D01*
D10*
X150790000Y-99031428D02*
X150790000Y-98431428D01*
X150561428Y-98431428D01*
X150504285Y-98460000D01*
X150475714Y-98488571D01*
X150447142Y-98545714D01*
X150447142Y-98631428D01*
X150475714Y-98688571D01*
X150504285Y-98717142D01*
X150561428Y-98745714D01*
X150790000Y-98745714D01*
X150218571Y-98860000D02*
X149932857Y-98860000D01*
X150275714Y-99031428D02*
X150075714Y-98431428D01*
X149875714Y-99031428D01*
X149704285Y-98488571D02*
X149675714Y-98460000D01*
X149618571Y-98431428D01*
X149475714Y-98431428D01*
X149418571Y-98460000D01*
X149390000Y-98488571D01*
X149361428Y-98545714D01*
X149361428Y-98602857D01*
X149390000Y-98688571D01*
X149732857Y-99031428D01*
X149361428Y-99031428D01*
D11*
X158310000Y-126989523D02*
X158348095Y-127065714D01*
X158348095Y-127180000D01*
X158310000Y-127294285D01*
X158233809Y-127370476D01*
X158157619Y-127408571D01*
X158005238Y-127446666D01*
X157890952Y-127446666D01*
X157738571Y-127408571D01*
X157662380Y-127370476D01*
X157586190Y-127294285D01*
X157548095Y-127180000D01*
X157548095Y-127103809D01*
X157586190Y-126989523D01*
X157624285Y-126951428D01*
X157890952Y-126951428D01*
X157890952Y-127103809D01*
X157548095Y-126608571D02*
X158348095Y-126608571D01*
X157548095Y-126151428D01*
X158348095Y-126151428D01*
X157548095Y-125770476D02*
X158348095Y-125770476D01*
X158348095Y-125580000D01*
X158310000Y-125465714D01*
X158233809Y-125389523D01*
X158157619Y-125351428D01*
X158005238Y-125313333D01*
X157890952Y-125313333D01*
X157738571Y-125351428D01*
X157662380Y-125389523D01*
X157586190Y-125465714D01*
X157548095Y-125580000D01*
X157548095Y-125770476D01*
D10*
X150790000Y-114271428D02*
X150790000Y-113671428D01*
X150561428Y-113671428D01*
X150504285Y-113700000D01*
X150475714Y-113728571D01*
X150447142Y-113785714D01*
X150447142Y-113871428D01*
X150475714Y-113928571D01*
X150504285Y-113957142D01*
X150561428Y-113985714D01*
X150790000Y-113985714D01*
X150218571Y-114100000D02*
X149932857Y-114100000D01*
X150275714Y-114271428D02*
X150075714Y-113671428D01*
X149875714Y-114271428D01*
X149590000Y-113928571D02*
X149647142Y-113900000D01*
X149675714Y-113871428D01*
X149704285Y-113814285D01*
X149704285Y-113785714D01*
X149675714Y-113728571D01*
X149647142Y-113700000D01*
X149590000Y-113671428D01*
X149475714Y-113671428D01*
X149418571Y-113700000D01*
X149390000Y-113728571D01*
X149361428Y-113785714D01*
X149361428Y-113814285D01*
X149390000Y-113871428D01*
X149418571Y-113900000D01*
X149475714Y-113928571D01*
X149590000Y-113928571D01*
X149647142Y-113957142D01*
X149675714Y-113985714D01*
X149704285Y-114042857D01*
X149704285Y-114157142D01*
X149675714Y-114214285D01*
X149647142Y-114242857D01*
X149590000Y-114271428D01*
X149475714Y-114271428D01*
X149418571Y-114242857D01*
X149390000Y-114214285D01*
X149361428Y-114157142D01*
X149361428Y-114042857D01*
X149390000Y-113985714D01*
X149418571Y-113957142D01*
X149475714Y-113928571D01*
D11*
X155676190Y-127669523D02*
X155638095Y-127555238D01*
X155638095Y-127364761D01*
X155676190Y-127288571D01*
X155714285Y-127250476D01*
X155790476Y-127212380D01*
X155866666Y-127212380D01*
X155942857Y-127250476D01*
X155980952Y-127288571D01*
X156019047Y-127364761D01*
X156057142Y-127517142D01*
X156095238Y-127593333D01*
X156133333Y-127631428D01*
X156209523Y-127669523D01*
X156285714Y-127669523D01*
X156361904Y-127631428D01*
X156400000Y-127593333D01*
X156438095Y-127517142D01*
X156438095Y-127326666D01*
X156400000Y-127212380D01*
X156438095Y-126945714D02*
X155638095Y-126755238D01*
X156209523Y-126602857D01*
X155638095Y-126450476D01*
X156438095Y-126260000D01*
X155714285Y-125498095D02*
X155676190Y-125536190D01*
X155638095Y-125650476D01*
X155638095Y-125726666D01*
X155676190Y-125840952D01*
X155752380Y-125917142D01*
X155828571Y-125955238D01*
X155980952Y-125993333D01*
X156095238Y-125993333D01*
X156247619Y-125955238D01*
X156323809Y-125917142D01*
X156400000Y-125840952D01*
X156438095Y-125726666D01*
X156438095Y-125650476D01*
X156400000Y-125536190D01*
X156361904Y-125498095D01*
X155638095Y-124774285D02*
X155638095Y-125155238D01*
X156438095Y-125155238D01*
X155638095Y-124507619D02*
X156438095Y-124507619D01*
X155638095Y-124050476D02*
X156095238Y-124393333D01*
X156438095Y-124050476D02*
X155980952Y-124507619D01*
D10*
X163792857Y-114281428D02*
X163792857Y-113681428D01*
X163564285Y-113681428D01*
X163507142Y-113710000D01*
X163478571Y-113738571D01*
X163450000Y-113795714D01*
X163450000Y-113881428D01*
X163478571Y-113938571D01*
X163507142Y-113967142D01*
X163564285Y-113995714D01*
X163792857Y-113995714D01*
X162992857Y-113967142D02*
X162907142Y-113995714D01*
X162878571Y-114024285D01*
X162850000Y-114081428D01*
X162850000Y-114167142D01*
X162878571Y-114224285D01*
X162907142Y-114252857D01*
X162964285Y-114281428D01*
X163192857Y-114281428D01*
X163192857Y-113681428D01*
X162992857Y-113681428D01*
X162935714Y-113710000D01*
X162907142Y-113738571D01*
X162878571Y-113795714D01*
X162878571Y-113852857D01*
X162907142Y-113910000D01*
X162935714Y-113938571D01*
X162992857Y-113967142D01*
X163192857Y-113967142D01*
X162307142Y-113681428D02*
X162592857Y-113681428D01*
X162621428Y-113967142D01*
X162592857Y-113938571D01*
X162535714Y-113910000D01*
X162392857Y-113910000D01*
X162335714Y-113938571D01*
X162307142Y-113967142D01*
X162278571Y-114024285D01*
X162278571Y-114167142D01*
X162307142Y-114224285D01*
X162335714Y-114252857D01*
X162392857Y-114281428D01*
X162535714Y-114281428D01*
X162592857Y-114252857D01*
X162621428Y-114224285D01*
X160571428Y-102911428D02*
X160428571Y-103511428D01*
X160314285Y-103082857D01*
X160200000Y-103511428D01*
X160057142Y-102911428D01*
X159857142Y-102968571D02*
X159828571Y-102940000D01*
X159771428Y-102911428D01*
X159628571Y-102911428D01*
X159571428Y-102940000D01*
X159542857Y-102968571D01*
X159514285Y-103025714D01*
X159514285Y-103082857D01*
X159542857Y-103168571D01*
X159885714Y-103511428D01*
X159514285Y-103511428D01*
X158971428Y-102911428D02*
X159257142Y-102911428D01*
X159285714Y-103197142D01*
X159257142Y-103168571D01*
X159200000Y-103140000D01*
X159057142Y-103140000D01*
X159000000Y-103168571D01*
X158971428Y-103197142D01*
X158942857Y-103254285D01*
X158942857Y-103397142D01*
X158971428Y-103454285D01*
X159000000Y-103482857D01*
X159057142Y-103511428D01*
X159200000Y-103511428D01*
X159257142Y-103482857D01*
X159285714Y-103454285D01*
X158285714Y-103568571D02*
X158342857Y-103540000D01*
X158400000Y-103482857D01*
X158485714Y-103397142D01*
X158542857Y-103368571D01*
X158600000Y-103368571D01*
X158571428Y-103511428D02*
X158628571Y-103482857D01*
X158685714Y-103425714D01*
X158714285Y-103311428D01*
X158714285Y-103111428D01*
X158685714Y-102997142D01*
X158628571Y-102940000D01*
X158571428Y-102911428D01*
X158457142Y-102911428D01*
X158400000Y-102940000D01*
X158342857Y-102997142D01*
X158314285Y-103111428D01*
X158314285Y-103311428D01*
X158342857Y-103425714D01*
X158400000Y-103482857D01*
X158457142Y-103511428D01*
X158571428Y-103511428D01*
X158057142Y-103282857D02*
X157600000Y-103282857D01*
X157371428Y-102911428D02*
X156971428Y-103511428D01*
X156971428Y-102911428D02*
X157371428Y-103511428D01*
X156800000Y-102911428D02*
X156400000Y-103511428D01*
X156400000Y-102911428D02*
X156800000Y-103511428D01*
X156171428Y-103282857D02*
X155714285Y-103282857D01*
X155257142Y-102911428D02*
X155257142Y-103340000D01*
X155285714Y-103425714D01*
X155342857Y-103482857D01*
X155428571Y-103511428D01*
X155485714Y-103511428D01*
X155057142Y-102911428D02*
X154857142Y-103511428D01*
X154657142Y-102911428D01*
X154485714Y-103482857D02*
X154400000Y-103511428D01*
X154257142Y-103511428D01*
X154200000Y-103482857D01*
X154171428Y-103454285D01*
X154142857Y-103397142D01*
X154142857Y-103340000D01*
X154171428Y-103282857D01*
X154200000Y-103254285D01*
X154257142Y-103225714D01*
X154371428Y-103197142D01*
X154428571Y-103168571D01*
X154457142Y-103140000D01*
X154485714Y-103082857D01*
X154485714Y-103025714D01*
X154457142Y-102968571D01*
X154428571Y-102940000D01*
X154371428Y-102911428D01*
X154228571Y-102911428D01*
X154142857Y-102940000D01*
X153914285Y-103482857D02*
X153828571Y-103511428D01*
X153685714Y-103511428D01*
X153628571Y-103482857D01*
X153600000Y-103454285D01*
X153571428Y-103397142D01*
X153571428Y-103340000D01*
X153600000Y-103282857D01*
X153628571Y-103254285D01*
X153685714Y-103225714D01*
X153800000Y-103197142D01*
X153857142Y-103168571D01*
X153885714Y-103140000D01*
X153914285Y-103082857D01*
X153914285Y-103025714D01*
X153885714Y-102968571D01*
X153857142Y-102940000D01*
X153800000Y-102911428D01*
X153657142Y-102911428D01*
X153571428Y-102940000D01*
X153314285Y-103511428D02*
X153314285Y-102911428D01*
X152628571Y-103568571D02*
X152685714Y-103540000D01*
X152742857Y-103482857D01*
X152828571Y-103397142D01*
X152885714Y-103368571D01*
X152942857Y-103368571D01*
X152914285Y-103511428D02*
X152971428Y-103482857D01*
X153028571Y-103425714D01*
X153057142Y-103311428D01*
X153057142Y-103111428D01*
X153028571Y-102997142D01*
X152971428Y-102940000D01*
X152914285Y-102911428D01*
X152800000Y-102911428D01*
X152742857Y-102940000D01*
X152685714Y-102997142D01*
X152657142Y-103111428D01*
X152657142Y-103311428D01*
X152685714Y-103425714D01*
X152742857Y-103482857D01*
X152800000Y-103511428D01*
X152914285Y-103511428D01*
X150850000Y-96491428D02*
X150850000Y-95891428D01*
X150621428Y-95891428D01*
X150564285Y-95920000D01*
X150535714Y-95948571D01*
X150507142Y-96005714D01*
X150507142Y-96091428D01*
X150535714Y-96148571D01*
X150564285Y-96177142D01*
X150621428Y-96205714D01*
X150850000Y-96205714D01*
X150278571Y-96320000D02*
X149992857Y-96320000D01*
X150335714Y-96491428D02*
X150135714Y-95891428D01*
X149935714Y-96491428D01*
X149421428Y-96491428D02*
X149764285Y-96491428D01*
X149592857Y-96491428D02*
X149592857Y-95891428D01*
X149650000Y-95977142D01*
X149707142Y-96034285D01*
X149764285Y-96062857D01*
X150790000Y-104111428D02*
X150790000Y-103511428D01*
X150561428Y-103511428D01*
X150504285Y-103540000D01*
X150475714Y-103568571D01*
X150447142Y-103625714D01*
X150447142Y-103711428D01*
X150475714Y-103768571D01*
X150504285Y-103797142D01*
X150561428Y-103825714D01*
X150790000Y-103825714D01*
X150218571Y-103940000D02*
X149932857Y-103940000D01*
X150275714Y-104111428D02*
X150075714Y-103511428D01*
X149875714Y-104111428D01*
X149418571Y-103711428D02*
X149418571Y-104111428D01*
X149561428Y-103482857D02*
X149704285Y-103911428D01*
X149332857Y-103911428D01*
X163714285Y-93381428D02*
X164000000Y-93381428D01*
X164028571Y-93667142D01*
X164000000Y-93638571D01*
X163942857Y-93610000D01*
X163800000Y-93610000D01*
X163742857Y-93638571D01*
X163714285Y-93667142D01*
X163685714Y-93724285D01*
X163685714Y-93867142D01*
X163714285Y-93924285D01*
X163742857Y-93952857D01*
X163800000Y-93981428D01*
X163942857Y-93981428D01*
X164000000Y-93952857D01*
X164028571Y-93924285D01*
X163514285Y-93381428D02*
X163314285Y-93981428D01*
X163114285Y-93381428D01*
X150790000Y-93951428D02*
X150790000Y-93351428D01*
X150561428Y-93351428D01*
X150504285Y-93380000D01*
X150475714Y-93408571D01*
X150447142Y-93465714D01*
X150447142Y-93551428D01*
X150475714Y-93608571D01*
X150504285Y-93637142D01*
X150561428Y-93665714D01*
X150790000Y-93665714D01*
X150218571Y-93780000D02*
X149932857Y-93780000D01*
X150275714Y-93951428D02*
X150075714Y-93351428D01*
X149875714Y-93951428D01*
X149561428Y-93351428D02*
X149504285Y-93351428D01*
X149447142Y-93380000D01*
X149418571Y-93408571D01*
X149390000Y-93465714D01*
X149361428Y-93580000D01*
X149361428Y-93722857D01*
X149390000Y-93837142D01*
X149418571Y-93894285D01*
X149447142Y-93922857D01*
X149504285Y-93951428D01*
X149561428Y-93951428D01*
X149618571Y-93922857D01*
X149647142Y-93894285D01*
X149675714Y-93837142D01*
X149704285Y-93722857D01*
X149704285Y-93580000D01*
X149675714Y-93465714D01*
X149647142Y-93408571D01*
X149618571Y-93380000D01*
X149561428Y-93351428D01*
X163792857Y-124441428D02*
X163792857Y-123841428D01*
X163564285Y-123841428D01*
X163507142Y-123870000D01*
X163478571Y-123898571D01*
X163450000Y-123955714D01*
X163450000Y-124041428D01*
X163478571Y-124098571D01*
X163507142Y-124127142D01*
X163564285Y-124155714D01*
X163792857Y-124155714D01*
X162992857Y-124127142D02*
X162907142Y-124155714D01*
X162878571Y-124184285D01*
X162850000Y-124241428D01*
X162850000Y-124327142D01*
X162878571Y-124384285D01*
X162907142Y-124412857D01*
X162964285Y-124441428D01*
X163192857Y-124441428D01*
X163192857Y-123841428D01*
X162992857Y-123841428D01*
X162935714Y-123870000D01*
X162907142Y-123898571D01*
X162878571Y-123955714D01*
X162878571Y-124012857D01*
X162907142Y-124070000D01*
X162935714Y-124098571D01*
X162992857Y-124127142D01*
X163192857Y-124127142D01*
X162278571Y-124441428D02*
X162621428Y-124441428D01*
X162450000Y-124441428D02*
X162450000Y-123841428D01*
X162507142Y-123927142D01*
X162564285Y-123984285D01*
X162621428Y-124012857D01*
X163995714Y-98421428D02*
X163624285Y-98421428D01*
X163824285Y-98650000D01*
X163738571Y-98650000D01*
X163681428Y-98678571D01*
X163652857Y-98707142D01*
X163624285Y-98764285D01*
X163624285Y-98907142D01*
X163652857Y-98964285D01*
X163681428Y-98992857D01*
X163738571Y-99021428D01*
X163910000Y-99021428D01*
X163967142Y-98992857D01*
X163995714Y-98964285D01*
X163367142Y-98964285D02*
X163338571Y-98992857D01*
X163367142Y-99021428D01*
X163395714Y-98992857D01*
X163367142Y-98964285D01*
X163367142Y-99021428D01*
X163138571Y-98421428D02*
X162767142Y-98421428D01*
X162967142Y-98650000D01*
X162881428Y-98650000D01*
X162824285Y-98678571D01*
X162795714Y-98707142D01*
X162767142Y-98764285D01*
X162767142Y-98907142D01*
X162795714Y-98964285D01*
X162824285Y-98992857D01*
X162881428Y-99021428D01*
X163052857Y-99021428D01*
X163110000Y-98992857D01*
X163138571Y-98964285D01*
X162595714Y-98421428D02*
X162395714Y-99021428D01*
X162195714Y-98421428D01*
X163587142Y-95900000D02*
X163644285Y-95871428D01*
X163730000Y-95871428D01*
X163815714Y-95900000D01*
X163872857Y-95957142D01*
X163901428Y-96014285D01*
X163930000Y-96128571D01*
X163930000Y-96214285D01*
X163901428Y-96328571D01*
X163872857Y-96385714D01*
X163815714Y-96442857D01*
X163730000Y-96471428D01*
X163672857Y-96471428D01*
X163587142Y-96442857D01*
X163558571Y-96414285D01*
X163558571Y-96214285D01*
X163672857Y-96214285D01*
X163301428Y-96471428D02*
X163301428Y-95871428D01*
X162958571Y-96471428D01*
X162958571Y-95871428D01*
X162672857Y-96471428D02*
X162672857Y-95871428D01*
X162530000Y-95871428D01*
X162444285Y-95900000D01*
X162387142Y-95957142D01*
X162358571Y-96014285D01*
X162330000Y-96128571D01*
X162330000Y-96214285D01*
X162358571Y-96328571D01*
X162387142Y-96385714D01*
X162444285Y-96442857D01*
X162530000Y-96471428D01*
X162672857Y-96471428D01*
X163507142Y-101010000D02*
X163564285Y-100981428D01*
X163650000Y-100981428D01*
X163735714Y-101010000D01*
X163792857Y-101067142D01*
X163821428Y-101124285D01*
X163850000Y-101238571D01*
X163850000Y-101324285D01*
X163821428Y-101438571D01*
X163792857Y-101495714D01*
X163735714Y-101552857D01*
X163650000Y-101581428D01*
X163592857Y-101581428D01*
X163507142Y-101552857D01*
X163478571Y-101524285D01*
X163478571Y-101324285D01*
X163592857Y-101324285D01*
X163221428Y-101581428D02*
X163221428Y-100981428D01*
X162878571Y-101581428D01*
X162878571Y-100981428D01*
X162592857Y-101581428D02*
X162592857Y-100981428D01*
X162450000Y-100981428D01*
X162364285Y-101010000D01*
X162307142Y-101067142D01*
X162278571Y-101124285D01*
X162250000Y-101238571D01*
X162250000Y-101324285D01*
X162278571Y-101438571D01*
X162307142Y-101495714D01*
X162364285Y-101552857D01*
X162450000Y-101581428D01*
X162592857Y-101581428D01*
%TO.C,U2*%
X156944523Y-99351904D02*
X156944523Y-99999523D01*
X156906428Y-100075714D01*
X156868333Y-100113809D01*
X156792142Y-100151904D01*
X156639761Y-100151904D01*
X156563571Y-100113809D01*
X156525476Y-100075714D01*
X156487380Y-99999523D01*
X156487380Y-99351904D01*
X156144523Y-99428095D02*
X156106428Y-99390000D01*
X156030238Y-99351904D01*
X155839761Y-99351904D01*
X155763571Y-99390000D01*
X155725476Y-99428095D01*
X155687380Y-99504285D01*
X155687380Y-99580476D01*
X155725476Y-99694761D01*
X156182619Y-100151904D01*
X155687380Y-100151904D01*
%TO.C,C3*%
X156660000Y-94954285D02*
X156688571Y-94982857D01*
X156774285Y-95011428D01*
X156831428Y-95011428D01*
X156917142Y-94982857D01*
X156974285Y-94925714D01*
X157002857Y-94868571D01*
X157031428Y-94754285D01*
X157031428Y-94668571D01*
X157002857Y-94554285D01*
X156974285Y-94497142D01*
X156917142Y-94440000D01*
X156831428Y-94411428D01*
X156774285Y-94411428D01*
X156688571Y-94440000D01*
X156660000Y-94468571D01*
X156460000Y-94411428D02*
X156088571Y-94411428D01*
X156288571Y-94640000D01*
X156202857Y-94640000D01*
X156145714Y-94668571D01*
X156117142Y-94697142D01*
X156088571Y-94754285D01*
X156088571Y-94897142D01*
X156117142Y-94954285D01*
X156145714Y-94982857D01*
X156202857Y-95011428D01*
X156374285Y-95011428D01*
X156431428Y-94982857D01*
X156460000Y-94954285D01*
D12*
%TO.C,*%
D13*
%TO.C,J2*%
X166810000Y-94990000D02*
X164150000Y-94990000D01*
X166810000Y-94990000D02*
X166810000Y-128070000D01*
X166810000Y-92390000D02*
X165480000Y-92390000D01*
X164150000Y-94990000D02*
X164150000Y-128070000D01*
X166810000Y-128070000D02*
X164150000Y-128070000D01*
X166810000Y-93720000D02*
X166810000Y-92390000D01*
D14*
%TO.C,U2*%
X154374000Y-96711000D02*
X154374000Y-101989000D01*
X158726000Y-101989000D02*
X158726000Y-96711000D01*
X158726000Y-96711000D02*
X154374000Y-96711000D01*
X154374000Y-101989000D02*
X158726000Y-101989000D01*
D12*
X160230000Y-96678000D02*
G75*
G03*
X160230000Y-96678000I-150000J0D01*
G01*
X158124000Y-97445000D02*
G75*
G03*
X158124000Y-97445000I-150000J0D01*
G01*
D13*
%TO.C,C3*%
X156627836Y-96130000D02*
X156412164Y-96130000D01*
X156627836Y-95410000D02*
X156412164Y-95410000D01*
%TO.C,*%
G36*
X154821891Y-117601848D02*
G01*
X154816454Y-117607284D01*
X154811018Y-117601848D01*
X154816454Y-117596411D01*
X154821891Y-117601848D01*
G37*
G36*
X155493712Y-118754198D02*
G01*
X155492410Y-118767102D01*
X155489140Y-118768803D01*
X155485161Y-118759853D01*
X155485946Y-118754097D01*
X155492410Y-118752604D01*
X155493712Y-118754198D01*
G37*
G36*
X155363232Y-118286646D02*
G01*
X155361931Y-118299550D01*
X155358660Y-118301251D01*
X155354682Y-118292301D01*
X155355467Y-118286545D01*
X155361931Y-118285053D01*
X155363232Y-118286646D01*
G37*
G36*
X155376429Y-118615350D02*
G01*
X155389210Y-118619493D01*
X155398175Y-118625205D01*
X155394128Y-118627619D01*
X155376429Y-118629373D01*
X155363798Y-118627528D01*
X155354682Y-118619518D01*
X155359090Y-118614740D01*
X155376429Y-118615350D01*
G37*
G36*
X155365555Y-118319485D02*
G01*
X155360119Y-118324921D01*
X155354682Y-118319485D01*
X155360119Y-118314048D01*
X155365555Y-118319485D01*
G37*
G36*
X155340184Y-118622125D02*
G01*
X155341885Y-118625395D01*
X155332935Y-118629373D01*
X155327179Y-118628589D01*
X155325687Y-118622125D01*
X155327280Y-118620823D01*
X155340184Y-118622125D01*
G37*
G36*
X154734905Y-119395940D02*
G01*
X154729468Y-119401377D01*
X154724031Y-119395940D01*
X154729468Y-119390503D01*
X154734905Y-119395940D01*
G37*
G36*
X155897493Y-118305830D02*
G01*
X155902774Y-118312894D01*
X155906252Y-118328940D01*
X155908478Y-118357159D01*
X155910001Y-118400740D01*
X155911372Y-118462874D01*
X155911840Y-118488355D01*
X155912480Y-118543496D01*
X155912506Y-118589550D01*
X155911933Y-118622300D01*
X155910775Y-118637528D01*
X155905778Y-118644672D01*
X155887216Y-118651120D01*
X155876231Y-118649151D01*
X155861910Y-118637528D01*
X155861134Y-118634023D01*
X155859457Y-118611565D01*
X155858363Y-118573272D01*
X155857942Y-118523417D01*
X155858285Y-118466274D01*
X155858653Y-118438453D01*
X155859647Y-118385000D01*
X155861224Y-118348535D01*
X155863925Y-118325691D01*
X155868292Y-118313100D01*
X155874866Y-118307396D01*
X155884188Y-118305211D01*
X155889860Y-118304559D01*
X155897493Y-118305830D01*
G37*
G36*
X157172214Y-118872340D02*
G01*
X157194380Y-118912517D01*
X157213726Y-118956588D01*
X157242062Y-119041926D01*
X157263455Y-119134220D01*
X157275535Y-119224372D01*
X157275688Y-119226398D01*
X157277603Y-119271503D01*
X157277550Y-119322143D01*
X157275821Y-119373772D01*
X157272706Y-119421842D01*
X157268496Y-119461808D01*
X157263481Y-119489121D01*
X157257954Y-119499236D01*
X157255767Y-119496821D01*
X157249986Y-119478132D01*
X157243394Y-119444978D01*
X157237033Y-119402190D01*
X157235974Y-119394524D01*
X157226796Y-119344086D01*
X157212772Y-119281609D01*
X157195613Y-119214305D01*
X157177031Y-119149386D01*
X157158038Y-119084338D01*
X157140054Y-119011895D01*
X157130353Y-118954119D01*
X157128485Y-118908082D01*
X157133997Y-118870859D01*
X157142503Y-118852887D01*
X157155158Y-118852626D01*
X157172214Y-118872340D01*
G37*
G36*
X156906337Y-117460634D02*
G01*
X156926984Y-117482413D01*
X156932362Y-117493132D01*
X156937116Y-117510342D01*
X156940892Y-117535874D01*
X156943906Y-117572414D01*
X156946375Y-117622647D01*
X156948514Y-117689257D01*
X156950539Y-117774929D01*
X156956170Y-118040090D01*
X156927924Y-118068336D01*
X156902538Y-118089028D01*
X156877405Y-118095358D01*
X156856471Y-118081809D01*
X156853868Y-118078215D01*
X156852075Y-118062118D01*
X156866013Y-118039320D01*
X156876842Y-118023376D01*
X156888357Y-117986777D01*
X156879731Y-117954652D01*
X156851319Y-117929647D01*
X156849078Y-117928394D01*
X156819310Y-117904550D01*
X156797281Y-117875526D01*
X156789282Y-117855182D01*
X156784809Y-117808607D01*
X156796056Y-117763324D01*
X156820925Y-117725436D01*
X156857317Y-117701045D01*
X156889747Y-117688834D01*
X156882272Y-117618158D01*
X156878076Y-117583105D01*
X156873757Y-117555315D01*
X156870500Y-117543017D01*
X156862819Y-117544513D01*
X156846251Y-117556609D01*
X156830825Y-117568421D01*
X156810009Y-117573101D01*
X156796595Y-117557567D01*
X156795015Y-117537769D01*
X156809973Y-117507992D01*
X156843260Y-117477561D01*
X156851096Y-117472186D01*
X156882403Y-117457304D01*
X156906337Y-117460634D01*
G37*
G36*
X155430795Y-118656557D02*
G01*
X155425358Y-118661993D01*
X155419922Y-118656557D01*
X155425358Y-118651120D01*
X155430795Y-118656557D01*
G37*
G36*
X155496035Y-118863149D02*
G01*
X155490598Y-118868586D01*
X155485161Y-118863149D01*
X155490598Y-118857712D01*
X155496035Y-118863149D01*
G37*
G36*
X155430795Y-118765289D02*
G01*
X155425358Y-118770726D01*
X155419922Y-118765289D01*
X155425358Y-118759853D01*
X155430795Y-118765289D01*
G37*
G36*
X155430795Y-118210752D02*
G01*
X155425358Y-118216188D01*
X155419922Y-118210752D01*
X155425358Y-118205315D01*
X155430795Y-118210752D01*
G37*
G36*
X154850886Y-119350635D02*
G01*
X154852587Y-119353905D01*
X154843637Y-119357884D01*
X154837881Y-119357099D01*
X154836389Y-119350635D01*
X154837982Y-119349333D01*
X154850886Y-119350635D01*
G37*
G36*
X155398175Y-118232498D02*
G01*
X155392739Y-118237935D01*
X155387302Y-118232498D01*
X155392739Y-118227062D01*
X155398175Y-118232498D01*
G37*
G36*
X156180253Y-117884324D02*
G01*
X156194132Y-117893052D01*
X156197362Y-117911736D01*
X156197357Y-117912744D01*
X156191341Y-117934144D01*
X156170179Y-117942680D01*
X156150588Y-117947212D01*
X156130781Y-117956459D01*
X156124521Y-117964371D01*
X156112975Y-117995172D01*
X156102868Y-118043682D01*
X156094308Y-118107231D01*
X156087405Y-118183151D01*
X156082269Y-118268771D01*
X156079008Y-118361423D01*
X156077734Y-118458438D01*
X156078554Y-118557145D01*
X156081579Y-118654876D01*
X156086918Y-118748962D01*
X156094680Y-118836732D01*
X156101710Y-118893318D01*
X156110923Y-118942222D01*
X156122197Y-118974946D01*
X156136622Y-118994499D01*
X156155290Y-119003887D01*
X156155554Y-119003954D01*
X156175805Y-119014554D01*
X156179039Y-119034788D01*
X156176681Y-119044670D01*
X156165044Y-119055977D01*
X156138732Y-119058868D01*
X156130940Y-119058604D01*
X156106809Y-119052891D01*
X156087172Y-119038123D01*
X156071272Y-119012184D01*
X156058353Y-118972959D01*
X156047661Y-118918333D01*
X156038438Y-118846190D01*
X156029929Y-118754416D01*
X156027670Y-118724170D01*
X156022656Y-118620658D01*
X156020700Y-118508287D01*
X156021655Y-118392139D01*
X156025377Y-118277298D01*
X156031720Y-118168846D01*
X156040540Y-118071865D01*
X156051692Y-117991438D01*
X156063951Y-117943418D01*
X156085702Y-117905252D01*
X156116816Y-117885039D01*
X156158726Y-117881306D01*
X156180253Y-117884324D01*
G37*
G36*
X156638366Y-120192700D02*
G01*
X156556812Y-120163629D01*
X156487605Y-120123758D01*
X156413628Y-120061970D01*
X156357722Y-119988396D01*
X156319249Y-119902145D01*
X156297571Y-119802330D01*
X156293378Y-119770552D01*
X156288580Y-119741957D01*
X156387644Y-119741957D01*
X156387653Y-119786415D01*
X156389100Y-119805086D01*
X156402334Y-119855749D01*
X156426647Y-119911262D01*
X156458673Y-119964654D01*
X156495050Y-120008954D01*
X156507005Y-120020600D01*
X156554211Y-120059066D01*
X156603111Y-120084350D01*
X156660174Y-120099100D01*
X156731875Y-120105970D01*
X156758044Y-120107066D01*
X156800385Y-120107404D01*
X156831862Y-120104232D01*
X156859779Y-120096507D01*
X156891442Y-120083185D01*
X156930956Y-120061523D01*
X156973430Y-120031928D01*
X157011972Y-119999520D01*
X157041476Y-119968611D01*
X157056837Y-119943512D01*
X157057407Y-119930480D01*
X157046196Y-119906872D01*
X157019195Y-119874082D01*
X156999522Y-119851581D01*
X156988892Y-119837646D01*
X156981680Y-119828192D01*
X156974802Y-119814805D01*
X156974728Y-119814277D01*
X156962863Y-119808716D01*
X156933291Y-119805026D01*
X156889704Y-119803688D01*
X156866906Y-119803192D01*
X156834426Y-119802485D01*
X156743427Y-119796875D01*
X156647705Y-119787507D01*
X156556074Y-119775290D01*
X156477349Y-119761135D01*
X156387644Y-119741957D01*
X156288580Y-119741957D01*
X156287314Y-119734410D01*
X156280666Y-119712569D01*
X156271836Y-119700499D01*
X156259225Y-119693672D01*
X156252644Y-119691027D01*
X156211227Y-119670634D01*
X156159704Y-119640887D01*
X156103756Y-119605362D01*
X156049068Y-119567638D01*
X156001323Y-119531293D01*
X155978231Y-119512116D01*
X155916737Y-119455878D01*
X155861790Y-119396230D01*
X155809991Y-119328880D01*
X155757939Y-119249539D01*
X155702235Y-119153917D01*
X155640030Y-119042374D01*
X155610863Y-119101989D01*
X155597114Y-119126544D01*
X155568633Y-119166645D01*
X155539630Y-119197611D01*
X155535630Y-119200968D01*
X155520772Y-119211415D01*
X155484153Y-119237164D01*
X155413913Y-119276977D01*
X155327159Y-119319421D01*
X155226138Y-119363509D01*
X155113098Y-119408256D01*
X154990285Y-119452675D01*
X154859947Y-119495782D01*
X154837094Y-119503004D01*
X154784409Y-119519676D01*
X154740206Y-119533698D01*
X154708572Y-119543772D01*
X154693591Y-119548600D01*
X154685476Y-119545964D01*
X154682063Y-119528600D01*
X154682718Y-119493130D01*
X154685975Y-119432926D01*
X154762088Y-119406388D01*
X154765537Y-119405184D01*
X154804743Y-119391253D01*
X154836605Y-119379524D01*
X154854511Y-119372428D01*
X154868969Y-119367508D01*
X154896543Y-119361999D01*
X154913798Y-119358884D01*
X154927953Y-119353306D01*
X154928605Y-119349207D01*
X154917017Y-119341215D01*
X154895383Y-119334202D01*
X154871138Y-119330288D01*
X154851713Y-119331588D01*
X154837294Y-119333881D01*
X154838260Y-119325168D01*
X154839356Y-119320907D01*
X154830839Y-119316183D01*
X154806524Y-119314685D01*
X154763508Y-119316060D01*
X154680538Y-119320250D01*
X154680538Y-118849931D01*
X155441668Y-118849931D01*
X155441811Y-118850310D01*
X155451968Y-118858296D01*
X155473248Y-118871678D01*
X155489009Y-118880033D01*
X155520772Y-118889813D01*
X155542408Y-118885950D01*
X155550401Y-118868586D01*
X155550169Y-118863556D01*
X155544907Y-118852844D01*
X155542056Y-118851992D01*
X155528644Y-118847984D01*
X155512345Y-118847412D01*
X155496035Y-118846839D01*
X155476479Y-118847047D01*
X155455032Y-118848007D01*
X155451456Y-118848167D01*
X155441668Y-118849931D01*
X154680538Y-118849931D01*
X154680538Y-118810911D01*
X155400704Y-118810911D01*
X155419207Y-118824710D01*
X155424904Y-118827571D01*
X155455032Y-118836038D01*
X155476792Y-118831349D01*
X155485161Y-118814298D01*
X155482544Y-118801363D01*
X155469976Y-118794903D01*
X155441668Y-118794333D01*
X155427022Y-118795316D01*
X155403397Y-118800995D01*
X155400704Y-118810911D01*
X154680538Y-118810911D01*
X154680538Y-118647114D01*
X155305741Y-118647114D01*
X155319553Y-118665725D01*
X155347324Y-118674496D01*
X155347402Y-118674499D01*
X155369479Y-118675826D01*
X155370707Y-118677488D01*
X155351967Y-118680654D01*
X155338731Y-118683195D01*
X155328249Y-118690635D01*
X155333322Y-118706208D01*
X155344362Y-118718653D01*
X155368656Y-118728494D01*
X155371737Y-118728673D01*
X155383348Y-118730746D01*
X155374072Y-118734658D01*
X155369964Y-118735863D01*
X155361218Y-118743724D01*
X155368533Y-118760580D01*
X155379917Y-118772454D01*
X155401746Y-118779623D01*
X155438847Y-118781599D01*
X155464903Y-118781951D01*
X155485821Y-118784868D01*
X155494387Y-118792951D01*
X155496035Y-118808783D01*
X155499227Y-118826514D01*
X155512345Y-118835966D01*
X155520781Y-118834647D01*
X155528066Y-118821710D01*
X155518575Y-118795043D01*
X155513102Y-118783813D01*
X155502155Y-118755958D01*
X155498984Y-118748649D01*
X155485433Y-118739762D01*
X155457868Y-118740183D01*
X155456321Y-118740357D01*
X155429651Y-118740057D01*
X155419922Y-118732369D01*
X155428281Y-118724900D01*
X155452542Y-118724914D01*
X155467171Y-118726455D01*
X155481713Y-118722503D01*
X155485161Y-118706720D01*
X155485159Y-118706181D01*
X155479093Y-118688644D01*
X155457978Y-118683740D01*
X155440051Y-118687117D01*
X155430629Y-118697331D01*
X155429454Y-118704162D01*
X155422474Y-118698962D01*
X155417733Y-118693486D01*
X155398175Y-118680792D01*
X155395406Y-118678830D01*
X155403903Y-118675447D01*
X155428077Y-118673725D01*
X155456364Y-118671754D01*
X155470738Y-118665116D01*
X155474288Y-118651120D01*
X155470899Y-118637373D01*
X155453183Y-118629373D01*
X155440737Y-118627782D01*
X155425985Y-118619514D01*
X155426938Y-118614630D01*
X155441653Y-118615346D01*
X155441740Y-118615368D01*
X155458816Y-118614933D01*
X155463415Y-118598022D01*
X155460357Y-118584189D01*
X155447105Y-118575007D01*
X155439553Y-118576553D01*
X155430629Y-118588599D01*
X155428810Y-118595029D01*
X155420462Y-118586383D01*
X155418815Y-118583937D01*
X155406295Y-118576177D01*
X155386456Y-118582604D01*
X155385291Y-118582981D01*
X155365633Y-118591672D01*
X155336658Y-118601921D01*
X155323917Y-118607096D01*
X155306868Y-118625344D01*
X155305741Y-118647114D01*
X154680538Y-118647114D01*
X154680538Y-118493457D01*
X155365555Y-118493457D01*
X155365892Y-118503097D01*
X155371148Y-118517220D01*
X155386456Y-118518696D01*
X155416496Y-118508948D01*
X155447105Y-118497255D01*
X155445440Y-118496330D01*
X155437099Y-118491695D01*
X155507772Y-118491695D01*
X155509836Y-118517655D01*
X155515820Y-118560754D01*
X155524186Y-118608903D01*
X155533397Y-118653381D01*
X155541915Y-118685465D01*
X155542056Y-118685664D01*
X155542978Y-118675361D01*
X155543776Y-118646876D01*
X155544405Y-118603326D01*
X155544817Y-118547826D01*
X155544878Y-118521336D01*
X155629218Y-118521336D01*
X155629253Y-118561882D01*
X155631489Y-118585880D01*
X155632557Y-118591108D01*
X155636698Y-118616137D01*
X155642402Y-118654261D01*
X155648767Y-118699544D01*
X155666228Y-118791865D01*
X155701514Y-118913327D01*
X155749247Y-119035500D01*
X155806682Y-119151537D01*
X155871076Y-119254587D01*
X155877191Y-119263007D01*
X155925761Y-119321759D01*
X155986354Y-119384895D01*
X156053050Y-119446864D01*
X156119923Y-119502116D01*
X156181052Y-119545099D01*
X156197342Y-119554932D01*
X156310040Y-119609650D01*
X156440654Y-119652248D01*
X156589036Y-119682688D01*
X156755036Y-119700927D01*
X156866906Y-119708690D01*
X156854510Y-119681483D01*
X156853034Y-119678385D01*
X156840981Y-119662729D01*
X156829954Y-119657919D01*
X156820447Y-119653772D01*
X156784803Y-119648362D01*
X156774428Y-119647116D01*
X156707293Y-119629736D01*
X156651480Y-119598660D01*
X156611168Y-119556106D01*
X156598580Y-119533872D01*
X156584383Y-119497197D01*
X156573466Y-119451158D01*
X156565518Y-119393293D01*
X156560225Y-119321138D01*
X156557275Y-119232231D01*
X156556413Y-119130866D01*
X156585762Y-119130866D01*
X156588317Y-119199535D01*
X156594230Y-119281771D01*
X156603579Y-119374971D01*
X156615626Y-119449730D01*
X156631835Y-119507064D01*
X156653768Y-119549133D01*
X156682985Y-119578097D01*
X156721049Y-119596114D01*
X156769518Y-119605346D01*
X156829954Y-119607952D01*
X156872461Y-119607108D01*
X156910059Y-119602333D01*
X156934442Y-119591179D01*
X156950306Y-119571240D01*
X156962348Y-119540111D01*
X156971436Y-119503167D01*
X156981506Y-119437044D01*
X156988807Y-119357080D01*
X156993337Y-119267701D01*
X156995096Y-119173335D01*
X156994085Y-119078406D01*
X156990305Y-118987342D01*
X156983754Y-118904569D01*
X156974432Y-118834513D01*
X156962341Y-118781599D01*
X156945467Y-118743043D01*
X156915153Y-118710392D01*
X156873828Y-118695290D01*
X156820481Y-118697422D01*
X156754098Y-118716471D01*
X156714434Y-118734745D01*
X156666193Y-118771810D01*
X156630873Y-118822175D01*
X156607089Y-118888042D01*
X156593455Y-118971609D01*
X156590653Y-119002562D01*
X156586548Y-119067847D01*
X156585762Y-119130866D01*
X156556413Y-119130866D01*
X156556356Y-119124108D01*
X156556396Y-119067612D01*
X156556755Y-119002008D01*
X156557728Y-118952463D01*
X156559608Y-118915613D01*
X156562687Y-118888095D01*
X156567254Y-118866546D01*
X156573603Y-118847602D01*
X156582024Y-118827902D01*
X156592769Y-118807066D01*
X156619823Y-118766359D01*
X156648481Y-118734074D01*
X156669817Y-118717678D01*
X156710578Y-118693629D01*
X156756269Y-118672267D01*
X156799393Y-118656970D01*
X156832453Y-118651120D01*
X156838101Y-118650489D01*
X156847874Y-118642624D01*
X156854526Y-118622124D01*
X156859931Y-118584436D01*
X156860577Y-118578078D01*
X156862846Y-118531710D01*
X156862658Y-118476234D01*
X156860008Y-118422298D01*
X156852541Y-118326843D01*
X156851578Y-118326664D01*
X156813094Y-118319506D01*
X156750665Y-118302542D01*
X156679963Y-118265548D01*
X156623120Y-118211854D01*
X156579790Y-118141195D01*
X156576341Y-118133541D01*
X156569525Y-118115757D01*
X156564481Y-118095977D01*
X156560946Y-118070909D01*
X156558656Y-118037263D01*
X156557348Y-117991746D01*
X156556758Y-117931067D01*
X156556697Y-117895599D01*
X156588973Y-117895599D01*
X156589954Y-117963031D01*
X156593215Y-118015033D01*
X156598820Y-118054000D01*
X156621584Y-118130993D01*
X156658498Y-118191742D01*
X156709908Y-118236726D01*
X156776162Y-118266419D01*
X156793657Y-118271400D01*
X156851578Y-118281763D01*
X156895636Y-118276804D01*
X156928367Y-118255071D01*
X156952303Y-118215115D01*
X156969981Y-118155485D01*
X156970526Y-118152973D01*
X156980712Y-118089466D01*
X156987966Y-118011121D01*
X156992344Y-117922493D01*
X156993899Y-117828138D01*
X156992687Y-117732609D01*
X156988762Y-117640463D01*
X156982180Y-117556254D01*
X156972994Y-117484538D01*
X156961260Y-117429871D01*
X156960255Y-117426550D01*
X156942462Y-117391628D01*
X156913496Y-117369752D01*
X156870489Y-117359588D01*
X156810575Y-117359803D01*
X156792407Y-117361459D01*
X156729726Y-117374991D01*
X156681711Y-117401072D01*
X156646459Y-117441707D01*
X156622064Y-117498903D01*
X156606624Y-117574664D01*
X156604080Y-117595121D01*
X156597825Y-117662500D01*
X156593096Y-117739157D01*
X156590083Y-117818916D01*
X156588973Y-117895599D01*
X156556697Y-117895599D01*
X156556621Y-117851933D01*
X156556746Y-117805742D01*
X156558191Y-117707863D01*
X156561557Y-117628019D01*
X156567216Y-117563612D01*
X156575539Y-117512047D01*
X156586899Y-117470725D01*
X156601669Y-117437050D01*
X156620221Y-117408425D01*
X156621774Y-117406418D01*
X156668842Y-117363348D01*
X156728567Y-117335543D01*
X156796366Y-117325170D01*
X156821817Y-117323402D01*
X156836551Y-117317086D01*
X156889061Y-117317086D01*
X156890943Y-117318114D01*
X156907273Y-117325977D01*
X156933536Y-117338083D01*
X156943366Y-117342932D01*
X156971289Y-117363745D01*
X156991424Y-117393961D01*
X157005893Y-117437680D01*
X157016818Y-117499000D01*
X157024235Y-117560677D01*
X157032509Y-117664907D01*
X157036313Y-117771478D01*
X157035830Y-117876983D01*
X157031241Y-117978016D01*
X157022731Y-118071167D01*
X157010481Y-118153029D01*
X156994675Y-118220196D01*
X156975496Y-118269259D01*
X156975322Y-118269578D01*
X156955765Y-118291223D01*
X156927715Y-118308523D01*
X156893252Y-118322904D01*
X156896515Y-118487014D01*
X156899779Y-118651125D01*
X156931531Y-118667545D01*
X156943576Y-118674791D01*
X156966231Y-118696417D01*
X156984717Y-118728057D01*
X156999729Y-118772054D01*
X157011965Y-118830755D01*
X157022122Y-118906502D01*
X157030898Y-119001640D01*
X157031333Y-119007323D01*
X157035190Y-119084841D01*
X157036195Y-119169874D01*
X157034570Y-119257553D01*
X157030541Y-119343010D01*
X157024331Y-119421377D01*
X157016163Y-119487785D01*
X157006262Y-119537368D01*
X157002080Y-119550480D01*
X156979408Y-119593287D01*
X156948194Y-119627002D01*
X156913807Y-119645353D01*
X156913663Y-119645390D01*
X156892303Y-119654625D01*
X156890895Y-119668303D01*
X156909147Y-119689143D01*
X156909622Y-119689569D01*
X156919899Y-119696753D01*
X156934172Y-119701650D01*
X156955988Y-119704526D01*
X156988892Y-119705651D01*
X157036430Y-119705293D01*
X157102148Y-119703717D01*
X157132554Y-119702851D01*
X157190229Y-119700790D01*
X157232405Y-119698141D01*
X157263455Y-119694236D01*
X157287758Y-119688405D01*
X157309687Y-119679977D01*
X157333620Y-119668282D01*
X157399017Y-119632337D01*
X157493120Y-119568808D01*
X157568218Y-119500008D01*
X157625966Y-119423993D01*
X157668017Y-119338822D01*
X157696025Y-119242551D01*
X157696129Y-119242053D01*
X157703891Y-119202257D01*
X157706380Y-119178268D01*
X157703557Y-119164841D01*
X157695383Y-119156728D01*
X157670445Y-119139212D01*
X157646781Y-119116468D01*
X157633796Y-119090182D01*
X157626270Y-119052480D01*
X157625729Y-119048518D01*
X157620906Y-118994126D01*
X157618159Y-118924148D01*
X157617416Y-118844136D01*
X157618603Y-118759643D01*
X157621649Y-118676219D01*
X157626480Y-118599417D01*
X157633026Y-118534789D01*
X157648099Y-118440074D01*
X157676170Y-118309604D01*
X157712206Y-118175628D01*
X157754311Y-118044458D01*
X157800586Y-117922406D01*
X157849134Y-117815786D01*
X157858259Y-117797697D01*
X157871441Y-117769890D01*
X157875594Y-117755263D01*
X157871364Y-117749589D01*
X157859397Y-117748637D01*
X157835618Y-117743054D01*
X157798947Y-117727851D01*
X157754857Y-117705827D01*
X157708608Y-117679786D01*
X157665464Y-117652529D01*
X157630687Y-117626857D01*
X157628754Y-117625237D01*
X157593151Y-117591683D01*
X157553953Y-117549448D01*
X157519300Y-117507273D01*
X157512103Y-117497909D01*
X157461508Y-117440915D01*
X157405427Y-117394203D01*
X157339796Y-117355302D01*
X157260550Y-117321742D01*
X157163625Y-117291052D01*
X157154499Y-117288534D01*
X157090284Y-117273193D01*
X157031593Y-117263022D01*
X156985811Y-117259339D01*
X156959713Y-117259729D01*
X156932415Y-117262911D01*
X156915733Y-117271207D01*
X156902903Y-117286862D01*
X156902580Y-117287356D01*
X156891317Y-117307272D01*
X156889061Y-117317086D01*
X156836551Y-117317086D01*
X156841333Y-117315036D01*
X156853857Y-117295991D01*
X156861581Y-117274794D01*
X156862181Y-117262700D01*
X156859516Y-117261827D01*
X156839492Y-117261435D01*
X156804018Y-117263370D01*
X156757486Y-117267180D01*
X156704288Y-117272415D01*
X156648816Y-117278623D01*
X156595464Y-117285353D01*
X156548624Y-117292155D01*
X156512687Y-117298578D01*
X156394906Y-117328511D01*
X156391362Y-117329412D01*
X156275533Y-117372625D01*
X156171269Y-117428481D01*
X156074058Y-117499427D01*
X155979391Y-117587911D01*
X155913202Y-117662947D01*
X155824478Y-117788978D01*
X155750561Y-117927544D01*
X155693171Y-118075254D01*
X155654030Y-118228720D01*
X155650897Y-118247168D01*
X155644710Y-118294688D01*
X155639130Y-118350917D01*
X155634475Y-118410801D01*
X155631065Y-118469292D01*
X155629218Y-118521336D01*
X155544878Y-118521336D01*
X155544965Y-118483490D01*
X155544962Y-118474855D01*
X155544784Y-118410908D01*
X155544355Y-118355736D01*
X155543722Y-118312584D01*
X155542931Y-118284692D01*
X155542027Y-118275304D01*
X155541543Y-118276305D01*
X155537473Y-118292040D01*
X155530902Y-118322501D01*
X155522999Y-118362341D01*
X155522413Y-118365434D01*
X155514708Y-118413082D01*
X155509458Y-118458305D01*
X155507772Y-118491695D01*
X155437099Y-118491695D01*
X155419922Y-118482150D01*
X155398164Y-118471921D01*
X155379147Y-118466659D01*
X155370185Y-118473194D01*
X155365555Y-118493457D01*
X154680538Y-118493457D01*
X154680538Y-118362707D01*
X155286312Y-118362707D01*
X155297313Y-118369737D01*
X155319184Y-118378174D01*
X155345655Y-118386003D01*
X155370452Y-118391206D01*
X155387302Y-118391768D01*
X155394633Y-118391052D01*
X155395621Y-118396212D01*
X155395531Y-118396306D01*
X155398358Y-118406339D01*
X155415893Y-118418992D01*
X155425247Y-118423776D01*
X155445440Y-118432192D01*
X155452135Y-118428522D01*
X155449391Y-118411908D01*
X155447715Y-118398852D01*
X155452325Y-118390161D01*
X155455021Y-118388268D01*
X155461986Y-118371471D01*
X155468026Y-118342946D01*
X155469440Y-118333622D01*
X155475337Y-118296370D01*
X155480347Y-118266833D01*
X155481083Y-118262388D01*
X155479886Y-118242919D01*
X155466346Y-118236851D01*
X155465252Y-118236781D01*
X155459203Y-118233963D01*
X155474288Y-118228206D01*
X155491591Y-118219593D01*
X155501471Y-118199388D01*
X155502881Y-118186780D01*
X155510166Y-118171720D01*
X155513603Y-118167272D01*
X155523262Y-118146297D01*
X155533795Y-118115685D01*
X155540446Y-118092918D01*
X155543756Y-118074620D01*
X155538960Y-118068273D01*
X155525100Y-118068703D01*
X155521796Y-118069197D01*
X155494621Y-118077326D01*
X155463487Y-118091048D01*
X155459636Y-118093056D01*
X155438868Y-118105202D01*
X155435441Y-118112443D01*
X155447177Y-118118438D01*
X155457926Y-118123176D01*
X155455887Y-118127992D01*
X155434422Y-118133764D01*
X155433444Y-118133987D01*
X155407965Y-118143974D01*
X155393988Y-118157050D01*
X155392519Y-118163641D01*
X155398660Y-118171492D01*
X155419319Y-118174262D01*
X155457978Y-118172809D01*
X155459614Y-118172708D01*
X155479496Y-118173326D01*
X155483970Y-118177379D01*
X155478764Y-118179754D01*
X155456417Y-118183877D01*
X155424167Y-118186572D01*
X155404841Y-118187683D01*
X155381908Y-118191640D01*
X155371484Y-118200955D01*
X155367534Y-118219091D01*
X155362249Y-118238377D01*
X155354109Y-118243018D01*
X155346591Y-118244052D01*
X155332257Y-118258496D01*
X155317165Y-118282324D01*
X155305227Y-118309045D01*
X155300356Y-118332170D01*
X155297877Y-118347045D01*
X155287968Y-118359845D01*
X155286312Y-118362707D01*
X154680538Y-118362707D01*
X154680538Y-117629031D01*
X154702926Y-117629031D01*
X154715507Y-117630727D01*
X154720280Y-117637186D01*
X154720281Y-117641788D01*
X154734110Y-117646822D01*
X154761193Y-117648048D01*
X154796354Y-117645680D01*
X154834420Y-117639930D01*
X154870217Y-117631012D01*
X154934335Y-117610705D01*
X154899553Y-117598580D01*
X154898259Y-117598138D01*
X154869124Y-117591959D01*
X154846984Y-117593281D01*
X154837616Y-117595447D01*
X154835860Y-117589325D01*
X154836127Y-117587927D01*
X154825752Y-117578653D01*
X154799515Y-117566032D01*
X154761565Y-117552139D01*
X154680606Y-117525735D01*
X154680572Y-117484227D01*
X154681566Y-117461271D01*
X154687039Y-117448243D01*
X154699566Y-117448215D01*
X154702446Y-117449031D01*
X154724650Y-117455152D01*
X154762165Y-117465383D01*
X154810555Y-117478517D01*
X154865384Y-117493347D01*
X155003622Y-117532235D01*
X155133526Y-117572612D01*
X155244831Y-117611892D01*
X155339109Y-117650676D01*
X155417933Y-117689564D01*
X155482877Y-117729157D01*
X155514707Y-117756150D01*
X155555460Y-117803627D01*
X155591202Y-117858593D01*
X155616371Y-117913369D01*
X155630098Y-117953058D01*
X155672631Y-117869876D01*
X155694561Y-117827662D01*
X155740594Y-117744849D01*
X155784841Y-117675132D01*
X155831015Y-117613354D01*
X155882831Y-117554355D01*
X155944002Y-117492978D01*
X155983747Y-117455555D01*
X156032389Y-117412783D01*
X156076683Y-117378691D01*
X156122567Y-117348815D01*
X156175983Y-117318692D01*
X156220192Y-117294811D01*
X156253832Y-117275514D01*
X156274407Y-117261010D01*
X156285140Y-117248447D01*
X156289255Y-117234968D01*
X156289974Y-117217719D01*
X156291907Y-117190299D01*
X156292680Y-117184641D01*
X156387644Y-117184641D01*
X156389029Y-117212181D01*
X156394906Y-117222936D01*
X156407903Y-117221755D01*
X156440344Y-117213097D01*
X156502698Y-117200996D01*
X156580979Y-117189588D01*
X156671769Y-117179353D01*
X156771651Y-117170769D01*
X156954503Y-117157317D01*
X156968405Y-117124060D01*
X156983479Y-117096374D01*
X157001018Y-117075285D01*
X157018005Y-117056506D01*
X157035506Y-117029258D01*
X157043397Y-117011623D01*
X157043268Y-116997276D01*
X157032259Y-116980689D01*
X157007977Y-116955442D01*
X156990181Y-116939232D01*
X156948762Y-116907709D01*
X156907215Y-116882121D01*
X156890832Y-116873853D01*
X156862940Y-116862394D01*
X156834226Y-116855832D01*
X156797723Y-116852873D01*
X156746463Y-116852220D01*
X156711311Y-116852499D01*
X156671175Y-116854458D01*
X156641350Y-116859480D01*
X156614930Y-116868929D01*
X156585012Y-116884174D01*
X156554364Y-116903210D01*
X156494064Y-116954509D01*
X156444052Y-117015842D01*
X156409975Y-117080864D01*
X156401865Y-117105550D01*
X156391641Y-117148746D01*
X156387644Y-117184367D01*
X156387644Y-117184641D01*
X156292680Y-117184641D01*
X156297664Y-117148137D01*
X156305879Y-117103615D01*
X156320294Y-117050477D01*
X156359084Y-116967179D01*
X156415688Y-116895959D01*
X156490941Y-116835607D01*
X156564934Y-116793558D01*
X156644366Y-116764586D01*
X156724901Y-116753615D01*
X156811399Y-116759490D01*
X156860848Y-116770810D01*
X156923219Y-116793124D01*
X156983925Y-116822113D01*
X157036343Y-116854554D01*
X157073846Y-116887222D01*
X157081026Y-116895281D01*
X157100381Y-116913652D01*
X157115647Y-116918480D01*
X157133833Y-116912749D01*
X157163186Y-116904211D01*
X157197808Y-116900521D01*
X157214419Y-116899216D01*
X157252567Y-116891768D01*
X157292438Y-116879919D01*
X157301828Y-116876618D01*
X157396443Y-116848773D01*
X157507120Y-116824224D01*
X157628885Y-116803607D01*
X157756765Y-116787558D01*
X157885788Y-116776713D01*
X158010981Y-116771708D01*
X158127370Y-116773178D01*
X158147080Y-116774178D01*
X158278194Y-116786848D01*
X158405443Y-116809162D01*
X158524520Y-116840035D01*
X158631119Y-116878377D01*
X158720932Y-116923101D01*
X158742418Y-116936834D01*
X158802799Y-116983319D01*
X158866194Y-117041485D01*
X158927357Y-117105948D01*
X158981044Y-117171322D01*
X159022008Y-117232222D01*
X159044983Y-117269553D01*
X159078830Y-117314537D01*
X159108163Y-117340346D01*
X159120496Y-117347957D01*
X159186037Y-117399823D01*
X159250660Y-117468667D01*
X159311694Y-117550578D01*
X159366469Y-117641647D01*
X159412313Y-117737965D01*
X159446556Y-117835623D01*
X159461666Y-117899510D01*
X159477014Y-117993781D01*
X159488570Y-118100721D01*
X159496123Y-118215468D01*
X159499463Y-118333161D01*
X159498378Y-118448938D01*
X159492658Y-118557938D01*
X159482093Y-118655301D01*
X159471321Y-118722488D01*
X159424089Y-118931122D01*
X159357116Y-119130931D01*
X159270045Y-119322864D01*
X159162522Y-119507867D01*
X159162136Y-119508462D01*
X159117517Y-119574654D01*
X159073550Y-119633594D01*
X159026618Y-119689330D01*
X158973102Y-119745910D01*
X158909381Y-119807382D01*
X158831839Y-119877796D01*
X158827774Y-119881416D01*
X158754497Y-119947830D01*
X158696237Y-120003363D01*
X158650898Y-120050306D01*
X158616385Y-120090950D01*
X158590602Y-120127587D01*
X158571455Y-120162507D01*
X158563731Y-120177512D01*
X158543760Y-120209101D01*
X158525365Y-120230223D01*
X158492263Y-120246386D01*
X158452810Y-120246225D01*
X158415090Y-120229270D01*
X158384995Y-120196919D01*
X158370239Y-120173240D01*
X158358383Y-120154823D01*
X158353253Y-120150957D01*
X158337562Y-120148006D01*
X158309300Y-120148051D01*
X158265485Y-120151142D01*
X158203133Y-120157326D01*
X158201524Y-120157496D01*
X158131864Y-120163534D01*
X158050685Y-120168530D01*
X157967943Y-120171968D01*
X157893595Y-120173334D01*
X157858733Y-120173638D01*
X157777872Y-120176366D01*
X157712326Y-120181718D01*
X157665256Y-120189473D01*
X157634987Y-120196231D01*
X157598825Y-120202885D01*
X157574715Y-120205613D01*
X157571942Y-120205526D01*
X157544533Y-120195121D01*
X157516488Y-120172236D01*
X157494647Y-120143732D01*
X157485846Y-120116467D01*
X157485665Y-120111722D01*
X157482851Y-120102524D01*
X157474206Y-120094496D01*
X157456666Y-120086396D01*
X157427166Y-120076982D01*
X157382642Y-120065011D01*
X157320029Y-120049240D01*
X157286516Y-120040869D01*
X157232641Y-120027265D01*
X157188223Y-120015865D01*
X157157146Y-120007669D01*
X157143298Y-120003680D01*
X157135363Y-120006176D01*
X157116947Y-120021598D01*
X157094382Y-120046842D01*
X157049446Y-120093476D01*
X156974771Y-120145725D01*
X156885710Y-120185132D01*
X156817154Y-120201316D01*
X156800385Y-120202084D01*
X156727547Y-120205419D01*
X156638366Y-120192700D01*
G37*
G36*
X156391994Y-118470430D02*
G01*
X156405948Y-118485302D01*
X156412129Y-118498571D01*
X156428300Y-118522543D01*
X156432168Y-118526859D01*
X156443798Y-118534669D01*
X156460271Y-118533622D01*
X156489169Y-118523885D01*
X156498225Y-118520974D01*
X156539675Y-118513010D01*
X156592414Y-118507960D01*
X156648508Y-118506151D01*
X156700024Y-118507912D01*
X156739030Y-118513570D01*
X156760446Y-118523211D01*
X156766100Y-118540057D01*
X156762351Y-118547661D01*
X156751141Y-118553851D01*
X156729023Y-118558359D01*
X156692385Y-118561890D01*
X156637617Y-118565150D01*
X156593660Y-118568172D01*
X156543452Y-118573467D01*
X156502928Y-118579767D01*
X156478115Y-118586273D01*
X156468072Y-118590008D01*
X156429274Y-118592714D01*
X156395845Y-118574407D01*
X156367650Y-118535022D01*
X156363002Y-118525317D01*
X156353299Y-118497912D01*
X156352009Y-118480197D01*
X156354569Y-118475571D01*
X156371396Y-118466858D01*
X156391994Y-118470430D01*
G37*
G36*
X155409048Y-118732670D02*
G01*
X155403612Y-118738106D01*
X155398175Y-118732670D01*
X155403612Y-118727233D01*
X155409048Y-118732670D01*
G37*
G36*
X157266031Y-117469972D02*
G01*
X157269850Y-117505328D01*
X157272340Y-117558177D01*
X157273350Y-117626389D01*
X157273358Y-117629817D01*
X157271334Y-117726099D01*
X157264141Y-117807390D01*
X157250635Y-117879877D01*
X157229675Y-117949748D01*
X157200119Y-118023188D01*
X157199319Y-118024988D01*
X157177249Y-118068253D01*
X157158735Y-118091733D01*
X157144313Y-118094982D01*
X157134523Y-118077554D01*
X157132725Y-118069790D01*
X157128464Y-118015982D01*
X157134277Y-117954392D01*
X157149401Y-117894410D01*
X157164240Y-117848974D01*
X157184452Y-117779385D01*
X157203833Y-117705033D01*
X157220836Y-117632253D01*
X157233915Y-117567383D01*
X157241525Y-117516760D01*
X157242244Y-117510124D01*
X157247726Y-117472494D01*
X157253821Y-117454509D01*
X157261113Y-117454314D01*
X157266031Y-117469972D01*
G37*
G36*
X155422902Y-118227504D02*
G01*
X155430795Y-118238577D01*
X155429941Y-118242510D01*
X155419922Y-118243372D01*
X155416668Y-118241140D01*
X155409048Y-118231857D01*
X155409331Y-118230772D01*
X155419922Y-118227062D01*
X155422902Y-118227504D01*
G37*
G36*
X155365555Y-118352105D02*
G01*
X155360119Y-118357541D01*
X155354682Y-118352105D01*
X155360119Y-118346668D01*
X155365555Y-118352105D01*
G37*
G36*
X155430795Y-118156385D02*
G01*
X155425358Y-118161822D01*
X155419922Y-118156385D01*
X155425358Y-118150949D01*
X155430795Y-118156385D01*
G37*
G36*
X155428646Y-118299093D02*
G01*
X155427349Y-118316087D01*
X155423436Y-118321120D01*
X155420780Y-118309517D01*
X155421549Y-118298489D01*
X155426491Y-118295246D01*
X155428646Y-118299093D01*
G37*
G36*
X154872633Y-117610909D02*
G01*
X154874334Y-117614179D01*
X154865384Y-117618158D01*
X154859628Y-117617373D01*
X154858135Y-117610909D01*
X154859729Y-117609607D01*
X154872633Y-117610909D01*
G37*
G36*
X154799194Y-119327744D02*
G01*
X154806414Y-119331477D01*
X154817067Y-119348998D01*
X154814004Y-119360747D01*
X154796270Y-119359721D01*
X154786730Y-119356976D01*
X154780157Y-119352892D01*
X154793568Y-119349067D01*
X154795553Y-119348643D01*
X154807281Y-119343297D01*
X154799004Y-119334208D01*
X154798062Y-119333548D01*
X154789361Y-119326205D01*
X154799194Y-119327744D01*
G37*
G36*
X155430795Y-118395598D02*
G01*
X155429134Y-118403889D01*
X155419922Y-118406471D01*
X155416632Y-118404242D01*
X155409048Y-118395598D01*
X155409560Y-118394025D01*
X155419922Y-118384724D01*
X155425681Y-118383854D01*
X155430795Y-118395598D01*
G37*
G36*
X155428646Y-118342586D02*
G01*
X155427349Y-118359580D01*
X155423436Y-118364613D01*
X155420780Y-118353011D01*
X155421549Y-118341982D01*
X155426491Y-118338739D01*
X155428646Y-118342586D01*
G37*
G36*
X155514157Y-118121953D02*
G01*
X155515858Y-118125224D01*
X155506908Y-118129202D01*
X155501152Y-118128417D01*
X155499659Y-118121953D01*
X155501253Y-118120652D01*
X155514157Y-118121953D01*
G37*
G36*
X155485161Y-118123765D02*
G01*
X155479725Y-118129202D01*
X155474288Y-118123765D01*
X155479725Y-118118329D01*
X155485161Y-118123765D01*
G37*
G36*
X156897966Y-118865510D02*
G01*
X156925441Y-118889882D01*
X156956262Y-118922052D01*
X156950419Y-119180743D01*
X156948392Y-119256657D01*
X156945066Y-119340790D01*
X156941039Y-119403977D01*
X156936281Y-119446673D01*
X156930760Y-119469335D01*
X156918705Y-119487454D01*
X156893975Y-119498893D01*
X156862938Y-119490467D01*
X156826925Y-119462267D01*
X156807885Y-119442261D01*
X156793190Y-119421005D01*
X156793208Y-119405265D01*
X156806585Y-119390239D01*
X156815158Y-119384614D01*
X156829627Y-119385562D01*
X156850078Y-119401676D01*
X156876942Y-119426914D01*
X156877062Y-119389681D01*
X156879066Y-119351824D01*
X156883743Y-119312773D01*
X156884919Y-119305359D01*
X156885784Y-119282242D01*
X156876080Y-119268124D01*
X156851003Y-119254449D01*
X156842329Y-119250298D01*
X156820402Y-119239406D01*
X156811539Y-119234320D01*
X156810963Y-119232457D01*
X156805342Y-119216311D01*
X156795706Y-119189348D01*
X156794843Y-119186953D01*
X156784277Y-119156157D01*
X156780810Y-119136080D01*
X156784365Y-119117474D01*
X156794860Y-119091087D01*
X156794974Y-119090814D01*
X156817248Y-119057456D01*
X156849226Y-119030559D01*
X156866997Y-119018867D01*
X156883510Y-118999646D01*
X156887816Y-118974227D01*
X156882795Y-118947410D01*
X156864473Y-118915817D01*
X156855289Y-118905340D01*
X156847792Y-118889113D01*
X156854931Y-118874341D01*
X156859143Y-118869618D01*
X156877243Y-118859058D01*
X156897966Y-118865510D01*
G37*
G36*
X154742153Y-117567416D02*
G01*
X154743855Y-117570686D01*
X154734905Y-117574664D01*
X154729148Y-117573880D01*
X154727656Y-117567416D01*
X154729249Y-117566114D01*
X154742153Y-117567416D01*
G37*
G36*
X155428472Y-118264900D02*
G01*
X155427171Y-118277804D01*
X155423900Y-118279505D01*
X155419922Y-118270555D01*
X155420706Y-118264799D01*
X155427171Y-118263306D01*
X155428472Y-118264900D01*
G37*
%TO.C,J1*%
X149100000Y-94960000D02*
X149100000Y-128040000D01*
X149100000Y-94960000D02*
X146440000Y-94960000D01*
X149100000Y-128040000D02*
X146440000Y-128040000D01*
X149100000Y-92360000D02*
X147770000Y-92360000D01*
X146440000Y-94960000D02*
X146440000Y-128040000D01*
X149100000Y-93690000D02*
X149100000Y-92360000D01*
%TD*%
%LPC*%
D15*
%TO.C,J3*%
X160460000Y-129310000D03*
D16*
X157920000Y-129310000D03*
X155380000Y-129310000D03*
X152840000Y-129310000D03*
%TD*%
D17*
%TO.C,USB1*%
X160960000Y-89270000D03*
X152320000Y-89270000D03*
X160960000Y-85470000D03*
X152320000Y-85470000D03*
%TD*%
D15*
%TO.C,J2*%
X165480000Y-93720000D03*
D16*
X165480000Y-96260000D03*
X165480000Y-98800000D03*
X165480000Y-101340000D03*
X165480000Y-103880000D03*
X165480000Y-106420000D03*
X165480000Y-108960000D03*
X165480000Y-111500000D03*
X165480000Y-114040000D03*
X165480000Y-116580000D03*
X165480000Y-119120000D03*
X165480000Y-121660000D03*
X165480000Y-124200000D03*
X165480000Y-126740000D03*
%TD*%
D18*
%TO.C,U2*%
X160080000Y-97445000D03*
X160080000Y-98715000D03*
X160080000Y-99985000D03*
X160080000Y-101255000D03*
X153020000Y-101255000D03*
X153020000Y-99985000D03*
X153020000Y-98715000D03*
X153020000Y-97445000D03*
%TD*%
D19*
%TO.C,C3*%
X157000000Y-95770000D03*
X156040000Y-95770000D03*
%TD*%
D15*
%TO.C,J1*%
X147770000Y-93690000D03*
D16*
X147770000Y-96230000D03*
X147770000Y-98770000D03*
X147770000Y-101310000D03*
X147770000Y-103850000D03*
X147770000Y-106390000D03*
X147770000Y-108930000D03*
X147770000Y-111470000D03*
X147770000Y-114010000D03*
X147770000Y-116550000D03*
X147770000Y-119090000D03*
X147770000Y-121630000D03*
X147770000Y-124170000D03*
X147770000Y-126710000D03*
%TD*%
M02*
